<svg xmlns="http://www.w3.org/2000/svg" width="249" height="221" viewBox="0 0 249 221" role="img" aria-label="01_icons_01">
  <title>01_icons_01</title>
  <path d="M 151.43 0.59 L 150.00 2.35 L 147.39 2.98 L 144.41 3.03 L 141.59 3.47 L 138.79 3.96 L 135.80 4.00 L 132.81 4.05 L 130.05 4.64 L 127.24 5.10 L 124.51 5.77 L 121.77 6.41 L 119.05 7.10 L 116.36 7.86 L 113.73 8.76 L 111.09 9.66 L 108.45 10.52 L 105.81 11.41 L 103.27 12.55 L 100.65 13.48 L 98.15 14.68 L 95.59 15.78 L 92.98 16.71 L 90.42 17.79 L 88.00 19.20 L 85.53 20.49 L 83.05 21.77 L 80.65 23.22 L 78.24 24.65 L 76.34 26.39 L 75.46 28.88 L 73.31 29.69 L 71.12 29.75 L 68.98 30.99 L 66.54 32.30 L 64.19 33.89 L 61.84 35.46 L 59.62 37.35 L 57.33 39.09 L 55.09 40.93 L 52.93 42.98 L 50.62 44.65 L 48.42 46.59 L 46.29 48.71 L 44.16 50.84 L 42.04 52.96 L 39.92 55.09 L 37.90 57.25 L 36.21 59.53 L 34.27 61.35 L 32.67 63.52 L 31.04 65.85 L 29.21 68.10 L 27.57 70.42 L 25.92 72.75 L 24.54 75.18 L 22.98 77.54 L 21.40 79.89 L 20.08 82.35 L 18.81 84.83 L 17.32 87.21 L 16.31 89.80 L 15.09 92.30 L 13.88 94.81 L 12.85 97.38 L 11.99 100.03 L 11.13 102.68 L 10.27 105.33 L 9.64 108.07 L 8.77 110.72 L 8.02 113.41 L 7.30 116.12 L 6.96 118.99 L 6.41 121.77 L 6.02 124.61 L 5.92 127.57 L 5.28 130.31 L 5.00 133.20 L 5.00 136.21 L 5.18 139.14 L 5.82 141.88 L 6.00 144.81 L 6.00 147.81 L 6.28 150.70 L 6.95 153.43 L 7.42 156.24 L 8.10 158.97 L 8.81 161.68 L 9.48 164.41 L 10.32 167.06 L 11.08 169.76 L 12.20 172.30 L 13.60 174.72 L 14.86 177.20 L 16.13 179.68 L 17.74 182.02 L 19.26 184.40 L 20.84 186.75 L 22.41 189.10 L 24.32 191.32 L 26.44 193.44 L 28.57 195.57 L 30.50 197.73 L 32.23 199.60 L 34.23 201.03 L 36.60 202.39 L 38.93 204.01 L 41.19 205.80 L 43.67 207.08 L 46.16 208.33 L 48.58 209.73 L 51.06 211.00 L 53.63 212.05 L 56.21 213.08 L 58.78 214.12 L 61.36 215.14 L 64.01 216.00 L 66.68 216.81 L 69.41 217.47 L 72.14 218.14 L 74.87 218.82 L 77.68 219.28 L 80.42 219.92 L 83.39 220.00 L 86.40 220.00 L 89.40 220.00 L 92.41 220.00 L 95.42 220.00 L 98.42 220.00 L 101.43 220.00 L 104.43 220.00 L 107.44 220.00 L 110.44 220.00 L 113.45 220.00 L 116.44 219.98 L 119.28 219.57 L 122.07 219.04 L 125.04 218.96 L 127.81 218.40 L 130.62 217.93 L 133.35 217.26 L 136.09 216.63 L 138.74 215.76 L 141.44 215.01 L 144.13 214.26 L 146.77 213.39 L 149.42 212.53 L 152.06 211.64 L 154.59 210.50 L 157.21 209.57 L 159.73 208.39 L 162.22 207.14 L 164.79 206.09 L 167.36 205.05 L 169.85 203.80 L 172.19 202.19 L 174.74 201.09 L 177.19 199.76 L 179.49 198.06 L 181.86 196.88 L 183.40 195.14 L 185.56 193.75 L 187.89 192.14 L 190.22 190.51 L 192.58 188.95 L 194.84 187.14 L 197.05 185.24 L 199.17 183.49 L 199.96 180.85 L 200.22 177.98 L 201.87 176.25 L 204.72 175.97 L 207.43 175.25 L 209.65 173.35 L 211.73 171.21 L 213.41 168.89 L 215.32 166.68 L 217.28 164.49 L 218.95 162.17 L 220.78 159.95 L 222.38 157.89 L 223.86 155.76 L 225.14 153.30 L 226.73 150.96 L 228.01 148.48 L 229.24 145.98 L 230.50 143.50 L 231.76 141.02 L 232.98 138.52 L 233.71 135.94 L 233.31 133.32 L 234.43 131.34 L 236.58 130.30 L 237.69 128.02 L 238.59 125.39 L 239.68 122.84 L 240.31 120.10 L 241.20 117.46 L 242.07 114.82 L 242.82 112.12 L 243.11 109.24 L 243.75 106.50 L 244.05 103.62 L 244.70 100.88 L 245.00 98.00 L 245.00 94.99 L 245.00 91.99 L 245.00 88.98 L 245.00 85.98 L 245.00 82.97 L 245.00 79.97 L 244.96 76.98 L 244.40 74.20 L 243.94 71.39 L 243.26 68.66 L 242.64 65.92 L 242.05 63.16 L 241.71 60.29 L 240.85 57.64 L 239.81 55.07 L 238.58 52.57 L 237.65 49.95 L 236.51 47.42 L 235.46 44.85 L 233.76 42.55 L 232.13 40.22 L 230.56 37.86 L 228.79 35.59 L 227.12 33.28 L 225.10 31.11 L 222.98 28.98 L 220.85 26.85 L 218.73 24.73 L 216.54 22.76 L 214.21 21.13 L 211.85 19.58 L 209.50 18.00 L 207.14 16.43 L 204.69 15.09 L 202.20 13.86 L 199.69 12.64 L 197.01 11.86 L 194.50 10.67 L 192.03 9.39 L 189.30 9.27 L 186.97 9.27 L 185.52 7.48 L 183.23 6.42 L 180.42 5.94 L 177.69 5.28 L 174.88 4.83 L 172.14 4.18 L 169.22 3.97 L 166.42 3.47 L 163.60 3.03 L 160.61 3.00 L 157.60 3.00 L 154.75 2.72 L 152.95 1.15 Z M 101.13 213.05 L 101.37 212.67 L 101.70 212.34 L 102.09 212.12 L 102.54 212.02 L 103.01 212.00 L 103.49 212.02 L 103.94 212.12 L 104.32 212.36 L 104.65 212.69 L 104.88 213.08 L 104.96 213.51 L 104.87 213.95 L 104.63 214.33 L 104.30 214.66 L 103.91 214.88 L 103.46 214.98 L 102.99 215.00 L 102.51 214.98 L 102.06 214.88 L 101.68 214.64 L 101.35 214.31 L 101.12 213.92 L 101.04 213.49 Z M 95.00 212.00 L 95.43 211.60 L 95.89 211.26 L 96.40 211.10 L 96.92 211.16 L 97.39 211.44 L 97.82 211.83 L 98.24 212.25 L 98.61 212.69 L 98.87 213.18 L 98.98 213.73 L 98.98 214.31 L 98.86 214.86 L 98.59 215.33 L 98.17 215.69 L 97.67 215.91 L 97.10 215.99 L 96.51 216.00 L 95.92 216.00 L 95.32 216.00 L 94.73 215.98 L 94.18 215.87 L 93.70 215.61 L 93.33 215.21 L 93.12 214.72 L 93.14 214.20 L 93.37 213.71 L 93.74 213.27 L 94.16 212.84 L 94.58 212.42 Z M 147.15 195.06 L 147.44 194.62 L 147.85 194.28 L 148.33 194.10 L 148.83 194.13 L 149.29 194.37 L 149.66 194.76 L 149.89 195.23 L 149.98 195.76 L 150.02 196.32 L 150.13 196.85 L 150.37 197.32 L 150.68 197.76 L 150.90 198.25 L 150.98 198.78 L 150.98 199.34 L 150.87 199.87 L 150.62 200.34 L 150.31 200.78 L 150.10 201.27 L 150.01 201.80 L 149.98 202.36 L 149.86 202.89 L 149.60 203.35 L 149.23 203.77 L 148.83 204.18 L 148.44 204.59 L 148.16 205.04 L 148.03 205.56 L 147.99 206.12 L 147.92 206.66 L 147.72 207.15 L 147.38 207.56 L 146.94 207.84 L 146.44 207.92 L 145.94 207.78 L 145.52 207.46 L 145.21 207.03 L 145.05 206.53 L 145.00 205.98 L 144.94 205.43 L 144.77 204.93 L 144.46 204.48 L 144.07 204.07 L 143.68 203.66 L 143.33 203.23 L 143.09 202.76 L 142.92 202.26 L 142.68 201.79 L 142.32 201.39 L 141.87 201.12 L 141.37 200.95 L 140.88 200.74 L 140.47 200.41 L 140.17 199.97 L 140.08 199.47 L 140.20 198.98 L 140.51 198.55 L 140.93 198.23 L 141.43 198.06 L 141.98 198.01 L 142.55 198.00 L 143.13 198.00 L 143.70 198.00 L 144.27 198.00 L 144.85 198.00 L 145.42 198.00 L 145.98 197.99 L 146.49 197.92 L 146.83 197.70 L 146.97 197.26 L 147.00 196.72 L 147.00 196.15 L 147.03 195.58 Z M 51.15 180.06 L 51.45 179.61 L 51.87 179.27 L 52.37 179.08 L 52.93 179.01 L 53.51 179.00 L 54.10 179.00 L 54.68 179.00 L 55.26 179.02 L 55.80 179.12 L 56.28 179.37 L 56.65 179.76 L 56.87 180.23 L 56.88 180.74 L 56.67 181.23 L 56.37 181.69 L 56.11 182.17 L 55.93 182.68 L 55.71 183.17 L 55.37 183.61 L 54.96 184.03 L 54.54 184.43 L 54.09 184.75 L 53.59 184.91 L 53.08 184.84 L 52.62 184.57 L 52.19 184.19 L 51.78 183.77 L 51.40 183.34 L 51.13 182.87 L 51.02 182.33 L 51.00 181.76 L 51.00 181.17 L 51.03 180.60 Z M 166.94 172.85 L 167.41 172.57 L 167.87 172.27 L 168.38 172.08 L 168.94 172.02 L 169.51 172.05 L 170.03 172.21 L 170.47 172.53 L 170.78 172.97 L 170.91 173.48 L 170.81 173.99 L 170.52 174.45 L 170.12 174.87 L 169.71 175.29 L 169.29 175.71 L 168.88 176.12 L 168.45 176.52 L 167.99 176.82 L 167.48 177.01 L 166.97 177.20 L 166.50 177.50 L 166.04 177.79 L 165.53 177.91 L 165.01 177.82 L 164.55 177.54 L 164.08 177.24 L 163.58 177.04 L 163.06 176.86 L 162.61 176.55 L 162.27 176.13 L 162.08 175.62 L 162.02 175.06 L 162.05 174.49 L 162.21 173.97 L 162.53 173.53 L 162.97 173.21 L 163.49 173.05 L 164.06 173.01 L 164.65 173.00 L 165.23 173.00 L 165.82 173.00 L 166.40 172.97 Z M 155.13 169.05 L 155.37 168.67 L 155.70 168.34 L 156.09 168.12 L 156.53 168.04 L 156.96 168.13 L 157.34 168.38 L 157.66 168.71 L 157.89 169.10 L 157.98 169.55 L 158.00 170.03 L 157.98 170.51 L 157.87 170.95 L 157.63 171.33 L 157.30 171.66 L 156.91 171.88 L 156.47 171.96 L 156.04 171.87 L 155.66 171.62 L 155.34 171.29 L 155.11 170.90 L 155.02 170.45 L 155.00 169.97 L 155.02 169.49 Z M 176.14 167.06 L 176.41 166.64 L 176.80 166.30 L 177.26 166.09 L 177.77 166.02 L 178.30 166.02 L 178.81 166.11 L 179.25 166.34 L 179.62 166.69 L 179.87 167.12 L 179.92 167.60 L 179.78 168.07 L 179.48 168.49 L 179.11 168.88 L 178.73 169.27 L 178.33 169.62 L 177.89 169.86 L 177.41 169.92 L 176.94 169.79 L 176.54 169.49 L 176.23 169.08 L 176.06 168.61 L 176.01 168.09 L 176.02 167.55 Z M 181.00 162.00 L 181.42 161.60 L 181.87 161.27 L 182.38 161.08 L 182.95 161.01 L 183.53 161.00 L 184.11 161.01 L 184.67 161.09 L 185.17 161.30 L 185.58 161.66 L 185.85 162.11 L 185.90 162.63 L 185.73 163.12 L 185.39 163.55 L 184.94 163.85 L 184.40 163.97 L 183.83 164.01 L 183.28 164.10 L 182.78 164.32 L 182.32 164.63 L 181.84 164.86 L 181.32 164.89 L 180.83 164.70 L 180.42 164.34 L 180.15 163.89 L 180.10 163.37 L 180.27 162.87 L 180.60 162.42 Z M 190.13 154.05 L 190.37 153.67 L 190.70 153.34 L 191.09 153.12 L 191.54 153.02 L 192.01 153.00 L 192.49 153.02 L 192.94 153.12 L 193.32 153.36 L 193.65 153.69 L 193.88 154.08 L 193.96 154.51 L 193.87 154.95 L 193.63 155.33 L 193.30 155.66 L 192.91 155.88 L 192.46 155.98 L 191.99 156.00 L 191.51 155.98 L 191.06 155.88 L 190.68 155.64 L 190.35 155.31 L 190.12 154.92 L 190.04 154.49 Z M 64.13 147.05 L 64.37 146.67 L 64.70 146.34 L 65.09 146.12 L 65.54 146.02 L 66.01 146.00 L 66.49 146.02 L 66.94 146.12 L 67.32 146.36 L 67.65 146.69 L 67.88 147.08 L 67.96 147.51 L 67.87 147.95 L 67.63 148.33 L 67.30 148.66 L 66.91 148.88 L 66.46 148.98 L 65.99 149.00 L 65.51 148.98 L 65.06 148.88 L 64.68 148.64 L 64.35 148.31 L 64.12 147.92 L 64.04 147.49 Z M 219.13 142.05 L 219.37 141.67 L 219.70 141.34 L 220.09 141.12 L 220.54 141.02 L 221.01 141.00 L 221.49 141.02 L 221.94 141.12 L 222.32 141.36 L 222.65 141.69 L 222.88 142.08 L 222.96 142.51 L 222.87 142.95 L 222.63 143.33 L 222.30 143.66 L 221.91 143.88 L 221.46 143.98 L 220.99 144.00 L 220.51 143.98 L 220.06 143.88 L 219.68 143.64 L 219.35 143.31 L 219.12 142.92 L 219.04 142.49 Z M 68.17 85.06 L 68.46 84.60 L 68.90 84.26 L 69.41 84.10 L 69.94 84.16 L 70.42 84.44 L 70.90 84.75 L 71.41 84.96 L 71.94 85.15 L 72.40 85.46 L 72.74 85.90 L 72.90 86.41 L 72.83 86.94 L 72.54 87.40 L 72.10 87.74 L 71.59 87.90 L 71.06 87.84 L 70.58 87.56 L 70.10 87.25 L 69.59 87.04 L 69.06 86.85 L 68.60 86.54 L 68.26 86.10 L 68.10 85.59 Z M 177.15 67.06 L 177.43 66.62 L 177.84 66.28 L 178.33 66.08 L 178.87 66.01 L 179.43 66.00 L 180.00 66.00 L 180.57 66.00 L 181.13 66.01 L 181.67 66.08 L 182.16 66.28 L 182.57 66.62 L 182.85 67.06 L 182.92 67.56 L 182.78 68.05 L 182.47 68.47 L 182.05 68.79 L 181.56 68.97 L 181.06 69.14 L 180.62 69.43 L 180.28 69.84 L 180.06 70.32 L 179.90 70.82 L 179.64 71.27 L 179.26 71.64 L 178.80 71.87 L 178.30 71.89 L 177.83 71.71 L 177.43 71.37 L 177.14 70.92 L 177.02 70.40 L 177.00 69.84 L 177.00 69.28 L 177.00 68.71 L 177.00 68.14 L 177.03 67.58 Z M 191.13 44.05 L 191.37 43.67 L 191.70 43.34 L 192.09 43.12 L 192.54 43.02 L 193.01 43.00 L 193.49 43.02 L 193.94 43.12 L 194.32 43.36 L 194.65 43.69 L 194.88 44.08 L 194.96 44.51 L 194.87 44.95 L 194.63 45.33 L 194.30 45.66 L 193.91 45.88 L 193.46 45.98 L 192.99 46.00 L 192.51 45.98 L 192.06 45.88 L 191.68 45.64 L 191.35 45.31 L 191.12 44.92 L 191.04 44.49 Z M 188.94 39.86 L 189.42 39.57 L 189.90 39.26 L 190.41 39.10 L 190.94 39.17 L 191.40 39.46 L 191.74 39.90 L 191.90 40.41 L 191.83 40.94 L 191.54 41.40 L 191.10 41.74 L 190.59 41.96 L 190.06 42.14 L 189.58 42.43 L 189.10 42.74 L 188.59 42.90 L 188.06 42.83 L 187.60 42.54 L 187.26 42.10 L 187.10 41.59 L 187.17 41.06 L 187.46 40.60 L 187.90 40.26 L 188.41 40.04 Z M 174.15 39.06 L 174.43 38.62 L 174.84 38.28 L 175.33 38.08 L 175.87 38.01 L 176.43 38.00 L 177.00 38.01 L 177.55 38.05 L 178.05 38.22 L 178.47 38.53 L 178.78 38.95 L 178.92 39.44 L 178.85 39.94 L 178.57 40.38 L 178.16 40.72 L 177.67 40.92 L 177.13 40.99 L 176.57 41.00 L 176.00 40.99 L 175.45 40.95 L 174.95 40.78 L 174.53 40.47 L 174.22 40.05 L 174.08 39.56 Z M 176.13 27.05 L 176.37 26.67 L 176.70 26.34 L 177.09 26.12 L 177.53 26.04 L 177.96 26.13 L 178.34 26.38 L 178.66 26.71 L 178.89 27.10 L 178.98 27.55 L 179.00 28.03 L 178.98 28.51 L 178.87 28.95 L 178.63 29.33 L 178.30 29.66 L 177.91 29.88 L 177.47 29.96 L 177.04 29.87 L 176.66 29.62 L 176.34 29.29 L 176.11 28.90 L 176.02 28.45 L 176.00 27.97 L 176.02 27.49 Z M 109.15 27.06 L 109.42 26.63 L 109.82 26.29 L 110.29 26.09 L 110.81 26.01 L 111.36 26.00 L 111.91 26.00 L 112.47 26.00 L 113.02 26.00 L 113.58 26.00 L 114.13 26.01 L 114.65 26.08 L 115.13 26.26 L 115.53 26.59 L 115.82 27.01 L 115.96 27.51 L 116.00 28.05 L 116.00 28.60 L 115.99 29.15 L 115.92 29.67 L 115.73 30.15 L 115.40 30.55 L 114.98 30.83 L 114.49 30.93 L 114.01 30.82 L 113.59 30.53 L 113.26 30.13 L 113.05 29.68 L 112.85 29.29 L 112.50 29.07 L 112.01 29.01 L 111.47 29.00 L 110.92 28.99 L 110.39 28.93 L 109.90 28.76 L 109.50 28.44 L 109.20 28.03 L 109.07 27.54 Z M 162.15 21.06 L 162.43 20.62 L 162.84 20.28 L 163.33 20.08 L 163.87 20.01 L 164.43 20.00 L 165.00 20.01 L 165.55 20.05 L 166.05 20.22 L 166.47 20.53 L 166.78 20.95 L 166.92 21.44 L 166.85 21.94 L 166.57 22.38 L 166.16 22.72 L 165.67 22.92 L 165.13 22.99 L 164.57 23.00 L 164.00 22.99 L 163.45 22.95 L 162.95 22.78 L 162.53 22.47 L 162.22 22.05 L 162.08 21.56 Z M 132.41 18.28 L 134.13 17.83 L 134.96 20.20 L 135.05 23.17 L 135.64 25.93 L 135.99 28.79 L 136.03 31.77 L 136.52 34.58 L 137.03 37.37 L 137.69 40.10 L 138.04 42.96 L 138.58 45.74 L 139.22 48.48 L 139.93 51.19 L 140.66 53.90 L 141.52 56.55 L 142.41 59.18 L 143.55 61.72 L 144.48 64.33 L 145.86 66.77 L 147.32 69.17 L 148.74 71.59 L 150.19 73.99 L 151.65 76.39 L 153.39 78.67 L 155.06 80.99 L 157.13 83.13 L 159.26 85.26 L 161.38 87.38 L 163.58 89.33 L 165.90 90.99 L 168.15 92.82 L 170.52 94.33 L 173.00 95.62 L 175.67 96.34 L 177.67 97.85 L 179.95 99.19 L 182.42 100.47 L 184.94 101.64 L 187.56 102.57 L 190.10 103.71 L 192.73 104.60 L 195.39 105.44 L 198.11 106.14 L 200.83 106.82 L 203.64 107.27 L 206.36 107.97 L 209.07 108.68 L 211.93 109.03 L 214.71 109.57 L 217.55 109.98 L 220.45 110.24 L 223.19 110.88 L 226.14 111.00 L 229.12 111.05 L 231.30 112.02 L 230.48 113.68 L 227.83 114.39 L 225.06 114.96 L 222.20 115.30 L 219.46 115.94 L 216.57 116.23 L 213.84 116.88 L 211.02 117.33 L 208.28 117.98 L 205.49 118.50 L 202.76 119.17 L 200.09 119.96 L 197.44 120.82 L 194.80 121.70 L 192.05 122.32 L 189.41 123.21 L 186.77 124.09 L 184.20 125.14 L 181.72 126.40 L 179.23 127.63 L 176.74 128.89 L 174.25 130.12 L 171.76 131.38 L 169.34 132.79 L 166.97 134.31 L 164.63 135.93 L 162.35 137.68 L 160.13 139.51 L 158.01 140.88 L 156.08 142.91 L 153.96 145.04 L 151.86 147.17 L 150.04 149.42 L 148.31 151.71 L 146.68 154.04 L 145.07 156.37 L 143.53 158.74 L 142.15 161.18 L 140.88 163.66 L 139.43 166.06 L 138.69 168.76 L 137.62 171.32 L 136.72 173.95 L 135.80 176.57 L 134.91 179.21 L 134.06 181.86 L 133.22 184.52 L 132.58 187.26 L 132.04 190.04 L 131.69 192.90 L 130.98 195.61 L 130.28 198.33 L 129.95 201.20 L 129.35 203.96 L 128.87 206.74 L 127.57 208.40 L 126.19 206.90 L 126.00 204.00 L 125.85 201.05 L 125.21 198.31 L 125.00 195.40 L 124.75 192.50 L 124.11 189.76 L 123.99 186.80 L 123.64 183.94 L 122.94 181.23 L 122.23 178.52 L 121.59 175.78 L 120.90 173.06 L 120.15 170.36 L 119.24 167.73 L 118.27 165.13 L 117.21 162.56 L 116.18 159.98 L 114.99 157.48 L 113.70 155.01 L 112.08 152.67 L 110.38 150.37 L 108.74 148.04 L 106.83 145.83 L 104.69 143.73 L 102.46 141.94 L 100.63 140.03 L 98.52 138.29 L 96.24 136.54 L 93.89 134.95 L 91.55 133.36 L 89.08 132.06 L 86.51 131.00 L 84.01 129.78 L 81.52 128.55 L 78.90 127.62 L 76.35 126.51 L 73.55 126.03 L 70.57 125.98 L 67.92 125.38 L 65.90 123.90 L 63.38 122.98 L 60.66 122.28 L 57.85 121.82 L 55.11 121.17 L 52.22 120.89 L 49.48 120.24 L 46.60 119.94 L 43.86 119.30 L 40.98 119.00 L 38.04 118.85 L 35.30 118.21 L 32.38 118.00 L 29.41 117.92 L 26.67 117.28 L 23.78 117.00 L 20.81 116.94 L 18.67 115.94 L 19.60 114.32 L 22.39 113.95 L 25.12 113.30 L 28.01 113.00 L 30.99 112.96 L 33.77 112.41 L 36.60 111.99 L 39.41 111.53 L 42.21 111.03 L 45.13 110.82 L 47.87 110.18 L 50.69 109.72 L 53.42 109.06 L 56.23 108.59 L 58.95 107.90 L 61.64 107.14 L 64.29 106.28 L 67.03 105.65 L 69.67 104.77 L 72.31 103.88 L 74.95 103.02 L 77.53 101.99 L 80.11 100.96 L 82.68 99.91 L 85.17 98.67 L 87.67 97.43 L 90.13 96.14 L 92.53 94.66 L 94.87 93.07 L 97.22 91.48 L 99.50 89.73 L 101.81 88.06 L 103.98 86.02 L 106.10 83.90 L 108.22 81.77 L 110.21 79.59 L 111.88 77.28 L 113.68 75.02 L 115.22 72.65 L 116.63 70.23 L 117.92 67.76 L 119.36 65.35 L 120.42 62.79 L 121.60 60.27 L 122.74 57.74 L 123.66 55.11 L 124.52 52.46 L 125.37 49.81 L 126.26 47.17 L 127.18 44.55 L 127.88 41.84 L 128.33 39.02 L 128.98 36.28 L 129.50 33.49 L 129.99 30.69 L 130.39 27.85 L 130.99 25.10 L 131.56 22.32 L 132.05 19.53 Z M 163.14 13.06 L 163.43 12.63 L 163.83 12.29 L 164.30 12.11 L 164.79 12.12 L 165.25 12.34 L 165.62 12.70 L 165.88 13.15 L 165.98 13.67 L 166.00 14.22 L 166.00 14.78 L 166.00 15.34 L 166.00 15.90 L 166.00 16.46 L 165.99 17.02 L 165.94 17.56 L 165.78 18.06 L 165.47 18.47 L 165.06 18.78 L 164.56 18.94 L 164.02 18.99 L 163.48 18.95 L 162.98 18.81 L 162.56 18.51 L 162.24 18.09 L 162.07 17.61 L 162.01 17.07 L 162.04 16.53 L 162.17 16.02 L 162.44 15.57 L 162.74 15.13 L 162.92 14.65 L 162.99 14.12 L 163.02 13.57 Z M 182.94 10.86 L 183.40 10.58 L 183.85 10.28 L 184.34 10.10 L 184.85 10.14 L 185.30 10.39 L 185.67 10.78 L 185.88 11.25 L 185.88 11.76 L 185.66 12.23 L 185.30 12.62 L 184.85 12.89 L 184.42 13.10 L 184.13 13.40 L 184.02 13.86 L 183.98 14.41 L 183.85 14.94 L 183.56 15.38 L 183.14 15.72 L 182.66 15.90 L 182.15 15.86 L 181.70 15.61 L 181.33 15.22 L 181.10 14.74 L 181.02 14.20 L 181.00 13.63 L 181.01 13.05 L 181.05 12.49 L 181.20 11.98 L 181.51 11.55 L 181.94 11.22 L 182.44 11.03 Z M 145.15 7.06 L 145.44 6.62 L 145.85 6.28 L 146.33 6.10 L 146.84 6.14 L 147.31 6.36 L 147.75 6.67 L 148.24 6.89 L 148.77 6.98 L 149.34 7.00 L 149.91 7.00 L 150.47 6.96 L 150.99 6.82 L 151.45 6.54 L 151.90 6.25 L 152.39 6.09 L 152.89 6.15 L 153.36 6.39 L 153.80 6.70 L 154.28 6.93 L 154.79 7.10 L 155.26 7.34 L 155.71 7.64 L 156.19 7.88 L 156.72 7.98 L 157.28 7.98 L 157.81 7.88 L 158.29 7.65 L 158.73 7.34 L 159.21 7.10 L 159.71 6.93 L 160.19 6.70 L 160.64 6.39 L 161.10 6.15 L 161.61 6.09 L 162.10 6.25 L 162.52 6.57 L 162.82 7.01 L 162.96 7.52 L 162.98 8.08 L 162.93 8.63 L 162.74 9.12 L 162.44 9.57 L 162.16 10.03 L 161.98 10.53 L 161.80 11.03 L 161.49 11.46 L 161.06 11.78 L 160.56 11.97 L 160.06 12.14 L 159.62 12.44 L 159.28 12.85 L 159.08 13.34 L 159.02 13.88 L 159.03 14.44 L 159.16 14.96 L 159.43 15.42 L 159.74 15.87 L 159.92 16.37 L 159.99 16.91 L 160.00 17.48 L 159.99 18.05 L 159.93 18.60 L 159.75 19.10 L 159.42 19.52 L 158.99 19.82 L 158.49 19.92 L 157.99 19.80 L 157.56 19.50 L 157.24 19.08 L 157.06 18.58 L 157.00 18.03 L 156.93 17.53 L 156.71 17.17 L 156.28 17.03 L 155.73 17.00 L 155.16 17.00 L 154.58 17.00 L 154.01 16.99 L 153.46 16.94 L 152.95 16.78 L 152.52 16.47 L 152.21 16.04 L 152.05 15.53 L 152.01 14.97 L 152.00 14.40 L 151.98 13.83 L 151.91 13.29 L 151.69 12.81 L 151.35 12.37 L 150.96 11.96 L 150.56 11.56 L 150.15 11.15 L 149.74 10.75 L 149.32 10.38 L 148.85 10.13 L 148.32 10.02 L 147.75 10.00 L 147.18 10.00 L 146.62 9.98 L 146.09 9.86 L 145.64 9.58 L 145.30 9.17 L 145.09 8.69 L 145.02 8.14 L 145.03 7.58 Z" fill="rgb(15,15,13)" fill-rule="evenodd"/>
  <path d="M 143.20 200.19 L 143.07 200.55 L 143.17 201.00 L 143.43 201.42 L 143.73 201.83 L 143.93 202.28 L 144.08 202.75 L 144.29 203.19 L 144.61 203.59 L 144.98 203.98 L 145.34 204.36 L 145.67 204.75 L 145.89 205.19 L 145.98 205.69 L 146.02 206.20 L 146.12 206.63 L 146.37 206.87 L 146.69 206.85 L 146.91 206.56 L 146.99 206.11 L 147.00 205.59 L 147.00 205.06 L 147.00 204.52 L 147.00 203.99 L 147.00 203.46 L 147.00 202.93 L 147.00 202.39 L 147.00 201.86 L 147.00 201.33 L 146.98 200.81 L 146.88 200.38 L 146.62 200.11 L 146.18 200.02 L 145.66 200.00 L 145.13 200.00 L 144.60 200.00 L 144.07 200.00 L 143.57 200.03 Z M 169.05 173.14 L 168.63 173.39 L 168.21 173.70 L 167.76 173.90 L 167.26 173.98 L 166.73 174.00 L 166.19 174.00 L 165.66 174.00 L 165.12 174.00 L 164.59 174.00 L 164.05 174.00 L 163.55 174.04 L 163.19 174.21 L 163.03 174.59 L 163.01 175.09 L 163.09 175.55 L 163.31 175.86 L 163.73 175.98 L 164.25 176.00 L 164.78 176.00 L 165.32 176.00 L 165.85 176.00 L 166.38 175.98 L 166.88 175.88 L 167.31 175.64 L 167.73 175.34 L 168.16 175.10 L 168.64 174.95 L 169.10 174.77 L 169.49 174.46 L 169.79 174.06 L 169.92 173.62 L 169.82 173.24 L 169.49 173.08 Z M 161.05 7.15 L 160.61 7.42 L 160.21 7.79 L 159.81 8.19 L 159.41 8.56 L 158.96 8.84 L 158.46 8.97 L 157.91 9.00 L 157.35 9.00 L 156.80 8.98 L 156.27 8.91 L 155.80 8.70 L 155.36 8.39 L 154.91 8.14 L 154.40 8.02 L 153.84 8.00 L 153.29 8.00 L 152.73 8.00 L 152.17 8.00 L 151.61 8.00 L 151.05 8.00 L 150.49 8.00 L 149.93 8.00 L 149.37 8.00 L 148.81 8.00 L 148.25 8.00 L 147.72 8.03 L 147.30 8.16 L 147.11 8.47 L 147.21 8.80 L 147.59 8.96 L 148.11 9.01 L 148.64 9.07 L 149.12 9.26 L 149.55 9.58 L 149.96 9.96 L 150.35 10.35 L 150.75 10.75 L 151.14 11.14 L 151.55 11.52 L 151.99 11.81 L 152.49 11.96 L 153.03 12.00 L 153.56 12.06 L 154.06 12.22 L 154.47 12.53 L 154.78 12.94 L 154.92 13.43 L 154.85 13.92 L 154.59 14.35 L 154.20 14.70 L 153.75 14.93 L 153.34 15.13 L 153.13 15.42 L 153.19 15.75 L 153.54 15.94 L 154.04 15.99 L 154.60 16.00 L 155.16 16.00 L 155.72 16.00 L 156.27 16.02 L 156.79 16.11 L 157.26 16.33 L 157.69 16.64 L 158.14 16.86 L 158.57 16.88 L 158.85 16.65 L 158.88 16.24 L 158.69 15.79 L 158.39 15.35 L 158.13 14.90 L 158.02 14.38 L 158.02 13.84 L 158.09 13.31 L 158.29 12.83 L 158.61 12.41 L 158.99 12.01 L 159.39 11.62 L 159.82 11.29 L 160.27 11.06 L 160.68 10.87 L 160.93 10.54 L 161.12 10.10 L 161.38 9.66 L 161.68 9.23 L 161.90 8.76 L 161.98 8.23 L 161.97 7.71 L 161.83 7.29 L 161.50 7.10 Z M 154.18 0.18 L 154.03 0.53 L 154.00 1.00 L 154.03 1.47 L 154.18 1.82 L 154.53 1.97 L 155.00 2.00 L 155.50 2.00 L 156.00 2.00 L 156.50 2.00 L 157.00 2.00 L 157.50 2.00 L 158.00 2.00 L 158.47 1.97 L 158.82 1.82 L 158.97 1.47 L 159.00 1.00 L 158.97 0.53 L 158.82 0.18 L 158.47 0.03 L 158.00 0.00 L 157.50 0.00 L 157.00 0.00 L 156.50 0.00 L 156.00 0.00 L 155.50 0.00 L 155.00 0.00 L 154.53 0.03 Z" fill="rgb(87,87,86)" fill-rule="evenodd"/>
  <path d="M 160.18 0.18 L 160.03 0.53 L 160.00 1.00 L 160.03 1.47 L 160.18 1.82 L 160.53 1.97 L 161.00 2.00 L 161.50 2.00 L 162.00 2.00 L 162.50 2.00 L 163.00 2.00 L 163.50 2.00 L 164.00 2.00 L 164.47 1.97 L 164.82 1.82 L 164.97 1.47 L 165.00 1.00 L 164.97 0.53 L 164.82 0.18 L 164.47 0.03 L 164.00 0.00 L 163.50 0.00 L 163.00 0.00 L 162.50 0.00 L 162.00 0.00 L 161.50 0.00 L 161.00 0.00 L 160.53 0.03 Z M 144.18 0.18 L 144.03 0.53 L 144.00 1.00 L 144.03 1.47 L 144.18 1.82 L 144.53 1.97 L 145.00 2.00 L 145.50 2.00 L 146.00 2.00 L 146.50 2.00 L 147.00 2.00 L 147.50 2.00 L 148.00 2.00 L 148.47 1.97 L 148.82 1.82 L 148.97 1.47 L 149.00 1.00 L 148.97 0.53 L 148.82 0.18 L 148.47 0.03 L 148.00 0.00 L 147.50 0.00 L 147.00 0.00 L 146.50 0.00 L 146.00 0.00 L 145.50 0.00 L 145.00 0.00 L 144.53 0.03 Z" fill="rgb(160,160,160)" fill-rule="evenodd"/>
  <path d="M 0.18 152.18 L 0.03 152.53 L 0.00 153.00 L 0.00 153.50 L 0.00 154.00 L 0.03 154.47 L 0.18 154.82 L 0.53 154.97 L 1.00 155.00 L 1.50 155.00 L 2.00 155.00 L 2.50 155.00 L 3.00 155.00 L 3.50 155.00 L 4.00 155.00 L 4.47 154.97 L 4.82 154.82 L 4.97 154.47 L 5.00 154.00 L 5.00 153.50 L 5.00 153.00 L 4.97 152.53 L 4.82 152.18 L 4.47 152.03 L 4.00 152.00 L 3.50 152.00 L 3.00 152.00 L 2.50 152.00 L 2.00 152.00 L 1.50 152.00 L 1.00 152.00 L 0.53 152.03 Z M 133.30 21.79 L 133.06 22.63 L 132.96 24.00 L 132.77 25.41 L 132.41 26.77 L 132.12 28.15 L 131.94 29.58 L 131.67 30.97 L 131.28 32.31 L 131.02 33.70 L 130.83 35.12 L 130.50 36.49 L 130.15 37.85 L 129.84 39.22 L 129.48 40.57 L 129.16 41.94 L 128.97 43.37 L 128.70 44.76 L 128.27 46.08 L 127.84 47.40 L 127.40 48.73 L 126.98 50.05 L 126.55 51.38 L 126.12 52.70 L 125.69 54.03 L 125.22 55.34 L 124.76 56.65 L 124.23 57.93 L 123.65 59.19 L 123.03 60.44 L 122.42 61.69 L 121.84 62.95 L 121.27 64.22 L 120.80 65.52 L 120.28 66.81 L 119.65 68.05 L 118.87 69.23 L 118.09 70.41 L 117.44 71.64 L 116.79 72.87 L 115.98 74.04 L 115.15 75.20 L 114.36 76.38 L 113.49 77.52 L 112.62 78.66 L 111.83 79.83 L 110.95 80.97 L 109.94 82.05 L 108.88 83.12 L 107.82 84.18 L 106.76 85.24 L 105.69 86.30 L 104.62 87.34 L 103.50 88.27 L 102.34 89.08 L 101.19 89.94 L 100.09 90.92 L 99.01 91.92 L 97.87 92.81 L 96.68 93.56 L 95.50 94.33 L 94.31 95.10 L 93.15 95.91 L 91.98 96.71 L 90.75 97.37 L 89.50 98.00 L 88.26 98.61 L 87.01 99.22 L 85.77 99.87 L 84.53 100.49 L 83.28 101.10 L 82.04 101.74 L 80.78 102.32 L 79.48 102.81 L 78.17 103.28 L 76.91 103.85 L 75.63 104.40 L 74.32 104.87 L 73.00 105.30 L 71.68 105.73 L 70.30 106.04 L 68.93 106.36 L 67.61 106.79 L 66.29 107.24 L 64.98 107.70 L 63.66 108.14 L 62.33 108.55 L 60.97 108.90 L 59.59 109.20 L 58.25 109.58 L 56.87 109.88 L 55.44 110.05 L 54.05 110.32 L 52.71 110.73 L 51.34 111.03 L 49.97 111.35 L 48.62 111.73 L 47.21 111.95 L 45.75 112.05 L 44.34 112.28 L 43.00 112.66 L 41.60 112.92 L 40.13 112.99 L 38.66 113.06 L 37.25 113.29 L 35.91 113.69 L 34.51 113.94 L 33.05 114.04 L 31.63 114.22 L 30.27 114.57 L 28.89 114.87 L 27.44 114.98 L 26.02 115.06 L 24.97 115.30 L 24.82 115.70 L 25.69 115.94 L 27.08 116.00 L 28.57 116.00 L 30.05 116.05 L 31.47 116.24 L 32.83 116.60 L 34.21 116.88 L 35.68 116.98 L 37.17 117.00 L 38.67 117.00 L 40.15 117.05 L 41.57 117.26 L 42.92 117.63 L 44.31 117.90 L 45.76 118.02 L 47.19 118.19 L 48.56 118.52 L 49.93 118.84 L 51.35 119.03 L 52.75 119.29 L 54.08 119.69 L 55.48 119.94 L 56.94 120.04 L 58.37 120.22 L 59.73 120.58 L 61.09 120.91 L 62.46 121.22 L 63.81 121.60 L 65.17 121.93 L 66.55 122.24 L 67.88 122.66 L 69.20 123.08 L 70.53 123.50 L 71.89 123.86 L 73.26 124.17 L 74.60 124.55 L 75.93 124.97 L 77.26 125.40 L 78.58 125.83 L 79.89 126.29 L 81.16 126.86 L 82.43 127.42 L 83.74 127.89 L 85.05 128.35 L 86.31 128.93 L 87.56 129.53 L 88.81 130.15 L 90.03 130.82 L 91.25 131.52 L 92.43 132.28 L 93.61 133.06 L 94.78 133.87 L 95.95 134.67 L 97.14 135.44 L 98.27 136.33 L 99.35 137.35 L 100.42 138.38 L 101.54 139.30 L 102.71 140.11 L 103.86 140.97 L 104.95 141.97 L 106.01 143.02 L 107.06 144.08 L 108.05 145.18 L 108.91 146.32 L 109.72 147.49 L 110.65 148.61 L 111.64 149.70 L 112.53 150.83 L 113.30 152.02 L 114.10 153.19 L 114.89 154.36 L 115.54 155.60 L 116.16 156.84 L 116.82 158.07 L 117.43 159.32 L 118.03 160.57 L 118.60 161.84 L 119.06 163.15 L 119.53 164.46 L 120.09 165.73 L 120.66 166.99 L 121.12 168.31 L 121.54 169.64 L 121.89 170.99 L 122.20 172.37 L 122.57 173.71 L 122.91 175.08 L 123.21 176.45 L 123.60 177.80 L 123.93 179.16 L 124.23 180.54 L 124.62 181.88 L 124.91 183.26 L 125.08 184.69 L 125.36 186.08 L 125.74 187.43 L 125.95 188.84 L 126.01 190.32 L 126.11 191.78 L 126.39 193.16 L 126.76 194.52 L 126.95 195.94 L 127.00 197.42 L 127.00 198.92 L 127.00 200.42 L 127.00 201.93 L 127.00 203.42 L 127.06 204.86 L 127.28 205.97 L 127.67 206.21 L 127.93 205.41 L 127.99 204.05 L 128.02 202.57 L 128.13 201.11 L 128.43 199.73 L 128.78 198.37 L 129.00 196.96 L 129.23 195.56 L 129.59 194.21 L 129.89 192.82 L 130.06 191.39 L 130.34 190.01 L 130.74 188.67 L 131.04 187.29 L 131.36 185.92 L 131.75 184.58 L 132.06 183.21 L 132.39 181.84 L 132.81 180.52 L 133.26 179.20 L 133.74 177.89 L 134.17 176.57 L 134.61 175.25 L 135.03 173.92 L 135.50 172.61 L 136.06 171.35 L 136.63 170.08 L 137.09 168.77 L 137.56 167.46 L 138.14 166.20 L 138.80 164.97 L 139.40 163.72 L 140.02 162.47 L 140.64 161.22 L 141.25 159.97 L 141.92 158.75 L 142.65 157.55 L 143.41 156.36 L 144.16 155.17 L 144.99 154.01 L 145.83 152.86 L 146.60 151.68 L 147.47 150.53 L 148.35 149.39 L 149.14 148.22 L 150.02 147.08 L 151.02 145.99 L 152.07 144.93 L 153.14 143.86 L 154.20 142.80 L 155.26 141.74 L 156.33 140.71 L 157.45 139.77 L 158.61 138.94 L 159.76 138.09 L 160.86 137.12 L 161.94 136.11 L 163.08 135.23 L 164.27 134.47 L 165.45 133.71 L 166.63 132.93 L 167.80 132.12 L 168.97 131.31 L 170.16 130.57 L 171.34 129.79 L 172.53 129.03 L 173.76 128.38 L 175.01 127.77 L 176.24 127.12 L 177.49 126.50 L 178.75 125.90 L 180.01 125.33 L 181.32 124.87 L 182.63 124.40 L 183.90 123.85 L 185.17 123.28 L 186.48 122.81 L 187.78 122.32 L 189.05 121.77 L 190.33 121.24 L 191.65 120.78 L 192.97 120.35 L 194.34 120.03 L 195.71 119.72 L 197.04 119.28 L 198.36 118.86 L 199.69 118.44 L 201.05 118.10 L 202.43 117.79 L 203.77 117.41 L 205.14 117.08 L 206.51 116.77 L 207.85 116.38 L 209.22 116.06 L 210.60 115.75 L 211.94 115.36 L 213.32 115.08 L 214.75 114.90 L 216.13 114.62 L 217.48 114.25 L 218.90 114.05 L 220.38 113.98 L 221.80 113.84 L 222.92 113.42 L 223.30 112.74 L 222.72 112.23 L 221.48 112.03 L 220.03 111.96 L 218.61 111.77 L 217.25 111.42 L 215.87 111.13 L 214.41 111.02 L 212.94 110.96 L 211.52 110.76 L 210.17 110.39 L 208.80 110.06 L 207.42 109.76 L 206.08 109.37 L 204.70 109.08 L 203.27 108.91 L 201.88 108.62 L 200.54 108.24 L 199.17 107.93 L 197.80 107.60 L 196.46 107.22 L 195.08 106.91 L 193.72 106.57 L 192.39 106.15 L 191.08 105.70 L 189.81 105.13 L 188.54 104.56 L 187.23 104.10 L 185.92 103.63 L 184.66 103.06 L 183.41 102.46 L 182.15 101.86 L 180.89 101.29 L 179.58 100.82 L 178.28 100.34 L 177.03 99.71 L 175.86 98.92 L 174.68 98.13 L 173.45 97.48 L 172.20 96.86 L 170.98 96.19 L 169.77 95.49 L 168.58 94.73 L 167.40 93.95 L 166.25 93.10 L 165.13 92.17 L 163.99 91.29 L 162.81 90.51 L 161.68 89.62 L 160.60 88.60 L 159.54 87.54 L 158.48 86.48 L 157.42 85.42 L 156.35 84.35 L 155.29 83.29 L 154.27 82.21 L 153.38 81.08 L 152.60 79.90 L 151.73 78.76 L 150.82 77.63 L 150.03 76.46 L 149.36 75.23 L 148.69 74.00 L 147.90 72.83 L 147.09 71.67 L 146.31 70.48 L 145.56 69.30 L 144.85 68.09 L 144.17 66.87 L 143.55 65.62 L 142.95 64.37 L 142.38 63.10 L 141.91 61.79 L 141.45 60.48 L 140.89 59.21 L 140.35 57.93 L 140.02 56.57 L 139.70 55.19 L 139.26 53.88 L 138.82 52.55 L 138.39 51.23 L 137.96 49.91 L 137.55 48.58 L 137.20 47.22 L 137.02 45.79 L 136.91 44.33 L 136.64 42.94 L 136.26 41.60 L 136.02 40.20 L 135.81 38.78 L 135.47 37.42 L 135.16 36.04 L 135.01 34.61 L 134.88 33.16 L 134.59 31.77 L 134.23 30.42 L 134.04 29.00 L 134.00 27.51 L 134.00 26.01 L 134.00 24.51 L 133.94 23.08 L 133.70 21.99 Z M 135.18 0.18 L 135.03 0.53 L 135.00 1.00 L 135.03 1.47 L 135.18 1.82 L 135.53 1.97 L 136.00 2.00 L 136.50 2.00 L 137.00 2.00 L 137.50 2.00 L 138.00 2.00 L 138.50 2.00 L 139.00 2.00 L 139.50 2.00 L 140.00 2.00 L 140.50 2.00 L 141.00 2.00 L 141.50 2.00 L 142.00 2.00 L 142.47 1.97 L 142.82 1.82 L 142.97 1.47 L 143.00 1.00 L 142.97 0.53 L 142.82 0.18 L 142.47 0.03 L 142.00 0.00 L 141.50 0.00 L 141.00 0.00 L 140.50 0.00 L 140.00 0.00 L 139.50 0.00 L 139.00 0.00 L 138.50 0.00 L 138.00 0.00 L 137.50 0.00 L 137.00 0.00 L 136.50 0.00 L 136.00 0.00 L 135.53 0.03 Z" fill="rgb(252,252,252)" fill-rule="evenodd"/>
</svg>