<svg xmlns="http://www.w3.org/2000/svg" width="239" height="228" viewBox="0 0 239 228" role="img" aria-label="02_icons_02">
  <title>02_icons_02</title>
  <path d="M 129.12 3.30 L 126.38 3.94 L 123.40 4.00 L 120.43 4.08 L 117.69 4.72 L 114.88 5.17 L 112.14 5.82 L 109.32 6.28 L 106.67 7.13 L 103.98 7.89 L 101.27 8.60 L 98.62 9.45 L 95.97 10.31 L 93.35 11.24 L 90.79 12.32 L 88.17 13.26 L 85.57 14.22 L 83.13 15.59 L 80.67 16.92 L 78.18 18.15 L 75.70 19.41 L 73.20 20.65 L 70.73 21.93 L 68.34 23.42 L 65.99 25.00 L 63.64 26.59 L 61.27 28.12 L 58.95 29.77 L 56.63 31.42 L 54.42 33.33 L 52.10 35.00 L 49.92 36.98 L 47.61 38.65 L 45.41 40.60 L 43.28 42.72 L 41.16 44.84 L 39.03 46.97 L 36.91 49.09 L 34.89 51.26 L 33.22 53.58 L 31.24 55.76 L 29.33 57.97 L 27.68 60.30 L 25.96 62.59 L 24.35 64.93 L 22.82 67.30 L 21.23 69.64 L 19.77 72.05 L 18.49 74.52 L 17.23 77.00 L 16.00 79.50 L 14.78 82.00 L 13.51 84.48 L 12.34 87.00 L 11.41 89.62 L 10.28 92.16 L 9.38 94.79 L 8.53 97.44 L 7.67 100.09 L 6.94 102.79 L 6.23 105.50 L 5.59 108.24 L 5.04 111.02 L 4.70 113.88 L 4.06 116.62 L 3.97 119.59 L 3.53 122.41 L 3.04 125.21 L 3.00 128.20 L 3.00 131.21 L 3.00 134.21 L 3.01 137.21 L 3.36 140.07 L 3.95 142.84 L 4.04 145.81 L 4.53 148.60 L 5.03 151.40 L 5.70 154.13 L 6.30 156.89 L 7.02 159.60 L 7.77 162.29 L 8.74 164.89 L 9.79 167.46 L 10.83 170.04 L 12.02 172.55 L 13.25 175.04 L 14.51 177.53 L 15.80 180.00 L 17.25 182.40 L 18.67 184.82 L 20.22 187.18 L 21.98 189.46 L 23.76 191.73 L 25.65 193.95 L 27.32 196.26 L 29.40 198.40 L 31.54 200.49 L 33.85 202.18 L 36.07 204.08 L 38.24 206.09 L 40.57 207.72 L 42.95 209.23 L 45.27 210.88 L 47.64 212.41 L 50.06 213.84 L 52.46 215.29 L 54.91 216.62 L 57.53 217.56 L 60.02 218.79 L 62.53 220.00 L 65.10 221.04 L 67.75 221.90 L 70.40 222.75 L 73.15 223.39 L 75.79 224.25 L 78.49 225.00 L 81.20 225.70 L 84.02 226.15 L 86.76 226.80 L 89.68 227.00 L 92.68 227.00 L 95.69 227.00 L 98.69 227.00 L 101.70 227.00 L 104.70 227.00 L 107.71 227.00 L 110.71 227.00 L 113.72 227.00 L 116.72 227.00 L 119.73 227.00 L 122.72 226.97 L 125.53 226.49 L 128.32 225.97 L 131.05 225.32 L 133.87 224.88 L 136.60 224.20 L 139.33 223.55 L 141.99 222.71 L 144.69 221.96 L 147.40 221.25 L 150.09 220.49 L 152.50 219.05 L 154.87 217.87 L 156.40 216.14 L 158.69 215.06 L 161.55 214.73 L 164.13 213.69 L 166.62 212.45 L 169.10 211.17 L 171.60 209.95 L 174.06 208.64 L 176.40 207.05 L 178.77 205.50 L 181.12 203.93 L 183.46 202.31 L 185.74 200.56 L 188.05 198.89 L 190.24 196.91 L 192.55 195.24 L 194.73 193.26 L 196.86 191.14 L 198.98 189.02 L 201.11 186.89 L 203.23 184.76 L 205.22 182.58 L 206.89 180.27 L 208.85 178.25 L 210.29 176.22 L 211.96 174.13 L 213.26 172.03 L 214.27 169.51 L 216.00 167.59 L 217.54 165.40 L 219.00 163.00 L 220.46 160.60 L 221.89 158.19 L 223.34 155.79 L 224.59 153.30 L 225.69 150.75 L 226.19 147.95 L 227.37 145.44 L 228.94 143.26 L 230.06 141.09 L 230.83 138.44 L 231.70 135.80 L 232.32 133.05 L 233.21 130.41 L 233.92 127.70 L 234.41 124.90 L 235.50 122.34 L 236.03 119.56 L 236.70 116.83 L 237.00 113.95 L 237.32 111.08 L 237.94 108.33 L 238.00 105.35 L 238.00 102.34 L 238.00 99.34 L 238.00 96.33 L 238.00 93.33 L 238.00 90.32 L 238.00 87.32 L 237.74 84.42 L 237.09 81.68 L 236.81 78.80 L 236.16 76.06 L 235.88 73.17 L 235.18 70.46 L 234.30 67.82 L 233.68 65.07 L 232.80 62.43 L 231.91 59.79 L 230.86 57.22 L 229.61 54.73 L 228.38 52.24 L 227.12 49.75 L 225.85 47.28 L 224.23 44.94 L 222.72 42.56 L 221.13 40.22 L 219.56 37.86 L 217.64 35.65 L 215.52 33.52 L 213.40 31.40 L 211.27 29.27 L 209.15 27.15 L 206.94 25.24 L 204.61 23.60 L 202.31 21.90 L 199.97 20.28 L 197.51 18.96 L 195.14 17.43 L 192.69 16.09 L 190.19 14.88 L 187.61 13.84 L 185.04 12.80 L 182.56 11.53 L 180.04 10.35 L 177.41 9.46 L 174.76 8.61 L 172.05 7.90 L 169.34 7.19 L 166.60 6.54 L 163.81 6.02 L 160.96 5.65 L 158.20 5.05 L 155.26 4.89 L 152.52 4.25 L 149.62 4.00 L 146.62 4.00 L 143.61 4.00 L 140.61 3.98 L 137.77 3.59 L 134.99 3.04 L 132.01 3.00 Z M 155.15 210.06 L 155.43 209.62 L 155.84 209.29 L 156.32 209.10 L 156.82 209.13 L 157.27 209.36 L 157.65 209.74 L 157.89 210.20 L 157.98 210.73 L 158.00 211.29 L 158.00 211.86 L 157.97 212.42 L 157.85 212.94 L 157.57 213.38 L 157.16 213.71 L 156.68 213.90 L 156.18 213.87 L 155.73 213.64 L 155.35 213.26 L 155.11 212.80 L 155.02 212.27 L 155.00 211.71 L 155.00 211.14 L 155.03 210.58 Z M 203.15 150.06 L 203.44 149.62 L 203.86 149.28 L 204.35 149.10 L 204.86 149.14 L 205.33 149.38 L 205.78 149.68 L 206.26 149.92 L 206.77 150.09 L 207.24 150.34 L 207.63 150.72 L 207.86 151.18 L 207.89 151.69 L 207.70 152.17 L 207.36 152.58 L 206.90 152.86 L 206.37 152.98 L 205.80 153.00 L 205.22 153.00 L 204.65 152.98 L 204.12 152.86 L 203.66 152.59 L 203.31 152.19 L 203.09 151.70 L 203.02 151.15 L 203.03 150.59 Z M 210.13 101.05 L 210.37 100.67 L 210.70 100.34 L 211.09 100.12 L 211.54 100.02 L 212.01 100.00 L 212.49 100.02 L 212.94 100.12 L 213.32 100.36 L 213.65 100.69 L 213.88 101.08 L 213.96 101.51 L 213.87 101.95 L 213.63 102.33 L 213.30 102.66 L 212.91 102.88 L 212.46 102.98 L 211.99 103.00 L 211.51 102.98 L 211.06 102.88 L 210.68 102.64 L 210.35 102.31 L 210.12 101.92 L 210.04 101.49 Z M 42.15 99.06 L 42.41 98.64 L 42.80 98.30 L 43.26 98.09 L 43.77 98.02 L 44.30 98.02 L 44.81 98.11 L 45.25 98.34 L 45.62 98.69 L 45.88 99.13 L 45.98 99.63 L 45.99 100.16 L 45.92 100.67 L 45.73 101.14 L 45.41 101.54 L 45.00 101.82 L 44.52 101.93 L 44.04 101.85 L 43.61 101.58 L 43.22 101.22 L 42.83 100.83 L 42.47 100.44 L 42.19 100.01 L 42.07 99.54 Z M 126.10 12.15 L 127.14 11.58 L 128.17 11.81 L 129.00 12.72 L 129.59 13.94 L 129.91 15.30 L 130.09 16.73 L 130.38 18.11 L 130.75 19.46 L 130.95 20.88 L 131.00 22.36 L 131.00 23.86 L 131.02 25.36 L 131.12 26.81 L 131.40 28.20 L 131.76 29.55 L 131.96 30.97 L 132.00 32.46 L 132.00 33.96 L 132.00 35.46 L 132.04 36.95 L 132.22 38.37 L 132.57 39.73 L 132.86 41.11 L 132.98 42.56 L 133.00 44.06 L 133.03 45.55 L 133.15 47.00 L 133.46 48.37 L 133.80 49.73 L 133.96 51.17 L 134.00 52.65 L 134.00 54.15 L 134.00 55.65 L 134.05 57.14 L 134.26 58.55 L 134.63 59.90 L 134.90 61.29 L 134.99 62.76 L 135.00 64.25 L 135.03 65.74 L 135.19 67.18 L 135.51 68.54 L 135.83 69.91 L 135.97 71.36 L 136.00 72.85 L 136.06 74.33 L 136.29 75.73 L 136.68 77.07 L 136.93 78.47 L 137.00 79.94 L 137.06 81.42 L 137.30 82.82 L 137.70 84.16 L 137.97 85.55 L 138.15 86.98 L 138.46 88.35 L 138.87 89.68 L 139.30 91.00 L 139.77 92.31 L 140.23 93.62 L 140.77 94.90 L 141.42 96.13 L 142.20 97.31 L 143.00 98.48 L 143.84 99.60 L 144.87 100.53 L 146.03 101.31 L 147.20 102.11 L 148.38 102.89 L 149.61 103.54 L 150.86 104.14 L 152.13 104.72 L 153.44 105.17 L 154.76 105.61 L 156.08 106.03 L 157.41 106.46 L 158.73 106.89 L 160.06 107.32 L 161.39 107.73 L 162.79 107.98 L 164.20 108.19 L 165.57 108.52 L 166.94 108.84 L 168.36 109.03 L 169.75 109.29 L 171.09 109.69 L 172.49 109.93 L 173.96 110.00 L 175.44 110.06 L 176.84 110.30 L 178.18 110.70 L 179.57 110.97 L 181.00 111.15 L 182.37 111.46 L 183.73 111.80 L 185.14 112.02 L 186.45 112.33 L 187.30 113.03 L 187.31 113.97 L 186.49 114.72 L 185.26 115.23 L 183.95 115.67 L 182.56 115.95 L 181.13 116.12 L 179.75 116.42 L 178.40 116.77 L 176.97 116.96 L 175.51 117.06 L 174.11 117.30 L 172.78 117.70 L 171.38 117.97 L 169.96 118.16 L 168.59 118.47 L 167.24 118.83 L 165.86 119.14 L 164.51 119.50 L 163.15 119.85 L 161.78 120.16 L 160.43 120.52 L 159.07 120.87 L 157.70 121.18 L 156.37 121.60 L 155.10 122.15 L 153.83 122.72 L 152.52 123.19 L 151.22 123.68 L 149.96 124.25 L 148.72 124.89 L 147.48 125.51 L 146.25 126.17 L 145.10 127.01 L 144.01 128.00 L 142.94 129.00 L 141.93 129.93 L 141.04 130.84 L 140.30 131.91 L 139.61 133.10 L 138.83 134.28 L 138.07 135.47 L 137.46 136.71 L 136.99 138.02 L 136.53 139.33 L 135.96 140.60 L 135.42 141.88 L 135.06 143.23 L 134.75 144.60 L 134.36 145.94 L 134.04 147.31 L 133.73 148.68 L 133.30 150.01 L 132.87 151.33 L 132.46 152.66 L 132.14 154.03 L 131.97 155.46 L 131.70 156.85 L 131.29 158.19 L 130.99 159.56 L 130.68 160.94 L 130.28 162.27 L 129.97 163.65 L 129.66 165.02 L 129.27 166.36 L 129.02 167.76 L 128.82 169.17 L 128.48 170.54 L 128.14 171.90 L 127.83 173.27 L 127.46 174.62 L 127.15 175.99 L 127.01 177.43 L 126.87 178.88 L 126.57 180.26 L 126.20 181.61 L 125.89 182.98 L 125.55 184.34 L 125.18 185.69 L 124.87 187.06 L 124.53 188.42 L 124.19 189.78 L 123.98 191.20 L 123.74 192.60 L 123.36 193.94 L 123.08 195.33 L 122.90 196.76 L 122.62 198.14 L 122.25 199.49 L 122.01 200.89 L 121.79 202.30 L 121.44 203.66 L 121.11 205.02 L 120.80 206.40 L 120.42 207.74 L 120.09 209.11 L 119.78 210.48 L 119.37 211.81 L 118.94 213.14 L 118.51 214.46 L 118.06 215.76 L 117.48 216.87 L 116.62 217.40 L 115.71 217.04 L 115.07 216.01 L 114.61 214.73 L 114.23 213.39 L 114.04 211.96 L 113.98 210.49 L 113.85 209.04 L 113.55 207.66 L 113.21 206.30 L 113.04 204.87 L 113.00 203.38 L 113.00 201.88 L 113.00 200.38 L 112.99 198.88 L 112.92 197.41 L 112.66 196.01 L 112.28 194.67 L 112.05 193.26 L 112.00 191.78 L 112.00 190.28 L 111.99 188.79 L 111.90 187.32 L 111.64 185.93 L 111.26 184.58 L 111.05 183.17 L 111.00 181.69 L 111.00 180.19 L 110.95 178.71 L 110.72 177.30 L 110.33 175.96 L 110.07 174.56 L 110.01 173.09 L 110.00 171.59 L 109.96 170.10 L 109.78 168.68 L 109.44 167.32 L 109.14 165.94 L 109.02 164.49 L 109.00 162.99 L 108.98 161.50 L 108.85 160.05 L 108.56 158.67 L 108.21 157.31 L 108.04 155.88 L 108.00 154.40 L 107.99 152.90 L 107.92 151.43 L 107.67 150.03 L 107.28 148.69 L 107.05 147.28 L 106.95 145.82 L 106.74 144.41 L 106.36 143.07 L 106.04 141.69 L 105.73 140.32 L 105.30 139.00 L 104.87 137.68 L 104.40 136.37 L 103.84 135.10 L 103.26 133.87 L 102.69 132.75 L 101.96 131.78 L 101.14 130.76 L 100.35 129.62 L 99.43 128.53 L 98.33 127.62 L 97.14 126.87 L 95.94 126.16 L 94.72 125.46 L 93.52 124.74 L 92.26 124.15 L 90.95 123.68 L 89.65 123.22 L 88.33 122.78 L 87.01 122.34 L 85.63 122.03 L 84.26 121.72 L 82.93 121.31 L 81.55 121.01 L 80.17 120.71 L 78.84 120.30 L 77.44 120.06 L 75.98 119.96 L 74.56 119.76 L 73.20 119.41 L 71.82 119.12 L 70.36 119.02 L 68.89 118.95 L 67.47 118.75 L 66.12 118.38 L 64.73 118.10 L 63.28 117.98 L 61.85 117.81 L 60.51 117.43 L 59.34 116.81 L 58.63 115.93 L 58.75 114.96 L 59.67 114.29 L 61.00 114.01 L 62.40 113.77 L 63.76 113.42 L 65.13 113.12 L 66.56 112.95 L 67.95 112.68 L 69.29 112.28 L 70.69 112.02 L 72.11 111.83 L 73.48 111.51 L 74.83 111.15 L 76.20 110.84 L 77.56 110.48 L 78.91 110.13 L 80.29 109.82 L 81.64 109.46 L 83.00 109.11 L 84.37 108.80 L 85.71 108.41 L 87.03 107.98 L 88.34 107.52 L 89.61 106.94 L 90.85 106.32 L 92.10 105.71 L 93.34 105.08 L 94.58 104.46 L 95.82 103.81 L 96.98 103.00 L 98.14 102.18 L 99.32 101.39 L 100.41 100.48 L 101.34 99.39 L 102.14 98.22 L 102.97 97.07 L 103.77 95.90 L 104.43 94.67 L 105.04 93.42 L 105.66 92.17 L 106.24 90.91 L 106.77 89.63 L 107.23 88.32 L 107.69 87.01 L 108.13 85.69 L 108.54 84.36 L 108.89 83.00 L 109.20 81.63 L 109.59 80.29 L 110.02 78.96 L 110.43 77.63 L 110.82 76.29 L 111.13 74.92 L 111.48 73.56 L 111.84 72.21 L 112.15 70.83 L 112.51 69.48 L 112.86 68.13 L 113.17 66.75 L 113.53 65.40 L 113.84 64.03 L 114.03 62.60 L 114.30 61.21 L 114.70 59.88 L 115.00 58.50 L 115.30 57.12 L 115.70 55.79 L 115.97 54.40 L 116.16 52.97 L 116.47 51.60 L 116.83 50.25 L 117.14 48.88 L 117.49 47.52 L 117.85 46.17 L 118.16 44.79 L 118.52 43.44 L 118.84 42.07 L 119.03 40.65 L 119.29 39.25 L 119.69 37.92 L 119.94 36.52 L 120.03 35.06 L 120.22 33.63 L 120.57 32.28 L 120.91 30.91 L 121.22 29.54 L 121.60 28.20 L 121.89 26.82 L 122.06 25.39 L 122.34 24.00 L 122.74 22.66 L 123.05 21.29 L 123.36 19.92 L 123.76 18.58 L 124.06 17.20 L 124.39 15.84 L 124.82 14.51 L 125.32 13.23 Z" fill="rgb(12,12,11)" fill-rule="evenodd"/>
  <path d="M 0.18 121.18 L 0.03 121.53 L 0.00 122.00 L 0.00 122.50 L 0.00 123.00 L 0.00 123.50 L 0.00 124.00 L 0.00 124.50 L 0.00 125.00 L 0.00 125.50 L 0.00 126.00 L 0.00 126.50 L 0.00 127.00 L 0.00 127.50 L 0.00 128.00 L 0.00 128.50 L 0.00 129.00 L 0.00 129.50 L 0.00 130.00 L 0.00 130.50 L 0.00 131.00 L 0.00 131.50 L 0.00 132.00 L 0.00 132.50 L 0.00 133.00 L 0.00 133.50 L 0.00 134.00 L 0.00 134.50 L 0.00 135.00 L 0.00 135.50 L 0.00 136.00 L 0.00 136.50 L 0.00 137.00 L 0.00 137.50 L 0.00 138.00 L 0.00 138.50 L 0.00 139.00 L 0.00 139.50 L 0.00 140.00 L 0.00 140.50 L 0.00 141.00 L 0.03 141.47 L 0.18 141.82 L 0.53 141.97 L 1.00 142.00 L 1.47 141.97 L 1.82 141.82 L 1.97 141.47 L 2.00 141.00 L 2.00 140.50 L 2.00 140.00 L 2.00 139.50 L 2.00 139.00 L 2.00 138.50 L 2.00 138.00 L 2.00 137.50 L 2.00 137.00 L 2.00 136.50 L 2.00 136.00 L 2.00 135.50 L 2.00 135.00 L 2.00 134.50 L 2.00 134.00 L 2.00 133.50 L 2.00 133.00 L 2.00 132.50 L 2.00 132.00 L 2.00 131.50 L 2.00 131.00 L 2.00 130.50 L 2.00 130.00 L 2.00 129.50 L 2.00 129.00 L 2.00 128.50 L 2.00 128.00 L 2.00 127.50 L 2.00 127.00 L 2.00 126.50 L 2.00 126.00 L 2.00 125.50 L 2.00 125.00 L 2.00 124.50 L 2.00 124.00 L 2.00 123.50 L 2.00 123.00 L 2.00 122.50 L 2.00 122.00 L 1.97 121.53 L 1.82 121.18 L 1.47 121.03 L 1.00 121.00 L 0.53 121.03 Z M 127.16 13.73 L 126.61 14.45 L 126.19 15.68 L 125.88 17.04 L 125.53 18.40 L 125.17 19.76 L 124.86 21.13 L 124.51 22.49 L 124.18 23.85 L 123.98 25.27 L 123.72 26.67 L 123.33 28.01 L 123.02 29.39 L 122.71 30.76 L 122.31 32.10 L 122.06 33.50 L 121.96 34.96 L 121.77 36.38 L 121.42 37.74 L 121.13 39.12 L 120.95 40.55 L 120.68 41.94 L 120.29 43.28 L 120.03 44.68 L 119.83 46.10 L 119.51 47.47 L 119.15 48.82 L 118.84 50.20 L 118.48 51.55 L 118.13 52.91 L 117.82 54.28 L 117.46 55.64 L 117.15 57.01 L 116.97 58.44 L 116.70 59.83 L 116.29 61.17 L 115.99 62.54 L 115.69 63.92 L 115.28 65.25 L 114.97 66.63 L 114.66 68.00 L 114.26 69.34 L 113.95 70.72 L 113.64 72.09 L 113.24 73.43 L 112.93 74.80 L 112.61 76.17 L 112.22 77.51 L 111.91 78.89 L 111.58 80.25 L 111.20 81.60 L 110.89 82.97 L 110.51 84.32 L 109.96 85.59 L 109.39 86.86 L 108.93 88.17 L 108.50 89.50 L 108.07 90.82 L 107.61 92.13 L 107.04 93.40 L 106.43 94.65 L 105.77 95.88 L 104.92 97.03 L 103.97 98.14 L 103.10 99.25 L 102.23 100.27 L 101.19 101.13 L 100.08 102.01 L 98.99 103.01 L 97.90 103.99 L 96.74 104.83 L 95.51 105.49 L 94.27 106.11 L 93.03 106.75 L 91.78 107.36 L 90.53 107.98 L 89.27 108.55 L 87.96 109.01 L 86.63 109.44 L 85.31 109.88 L 83.98 110.30 L 82.66 110.74 L 81.28 111.05 L 79.91 111.37 L 78.59 111.80 L 77.27 112.24 L 75.95 112.67 L 74.56 112.95 L 73.13 113.12 L 71.75 113.42 L 70.39 113.78 L 68.98 114.00 L 67.57 114.23 L 66.22 114.59 L 64.85 114.89 L 63.54 115.10 L 62.72 115.51 L 62.87 116.20 L 63.86 116.75 L 65.23 116.96 L 66.72 117.00 L 68.20 117.05 L 69.61 117.27 L 70.96 117.65 L 72.35 117.91 L 73.81 118.02 L 75.24 118.20 L 76.60 118.53 L 77.98 118.84 L 79.40 119.03 L 80.79 119.30 L 82.13 119.70 L 83.52 119.97 L 84.95 120.14 L 86.33 120.45 L 87.66 120.86 L 88.98 121.30 L 90.29 121.77 L 91.60 122.22 L 92.89 122.75 L 94.15 123.33 L 95.38 123.99 L 96.58 124.73 L 97.76 125.50 L 98.95 126.26 L 100.07 127.15 L 101.07 128.21 L 101.92 129.35 L 102.74 130.52 L 103.63 131.65 L 104.49 132.80 L 105.20 134.01 L 105.87 135.23 L 106.45 136.50 L 106.92 137.81 L 107.35 139.13 L 107.75 140.47 L 107.99 141.87 L 108.20 143.28 L 108.55 144.65 L 108.85 146.02 L 109.00 147.47 L 109.14 148.91 L 109.43 150.29 L 109.78 151.65 L 109.96 153.08 L 110.00 154.57 L 110.01 156.06 L 110.07 157.54 L 110.32 158.94 L 110.71 160.28 L 110.94 161.69 L 111.00 163.17 L 111.00 164.67 L 111.01 166.17 L 111.09 167.64 L 111.35 169.03 L 111.73 170.38 L 111.95 171.79 L 112.00 173.27 L 112.03 174.76 L 112.19 176.20 L 112.52 177.57 L 112.83 178.94 L 112.97 180.38 L 113.00 181.88 L 113.00 183.38 L 113.04 184.87 L 113.21 186.30 L 113.55 187.66 L 113.85 189.04 L 113.98 190.49 L 114.00 191.98 L 114.00 193.48 L 114.00 194.99 L 114.06 196.47 L 114.30 197.87 L 114.70 199.21 L 114.94 200.61 L 115.00 202.09 L 115.00 203.59 L 115.00 205.09 L 115.03 206.58 L 115.16 208.03 L 115.47 209.41 L 115.80 210.77 L 115.98 212.19 L 116.10 213.49 L 116.38 214.21 L 116.78 213.89 L 117.13 212.81 L 117.51 211.50 L 117.93 210.18 L 118.35 208.85 L 118.75 207.51 L 118.99 206.11 L 119.21 204.69 L 119.56 203.33 L 119.90 201.97 L 120.20 200.60 L 120.58 199.25 L 120.88 197.87 L 121.05 196.44 L 121.32 195.05 L 121.72 193.71 L 121.98 192.31 L 122.17 190.89 L 122.49 189.52 L 122.82 188.16 L 123.02 186.74 L 123.28 185.34 L 123.67 184.00 L 123.98 182.62 L 124.28 181.25 L 124.69 179.91 L 124.96 178.52 L 125.13 177.09 L 125.43 175.71 L 125.81 174.36 L 126.11 172.99 L 126.46 171.63 L 126.80 170.27 L 127.01 168.85 L 127.25 167.45 L 127.63 166.10 L 127.95 164.73 L 128.26 163.36 L 128.66 162.02 L 128.97 160.65 L 129.28 159.27 L 129.68 157.93 L 129.95 156.54 L 130.13 155.11 L 130.43 153.73 L 130.80 152.39 L 131.11 151.01 L 131.46 149.65 L 131.87 148.32 L 132.30 147.00 L 132.73 145.67 L 133.04 144.30 L 133.36 142.93 L 133.79 141.60 L 134.25 140.29 L 134.80 139.01 L 135.38 137.75 L 136.00 136.51 L 136.62 135.26 L 137.28 134.03 L 138.08 132.86 L 138.90 131.70 L 139.71 130.53 L 140.64 129.41 L 141.67 128.33 L 142.73 127.27 L 143.81 126.25 L 144.95 125.38 L 146.17 124.68 L 147.39 124.01 L 148.59 123.27 L 149.79 122.55 L 151.07 122.00 L 152.38 121.55 L 153.71 121.12 L 155.03 120.69 L 156.34 120.22 L 157.66 119.78 L 158.97 119.31 L 160.29 118.88 L 161.63 118.47 L 162.98 118.12 L 164.36 117.81 L 165.71 117.44 L 167.08 117.13 L 168.51 116.96 L 169.91 116.69 L 171.24 116.29 L 172.64 116.03 L 174.06 115.84 L 175.43 115.52 L 176.80 115.19 L 178.23 115.02 L 179.69 114.90 L 181.08 114.63 L 182.42 114.26 L 183.78 114.00 L 184.90 113.75 L 185.21 113.37 L 184.48 113.10 L 183.16 112.98 L 181.75 112.80 L 180.38 112.46 L 179.01 112.16 L 177.56 112.02 L 176.08 111.96 L 174.66 111.78 L 173.30 111.43 L 171.92 111.14 L 170.47 111.00 L 169.03 110.85 L 167.65 110.55 L 166.29 110.21 L 164.88 109.99 L 163.47 109.75 L 162.13 109.38 L 160.76 109.06 L 159.38 108.74 L 158.06 108.32 L 156.73 107.89 L 155.41 107.46 L 154.08 107.03 L 152.77 106.57 L 151.50 105.99 L 150.25 105.38 L 149.00 104.77 L 147.78 104.09 L 146.59 103.33 L 145.47 102.42 L 144.39 101.39 L 143.33 100.33 L 142.27 99.27 L 141.25 98.19 L 140.37 97.05 L 139.69 95.83 L 139.05 94.59 L 138.47 93.33 L 138.01 92.01 L 137.59 90.69 L 137.19 89.35 L 136.88 87.97 L 136.54 86.61 L 136.20 85.25 L 135.99 83.83 L 135.74 82.43 L 135.37 81.09 L 135.10 79.69 L 134.98 78.24 L 134.81 76.81 L 134.48 75.44 L 134.17 74.07 L 134.03 72.62 L 134.00 71.13 L 133.94 69.65 L 133.71 68.25 L 133.31 66.91 L 133.06 65.51 L 133.01 64.03 L 133.00 62.53 L 133.00 61.03 L 132.98 59.53 L 132.86 58.08 L 132.56 56.70 L 132.22 55.34 L 132.04 53.91 L 132.00 52.42 L 132.00 50.92 L 131.97 49.43 L 131.84 47.98 L 131.53 46.60 L 131.20 45.24 L 131.04 43.81 L 131.00 42.32 L 130.99 40.82 L 130.91 39.35 L 130.65 37.96 L 130.27 36.61 L 130.05 35.20 L 130.00 33.71 L 130.00 32.21 L 130.00 30.71 L 130.00 29.21 L 129.95 27.73 L 129.72 26.32 L 129.33 24.97 L 129.08 23.58 L 129.01 22.10 L 128.98 20.61 L 128.87 19.15 L 128.59 17.77 L 128.23 16.42 L 127.98 15.06 L 127.68 13.98 Z M 127.18 0.18 L 127.03 0.53 L 127.00 1.00 L 127.03 1.47 L 127.18 1.82 L 127.53 1.97 L 128.00 2.00 L 128.50 2.00 L 129.00 2.00 L 129.50 2.00 L 130.00 2.00 L 130.50 2.00 L 131.00 2.00 L 131.47 1.97 L 131.82 1.82 L 131.97 1.47 L 132.00 1.00 L 131.97 0.53 L 131.82 0.18 L 131.47 0.03 L 131.00 0.00 L 130.50 0.00 L 130.00 0.00 L 129.50 0.00 L 129.00 0.00 L 128.50 0.00 L 128.00 0.00 L 127.53 0.03 Z" fill="rgb(252,252,252)" fill-rule="evenodd"/>
</svg>