<svg xmlns="http://www.w3.org/2000/svg" width="254" height="142" viewBox="0 0 254 142" role="img" aria-label="03_icons_03">
  <title>03_icons_03</title>
  <path d="M 132.06 108.14 L 131.61 108.41 L 131.18 108.71 L 130.71 108.91 L 130.18 108.99 L 129.64 109.02 L 129.13 109.13 L 128.67 109.37 L 128.24 109.68 L 127.78 109.91 L 127.29 110.07 L 126.82 110.29 L 126.40 110.62 L 126.00 111.00 L 125.62 111.40 L 125.29 111.82 L 125.07 112.28 L 124.91 112.77 L 124.68 113.23 L 124.34 113.65 L 123.95 114.05 L 123.58 114.45 L 123.26 114.87 L 123.08 115.35 L 123.01 115.88 L 123.00 116.43 L 123.00 116.99 L 123.00 117.55 L 123.00 118.10 L 123.00 118.66 L 123.00 119.22 L 123.00 119.78 L 123.00 120.33 L 123.00 120.89 L 123.03 121.43 L 123.14 121.94 L 123.41 122.39 L 123.71 122.82 L 123.93 123.29 L 124.09 123.78 L 124.33 124.24 L 124.67 124.65 L 125.05 125.05 L 125.44 125.44 L 125.84 125.84 L 126.23 126.23 L 126.63 126.63 L 127.02 127.02 L 127.42 127.40 L 127.84 127.72 L 128.31 127.94 L 128.80 128.10 L 129.26 128.33 L 129.69 128.64 L 130.15 128.88 L 130.66 128.98 L 131.21 129.00 L 131.77 129.00 L 132.32 129.00 L 132.88 129.00 L 133.43 129.02 L 133.94 129.14 L 134.38 129.40 L 134.81 129.71 L 135.29 129.91 L 135.81 129.99 L 136.36 130.00 L 136.92 130.00 L 137.48 130.00 L 138.03 130.00 L 138.59 130.00 L 139.15 130.00 L 139.70 130.00 L 140.26 130.00 L 140.82 130.00 L 141.37 130.00 L 141.93 129.99 L 142.44 129.95 L 142.82 129.77 L 143.03 129.39 L 143.22 128.93 L 143.53 128.52 L 143.95 128.22 L 144.43 128.08 L 144.92 128.15 L 145.35 128.41 L 145.69 128.80 L 145.93 129.24 L 146.12 129.65 L 146.43 129.92 L 146.86 130.11 L 147.31 130.36 L 147.74 130.66 L 148.20 130.89 L 148.72 130.98 L 149.27 131.00 L 149.82 131.00 L 150.37 131.02 L 150.88 131.13 L 151.34 131.38 L 151.77 131.68 L 152.23 131.88 L 152.72 131.89 L 153.19 131.71 L 153.62 131.40 L 154.06 131.15 L 154.55 131.08 L 155.04 131.20 L 155.48 131.48 L 155.92 131.77 L 156.40 131.94 L 156.94 131.99 L 157.49 132.00 L 158.05 132.00 L 158.60 132.00 L 159.16 132.00 L 159.72 132.00 L 160.27 132.00 L 160.83 132.00 L 161.39 132.00 L 161.94 132.00 L 162.50 132.00 L 163.06 132.00 L 163.61 132.00 L 164.17 131.99 L 164.69 131.91 L 165.17 131.72 L 165.60 131.42 L 166.05 131.15 L 166.55 131.03 L 167.10 131.00 L 167.65 131.00 L 168.21 130.98 L 168.73 130.91 L 169.20 130.70 L 169.62 130.36 L 170.02 129.98 L 170.42 129.60 L 170.84 129.28 L 171.29 129.06 L 171.69 128.86 L 171.94 128.53 L 172.12 128.09 L 172.39 127.65 L 172.76 127.25 L 173.15 126.85 L 173.52 126.45 L 173.81 126.01 L 173.96 125.52 L 173.99 124.98 L 174.00 124.42 L 174.01 123.87 L 174.08 123.34 L 174.26 122.86 L 174.56 122.43 L 174.83 121.98 L 174.96 121.48 L 174.99 120.94 L 174.94 120.41 L 174.77 119.92 L 174.49 119.48 L 174.20 119.04 L 174.05 118.55 L 174.01 118.01 L 174.00 117.46 L 173.99 116.90 L 173.93 116.37 L 173.75 115.89 L 173.44 115.46 L 173.06 115.06 L 172.67 114.67 L 172.27 114.27 L 171.88 113.88 L 171.48 113.51 L 171.05 113.21 L 170.56 113.03 L 170.07 112.87 L 169.63 112.60 L 169.19 112.30 L 168.72 112.09 L 168.20 112.02 L 167.65 112.00 L 167.09 112.00 L 166.55 111.97 L 166.04 111.85 L 165.59 111.58 L 165.16 111.28 L 164.69 111.08 L 164.16 111.01 L 163.61 111.00 L 163.05 111.00 L 162.49 111.00 L 161.94 111.00 L 161.38 111.00 L 160.83 110.99 L 160.30 110.91 L 159.83 110.72 L 159.40 110.41 L 158.95 110.15 L 158.44 110.03 L 157.90 110.00 L 157.34 110.00 L 156.78 110.00 L 156.23 110.00 L 155.67 110.00 L 155.11 110.00 L 154.56 110.00 L 154.00 109.99 L 153.46 109.95 L 152.97 109.80 L 152.53 109.52 L 152.09 109.23 L 151.60 109.06 L 151.07 109.01 L 150.52 109.00 L 149.96 109.00 L 149.40 109.00 L 148.85 109.00 L 148.29 109.00 L 147.73 109.00 L 147.18 109.00 L 146.63 108.98 L 146.12 108.87 L 145.66 108.62 L 145.23 108.32 L 144.76 108.10 L 144.24 108.02 L 143.69 108.00 L 143.14 108.00 L 142.58 108.00 L 142.02 108.00 L 141.47 108.00 L 140.91 108.00 L 140.35 108.00 L 139.80 108.00 L 139.24 108.00 L 138.68 108.00 L 138.12 108.00 L 137.57 108.00 L 137.01 108.00 L 136.45 108.00 L 135.90 108.00 L 135.34 108.00 L 134.78 108.00 L 134.23 108.00 L 133.67 108.00 L 133.11 108.00 L 132.57 108.02 Z M 134.06 81.14 L 133.62 81.40 L 133.21 81.70 L 132.75 81.90 L 132.25 81.99 L 131.72 82.02 L 131.22 82.10 L 130.76 82.32 L 130.35 82.62 L 129.91 82.88 L 129.44 83.03 L 128.97 83.19 L 128.55 83.48 L 128.16 83.85 L 127.77 84.23 L 127.39 84.61 L 127.01 84.99 L 126.64 85.38 L 126.31 85.78 L 126.08 86.23 L 125.93 86.71 L 125.73 87.16 L 125.43 87.58 L 125.17 88.01 L 125.04 88.50 L 125.00 89.02 L 125.00 89.56 L 125.00 90.10 L 125.00 90.64 L 125.00 91.18 L 125.00 91.72 L 125.00 92.26 L 125.00 92.80 L 125.00 93.34 L 125.00 93.88 L 125.00 94.42 L 125.00 94.96 L 125.00 95.50 L 125.01 96.04 L 125.05 96.56 L 125.20 97.04 L 125.47 97.47 L 125.76 97.89 L 125.95 98.35 L 126.10 98.83 L 126.34 99.27 L 126.68 99.67 L 127.06 100.05 L 127.44 100.42 L 127.85 100.74 L 128.31 100.94 L 128.79 101.09 L 129.23 101.32 L 129.65 101.62 L 130.08 101.87 L 130.58 101.98 L 131.11 102.01 L 131.62 102.06 L 132.09 102.23 L 132.52 102.52 L 132.94 102.79 L 133.42 102.95 L 133.94 102.99 L 134.48 103.00 L 135.02 103.00 L 135.56 103.00 L 136.09 103.01 L 136.61 103.06 L 137.09 103.23 L 137.51 103.51 L 137.93 103.79 L 138.41 103.94 L 138.93 103.99 L 139.47 104.00 L 140.01 104.00 L 140.55 104.00 L 141.09 104.00 L 141.63 104.00 L 142.17 104.00 L 142.71 104.00 L 143.25 104.00 L 143.79 104.00 L 144.32 104.02 L 144.82 104.11 L 145.27 104.34 L 145.68 104.64 L 146.13 104.88 L 146.62 104.98 L 147.16 105.00 L 147.70 105.00 L 148.23 104.99 L 148.74 104.91 L 149.19 104.71 L 149.61 104.41 L 150.04 104.15 L 150.53 104.03 L 151.06 104.00 L 151.60 104.00 L 152.14 104.00 L 152.68 104.00 L 153.22 104.00 L 153.76 104.00 L 154.30 104.00 L 154.84 104.00 L 155.38 104.00 L 155.93 104.00 L 156.47 104.00 L 157.00 104.01 L 157.53 104.04 L 158.01 104.18 L 158.44 104.45 L 158.86 104.74 L 159.32 104.92 L 159.84 104.99 L 160.37 105.00 L 160.91 105.00 L 161.45 105.00 L 161.99 105.00 L 162.53 105.00 L 163.07 105.00 L 163.61 105.00 L 164.15 105.00 L 164.69 105.00 L 165.24 105.00 L 165.78 105.00 L 166.32 105.00 L 166.86 105.00 L 167.40 105.00 L 167.94 105.00 L 168.48 105.00 L 169.02 105.00 L 169.56 105.00 L 170.10 105.00 L 170.64 105.00 L 171.18 105.00 L 171.72 105.00 L 172.26 105.00 L 172.80 105.00 L 173.34 105.00 L 173.88 105.00 L 174.41 104.98 L 174.91 104.87 L 175.34 104.62 L 175.76 104.32 L 176.21 104.10 L 176.71 104.02 L 177.24 103.99 L 177.75 103.91 L 178.20 103.70 L 178.61 103.38 L 178.99 103.00 L 179.38 102.62 L 179.76 102.24 L 180.14 101.86 L 180.52 101.48 L 180.90 101.09 L 181.28 100.71 L 181.63 100.31 L 181.88 99.88 L 181.98 99.38 L 182.01 98.85 L 182.07 98.34 L 182.25 97.87 L 182.54 97.45 L 182.81 97.02 L 182.95 96.54 L 182.99 96.02 L 183.00 95.48 L 183.00 94.94 L 183.00 94.40 L 183.00 93.86 L 183.00 93.32 L 183.00 92.78 L 183.00 92.24 L 183.00 91.70 L 183.00 91.16 L 183.00 90.62 L 183.00 90.08 L 183.00 89.54 L 182.99 89.00 L 182.94 88.52 L 182.75 88.17 L 182.35 88.03 L 181.84 87.99 L 181.33 87.92 L 180.87 87.74 L 180.47 87.42 L 180.18 87.01 L 180.02 86.54 L 179.87 86.06 L 179.60 85.64 L 179.24 85.24 L 178.86 84.86 L 178.47 84.50 L 178.05 84.21 L 177.57 84.05 L 177.05 84.01 L 176.52 84.00 L 175.98 83.99 L 175.45 83.95 L 174.97 83.81 L 174.55 83.54 L 174.13 83.25 L 173.66 83.07 L 173.14 83.01 L 172.61 83.00 L 172.07 83.00 L 171.53 83.00 L 170.99 83.00 L 170.45 83.00 L 169.91 83.00 L 169.37 83.00 L 168.83 83.00 L 168.29 83.00 L 167.75 83.00 L 167.21 83.00 L 166.67 83.00 L 166.13 83.00 L 165.59 83.00 L 165.05 83.00 L 164.52 82.97 L 164.03 82.84 L 163.60 82.58 L 163.18 82.28 L 162.72 82.09 L 162.21 82.01 L 161.68 82.00 L 161.14 82.00 L 160.60 82.00 L 160.06 82.00 L 159.52 82.00 L 158.98 82.00 L 158.44 82.00 L 157.90 82.00 L 157.36 82.00 L 156.82 82.00 L 156.28 82.00 L 155.74 82.00 L 155.19 82.00 L 154.65 82.00 L 154.11 82.00 L 153.57 82.00 L 153.03 82.00 L 152.49 82.00 L 151.95 82.00 L 151.41 82.00 L 150.87 82.00 L 150.33 82.00 L 149.80 81.99 L 149.29 81.91 L 148.83 81.72 L 148.41 81.42 L 147.98 81.16 L 147.49 81.03 L 146.96 81.00 L 146.43 81.00 L 145.89 81.00 L 145.34 81.00 L 144.80 81.00 L 144.26 81.00 L 143.72 81.00 L 143.18 81.00 L 142.64 81.00 L 142.10 81.00 L 141.56 81.00 L 141.02 81.00 L 140.48 81.00 L 139.94 81.00 L 139.40 81.00 L 138.86 81.00 L 138.32 81.00 L 137.78 81.00 L 137.24 81.00 L 136.70 81.00 L 136.16 81.00 L 135.62 81.00 L 135.08 81.00 L 134.55 81.02 Z M 140.06 54.14 L 139.62 54.40 L 139.20 54.70 L 138.75 54.91 L 138.24 54.98 L 137.70 55.00 L 137.16 55.00 L 136.63 55.02 L 136.13 55.12 L 135.69 55.37 L 135.29 55.72 L 134.90 56.10 L 134.52 56.48 L 134.13 56.87 L 133.75 57.25 L 133.37 57.63 L 132.98 58.02 L 132.60 58.40 L 132.22 58.78 L 131.83 59.17 L 131.45 59.55 L 131.07 59.93 L 130.69 60.32 L 130.35 60.72 L 130.11 61.17 L 130.02 61.67 L 130.00 62.21 L 130.00 62.75 L 130.00 63.29 L 130.00 63.83 L 129.98 64.37 L 129.88 64.87 L 129.64 65.31 L 129.34 65.73 L 129.11 66.18 L 129.02 66.68 L 129.02 67.21 L 129.09 67.72 L 129.29 68.18 L 129.59 68.60 L 129.85 69.04 L 129.97 69.53 L 130.00 70.06 L 130.05 70.58 L 130.21 71.06 L 130.49 71.48 L 130.77 71.91 L 130.96 72.37 L 131.11 72.85 L 131.36 73.29 L 131.72 73.65 L 132.16 73.89 L 132.64 74.05 L 133.10 74.23 L 133.52 74.52 L 133.95 74.80 L 134.42 74.97 L 134.90 75.12 L 135.34 75.38 L 135.76 75.68 L 136.21 75.90 L 136.72 75.98 L 137.25 76.01 L 137.75 76.10 L 138.21 76.30 L 138.63 76.61 L 139.06 76.86 L 139.56 76.98 L 140.09 77.00 L 140.63 77.00 L 141.18 77.00 L 141.72 77.00 L 142.26 77.00 L 142.80 77.00 L 143.35 77.00 L 143.89 77.00 L 144.43 77.00 L 144.97 77.00 L 145.52 77.00 L 146.06 77.00 L 146.60 77.00 L 147.15 77.00 L 147.69 77.00 L 148.23 77.00 L 148.77 77.00 L 149.32 77.00 L 149.86 77.00 L 150.40 77.00 L 150.94 77.00 L 151.49 77.00 L 152.03 77.00 L 152.57 77.00 L 153.11 77.01 L 153.63 77.07 L 154.10 77.24 L 154.52 77.52 L 154.95 77.79 L 155.42 77.93 L 155.90 77.86 L 156.34 77.62 L 156.76 77.32 L 157.21 77.10 L 157.72 77.02 L 158.25 77.00 L 158.79 77.00 L 159.34 77.00 L 159.88 77.00 L 160.42 77.00 L 160.96 77.00 L 161.51 77.00 L 162.05 77.00 L 162.59 77.00 L 163.13 77.00 L 163.68 77.00 L 164.22 77.00 L 164.76 77.00 L 165.30 77.00 L 165.85 77.00 L 166.39 77.00 L 166.93 77.00 L 167.47 77.00 L 168.02 77.00 L 168.56 77.00 L 169.10 77.00 L 169.64 77.00 L 170.19 77.00 L 170.73 77.00 L 171.27 77.00 L 171.81 77.00 L 172.36 77.00 L 172.90 77.00 L 173.44 77.00 L 173.99 77.00 L 174.53 77.00 L 175.07 77.00 L 175.61 77.00 L 176.16 77.00 L 176.70 77.00 L 177.24 77.00 L 177.78 77.00 L 178.30 76.97 L 178.71 76.84 L 178.90 76.52 L 178.86 76.09 L 178.62 75.66 L 178.32 75.24 L 178.09 74.81 L 177.91 74.39 L 177.63 74.11 L 177.23 73.92 L 176.79 73.69 L 176.41 73.36 L 176.14 72.94 L 176.07 72.46 L 176.19 71.98 L 176.48 71.57 L 176.87 71.26 L 177.34 71.07 L 177.85 71.01 L 178.39 71.00 L 178.93 71.00 L 179.46 71.03 L 179.96 71.15 L 180.38 71.42 L 180.71 71.81 L 180.91 72.27 L 180.99 72.78 L 181.02 73.29 L 181.15 73.70 L 181.48 73.92 L 181.95 73.99 L 182.47 74.03 L 182.97 74.15 L 183.40 74.42 L 183.82 74.71 L 184.27 74.90 L 184.75 74.89 L 185.20 74.70 L 185.59 74.36 L 185.86 73.95 L 186.02 73.47 L 186.18 72.99 L 186.46 72.57 L 186.83 72.17 L 187.21 71.79 L 187.57 71.40 L 187.84 70.97 L 187.97 70.48 L 188.00 69.95 L 188.05 69.43 L 188.21 68.95 L 188.48 68.52 L 188.77 68.10 L 188.94 67.62 L 188.99 67.10 L 189.00 66.56 L 189.00 66.02 L 189.00 65.48 L 189.00 64.94 L 189.00 64.39 L 189.00 63.85 L 189.00 63.31 L 189.00 62.77 L 189.00 62.22 L 188.98 61.69 L 188.89 61.18 L 188.66 60.74 L 188.32 60.33 L 187.95 59.95 L 187.58 59.56 L 187.26 59.15 L 187.06 58.69 L 186.91 58.21 L 186.68 57.76 L 186.33 57.39 L 185.90 57.12 L 185.43 56.97 L 184.95 56.80 L 184.53 56.52 L 184.10 56.24 L 183.64 56.05 L 183.16 55.90 L 182.72 55.66 L 182.30 55.35 L 181.85 55.12 L 181.35 55.02 L 180.82 55.00 L 180.27 55.00 L 179.73 55.00 L 179.19 55.00 L 178.65 55.00 L 178.10 55.00 L 177.56 55.00 L 177.02 55.00 L 176.49 54.96 L 176.01 54.83 L 175.57 54.56 L 175.15 54.27 L 174.69 54.08 L 174.17 54.01 L 173.64 54.00 L 173.09 54.00 L 172.55 54.00 L 172.01 54.00 L 171.47 54.00 L 170.92 54.00 L 170.38 54.00 L 169.84 54.00 L 169.30 54.00 L 168.75 54.00 L 168.21 54.00 L 167.67 54.00 L 167.13 54.00 L 166.58 54.00 L 166.04 54.00 L 165.50 54.00 L 164.96 54.00 L 164.41 54.00 L 163.87 54.00 L 163.33 54.00 L 162.79 54.00 L 162.24 54.00 L 161.70 54.00 L 161.16 54.00 L 160.62 54.00 L 160.07 54.00 L 159.53 54.00 L 158.99 54.00 L 158.45 54.00 L 157.90 54.00 L 157.36 54.00 L 156.82 54.00 L 156.28 54.00 L 155.73 54.00 L 155.19 54.00 L 154.65 54.00 L 154.11 54.00 L 153.56 54.00 L 153.02 54.00 L 152.48 54.00 L 151.94 54.00 L 151.39 54.00 L 150.85 54.00 L 150.31 54.00 L 149.77 54.00 L 149.22 54.00 L 148.68 54.00 L 148.14 54.00 L 147.60 54.00 L 147.05 54.00 L 146.51 54.00 L 145.97 54.00 L 145.43 54.00 L 144.88 54.00 L 144.34 54.00 L 143.80 54.00 L 143.26 54.00 L 142.71 54.00 L 142.17 54.00 L 141.63 54.00 L 141.09 54.00 L 140.55 54.02 Z M 165.15 72.06 L 165.43 71.62 L 165.84 71.28 L 166.33 71.08 L 166.87 71.01 L 167.43 71.00 L 168.00 71.01 L 168.55 71.05 L 169.05 71.21 L 169.50 71.50 L 169.95 71.79 L 170.45 71.95 L 171.00 71.99 L 171.57 72.00 L 172.14 72.00 L 172.71 72.00 L 173.28 72.00 L 173.84 72.00 L 174.40 72.02 L 174.92 72.14 L 175.37 72.43 L 175.71 72.83 L 175.89 73.30 L 175.87 73.80 L 175.65 74.27 L 175.30 74.69 L 174.90 75.10 L 174.49 75.48 L 174.05 75.79 L 173.55 75.95 L 173.00 75.99 L 172.43 76.00 L 171.86 76.00 L 171.29 76.00 L 170.73 75.98 L 170.20 75.89 L 169.73 75.65 L 169.31 75.30 L 168.90 74.90 L 168.49 74.52 L 168.05 74.21 L 167.55 74.05 L 167.00 74.00 L 166.45 73.95 L 165.95 73.78 L 165.53 73.47 L 165.22 73.05 L 165.08 72.56 Z M 160.15 72.06 L 160.46 71.61 L 160.89 71.27 L 161.40 71.10 L 161.92 71.16 L 162.39 71.44 L 162.82 71.83 L 163.25 72.24 L 163.69 72.62 L 164.17 72.89 L 164.69 73.07 L 165.19 73.31 L 165.59 73.68 L 165.85 74.15 L 165.89 74.67 L 165.70 75.17 L 165.34 75.58 L 164.88 75.85 L 164.36 75.89 L 163.85 75.72 L 163.38 75.41 L 162.90 75.14 L 162.35 75.02 L 161.77 74.98 L 161.22 74.88 L 160.73 74.63 L 160.35 74.23 L 160.11 73.74 L 160.02 73.19 L 160.03 72.61 Z M 137.13 59.05 L 137.37 58.67 L 137.70 58.34 L 138.09 58.12 L 138.53 58.04 L 138.96 58.13 L 139.34 58.38 L 139.66 58.71 L 139.89 59.10 L 139.98 59.55 L 140.00 60.03 L 139.98 60.51 L 139.87 60.95 L 139.63 61.33 L 139.30 61.66 L 138.91 61.88 L 138.47 61.96 L 138.04 61.87 L 137.66 61.62 L 137.34 61.29 L 137.11 60.90 L 137.02 60.45 L 137.00 59.97 L 137.02 59.49 Z M 139.15 56.06 L 139.43 55.63 L 139.83 55.29 L 140.30 55.09 L 140.83 55.01 L 141.38 55.00 L 141.94 55.00 L 142.50 55.00 L 143.06 55.01 L 143.59 55.06 L 144.08 55.23 L 144.49 55.55 L 144.80 55.97 L 144.92 56.45 L 144.85 56.94 L 144.57 57.37 L 144.17 57.71 L 143.70 57.91 L 143.17 57.99 L 142.62 58.00 L 142.06 58.00 L 141.50 58.00 L 140.94 57.99 L 140.41 57.94 L 139.92 57.77 L 139.51 57.45 L 139.20 57.03 L 139.08 56.55 Z M 22.11 27.27 L 21.02 27.65 L 19.87 27.91 L 18.66 27.99 L 17.48 28.07 L 16.63 28.38 L 16.43 29.09 L 16.62 30.04 L 16.50 31.00 L 15.82 31.78 L 14.85 32.35 L 13.82 32.87 L 12.77 33.36 L 11.68 33.76 L 10.51 33.95 L 9.29 33.95 L 8.13 33.74 L 7.06 33.42 L 6.04 33.45 L 5.13 34.02 L 4.45 34.94 L 4.11 36.05 L 4.05 37.25 L 4.19 38.43 L 4.52 39.55 L 4.83 40.67 L 4.97 41.87 L 5.00 43.11 L 5.04 44.35 L 5.20 45.53 L 5.50 46.63 L 5.63 47.68 L 5.40 48.73 L 5.12 49.85 L 4.91 51.02 L 4.61 52.15 L 4.25 53.25 L 4.09 54.40 L 4.22 55.57 L 4.56 56.68 L 4.85 57.81 L 4.97 59.01 L 4.96 60.24 L 4.81 61.43 L 4.49 62.54 L 4.17 63.67 L 4.03 64.86 L 4.00 66.10 L 4.00 67.36 L 3.99 68.61 L 3.92 69.83 L 3.67 70.98 L 3.29 72.08 L 3.07 73.23 L 3.05 74.45 L 3.26 75.61 L 3.77 76.65 L 4.39 77.64 L 4.81 78.72 L 4.89 79.88 L 4.66 81.01 L 4.28 82.11 L 4.05 83.27 L 4.00 84.50 L 4.00 85.75 L 4.02 86.99 L 4.15 88.20 L 4.44 89.33 L 4.79 90.44 L 4.96 91.62 L 5.00 92.86 L 5.00 94.11 L 5.00 95.36 L 4.95 96.60 L 4.75 97.76 L 4.43 98.85 L 4.37 99.90 L 4.66 100.96 L 4.91 102.09 L 4.99 103.31 L 5.01 104.56 L 5.07 105.79 L 5.30 106.94 L 5.68 108.04 L 5.92 109.19 L 5.95 110.40 L 5.79 111.58 L 5.48 112.67 L 5.37 113.72 L 5.56 114.76 L 5.63 115.80 L 5.42 116.84 L 5.37 117.88 L 5.65 118.94 L 5.91 120.07 L 5.99 121.29 L 6.06 122.48 L 6.37 123.46 L 7.06 124.16 L 8.00 124.75 L 8.97 125.33 L 9.76 126.11 L 10.38 126.98 L 11.03 127.51 L 11.48 127.36 L 11.29 126.72 L 10.55 126.04 L 9.70 125.36 L 8.94 124.64 L 8.20 123.92 L 7.58 123.13 L 7.45 122.23 L 7.93 121.43 L 8.67 120.73 L 9.36 119.96 L 10.21 119.33 L 11.30 119.09 L 12.43 119.24 L 13.35 119.78 L 14.01 120.65 L 14.52 121.68 L 14.85 122.79 L 14.98 123.99 L 15.00 125.24 L 15.00 126.49 L 14.99 127.74 L 14.89 128.95 L 14.55 130.01 L 13.96 130.82 L 13.59 131.38 L 13.93 131.77 L 14.87 131.89 L 15.97 131.69 L 17.02 131.40 L 17.97 131.50 L 18.55 132.17 L 18.48 133.12 L 17.86 134.07 L 17.00 134.93 L 16.05 135.65 L 15.04 136.21 L 14.12 136.76 L 13.58 137.28 L 13.80 137.73 L 14.71 137.96 L 15.88 138.08 L 17.02 138.35 L 18.11 138.73 L 19.28 138.95 L 20.51 139.00 L 21.76 139.00 L 23.01 139.00 L 24.27 139.00 L 25.52 139.00 L 26.77 139.00 L 28.02 139.02 L 29.22 139.15 L 30.35 139.45 L 31.46 139.79 L 32.64 139.96 L 33.87 139.98 L 35.07 139.86 L 36.17 139.49 L 37.14 138.80 L 37.99 137.93 L 38.61 136.95 L 38.79 135.87 L 38.58 134.76 L 38.23 133.66 L 38.04 132.48 L 38.00 131.25 L 37.96 130.03 L 37.77 128.97 L 37.21 128.25 L 36.33 127.76 L 35.51 127.10 L 34.84 126.24 L 34.10 125.57 L 33.33 125.52 L 32.64 126.08 L 31.80 126.70 L 30.74 127.10 L 29.65 127.42 L 28.63 127.59 L 27.80 127.27 L 27.45 126.51 L 27.74 125.66 L 28.36 124.88 L 28.83 124.01 L 29.09 122.94 L 29.39 121.83 L 29.76 120.73 L 30.00 119.58 L 30.26 118.46 L 30.86 117.57 L 31.76 116.93 L 32.79 116.43 L 33.92 116.13 L 35.12 116.02 L 36.31 115.94 L 37.28 115.66 L 37.81 114.93 L 37.97 113.84 L 38.00 112.61 L 38.00 111.36 L 38.00 110.11 L 37.97 108.87 L 37.83 107.67 L 37.52 106.55 L 37.19 105.43 L 37.09 104.27 L 37.27 103.12 L 37.65 102.02 L 37.89 100.89 L 37.83 99.72 L 37.53 98.60 L 37.20 97.48 L 37.04 96.30 L 37.00 95.06 L 37.00 93.81 L 37.00 92.55 L 37.00 91.30 L 37.00 90.05 L 37.00 88.79 L 37.00 87.54 L 37.00 86.29 L 37.00 85.03 L 37.00 83.78 L 37.00 82.53 L 37.00 81.28 L 37.00 80.02 L 37.00 78.77 L 37.00 77.52 L 37.00 76.26 L 37.00 75.01 L 37.00 73.76 L 37.00 72.50 L 36.98 71.27 L 36.84 70.15 L 36.37 69.38 L 35.45 69.02 L 34.39 68.72 L 33.61 68.10 L 33.46 67.24 L 34.00 66.50 L 34.98 66.09 L 36.00 65.80 L 36.72 65.24 L 37.17 64.33 L 37.56 63.27 L 37.80 62.17 L 37.69 61.06 L 37.40 60.01 L 37.41 58.96 L 37.73 57.90 L 37.94 56.74 L 38.00 55.51 L 38.00 54.26 L 38.00 53.00 L 38.00 51.75 L 38.00 50.50 L 38.00 49.24 L 38.00 47.99 L 38.03 46.75 L 38.19 45.56 L 38.52 44.44 L 38.83 43.32 L 38.99 42.13 L 39.12 40.94 L 39.38 39.83 L 39.59 38.96 L 39.43 38.57 L 38.91 38.87 L 38.21 39.51 L 37.58 40.22 L 37.43 41.05 L 37.68 42.04 L 37.79 43.12 L 37.47 44.19 L 36.79 45.15 L 35.92 46.01 L 34.93 46.64 L 33.81 46.90 L 32.64 46.82 L 31.54 46.54 L 30.48 46.37 L 29.43 46.55 L 28.34 46.78 L 27.29 46.66 L 26.50 46.02 L 26.09 45.01 L 25.81 43.96 L 25.33 43.10 L 24.68 42.31 L 24.14 41.40 L 23.64 40.56 L 22.85 40.01 L 21.87 39.54 L 20.98 38.83 L 20.44 37.92 L 20.53 36.98 L 21.25 36.29 L 22.29 35.87 L 23.34 35.39 L 24.29 34.66 L 25.13 33.78 L 25.83 32.82 L 26.45 31.82 L 27.18 30.87 L 28.05 30.01 L 29.00 29.30 L 29.93 28.69 L 30.50 27.99 L 30.32 27.36 L 29.45 27.06 L 28.26 27.00 L 27.01 27.00 L 25.76 27.00 L 24.51 27.00 L 23.27 27.05 Z M 8.15 101.06 L 8.44 100.62 L 8.85 100.28 L 9.35 100.08 L 9.89 100.02 L 10.45 100.03 L 10.97 100.17 L 11.42 100.46 L 11.84 100.84 L 12.24 101.25 L 12.61 101.67 L 12.87 102.14 L 12.98 102.67 L 13.00 103.24 L 13.00 103.81 L 13.00 104.39 L 13.00 104.96 L 13.00 105.54 L 12.99 106.11 L 12.92 106.65 L 12.72 107.15 L 12.38 107.56 L 11.94 107.85 L 11.41 107.97 L 10.85 107.98 L 10.31 107.91 L 9.82 107.71 L 9.37 107.40 L 8.90 107.14 L 8.38 107.02 L 7.82 106.99 L 7.28 106.90 L 6.80 106.68 L 6.40 106.32 L 6.14 105.87 L 6.10 105.37 L 6.26 104.88 L 6.58 104.44 L 6.97 104.03 L 7.37 103.61 L 7.70 103.18 L 7.91 102.69 L 7.99 102.15 L 8.02 101.59 Z M 28.15 68.06 L 28.46 67.61 L 28.89 67.27 L 29.40 67.10 L 29.91 67.16 L 30.37 67.44 L 30.72 67.87 L 30.95 68.35 L 31.18 68.76 L 31.57 69.00 L 32.05 69.22 L 32.49 69.55 L 32.80 70.00 L 32.91 70.51 L 32.79 71.03 L 32.48 71.49 L 32.08 71.92 L 31.65 72.33 L 31.20 72.68 L 30.70 72.88 L 30.18 72.86 L 29.71 72.61 L 29.33 72.21 L 29.08 71.73 L 28.90 71.21 L 28.65 70.72 L 28.34 70.25 L 28.11 69.75 L 28.02 69.19 L 28.03 68.61 Z M 37.06 26.14 L 36.61 26.41 L 36.18 26.71 L 35.73 26.94 L 35.33 27.13 L 35.07 27.45 L 34.89 27.89 L 34.63 28.33 L 34.32 28.76 L 34.09 29.22 L 33.93 29.71 L 33.72 30.17 L 33.41 30.60 L 33.16 31.04 L 33.09 31.49 L 33.28 31.83 L 33.69 31.97 L 34.20 31.98 L 34.64 31.87 L 34.92 31.57 L 35.10 31.15 L 35.36 30.71 L 35.71 30.30 L 36.10 29.90 L 36.50 29.52 L 36.93 29.22 L 37.42 29.06 L 37.96 29.01 L 38.51 29.00 L 39.07 29.00 L 39.62 29.00 L 40.16 28.98 L 40.61 28.88 L 40.86 28.62 L 40.83 28.29 L 40.52 28.06 L 40.08 27.88 L 39.66 27.60 L 39.31 27.21 L 39.08 26.76 L 38.88 26.35 L 38.57 26.10 L 38.10 26.02 L 37.57 26.03 Z M 181.08 16.20 L 180.38 16.54 L 179.66 16.84 L 178.86 16.97 L 178.03 17.00 L 177.18 17.00 L 176.33 17.00 L 175.48 17.00 L 174.64 17.00 L 173.79 17.00 L 172.94 17.00 L 172.10 17.00 L 171.25 17.00 L 170.40 17.00 L 169.56 17.00 L 168.71 17.00 L 167.86 17.00 L 167.01 17.00 L 166.17 17.00 L 165.32 17.00 L 164.47 17.00 L 163.63 17.00 L 162.78 17.00 L 161.93 17.00 L 161.09 17.00 L 160.24 17.00 L 159.39 17.00 L 158.54 17.00 L 157.70 17.00 L 156.85 17.00 L 156.00 17.00 L 155.16 17.00 L 154.31 17.00 L 153.46 17.00 L 152.61 17.00 L 151.77 17.00 L 150.92 17.00 L 150.12 17.04 L 149.49 17.23 L 149.26 17.69 L 149.47 18.30 L 149.94 18.93 L 150.45 19.56 L 150.78 20.24 L 150.73 20.93 L 150.30 21.49 L 149.66 21.78 L 148.95 21.70 L 148.26 21.37 L 147.55 21.03 L 146.85 20.69 L 146.16 20.35 L 145.45 20.22 L 144.76 20.43 L 144.13 20.91 L 143.58 21.51 L 143.16 22.19 L 142.83 22.90 L 142.47 23.60 L 142.16 24.31 L 142.03 25.11 L 142.00 25.94 L 142.00 26.79 L 142.00 27.64 L 142.00 28.48 L 142.00 29.33 L 142.00 30.18 L 142.00 31.02 L 142.00 31.87 L 142.00 32.72 L 142.01 33.56 L 142.09 34.37 L 142.32 35.13 L 142.66 35.83 L 142.90 36.58 L 142.98 37.39 L 143.00 38.23 L 143.03 39.07 L 143.19 39.85 L 143.52 40.56 L 143.88 41.26 L 144.22 41.96 L 144.67 42.62 L 145.24 43.23 L 145.84 43.83 L 146.45 44.39 L 147.13 44.79 L 147.90 44.99 L 148.68 45.16 L 149.39 45.47 L 150.10 45.80 L 150.87 45.99 L 151.65 46.15 L 152.37 46.46 L 153.07 46.76 L 153.78 46.79 L 154.48 46.50 L 155.18 46.22 L 155.90 46.23 L 156.60 46.53 L 157.31 46.84 L 158.09 46.94 L 158.86 46.80 L 159.57 46.48 L 160.29 46.17 L 161.08 46.03 L 161.92 46.00 L 162.76 46.00 L 163.61 46.00 L 164.46 46.00 L 165.30 46.00 L 166.15 46.00 L 167.00 46.00 L 167.85 46.00 L 168.69 45.98 L 169.49 45.88 L 170.23 45.62 L 170.94 45.29 L 171.70 45.07 L 172.52 45.01 L 173.36 45.00 L 174.21 45.00 L 175.05 45.00 L 175.90 45.00 L 176.75 45.00 L 177.60 45.00 L 178.44 45.00 L 179.29 45.00 L 180.14 45.00 L 180.98 45.00 L 181.83 45.00 L 182.68 45.00 L 183.53 45.00 L 184.37 45.00 L 185.22 45.00 L 186.07 45.00 L 186.91 45.00 L 187.76 45.00 L 188.61 45.00 L 189.45 45.00 L 190.30 45.00 L 191.15 45.00 L 192.00 45.00 L 192.84 45.00 L 193.69 45.00 L 194.54 45.00 L 195.38 45.00 L 196.23 45.00 L 197.08 45.00 L 197.92 45.00 L 198.76 44.98 L 199.56 44.87 L 200.29 44.59 L 201.00 44.25 L 201.77 44.06 L 202.60 44.01 L 203.44 44.00 L 204.29 44.00 L 205.13 44.00 L 205.98 44.00 L 206.83 44.00 L 207.68 44.00 L 208.52 44.00 L 209.37 44.00 L 210.22 44.00 L 211.06 44.00 L 211.91 44.00 L 212.76 44.00 L 213.60 44.00 L 214.45 44.00 L 215.30 44.00 L 216.15 44.00 L 216.99 44.00 L 217.84 44.00 L 218.69 44.00 L 219.53 44.00 L 220.38 44.01 L 221.21 44.05 L 221.98 44.24 L 222.67 44.56 L 223.30 44.75 L 223.81 44.55 L 224.21 44.02 L 224.71 43.49 L 225.39 43.15 L 226.19 43.02 L 227.02 43.00 L 227.87 43.00 L 228.72 43.00 L 229.56 43.00 L 230.41 43.00 L 231.26 43.00 L 232.11 43.00 L 232.95 43.00 L 233.80 43.00 L 234.64 42.98 L 235.45 42.89 L 236.19 42.64 L 236.90 42.31 L 237.66 42.08 L 238.47 42.01 L 239.31 42.00 L 240.16 42.00 L 241.00 41.97 L 241.78 41.82 L 242.50 41.50 L 243.20 41.14 L 243.91 40.83 L 244.61 40.46 L 245.30 40.10 L 246.01 39.75 L 246.66 39.29 L 247.27 38.72 L 247.87 38.12 L 248.42 37.50 L 248.84 36.83 L 249.16 36.12 L 249.52 35.42 L 249.84 34.70 L 249.97 33.91 L 250.00 33.08 L 250.02 32.24 L 250.13 31.44 L 250.41 30.71 L 250.72 30.01 L 250.78 29.30 L 250.53 28.60 L 250.20 27.89 L 250.03 27.11 L 249.98 26.29 L 249.88 25.49 L 249.61 24.75 L 249.25 24.05 L 248.92 23.34 L 248.52 22.66 L 248.00 22.03 L 247.42 21.42 L 246.81 20.85 L 246.17 20.36 L 245.47 19.99 L 244.77 19.64 L 244.08 19.27 L 243.37 18.93 L 242.67 18.58 L 241.97 18.23 L 241.19 18.05 L 240.37 18.01 L 239.52 18.00 L 238.67 18.00 L 237.84 17.96 L 237.07 17.79 L 236.36 17.45 L 235.64 17.15 L 234.84 17.03 L 234.00 17.00 L 233.16 17.00 L 232.31 17.00 L 231.46 17.00 L 230.62 17.00 L 229.77 17.00 L 228.92 17.00 L 228.08 17.00 L 227.23 17.00 L 226.38 17.00 L 225.53 17.00 L 224.69 17.00 L 223.84 17.00 L 222.99 17.00 L 222.15 17.00 L 221.31 16.98 L 220.50 16.88 L 219.76 16.62 L 219.07 16.31 L 218.36 16.22 L 217.66 16.45 L 216.95 16.78 L 216.18 16.95 L 215.35 17.00 L 214.50 17.00 L 213.66 17.00 L 212.81 17.00 L 211.96 17.00 L 211.12 17.00 L 210.27 17.00 L 209.42 17.00 L 208.58 17.00 L 207.73 17.00 L 206.88 17.00 L 206.04 17.00 L 205.20 16.98 L 204.40 16.86 L 203.67 16.57 L 202.96 16.23 L 202.19 16.05 L 201.36 16.01 L 200.52 16.00 L 199.67 16.00 L 198.83 16.00 L 197.98 16.00 L 197.14 16.03 L 196.35 16.15 L 195.63 16.46 L 194.92 16.79 L 194.15 16.94 L 193.37 16.85 L 192.65 16.56 L 191.95 16.25 L 191.24 16.22 L 190.54 16.49 L 189.83 16.81 L 189.04 16.97 L 188.21 17.00 L 187.36 17.00 L 186.52 16.99 L 185.70 16.93 L 184.94 16.72 L 184.23 16.38 L 183.49 16.12 L 182.69 16.02 L 181.86 16.04 Z M 147.14 38.06 L 147.41 37.64 L 147.80 37.30 L 148.26 37.09 L 148.77 37.02 L 149.30 37.02 L 149.81 37.11 L 150.25 37.34 L 150.62 37.69 L 150.87 38.12 L 150.92 38.60 L 150.78 39.07 L 150.48 39.49 L 150.11 39.88 L 149.73 40.27 L 149.33 40.62 L 148.89 40.86 L 148.41 40.92 L 147.94 40.79 L 147.54 40.49 L 147.23 40.08 L 147.06 39.61 L 147.01 39.09 L 147.02 38.55 Z M 218.15 36.06 L 218.44 35.62 L 218.86 35.28 L 219.35 35.10 L 219.86 35.14 L 220.31 35.39 L 220.68 35.79 L 220.92 36.26 L 221.09 36.77 L 221.33 37.25 L 221.64 37.70 L 221.87 38.18 L 221.89 38.68 L 221.70 39.17 L 221.36 39.58 L 220.90 39.86 L 220.37 39.97 L 219.81 39.98 L 219.27 39.90 L 218.78 39.67 L 218.39 39.31 L 218.13 38.84 L 218.02 38.31 L 218.00 37.74 L 218.00 37.16 L 218.03 36.59 Z M 156.14 32.06 L 156.44 31.62 L 156.85 31.28 L 157.34 31.08 L 157.89 31.01 L 158.46 31.00 L 159.04 31.00 L 159.61 31.00 L 160.19 31.00 L 160.76 31.00 L 161.33 31.02 L 161.86 31.13 L 162.33 31.38 L 162.78 31.68 L 163.25 31.92 L 163.76 32.09 L 164.23 32.33 L 164.62 32.70 L 164.87 33.16 L 164.98 33.69 L 165.02 34.23 L 165.16 34.67 L 165.49 34.91 L 165.99 34.99 L 166.53 35.05 L 167.04 35.21 L 167.47 35.53 L 167.79 35.96 L 167.95 36.46 L 167.98 37.02 L 167.94 37.57 L 167.77 38.07 L 167.45 38.49 L 167.02 38.80 L 166.52 38.92 L 166.02 38.82 L 165.56 38.55 L 165.11 38.25 L 164.62 38.05 L 164.12 37.88 L 163.67 37.60 L 163.31 37.20 L 163.07 36.74 L 162.86 36.33 L 162.55 36.12 L 162.22 36.21 L 162.04 36.59 L 162.00 37.13 L 162.00 37.70 L 162.00 38.27 L 162.00 38.85 L 161.97 39.41 L 161.85 39.93 L 161.56 40.38 L 161.15 40.72 L 160.66 40.92 L 160.12 40.99 L 159.59 41.04 L 159.19 41.23 L 158.97 41.61 L 158.77 42.09 L 158.45 42.53 L 158.06 42.94 L 157.65 43.34 L 157.22 43.68 L 156.74 43.88 L 156.23 43.88 L 155.76 43.67 L 155.31 43.37 L 154.84 43.11 L 154.34 42.94 L 153.85 42.72 L 153.44 42.38 L 153.16 41.94 L 153.08 41.44 L 153.22 40.94 L 153.51 40.49 L 153.79 40.03 L 153.92 39.53 L 153.83 39.03 L 153.56 38.57 L 153.26 38.12 L 153.08 37.63 L 153.02 37.08 L 153.04 36.52 L 153.18 36.01 L 153.48 35.55 L 153.86 35.14 L 154.27 34.73 L 154.67 34.33 L 155.08 33.92 L 155.47 33.50 L 155.78 33.06 L 155.97 32.56 Z M 155.13 22.05 L 155.37 21.67 L 155.70 21.34 L 156.09 21.12 L 156.53 21.04 L 156.96 21.13 L 157.34 21.38 L 157.66 21.71 L 157.89 22.10 L 157.98 22.55 L 158.00 23.03 L 157.98 23.51 L 157.87 23.95 L 157.63 24.33 L 157.30 24.66 L 156.91 24.88 L 156.47 24.96 L 156.04 24.87 L 155.66 24.62 L 155.34 24.29 L 155.11 23.90 L 155.02 23.45 L 155.00 22.97 L 155.02 22.49 Z M 97.06 5.37 L 95.80 5.75 L 94.49 6.19 L 93.16 6.60 L 91.78 6.90 L 90.36 7.09 L 89.01 7.46 L 87.79 8.14 L 86.61 8.90 L 85.37 9.55 L 84.12 10.14 L 82.84 10.68 L 81.47 11.01 L 80.13 11.39 L 78.91 12.07 L 77.74 12.88 L 76.56 13.64 L 75.37 14.40 L 74.19 15.16 L 73.05 16.04 L 71.96 17.03 L 70.85 17.99 L 69.64 18.68 L 68.29 19.04 L 66.93 19.40 L 65.67 19.98 L 64.47 20.70 L 63.26 21.42 L 62.00 22.00 L 60.74 22.58 L 59.54 23.30 L 58.36 24.04 L 57.21 24.75 L 56.20 25.53 L 55.31 26.51 L 54.37 27.59 L 53.34 28.66 L 52.27 29.69 L 51.20 30.60 L 50.22 31.46 L 49.38 32.48 L 48.60 33.62 L 47.84 34.81 L 46.97 35.95 L 45.97 37.03 L 44.99 38.13 L 44.16 39.29 L 43.55 40.54 L 43.18 41.88 L 43.03 43.32 L 43.00 44.81 L 42.98 46.31 L 42.89 47.77 L 42.61 49.15 L 42.25 50.51 L 42.05 51.92 L 42.00 53.41 L 41.96 54.89 L 41.79 56.32 L 41.44 57.68 L 41.14 59.06 L 41.02 60.51 L 41.00 62.00 L 41.00 63.50 L 41.00 65.00 L 41.00 66.50 L 41.00 68.00 L 40.98 69.50 L 40.85 70.95 L 40.56 72.32 L 40.21 73.68 L 40.05 75.11 L 40.08 76.57 L 40.32 77.96 L 40.67 79.28 L 40.68 80.60 L 40.36 81.93 L 40.10 83.32 L 40.01 84.78 L 40.00 86.28 L 40.03 87.77 L 40.19 89.20 L 40.52 90.57 L 40.83 91.94 L 40.97 93.38 L 41.00 94.87 L 41.00 96.37 L 41.00 97.88 L 41.00 99.38 L 41.00 100.88 L 41.00 102.38 L 41.00 103.88 L 41.02 105.37 L 41.12 106.83 L 41.41 108.22 L 41.77 109.57 L 42.00 110.97 L 42.27 112.36 L 42.87 113.61 L 43.79 114.70 L 44.89 115.61 L 45.94 116.44 L 46.67 117.50 L 46.95 118.85 L 47.05 120.31 L 47.26 121.70 L 47.52 122.99 L 47.37 124.21 L 46.85 125.36 L 46.64 126.36 L 47.17 127.23 L 48.14 128.16 L 49.19 129.19 L 50.26 130.23 L 51.37 131.18 L 52.54 131.96 L 53.79 132.57 L 55.10 133.04 L 56.42 133.47 L 57.75 133.90 L 59.07 134.32 L 60.40 134.73 L 61.80 134.98 L 63.22 135.19 L 64.58 135.53 L 65.95 135.83 L 67.39 135.95 L 68.84 135.88 L 70.20 135.63 L 71.46 135.50 L 72.66 135.86 L 73.87 136.47 L 75.21 136.86 L 76.66 136.98 L 78.15 137.01 L 79.62 137.09 L 81.01 137.34 L 82.36 137.73 L 83.77 137.95 L 85.25 138.00 L 86.75 138.00 L 88.25 138.00 L 89.74 138.03 L 91.17 138.19 L 92.53 138.50 L 93.86 138.71 L 95.19 138.58 L 96.51 138.30 L 97.83 138.35 L 99.14 138.70 L 100.54 138.94 L 102.00 139.04 L 103.43 139.23 L 104.78 139.59 L 106.16 139.87 L 107.61 139.95 L 109.05 139.84 L 110.42 139.53 L 111.77 139.23 L 113.14 139.21 L 114.50 139.50 L 115.85 139.85 L 117.23 140.16 L 118.58 140.52 L 119.95 140.83 L 121.39 140.95 L 122.83 140.87 L 124.22 140.59 L 125.57 140.23 L 126.99 140.04 L 128.45 139.94 L 129.85 139.70 L 131.19 139.30 L 132.59 139.06 L 134.06 139.01 L 135.54 139.07 L 136.94 139.32 L 138.28 139.71 L 139.68 139.94 L 141.16 140.00 L 142.66 140.00 L 144.16 139.99 L 145.63 139.91 L 147.01 139.62 L 148.28 139.08 L 149.47 138.46 L 150.36 137.73 L 150.52 136.89 L 149.86 136.24 L 148.69 135.84 L 147.38 135.46 L 146.00 135.16 L 144.56 135.02 L 143.08 134.96 L 141.65 134.78 L 140.30 134.43 L 138.92 134.13 L 137.49 133.96 L 136.10 133.69 L 134.76 133.29 L 133.37 133.03 L 131.95 132.84 L 130.60 132.47 L 129.33 131.93 L 128.06 131.36 L 126.76 130.86 L 125.52 130.23 L 124.39 129.34 L 123.32 128.31 L 122.29 127.24 L 121.41 126.10 L 120.65 124.92 L 119.89 123.73 L 119.30 122.47 L 119.05 121.07 L 118.95 119.62 L 118.70 118.22 L 118.35 116.90 L 118.34 115.59 L 118.84 114.35 L 119.57 113.15 L 120.25 111.93 L 120.94 110.72 L 121.73 109.57 L 122.71 108.61 L 123.85 107.81 L 124.90 106.90 L 125.57 105.80 L 125.55 104.70 L 124.86 103.77 L 123.88 102.82 L 122.94 101.74 L 122.25 100.52 L 121.74 99.23 L 121.18 97.96 L 120.63 96.69 L 120.23 95.36 L 120.04 93.93 L 120.03 92.46 L 120.18 91.02 L 120.62 89.70 L 121.22 88.50 L 121.42 87.37 L 120.82 86.51 L 119.62 86.11 L 118.17 86.01 L 116.68 86.00 L 115.18 86.00 L 113.70 85.94 L 112.29 85.71 L 110.97 85.29 L 109.65 84.86 L 108.32 84.42 L 107.01 83.97 L 105.74 83.42 L 104.54 82.69 L 103.36 81.92 L 102.25 81.05 L 101.35 79.99 L 100.70 78.77 L 100.23 77.46 L 99.91 76.09 L 99.58 74.73 L 99.22 73.38 L 99.00 71.97 L 98.77 70.56 L 98.38 69.22 L 97.96 67.90 L 97.56 66.57 L 97.29 65.25 L 97.39 63.92 L 97.74 62.59 L 97.95 61.18 L 98.00 59.70 L 98.00 58.20 L 98.02 56.70 L 98.11 55.24 L 98.38 53.86 L 98.70 52.53 L 98.68 51.22 L 98.48 49.99 L 98.74 48.89 L 99.57 47.97 L 100.49 47.03 L 101.20 45.91 L 101.76 44.65 L 102.24 43.35 L 102.80 42.10 L 103.51 41.06 L 104.43 40.60 L 105.31 41.01 L 105.78 42.10 L 105.74 43.43 L 105.38 44.76 L 104.97 46.09 L 104.55 47.42 L 104.17 48.76 L 103.86 50.13 L 103.51 51.49 L 103.18 52.85 L 103.02 54.29 L 102.90 55.74 L 102.62 57.13 L 102.25 58.48 L 102.05 59.89 L 102.00 61.37 L 102.00 62.87 L 102.00 64.38 L 102.00 65.88 L 102.00 67.38 L 102.04 68.86 L 102.21 70.29 L 102.61 71.63 L 103.18 72.90 L 103.86 74.11 L 104.60 75.31 L 105.50 76.44 L 106.52 77.51 L 107.60 78.54 L 108.73 79.42 L 109.94 80.13 L 111.21 80.68 L 112.58 81.01 L 113.95 81.32 L 115.29 81.71 L 116.68 81.91 L 118.10 81.82 L 119.45 81.45 L 120.72 80.89 L 121.94 80.23 L 123.13 79.52 L 124.16 78.59 L 124.96 77.46 L 125.54 76.20 L 125.86 74.84 L 125.90 73.41 L 125.66 72.03 L 125.20 70.76 L 124.61 69.70 L 123.74 68.95 L 122.79 68.22 L 122.10 67.31 L 121.56 66.74 L 120.87 66.95 L 119.93 67.41 L 118.83 67.32 L 117.87 66.53 L 117.30 65.34 L 117.24 64.03 L 117.73 62.86 L 118.61 61.93 L 119.45 60.95 L 119.93 59.72 L 120.34 58.45 L 121.14 57.52 L 122.39 57.11 L 123.83 57.01 L 125.32 56.98 L 126.77 56.86 L 128.10 56.45 L 129.27 55.65 L 130.36 54.64 L 131.43 53.61 L 132.55 52.69 L 133.72 51.89 L 134.86 51.02 L 135.88 50.00 L 136.63 48.81 L 137.00 47.47 L 137.30 46.09 L 137.70 44.76 L 137.86 43.39 L 137.61 42.06 L 136.97 40.98 L 136.02 40.28 L 134.83 39.83 L 133.59 39.26 L 132.49 38.38 L 131.57 37.32 L 130.74 36.31 L 129.90 35.40 L 129.36 34.33 L 129.49 33.15 L 130.28 32.18 L 131.41 31.39 L 132.61 30.68 L 133.86 30.15 L 135.00 29.69 L 135.70 28.88 L 135.94 27.63 L 135.88 26.21 L 135.60 24.83 L 135.22 23.49 L 134.91 22.11 L 134.54 20.77 L 134.00 19.49 L 133.45 18.22 L 133.06 16.92 L 132.60 15.81 L 131.71 15.16 L 130.53 14.71 L 129.51 13.97 L 128.78 12.88 L 128.23 11.63 L 127.70 10.38 L 126.89 9.38 L 125.75 8.69 L 124.45 8.23 L 123.08 7.91 L 121.72 7.57 L 120.37 7.20 L 119.00 6.89 L 117.64 6.54 L 116.31 6.12 L 114.99 5.70 L 113.66 5.28 L 112.25 5.05 L 110.78 5.01 L 109.32 5.05 L 108.03 5.29 L 106.97 5.86 L 105.91 6.53 L 104.65 6.95 L 103.29 7.27 L 101.98 7.63 L 100.71 7.65 L 99.68 7.08 L 98.94 6.15 L 98.16 5.44 Z M 84.13 119.05 L 84.37 118.67 L 84.70 118.34 L 85.09 118.12 L 85.54 118.02 L 86.01 118.00 L 86.49 118.02 L 86.94 118.12 L 87.32 118.36 L 87.65 118.69 L 87.88 119.08 L 87.96 119.51 L 87.87 119.95 L 87.63 120.33 L 87.30 120.66 L 86.91 120.88 L 86.46 120.98 L 85.99 121.00 L 85.51 120.98 L 85.06 120.88 L 84.68 120.64 L 84.35 120.31 L 84.12 119.92 L 84.04 119.49 Z M 52.13 50.05 L 52.37 49.67 L 52.70 49.34 L 53.09 49.12 L 53.53 49.04 L 53.96 49.13 L 54.34 49.38 L 54.66 49.71 L 54.89 50.10 L 54.98 50.55 L 55.00 51.03 L 54.98 51.51 L 54.87 51.95 L 54.63 52.33 L 54.30 52.66 L 53.91 52.88 L 53.47 52.96 L 53.04 52.87 L 52.66 52.62 L 52.34 52.29 L 52.11 51.90 L 52.02 51.45 L 52.00 50.97 L 52.02 50.49 Z M 101.13 16.05 L 101.37 15.67 L 101.70 15.34 L 102.09 15.12 L 102.54 15.02 L 103.01 15.00 L 103.49 15.02 L 103.94 15.12 L 104.32 15.36 L 104.65 15.69 L 104.88 16.08 L 104.96 16.51 L 104.87 16.95 L 104.63 17.33 L 104.30 17.66 L 103.91 17.88 L 103.46 17.98 L 102.99 18.00 L 102.51 17.98 L 102.06 17.88 L 101.68 17.64 L 101.35 17.31 L 101.12 16.92 L 101.04 16.49 Z" fill="rgb(15,15,14)" fill-rule="evenodd"/>
  <path d="M 10.20 120.20 L 9.99 120.57 L 9.80 121.04 L 9.49 121.45 L 9.08 121.77 L 8.62 121.97 L 8.25 122.17 L 8.11 122.50 L 8.25 122.83 L 8.62 123.03 L 9.08 123.23 L 9.49 123.55 L 9.80 123.96 L 9.99 124.43 L 10.19 124.81 L 10.57 125.01 L 11.04 125.20 L 11.47 125.50 L 11.87 125.88 L 12.26 126.27 L 12.62 126.68 L 12.86 127.13 L 12.91 127.63 L 12.76 128.10 L 12.47 128.54 L 12.19 128.98 L 12.09 129.44 L 12.23 129.81 L 12.62 129.97 L 13.13 129.98 L 13.59 129.89 L 13.88 129.61 L 13.98 129.16 L 13.98 128.63 L 13.87 128.11 L 13.62 127.66 L 13.32 127.22 L 13.12 126.76 L 13.11 126.27 L 13.30 125.80 L 13.60 125.37 L 13.85 124.92 L 13.92 124.43 L 13.78 123.94 L 13.50 123.50 L 13.22 123.06 L 13.06 122.57 L 13.01 122.03 L 13.00 121.47 L 12.99 120.93 L 12.90 120.45 L 12.65 120.14 L 12.21 120.02 L 11.68 120.00 L 11.12 120.00 L 10.59 120.04 Z M 33.06 117.15 L 32.62 117.40 L 32.20 117.70 L 31.76 117.93 L 31.35 118.12 L 31.10 118.42 L 31.02 118.88 L 31.00 119.41 L 31.00 119.96 L 30.96 120.49 L 30.83 120.98 L 30.57 121.42 L 30.27 121.85 L 30.08 122.31 L 30.01 122.83 L 30.00 123.37 L 30.00 123.92 L 30.00 124.47 L 30.01 125.00 L 30.07 125.49 L 30.27 125.83 L 30.68 125.97 L 31.18 125.98 L 31.63 125.88 L 31.91 125.60 L 32.09 125.19 L 32.33 124.75 L 32.68 124.38 L 33.12 124.14 L 33.60 124.08 L 34.07 124.22 L 34.49 124.52 L 34.89 124.89 L 35.27 125.28 L 35.62 125.67 L 35.89 126.11 L 36.06 126.54 L 36.29 126.83 L 36.62 126.86 L 36.86 126.63 L 36.88 126.22 L 36.69 125.78 L 36.39 125.36 L 36.13 124.92 L 36.02 124.42 L 36.00 123.88 L 36.00 123.33 L 36.00 122.79 L 36.00 122.24 L 36.00 121.69 L 36.00 121.15 L 36.00 120.60 L 36.00 120.05 L 36.00 119.51 L 35.99 118.97 L 35.93 118.49 L 35.71 118.15 L 35.32 117.95 L 34.88 117.75 L 34.45 117.46 L 34.02 117.19 L 33.54 117.07 Z M 166.20 72.19 L 166.09 72.52 L 166.26 72.83 L 166.65 72.97 L 167.17 73.00 L 167.71 73.00 L 168.24 73.02 L 168.75 73.09 L 169.21 73.30 L 169.61 73.63 L 170.00 74.00 L 170.39 74.37 L 170.79 74.70 L 171.25 74.91 L 171.76 74.98 L 172.29 74.98 L 172.79 74.90 L 173.24 74.68 L 173.66 74.38 L 174.09 74.12 L 174.52 73.95 L 174.83 73.73 L 174.88 73.40 L 174.65 73.13 L 174.23 73.02 L 173.71 73.00 L 173.17 73.00 L 172.62 73.00 L 172.08 73.00 L 171.54 73.00 L 171.00 72.99 L 170.48 72.96 L 169.99 72.82 L 169.56 72.55 L 169.14 72.26 L 168.68 72.08 L 168.16 72.01 L 167.62 72.00 L 167.09 72.00 L 166.58 72.03 Z M 157.20 32.21 L 156.98 32.59 L 156.78 33.06 L 156.47 33.50 L 156.08 33.91 L 155.68 34.32 L 155.27 34.73 L 154.87 35.13 L 154.49 35.55 L 154.19 36.00 L 154.04 36.51 L 154.02 37.06 L 154.07 37.61 L 154.25 38.11 L 154.55 38.56 L 154.82 39.01 L 154.92 39.52 L 154.80 40.01 L 154.53 40.47 L 154.23 40.92 L 154.10 41.39 L 154.21 41.77 L 154.57 41.90 L 155.04 41.79 L 155.49 41.51 L 155.94 41.22 L 156.44 41.03 L 156.94 40.86 L 157.40 40.58 L 157.85 40.28 L 158.34 40.08 L 158.88 40.01 L 159.44 39.97 L 159.96 39.84 L 160.40 39.55 L 160.73 39.13 L 160.92 38.64 L 160.99 38.09 L 161.00 37.52 L 161.01 36.95 L 161.07 36.40 L 161.25 35.90 L 161.56 35.46 L 161.95 35.05 L 162.36 34.65 L 162.79 34.31 L 163.25 34.07 L 163.66 33.87 L 163.87 33.56 L 163.79 33.22 L 163.44 33.00 L 162.97 32.81 L 162.52 32.52 L 162.07 32.23 L 161.56 32.06 L 161.01 32.01 L 160.44 32.00 L 159.87 32.00 L 159.29 32.00 L 158.72 32.00 L 158.15 32.00 L 157.61 32.04 Z M 133.06 31.14 L 132.61 31.42 L 132.20 31.80 L 131.80 32.19 L 131.40 32.57 L 130.96 32.86 L 130.51 33.04 L 130.17 33.28 L 130.03 33.70 L 130.03 34.22 L 130.14 34.66 L 130.45 34.93 L 130.89 35.12 L 131.32 35.39 L 131.68 35.78 L 131.91 36.24 L 132.08 36.73 L 132.31 37.20 L 132.64 37.63 L 133.03 38.03 L 133.43 38.41 L 133.86 38.73 L 134.35 38.92 L 134.88 38.98 L 135.41 38.96 L 135.80 38.79 L 135.96 38.40 L 136.00 37.87 L 136.00 37.31 L 135.98 36.75 L 135.89 36.22 L 135.67 35.75 L 135.37 35.32 L 135.12 34.85 L 135.02 34.33 L 135.02 33.79 L 135.10 33.26 L 135.31 32.78 L 135.62 32.35 L 135.85 31.90 L 135.89 31.46 L 135.66 31.15 L 135.23 31.02 L 134.69 31.00 L 134.13 31.00 L 133.57 31.03 Z M 37.06 30.14 L 36.63 30.43 L 36.29 30.83 L 36.11 31.29 L 36.12 31.78 L 36.33 32.25 L 36.63 32.68 L 36.88 33.14 L 36.98 33.65 L 37.02 34.18 L 37.13 34.63 L 37.43 34.89 L 37.90 34.98 L 38.43 34.97 L 38.94 34.86 L 39.37 34.57 L 39.71 34.17 L 39.89 33.71 L 39.88 33.22 L 39.67 32.75 L 39.37 32.32 L 39.12 31.86 L 39.02 31.35 L 38.98 30.82 L 38.87 30.37 L 38.57 30.11 L 38.10 30.02 L 37.57 30.03 Z M 32.05 28.16 L 31.60 28.44 L 31.18 28.83 L 30.76 29.23 L 30.33 29.61 L 29.86 29.88 L 29.35 30.06 L 28.86 30.28 L 28.41 30.61 L 27.99 31.01 L 27.60 31.43 L 27.27 31.87 L 27.05 32.37 L 26.88 32.88 L 26.60 33.35 L 26.22 33.77 L 25.81 34.19 L 25.40 34.60 L 24.99 35.01 L 24.57 35.43 L 24.16 35.84 L 23.75 36.24 L 23.32 36.61 L 22.84 36.87 L 22.30 36.98 L 21.75 37.03 L 21.31 37.17 L 21.11 37.51 L 21.17 37.97 L 21.46 38.40 L 21.89 38.74 L 22.39 38.93 L 22.95 39.00 L 23.51 39.05 L 24.03 39.21 L 24.46 39.52 L 24.78 39.96 L 24.95 40.47 L 25.01 41.02 L 25.10 41.52 L 25.35 41.87 L 25.77 42.08 L 26.23 42.33 L 26.62 42.70 L 26.89 43.17 L 27.07 43.68 L 27.29 44.17 L 27.60 44.62 L 27.87 45.08 L 28.07 45.53 L 28.35 45.83 L 28.77 45.87 L 29.24 45.67 L 29.70 45.37 L 30.17 45.14 L 30.68 45.11 L 31.17 45.29 L 31.63 45.60 L 32.11 45.86 L 32.64 45.98 L 33.22 46.00 L 33.80 46.00 L 34.37 45.98 L 34.91 45.86 L 35.37 45.58 L 35.80 45.20 L 36.21 44.78 L 36.59 44.36 L 36.86 43.89 L 36.97 43.35 L 36.98 42.78 L 36.89 42.24 L 36.67 41.75 L 36.36 41.29 L 36.13 40.81 L 36.11 40.30 L 36.31 39.82 L 36.66 39.41 L 37.10 39.12 L 37.55 38.92 L 37.83 38.65 L 37.82 38.32 L 37.52 38.12 L 37.07 38.16 L 36.61 38.41 L 36.15 38.72 L 35.65 38.92 L 35.09 38.99 L 34.52 39.00 L 33.94 38.99 L 33.38 38.92 L 32.88 38.73 L 32.43 38.40 L 32.01 38.01 L 31.61 37.59 L 31.28 37.14 L 31.08 36.64 L 31.01 36.09 L 31.00 35.51 L 31.01 34.93 L 31.08 34.37 L 31.27 33.87 L 31.57 33.41 L 31.85 32.94 L 31.97 32.41 L 32.01 31.84 L 32.10 31.29 L 32.31 30.80 L 32.61 30.34 L 32.87 29.86 L 32.98 29.33 L 32.97 28.78 L 32.84 28.33 L 32.51 28.11 Z M 102.19 4.20 L 101.99 4.56 L 101.82 5.01 L 101.53 5.42 L 101.14 5.74 L 100.70 5.95 L 100.31 6.13 L 100.11 6.43 L 100.18 6.76 L 100.52 6.94 L 101.01 6.99 L 101.52 6.96 L 102.01 6.82 L 102.44 6.55 L 102.86 6.26 L 103.32 6.08 L 103.84 6.01 L 104.38 6.00 L 104.91 6.00 L 105.42 5.97 L 105.80 5.81 L 105.91 5.48 L 105.74 5.17 L 105.35 5.03 L 104.84 4.99 L 104.32 4.92 L 103.86 4.74 L 103.44 4.45 L 103.01 4.18 L 102.56 4.08 Z" fill="rgb(87,87,85)" fill-rule="evenodd"/>
  <path d="M 6.21 127.21 L 6.04 127.61 L 6.00 128.15 L 6.00 128.72 L 6.00 129.30 L 6.00 129.87 L 6.03 130.43 L 6.16 130.96 L 6.45 131.41 L 6.83 131.83 L 7.23 132.24 L 7.60 132.66 L 7.87 133.12 L 7.98 133.65 L 8.00 134.22 L 8.00 134.79 L 8.03 135.33 L 8.19 135.75 L 8.57 135.95 L 9.09 135.99 L 9.66 136.00 L 10.24 136.00 L 10.81 136.00 L 11.39 136.00 L 11.96 135.99 L 12.52 135.95 L 13.02 135.80 L 13.46 135.49 L 13.77 135.06 L 13.92 134.57 L 13.85 134.06 L 13.57 133.61 L 13.19 133.19 L 12.79 132.79 L 12.38 132.38 L 11.97 131.97 L 11.57 131.57 L 11.16 131.16 L 10.75 130.75 L 10.35 130.35 L 9.94 129.94 L 9.54 129.54 L 9.13 129.13 L 8.73 128.72 L 8.37 128.30 L 8.10 127.84 L 7.90 127.41 L 7.60 127.13 L 7.13 127.02 L 6.61 127.04 Z" fill="rgb(161,161,161)" fill-rule="evenodd"/>
  <path d="M 134.20 131.19 L 134.08 131.51 L 134.23 131.83 L 134.61 131.97 L 135.10 132.01 L 135.60 132.06 L 136.06 132.21 L 136.48 132.48 L 136.89 132.76 L 137.34 132.93 L 137.84 132.99 L 138.36 133.00 L 138.89 133.00 L 139.41 133.00 L 139.94 133.00 L 140.46 133.00 L 140.99 133.00 L 141.52 133.00 L 142.04 133.00 L 142.57 133.00 L 143.09 133.00 L 143.62 133.00 L 144.14 133.01 L 144.64 133.06 L 145.10 133.23 L 145.51 133.51 L 145.92 133.78 L 146.38 133.94 L 146.88 133.99 L 147.40 134.00 L 147.93 134.00 L 148.45 134.00 L 148.98 134.00 L 149.49 134.03 L 149.97 134.15 L 150.39 134.41 L 150.79 134.70 L 151.23 134.91 L 151.72 134.98 L 152.22 134.98 L 152.65 134.88 L 152.90 134.60 L 152.98 134.17 L 152.97 133.68 L 152.85 133.28 L 152.53 133.07 L 152.07 133.01 L 151.55 133.00 L 151.03 133.00 L 150.51 133.00 L 149.98 133.00 L 149.45 133.00 L 148.93 132.99 L 148.42 132.95 L 147.96 132.81 L 147.54 132.54 L 147.14 132.25 L 146.69 132.07 L 146.19 132.01 L 145.67 132.00 L 145.14 132.00 L 144.62 132.00 L 144.09 132.00 L 143.57 132.00 L 143.04 132.00 L 142.52 132.00 L 141.99 132.00 L 141.46 132.00 L 140.94 132.00 L 140.41 132.00 L 139.89 131.99 L 139.39 131.94 L 138.93 131.79 L 138.51 131.51 L 138.11 131.23 L 137.65 131.07 L 137.15 131.01 L 136.63 131.00 L 136.10 131.00 L 135.58 131.00 L 135.05 131.00 L 134.56 131.03 Z M 150.19 106.18 L 150.08 106.51 L 150.22 106.83 L 150.59 106.97 L 151.09 107.00 L 151.59 107.05 L 152.05 107.20 L 152.46 107.46 L 152.86 107.75 L 153.31 107.93 L 153.80 107.99 L 154.32 108.00 L 154.84 108.00 L 155.36 108.00 L 155.89 108.00 L 156.41 108.00 L 156.93 108.00 L 157.45 108.00 L 157.97 108.00 L 158.48 108.03 L 158.96 108.14 L 159.37 108.39 L 159.77 108.69 L 160.21 108.90 L 160.69 108.98 L 161.21 109.00 L 161.73 109.00 L 162.23 108.98 L 162.65 108.88 L 162.90 108.61 L 162.98 108.17 L 162.97 107.69 L 162.85 107.29 L 162.55 107.08 L 162.09 107.01 L 161.59 106.98 L 161.11 106.88 L 160.68 106.64 L 160.29 106.34 L 159.86 106.11 L 159.38 106.02 L 158.86 106.00 L 158.34 106.00 L 157.82 106.00 L 157.30 106.00 L 156.78 106.00 L 156.26 106.00 L 155.74 106.00 L 155.21 106.00 L 154.69 106.00 L 154.17 106.00 L 153.65 106.00 L 153.13 106.00 L 152.61 106.00 L 152.09 106.00 L 151.56 106.00 L 151.05 106.00 L 150.55 106.03 Z M 128.20 103.21 L 128.04 103.60 L 128.00 104.14 L 128.00 104.70 L 127.98 105.26 L 127.89 105.79 L 127.66 106.26 L 127.31 106.68 L 126.91 107.09 L 126.50 107.47 L 126.07 107.78 L 125.58 107.97 L 125.08 108.13 L 124.63 108.41 L 124.22 108.79 L 123.81 109.19 L 123.41 109.59 L 123.01 109.99 L 122.62 110.39 L 122.29 110.82 L 122.07 111.30 L 121.90 111.80 L 121.66 112.26 L 121.36 112.70 L 121.11 113.17 L 120.94 113.67 L 120.73 114.15 L 120.43 114.59 L 120.16 115.04 L 120.03 115.56 L 120.00 116.11 L 120.00 116.68 L 120.00 117.25 L 120.00 117.81 L 120.00 118.38 L 120.00 118.95 L 120.00 119.52 L 120.01 120.08 L 120.07 120.62 L 120.25 121.11 L 120.55 121.56 L 120.82 122.01 L 120.96 122.52 L 121.01 123.07 L 121.07 123.61 L 121.25 124.10 L 121.57 124.52 L 122.00 124.81 L 122.46 124.91 L 122.80 124.75 L 122.90 124.37 L 122.76 123.90 L 122.47 123.46 L 122.19 123.01 L 122.04 122.50 L 122.01 121.95 L 122.00 121.39 L 121.99 120.82 L 121.91 120.29 L 121.70 119.81 L 121.40 119.37 L 121.14 118.91 L 121.02 118.39 L 121.02 117.83 L 121.09 117.30 L 121.29 116.82 L 121.60 116.38 L 121.86 115.92 L 121.98 115.40 L 122.01 114.85 L 122.09 114.31 L 122.29 113.83 L 122.62 113.40 L 123.01 112.99 L 123.40 112.58 L 123.72 112.15 L 123.94 111.67 L 124.10 111.18 L 124.36 110.71 L 124.72 110.30 L 125.11 109.89 L 125.51 109.49 L 125.91 109.09 L 126.32 108.70 L 126.74 108.35 L 127.20 108.10 L 127.70 107.93 L 128.18 107.71 L 128.62 107.41 L 129.07 107.14 L 129.59 107.02 L 130.15 107.00 L 130.72 107.00 L 131.28 106.98 L 131.80 106.89 L 132.27 106.66 L 132.72 106.35 L 133.19 106.12 L 133.71 106.02 L 134.27 106.00 L 134.84 106.00 L 135.41 106.00 L 135.97 106.00 L 136.54 106.00 L 137.11 106.00 L 137.67 106.00 L 138.23 106.02 L 138.77 106.10 L 139.24 106.33 L 139.68 106.63 L 140.15 106.88 L 140.67 106.98 L 141.21 106.97 L 141.65 106.86 L 141.87 106.57 L 141.80 106.24 L 141.44 106.06 L 140.93 106.01 L 140.37 106.00 L 139.81 105.98 L 139.27 105.90 L 138.79 105.69 L 138.35 105.39 L 137.89 105.13 L 137.37 105.02 L 136.81 105.00 L 136.25 105.00 L 135.68 105.00 L 135.11 105.00 L 134.54 105.00 L 133.98 104.99 L 133.43 104.94 L 132.93 104.78 L 132.49 104.49 L 132.04 104.21 L 131.53 104.05 L 130.99 104.00 L 130.44 103.94 L 129.94 103.78 L 129.50 103.50 L 129.05 103.21 L 128.58 103.09 Z M 39.19 100.20 L 39.03 100.56 L 39.00 101.06 L 39.00 101.58 L 39.00 102.11 L 39.00 102.64 L 39.00 103.16 L 39.00 103.69 L 39.00 104.22 L 39.00 104.74 L 39.00 105.27 L 39.00 105.80 L 39.00 106.32 L 39.00 106.85 L 39.00 107.38 L 39.00 107.91 L 39.00 108.43 L 39.00 108.96 L 39.00 109.49 L 39.00 110.01 L 39.00 110.54 L 39.00 111.07 L 39.00 111.59 L 39.01 112.12 L 39.06 112.62 L 39.22 113.08 L 39.50 113.50 L 39.77 113.91 L 39.94 114.37 L 39.99 114.87 L 40.00 115.40 L 40.00 115.92 L 40.00 116.45 L 40.00 116.98 L 40.00 117.50 L 40.00 118.03 L 40.00 118.56 L 40.00 119.09 L 40.00 119.61 L 40.00 120.14 L 40.00 120.67 L 40.00 121.19 L 40.00 121.72 L 40.00 122.25 L 40.00 122.77 L 40.00 123.30 L 40.00 123.83 L 40.00 124.36 L 40.00 124.88 L 40.00 125.41 L 40.00 125.94 L 40.00 126.46 L 40.00 126.99 L 40.00 127.52 L 40.00 128.04 L 40.00 128.57 L 40.00 129.10 L 40.00 129.62 L 40.01 130.14 L 40.10 130.58 L 40.34 130.87 L 40.75 130.98 L 41.26 131.00 L 41.79 131.00 L 42.29 130.98 L 42.70 130.86 L 42.92 130.55 L 42.99 130.09 L 43.02 129.59 L 43.13 129.10 L 43.37 128.68 L 43.73 128.34 L 44.15 128.10 L 44.57 127.93 L 44.85 127.69 L 44.91 127.31 L 44.75 126.88 L 44.47 126.47 L 44.20 126.05 L 44.03 125.60 L 43.89 125.13 L 43.65 124.70 L 43.35 124.30 L 43.12 123.87 L 43.02 123.38 L 43.01 122.86 L 43.06 122.36 L 43.23 121.90 L 43.51 121.49 L 43.78 121.08 L 43.94 120.62 L 43.99 120.11 L 44.02 119.59 L 44.12 119.11 L 44.36 118.68 L 44.66 118.28 L 44.88 117.86 L 44.90 117.44 L 44.69 117.14 L 44.29 117.02 L 43.79 116.99 L 43.29 116.92 L 42.84 116.73 L 42.44 116.42 L 42.06 116.06 L 41.70 115.69 L 41.36 115.30 L 41.11 114.88 L 40.97 114.41 L 40.80 113.95 L 40.53 113.54 L 40.25 113.13 L 40.07 112.67 L 40.01 112.17 L 40.00 111.65 L 40.00 111.12 L 40.00 110.59 L 40.00 110.07 L 40.00 109.54 L 40.00 109.01 L 40.00 108.49 L 40.00 107.96 L 40.00 107.43 L 40.00 106.91 L 40.00 106.38 L 40.00 105.85 L 40.00 105.32 L 40.00 104.80 L 40.00 104.27 L 40.00 103.74 L 40.00 103.22 L 40.00 102.69 L 40.00 102.16 L 40.00 101.64 L 40.00 101.11 L 39.97 100.61 L 39.83 100.23 L 39.51 100.08 Z M 103.18 44.20 L 102.99 44.56 L 102.83 45.01 L 102.56 45.43 L 102.26 45.85 L 102.06 46.30 L 101.91 46.78 L 101.69 47.23 L 101.39 47.64 L 101.13 48.07 L 101.02 48.56 L 101.00 49.09 L 101.00 49.63 L 100.99 50.17 L 100.92 50.68 L 100.74 51.14 L 100.45 51.56 L 100.18 51.98 L 100.04 52.47 L 100.01 52.99 L 100.00 53.52 L 100.00 54.06 L 100.00 54.60 L 100.00 55.14 L 100.00 55.68 L 100.00 56.22 L 100.00 56.75 L 99.98 57.29 L 99.90 57.79 L 99.68 58.24 L 99.38 58.65 L 99.13 59.09 L 99.02 59.58 L 99.00 60.11 L 99.00 60.65 L 99.00 61.19 L 99.00 61.72 L 99.00 62.26 L 99.00 62.80 L 99.00 63.34 L 99.00 63.88 L 99.00 64.42 L 99.00 64.95 L 99.00 65.49 L 99.01 66.03 L 99.05 66.55 L 99.19 67.03 L 99.46 67.45 L 99.75 67.87 L 99.93 68.34 L 99.99 68.85 L 100.03 69.36 L 100.17 69.75 L 100.48 69.91 L 100.81 69.80 L 100.93 69.44 L 100.82 68.99 L 100.56 68.57 L 100.27 68.15 L 100.08 67.69 L 100.01 67.18 L 100.00 66.65 L 100.00 66.11 L 100.00 65.57 L 100.00 65.03 L 100.00 64.49 L 100.00 63.95 L 100.00 63.42 L 100.00 62.88 L 100.00 62.34 L 100.00 61.80 L 100.00 61.26 L 100.00 60.72 L 100.00 60.19 L 100.02 59.66 L 100.12 59.16 L 100.35 58.71 L 100.65 58.30 L 100.88 57.86 L 100.98 57.36 L 101.00 56.83 L 101.00 56.29 L 101.00 55.75 L 101.00 55.22 L 101.02 54.69 L 101.11 54.18 L 101.33 53.74 L 101.63 53.33 L 101.88 52.89 L 101.98 52.39 L 102.00 51.86 L 102.00 51.32 L 102.00 50.79 L 102.00 50.25 L 102.02 49.72 L 102.10 49.21 L 102.32 48.76 L 102.62 48.35 L 102.87 47.91 L 102.98 47.42 L 103.01 46.90 L 103.06 46.38 L 103.23 45.91 L 103.51 45.49 L 103.78 45.07 L 103.91 44.62 L 103.82 44.25 L 103.51 44.09 Z M 42.21 28.21 L 42.04 28.60 L 42.00 29.14 L 42.00 29.70 L 42.00 30.27 L 42.00 30.83 L 41.98 31.39 L 41.86 31.91 L 41.60 32.37 L 41.30 32.81 L 41.09 33.29 L 41.02 33.82 L 41.00 34.38 L 41.00 34.95 L 41.00 35.51 L 41.01 36.08 L 41.07 36.62 L 41.25 37.11 L 41.54 37.55 L 41.82 38.00 L 41.92 38.50 L 41.82 38.99 L 41.55 39.44 L 41.25 39.89 L 41.05 40.37 L 40.88 40.87 L 40.63 41.33 L 40.32 41.77 L 40.10 42.24 L 40.02 42.77 L 40.00 43.33 L 40.00 43.90 L 40.00 44.46 L 40.00 45.03 L 40.00 45.60 L 40.00 46.16 L 40.00 46.73 L 40.00 47.30 L 40.00 47.86 L 40.00 48.43 L 40.01 48.98 L 40.07 49.49 L 40.28 49.81 L 40.61 49.86 L 40.89 49.62 L 41.09 49.20 L 41.33 48.74 L 41.64 48.31 L 41.88 47.84 L 41.98 47.32 L 41.98 46.76 L 41.90 46.23 L 41.67 45.76 L 41.37 45.32 L 41.13 44.85 L 41.02 44.33 L 41.00 43.77 L 41.00 43.21 L 41.02 42.65 L 41.13 42.13 L 41.38 41.67 L 41.68 41.23 L 41.92 40.76 L 42.08 40.26 L 42.31 39.79 L 42.62 39.35 L 42.88 38.89 L 43.04 38.39 L 43.24 37.91 L 43.55 37.47 L 43.94 37.06 L 44.34 36.66 L 44.74 36.26 L 45.14 35.86 L 45.54 35.46 L 45.94 35.06 L 46.34 34.66 L 46.74 34.26 L 47.14 33.86 L 47.52 33.45 L 47.82 33.01 L 47.99 32.51 L 48.16 32.02 L 48.44 31.57 L 48.74 31.13 L 48.90 30.66 L 48.81 30.27 L 48.48 30.03 L 48.03 29.85 L 47.59 29.55 L 47.18 29.17 L 46.77 28.78 L 46.36 28.41 L 45.91 28.14 L 45.39 28.02 L 44.83 28.00 L 44.27 28.00 L 43.70 28.00 L 43.14 28.00 L 42.60 28.04 Z M 137.45 20.45 L 137.08 21.30 L 137.01 22.46 L 137.00 23.68 L 137.00 24.90 L 137.00 26.13 L 137.00 27.35 L 137.00 28.58 L 137.00 29.80 L 137.02 31.02 L 137.14 32.19 L 137.43 33.30 L 137.78 34.38 L 138.00 35.51 L 138.22 36.64 L 138.57 37.72 L 138.88 38.82 L 139.07 39.97 L 139.35 41.07 L 139.63 42.10 L 139.58 43.12 L 139.25 44.18 L 139.02 45.30 L 138.82 46.44 L 138.49 47.53 L 138.13 48.61 L 137.76 49.68 L 137.19 50.67 L 136.41 51.57 L 135.55 52.43 L 134.66 53.23 L 133.71 53.89 L 132.74 54.50 L 131.81 55.23 L 130.93 56.07 L 130.07 56.93 L 129.19 57.76 L 128.25 58.45 L 127.20 58.79 L 126.12 58.71 L 125.06 58.36 L 123.98 58.12 L 123.02 58.18 L 122.59 58.49 L 122.98 58.81 L 123.95 58.99 L 125.07 59.13 L 126.06 59.53 L 126.68 60.32 L 126.79 61.35 L 126.52 62.43 L 126.19 63.51 L 126.03 64.67 L 126.00 65.88 L 126.03 67.10 L 126.16 68.27 L 126.49 69.36 L 126.96 70.39 L 127.43 71.42 L 127.80 72.49 L 127.92 73.63 L 127.75 74.76 L 127.35 75.81 L 126.86 76.83 L 126.35 77.85 L 125.81 78.85 L 125.12 79.76 L 124.24 80.50 L 123.26 81.08 L 122.25 81.60 L 121.23 82.10 L 120.20 82.57 L 119.10 82.88 L 117.92 82.98 L 116.70 83.00 L 115.48 83.00 L 114.26 82.99 L 113.07 82.91 L 111.96 82.63 L 110.92 82.17 L 109.90 81.67 L 108.89 81.15 L 107.90 80.60 L 106.96 79.90 L 106.08 79.07 L 105.21 78.21 L 104.37 77.34 L 103.62 76.42 L 103.00 75.45 L 102.47 74.49 L 101.92 73.73 L 101.41 73.58 L 101.11 74.20 L 101.05 75.26 L 101.18 76.41 L 101.54 77.49 L 102.03 78.50 L 102.66 79.46 L 103.46 80.28 L 104.40 80.92 L 105.40 81.46 L 106.42 81.97 L 107.43 82.47 L 108.45 82.98 L 109.47 83.45 L 110.55 83.81 L 111.71 83.98 L 112.89 84.08 L 114.01 84.34 L 115.08 84.71 L 116.20 84.91 L 117.34 84.83 L 118.44 84.52 L 119.52 84.20 L 120.66 84.09 L 121.73 84.31 L 122.51 84.97 L 122.86 85.98 L 122.86 87.11 L 122.57 88.20 L 122.11 89.24 L 121.63 90.26 L 121.23 91.32 L 121.05 92.47 L 121.05 93.66 L 121.26 94.80 L 121.67 95.85 L 122.15 96.88 L 122.63 97.90 L 122.99 98.98 L 123.40 100.03 L 124.06 100.93 L 124.89 101.51 L 125.50 101.47 L 125.54 100.81 L 125.14 99.85 L 124.64 98.84 L 124.13 97.83 L 123.65 96.80 L 123.25 95.75 L 123.05 94.60 L 123.00 93.40 L 123.02 92.18 L 123.11 90.99 L 123.38 89.88 L 123.77 88.82 L 124.10 87.73 L 124.48 86.66 L 124.97 85.64 L 125.56 84.66 L 126.30 83.74 L 127.14 82.87 L 128.02 82.04 L 128.98 81.39 L 130.04 80.99 L 131.12 80.63 L 132.17 80.23 L 133.26 79.90 L 134.34 79.55 L 135.43 79.21 L 136.56 79.08 L 137.69 79.23 L 138.75 79.54 L 139.78 79.64 L 140.81 79.39 L 141.88 79.19 L 142.97 79.33 L 144.03 79.69 L 145.15 79.93 L 146.35 79.99 L 147.57 80.00 L 148.80 80.00 L 150.02 80.00 L 151.25 80.00 L 152.47 80.00 L 153.70 80.00 L 154.92 80.00 L 156.14 80.03 L 157.31 80.16 L 158.40 80.47 L 159.49 80.80 L 160.65 80.96 L 161.84 80.97 L 162.91 80.83 L 163.61 80.36 L 163.71 79.53 L 163.25 78.73 L 162.41 78.40 L 161.41 78.56 L 160.33 78.84 L 159.16 78.97 L 157.94 79.00 L 156.72 79.00 L 155.49 79.00 L 154.27 79.00 L 153.04 79.00 L 151.82 79.00 L 150.59 79.00 L 149.37 78.99 L 148.17 78.93 L 147.05 78.70 L 146.01 78.39 L 144.99 78.38 L 143.98 78.62 L 142.96 78.60 L 141.92 78.28 L 140.79 78.06 L 139.59 78.00 L 138.38 77.95 L 137.24 77.75 L 136.17 77.38 L 135.09 77.03 L 134.02 76.64 L 133.07 76.00 L 132.18 75.18 L 131.32 74.31 L 130.47 73.44 L 129.69 72.53 L 129.06 71.57 L 128.56 70.55 L 128.20 69.48 L 128.03 68.32 L 128.00 67.11 L 128.00 65.89 L 128.00 64.66 L 128.04 63.45 L 128.24 62.31 L 128.63 61.25 L 129.15 60.24 L 129.81 59.29 L 130.62 58.40 L 131.48 57.53 L 132.34 56.66 L 133.21 55.80 L 134.09 54.97 L 135.03 54.28 L 136.03 53.74 L 137.07 53.30 L 138.20 53.06 L 139.40 53.01 L 140.63 53.00 L 141.84 52.98 L 143.03 52.89 L 144.14 52.62 L 145.20 52.28 L 146.29 52.20 L 147.37 52.46 L 148.46 52.80 L 149.61 52.96 L 150.82 53.00 L 152.05 53.00 L 153.27 53.00 L 154.50 53.00 L 155.70 52.95 L 156.84 52.74 L 157.91 52.37 L 159.02 52.10 L 160.21 52.01 L 161.43 52.00 L 162.66 52.00 L 163.88 52.00 L 165.10 52.03 L 166.27 52.15 L 167.37 52.46 L 168.45 52.79 L 169.54 52.90 L 170.43 52.61 L 170.87 51.82 L 170.98 50.71 L 170.99 49.51 L 170.93 48.35 L 170.57 47.48 L 169.74 47.09 L 168.60 47.01 L 167.38 47.00 L 166.16 47.02 L 164.98 47.11 L 163.86 47.38 L 162.79 47.75 L 161.66 47.99 L 160.52 48.19 L 159.44 48.52 L 158.36 48.79 L 157.27 48.73 L 156.20 48.40 L 155.10 48.12 L 153.92 48.02 L 152.70 48.00 L 151.49 47.96 L 150.34 47.77 L 149.28 47.38 L 148.25 46.90 L 147.24 46.39 L 146.24 45.85 L 145.29 45.19 L 144.40 44.38 L 143.54 43.52 L 142.78 42.61 L 142.25 41.60 L 142.00 40.48 L 141.78 39.35 L 141.42 38.27 L 141.08 37.19 L 140.75 36.10 L 140.35 35.04 L 140.09 33.92 L 140.01 32.73 L 140.00 31.51 L 140.00 30.29 L 140.00 29.06 L 140.00 27.84 L 140.00 26.61 L 140.05 25.40 L 140.24 24.26 L 140.60 23.19 L 140.86 22.10 L 140.81 21.07 L 140.33 20.35 L 139.40 20.06 L 138.30 20.08 Z" fill="rgb(251,251,251)" fill-rule="evenodd"/>
</svg>