<svg xmlns="http://www.w3.org/2000/svg" width="210" height="168" viewBox="0 0 210 168" role="img" aria-label="04_icons_04">
  <title>04_icons_04</title>
  <path d="M 111.26 0.77 L 110.39 2.76 L 109.56 5.40 L 109.39 8.05 L 110.05 10.75 L 110.75 13.47 L 111.00 16.37 L 111.00 19.38 L 111.00 22.38 L 111.00 25.39 L 111.00 28.39 L 111.21 31.31 L 111.85 34.05 L 112.14 36.93 L 112.78 39.67 L 113.02 42.58 L 113.46 45.39 L 113.65 48.04 L 113.57 50.58 L 113.91 53.34 L 112.78 55.55 L 110.04 56.00 L 107.16 56.30 L 104.42 56.94 L 101.44 57.00 L 98.44 57.00 L 95.43 57.00 L 92.43 57.00 L 89.45 56.93 L 86.71 56.29 L 83.83 56.02 L 81.02 56.40 L 79.16 57.96 L 77.46 59.67 L 74.78 59.73 L 72.98 58.21 L 71.21 57.64 L 68.44 57.98 L 65.45 58.00 L 62.54 57.76 L 59.81 57.13 L 56.99 57.35 L 54.23 57.95 L 51.26 57.97 L 48.46 57.49 L 45.73 57.23 L 43.06 57.98 L 40.38 58.77 L 37.47 59.00 L 34.47 58.97 L 31.65 58.55 L 28.92 58.20 L 26.20 58.81 L 23.27 59.00 L 20.27 59.00 L 17.26 59.00 L 14.27 59.03 L 11.47 59.51 L 8.68 60.03 L 6.46 61.20 L 6.01 63.94 L 6.00 66.94 L 6.00 69.94 L 6.04 72.93 L 6.57 75.71 L 7.21 78.45 L 7.88 81.18 L 8.00 84.14 L 7.95 87.12 L 7.38 89.89 L 7.01 92.74 L 7.00 95.74 L 7.00 98.75 L 7.10 101.71 L 7.74 104.45 L 8.00 107.35 L 8.00 110.35 L 8.00 113.36 L 8.06 116.34 L 8.55 119.03 L 8.24 121.63 L 8.67 124.24 L 10.78 125.67 L 13.42 125.26 L 16.32 125.00 L 19.32 124.98 L 22.17 124.61 L 24.94 124.05 L 27.92 124.00 L 30.93 124.00 L 33.88 123.87 L 36.62 123.23 L 39.53 123.01 L 42.44 123.24 L 45.17 123.88 L 48.11 123.95 L 50.88 123.38 L 53.73 123.02 L 56.69 123.10 L 59.34 123.54 L 61.96 123.12 L 64.68 122.44 L 67.51 122.05 L 70.31 122.40 L 72.86 122.35 L 75.70 122.02 L 78.66 122.09 L 81.40 122.73 L 84.27 122.94 L 87.02 122.33 L 89.84 121.88 L 92.57 121.23 L 95.48 121.00 L 98.49 121.00 L 101.39 121.22 L 104.00 121.55 L 106.70 121.05 L 109.68 121.00 L 112.67 121.03 L 115.15 121.82 L 115.96 124.29 L 116.02 127.28 L 116.34 130.11 L 116.40 132.67 L 116.02 135.48 L 115.77 138.38 L 115.14 141.12 L 115.16 144.00 L 115.80 146.74 L 116.00 149.67 L 116.00 152.67 L 116.26 155.57 L 116.90 158.31 L 117.00 161.27 L 117.02 164.25 L 117.74 166.53 L 120.19 166.76 L 122.60 165.35 L 124.53 163.18 L 126.32 161.14 L 128.64 159.58 L 130.77 157.88 L 132.61 155.98 L 134.82 154.15 L 137.04 152.26 L 139.33 150.57 L 141.09 148.34 L 143.06 146.41 L 145.34 145.11 L 147.24 143.34 L 149.78 142.30 L 152.13 140.78 L 153.98 138.61 L 155.86 136.76 L 157.24 134.50 L 158.86 132.17 L 160.97 130.04 L 163.19 128.16 L 165.49 126.45 L 167.63 124.37 L 169.85 122.45 L 172.17 120.80 L 174.44 119.03 L 176.71 117.26 L 178.84 115.16 L 180.89 113.00 L 182.22 110.55 L 183.83 108.21 L 185.92 106.07 L 187.82 103.85 L 189.51 101.55 L 191.61 99.45 L 193.72 97.71 L 195.59 95.95 L 197.38 94.02 L 199.49 92.28 L 201.68 90.32 L 203.77 88.18 L 205.45 85.89 L 207.45 83.98 L 208.83 81.83 L 208.95 78.93 L 207.98 76.52 L 205.63 75.23 L 203.08 74.19 L 200.95 72.70 L 199.02 70.94 L 197.41 69.71 L 195.73 70.43 L 194.49 69.18 L 194.27 66.97 L 192.11 65.75 L 189.42 64.98 L 186.73 64.23 L 184.15 63.24 L 182.33 61.47 L 181.75 58.74 L 180.28 56.40 L 177.99 55.53 L 175.97 56.78 L 174.05 57.30 L 173.67 55.34 L 174.94 53.19 L 174.72 51.97 L 172.54 50.48 L 170.45 48.38 L 168.98 46.01 L 167.36 43.97 L 165.06 42.36 L 162.53 41.20 L 160.03 39.98 L 157.72 38.39 L 155.83 36.50 L 154.26 34.53 L 152.86 32.33 L 150.42 31.17 L 147.93 29.94 L 145.76 28.26 L 144.00 26.16 L 141.75 24.49 L 139.39 22.94 L 137.14 21.12 L 135.01 19.01 L 132.85 16.97 L 130.53 15.30 L 128.25 13.56 L 125.84 12.13 L 123.45 10.64 L 121.12 9.01 L 118.96 6.96 L 116.83 4.86 L 114.50 3.24 L 112.36 1.83 Z M 9.13 117.05 L 9.37 116.67 L 9.70 116.34 L 10.09 116.12 L 10.54 116.02 L 11.01 116.00 L 11.49 116.02 L 11.94 116.12 L 12.32 116.36 L 12.65 116.69 L 12.88 117.08 L 12.96 117.51 L 12.87 117.95 L 12.63 118.33 L 12.30 118.66 L 11.91 118.88 L 11.46 118.98 L 10.99 119.00 L 10.51 118.98 L 10.06 118.88 L 9.68 118.64 L 9.35 118.31 L 9.12 117.92 L 9.04 117.49 Z M 101.15 111.06 L 101.47 110.60 L 101.91 110.26 L 102.43 110.10 L 102.96 110.18 L 103.44 110.48 L 103.89 110.89 L 104.31 111.33 L 104.67 111.79 L 104.88 112.29 L 104.85 112.82 L 104.60 113.31 L 104.18 113.68 L 103.68 113.93 L 103.15 114.12 L 102.65 114.40 L 102.17 114.70 L 101.65 114.89 L 101.12 114.84 L 100.65 114.56 L 100.29 114.13 L 100.11 113.62 L 100.16 113.09 L 100.43 112.60 L 100.74 112.11 L 100.95 111.59 Z M 12.15 104.06 L 12.44 103.62 L 12.85 103.28 L 13.33 103.10 L 13.83 103.14 L 14.29 103.38 L 14.66 103.76 L 14.91 104.22 L 15.08 104.73 L 15.31 105.21 L 15.61 105.65 L 15.87 106.12 L 15.98 106.65 L 16.02 107.21 L 16.10 107.74 L 16.32 108.23 L 16.63 108.67 L 16.87 109.15 L 16.98 109.67 L 17.02 110.21 L 17.15 110.66 L 17.47 110.93 L 17.92 111.13 L 18.35 111.42 L 18.70 111.82 L 18.91 112.30 L 18.99 112.85 L 19.00 113.41 L 18.99 113.98 L 18.95 114.54 L 18.79 115.04 L 18.47 115.47 L 18.04 115.78 L 17.55 115.92 L 17.05 115.84 L 16.61 115.55 L 16.27 115.14 L 16.06 114.66 L 15.89 114.15 L 15.62 113.70 L 15.23 113.34 L 14.76 113.11 L 14.22 113.02 L 13.66 112.98 L 13.13 112.87 L 12.67 112.61 L 12.25 112.24 L 11.84 111.84 L 11.46 111.42 L 11.17 110.97 L 11.08 110.47 L 11.20 109.97 L 11.48 109.52 L 11.77 109.07 L 11.94 108.56 L 11.99 108.01 L 12.00 107.44 L 12.00 106.87 L 12.00 106.29 L 12.00 105.72 L 12.00 105.15 L 12.03 104.58 Z M 53.13 94.05 L 53.37 93.67 L 53.70 93.34 L 54.09 93.12 L 54.53 93.04 L 54.96 93.13 L 55.34 93.38 L 55.66 93.71 L 55.89 94.10 L 55.98 94.55 L 56.00 95.03 L 55.98 95.51 L 55.87 95.95 L 55.63 96.33 L 55.30 96.66 L 54.91 96.88 L 54.47 96.96 L 54.04 96.87 L 53.66 96.62 L 53.34 96.29 L 53.11 95.90 L 53.02 95.45 L 53.00 94.97 L 53.02 94.49 Z M 12.14 84.05 L 12.43 83.63 L 12.83 83.29 L 13.31 83.09 L 13.84 83.01 L 14.40 83.00 L 14.96 83.01 L 15.50 83.04 L 16.00 83.19 L 16.43 83.48 L 16.75 83.90 L 16.93 84.38 L 16.99 84.92 L 16.97 85.47 L 16.83 85.97 L 16.54 86.40 L 16.14 86.73 L 15.65 86.92 L 15.12 86.99 L 14.56 87.00 L 14.00 87.01 L 13.46 87.05 L 12.96 87.20 L 12.52 87.49 L 12.07 87.77 L 11.58 87.94 L 11.04 87.99 L 10.50 87.96 L 10.00 87.81 L 9.57 87.52 L 9.25 87.10 L 9.09 86.63 L 9.14 86.13 L 9.39 85.69 L 9.77 85.33 L 10.23 85.10 L 10.76 85.02 L 11.29 84.97 L 11.71 84.83 L 11.95 84.50 Z M 53.17 76.06 L 53.47 75.60 L 53.91 75.26 L 54.43 75.10 L 54.96 75.18 L 55.45 75.46 L 55.94 75.77 L 56.46 75.98 L 56.99 76.18 L 57.45 76.51 L 57.78 76.97 L 57.94 77.51 L 57.98 78.09 L 57.90 78.67 L 57.68 79.18 L 57.31 79.60 L 56.82 79.85 L 56.29 79.88 L 55.79 79.67 L 55.33 79.31 L 54.89 78.89 L 54.45 78.45 L 54.02 78.02 L 53.61 77.58 L 53.27 77.11 L 53.10 76.59 Z M 174.13 59.05 L 174.37 58.67 L 174.70 58.34 L 175.09 58.12 L 175.54 58.02 L 176.01 58.00 L 176.49 58.02 L 176.94 58.12 L 177.32 58.36 L 177.65 58.69 L 177.88 59.08 L 177.96 59.51 L 177.87 59.95 L 177.63 60.33 L 177.30 60.66 L 176.91 60.88 L 176.46 60.98 L 175.99 61.00 L 175.51 60.98 L 175.06 60.88 L 174.68 60.64 L 174.35 60.31 L 174.12 59.92 L 174.04 59.49 Z" fill="rgb(15,15,14)" fill-rule="evenodd"/>
  <path d="M 13.20 104.21 L 13.08 104.57 L 13.20 105.04 L 13.48 105.48 L 13.77 105.91 L 13.94 106.40 L 13.99 106.94 L 14.03 107.48 L 14.17 107.98 L 14.44 108.43 L 14.74 108.86 L 14.94 109.33 L 15.10 109.82 L 15.35 110.28 L 15.65 110.71 L 15.88 111.18 L 15.98 111.69 L 16.02 112.24 L 16.10 112.76 L 16.32 113.23 L 16.62 113.66 L 16.88 114.10 L 17.06 114.54 L 17.31 114.83 L 17.64 114.85 L 17.89 114.59 L 17.98 114.13 L 18.00 113.59 L 17.99 113.04 L 17.94 112.53 L 17.74 112.17 L 17.36 111.96 L 16.90 111.76 L 16.49 111.44 L 16.19 111.02 L 16.05 110.52 L 16.00 109.98 L 15.95 109.45 L 15.79 108.95 L 15.51 108.51 L 15.22 108.07 L 15.06 107.58 L 15.00 107.05 L 14.96 106.51 L 14.82 106.01 L 14.55 105.56 L 14.25 105.13 L 14.05 104.67 L 13.85 104.28 L 13.52 104.10 Z M 183.18 60.18 L 183.05 60.51 L 183.12 60.92 L 183.35 61.31 L 183.67 61.67 L 184.01 62.01 L 184.36 62.35 L 184.71 62.66 L 185.10 62.89 L 185.55 62.98 L 186.03 63.00 L 186.48 62.97 L 186.82 62.82 L 186.95 62.49 L 186.88 62.08 L 186.65 61.69 L 186.33 61.33 L 185.99 60.99 L 185.64 60.65 L 185.29 60.34 L 184.90 60.11 L 184.45 60.02 L 183.97 60.00 L 183.52 60.03 Z" fill="rgb(87,87,86)" fill-rule="evenodd"/>
  <path d="M 143.06 148.14 L 142.63 148.40 L 142.24 148.76 L 141.87 149.13 L 141.51 149.52 L 141.22 149.93 L 141.09 150.37 L 141.18 150.75 L 141.51 150.94 L 141.99 150.99 L 142.52 151.00 L 143.05 151.00 L 143.58 151.00 L 144.11 150.99 L 144.56 150.91 L 144.86 150.67 L 144.98 150.25 L 145.00 149.74 L 145.00 149.21 L 144.97 148.70 L 144.85 148.29 L 144.53 148.08 L 144.06 148.01 L 143.54 148.02 Z M 0.18 93.18 L 0.03 93.53 L 0.00 94.00 L 0.00 94.50 L 0.00 95.00 L 0.00 95.50 L 0.00 96.00 L 0.03 96.47 L 0.18 96.82 L 0.53 96.97 L 1.00 97.00 L 1.50 97.00 L 2.00 97.00 L 2.50 97.00 L 3.00 97.00 L 3.50 97.00 L 4.00 97.00 L 4.47 96.97 L 4.82 96.82 L 4.97 96.47 L 5.00 96.00 L 5.00 95.50 L 5.00 95.00 L 5.00 94.50 L 5.00 94.00 L 4.97 93.53 L 4.82 93.18 L 4.47 93.03 L 4.00 93.00 L 3.50 93.00 L 3.00 93.00 L 2.50 93.00 L 2.00 93.00 L 1.50 93.00 L 1.00 93.00 L 0.53 93.03 Z M 3.19 73.19 L 3.00 73.54 L 2.84 73.98 L 2.57 74.38 L 2.20 74.71 L 1.76 74.91 L 1.27 74.99 L 0.77 75.02 L 0.35 75.12 L 0.10 75.40 L 0.02 75.83 L 0.00 76.34 L 0.00 76.86 L 0.03 77.36 L 0.16 77.75 L 0.49 77.94 L 0.96 77.99 L 1.48 78.00 L 2.00 78.00 L 2.52 78.00 L 3.05 78.00 L 3.57 78.00 L 4.08 77.99 L 4.54 77.93 L 4.85 77.71 L 4.98 77.31 L 5.00 76.81 L 5.00 76.29 L 5.00 75.77 L 5.00 75.25 L 4.98 74.73 L 4.91 74.24 L 4.71 73.80 L 4.38 73.43 L 3.98 73.16 L 3.54 73.07 Z" fill="rgb(253,252,253)" fill-rule="evenodd"/>
</svg>