<svg xmlns="http://www.w3.org/2000/svg" width="212" height="168" viewBox="0 0 212 168" role="img" aria-label="05_icons_05">
  <title>05_icons_05</title>
  <path d="M 119.55 3.55 L 119.31 5.89 L 120.02 8.59 L 120.72 11.30 L 121.00 14.19 L 121.00 17.19 L 120.99 20.19 L 120.64 23.05 L 120.05 25.81 L 119.89 28.75 L 119.46 31.40 L 120.16 33.91 L 120.94 36.59 L 121.07 39.54 L 121.71 42.28 L 122.00 45.16 L 121.95 48.14 L 121.37 50.91 L 120.65 53.57 L 118.68 55.10 L 116.00 55.84 L 113.06 56.00 L 110.05 56.00 L 107.11 55.86 L 104.38 55.25 L 101.71 55.62 L 99.18 56.77 L 96.27 57.00 L 93.27 57.00 L 90.27 57.00 L 87.26 57.00 L 84.26 57.00 L 81.27 56.96 L 78.55 56.29 L 76.00 55.19 L 73.09 55.05 L 70.42 55.84 L 68.08 57.46 L 65.30 57.98 L 62.30 58.00 L 59.30 58.00 L 56.33 58.09 L 53.59 58.74 L 50.70 59.00 L 47.69 59.00 L 44.69 59.00 L 41.69 59.02 L 38.86 59.35 L 36.30 59.40 L 33.50 59.05 L 30.68 59.44 L 27.91 60.01 L 25.16 60.61 L 22.31 60.98 L 19.31 61.00 L 16.31 61.00 L 13.30 61.00 L 10.30 61.00 L 7.43 61.29 L 5.18 62.56 L 3.62 64.73 L 3.30 67.37 L 4.47 69.87 L 4.98 72.66 L 5.00 75.66 L 5.00 78.66 L 5.26 81.56 L 5.90 84.30 L 6.00 87.26 L 5.99 90.26 L 5.66 93.10 L 5.59 95.65 L 5.95 98.45 L 5.57 101.28 L 5.04 104.06 L 5.04 107.03 L 5.60 109.80 L 5.98 112.65 L 6.00 115.64 L 6.00 118.65 L 6.31 121.52 L 8.04 123.52 L 10.72 123.70 L 13.43 123.13 L 16.12 123.66 L 18.77 123.41 L 21.61 123.02 L 24.60 122.97 L 27.42 122.53 L 30.22 122.04 L 33.21 122.00 L 36.14 122.18 L 38.76 122.54 L 41.34 122.28 L 43.92 122.55 L 46.57 121.99 L 49.21 121.46 L 51.83 121.82 L 54.64 122.25 L 57.22 122.52 L 59.95 122.04 L 62.94 122.00 L 65.93 121.96 L 68.71 121.43 L 71.55 121.02 L 74.53 121.03 L 77.34 121.41 L 79.88 121.37 L 82.50 121.47 L 85.05 121.30 L 87.89 120.97 L 90.65 120.50 L 93.22 120.72 L 96.02 120.84 L 98.65 120.46 L 101.30 120.92 L 104.11 121.37 L 106.83 121.83 L 109.54 121.22 L 112.28 120.58 L 115.00 120.19 L 117.71 120.82 L 120.31 121.72 L 121.79 123.91 L 122.00 126.82 L 122.00 129.82 L 122.00 132.83 L 122.00 135.83 L 121.88 138.79 L 121.24 141.52 L 121.00 144.43 L 120.94 147.41 L 120.45 150.08 L 120.79 152.70 L 121.00 155.62 L 121.24 158.51 L 121.53 161.10 L 120.94 163.77 L 120.61 166.13 L 122.43 166.94 L 125.21 166.54 L 127.64 165.17 L 129.84 163.22 L 132.15 161.55 L 134.36 159.64 L 136.56 157.69 L 138.87 156.05 L 140.91 154.37 L 142.97 152.76 L 145.15 150.84 L 147.28 148.72 L 149.40 146.59 L 151.35 144.40 L 153.10 142.30 L 155.36 140.63 L 157.65 138.92 L 159.89 137.08 L 161.62 134.80 L 162.04 131.97 L 162.91 129.33 L 164.95 127.35 L 167.28 125.78 L 169.16 123.98 L 171.31 122.34 L 173.89 121.50 L 175.70 119.53 L 177.45 117.25 L 179.12 114.94 L 181.20 112.80 L 183.33 110.67 L 185.45 108.55 L 187.57 106.43 L 189.70 104.30 L 191.82 102.18 L 193.96 100.10 L 196.28 98.43 L 198.50 96.55 L 200.80 94.85 L 203.03 92.97 L 205.26 91.12 L 207.36 89.32 L 209.11 87.24 L 210.72 85.28 L 210.97 82.44 L 210.26 79.86 L 208.21 78.08 L 205.98 76.25 L 204.01 74.44 L 202.19 72.22 L 200.07 70.13 L 197.76 68.46 L 195.55 66.55 L 193.34 64.62 L 191.03 62.95 L 188.85 60.97 L 186.54 59.30 L 184.33 57.38 L 182.09 55.69 L 180.26 53.76 L 178.12 52.01 L 176.02 49.97 L 174.11 48.23 L 171.94 46.78 L 170.08 44.93 L 168.00 43.01 L 165.76 41.17 L 163.34 39.84 L 161.55 37.83 L 159.82 35.56 L 158.60 33.06 L 156.75 30.91 L 154.35 29.44 L 151.89 28.14 L 149.56 26.51 L 147.42 24.42 L 145.30 22.30 L 143.09 20.39 L 140.77 18.72 L 138.58 16.78 L 136.47 15.02 L 134.71 12.92 L 132.43 11.27 L 130.14 9.71 L 128.66 7.67 L 126.83 5.82 L 124.56 4.09 L 121.95 3.16 Z M 52.13 111.05 L 52.37 110.67 L 52.70 110.34 L 53.09 110.12 L 53.54 110.02 L 54.01 110.00 L 54.49 110.02 L 54.94 110.12 L 55.32 110.36 L 55.65 110.69 L 55.88 111.08 L 55.96 111.51 L 55.87 111.95 L 55.63 112.33 L 55.30 112.66 L 54.91 112.88 L 54.46 112.98 L 53.99 113.00 L 53.51 112.98 L 53.06 112.88 L 52.68 112.64 L 52.35 112.31 L 52.12 111.92 L 52.04 111.49 Z" fill="rgb(248,19,17)" fill-rule="evenodd"/>
  <path d="M 119.18 0.18 L 119.03 0.53 L 119.00 1.00 L 119.03 1.47 L 119.18 1.82 L 119.53 1.97 L 120.00 2.00 L 120.50 2.00 L 121.00 2.00 L 121.50 2.00 L 122.00 2.00 L 122.47 1.97 L 122.82 1.82 L 122.97 1.47 L 123.00 1.00 L 122.97 0.53 L 122.82 0.18 L 122.47 0.03 L 122.00 0.00 L 121.50 0.00 L 121.00 0.00 L 120.50 0.00 L 120.00 0.00 L 119.53 0.03 Z" fill="rgb(253,253,253)" fill-rule="evenodd"/>
</svg>