<svg xmlns="http://www.w3.org/2000/svg" width="205" height="145" viewBox="0 0 205 145" role="img" aria-label="06_icons_06">
  <title>06_icons_06</title>
  <path d="M 83.26 0.77 L 82.78 1.52 L 82.12 2.65 L 81.20 3.76 L 80.15 4.80 L 79.03 5.70 L 77.95 6.51 L 77.02 7.46 L 76.10 8.41 L 75.03 9.23 L 73.92 10.12 L 72.81 11.07 L 71.66 11.92 L 70.49 12.73 L 69.37 13.66 L 68.28 14.66 L 67.15 15.55 L 65.96 16.32 L 64.79 17.12 L 63.63 17.94 L 62.46 18.75 L 61.35 19.69 L 60.27 20.73 L 59.19 21.75 L 58.06 22.64 L 56.88 23.42 L 55.75 24.31 L 54.67 25.34 L 53.60 26.40 L 52.54 27.46 L 51.46 28.48 L 50.33 29.39 L 49.16 30.18 L 48.02 31.06 L 46.93 32.07 L 45.87 33.13 L 44.81 34.19 L 43.73 35.23 L 42.63 36.19 L 41.47 37.02 L 40.31 37.86 L 39.21 38.82 L 38.14 39.87 L 37.07 40.93 L 36.01 41.99 L 34.95 43.05 L 33.88 44.12 L 32.82 45.18 L 31.76 46.24 L 30.70 47.30 L 29.63 48.37 L 28.57 49.43 L 27.51 50.49 L 26.44 51.55 L 25.36 52.58 L 24.23 53.47 L 23.05 54.25 L 21.92 55.14 L 20.84 56.17 L 19.77 57.22 L 18.70 58.26 L 17.59 59.21 L 16.43 60.04 L 15.28 60.88 L 14.17 61.85 L 13.10 62.90 L 12.04 63.96 L 10.98 65.02 L 9.91 66.09 L 8.85 67.15 L 7.79 68.21 L 6.73 69.27 L 5.67 70.34 L 4.64 71.41 L 3.78 72.55 L 3.35 73.79 L 3.55 75.05 L 4.31 76.19 L 5.36 77.17 L 6.51 78.01 L 7.67 78.84 L 8.77 79.80 L 9.84 80.85 L 10.91 81.90 L 11.99 82.92 L 13.13 83.81 L 14.30 84.59 L 15.44 85.49 L 16.51 86.52 L 17.58 87.58 L 18.64 88.64 L 19.72 89.66 L 20.85 90.55 L 22.03 91.33 L 23.17 92.23 L 24.25 93.25 L 25.31 94.31 L 26.38 95.37 L 27.45 96.40 L 28.57 97.32 L 29.74 98.13 L 30.89 98.99 L 31.98 99.99 L 33.04 101.05 L 34.11 102.11 L 35.17 103.17 L 36.24 104.21 L 37.35 105.17 L 38.51 106.00 L 39.66 106.84 L 40.77 107.80 L 41.84 108.84 L 42.92 109.86 L 44.05 110.75 L 45.23 111.53 L 46.37 112.43 L 47.45 113.45 L 48.53 114.47 L 49.65 115.38 L 50.83 116.17 L 51.97 117.05 L 53.05 118.06 L 54.12 119.12 L 55.18 120.18 L 56.25 121.22 L 57.36 122.18 L 58.52 123.01 L 59.67 123.85 L 60.78 124.81 L 61.85 125.85 L 62.91 126.91 L 63.98 127.98 L 65.05 129.03 L 66.14 130.02 L 67.28 130.89 L 68.45 131.70 L 69.53 132.63 L 70.45 133.70 L 71.30 134.70 L 72.31 135.55 L 73.41 136.46 L 74.50 137.45 L 75.63 138.36 L 76.80 139.15 L 77.94 140.03 L 79.03 141.03 L 80.13 142.01 L 81.28 142.84 L 82.51 143.42 L 83.69 143.63 L 84.51 143.22 L 84.64 142.22 L 84.32 140.95 L 84.07 139.56 L 84.01 138.08 L 84.00 136.58 L 84.00 135.08 L 84.00 133.58 L 84.00 132.07 L 84.00 130.57 L 84.00 129.07 L 84.00 127.56 L 84.00 126.06 L 84.00 124.56 L 84.00 123.05 L 84.00 121.55 L 84.00 120.05 L 84.00 118.54 L 84.00 117.04 L 83.94 115.56 L 83.70 114.16 L 83.35 112.84 L 83.30 111.52 L 83.60 110.19 L 83.83 108.82 L 83.74 107.45 L 83.50 106.17 L 83.67 105.06 L 84.54 104.33 L 85.86 104.05 L 87.34 104.01 L 88.83 104.04 L 90.26 104.20 L 91.62 104.52 L 92.95 104.71 L 94.28 104.55 L 95.62 104.22 L 97.03 104.00 L 98.44 103.77 L 99.79 103.41 L 101.16 103.17 L 102.53 103.27 L 103.88 103.62 L 105.27 103.89 L 106.73 103.98 L 108.23 104.00 L 109.73 104.00 L 111.24 104.00 L 112.73 104.03 L 114.17 104.19 L 115.53 104.51 L 116.91 104.83 L 118.34 104.95 L 119.79 104.88 L 121.18 104.60 L 122.53 104.24 L 123.96 104.05 L 125.44 104.00 L 126.94 104.00 L 128.45 104.00 L 129.95 104.00 L 131.44 104.02 L 132.90 104.14 L 134.28 104.43 L 135.64 104.78 L 137.07 104.95 L 138.53 104.93 L 139.93 104.68 L 141.27 104.29 L 142.67 104.06 L 144.15 104.01 L 145.64 104.03 L 147.09 104.17 L 148.45 104.47 L 149.79 104.71 L 151.11 104.59 L 152.45 104.25 L 153.87 104.05 L 155.35 104.01 L 156.84 104.04 L 158.27 104.20 L 159.61 104.48 L 160.89 104.55 L 162.17 104.28 L 163.56 104.08 L 164.98 104.16 L 166.36 104.45 L 167.72 104.79 L 169.15 104.96 L 170.64 105.00 L 172.15 105.00 L 173.65 105.00 L 175.15 105.00 L 176.66 105.00 L 178.16 105.00 L 179.66 105.00 L 181.16 105.00 L 182.67 105.00 L 184.17 105.00 L 185.67 105.00 L 187.18 105.00 L 188.68 105.00 L 190.18 105.00 L 191.69 105.00 L 193.19 105.00 L 194.69 105.00 L 196.20 105.00 L 197.69 104.99 L 199.12 104.92 L 200.25 104.54 L 200.82 103.61 L 200.98 102.26 L 201.00 100.78 L 201.00 99.28 L 201.00 97.78 L 201.00 96.28 L 201.00 94.77 L 201.00 93.27 L 201.00 91.77 L 201.00 90.26 L 201.00 88.76 L 201.00 87.26 L 201.00 85.75 L 201.00 84.25 L 201.00 82.75 L 201.00 81.24 L 201.00 79.74 L 201.00 78.24 L 201.00 76.73 L 201.00 75.23 L 201.00 73.73 L 201.00 72.22 L 201.00 70.72 L 201.00 69.22 L 201.00 67.71 L 201.00 66.21 L 201.00 64.71 L 201.00 63.21 L 201.00 61.70 L 201.00 60.20 L 201.00 58.70 L 201.00 57.19 L 201.00 55.69 L 201.00 54.19 L 201.00 52.68 L 201.00 51.18 L 201.05 49.70 L 201.26 48.30 L 201.52 47.02 L 201.32 45.83 L 200.52 44.90 L 199.39 44.51 L 198.14 44.65 L 196.76 44.89 L 195.30 44.98 L 193.80 45.00 L 192.30 45.00 L 190.80 45.00 L 189.30 45.00 L 187.79 45.00 L 186.29 45.00 L 184.79 45.00 L 183.28 45.00 L 181.78 45.00 L 180.28 45.00 L 178.77 45.00 L 177.27 45.00 L 175.77 45.00 L 174.26 45.00 L 172.76 45.00 L 171.26 45.00 L 169.76 44.99 L 168.29 44.90 L 166.90 44.63 L 165.55 44.25 L 164.15 44.01 L 162.74 43.80 L 161.38 43.48 L 160.05 43.29 L 158.74 43.50 L 157.47 44.01 L 156.19 44.55 L 154.82 44.87 L 153.36 44.98 L 151.87 45.00 L 150.37 45.00 L 148.86 45.00 L 147.36 45.00 L 145.86 45.00 L 144.36 45.00 L 142.87 45.05 L 141.45 45.25 L 140.12 45.59 L 138.79 45.72 L 137.48 45.53 L 136.21 45.46 L 134.93 45.71 L 133.54 45.93 L 132.06 45.99 L 130.56 46.00 L 129.06 46.00 L 127.56 46.00 L 126.05 46.00 L 124.55 46.00 L 123.05 46.00 L 121.55 46.00 L 120.06 45.96 L 118.63 45.78 L 117.28 45.45 L 115.95 45.29 L 114.62 45.48 L 113.27 45.80 L 111.84 45.96 L 110.35 46.00 L 108.85 46.00 L 107.34 46.00 L 105.84 46.00 L 104.34 46.00 L 102.83 46.00 L 101.33 46.00 L 99.83 45.99 L 98.36 45.91 L 96.97 45.65 L 95.62 45.27 L 94.22 45.09 L 92.80 45.19 L 91.44 45.50 L 90.11 45.71 L 88.80 45.61 L 87.53 45.46 L 86.27 45.59 L 85.00 45.67 L 83.91 45.23 L 83.27 44.21 L 83.04 42.83 L 83.00 41.35 L 83.00 39.85 L 83.00 38.34 L 83.00 36.84 L 83.03 35.35 L 83.17 33.91 L 83.49 32.53 L 83.81 31.16 L 83.97 29.72 L 84.00 28.23 L 84.00 26.73 L 84.00 25.23 L 84.00 23.73 L 84.00 22.22 L 84.00 20.72 L 84.00 19.22 L 84.00 17.71 L 84.00 16.21 L 84.00 14.71 L 84.00 13.20 L 84.00 11.70 L 84.00 10.20 L 84.02 8.70 L 84.11 7.24 L 84.38 5.85 L 84.69 4.52 L 84.65 3.21 L 84.24 1.95 L 83.76 0.97 Z M 192.94 75.85 L 193.42 75.57 L 193.89 75.26 L 194.40 75.10 L 194.91 75.16 L 195.37 75.44 L 195.72 75.87 L 195.90 76.37 L 195.85 76.89 L 195.57 77.35 L 195.15 77.71 L 194.65 77.94 L 194.13 78.12 L 193.65 78.41 L 193.22 78.79 L 192.79 79.20 L 192.35 79.59 L 191.88 79.85 L 191.36 79.89 L 190.86 79.71 L 190.43 79.36 L 190.14 78.89 L 190.03 78.35 L 190.02 77.77 L 190.12 77.22 L 190.37 76.73 L 190.77 76.35 L 191.26 76.11 L 191.81 76.02 L 192.39 75.97 Z" fill="rgb(13,13,11)" fill-rule="evenodd"/>
  <path d="M 85.19 34.19 L 85.03 34.55 L 85.00 35.03 L 85.00 35.55 L 85.00 36.06 L 85.00 36.58 L 85.00 37.10 L 85.00 37.61 L 85.00 38.13 L 85.00 38.64 L 84.99 39.16 L 84.94 39.65 L 84.77 40.10 L 84.50 40.50 L 84.23 40.90 L 84.08 41.34 L 84.11 41.80 L 84.31 42.23 L 84.60 42.62 L 84.86 43.03 L 85.01 43.47 L 85.19 43.82 L 85.55 43.97 L 86.04 44.00 L 86.55 44.00 L 87.06 43.99 L 87.52 43.94 L 87.84 43.74 L 87.97 43.36 L 88.00 42.86 L 88.00 42.35 L 88.00 41.83 L 88.00 41.32 L 88.00 40.80 L 88.00 40.29 L 88.00 39.77 L 88.00 39.25 L 88.00 38.74 L 88.00 38.22 L 88.00 37.71 L 88.00 37.19 L 88.00 36.68 L 88.00 36.16 L 88.00 35.64 L 88.00 35.13 L 87.97 34.64 L 87.84 34.25 L 87.52 34.06 L 87.06 34.01 L 86.55 34.00 L 86.03 34.00 L 85.55 34.03 Z" fill="rgb(253,252,253)" fill-rule="evenodd"/>
</svg>