<svg xmlns="http://www.w3.org/2000/svg" width="202" height="153" viewBox="0 0 202 153" role="img" aria-label="07_icons_07">
  <title>07_icons_07</title>
  <path d="M 90.11 3.38 L 88.87 3.90 L 87.67 4.62 L 86.53 5.52 L 85.46 6.55 L 84.39 7.60 L 83.31 8.63 L 82.18 9.52 L 81.00 10.30 L 79.87 11.19 L 78.78 12.19 L 77.67 13.15 L 76.50 13.95 L 75.27 14.61 L 74.05 15.28 L 72.91 16.15 L 71.82 17.16 L 70.72 18.12 L 69.56 18.96 L 68.39 19.75 L 67.21 20.54 L 66.09 21.32 L 65.13 22.25 L 64.24 23.20 L 63.14 23.89 L 61.91 24.49 L 60.75 25.29 L 59.62 26.20 L 58.50 27.04 L 57.51 27.94 L 56.66 28.95 L 55.68 29.87 L 54.55 30.69 L 53.43 31.61 L 52.34 32.61 L 51.20 33.50 L 50.02 34.28 L 48.89 35.15 L 47.81 36.11 L 46.81 37.02 L 45.91 37.94 L 44.96 38.92 L 43.87 39.80 L 42.70 40.59 L 41.57 41.48 L 40.48 42.47 L 39.39 43.39 L 38.39 44.25 L 37.52 45.23 L 36.56 46.19 L 35.44 47.03 L 34.29 47.88 L 33.18 48.84 L 32.10 49.85 L 30.96 50.74 L 29.78 51.52 L 28.65 52.41 L 27.57 53.43 L 26.51 54.49 L 25.44 55.55 L 24.37 56.58 L 23.28 57.49 L 22.28 58.34 L 21.42 59.35 L 20.51 60.44 L 19.46 61.48 L 18.34 62.38 L 17.16 63.17 L 16.02 64.05 L 14.94 65.05 L 13.84 66.04 L 12.69 66.90 L 11.51 67.67 L 10.32 68.43 L 9.12 69.14 L 7.93 69.86 L 6.86 70.65 L 5.96 71.64 L 5.10 72.76 L 4.19 73.88 L 3.48 75.05 L 3.35 76.32 L 3.84 77.56 L 4.73 78.68 L 5.76 79.75 L 6.84 80.78 L 7.97 81.67 L 9.15 82.45 L 10.29 83.34 L 11.38 84.34 L 12.49 85.27 L 13.66 86.08 L 14.81 86.94 L 15.90 87.92 L 16.97 88.97 L 18.03 90.03 L 19.10 91.10 L 20.17 92.14 L 21.27 93.11 L 22.42 93.96 L 23.58 94.78 L 24.69 95.73 L 25.76 96.77 L 26.83 97.83 L 27.89 98.89 L 28.95 99.95 L 30.02 101.01 L 31.11 102.00 L 32.25 102.87 L 33.42 103.68 L 34.55 104.59 L 35.62 105.63 L 36.69 106.68 L 37.77 107.71 L 38.90 108.60 L 40.08 109.38 L 41.21 110.27 L 42.29 111.29 L 43.35 112.35 L 44.42 113.42 L 45.48 114.48 L 46.56 115.50 L 47.69 116.40 L 48.87 117.19 L 50.00 118.07 L 51.09 119.08 L 52.19 120.06 L 53.33 120.92 L 54.46 121.74 L 55.41 122.75 L 56.20 123.90 L 57.09 125.03 L 58.12 126.09 L 59.21 127.07 L 60.36 127.93 L 61.53 128.75 L 62.64 129.68 L 63.72 130.72 L 64.78 131.78 L 65.86 132.80 L 66.97 133.70 L 68.07 134.48 L 69.05 135.30 L 70.01 136.14 L 71.04 137.06 L 72.13 138.02 L 73.27 138.88 L 74.44 139.69 L 75.57 140.61 L 76.66 141.60 L 77.79 142.49 L 78.98 143.26 L 80.14 144.08 L 81.30 144.90 L 82.47 145.71 L 83.59 146.63 L 84.66 147.67 L 85.73 148.73 L 86.79 149.79 L 87.88 150.79 L 89.06 151.55 L 90.39 151.84 L 91.70 151.61 L 92.70 150.83 L 93.31 149.68 L 93.48 148.46 L 93.10 147.27 L 92.49 146.05 L 92.11 144.71 L 91.92 143.29 L 91.67 141.92 L 91.46 140.64 L 91.58 139.36 L 91.81 138.02 L 91.75 136.64 L 91.44 135.30 L 91.18 133.93 L 91.26 132.56 L 91.59 131.21 L 91.87 129.83 L 91.95 128.38 L 91.83 126.94 L 91.52 125.57 L 91.19 124.20 L 91.03 122.76 L 91.00 121.28 L 90.99 119.78 L 90.90 118.31 L 90.63 116.92 L 90.26 115.57 L 90.05 114.16 L 90.00 112.67 L 90.00 111.17 L 90.06 109.70 L 90.38 108.37 L 91.20 107.47 L 92.47 107.09 L 93.93 107.01 L 95.43 107.00 L 96.94 107.00 L 98.44 107.00 L 99.94 107.00 L 101.44 107.00 L 102.95 107.00 L 104.45 107.00 L 105.95 107.00 L 107.46 107.00 L 108.96 107.00 L 110.44 106.94 L 111.83 106.73 L 113.11 106.45 L 114.39 106.52 L 115.73 106.80 L 117.16 106.96 L 118.65 107.00 L 120.13 107.05 L 121.55 107.26 L 122.88 107.66 L 124.21 108.08 L 125.52 108.44 L 126.77 108.48 L 127.95 107.99 L 129.17 107.37 L 130.55 107.07 L 132.02 107.00 L 133.52 107.00 L 135.03 107.00 L 136.53 107.00 L 138.03 107.00 L 139.54 107.00 L 141.04 107.00 L 142.54 107.00 L 144.04 107.00 L 145.54 107.03 L 146.99 107.15 L 148.36 107.46 L 149.73 107.79 L 151.16 107.95 L 152.61 107.91 L 154.01 107.66 L 155.35 107.27 L 156.76 107.05 L 158.25 107.00 L 159.75 107.00 L 161.23 107.05 L 162.63 107.26 L 163.94 107.54 L 165.21 107.52 L 166.51 107.29 L 167.82 107.32 L 169.09 107.56 L 170.35 107.54 L 171.60 107.45 L 172.87 107.62 L 174.18 107.71 L 175.51 107.49 L 176.86 107.21 L 178.23 107.23 L 179.59 107.53 L 180.96 107.84 L 182.38 108.03 L 183.77 108.29 L 185.10 108.65 L 186.42 108.71 L 187.75 108.41 L 189.14 108.13 L 190.59 108.02 L 192.09 108.00 L 193.59 108.00 L 195.09 108.00 L 196.59 108.00 L 198.07 107.95 L 199.42 107.68 L 200.40 106.93 L 200.86 105.73 L 200.98 104.29 L 201.00 102.80 L 201.00 101.30 L 201.00 99.80 L 201.00 98.29 L 201.00 96.79 L 201.00 95.29 L 201.00 93.78 L 201.00 92.28 L 201.00 90.78 L 201.00 89.28 L 201.00 87.77 L 201.00 86.27 L 201.00 84.77 L 201.00 83.26 L 201.00 81.76 L 201.00 80.26 L 201.00 78.76 L 201.00 77.25 L 201.00 75.75 L 201.00 74.25 L 201.00 72.74 L 201.00 71.24 L 201.00 69.74 L 201.00 68.24 L 201.00 66.73 L 201.00 65.23 L 201.00 63.73 L 201.00 62.22 L 201.00 60.72 L 201.00 59.22 L 201.00 57.72 L 201.00 56.21 L 200.98 54.73 L 200.83 53.36 L 200.33 52.26 L 199.35 51.53 L 198.09 51.04 L 196.77 50.62 L 195.42 50.24 L 194.00 50.05 L 192.54 50.06 L 191.14 50.30 L 189.80 50.70 L 188.40 50.94 L 186.92 51.00 L 185.42 51.00 L 183.93 50.95 L 182.51 50.75 L 181.16 50.39 L 179.77 50.11 L 178.31 50.02 L 176.83 50.05 L 175.42 50.25 L 174.11 50.53 L 172.84 50.52 L 171.52 50.24 L 170.11 50.05 L 168.62 50.00 L 167.12 50.00 L 165.62 50.00 L 164.11 50.00 L 162.61 50.00 L 161.11 50.00 L 159.61 50.00 L 158.10 50.00 L 156.60 50.00 L 155.10 50.00 L 153.60 50.00 L 152.09 50.00 L 150.59 50.00 L 149.09 50.00 L 147.58 50.00 L 146.08 50.00 L 144.58 50.00 L 143.08 50.00 L 141.58 49.98 L 140.13 49.87 L 138.76 49.62 L 137.48 49.46 L 136.20 49.63 L 134.85 49.83 L 133.48 49.73 L 132.14 49.38 L 130.75 49.11 L 129.28 49.02 L 127.79 48.99 L 126.32 48.90 L 124.93 48.64 L 123.59 48.28 L 122.21 48.16 L 120.85 48.39 L 119.50 48.75 L 118.08 48.95 L 116.59 49.00 L 115.09 49.00 L 113.59 49.00 L 112.08 49.00 L 110.58 49.00 L 109.08 49.00 L 107.57 49.00 L 106.07 49.00 L 104.59 48.94 L 103.19 48.70 L 101.85 48.30 L 100.45 48.06 L 98.97 48.01 L 97.48 48.03 L 96.03 48.15 L 94.65 48.45 L 93.30 48.76 L 91.94 48.76 L 90.70 48.28 L 89.80 47.37 L 89.50 46.22 L 89.70 44.95 L 89.93 43.57 L 89.99 42.09 L 90.00 40.59 L 90.00 39.09 L 90.00 37.59 L 90.04 36.10 L 90.22 34.67 L 90.56 33.31 L 90.90 31.95 L 91.21 30.58 L 91.56 29.24 L 91.71 27.91 L 91.51 26.58 L 91.20 25.22 L 91.04 23.79 L 91.00 22.30 L 91.00 20.80 L 91.00 19.29 L 91.00 17.79 L 91.00 16.29 L 91.00 14.79 L 91.03 13.30 L 91.18 11.86 L 91.51 10.49 L 91.86 9.13 L 92.17 7.76 L 92.51 6.41 L 92.67 5.12 L 92.31 4.00 L 91.36 3.36 Z" fill="rgb(238,9,7)" fill-rule="evenodd"/>
</svg>