<svg xmlns="http://www.w3.org/2000/svg" width="142" height="164" viewBox="0 0 142 164" role="img" aria-label="08_icons_08">
  <title>08_icons_08</title>
  <path d="M 72.09 3.56 L 70.96 4.15 L 69.88 5.13 L 68.81 6.19 L 67.75 7.25 L 66.69 8.31 L 65.63 9.37 L 64.57 10.43 L 63.51 11.50 L 62.48 12.57 L 61.58 13.70 L 60.78 14.83 L 59.82 15.79 L 58.72 16.61 L 57.73 17.56 L 56.90 18.69 L 56.04 19.83 L 55.05 20.92 L 54.01 21.95 L 52.99 22.88 L 52.05 23.77 L 51.14 24.76 L 50.15 25.82 L 49.11 26.89 L 48.09 27.97 L 47.20 29.10 L 46.42 30.28 L 45.53 31.41 L 44.49 32.46 L 43.41 33.38 L 42.41 34.25 L 41.55 35.24 L 40.64 36.32 L 39.61 37.39 L 38.55 38.45 L 37.49 39.51 L 36.47 40.59 L 35.57 41.72 L 34.79 42.90 L 33.90 44.04 L 32.90 45.12 L 31.92 46.22 L 31.07 47.37 L 30.25 48.53 L 29.36 49.66 L 28.49 50.81 L 27.71 51.98 L 26.82 53.12 L 25.80 54.20 L 24.76 55.27 L 23.81 56.38 L 22.98 57.53 L 22.14 58.69 L 21.18 59.79 L 20.14 60.86 L 19.08 61.93 L 18.07 63.01 L 17.18 64.14 L 16.40 65.32 L 15.50 66.45 L 14.47 67.53 L 13.41 68.59 L 12.35 69.65 L 11.29 70.71 L 10.23 71.78 L 9.21 72.85 L 8.34 74.00 L 7.70 75.23 L 7.25 76.55 L 7.05 77.96 L 7.10 79.36 L 7.53 80.42 L 8.56 80.89 L 9.96 80.99 L 11.46 81.00 L 12.96 81.00 L 14.46 81.00 L 15.96 81.00 L 17.46 81.00 L 18.97 81.00 L 20.47 81.00 L 21.97 81.00 L 23.46 81.02 L 24.92 81.14 L 26.29 81.43 L 27.64 81.75 L 29.02 81.80 L 30.36 81.49 L 31.63 80.95 L 32.91 80.41 L 34.29 80.11 L 35.75 80.01 L 37.25 80.00 L 38.75 80.00 L 40.25 80.00 L 41.75 80.00 L 43.26 80.00 L 44.76 80.00 L 46.23 80.06 L 47.56 80.36 L 48.49 81.16 L 48.89 82.41 L 48.99 83.86 L 49.00 85.35 L 49.00 86.86 L 48.98 88.35 L 48.88 89.81 L 48.60 91.19 L 48.24 92.55 L 48.09 93.95 L 48.23 95.36 L 48.57 96.72 L 48.86 98.10 L 48.98 99.55 L 49.00 101.05 L 49.00 102.55 L 49.00 104.05 L 49.00 105.55 L 49.00 107.05 L 49.00 108.56 L 49.00 110.06 L 49.00 111.56 L 49.00 113.06 L 49.00 114.56 L 49.00 116.06 L 49.00 117.57 L 49.00 119.07 L 49.00 120.57 L 49.05 122.05 L 49.24 123.47 L 49.57 124.81 L 49.71 126.14 L 49.49 127.47 L 49.19 128.83 L 49.09 130.25 L 49.28 131.64 L 49.65 132.99 L 49.86 134.36 L 49.70 135.73 L 49.36 137.05 L 49.29 138.38 L 49.55 139.70 L 49.71 141.02 L 49.53 142.35 L 49.24 143.69 L 49.20 145.07 L 49.48 146.42 L 49.81 147.79 L 49.96 149.22 L 49.97 150.70 L 49.82 152.14 L 49.51 153.50 L 49.29 154.83 L 49.42 156.16 L 49.76 157.50 L 50.00 158.89 L 50.27 160.25 L 50.95 161.28 L 52.09 161.81 L 53.50 161.97 L 54.99 162.00 L 56.49 162.00 L 57.99 162.00 L 59.50 162.00 L 61.00 162.00 L 62.50 162.00 L 64.00 162.00 L 65.50 162.00 L 67.00 162.00 L 68.51 162.00 L 70.01 161.99 L 71.49 161.94 L 72.88 161.70 L 74.20 161.35 L 75.52 161.31 L 76.85 161.62 L 78.24 161.89 L 79.69 161.95 L 81.12 161.82 L 82.49 161.50 L 83.86 161.18 L 85.30 161.03 L 86.79 161.00 L 88.29 161.00 L 89.79 161.00 L 91.29 161.00 L 92.80 161.00 L 94.30 161.00 L 95.80 161.00 L 97.30 161.00 L 98.80 161.00 L 100.31 161.00 L 101.81 161.00 L 103.28 160.94 L 104.67 160.65 L 105.88 159.96 L 106.90 158.96 L 107.58 157.79 L 107.64 156.52 L 107.13 155.28 L 106.49 154.05 L 106.12 152.70 L 106.01 151.24 L 105.99 149.75 L 105.90 148.28 L 105.63 146.89 L 105.26 145.55 L 105.09 144.15 L 105.21 142.73 L 105.54 141.37 L 105.84 140.00 L 105.92 138.57 L 105.70 137.18 L 105.30 135.84 L 105.03 134.45 L 104.85 133.03 L 104.50 131.67 L 103.96 130.39 L 103.42 129.11 L 103.11 127.74 L 103.02 126.28 L 103.00 124.78 L 103.00 123.28 L 103.00 121.78 L 103.03 120.29 L 103.18 118.85 L 103.44 117.51 L 103.45 116.32 L 102.80 115.50 L 101.63 115.30 L 100.33 115.54 L 99.05 115.67 L 98.00 115.29 L 97.58 114.42 L 97.95 113.44 L 98.59 112.48 L 98.96 111.27 L 99.22 109.94 L 99.79 108.83 L 100.72 108.06 L 101.54 107.31 L 101.82 106.20 L 101.62 104.88 L 101.25 103.53 L 101.05 102.12 L 101.00 100.63 L 101.00 99.13 L 101.00 97.63 L 101.00 96.13 L 100.98 94.64 L 100.88 93.18 L 100.63 91.81 L 100.45 90.53 L 100.55 89.28 L 100.56 88.02 L 100.32 86.75 L 100.30 85.44 L 100.53 84.15 L 100.57 82.90 L 100.51 81.71 L 100.95 80.75 L 102.03 80.21 L 103.43 80.03 L 104.91 80.00 L 106.41 80.00 L 107.92 80.00 L 109.42 80.00 L 110.92 80.00 L 112.42 80.00 L 113.92 80.00 L 115.43 80.00 L 116.93 80.00 L 118.43 80.00 L 119.93 80.00 L 121.43 80.00 L 122.93 80.00 L 124.44 80.00 L 125.94 80.00 L 127.44 80.00 L 128.94 80.00 L 130.44 80.00 L 131.95 80.00 L 133.45 80.00 L 134.95 80.00 L 136.44 80.02 L 137.89 80.13 L 139.21 80.36 L 140.20 80.38 L 140.63 79.75 L 140.46 78.63 L 139.90 77.41 L 139.09 76.24 L 138.12 75.14 L 137.07 74.07 L 136.02 73.01 L 135.01 71.95 L 134.08 70.93 L 133.18 70.01 L 132.18 69.09 L 131.12 68.10 L 130.05 67.05 L 128.99 65.99 L 127.93 64.93 L 126.88 63.86 L 125.89 62.80 L 124.98 61.80 L 124.09 60.89 L 123.27 59.89 L 122.58 58.74 L 121.85 57.69 L 120.94 56.80 L 119.97 55.87 L 119.05 54.89 L 118.14 53.98 L 117.14 53.06 L 116.08 52.06 L 115.02 51.01 L 114.02 49.92 L 113.14 48.78 L 112.35 47.61 L 111.43 46.48 L 110.41 45.41 L 109.35 44.35 L 108.29 43.28 L 107.26 42.21 L 106.37 41.09 L 105.55 40.00 L 104.61 39.06 L 103.65 38.15 L 102.82 37.10 L 101.92 35.99 L 100.90 34.91 L 99.85 33.85 L 98.81 32.78 L 97.85 31.67 L 97.01 30.52 L 96.18 29.36 L 95.22 28.25 L 94.18 27.18 L 93.12 26.12 L 92.07 25.06 L 91.05 23.97 L 90.17 22.84 L 89.39 21.66 L 88.52 20.52 L 87.64 19.38 L 86.85 18.21 L 85.97 17.07 L 84.97 15.98 L 83.93 14.91 L 82.93 13.85 L 82.02 12.85 L 81.13 11.92 L 80.30 10.93 L 79.52 9.80 L 78.62 8.68 L 77.60 7.60 L 76.54 6.54 L 75.48 5.48 L 74.40 4.47 L 73.27 3.70 Z" fill="rgb(11,11,10)" fill-rule="evenodd"/>
  <path d="M 108.18 150.18 L 108.03 150.53 L 108.00 151.00 L 108.00 151.50 L 108.00 152.00 L 108.00 152.50 L 108.00 153.00 L 108.03 153.47 L 108.18 153.82 L 108.53 153.97 L 109.00 154.00 L 109.50 154.00 L 110.00 154.00 L 110.47 153.97 L 110.82 153.82 L 110.97 153.47 L 111.00 153.00 L 111.00 152.50 L 111.00 152.00 L 111.00 151.50 L 111.00 151.00 L 110.97 150.53 L 110.82 150.18 L 110.47 150.03 L 110.00 150.00 L 109.50 150.00 L 109.00 150.00 L 108.53 150.03 Z M 108.18 138.18 L 108.03 138.53 L 108.00 139.00 L 108.00 139.50 L 108.00 140.00 L 108.03 140.47 L 108.18 140.82 L 108.53 140.97 L 109.00 141.00 L 109.50 141.00 L 110.00 141.00 L 110.47 140.97 L 110.82 140.82 L 110.97 140.47 L 111.00 140.00 L 111.00 139.50 L 111.00 139.00 L 110.97 138.53 L 110.82 138.18 L 110.47 138.03 L 110.00 138.00 L 109.50 138.00 L 109.00 138.00 L 108.53 138.03 Z M 105.18 115.18 L 105.03 115.53 L 105.00 116.00 L 105.00 116.50 L 105.00 117.00 L 105.03 117.47 L 105.18 117.82 L 105.53 117.97 L 106.00 118.00 L 106.50 118.00 L 107.00 118.00 L 107.47 117.97 L 107.82 117.82 L 107.97 117.47 L 108.00 117.00 L 108.00 116.50 L 108.00 116.00 L 107.97 115.53 L 107.82 115.18 L 107.47 115.03 L 107.00 115.00 L 106.50 115.00 L 106.00 115.00 L 105.53 115.03 Z M 44.18 102.18 L 44.03 102.53 L 44.00 103.00 L 44.00 103.50 L 44.00 104.00 L 44.00 104.50 L 44.00 105.00 L 44.00 105.50 L 44.00 106.00 L 44.00 106.50 L 44.00 107.00 L 44.00 107.50 L 44.00 108.00 L 44.00 108.50 L 44.00 109.00 L 44.00 109.50 L 44.00 110.00 L 44.00 110.50 L 44.00 111.00 L 44.00 111.50 L 44.00 112.00 L 44.00 112.50 L 44.00 113.00 L 44.00 113.50 L 44.00 114.00 L 44.00 114.50 L 44.00 115.00 L 44.00 115.50 L 44.00 116.00 L 44.00 116.50 L 44.00 117.00 L 44.00 117.50 L 44.00 118.00 L 44.00 118.50 L 44.00 119.00 L 44.00 119.50 L 44.00 120.00 L 44.03 120.47 L 44.18 120.82 L 44.53 120.97 L 45.00 121.00 L 45.50 121.00 L 46.00 121.00 L 46.47 120.97 L 46.82 120.82 L 46.97 120.47 L 47.00 120.00 L 47.00 119.50 L 47.00 119.00 L 47.00 118.50 L 47.00 118.00 L 47.00 117.50 L 47.00 117.00 L 47.00 116.50 L 47.00 116.00 L 47.00 115.50 L 47.00 115.00 L 47.00 114.50 L 47.00 114.00 L 47.00 113.50 L 47.00 113.00 L 47.00 112.50 L 47.00 112.00 L 47.00 111.50 L 47.00 111.00 L 47.00 110.50 L 47.00 110.00 L 47.00 109.50 L 47.00 109.00 L 47.00 108.50 L 47.00 108.00 L 47.00 107.50 L 47.00 107.00 L 47.00 106.50 L 47.00 106.00 L 47.00 105.50 L 47.00 105.00 L 47.00 104.50 L 47.00 104.00 L 47.00 103.50 L 47.00 103.00 L 46.97 102.53 L 46.82 102.18 L 46.47 102.03 L 46.00 102.00 L 45.50 102.00 L 45.00 102.00 L 44.53 102.03 Z M 44.18 82.18 L 44.03 82.53 L 44.00 83.00 L 44.00 83.50 L 44.00 84.00 L 44.00 84.50 L 44.00 85.00 L 44.00 85.50 L 44.00 86.00 L 44.00 86.50 L 44.00 87.00 L 44.00 87.50 L 44.00 88.00 L 44.00 88.50 L 44.00 89.00 L 44.03 89.47 L 44.18 89.82 L 44.53 89.97 L 45.00 90.00 L 45.50 90.00 L 46.00 90.00 L 46.47 89.97 L 46.82 89.82 L 46.97 89.47 L 47.00 89.00 L 47.00 88.50 L 47.00 88.00 L 47.00 87.50 L 47.00 87.00 L 47.00 86.50 L 47.00 86.00 L 47.00 85.50 L 47.00 85.00 L 47.00 84.50 L 47.00 84.00 L 47.00 83.50 L 47.00 83.00 L 46.97 82.53 L 46.82 82.18 L 46.47 82.03 L 46.00 82.00 L 45.50 82.00 L 45.00 82.00 L 44.53 82.03 Z M 104.05 81.14 L 103.63 81.39 L 103.23 81.69 L 102.80 81.92 L 102.39 82.09 L 102.12 82.35 L 102.02 82.78 L 102.00 83.29 L 102.00 83.82 L 102.03 84.33 L 102.16 84.72 L 102.48 84.93 L 102.95 84.99 L 103.47 85.00 L 104.00 85.00 L 104.53 85.00 L 105.05 84.99 L 105.52 84.93 L 105.84 84.72 L 105.97 84.33 L 106.00 83.82 L 106.00 83.29 L 105.99 82.77 L 105.91 82.27 L 105.72 81.82 L 105.40 81.44 L 104.99 81.17 L 104.52 81.06 Z M 0.18 77.18 L 0.03 77.53 L 0.00 78.00 L 0.00 78.50 L 0.00 79.00 L 0.03 79.47 L 0.18 79.82 L 0.53 79.97 L 1.00 80.00 L 1.50 80.00 L 2.00 80.00 L 2.50 80.00 L 3.00 80.00 L 3.50 80.00 L 4.00 80.00 L 4.47 79.97 L 4.82 79.82 L 4.97 79.47 L 5.00 79.00 L 5.00 78.50 L 5.00 78.00 L 4.97 77.53 L 4.82 77.18 L 4.47 77.03 L 4.00 77.00 L 3.50 77.00 L 3.00 77.00 L 2.50 77.00 L 2.00 77.00 L 1.50 77.00 L 1.00 77.00 L 0.53 77.03 Z" fill="rgb(252,252,252)" fill-rule="evenodd"/>
</svg>