<svg xmlns="http://www.w3.org/2000/svg" width="143" height="163" viewBox="0 0 143 163" role="img" aria-label="09_icons_09">
  <title>09_icons_09</title>
  <path d="M 71.09 3.56 L 69.95 4.14 L 68.84 5.04 L 67.70 5.90 L 66.53 6.70 L 65.42 7.63 L 64.34 8.66 L 63.28 9.72 L 62.22 10.78 L 61.16 11.84 L 60.10 12.90 L 59.08 13.98 L 58.20 15.11 L 57.42 16.29 L 56.56 17.43 L 55.67 18.57 L 54.86 19.70 L 53.92 20.67 L 52.83 21.48 L 51.82 22.42 L 50.98 23.54 L 50.14 24.69 L 49.18 25.79 L 48.13 26.86 L 47.08 27.92 L 46.02 28.99 L 44.97 30.05 L 43.98 31.14 L 43.11 32.28 L 42.31 33.45 L 41.39 34.57 L 40.35 35.64 L 39.30 36.70 L 38.24 37.76 L 37.17 38.83 L 36.11 39.89 L 35.05 40.95 L 33.99 42.01 L 32.93 43.07 L 31.87 44.13 L 30.81 45.19 L 29.75 46.25 L 28.69 47.31 L 27.63 48.37 L 26.57 49.44 L 25.54 50.51 L 24.63 51.63 L 23.84 52.81 L 22.97 53.95 L 22.02 55.05 L 21.16 56.19 L 20.37 57.37 L 19.49 58.51 L 18.62 59.64 L 17.82 60.78 L 16.89 61.75 L 15.88 62.60 L 14.99 63.59 L 14.13 64.71 L 13.17 65.80 L 12.13 66.87 L 11.11 67.95 L 10.21 69.06 L 9.42 70.14 L 8.61 71.10 L 7.78 72.08 L 6.87 73.12 L 5.92 74.22 L 5.07 75.37 L 4.30 76.55 L 3.63 77.74 L 3.36 78.98 L 3.74 80.06 L 4.75 80.72 L 6.10 80.91 L 7.49 80.75 L 8.84 80.39 L 10.21 80.06 L 11.58 79.76 L 12.92 79.37 L 14.31 79.10 L 15.77 79.02 L 17.25 79.05 L 18.65 79.28 L 20.00 79.66 L 21.39 79.92 L 22.86 79.99 L 24.35 80.00 L 25.85 80.00 L 27.36 80.00 L 28.85 80.00 L 30.35 79.98 L 31.81 79.88 L 33.19 79.60 L 34.54 79.24 L 35.96 79.04 L 37.44 79.00 L 38.94 79.00 L 40.44 79.00 L 41.94 79.00 L 43.41 79.07 L 44.74 79.39 L 45.74 80.20 L 46.37 81.37 L 46.71 82.67 L 46.63 83.99 L 46.28 85.32 L 46.05 86.72 L 45.95 88.18 L 45.74 89.59 L 45.36 90.94 L 45.09 92.33 L 45.01 93.79 L 45.00 95.29 L 45.03 96.78 L 45.19 98.21 L 45.52 99.57 L 45.83 100.95 L 45.97 102.39 L 46.00 103.88 L 46.00 105.38 L 46.00 106.88 L 46.00 108.38 L 46.00 109.88 L 46.00 111.38 L 46.00 112.88 L 46.00 114.38 L 46.00 115.88 L 46.06 117.36 L 46.29 118.76 L 46.69 120.09 L 46.88 121.47 L 46.69 122.84 L 46.30 124.18 L 46.06 125.58 L 46.00 127.05 L 45.93 128.52 L 45.69 129.92 L 45.30 131.26 L 45.14 132.63 L 45.35 134.00 L 45.77 135.32 L 46.20 136.63 L 46.53 137.91 L 46.48 139.17 L 46.03 140.42 L 45.55 141.66 L 45.45 142.92 L 45.72 144.20 L 45.87 145.57 L 45.67 146.94 L 45.29 148.28 L 45.09 149.67 L 45.18 151.09 L 45.49 152.46 L 45.81 153.82 L 45.99 155.24 L 46.15 156.61 L 46.58 157.77 L 47.22 158.75 L 47.53 159.80 L 47.51 160.85 L 47.91 161.61 L 49.00 161.93 L 50.42 162.00 L 51.92 162.00 L 53.42 162.00 L 54.92 162.00 L 56.42 162.00 L 57.92 162.00 L 59.42 162.00 L 60.92 162.00 L 62.42 162.00 L 63.92 162.00 L 65.42 162.00 L 66.92 162.00 L 68.42 162.00 L 69.90 161.96 L 71.33 161.79 L 72.68 161.46 L 74.01 161.29 L 75.33 161.47 L 76.68 161.79 L 78.11 161.96 L 79.60 162.00 L 81.09 162.00 L 82.59 162.00 L 84.09 162.00 L 85.59 162.00 L 87.09 162.00 L 88.58 161.97 L 90.03 161.84 L 91.40 161.53 L 92.76 161.20 L 94.19 161.05 L 95.65 161.09 L 97.04 161.35 L 98.37 161.71 L 99.72 161.82 L 100.91 161.42 L 101.67 160.46 L 101.95 159.12 L 102.00 157.64 L 102.00 156.15 L 102.05 154.67 L 102.27 153.27 L 102.55 151.98 L 102.46 150.72 L 101.99 149.47 L 101.48 148.21 L 101.29 146.90 L 101.49 145.57 L 101.81 144.22 L 101.96 142.78 L 101.97 141.31 L 101.82 139.87 L 101.50 138.50 L 101.18 137.14 L 101.03 135.70 L 101.00 134.21 L 101.00 132.71 L 101.00 131.21 L 101.00 129.71 L 101.00 128.21 L 101.00 126.71 L 101.00 125.21 L 101.00 123.71 L 101.00 122.21 L 100.95 120.73 L 100.74 119.33 L 100.46 118.03 L 100.48 116.76 L 100.71 115.46 L 100.66 114.14 L 100.30 112.82 L 100.06 111.43 L 100.05 109.97 L 100.23 108.55 L 100.51 107.23 L 100.54 105.95 L 100.26 104.65 L 100.05 103.25 L 100.00 101.77 L 100.00 100.28 L 100.00 98.78 L 100.03 97.29 L 100.18 95.85 L 100.50 94.48 L 100.82 93.12 L 100.97 91.68 L 101.03 90.20 L 101.19 88.77 L 101.47 87.43 L 101.54 86.16 L 101.28 84.88 L 101.06 83.49 L 101.05 82.04 L 101.30 80.68 L 101.99 79.67 L 103.14 79.12 L 104.48 78.78 L 105.82 78.40 L 107.21 78.12 L 108.66 78.02 L 110.14 78.05 L 111.55 78.26 L 112.90 78.63 L 114.29 78.90 L 115.75 78.99 L 117.25 79.00 L 118.74 79.00 L 120.25 79.00 L 121.74 79.00 L 123.24 78.99 L 124.70 78.90 L 126.09 78.63 L 127.44 78.26 L 128.84 78.09 L 130.25 78.20 L 131.61 78.53 L 132.97 78.80 L 134.34 78.76 L 135.69 78.44 L 137.06 78.14 L 138.51 78.02 L 139.94 77.94 L 141.11 77.60 L 141.75 76.76 L 141.88 75.53 L 141.55 74.36 L 140.80 73.40 L 139.97 72.38 L 139.12 71.27 L 138.15 70.17 L 137.15 69.09 L 136.26 67.96 L 135.48 66.78 L 134.59 65.65 L 133.55 64.60 L 132.44 63.68 L 131.27 62.88 L 130.17 62.00 L 129.24 60.96 L 128.41 59.90 L 127.43 59.00 L 126.35 58.13 L 125.43 57.09 L 124.66 55.93 L 123.89 54.75 L 123.24 53.52 L 122.69 52.24 L 121.93 51.06 L 120.95 49.96 L 119.90 48.90 L 118.84 47.84 L 117.77 46.80 L 116.65 45.88 L 115.43 45.21 L 114.21 44.64 L 113.20 43.81 L 112.34 42.82 L 111.37 41.93 L 110.43 40.99 L 109.62 39.90 L 108.72 38.78 L 107.69 37.73 L 106.58 36.79 L 105.43 35.96 L 104.28 35.12 L 103.18 34.15 L 102.11 33.10 L 101.09 32.03 L 100.19 30.92 L 99.36 29.86 L 98.37 28.97 L 97.26 28.11 L 96.16 27.14 L 95.10 26.09 L 94.04 25.04 L 92.98 23.97 L 91.93 22.91 L 90.93 21.85 L 90.01 20.85 L 89.10 19.94 L 88.09 19.02 L 87.08 17.99 L 86.19 16.87 L 85.41 15.69 L 84.51 14.56 L 83.48 13.49 L 82.43 12.43 L 81.41 11.35 L 80.56 10.22 L 79.91 9.08 L 79.20 8.07 L 78.23 7.20 L 77.07 6.46 L 75.80 5.90 L 74.56 5.27 L 73.41 4.43 L 72.27 3.70 Z M 75.13 153.05 L 75.37 152.67 L 75.70 152.34 L 76.09 152.12 L 76.53 152.04 L 76.96 152.13 L 77.34 152.38 L 77.66 152.71 L 77.89 153.10 L 77.98 153.55 L 78.00 154.03 L 77.98 154.51 L 77.87 154.95 L 77.63 155.33 L 77.30 155.66 L 76.91 155.88 L 76.47 155.96 L 76.04 155.87 L 75.66 155.62 L 75.34 155.29 L 75.11 154.90 L 75.02 154.45 L 75.00 153.97 L 75.02 153.49 Z M 48.15 150.06 L 48.45 149.61 L 48.88 149.27 L 49.39 149.08 L 49.95 149.02 L 50.52 149.05 L 51.04 149.22 L 51.48 149.54 L 51.80 149.97 L 52.01 150.45 L 52.26 150.82 L 52.67 151.05 L 53.14 151.28 L 53.56 151.63 L 53.86 152.08 L 54.05 152.60 L 54.25 153.10 L 54.59 153.53 L 55.04 153.83 L 55.58 153.97 L 56.15 154.01 L 56.71 154.10 L 57.20 154.32 L 57.60 154.69 L 57.86 155.15 L 57.89 155.67 L 57.70 156.16 L 57.35 156.58 L 56.89 156.87 L 56.38 157.05 L 55.88 157.27 L 55.45 157.61 L 55.15 158.06 L 55.03 158.60 L 54.98 159.17 L 54.90 159.73 L 54.67 160.22 L 54.29 160.61 L 53.82 160.86 L 53.31 160.89 L 52.82 160.69 L 52.37 160.35 L 51.94 159.95 L 51.52 159.55 L 51.06 159.23 L 50.55 159.03 L 50.04 158.84 L 49.57 158.54 L 49.15 158.14 L 48.74 157.73 L 48.37 157.29 L 48.12 156.80 L 48.02 156.25 L 47.98 155.68 L 47.87 155.13 L 47.61 154.65 L 47.30 154.19 L 47.11 153.69 L 47.14 153.17 L 47.37 152.69 L 47.68 152.23 L 47.90 151.73 L 47.99 151.18 L 48.03 150.60 Z" fill="rgb(247,18,16)" fill-rule="evenodd"/>
  <path d="M 50.19 150.21 L 50.03 150.59 L 50.00 151.12 L 50.00 151.67 L 50.00 152.23 L 50.00 152.79 L 49.98 153.34 L 49.88 153.85 L 49.64 154.31 L 49.33 154.75 L 49.11 155.21 L 49.02 155.73 L 49.02 156.27 L 49.11 156.79 L 49.34 157.25 L 49.70 157.63 L 50.15 157.88 L 50.67 157.98 L 51.21 158.01 L 51.73 158.10 L 52.20 158.31 L 52.59 158.65 L 52.87 159.08 L 53.06 159.52 L 53.29 159.82 L 53.62 159.86 L 53.88 159.61 L 53.98 159.16 L 54.02 158.63 L 54.13 158.11 L 54.38 157.66 L 54.68 157.23 L 54.88 156.78 L 54.85 156.36 L 54.58 156.09 L 54.16 155.90 L 53.72 155.64 L 53.36 155.27 L 53.12 154.82 L 53.02 154.30 L 52.98 153.76 L 52.90 153.24 L 52.68 152.77 L 52.34 152.35 L 51.95 151.95 L 51.57 151.55 L 51.26 151.13 L 51.05 150.67 L 50.85 150.28 L 50.52 150.11 Z" fill="rgb(245,87,85)" fill-rule="evenodd"/>
  <path d="M 113.20 80.19 L 113.08 80.51 L 113.24 80.83 L 113.62 80.97 L 114.12 81.01 L 114.62 81.06 L 115.09 81.22 L 115.50 81.50 L 115.91 81.78 L 116.38 81.94 L 116.88 81.99 L 117.40 81.98 L 117.89 81.88 L 118.31 81.63 L 118.66 81.27 L 118.88 80.85 L 118.90 80.43 L 118.68 80.14 L 118.27 80.02 L 117.76 80.00 L 117.24 80.00 L 116.71 80.00 L 116.18 80.00 L 115.65 80.00 L 115.12 80.00 L 114.59 80.00 L 114.06 80.00 L 113.56 80.03 Z" fill="rgb(253,252,252)" fill-rule="evenodd"/>
</svg>