<svg xmlns="http://www.w3.org/2000/svg" width="149" height="159" viewBox="0 0 149 159" role="img" aria-label="10_icons_10">
  <title>10_icons_10</title>
  <path d="M 96.06 3.44 L 94.78 3.72 L 93.39 3.94 L 91.91 4.00 L 90.41 4.00 L 88.91 4.00 L 87.41 4.00 L 85.91 4.00 L 84.41 4.00 L 82.91 4.00 L 81.41 4.00 L 79.91 4.00 L 78.41 4.00 L 76.91 4.00 L 75.41 4.00 L 73.91 4.00 L 72.41 4.00 L 70.91 4.00 L 69.41 4.00 L 67.91 4.00 L 66.41 4.00 L 64.91 4.00 L 63.41 4.00 L 61.91 4.00 L 60.41 4.00 L 58.91 4.00 L 57.41 4.00 L 55.91 4.00 L 54.41 4.00 L 52.92 4.01 L 51.46 4.09 L 50.20 4.47 L 49.42 5.36 L 49.32 6.60 L 49.64 7.91 L 49.90 9.30 L 49.99 10.77 L 50.00 12.26 L 50.00 13.76 L 50.00 15.26 L 50.00 16.76 L 50.00 18.26 L 50.00 19.76 L 50.00 21.26 L 50.00 22.76 L 50.00 24.26 L 50.00 25.76 L 50.00 27.26 L 50.00 28.76 L 50.00 30.26 L 50.00 31.76 L 50.00 33.26 L 50.00 34.76 L 50.00 36.26 L 50.00 37.76 L 50.00 39.26 L 50.00 40.76 L 50.00 42.26 L 50.00 43.76 L 49.95 45.24 L 49.73 46.65 L 49.34 47.99 L 49.08 49.38 L 49.01 50.85 L 49.02 52.34 L 49.12 53.80 L 49.39 55.18 L 49.70 56.51 L 49.66 57.83 L 49.34 59.13 L 49.29 60.45 L 49.59 61.78 L 49.83 63.14 L 49.73 64.51 L 49.38 65.85 L 49.06 67.22 L 48.76 68.59 L 48.40 69.92 L 48.29 71.24 L 48.51 72.56 L 48.71 73.88 L 48.57 75.21 L 48.24 76.55 L 48.05 77.97 L 48.06 79.43 L 48.30 80.82 L 48.65 82.14 L 48.63 83.39 L 47.98 84.39 L 46.86 85.01 L 45.56 85.45 L 44.21 85.80 L 42.78 85.97 L 41.29 86.00 L 39.79 86.00 L 38.29 86.00 L 36.80 85.99 L 35.33 85.91 L 33.94 85.64 L 32.60 85.26 L 31.18 85.05 L 29.70 85.01 L 28.22 85.04 L 26.79 85.19 L 25.42 85.52 L 24.05 85.84 L 22.61 85.97 L 21.12 86.00 L 19.62 86.00 L 18.12 86.00 L 16.62 86.00 L 15.12 86.00 L 13.62 86.00 L 12.12 86.00 L 10.62 86.00 L 9.12 86.00 L 7.62 86.00 L 6.12 86.00 L 4.64 86.06 L 3.24 86.30 L 1.97 86.75 L 0.98 87.23 L 0.77 87.73 L 1.50 88.20 L 2.64 88.82 L 3.81 89.56 L 4.93 90.35 L 5.87 91.32 L 6.69 92.45 L 7.61 93.56 L 8.64 94.63 L 9.70 95.70 L 10.76 96.76 L 11.82 97.82 L 12.88 98.87 L 13.96 99.90 L 15.09 100.79 L 16.27 101.57 L 17.40 102.46 L 18.47 103.48 L 19.54 104.54 L 20.59 105.60 L 21.62 106.67 L 22.51 107.80 L 23.31 108.91 L 24.28 109.85 L 25.41 110.66 L 26.53 111.58 L 27.61 112.61 L 28.67 113.67 L 29.73 114.73 L 30.79 115.79 L 31.85 116.85 L 32.91 117.91 L 33.99 118.92 L 35.12 119.81 L 36.27 120.60 L 37.27 121.55 L 38.09 122.68 L 38.95 123.82 L 39.94 124.92 L 40.98 125.98 L 42.04 127.04 L 43.10 128.10 L 44.16 129.16 L 45.22 130.23 L 46.26 131.29 L 47.22 132.36 L 48.12 133.35 L 49.08 134.22 L 50.12 135.15 L 51.18 136.18 L 52.23 137.24 L 53.27 138.30 L 54.23 139.37 L 55.13 140.36 L 56.09 141.23 L 57.13 142.16 L 58.19 143.19 L 59.25 144.25 L 60.31 145.31 L 61.37 146.37 L 62.43 147.43 L 63.49 148.49 L 64.55 149.55 L 65.61 150.61 L 66.67 151.67 L 67.69 152.75 L 68.58 153.88 L 69.34 155.06 L 70.16 156.19 L 71.06 157.15 L 72.11 157.74 L 73.42 157.96 L 74.88 158.00 L 76.37 157.98 L 77.79 157.84 L 78.98 157.36 L 79.76 156.40 L 80.35 155.22 L 81.20 154.22 L 82.31 153.41 L 83.43 152.51 L 84.51 151.49 L 85.57 150.43 L 86.63 149.37 L 87.69 148.31 L 88.75 147.25 L 89.82 146.19 L 90.90 145.18 L 92.07 144.39 L 93.34 143.83 L 94.56 143.17 L 95.65 142.25 L 96.54 141.14 L 97.25 139.94 L 97.95 138.76 L 98.78 137.72 L 99.81 136.87 L 100.91 135.98 L 101.95 134.96 L 102.83 133.83 L 103.62 132.66 L 104.52 131.54 L 105.56 130.50 L 106.71 129.64 L 107.95 129.02 L 109.18 128.41 L 110.21 127.52 L 111.05 126.40 L 111.89 125.26 L 112.87 124.16 L 113.91 123.09 L 114.96 122.03 L 115.97 120.94 L 116.84 119.81 L 117.63 118.63 L 118.50 117.49 L 119.38 116.36 L 120.16 115.18 L 121.04 114.05 L 122.08 113.03 L 123.22 112.19 L 124.45 111.56 L 125.68 111.05 L 126.76 110.42 L 127.66 109.50 L 128.56 108.41 L 129.39 107.26 L 129.99 106.01 L 130.60 104.76 L 131.45 103.61 L 132.47 102.54 L 133.53 101.47 L 134.59 100.41 L 135.65 99.35 L 136.71 98.29 L 137.77 97.23 L 138.83 96.17 L 139.91 95.15 L 141.04 94.26 L 142.23 93.51 L 143.41 92.74 L 144.58 91.95 L 145.73 91.11 L 146.77 90.12 L 147.54 88.95 L 147.90 87.60 L 147.93 86.19 L 147.65 84.99 L 146.85 84.29 L 145.62 84.10 L 144.26 84.29 L 142.93 84.69 L 141.59 85.01 L 140.41 85.43 L 139.43 86.13 L 138.32 86.72 L 136.96 87.00 L 135.57 87.22 L 134.26 87.49 L 133.12 87.39 L 132.28 86.65 L 131.60 85.72 L 130.62 85.17 L 129.31 84.93 L 127.94 84.64 L 126.60 84.27 L 125.20 84.09 L 123.79 84.20 L 122.42 84.52 L 121.05 84.83 L 119.61 84.97 L 118.12 85.00 L 116.62 85.00 L 115.12 85.00 L 113.62 85.00 L 112.12 85.00 L 110.62 85.00 L 109.12 85.00 L 107.62 85.00 L 106.12 85.00 L 104.65 84.94 L 103.34 84.61 L 102.48 83.79 L 102.30 82.59 L 102.58 81.27 L 102.86 79.89 L 102.98 78.44 L 103.04 76.97 L 103.24 75.55 L 103.59 74.20 L 103.83 72.83 L 103.73 71.46 L 103.38 70.12 L 103.11 68.73 L 103.02 67.27 L 103.00 65.78 L 103.00 64.28 L 103.00 62.78 L 103.00 61.28 L 102.99 59.78 L 102.90 58.32 L 102.63 56.93 L 102.19 55.68 L 101.61 54.77 L 100.72 54.50 L 99.64 54.50 L 98.77 54.04 L 98.57 53.08 L 99.19 52.07 L 100.29 51.34 L 101.54 50.92 L 102.50 50.35 L 102.91 49.26 L 102.99 47.84 L 103.00 46.35 L 103.00 44.85 L 103.00 43.35 L 103.00 41.85 L 103.00 40.35 L 103.05 38.87 L 103.26 37.45 L 103.63 36.10 L 103.90 34.72 L 103.99 33.25 L 104.00 31.76 L 104.00 30.26 L 104.00 28.76 L 104.00 27.26 L 104.00 25.76 L 104.00 24.26 L 104.00 22.76 L 104.00 21.26 L 104.05 19.78 L 104.27 18.37 L 104.65 17.03 L 104.91 15.64 L 104.99 14.17 L 105.00 12.67 L 105.00 11.17 L 105.00 9.67 L 105.00 8.17 L 105.00 6.68 L 104.95 5.23 L 104.68 4.07 L 103.99 3.58 L 102.91 3.72 L 101.55 3.93 L 100.10 3.95 L 98.68 3.79 L 97.34 3.50 Z M 74.13 38.05 L 74.37 37.67 L 74.70 37.34 L 75.09 37.12 L 75.53 37.04 L 75.96 37.13 L 76.34 37.38 L 76.66 37.71 L 76.89 38.10 L 76.98 38.55 L 77.00 39.03 L 76.98 39.51 L 76.87 39.95 L 76.63 40.33 L 76.30 40.66 L 75.91 40.88 L 75.47 40.96 L 75.04 40.87 L 74.66 40.62 L 74.34 40.29 L 74.11 39.90 L 74.02 39.45 L 74.00 38.97 L 74.02 38.49 Z M 52.15 29.06 L 52.43 28.62 L 52.84 28.28 L 53.33 28.08 L 53.87 28.01 L 54.43 28.00 L 55.00 28.01 L 55.55 28.05 L 56.05 28.22 L 56.47 28.53 L 56.79 28.95 L 56.98 29.42 L 57.20 29.80 L 57.58 30.02 L 58.05 30.21 L 58.47 30.53 L 58.78 30.95 L 58.92 31.44 L 58.85 31.94 L 58.59 32.40 L 58.28 32.84 L 58.06 33.32 L 57.90 33.82 L 57.64 34.27 L 57.26 34.64 L 56.80 34.87 L 56.30 34.89 L 55.83 34.71 L 55.42 34.37 L 55.13 33.93 L 54.94 33.49 L 54.69 33.16 L 54.25 33.03 L 53.71 32.98 L 53.19 32.88 L 52.73 32.64 L 52.35 32.26 L 52.11 31.80 L 52.02 31.27 L 52.00 30.71 L 52.00 30.14 L 52.03 29.58 Z M 57.00 17.00 L 57.42 16.60 L 57.86 16.27 L 58.36 16.10 L 58.87 16.14 L 59.34 16.40 L 59.76 16.77 L 60.18 17.18 L 60.60 17.56 L 61.06 17.84 L 61.57 17.91 L 62.07 17.77 L 62.53 17.47 L 63.00 17.19 L 63.52 17.04 L 64.09 17.01 L 64.67 17.00 L 65.24 17.02 L 65.79 17.11 L 66.26 17.36 L 66.64 17.74 L 66.87 18.21 L 66.88 18.72 L 66.68 19.20 L 66.32 19.60 L 65.86 19.87 L 65.32 19.98 L 64.75 20.00 L 64.17 20.00 L 63.62 20.04 L 63.20 20.21 L 62.98 20.59 L 62.77 21.07 L 62.44 21.50 L 62.00 21.81 L 61.50 22.00 L 60.99 22.18 L 60.53 22.47 L 60.07 22.77 L 59.57 22.96 L 59.06 23.14 L 58.59 23.42 L 58.14 23.73 L 57.63 23.92 L 57.08 23.98 L 56.52 23.96 L 56.00 23.81 L 55.56 23.50 L 55.23 23.07 L 55.06 22.56 L 55.01 22.00 L 55.00 21.42 L 55.02 20.84 L 55.10 20.29 L 55.31 19.80 L 55.62 19.34 L 55.88 18.87 L 56.06 18.36 L 56.27 17.86 L 56.60 17.42 Z M 79.94 12.85 L 80.41 12.58 L 80.86 12.27 L 81.37 12.08 L 81.92 12.02 L 82.48 12.04 L 83.00 12.19 L 83.44 12.50 L 83.77 12.93 L 83.91 13.43 L 83.84 13.94 L 83.55 14.39 L 83.13 14.73 L 82.63 14.92 L 82.08 14.99 L 81.52 15.04 L 81.00 15.19 L 80.53 15.47 L 80.07 15.77 L 79.56 15.94 L 79.00 16.00 L 78.44 16.06 L 77.93 16.23 L 77.47 16.53 L 77.01 16.81 L 76.50 16.91 L 76.00 16.80 L 75.56 16.50 L 75.23 16.07 L 75.09 15.57 L 75.16 15.06 L 75.44 14.60 L 75.83 14.18 L 76.24 13.77 L 76.67 13.40 L 77.14 13.13 L 77.68 13.02 L 78.25 13.00 L 78.83 13.00 L 79.41 12.97 Z M 86.94 10.86 L 87.42 10.57 L 87.90 10.26 L 88.41 10.10 L 88.94 10.17 L 89.40 10.46 L 89.74 10.90 L 89.90 11.41 L 89.83 11.94 L 89.54 12.40 L 89.10 12.74 L 88.59 12.96 L 88.06 13.14 L 87.58 13.43 L 87.10 13.74 L 86.59 13.90 L 86.06 13.83 L 85.60 13.54 L 85.26 13.10 L 85.10 12.59 L 85.17 12.06 L 85.46 11.60 L 85.90 11.26 L 86.41 11.04 Z M 79.00 9.00 L 79.43 8.59 L 79.90 8.26 L 80.43 8.07 L 81.00 8.02 L 81.57 8.07 L 82.10 8.26 L 82.54 8.60 L 82.83 9.06 L 82.90 9.59 L 82.74 10.10 L 82.41 10.57 L 82.00 11.00 L 81.57 11.41 L 81.10 11.74 L 80.57 11.93 L 80.00 11.98 L 79.43 11.93 L 78.90 11.74 L 78.46 11.40 L 78.17 10.94 L 78.10 10.41 L 78.26 9.90 L 78.59 9.43 Z" fill="rgb(15,15,14)" fill-rule="evenodd"/>
  <path d="M 95.18 0.18 L 95.03 0.53 L 95.00 1.00 L 95.03 1.47 L 95.18 1.82 L 95.53 1.97 L 96.00 2.00 L 96.50 2.00 L 97.00 2.00 L 97.50 2.00 L 98.00 2.00 L 98.50 2.00 L 99.00 2.00 L 99.50 2.00 L 100.00 2.00 L 100.50 2.00 L 101.00 2.00 L 101.50 2.00 L 102.00 2.00 L 102.50 2.00 L 103.00 2.00 L 103.50 2.00 L 104.00 2.00 L 104.50 2.00 L 105.00 2.00 L 105.47 1.97 L 105.82 1.82 L 105.97 1.47 L 106.00 1.00 L 105.97 0.53 L 105.82 0.18 L 105.47 0.03 L 105.00 0.00 L 104.50 0.00 L 104.00 0.00 L 103.50 0.00 L 103.00 0.00 L 102.50 0.00 L 102.00 0.00 L 101.50 0.00 L 101.00 0.00 L 100.50 0.00 L 100.00 0.00 L 99.50 0.00 L 99.00 0.00 L 98.50 0.00 L 98.00 0.00 L 97.50 0.00 L 97.00 0.00 L 96.50 0.00 L 96.00 0.00 L 95.53 0.03 Z M 78.18 0.18 L 78.03 0.53 L 78.00 1.00 L 78.03 1.47 L 78.18 1.82 L 78.53 1.97 L 79.00 2.00 L 79.50 2.00 L 80.00 2.00 L 80.50 2.00 L 81.00 2.00 L 81.50 2.00 L 82.00 2.00 L 82.50 2.00 L 83.00 2.00 L 83.47 1.97 L 83.82 1.82 L 83.97 1.47 L 84.00 1.00 L 83.97 0.53 L 83.82 0.18 L 83.47 0.03 L 83.00 0.00 L 82.50 0.00 L 82.00 0.00 L 81.50 0.00 L 81.00 0.00 L 80.50 0.00 L 80.00 0.00 L 79.50 0.00 L 79.00 0.00 L 78.53 0.03 Z" fill="rgb(252,252,252)" fill-rule="evenodd"/>
</svg>