<svg xmlns="http://www.w3.org/2000/svg" width="152" height="163" viewBox="0 0 152 163" role="img" aria-label="11_icons_11">
  <title>11_icons_11</title>
  <path d="M 43.25 4.42 L 42.44 5.29 L 42.31 6.52 L 42.61 7.84 L 42.89 9.22 L 43.01 10.67 L 43.17 12.11 L 43.44 13.46 L 43.54 14.73 L 43.35 16.00 L 43.29 17.31 L 43.55 18.64 L 43.85 20.01 L 43.97 21.46 L 44.00 22.95 L 44.00 24.45 L 44.00 25.95 L 44.00 27.46 L 44.00 28.96 L 44.00 30.46 L 44.04 31.94 L 44.22 33.37 L 44.57 34.73 L 44.86 36.11 L 44.98 37.56 L 45.00 39.05 L 44.97 40.55 L 44.85 41.99 L 44.54 43.37 L 44.20 44.73 L 44.04 46.16 L 44.03 47.64 L 44.17 49.08 L 44.48 50.45 L 44.81 51.82 L 44.97 53.26 L 45.00 54.75 L 45.00 56.25 L 45.00 57.75 L 45.00 59.25 L 45.00 60.75 L 45.00 62.25 L 45.00 63.75 L 45.01 65.25 L 45.10 66.71 L 45.37 68.10 L 45.74 69.45 L 45.95 70.87 L 46.00 72.35 L 46.00 73.85 L 46.00 75.35 L 46.00 76.85 L 46.06 78.33 L 46.29 79.74 L 46.68 81.08 L 46.93 82.47 L 46.99 83.95 L 46.98 85.44 L 46.83 86.86 L 46.31 88.02 L 45.30 88.71 L 43.94 88.95 L 42.46 89.00 L 40.96 89.00 L 39.45 89.00 L 37.95 89.00 L 36.45 89.00 L 34.97 88.96 L 33.55 88.76 L 32.19 88.40 L 30.81 88.12 L 29.35 88.02 L 27.86 88.00 L 26.37 88.03 L 24.92 88.17 L 23.55 88.48 L 22.18 88.81 L 20.75 88.97 L 19.26 89.00 L 17.76 89.00 L 16.26 89.00 L 14.76 88.99 L 13.29 88.90 L 11.91 88.63 L 10.56 88.28 L 9.19 88.17 L 7.83 88.40 L 6.50 88.82 L 5.22 89.33 L 4.11 90.13 L 3.42 91.24 L 3.37 92.51 L 3.94 93.72 L 4.88 94.79 L 6.00 95.69 L 7.17 96.47 L 8.28 97.37 L 9.25 98.41 L 10.14 99.40 L 11.11 100.26 L 12.16 101.19 L 13.22 102.22 L 14.28 103.28 L 15.34 104.34 L 16.40 105.40 L 17.46 106.46 L 18.53 107.53 L 19.59 108.59 L 20.65 109.65 L 21.71 110.71 L 22.79 111.73 L 23.92 112.62 L 25.08 113.41 L 26.12 114.34 L 26.99 115.41 L 27.89 116.40 L 28.96 117.23 L 30.07 118.13 L 31.14 119.15 L 32.19 120.21 L 33.16 121.28 L 34.07 122.27 L 35.02 123.15 L 36.05 124.08 L 37.10 125.11 L 38.15 126.17 L 39.12 127.27 L 39.98 128.38 L 40.87 129.37 L 41.94 130.20 L 43.05 131.09 L 44.15 132.04 L 45.27 132.91 L 46.28 133.78 L 47.13 134.82 L 48.02 135.93 L 49.03 137.00 L 50.11 138.00 L 51.25 138.87 L 52.42 139.67 L 53.54 140.59 L 54.62 141.62 L 55.68 142.68 L 56.74 143.74 L 57.80 144.80 L 58.82 145.88 L 59.72 146.99 L 60.55 148.07 L 61.53 148.98 L 62.61 149.84 L 63.54 150.87 L 64.33 152.03 L 65.22 153.16 L 66.25 154.21 L 67.35 155.17 L 68.51 156.00 L 69.66 156.84 L 70.77 157.80 L 71.84 158.84 L 72.90 159.90 L 73.99 160.89 L 75.19 161.62 L 76.56 161.93 L 78.02 161.95 L 79.42 161.71 L 80.67 161.10 L 81.80 160.22 L 82.93 159.34 L 84.02 158.53 L 84.94 157.55 L 85.78 156.43 L 86.72 155.32 L 87.76 154.25 L 88.82 153.18 L 89.88 152.12 L 90.94 151.06 L 92.00 150.00 L 93.06 148.94 L 94.13 147.87 L 95.19 146.81 L 96.25 145.75 L 97.31 144.69 L 98.37 143.63 L 99.44 142.56 L 100.50 141.50 L 101.56 140.44 L 102.62 139.38 L 103.68 138.32 L 104.76 137.30 L 105.89 136.41 L 107.07 135.63 L 108.21 134.74 L 109.28 133.71 L 110.35 132.65 L 111.41 131.59 L 112.47 130.53 L 113.53 129.47 L 114.59 128.41 L 115.65 127.34 L 116.68 126.27 L 117.57 125.13 L 118.35 123.95 L 119.24 122.82 L 120.26 121.74 L 121.32 120.68 L 122.38 119.62 L 123.45 118.59 L 124.54 117.66 L 125.54 116.79 L 126.40 115.82 L 127.32 114.84 L 128.27 113.92 L 129.15 112.98 L 130.08 111.95 L 131.11 110.89 L 132.17 109.83 L 133.23 108.77 L 134.29 107.71 L 135.33 106.63 L 136.26 105.52 L 137.08 104.36 L 137.95 103.25 L 139.00 102.32 L 140.16 101.54 L 141.30 100.65 L 142.38 99.65 L 143.46 98.71 L 144.46 97.83 L 145.33 96.87 L 146.28 95.90 L 147.36 95.03 L 148.35 94.14 L 149.18 93.08 L 149.99 91.94 L 150.65 90.71 L 150.89 89.37 L 150.71 88.14 L 150.00 87.35 L 148.79 87.06 L 147.34 87.00 L 145.85 87.00 L 144.35 87.00 L 142.86 87.05 L 141.45 87.26 L 140.10 87.63 L 138.71 87.90 L 137.25 87.99 L 135.75 88.00 L 134.25 88.00 L 132.75 87.99 L 131.29 87.90 L 129.90 87.63 L 128.55 87.26 L 127.13 87.05 L 125.66 87.02 L 124.20 87.12 L 122.82 87.40 L 121.46 87.76 L 120.04 87.96 L 118.57 88.02 L 117.11 88.13 L 115.73 88.43 L 114.38 88.78 L 112.95 88.96 L 111.46 89.00 L 109.96 89.00 L 108.46 89.00 L 106.96 89.00 L 105.46 89.00 L 103.98 88.95 L 102.63 88.69 L 101.64 87.97 L 101.16 86.78 L 101.02 85.35 L 101.00 83.86 L 101.00 82.36 L 101.00 80.86 L 101.00 79.36 L 101.00 77.86 L 101.00 76.36 L 101.00 74.85 L 101.00 73.35 L 101.00 71.85 L 101.03 70.36 L 101.17 68.92 L 101.43 67.57 L 101.54 66.29 L 101.32 65.01 L 101.09 63.63 L 101.01 62.16 L 101.00 60.67 L 101.00 59.16 L 101.00 57.66 L 101.00 56.16 L 100.94 54.68 L 100.71 53.28 L 100.36 51.95 L 100.29 50.63 L 100.57 49.30 L 100.86 47.92 L 100.98 46.47 L 101.00 44.98 L 101.06 43.50 L 101.27 42.14 L 101.43 41.03 L 101.02 40.24 L 100.11 39.57 L 99.38 38.60 L 99.18 37.32 L 99.49 36.07 L 100.15 35.01 L 100.72 33.95 L 100.97 32.66 L 101.11 31.24 L 101.39 29.86 L 101.75 28.51 L 101.95 27.09 L 101.97 25.64 L 101.79 24.32 L 101.21 23.36 L 100.25 22.68 L 99.47 21.79 L 99.37 20.64 L 99.96 19.63 L 100.90 18.90 L 101.64 18.07 L 101.94 16.86 L 102.00 15.42 L 102.00 13.92 L 101.97 12.43 L 101.84 10.98 L 101.58 9.63 L 101.46 8.35 L 101.66 7.08 L 101.82 5.78 L 101.51 4.71 L 100.57 4.17 L 99.21 4.02 L 97.73 4.00 L 96.23 4.00 L 94.73 4.00 L 93.23 4.00 L 91.72 4.00 L 90.22 4.00 L 88.72 4.00 L 87.22 4.00 L 85.72 4.00 L 84.22 4.00 L 82.71 4.00 L 81.21 4.00 L 79.71 4.00 L 78.21 4.00 L 76.71 4.00 L 75.21 4.00 L 73.71 4.00 L 72.20 4.00 L 70.70 4.00 L 69.20 4.00 L 67.70 4.00 L 66.20 4.00 L 64.70 4.02 L 63.24 4.11 L 61.85 4.39 L 60.50 4.75 L 59.09 4.95 L 57.62 4.94 L 56.22 4.70 L 54.89 4.30 L 53.49 4.06 L 52.01 4.01 L 50.51 4.00 L 49.01 4.00 L 47.50 4.00 L 46.01 4.01 L 44.54 4.07 Z M 93.13 22.05 L 93.37 21.67 L 93.70 21.34 L 94.09 21.12 L 94.53 21.04 L 94.96 21.13 L 95.34 21.38 L 95.66 21.71 L 95.89 22.10 L 95.98 22.55 L 96.00 23.03 L 95.98 23.51 L 95.87 23.95 L 95.63 24.33 L 95.30 24.66 L 94.91 24.88 L 94.47 24.96 L 94.04 24.87 L 93.66 24.62 L 93.34 24.29 L 93.11 23.90 L 93.02 23.45 L 93.00 22.97 L 93.02 22.49 Z" fill="rgb(243,15,13)" fill-rule="evenodd"/>
  <path d="M 42.19 72.19 L 42.03 72.55 L 42.00 73.03 L 42.00 73.54 L 42.01 74.05 L 42.04 74.55 L 42.17 75.01 L 42.43 75.42 L 42.72 75.81 L 42.91 76.25 L 42.99 76.73 L 43.02 77.22 L 43.11 77.64 L 43.35 77.87 L 43.68 77.86 L 43.90 77.61 L 43.98 77.18 L 44.00 76.68 L 44.00 76.17 L 44.00 75.65 L 44.00 75.14 L 44.00 74.62 L 44.00 74.11 L 44.00 73.60 L 44.00 73.09 L 43.97 72.60 L 43.83 72.23 L 43.49 72.05 L 43.02 72.01 L 42.55 72.03 Z" fill="rgb(253,252,252)" fill-rule="evenodd"/>
</svg>