<svg xmlns="http://www.w3.org/2000/svg" width="159" height="152" viewBox="0 0 159 152" role="img" aria-label="12_icons_12">
  <title>12_icons_12</title>
  <path d="M 156.06 3.37 L 153.38 3.94 L 150.40 4.00 L 147.43 4.08 L 144.69 4.72 L 141.80 5.00 L 138.80 5.00 L 135.87 4.82 L 133.24 4.46 L 130.58 4.92 L 127.63 5.06 L 124.89 5.69 L 122.01 5.99 L 119.01 6.00 L 116.02 6.04 L 113.24 6.58 L 110.43 7.05 L 107.70 7.72 L 104.81 8.00 L 101.88 8.18 L 99.18 8.71 L 96.53 8.27 L 93.79 8.41 L 91.01 8.96 L 88.02 9.00 L 85.04 9.04 L 82.26 9.55 L 79.61 9.52 L 76.82 9.04 L 73.83 9.01 L 70.97 9.35 L 68.22 9.98 L 65.44 10.52 L 62.62 10.97 L 59.63 11.00 L 56.62 11.00 L 53.62 11.00 L 50.61 11.00 L 47.70 11.09 L 46.39 12.42 L 47.73 14.69 L 49.82 16.82 L 52.03 18.73 L 54.35 20.41 L 56.49 22.49 L 58.63 24.57 L 60.88 26.27 L 62.71 28.21 L 64.85 29.91 L 67.20 31.50 L 69.41 33.41 L 71.53 35.53 L 73.68 37.62 L 75.88 39.33 L 76.62 41.59 L 75.07 43.91 L 72.96 46.03 L 70.72 47.89 L 68.43 49.61 L 66.29 51.70 L 64.05 53.53 L 61.55 54.75 L 59.34 56.67 L 57.25 58.81 L 55.57 61.03 L 53.89 62.96 L 51.96 65.05 L 50.28 67.35 L 49.00 69.83 L 46.93 71.80 L 44.95 73.57 L 42.81 75.04 L 40.29 76.16 L 38.11 78.01 L 36.78 80.45 L 35.17 82.79 L 33.07 84.93 L 30.95 87.05 L 28.81 89.16 L 26.56 90.97 L 24.20 92.52 L 21.77 93.91 L 19.46 95.59 L 17.53 97.77 L 15.88 100.09 L 14.08 102.35 L 12.37 104.65 L 10.70 106.90 L 8.90 108.66 L 9.26 109.36 L 11.40 108.57 L 12.51 110.00 L 11.75 112.52 L 10.11 114.77 L 7.92 115.32 L 5.83 114.23 L 3.78 114.35 L 4.70 115.82 L 6.82 117.83 L 8.95 119.94 L 11.19 121.80 L 13.72 122.92 L 15.71 124.45 L 17.09 126.67 L 18.97 128.52 L 20.77 130.74 L 22.96 132.66 L 25.27 134.33 L 27.43 136.38 L 29.81 137.65 L 32.28 136.89 L 34.71 136.55 L 37.18 136.20 L 38.80 134.67 L 39.21 131.99 L 40.68 130.59 L 42.41 132.16 L 44.10 134.24 L 46.03 135.65 L 46.05 137.56 L 45.12 139.70 L 45.96 141.77 L 47.59 143.44 L 46.88 145.62 L 44.44 146.75 L 41.70 146.71 L 39.99 144.93 L 38.43 142.81 L 36.65 142.67 L 37.21 144.70 L 39.31 146.19 L 41.20 147.94 L 43.18 150.00 L 45.78 150.91 L 48.27 150.15 L 49.83 147.99 L 51.58 146.00 L 53.79 144.21 L 55.65 142.37 L 57.12 140.32 L 59.33 138.61 L 61.49 136.56 L 63.78 134.85 L 65.79 132.89 L 67.54 130.75 L 69.88 129.26 L 71.93 127.55 L 73.45 125.21 L 74.64 122.70 L 76.54 120.52 L 78.83 118.82 L 80.62 116.76 L 80.40 114.56 L 78.19 114.53 L 76.01 114.52 L 76.09 115.46 L 76.33 117.64 L 74.76 119.56 L 72.39 119.07 L 71.49 116.87 L 71.90 114.22 L 71.37 112.79 L 70.87 114.78 L 69.50 116.91 L 67.30 118.31 L 65.60 120.12 L 64.48 122.26 L 64.46 124.64 L 62.83 125.32 L 61.03 123.43 L 59.90 120.92 L 58.25 118.96 L 55.97 117.50 L 54.27 115.39 L 53.62 113.12 L 55.13 111.73 L 54.79 110.26 L 55.15 108.43 L 57.08 107.01 L 59.11 105.57 L 61.04 106.66 L 63.03 108.51 L 65.63 108.80 L 66.57 107.25 L 64.83 105.39 L 62.16 104.61 L 60.35 102.67 L 60.06 99.84 L 61.05 97.68 L 62.89 98.48 L 64.08 100.79 L 66.03 101.93 L 68.95 102.05 L 71.29 102.98 L 71.30 105.17 L 70.47 107.02 L 72.20 107.90 L 74.86 107.25 L 77.29 105.87 L 79.93 105.00 L 82.38 104.07 L 84.23 102.54 L 86.34 102.35 L 87.32 100.45 L 88.97 98.80 L 89.24 96.94 L 88.52 94.36 L 89.22 92.59 L 91.14 93.32 L 92.68 92.96 L 93.33 90.53 L 94.98 89.70 L 96.22 91.75 L 96.46 94.28 L 95.55 96.75 L 96.31 98.41 L 98.11 97.20 L 99.48 94.92 L 99.52 92.52 L 100.98 91.61 L 102.89 92.42 L 105.04 91.48 L 106.88 89.60 L 108.82 87.78 L 110.60 85.69 L 112.67 83.92 L 114.45 81.88 L 116.91 81.46 L 119.07 83.21 L 120.82 85.33 L 122.60 87.22 L 123.39 89.85 L 125.14 92.11 L 127.39 93.94 L 129.75 95.49 L 132.00 97.17 L 133.69 99.44 L 135.64 101.63 L 137.72 103.78 L 139.37 106.10 L 140.77 108.52 L 142.15 110.39 L 143.73 109.23 L 144.08 106.42 L 144.72 103.68 L 145.00 100.79 L 145.01 97.79 L 145.36 94.93 L 145.95 92.17 L 146.04 89.20 L 146.53 86.40 L 146.97 83.58 L 147.02 80.59 L 147.42 77.75 L 147.96 74.97 L 148.31 72.11 L 148.94 69.37 L 149.03 66.40 L 149.47 63.58 L 149.98 60.78 L 150.36 57.94 L 150.95 55.18 L 151.28 52.31 L 151.93 49.57 L 152.21 46.68 L 152.86 43.94 L 153.14 41.06 L 153.79 38.32 L 154.00 35.40 L 154.03 32.41 L 154.47 29.59 L 154.97 26.79 L 155.18 23.87 L 155.82 21.13 L 156.11 18.25 L 156.75 15.51 L 157.05 12.63 L 157.70 9.89 L 157.99 7.01 L 157.76 4.25 Z M 45.17 132.06 L 45.47 131.60 L 45.91 131.26 L 46.43 131.10 L 46.96 131.18 L 47.45 131.46 L 47.94 131.77 L 48.46 131.98 L 48.99 132.18 L 49.45 132.51 L 49.77 132.96 L 49.90 133.49 L 49.79 134.01 L 49.48 134.49 L 49.07 134.93 L 48.63 135.35 L 48.16 135.70 L 47.65 135.89 L 47.12 135.84 L 46.65 135.56 L 46.28 135.13 L 46.06 134.62 L 45.86 134.09 L 45.58 133.60 L 45.27 133.11 L 45.10 132.59 Z M 19.15 124.06 L 19.44 123.62 L 19.86 123.28 L 20.35 123.10 L 20.86 123.14 L 21.33 123.38 L 21.78 123.68 L 22.26 123.92 L 22.77 124.09 L 23.24 124.34 L 23.63 124.72 L 23.86 125.18 L 23.89 125.69 L 23.70 126.17 L 23.36 126.58 L 22.90 126.86 L 22.37 126.98 L 21.80 127.00 L 21.22 127.00 L 20.65 126.98 L 20.12 126.86 L 19.66 126.59 L 19.31 126.19 L 19.09 125.70 L 19.02 125.15 L 19.03 124.59 Z M 51.13 119.05 L 51.37 118.67 L 51.70 118.34 L 52.09 118.12 L 52.54 118.02 L 53.01 118.00 L 53.49 118.02 L 53.94 118.12 L 54.32 118.36 L 54.65 118.69 L 54.88 119.08 L 54.96 119.51 L 54.87 119.95 L 54.63 120.33 L 54.30 120.66 L 53.91 120.88 L 53.46 120.98 L 52.99 121.00 L 52.51 120.98 L 52.06 120.88 L 51.68 120.64 L 51.35 120.31 L 51.12 119.92 L 51.04 119.49 Z M 46.14 109.06 L 46.45 108.61 L 46.87 108.27 L 47.37 108.10 L 47.88 108.15 L 48.35 108.39 L 48.81 108.70 L 49.31 108.93 L 49.82 109.11 L 50.28 109.38 L 50.66 109.77 L 50.88 110.24 L 50.88 110.76 L 50.66 111.23 L 50.29 111.62 L 49.83 111.90 L 49.40 112.11 L 49.14 112.42 L 49.15 112.86 L 49.38 113.33 L 49.68 113.79 L 49.90 114.28 L 49.98 114.83 L 50.00 115.41 L 49.99 116.00 L 49.94 116.56 L 49.76 117.07 L 49.43 117.50 L 48.99 117.81 L 48.49 117.91 L 47.98 117.79 L 47.52 117.49 L 47.10 117.10 L 46.68 116.68 L 46.27 116.27 L 45.86 115.85 L 45.46 115.43 L 45.17 114.97 L 45.03 114.43 L 45.00 113.86 L 45.00 113.28 L 45.00 112.69 L 45.00 112.11 L 45.04 111.53 L 45.18 111.01 L 45.47 110.54 L 45.77 110.08 L 45.96 109.57 Z M 31.14 93.06 L 31.43 92.63 L 31.83 92.29 L 32.30 92.09 L 32.83 92.01 L 33.38 92.00 L 33.94 92.00 L 34.50 92.00 L 35.05 92.01 L 35.59 92.06 L 36.08 92.23 L 36.49 92.55 L 36.80 92.96 L 36.95 93.46 L 36.99 94.00 L 37.00 94.56 L 37.00 95.12 L 37.00 95.67 L 37.00 96.23 L 37.00 96.79 L 37.02 97.34 L 37.12 97.86 L 37.37 98.32 L 37.67 98.75 L 37.88 99.21 L 37.90 99.70 L 37.71 100.17 L 37.38 100.57 L 36.95 100.86 L 36.51 101.04 L 36.18 101.28 L 36.10 101.67 L 36.26 102.13 L 36.55 102.56 L 36.82 103.01 L 36.96 103.51 L 37.01 104.04 L 37.09 104.52 L 37.32 104.85 L 37.75 104.97 L 38.29 105.00 L 38.85 105.00 L 39.41 105.00 L 39.96 105.01 L 40.51 105.04 L 41.01 105.19 L 41.43 105.48 L 41.75 105.89 L 41.91 106.37 L 41.87 106.86 L 41.62 107.30 L 41.25 107.66 L 40.79 107.89 L 40.27 107.98 L 39.71 108.00 L 39.16 108.00 L 38.60 108.00 L 38.04 108.00 L 37.48 108.00 L 36.92 108.00 L 36.36 108.00 L 35.81 107.99 L 35.28 107.91 L 34.81 107.70 L 34.42 107.36 L 34.14 106.92 L 34.02 106.41 L 34.00 105.86 L 34.00 105.31 L 33.98 104.77 L 33.85 104.34 L 33.57 104.12 L 33.23 104.19 L 33.02 104.53 L 32.84 104.99 L 32.56 105.43 L 32.27 105.86 L 32.10 106.34 L 32.13 106.83 L 32.35 107.29 L 32.65 107.72 L 32.89 108.18 L 32.98 108.70 L 33.02 109.23 L 33.15 109.67 L 33.46 109.91 L 33.94 109.99 L 34.49 110.00 L 35.04 110.01 L 35.58 110.06 L 36.07 110.23 L 36.50 110.53 L 36.91 110.91 L 37.30 111.31 L 37.65 111.72 L 37.88 112.18 L 37.98 112.70 L 38.02 113.24 L 38.10 113.77 L 38.32 114.24 L 38.63 114.67 L 38.87 115.12 L 38.98 115.64 L 39.02 116.17 L 39.13 116.62 L 39.42 116.89 L 39.88 116.98 L 40.43 117.00 L 40.98 117.00 L 41.54 117.00 L 42.10 117.01 L 42.63 117.07 L 43.12 117.25 L 43.55 117.55 L 44.00 117.82 L 44.49 117.99 L 44.98 118.16 L 45.42 118.43 L 45.86 118.73 L 46.34 118.92 L 46.87 118.99 L 47.42 119.00 L 47.98 119.01 L 48.52 119.05 L 49.02 119.19 L 49.44 119.49 L 49.76 119.90 L 49.91 120.38 L 49.86 120.87 L 49.61 121.31 L 49.23 121.67 L 48.77 121.90 L 48.25 121.98 L 47.70 122.00 L 47.14 122.00 L 46.58 122.00 L 46.03 122.01 L 45.53 122.06 L 45.16 122.27 L 44.96 122.66 L 44.75 123.11 L 44.43 123.52 L 44.00 123.82 L 43.50 123.96 L 42.96 123.99 L 42.40 124.00 L 41.85 124.00 L 41.29 124.00 L 40.73 124.00 L 40.17 124.00 L 39.62 123.98 L 39.11 123.87 L 38.67 123.60 L 38.32 123.21 L 38.08 122.75 L 37.92 122.26 L 37.70 121.79 L 37.39 121.36 L 37.13 120.91 L 36.97 120.42 L 36.78 119.94 L 36.50 119.50 L 36.21 119.06 L 36.02 118.60 L 35.81 118.21 L 35.44 118.00 L 34.98 117.82 L 34.54 117.54 L 34.11 117.25 L 33.65 117.10 L 33.26 117.19 L 33.09 117.52 L 33.17 117.97 L 33.43 118.41 L 33.73 118.85 L 33.90 119.32 L 33.88 119.81 L 33.66 120.27 L 33.35 120.70 L 33.11 121.16 L 32.95 121.65 L 32.74 122.13 L 32.41 122.53 L 31.99 122.82 L 31.49 122.96 L 30.96 123.01 L 30.47 123.09 L 30.15 123.32 L 30.02 123.76 L 29.98 124.29 L 29.89 124.80 L 29.65 125.26 L 29.29 125.63 L 28.84 125.87 L 28.35 125.91 L 27.88 125.74 L 27.47 125.42 L 27.17 125.00 L 26.99 124.54 L 26.77 124.18 L 26.38 123.97 L 25.92 123.77 L 25.51 123.46 L 25.21 123.04 L 25.08 122.56 L 25.15 122.06 L 25.42 121.63 L 25.82 121.29 L 26.29 121.09 L 26.82 121.01 L 27.37 121.00 L 27.93 121.00 L 28.48 120.96 L 28.98 120.83 L 29.41 120.54 L 29.73 120.14 L 29.90 119.66 L 29.87 119.17 L 29.65 118.71 L 29.35 118.28 L 29.10 117.84 L 28.91 117.41 L 28.63 117.14 L 28.21 117.12 L 27.76 117.32 L 27.33 117.63 L 26.87 117.87 L 26.36 117.98 L 25.81 118.00 L 25.25 118.00 L 24.70 117.98 L 24.18 117.88 L 23.73 117.64 L 23.36 117.27 L 23.10 116.82 L 22.94 116.33 L 22.74 115.86 L 22.44 115.42 L 22.17 114.98 L 22.03 114.47 L 22.00 113.93 L 22.00 113.37 L 21.99 112.82 L 21.91 112.29 L 21.71 111.81 L 21.40 111.38 L 21.13 110.93 L 20.97 110.44 L 20.80 109.96 L 20.51 109.51 L 20.23 109.07 L 20.08 108.59 L 20.14 108.10 L 20.40 107.65 L 20.76 107.25 L 21.15 106.85 L 21.56 106.48 L 21.99 106.18 L 22.49 106.04 L 23.04 106.01 L 23.59 106.00 L 24.15 106.00 L 24.71 106.00 L 25.25 105.97 L 25.68 105.85 L 25.91 105.52 L 25.99 105.04 L 26.00 104.49 L 26.00 103.93 L 26.00 103.38 L 26.01 102.82 L 26.09 102.29 L 26.29 101.82 L 26.63 101.42 L 27.07 101.14 L 27.57 101.03 L 28.12 101.01 L 28.65 101.08 L 29.13 101.26 L 29.57 101.56 L 30.01 101.82 L 30.46 101.91 L 30.82 101.75 L 30.97 101.35 L 30.98 100.82 L 30.91 100.30 L 30.71 99.82 L 30.41 99.39 L 30.15 98.94 L 30.08 98.45 L 30.21 97.96 L 30.51 97.55 L 30.92 97.23 L 31.38 97.03 L 31.76 96.82 L 31.91 96.46 L 31.82 96.01 L 31.55 95.56 L 31.26 95.13 L 31.08 94.65 L 31.01 94.11 L 31.03 93.57 Z M 60.00 71.00 L 60.37 70.64 L 60.76 70.32 L 61.19 70.11 L 61.65 70.08 L 62.09 70.23 L 62.48 70.52 L 62.77 70.91 L 62.92 71.35 L 62.89 71.81 L 62.68 72.24 L 62.36 72.63 L 62.00 73.00 L 61.63 73.36 L 61.24 73.68 L 60.81 73.89 L 60.35 73.92 L 59.91 73.77 L 59.52 73.48 L 59.23 73.09 L 59.08 72.65 L 59.11 72.19 L 59.32 71.76 L 59.64 71.37 Z" fill="rgb(20,20,18)" fill-rule="evenodd"/>
  <path d="M 41.05 133.15 L 40.63 133.43 L 40.29 133.83 L 40.11 134.30 L 40.12 134.79 L 40.33 135.26 L 40.64 135.69 L 40.87 136.15 L 40.91 136.64 L 40.74 137.12 L 40.42 137.53 L 39.99 137.82 L 39.50 137.92 L 39.01 137.82 L 38.56 137.55 L 38.12 137.26 L 37.65 137.09 L 37.15 137.13 L 36.69 137.36 L 36.26 137.66 L 35.80 137.88 L 35.30 137.90 L 34.83 137.71 L 34.39 137.41 L 33.95 137.15 L 33.45 137.08 L 32.96 137.21 L 32.54 137.51 L 32.23 137.93 L 32.08 138.41 L 32.14 138.90 L 32.40 139.34 L 32.80 139.69 L 33.26 139.90 L 33.79 139.99 L 34.34 140.02 L 34.86 140.12 L 35.32 140.37 L 35.75 140.67 L 36.22 140.89 L 36.75 140.98 L 37.31 141.00 L 37.87 141.00 L 38.42 141.02 L 38.93 141.14 L 39.37 141.42 L 39.71 141.82 L 39.93 142.29 L 40.09 142.78 L 40.33 143.25 L 40.63 143.68 L 40.88 144.15 L 40.98 144.66 L 41.02 145.20 L 41.14 145.64 L 41.44 145.90 L 41.92 145.98 L 42.47 146.00 L 43.03 146.00 L 43.59 146.00 L 44.14 145.99 L 44.68 145.92 L 45.16 145.72 L 45.56 145.39 L 45.84 144.96 L 45.90 144.51 L 45.72 144.16 L 45.33 143.96 L 44.88 143.74 L 44.47 143.42 L 44.18 142.99 L 44.04 142.48 L 44.00 141.94 L 44.00 141.38 L 44.00 140.81 L 44.00 140.25 L 44.00 139.69 L 44.00 139.13 L 44.02 138.58 L 44.14 138.07 L 44.43 137.63 L 44.82 137.29 L 45.28 137.06 L 45.68 136.86 L 45.94 136.53 L 46.12 136.09 L 46.40 135.66 L 46.79 135.31 L 47.24 135.07 L 47.65 134.88 L 47.90 134.56 L 47.98 134.08 L 47.95 133.58 L 47.79 133.21 L 47.46 133.12 L 47.16 133.32 L 47.03 133.74 L 46.98 134.27 L 46.89 134.79 L 46.65 135.25 L 46.29 135.63 L 45.84 135.88 L 45.32 135.98 L 44.76 136.00 L 44.20 136.00 L 43.65 135.98 L 43.13 135.87 L 42.69 135.61 L 42.33 135.23 L 42.10 134.77 L 42.02 134.24 L 41.97 133.71 L 41.83 133.29 L 41.50 133.10 Z M 28.20 105.20 L 27.98 105.58 L 27.79 106.04 L 27.49 106.48 L 27.11 106.89 L 26.71 107.28 L 26.29 107.63 L 25.84 107.87 L 25.34 107.90 L 24.86 107.73 L 24.42 107.44 L 23.97 107.17 L 23.48 107.08 L 22.99 107.19 L 22.56 107.49 L 22.24 107.90 L 22.07 108.39 L 22.02 108.93 L 22.05 109.44 L 22.24 109.82 L 22.63 110.03 L 23.09 110.24 L 23.50 110.56 L 23.80 110.98 L 23.95 111.48 L 23.99 112.03 L 24.00 112.59 L 24.00 113.15 L 24.00 113.72 L 24.00 114.28 L 24.00 114.85 L 24.00 115.41 L 24.01 115.97 L 24.07 116.47 L 24.26 116.81 L 24.59 116.87 L 24.88 116.64 L 25.08 116.23 L 25.32 115.78 L 25.68 115.39 L 26.12 115.14 L 26.62 115.09 L 27.10 115.24 L 27.54 115.54 L 27.99 115.82 L 28.48 115.99 L 28.98 116.16 L 29.42 116.44 L 29.86 116.74 L 30.34 116.94 L 30.84 117.11 L 31.29 117.37 L 31.65 117.75 L 31.89 118.21 L 31.98 118.73 L 32.03 119.26 L 32.16 119.69 L 32.46 119.89 L 32.79 119.79 L 32.91 119.43 L 32.80 118.97 L 32.52 118.53 L 32.23 118.08 L 32.09 117.60 L 32.14 117.10 L 32.40 116.66 L 32.80 116.31 L 33.26 116.11 L 33.76 116.12 L 34.22 116.32 L 34.66 116.62 L 35.12 116.88 L 35.61 117.04 L 36.09 117.24 L 36.51 117.56 L 36.81 117.99 L 36.99 118.48 L 37.16 118.97 L 37.43 119.42 L 37.73 119.86 L 37.94 120.34 L 38.11 120.83 L 38.37 121.28 L 38.74 121.65 L 39.20 121.89 L 39.73 121.98 L 40.26 121.97 L 40.69 121.84 L 40.94 121.52 L 41.13 121.07 L 41.42 120.64 L 41.82 120.30 L 42.29 120.09 L 42.82 120.01 L 43.38 120.00 L 43.94 120.00 L 44.49 120.04 L 45.00 120.18 L 45.45 120.46 L 45.89 120.75 L 46.38 120.93 L 46.91 120.98 L 47.43 120.95 L 47.79 120.78 L 47.88 120.45 L 47.67 120.15 L 47.24 120.03 L 46.70 120.00 L 46.14 120.00 L 45.58 119.98 L 45.07 119.86 L 44.62 119.58 L 44.21 119.21 L 43.81 118.81 L 43.40 118.44 L 42.96 118.15 L 42.44 118.03 L 41.89 118.00 L 41.33 118.00 L 40.76 118.00 L 40.20 118.00 L 39.64 117.98 L 39.13 117.87 L 38.68 117.61 L 38.32 117.22 L 38.10 116.75 L 38.02 116.22 L 37.98 115.67 L 37.88 115.15 L 37.64 114.69 L 37.33 114.25 L 37.11 113.78 L 37.02 113.25 L 36.98 112.70 L 36.88 112.18 L 36.64 111.73 L 36.27 111.36 L 35.81 111.13 L 35.32 111.10 L 34.84 111.28 L 34.40 111.58 L 33.95 111.84 L 33.46 111.92 L 32.97 111.80 L 32.55 111.49 L 32.23 111.08 L 32.06 110.58 L 32.01 110.04 L 32.00 109.48 L 31.99 108.92 L 31.93 108.38 L 31.75 107.89 L 31.46 107.45 L 31.18 107.00 L 31.04 106.50 L 30.99 105.96 L 30.91 105.47 L 30.67 105.15 L 30.23 105.03 L 29.69 105.00 L 29.13 105.00 L 28.60 105.04 Z M 27.13 109.05 L 27.37 108.67 L 27.70 108.34 L 28.09 108.12 L 28.54 108.02 L 29.01 108.00 L 29.49 108.02 L 29.94 108.12 L 30.32 108.36 L 30.65 108.69 L 30.88 109.08 L 30.96 109.51 L 30.87 109.95 L 30.63 110.33 L 30.30 110.66 L 29.91 110.88 L 29.46 110.98 L 28.99 111.00 L 28.51 110.98 L 28.06 110.88 L 27.68 110.64 L 27.35 110.31 L 27.12 109.92 L 27.04 109.49 Z M 61.21 101.19 L 61.11 101.52 L 61.29 101.83 L 61.70 101.97 L 62.23 102.01 L 62.75 102.10 L 63.21 102.32 L 63.60 102.67 L 63.88 103.09 L 64.06 103.53 L 64.31 103.86 L 64.71 104.06 L 65.17 104.28 L 65.59 104.61 L 65.99 104.99 L 66.38 105.38 L 66.78 105.78 L 67.17 106.17 L 67.54 106.58 L 67.83 107.02 L 67.96 107.52 L 67.99 108.06 L 67.94 108.59 L 67.77 109.08 L 67.45 109.49 L 67.04 109.80 L 66.54 109.95 L 66.00 109.99 L 65.45 110.00 L 64.89 110.00 L 64.33 110.00 L 63.77 110.00 L 63.22 110.00 L 62.66 110.00 L 62.10 110.00 L 61.58 110.04 L 61.20 110.21 L 61.03 110.61 L 61.00 111.14 L 61.00 111.69 L 60.98 112.24 L 60.90 112.76 L 60.68 113.23 L 60.34 113.65 L 59.95 114.05 L 59.55 114.43 L 59.13 114.74 L 58.65 114.91 L 58.16 114.87 L 57.72 114.63 L 57.35 114.26 L 57.13 113.81 L 57.10 113.32 L 57.27 112.85 L 57.57 112.42 L 57.83 111.98 L 57.91 111.53 L 57.75 111.19 L 57.43 111.12 L 57.13 111.33 L 56.93 111.74 L 56.70 112.19 L 56.36 112.58 L 55.94 112.87 L 55.49 113.05 L 55.16 113.29 L 55.03 113.71 L 55.03 114.22 L 55.14 114.66 L 55.45 114.93 L 55.88 115.11 L 56.31 115.38 L 56.67 115.76 L 56.91 116.22 L 57.07 116.71 L 57.29 117.17 L 57.62 117.57 L 58.05 117.86 L 58.54 118.02 L 59.03 118.20 L 59.46 118.49 L 59.87 118.87 L 60.26 119.26 L 60.62 119.67 L 60.89 120.11 L 61.07 120.55 L 61.33 120.85 L 61.77 120.97 L 62.28 120.97 L 62.70 120.84 L 62.92 120.50 L 63.00 120.01 L 63.04 119.48 L 63.19 118.98 L 63.48 118.55 L 63.86 118.15 L 64.25 117.75 L 64.66 117.39 L 65.11 117.13 L 65.62 117.02 L 66.17 117.00 L 66.73 117.00 L 67.28 116.98 L 67.80 116.89 L 68.26 116.66 L 68.70 116.36 L 69.14 116.11 L 69.57 115.92 L 69.84 115.67 L 69.84 115.33 L 69.57 115.08 L 69.14 114.89 L 68.71 114.63 L 68.35 114.25 L 68.11 113.80 L 68.02 113.28 L 68.02 112.74 L 68.11 112.22 L 68.33 111.75 L 68.63 111.32 L 68.88 110.86 L 68.98 110.34 L 69.00 109.79 L 69.00 109.24 L 69.00 108.68 L 69.00 108.12 L 69.00 107.56 L 68.99 107.01 L 68.95 106.47 L 68.80 105.97 L 68.52 105.53 L 68.23 105.09 L 68.06 104.60 L 68.00 104.07 L 67.95 103.56 L 67.77 103.19 L 67.36 103.03 L 66.84 103.00 L 66.28 103.00 L 65.72 103.00 L 65.17 103.00 L 64.62 102.98 L 64.11 102.87 L 63.67 102.60 L 63.32 102.21 L 63.08 101.77 L 62.88 101.36 L 62.57 101.10 L 62.10 101.02 L 61.59 101.04 Z M 63.15 113.06 L 63.44 112.62 L 63.86 112.28 L 64.35 112.10 L 64.86 112.14 L 65.33 112.38 L 65.78 112.68 L 66.26 112.92 L 66.77 113.09 L 67.24 113.34 L 67.63 113.72 L 67.86 114.18 L 67.89 114.69 L 67.70 115.17 L 67.36 115.58 L 66.90 115.86 L 66.37 115.98 L 65.80 116.00 L 65.22 116.00 L 64.65 115.98 L 64.12 115.86 L 63.66 115.59 L 63.31 115.19 L 63.09 114.70 L 63.02 114.15 L 63.03 113.59 Z M 32.19 93.19 L 32.03 93.54 L 32.01 94.02 L 32.03 94.52 L 32.15 94.98 L 32.41 95.37 L 32.77 95.69 L 33.19 95.89 L 33.65 95.92 L 34.09 95.78 L 34.48 95.50 L 34.85 95.15 L 35.21 94.79 L 35.55 94.42 L 35.82 94.03 L 35.93 93.60 L 35.83 93.24 L 35.51 93.06 L 35.05 93.01 L 34.55 93.00 L 34.04 93.00 L 33.53 93.00 L 33.02 93.00 L 32.54 93.03 Z M 94.20 90.22 L 94.04 90.61 L 94.00 91.14 L 94.00 91.71 L 94.00 92.28 L 94.00 92.84 L 93.98 93.40 L 93.86 93.92 L 93.57 94.37 L 93.17 94.71 L 92.70 94.93 L 92.20 95.10 L 91.73 95.34 L 91.29 95.65 L 90.83 95.90 L 90.41 96.10 L 90.14 96.39 L 90.13 96.82 L 90.35 97.27 L 90.65 97.71 L 90.87 98.18 L 90.90 98.68 L 90.71 99.16 L 90.38 99.57 L 89.94 99.86 L 89.44 100.03 L 88.95 100.21 L 88.53 100.53 L 88.22 100.95 L 88.05 101.45 L 88.01 102.00 L 88.00 102.57 L 88.00 103.14 L 88.00 103.71 L 87.98 104.27 L 87.89 104.80 L 87.66 105.27 L 87.35 105.71 L 87.10 106.18 L 86.94 106.68 L 86.72 107.16 L 86.39 107.59 L 86.00 108.00 L 85.60 108.40 L 85.20 108.80 L 84.79 109.20 L 84.38 109.58 L 83.93 109.85 L 83.43 109.92 L 82.94 109.77 L 82.52 109.46 L 82.21 109.03 L 82.05 108.53 L 82.00 107.99 L 81.92 107.50 L 81.69 107.15 L 81.29 106.94 L 80.82 106.71 L 80.38 106.41 L 79.92 106.14 L 79.41 106.03 L 78.86 106.02 L 78.40 106.12 L 78.10 106.40 L 77.90 106.83 L 77.64 107.28 L 77.26 107.65 L 76.80 107.89 L 76.27 107.98 L 75.73 108.03 L 75.31 108.16 L 75.11 108.47 L 75.21 108.81 L 75.58 109.02 L 76.05 109.21 L 76.47 109.53 L 76.78 109.95 L 76.92 110.44 L 76.85 110.94 L 76.57 111.39 L 76.19 111.80 L 75.79 112.20 L 75.38 112.58 L 74.92 112.86 L 74.41 112.98 L 73.86 113.02 L 73.40 113.12 L 73.15 113.38 L 73.18 113.71 L 73.50 113.90 L 73.95 113.84 L 74.40 113.59 L 74.84 113.28 L 75.32 113.10 L 75.82 113.13 L 76.29 113.35 L 76.73 113.66 L 77.20 113.87 L 77.70 113.89 L 78.17 113.71 L 78.62 113.41 L 79.07 113.13 L 79.57 112.97 L 80.06 112.78 L 80.51 112.49 L 80.96 112.20 L 81.47 112.05 L 82.02 112.00 L 82.56 111.94 L 83.06 111.78 L 83.51 111.49 L 83.96 111.20 L 84.46 111.02 L 84.96 110.85 L 85.40 110.56 L 85.82 110.18 L 86.22 109.78 L 86.59 109.37 L 86.87 108.91 L 87.04 108.41 L 87.23 107.92 L 87.54 107.48 L 87.93 107.08 L 88.33 106.68 L 88.76 106.33 L 89.21 106.08 L 89.63 105.88 L 89.91 105.57 L 90.11 105.14 L 90.38 104.70 L 90.76 104.34 L 91.21 104.08 L 91.63 103.88 L 91.89 103.57 L 91.99 103.09 L 92.03 102.55 L 92.16 102.04 L 92.46 101.60 L 92.87 101.26 L 93.33 101.05 L 93.72 100.84 L 93.93 100.47 L 93.99 99.96 L 94.00 99.40 L 94.00 98.83 L 94.00 98.26 L 94.00 97.69 L 94.00 97.12 L 94.00 96.55 L 94.00 95.98 L 94.00 95.41 L 94.01 94.85 L 94.09 94.31 L 94.29 93.83 L 94.59 93.38 L 94.86 92.92 L 94.98 92.40 L 95.00 91.84 L 95.00 91.28 L 94.97 90.74 L 94.84 90.31 L 94.53 90.11 Z" fill="rgb(85,85,81)" fill-rule="evenodd"/>
  <path d="M 148.06 90.13 L 147.65 90.39 L 147.32 90.75 L 147.10 91.18 L 147.02 91.66 L 147.02 92.15 L 147.09 92.59 L 147.33 92.87 L 147.73 92.98 L 148.23 93.00 L 148.75 93.00 L 149.26 93.00 L 149.78 93.00 L 150.27 92.98 L 150.68 92.87 L 150.91 92.59 L 150.99 92.15 L 151.00 91.64 L 151.00 91.13 L 150.97 90.64 L 150.84 90.25 L 150.52 90.06 L 150.06 90.01 L 149.55 90.00 L 149.03 90.00 L 148.53 90.02 Z" fill="rgb(252,252,252)" fill-rule="evenodd"/>
</svg>