<svg xmlns="http://www.w3.org/2000/svg" width="155" height="146" viewBox="0 0 155 146" role="img" aria-label="13_icons_13">
  <title>13_icons_13</title>
  <path d="M 134.12 3.31 L 132.79 3.70 L 131.39 3.94 L 129.91 4.00 L 128.44 4.07 L 127.04 4.33 L 125.70 4.72 L 124.29 4.95 L 122.81 5.00 L 121.31 5.00 L 119.81 5.00 L 118.31 5.00 L 116.81 5.01 L 115.34 5.09 L 113.95 5.36 L 112.61 5.74 L 111.21 5.98 L 109.79 6.19 L 108.43 6.50 L 107.11 6.71 L 105.78 6.56 L 104.43 6.23 L 103.01 6.04 L 101.53 6.01 L 100.05 6.04 L 98.62 6.23 L 97.26 6.58 L 95.88 6.87 L 94.43 6.98 L 92.93 7.00 L 91.43 7.00 L 89.93 7.00 L 88.43 7.00 L 86.93 7.00 L 85.43 7.00 L 83.94 7.05 L 82.52 7.24 L 81.17 7.61 L 79.78 7.88 L 78.32 7.98 L 76.83 7.99 L 75.36 7.91 L 73.97 7.65 L 72.63 7.27 L 71.23 7.09 L 69.81 7.20 L 68.47 7.57 L 67.19 8.12 L 65.91 8.65 L 64.52 8.93 L 63.05 8.99 L 61.55 9.00 L 60.05 9.00 L 58.55 9.00 L 57.04 9.00 L 55.54 9.00 L 54.04 9.00 L 52.55 8.98 L 51.09 8.86 L 49.71 8.57 L 48.36 8.22 L 46.95 8.09 L 45.62 8.32 L 44.63 9.04 L 44.21 10.20 L 44.35 11.49 L 45.04 12.54 L 46.10 13.37 L 47.21 14.27 L 48.29 15.29 L 49.33 16.36 L 50.28 17.44 L 51.16 18.43 L 52.13 19.30 L 53.18 20.22 L 54.25 21.25 L 55.31 22.31 L 56.38 23.34 L 57.50 24.27 L 58.67 25.09 L 59.81 25.94 L 60.91 26.93 L 61.97 27.98 L 63.04 29.04 L 64.10 30.10 L 65.16 31.16 L 66.23 32.20 L 67.34 33.16 L 68.49 34.00 L 69.61 34.85 L 70.55 35.86 L 71.36 36.95 L 72.29 37.89 L 73.16 38.78 L 73.43 39.81 L 72.92 40.89 L 72.01 41.84 L 71.06 42.68 L 70.08 43.50 L 68.99 44.28 L 67.88 45.18 L 66.80 46.20 L 65.73 47.24 L 64.66 48.21 L 63.67 49.10 L 62.80 50.01 L 61.92 50.91 L 61.02 51.80 L 60.10 52.80 L 59.12 53.86 L 58.07 54.90 L 57.04 55.83 L 56.09 56.71 L 55.19 57.69 L 54.21 58.76 L 53.17 59.79 L 52.12 60.72 L 51.15 61.58 L 50.26 62.57 L 49.29 63.60 L 48.15 64.42 L 46.83 64.86 L 45.42 65.07 L 44.07 65.44 L 42.89 66.20 L 41.82 67.22 L 40.90 68.33 L 40.26 69.57 L 39.87 70.89 L 39.33 72.07 L 38.40 72.97 L 37.30 73.69 L 36.40 74.50 L 35.77 75.58 L 35.05 76.75 L 34.11 77.83 L 33.09 78.77 L 32.13 79.63 L 31.21 80.59 L 30.19 81.49 L 29.10 82.30 L 28.15 83.27 L 27.33 84.37 L 26.39 85.35 L 25.41 86.21 L 24.50 87.07 L 23.43 87.76 L 22.19 88.32 L 21.01 89.10 L 19.92 90.09 L 18.86 91.15 L 17.79 92.21 L 16.73 93.27 L 15.67 94.33 L 14.61 95.39 L 13.58 96.47 L 12.66 97.59 L 11.87 98.76 L 11.00 99.91 L 10.05 101.01 L 9.17 102.13 L 8.32 103.17 L 7.32 104.06 L 6.21 104.93 L 5.12 105.91 L 4.16 106.95 L 3.62 107.97 L 3.88 108.88 L 4.80 109.62 L 5.88 110.36 L 6.69 111.36 L 7.28 112.53 L 8.06 113.41 L 8.97 113.57 L 9.42 113.00 L 9.33 111.95 L 9.33 110.69 L 9.85 109.51 L 10.80 108.70 L 11.89 108.61 L 12.80 109.31 L 13.42 110.48 L 13.77 111.80 L 13.75 113.16 L 13.29 114.44 L 12.70 115.65 L 12.56 116.84 L 13.11 117.98 L 14.00 119.09 L 14.86 120.23 L 15.66 121.40 L 16.57 122.53 L 17.57 123.61 L 18.48 124.68 L 19.38 125.58 L 20.48 126.20 L 21.66 126.89 L 22.74 127.83 L 23.64 128.94 L 24.43 130.10 L 25.36 131.13 L 26.48 131.99 L 27.63 132.82 L 28.74 133.77 L 29.81 134.81 L 30.87 135.87 L 31.95 136.89 L 33.06 137.80 L 34.12 138.62 L 35.02 139.61 L 35.88 140.72 L 36.87 141.78 L 37.96 142.68 L 39.06 143.46 L 40.06 144.22 L 41.10 144.70 L 42.17 144.62 L 43.14 144.02 L 44.23 143.37 L 45.53 142.99 L 46.86 142.60 L 47.98 141.82 L 48.87 140.73 L 49.68 139.57 L 50.56 138.43 L 51.42 137.29 L 52.20 136.11 L 53.09 134.98 L 54.11 133.90 L 55.17 132.83 L 56.24 131.79 L 57.34 130.84 L 58.50 130.00 L 59.66 129.20 L 60.78 128.39 L 61.79 127.58 L 62.71 126.73 L 63.71 125.88 L 64.66 124.96 L 65.52 123.98 L 66.58 123.25 L 67.81 122.71 L 68.95 122.07 L 69.92 121.26 L 70.79 120.26 L 71.59 119.12 L 72.27 117.90 L 72.97 116.72 L 73.81 115.70 L 74.84 114.85 L 75.91 113.94 L 76.82 112.88 L 77.62 111.82 L 78.46 110.88 L 79.32 109.96 L 80.33 109.14 L 81.49 108.47 L 82.55 107.74 L 83.42 106.78 L 84.34 105.71 L 85.36 104.64 L 86.42 103.58 L 87.50 102.55 L 88.58 101.63 L 89.58 100.76 L 90.44 99.77 L 91.36 98.69 L 92.38 97.62 L 93.44 96.56 L 94.50 95.50 L 95.58 94.47 L 96.67 93.56 L 97.68 92.71 L 98.54 91.74 L 99.51 90.80 L 100.65 90.12 L 101.72 89.47 L 102.63 88.56 L 103.56 87.49 L 104.60 86.45 L 105.69 85.55 L 106.70 84.70 L 107.57 83.72 L 108.53 82.79 L 109.67 82.11 L 110.75 81.49 L 111.71 80.82 L 112.72 80.59 L 113.67 81.12 L 114.51 82.07 L 115.46 82.98 L 116.41 83.90 L 117.23 84.96 L 118.13 86.07 L 119.15 87.15 L 120.19 88.22 L 121.15 89.33 L 121.99 90.48 L 122.82 91.64 L 123.78 92.74 L 124.82 93.82 L 125.88 94.88 L 126.94 95.94 L 128.00 97.00 L 129.05 98.07 L 130.04 99.16 L 130.90 100.31 L 131.71 101.48 L 132.59 102.61 L 133.46 103.75 L 134.23 104.93 L 135.11 106.07 L 136.07 107.14 L 136.99 108.07 L 137.86 108.53 L 138.59 108.20 L 138.93 107.12 L 139.01 105.70 L 139.11 104.24 L 139.39 102.86 L 139.75 101.51 L 139.95 100.09 L 140.02 98.61 L 140.13 97.16 L 140.41 95.77 L 140.77 94.42 L 141.00 93.01 L 141.22 91.60 L 141.58 90.25 L 141.87 88.87 L 141.98 87.41 L 142.01 85.92 L 142.07 84.45 L 142.33 83.05 L 142.76 81.73 L 143.21 80.41 L 143.66 79.10 L 144.09 77.77 L 144.50 76.44 L 144.83 75.07 L 144.97 73.63 L 145.00 72.14 L 145.00 70.64 L 145.00 69.14 L 145.00 67.64 L 145.00 66.14 L 145.06 64.66 L 145.29 63.25 L 145.69 61.91 L 145.96 60.52 L 146.13 59.09 L 146.43 57.72 L 146.78 56.36 L 147.00 54.95 L 147.24 53.54 L 147.60 52.19 L 147.88 50.81 L 147.99 49.35 L 148.05 47.87 L 148.26 46.46 L 148.63 45.11 L 148.91 43.72 L 149.09 42.30 L 149.37 40.91 L 149.80 39.59 L 150.24 38.27 L 150.67 36.95 L 150.93 35.55 L 150.99 34.07 L 151.00 32.58 L 151.00 31.07 L 151.00 29.57 L 151.00 28.07 L 151.06 26.59 L 151.30 25.19 L 151.74 23.87 L 152.18 22.55 L 152.58 21.22 L 152.87 19.84 L 152.98 18.38 L 153.00 16.88 L 153.03 15.39 L 153.16 13.95 L 153.48 12.58 L 153.81 11.21 L 153.97 9.78 L 154.00 8.29 L 153.99 6.79 L 153.88 5.35 L 153.45 4.12 L 152.50 3.35 L 151.17 3.06 L 149.71 3.06 L 148.31 3.28 L 146.97 3.67 L 145.57 3.92 L 144.09 3.99 L 142.60 4.00 L 141.10 4.00 L 139.62 3.94 L 138.22 3.70 L 136.88 3.31 L 135.50 3.12 Z M 38.15 140.06 L 38.41 139.64 L 38.80 139.30 L 39.26 139.09 L 39.77 139.02 L 40.30 139.02 L 40.81 139.11 L 41.25 139.34 L 41.62 139.69 L 41.88 140.13 L 41.98 140.63 L 41.99 141.16 L 41.92 141.67 L 41.73 142.14 L 41.41 142.54 L 41.00 142.82 L 40.52 142.93 L 40.04 142.85 L 39.61 142.58 L 39.22 142.22 L 38.83 141.83 L 38.47 141.44 L 38.19 141.01 L 38.07 140.54 Z M 34.15 132.06 L 34.43 131.62 L 34.84 131.28 L 35.33 131.08 L 35.87 131.02 L 36.42 131.03 L 36.94 131.15 L 37.38 131.43 L 37.72 131.84 L 37.92 132.33 L 37.99 132.87 L 38.00 133.43 L 38.01 134.00 L 38.05 134.55 L 38.21 135.05 L 38.50 135.50 L 38.78 135.95 L 38.92 136.44 L 38.85 136.94 L 38.57 137.38 L 38.16 137.72 L 37.67 137.92 L 37.13 137.98 L 36.58 137.97 L 36.06 137.85 L 35.62 137.57 L 35.28 137.16 L 35.08 136.67 L 35.01 136.13 L 35.00 135.57 L 34.99 135.00 L 34.95 134.45 L 34.79 133.95 L 34.50 133.50 L 34.22 133.05 L 34.08 132.56 Z" fill="rgb(236,14,12)" fill-rule="evenodd"/>
  <path d="M 133.18 0.18 L 133.03 0.53 L 133.00 1.00 L 133.03 1.47 L 133.18 1.82 L 133.53 1.97 L 134.00 2.00 L 134.50 2.00 L 135.00 2.00 L 135.50 2.00 L 136.00 2.00 L 136.50 2.00 L 137.00 2.00 L 137.50 2.00 L 138.00 2.00 L 138.50 2.00 L 139.00 2.00 L 139.50 2.00 L 140.00 2.00 L 140.50 2.00 L 141.00 2.00 L 141.50 2.00 L 142.00 2.00 L 142.50 2.00 L 143.00 2.00 L 143.50 2.00 L 144.00 2.00 L 144.50 2.00 L 145.00 2.00 L 145.50 2.00 L 146.00 2.00 L 146.47 1.97 L 146.82 1.82 L 146.97 1.47 L 147.00 1.00 L 146.97 0.53 L 146.82 0.18 L 146.47 0.03 L 146.00 0.00 L 145.50 0.00 L 145.00 0.00 L 144.50 0.00 L 144.00 0.00 L 143.50 0.00 L 143.00 0.00 L 142.50 0.00 L 142.00 0.00 L 141.50 0.00 L 141.00 0.00 L 140.50 0.00 L 140.00 0.00 L 139.50 0.00 L 139.00 0.00 L 138.50 0.00 L 138.00 0.00 L 137.50 0.00 L 137.00 0.00 L 136.50 0.00 L 136.00 0.00 L 135.50 0.00 L 135.00 0.00 L 134.50 0.00 L 134.00 0.00 L 133.53 0.03 Z" fill="rgb(253,252,252)" fill-rule="evenodd"/>
</svg>