<svg xmlns="http://www.w3.org/2000/svg" width="151" height="145" viewBox="0 0 151 145" role="img" aria-label="14_icons_14">
  <title>14_icons_14</title>
  <path d="M 43.20 3.46 L 42.20 4.23 L 41.39 5.34 L 40.48 6.46 L 39.46 7.54 L 38.44 8.62 L 37.55 9.75 L 36.76 10.92 L 35.83 11.96 L 34.67 12.71 L 33.38 13.22 L 32.11 13.77 L 30.91 14.45 L 29.87 15.37 L 29.01 16.48 L 28.17 17.60 L 27.20 18.56 L 26.23 19.43 L 25.37 20.43 L 24.44 21.51 L 23.45 22.60 L 22.56 23.74 L 21.78 24.92 L 20.89 26.05 L 19.86 27.11 L 18.80 28.10 L 17.81 29.02 L 16.91 29.95 L 15.98 30.96 L 14.94 31.96 L 13.81 32.84 L 12.64 33.63 L 11.51 34.54 L 10.43 35.57 L 9.37 36.63 L 8.35 37.71 L 7.45 38.83 L 6.64 39.94 L 5.67 40.87 L 4.59 41.71 L 3.71 42.72 L 3.35 43.94 L 3.64 45.16 L 4.47 46.19 L 5.60 47.00 L 6.81 47.68 L 7.95 48.40 L 8.90 49.32 L 9.79 50.30 L 10.83 51.14 L 11.91 52.03 L 12.86 53.00 L 13.74 53.93 L 14.73 54.84 L 15.80 55.82 L 16.86 56.87 L 17.93 57.93 L 18.98 58.99 L 19.99 60.05 L 20.92 61.06 L 21.84 61.95 L 22.91 62.70 L 24.07 63.41 L 25.11 64.33 L 25.99 65.40 L 26.89 66.39 L 27.95 67.22 L 29.06 68.12 L 30.14 69.14 L 31.20 70.20 L 32.26 71.26 L 33.33 72.32 L 34.40 73.36 L 35.52 74.28 L 36.68 75.10 L 37.83 75.96 L 38.92 76.94 L 39.99 77.99 L 41.05 79.05 L 42.12 80.12 L 43.18 81.18 L 44.24 82.24 L 45.30 83.30 L 46.36 84.36 L 47.43 85.42 L 48.50 86.45 L 49.63 87.36 L 50.80 88.16 L 51.94 89.03 L 53.02 90.04 L 54.01 91.12 L 54.89 92.23 L 55.76 93.26 L 56.79 94.12 L 57.89 95.00 L 58.91 96.03 L 59.68 97.21 L 60.23 98.48 L 60.92 99.69 L 61.87 100.76 L 63.02 101.57 L 64.28 102.15 L 65.51 102.79 L 66.59 103.71 L 67.39 104.83 L 67.64 106.06 L 67.22 107.17 L 66.29 108.07 L 65.19 108.94 L 64.10 109.93 L 63.03 110.97 L 61.96 112.03 L 60.90 113.08 L 59.80 114.06 L 58.65 114.92 L 57.49 115.74 L 56.37 116.67 L 55.30 117.70 L 54.24 118.76 L 53.16 119.78 L 52.02 120.68 L 50.85 121.46 L 49.74 122.36 L 48.78 123.43 L 47.95 124.59 L 47.11 125.74 L 46.13 126.84 L 45.09 127.91 L 44.03 128.96 L 42.94 129.97 L 41.84 130.86 L 40.86 131.72 L 40.37 132.80 L 40.58 133.94 L 41.41 134.90 L 42.54 135.69 L 43.73 136.37 L 45.01 136.68 L 46.32 136.53 L 47.67 136.21 L 49.10 136.04 L 50.59 136.00 L 52.09 136.00 L 53.59 136.00 L 55.09 136.00 L 56.59 136.03 L 58.03 136.16 L 59.41 136.47 L 60.76 136.83 L 62.13 137.14 L 63.47 137.44 L 64.74 137.54 L 66.02 137.31 L 67.41 137.08 L 68.88 137.01 L 70.38 137.00 L 71.86 137.04 L 73.29 137.21 L 74.66 137.55 L 76.03 137.85 L 77.47 138.00 L 78.92 138.14 L 80.28 138.39 L 81.55 138.55 L 82.80 138.44 L 84.06 138.46 L 85.36 138.74 L 86.77 138.95 L 88.25 139.00 L 89.75 139.00 L 91.25 139.00 L 92.74 139.03 L 94.18 139.19 L 95.55 139.51 L 96.92 139.83 L 98.36 139.97 L 99.84 140.04 L 101.27 140.20 L 102.63 140.54 L 104.01 140.85 L 105.45 141.00 L 106.89 141.13 L 108.27 141.43 L 109.63 141.78 L 111.06 141.96 L 112.54 142.00 L 114.05 142.00 L 115.55 142.00 L 117.03 142.04 L 118.45 142.23 L 119.77 142.52 L 121.05 142.54 L 122.33 142.31 L 123.64 142.32 L 124.95 142.69 L 126.28 143.11 L 127.61 143.52 L 128.98 143.84 L 130.43 143.97 L 131.92 144.00 L 133.42 144.00 L 134.92 144.00 L 136.42 144.00 L 137.93 144.00 L 139.43 144.00 L 140.93 144.00 L 142.43 144.00 L 143.93 144.00 L 145.43 144.00 L 146.88 143.94 L 148.12 143.65 L 149.01 142.93 L 149.51 141.87 L 149.49 140.63 L 149.20 139.29 L 148.99 137.88 L 148.75 136.48 L 148.38 135.13 L 148.11 133.74 L 148.01 132.28 L 147.99 130.78 L 147.90 129.32 L 147.64 127.93 L 147.26 126.58 L 147.01 125.18 L 146.81 123.76 L 146.47 122.40 L 146.16 121.03 L 145.97 119.60 L 145.73 118.22 L 145.44 116.94 L 145.45 115.68 L 145.54 114.42 L 145.35 113.14 L 145.10 111.78 L 144.93 110.35 L 144.65 108.96 L 144.27 107.62 L 144.05 106.20 L 144.00 104.72 L 144.00 103.22 L 144.00 101.72 L 143.97 100.23 L 143.81 98.80 L 143.46 97.44 L 143.04 96.11 L 142.62 94.78 L 142.24 93.44 L 142.04 92.01 L 142.00 90.53 L 141.96 89.04 L 141.77 87.62 L 141.42 86.26 L 141.13 84.88 L 141.02 83.43 L 140.96 81.95 L 140.76 80.53 L 140.40 79.18 L 140.12 77.79 L 140.02 76.33 L 140.00 74.83 L 140.00 73.33 L 139.95 71.85 L 139.74 70.44 L 139.36 69.09 L 139.05 67.72 L 138.72 66.35 L 138.19 65.09 L 137.46 64.00 L 136.42 63.25 L 135.17 62.72 L 133.95 62.11 L 132.96 61.35 L 132.60 60.41 L 133.12 59.57 L 134.27 59.19 L 135.61 59.28 L 136.89 59.59 L 137.95 59.59 L 138.40 59.00 L 138.13 57.98 L 137.52 56.80 L 136.80 55.60 L 136.26 54.32 L 136.04 52.91 L 136.00 51.42 L 136.00 49.92 L 135.97 48.43 L 135.84 46.98 L 135.53 45.61 L 135.17 44.25 L 134.86 42.88 L 134.49 41.53 L 134.05 40.23 L 133.47 39.12 L 132.56 38.58 L 131.45 38.87 L 130.34 39.71 L 129.27 40.73 L 128.21 41.79 L 127.14 42.86 L 126.09 43.92 L 125.07 45.00 L 124.19 46.14 L 123.40 47.31 L 122.50 48.44 L 121.46 49.48 L 120.38 50.41 L 119.39 51.27 L 118.64 52.32 L 117.96 53.49 L 117.16 54.66 L 116.24 55.78 L 115.37 56.92 L 114.60 58.10 L 113.71 59.24 L 112.71 60.33 L 111.77 61.44 L 110.93 62.56 L 110.01 63.54 L 108.94 64.36 L 107.91 65.30 L 107.03 66.36 L 106.14 67.23 L 105.08 67.43 L 103.97 66.85 L 102.89 65.88 L 101.83 64.83 L 100.76 63.77 L 99.69 62.73 L 98.58 61.78 L 97.42 60.96 L 96.27 60.11 L 95.17 59.14 L 94.14 58.08 L 93.25 56.95 L 92.47 55.77 L 91.61 54.62 L 90.72 53.49 L 89.91 52.33 L 89.03 51.22 L 88.00 50.29 L 86.93 49.46 L 86.03 48.47 L 85.18 47.36 L 84.22 46.25 L 83.18 45.18 L 82.12 44.12 L 81.10 43.04 L 80.21 41.91 L 79.43 40.73 L 78.54 39.59 L 77.51 38.52 L 76.45 37.45 L 75.39 36.39 L 74.31 35.37 L 73.19 34.47 L 72.08 33.67 L 71.14 32.69 L 70.32 31.56 L 69.40 30.45 L 68.35 29.42 L 67.20 28.63 L 65.93 28.31 L 64.64 28.43 L 63.44 28.46 L 62.55 27.87 L 62.13 26.68 L 61.98 25.26 L 61.78 23.84 L 61.28 22.54 L 60.57 21.34 L 59.82 20.14 L 58.98 19.01 L 58.10 17.98 L 57.20 17.08 L 56.15 16.33 L 55.05 15.59 L 54.14 14.62 L 53.47 13.43 L 52.84 12.21 L 52.13 11.08 L 51.35 10.09 L 50.54 9.11 L 49.75 8.02 L 48.86 6.91 L 47.83 5.84 L 46.76 4.80 L 45.64 3.89 L 44.42 3.35 Z M 83.13 116.05 L 83.37 115.67 L 83.70 115.34 L 84.09 115.12 L 84.54 115.02 L 85.01 115.00 L 85.49 115.02 L 85.94 115.12 L 86.32 115.36 L 86.65 115.69 L 86.88 116.08 L 86.96 116.51 L 86.87 116.95 L 86.63 117.33 L 86.30 117.66 L 85.91 117.88 L 85.46 117.98 L 84.99 118.00 L 84.51 117.98 L 84.06 117.88 L 83.68 117.64 L 83.35 117.31 L 83.12 116.92 L 83.04 116.49 Z M 117.17 80.06 L 117.46 79.60 L 117.90 79.26 L 118.43 79.07 L 119.00 79.02 L 119.57 79.07 L 120.10 79.26 L 120.57 79.59 L 121.00 80.00 L 121.41 80.43 L 121.74 80.90 L 121.90 81.41 L 121.83 81.94 L 121.54 82.40 L 121.10 82.74 L 120.59 82.90 L 120.06 82.84 L 119.58 82.56 L 119.10 82.25 L 118.59 82.04 L 118.06 81.85 L 117.60 81.54 L 117.26 81.10 L 117.10 80.59 Z M 32.13 53.05 L 32.43 52.63 L 32.83 52.29 L 33.30 52.11 L 33.79 52.12 L 34.25 52.33 L 34.68 52.63 L 35.14 52.89 L 35.63 53.05 L 36.11 53.25 L 36.52 53.57 L 36.82 54.00 L 36.96 54.50 L 36.99 55.04 L 37.00 55.60 L 37.00 56.16 L 37.00 56.72 L 37.00 57.28 L 37.00 57.84 L 37.00 58.40 L 37.00 58.96 L 37.00 59.52 L 36.99 60.08 L 36.93 60.61 L 36.76 61.10 L 36.44 61.51 L 36.01 61.81 L 35.51 61.96 L 34.97 62.00 L 34.44 62.06 L 33.94 62.22 L 33.50 62.50 L 33.06 62.78 L 32.57 62.92 L 32.08 62.85 L 31.65 62.59 L 31.30 62.19 L 31.09 61.72 L 31.01 61.19 L 30.98 60.65 L 30.87 60.13 L 30.63 59.67 L 30.32 59.24 L 30.10 58.77 L 30.02 58.25 L 29.97 57.72 L 29.84 57.30 L 29.51 57.05 L 29.06 56.87 L 28.64 56.58 L 28.30 56.18 L 28.11 55.72 L 28.12 55.22 L 28.33 54.77 L 28.69 54.39 L 29.13 54.13 L 29.65 54.02 L 30.20 54.00 L 30.76 54.00 L 31.29 53.97 L 31.71 53.83 L 31.95 53.50 Z M 64.15 45.06 L 64.46 44.61 L 64.89 44.27 L 65.40 44.10 L 65.92 44.16 L 66.40 44.42 L 66.86 44.73 L 67.37 44.95 L 67.89 45.13 L 68.35 45.43 L 68.71 45.85 L 68.89 46.35 L 68.85 46.87 L 68.59 47.35 L 68.21 47.78 L 67.79 48.21 L 67.37 48.63 L 66.95 49.05 L 66.52 49.45 L 66.06 49.77 L 65.54 49.91 L 65.03 49.82 L 64.58 49.51 L 64.24 49.07 L 64.06 48.55 L 64.01 47.98 L 64.00 47.39 L 64.00 46.79 L 64.00 46.19 L 64.03 45.61 Z M 9.94 40.86 L 10.41 40.58 L 10.87 40.27 L 11.38 40.08 L 11.94 40.01 L 12.52 40.00 L 13.10 40.01 L 13.65 40.08 L 14.15 40.29 L 14.57 40.64 L 14.87 41.08 L 15.07 41.53 L 15.35 41.87 L 15.77 42.08 L 16.23 42.34 L 16.62 42.72 L 16.86 43.18 L 16.89 43.69 L 16.69 44.18 L 16.34 44.59 L 15.88 44.88 L 15.37 45.05 L 14.87 45.27 L 14.45 45.61 L 14.14 46.06 L 13.96 46.57 L 13.77 47.07 L 13.43 47.50 L 12.99 47.81 L 12.49 47.91 L 11.98 47.79 L 11.52 47.49 L 11.10 47.10 L 10.68 46.69 L 10.24 46.34 L 9.76 46.09 L 9.24 45.91 L 8.77 45.66 L 8.38 45.28 L 8.12 44.81 L 8.02 44.27 L 8.00 43.69 L 8.00 43.11 L 8.04 42.53 L 8.19 42.01 L 8.49 41.57 L 8.93 41.23 L 9.43 41.04 Z M 66.13 35.05 L 66.37 34.67 L 66.70 34.34 L 67.09 34.12 L 67.54 34.02 L 68.01 34.00 L 68.49 34.02 L 68.94 34.12 L 69.32 34.36 L 69.65 34.69 L 69.88 35.08 L 69.96 35.51 L 69.87 35.95 L 69.63 36.33 L 69.30 36.66 L 68.91 36.88 L 68.46 36.98 L 67.99 37.00 L 67.51 36.98 L 67.06 36.88 L 66.68 36.64 L 66.35 36.31 L 66.12 35.92 L 66.04 35.49 Z M 44.16 16.06 L 44.44 15.62 L 44.85 15.28 L 45.34 15.10 L 45.84 15.14 L 46.31 15.37 L 46.76 15.68 L 47.24 15.91 L 47.75 16.08 L 48.22 16.33 L 48.61 16.69 L 48.89 17.13 L 49.09 17.57 L 49.37 17.88 L 49.80 18.09 L 50.25 18.35 L 50.63 18.72 L 50.87 19.18 L 50.89 19.69 L 50.70 20.17 L 50.36 20.58 L 49.91 20.86 L 49.38 20.98 L 48.82 21.00 L 48.24 21.00 L 47.66 21.00 L 47.09 21.00 L 46.53 20.96 L 46.01 20.82 L 45.57 20.52 L 45.25 20.09 L 45.07 19.59 L 45.00 19.04 L 44.95 18.49 L 44.80 17.97 L 44.51 17.52 L 44.22 17.06 L 44.08 16.56 Z M 42.13 13.05 L 42.37 12.67 L 42.70 12.34 L 43.09 12.12 L 43.53 12.04 L 43.96 12.13 L 44.34 12.38 L 44.66 12.71 L 44.89 13.10 L 44.98 13.55 L 45.00 14.03 L 44.98 14.51 L 44.87 14.95 L 44.63 15.33 L 44.30 15.66 L 43.91 15.88 L 43.47 15.96 L 43.04 15.87 L 42.66 15.62 L 42.34 15.29 L 42.11 14.90 L 42.02 14.45 L 42.00 13.97 L 42.02 13.49 Z" fill="rgb(17,17,15)" fill-rule="evenodd"/>
  <path d="M 33.19 53.21 L 32.99 53.57 L 32.80 54.03 L 32.50 54.45 L 32.08 54.77 L 31.60 54.94 L 31.06 54.99 L 30.51 55.00 L 29.96 55.01 L 29.48 55.08 L 29.17 55.30 L 29.14 55.63 L 29.39 55.90 L 29.81 56.09 L 30.26 56.34 L 30.67 56.68 L 31.07 57.07 L 31.45 57.47 L 31.76 57.90 L 31.93 58.39 L 31.99 58.92 L 32.00 59.48 L 32.00 60.03 L 32.00 60.59 L 32.02 61.13 L 32.11 61.59 L 32.36 61.85 L 32.69 61.83 L 32.91 61.53 L 32.99 61.05 L 33.04 60.52 L 33.17 60.02 L 33.46 59.59 L 33.87 59.26 L 34.34 59.06 L 34.83 58.90 L 35.28 58.64 L 35.64 58.27 L 35.87 57.82 L 35.90 57.33 L 35.73 56.86 L 35.44 56.43 L 35.17 55.98 L 35.03 55.48 L 34.99 54.94 L 34.94 54.40 L 34.77 53.92 L 34.45 53.50 L 34.03 53.20 L 33.57 53.08 Z M 46.19 17.19 L 46.03 17.55 L 46.00 18.03 L 46.00 18.55 L 46.01 19.06 L 46.06 19.52 L 46.25 19.84 L 46.64 19.97 L 47.13 20.00 L 47.64 20.00 L 48.16 20.00 L 48.67 20.00 L 49.18 19.98 L 49.61 19.90 L 49.86 19.67 L 49.87 19.35 L 49.64 19.10 L 49.25 18.93 L 48.83 18.73 L 48.46 18.41 L 48.18 18.02 L 48.01 17.59 L 47.84 17.23 L 47.50 17.05 L 47.03 17.01 L 46.55 17.03 Z" fill="rgb(84,85,83)" fill-rule="evenodd"/>
  <path d="M 43.17 124.17 L 43.03 124.51 L 43.00 124.95 L 43.00 125.43 L 43.00 125.90 L 43.02 126.36 L 43.13 126.72 L 43.40 126.93 L 43.82 126.99 L 44.28 126.99 L 44.73 126.93 L 45.13 126.76 L 45.48 126.48 L 45.76 126.13 L 45.93 125.73 L 45.99 125.28 L 45.99 124.82 L 45.93 124.40 L 45.72 124.13 L 45.36 124.02 L 44.90 124.00 L 44.43 124.00 L 43.95 124.00 L 43.51 124.03 Z M 146.18 103.18 L 146.03 103.53 L 146.00 104.00 L 146.00 104.50 L 146.00 105.00 L 146.00 105.50 L 146.00 106.00 L 146.00 106.50 L 146.00 107.00 L 146.03 107.47 L 146.18 107.82 L 146.53 107.97 L 147.00 108.00 L 147.50 108.00 L 148.00 108.00 L 148.47 107.97 L 148.82 107.82 L 148.97 107.47 L 149.00 107.00 L 149.00 106.50 L 149.00 106.00 L 149.00 105.50 L 149.00 105.00 L 149.00 104.50 L 149.00 104.00 L 148.97 103.53 L 148.82 103.18 L 148.47 103.03 L 148.00 103.00 L 147.50 103.00 L 147.00 103.00 L 146.53 103.03 Z M 138.18 47.18 L 138.03 47.53 L 138.00 48.00 L 138.00 48.50 L 138.00 49.00 L 138.03 49.47 L 138.18 49.82 L 138.53 49.97 L 139.00 50.00 L 139.50 50.00 L 140.00 50.00 L 140.47 49.97 L 140.82 49.82 L 140.97 49.47 L 141.00 49.00 L 141.00 48.50 L 141.00 48.00 L 140.97 47.53 L 140.82 47.18 L 140.47 47.03 L 140.00 47.00 L 139.50 47.00 L 139.00 47.00 L 138.53 47.03 Z" fill="rgb(252,252,252)" fill-rule="evenodd"/>
</svg>