<svg xmlns="http://www.w3.org/2000/svg" width="149" height="144" viewBox="0 0 149 144" role="img" aria-label="15_icons_15">
  <title>15_icons_15</title>
  <path d="M 40.20 3.45 L 39.20 4.23 L 38.38 5.31 L 37.41 6.29 L 36.28 7.11 L 35.18 7.99 L 34.25 9.03 L 33.42 10.09 L 32.44 10.99 L 31.32 11.85 L 30.22 12.80 L 29.14 13.81 L 28.02 14.70 L 26.94 15.53 L 26.03 16.50 L 25.17 17.59 L 24.15 18.52 L 22.99 19.30 L 21.85 20.18 L 20.74 21.11 L 19.63 21.97 L 18.64 22.87 L 17.86 23.95 L 17.14 25.13 L 16.39 26.32 L 15.50 27.45 L 14.47 28.52 L 13.41 29.59 L 12.35 30.65 L 11.28 31.67 L 10.21 32.59 L 9.21 33.41 L 8.28 34.27 L 7.22 35.04 L 6.01 35.66 L 4.76 36.18 L 3.77 36.90 L 3.36 37.98 L 3.61 39.21 L 4.30 40.37 L 5.17 41.32 L 6.20 42.01 L 7.36 42.66 L 8.48 43.54 L 9.56 44.56 L 10.58 45.63 L 11.49 46.72 L 12.34 47.72 L 13.35 48.58 L 14.44 49.49 L 15.51 50.52 L 16.58 51.58 L 17.64 52.64 L 18.70 53.70 L 19.76 54.76 L 20.84 55.78 L 21.95 56.68 L 23.05 57.46 L 24.03 58.28 L 24.99 59.13 L 26.00 60.06 L 26.99 61.11 L 27.83 62.25 L 28.49 63.48 L 29.17 64.67 L 30.08 65.63 L 31.22 66.35 L 32.40 67.04 L 33.40 67.90 L 34.23 68.96 L 35.13 70.06 L 36.19 71.05 L 37.33 71.91 L 38.50 72.73 L 39.61 73.65 L 40.70 74.65 L 41.84 75.54 L 43.00 76.32 L 44.05 77.25 L 44.92 78.35 L 45.74 79.51 L 46.67 80.63 L 47.70 81.70 L 48.76 82.76 L 49.83 83.83 L 50.89 84.89 L 51.95 85.95 L 53.01 87.01 L 54.07 88.07 L 55.13 89.13 L 56.19 90.19 L 57.27 91.23 L 58.37 92.18 L 59.53 93.01 L 60.68 93.85 L 61.74 94.83 L 62.64 95.95 L 63.40 97.13 L 64.19 98.30 L 65.01 99.43 L 65.89 100.42 L 66.85 101.27 L 67.42 102.25 L 67.23 103.38 L 66.44 104.50 L 65.42 105.58 L 64.40 106.66 L 63.51 107.78 L 62.70 108.90 L 61.73 109.84 L 60.59 110.62 L 59.44 111.40 L 58.43 112.24 L 57.57 113.22 L 56.66 114.30 L 55.63 115.36 L 54.57 116.43 L 53.51 117.49 L 52.45 118.55 L 51.39 119.61 L 50.31 120.63 L 49.19 121.53 L 48.08 122.33 L 47.14 123.30 L 46.31 124.40 L 45.32 125.36 L 44.18 126.13 L 43.08 126.88 L 42.09 127.66 L 41.12 128.47 L 40.15 129.28 L 39.58 130.25 L 39.79 131.35 L 40.67 132.26 L 41.92 132.79 L 43.34 132.97 L 44.83 133.00 L 46.33 133.00 L 47.83 133.00 L 49.33 133.00 L 50.83 133.00 L 52.33 133.00 L 53.83 133.00 L 55.33 133.00 L 56.84 133.00 L 58.34 133.00 L 59.82 133.04 L 61.26 133.20 L 62.62 133.54 L 63.99 133.85 L 65.41 134.03 L 66.81 134.30 L 68.14 134.70 L 69.53 134.97 L 70.96 135.14 L 72.33 135.45 L 73.69 135.79 L 75.12 135.96 L 76.61 136.00 L 78.11 136.00 L 79.61 136.00 L 81.11 136.00 L 82.61 136.00 L 84.11 136.00 L 85.61 136.00 L 87.11 136.01 L 88.58 136.08 L 89.98 136.33 L 91.32 136.72 L 92.73 136.95 L 94.19 137.05 L 95.60 137.27 L 96.94 137.64 L 98.33 137.91 L 99.80 137.99 L 101.28 138.05 L 102.68 138.28 L 104.02 138.67 L 105.42 138.92 L 106.89 139.00 L 108.37 139.06 L 109.77 139.30 L 111.10 139.69 L 112.49 139.96 L 113.92 140.13 L 115.28 140.39 L 116.56 140.54 L 117.82 140.39 L 119.13 140.29 L 120.46 140.50 L 121.82 140.81 L 123.25 140.98 L 124.70 141.10 L 126.09 141.37 L 127.44 141.74 L 128.85 141.95 L 130.34 142.00 L 131.84 142.00 L 133.34 142.00 L 134.82 142.04 L 136.26 142.20 L 137.62 142.54 L 138.99 142.84 L 140.44 142.97 L 141.93 143.00 L 143.43 143.00 L 144.93 142.99 L 146.34 142.91 L 147.41 142.47 L 147.89 141.45 L 147.99 140.05 L 148.00 138.56 L 148.00 137.06 L 148.00 135.56 L 148.00 134.06 L 148.00 132.56 L 148.00 131.06 L 147.98 129.56 L 147.87 128.11 L 147.57 126.73 L 147.22 125.38 L 147.00 123.97 L 146.77 122.56 L 146.38 121.22 L 145.96 119.89 L 145.54 118.57 L 145.19 117.21 L 145.03 115.77 L 145.00 114.29 L 144.99 112.79 L 144.90 111.32 L 144.64 109.93 L 144.25 108.59 L 143.94 107.22 L 143.62 105.85 L 143.25 104.50 L 143.05 103.09 L 143.00 101.60 L 143.00 100.10 L 142.98 98.61 L 142.87 97.15 L 142.59 95.77 L 142.21 94.43 L 141.90 93.05 L 141.57 91.69 L 141.22 90.33 L 141.04 88.91 L 141.00 87.42 L 141.00 85.92 L 140.97 84.43 L 140.84 82.98 L 140.54 81.61 L 140.20 80.25 L 140.03 78.82 L 139.91 77.36 L 139.65 75.97 L 139.27 74.63 L 139.09 73.23 L 139.19 71.82 L 139.46 70.47 L 139.54 69.20 L 139.25 67.94 L 138.84 66.63 L 138.38 65.32 L 137.83 64.04 L 137.33 62.76 L 137.14 61.40 L 137.33 60.02 L 137.67 58.70 L 137.67 57.39 L 137.25 56.11 L 136.71 54.83 L 136.26 53.51 L 136.04 52.10 L 135.95 50.64 L 135.71 49.24 L 135.31 47.90 L 135.06 46.51 L 134.96 45.05 L 134.78 43.62 L 134.43 42.27 L 134.13 40.89 L 134.00 39.44 L 133.84 38.01 L 133.47 36.71 L 132.81 35.81 L 131.88 35.65 L 130.83 36.25 L 129.77 37.23 L 128.71 38.29 L 127.65 39.35 L 126.59 40.41 L 125.53 41.47 L 124.46 42.54 L 123.40 43.60 L 122.34 44.66 L 121.28 45.72 L 120.22 46.78 L 119.16 47.84 L 118.10 48.90 L 117.03 49.96 L 115.95 50.96 L 114.81 51.84 L 113.67 52.65 L 112.75 53.64 L 112.18 54.88 L 111.80 56.22 L 111.22 57.48 L 110.34 58.61 L 109.31 59.69 L 108.29 60.77 L 107.39 61.88 L 106.57 62.94 L 105.53 63.61 L 104.30 63.60 L 103.11 62.95 L 102.05 61.99 L 101.12 60.99 L 100.22 60.09 L 99.17 59.34 L 98.09 58.60 L 97.33 57.58 L 96.90 56.35 L 96.37 55.24 L 95.47 54.32 L 94.39 53.41 L 93.26 52.55 L 92.12 51.77 L 91.12 50.93 L 90.20 50.07 L 89.13 49.33 L 87.95 48.63 L 86.81 47.75 L 85.74 46.73 L 84.67 45.67 L 83.61 44.61 L 82.55 43.55 L 81.53 42.47 L 80.62 41.35 L 79.81 40.24 L 78.82 39.37 L 77.64 38.78 L 76.67 38.01 L 76.12 36.86 L 75.71 35.58 L 75.00 34.52 L 73.95 33.68 L 72.84 32.79 L 71.75 31.79 L 70.63 30.87 L 69.41 30.21 L 68.19 29.63 L 67.20 28.77 L 66.39 27.65 L 65.51 26.52 L 64.62 25.42 L 63.76 24.42 L 62.76 23.58 L 61.64 22.78 L 60.52 21.97 L 59.54 21.06 L 58.77 19.98 L 58.00 18.96 L 57.07 18.19 L 56.04 17.53 L 55.09 16.65 L 54.20 15.69 L 53.19 14.83 L 52.26 13.87 L 51.45 12.77 L 50.50 11.77 L 49.43 10.92 L 48.56 9.95 L 48.11 8.72 L 47.85 7.42 L 47.31 6.42 L 46.32 5.75 L 45.15 5.05 L 43.97 4.29 L 42.73 3.67 L 41.44 3.31 Z M 114.13 135.05 L 114.37 134.67 L 114.70 134.34 L 115.09 134.12 L 115.54 134.02 L 116.01 134.00 L 116.49 134.02 L 116.94 134.12 L 117.32 134.36 L 117.65 134.69 L 117.88 135.08 L 117.96 135.51 L 117.87 135.95 L 117.63 136.33 L 117.30 136.66 L 116.91 136.88 L 116.46 136.98 L 115.99 137.00 L 115.51 136.98 L 115.06 136.88 L 114.68 136.64 L 114.35 136.31 L 114.12 135.92 L 114.04 135.49 Z" fill="rgb(234,11,9)" fill-rule="evenodd"/>
</svg>