<svg xmlns="http://www.w3.org/2000/svg" width="209" height="179" viewBox="0 0 209 179" role="img" aria-label="16_icons_16">
  <title>16_icons_16</title>
  <path d="M 151.05 127.15 L 150.63 127.43 L 150.29 127.82 L 150.09 128.30 L 150.02 128.82 L 150.02 129.37 L 150.13 129.88 L 150.39 130.33 L 150.75 130.74 L 151.14 131.14 L 151.54 131.51 L 151.98 131.80 L 152.47 131.95 L 153.01 131.99 L 153.57 132.00 L 154.12 132.01 L 154.65 132.08 L 155.13 132.26 L 155.57 132.56 L 156.02 132.83 L 156.52 132.96 L 157.06 132.99 L 157.59 132.94 L 158.08 132.77 L 158.51 132.46 L 158.91 132.08 L 159.30 131.69 L 159.65 131.27 L 159.89 130.81 L 159.98 130.30 L 159.97 129.77 L 159.85 129.33 L 159.54 129.09 L 159.06 129.01 L 158.51 129.00 L 157.96 129.00 L 157.40 129.00 L 156.84 129.00 L 156.28 129.00 L 155.72 129.00 L 155.17 129.00 L 154.61 129.00 L 154.05 129.00 L 153.51 128.96 L 153.01 128.82 L 152.58 128.53 L 152.26 128.13 L 152.05 127.67 L 151.84 127.28 L 151.50 127.09 Z M 140.91 3.63 L 137.99 6.23 L 137.46 9.80 L 134.57 12.44 L 130.79 14.20 L 127.32 16.69 L 124.13 19.87 L 120.74 22.56 L 117.65 25.61 L 114.89 28.79 L 111.51 31.50 L 108.31 34.64 L 105.36 37.38 L 102.14 40.02 L 99.40 42.42 L 96.63 39.90 L 94.75 36.18 L 93.34 32.26 L 91.54 28.49 L 90.20 24.55 L 88.63 20.69 L 86.94 17.67 L 86.01 20.64 L 87.32 23.85 L 89.32 26.00 L 86.24 28.06 L 85.01 31.43 L 85.00 35.93 L 84.30 40.14 L 83.76 44.43 L 82.26 48.07 L 78.69 48.04 L 74.67 46.87 L 70.77 45.40 L 67.40 42.66 L 63.90 40.23 L 59.89 39.04 L 55.60 38.52 L 51.64 37.22 L 47.61 36.06 L 43.94 34.73 L 40.46 32.98 L 36.68 31.24 L 32.81 29.70 L 29.13 28.55 L 29.20 30.81 L 31.92 33.79 L 35.01 37.01 L 38.39 39.73 L 41.15 42.32 L 43.25 45.95 L 46.20 49.23 L 48.79 52.66 L 50.94 56.28 L 53.66 59.66 L 56.84 62.84 L 59.96 66.05 L 61.68 69.73 L 59.31 72.29 L 56.09 74.70 L 52.92 77.21 L 48.83 78.18 L 44.78 78.71 L 41.48 77.10 L 37.12 77.14 L 33.31 78.81 L 29.75 81.10 L 25.70 82.21 L 21.76 83.56 L 17.98 85.31 L 14.04 86.68 L 10.03 87.88 L 6.25 89.04 L 7.46 90.20 L 11.61 90.98 L 15.97 91.33 L 20.18 92.05 L 24.31 92.96 L 28.41 93.94 L 32.57 94.77 L 36.96 95.04 L 41.11 95.91 L 45.06 97.23 L 48.98 98.65 L 53.31 99.06 L 55.69 101.39 L 54.02 105.09 L 53.69 108.79 L 51.39 110.48 L 48.57 112.38 L 45.62 115.66 L 43.43 119.16 L 45.12 121.73 L 45.25 125.37 L 44.31 129.43 L 44.25 133.04 L 40.59 133.71 L 38.44 130.94 L 37.29 130.17 L 34.96 133.51 L 32.37 136.43 L 29.35 139.65 L 26.93 143.15 L 25.39 146.70 L 27.88 146.82 L 31.59 144.91 L 35.25 142.87 L 38.92 140.85 L 42.63 138.94 L 46.36 137.07 L 50.14 135.32 L 54.15 134.13 L 57.89 132.27 L 61.48 130.06 L 65.20 128.25 L 68.39 126.33 L 72.43 125.30 L 76.22 123.66 L 78.84 125.17 L 79.70 129.28 L 79.32 133.35 L 79.92 137.39 L 80.00 141.86 L 80.00 146.36 L 80.00 150.87 L 80.21 155.29 L 81.06 159.41 L 82.42 162.55 L 81.08 165.71 L 81.00 170.15 L 81.04 174.60 L 82.24 175.74 L 84.13 172.22 L 86.00 168.48 L 87.28 164.51 L 89.39 160.88 L 91.09 157.08 L 91.48 153.32 L 89.46 150.11 L 90.45 146.74 L 91.59 143.01 L 94.49 140.19 L 97.49 138.54 L 100.91 137.56 L 103.27 134.16 L 106.87 133.63 L 110.63 134.98 L 112.94 137.94 L 115.25 141.46 L 117.85 144.89 L 119.83 148.57 L 122.05 152.16 L 124.64 155.59 L 127.75 158.81 L 130.19 162.30 L 132.49 165.85 L 134.52 169.52 L 137.00 173.00 L 139.13 176.57 L 141.69 176.90 L 141.62 172.89 L 140.32 168.92 L 139.34 164.93 L 136.98 161.86 L 135.05 158.17 L 132.84 154.58 L 131.73 150.54 L 129.88 147.10 L 128.16 148.22 L 124.24 148.85 L 122.55 146.30 L 121.57 142.56 L 120.52 138.73 L 122.51 135.97 L 125.15 137.02 L 126.39 140.96 L 128.97 142.41 L 131.39 141.92 L 130.83 138.87 L 134.23 137.55 L 135.00 133.81 L 135.00 129.30 L 135.54 125.13 L 139.08 124.51 L 142.86 126.25 L 145.93 125.77 L 148.05 122.56 L 151.59 121.31 L 154.25 119.37 L 156.46 121.23 L 158.51 119.60 L 160.75 122.13 L 163.59 124.45 L 162.71 127.41 L 165.01 129.60 L 165.69 132.72 L 169.22 134.02 L 172.53 134.16 L 171.20 130.92 L 168.84 127.57 L 166.05 124.66 L 163.25 121.83 L 161.39 118.13 L 160.05 114.18 L 157.80 110.61 L 156.63 107.11 L 160.24 106.00 L 164.53 105.49 L 168.84 105.00 L 173.06 104.32 L 177.26 103.58 L 181.17 103.54 L 185.21 103.02 L 189.40 102.27 L 193.80 102.00 L 198.30 102.00 L 202.81 102.00 L 206.95 101.68 L 206.35 99.48 L 202.68 97.58 L 198.78 96.11 L 194.78 94.89 L 190.94 93.28 L 187.04 91.83 L 183.15 90.35 L 179.37 88.59 L 175.93 86.02 L 172.30 83.91 L 168.57 82.04 L 164.67 80.58 L 160.62 79.48 L 156.77 77.91 L 153.03 76.40 L 153.20 73.23 L 156.52 70.53 L 159.96 67.96 L 163.29 65.11 L 166.75 62.61 L 170.56 60.92 L 173.58 57.97 L 175.90 54.82 L 179.26 52.12 L 182.65 49.42 L 186.15 47.29 L 188.37 44.21 L 186.03 43.89 L 181.93 44.86 L 177.78 45.71 L 173.69 46.72 L 169.30 47.00 L 164.80 47.00 L 160.40 47.27 L 156.24 48.10 L 152.14 49.08 L 148.00 49.96 L 143.61 50.23 L 139.42 50.98 L 135.03 50.80 L 133.04 47.81 L 133.49 43.53 L 134.52 39.45 L 135.54 35.37 L 136.57 31.29 L 137.00 26.96 L 137.07 22.48 L 137.97 18.35 L 138.81 14.20 L 139.76 10.08 L 141.25 6.20 Z M 106.16 124.06 L 106.45 123.61 L 106.88 123.27 L 107.39 123.08 L 107.96 123.02 L 108.52 123.06 L 109.05 123.22 L 109.51 123.54 L 109.93 123.94 L 110.36 124.34 L 110.81 124.69 L 111.31 124.91 L 111.87 124.99 L 112.44 125.04 L 112.97 125.18 L 113.42 125.48 L 113.75 125.92 L 113.91 126.42 L 113.84 126.94 L 113.55 127.39 L 113.12 127.73 L 112.61 127.92 L 112.04 127.99 L 111.45 128.00 L 110.86 128.00 L 110.27 128.00 L 109.69 127.98 L 109.14 127.87 L 108.66 127.60 L 108.23 127.22 L 107.80 126.80 L 107.39 126.39 L 106.97 125.97 L 106.57 125.54 L 106.25 125.08 L 106.09 124.58 Z M 52.94 122.86 L 53.40 122.59 L 53.84 122.28 L 54.33 122.08 L 54.87 122.01 L 55.43 122.00 L 56.00 122.00 L 56.57 122.00 L 57.14 122.00 L 57.71 122.00 L 58.27 122.02 L 58.80 122.11 L 59.27 122.34 L 59.71 122.65 L 60.19 122.88 L 60.71 122.98 L 61.27 123.02 L 61.80 123.11 L 62.26 123.35 L 62.64 123.73 L 62.88 124.19 L 62.98 124.71 L 62.98 125.27 L 62.89 125.80 L 62.65 126.26 L 62.27 126.64 L 61.82 126.87 L 61.32 126.90 L 60.84 126.72 L 60.40 126.41 L 59.94 126.15 L 59.42 126.03 L 58.87 126.02 L 58.33 126.08 L 57.84 126.28 L 57.40 126.59 L 56.95 126.87 L 56.50 127.05 L 56.15 127.30 L 55.94 127.70 L 55.72 128.16 L 55.38 128.57 L 54.94 128.85 L 54.44 128.92 L 53.95 128.78 L 53.53 128.47 L 53.21 128.05 L 53.02 127.58 L 52.80 127.20 L 52.42 126.98 L 51.95 126.79 L 51.53 126.47 L 51.22 126.05 L 51.06 125.55 L 51.02 125.00 L 51.06 124.45 L 51.22 123.95 L 51.53 123.53 L 51.95 123.21 L 52.44 123.03 Z M 64.13 122.05 L 64.37 121.67 L 64.70 121.34 L 65.09 121.12 L 65.54 121.02 L 66.01 121.00 L 66.49 121.02 L 66.94 121.12 L 67.32 121.36 L 67.65 121.69 L 67.88 122.08 L 67.96 122.51 L 67.87 122.95 L 67.63 123.33 L 67.30 123.66 L 66.91 123.88 L 66.46 123.98 L 65.99 124.00 L 65.51 123.98 L 65.06 123.88 L 64.68 123.64 L 64.35 123.31 L 64.12 122.92 L 64.04 122.49 Z M 144.13 120.05 L 144.37 119.67 L 144.70 119.34 L 145.09 119.12 L 145.53 119.04 L 145.96 119.13 L 146.34 119.38 L 146.66 119.71 L 146.89 120.10 L 146.98 120.55 L 147.00 121.03 L 146.98 121.51 L 146.87 121.95 L 146.63 122.33 L 146.30 122.66 L 145.91 122.88 L 145.47 122.96 L 145.04 122.87 L 144.66 122.62 L 144.34 122.29 L 144.11 121.90 L 144.02 121.45 L 144.00 120.97 L 144.02 120.49 Z M 114.15 116.06 L 114.44 115.62 L 114.85 115.28 L 115.34 115.08 L 115.89 115.02 L 116.44 115.03 L 116.96 115.16 L 117.42 115.44 L 117.87 115.74 L 118.37 115.92 L 118.92 115.99 L 119.49 116.00 L 120.06 116.01 L 120.61 116.07 L 121.11 116.25 L 121.56 116.55 L 122.01 116.83 L 122.51 117.01 L 123.01 117.19 L 123.44 117.50 L 123.76 117.92 L 123.91 118.42 L 123.85 118.92 L 123.57 119.36 L 123.17 119.71 L 122.69 119.93 L 122.19 120.10 L 121.71 120.35 L 121.27 120.66 L 120.81 120.91 L 120.39 121.11 L 120.14 121.40 L 120.19 121.73 L 120.52 121.96 L 120.98 122.15 L 121.43 122.44 L 121.88 122.74 L 122.37 122.93 L 122.92 122.99 L 123.48 123.04 L 123.99 123.18 L 124.44 123.48 L 124.86 123.86 L 125.27 124.26 L 125.69 124.62 L 126.16 124.89 L 126.66 125.06 L 127.14 125.27 L 127.56 125.61 L 127.86 126.04 L 128.05 126.50 L 128.30 126.85 L 128.71 127.06 L 129.17 127.29 L 129.57 127.64 L 129.86 128.08 L 129.97 128.61 L 129.98 129.16 L 129.91 129.71 L 129.69 130.19 L 129.34 130.59 L 128.89 130.87 L 128.39 131.04 L 127.90 131.24 L 127.45 131.54 L 126.99 131.82 L 126.47 131.96 L 125.91 132.00 L 125.34 132.00 L 124.78 132.02 L 124.24 132.11 L 123.76 132.33 L 123.31 132.63 L 122.84 132.86 L 122.34 132.90 L 121.85 132.72 L 121.40 132.42 L 120.95 132.16 L 120.44 132.08 L 119.95 132.22 L 119.52 132.54 L 119.21 132.96 L 119.02 133.46 L 118.85 133.96 L 118.55 134.42 L 118.17 134.83 L 117.76 135.23 L 117.34 135.60 L 116.88 135.88 L 116.38 136.05 L 115.89 136.25 L 115.44 136.55 L 114.98 136.83 L 114.46 136.96 L 113.90 136.98 L 113.36 136.92 L 112.87 136.73 L 112.45 136.39 L 112.16 135.95 L 112.03 135.43 L 112.02 134.87 L 112.08 134.33 L 112.28 133.84 L 112.59 133.39 L 112.84 132.94 L 112.89 132.49 L 112.68 132.16 L 112.24 132.03 L 111.70 131.98 L 111.17 131.88 L 110.71 131.62 L 110.34 131.24 L 110.12 130.77 L 110.12 130.27 L 110.32 129.80 L 110.68 129.40 L 111.13 129.13 L 111.66 129.02 L 112.20 128.98 L 112.65 128.85 L 112.93 128.54 L 113.12 128.10 L 113.41 127.66 L 113.81 127.31 L 114.28 127.11 L 114.79 127.13 L 115.25 127.35 L 115.63 127.72 L 115.90 128.17 L 116.10 128.59 L 116.38 128.85 L 116.71 128.81 L 116.95 128.50 L 117.14 128.04 L 117.42 127.59 L 117.72 127.15 L 117.89 126.68 L 117.81 126.28 L 117.47 126.07 L 116.95 126.01 L 116.39 126.00 L 115.82 125.98 L 115.28 125.90 L 114.80 125.69 L 114.40 125.33 L 114.13 124.88 L 114.02 124.35 L 113.98 123.79 L 113.90 123.25 L 113.68 122.77 L 113.37 122.32 L 113.13 121.85 L 113.02 121.32 L 113.02 120.76 L 113.11 120.22 L 113.34 119.74 L 113.64 119.30 L 113.88 118.82 L 113.98 118.29 L 114.00 117.72 L 114.00 117.15 L 114.03 116.58 Z M 110.14 110.05 L 110.39 109.65 L 110.76 109.32 L 111.19 109.11 L 111.65 109.08 L 112.09 109.23 L 112.49 109.52 L 112.87 109.87 L 113.23 110.24 L 113.58 110.61 L 113.84 111.02 L 113.94 111.48 L 113.86 111.95 L 113.61 112.35 L 113.24 112.68 L 112.81 112.89 L 112.35 112.92 L 111.91 112.77 L 111.51 112.48 L 111.13 112.13 L 110.77 111.76 L 110.42 111.39 L 110.16 110.98 L 110.06 110.52 Z M 98.00 109.00 L 98.41 108.61 L 98.84 108.28 L 99.33 108.10 L 99.83 108.13 L 100.28 108.37 L 100.65 108.75 L 100.89 109.22 L 100.98 109.75 L 101.00 110.32 L 101.00 110.89 L 101.00 111.46 L 100.99 112.03 L 100.94 112.58 L 100.77 113.08 L 100.48 113.53 L 100.19 113.98 L 100.01 114.48 L 99.84 114.98 L 99.56 115.43 L 99.26 115.88 L 99.05 116.37 L 98.88 116.87 L 98.62 117.33 L 98.32 117.78 L 98.10 118.26 L 98.01 118.80 L 97.98 119.35 L 97.87 119.88 L 97.62 120.34 L 97.31 120.79 L 97.08 121.27 L 96.91 121.77 L 96.67 122.24 L 96.37 122.68 L 96.14 123.14 L 96.13 123.57 L 96.38 123.85 L 96.80 123.87 L 97.25 123.67 L 97.70 123.36 L 98.16 123.13 L 98.67 123.10 L 99.15 123.28 L 99.59 123.58 L 100.05 123.84 L 100.55 123.92 L 101.05 123.79 L 101.50 123.50 L 101.95 123.22 L 102.45 123.08 L 102.95 123.16 L 103.38 123.44 L 103.72 123.85 L 103.92 124.34 L 103.98 124.88 L 103.97 125.44 L 103.84 125.96 L 103.55 126.39 L 103.14 126.73 L 102.65 126.92 L 102.10 126.99 L 101.53 127.00 L 100.97 126.99 L 100.42 126.94 L 99.92 126.77 L 99.47 126.47 L 99.01 126.19 L 98.52 126.08 L 98.02 126.18 L 97.56 126.45 L 97.11 126.75 L 96.62 126.93 L 96.07 126.99 L 95.52 127.04 L 95.01 127.18 L 94.55 127.46 L 94.10 127.75 L 93.61 127.91 L 93.11 127.86 L 92.67 127.59 L 92.31 127.20 L 92.10 126.72 L 92.01 126.18 L 91.98 125.63 L 91.86 125.10 L 91.59 124.66 L 91.19 124.31 L 90.71 124.09 L 90.17 124.02 L 89.64 124.04 L 89.24 124.20 L 89.09 124.57 L 89.21 125.03 L 89.50 125.47 L 89.89 125.89 L 90.29 126.28 L 90.72 126.64 L 91.18 126.90 L 91.69 127.07 L 92.16 127.29 L 92.57 127.63 L 92.85 128.07 L 92.92 128.57 L 92.77 129.06 L 92.46 129.49 L 92.03 129.80 L 91.54 129.98 L 91.04 130.15 L 90.60 130.45 L 90.27 130.87 L 90.06 131.35 L 89.89 131.85 L 89.62 132.30 L 89.23 132.67 L 88.76 132.88 L 88.26 132.88 L 87.78 132.69 L 87.34 132.38 L 86.87 132.13 L 86.35 132.02 L 85.79 131.98 L 85.26 131.90 L 84.78 131.67 L 84.39 131.31 L 84.11 130.87 L 83.92 130.44 L 83.63 130.14 L 83.18 130.02 L 82.63 129.98 L 82.11 129.86 L 81.66 129.59 L 81.31 129.19 L 81.09 128.71 L 81.02 128.18 L 81.00 127.61 L 81.01 127.04 L 81.05 126.49 L 81.20 125.98 L 81.48 125.52 L 81.77 125.07 L 81.94 124.57 L 81.99 124.02 L 82.00 123.45 L 81.99 122.89 L 81.92 122.34 L 81.72 121.85 L 81.39 121.44 L 80.95 121.14 L 80.45 120.97 L 79.95 120.79 L 79.53 120.47 L 79.22 120.05 L 79.05 119.54 L 79.01 118.99 L 79.00 118.42 L 79.00 117.85 L 79.00 117.28 L 79.02 116.72 L 79.12 116.19 L 79.37 115.72 L 79.74 115.35 L 80.21 115.11 L 80.74 115.02 L 81.31 115.00 L 81.87 115.00 L 82.41 114.96 L 82.80 114.78 L 82.97 114.37 L 83.00 113.83 L 83.00 113.26 L 83.00 112.69 L 83.00 112.12 L 83.00 111.55 L 83.01 110.98 L 83.06 110.43 L 83.23 109.93 L 83.55 109.51 L 83.98 109.20 L 84.47 109.08 L 84.97 109.17 L 85.41 109.46 L 85.74 109.88 L 85.93 110.37 L 85.99 110.91 L 86.04 111.47 L 86.17 111.98 L 86.47 112.42 L 86.89 112.74 L 87.35 112.90 L 87.75 112.81 L 87.98 112.46 L 88.17 112.00 L 88.48 111.57 L 88.90 111.25 L 89.40 111.07 L 89.94 111.02 L 90.49 111.04 L 91.01 111.19 L 91.46 111.47 L 91.91 111.76 L 92.40 111.96 L 92.90 112.13 L 93.36 112.39 L 93.81 112.70 L 94.29 112.91 L 94.83 112.99 L 95.40 113.00 L 95.97 113.00 L 96.54 113.00 L 97.10 112.98 L 97.57 112.89 L 97.85 112.62 L 97.87 112.20 L 97.66 111.74 L 97.36 111.30 L 97.13 110.83 L 97.10 110.33 L 97.28 109.84 L 97.61 109.41 Z M 56.00 109.00 L 56.41 108.61 L 56.84 108.28 L 57.33 108.08 L 57.87 108.01 L 58.43 108.00 L 59.00 108.00 L 59.57 108.00 L 60.14 108.00 L 60.71 108.00 L 61.28 108.00 L 61.84 108.00 L 62.40 108.02 L 62.92 108.14 L 63.37 108.43 L 63.71 108.83 L 63.89 109.30 L 63.87 109.80 L 63.64 110.26 L 63.27 110.64 L 62.81 110.88 L 62.29 110.98 L 61.73 111.02 L 61.20 111.11 L 60.73 111.34 L 60.29 111.65 L 59.82 111.90 L 59.32 112.06 L 58.84 112.28 L 58.40 112.59 L 57.94 112.85 L 57.42 112.97 L 56.87 112.98 L 56.33 112.92 L 55.84 112.72 L 55.43 112.38 L 55.15 111.94 L 55.03 111.42 L 55.02 110.87 L 55.08 110.33 L 55.28 109.84 L 55.61 109.41 Z M 146.14 102.05 L 146.43 101.62 L 146.84 101.28 L 147.33 101.08 L 147.87 101.01 L 148.43 101.00 L 149.00 101.01 L 149.55 101.05 L 150.05 101.22 L 150.47 101.53 L 150.78 101.95 L 150.95 102.45 L 151.00 103.00 L 151.05 103.55 L 151.21 104.05 L 151.50 104.50 L 151.79 104.95 L 151.95 105.45 L 151.99 106.00 L 152.00 106.57 L 152.00 107.14 L 152.00 107.71 L 151.98 108.27 L 151.89 108.80 L 151.65 109.27 L 151.30 109.69 L 150.90 110.10 L 150.49 110.48 L 150.05 110.78 L 149.56 110.92 L 149.06 110.85 L 148.62 110.57 L 148.28 110.16 L 148.08 109.67 L 148.01 109.13 L 148.00 108.57 L 147.99 108.01 L 147.92 107.51 L 147.70 107.15 L 147.30 106.94 L 146.84 106.72 L 146.40 106.41 L 145.94 106.14 L 145.44 105.97 L 144.95 105.79 L 144.53 105.47 L 144.22 105.05 L 144.08 104.56 L 144.15 104.06 L 144.43 103.62 L 144.84 103.28 L 145.30 103.06 L 145.70 102.85 L 145.95 102.50 Z M 64.14 102.06 L 64.43 101.63 L 64.83 101.29 L 65.30 101.09 L 65.83 101.02 L 66.38 101.02 L 66.89 101.13 L 67.33 101.40 L 67.68 101.79 L 67.89 102.25 L 67.89 102.74 L 67.69 103.21 L 67.39 103.64 L 67.15 104.08 L 67.11 104.53 L 67.32 104.84 L 67.75 104.97 L 68.28 105.00 L 68.84 105.00 L 69.39 104.98 L 69.90 104.87 L 70.36 104.61 L 70.79 104.31 L 71.27 104.10 L 71.79 104.02 L 72.34 104.02 L 72.85 104.12 L 73.30 104.38 L 73.66 104.76 L 73.88 105.21 L 73.89 105.70 L 73.71 106.17 L 73.37 106.57 L 72.94 106.86 L 72.45 107.03 L 71.96 107.20 L 71.52 107.48 L 71.08 107.77 L 70.60 107.96 L 70.11 108.12 L 69.65 108.38 L 69.22 108.69 L 68.75 108.90 L 68.22 108.98 L 67.67 109.00 L 67.11 109.00 L 66.55 109.00 L 65.99 108.99 L 65.45 108.95 L 64.96 108.79 L 64.54 108.48 L 64.22 108.07 L 64.06 107.58 L 64.01 107.04 L 64.00 106.48 L 64.00 105.92 L 64.00 105.36 L 64.00 104.80 L 64.00 104.24 L 64.00 103.68 L 64.00 103.12 L 64.03 102.57 Z M 192.13 98.05 L 192.37 97.67 L 192.70 97.34 L 193.09 97.12 L 193.53 97.04 L 193.96 97.13 L 194.34 97.38 L 194.66 97.71 L 194.89 98.10 L 194.98 98.55 L 195.00 99.03 L 194.98 99.51 L 194.87 99.95 L 194.63 100.33 L 194.30 100.66 L 193.91 100.88 L 193.47 100.96 L 193.04 100.87 L 192.66 100.62 L 192.34 100.29 L 192.11 99.90 L 192.02 99.45 L 192.00 98.97 L 192.02 98.49 Z M 112.13 98.05 L 112.37 97.67 L 112.70 97.34 L 113.09 97.12 L 113.54 97.02 L 114.01 97.00 L 114.49 97.02 L 114.94 97.12 L 115.32 97.36 L 115.65 97.69 L 115.88 98.08 L 115.96 98.51 L 115.87 98.95 L 115.63 99.33 L 115.30 99.66 L 114.91 99.88 L 114.46 99.98 L 113.99 100.00 L 113.51 99.98 L 113.06 99.88 L 112.68 99.64 L 112.35 99.31 L 112.12 98.92 L 112.04 98.49 Z M 157.15 96.06 L 157.43 95.62 L 157.84 95.28 L 158.33 95.08 L 158.87 95.01 L 159.43 95.00 L 160.00 95.01 L 160.55 95.05 L 161.05 95.22 L 161.47 95.53 L 161.78 95.95 L 161.92 96.44 L 161.85 96.94 L 161.57 97.38 L 161.16 97.72 L 160.67 97.92 L 160.13 97.99 L 159.57 98.00 L 159.00 97.99 L 158.45 97.95 L 157.95 97.78 L 157.53 97.47 L 157.22 97.05 L 157.08 96.56 Z M 149.16 94.06 L 149.44 93.62 L 149.86 93.28 L 150.36 93.08 L 150.91 93.02 L 151.47 93.04 L 151.99 93.18 L 152.43 93.49 L 152.76 93.91 L 152.93 94.42 L 152.99 94.97 L 153.00 95.55 L 152.99 96.12 L 152.91 96.67 L 152.71 97.16 L 152.36 97.57 L 151.91 97.85 L 151.41 97.91 L 150.91 97.75 L 150.49 97.43 L 150.18 96.99 L 149.99 96.49 L 149.81 95.98 L 149.52 95.52 L 149.23 95.07 L 149.09 94.57 Z M 144.16 90.06 L 144.44 89.62 L 144.86 89.28 L 145.35 89.08 L 145.90 89.01 L 146.47 89.00 L 147.05 89.01 L 147.60 89.07 L 148.10 89.25 L 148.55 89.57 L 148.96 89.97 L 149.36 90.38 L 149.70 90.81 L 149.91 91.31 L 149.98 91.85 L 149.97 92.41 L 149.85 92.94 L 149.56 93.38 L 149.14 93.72 L 148.65 93.92 L 148.10 93.98 L 147.54 93.96 L 147.02 93.83 L 146.58 93.52 L 146.25 93.10 L 146.04 92.63 L 145.82 92.24 L 145.44 92.00 L 144.97 91.81 L 144.55 91.49 L 144.23 91.06 L 144.08 90.56 Z M 76.15 88.06 L 76.44 87.62 L 76.86 87.28 L 77.36 87.08 L 77.91 87.02 L 78.47 87.04 L 78.99 87.18 L 79.43 87.49 L 79.75 87.91 L 79.91 88.41 L 79.85 88.91 L 79.59 89.38 L 79.29 89.83 L 79.07 90.32 L 78.89 90.83 L 78.62 91.29 L 78.24 91.66 L 77.76 91.88 L 77.26 91.88 L 76.78 91.67 L 76.39 91.31 L 76.13 90.84 L 76.02 90.31 L 76.00 89.74 L 76.00 89.16 L 76.03 88.59 Z M 18.17 87.06 L 18.46 86.60 L 18.90 86.26 L 19.41 86.10 L 19.94 86.16 L 20.42 86.44 L 20.90 86.75 L 21.41 86.96 L 21.94 87.15 L 22.40 87.46 L 22.74 87.90 L 22.90 88.41 L 22.83 88.94 L 22.54 89.40 L 22.10 89.74 L 21.57 89.93 L 21.00 89.98 L 20.43 89.93 L 19.90 89.74 L 19.43 89.41 L 19.00 89.00 L 18.59 88.57 L 18.26 88.10 L 18.10 87.59 Z M 132.14 86.06 L 132.43 85.63 L 132.83 85.29 L 133.30 85.11 L 133.79 85.12 L 134.25 85.34 L 134.62 85.70 L 134.88 86.15 L 134.98 86.67 L 135.00 87.22 L 135.00 87.78 L 135.00 88.34 L 135.00 88.90 L 134.97 89.45 L 134.84 89.96 L 134.56 90.39 L 134.15 90.72 L 133.67 90.92 L 133.14 90.99 L 132.59 91.00 L 132.03 90.99 L 131.48 90.95 L 130.98 90.81 L 130.56 90.51 L 130.24 90.09 L 130.09 89.62 L 130.14 89.12 L 130.39 88.68 L 130.77 88.33 L 131.22 88.08 L 131.63 87.89 L 131.89 87.58 L 131.98 87.11 L 132.02 86.57 Z M 36.00 85.00 L 36.41 84.61 L 36.84 84.28 L 37.32 84.10 L 37.82 84.13 L 38.27 84.36 L 38.65 84.74 L 38.89 85.20 L 38.98 85.73 L 39.00 86.29 L 39.00 86.86 L 39.03 87.42 L 39.15 87.94 L 39.41 88.40 L 39.72 88.84 L 39.90 89.32 L 39.87 89.82 L 39.64 90.27 L 39.26 90.64 L 38.80 90.87 L 38.30 90.89 L 37.83 90.71 L 37.38 90.41 L 36.92 90.14 L 36.41 90.03 L 35.86 90.02 L 35.40 90.12 L 35.12 90.41 L 35.02 90.88 L 34.98 91.42 L 34.85 91.94 L 34.57 92.38 L 34.16 92.72 L 33.67 92.92 L 33.13 92.99 L 32.57 93.00 L 32.00 92.99 L 31.45 92.95 L 30.95 92.78 L 30.53 92.47 L 30.21 92.05 L 30.03 91.56 L 29.86 91.06 L 29.57 90.62 L 29.16 90.28 L 28.67 90.08 L 28.13 90.01 L 27.58 89.98 L 27.06 89.85 L 26.62 89.57 L 26.29 89.16 L 26.10 88.68 L 26.13 88.18 L 26.36 87.73 L 26.74 87.35 L 27.20 87.11 L 27.73 87.02 L 28.29 87.00 L 28.86 87.00 L 29.43 87.00 L 30.00 87.00 L 30.57 87.00 L 31.14 87.00 L 31.71 87.00 L 32.28 87.00 L 32.84 87.00 L 33.40 86.98 L 33.92 86.86 L 34.38 86.58 L 34.79 86.20 L 35.20 85.80 L 35.60 85.40 Z M 98.15 78.06 L 98.43 77.62 L 98.84 77.28 L 99.32 77.08 L 99.86 77.02 L 100.41 77.03 L 100.93 77.14 L 101.37 77.43 L 101.71 77.83 L 101.91 78.32 L 101.99 78.85 L 102.03 79.38 L 102.20 79.79 L 102.57 80.01 L 103.04 80.20 L 103.49 80.49 L 103.93 80.78 L 104.42 80.97 L 104.92 81.13 L 105.36 81.42 L 105.70 81.82 L 105.91 82.30 L 105.99 82.84 L 106.03 83.37 L 106.19 83.78 L 106.56 84.00 L 107.03 84.19 L 107.45 84.50 L 107.76 84.92 L 107.91 85.41 L 107.85 85.91 L 107.59 86.35 L 107.19 86.70 L 106.74 86.93 L 106.33 87.13 L 106.12 87.44 L 106.21 87.77 L 106.57 87.95 L 107.09 88.01 L 107.63 88.07 L 108.12 88.26 L 108.55 88.58 L 108.96 88.96 L 109.37 89.35 L 109.79 89.69 L 110.27 89.92 L 110.76 90.09 L 111.23 90.33 L 111.66 90.67 L 112.06 91.06 L 112.45 91.47 L 112.76 91.91 L 112.93 92.41 L 112.99 92.95 L 112.96 93.50 L 112.81 94.00 L 112.51 94.43 L 112.09 94.76 L 111.60 94.93 L 111.06 94.99 L 110.51 94.96 L 110.00 94.82 L 109.55 94.54 L 109.10 94.25 L 108.61 94.07 L 108.07 94.01 L 107.50 94.00 L 106.94 94.01 L 106.39 94.07 L 105.90 94.24 L 105.45 94.54 L 105.00 94.81 L 104.51 94.92 L 104.01 94.82 L 103.57 94.53 L 103.16 94.15 L 102.75 93.76 L 102.34 93.39 L 101.88 93.13 L 101.36 93.02 L 100.82 93.02 L 100.37 93.14 L 100.14 93.41 L 100.19 93.75 L 100.53 93.97 L 100.98 94.16 L 101.41 94.46 L 101.74 94.87 L 101.92 95.36 L 101.99 95.90 L 102.00 96.47 L 102.01 97.02 L 102.09 97.51 L 102.32 97.83 L 102.73 97.88 L 103.19 97.70 L 103.62 97.40 L 104.08 97.15 L 104.58 97.08 L 105.07 97.23 L 105.49 97.54 L 105.79 97.97 L 105.92 98.46 L 105.84 98.96 L 105.56 99.40 L 105.18 99.81 L 104.78 100.22 L 104.38 100.62 L 103.98 101.02 L 103.59 101.43 L 103.27 101.86 L 103.11 102.32 L 103.18 102.72 L 103.52 102.93 L 104.03 103.00 L 104.56 103.06 L 105.06 103.22 L 105.48 103.54 L 105.79 103.96 L 105.95 104.47 L 105.99 105.02 L 106.00 105.58 L 106.00 106.15 L 106.00 106.71 L 105.98 107.28 L 105.89 107.80 L 105.64 108.26 L 105.27 108.64 L 104.82 108.87 L 104.32 108.90 L 103.84 108.72 L 103.44 108.38 L 103.15 107.94 L 103.02 107.43 L 102.98 106.89 L 102.88 106.42 L 102.61 106.11 L 102.19 105.91 L 101.74 105.66 L 101.30 105.36 L 100.83 105.12 L 100.30 105.02 L 99.74 105.00 L 99.17 105.00 L 98.62 104.98 L 98.10 104.86 L 97.65 104.59 L 97.30 104.19 L 97.07 103.72 L 96.91 103.22 L 96.67 102.75 L 96.36 102.31 L 96.12 101.84 L 96.02 101.32 L 95.98 100.76 L 95.89 100.23 L 95.67 99.76 L 95.37 99.32 L 95.12 98.85 L 95.02 98.32 L 95.00 97.76 L 95.00 97.20 L 95.00 96.63 L 95.00 96.06 L 94.96 95.51 L 94.82 95.00 L 94.54 94.55 L 94.25 94.10 L 94.09 93.62 L 94.14 93.12 L 94.40 92.68 L 94.79 92.32 L 95.24 92.08 L 95.65 91.87 L 95.90 91.55 L 95.98 91.06 L 96.00 90.51 L 96.00 89.94 L 96.00 89.37 L 96.02 88.81 L 96.10 88.28 L 96.31 87.80 L 96.66 87.41 L 97.11 87.14 L 97.63 87.02 L 98.19 87.00 L 98.75 87.00 L 99.32 87.00 L 99.88 87.00 L 100.41 86.96 L 100.80 86.78 L 100.96 86.37 L 100.98 85.84 L 100.91 85.31 L 100.71 84.83 L 100.41 84.38 L 100.14 83.93 L 100.02 83.41 L 99.99 82.85 L 99.91 82.32 L 99.71 81.83 L 99.41 81.39 L 99.14 80.94 L 98.97 80.44 L 98.79 79.95 L 98.50 79.50 L 98.21 79.05 L 98.08 78.56 Z M 88.15 78.06 L 88.43 77.62 L 88.84 77.28 L 89.33 77.08 L 89.87 77.01 L 90.43 77.00 L 91.00 77.00 L 91.57 77.00 L 92.13 77.01 L 92.67 77.08 L 93.16 77.28 L 93.59 77.61 L 94.00 78.00 L 94.39 78.41 L 94.72 78.84 L 94.90 79.32 L 94.87 79.82 L 94.64 80.28 L 94.29 80.70 L 93.89 81.11 L 93.48 81.49 L 93.04 81.79 L 92.53 81.95 L 91.98 81.99 L 91.41 82.00 L 90.85 82.00 L 90.28 82.00 L 89.72 81.98 L 89.19 81.88 L 88.73 81.64 L 88.35 81.26 L 88.11 80.80 L 88.02 80.27 L 88.00 79.71 L 88.00 79.14 L 88.03 78.58 Z M 142.13 75.05 L 142.37 74.67 L 142.70 74.34 L 143.09 74.12 L 143.53 74.04 L 143.96 74.13 L 144.34 74.38 L 144.66 74.71 L 144.89 75.10 L 144.98 75.55 L 145.00 76.03 L 144.98 76.51 L 144.87 76.95 L 144.63 77.33 L 144.30 77.66 L 143.91 77.88 L 143.47 77.96 L 143.04 77.87 L 142.66 77.62 L 142.34 77.29 L 142.11 76.90 L 142.02 76.45 L 142.00 75.97 L 142.02 75.49 Z M 107.17 61.06 L 107.46 60.60 L 107.90 60.26 L 108.43 60.07 L 109.00 60.01 L 109.60 60.00 L 110.20 60.02 L 110.76 60.12 L 111.25 60.36 L 111.64 60.76 L 111.87 61.25 L 111.87 61.77 L 111.64 62.27 L 111.27 62.72 L 110.85 63.14 L 110.42 63.55 L 109.94 63.83 L 109.41 63.90 L 108.90 63.74 L 108.43 63.41 L 108.00 63.00 L 107.59 62.57 L 107.26 62.10 L 107.10 61.59 Z M 150.94 56.86 L 151.40 56.58 L 151.85 56.28 L 152.34 56.10 L 152.84 56.14 L 153.30 56.38 L 153.66 56.77 L 153.88 57.24 L 153.88 57.75 L 153.68 58.23 L 153.38 58.68 L 153.14 59.14 L 153.10 59.65 L 153.27 60.14 L 153.57 60.59 L 153.84 61.05 L 153.92 61.55 L 153.78 62.05 L 153.46 62.48 L 153.03 62.79 L 152.52 62.95 L 151.97 62.99 L 151.39 63.00 L 150.82 62.98 L 150.28 62.90 L 149.80 62.68 L 149.40 62.33 L 149.13 61.87 L 149.02 61.34 L 149.00 60.77 L 149.00 60.20 L 149.00 59.62 L 149.01 59.05 L 149.05 58.49 L 149.20 57.98 L 149.51 57.54 L 149.94 57.22 L 150.44 57.03 Z M 65.15 56.06 L 65.45 55.61 L 65.87 55.27 L 66.36 55.10 L 66.88 55.15 L 67.35 55.40 L 67.77 55.78 L 68.19 56.19 L 68.57 56.62 L 68.86 57.08 L 69.04 57.59 L 69.24 58.09 L 69.55 58.55 L 69.83 59.02 L 69.96 59.55 L 69.98 60.12 L 69.91 60.67 L 69.70 61.17 L 69.35 61.58 L 68.89 61.86 L 68.36 61.97 L 67.79 61.98 L 67.24 61.89 L 66.76 61.65 L 66.37 61.28 L 66.10 60.81 L 65.93 60.30 L 65.70 59.81 L 65.39 59.35 L 65.13 58.87 L 65.02 58.33 L 65.00 57.76 L 65.00 57.17 L 65.03 56.60 Z M 116.15 41.06 L 116.43 40.62 L 116.84 40.28 L 117.33 40.08 L 117.87 40.01 L 118.43 40.00 L 119.00 40.01 L 119.55 40.05 L 120.05 40.22 L 120.47 40.53 L 120.78 40.95 L 120.92 41.44 L 120.85 41.94 L 120.57 42.38 L 120.16 42.72 L 119.67 42.92 L 119.13 42.99 L 118.57 43.00 L 118.00 42.99 L 117.45 42.95 L 116.95 42.78 L 116.53 42.47 L 116.22 42.05 L 116.08 41.56 Z M 41.13 39.05 L 41.37 38.67 L 41.70 38.34 L 42.09 38.12 L 42.54 38.02 L 43.01 38.00 L 43.49 38.02 L 43.94 38.12 L 44.32 38.36 L 44.65 38.69 L 44.88 39.08 L 44.96 39.51 L 44.87 39.95 L 44.63 40.33 L 44.30 40.66 L 43.91 40.88 L 43.46 40.98 L 42.99 41.00 L 42.51 40.98 L 42.06 40.88 L 41.68 40.64 L 41.35 40.31 L 41.12 39.92 L 41.04 39.49 Z" fill="rgb(32,32,30)" fill-rule="evenodd"/>
  <path d="M 132.20 139.20 L 132.04 139.59 L 132.01 140.11 L 132.07 140.63 L 132.25 141.11 L 132.54 141.55 L 132.81 141.99 L 132.93 142.47 L 132.84 142.96 L 132.58 143.40 L 132.28 143.83 L 132.09 144.30 L 132.02 144.82 L 132.02 145.37 L 132.13 145.88 L 132.37 146.33 L 132.68 146.76 L 132.91 147.21 L 133.07 147.70 L 133.28 148.17 L 133.58 148.60 L 133.85 149.04 L 133.97 149.54 L 134.00 150.09 L 134.00 150.64 L 134.00 151.19 L 134.00 151.75 L 134.00 152.30 L 134.00 152.86 L 134.00 153.41 L 134.01 153.96 L 134.06 154.46 L 134.25 154.83 L 134.63 155.03 L 135.09 155.23 L 135.51 155.54 L 135.91 155.91 L 136.30 156.31 L 136.64 156.72 L 136.88 157.17 L 136.98 157.68 L 137.00 158.23 L 137.00 158.78 L 137.03 159.31 L 137.17 159.72 L 137.48 159.90 L 137.81 159.79 L 137.96 159.41 L 137.99 158.89 L 137.93 158.37 L 137.75 157.89 L 137.46 157.45 L 137.19 157.01 L 137.04 156.52 L 137.01 155.98 L 137.00 155.43 L 137.01 154.88 L 137.07 154.35 L 137.26 153.87 L 137.55 153.44 L 137.82 153.00 L 137.93 152.51 L 137.84 152.03 L 137.57 151.59 L 137.27 151.16 L 137.08 150.68 L 137.01 150.16 L 137.00 149.61 L 137.00 149.05 L 137.00 148.50 L 136.99 147.95 L 136.94 147.42 L 136.78 146.93 L 136.49 146.49 L 136.21 146.06 L 136.06 145.57 L 136.00 145.03 L 135.96 144.50 L 135.82 144.00 L 135.55 143.56 L 135.26 143.13 L 135.05 142.66 L 134.90 142.17 L 134.65 141.72 L 134.35 141.29 L 134.12 140.83 L 134.02 140.32 L 133.98 139.79 L 133.86 139.35 L 133.56 139.10 L 133.10 139.02 L 132.59 139.04 Z M 96.20 139.21 L 95.98 139.59 L 95.78 140.06 L 95.47 140.50 L 95.08 140.91 L 94.68 141.32 L 94.27 141.73 L 93.87 142.13 L 93.45 142.52 L 93.01 142.82 L 92.55 143.01 L 92.19 143.25 L 92.03 143.67 L 92.00 144.22 L 92.00 144.79 L 92.00 145.36 L 91.99 145.93 L 91.96 146.49 L 91.81 147.00 L 91.52 147.45 L 91.13 147.87 L 90.73 148.28 L 90.37 148.70 L 90.14 149.16 L 90.10 149.67 L 90.28 150.15 L 90.58 150.60 L 90.86 151.05 L 91.05 151.50 L 91.31 151.84 L 91.75 151.97 L 92.29 152.00 L 92.86 152.00 L 93.40 151.96 L 93.80 151.78 L 93.97 151.38 L 94.01 150.84 L 94.09 150.30 L 94.30 149.82 L 94.64 149.38 L 95.03 148.97 L 95.42 148.56 L 95.74 148.12 L 95.93 147.62 L 95.99 147.08 L 96.04 146.52 L 96.18 146.01 L 96.46 145.55 L 96.76 145.10 L 96.96 144.61 L 97.13 144.11 L 97.39 143.64 L 97.70 143.20 L 97.91 142.71 L 97.98 142.17 L 98.00 141.60 L 97.99 141.03 L 97.95 140.47 L 97.79 139.97 L 97.48 139.54 L 97.06 139.22 L 96.59 139.09 Z M 121.21 138.20 L 121.09 138.58 L 121.21 139.04 L 121.49 139.49 L 121.78 139.93 L 121.94 140.43 L 122.00 140.97 L 122.04 141.51 L 122.19 142.01 L 122.49 142.44 L 122.91 142.76 L 123.39 142.96 L 123.89 143.12 L 124.34 143.39 L 124.75 143.76 L 125.15 144.15 L 125.53 144.56 L 125.81 145.00 L 125.92 145.49 L 125.82 145.99 L 125.56 146.43 L 125.26 146.87 L 125.10 147.33 L 125.18 147.72 L 125.51 147.90 L 125.97 147.83 L 126.39 147.56 L 126.72 147.15 L 126.92 146.67 L 126.99 146.13 L 127.00 145.57 L 126.99 145.01 L 126.95 144.47 L 126.80 143.97 L 126.52 143.52 L 126.23 143.08 L 126.04 142.59 L 125.87 142.09 L 125.61 141.64 L 125.30 141.20 L 125.09 140.73 L 125.02 140.19 L 125.00 139.64 L 124.99 139.08 L 124.95 138.56 L 124.76 138.19 L 124.35 138.03 L 123.82 138.00 L 123.25 138.00 L 122.69 138.00 L 122.13 138.00 L 121.60 138.04 Z M 160.06 132.15 L 159.62 132.44 L 159.28 132.85 L 159.08 133.35 L 159.02 133.89 L 159.05 134.42 L 159.23 134.81 L 159.62 135.03 L 160.09 135.24 L 160.53 135.56 L 160.95 135.95 L 161.36 136.34 L 161.79 136.69 L 162.27 136.92 L 162.77 137.09 L 163.25 137.33 L 163.70 137.64 L 164.17 137.89 L 164.67 138.06 L 165.16 138.28 L 165.59 138.61 L 166.01 139.01 L 166.42 139.40 L 166.86 139.73 L 167.35 139.94 L 167.85 140.11 L 168.32 140.37 L 168.77 140.68 L 169.25 140.90 L 169.79 140.98 L 170.35 141.02 L 170.88 141.13 L 171.34 141.40 L 171.77 141.77 L 172.18 142.17 L 172.59 142.56 L 173.05 142.84 L 173.57 142.97 L 174.13 143.01 L 174.67 143.09 L 175.17 143.29 L 175.61 143.59 L 176.07 143.84 L 176.52 143.89 L 176.83 143.68 L 176.88 143.27 L 176.70 142.80 L 176.39 142.35 L 176.13 141.89 L 176.02 141.36 L 175.98 140.81 L 175.86 140.36 L 175.54 140.10 L 175.05 140.01 L 174.51 139.96 L 173.99 139.81 L 173.56 139.50 L 173.24 139.08 L 173.06 138.58 L 173.00 138.03 L 172.93 137.53 L 172.70 137.17 L 172.27 137.03 L 171.73 136.98 L 171.20 136.88 L 170.73 136.64 L 170.35 136.26 L 170.09 135.81 L 169.89 135.39 L 169.57 135.12 L 169.09 135.02 L 168.54 135.00 L 167.97 134.99 L 167.41 134.93 L 166.91 134.76 L 166.46 134.46 L 166.00 134.18 L 165.50 134.00 L 165.00 133.82 L 164.55 133.52 L 164.13 133.13 L 163.72 132.73 L 163.30 132.37 L 162.83 132.12 L 162.29 132.02 L 161.73 132.00 L 161.15 132.00 L 160.59 132.03 Z M 43.20 124.22 L 43.04 124.61 L 43.00 125.14 L 43.00 125.71 L 42.98 126.27 L 42.89 126.80 L 42.66 127.27 L 42.35 127.71 L 42.10 128.18 L 41.94 128.68 L 41.72 129.16 L 41.38 129.57 L 40.94 129.86 L 40.44 130.03 L 39.95 130.21 L 39.53 130.53 L 39.22 130.95 L 39.08 131.44 L 39.15 131.94 L 39.43 132.38 L 39.84 132.71 L 40.32 132.90 L 40.82 132.87 L 41.27 132.64 L 41.65 132.26 L 41.89 131.80 L 41.98 131.27 L 42.02 130.71 L 42.12 130.19 L 42.36 129.72 L 42.71 129.30 L 43.11 128.89 L 43.49 128.48 L 43.79 128.04 L 43.95 127.53 L 43.99 126.98 L 44.00 126.41 L 44.00 125.85 L 44.00 125.28 L 43.97 124.74 L 43.84 124.31 L 43.53 124.11 Z M 55.06 123.14 L 54.62 123.40 L 54.19 123.71 L 53.72 123.91 L 53.20 123.99 L 52.68 124.03 L 52.27 124.17 L 52.07 124.51 L 52.02 125.00 L 52.07 125.49 L 52.27 125.84 L 52.66 126.04 L 53.11 126.24 L 53.54 126.53 L 53.98 126.81 L 54.46 126.93 L 54.94 126.85 L 55.38 126.60 L 55.81 126.29 L 56.27 126.07 L 56.76 125.92 L 57.22 125.69 L 57.64 125.39 L 58.09 125.13 L 58.60 125.02 L 59.13 125.01 L 59.66 125.08 L 60.13 125.26 L 60.56 125.55 L 61.00 125.82 L 61.45 125.92 L 61.81 125.77 L 61.97 125.38 L 61.98 124.88 L 61.89 124.42 L 61.63 124.13 L 61.19 124.02 L 60.66 123.98 L 60.15 123.88 L 59.70 123.64 L 59.27 123.34 L 58.82 123.11 L 58.30 123.02 L 57.76 123.00 L 57.21 123.00 L 56.66 123.00 L 56.10 123.00 L 55.56 123.02 Z M 153.19 121.21 L 152.99 121.57 L 152.80 122.03 L 152.50 122.45 L 152.09 122.76 L 151.61 122.96 L 151.12 123.12 L 150.67 123.37 L 150.24 123.68 L 149.80 123.92 L 149.38 124.11 L 149.10 124.40 L 148.91 124.82 L 148.66 125.27 L 148.36 125.70 L 148.14 126.14 L 148.12 126.57 L 148.36 126.86 L 148.80 126.98 L 149.32 126.98 L 149.84 126.88 L 150.30 126.65 L 150.73 126.34 L 151.18 126.12 L 151.67 126.10 L 152.14 126.27 L 152.55 126.60 L 152.84 127.02 L 153.02 127.47 L 153.25 127.82 L 153.65 127.97 L 154.18 128.00 L 154.74 128.00 L 155.29 128.00 L 155.85 128.00 L 156.41 128.00 L 156.96 127.99 L 157.46 127.94 L 157.82 127.74 L 157.97 127.34 L 158.01 126.82 L 158.09 126.29 L 158.29 125.82 L 158.59 125.39 L 158.85 124.95 L 158.91 124.50 L 158.73 124.18 L 158.40 124.13 L 158.12 124.36 L 157.92 124.76 L 157.69 125.21 L 157.34 125.60 L 156.91 125.86 L 156.42 125.92 L 155.94 125.78 L 155.53 125.47 L 155.22 125.06 L 155.06 124.57 L 155.01 124.03 L 155.00 123.48 L 154.99 122.93 L 154.94 122.40 L 154.76 121.91 L 154.45 121.50 L 154.03 121.20 L 153.57 121.08 Z M 115.20 116.21 L 115.04 116.60 L 115.00 117.13 L 115.00 117.69 L 115.00 118.26 L 115.00 118.82 L 114.98 119.38 L 114.87 119.90 L 114.61 120.36 L 114.31 120.79 L 114.11 121.27 L 114.12 121.76 L 114.32 122.23 L 114.62 122.67 L 114.87 123.13 L 114.98 123.65 L 115.02 124.19 L 115.14 124.63 L 115.44 124.90 L 115.92 124.98 L 116.47 125.00 L 117.03 125.01 L 117.57 125.06 L 118.07 125.23 L 118.48 125.54 L 118.79 125.96 L 118.95 126.46 L 118.99 127.00 L 118.95 127.55 L 118.79 128.05 L 118.51 128.49 L 118.22 128.94 L 118.06 129.44 L 118.00 129.98 L 117.95 130.52 L 117.80 131.03 L 117.52 131.47 L 117.23 131.92 L 117.04 132.40 L 116.87 132.90 L 116.59 133.34 L 116.20 133.69 L 115.75 133.93 L 115.34 134.13 L 115.13 134.43 L 115.20 134.76 L 115.55 134.94 L 116.06 134.98 L 116.59 134.93 L 117.09 134.76 L 117.50 134.44 L 117.81 134.02 L 117.99 133.53 L 118.15 133.03 L 118.44 132.59 L 118.82 132.18 L 119.22 131.78 L 119.63 131.41 L 120.08 131.15 L 120.58 131.08 L 121.06 131.22 L 121.51 131.51 L 121.96 131.79 L 122.45 131.92 L 122.94 131.85 L 123.39 131.59 L 123.83 131.28 L 124.32 131.09 L 124.85 131.01 L 125.41 131.00 L 125.97 130.99 L 126.52 130.95 L 127.02 130.80 L 127.45 130.50 L 127.76 130.08 L 127.94 129.59 L 127.99 129.05 L 127.96 128.50 L 127.82 128.00 L 127.54 127.55 L 127.24 127.11 L 127.04 126.64 L 126.83 126.26 L 126.45 126.06 L 125.94 126.01 L 125.38 126.00 L 124.82 125.99 L 124.29 125.91 L 123.81 125.70 L 123.37 125.40 L 122.92 125.13 L 122.42 124.97 L 121.94 124.78 L 121.52 124.46 L 121.21 124.04 L 121.02 123.58 L 120.80 123.20 L 120.42 122.98 L 119.96 122.79 L 119.54 122.48 L 119.22 122.06 L 119.08 121.58 L 119.15 121.08 L 119.42 120.64 L 119.82 120.30 L 120.28 120.07 L 120.78 119.91 L 121.25 119.67 L 121.68 119.37 L 122.13 119.11 L 122.57 118.92 L 122.84 118.66 L 122.84 118.33 L 122.55 118.07 L 122.12 117.89 L 121.67 117.63 L 121.23 117.32 L 120.76 117.10 L 120.23 117.02 L 119.67 117.00 L 119.10 117.00 L 118.54 117.00 L 117.98 116.99 L 117.43 116.94 L 116.94 116.78 L 116.49 116.49 L 116.05 116.21 L 115.58 116.09 Z M 84.19 111.21 L 84.03 111.59 L 84.00 112.10 L 84.00 112.65 L 84.00 113.20 L 84.00 113.75 L 83.98 114.30 L 83.89 114.81 L 83.65 115.26 L 83.30 115.63 L 82.87 115.89 L 82.44 116.07 L 82.14 116.34 L 82.02 116.77 L 82.00 117.30 L 82.00 117.85 L 82.00 118.40 L 82.00 118.95 L 82.00 119.50 L 82.01 120.05 L 82.06 120.58 L 82.22 121.07 L 82.50 121.50 L 82.78 121.94 L 82.94 122.42 L 82.99 122.95 L 83.00 123.50 L 82.99 124.05 L 82.94 124.58 L 82.78 125.06 L 82.50 125.50 L 82.22 125.93 L 82.08 126.41 L 82.14 126.89 L 82.38 127.34 L 82.68 127.76 L 82.92 128.20 L 83.10 128.62 L 83.40 128.88 L 83.85 128.98 L 84.39 129.00 L 84.93 129.00 L 85.47 129.03 L 85.97 129.16 L 86.39 129.44 L 86.72 129.84 L 86.94 130.29 L 87.14 130.68 L 87.46 130.91 L 87.94 130.98 L 88.44 130.95 L 88.81 130.78 L 88.97 130.38 L 89.00 129.86 L 89.00 129.32 L 89.00 128.76 L 89.00 128.21 L 89.00 127.66 L 89.00 127.11 L 88.98 126.57 L 88.86 126.07 L 88.60 125.62 L 88.30 125.20 L 88.11 124.74 L 88.11 124.25 L 88.31 123.80 L 88.65 123.41 L 89.08 123.14 L 89.58 123.02 L 90.12 123.01 L 90.64 123.07 L 91.12 123.25 L 91.54 123.56 L 91.94 123.94 L 92.32 124.33 L 92.66 124.74 L 92.89 125.20 L 92.98 125.71 L 93.02 126.23 L 93.14 126.66 L 93.44 126.89 L 93.87 126.86 L 94.31 126.64 L 94.73 126.34 L 95.17 126.09 L 95.59 125.91 L 95.86 125.64 L 95.88 125.22 L 95.69 124.78 L 95.39 124.35 L 95.13 123.91 L 95.02 123.40 L 95.01 122.87 L 95.08 122.34 L 95.26 121.87 L 95.57 121.45 L 95.95 121.05 L 96.33 120.66 L 96.67 120.25 L 96.89 119.79 L 96.98 119.27 L 97.00 118.73 L 97.00 118.18 L 97.00 117.63 L 97.00 117.08 L 97.00 116.53 L 96.99 115.99 L 96.93 115.50 L 96.72 115.15 L 96.33 114.95 L 95.87 114.75 L 95.45 114.45 L 95.01 114.18 L 94.53 114.01 L 94.04 113.86 L 93.60 113.59 L 93.18 113.29 L 92.71 113.09 L 92.19 113.02 L 91.65 113.02 L 91.14 113.12 L 90.69 113.36 L 90.26 113.66 L 89.81 113.89 L 89.29 113.98 L 88.75 114.00 L 88.20 114.00 L 87.65 114.00 L 87.10 114.00 L 86.56 113.97 L 86.05 113.85 L 85.63 113.58 L 85.29 113.18 L 85.09 112.72 L 85.01 112.20 L 84.97 111.68 L 84.83 111.27 L 84.52 111.10 Z M 92.15 116.06 L 92.46 115.61 L 92.89 115.27 L 93.40 115.10 L 93.91 115.16 L 94.37 115.44 L 94.72 115.87 L 94.94 116.37 L 95.13 116.89 L 95.41 117.37 L 95.71 117.84 L 95.89 118.35 L 95.85 118.87 L 95.59 119.35 L 95.21 119.78 L 94.79 120.20 L 94.35 120.59 L 93.87 120.86 L 93.32 120.97 L 92.74 120.98 L 92.19 120.88 L 91.71 120.61 L 91.34 120.21 L 91.12 119.73 L 91.13 119.21 L 91.36 118.72 L 91.66 118.25 L 91.89 117.75 L 91.98 117.19 L 92.03 116.61 Z M 87.00 116.00 L 87.43 115.60 L 87.88 115.27 L 88.38 115.10 L 88.90 115.15 L 89.36 115.43 L 89.71 115.85 L 89.89 116.34 L 89.85 116.86 L 89.61 117.34 L 89.31 117.80 L 89.12 118.28 L 89.19 118.70 L 89.52 118.96 L 89.98 119.16 L 90.42 119.48 L 90.75 119.92 L 90.91 120.42 L 90.84 120.94 L 90.55 121.39 L 90.12 121.73 L 89.61 121.92 L 89.04 121.98 L 88.48 121.94 L 87.95 121.78 L 87.51 121.45 L 87.19 121.01 L 87.00 120.50 L 86.81 119.99 L 86.51 119.52 L 86.22 119.05 L 86.06 118.52 L 86.02 117.96 L 86.08 117.39 L 86.27 116.88 L 86.60 116.43 Z M 57.06 109.14 L 56.64 109.41 L 56.30 109.80 L 56.09 110.25 L 56.02 110.76 L 56.03 111.27 L 56.15 111.69 L 56.46 111.92 L 56.93 111.99 L 57.45 111.97 L 57.94 111.86 L 58.38 111.60 L 58.79 111.30 L 59.24 111.08 L 59.72 110.93 L 60.18 110.72 L 60.59 110.42 L 61.02 110.15 L 61.47 109.99 L 61.81 109.79 L 61.90 109.46 L 61.71 109.16 L 61.30 109.03 L 60.79 109.00 L 60.25 109.00 L 59.71 109.00 L 59.17 109.00 L 58.62 109.00 L 58.08 109.00 L 57.55 109.02 Z M 71.06 105.14 L 70.62 105.40 L 70.21 105.70 L 69.75 105.91 L 69.24 105.98 L 68.71 106.00 L 68.17 106.00 L 67.65 106.03 L 67.25 106.17 L 67.06 106.52 L 67.01 107.00 L 67.06 107.48 L 67.25 107.83 L 67.65 107.97 L 68.16 107.99 L 68.68 107.92 L 69.14 107.74 L 69.56 107.45 L 69.99 107.18 L 70.47 107.02 L 70.94 106.87 L 71.38 106.60 L 71.79 106.30 L 72.23 106.07 L 72.63 105.90 L 72.87 105.62 L 72.84 105.30 L 72.54 105.08 L 72.07 105.01 L 71.55 105.03 Z M 147.20 102.20 L 146.99 102.57 L 146.81 103.03 L 146.50 103.44 L 146.10 103.76 L 145.64 103.96 L 145.26 104.16 L 145.10 104.49 L 145.22 104.81 L 145.61 104.97 L 146.13 105.01 L 146.65 105.08 L 147.13 105.26 L 147.56 105.58 L 147.95 105.96 L 148.34 106.35 L 148.68 106.76 L 148.92 107.21 L 149.10 107.62 L 149.38 107.86 L 149.71 107.83 L 149.94 107.53 L 150.12 107.09 L 150.38 106.65 L 150.69 106.22 L 150.89 105.76 L 150.89 105.27 L 150.70 104.81 L 150.40 104.38 L 150.14 103.93 L 150.02 103.43 L 149.99 102.90 L 149.90 102.43 L 149.64 102.13 L 149.20 102.02 L 148.66 102.00 L 148.11 102.00 L 147.59 102.03 Z M 36.06 86.15 L 35.61 86.43 L 35.20 86.81 L 34.79 87.21 L 34.39 87.61 L 33.99 88.01 L 33.58 88.40 L 33.15 88.72 L 32.67 88.90 L 32.17 88.87 L 31.70 88.64 L 31.26 88.34 L 30.78 88.11 L 30.25 88.02 L 29.69 88.00 L 29.12 88.00 L 28.55 88.00 L 28.00 88.01 L 27.50 88.08 L 27.18 88.30 L 27.15 88.63 L 27.41 88.88 L 27.88 88.98 L 28.42 89.02 L 28.94 89.15 L 29.39 89.43 L 29.80 89.81 L 30.20 90.21 L 30.58 90.62 L 30.87 91.06 L 31.06 91.51 L 31.31 91.84 L 31.75 91.97 L 32.29 91.98 L 32.81 91.88 L 33.27 91.64 L 33.65 91.26 L 33.90 90.80 L 34.07 90.30 L 34.29 89.83 L 34.63 89.43 L 35.08 89.14 L 35.60 89.02 L 36.16 89.00 L 36.72 89.00 L 37.26 88.97 L 37.70 88.83 L 37.92 88.49 L 37.98 87.99 L 37.94 87.45 L 37.78 86.95 L 37.47 86.53 L 37.05 86.22 L 36.56 86.08 Z M 103.05 82.16 L 102.62 82.44 L 102.28 82.85 L 102.08 83.33 L 102.01 83.88 L 102.00 84.44 L 102.00 85.01 L 102.00 85.58 L 101.99 86.15 L 101.91 86.69 L 101.71 87.17 L 101.36 87.58 L 100.92 87.86 L 100.40 87.98 L 99.85 88.02 L 99.39 88.13 L 99.14 88.42 L 99.14 88.85 L 99.36 89.30 L 99.67 89.75 L 99.88 90.22 L 99.89 90.72 L 99.69 91.19 L 99.34 91.59 L 98.89 91.86 L 98.37 91.98 L 97.83 92.02 L 97.37 92.14 L 97.09 92.43 L 96.89 92.87 L 96.63 93.32 L 96.32 93.77 L 96.10 94.25 L 96.02 94.78 L 96.00 95.35 L 96.00 95.92 L 96.00 96.49 L 96.00 97.06 L 96.00 97.63 L 96.02 98.20 L 96.10 98.73 L 96.31 99.21 L 96.62 99.66 L 96.87 100.13 L 96.98 100.65 L 97.02 101.19 L 97.14 101.64 L 97.45 101.88 L 97.89 101.85 L 98.34 101.62 L 98.78 101.31 L 99.27 101.10 L 99.80 101.01 L 100.36 100.98 L 100.88 100.87 L 101.35 100.61 L 101.79 100.31 L 102.28 100.10 L 102.82 100.01 L 103.37 99.98 L 103.89 99.86 L 104.34 99.59 L 104.69 99.19 L 104.88 98.74 L 104.83 98.33 L 104.53 98.11 L 104.08 98.15 L 103.63 98.41 L 103.22 98.79 L 102.81 99.18 L 102.40 99.56 L 101.95 99.85 L 101.43 99.97 L 100.87 99.98 L 100.33 99.92 L 99.84 99.72 L 99.41 99.39 L 99.00 99.00 L 98.61 98.59 L 98.28 98.15 L 98.08 97.66 L 98.01 97.12 L 98.00 96.55 L 98.00 95.98 L 98.00 95.41 L 98.01 94.85 L 98.09 94.31 L 98.30 93.82 L 98.63 93.39 L 99.02 92.98 L 99.43 92.59 L 99.87 92.27 L 100.35 92.06 L 100.85 91.89 L 101.32 91.63 L 101.76 91.33 L 102.23 91.12 L 102.74 91.12 L 103.21 91.32 L 103.64 91.66 L 104.05 92.05 L 104.46 92.43 L 104.90 92.75 L 105.40 92.93 L 105.94 92.98 L 106.45 92.94 L 106.83 92.74 L 107.04 92.35 L 107.25 91.88 L 107.55 91.44 L 107.82 90.98 L 107.92 90.48 L 107.80 89.99 L 107.50 89.56 L 107.08 89.23 L 106.59 89.04 L 106.09 88.87 L 105.65 88.58 L 105.30 88.18 L 105.06 87.73 L 104.86 87.32 L 104.52 87.06 L 104.07 86.87 L 103.64 86.58 L 103.30 86.17 L 103.11 85.70 L 103.13 85.20 L 103.35 84.73 L 103.65 84.28 L 103.88 83.81 L 103.98 83.28 L 103.97 82.74 L 103.84 82.31 L 103.50 82.10 Z" fill="rgb(83,83,80)" fill-rule="evenodd"/>
  <path d="M 76.05 125.14 L 75.64 125.38 L 75.25 125.68 L 74.84 125.91 L 74.43 126.06 L 74.14 126.30 L 74.02 126.70 L 74.00 127.20 L 74.00 127.71 L 74.02 128.21 L 74.11 128.63 L 74.37 128.89 L 74.79 128.98 L 75.29 129.00 L 75.81 129.00 L 76.30 128.98 L 76.70 128.86 L 76.92 128.56 L 76.99 128.12 L 77.00 127.61 L 77.00 127.10 L 77.00 126.58 L 77.00 126.07 L 76.97 125.58 L 76.82 125.21 L 76.48 125.07 Z" fill="rgb(252,252,252)" fill-rule="evenodd"/>
</svg>