<svg xmlns="http://www.w3.org/2000/svg" width="204" height="184" viewBox="0 0 204 184" role="img" aria-label="17_icons_17">
  <title>17_icons_17</title>
  <path d="M 33.19 133.22 L 32.97 133.60 L 32.76 134.08 L 32.44 134.54 L 32.04 134.96 L 31.62 135.38 L 31.20 135.79 L 30.79 136.21 L 30.35 136.59 L 29.88 136.87 L 29.37 137.05 L 28.87 137.27 L 28.41 137.58 L 27.93 137.86 L 27.42 138.04 L 26.91 138.24 L 26.46 138.57 L 26.03 138.97 L 25.63 139.39 L 25.29 139.84 L 25.06 140.34 L 24.88 140.85 L 24.62 141.33 L 24.31 141.79 L 24.10 142.29 L 24.02 142.85 L 24.00 143.43 L 23.99 144.02 L 23.93 144.58 L 23.75 145.10 L 23.42 145.55 L 23.02 145.98 L 22.62 146.40 L 22.28 146.85 L 22.06 147.35 L 21.88 147.86 L 21.60 148.34 L 21.22 148.77 L 20.81 149.19 L 20.39 149.61 L 19.98 150.02 L 19.58 150.45 L 19.25 150.90 L 19.04 151.41 L 18.86 151.92 L 18.57 152.39 L 18.18 152.82 L 17.77 153.24 L 17.40 153.67 L 17.15 154.13 L 17.14 154.58 L 17.41 154.87 L 17.89 154.98 L 18.44 154.96 L 18.98 154.83 L 19.45 154.54 L 19.91 154.24 L 20.42 154.04 L 20.93 153.86 L 21.41 153.58 L 21.87 153.27 L 22.38 153.08 L 22.94 153.01 L 23.53 153.00 L 24.12 153.00 L 24.71 153.00 L 25.30 153.00 L 25.88 153.00 L 26.46 152.96 L 26.99 152.82 L 27.46 152.53 L 27.93 152.23 L 28.43 152.03 L 28.95 151.85 L 29.41 151.55 L 29.84 151.16 L 30.25 150.74 L 30.62 150.30 L 30.89 149.82 L 31.07 149.31 L 31.31 148.82 L 31.67 148.41 L 32.13 148.12 L 32.64 147.94 L 33.14 147.73 L 33.60 147.42 L 34.08 147.14 L 34.59 146.96 L 35.09 146.75 L 35.53 146.41 L 35.83 145.96 L 35.96 145.43 L 35.98 144.86 L 35.90 144.31 L 35.69 143.81 L 35.32 143.40 L 34.86 143.13 L 34.31 143.02 L 33.74 142.98 L 33.19 142.88 L 32.72 142.62 L 32.34 142.23 L 32.11 141.74 L 32.02 141.19 L 32.03 140.62 L 32.15 140.08 L 32.42 139.60 L 32.73 139.14 L 32.92 138.63 L 32.99 138.07 L 33.05 137.50 L 33.20 136.98 L 33.49 136.51 L 33.79 136.04 L 33.95 135.52 L 33.99 134.95 L 34.00 134.36 L 33.97 133.80 L 33.84 133.34 L 33.54 133.13 Z M 198.21 66.19 L 198.10 66.52 L 198.26 66.84 L 198.65 67.04 L 199.09 67.23 L 199.50 67.55 L 199.80 67.96 L 199.98 68.41 L 200.18 68.78 L 200.54 68.92 L 201.00 68.82 L 201.42 68.55 L 201.82 68.18 L 202.21 67.79 L 202.57 67.40 L 202.84 66.97 L 202.91 66.52 L 202.75 66.18 L 202.35 66.03 L 201.83 66.00 L 201.29 66.00 L 200.74 66.00 L 200.19 66.00 L 199.64 66.00 L 199.10 66.00 L 198.58 66.03 Z M 30.20 35.20 L 30.08 35.56 L 30.19 36.02 L 30.47 36.44 L 30.83 36.83 L 31.22 37.22 L 31.58 37.61 L 31.86 38.04 L 32.03 38.48 L 32.24 38.82 L 32.62 38.91 L 33.07 38.78 L 33.48 38.48 L 33.78 38.07 L 33.92 37.60 L 33.87 37.12 L 33.62 36.69 L 33.25 36.34 L 32.81 36.10 L 32.33 35.94 L 31.87 35.75 L 31.45 35.45 L 31.02 35.19 L 30.56 35.08 Z M 164.05 17.16 L 163.59 17.42 L 163.14 17.73 L 162.64 17.94 L 162.13 18.12 L 161.66 18.40 L 161.24 18.77 L 160.82 19.18 L 160.44 19.60 L 160.15 20.06 L 160.02 20.60 L 159.99 21.16 L 159.90 21.71 L 159.68 22.20 L 159.32 22.60 L 158.86 22.87 L 158.32 22.98 L 157.75 23.00 L 157.17 23.00 L 156.59 23.03 L 156.06 23.15 L 155.61 23.44 L 155.28 23.87 L 155.10 24.36 L 155.14 24.87 L 155.39 25.34 L 155.69 25.80 L 155.90 26.29 L 155.99 26.84 L 156.04 27.38 L 156.21 27.78 L 156.59 27.90 L 157.07 27.77 L 157.53 27.47 L 158.00 27.19 L 158.52 27.04 L 159.07 26.99 L 159.56 26.89 L 159.88 26.62 L 160.09 26.19 L 160.34 25.73 L 160.65 25.27 L 160.90 24.79 L 161.08 24.28 L 161.31 23.80 L 161.66 23.36 L 162.06 22.94 L 162.45 22.52 L 162.77 22.07 L 162.96 21.57 L 163.14 21.06 L 163.44 20.60 L 163.83 20.18 L 164.23 19.76 L 164.60 19.33 L 164.87 18.86 L 164.98 18.32 L 164.97 17.78 L 164.84 17.33 L 164.51 17.11 Z M 88.30 3.79 L 87.30 7.21 L 86.54 11.39 L 86.92 14.40 L 90.58 14.37 L 92.92 17.10 L 93.62 20.79 L 90.67 23.68 L 87.52 25.55 L 84.98 27.26 L 84.64 23.90 L 83.82 23.58 L 82.69 27.49 L 80.14 30.41 L 79.72 34.13 L 79.35 38.19 L 79.71 42.15 L 78.84 46.20 L 77.97 50.34 L 77.01 54.44 L 75.33 58.08 L 71.83 57.92 L 67.88 56.58 L 64.13 54.78 L 60.66 52.29 L 56.82 50.71 L 54.21 51.44 L 56.78 52.71 L 60.01 53.62 L 61.65 57.20 L 59.13 59.48 L 55.59 57.54 L 52.07 55.16 L 49.14 53.01 L 47.78 52.44 L 45.01 52.79 L 42.70 49.62 L 40.39 50.36 L 42.13 53.93 L 44.00 57.48 L 47.21 60.24 L 49.61 63.75 L 51.66 67.40 L 54.18 70.86 L 56.87 74.25 L 58.42 77.74 L 55.04 78.99 L 50.72 79.43 L 46.55 80.24 L 42.39 80.90 L 38.25 80.05 L 33.94 80.40 L 30.09 81.99 L 26.31 83.74 L 22.23 84.25 L 21.37 86.90 L 18.09 87.43 L 16.30 85.93 L 16.14 89.79 L 18.63 92.75 L 22.59 94.05 L 26.20 96.22 L 29.98 97.95 L 34.27 98.48 L 38.11 100.08 L 41.85 101.90 L 45.67 103.57 L 49.10 105.69 L 49.05 109.27 L 47.03 112.94 L 44.73 116.48 L 41.98 119.44 L 39.35 122.68 L 37.71 126.46 L 36.92 129.08 L 38.40 132.46 L 39.69 135.75 L 40.95 138.11 L 43.98 140.36 L 47.61 139.68 L 51.70 138.69 L 55.40 136.75 L 58.92 134.38 L 62.74 132.74 L 66.58 131.31 L 68.94 133.64 L 69.62 137.86 L 70.00 142.20 L 70.00 146.71 L 70.00 151.21 L 70.00 155.71 L 70.00 160.21 L 70.00 164.72 L 69.39 168.94 L 69.54 172.84 L 69.01 176.99 L 68.84 181.32 L 69.93 182.13 L 72.12 178.80 L 74.21 175.16 L 76.87 171.76 L 79.56 168.75 L 81.77 165.37 L 83.42 161.92 L 81.92 158.73 L 81.58 154.83 L 83.15 151.03 L 85.74 148.51 L 89.10 147.40 L 92.89 146.96 L 96.13 143.90 L 99.86 142.06 L 103.58 143.19 L 105.54 146.79 L 108.42 149.67 L 111.67 152.68 L 114.82 155.88 L 117.38 159.32 L 120.52 162.52 L 123.21 165.91 L 126.18 169.18 L 129.00 172.51 L 131.10 176.12 L 133.66 179.07 L 136.38 182.11 L 137.20 180.66 L 136.09 176.66 L 135.96 172.21 L 134.86 168.17 L 132.95 164.86 L 131.84 161.82 L 132.98 160.50 L 130.03 159.55 L 126.65 157.73 L 124.60 154.61 L 124.58 151.01 L 121.54 149.24 L 118.19 146.74 L 118.83 144.22 L 121.58 142.26 L 118.84 140.75 L 117.98 138.20 L 118.48 135.03 L 120.73 132.57 L 123.35 133.19 L 121.66 130.16 L 123.47 128.82 L 126.72 131.65 L 128.92 131.21 L 128.95 126.83 L 128.68 123.05 L 132.03 122.83 L 135.83 123.53 L 138.81 121.15 L 142.33 120.86 L 145.65 122.61 L 148.45 125.38 L 150.37 127.25 L 149.58 124.25 L 152.69 123.79 L 156.96 124.33 L 160.88 124.70 L 161.44 121.54 L 159.57 117.98 L 161.88 116.32 L 163.00 115.20 L 159.92 112.26 L 156.34 110.11 L 153.53 107.28 L 149.87 105.33 L 147.12 102.85 L 146.62 99.06 L 149.60 96.42 L 153.34 94.58 L 157.34 93.35 L 161.12 91.61 L 164.66 89.29 L 166.40 85.93 L 163.97 83.10 L 161.56 80.28 L 163.58 77.80 L 166.81 76.02 L 169.51 73.64 L 172.93 72.01 L 176.83 70.90 L 178.96 68.19 L 177.38 67.05 L 173.23 67.80 L 168.83 68.05 L 164.68 68.90 L 160.22 69.00 L 155.71 69.00 L 151.21 69.00 L 146.71 69.00 L 142.57 68.20 L 141.30 64.63 L 143.30 60.98 L 145.54 57.41 L 147.17 53.58 L 148.62 49.68 L 150.37 45.90 L 151.32 42.53 L 148.23 40.85 L 145.17 38.56 L 145.08 35.44 L 148.67 34.43 L 150.51 37.47 L 153.52 38.29 L 152.74 35.19 L 149.10 33.21 L 144.71 33.06 L 140.93 34.79 L 137.35 37.03 L 133.64 38.93 L 130.02 41.06 L 126.81 44.19 L 123.63 47.37 L 120.25 50.08 L 116.55 52.03 L 113.08 54.44 L 110.11 53.11 L 108.43 49.34 L 106.52 45.67 L 103.42 44.15 L 100.24 45.47 L 97.10 43.50 L 97.06 40.11 L 97.46 36.77 L 98.98 33.16 L 100.80 30.04 L 99.70 26.08 L 97.87 22.34 L 95.35 18.88 L 93.50 15.14 L 91.92 11.30 L 90.42 7.42 L 88.76 3.97 Z M 75.15 155.06 L 75.43 154.62 L 75.84 154.29 L 76.32 154.10 L 76.82 154.13 L 77.27 154.36 L 77.65 154.74 L 77.89 155.20 L 77.98 155.73 L 78.00 156.29 L 78.00 156.86 L 77.97 157.42 L 77.85 157.94 L 77.57 158.38 L 77.16 158.71 L 76.68 158.90 L 76.18 158.87 L 75.73 158.64 L 75.35 158.26 L 75.11 157.80 L 75.02 157.27 L 75.00 156.71 L 75.00 156.14 L 75.03 155.58 Z M 114.15 138.06 L 114.46 137.60 L 114.90 137.26 L 115.41 137.10 L 115.94 137.17 L 116.40 137.46 L 116.74 137.90 L 116.90 138.41 L 116.84 138.94 L 116.56 139.42 L 116.25 139.90 L 116.04 140.41 L 115.85 140.94 L 115.54 141.40 L 115.10 141.74 L 114.59 141.90 L 114.06 141.83 L 113.60 141.54 L 113.26 141.10 L 113.10 140.59 L 113.16 140.06 L 113.44 139.58 L 113.75 139.10 L 113.96 138.59 Z M 76.13 136.05 L 76.37 135.67 L 76.70 135.34 L 77.09 135.12 L 77.54 135.02 L 78.01 135.00 L 78.49 135.02 L 78.94 135.12 L 79.32 135.36 L 79.65 135.69 L 79.88 136.08 L 79.96 136.51 L 79.87 136.95 L 79.63 137.33 L 79.30 137.66 L 78.91 137.88 L 78.46 137.98 L 77.99 138.00 L 77.51 137.98 L 77.06 137.88 L 76.68 137.64 L 76.35 137.31 L 76.12 136.92 L 76.04 136.49 Z M 108.15 85.06 L 108.44 84.62 L 108.86 84.28 L 109.36 84.08 L 109.91 84.02 L 110.47 84.04 L 110.99 84.18 L 111.45 84.48 L 111.86 84.87 L 112.27 85.28 L 112.63 85.71 L 112.87 86.18 L 112.89 86.68 L 112.70 87.17 L 112.36 87.58 L 111.90 87.86 L 111.37 87.98 L 110.80 88.00 L 110.22 88.00 L 109.65 87.98 L 109.12 87.86 L 108.66 87.59 L 108.31 87.19 L 108.09 86.70 L 108.02 86.15 L 108.03 85.59 Z M 157.15 83.06 L 157.43 82.63 L 157.83 82.29 L 158.30 82.09 L 158.83 82.01 L 159.38 82.00 L 159.94 82.00 L 160.50 82.00 L 161.06 82.01 L 161.59 82.06 L 162.08 82.23 L 162.49 82.55 L 162.80 82.97 L 162.92 83.45 L 162.85 83.94 L 162.57 84.37 L 162.17 84.71 L 161.70 84.91 L 161.17 84.99 L 160.62 85.00 L 160.06 85.00 L 159.50 85.00 L 158.94 84.99 L 158.41 84.94 L 157.92 84.77 L 157.51 84.45 L 157.20 84.03 L 157.08 83.55 Z M 146.15 77.06 L 146.43 76.62 L 146.84 76.28 L 147.33 76.08 L 147.87 76.01 L 148.43 76.00 L 149.00 76.00 L 149.57 76.00 L 150.13 76.01 L 150.67 76.08 L 151.16 76.28 L 151.57 76.62 L 151.85 77.06 L 151.97 77.58 L 151.98 78.13 L 151.92 78.67 L 151.72 79.16 L 151.38 79.57 L 150.94 79.85 L 150.42 79.97 L 149.87 79.98 L 149.33 79.92 L 148.84 79.72 L 148.40 79.41 L 147.94 79.14 L 147.44 78.97 L 146.95 78.79 L 146.53 78.47 L 146.22 78.05 L 146.08 77.56 Z M 76.13 74.05 L 76.37 73.67 L 76.70 73.34 L 77.09 73.12 L 77.53 73.04 L 77.96 73.13 L 78.34 73.38 L 78.66 73.71 L 78.89 74.10 L 78.98 74.55 L 79.00 75.03 L 78.98 75.51 L 78.87 75.95 L 78.63 76.33 L 78.30 76.66 L 77.91 76.88 L 77.47 76.96 L 77.04 76.87 L 76.66 76.62 L 76.34 76.29 L 76.11 75.90 L 76.02 75.45 L 76.00 74.97 L 76.02 74.49 Z M 89.14 39.06 L 89.43 38.63 L 89.83 38.29 L 90.30 38.09 L 90.83 38.02 L 91.38 38.02 L 91.90 38.13 L 92.34 38.40 L 92.69 38.79 L 92.90 39.26 L 92.98 39.79 L 92.98 40.33 L 92.88 40.85 L 92.64 41.31 L 92.33 41.75 L 92.11 42.22 L 92.02 42.74 L 91.98 43.29 L 91.89 43.81 L 91.65 44.26 L 91.28 44.63 L 90.83 44.87 L 90.34 44.90 L 89.87 44.73 L 89.46 44.41 L 89.17 43.98 L 89.04 43.47 L 89.00 42.92 L 89.00 42.37 L 89.00 41.80 L 89.00 41.24 L 89.00 40.68 L 89.00 40.12 L 89.03 39.57 Z" fill="rgb(241,23,21)" fill-rule="evenodd"/>
  <path d="M 131.05 154.14 L 130.63 154.39 L 130.23 154.69 L 129.79 154.91 L 129.32 155.06 L 128.87 155.25 L 128.46 155.54 L 128.04 155.80 L 127.57 155.95 L 127.06 156.00 L 126.57 156.03 L 126.20 156.19 L 126.08 156.51 L 126.23 156.83 L 126.62 156.97 L 127.12 157.00 L 127.65 157.00 L 128.17 157.00 L 128.70 157.00 L 129.23 157.01 L 129.73 157.09 L 130.17 157.28 L 130.56 157.60 L 130.83 158.01 L 130.96 158.48 L 131.00 158.99 L 131.05 159.48 L 131.22 159.81 L 131.55 159.90 L 131.84 159.72 L 131.97 159.33 L 132.00 158.82 L 132.00 158.30 L 132.00 157.77 L 132.00 157.24 L 132.00 156.71 L 132.00 156.18 L 132.00 155.65 L 132.00 155.12 L 131.97 154.62 L 131.83 154.24 L 131.49 154.07 Z M 88.20 148.21 L 87.98 148.59 L 87.78 149.06 L 87.46 149.48 L 87.03 149.79 L 86.52 149.95 L 85.97 149.99 L 85.40 150.00 L 84.84 150.02 L 84.38 150.13 L 84.11 150.44 L 84.02 150.92 L 84.00 151.47 L 83.99 152.04 L 83.93 152.59 L 83.76 153.09 L 83.46 153.55 L 83.18 154.00 L 83.00 154.50 L 82.82 155.00 L 82.54 155.46 L 82.24 155.91 L 82.09 156.40 L 82.15 156.91 L 82.40 157.37 L 82.71 157.81 L 82.94 158.28 L 83.15 158.69 L 83.50 158.92 L 84.00 158.98 L 84.54 158.94 L 85.05 158.78 L 85.47 158.47 L 85.79 158.04 L 85.98 157.55 L 86.15 157.04 L 86.44 156.59 L 86.83 156.18 L 87.23 155.77 L 87.60 155.35 L 87.88 154.89 L 88.05 154.39 L 88.25 153.90 L 88.55 153.45 L 88.83 152.99 L 89.01 152.49 L 89.19 151.99 L 89.47 151.53 L 89.77 151.08 L 89.94 150.58 L 89.98 150.03 L 89.95 149.48 L 89.79 148.97 L 89.48 148.54 L 89.06 148.22 L 88.59 148.09 Z M 35.19 134.19 L 35.03 134.55 L 35.00 135.04 L 35.00 135.55 L 35.00 136.07 L 35.00 136.59 L 35.00 137.10 L 35.00 137.62 L 35.00 138.14 L 35.00 138.66 L 35.00 139.17 L 35.00 139.69 L 35.00 140.21 L 35.00 140.72 L 35.02 141.22 L 35.12 141.64 L 35.38 141.91 L 35.77 142.07 L 36.19 142.28 L 36.59 142.58 L 37.00 142.83 L 37.46 142.96 L 37.96 142.99 L 38.45 142.97 L 38.81 142.81 L 38.94 142.46 L 38.85 142.02 L 38.60 141.62 L 38.30 141.22 L 38.10 140.79 L 38.02 140.30 L 38.00 139.79 L 38.00 139.28 L 38.00 138.76 L 38.00 138.24 L 38.00 137.72 L 38.00 137.21 L 38.00 136.69 L 38.00 136.17 L 38.00 135.66 L 38.00 135.14 L 37.97 134.65 L 37.84 134.26 L 37.52 134.06 L 37.06 134.01 L 36.55 134.00 L 36.04 134.00 L 35.55 134.03 Z M 124.21 131.21 L 124.08 131.57 L 124.20 132.04 L 124.48 132.47 L 124.77 132.91 L 124.94 133.40 L 124.99 133.93 L 125.00 134.49 L 124.99 135.04 L 124.94 135.58 L 124.78 136.07 L 124.47 136.48 L 124.05 136.79 L 123.57 136.92 L 123.08 136.85 L 122.65 136.59 L 122.30 136.19 L 122.09 135.73 L 122.01 135.20 L 121.98 134.66 L 121.88 134.14 L 121.62 133.70 L 121.25 133.34 L 120.81 133.13 L 120.39 133.14 L 120.12 133.40 L 120.02 133.86 L 120.03 134.37 L 120.19 134.77 L 120.54 134.99 L 121.00 135.17 L 121.42 135.47 L 121.74 135.88 L 121.93 136.36 L 121.99 136.89 L 121.97 137.43 L 121.86 137.94 L 121.58 138.37 L 121.18 138.71 L 120.73 138.94 L 120.33 139.13 L 120.12 139.43 L 120.20 139.76 L 120.55 139.95 L 121.05 140.00 L 121.58 140.06 L 122.07 140.22 L 122.48 140.53 L 122.79 140.95 L 122.95 141.44 L 122.99 141.98 L 123.00 142.53 L 122.99 143.09 L 122.93 143.62 L 122.75 144.10 L 122.43 144.51 L 122.01 144.81 L 121.52 144.96 L 120.97 144.99 L 120.42 145.00 L 119.86 145.00 L 119.31 145.00 L 118.77 145.02 L 118.34 145.14 L 118.12 145.43 L 118.19 145.76 L 118.53 145.98 L 118.98 146.16 L 119.42 146.43 L 119.85 146.73 L 120.33 146.92 L 120.86 146.99 L 121.40 146.98 L 121.92 146.86 L 122.37 146.61 L 122.80 146.30 L 123.27 146.09 L 123.79 146.02 L 124.34 146.02 L 124.85 146.12 L 125.30 146.37 L 125.66 146.75 L 125.89 147.21 L 125.98 147.73 L 126.00 148.28 L 126.00 148.83 L 126.02 149.38 L 126.13 149.89 L 126.38 150.35 L 126.69 150.78 L 126.92 151.23 L 127.12 151.64 L 127.43 151.89 L 127.90 151.98 L 128.43 151.97 L 128.94 151.86 L 129.38 151.60 L 129.81 151.29 L 130.27 151.07 L 130.67 150.87 L 130.89 150.55 L 130.86 150.11 L 130.63 149.67 L 130.32 149.24 L 130.10 148.77 L 130.02 148.25 L 130.00 147.70 L 130.00 147.14 L 129.98 146.60 L 129.86 146.08 L 129.61 145.63 L 129.30 145.20 L 129.09 144.73 L 129.02 144.21 L 129.00 143.65 L 129.00 143.10 L 129.03 142.55 L 129.15 142.04 L 129.42 141.60 L 129.72 141.17 L 129.90 140.70 L 129.88 140.21 L 129.67 139.75 L 129.36 139.31 L 129.12 138.86 L 129.02 138.34 L 129.00 137.79 L 129.00 137.24 L 128.97 136.71 L 128.83 136.29 L 128.50 136.05 L 128.06 135.87 L 127.63 135.58 L 127.29 135.18 L 127.09 134.71 L 127.01 134.18 L 126.98 133.64 L 126.87 133.13 L 126.62 132.68 L 126.26 132.27 L 125.87 131.87 L 125.47 131.50 L 125.03 131.20 L 124.57 131.08 Z M 176.06 130.16 L 175.61 130.45 L 175.27 130.88 L 175.05 131.37 L 174.87 131.89 L 174.58 132.34 L 174.17 132.70 L 173.67 132.91 L 173.12 132.99 L 172.59 133.05 L 172.21 133.24 L 172.14 133.57 L 172.37 133.88 L 172.80 134.09 L 173.27 134.35 L 173.73 134.65 L 174.22 134.89 L 174.77 134.98 L 175.35 135.02 L 175.89 135.14 L 176.37 135.40 L 176.83 135.71 L 177.33 135.91 L 177.89 135.99 L 178.46 136.04 L 178.99 136.18 L 179.46 136.46 L 179.92 136.76 L 180.44 136.94 L 181.00 137.00 L 181.57 137.06 L 182.08 137.24 L 182.55 137.54 L 183.01 137.81 L 183.47 137.89 L 183.82 137.70 L 183.97 137.26 L 183.98 136.71 L 183.87 136.17 L 183.61 135.68 L 183.24 135.25 L 182.83 134.83 L 182.41 134.41 L 182.00 134.00 L 181.57 133.60 L 181.12 133.27 L 180.62 133.05 L 180.11 132.87 L 179.64 132.59 L 179.21 132.20 L 178.79 131.79 L 178.37 131.37 L 177.96 130.96 L 177.53 130.56 L 177.08 130.24 L 176.57 130.09 Z M 144.05 123.14 L 143.63 123.39 L 143.21 123.70 L 142.76 123.90 L 142.26 123.98 L 141.73 124.00 L 141.20 124.00 L 140.69 124.03 L 140.28 124.16 L 140.10 124.45 L 140.19 124.78 L 140.54 124.95 L 141.03 124.99 L 141.56 125.00 L 142.09 125.01 L 142.61 125.06 L 143.08 125.22 L 143.50 125.50 L 143.92 125.78 L 144.39 125.94 L 144.91 125.99 L 145.44 126.00 L 145.97 125.99 L 146.46 125.95 L 146.82 125.77 L 146.97 125.38 L 146.98 124.89 L 146.91 124.43 L 146.67 124.12 L 146.28 123.94 L 145.84 123.73 L 145.43 123.44 L 145.00 123.18 L 144.53 123.06 Z M 160.21 117.20 L 160.09 117.57 L 160.21 118.04 L 160.51 118.46 L 160.92 118.77 L 161.41 118.94 L 161.95 119.00 L 162.49 119.04 L 162.99 119.18 L 163.42 119.47 L 163.74 119.88 L 163.93 120.36 L 163.99 120.90 L 164.00 121.45 L 164.00 122.01 L 164.00 122.57 L 163.99 123.13 L 163.92 123.66 L 163.73 124.14 L 163.43 124.58 L 163.16 125.03 L 162.99 125.52 L 162.82 126.00 L 162.52 126.43 L 162.11 126.75 L 161.62 126.93 L 161.09 126.99 L 160.55 126.97 L 160.04 126.84 L 159.59 126.58 L 159.15 126.27 L 158.67 126.08 L 158.14 126.01 L 157.60 125.98 L 157.08 125.86 L 156.63 125.60 L 156.20 125.30 L 155.72 125.09 L 155.19 125.02 L 154.64 125.00 L 154.08 125.00 L 153.52 125.00 L 152.97 125.01 L 152.48 125.08 L 152.17 125.30 L 152.15 125.63 L 152.39 125.90 L 152.81 126.09 L 153.25 126.34 L 153.63 126.71 L 153.89 127.15 L 154.05 127.65 L 154.26 128.12 L 154.58 128.53 L 155.01 128.82 L 155.51 128.96 L 156.05 129.00 L 156.59 129.06 L 157.08 129.23 L 157.52 129.52 L 157.96 129.80 L 158.45 129.97 L 158.94 130.14 L 159.39 130.41 L 159.83 130.71 L 160.30 130.91 L 160.83 130.99 L 161.39 131.00 L 161.94 131.00 L 162.49 131.04 L 162.99 131.18 L 163.44 131.45 L 163.88 131.75 L 164.36 131.93 L 164.90 131.99 L 165.45 132.00 L 166.01 132.00 L 166.57 132.00 L 167.12 131.98 L 167.58 131.89 L 167.85 131.64 L 167.83 131.31 L 167.54 131.07 L 167.11 130.88 L 166.68 130.61 L 166.32 130.22 L 166.12 129.76 L 166.11 129.27 L 166.31 128.81 L 166.65 128.41 L 167.08 128.13 L 167.57 127.97 L 168.06 127.78 L 168.47 127.47 L 168.78 127.06 L 168.94 126.56 L 168.99 126.02 L 169.00 125.47 L 169.00 124.91 L 169.00 124.35 L 169.00 123.79 L 169.00 123.23 L 168.98 122.67 L 168.88 122.16 L 168.63 121.71 L 168.25 121.34 L 167.79 121.11 L 167.27 121.02 L 166.73 120.98 L 166.20 120.89 L 165.74 120.66 L 165.32 120.31 L 164.93 119.92 L 164.55 119.52 L 164.23 119.09 L 164.03 118.63 L 163.83 118.24 L 163.47 118.02 L 163.01 117.84 L 162.57 117.56 L 162.13 117.26 L 161.65 117.08 L 161.12 117.01 L 160.60 117.04 Z M 10.20 87.19 L 10.09 87.51 L 10.24 87.84 L 10.61 88.02 L 11.06 88.20 L 11.47 88.48 L 11.89 88.76 L 12.36 88.93 L 12.87 88.99 L 13.39 88.98 L 13.88 88.88 L 14.31 88.63 L 14.65 88.27 L 14.87 87.85 L 14.89 87.43 L 14.67 87.14 L 14.25 87.02 L 13.74 87.00 L 13.21 87.00 L 12.67 87.00 L 12.14 87.00 L 11.60 87.00 L 11.07 87.00 L 10.57 87.03 Z M 188.06 67.14 L 187.61 67.41 L 187.18 67.71 L 186.71 67.93 L 186.22 68.09 L 185.76 68.32 L 185.32 68.63 L 184.87 68.87 L 184.35 68.98 L 183.81 68.98 L 183.28 68.91 L 182.81 68.70 L 182.38 68.40 L 181.93 68.15 L 181.44 68.08 L 180.95 68.21 L 180.51 68.49 L 180.07 68.78 L 179.61 68.97 L 179.23 69.18 L 179.05 69.56 L 179.00 70.07 L 178.94 70.60 L 178.76 71.09 L 178.45 71.50 L 178.02 71.80 L 177.53 71.95 L 176.99 72.00 L 176.45 72.05 L 175.96 72.20 L 175.52 72.49 L 175.08 72.77 L 174.59 72.94 L 174.05 72.99 L 173.50 73.00 L 172.94 73.00 L 172.38 73.00 L 171.84 73.02 L 171.38 73.12 L 171.09 73.40 L 170.91 73.83 L 170.66 74.27 L 170.35 74.71 L 170.11 75.16 L 169.95 75.65 L 169.74 76.13 L 169.42 76.53 L 169.00 76.83 L 168.54 77.01 L 168.18 77.23 L 167.97 77.62 L 167.77 78.08 L 167.46 78.49 L 167.04 78.79 L 166.55 78.95 L 166.01 78.99 L 165.45 79.00 L 164.89 79.00 L 164.33 79.00 L 163.77 79.00 L 163.22 79.00 L 162.69 79.03 L 162.28 79.17 L 162.11 79.48 L 162.22 79.81 L 162.61 79.97 L 163.14 80.00 L 163.69 80.00 L 164.25 80.00 L 164.81 80.00 L 165.36 80.02 L 165.87 80.13 L 166.33 80.37 L 166.76 80.68 L 167.23 80.90 L 167.75 80.98 L 168.30 81.02 L 168.82 81.11 L 169.28 81.35 L 169.69 81.70 L 170.09 82.09 L 170.49 82.47 L 170.92 82.77 L 171.41 82.94 L 171.95 82.99 L 172.49 82.96 L 172.99 82.83 L 173.44 82.55 L 173.87 82.26 L 174.33 82.05 L 174.72 81.84 L 174.95 81.50 L 175.13 81.05 L 175.42 80.63 L 175.82 80.29 L 176.27 80.06 L 176.68 79.87 L 176.91 79.53 L 176.98 79.05 L 176.96 78.52 L 176.83 78.02 L 176.56 77.57 L 176.26 77.13 L 176.08 76.65 L 176.01 76.12 L 176.03 75.58 L 176.14 75.07 L 176.42 74.63 L 176.82 74.30 L 177.28 74.11 L 177.77 74.12 L 178.23 74.33 L 178.65 74.67 L 179.05 75.05 L 179.43 75.45 L 179.75 75.88 L 179.93 76.36 L 179.99 76.90 L 180.00 77.45 L 180.01 78.00 L 180.07 78.49 L 180.27 78.82 L 180.60 78.86 L 180.87 78.62 L 180.98 78.18 L 181.02 77.65 L 181.13 77.13 L 181.38 76.69 L 181.76 76.33 L 182.22 76.11 L 182.75 76.02 L 183.29 75.98 L 183.81 75.89 L 184.27 75.66 L 184.71 75.35 L 185.17 75.12 L 185.68 75.02 L 186.21 74.98 L 186.65 74.86 L 186.92 74.56 L 187.11 74.13 L 187.38 73.69 L 187.76 73.34 L 188.22 73.11 L 188.74 73.02 L 189.28 72.98 L 189.80 72.89 L 190.27 72.66 L 190.70 72.36 L 191.16 72.12 L 191.67 72.02 L 192.22 71.99 L 192.74 71.90 L 193.21 71.69 L 193.65 71.39 L 194.10 71.12 L 194.59 70.96 L 195.07 70.78 L 195.50 70.47 L 195.90 70.09 L 196.30 69.71 L 196.71 69.36 L 197.16 69.10 L 197.58 68.91 L 197.85 68.65 L 197.84 68.32 L 197.54 68.09 L 197.07 68.01 L 196.53 67.97 L 196.03 67.84 L 195.58 67.57 L 195.15 67.27 L 194.67 67.08 L 194.14 67.01 L 193.58 67.00 L 193.03 67.00 L 192.47 67.00 L 191.91 67.00 L 191.35 67.00 L 190.79 67.00 L 190.23 67.00 L 189.68 67.00 L 189.12 67.00 L 188.57 67.02 Z M 34.21 39.21 L 34.09 39.59 L 34.22 40.06 L 34.53 40.50 L 34.92 40.92 L 35.32 41.32 L 35.73 41.73 L 36.13 42.13 L 36.52 42.55 L 36.82 42.99 L 37.01 43.46 L 37.25 43.82 L 37.64 44.04 L 38.11 44.25 L 38.53 44.58 L 38.83 45.02 L 39.01 45.52 L 39.19 46.02 L 39.48 46.47 L 39.77 46.92 L 39.97 47.39 L 40.19 47.78 L 40.59 47.96 L 41.13 48.00 L 41.70 48.00 L 42.26 48.02 L 42.80 48.11 L 43.26 48.36 L 43.64 48.73 L 43.90 49.19 L 44.07 49.70 L 44.29 50.18 L 44.60 50.62 L 44.87 51.08 L 45.07 51.53 L 45.33 51.85 L 45.78 51.97 L 46.30 51.97 L 46.72 51.82 L 46.93 51.46 L 47.00 50.95 L 47.07 50.40 L 47.25 49.91 L 47.57 49.49 L 48.00 49.19 L 48.50 49.08 L 49.00 49.19 L 49.43 49.49 L 49.76 49.91 L 49.97 50.38 L 50.18 50.77 L 50.56 51.00 L 51.03 51.20 L 51.45 51.51 L 51.77 51.93 L 51.98 52.40 L 52.19 52.79 L 52.58 53.01 L 53.05 53.21 L 53.47 53.53 L 53.79 53.95 L 53.99 54.42 L 54.20 54.79 L 54.54 54.88 L 54.82 54.70 L 54.84 54.37 L 54.58 54.09 L 54.15 53.90 L 53.71 53.62 L 53.34 53.24 L 53.11 52.77 L 53.02 52.23 L 53.00 51.66 L 52.99 51.10 L 52.95 50.57 L 52.75 50.18 L 52.36 49.96 L 51.90 49.75 L 51.46 49.43 L 51.04 49.04 L 50.64 48.64 L 50.23 48.23 L 49.83 47.83 L 49.41 47.44 L 48.96 47.15 L 48.46 46.98 L 47.96 46.79 L 47.53 46.48 L 47.21 46.05 L 47.02 45.58 L 46.79 45.20 L 46.38 45.03 L 45.85 44.99 L 45.31 44.91 L 44.82 44.71 L 44.37 44.40 L 43.91 44.14 L 43.38 44.02 L 42.82 44.00 L 42.24 44.00 L 41.67 44.00 L 41.10 44.00 L 40.54 43.96 L 40.02 43.83 L 39.58 43.53 L 39.25 43.11 L 39.05 42.62 L 38.88 42.12 L 38.60 41.66 L 38.23 41.24 L 37.83 40.83 L 37.42 40.45 L 36.96 40.15 L 36.46 39.98 L 35.96 39.80 L 35.51 39.51 L 35.06 39.22 L 34.59 39.09 Z M 100.06 34.15 L 99.61 34.42 L 99.20 34.80 L 98.81 35.20 L 98.43 35.60 L 98.16 36.05 L 98.08 36.54 L 98.20 37.03 L 98.48 37.48 L 98.77 37.92 L 98.94 38.42 L 98.99 38.96 L 98.96 39.50 L 98.81 40.01 L 98.51 40.43 L 98.10 40.76 L 97.64 40.96 L 97.26 41.17 L 97.09 41.53 L 97.18 41.99 L 97.44 42.43 L 97.74 42.87 L 97.95 43.33 L 98.16 43.72 L 98.48 43.89 L 98.81 43.77 L 98.97 43.38 L 99.01 42.85 L 99.08 42.32 L 99.28 41.84 L 99.62 41.44 L 100.05 41.15 L 100.57 41.03 L 101.12 41.00 L 101.68 41.00 L 102.22 40.98 L 102.66 40.85 L 102.88 40.54 L 102.86 40.10 L 102.62 39.66 L 102.31 39.22 L 102.10 38.75 L 102.02 38.22 L 102.00 37.66 L 102.00 37.10 L 102.00 36.53 L 101.99 35.97 L 101.94 35.43 L 101.78 34.93 L 101.46 34.52 L 101.04 34.21 L 100.55 34.08 Z M 153.06 27.16 L 152.59 27.45 L 152.16 27.84 L 151.74 28.26 L 151.33 28.67 L 150.91 29.09 L 150.48 29.49 L 150.02 29.81 L 149.55 30.02 L 149.20 30.26 L 149.12 30.67 L 149.29 31.15 L 149.64 31.57 L 150.10 31.86 L 150.64 31.98 L 151.22 32.02 L 151.77 32.11 L 152.27 32.34 L 152.73 32.65 L 153.22 32.89 L 153.78 32.98 L 154.33 32.96 L 154.74 32.80 L 154.89 32.43 L 154.78 31.95 L 154.49 31.48 L 154.20 31.01 L 154.09 30.50 L 154.20 29.99 L 154.49 29.52 L 154.78 29.05 L 154.91 28.54 L 154.82 28.02 L 154.52 27.58 L 154.08 27.25 L 153.58 27.09 Z M 89.05 16.15 L 88.61 16.40 L 88.19 16.71 L 87.74 16.93 L 87.34 17.12 L 87.10 17.44 L 87.01 17.91 L 86.98 18.44 L 86.86 18.94 L 86.60 19.38 L 86.29 19.81 L 86.09 20.28 L 86.01 20.80 L 86.00 21.35 L 86.00 21.90 L 86.00 22.45 L 86.01 22.99 L 86.07 23.49 L 86.27 23.82 L 86.66 23.90 L 87.11 23.76 L 87.54 23.47 L 87.98 23.19 L 88.47 23.05 L 89.00 23.00 L 89.53 22.95 L 90.02 22.81 L 90.46 22.53 L 90.89 22.24 L 91.36 22.05 L 91.85 21.89 L 92.29 21.63 L 92.65 21.26 L 92.89 20.82 L 92.98 20.30 L 92.98 19.78 L 92.86 19.35 L 92.56 19.10 L 92.09 19.01 L 91.56 18.98 L 91.06 18.86 L 90.63 18.58 L 90.30 18.19 L 90.09 17.72 L 90.01 17.20 L 89.97 16.68 L 89.83 16.27 L 89.50 16.09 Z" fill="rgb(249,94,91)" fill-rule="evenodd"/>
  <path d="M 144.18 62.20 L 143.99 62.56 L 143.82 63.01 L 143.55 63.44 L 143.26 63.86 L 143.08 64.32 L 143.01 64.84 L 143.02 65.37 L 143.12 65.87 L 143.37 66.30 L 143.73 66.65 L 144.17 66.89 L 144.68 66.98 L 145.21 67.00 L 145.75 67.00 L 146.27 66.98 L 146.69 66.85 L 146.92 66.54 L 146.99 66.07 L 147.00 65.54 L 146.99 65.01 L 146.94 64.52 L 146.75 64.16 L 146.37 63.97 L 145.93 63.78 L 145.52 63.48 L 145.22 63.07 L 145.03 62.63 L 144.84 62.25 L 144.52 62.09 Z" fill="rgb(253,252,252)" fill-rule="evenodd"/>
</svg>