<svg xmlns="http://www.w3.org/2000/svg" width="176" height="171" viewBox="0 0 176 171" role="img" aria-label="18_icons_18">
  <title>18_icons_18</title>
  <path d="M 89.30 8.79 L 89.06 9.63 L 89.00 11.01 L 89.00 12.50 L 89.00 14.00 L 88.94 15.48 L 88.70 16.88 L 88.30 18.21 L 88.06 19.61 L 88.00 21.09 L 87.93 22.56 L 87.67 23.95 L 87.27 25.29 L 86.97 26.66 L 86.65 28.03 L 86.26 29.37 L 85.95 30.74 L 85.63 32.11 L 85.25 33.45 L 85.01 34.85 L 84.80 36.26 L 84.40 37.60 L 83.83 38.87 L 83.18 40.10 L 82.61 41.36 L 82.22 42.70 L 82.03 44.12 L 81.92 45.58 L 81.64 46.96 L 81.10 48.24 L 80.50 49.49 L 79.89 50.74 L 79.25 51.97 L 78.63 53.22 L 77.98 54.45 L 77.23 55.64 L 76.45 56.81 L 75.70 58.00 L 74.80 59.12 L 73.74 60.10 L 72.60 60.95 L 71.48 61.79 L 70.55 62.81 L 69.81 63.98 L 69.11 65.19 L 68.35 66.38 L 67.45 67.50 L 66.40 68.54 L 65.28 69.43 L 64.18 70.24 L 63.34 71.25 L 62.75 72.43 L 61.96 73.38 L 60.76 73.86 L 59.37 74.07 L 57.99 74.38 L 56.72 74.92 L 55.47 75.52 L 54.22 76.13 L 52.99 76.78 L 51.72 77.35 L 50.42 77.82 L 49.10 78.26 L 47.78 78.70 L 46.38 78.95 L 44.92 79.04 L 43.51 79.26 L 42.19 79.70 L 40.92 80.24 L 39.62 80.73 L 38.26 81.05 L 36.90 81.41 L 35.63 81.95 L 34.35 82.49 L 32.99 82.84 L 31.56 83.00 L 30.11 83.13 L 28.74 83.43 L 27.41 83.84 L 26.08 84.27 L 24.76 84.70 L 23.36 84.94 L 21.89 85.00 L 20.42 85.08 L 19.02 85.33 L 17.68 85.72 L 16.28 85.95 L 14.80 86.01 L 13.34 86.09 L 11.95 86.36 L 10.61 86.74 L 9.25 87.00 L 8.12 87.25 L 7.79 87.62 L 8.50 87.89 L 9.81 87.98 L 11.29 88.00 L 12.79 88.00 L 14.29 88.00 L 15.79 88.00 L 17.28 88.02 L 18.75 88.11 L 20.13 88.38 L 21.48 88.75 L 22.90 88.96 L 24.36 89.05 L 25.76 89.29 L 27.09 89.69 L 28.49 89.94 L 29.97 90.00 L 31.44 90.06 L 32.84 90.30 L 34.17 90.71 L 35.55 91.01 L 36.91 91.34 L 38.19 91.88 L 39.44 92.48 L 40.70 93.07 L 41.97 93.61 L 43.35 93.91 L 44.82 93.99 L 46.29 94.05 L 47.69 94.29 L 49.02 94.71 L 50.34 95.14 L 51.65 95.61 L 52.91 96.18 L 54.14 96.84 L 55.39 97.45 L 56.63 98.06 L 57.87 98.71 L 59.09 99.38 L 60.26 100.16 L 61.45 100.93 L 62.68 101.58 L 63.90 102.24 L 65.05 103.11 L 66.13 104.11 L 67.23 105.08 L 68.37 105.94 L 69.54 106.75 L 70.65 107.69 L 71.72 108.73 L 72.74 109.80 L 73.64 110.91 L 74.45 112.01 L 75.39 112.94 L 76.31 113.86 L 76.94 115.00 L 77.45 116.27 L 78.06 117.51 L 78.81 118.70 L 79.52 119.91 L 80.06 121.19 L 80.54 122.49 L 81.10 123.75 L 81.67 125.02 L 82.13 126.33 L 82.54 127.66 L 82.89 129.01 L 83.20 130.39 L 83.60 131.72 L 84.02 133.05 L 84.44 134.38 L 84.80 135.73 L 85.01 137.14 L 85.26 138.53 L 85.72 139.85 L 86.26 141.12 L 86.72 142.43 L 86.95 143.84 L 87.05 145.30 L 87.28 146.70 L 87.68 148.04 L 87.98 149.41 L 88.29 150.78 L 88.70 152.12 L 88.94 153.51 L 89.04 154.97 L 89.23 156.40 L 89.58 157.75 L 89.87 159.13 L 89.98 160.59 L 90.00 162.08 L 90.00 163.57 L 90.06 165.00 L 90.30 166.04 L 90.70 166.18 L 90.94 165.30 L 91.04 163.93 L 91.24 162.52 L 91.61 161.17 L 91.88 159.79 L 91.99 158.33 L 92.05 156.85 L 92.26 155.44 L 92.63 154.09 L 92.90 152.71 L 93.02 151.25 L 93.19 149.82 L 93.51 148.46 L 93.83 147.09 L 93.99 145.65 L 94.11 144.21 L 94.40 142.82 L 94.76 141.47 L 95.00 140.07 L 95.26 138.68 L 95.80 137.40 L 96.47 136.18 L 97.01 134.90 L 97.45 133.58 L 97.80 132.23 L 97.98 130.80 L 98.09 129.35 L 98.39 127.97 L 98.93 126.70 L 99.53 125.44 L 100.14 124.20 L 100.79 122.97 L 101.36 121.70 L 101.84 120.40 L 102.35 119.11 L 103.07 117.91 L 103.85 116.73 L 104.50 115.50 L 105.15 114.27 L 105.95 113.10 L 106.77 111.94 L 107.55 110.79 L 108.49 109.78 L 109.58 108.93 L 110.56 108.02 L 111.42 107.04 L 112.46 106.28 L 113.69 105.71 L 114.88 104.97 L 115.98 104.00 L 117.05 102.95 L 118.12 101.91 L 119.21 100.93 L 120.36 100.08 L 121.54 99.30 L 122.72 98.54 L 123.92 97.80 L 125.08 97.00 L 126.29 96.30 L 127.58 95.79 L 128.87 95.27 L 130.14 94.72 L 131.43 94.21 L 132.75 93.76 L 134.06 93.32 L 135.44 93.01 L 136.81 92.70 L 138.12 92.26 L 139.44 91.82 L 140.74 91.33 L 141.98 90.71 L 143.17 89.95 L 144.41 89.32 L 145.80 89.06 L 147.28 89.00 L 148.78 89.00 L 150.26 88.95 L 151.66 88.72 L 153.00 88.34 L 154.39 88.06 L 155.82 87.89 L 157.20 87.60 L 158.55 87.24 L 159.97 87.04 L 161.45 87.00 L 162.93 86.96 L 164.36 86.78 L 165.72 86.43 L 167.10 86.14 L 168.54 86.02 L 169.96 85.94 L 171.03 85.70 L 171.19 85.30 L 170.33 85.06 L 168.97 84.96 L 167.56 84.76 L 166.21 84.41 L 164.82 84.12 L 163.36 84.02 L 161.87 84.00 L 160.38 83.97 L 158.94 83.83 L 157.57 83.52 L 156.21 83.19 L 154.78 83.02 L 153.32 82.91 L 151.93 82.64 L 150.59 82.26 L 149.19 82.02 L 147.78 81.81 L 146.42 81.47 L 145.05 81.16 L 143.62 80.97 L 142.23 80.71 L 140.90 80.30 L 139.52 80.00 L 138.16 79.68 L 136.88 79.15 L 135.60 78.60 L 134.27 78.21 L 132.86 77.99 L 131.46 77.73 L 130.15 77.27 L 128.89 76.70 L 127.65 76.07 L 126.39 75.50 L 125.09 75.01 L 123.81 74.46 L 122.61 73.74 L 121.43 72.96 L 120.28 72.13 L 119.17 71.20 L 118.03 70.33 L 116.84 69.57 L 115.66 68.79 L 114.49 68.00 L 113.32 67.20 L 112.14 66.41 L 110.96 65.65 L 109.85 64.76 L 108.87 63.70 L 108.02 62.55 L 107.20 61.39 L 106.25 60.28 L 105.25 59.19 L 104.38 58.06 L 103.69 56.84 L 103.02 55.62 L 102.27 54.43 L 101.51 53.24 L 100.82 52.03 L 100.15 50.81 L 99.53 49.56 L 98.93 48.31 L 98.35 47.05 L 97.90 45.74 L 97.48 44.41 L 97.16 43.04 L 96.97 41.62 L 96.71 40.23 L 96.30 38.90 L 96.00 37.52 L 95.70 36.14 L 95.29 34.81 L 94.99 33.44 L 94.68 32.07 L 94.28 30.73 L 93.97 29.36 L 93.66 27.99 L 93.27 26.65 L 93.02 25.25 L 92.82 23.84 L 92.49 22.47 L 92.14 21.12 L 91.83 19.74 L 91.47 18.39 L 91.16 17.02 L 91.01 15.58 L 90.87 14.14 L 90.58 12.76 L 90.23 11.41 L 89.98 10.06 L 89.70 8.99 Z M 59.14 92.05 L 59.43 91.62 L 59.84 91.29 L 60.32 91.10 L 60.82 91.13 L 61.27 91.36 L 61.65 91.74 L 61.89 92.20 L 61.98 92.73 L 61.98 93.29 L 61.88 93.81 L 61.65 94.29 L 61.34 94.73 L 61.10 95.20 L 60.93 95.70 L 60.71 96.17 L 60.37 96.57 L 59.92 96.86 L 59.40 96.98 L 58.84 97.00 L 58.28 97.00 L 57.72 96.98 L 57.19 96.88 L 56.73 96.64 L 56.35 96.26 L 56.11 95.80 L 56.02 95.27 L 56.02 94.71 L 56.12 94.19 L 56.36 93.73 L 56.74 93.35 L 57.20 93.11 L 57.73 93.02 L 58.27 92.97 L 58.70 92.84 L 58.95 92.50 Z M 40.00 89.00 L 40.42 88.61 L 40.86 88.28 L 41.36 88.08 L 41.91 88.02 L 42.47 88.04 L 42.99 88.18 L 43.43 88.49 L 43.76 88.91 L 43.93 89.42 L 43.98 89.97 L 43.95 90.53 L 43.79 91.04 L 43.47 91.47 L 43.04 91.79 L 42.53 91.95 L 41.97 91.99 L 41.39 92.00 L 40.82 91.98 L 40.27 91.90 L 39.79 91.68 L 39.39 91.31 L 39.14 90.86 L 39.10 90.35 L 39.28 89.86 L 39.61 89.42 Z M 44.13 87.05 L 44.37 86.67 L 44.70 86.34 L 45.09 86.12 L 45.53 86.04 L 45.96 86.13 L 46.34 86.38 L 46.66 86.71 L 46.89 87.10 L 46.98 87.55 L 47.00 88.03 L 46.98 88.51 L 46.87 88.95 L 46.63 89.33 L 46.30 89.66 L 45.91 89.88 L 45.47 89.96 L 45.04 89.87 L 44.66 89.62 L 44.34 89.29 L 44.11 88.90 L 44.02 88.45 L 44.00 87.97 L 44.02 87.49 Z M 124.14 86.06 L 124.44 85.62 L 124.86 85.27 L 125.36 85.08 L 125.92 85.01 L 126.49 85.00 L 127.07 85.00 L 127.65 85.00 L 128.23 85.02 L 128.77 85.11 L 129.25 85.35 L 129.63 85.72 L 129.87 86.19 L 129.89 86.70 L 129.70 87.18 L 129.40 87.64 L 129.15 88.11 L 129.10 88.62 L 129.26 89.11 L 129.56 89.57 L 129.83 90.03 L 129.97 90.56 L 129.98 91.12 L 129.91 91.67 L 129.71 92.16 L 129.36 92.58 L 128.90 92.86 L 128.37 92.98 L 127.80 93.00 L 127.22 93.00 L 126.65 92.98 L 126.12 92.86 L 125.66 92.59 L 125.30 92.18 L 125.07 91.70 L 124.90 91.19 L 124.64 90.72 L 124.28 90.29 L 123.87 89.87 L 123.49 89.45 L 123.19 89.00 L 123.09 88.49 L 123.20 87.99 L 123.48 87.53 L 123.77 87.07 L 123.97 86.57 Z M 120.15 85.06 L 120.43 84.62 L 120.84 84.29 L 121.32 84.10 L 121.82 84.13 L 122.27 84.36 L 122.65 84.74 L 122.89 85.20 L 122.98 85.73 L 123.00 86.29 L 123.00 86.86 L 122.97 87.42 L 122.85 87.94 L 122.57 88.38 L 122.16 88.71 L 121.68 88.90 L 121.18 88.87 L 120.73 88.64 L 120.35 88.26 L 120.11 87.80 L 120.02 87.27 L 120.00 86.71 L 120.00 86.14 L 120.03 85.58 Z M 37.14 85.05 L 37.39 84.65 L 37.76 84.32 L 38.19 84.11 L 38.65 84.08 L 39.09 84.23 L 39.49 84.52 L 39.87 84.87 L 40.23 85.24 L 40.58 85.61 L 40.84 86.02 L 40.94 86.48 L 40.86 86.95 L 40.61 87.35 L 40.24 87.68 L 39.81 87.89 L 39.35 87.92 L 38.91 87.77 L 38.51 87.48 L 38.13 87.13 L 37.77 86.76 L 37.42 86.39 L 37.16 85.98 L 37.06 85.52 Z M 138.00 82.00 L 138.41 81.61 L 138.84 81.28 L 139.32 81.10 L 139.82 81.13 L 140.27 81.36 L 140.65 81.74 L 140.89 82.20 L 140.98 82.73 L 141.00 83.29 L 141.00 83.86 L 141.00 84.43 L 141.00 85.00 L 141.00 85.57 L 141.00 86.14 L 141.00 86.71 L 140.98 87.27 L 140.89 87.80 L 140.65 88.26 L 140.27 88.64 L 139.81 88.88 L 139.28 88.98 L 138.72 89.00 L 138.16 89.00 L 137.60 89.02 L 137.08 89.14 L 136.62 89.42 L 136.21 89.80 L 135.80 90.20 L 135.40 90.60 L 135.00 91.00 L 134.59 91.39 L 134.16 91.72 L 133.67 91.92 L 133.13 91.98 L 132.58 91.97 L 132.06 91.85 L 131.62 91.57 L 131.28 91.16 L 131.08 90.67 L 131.02 90.13 L 131.03 89.58 L 131.15 89.06 L 131.43 88.62 L 131.84 88.28 L 132.32 88.06 L 132.82 87.90 L 133.29 87.65 L 133.73 87.34 L 134.20 87.11 L 134.73 87.02 L 135.27 86.97 L 135.69 86.84 L 135.89 86.53 L 135.78 86.20 L 135.39 86.03 L 134.86 85.99 L 134.33 85.92 L 133.84 85.72 L 133.43 85.38 L 133.15 84.94 L 133.08 84.44 L 133.22 83.95 L 133.53 83.53 L 133.95 83.22 L 134.45 83.05 L 135.00 83.01 L 135.57 83.00 L 136.13 82.99 L 136.67 82.92 L 137.16 82.72 L 137.59 82.39 Z" fill="rgb(25,25,22)" fill-rule="evenodd"/>
  <path d="M 127.05 88.14 L 126.63 88.39 L 126.22 88.69 L 125.79 88.92 L 125.38 89.09 L 125.13 89.37 L 125.11 89.77 L 125.30 90.21 L 125.60 90.61 L 125.86 91.04 L 126.02 91.48 L 126.23 91.82 L 126.62 91.97 L 127.11 91.98 L 127.56 91.91 L 127.86 91.67 L 127.98 91.25 L 128.00 90.74 L 128.00 90.21 L 128.00 89.67 L 128.00 89.14 L 127.97 88.63 L 127.83 88.24 L 127.49 88.08 Z" fill="rgb(90,91,88)" fill-rule="evenodd"/>
  <path d="M 93.18 162.18 L 93.03 162.53 L 93.00 163.00 L 93.00 163.50 L 93.00 164.00 L 93.00 164.50 L 93.00 165.00 L 93.03 165.47 L 93.18 165.82 L 93.53 165.97 L 94.00 166.00 L 94.50 166.00 L 95.00 166.00 L 95.47 165.97 L 95.82 165.82 L 95.97 165.47 L 96.00 165.00 L 96.00 164.50 L 96.00 164.00 L 96.00 163.50 L 96.00 163.00 L 95.97 162.53 L 95.82 162.18 L 95.47 162.03 L 95.00 162.00 L 94.50 162.00 L 94.00 162.00 L 93.53 162.03 Z M 96.18 143.18 L 96.03 143.53 L 96.00 144.00 L 96.00 144.50 L 96.00 145.00 L 96.00 145.50 L 96.00 146.00 L 96.00 146.50 L 96.00 147.00 L 96.03 147.47 L 96.18 147.82 L 96.53 147.97 L 97.00 148.00 L 97.50 148.00 L 98.00 148.00 L 98.47 147.97 L 98.82 147.82 L 98.97 147.47 L 99.00 147.00 L 99.00 146.50 L 99.00 146.00 L 99.00 145.50 L 99.00 145.00 L 99.00 144.50 L 99.00 144.00 L 98.97 143.53 L 98.82 143.18 L 98.47 143.03 L 98.00 143.00 L 97.50 143.00 L 97.00 143.00 L 96.53 143.03 Z M 93.18 15.18 L 93.03 15.53 L 93.00 16.00 L 93.00 16.50 L 93.00 17.00 L 93.00 17.50 L 93.00 18.00 L 93.03 18.47 L 93.18 18.82 L 93.53 18.97 L 94.00 19.00 L 94.50 19.00 L 95.00 19.00 L 95.47 18.97 L 95.82 18.82 L 95.97 18.47 L 96.00 18.00 L 96.00 17.50 L 96.00 17.00 L 96.00 16.50 L 96.00 16.00 L 95.97 15.53 L 95.82 15.18 L 95.47 15.03 L 95.00 15.00 L 94.50 15.00 L 94.00 15.00 L 93.53 15.03 Z" fill="rgb(253,253,253)" fill-rule="evenodd"/>
</svg>