<svg xmlns="http://www.w3.org/2000/svg" width="175" height="174" viewBox="0 0 175 174" role="img" aria-label="19_icons_19">
  <title>19_icons_19</title>
  <path d="M 19.06 87.13 L 18.64 87.38 L 18.24 87.68 L 17.81 87.90 L 17.33 87.98 L 16.82 88.00 L 16.30 88.00 L 15.78 88.00 L 15.26 88.00 L 14.74 88.00 L 14.23 88.00 L 13.71 88.00 L 13.19 88.00 L 12.69 88.02 L 12.29 88.14 L 12.08 88.45 L 12.01 88.90 L 12.03 89.38 L 12.17 89.76 L 12.50 89.94 L 12.97 89.99 L 13.48 90.00 L 14.00 90.00 L 14.52 90.00 L 15.04 90.00 L 15.56 90.00 L 16.08 90.00 L 16.59 90.00 L 17.10 89.99 L 17.55 89.92 L 17.87 89.71 L 18.04 89.33 L 18.23 88.90 L 18.52 88.52 L 18.91 88.23 L 19.36 88.06 L 19.85 88.01 L 20.34 87.97 L 20.73 87.85 L 20.90 87.56 L 20.82 87.23 L 20.50 87.05 L 20.03 87.01 L 19.53 87.02 Z M 148.20 84.19 L 148.07 84.55 L 148.17 85.00 L 148.44 85.42 L 148.73 85.84 L 148.92 86.30 L 148.99 86.80 L 148.98 87.32 L 148.89 87.82 L 148.66 88.26 L 148.33 88.66 L 147.96 89.04 L 147.59 89.42 L 147.28 89.83 L 147.11 90.26 L 147.14 90.66 L 147.41 90.88 L 147.83 90.88 L 148.26 90.67 L 148.67 90.37 L 149.10 90.13 L 149.59 90.02 L 150.12 90.00 L 150.65 90.00 L 151.19 90.00 L 151.72 90.00 L 152.26 90.00 L 152.79 90.00 L 153.32 89.98 L 153.82 89.89 L 154.26 89.67 L 154.67 89.37 L 155.11 89.13 L 155.60 89.02 L 156.13 89.00 L 156.66 89.00 L 157.20 89.00 L 157.73 89.00 L 158.26 88.98 L 158.76 88.90 L 159.21 88.70 L 159.62 88.40 L 160.05 88.14 L 160.54 88.03 L 161.06 88.00 L 161.60 88.00 L 162.13 88.00 L 162.67 88.00 L 163.20 87.99 L 163.70 87.92 L 164.16 87.73 L 164.58 87.44 L 165.00 87.17 L 165.48 87.04 L 166.00 87.00 L 166.53 87.00 L 167.07 87.00 L 167.61 87.00 L 168.14 87.00 L 168.67 87.00 L 169.19 86.98 L 169.63 86.88 L 169.87 86.63 L 169.84 86.31 L 169.56 86.09 L 169.10 86.01 L 168.58 86.00 L 168.04 86.00 L 167.51 86.00 L 166.97 86.00 L 166.44 86.00 L 165.90 86.00 L 165.37 86.00 L 164.84 85.99 L 164.33 85.93 L 163.87 85.75 L 163.45 85.46 L 163.03 85.19 L 162.55 85.05 L 162.03 85.01 L 161.50 85.00 L 160.97 85.00 L 160.43 85.00 L 159.89 85.00 L 159.36 85.00 L 158.82 85.00 L 158.29 85.00 L 157.75 85.00 L 157.22 85.00 L 156.68 85.00 L 156.15 85.00 L 155.61 85.00 L 155.08 85.00 L 154.54 85.00 L 154.01 85.00 L 153.47 85.00 L 152.94 84.99 L 152.42 84.95 L 151.95 84.80 L 151.53 84.52 L 151.11 84.24 L 150.65 84.07 L 150.14 84.01 L 149.61 84.00 L 149.07 84.00 L 148.57 84.03 Z M 133.06 79.14 L 132.61 79.40 L 132.19 79.71 L 131.72 79.91 L 131.20 79.99 L 130.68 80.03 L 130.27 80.17 L 130.06 80.52 L 130.00 81.02 L 129.95 81.54 L 129.80 82.04 L 129.52 82.47 L 129.23 82.91 L 129.04 83.38 L 128.88 83.87 L 128.62 84.31 L 128.25 84.66 L 127.79 84.89 L 127.28 84.98 L 126.74 85.02 L 126.22 85.10 L 125.76 85.33 L 125.39 85.68 L 125.13 86.12 L 125.02 86.63 L 124.99 87.17 L 124.92 87.69 L 124.72 88.16 L 124.39 88.56 L 123.96 88.84 L 123.46 88.97 L 122.92 88.99 L 122.39 88.94 L 121.91 88.77 L 121.48 88.48 L 121.04 88.20 L 120.58 88.08 L 120.22 88.20 L 120.10 88.52 L 120.26 88.84 L 120.65 89.04 L 121.10 89.24 L 121.53 89.53 L 121.97 89.80 L 122.46 89.95 L 122.99 89.98 L 123.49 89.93 L 123.84 89.73 L 124.04 89.34 L 124.24 88.89 L 124.56 88.49 L 124.98 88.19 L 125.47 88.05 L 126.01 88.01 L 126.56 88.00 L 127.12 88.00 L 127.67 88.00 L 128.22 88.00 L 128.77 88.00 L 129.32 88.02 L 129.83 88.12 L 130.28 88.36 L 130.64 88.73 L 130.88 89.18 L 130.98 89.69 L 131.01 90.23 L 131.10 90.75 L 131.31 91.21 L 131.61 91.64 L 131.87 92.09 L 131.98 92.60 L 132.00 93.14 L 132.00 93.69 L 132.02 94.22 L 132.14 94.66 L 132.44 94.88 L 132.87 94.86 L 133.31 94.64 L 133.74 94.34 L 134.20 94.11 L 134.71 94.02 L 135.25 93.98 L 135.77 93.90 L 136.23 93.68 L 136.66 93.38 L 137.11 93.13 L 137.62 93.02 L 138.16 93.00 L 138.72 93.00 L 139.26 92.98 L 139.78 92.90 L 140.24 92.68 L 140.67 92.37 L 141.12 92.13 L 141.63 92.02 L 142.18 92.00 L 142.73 92.00 L 143.26 91.97 L 143.68 91.85 L 143.91 91.53 L 143.98 91.05 L 143.95 90.55 L 143.77 90.18 L 143.39 89.97 L 142.94 89.78 L 142.53 89.47 L 142.22 89.06 L 142.08 88.59 L 142.14 88.10 L 142.38 87.65 L 142.69 87.22 L 142.90 86.76 L 142.98 86.24 L 143.00 85.69 L 143.00 85.14 L 143.00 84.59 L 142.99 84.04 L 142.94 83.54 L 142.75 83.17 L 142.37 82.97 L 141.91 82.77 L 141.48 82.49 L 141.05 82.21 L 140.56 82.05 L 140.02 82.00 L 139.49 81.96 L 138.99 81.82 L 138.57 81.52 L 138.25 81.12 L 138.04 80.67 L 137.85 80.28 L 137.51 80.05 L 137.06 79.87 L 136.62 79.60 L 136.20 79.30 L 135.73 79.09 L 135.21 79.02 L 134.66 79.00 L 134.11 79.00 L 133.56 79.02 Z M 88.30 10.75 L 88.00 11.55 L 87.72 12.79 L 87.32 14.07 L 87.07 15.41 L 87.01 16.83 L 87.00 18.28 L 87.00 19.73 L 86.95 21.16 L 86.76 22.53 L 86.40 23.82 L 86.11 25.16 L 85.96 26.54 L 85.70 27.88 L 85.30 29.17 L 85.04 30.51 L 84.88 31.89 L 84.59 33.22 L 84.18 34.50 L 83.76 35.77 L 83.33 37.04 L 83.06 38.38 L 82.91 39.77 L 82.62 41.10 L 82.21 42.37 L 81.79 43.65 L 81.34 44.91 L 80.92 46.19 L 80.51 47.47 L 80.09 48.74 L 79.60 49.99 L 78.89 51.14 L 78.15 52.28 L 77.55 53.49 L 77.09 54.74 L 76.60 55.99 L 75.89 57.14 L 75.11 58.27 L 74.35 59.40 L 73.47 60.49 L 72.47 61.52 L 71.45 62.55 L 70.47 63.59 L 69.63 64.70 L 69.05 65.90 L 68.49 67.12 L 67.68 68.22 L 66.67 69.17 L 65.55 69.97 L 64.43 70.76 L 63.34 71.63 L 62.24 72.46 L 61.10 73.20 L 59.97 73.99 L 58.81 74.69 L 57.58 75.20 L 56.38 75.80 L 55.22 76.51 L 54.05 77.18 L 52.88 77.85 L 51.71 78.54 L 50.56 79.24 L 49.32 79.75 L 47.96 79.96 L 46.53 80.00 L 45.09 80.04 L 43.71 80.20 L 42.42 80.59 L 41.22 81.18 L 40.08 81.93 L 38.92 82.64 L 37.68 83.12 L 36.40 83.53 L 35.09 83.87 L 33.76 84.16 L 32.46 84.53 L 31.20 84.95 L 30.07 85.51 L 29.34 86.46 L 29.06 87.75 L 29.01 89.16 L 29.11 90.51 L 29.58 91.49 L 30.60 91.92 L 31.96 92.03 L 33.33 92.21 L 34.64 92.54 L 35.96 92.84 L 37.28 92.90 L 38.37 92.55 L 39.06 91.69 L 39.71 90.62 L 40.64 89.74 L 41.81 89.32 L 43.03 89.51 L 44.13 90.24 L 45.03 91.24 L 45.45 92.31 L 45.10 93.24 L 44.13 93.83 L 43.11 94.21 L 42.72 94.66 L 43.24 95.21 L 44.32 95.71 L 45.64 95.97 L 47.02 96.15 L 48.32 96.49 L 49.55 97.03 L 50.76 97.62 L 51.96 98.21 L 53.15 98.84 L 54.35 99.44 L 55.56 100.02 L 56.76 100.62 L 57.96 101.21 L 59.14 101.87 L 60.29 102.58 L 61.40 103.41 L 62.49 104.28 L 63.61 105.06 L 64.72 105.87 L 65.73 106.83 L 66.53 107.93 L 67.09 109.12 L 67.76 110.15 L 68.79 110.78 L 70.06 111.15 L 71.30 111.65 L 72.38 112.48 L 73.29 113.52 L 74.07 114.64 L 74.89 115.76 L 75.78 116.84 L 76.55 117.97 L 77.07 119.20 L 77.53 120.46 L 78.12 121.66 L 78.87 122.80 L 79.63 123.93 L 80.26 125.12 L 80.77 126.36 L 81.21 127.63 L 81.62 128.90 L 81.90 130.24 L 82.01 131.64 L 82.15 133.03 L 82.50 134.34 L 83.03 135.57 L 83.56 136.80 L 83.92 138.10 L 84.25 139.41 L 84.80 140.63 L 85.44 141.81 L 85.85 143.09 L 85.98 144.49 L 86.03 145.91 L 86.20 147.29 L 86.59 148.58 L 87.12 149.81 L 87.64 151.04 L 87.92 152.38 L 88.00 153.79 L 88.05 155.22 L 88.25 156.58 L 88.62 157.88 L 88.90 159.21 L 89.06 160.60 L 89.32 161.94 L 89.71 163.23 L 89.94 164.58 L 90.00 166.00 L 90.06 167.34 L 90.30 168.21 L 90.70 168.11 L 90.94 167.12 L 91.00 165.75 L 91.00 164.30 L 91.04 162.87 L 91.24 161.50 L 91.59 160.20 L 91.88 158.87 L 91.98 157.46 L 92.00 156.03 L 92.06 154.60 L 92.28 153.24 L 92.67 151.96 L 92.93 150.61 L 93.00 149.19 L 93.05 147.76 L 93.26 146.40 L 93.65 145.12 L 94.06 143.84 L 94.47 142.56 L 94.89 141.28 L 95.30 140.01 L 95.77 138.75 L 96.23 137.49 L 96.84 136.29 L 97.49 135.11 L 97.87 133.82 L 97.98 132.42 L 98.04 131.00 L 98.22 129.62 L 98.58 128.32 L 99.00 127.05 L 99.52 125.82 L 100.19 124.64 L 100.79 123.44 L 101.27 122.19 L 101.81 120.97 L 102.39 119.76 L 102.98 118.55 L 103.57 117.35 L 104.20 116.16 L 105.03 115.06 L 106.03 114.08 L 107.16 113.32 L 108.39 112.80 L 109.58 112.17 L 110.62 111.28 L 111.44 110.19 L 112.01 108.98 L 112.59 107.77 L 113.40 106.66 L 114.39 105.62 L 115.41 104.59 L 116.45 103.59 L 117.53 102.70 L 118.65 101.93 L 119.78 101.16 L 120.94 100.45 L 122.16 99.91 L 123.33 99.31 L 124.20 98.41 L 124.46 97.39 L 124.00 96.67 L 123.18 96.67 L 122.32 97.20 L 121.38 97.44 L 120.63 96.94 L 120.45 95.92 L 120.53 94.79 L 120.17 93.81 L 119.21 93.16 L 118.00 92.67 L 116.78 92.11 L 115.58 91.53 L 114.44 90.88 L 113.57 89.99 L 113.14 88.79 L 113.09 87.44 L 113.39 86.17 L 114.04 85.14 L 114.73 84.20 L 115.33 83.19 L 116.23 82.40 L 117.48 82.06 L 118.85 81.95 L 120.00 81.69 L 120.56 81.04 L 120.38 80.18 L 119.73 79.27 L 119.14 78.18 L 118.68 76.95 L 118.27 75.67 L 118.02 74.33 L 117.81 72.99 L 117.27 71.89 L 116.29 71.19 L 115.10 70.65 L 113.97 69.88 L 112.92 68.92 L 111.86 67.97 L 110.76 67.13 L 109.62 66.37 L 108.53 65.52 L 107.43 64.67 L 106.31 63.90 L 105.24 63.06 L 104.35 62.03 L 103.62 60.90 L 102.88 59.76 L 102.24 58.57 L 101.73 57.34 L 101.07 56.16 L 100.31 55.03 L 99.60 53.87 L 98.86 52.73 L 98.24 51.54 L 97.77 50.28 L 97.31 49.02 L 96.90 47.75 L 96.50 46.46 L 96.17 45.15 L 96.02 43.76 L 95.92 42.36 L 95.64 41.02 L 95.12 39.79 L 94.58 38.56 L 94.18 37.28 L 93.88 35.96 L 93.51 34.66 L 92.97 33.43 L 92.42 32.21 L 91.98 30.95 L 91.57 29.67 L 91.19 28.38 L 90.91 27.05 L 90.58 25.73 L 90.23 24.43 L 90.04 23.06 L 89.99 21.63 L 89.90 20.22 L 89.62 18.88 L 89.25 17.59 L 89.05 16.22 L 89.00 14.79 L 89.00 13.35 L 88.94 11.97 L 88.70 10.93 Z M 108.15 92.06 L 108.41 91.64 L 108.80 91.30 L 109.26 91.09 L 109.77 91.02 L 110.30 91.02 L 110.81 91.11 L 111.25 91.34 L 111.62 91.69 L 111.88 92.13 L 111.98 92.63 L 111.99 93.16 L 111.92 93.67 L 111.73 94.14 L 111.41 94.54 L 111.00 94.82 L 110.52 94.93 L 110.04 94.85 L 109.61 94.58 L 109.22 94.22 L 108.83 93.83 L 108.47 93.44 L 108.19 93.01 L 108.07 92.54 Z M 96.13 88.05 L 96.37 87.67 L 96.70 87.34 L 97.09 87.12 L 97.54 87.02 L 98.01 87.00 L 98.49 87.02 L 98.94 87.12 L 99.32 87.36 L 99.65 87.69 L 99.88 88.08 L 99.96 88.51 L 99.87 88.95 L 99.63 89.33 L 99.30 89.66 L 98.91 89.88 L 98.46 89.98 L 97.99 90.00 L 97.51 89.98 L 97.06 89.88 L 96.68 89.64 L 96.35 89.31 L 96.12 88.92 L 96.04 88.49 Z" fill="rgb(240,24,23)" fill-rule="evenodd"/>
  <path d="M 27.05 87.15 L 26.62 87.40 L 26.21 87.70 L 25.75 87.91 L 25.24 87.98 L 24.71 88.00 L 24.17 88.00 L 23.62 88.00 L 23.09 88.00 L 22.58 88.03 L 22.20 88.19 L 22.09 88.52 L 22.25 88.84 L 22.63 89.03 L 23.08 89.22 L 23.50 89.50 L 23.93 89.78 L 24.40 89.94 L 24.92 89.99 L 25.46 90.00 L 25.99 89.99 L 26.48 89.94 L 26.84 89.75 L 27.03 89.37 L 27.22 88.92 L 27.50 88.50 L 27.78 88.08 L 27.91 87.63 L 27.82 87.25 L 27.49 87.08 Z M 116.20 84.21 L 115.98 84.59 L 115.79 85.06 L 115.49 85.51 L 115.21 85.96 L 115.05 86.47 L 115.01 87.02 L 115.00 87.59 L 115.00 88.17 L 115.00 88.74 L 115.02 89.30 L 115.12 89.83 L 115.38 90.29 L 115.76 90.66 L 116.22 90.91 L 116.73 91.08 L 117.20 91.31 L 117.65 91.61 L 118.11 91.86 L 118.62 91.91 L 119.11 91.75 L 119.55 91.46 L 120.01 91.18 L 120.51 91.08 L 121.01 91.19 L 121.45 91.49 L 121.87 91.87 L 122.28 92.27 L 122.70 92.63 L 123.17 92.88 L 123.70 92.98 L 124.25 92.98 L 124.79 92.89 L 125.27 92.66 L 125.71 92.35 L 126.19 92.12 L 126.72 92.02 L 127.28 92.00 L 127.85 92.00 L 128.42 91.97 L 128.94 91.85 L 129.38 91.56 L 129.72 91.15 L 129.92 90.66 L 129.98 90.12 L 129.96 89.59 L 129.78 89.20 L 129.37 89.04 L 128.84 89.02 L 128.30 89.09 L 127.81 89.30 L 127.38 89.64 L 126.97 90.03 L 126.56 90.42 L 126.12 90.74 L 125.62 90.93 L 125.08 90.99 L 124.51 91.00 L 123.94 91.00 L 123.37 91.00 L 122.80 90.98 L 122.26 90.90 L 121.78 90.68 L 121.33 90.38 L 120.87 90.12 L 120.37 89.95 L 119.88 89.74 L 119.44 89.42 L 119.03 89.03 L 118.64 88.62 L 118.30 88.19 L 118.09 87.70 L 118.01 87.16 L 118.00 86.59 L 117.99 86.02 L 117.95 85.47 L 117.79 84.96 L 117.48 84.54 L 117.06 84.22 L 116.58 84.09 Z M 128.19 80.21 L 127.99 80.57 L 127.81 81.03 L 127.51 81.44 L 127.10 81.76 L 126.62 81.93 L 126.09 81.99 L 125.54 82.00 L 124.98 82.00 L 124.43 82.00 L 123.89 82.02 L 123.43 82.10 L 123.13 82.36 L 123.02 82.81 L 123.00 83.34 L 123.00 83.89 L 122.98 84.43 L 122.86 84.94 L 122.58 85.37 L 122.19 85.71 L 121.74 85.93 L 121.34 86.13 L 121.12 86.44 L 121.14 86.87 L 121.37 87.30 L 121.75 87.66 L 122.19 87.88 L 122.68 87.90 L 123.15 87.73 L 123.55 87.40 L 123.83 86.98 L 123.97 86.48 L 124.00 85.94 L 124.00 85.39 L 124.01 84.84 L 124.08 84.31 L 124.28 83.84 L 124.61 83.44 L 125.03 83.16 L 125.52 83.07 L 126.00 83.18 L 126.44 83.45 L 126.87 83.74 L 127.33 83.90 L 127.72 83.82 L 127.95 83.51 L 128.13 83.06 L 128.40 82.63 L 128.70 82.20 L 128.91 81.73 L 128.98 81.21 L 128.97 80.69 L 128.83 80.28 L 128.52 80.10 Z" fill="rgb(248,81,78)" fill-rule="evenodd"/>
</svg>