<svg xmlns="http://www.w3.org/2000/svg" width="92" height="161" viewBox="0 0 92 161" role="img" aria-label="20_icons_20">
  <title>20_icons_20</title>
  <path d="M 45.38 4.53 L 44.60 5.40 L 43.97 6.58 L 43.40 7.85 L 42.94 9.16 L 42.47 10.46 L 41.85 11.71 L 41.06 12.89 L 40.26 14.06 L 39.60 15.29 L 38.94 16.52 L 38.14 17.69 L 37.18 18.79 L 36.18 19.88 L 35.31 21.02 L 34.63 22.25 L 34.01 23.49 L 33.46 24.77 L 33.13 26.13 L 32.94 27.55 L 32.59 28.91 L 31.90 30.13 L 31.13 31.32 L 30.48 32.55 L 29.88 33.80 L 29.31 35.07 L 28.84 36.38 L 28.37 37.68 L 27.75 38.93 L 26.98 40.11 L 26.28 41.33 L 25.74 42.60 L 25.06 43.83 L 24.29 45.01 L 23.64 46.24 L 23.01 47.49 L 22.44 48.75 L 21.95 50.05 L 21.38 51.32 L 20.66 52.52 L 19.89 53.71 L 19.09 54.88 L 18.37 56.08 L 17.86 57.37 L 17.37 58.68 L 16.76 59.92 L 15.98 61.11 L 15.29 62.32 L 14.78 63.61 L 14.25 64.90 L 13.67 66.16 L 13.05 67.40 L 12.43 68.65 L 11.78 69.88 L 10.98 71.05 L 10.18 72.23 L 9.56 73.47 L 9.07 74.77 L 8.55 76.06 L 7.83 77.26 L 7.07 78.45 L 6.46 79.70 L 5.97 81.00 L 5.41 82.27 L 4.69 83.48 L 3.98 84.68 L 3.44 85.93 L 3.30 87.24 L 3.59 88.55 L 4.15 89.81 L 4.80 91.05 L 5.41 92.30 L 6.07 93.53 L 6.87 94.70 L 7.79 95.82 L 8.66 96.96 L 9.42 98.15 L 10.20 99.33 L 10.95 100.52 L 11.54 101.78 L 11.87 103.15 L 11.98 104.60 L 12.05 106.08 L 12.30 107.47 L 12.96 108.66 L 14.00 109.50 L 15.30 109.94 L 16.61 110.34 L 17.65 111.11 L 18.45 112.20 L 19.23 113.37 L 20.02 114.54 L 20.82 115.71 L 21.61 116.89 L 22.36 118.08 L 23.12 119.27 L 23.77 120.50 L 24.32 121.78 L 25.07 122.97 L 25.97 124.10 L 26.71 125.30 L 27.26 126.57 L 27.96 127.78 L 28.87 128.91 L 29.72 130.06 L 30.35 131.30 L 30.83 132.60 L 31.27 133.93 L 31.75 135.23 L 32.25 136.53 L 32.94 137.74 L 33.88 138.85 L 34.92 139.93 L 35.93 141.01 L 36.82 142.15 L 37.57 143.34 L 38.34 144.52 L 39.11 145.71 L 39.97 146.85 L 40.90 147.97 L 41.68 149.11 L 42.30 150.22 L 43.01 151.20 L 43.70 152.27 L 44.24 153.52 L 44.88 154.75 L 45.57 155.97 L 46.13 157.24 L 46.78 158.43 L 47.76 159.31 L 48.98 159.65 L 50.20 159.34 L 51.18 158.47 L 51.78 157.25 L 52.16 155.91 L 52.67 154.62 L 53.38 153.41 L 54.10 152.21 L 54.78 150.99 L 55.39 149.74 L 56.05 148.50 L 56.85 147.33 L 57.80 146.22 L 58.78 145.13 L 59.55 143.94 L 59.92 142.60 L 60.11 141.18 L 60.34 139.85 L 60.39 138.80 L 59.83 138.06 L 58.92 137.35 L 58.18 136.37 L 57.57 135.31 L 56.88 134.36 L 56.59 133.38 L 57.07 132.43 L 57.93 131.58 L 58.41 130.64 L 58.04 129.73 L 56.98 129.16 L 55.67 128.77 L 54.40 128.20 L 53.22 127.46 L 52.16 126.68 L 51.59 125.75 L 51.89 124.81 L 52.92 124.23 L 54.31 124.04 L 55.79 124.00 L 57.27 123.94 L 58.65 123.69 L 59.77 123.14 L 60.40 122.35 L 60.45 121.31 L 60.56 120.19 L 61.30 119.34 L 62.49 118.81 L 63.71 118.27 L 64.72 117.53 L 65.40 116.47 L 65.70 115.21 L 65.59 113.89 L 65.23 112.57 L 64.87 111.29 L 64.36 110.18 L 63.74 109.19 L 63.59 108.16 L 64.23 107.25 L 65.36 106.56 L 66.53 105.89 L 67.42 104.96 L 67.86 103.72 L 67.98 102.28 L 68.00 100.78 L 67.95 99.32 L 67.71 98.03 L 67.09 97.00 L 66.19 96.03 L 65.44 94.90 L 65.11 93.57 L 65.17 92.18 L 65.66 91.01 L 66.66 90.30 L 68.01 90.09 L 69.40 90.22 L 70.64 90.46 L 71.54 90.26 L 72.01 89.34 L 72.48 88.18 L 73.40 87.37 L 74.72 87.07 L 76.17 87.06 L 77.49 87.34 L 78.32 88.05 L 78.35 89.04 L 77.81 90.01 L 77.46 90.89 L 77.77 91.52 L 78.45 91.42 L 78.94 90.51 L 79.38 89.31 L 80.22 88.48 L 81.43 88.30 L 82.75 88.59 L 84.12 88.88 L 85.54 89.06 L 86.84 89.42 L 87.86 90.01 L 88.61 90.28 L 89.31 89.77 L 90.08 88.75 L 90.69 87.52 L 90.94 86.13 L 90.93 84.67 L 90.65 83.29 L 89.99 82.06 L 89.18 80.92 L 88.35 79.96 L 87.40 79.59 L 86.47 80.08 L 85.73 81.13 L 85.02 82.28 L 84.17 83.22 L 83.07 83.63 L 81.93 83.38 L 80.91 82.73 L 79.81 82.23 L 78.50 82.09 L 77.13 82.30 L 75.81 82.65 L 74.50 82.68 L 73.22 82.28 L 72.13 81.60 L 71.59 80.69 L 71.90 79.74 L 72.77 79.02 L 73.49 78.32 L 73.42 77.57 L 72.50 77.11 L 71.20 76.86 L 70.03 76.36 L 69.38 75.40 L 69.46 74.24 L 70.26 73.35 L 71.43 72.76 L 72.48 72.02 L 73.35 71.07 L 74.34 70.27 L 75.30 69.59 L 75.83 68.59 L 75.98 67.24 L 76.06 65.78 L 76.35 64.47 L 77.10 63.63 L 78.17 63.44 L 79.14 63.40 L 79.62 62.81 L 79.49 61.72 L 78.92 60.54 L 78.05 59.55 L 76.94 58.82 L 75.70 58.25 L 74.45 57.71 L 73.43 56.92 L 72.69 55.82 L 72.01 54.61 L 71.26 53.42 L 70.49 52.24 L 69.70 51.15 L 68.68 50.42 L 67.43 50.30 L 66.17 50.50 L 65.06 50.33 L 64.35 49.47 L 64.19 48.19 L 64.56 46.89 L 65.35 45.72 L 66.33 44.62 L 67.16 43.50 L 67.48 42.32 L 67.21 41.10 L 66.67 39.85 L 66.05 38.60 L 65.48 37.34 L 64.99 36.04 L 64.41 34.78 L 63.59 33.61 L 62.75 32.46 L 62.11 31.22 L 61.55 29.95 L 60.83 28.75 L 60.07 27.56 L 59.42 26.32 L 58.77 25.09 L 57.96 23.92 L 57.12 22.80 L 56.27 21.76 L 55.30 20.87 L 54.45 19.89 L 53.89 18.67 L 53.41 17.38 L 52.85 16.11 L 52.32 14.82 L 51.98 13.46 L 51.61 12.11 L 50.92 10.90 L 50.15 9.71 L 49.50 8.48 L 48.87 7.24 L 48.19 6.04 L 47.42 4.98 L 46.42 4.38 Z M 57.15 108.06 L 57.44 107.62 L 57.86 107.28 L 58.34 107.10 L 58.85 107.14 L 59.31 107.39 L 59.67 107.78 L 59.91 108.25 L 60.09 108.76 L 60.32 109.24 L 60.63 109.69 L 60.88 110.16 L 60.98 110.70 L 61.00 111.27 L 61.00 111.84 L 60.97 112.41 L 60.85 112.94 L 60.56 113.38 L 60.14 113.72 L 59.66 113.90 L 59.15 113.86 L 58.70 113.61 L 58.33 113.22 L 58.10 112.74 L 58.02 112.20 L 57.98 111.64 L 57.86 111.11 L 57.60 110.64 L 57.30 110.19 L 57.09 109.70 L 57.02 109.15 L 57.03 108.59 Z M 57.15 73.06 L 57.44 72.62 L 57.86 72.28 L 58.35 72.10 L 58.86 72.14 L 59.31 72.39 L 59.68 72.79 L 59.92 73.26 L 60.09 73.77 L 60.33 74.25 L 60.64 74.70 L 60.87 75.18 L 60.89 75.68 L 60.70 76.17 L 60.36 76.58 L 59.90 76.86 L 59.37 76.97 L 58.81 76.98 L 58.27 76.90 L 57.78 76.67 L 57.39 76.31 L 57.13 75.84 L 57.02 75.31 L 57.00 74.74 L 57.00 74.16 L 57.03 73.59 Z M 47.13 21.05 L 47.37 20.67 L 47.70 20.34 L 48.09 20.12 L 48.53 20.04 L 48.96 20.13 L 49.34 20.38 L 49.66 20.71 L 49.89 21.10 L 49.98 21.55 L 50.00 22.03 L 49.98 22.51 L 49.87 22.95 L 49.63 23.33 L 49.30 23.66 L 48.91 23.88 L 48.47 23.96 L 48.04 23.87 L 47.66 23.62 L 47.34 23.29 L 47.11 22.90 L 47.02 22.45 L 47.00 21.97 L 47.02 21.49 Z" fill="rgb(19,19,17)" fill-rule="evenodd"/>
  <path d="M 71.05 120.16 L 70.59 120.42 L 70.14 120.73 L 69.67 120.95 L 69.27 121.17 L 69.03 121.53 L 68.83 122.00 L 68.54 122.45 L 68.24 122.91 L 68.04 123.41 L 67.87 123.91 L 67.57 124.36 L 67.16 124.71 L 66.67 124.91 L 66.12 124.99 L 65.55 125.00 L 64.97 124.99 L 64.42 124.93 L 63.91 124.76 L 63.45 124.46 L 62.99 124.18 L 62.47 124.04 L 61.91 124.02 L 61.36 124.08 L 60.86 124.27 L 60.41 124.58 L 59.95 124.86 L 59.49 125.06 L 59.16 125.32 L 59.03 125.77 L 59.02 126.31 L 59.13 126.85 L 59.37 127.32 L 59.68 127.78 L 59.90 128.27 L 59.98 128.81 L 60.00 129.38 L 60.00 129.96 L 60.00 130.54 L 60.01 131.12 L 60.09 131.67 L 60.29 132.16 L 60.64 132.57 L 61.09 132.86 L 61.62 132.98 L 62.19 133.00 L 62.76 133.00 L 63.31 132.97 L 63.74 132.81 L 63.98 132.45 L 64.18 131.99 L 64.49 131.54 L 64.88 131.12 L 65.28 130.71 L 65.64 130.28 L 65.90 129.80 L 66.07 129.30 L 66.30 128.81 L 66.61 128.36 L 66.87 127.89 L 67.05 127.38 L 67.25 126.89 L 67.58 126.44 L 67.97 126.03 L 68.38 125.62 L 68.79 125.21 L 69.20 124.80 L 69.58 124.37 L 69.87 123.91 L 70.04 123.41 L 70.24 122.91 L 70.56 122.46 L 70.96 122.05 L 71.35 121.63 L 71.69 121.19 L 71.88 120.73 L 71.82 120.32 L 71.50 120.11 Z M 73.20 88.20 L 73.04 88.59 L 73.00 89.12 L 73.00 89.68 L 72.98 90.23 L 72.90 90.75 L 72.68 91.22 L 72.33 91.60 L 71.89 91.87 L 71.38 91.98 L 70.83 91.98 L 70.31 91.91 L 69.83 91.72 L 69.40 91.41 L 68.95 91.15 L 68.44 91.03 L 67.89 91.00 L 67.34 91.00 L 66.80 91.02 L 66.36 91.14 L 66.12 91.43 L 66.14 91.87 L 66.37 92.31 L 66.73 92.72 L 67.11 93.12 L 67.49 93.52 L 67.79 93.95 L 67.95 94.45 L 68.00 94.98 L 68.05 95.52 L 68.19 96.02 L 68.47 96.46 L 68.76 96.90 L 68.93 97.39 L 68.99 97.92 L 69.03 98.46 L 69.16 98.97 L 69.43 99.42 L 69.73 99.85 L 69.92 100.33 L 69.99 100.86 L 69.98 101.40 L 69.86 101.92 L 69.61 102.37 L 69.30 102.80 L 69.12 103.25 L 69.16 103.66 L 69.44 103.88 L 69.87 103.86 L 70.32 103.63 L 70.75 103.33 L 71.21 103.12 L 71.70 103.10 L 72.17 103.29 L 72.60 103.59 L 73.05 103.85 L 73.56 103.97 L 74.10 104.01 L 74.64 104.07 L 75.12 104.26 L 75.53 104.58 L 75.82 105.00 L 75.96 105.50 L 75.99 106.04 L 75.94 106.58 L 75.78 107.07 L 75.46 107.48 L 75.05 107.79 L 74.56 107.92 L 74.07 107.85 L 73.62 107.60 L 73.19 107.30 L 72.72 107.09 L 72.19 107.02 L 71.67 107.03 L 71.26 107.18 L 71.06 107.54 L 71.00 108.04 L 70.94 108.57 L 70.78 109.06 L 70.47 109.48 L 70.05 109.78 L 69.56 109.94 L 69.02 109.99 L 68.47 110.00 L 67.91 110.00 L 67.35 110.00 L 66.81 110.02 L 66.37 110.13 L 66.13 110.40 L 66.18 110.73 L 66.51 110.93 L 67.01 110.99 L 67.56 111.00 L 68.12 111.00 L 68.68 111.00 L 69.23 111.00 L 69.79 111.00 L 70.34 111.02 L 70.86 111.12 L 71.30 111.38 L 71.66 111.76 L 71.88 112.21 L 71.90 112.70 L 71.71 113.17 L 71.41 113.60 L 71.15 114.05 L 71.03 114.56 L 71.02 115.09 L 71.10 115.56 L 71.36 115.86 L 71.81 115.98 L 72.34 115.98 L 72.85 115.88 L 73.31 115.63 L 73.72 115.27 L 74.12 114.89 L 74.52 114.51 L 74.95 114.21 L 75.41 114.02 L 75.79 113.81 L 75.96 113.42 L 76.00 112.90 L 76.00 112.34 L 76.02 111.79 L 76.10 111.27 L 76.31 110.79 L 76.64 110.37 L 77.03 109.97 L 77.41 109.57 L 77.73 109.15 L 77.92 108.67 L 77.99 108.14 L 78.02 107.60 L 78.14 107.08 L 78.41 106.65 L 78.80 106.30 L 79.25 106.07 L 79.66 105.87 L 79.92 105.56 L 80.11 105.13 L 80.37 104.68 L 80.67 104.25 L 80.89 103.78 L 80.98 103.26 L 81.00 102.71 L 81.00 102.15 L 80.98 101.60 L 80.86 101.09 L 80.61 100.64 L 80.31 100.21 L 80.11 99.74 L 80.11 99.25 L 80.31 98.79 L 80.61 98.35 L 80.86 97.90 L 80.92 97.41 L 80.78 96.93 L 80.49 96.49 L 80.21 96.05 L 80.05 95.55 L 80.00 95.02 L 79.94 94.52 L 79.73 94.17 L 79.31 94.03 L 78.79 93.99 L 78.26 93.90 L 77.79 93.69 L 77.37 93.36 L 76.98 92.97 L 76.59 92.57 L 76.27 92.15 L 76.08 91.67 L 76.01 91.14 L 76.00 90.58 L 76.00 90.03 L 76.00 89.47 L 75.99 88.92 L 75.90 88.45 L 75.65 88.14 L 75.21 88.02 L 74.67 88.00 L 74.12 88.00 L 73.59 88.04 Z M 77.21 65.21 L 77.04 65.60 L 77.02 66.14 L 77.08 66.67 L 77.28 67.16 L 77.59 67.60 L 77.85 68.06 L 77.92 68.56 L 77.78 69.05 L 77.48 69.49 L 77.10 69.90 L 76.69 70.30 L 76.27 70.65 L 75.80 70.90 L 75.30 71.07 L 74.83 71.29 L 74.40 71.62 L 73.99 72.01 L 73.59 72.41 L 73.18 72.82 L 72.78 73.22 L 72.37 73.59 L 71.91 73.86 L 71.39 73.98 L 70.85 74.02 L 70.39 74.13 L 70.11 74.42 L 70.02 74.89 L 70.04 75.41 L 70.22 75.80 L 70.62 75.96 L 71.16 76.00 L 71.72 76.00 L 72.28 75.98 L 72.81 75.88 L 73.29 75.65 L 73.73 75.34 L 74.20 75.13 L 74.70 75.11 L 75.17 75.29 L 75.57 75.63 L 75.86 76.08 L 75.98 76.60 L 76.00 77.16 L 76.00 77.72 L 76.00 78.29 L 76.00 78.86 L 75.97 79.42 L 75.85 79.94 L 75.59 80.40 L 75.28 80.84 L 75.11 81.30 L 75.18 81.70 L 75.50 81.90 L 75.95 81.84 L 76.39 81.57 L 76.80 81.19 L 77.21 80.79 L 77.61 80.39 L 78.01 79.99 L 78.42 79.60 L 78.85 79.28 L 79.33 79.10 L 79.83 79.13 L 80.30 79.36 L 80.74 79.66 L 81.21 79.88 L 81.71 79.89 L 82.18 79.70 L 82.58 79.35 L 82.87 78.91 L 83.04 78.41 L 83.23 77.93 L 83.55 77.50 L 83.97 77.19 L 84.44 77.00 L 84.81 76.78 L 84.97 76.36 L 85.00 75.83 L 85.00 75.26 L 84.98 74.70 L 84.88 74.17 L 84.63 73.70 L 84.27 73.28 L 83.88 72.88 L 83.50 72.47 L 83.20 72.02 L 83.05 71.52 L 82.99 70.98 L 82.91 70.48 L 82.68 70.14 L 82.27 69.93 L 81.82 69.70 L 81.42 69.35 L 81.14 68.91 L 81.02 68.39 L 81.00 67.83 L 81.00 67.26 L 81.00 66.69 L 81.00 66.12 L 80.96 65.59 L 80.78 65.20 L 80.38 65.04 L 79.84 65.00 L 79.28 65.00 L 78.71 65.00 L 78.14 65.00 L 77.61 65.04 Z M 68.20 46.21 L 68.04 46.61 L 68.00 47.14 L 68.00 47.71 L 68.03 48.25 L 68.16 48.69 L 68.49 48.94 L 68.94 49.13 L 69.38 49.42 L 69.79 49.80 L 70.19 50.20 L 70.57 50.61 L 70.86 51.05 L 71.05 51.50 L 71.28 51.82 L 71.62 51.85 L 71.88 51.60 L 71.98 51.14 L 71.97 50.59 L 71.86 50.08 L 71.58 49.62 L 71.20 49.21 L 70.81 48.80 L 70.43 48.39 L 70.14 47.94 L 69.97 47.44 L 69.79 46.95 L 69.47 46.53 L 69.05 46.22 L 68.58 46.09 Z" fill="rgb(95,94,89)" fill-rule="evenodd"/>
  <path d="M 63.19 121.19 L 63.03 121.54 L 63.01 122.02 L 63.03 122.52 L 63.15 122.98 L 63.41 123.37 L 63.77 123.69 L 64.20 123.90 L 64.67 123.98 L 65.17 123.99 L 65.66 123.94 L 66.10 123.77 L 66.48 123.48 L 66.77 123.10 L 66.91 122.68 L 66.86 122.30 L 66.59 122.07 L 66.18 121.91 L 65.77 121.70 L 65.38 121.40 L 64.98 121.15 L 64.52 121.03 L 64.02 121.01 L 63.54 121.03 Z M 68.06 115.14 L 67.63 115.42 L 67.30 115.81 L 67.09 116.27 L 67.02 116.78 L 67.03 117.30 L 67.16 117.71 L 67.49 117.93 L 67.98 117.99 L 68.50 118.04 L 68.99 118.17 L 69.43 118.44 L 69.85 118.73 L 70.30 118.90 L 70.69 118.84 L 70.92 118.53 L 70.98 118.05 L 70.97 117.53 L 70.84 117.03 L 70.58 116.59 L 70.28 116.17 L 70.06 115.73 L 69.87 115.33 L 69.55 115.09 L 69.08 115.02 L 68.56 115.03 Z" fill="rgb(153,153,151)" fill-rule="evenodd"/>
</svg>