<svg xmlns="http://www.w3.org/2000/svg" width="90" height="160" viewBox="0 0 90 160" role="img" aria-label="21_icons_21">
  <title>21_icons_21</title>
  <path d="M 45.29 3.56 L 44.59 4.22 L 43.89 5.18 L 43.31 6.25 L 43.01 7.44 L 42.76 8.66 L 42.34 9.80 L 41.82 10.91 L 41.26 11.99 L 40.70 13.08 L 40.14 14.16 L 39.63 15.27 L 39.19 16.40 L 38.78 17.55 L 38.22 18.64 L 37.54 19.67 L 36.89 20.72 L 36.19 21.75 L 35.53 22.79 L 35.05 23.91 L 34.64 25.06 L 34.13 26.17 L 33.60 27.26 L 33.04 28.35 L 32.41 29.40 L 31.73 30.44 L 31.19 31.54 L 30.79 32.69 L 30.34 33.82 L 29.78 34.90 L 29.08 35.93 L 28.41 36.97 L 27.97 38.10 L 27.56 39.25 L 27.03 40.35 L 26.40 41.41 L 25.70 42.43 L 25.04 43.48 L 24.48 44.56 L 23.94 45.66 L 23.39 46.75 L 22.85 47.84 L 22.29 48.93 L 21.74 50.02 L 21.17 51.10 L 20.63 52.19 L 20.09 53.28 L 19.55 54.38 L 19.01 55.47 L 18.47 56.57 L 17.93 57.66 L 17.39 58.75 L 16.81 59.83 L 16.12 60.86 L 15.41 61.89 L 14.82 62.96 L 14.30 64.06 L 13.89 65.21 L 13.40 66.32 L 12.74 67.37 L 12.08 68.41 L 11.55 69.51 L 11.17 70.67 L 10.92 71.89 L 10.55 73.05 L 9.90 74.10 L 9.21 75.13 L 8.65 76.21 L 8.20 77.35 L 7.80 78.50 L 7.25 79.59 L 6.58 80.62 L 5.95 81.68 L 5.39 82.77 L 4.81 83.84 L 4.11 84.87 L 3.47 85.92 L 3.15 87.08 L 3.22 88.29 L 3.68 89.40 L 4.43 90.41 L 5.25 91.36 L 6.02 92.25 L 6.78 93.05 L 7.51 93.89 L 8.14 94.89 L 8.72 95.95 L 9.33 97.02 L 10.08 98.02 L 10.92 98.99 L 11.62 100.02 L 12.07 101.15 L 12.56 102.26 L 13.23 103.31 L 13.90 104.35 L 14.47 105.43 L 15.01 106.52 L 15.55 107.61 L 16.09 108.71 L 16.65 109.76 L 17.30 110.66 L 18.15 111.39 L 19.06 112.19 L 19.83 113.15 L 20.52 114.11 L 21.36 114.91 L 22.25 115.66 L 22.97 116.57 L 23.55 117.62 L 24.09 118.71 L 24.63 119.81 L 25.21 120.88 L 25.92 121.91 L 26.63 122.93 L 27.24 123.98 L 27.87 124.98 L 28.54 125.84 L 29.29 126.65 L 29.97 127.57 L 30.55 128.63 L 31.09 129.72 L 31.64 130.81 L 32.22 131.89 L 32.96 132.90 L 33.81 133.87 L 34.51 134.89 L 34.91 136.04 L 35.18 137.25 L 35.65 138.37 L 36.40 139.38 L 37.22 140.36 L 37.93 141.38 L 38.60 142.42 L 39.31 143.44 L 39.96 144.49 L 40.53 145.57 L 41.06 146.67 L 41.57 147.78 L 41.98 148.92 L 42.43 150.05 L 43.14 151.08 L 43.98 152.05 L 44.66 153.08 L 45.09 154.22 L 45.49 155.37 L 46.03 156.47 L 46.71 157.48 L 47.59 158.29 L 48.67 158.73 L 49.75 158.62 L 50.57 157.93 L 51.06 156.87 L 51.54 155.76 L 52.18 154.71 L 52.76 153.63 L 53.20 152.50 L 53.78 151.42 L 54.59 150.44 L 55.48 149.49 L 56.30 148.51 L 56.97 147.47 L 57.50 146.37 L 57.84 145.20 L 58.01 143.95 L 58.20 142.71 L 58.68 141.59 L 59.43 140.59 L 60.24 139.61 L 60.93 138.57 L 61.50 137.49 L 62.04 136.40 L 62.59 135.31 L 63.16 134.23 L 63.90 133.25 L 64.80 132.44 L 65.67 131.72 L 66.38 130.84 L 67.11 129.86 L 67.81 128.83 L 68.36 127.74 L 68.77 126.60 L 69.01 125.38 L 69.32 124.19 L 69.91 123.12 L 70.56 122.07 L 71.03 120.95 L 71.50 119.82 L 72.17 118.78 L 72.85 117.75 L 73.43 116.67 L 73.97 115.58 L 74.51 114.48 L 75.05 113.39 L 75.59 112.29 L 76.13 111.20 L 76.68 110.11 L 77.23 109.02 L 77.80 107.94 L 78.35 106.85 L 78.89 105.76 L 79.43 104.66 L 79.97 103.57 L 80.51 102.48 L 81.08 101.40 L 81.75 100.35 L 82.45 99.33 L 83.07 98.27 L 83.64 97.18 L 84.21 96.11 L 84.92 95.08 L 85.64 94.06 L 86.25 92.99 L 86.83 91.92 L 87.44 90.85 L 88.12 89.82 L 88.69 88.74 L 88.95 87.53 L 89.00 86.23 L 89.00 84.91 L 88.95 83.62 L 88.72 82.39 L 88.19 81.30 L 87.55 80.25 L 87.06 79.13 L 86.58 78.08 L 85.79 77.39 L 84.84 77.33 L 83.97 77.82 L 83.10 78.44 L 82.06 78.74 L 81.05 78.50 L 80.49 77.76 L 80.63 76.84 L 81.16 76.05 L 81.37 75.46 L 80.85 75.01 L 79.99 74.49 L 79.46 73.68 L 79.45 72.68 L 79.50 71.83 L 79.06 71.47 L 78.16 71.58 L 77.16 71.53 L 76.38 70.91 L 75.85 70.00 L 75.17 69.31 L 74.16 68.96 L 73.09 68.56 L 72.35 67.76 L 72.01 66.62 L 71.73 65.42 L 71.20 64.33 L 70.50 63.35 L 69.78 62.62 L 68.90 62.47 L 67.85 62.77 L 66.70 63.12 L 65.55 63.44 L 64.49 63.55 L 63.66 63.10 L 63.26 62.15 L 63.42 61.04 L 64.01 59.99 L 64.59 58.96 L 64.69 57.94 L 64.26 57.05 L 63.61 56.19 L 63.10 55.17 L 62.64 54.06 L 61.93 53.07 L 60.99 52.28 L 60.04 51.61 L 59.49 50.79 L 59.66 49.90 L 60.47 49.24 L 61.53 48.76 L 62.38 48.09 L 62.74 47.08 L 62.54 45.98 L 61.88 44.95 L 61.06 43.98 L 60.50 42.99 L 60.56 42.01 L 61.26 41.28 L 62.20 40.76 L 62.99 40.09 L 63.56 39.14 L 63.85 37.98 L 63.82 36.76 L 63.52 35.58 L 63.14 34.42 L 62.73 33.28 L 62.10 32.22 L 61.28 31.24 L 60.51 30.24 L 59.89 29.18 L 59.31 28.10 L 58.72 27.03 L 58.02 26.01 L 57.36 24.96 L 56.91 23.83 L 56.43 22.71 L 55.76 21.67 L 55.07 20.64 L 54.41 19.60 L 53.70 18.57 L 53.05 17.53 L 52.48 16.44 L 51.94 15.35 L 51.40 14.26 L 50.86 13.16 L 50.30 12.08 L 49.76 10.98 L 49.26 9.87 L 48.88 8.71 L 48.48 7.56 L 47.98 6.45 L 47.43 5.36 L 46.85 4.33 L 46.10 3.61 Z M 45.13 145.05 L 45.37 144.67 L 45.70 144.34 L 46.09 144.12 L 46.54 144.02 L 47.01 144.00 L 47.49 144.02 L 47.94 144.12 L 48.32 144.36 L 48.65 144.69 L 48.88 145.08 L 48.96 145.51 L 48.87 145.95 L 48.63 146.33 L 48.30 146.66 L 47.91 146.88 L 47.46 146.98 L 46.99 147.00 L 46.51 146.98 L 46.06 146.88 L 45.68 146.64 L 45.35 146.31 L 45.12 145.92 L 45.04 145.49 Z" fill="rgb(247,27,26)" fill-rule="evenodd"/>
  <path d="M 69.21 57.20 L 69.11 57.53 L 69.30 57.85 L 69.70 58.06 L 70.16 58.28 L 70.57 58.62 L 70.85 59.06 L 70.97 59.58 L 71.00 60.14 L 71.00 60.71 L 71.00 61.28 L 71.00 61.84 L 71.03 62.38 L 71.20 62.79 L 71.57 63.01 L 72.04 63.20 L 72.48 63.51 L 72.89 63.89 L 73.29 64.30 L 73.64 64.72 L 73.87 65.18 L 73.90 65.68 L 73.72 66.16 L 73.41 66.60 L 73.16 67.05 L 73.10 67.50 L 73.31 67.84 L 73.74 67.97 L 74.28 68.00 L 74.84 68.00 L 75.40 68.02 L 75.92 68.14 L 76.37 68.43 L 76.71 68.83 L 76.91 69.31 L 76.99 69.85 L 77.03 70.38 L 77.20 70.77 L 77.57 70.91 L 78.04 70.79 L 78.49 70.51 L 78.93 70.22 L 79.40 70.02 L 79.78 69.81 L 79.91 69.43 L 79.79 68.96 L 79.51 68.51 L 79.22 68.06 L 79.03 67.57 L 78.87 67.07 L 78.59 66.62 L 78.29 66.17 L 78.09 65.69 L 78.01 65.15 L 77.98 64.60 L 77.86 64.08 L 77.58 63.62 L 77.20 63.21 L 76.81 62.80 L 76.43 62.39 L 76.15 61.94 L 76.02 61.42 L 75.99 60.87 L 75.92 60.33 L 75.72 59.84 L 75.38 59.43 L 74.94 59.14 L 74.44 58.97 L 73.95 58.79 L 73.50 58.50 L 73.05 58.21 L 72.55 58.05 L 72.00 58.00 L 71.45 57.95 L 70.95 57.79 L 70.50 57.50 L 70.05 57.22 L 69.58 57.09 Z M 64.20 41.22 L 64.04 41.61 L 64.00 42.15 L 64.00 42.72 L 64.00 43.29 L 64.00 43.87 L 64.00 44.44 L 64.00 45.01 L 64.00 45.58 L 64.00 46.16 L 64.00 46.73 L 63.98 47.30 L 63.88 47.83 L 63.63 48.30 L 63.27 48.72 L 62.87 49.13 L 62.46 49.51 L 62.01 49.81 L 61.50 49.96 L 60.95 50.01 L 60.47 50.10 L 60.17 50.33 L 60.17 50.66 L 60.45 50.92 L 60.89 51.12 L 61.34 51.39 L 61.76 51.76 L 62.16 52.16 L 62.57 52.57 L 62.97 52.97 L 63.38 53.37 L 63.82 53.70 L 64.31 53.91 L 64.85 53.99 L 65.41 54.00 L 65.98 53.99 L 66.54 53.95 L 67.05 53.79 L 67.50 53.50 L 67.95 53.21 L 68.45 53.03 L 68.95 52.85 L 69.39 52.56 L 69.73 52.14 L 69.92 51.65 L 69.98 51.11 L 69.97 50.55 L 69.83 50.03 L 69.55 49.58 L 69.16 49.16 L 68.76 48.76 L 68.39 48.34 L 68.12 47.88 L 67.95 47.37 L 67.75 46.89 L 67.45 46.44 L 67.17 45.98 L 67.04 45.46 L 66.99 44.91 L 66.92 44.36 L 66.73 43.87 L 66.41 43.43 L 66.02 43.02 L 65.63 42.61 L 65.29 42.17 L 65.06 41.71 L 64.85 41.31 L 64.53 41.12 Z" fill="rgb(249,83,82)" fill-rule="evenodd"/>
</svg>