<svg xmlns="http://www.w3.org/2000/svg" width="138" height="141" viewBox="0 0 138 141" role="img" aria-label="22_icons_22">
  <title>22_icons_22</title>
  <path d="M 64.12 3.30 L 61.39 3.94 L 58.42 4.03 L 55.91 4.76 L 55.39 7.06 L 55.95 9.79 L 56.00 12.77 L 56.11 15.73 L 56.75 18.47 L 57.00 21.37 L 57.00 24.37 L 56.80 27.28 L 56.48 29.89 L 57.40 32.39 L 57.96 35.15 L 58.01 38.14 L 58.34 41.00 L 58.95 43.75 L 58.96 46.72 L 58.17 49.13 L 55.94 49.29 L 53.30 48.62 L 51.71 46.79 L 50.29 44.79 L 48.87 42.80 L 46.69 41.10 L 44.41 39.36 L 42.27 37.27 L 40.35 35.08 L 38.56 33.07 L 36.24 31.50 L 33.92 29.86 L 31.78 27.78 L 29.60 25.79 L 27.28 24.12 L 25.12 22.11 L 23.13 20.08 L 21.00 19.24 L 18.75 20.54 L 16.99 22.60 L 15.06 24.39 L 13.13 26.02 L 11.26 27.69 L 9.94 30.11 L 8.42 32.33 L 6.60 34.21 L 4.89 36.40 L 5.07 38.43 L 7.21 39.76 L 8.98 41.81 L 11.21 43.51 L 13.42 45.43 L 15.55 47.55 L 17.67 49.67 L 19.79 51.79 L 21.94 53.85 L 24.34 55.22 L 26.24 56.98 L 28.22 59.03 L 30.72 60.25 L 33.17 61.52 L 35.12 63.36 L 37.16 65.07 L 39.47 66.71 L 41.66 68.66 L 43.78 70.79 L 45.51 73.03 L 45.09 75.33 L 42.89 76.85 L 40.50 78.32 L 38.16 79.91 L 35.76 81.37 L 33.27 82.62 L 30.87 84.07 L 28.53 85.66 L 26.15 87.17 L 23.78 88.69 L 21.27 89.88 L 19.00 91.45 L 17.16 93.34 L 14.90 94.85 L 12.51 96.32 L 10.09 97.74 L 7.73 99.29 L 5.37 100.82 L 3.43 102.34 L 3.92 104.78 L 5.44 107.14 L 7.22 109.41 L 8.84 111.74 L 10.30 114.14 L 11.84 116.34 L 13.94 118.09 L 15.64 120.31 L 17.76 121.48 L 20.17 120.51 L 22.45 118.76 L 24.78 117.13 L 27.18 115.67 L 29.60 114.26 L 32.06 112.97 L 34.45 111.49 L 36.61 109.45 L 39.02 108.02 L 41.57 106.91 L 43.85 105.18 L 46.17 103.53 L 48.39 101.65 L 50.76 100.12 L 53.19 98.73 L 55.39 96.90 L 57.39 97.09 L 57.89 99.63 L 57.27 102.35 L 56.95 105.22 L 56.34 107.97 L 55.72 110.72 L 55.07 113.45 L 55.00 116.43 L 55.00 119.43 L 54.98 122.42 L 54.58 125.26 L 54.04 128.04 L 53.69 130.90 L 52.98 133.61 L 52.30 136.30 L 52.69 138.52 L 55.21 138.99 L 58.21 139.00 L 61.21 139.00 L 64.22 139.00 L 67.22 139.00 L 70.20 138.95 L 72.94 138.39 L 75.59 138.52 L 78.24 138.56 L 81.01 138.04 L 83.98 137.99 L 86.45 137.46 L 86.99 135.00 L 87.00 132.00 L 86.96 129.02 L 86.42 126.24 L 86.02 123.40 L 85.97 120.41 L 85.53 117.60 L 84.99 114.82 L 84.36 112.07 L 84.01 109.22 L 84.00 106.22 L 83.89 103.26 L 83.27 100.53 L 83.62 98.07 L 85.42 98.00 L 87.17 100.00 L 89.44 101.68 L 91.73 103.42 L 94.14 104.83 L 96.62 106.10 L 98.97 107.69 L 101.35 109.17 L 103.82 110.35 L 105.78 111.97 L 107.84 113.86 L 109.97 115.97 L 112.10 118.07 L 114.35 119.88 L 116.81 121.19 L 119.21 122.63 L 121.80 122.54 L 123.27 120.49 L 125.10 118.62 L 127.27 116.69 L 129.04 114.43 L 130.85 112.17 L 132.91 110.03 L 134.59 107.84 L 135.97 105.78 L 136.80 103.21 L 136.65 100.48 L 134.67 99.06 L 132.11 98.01 L 129.74 96.48 L 127.36 94.98 L 124.92 93.62 L 122.58 92.04 L 120.29 90.31 L 117.96 88.68 L 115.53 87.29 L 112.87 86.47 L 110.48 84.99 L 108.11 83.48 L 105.77 82.22 L 103.86 80.47 L 101.27 79.65 L 98.96 77.97 L 96.73 76.12 L 94.76 74.31 L 95.20 72.25 L 97.46 70.71 L 99.88 69.31 L 102.44 68.25 L 105.12 67.47 L 107.60 66.24 L 109.91 65.25 L 111.74 63.60 L 113.14 61.41 L 115.26 59.92 L 117.79 58.81 L 120.06 57.02 L 122.39 55.39 L 124.75 53.87 L 127.02 52.08 L 129.48 50.77 L 131.91 49.38 L 134.34 48.03 L 136.29 46.23 L 135.85 43.94 L 134.27 41.62 L 132.99 39.14 L 131.04 36.95 L 129.40 34.62 L 128.08 32.17 L 126.68 29.75 L 124.73 27.59 L 122.71 26.24 L 120.23 26.92 L 117.85 28.42 L 115.50 30.00 L 113.24 31.79 L 111.02 33.68 L 108.65 35.22 L 106.24 36.63 L 103.84 38.09 L 101.51 39.72 L 99.28 41.49 L 97.34 43.14 L 94.87 44.01 L 92.54 45.07 L 91.20 47.25 L 89.66 48.98 L 90.29 50.85 L 89.73 52.68 L 87.76 54.05 L 85.51 55.41 L 83.08 55.39 L 82.06 53.12 L 82.12 50.20 L 82.78 47.47 L 83.47 44.75 L 84.55 42.20 L 85.23 39.47 L 85.90 36.75 L 86.36 33.94 L 86.95 31.18 L 86.89 28.24 L 86.19 25.53 L 84.94 23.05 L 83.57 20.82 L 84.76 19.50 L 86.99 19.30 L 88.25 17.18 L 88.94 14.47 L 89.00 11.49 L 89.06 8.51 L 89.64 5.86 L 89.29 4.83 L 88.53 6.83 L 86.62 8.35 L 84.76 10.17 L 82.54 11.44 L 80.67 10.14 L 81.22 7.85 L 82.63 5.51 L 81.76 3.43 L 79.01 3.01 L 76.01 3.00 L 73.01 3.00 L 70.01 3.00 L 67.00 3.00 Z M 12.13 37.05 L 12.37 36.67 L 12.70 36.34 L 13.09 36.12 L 13.54 36.02 L 14.01 36.00 L 14.49 36.02 L 14.94 36.12 L 15.32 36.36 L 15.65 36.69 L 15.88 37.08 L 15.96 37.51 L 15.87 37.95 L 15.63 38.33 L 15.30 38.66 L 14.91 38.88 L 14.46 38.98 L 13.99 39.00 L 13.51 38.98 L 13.06 38.88 L 12.68 38.64 L 12.35 38.31 L 12.12 37.92 L 12.04 37.49 Z" fill="rgb(21,20,20)" fill-rule="evenodd"/>
  <path d="M 85.19 5.21 L 84.98 5.57 L 84.80 6.04 L 84.49 6.45 L 84.08 6.77 L 83.60 6.96 L 83.11 7.12 L 82.67 7.39 L 82.32 7.78 L 82.10 8.25 L 82.02 8.77 L 82.03 9.29 L 82.17 9.71 L 82.51 9.93 L 83.01 9.98 L 83.54 9.95 L 84.03 9.80 L 84.45 9.49 L 84.77 9.08 L 84.96 8.60 L 85.12 8.11 L 85.38 7.66 L 85.68 7.22 L 85.90 6.75 L 85.98 6.23 L 85.97 5.71 L 85.83 5.29 L 85.52 5.11 Z M 67.18 0.18 L 67.03 0.53 L 67.00 1.00 L 67.03 1.47 L 67.18 1.82 L 67.53 1.97 L 68.00 2.00 L 68.50 2.00 L 69.00 2.00 L 69.50 2.00 L 70.00 2.00 L 70.50 2.00 L 71.00 2.00 L 71.50 2.00 L 72.00 2.00 L 72.47 1.97 L 72.82 1.82 L 72.97 1.47 L 73.00 1.00 L 72.97 0.53 L 72.82 0.18 L 72.47 0.03 L 72.00 0.00 L 71.50 0.00 L 71.00 0.00 L 70.50 0.00 L 70.00 0.00 L 69.50 0.00 L 69.00 0.00 L 68.50 0.00 L 68.00 0.00 L 67.53 0.03 Z" fill="rgb(86,87,86)" fill-rule="evenodd"/>
  <path d="M 50.18 123.18 L 50.03 123.53 L 50.00 124.00 L 50.00 124.50 L 50.00 125.00 L 50.03 125.47 L 50.18 125.82 L 50.53 125.97 L 51.00 126.00 L 51.50 126.00 L 52.00 126.00 L 52.47 125.97 L 52.82 125.82 L 52.97 125.47 L 53.00 125.00 L 53.00 124.50 L 53.00 124.00 L 52.97 123.53 L 52.82 123.18 L 52.47 123.03 L 52.00 123.00 L 51.50 123.00 L 51.00 123.00 L 50.53 123.03 Z M 55.05 99.15 L 54.62 99.41 L 54.22 99.78 L 53.83 100.16 L 53.44 100.53 L 53.01 100.82 L 52.53 100.99 L 52.04 101.14 L 51.60 101.41 L 51.18 101.71 L 50.74 101.93 L 50.34 102.12 L 50.12 102.41 L 50.18 102.75 L 50.50 102.96 L 50.95 103.13 L 51.37 103.42 L 51.70 103.81 L 51.91 104.27 L 51.99 104.78 L 52.03 105.30 L 52.16 105.72 L 52.50 105.93 L 52.99 105.99 L 53.53 106.00 L 54.06 105.99 L 54.54 105.91 L 54.85 105.68 L 54.98 105.25 L 55.02 104.73 L 55.10 104.22 L 55.32 103.76 L 55.62 103.34 L 55.87 102.89 L 55.98 102.39 L 56.00 101.84 L 56.00 101.30 L 56.00 100.75 L 56.00 100.20 L 55.97 99.68 L 55.83 99.27 L 55.50 99.09 Z M 52.19 23.19 L 52.03 23.54 L 52.00 24.02 L 52.00 24.53 L 52.00 25.04 L 52.00 25.55 L 52.00 26.06 L 52.00 26.57 L 52.01 27.08 L 52.04 27.57 L 52.18 28.02 L 52.44 28.43 L 52.72 28.82 L 52.91 29.25 L 52.99 29.73 L 53.02 30.22 L 53.11 30.64 L 53.36 30.89 L 53.78 30.98 L 54.25 30.98 L 54.66 30.88 L 54.90 30.61 L 54.98 30.18 L 55.00 29.69 L 55.00 29.18 L 55.00 28.67 L 55.00 28.16 L 55.00 27.65 L 55.00 27.14 L 55.00 26.63 L 55.00 26.12 L 55.00 25.61 L 55.00 25.10 L 55.00 24.59 L 55.00 24.08 L 54.97 23.60 L 54.83 23.23 L 54.50 23.05 L 54.03 23.01 L 53.53 23.00 L 53.02 23.00 L 52.54 23.03 Z" fill="rgb(251,251,251)" fill-rule="evenodd"/>
</svg>