<svg xmlns="http://www.w3.org/2000/svg" width="130" height="144" viewBox="0 0 130 144" role="img" aria-label="23_icons_23">
  <title>23_icons_23</title>
  <path d="M 67.27 3.41 L 66.48 5.41 L 66.33 7.93 L 65.91 10.73 L 65.25 13.46 L 64.99 16.35 L 64.60 19.19 L 64.00 21.95 L 63.43 24.72 L 63.05 27.54 L 63.44 30.35 L 63.62 33.01 L 63.05 35.74 L 63.00 38.72 L 62.73 41.61 L 62.09 44.35 L 61.80 47.23 L 61.16 49.97 L 60.84 52.82 L 59.45 54.42 L 57.24 53.20 L 55.09 51.15 L 52.78 49.48 L 50.57 47.57 L 48.45 45.45 L 46.33 43.32 L 44.41 41.11 L 42.73 38.83 L 40.41 37.26 L 37.78 36.38 L 35.69 34.50 L 33.83 32.65 L 31.70 30.70 L 29.57 28.61 L 27.26 26.97 L 24.84 26.65 L 22.63 28.38 L 20.68 30.57 L 19.01 32.85 L 17.10 34.69 L 15.27 36.76 L 13.75 39.13 L 12.70 41.70 L 11.05 44.01 L 9.43 46.34 L 8.35 48.78 L 9.53 50.67 L 12.25 51.24 L 14.65 52.69 L 16.87 54.57 L 19.23 56.14 L 21.55 57.77 L 23.55 59.76 L 25.48 61.46 L 27.84 62.92 L 30.19 64.50 L 32.42 66.38 L 34.70 68.10 L 36.94 69.95 L 39.23 71.68 L 41.64 72.94 L 42.32 75.00 L 40.35 76.51 L 37.78 77.56 L 35.38 79.01 L 32.91 80.28 L 30.40 81.48 L 27.69 82.18 L 25.02 83.00 L 22.46 84.07 L 20.17 85.79 L 17.79 87.29 L 15.19 88.26 L 12.57 89.18 L 9.99 90.20 L 7.41 91.22 L 4.86 92.32 L 2.38 93.52 L 0.77 94.48 L 2.22 95.59 L 4.05 97.61 L 5.57 99.98 L 6.72 102.50 L 7.87 105.03 L 8.83 107.63 L 10.40 109.78 L 12.05 111.75 L 13.35 114.18 L 14.90 116.28 L 17.27 116.37 L 19.67 114.96 L 22.11 113.60 L 24.46 112.02 L 26.85 110.55 L 29.60 109.94 L 32.25 109.09 L 34.75 107.88 L 37.18 106.50 L 39.48 104.80 L 42.10 103.87 L 44.68 102.86 L 46.95 101.09 L 49.34 99.63 L 51.79 99.50 L 52.45 101.51 L 51.98 104.26 L 51.34 107.00 L 50.97 109.85 L 50.40 112.61 L 49.18 115.11 L 48.21 117.71 L 47.75 120.52 L 47.10 123.26 L 46.82 126.14 L 46.18 128.88 L 45.89 131.77 L 45.23 134.49 L 44.45 137.17 L 43.65 139.34 L 45.31 140.69 L 48.02 141.34 L 50.73 141.85 L 53.37 141.46 L 55.98 141.89 L 58.70 142.56 L 61.53 142.98 L 64.53 143.00 L 67.53 143.00 L 70.49 142.96 L 72.61 142.08 L 73.06 139.48 L 73.71 136.75 L 74.04 133.89 L 74.62 131.13 L 75.08 128.31 L 75.54 125.66 L 75.28 123.09 L 75.77 120.42 L 76.00 117.51 L 76.00 114.51 L 76.00 111.51 L 76.02 108.51 L 76.44 105.68 L 77.16 103.01 L 78.69 101.58 L 80.91 102.87 L 83.22 104.52 L 85.43 106.44 L 87.37 108.63 L 89.17 110.61 L 91.61 111.86 L 93.58 113.90 L 94.96 116.33 L 96.67 118.62 L 98.89 120.45 L 101.50 121.31 L 103.43 123.01 L 105.50 124.76 L 107.37 126.48 L 109.61 126.09 L 111.35 123.95 L 113.26 121.74 L 115.38 119.62 L 117.54 117.65 L 119.29 115.75 L 120.78 113.43 L 122.54 111.16 L 124.19 108.84 L 125.44 106.57 L 124.24 104.34 L 121.95 102.68 L 119.63 101.06 L 117.54 99.26 L 115.67 97.43 L 113.49 95.54 L 111.19 93.84 L 108.96 91.97 L 106.64 90.32 L 103.97 89.50 L 101.71 87.71 L 99.53 85.75 L 97.21 84.08 L 94.99 82.25 L 93.59 80.49 L 95.06 78.83 L 97.60 77.78 L 100.11 76.59 L 102.57 75.26 L 105.28 74.57 L 107.93 73.72 L 110.55 72.79 L 113.12 71.74 L 115.71 70.75 L 118.24 69.62 L 120.76 68.44 L 123.37 67.51 L 125.92 66.40 L 128.29 65.54 L 128.88 63.26 L 128.20 60.57 L 127.28 57.95 L 126.38 55.32 L 125.15 52.82 L 124.09 50.26 L 122.88 47.76 L 121.92 45.15 L 120.95 42.60 L 118.99 41.49 L 116.46 42.25 L 114.01 43.58 L 111.40 44.54 L 108.77 45.43 L 106.26 46.62 L 103.85 48.05 L 101.35 49.27 L 98.91 50.64 L 96.32 51.62 L 93.83 52.85 L 91.33 54.08 L 88.83 55.28 L 86.32 55.56 L 85.10 53.50 L 85.43 50.71 L 86.11 47.99 L 86.88 45.30 L 87.77 42.67 L 88.65 40.03 L 89.03 37.18 L 89.59 34.42 L 90.53 31.92 L 90.46 29.42 L 90.90 26.78 L 91.36 23.96 L 92.22 21.32 L 92.94 18.61 L 93.40 15.80 L 94.00 13.05 L 94.57 10.28 L 94.87 7.56 L 93.39 6.03 L 90.75 5.28 L 88.00 4.67 L 85.27 4.02 L 82.48 3.49 L 79.69 3.09 L 76.98 3.63 L 74.32 3.44 L 71.49 3.02 L 68.54 3.07 Z M 48.15 138.06 L 48.43 137.62 L 48.84 137.28 L 49.33 137.08 L 49.87 137.01 L 50.43 137.00 L 51.00 137.01 L 51.55 137.05 L 52.05 137.22 L 52.47 137.53 L 52.78 137.95 L 52.92 138.44 L 52.85 138.94 L 52.57 139.38 L 52.16 139.72 L 51.67 139.92 L 51.13 139.99 L 50.57 140.00 L 50.00 139.99 L 49.45 139.95 L 48.95 139.78 L 48.53 139.47 L 48.22 139.05 L 48.08 138.56 Z M 11.13 47.05 L 11.37 46.67 L 11.70 46.34 L 12.09 46.12 L 12.54 46.02 L 13.01 46.00 L 13.49 46.02 L 13.94 46.12 L 14.32 46.36 L 14.65 46.69 L 14.88 47.08 L 14.96 47.51 L 14.87 47.95 L 14.63 48.33 L 14.30 48.66 L 13.91 48.88 L 13.46 48.98 L 12.99 49.00 L 12.51 48.98 L 12.06 48.88 L 11.68 48.64 L 11.35 48.31 L 11.12 47.92 L 11.04 47.49 Z" fill="rgb(242,20,18)" fill-rule="evenodd"/>
  <path d="M 44.18 117.18 L 44.03 117.53 L 44.00 118.00 L 44.00 118.50 L 44.00 119.00 L 44.03 119.47 L 44.18 119.82 L 44.53 119.97 L 45.00 120.00 L 45.50 120.00 L 46.00 120.00 L 46.47 119.97 L 46.82 119.82 L 46.97 119.47 L 47.00 119.00 L 47.00 118.50 L 47.00 118.00 L 46.97 117.53 L 46.82 117.18 L 46.47 117.03 L 46.00 117.00 L 45.50 117.00 L 45.00 117.00 L 44.53 117.03 Z" fill="rgb(253,251,252)" fill-rule="evenodd"/>
</svg>