<svg xmlns="http://www.w3.org/2000/svg" width="51" height="74" viewBox="0 0 51 74" role="img" aria-label="24_icons_24">
  <title>24_icons_24</title>
  <path d="M 23.06 3.15 L 22.58 3.43 L 22.11 3.74 L 21.60 3.95 L 21.08 4.14 L 20.60 4.42 L 20.13 4.73 L 19.62 4.95 L 19.10 5.13 L 18.62 5.41 L 18.15 5.72 L 17.63 5.92 L 17.07 5.99 L 16.49 6.05 L 15.96 6.22 L 15.50 6.53 L 15.07 6.93 L 14.64 7.34 L 14.19 7.69 L 13.69 7.93 L 13.16 8.11 L 12.68 8.38 L 12.21 8.69 L 11.71 8.92 L 11.19 9.11 L 10.70 9.38 L 10.26 9.75 L 9.83 10.17 L 9.40 10.56 L 8.92 10.86 L 8.40 11.05 L 7.89 11.26 L 7.42 11.57 L 6.94 11.86 L 6.42 12.04 L 5.91 12.25 L 5.45 12.58 L 5.02 12.98 L 4.60 13.40 L 4.17 13.83 L 3.76 14.25 L 3.38 14.69 L 3.13 15.18 L 3.02 15.74 L 3.03 16.32 L 3.14 16.87 L 3.41 17.35 L 3.80 17.79 L 4.21 18.22 L 4.59 18.66 L 4.88 19.14 L 5.06 19.66 L 5.29 20.16 L 5.64 20.62 L 6.04 21.04 L 6.45 21.47 L 6.77 21.94 L 6.97 22.45 L 7.16 22.97 L 7.46 23.45 L 7.76 23.92 L 7.97 24.43 L 8.15 24.95 L 8.46 25.42 L 8.86 25.86 L 9.27 26.28 L 9.64 26.73 L 9.90 27.22 L 10.09 27.74 L 10.33 28.24 L 10.64 28.70 L 10.90 29.20 L 11.08 29.72 L 11.32 30.21 L 11.68 30.66 L 12.09 31.09 L 12.49 31.52 L 12.81 31.99 L 13.00 32.51 L 13.20 33.02 L 13.50 33.50 L 13.80 33.97 L 13.99 34.49 L 14.19 35.00 L 14.50 35.47 L 14.90 35.90 L 15.31 36.33 L 15.67 36.78 L 15.92 37.28 L 16.10 37.80 L 16.36 38.29 L 16.67 38.76 L 16.91 39.25 L 17.10 39.78 L 17.36 40.27 L 17.72 40.71 L 18.14 41.14 L 18.54 41.57 L 18.84 42.04 L 19.03 42.56 L 19.24 43.07 L 19.56 43.54 L 19.97 43.97 L 20.37 44.40 L 20.71 44.85 L 20.92 45.37 L 20.99 45.93 L 21.05 46.50 L 21.22 47.04 L 21.53 47.50 L 21.93 47.93 L 22.36 48.36 L 22.78 48.78 L 23.20 49.20 L 23.58 49.64 L 23.87 50.12 L 24.06 50.64 L 24.28 51.15 L 24.59 51.61 L 24.87 52.10 L 25.05 52.62 L 25.27 53.13 L 25.61 53.58 L 26.01 54.01 L 26.42 54.44 L 26.75 54.90 L 26.96 55.42 L 27.14 55.94 L 27.45 56.41 L 27.84 56.84 L 28.26 57.27 L 28.63 57.71 L 28.90 58.20 L 29.08 58.72 L 29.32 59.22 L 29.63 59.69 L 29.89 60.18 L 30.07 60.70 L 30.31 61.20 L 30.62 61.67 L 30.88 62.16 L 31.07 62.68 L 31.30 63.18 L 31.61 63.65 L 31.88 64.14 L 32.06 64.66 L 32.29 65.16 L 32.60 65.63 L 32.87 66.11 L 33.06 66.64 L 33.28 67.14 L 33.62 67.60 L 34.03 68.03 L 34.43 68.46 L 34.76 68.92 L 34.96 69.43 L 35.15 69.95 L 35.46 70.42 L 35.86 70.86 L 36.27 71.28 L 36.64 71.73 L 36.91 72.20 L 37.13 72.63 L 37.47 72.89 L 37.98 72.98 L 38.57 73.00 L 39.16 73.00 L 39.76 73.00 L 40.35 72.98 L 40.90 72.86 L 41.38 72.59 L 41.85 72.28 L 42.37 72.08 L 42.93 72.01 L 43.51 71.95 L 44.04 71.78 L 44.50 71.47 L 44.94 71.06 L 45.36 70.66 L 45.82 70.31 L 46.32 70.07 L 46.84 69.89 L 47.33 69.62 L 47.80 69.31 L 48.30 69.08 L 48.82 68.89 L 49.29 68.61 L 49.67 68.21 L 49.90 67.72 L 49.98 67.15 L 50.00 66.56 L 49.99 65.97 L 49.92 65.40 L 49.74 64.88 L 49.43 64.41 L 49.15 63.93 L 49.02 63.38 L 48.98 62.80 L 48.89 62.24 L 48.66 61.74 L 48.35 61.27 L 48.11 60.77 L 48.02 60.21 L 48.00 59.62 L 47.99 59.03 L 47.94 58.45 L 47.76 57.93 L 47.44 57.46 L 47.03 57.03 L 46.63 56.60 L 46.28 56.15 L 46.06 55.64 L 45.88 55.12 L 45.60 54.64 L 45.29 54.17 L 45.09 53.66 L 45.01 53.09 L 44.95 52.52 L 44.80 51.98 L 44.51 51.51 L 44.21 51.03 L 44.05 50.50 L 43.99 49.93 L 43.92 49.36 L 43.72 48.85 L 43.41 48.38 L 43.14 47.89 L 43.02 47.34 L 42.98 46.76 L 42.88 46.20 L 42.64 45.71 L 42.33 45.24 L 42.09 44.74 L 41.90 44.22 L 41.65 43.72 L 41.34 43.25 L 41.09 42.76 L 40.91 42.24 L 40.66 41.74 L 40.35 41.27 L 40.11 40.77 L 40.02 40.22 L 39.98 39.64 L 39.85 39.09 L 39.58 38.60 L 39.27 38.13 L 39.05 37.63 L 38.87 37.10 L 38.59 36.62 L 38.28 36.15 L 38.08 35.64 L 38.01 35.07 L 38.00 34.48 L 37.98 33.89 L 37.91 33.32 L 37.70 32.81 L 37.39 32.34 L 37.12 31.85 L 36.93 31.33 L 36.71 30.83 L 36.40 30.36 L 36.12 29.87 L 35.94 29.35 L 35.72 28.85 L 35.41 28.38 L 35.14 27.89 L 35.02 27.34 L 34.98 26.76 L 34.88 26.21 L 34.64 25.71 L 34.33 25.24 L 34.09 24.74 L 33.90 24.22 L 33.65 23.73 L 33.34 23.26 L 33.11 22.76 L 33.02 22.20 L 32.97 21.62 L 32.85 21.07 L 32.57 20.59 L 32.26 20.12 L 32.05 19.61 L 31.87 19.09 L 31.58 18.61 L 31.27 18.14 L 31.08 17.62 L 31.00 17.05 L 30.94 16.48 L 30.78 15.95 L 30.48 15.48 L 30.19 15.00 L 30.04 14.46 L 29.99 13.89 L 29.91 13.32 L 29.70 12.81 L 29.39 12.34 L 29.12 11.86 L 28.94 11.34 L 28.71 10.83 L 28.40 10.36 L 28.14 9.87 L 28.02 9.32 L 27.98 8.74 L 27.88 8.19 L 27.63 7.69 L 27.32 7.22 L 27.08 6.72 L 26.90 6.20 L 26.64 5.71 L 26.33 5.24 L 26.11 4.74 L 26.01 4.18 L 25.96 3.63 L 25.77 3.21 L 25.35 3.04 L 24.79 3.00 L 24.20 3.00 L 23.61 3.03 Z M 27.15 42.06 L 27.44 41.61 L 27.87 41.28 L 28.36 41.10 L 28.87 41.14 L 29.32 41.40 L 29.68 41.80 L 29.90 42.29 L 29.98 42.84 L 30.00 43.42 L 30.00 44.00 L 30.00 44.58 L 30.00 45.17 L 30.00 45.75 L 30.00 46.33 L 30.00 46.91 L 30.00 47.50 L 29.99 48.07 L 29.92 48.63 L 29.73 49.13 L 29.39 49.55 L 28.94 49.84 L 28.43 49.91 L 27.93 49.77 L 27.48 49.45 L 27.06 49.06 L 26.65 48.65 L 26.24 48.24 L 25.83 47.82 L 25.44 47.40 L 25.16 46.94 L 25.09 46.43 L 25.23 45.93 L 25.55 45.48 L 25.94 45.06 L 26.34 44.64 L 26.69 44.20 L 26.90 43.71 L 26.99 43.16 L 27.02 42.59 Z" fill="rgb(21,20,19)" fill-rule="evenodd"/>
</svg>