<svg xmlns="http://www.w3.org/2000/svg" width="77" height="35" viewBox="0 0 77 35" role="img" aria-label="25_icons_25">
  <title>25_icons_25</title>
  <path d="M 37.06 3.15 L 36.58 3.43 L 36.11 3.74 L 35.60 3.93 L 35.03 3.99 L 34.43 4.00 L 33.84 4.00 L 33.24 4.00 L 32.65 4.00 L 32.05 4.01 L 31.48 4.06 L 30.95 4.22 L 30.48 4.52 L 30.00 4.81 L 29.47 4.96 L 28.88 4.99 L 28.29 5.00 L 27.69 5.00 L 27.10 5.01 L 26.52 5.05 L 25.99 5.20 L 25.51 5.49 L 25.04 5.78 L 24.51 5.95 L 23.94 6.01 L 23.37 6.08 L 22.86 6.28 L 22.39 6.59 L 21.91 6.87 L 21.39 7.05 L 20.88 7.26 L 20.41 7.57 L 19.93 7.85 L 19.39 7.97 L 18.81 8.02 L 18.25 8.11 L 17.75 8.34 L 17.28 8.65 L 16.79 8.90 L 16.27 9.08 L 15.77 9.32 L 15.31 9.63 L 14.82 9.89 L 14.30 10.08 L 13.80 10.31 L 13.35 10.67 L 12.92 11.07 L 12.49 11.48 L 12.03 11.79 L 11.52 11.99 L 11.00 12.18 L 10.53 12.50 L 10.10 12.90 L 9.68 13.32 L 9.26 13.74 L 8.84 14.16 L 8.42 14.58 L 7.99 15.01 L 7.57 15.43 L 7.15 15.85 L 6.73 16.26 L 6.28 16.63 L 5.80 16.90 L 5.28 17.08 L 4.78 17.33 L 4.34 17.68 L 3.91 18.09 L 3.51 18.52 L 3.21 18.99 L 3.09 19.50 L 3.21 20.02 L 3.51 20.48 L 3.92 20.91 L 4.34 21.33 L 4.76 21.76 L 5.18 22.18 L 5.60 22.60 L 6.02 23.02 L 6.42 23.45 L 6.75 23.91 L 6.96 24.42 L 7.14 24.94 L 7.45 25.39 L 7.89 25.74 L 8.39 25.95 L 8.91 26.14 L 9.37 26.44 L 9.72 26.86 L 9.95 27.34 L 10.18 27.75 L 10.57 28.00 L 11.05 28.21 L 11.48 28.54 L 11.81 28.99 L 12.02 29.46 L 12.28 29.83 L 12.69 30.06 L 13.17 30.30 L 13.62 30.64 L 14.05 31.05 L 14.48 31.45 L 14.94 31.77 L 15.46 31.91 L 15.97 31.82 L 16.44 31.52 L 16.87 31.12 L 17.29 30.70 L 17.72 30.28 L 18.14 29.86 L 18.57 29.47 L 19.04 29.16 L 19.56 28.97 L 20.07 28.77 L 20.53 28.44 L 20.96 28.04 L 21.39 27.63 L 21.84 27.29 L 22.34 27.06 L 22.86 26.88 L 23.35 26.61 L 23.82 26.30 L 24.33 26.09 L 24.89 26.02 L 25.46 26.04 L 26.00 26.19 L 26.45 26.51 L 26.78 26.94 L 26.99 27.42 L 27.24 27.80 L 27.67 27.96 L 28.21 27.97 L 28.67 27.83 L 28.91 27.48 L 29.00 26.97 L 29.07 26.41 L 29.26 25.89 L 29.59 25.43 L 30.00 25.00 L 30.42 24.58 L 30.84 24.16 L 31.27 23.75 L 31.71 23.37 L 32.19 23.11 L 32.71 22.92 L 33.21 22.69 L 33.68 22.38 L 34.17 22.13 L 34.72 22.02 L 35.31 22.00 L 35.91 22.00 L 36.50 22.00 L 37.10 22.00 L 37.69 22.00 L 38.28 21.98 L 38.83 21.87 L 39.33 21.62 L 39.79 21.31 L 40.29 21.12 L 40.81 21.14 L 41.30 21.37 L 41.77 21.67 L 42.28 21.90 L 42.84 21.98 L 43.42 22.00 L 44.02 22.01 L 44.59 22.07 L 45.11 22.26 L 45.56 22.59 L 45.99 22.99 L 46.42 23.40 L 46.88 23.73 L 47.40 23.92 L 47.96 24.00 L 48.53 24.06 L 49.06 24.23 L 49.50 24.56 L 49.82 25.01 L 50.01 25.52 L 50.21 26.03 L 50.54 26.48 L 50.99 26.80 L 51.52 26.95 L 52.09 27.01 L 52.65 27.09 L 53.17 27.29 L 53.63 27.60 L 54.12 27.86 L 54.67 27.98 L 55.26 28.00 L 55.85 28.00 L 56.45 28.00 L 57.04 28.00 L 57.64 28.00 L 58.23 28.02 L 58.78 28.12 L 59.28 28.35 L 59.75 28.66 L 60.25 28.89 L 60.81 28.98 L 61.39 29.03 L 61.93 29.15 L 62.41 29.43 L 62.88 29.74 L 63.40 29.93 L 63.97 29.99 L 64.56 30.00 L 65.15 30.02 L 65.71 30.10 L 66.21 30.33 L 66.61 30.70 L 66.89 31.16 L 67.11 31.60 L 67.43 31.86 L 67.88 31.85 L 68.34 31.59 L 68.78 31.21 L 69.20 30.79 L 69.59 30.36 L 69.86 29.87 L 69.98 29.33 L 70.02 28.75 L 70.12 28.19 L 70.38 27.70 L 70.75 27.26 L 71.16 26.84 L 71.58 26.42 L 72.00 25.99 L 72.41 25.57 L 72.74 25.11 L 72.95 24.60 L 73.14 24.08 L 73.44 23.61 L 73.83 23.17 L 74.25 22.75 L 74.67 22.33 L 75.09 21.91 L 75.49 21.48 L 75.80 21.01 L 75.95 20.48 L 75.99 19.90 L 76.00 19.30 L 75.98 18.72 L 75.87 18.16 L 75.62 17.67 L 75.31 17.21 L 75.07 16.73 L 74.84 16.31 L 74.47 16.08 L 73.94 16.00 L 73.38 15.92 L 72.87 15.73 L 72.44 15.38 L 72.14 14.92 L 71.95 14.40 L 71.74 13.89 L 71.41 13.43 L 71.00 13.01 L 70.58 12.60 L 70.12 12.27 L 69.61 12.05 L 69.09 11.87 L 68.62 11.57 L 68.19 11.18 L 67.76 10.77 L 67.32 10.39 L 66.84 10.11 L 66.32 9.93 L 65.82 9.70 L 65.35 9.39 L 64.87 9.12 L 64.35 8.94 L 63.84 8.72 L 63.37 8.41 L 62.89 8.13 L 62.37 7.95 L 61.87 7.73 L 61.40 7.42 L 60.92 7.14 L 60.40 6.95 L 59.89 6.74 L 59.42 6.43 L 58.94 6.15 L 58.40 6.03 L 57.82 5.98 L 57.26 5.89 L 56.76 5.67 L 56.29 5.36 L 55.79 5.12 L 55.24 5.02 L 54.65 5.00 L 54.06 4.99 L 53.48 4.94 L 52.95 4.78 L 52.48 4.48 L 52.00 4.19 L 51.47 4.04 L 50.89 4.01 L 50.30 4.00 L 49.70 4.00 L 49.10 4.00 L 48.51 4.00 L 47.91 4.00 L 47.32 4.00 L 46.73 3.98 L 46.18 3.87 L 45.68 3.63 L 45.21 3.32 L 44.71 3.10 L 44.15 3.02 L 43.56 3.00 L 42.96 3.00 L 42.36 3.00 L 41.77 3.00 L 41.17 3.00 L 40.58 3.00 L 39.98 3.00 L 39.38 3.00 L 38.79 3.00 L 38.19 3.00 L 37.61 3.03 Z" fill="rgb(16,16,15)" fill-rule="evenodd"/>
  <path d="M 64.06 31.14 L 63.62 31.40 L 63.20 31.70 L 62.73 31.91 L 62.22 31.99 L 61.70 32.03 L 61.29 32.16 L 61.10 32.48 L 61.14 32.92 L 61.40 33.34 L 61.78 33.68 L 62.24 33.90 L 62.75 33.98 L 63.29 34.00 L 63.84 34.00 L 64.36 33.97 L 64.76 33.82 L 64.98 33.48 L 65.15 33.03 L 65.42 32.59 L 65.72 32.17 L 65.89 31.73 L 65.84 31.33 L 65.55 31.09 L 65.08 31.02 L 64.56 31.03 Z M 22.06 28.15 L 21.63 28.42 L 21.30 28.81 L 21.08 29.27 L 20.92 29.75 L 20.69 30.20 L 20.35 30.59 L 19.93 30.86 L 19.42 30.98 L 18.89 31.01 L 18.36 31.07 L 17.89 31.25 L 17.49 31.56 L 17.19 31.98 L 17.08 32.43 L 17.20 32.80 L 17.58 32.96 L 18.10 33.00 L 18.65 33.00 L 19.19 33.00 L 19.74 33.00 L 20.27 32.97 L 20.69 32.85 L 20.92 32.53 L 20.99 32.05 L 21.03 31.52 L 21.16 31.03 L 21.44 30.61 L 21.84 30.28 L 22.31 30.08 L 22.83 30.01 L 23.37 30.00 L 23.92 30.00 L 24.43 29.96 L 24.80 29.80 L 24.90 29.47 L 24.72 29.15 L 24.33 28.96 L 23.88 28.75 L 23.46 28.46 L 23.02 28.19 L 22.54 28.07 Z M 34.05 23.13 L 33.65 23.38 L 33.26 23.68 L 32.85 23.90 L 32.44 24.06 L 32.15 24.28 L 32.08 24.65 L 32.21 25.07 L 32.49 25.45 L 32.87 25.75 L 33.30 25.93 L 33.79 25.99 L 34.29 26.00 L 34.80 26.00 L 35.29 25.98 L 35.69 25.87 L 35.90 25.59 L 35.89 25.18 L 35.69 24.77 L 35.40 24.38 L 35.15 23.98 L 35.00 23.55 L 34.82 23.20 L 34.48 23.06 Z M 40.19 22.20 L 39.99 22.56 L 39.82 23.02 L 39.54 23.45 L 39.25 23.87 L 39.10 24.32 L 39.17 24.71 L 39.48 24.92 L 39.96 24.99 L 40.50 25.00 L 41.05 25.00 L 41.59 25.00 L 42.14 25.00 L 42.68 25.00 L 43.22 25.02 L 43.74 25.09 L 44.20 25.30 L 44.62 25.60 L 45.05 25.85 L 45.49 25.91 L 45.83 25.74 L 45.97 25.33 L 45.98 24.82 L 45.92 24.30 L 45.72 23.84 L 45.40 23.45 L 44.98 23.16 L 44.49 23.03 L 43.95 23.00 L 43.41 23.00 L 42.87 22.99 L 42.35 22.93 L 41.87 22.75 L 41.45 22.46 L 41.02 22.19 L 40.56 22.08 Z" fill="rgb(96,95,94)" fill-rule="evenodd"/>
  <path d="M 38.18 0.18 L 38.03 0.53 L 38.00 1.00 L 38.03 1.47 L 38.18 1.82 L 38.53 1.97 L 39.00 2.00 L 39.50 2.00 L 40.00 2.00 L 40.50 2.00 L 41.00 2.00 L 41.50 2.00 L 42.00 2.00 L 42.50 2.00 L 43.00 2.00 L 43.50 2.00 L 44.00 2.00 L 44.47 1.97 L 44.82 1.82 L 44.97 1.47 L 45.00 1.00 L 44.97 0.53 L 44.82 0.18 L 44.47 0.03 L 44.00 0.00 L 43.50 0.00 L 43.00 0.00 L 42.50 0.00 L 42.00 0.00 L 41.50 0.00 L 41.00 0.00 L 40.50 0.00 L 40.00 0.00 L 39.50 0.00 L 39.00 0.00 L 38.53 0.03 Z" fill="rgb(155,155,155)" fill-rule="evenodd"/>
</svg>