<svg xmlns="http://www.w3.org/2000/svg" width="38" height="80" viewBox="0 0 38 80" role="img" aria-label="26_icons_26">
  <title>26_icons_26</title>
  <path d="M 14.07 5.16 L 13.56 5.45 L 13.07 5.76 L 12.52 5.94 L 11.91 5.99 L 11.29 6.00 L 10.67 6.00 L 10.05 6.00 L 9.42 6.00 L 8.80 6.00 L 8.17 6.00 L 7.55 6.00 L 6.93 6.02 L 6.34 6.10 L 5.82 6.32 L 5.40 6.71 L 5.13 7.21 L 5.02 7.79 L 5.00 8.41 L 5.00 9.03 L 5.00 9.65 L 5.00 10.28 L 5.01 10.90 L 5.06 11.50 L 5.23 12.05 L 5.54 12.55 L 5.83 13.05 L 5.97 13.62 L 6.00 14.23 L 6.00 14.86 L 6.00 15.48 L 6.00 16.10 L 6.00 16.73 L 6.00 17.35 L 6.00 17.98 L 6.00 18.60 L 6.00 19.22 L 6.01 19.84 L 6.05 20.45 L 6.21 21.01 L 6.51 21.51 L 6.81 22.01 L 6.96 22.57 L 7.00 23.18 L 7.00 23.80 L 7.00 24.43 L 7.00 25.05 L 7.00 25.67 L 7.00 26.30 L 7.00 26.92 L 7.00 27.55 L 7.00 28.17 L 7.00 28.79 L 7.00 29.42 L 7.01 30.04 L 7.09 30.63 L 7.30 31.17 L 7.61 31.66 L 7.87 32.18 L 7.98 32.76 L 8.00 33.37 L 8.00 34.00 L 8.00 34.62 L 8.00 35.24 L 8.00 35.87 L 8.00 36.49 L 8.00 37.12 L 8.00 37.74 L 8.03 38.35 L 8.16 38.92 L 8.44 39.43 L 8.75 39.92 L 8.93 40.47 L 8.99 41.07 L 9.00 41.70 L 9.00 42.32 L 9.00 42.94 L 9.00 43.57 L 9.00 44.19 L 9.00 44.82 L 9.00 45.44 L 9.00 46.06 L 9.00 46.69 L 9.00 47.31 L 9.01 47.93 L 9.07 48.53 L 9.25 49.08 L 9.56 49.58 L 9.84 50.08 L 9.97 50.65 L 10.00 51.27 L 10.00 51.89 L 10.00 52.51 L 10.00 53.14 L 10.00 53.76 L 10.00 54.39 L 10.00 55.01 L 10.00 55.63 L 10.02 56.25 L 10.13 56.83 L 10.39 57.34 L 10.71 57.84 L 10.91 58.38 L 10.99 58.97 L 11.00 59.59 L 11.00 60.21 L 11.00 60.84 L 11.00 61.46 L 11.02 62.08 L 11.10 62.67 L 11.32 63.20 L 11.63 63.70 L 11.88 64.22 L 11.98 64.80 L 12.00 65.42 L 12.00 66.04 L 12.00 66.66 L 12.00 67.29 L 12.00 67.91 L 12.00 68.53 L 12.00 69.16 L 12.00 69.78 L 12.00 70.41 L 12.00 71.03 L 12.00 71.66 L 12.00 72.28 L 12.00 72.90 L 12.00 73.53 L 12.02 74.14 L 12.11 74.73 L 12.35 75.26 L 12.66 75.75 L 12.89 76.28 L 12.98 76.87 L 13.00 77.48 L 13.02 78.08 L 13.15 78.58 L 13.47 78.88 L 14.00 78.98 L 14.60 79.00 L 15.23 79.00 L 15.85 79.00 L 16.47 79.00 L 17.10 79.00 L 17.72 79.00 L 18.35 79.00 L 18.97 79.00 L 19.59 79.00 L 20.22 79.00 L 20.84 79.00 L 21.47 79.00 L 22.09 79.00 L 22.71 79.00 L 23.34 79.00 L 23.96 79.00 L 24.59 79.00 L 25.21 79.00 L 25.83 78.99 L 26.39 78.94 L 26.80 78.71 L 26.97 78.26 L 27.00 77.67 L 27.01 77.05 L 27.07 76.45 L 27.26 75.90 L 27.57 75.41 L 27.85 74.90 L 27.97 74.33 L 28.00 73.71 L 28.00 73.09 L 28.00 72.47 L 28.00 71.84 L 28.00 71.22 L 28.03 70.61 L 28.17 70.04 L 28.47 69.54 L 28.77 69.04 L 28.94 68.49 L 28.99 67.89 L 29.00 67.26 L 29.00 66.64 L 29.01 66.02 L 29.08 65.42 L 29.27 64.88 L 29.58 64.38 L 29.85 63.87 L 29.97 63.30 L 30.00 62.69 L 30.00 62.06 L 30.00 61.44 L 30.00 60.81 L 30.00 60.19 L 30.00 59.57 L 30.01 58.95 L 30.09 58.36 L 30.30 57.82 L 30.62 57.32 L 30.87 56.81 L 30.98 56.23 L 31.00 55.61 L 31.00 54.99 L 31.00 54.36 L 31.00 53.74 L 31.00 53.12 L 31.00 52.49 L 31.00 51.87 L 31.00 51.24 L 31.03 50.63 L 31.16 50.06 L 31.45 49.56 L 31.76 49.06 L 31.94 48.51 L 31.99 47.91 L 32.00 47.29 L 32.00 46.66 L 32.00 46.04 L 32.00 45.42 L 32.02 44.80 L 32.12 44.22 L 32.37 43.70 L 32.68 43.20 L 32.90 42.67 L 32.98 42.08 L 33.00 41.46 L 33.00 40.84 L 33.00 40.21 L 33.00 39.59 L 33.01 38.97 L 33.09 38.38 L 33.29 37.84 L 33.60 37.34 L 33.87 36.83 L 33.98 36.25 L 34.00 35.64 L 34.00 35.01 L 34.00 34.39 L 34.02 33.77 L 34.13 33.19 L 34.38 32.68 L 34.70 32.18 L 34.91 31.64 L 34.99 31.05 L 35.00 30.43 L 35.00 29.81 L 35.00 29.19 L 35.00 28.56 L 35.01 27.94 L 35.09 27.35 L 35.31 26.82 L 35.62 26.32 L 35.87 25.80 L 35.98 25.22 L 36.00 24.61 L 36.00 23.98 L 36.00 23.36 L 36.00 22.74 L 36.00 22.11 L 36.00 21.49 L 36.00 20.86 L 36.00 20.24 L 36.03 19.63 L 36.16 19.06 L 36.45 18.55 L 36.76 18.06 L 36.94 17.51 L 36.99 16.91 L 37.00 16.28 L 37.00 15.66 L 37.00 15.04 L 37.00 14.41 L 37.00 13.79 L 37.00 13.16 L 37.00 12.54 L 37.00 11.92 L 37.00 11.29 L 37.00 10.67 L 37.00 10.04 L 37.00 9.42 L 37.00 8.80 L 37.00 8.17 L 37.00 7.55 L 36.98 6.95 L 36.86 6.44 L 36.55 6.13 L 36.03 6.02 L 35.43 6.00 L 34.81 5.98 L 34.23 5.88 L 33.71 5.63 L 33.21 5.32 L 32.68 5.10 L 32.09 5.02 L 31.47 5.00 L 30.85 5.00 L 30.23 5.00 L 29.60 5.00 L 28.98 5.00 L 28.35 5.00 L 27.73 5.00 L 27.11 5.00 L 26.48 5.00 L 25.86 5.00 L 25.23 5.00 L 24.61 5.00 L 23.98 5.00 L 23.36 5.00 L 22.74 5.00 L 22.11 5.00 L 21.49 5.00 L 20.86 5.00 L 20.24 5.00 L 19.62 5.00 L 18.99 5.00 L 18.37 5.00 L 17.74 5.00 L 17.12 5.00 L 16.50 5.00 L 15.87 5.00 L 15.25 5.00 L 14.64 5.03 Z M 10.15 11.06 L 10.43 10.63 L 10.83 10.29 L 11.30 10.09 L 11.83 10.01 L 12.38 10.00 L 12.94 10.00 L 13.50 10.00 L 14.06 10.00 L 14.62 10.00 L 15.18 10.00 L 15.74 10.00 L 16.30 10.00 L 16.86 10.00 L 17.41 10.00 L 17.97 10.01 L 18.51 10.04 L 19.01 10.19 L 19.45 10.48 L 19.85 10.86 L 20.25 11.25 L 20.61 11.66 L 20.87 12.11 L 20.98 12.63 L 20.98 13.17 L 20.91 13.70 L 20.71 14.17 L 20.37 14.57 L 19.94 14.86 L 19.43 14.98 L 18.90 15.01 L 18.43 15.11 L 18.12 15.36 L 17.92 15.78 L 17.68 16.22 L 17.33 16.60 L 16.89 16.86 L 16.40 16.91 L 15.92 16.77 L 15.51 16.45 L 15.20 16.03 L 15.05 15.54 L 15.00 15.01 L 14.93 14.51 L 14.71 14.17 L 14.29 14.03 L 13.76 14.00 L 13.20 14.00 L 12.65 13.98 L 12.14 13.87 L 11.68 13.62 L 11.27 13.26 L 10.88 12.87 L 10.50 12.47 L 10.20 12.04 L 10.08 11.55 Z M 6.14 8.06 L 6.41 7.64 L 6.80 7.30 L 7.25 7.11 L 7.73 7.11 L 8.19 7.29 L 8.60 7.62 L 8.99 7.99 L 9.36 8.38 L 9.69 8.79 L 9.89 9.24 L 9.90 9.72 L 9.71 10.17 L 9.39 10.56 L 8.97 10.84 L 8.47 10.97 L 7.94 10.99 L 7.42 10.94 L 6.94 10.79 L 6.54 10.49 L 6.23 10.08 L 6.06 9.61 L 6.01 9.09 L 6.02 8.55 Z" fill="rgb(17,17,16)" fill-rule="evenodd"/>
  <path d="M 11.20 11.19 L 11.07 11.55 L 11.17 11.99 L 11.44 12.40 L 11.82 12.72 L 12.27 12.91 L 12.77 12.99 L 13.29 13.00 L 13.82 13.00 L 14.35 13.00 L 14.88 13.00 L 15.41 13.00 L 15.94 13.00 L 16.47 13.00 L 17.00 13.00 L 17.51 13.04 L 17.99 13.16 L 18.41 13.43 L 18.82 13.72 L 19.25 13.89 L 19.65 13.86 L 19.90 13.60 L 19.98 13.16 L 19.98 12.65 L 19.89 12.16 L 19.66 11.73 L 19.31 11.37 L 18.89 11.12 L 18.41 11.02 L 17.88 11.00 L 17.36 11.00 L 16.83 11.00 L 16.30 11.00 L 15.77 11.00 L 15.24 11.00 L 14.71 11.00 L 14.18 11.00 L 13.65 11.00 L 13.12 11.00 L 12.59 11.00 L 12.06 11.00 L 11.56 11.03 Z" fill="rgb(90,90,89)" fill-rule="evenodd"/>
  <path d="M 8.18 73.18 L 8.03 73.53 L 8.00 74.00 L 8.00 74.50 L 8.00 75.00 L 8.00 75.50 L 8.00 76.00 L 8.00 76.50 L 8.00 77.00 L 8.03 77.47 L 8.18 77.82 L 8.53 77.97 L 9.00 78.00 L 9.50 78.00 L 10.00 78.00 L 10.47 77.97 L 10.82 77.82 L 10.97 77.47 L 11.00 77.00 L 11.00 76.50 L 11.00 76.00 L 11.00 75.50 L 11.00 75.00 L 11.00 74.50 L 11.00 74.00 L 10.97 73.53 L 10.82 73.18 L 10.47 73.03 L 10.00 73.00 L 9.50 73.00 L 9.00 73.00 L 8.53 73.03 Z M 5.18 48.18 L 5.03 48.53 L 5.00 49.00 L 5.00 49.50 L 5.00 50.00 L 5.00 50.50 L 5.00 51.00 L 5.00 51.50 L 5.00 52.00 L 5.00 52.50 L 5.00 53.00 L 5.03 53.47 L 5.18 53.82 L 5.53 53.97 L 6.00 54.00 L 6.50 54.00 L 7.00 54.00 L 7.47 53.97 L 7.82 53.82 L 7.97 53.47 L 8.00 53.00 L 8.00 52.50 L 8.00 52.00 L 8.00 51.50 L 8.00 51.00 L 8.00 50.50 L 8.00 50.00 L 8.00 49.50 L 8.00 49.00 L 7.97 48.53 L 7.82 48.18 L 7.47 48.03 L 7.00 48.00 L 6.50 48.00 L 6.00 48.00 L 5.53 48.03 Z M 0.18 23.18 L 0.03 23.53 L 0.00 24.00 L 0.00 24.50 L 0.00 25.00 L 0.00 25.50 L 0.00 26.00 L 0.00 26.50 L 0.00 27.00 L 0.00 27.50 L 0.00 28.00 L 0.03 28.47 L 0.18 28.82 L 0.53 28.97 L 1.00 29.00 L 1.50 29.00 L 2.00 29.00 L 2.50 29.00 L 3.00 29.00 L 3.50 29.00 L 4.00 29.00 L 4.47 28.97 L 4.82 28.82 L 4.97 28.47 L 5.00 28.00 L 5.00 27.50 L 5.00 27.00 L 5.00 26.50 L 5.00 26.00 L 5.00 25.50 L 5.00 25.00 L 5.00 24.50 L 5.00 24.00 L 4.97 23.53 L 4.82 23.18 L 4.47 23.03 L 4.00 23.00 L 3.50 23.00 L 3.00 23.00 L 2.50 23.00 L 2.00 23.00 L 1.50 23.00 L 1.00 23.00 L 0.53 23.03 Z M 10.18 0.18 L 10.03 0.53 L 10.00 1.00 L 10.00 1.50 L 10.00 2.00 L 10.00 2.50 L 10.00 3.00 L 10.03 3.47 L 10.18 3.82 L 10.53 3.97 L 11.00 4.00 L 11.50 4.00 L 12.00 4.00 L 12.47 3.97 L 12.82 3.82 L 12.97 3.47 L 13.00 3.00 L 13.00 2.50 L 13.00 2.00 L 13.00 1.50 L 13.00 1.00 L 12.97 0.53 L 12.82 0.18 L 12.47 0.03 L 12.00 0.00 L 11.50 0.00 L 11.00 0.00 L 10.53 0.03 Z" fill="rgb(249,249,249)" fill-rule="evenodd"/>
</svg>