<svg xmlns="http://www.w3.org/2000/svg" width="53" height="76" viewBox="0 0 53 76" role="img" aria-label="27_icons_27">
  <title>27_icons_27</title>
  <path d="M 30.21 4.22 L 29.96 4.63 L 29.73 5.13 L 29.42 5.62 L 29.14 6.12 L 29.02 6.69 L 28.98 7.29 L 28.86 7.87 L 28.59 8.37 L 28.28 8.86 L 28.05 9.39 L 27.86 9.93 L 27.56 10.43 L 27.24 10.92 L 27.03 11.45 L 26.83 11.98 L 26.52 12.47 L 26.22 12.97 L 26.05 13.52 L 25.99 14.11 L 25.90 14.69 L 25.67 15.22 L 25.36 15.71 L 25.12 16.23 L 25.02 16.81 L 24.96 17.41 L 24.82 17.97 L 24.53 18.47 L 24.22 18.96 L 24.01 19.49 L 23.80 20.02 L 23.49 20.51 L 23.18 21.01 L 22.98 21.54 L 22.76 22.07 L 22.45 22.56 L 22.15 23.06 L 21.95 23.60 L 21.73 24.12 L 21.42 24.61 L 21.15 25.12 L 21.02 25.69 L 20.98 26.29 L 20.86 26.86 L 20.59 27.37 L 20.28 27.86 L 20.05 28.39 L 19.86 28.93 L 19.56 29.42 L 19.25 29.91 L 19.07 30.46 L 19.00 31.05 L 18.91 31.63 L 18.70 32.17 L 18.39 32.66 L 18.12 33.16 L 17.92 33.70 L 17.68 34.22 L 17.36 34.71 L 17.10 35.22 L 16.90 35.76 L 16.65 36.27 L 16.34 36.76 L 16.11 37.29 L 16.01 37.87 L 15.95 38.46 L 15.79 39.02 L 15.49 39.51 L 15.19 40.01 L 15.04 40.56 L 14.99 41.16 L 14.89 41.74 L 14.65 42.26 L 14.34 42.75 L 14.09 43.27 L 13.89 43.81 L 13.62 44.31 L 13.31 44.81 L 13.10 45.34 L 13.01 45.92 L 12.94 46.51 L 12.77 47.06 L 12.46 47.55 L 12.16 48.05 L 11.96 48.58 L 11.74 49.11 L 11.43 49.60 L 11.15 50.11 L 11.02 50.67 L 10.98 51.28 L 10.86 51.85 L 10.60 52.36 L 10.29 52.85 L 10.06 53.37 L 9.86 53.91 L 9.57 54.41 L 9.25 54.90 L 9.04 55.43 L 8.84 55.97 L 8.53 56.46 L 8.22 56.95 L 8.01 57.48 L 7.80 58.02 L 7.49 58.51 L 7.19 59.00 L 6.98 59.54 L 6.77 60.07 L 6.45 60.56 L 6.16 61.06 L 6.03 61.62 L 5.98 62.22 L 5.87 62.80 L 5.62 63.31 L 5.31 63.80 L 5.07 64.32 L 4.88 64.86 L 4.60 65.36 L 4.28 65.85 L 4.08 66.39 L 4.00 66.98 L 3.93 67.57 L 3.74 68.11 L 3.43 68.60 L 3.17 69.08 L 3.15 69.55 L 3.41 69.88 L 3.87 70.11 L 4.36 70.40 L 4.84 70.71 L 5.37 70.94 L 5.91 71.14 L 6.41 71.43 L 6.90 71.74 L 7.43 71.96 L 7.96 72.16 L 8.46 72.46 L 8.95 72.77 L 9.50 72.94 L 10.09 73.01 L 10.67 73.10 L 11.20 73.32 L 11.69 73.63 L 12.20 73.89 L 12.74 74.09 L 13.26 74.34 L 13.75 74.66 L 14.27 74.89 L 14.85 74.98 L 15.46 75.00 L 16.06 74.98 L 16.57 74.86 L 16.90 74.56 L 17.13 74.10 L 17.44 73.62 L 17.84 73.17 L 18.26 72.72 L 18.64 72.26 L 18.91 71.75 L 19.10 71.21 L 19.37 70.70 L 19.68 70.21 L 19.92 69.69 L 20.12 69.15 L 20.41 68.66 L 20.81 68.20 L 21.23 67.76 L 21.62 67.29 L 21.89 66.79 L 22.09 66.25 L 22.35 65.74 L 22.66 65.25 L 22.91 64.73 L 23.11 64.19 L 23.39 63.69 L 23.78 63.23 L 24.20 62.79 L 24.59 62.33 L 24.87 61.82 L 24.98 61.25 L 25.00 60.64 L 25.00 60.02 L 25.00 59.40 L 24.98 58.79 L 24.88 58.21 L 24.63 57.70 L 24.32 57.21 L 24.12 56.68 L 24.16 56.15 L 24.43 55.67 L 24.86 55.30 L 25.37 55.11 L 25.91 55.16 L 26.41 55.43 L 26.90 55.74 L 27.43 55.89 L 27.96 55.81 L 28.45 55.51 L 28.90 55.10 L 29.32 54.66 L 29.69 54.19 L 29.93 53.67 L 30.13 53.13 L 30.43 52.63 L 30.83 52.18 L 31.26 51.74 L 31.70 51.30 L 32.13 50.86 L 32.54 50.41 L 32.86 49.92 L 33.06 49.38 L 33.28 48.86 L 33.64 48.39 L 34.06 47.94 L 34.47 47.49 L 34.80 47.01 L 35.01 46.48 L 35.23 45.95 L 35.56 45.47 L 35.98 45.02 L 36.42 44.58 L 36.86 44.14 L 37.28 43.70 L 37.65 43.23 L 37.89 42.71 L 37.99 42.13 L 38.05 41.54 L 38.21 40.98 L 38.53 40.50 L 38.95 40.05 L 39.39 39.61 L 39.82 39.17 L 40.25 38.73 L 40.63 38.27 L 40.90 37.76 L 41.10 37.22 L 41.37 36.72 L 41.76 36.26 L 42.18 35.81 L 42.58 35.36 L 42.86 34.85 L 42.98 34.28 L 43.02 33.68 L 43.15 33.11 L 43.44 32.62 L 43.84 32.16 L 44.27 31.72 L 44.64 31.26 L 44.91 30.75 L 45.10 30.21 L 45.37 29.70 L 45.68 29.21 L 45.92 28.69 L 46.12 28.15 L 46.42 27.65 L 46.81 27.20 L 47.24 26.75 L 47.62 26.29 L 47.90 25.79 L 48.09 25.25 L 48.35 24.73 L 48.66 24.24 L 48.91 23.73 L 49.11 23.19 L 49.39 22.69 L 49.78 22.23 L 50.21 21.78 L 50.60 21.33 L 50.88 20.83 L 51.08 20.29 L 51.33 19.77 L 51.64 19.28 L 51.88 18.76 L 51.98 18.18 L 52.00 17.57 L 52.00 16.95 L 52.00 16.33 L 51.98 15.72 L 51.86 15.15 L 51.57 14.66 L 51.14 14.29 L 50.62 14.06 L 50.08 13.86 L 49.59 13.55 L 49.14 13.14 L 48.70 12.72 L 48.23 12.34 L 47.72 12.09 L 47.18 11.89 L 46.68 11.60 L 46.22 11.21 L 45.78 10.79 L 45.32 10.40 L 44.82 10.11 L 44.28 9.92 L 43.76 9.67 L 43.28 9.35 L 42.76 9.10 L 42.22 8.90 L 41.71 8.64 L 41.22 8.32 L 40.70 8.08 L 40.17 7.88 L 39.67 7.59 L 39.21 7.20 L 38.77 6.78 L 38.31 6.39 L 37.80 6.13 L 37.22 6.02 L 36.62 5.97 L 36.06 5.84 L 35.56 5.55 L 35.07 5.23 L 34.54 5.02 L 34.00 4.81 L 33.51 4.51 L 33.01 4.21 L 32.46 4.05 L 31.86 4.01 L 31.24 4.00 L 30.66 4.04 Z M 18.13 57.05 L 18.37 56.67 L 18.70 56.34 L 19.09 56.12 L 19.53 56.04 L 19.96 56.13 L 20.34 56.38 L 20.66 56.71 L 20.89 57.10 L 20.98 57.55 L 21.00 58.03 L 20.98 58.51 L 20.87 58.95 L 20.63 59.33 L 20.30 59.66 L 19.91 59.88 L 19.47 59.96 L 19.04 59.87 L 18.66 59.62 L 18.34 59.29 L 18.11 58.90 L 18.02 58.45 L 18.00 57.97 L 18.02 57.49 Z M 14.16 50.06 L 14.46 49.61 L 14.89 49.26 L 15.40 49.10 L 15.92 49.16 L 16.41 49.43 L 16.88 49.73 L 17.40 49.92 L 17.97 49.99 L 18.56 50.00 L 19.16 50.02 L 19.72 50.10 L 20.22 50.33 L 20.67 50.69 L 21.10 51.10 L 21.50 51.54 L 21.80 52.00 L 21.90 52.52 L 21.78 53.04 L 21.46 53.48 L 21.01 53.81 L 20.49 54.00 L 19.98 54.20 L 19.53 54.53 L 19.20 54.98 L 19.00 55.49 L 18.81 56.01 L 18.48 56.46 L 18.04 56.78 L 17.52 56.90 L 17.00 56.80 L 16.53 56.52 L 16.05 56.22 L 15.54 56.02 L 15.02 55.83 L 14.57 55.51 L 14.24 55.06 L 14.10 54.55 L 14.18 54.03 L 14.46 53.55 L 14.76 53.08 L 14.90 52.57 L 14.83 52.05 L 14.56 51.57 L 14.25 51.10 L 14.10 50.58 Z" fill="rgb(10,10,9)" fill-rule="evenodd"/>
</svg>