<svg xmlns="http://www.w3.org/2000/svg" width="144" height="134" viewBox="0 0 144 134" role="img" aria-label="28_icons_28">
  <title>28_icons_28</title>
  <path d="M 20.89 3.55 L 18.56 4.27 L 16.93 6.18 L 15.60 8.61 L 13.97 10.94 L 11.86 12.98 L 9.30 14.06 L 6.95 15.35 L 6.20 17.87 L 7.26 20.39 L 8.96 22.52 L 10.66 24.45 L 11.18 27.20 L 11.48 29.80 L 10.41 32.18 L 10.92 34.68 L 12.96 36.66 L 15.29 38.31 L 17.58 40.04 L 19.83 41.86 L 21.98 43.92 L 24.15 45.65 L 25.90 47.76 L 27.76 49.91 L 29.41 51.85 L 31.11 54.03 L 33.39 55.68 L 35.97 56.52 L 37.95 58.09 L 40.02 60.03 L 42.19 62.06 L 44.46 63.75 L 45.78 66.04 L 45.12 68.63 L 43.38 70.91 L 41.71 73.23 L 39.61 75.34 L 37.24 76.86 L 34.69 77.97 L 32.39 79.66 L 30.46 81.84 L 28.88 84.20 L 27.25 86.53 L 25.28 88.72 L 23.16 90.84 L 21.03 92.96 L 18.95 94.91 L 17.09 96.76 L 14.86 98.44 L 12.65 100.36 L 10.56 102.49 L 8.91 104.82 L 8.05 107.47 L 7.39 110.20 L 5.79 112.52 L 5.66 114.72 L 7.75 116.17 L 9.61 118.17 L 10.17 120.93 L 11.55 123.19 L 14.12 124.17 L 16.61 125.40 L 18.89 127.06 L 20.44 129.36 L 22.01 131.53 L 24.44 132.72 L 27.31 132.94 L 30.04 132.28 L 32.67 131.38 L 35.06 129.88 L 37.21 127.89 L 39.11 126.08 L 41.22 124.45 L 43.01 122.35 L 44.13 119.85 L 45.95 118.22 L 48.65 117.63 L 50.52 115.80 L 52.70 114.23 L 55.29 113.30 L 56.91 111.17 L 58.33 108.86 L 60.17 107.03 L 62.32 105.40 L 64.34 103.39 L 66.02 101.08 L 68.10 99.00 L 70.42 97.33 L 72.62 95.38 L 74.83 93.66 L 77.15 94.24 L 79.29 96.29 L 81.43 98.38 L 83.72 100.11 L 85.96 101.96 L 88.19 103.84 L 90.49 105.54 L 92.63 107.63 L 94.76 109.76 L 96.88 111.88 L 98.95 114.03 L 100.62 116.35 L 102.57 118.51 L 105.02 119.86 L 107.61 120.86 L 109.77 122.83 L 111.50 124.99 L 113.79 126.32 L 116.09 128.00 L 118.50 129.42 L 121.08 129.47 L 123.55 128.34 L 126.10 128.52 L 128.40 127.48 L 130.16 125.30 L 132.39 124.01 L 134.47 122.71 L 136.26 120.51 L 137.72 118.11 L 139.35 115.88 L 141.57 114.17 L 142.85 111.80 L 143.00 108.85 L 142.99 105.85 L 142.62 103.00 L 141.29 100.55 L 139.22 98.63 L 136.50 97.95 L 133.90 96.96 L 131.32 95.95 L 128.75 94.88 L 126.14 93.93 L 123.46 93.16 L 121.35 91.73 L 120.00 89.51 L 117.82 87.80 L 115.60 86.01 L 114.17 83.88 L 113.69 81.09 L 113.01 78.39 L 112.14 76.05 L 110.05 74.33 L 107.73 72.67 L 105.59 70.59 L 103.51 68.44 L 102.58 66.18 L 104.31 64.45 L 106.67 62.91 L 108.70 60.98 L 110.38 58.68 L 112.48 56.57 L 114.78 54.86 L 116.97 53.14 L 118.85 51.33 L 121.09 49.74 L 123.53 48.45 L 125.30 46.68 L 126.34 44.16 L 128.10 41.89 L 129.93 39.64 L 131.76 37.57 L 133.83 35.81 L 135.70 33.93 L 137.89 32.24 L 139.80 30.59 L 141.50 28.70 L 142.50 26.35 L 142.29 23.79 L 142.69 21.15 L 141.59 18.85 L 139.33 17.16 L 137.01 15.49 L 134.43 14.65 L 133.51 12.73 L 133.95 10.01 L 133.58 7.26 L 131.39 6.06 L 128.54 5.71 L 126.04 4.49 L 123.34 4.29 L 120.63 4.86 L 117.98 4.48 L 115.57 5.29 L 113.24 6.91 L 111.05 8.89 L 108.74 10.56 L 106.51 12.44 L 104.25 14.16 L 102.43 16.10 L 100.52 17.93 L 98.70 19.86 L 96.44 21.60 L 94.29 23.65 L 91.97 25.31 L 89.82 27.01 L 88.00 28.96 L 86.15 31.15 L 84.30 33.07 L 82.07 34.87 L 79.82 36.29 L 77.92 38.05 L 75.77 40.03 L 73.29 40.59 L 70.99 38.99 L 68.76 37.13 L 66.63 35.37 L 64.76 33.55 L 62.60 31.64 L 60.31 29.90 L 58.28 27.96 L 56.54 25.80 L 54.27 24.11 L 52.10 22.10 L 49.98 19.97 L 48.05 17.90 L 46.05 16.27 L 43.72 14.70 L 41.43 12.97 L 39.18 11.16 L 36.98 9.25 L 34.99 7.48 L 32.97 5.73 L 30.57 4.32 L 27.72 4.03 L 25.20 4.62 L 23.20 5.41 L 21.70 3.92 Z M 14.00 116.00 L 14.42 115.61 L 14.86 115.28 L 15.35 115.10 L 15.85 115.14 L 16.32 115.39 L 16.75 115.75 L 17.16 116.16 L 17.58 116.54 L 18.03 116.83 L 18.56 116.97 L 19.12 116.98 L 19.66 116.91 L 20.16 116.72 L 20.61 116.41 L 21.08 116.14 L 21.61 116.03 L 22.17 116.02 L 22.72 116.10 L 23.20 116.32 L 23.60 116.68 L 23.86 117.13 L 23.90 117.64 L 23.73 118.12 L 23.40 118.54 L 22.95 118.84 L 22.43 118.97 L 21.87 119.01 L 21.32 119.09 L 20.83 119.29 L 20.38 119.60 L 19.91 119.86 L 19.38 119.97 L 18.81 119.98 L 18.27 119.90 L 17.78 119.68 L 17.33 119.38 L 16.87 119.15 L 16.43 119.13 L 16.13 119.39 L 16.02 119.85 L 15.98 120.40 L 15.85 120.92 L 15.57 121.37 L 15.15 121.71 L 14.67 121.90 L 14.16 121.86 L 13.70 121.62 L 13.34 121.23 L 13.10 120.75 L 13.02 120.21 L 13.00 119.64 L 13.00 119.06 L 13.00 118.48 L 13.01 117.91 L 13.08 117.35 L 13.28 116.86 L 13.61 116.42 Z M 17.13 113.05 L 17.37 112.67 L 17.70 112.34 L 18.09 112.12 L 18.54 112.02 L 19.01 112.00 L 19.49 112.02 L 19.94 112.12 L 20.32 112.36 L 20.65 112.69 L 20.88 113.08 L 20.96 113.51 L 20.87 113.95 L 20.63 114.33 L 20.30 114.66 L 19.91 114.88 L 19.46 114.98 L 18.99 115.00 L 18.51 114.98 L 18.06 114.88 L 17.68 114.64 L 17.35 114.31 L 17.12 113.92 L 17.04 113.49 Z M 123.00 97.00 L 123.42 96.60 L 123.87 96.27 L 124.38 96.08 L 124.94 96.02 L 125.51 96.05 L 126.03 96.21 L 126.47 96.53 L 126.79 96.97 L 126.95 97.49 L 126.99 98.06 L 127.00 98.65 L 126.98 99.23 L 126.89 99.78 L 126.64 100.27 L 126.28 100.71 L 125.87 101.12 L 125.45 101.52 L 124.98 101.82 L 124.45 101.96 L 123.88 102.00 L 123.29 102.00 L 122.71 102.02 L 122.17 102.13 L 121.68 102.37 L 121.22 102.68 L 120.73 102.88 L 120.22 102.87 L 119.74 102.64 L 119.36 102.26 L 119.13 101.78 L 119.12 101.27 L 119.33 100.79 L 119.70 100.39 L 120.17 100.11 L 120.68 99.93 L 121.17 99.70 L 121.58 99.34 L 121.87 98.89 L 122.05 98.37 L 122.27 97.87 L 122.60 97.42 Z" fill="rgb(22,22,21)" fill-rule="evenodd"/>
  <path d="M 115.21 81.22 L 115.04 81.62 L 115.00 82.17 L 115.00 82.75 L 115.00 83.33 L 115.01 83.90 L 115.06 84.43 L 115.26 84.82 L 115.66 85.04 L 116.13 85.26 L 116.57 85.60 L 116.99 85.99 L 117.40 86.40 L 117.81 86.81 L 118.23 87.22 L 118.65 87.60 L 119.12 87.88 L 119.63 88.05 L 120.12 88.26 L 120.57 88.59 L 120.98 88.99 L 121.38 89.40 L 121.72 89.85 L 121.92 90.35 L 121.99 90.89 L 122.05 91.42 L 122.25 91.81 L 122.67 91.97 L 123.22 92.02 L 123.76 92.11 L 124.25 92.33 L 124.70 92.64 L 125.18 92.88 L 125.73 92.98 L 126.30 93.00 L 126.88 93.00 L 127.45 93.04 L 127.97 93.17 L 128.43 93.47 L 128.85 93.86 L 129.27 94.26 L 129.70 94.62 L 130.16 94.86 L 130.59 94.86 L 130.88 94.58 L 130.98 94.11 L 130.95 93.59 L 130.77 93.19 L 130.38 92.97 L 129.90 92.75 L 129.46 92.43 L 129.04 92.04 L 128.63 91.63 L 128.21 91.21 L 127.81 90.80 L 127.42 90.38 L 127.13 89.93 L 126.93 89.47 L 126.66 89.14 L 126.24 88.92 L 125.77 88.68 L 125.32 88.37 L 124.85 88.11 L 124.34 87.94 L 123.85 87.72 L 123.39 87.41 L 122.92 87.14 L 122.42 86.96 L 121.92 86.76 L 121.49 86.43 L 121.18 85.99 L 120.99 85.49 L 120.81 84.98 L 120.49 84.55 L 120.06 84.22 L 119.56 84.03 L 119.05 83.85 L 118.61 83.55 L 118.27 83.13 L 118.05 82.66 L 117.83 82.26 L 117.45 82.02 L 116.99 81.82 L 116.53 81.52 L 116.07 81.23 L 115.59 81.10 Z M 5.21 21.20 L 5.08 21.57 L 5.20 22.03 L 5.47 22.47 L 5.76 22.90 L 5.91 23.37 L 5.87 23.86 L 5.63 24.30 L 5.25 24.66 L 4.82 24.91 L 4.40 25.09 L 4.14 25.38 L 4.12 25.79 L 4.33 26.23 L 4.68 26.61 L 5.12 26.87 L 5.63 26.98 L 6.17 27.01 L 6.69 27.08 L 7.16 27.28 L 7.56 27.61 L 7.84 28.04 L 7.97 28.54 L 8.01 29.08 L 8.06 29.61 L 8.23 30.09 L 8.55 30.50 L 8.96 30.79 L 9.42 30.92 L 9.79 30.80 L 9.92 30.44 L 9.81 29.98 L 9.54 29.54 L 9.25 29.11 L 9.07 28.63 L 9.01 28.10 L 9.00 27.55 L 9.00 27.00 L 9.00 26.44 L 9.00 25.89 L 9.00 25.34 L 8.98 24.81 L 8.87 24.36 L 8.58 24.08 L 8.16 23.90 L 7.72 23.64 L 7.36 23.28 L 7.12 22.83 L 7.02 22.32 L 6.98 21.79 L 6.86 21.35 L 6.56 21.10 L 6.09 21.02 L 5.59 21.04 Z" fill="rgb(89,89,88)" fill-rule="evenodd"/>
</svg>