<svg xmlns="http://www.w3.org/2000/svg" width="123" height="123" viewBox="0 0 123 123" role="img" aria-label="29_icons_29">
  <title>29_icons_29</title>
  <path d="M 111.06 119.14 L 110.61 119.40 L 110.18 119.71 L 109.71 119.91 L 109.19 119.99 L 108.65 120.02 L 108.14 120.12 L 107.68 120.37 L 107.26 120.67 L 106.79 120.89 L 106.28 120.98 L 105.75 121.02 L 105.33 121.15 L 105.12 121.44 L 105.19 121.76 L 105.53 121.91 L 105.98 121.83 L 106.42 121.57 L 106.85 121.27 L 107.32 121.10 L 107.81 121.12 L 108.26 121.34 L 108.69 121.64 L 109.15 121.88 L 109.66 121.98 L 110.19 121.98 L 110.63 121.87 L 110.91 121.59 L 111.10 121.16 L 111.35 120.73 L 111.72 120.36 L 112.15 120.10 L 112.58 119.92 L 112.84 119.66 L 112.84 119.33 L 112.56 119.10 L 112.09 119.02 L 111.56 119.03 Z M 118.21 16.20 L 118.11 16.53 L 118.29 16.85 L 118.69 17.05 L 119.14 17.27 L 119.57 17.59 L 119.98 17.98 L 120.36 18.38 L 120.70 18.81 L 120.89 19.28 L 120.88 19.77 L 120.68 20.24 L 120.37 20.68 L 120.12 21.13 L 119.95 21.63 L 119.75 22.11 L 119.43 22.52 L 119.00 22.82 L 118.55 23.01 L 118.20 23.22 L 118.12 23.56 L 118.33 23.87 L 118.73 24.07 L 119.18 24.30 L 119.58 24.64 L 119.87 25.07 L 120.05 25.51 L 120.29 25.82 L 120.62 25.85 L 120.88 25.60 L 120.98 25.14 L 121.02 24.60 L 121.14 24.09 L 121.40 23.63 L 121.70 23.19 L 121.91 22.72 L 121.98 22.18 L 122.00 21.63 L 122.00 21.06 L 122.00 20.50 L 122.00 19.94 L 122.00 19.37 L 121.98 18.82 L 121.91 18.28 L 121.70 17.81 L 121.35 17.41 L 120.91 17.13 L 120.42 16.96 L 119.93 16.78 L 119.49 16.49 L 119.04 16.21 L 118.58 16.09 Z M 104.30 3.79 L 103.58 5.77 L 101.41 7.01 L 98.77 7.89 L 96.27 8.56 L 93.83 8.65 L 91.60 10.35 L 89.20 11.80 L 86.58 12.74 L 84.27 14.42 L 82.01 15.92 L 80.14 17.76 L 78.11 19.89 L 75.98 22.02 L 73.86 24.14 L 71.72 26.16 L 69.91 28.04 L 68.59 30.39 L 67.58 32.97 L 65.77 35.23 L 63.64 37.35 L 61.45 39.19 L 59.14 38.95 L 56.98 36.98 L 54.85 34.85 L 52.73 32.73 L 50.60 30.60 L 48.46 28.52 L 46.20 26.81 L 44.37 24.87 L 42.31 23.10 L 40.62 20.89 L 39.00 18.59 L 36.95 16.99 L 34.72 15.49 L 32.84 13.67 L 30.72 11.72 L 28.58 9.63 L 26.35 7.87 L 24.76 5.96 L 22.70 5.26 L 20.35 6.28 L 18.32 7.71 L 15.48 8.02 L 12.93 8.73 L 11.88 11.08 L 11.29 13.76 L 11.48 16.27 L 10.12 17.52 L 7.73 17.66 L 5.38 18.90 L 4.17 20.72 L 4.74 23.37 L 5.41 26.10 L 6.76 28.54 L 8.53 30.81 L 10.27 32.87 L 12.11 34.78 L 14.00 36.98 L 16.14 39.03 L 18.42 40.71 L 20.18 42.85 L 22.08 45.07 L 24.18 47.20 L 26.06 49.26 L 27.82 51.14 L 29.65 53.04 L 31.93 54.68 L 33.96 56.42 L 35.87 58.22 L 37.39 60.42 L 37.49 62.99 L 35.74 65.22 L 33.52 67.03 L 31.71 68.95 L 29.98 70.85 L 28.28 73.00 L 26.76 75.38 L 25.13 77.67 L 23.19 79.50 L 21.34 81.40 L 19.51 83.27 L 17.73 85.49 L 16.06 87.77 L 14.14 89.60 L 12.30 91.67 L 10.20 93.80 L 8.11 95.94 L 6.47 98.27 L 4.98 100.66 L 3.92 103.22 L 3.35 105.76 L 4.61 107.69 L 6.99 109.03 L 8.84 110.60 L 10.22 111.13 L 11.49 109.14 L 13.33 108.88 L 15.04 110.52 L 15.29 112.73 L 13.72 114.80 L 11.31 115.56 L 9.43 115.86 L 9.63 117.96 L 11.91 118.82 L 14.50 118.51 L 16.61 119.83 L 18.55 121.37 L 20.99 121.43 L 23.57 121.75 L 26.08 121.31 L 27.59 119.17 L 28.79 116.83 L 31.07 115.54 L 33.24 113.94 L 35.06 111.98 L 37.20 109.99 L 39.76 108.93 L 42.25 107.67 L 44.36 105.59 L 46.04 103.28 L 47.15 100.74 L 48.68 98.36 L 50.77 96.23 L 52.90 94.10 L 55.02 92.03 L 56.97 90.21 L 58.88 88.15 L 61.12 86.45 L 63.41 86.96 L 65.26 88.84 L 67.48 90.58 L 69.25 92.64 L 71.08 94.34 L 73.02 96.11 L 74.84 98.01 L 76.74 99.91 L 78.60 101.75 L 80.46 103.86 L 81.52 106.43 L 82.96 108.84 L 85.01 110.99 L 87.32 112.65 L 90.12 112.93 L 92.32 111.99 L 94.32 111.84 L 96.47 112.88 L 99.34 113.06 L 101.56 114.22 L 102.05 116.90 L 102.87 118.30 L 104.60 117.02 L 106.50 115.49 L 106.49 113.16 L 107.11 111.05 L 106.86 109.48 L 106.22 107.14 L 107.68 105.30 L 110.37 105.30 L 112.39 106.77 L 114.45 108.55 L 115.65 110.89 L 114.80 112.96 L 115.03 113.22 L 117.02 112.48 L 119.55 112.63 L 121.41 111.00 L 121.23 108.47 L 120.79 105.66 L 120.44 103.05 L 120.67 100.48 L 119.44 98.49 L 117.11 98.52 L 114.95 97.61 L 114.54 95.27 L 113.82 92.90 L 112.26 90.56 L 111.19 88.00 L 109.86 85.72 L 107.92 83.91 L 105.66 82.13 L 103.12 81.02 L 100.72 79.61 L 99.16 77.29 L 97.99 74.92 L 96.00 73.36 L 93.50 72.22 L 91.47 70.28 L 89.46 68.78 L 87.21 67.14 L 85.45 65.13 L 84.57 63.10 L 86.11 60.93 L 88.34 59.08 L 90.58 57.32 L 92.26 55.04 L 94.18 52.83 L 96.35 50.83 L 98.75 49.37 L 101.16 47.91 L 103.50 46.45 L 105.08 44.61 L 105.62 42.21 L 104.10 41.34 L 101.91 41.20 L 101.49 39.01 L 102.95 36.69 L 104.90 35.50 L 107.53 35.94 L 110.12 35.60 L 111.19 33.55 L 111.50 31.02 L 110.08 29.20 L 108.15 27.60 L 107.32 25.11 L 108.44 22.92 L 110.69 22.50 L 111.89 21.25 L 111.44 18.64 L 109.77 17.53 L 107.16 17.91 L 104.82 17.12 L 105.09 15.17 L 106.91 13.55 L 108.40 12.15 L 108.34 9.87 L 109.87 8.18 L 111.51 7.08 L 110.26 6.24 L 108.19 7.28 L 106.00 7.31 L 104.99 5.05 Z" fill="rgb(242,20,18)" fill-rule="evenodd"/>
  <path d="M 95.20 114.20 L 95.04 114.57 L 95.01 115.07 L 95.08 115.54 L 95.31 115.86 L 95.70 116.05 L 96.14 116.26 L 96.56 116.55 L 96.99 116.82 L 97.47 116.93 L 97.94 116.86 L 98.38 116.60 L 98.79 116.30 L 99.24 116.08 L 99.72 115.93 L 100.17 115.72 L 100.56 115.39 L 100.84 114.98 L 100.92 114.53 L 100.77 114.18 L 100.38 114.03 L 99.87 114.00 L 99.33 114.00 L 98.79 114.00 L 98.25 114.00 L 97.71 114.00 L 97.17 114.00 L 96.62 114.00 L 96.09 114.00 L 95.58 114.03 Z M 107.22 106.22 L 107.10 106.59 L 107.23 107.07 L 107.53 107.53 L 107.82 107.99 L 108.00 108.50 L 108.18 109.01 L 108.47 109.47 L 108.77 109.93 L 108.91 110.43 L 108.84 110.94 L 108.55 111.39 L 108.14 111.73 L 107.67 111.95 L 107.27 112.17 L 107.11 112.54 L 107.20 113.01 L 107.47 113.47 L 107.77 113.93 L 107.96 114.43 L 108.14 114.94 L 108.42 115.41 L 108.73 115.86 L 108.94 116.36 L 109.12 116.87 L 109.40 117.32 L 109.80 117.68 L 110.26 117.88 L 110.68 117.82 L 110.89 117.51 L 110.84 117.05 L 110.58 116.59 L 110.27 116.14 L 110.08 115.63 L 110.02 115.08 L 110.04 114.52 L 110.19 114.00 L 110.47 113.53 L 110.77 113.07 L 110.96 112.57 L 111.14 112.06 L 111.42 111.59 L 111.73 111.14 L 111.94 110.64 L 112.12 110.13 L 112.38 109.66 L 112.69 109.21 L 112.88 108.74 L 112.82 108.32 L 112.50 108.09 L 111.99 108.01 L 111.42 108.00 L 110.84 107.98 L 110.29 107.90 L 109.80 107.69 L 109.36 107.34 L 108.94 106.94 L 108.52 106.55 L 108.07 106.23 L 107.59 106.10 Z M 102.20 34.20 L 102.11 34.53 L 102.29 34.85 L 102.68 35.05 L 103.13 35.26 L 103.54 35.59 L 103.83 36.02 L 103.92 36.51 L 103.82 37.00 L 103.53 37.44 L 103.15 37.84 L 102.76 38.24 L 102.40 38.65 L 102.15 39.09 L 102.11 39.53 L 102.33 39.85 L 102.76 39.97 L 103.29 39.98 L 103.81 39.89 L 104.26 39.65 L 104.64 39.28 L 104.88 38.83 L 104.98 38.31 L 105.00 37.76 L 105.00 37.20 L 104.97 36.67 L 104.82 36.25 L 104.47 36.02 L 104.02 35.84 L 103.59 35.54 L 103.26 35.13 L 103.05 34.68 L 102.85 34.29 L 102.53 34.11 Z M 109.22 9.20 L 109.09 9.58 L 109.22 10.06 L 109.50 10.50 L 109.79 10.96 L 109.95 11.46 L 109.98 12.01 L 109.94 12.56 L 109.78 13.06 L 109.46 13.49 L 109.03 13.79 L 108.53 13.95 L 107.98 14.01 L 107.49 14.09 L 107.14 14.32 L 106.93 14.73 L 106.70 15.19 L 106.40 15.63 L 106.15 16.08 L 106.11 16.53 L 106.34 16.85 L 106.78 16.97 L 107.33 17.00 L 107.89 17.00 L 108.45 16.97 L 108.97 16.84 L 109.43 16.56 L 109.87 16.26 L 110.36 16.10 L 110.86 16.14 L 111.31 16.39 L 111.67 16.78 L 111.91 17.24 L 112.08 17.74 L 112.31 18.22 L 112.62 18.66 L 112.87 19.13 L 112.98 19.66 L 113.00 20.22 L 113.00 20.79 L 113.00 21.36 L 112.99 21.93 L 112.96 22.49 L 112.81 23.00 L 112.51 23.43 L 112.09 23.75 L 111.61 23.91 L 111.11 23.86 L 110.64 23.61 L 110.20 23.30 L 109.72 23.11 L 109.22 23.12 L 108.76 23.34 L 108.38 23.71 L 108.12 24.17 L 108.02 24.70 L 108.02 25.25 L 108.11 25.78 L 108.34 26.26 L 108.64 26.70 L 108.90 27.16 L 109.10 27.59 L 109.40 27.87 L 109.86 27.98 L 110.42 28.00 L 110.99 28.00 L 111.56 28.00 L 112.13 28.00 L 112.70 28.00 L 113.26 28.02 L 113.79 28.11 L 114.27 28.34 L 114.71 28.65 L 115.18 28.87 L 115.68 28.89 L 116.16 28.71 L 116.60 28.38 L 117.01 27.99 L 117.40 27.58 L 117.72 27.15 L 117.90 26.66 L 117.87 26.16 L 117.64 25.70 L 117.33 25.25 L 117.11 24.77 L 117.02 24.24 L 117.02 23.68 L 117.12 23.16 L 117.38 22.69 L 117.74 22.27 L 118.14 21.86 L 118.54 21.46 L 118.94 21.05 L 119.34 20.65 L 119.68 20.22 L 119.88 19.74 L 119.88 19.24 L 119.67 18.78 L 119.31 18.39 L 118.86 18.12 L 118.36 17.95 L 117.88 17.74 L 117.46 17.40 L 117.16 16.97 L 116.99 16.47 L 116.80 15.98 L 116.49 15.55 L 116.07 15.23 L 115.57 15.06 L 115.02 15.00 L 114.47 14.95 L 113.97 14.79 L 113.54 14.48 L 113.22 14.06 L 113.06 13.56 L 113.00 13.01 L 112.95 12.46 L 112.79 11.96 L 112.50 11.50 L 112.22 11.05 L 112.05 10.55 L 112.00 10.01 L 111.92 9.51 L 111.69 9.16 L 111.26 9.03 L 110.71 9.00 L 110.15 9.00 L 109.61 9.04 Z" fill="rgb(249,83,81)" fill-rule="evenodd"/>
</svg>