<svg xmlns="http://www.w3.org/2000/svg" width="120" height="131" viewBox="0 0 120 131" role="img" aria-label="30_icons_30">
  <title>30_icons_30</title>
  <path d="M 13.20 87.21 L 12.97 87.60 L 12.76 88.08 L 12.43 88.51 L 11.99 88.83 L 11.48 89.01 L 10.97 89.21 L 10.53 89.53 L 10.21 89.97 L 10.05 90.49 L 10.02 91.05 L 10.11 91.54 L 10.37 91.84 L 10.80 91.86 L 11.27 91.64 L 11.71 91.28 L 12.13 90.87 L 12.54 90.46 L 12.96 90.04 L 13.37 89.63 L 13.79 89.21 L 14.20 88.79 L 14.58 88.36 L 14.84 87.90 L 14.87 87.45 L 14.62 87.14 L 14.16 87.03 L 13.62 87.04 Z M 41.21 75.22 L 40.96 75.62 L 40.73 76.12 L 40.38 76.59 L 39.96 77.04 L 39.53 77.47 L 39.09 77.91 L 38.66 78.34 L 38.22 78.78 L 37.78 79.22 L 37.35 79.65 L 36.91 80.09 L 36.48 80.52 L 36.04 80.96 L 35.62 81.40 L 35.28 81.88 L 35.08 82.41 L 35.00 83.00 L 34.92 83.58 L 34.73 84.11 L 34.37 84.55 L 33.89 84.86 L 33.36 85.06 L 32.84 85.30 L 32.37 85.65 L 31.93 86.07 L 31.49 86.51 L 31.06 86.94 L 30.64 87.39 L 30.29 87.86 L 30.12 88.35 L 30.23 88.76 L 30.64 88.95 L 31.20 89.02 L 31.77 89.12 L 32.27 89.38 L 32.66 89.79 L 32.87 90.29 L 32.85 90.83 L 32.59 91.31 L 32.17 91.69 L 31.65 91.91 L 31.07 91.99 L 30.48 92.06 L 29.94 92.24 L 29.46 92.57 L 29.02 92.98 L 28.57 93.40 L 28.10 93.74 L 27.57 93.96 L 27.04 94.16 L 26.55 94.48 L 26.11 94.90 L 25.68 95.34 L 25.32 95.80 L 25.07 96.32 L 24.88 96.85 L 24.59 97.35 L 24.19 97.80 L 23.77 98.24 L 23.39 98.70 L 23.11 99.20 L 22.91 99.74 L 22.65 100.24 L 22.28 100.71 L 21.86 101.15 L 21.45 101.60 L 21.14 102.08 L 20.94 102.62 L 20.72 103.14 L 20.41 103.63 L 20.13 104.13 L 19.93 104.67 L 19.69 105.18 L 19.33 105.65 L 18.91 106.09 L 18.50 106.54 L 18.17 107.02 L 17.97 107.55 L 17.75 108.08 L 17.40 108.53 L 16.94 108.85 L 16.40 109.05 L 15.88 109.27 L 15.41 109.62 L 14.96 110.04 L 14.55 110.48 L 14.21 110.96 L 14.00 111.49 L 13.80 112.02 L 13.47 112.50 L 13.05 112.95 L 12.63 113.39 L 12.28 113.86 L 12.06 114.38 L 11.86 114.92 L 11.57 115.41 L 11.25 115.90 L 11.04 116.43 L 10.84 116.96 L 10.54 117.46 L 10.23 117.94 L 10.06 118.49 L 9.99 119.08 L 9.91 119.66 L 9.69 120.18 L 9.33 120.65 L 8.90 121.09 L 8.47 121.53 L 8.03 121.97 L 7.60 122.40 L 7.16 122.84 L 6.73 123.27 L 6.29 123.71 L 5.86 124.15 L 5.45 124.60 L 5.15 125.09 L 5.02 125.65 L 4.98 126.25 L 4.87 126.82 L 4.60 127.33 L 4.21 127.78 L 3.79 128.22 L 3.40 128.68 L 3.16 129.16 L 3.17 129.61 L 3.48 129.89 L 4.00 129.98 L 4.60 130.00 L 5.21 130.00 L 5.83 130.00 L 6.43 129.96 L 6.98 129.81 L 7.47 129.49 L 7.92 129.08 L 8.35 128.65 L 8.79 128.21 L 9.22 127.78 L 9.66 127.34 L 10.10 126.90 L 10.53 126.47 L 10.97 126.03 L 11.40 125.60 L 11.84 125.16 L 12.28 124.73 L 12.74 124.36 L 13.25 124.09 L 13.78 123.90 L 14.29 123.62 L 14.75 123.24 L 15.19 122.82 L 15.64 122.42 L 16.13 122.13 L 16.67 121.93 L 17.18 121.69 L 17.65 121.33 L 18.09 120.90 L 18.51 120.46 L 18.83 119.98 L 19.03 119.44 L 19.25 118.92 L 19.59 118.44 L 20.00 118.00 L 20.44 117.56 L 20.87 117.13 L 21.31 116.69 L 21.75 116.25 L 22.18 115.82 L 22.62 115.38 L 23.06 114.95 L 23.50 114.53 L 23.98 114.21 L 24.53 114.05 L 25.13 114.01 L 25.75 114.00 L 26.35 113.97 L 26.92 113.85 L 27.41 113.55 L 27.86 113.14 L 28.29 112.71 L 28.73 112.27 L 29.17 111.83 L 29.60 111.40 L 30.04 110.96 L 30.48 110.55 L 30.96 110.22 L 31.49 110.00 L 32.02 109.80 L 32.50 109.47 L 32.95 109.05 L 33.38 108.62 L 33.82 108.18 L 34.24 107.74 L 34.63 107.28 L 34.90 106.78 L 35.09 106.24 L 35.36 105.74 L 35.74 105.28 L 36.16 104.84 L 36.56 104.39 L 36.85 103.89 L 36.98 103.32 L 37.02 102.73 L 37.14 102.16 L 37.41 101.66 L 37.81 101.20 L 38.24 100.76 L 38.67 100.33 L 39.11 99.89 L 39.56 99.48 L 40.04 99.16 L 40.57 98.96 L 41.10 98.74 L 41.57 98.40 L 42.02 97.98 L 42.45 97.55 L 42.89 97.11 L 43.31 96.67 L 43.68 96.20 L 43.92 95.69 L 44.12 95.15 L 44.40 94.65 L 44.70 94.17 L 44.88 93.67 L 44.78 93.25 L 44.41 92.99 L 43.92 92.76 L 43.47 92.40 L 43.17 91.94 L 43.10 91.40 L 43.28 90.88 L 43.64 90.45 L 44.11 90.15 L 44.68 90.03 L 45.28 90.03 L 45.85 90.14 L 46.35 90.40 L 46.84 90.71 L 47.36 90.89 L 47.90 90.84 L 48.39 90.56 L 48.84 90.16 L 49.28 89.72 L 49.71 89.29 L 50.15 88.85 L 50.58 88.42 L 51.02 87.98 L 51.46 87.54 L 51.89 87.11 L 52.33 86.67 L 52.76 86.24 L 53.19 85.80 L 53.59 85.34 L 53.88 84.85 L 54.07 84.31 L 54.31 83.80 L 54.62 83.31 L 54.85 82.82 L 54.82 82.38 L 54.50 82.11 L 53.99 82.00 L 53.41 81.92 L 52.88 81.72 L 52.44 81.36 L 52.15 80.88 L 52.03 80.32 L 52.00 79.71 L 52.01 79.10 L 52.06 78.50 L 52.22 77.96 L 52.53 77.46 L 52.82 76.97 L 52.96 76.41 L 52.97 75.84 L 52.84 75.36 L 52.49 75.13 L 52.02 75.19 L 51.57 75.50 L 51.22 75.95 L 51.01 76.48 L 50.80 77.01 L 50.47 77.47 L 50.01 77.79 L 49.48 77.90 L 48.95 77.76 L 48.50 77.43 L 48.18 76.96 L 48.03 76.41 L 47.98 75.83 L 47.83 75.36 L 47.49 75.13 L 47.01 75.19 L 46.53 75.47 L 46.04 75.78 L 45.50 75.94 L 44.91 75.98 L 44.33 75.90 L 43.80 75.69 L 43.31 75.38 L 42.80 75.13 L 42.23 75.02 L 41.65 75.04 Z M 35.15 85.06 L 35.43 84.63 L 35.83 84.29 L 36.30 84.09 L 36.84 84.01 L 37.39 84.00 L 37.95 84.00 L 38.51 84.00 L 39.07 84.01 L 39.61 84.07 L 40.09 84.24 L 40.51 84.56 L 40.81 84.98 L 40.95 85.48 L 40.99 86.03 L 41.00 86.59 L 40.99 87.14 L 40.92 87.67 L 40.72 88.15 L 40.39 88.56 L 39.96 88.84 L 39.45 88.97 L 38.90 89.00 L 38.34 89.00 L 37.79 88.98 L 37.26 88.90 L 36.79 88.69 L 36.40 88.34 L 36.13 87.90 L 35.96 87.41 L 35.77 86.92 L 35.48 86.48 L 35.21 86.04 L 35.08 85.55 Z M 50.07 39.16 L 49.57 39.46 L 49.13 39.88 L 48.70 40.32 L 48.33 40.78 L 48.08 41.30 L 47.88 41.83 L 47.59 42.32 L 47.16 42.69 L 46.65 42.93 L 46.11 43.13 L 45.62 43.43 L 45.17 43.84 L 44.73 44.27 L 44.29 44.71 L 43.85 45.14 L 43.41 45.55 L 42.93 45.86 L 42.46 46.09 L 42.12 46.40 L 41.89 46.85 L 41.60 47.33 L 41.20 47.79 L 40.77 48.22 L 40.31 48.61 L 39.81 48.89 L 39.27 49.09 L 38.76 49.35 L 38.30 49.72 L 37.86 50.15 L 37.42 50.58 L 36.98 51.02 L 36.54 51.46 L 36.11 51.89 L 35.68 52.34 L 35.32 52.80 L 35.07 53.32 L 34.88 53.86 L 34.58 54.35 L 34.19 54.81 L 33.76 55.25 L 33.38 55.71 L 33.12 56.22 L 33.02 56.80 L 32.97 57.40 L 32.83 57.96 L 32.54 58.45 L 32.23 58.95 L 32.06 59.49 L 32.01 60.09 L 32.00 60.70 L 31.97 61.31 L 31.85 61.88 L 31.58 62.39 L 31.27 62.87 L 31.12 63.38 L 31.23 63.79 L 31.63 64.04 L 32.13 64.27 L 32.60 64.62 L 33.04 65.04 L 33.49 65.46 L 33.97 65.79 L 34.50 66.00 L 35.03 66.21 L 35.52 66.52 L 36.02 66.81 L 36.58 66.96 L 37.17 66.98 L 37.75 66.88 L 38.26 66.64 L 38.73 66.26 L 39.17 65.83 L 39.60 65.40 L 40.04 64.96 L 40.48 64.52 L 40.92 64.08 L 41.35 63.65 L 41.79 63.21 L 42.23 62.77 L 42.67 62.33 L 43.10 61.90 L 43.54 61.46 L 43.98 61.02 L 44.41 60.59 L 44.85 60.15 L 45.29 59.71 L 45.73 59.27 L 46.16 58.84 L 46.60 58.40 L 47.04 57.96 L 47.48 57.55 L 47.96 57.21 L 48.44 56.98 L 48.83 56.71 L 49.07 56.28 L 49.33 55.79 L 49.70 55.32 L 50.12 54.88 L 50.53 54.43 L 50.85 53.94 L 51.05 53.41 L 51.27 52.88 L 51.62 52.41 L 52.04 51.96 L 52.47 51.53 L 52.91 51.09 L 53.35 50.65 L 53.79 50.21 L 54.23 49.78 L 54.68 49.39 L 55.17 49.10 L 55.61 48.87 L 55.89 48.51 L 55.99 47.99 L 56.08 47.42 L 56.27 46.88 L 56.62 46.41 L 57.04 45.96 L 57.45 45.52 L 57.78 45.03 L 57.94 44.48 L 57.98 43.89 L 57.90 43.31 L 57.68 42.78 L 57.37 42.30 L 57.10 41.79 L 56.91 41.25 L 56.64 40.74 L 56.26 40.28 L 55.83 39.84 L 55.38 39.44 L 54.89 39.15 L 54.32 39.03 L 53.71 39.00 L 53.09 39.00 L 52.47 39.00 L 51.86 39.00 L 51.24 39.00 L 50.63 39.03 Z M 99.07 20.16 L 98.57 20.47 L 98.12 20.89 L 97.67 21.33 L 97.23 21.77 L 96.79 22.21 L 96.34 22.66 L 95.90 23.10 L 95.46 23.54 L 95.02 23.98 L 94.57 24.41 L 94.09 24.75 L 93.59 24.99 L 93.19 25.26 L 92.94 25.69 L 92.68 26.19 L 92.32 26.66 L 91.89 27.11 L 91.44 27.53 L 90.94 27.84 L 90.37 27.97 L 89.75 28.00 L 89.13 28.01 L 88.52 28.05 L 87.97 28.22 L 87.48 28.55 L 87.03 28.97 L 86.58 29.40 L 86.10 29.75 L 85.60 29.98 L 85.19 30.25 L 84.94 30.67 L 84.69 31.18 L 84.33 31.65 L 83.90 32.10 L 83.48 32.55 L 83.16 33.04 L 82.96 33.59 L 82.73 34.11 L 82.36 34.56 L 81.88 34.87 L 81.34 35.07 L 80.81 35.32 L 80.34 35.68 L 79.89 36.11 L 79.47 36.57 L 79.15 37.06 L 78.95 37.60 L 78.72 38.13 L 78.35 38.56 L 77.85 38.86 L 77.28 38.98 L 76.67 39.02 L 76.10 39.15 L 75.62 39.46 L 75.26 39.91 L 75.03 40.44 L 74.82 40.98 L 74.49 41.45 L 74.02 41.79 L 73.49 42.01 L 72.95 42.23 L 72.49 42.58 L 72.16 43.05 L 71.95 43.59 L 71.73 44.11 L 71.36 44.56 L 70.87 44.87 L 70.33 45.07 L 69.82 45.32 L 69.40 45.71 L 69.11 46.21 L 68.91 46.75 L 68.63 47.25 L 68.22 47.65 L 67.74 47.92 L 67.32 48.16 L 67.15 48.50 L 67.33 48.82 L 67.79 48.97 L 68.38 49.00 L 68.99 48.98 L 69.52 48.88 L 69.87 48.60 L 70.11 48.15 L 70.42 47.68 L 70.85 47.30 L 71.37 47.06 L 71.91 46.86 L 72.41 46.54 L 72.86 46.13 L 73.31 45.71 L 73.79 45.34 L 74.31 45.13 L 74.85 45.16 L 75.33 45.43 L 75.71 45.86 L 75.92 46.40 L 75.99 46.99 L 76.00 47.62 L 76.00 48.24 L 75.99 48.86 L 75.95 49.47 L 75.78 50.03 L 75.44 50.49 L 74.97 50.83 L 74.43 51.04 L 73.90 51.26 L 73.46 51.63 L 73.15 52.11 L 73.02 52.68 L 72.98 53.29 L 72.85 53.86 L 72.56 54.35 L 72.12 54.72 L 71.59 54.89 L 71.05 54.82 L 70.58 54.51 L 70.23 54.06 L 69.99 53.57 L 69.71 53.19 L 69.24 53.03 L 68.64 53.00 L 68.02 53.00 L 67.39 53.00 L 66.78 52.98 L 66.20 52.87 L 65.70 52.59 L 65.31 52.17 L 65.06 51.67 L 64.80 51.26 L 64.37 51.06 L 63.80 51.03 L 63.23 51.12 L 62.72 51.39 L 62.33 51.81 L 62.10 52.33 L 62.03 52.91 L 62.09 53.45 L 62.34 53.84 L 62.78 54.09 L 63.28 54.35 L 63.77 54.67 L 64.29 54.92 L 64.84 55.12 L 65.35 55.40 L 65.84 55.71 L 66.38 55.91 L 66.97 56.00 L 67.57 56.08 L 68.11 56.27 L 68.55 56.64 L 68.85 57.13 L 68.97 57.70 L 68.97 58.31 L 68.85 58.88 L 68.55 59.37 L 68.10 59.73 L 67.57 59.93 L 66.98 60.01 L 66.47 60.12 L 66.14 60.43 L 66.01 60.93 L 65.94 61.51 L 65.76 62.06 L 65.41 62.52 L 64.93 62.84 L 64.36 62.97 L 63.75 63.00 L 63.12 63.00 L 62.50 63.00 L 61.88 63.02 L 61.29 63.11 L 60.76 63.35 L 60.29 63.72 L 59.85 64.16 L 59.44 64.61 L 59.16 65.11 L 59.12 65.65 L 59.31 66.18 L 59.62 66.68 L 59.87 67.20 L 59.98 67.78 L 60.04 68.35 L 60.22 68.76 L 60.57 68.84 L 60.88 68.59 L 61.12 68.13 L 61.43 67.66 L 61.86 67.29 L 62.39 67.11 L 62.93 67.17 L 63.40 67.48 L 63.75 67.93 L 63.94 68.48 L 63.99 69.08 L 64.00 69.71 L 64.03 70.32 L 64.15 70.89 L 64.46 71.38 L 64.91 71.74 L 65.45 71.93 L 66.05 71.97 L 66.64 71.91 L 67.16 71.69 L 67.59 71.31 L 67.89 70.81 L 68.09 70.27 L 68.36 69.77 L 68.76 69.36 L 69.24 69.08 L 69.68 68.84 L 69.97 68.46 L 70.20 67.97 L 70.51 67.48 L 70.81 66.98 L 70.96 66.42 L 71.02 65.81 L 71.12 65.23 L 71.39 64.73 L 71.80 64.33 L 72.32 64.08 L 72.86 63.87 L 73.36 63.57 L 73.82 63.17 L 74.26 62.74 L 74.71 62.29 L 75.15 61.85 L 75.59 61.41 L 76.03 60.97 L 76.48 60.52 L 76.92 60.08 L 77.36 59.64 L 77.81 59.19 L 78.25 58.75 L 78.69 58.31 L 79.13 57.87 L 79.54 57.41 L 79.86 56.92 L 80.06 56.37 L 80.30 55.84 L 80.66 55.37 L 81.08 54.92 L 81.52 54.48 L 81.97 54.03 L 82.39 53.58 L 82.74 53.10 L 82.96 52.57 L 83.17 52.03 L 83.50 51.54 L 83.92 51.08 L 84.34 50.63 L 84.70 50.16 L 84.94 49.63 L 85.14 49.09 L 85.46 48.59 L 85.87 48.14 L 86.31 47.71 L 86.78 47.33 L 87.30 47.08 L 87.85 46.88 L 88.35 46.58 L 88.81 46.18 L 89.25 45.74 L 89.63 45.27 L 89.90 44.76 L 90.10 44.22 L 90.38 43.71 L 90.77 43.24 L 91.20 42.80 L 91.65 42.35 L 92.09 41.91 L 92.51 41.46 L 92.82 40.96 L 92.96 40.39 L 93.00 39.78 L 93.01 39.16 L 93.05 38.55 L 93.21 37.99 L 93.53 37.50 L 93.95 37.05 L 94.39 36.61 L 94.84 36.16 L 95.28 35.72 L 95.72 35.28 L 96.17 34.83 L 96.61 34.39 L 97.05 33.95 L 97.47 33.50 L 97.80 33.01 L 98.01 32.47 L 98.23 31.94 L 98.58 31.45 L 99.00 31.00 L 99.44 30.56 L 99.88 30.12 L 100.33 29.67 L 100.77 29.23 L 101.21 28.79 L 101.65 28.35 L 102.10 27.90 L 102.54 27.46 L 102.98 27.02 L 103.40 26.57 L 103.75 26.08 L 103.93 25.53 L 103.99 24.93 L 104.00 24.31 L 103.96 23.72 L 103.79 23.26 L 103.40 22.99 L 102.91 22.75 L 102.46 22.39 L 102.14 21.91 L 101.94 21.37 L 101.70 20.85 L 101.32 20.42 L 100.82 20.14 L 100.24 20.03 L 99.64 20.03 Z M 66.00 64.00 L 66.42 63.61 L 66.86 63.28 L 67.36 63.08 L 67.91 63.02 L 68.47 63.04 L 68.99 63.18 L 69.43 63.49 L 69.76 63.91 L 69.93 64.42 L 69.98 64.97 L 69.95 65.53 L 69.79 66.04 L 69.47 66.47 L 69.04 66.79 L 68.53 66.95 L 67.97 66.99 L 67.39 67.00 L 66.82 66.98 L 66.27 66.90 L 65.79 66.68 L 65.39 66.31 L 65.14 65.86 L 65.10 65.35 L 65.28 64.86 L 65.61 64.42 Z M 68.13 60.05 L 68.37 59.67 L 68.70 59.34 L 69.09 59.12 L 69.54 59.02 L 70.01 59.00 L 70.49 59.02 L 70.94 59.12 L 71.32 59.36 L 71.65 59.69 L 71.88 60.08 L 71.96 60.51 L 71.87 60.95 L 71.63 61.33 L 71.30 61.66 L 70.91 61.88 L 70.46 61.98 L 69.99 62.00 L 69.51 61.98 L 69.06 61.88 L 68.68 61.64 L 68.35 61.31 L 68.12 60.92 L 68.04 60.49 Z M 74.05 18.16 L 73.59 18.42 L 73.14 18.73 L 72.65 18.94 L 72.14 19.12 L 71.67 19.39 L 71.24 19.76 L 70.83 20.17 L 70.45 20.59 L 70.16 21.05 L 70.03 21.58 L 69.99 22.14 L 69.91 22.69 L 69.69 23.18 L 69.34 23.59 L 68.88 23.86 L 68.35 23.98 L 67.78 24.00 L 67.20 24.00 L 66.62 24.00 L 66.04 24.01 L 65.48 24.05 L 64.96 24.21 L 64.51 24.52 L 64.09 24.91 L 63.68 25.32 L 63.27 25.73 L 62.86 26.14 L 62.47 26.56 L 62.18 27.02 L 62.09 27.53 L 62.21 28.03 L 62.52 28.46 L 62.95 28.78 L 63.46 28.95 L 64.02 29.00 L 64.58 29.06 L 65.08 29.24 L 65.51 29.57 L 65.82 30.01 L 65.96 30.53 L 66.00 31.10 L 66.00 31.68 L 66.00 32.26 L 66.00 32.84 L 66.00 33.42 L 66.01 33.99 L 66.09 34.49 L 66.32 34.82 L 66.73 34.88 L 67.19 34.69 L 67.59 34.33 L 67.88 33.88 L 68.05 33.37 L 68.26 32.88 L 68.60 32.46 L 69.05 32.15 L 69.55 31.97 L 70.05 31.78 L 70.50 31.47 L 70.92 31.07 L 71.32 30.66 L 71.67 30.23 L 71.92 29.74 L 72.09 29.24 L 72.33 28.75 L 72.64 28.30 L 72.88 27.82 L 72.98 27.28 L 72.98 26.72 L 72.88 26.18 L 72.64 25.70 L 72.33 25.24 L 72.12 24.76 L 72.12 24.25 L 72.33 23.78 L 72.70 23.39 L 73.17 23.13 L 73.70 23.02 L 74.25 22.97 L 74.69 22.83 L 74.95 22.50 L 75.15 22.04 L 75.43 21.58 L 75.73 21.13 L 75.90 20.63 L 75.86 20.12 L 75.61 19.65 L 75.30 19.20 L 75.07 18.73 L 74.85 18.32 L 74.51 18.11 Z M 118.85 4.37 L 118.55 4.46 L 118.12 4.74 L 117.62 4.95 L 117.11 5.13 L 116.64 5.42 L 116.20 5.80 L 115.78 6.21 L 115.35 6.59 L 114.88 6.88 L 114.36 7.06 L 113.86 7.27 L 113.40 7.58 L 112.93 7.86 L 112.41 8.04 L 111.91 8.25 L 111.45 8.58 L 111.03 8.98 L 110.61 9.39 L 110.19 9.81 L 109.77 10.23 L 109.36 10.64 L 108.94 11.06 L 108.54 11.49 L 108.22 11.95 L 108.06 12.47 L 108.02 13.02 L 108.10 13.52 L 108.36 13.83 L 108.78 13.87 L 109.26 13.66 L 109.72 13.36 L 110.20 13.13 L 110.72 13.12 L 111.20 13.32 L 111.60 13.69 L 111.87 14.16 L 111.98 14.71 L 111.98 15.28 L 111.87 15.83 L 111.61 16.30 L 111.21 16.67 L 110.75 16.92 L 110.33 17.14 L 110.13 17.46 L 110.22 17.79 L 110.54 17.87 L 110.86 17.66 L 111.08 17.24 L 111.33 16.78 L 111.71 16.38 L 112.16 16.10 L 112.60 15.89 L 112.88 15.57 L 112.99 15.08 L 113.04 14.52 L 113.19 14.00 L 113.51 13.55 L 113.94 13.22 L 114.45 13.02 L 114.97 12.84 L 115.43 12.54 L 115.86 12.14 L 116.27 11.72 L 116.63 11.28 L 116.88 10.80 L 116.98 10.25 L 117.00 9.66 L 117.01 9.08 L 117.05 8.50 L 117.20 7.98 L 117.51 7.52 L 117.91 7.09 L 118.32 6.67 L 118.67 6.22 L 118.90 5.73 L 118.98 5.18 L 118.97 4.65 Z" fill="rgb(34,33,32)" fill-rule="evenodd"/>
  <path d="M 31.05 65.17 L 30.58 65.43 L 30.12 65.74 L 29.63 65.96 L 29.24 66.19 L 29.05 66.61 L 28.99 67.15 L 28.90 67.71 L 28.67 68.20 L 28.30 68.61 L 27.83 68.89 L 27.31 69.07 L 26.82 69.31 L 26.37 69.65 L 25.94 70.06 L 25.52 70.48 L 25.10 70.90 L 24.68 71.32 L 24.26 71.74 L 23.83 72.16 L 23.40 72.56 L 22.94 72.86 L 22.48 73.07 L 22.16 73.35 L 22.03 73.82 L 22.00 74.39 L 21.99 74.98 L 21.94 75.55 L 21.76 76.07 L 21.44 76.53 L 21.03 76.96 L 20.61 77.37 L 20.16 77.71 L 19.66 77.94 L 19.14 78.12 L 18.67 78.41 L 18.31 78.82 L 18.07 79.31 L 17.89 79.83 L 17.63 80.32 L 17.32 80.79 L 17.08 81.28 L 16.90 81.80 L 16.64 82.29 L 16.33 82.76 L 16.13 83.23 L 16.18 83.66 L 16.49 83.88 L 16.95 83.83 L 17.41 83.55 L 17.84 83.16 L 18.27 82.75 L 18.71 82.37 L 19.20 82.12 L 19.75 82.02 L 20.30 81.97 L 20.74 81.81 L 20.99 81.44 L 21.21 80.96 L 21.54 80.52 L 21.97 80.20 L 22.45 79.99 L 22.83 79.74 L 23.05 79.32 L 23.29 78.84 L 23.63 78.39 L 24.04 77.96 L 24.46 77.54 L 24.88 77.12 L 25.30 76.70 L 25.72 76.28 L 26.14 75.86 L 26.56 75.44 L 26.98 75.02 L 27.40 74.60 L 27.82 74.18 L 28.24 73.75 L 28.61 73.31 L 28.89 72.83 L 29.07 72.31 L 29.30 71.81 L 29.61 71.35 L 29.87 70.86 L 29.98 70.31 L 30.02 69.73 L 30.13 69.18 L 30.39 68.71 L 30.79 68.33 L 31.26 68.07 L 31.68 67.85 L 31.91 67.48 L 31.99 66.96 L 32.00 66.38 L 31.97 65.81 L 31.84 65.35 L 31.51 65.12 Z M 61.06 55.15 L 60.59 55.43 L 60.13 55.74 L 59.65 55.96 L 59.25 56.19 L 59.05 56.59 L 59.01 57.13 L 59.00 57.71 L 58.98 58.29 L 58.87 58.84 L 58.61 59.32 L 58.24 59.75 L 57.83 60.17 L 57.44 60.60 L 57.14 61.07 L 56.96 61.58 L 56.76 62.09 L 56.42 62.52 L 55.97 62.82 L 55.44 62.96 L 54.87 63.01 L 54.32 63.09 L 53.82 63.31 L 53.37 63.65 L 52.95 64.05 L 52.55 64.48 L 52.23 64.93 L 52.03 65.44 L 51.85 65.96 L 51.54 66.42 L 51.15 66.85 L 50.73 67.26 L 50.30 67.63 L 49.82 67.89 L 49.30 68.07 L 48.81 68.31 L 48.36 68.65 L 47.94 69.06 L 47.53 69.47 L 47.11 69.89 L 46.69 70.31 L 46.28 70.72 L 45.86 71.14 L 45.47 71.57 L 45.16 72.03 L 44.98 72.54 L 44.78 73.05 L 44.48 73.52 L 44.20 73.98 L 44.11 74.45 L 44.28 74.81 L 44.71 74.97 L 45.26 74.98 L 45.81 74.88 L 46.30 74.64 L 46.76 74.33 L 47.25 74.12 L 47.76 74.13 L 48.24 74.35 L 48.63 74.73 L 48.88 75.20 L 48.98 75.75 L 49.03 76.30 L 49.18 76.72 L 49.51 76.87 L 49.84 76.71 L 50.05 76.31 L 50.29 75.84 L 50.63 75.39 L 51.03 74.97 L 51.46 74.57 L 51.91 74.25 L 52.41 74.09 L 52.93 74.16 L 53.38 74.44 L 53.72 74.87 L 53.92 75.37 L 53.98 75.93 L 53.95 76.50 L 53.80 77.02 L 53.51 77.49 L 53.22 77.96 L 53.09 78.47 L 53.18 78.98 L 53.46 79.45 L 53.76 79.91 L 53.97 80.40 L 54.19 80.77 L 54.53 80.87 L 54.84 80.66 L 54.97 80.21 L 55.02 79.65 L 55.14 79.12 L 55.42 78.65 L 55.84 78.30 L 56.33 78.09 L 56.89 78.01 L 57.46 77.96 L 57.99 77.82 L 58.45 77.51 L 58.88 77.12 L 59.30 76.70 L 59.71 76.29 L 60.13 75.87 L 60.55 75.45 L 60.96 75.04 L 61.39 74.63 L 61.83 74.29 L 62.33 74.07 L 62.84 73.88 L 63.31 73.61 L 63.67 73.20 L 63.88 72.72 L 63.87 72.21 L 63.65 71.72 L 63.34 71.26 L 63.09 70.79 L 62.87 70.36 L 62.53 70.10 L 62.03 70.02 L 61.45 70.00 L 60.86 70.00 L 60.27 70.00 L 59.68 70.00 L 59.10 69.99 L 58.52 69.96 L 58.00 69.81 L 57.53 69.50 L 57.11 69.10 L 56.70 68.69 L 56.34 68.24 L 56.13 67.76 L 56.13 67.24 L 56.34 66.76 L 56.70 66.32 L 57.10 65.90 L 57.52 65.48 L 57.94 65.06 L 58.34 64.64 L 58.69 64.20 L 58.93 63.70 L 59.11 63.19 L 59.37 62.72 L 59.77 62.34 L 60.25 62.09 L 60.76 61.91 L 61.25 61.66 L 61.69 61.30 L 62.11 60.89 L 62.53 60.50 L 62.99 60.19 L 63.51 60.00 L 64.02 59.81 L 64.48 59.51 L 64.95 59.22 L 65.47 59.05 L 66.03 58.99 L 66.53 58.90 L 66.85 58.63 L 66.97 58.17 L 66.96 57.64 L 66.79 57.23 L 66.41 57.10 L 65.93 57.24 L 65.46 57.53 L 65.00 57.81 L 64.48 57.91 L 63.98 57.79 L 63.54 57.48 L 63.21 57.04 L 63.05 56.52 L 62.99 55.96 L 62.89 55.46 L 62.62 55.14 L 62.16 55.03 L 61.60 55.03 Z M 71.20 48.20 L 70.99 48.57 L 70.80 49.03 L 70.50 49.45 L 70.09 49.76 L 69.61 49.94 L 69.08 50.00 L 68.57 50.05 L 68.20 50.23 L 68.09 50.60 L 68.22 51.06 L 68.53 51.47 L 68.94 51.78 L 69.42 51.97 L 69.91 52.13 L 70.34 52.40 L 70.69 52.79 L 70.92 53.24 L 71.12 53.64 L 71.40 53.87 L 71.73 53.82 L 71.91 53.50 L 71.85 53.05 L 71.59 52.61 L 71.29 52.18 L 71.11 51.72 L 71.12 51.23 L 71.33 50.77 L 71.68 50.39 L 72.12 50.13 L 72.63 50.02 L 73.17 49.99 L 73.70 49.91 L 74.17 49.71 L 74.57 49.38 L 74.84 48.96 L 74.91 48.51 L 74.72 48.17 L 74.31 48.03 L 73.78 48.00 L 73.23 48.00 L 72.67 48.00 L 72.12 48.00 L 71.59 48.04 Z M 60.06 31.15 L 59.60 31.44 L 59.17 31.83 L 58.77 32.24 L 58.39 32.67 L 58.12 33.14 L 57.94 33.65 L 57.72 34.14 L 57.37 34.56 L 56.92 34.85 L 56.39 34.98 L 55.84 35.02 L 55.38 35.14 L 55.13 35.45 L 55.15 35.90 L 55.40 36.36 L 55.70 36.82 L 55.91 37.32 L 55.99 37.87 L 56.03 38.43 L 56.17 38.96 L 56.47 39.41 L 56.89 39.74 L 57.40 39.93 L 57.96 39.99 L 58.54 40.00 L 59.10 39.98 L 59.58 39.88 L 59.90 39.59 L 60.10 39.16 L 60.38 38.69 L 60.75 38.26 L 61.15 37.85 L 61.54 37.42 L 61.84 36.97 L 62.02 36.46 L 62.22 35.95 L 62.53 35.50 L 62.93 35.08 L 63.34 34.66 L 63.75 34.25 L 64.16 33.84 L 64.55 33.41 L 64.83 32.95 L 64.91 32.44 L 64.77 31.94 L 64.45 31.51 L 64.01 31.20 L 63.49 31.05 L 62.92 31.01 L 62.34 31.00 L 61.75 31.00 L 61.17 31.00 L 60.60 31.03 Z M 106.19 16.21 L 105.99 16.57 L 105.81 17.02 L 105.51 17.44 L 105.11 17.76 L 104.64 17.95 L 104.15 18.11 L 103.71 18.37 L 103.35 18.74 L 103.11 19.18 L 103.02 19.70 L 103.00 20.24 L 103.00 20.79 L 103.03 21.32 L 103.17 21.73 L 103.50 21.91 L 103.95 21.85 L 104.39 21.60 L 104.81 21.29 L 105.26 21.07 L 105.66 20.88 L 105.90 20.56 L 105.99 20.09 L 106.00 19.55 L 106.01 19.00 L 106.05 18.47 L 106.19 17.98 L 106.47 17.54 L 106.76 17.11 L 106.90 16.66 L 106.82 16.27 L 106.52 16.10 Z" fill="rgb(83,83,81)" fill-rule="evenodd"/>
  <path d="M 48.05 59.17 L 47.58 59.46 L 47.14 59.86 L 46.71 60.29 L 46.28 60.72 L 45.85 61.15 L 45.42 61.58 L 44.99 62.01 L 44.56 62.44 L 44.13 62.87 L 43.70 63.30 L 43.27 63.73 L 42.84 64.16 L 42.41 64.59 L 41.98 65.02 L 41.55 65.45 L 41.12 65.88 L 40.70 66.30 L 40.27 66.73 L 39.83 67.16 L 39.39 67.56 L 38.91 67.86 L 38.38 68.05 L 37.87 68.28 L 37.40 68.62 L 36.96 69.04 L 36.53 69.44 L 36.06 69.78 L 35.58 70.00 L 35.22 70.24 L 35.16 70.59 L 35.42 70.87 L 35.91 70.98 L 36.48 71.05 L 37.02 71.21 L 37.47 71.54 L 37.80 71.99 L 37.95 72.53 L 37.98 73.12 L 37.90 73.69 L 37.67 74.20 L 37.30 74.61 L 36.81 74.87 L 36.25 74.98 L 35.68 75.03 L 35.25 75.21 L 35.05 75.62 L 35.02 76.17 L 35.11 76.74 L 35.35 77.24 L 35.75 77.63 L 36.23 77.87 L 36.76 77.87 L 37.26 77.64 L 37.71 77.27 L 38.15 76.85 L 38.55 76.41 L 38.86 75.93 L 39.05 75.40 L 39.27 74.89 L 39.62 74.45 L 40.09 74.14 L 40.61 73.95 L 41.13 73.72 L 41.56 73.37 L 41.87 72.90 L 42.06 72.37 L 42.28 71.86 L 42.63 71.39 L 43.04 70.96 L 43.47 70.53 L 43.90 70.10 L 44.32 69.66 L 44.68 69.20 L 44.92 68.70 L 45.11 68.17 L 45.40 67.68 L 45.78 67.23 L 46.21 66.80 L 46.65 66.41 L 47.13 66.12 L 47.58 65.89 L 47.89 65.58 L 48.12 65.13 L 48.42 64.67 L 48.84 64.30 L 49.32 64.05 L 49.74 63.82 L 50.00 63.43 L 50.22 62.94 L 50.53 62.47 L 50.81 61.99 L 50.88 61.52 L 50.67 61.15 L 50.25 60.92 L 49.77 60.66 L 49.37 60.27 L 49.09 59.80 L 48.86 59.37 L 48.52 59.13 Z M 106.19 24.21 L 105.99 24.57 L 105.81 25.03 L 105.53 25.46 L 105.24 25.89 L 105.05 26.36 L 104.89 26.85 L 104.64 27.30 L 104.29 27.70 L 103.90 28.10 L 103.53 28.49 L 103.23 28.92 L 103.09 29.37 L 103.19 29.75 L 103.54 29.94 L 104.04 29.99 L 104.59 30.00 L 105.12 29.98 L 105.58 29.89 L 105.87 29.63 L 105.98 29.19 L 106.02 28.66 L 106.12 28.15 L 106.36 27.70 L 106.66 27.27 L 106.89 26.82 L 106.98 26.30 L 107.00 25.76 L 107.00 25.21 L 106.97 24.68 L 106.83 24.28 L 106.52 24.10 Z" fill="rgb(251,251,251)" fill-rule="evenodd"/>
</svg>