<svg xmlns="http://www.w3.org/2000/svg" width="135" height="139" viewBox="0 0 135 139" role="img" aria-label="31_icons_31">
  <title>31_icons_31</title>
  <path d="M 66.05 112.17 L 65.57 112.44 L 65.09 112.75 L 64.56 112.93 L 63.98 112.99 L 63.37 113.00 L 62.77 113.00 L 62.16 113.00 L 61.55 113.00 L 60.94 113.00 L 60.33 113.00 L 59.73 113.02 L 59.17 113.13 L 58.69 113.40 L 58.32 113.82 L 58.09 114.33 L 58.01 114.90 L 57.95 115.49 L 57.79 116.03 L 57.47 116.50 L 57.06 116.94 L 56.63 117.37 L 56.20 117.80 L 55.77 118.23 L 55.34 118.66 L 54.91 119.09 L 54.48 119.52 L 54.05 119.95 L 53.62 120.38 L 53.19 120.81 L 52.76 121.24 L 52.33 121.67 L 51.90 122.10 L 51.47 122.53 L 51.04 122.96 L 50.62 123.40 L 50.28 123.86 L 50.06 124.38 L 49.86 124.91 L 49.56 125.39 L 49.16 125.83 L 48.74 126.27 L 48.37 126.72 L 48.14 127.20 L 48.18 127.64 L 48.50 127.90 L 49.01 127.97 L 49.58 127.93 L 50.11 127.74 L 50.58 127.40 L 51.01 126.99 L 51.45 126.58 L 51.92 126.24 L 52.44 126.03 L 52.97 125.83 L 53.42 125.51 L 53.77 125.06 L 53.98 124.54 L 54.17 124.02 L 54.49 123.54 L 54.90 123.10 L 55.33 122.67 L 55.76 122.24 L 56.18 121.81 L 56.58 121.37 L 56.87 120.88 L 57.06 120.35 L 57.30 119.84 L 57.66 119.42 L 58.12 119.12 L 58.58 118.90 L 58.89 118.58 L 59.12 118.13 L 59.42 117.67 L 59.84 117.30 L 60.35 117.06 L 60.88 116.87 L 61.37 116.60 L 61.85 116.29 L 62.37 116.08 L 62.95 116.00 L 63.53 115.94 L 64.06 115.76 L 64.54 115.43 L 64.97 115.02 L 65.40 114.60 L 65.83 114.17 L 66.26 113.73 L 66.63 113.28 L 66.86 112.80 L 66.82 112.37 L 66.51 112.13 Z M 75.05 101.16 L 74.60 101.41 L 74.16 101.72 L 73.68 101.94 L 73.18 102.10 L 72.71 102.35 L 72.27 102.66 L 71.80 102.90 L 71.30 103.07 L 70.83 103.29 L 70.38 103.59 L 69.92 103.86 L 69.41 103.98 L 68.86 104.02 L 68.40 104.12 L 68.15 104.38 L 68.18 104.72 L 68.51 104.92 L 69.01 104.98 L 69.55 104.94 L 70.05 104.79 L 70.50 104.50 L 70.95 104.21 L 71.44 104.03 L 71.94 103.86 L 72.40 103.59 L 72.84 103.28 L 73.32 103.06 L 73.82 102.90 L 74.29 102.65 L 74.73 102.34 L 75.18 102.09 L 75.61 101.90 L 75.85 101.62 L 75.82 101.29 L 75.50 101.10 Z M 41.21 90.22 L 40.96 90.62 L 40.73 91.11 L 40.37 91.55 L 39.90 91.85 L 39.34 91.98 L 38.76 92.03 L 38.30 92.18 L 38.02 92.55 L 37.80 93.03 L 37.47 93.50 L 37.05 93.94 L 36.62 94.38 L 36.19 94.81 L 35.76 95.25 L 35.38 95.70 L 35.11 96.20 L 34.91 96.74 L 34.65 97.24 L 34.28 97.70 L 33.86 98.14 L 33.41 98.55 L 32.93 98.86 L 32.39 99.05 L 31.88 99.28 L 31.44 99.64 L 31.13 100.11 L 30.94 100.64 L 30.71 101.16 L 30.35 101.63 L 29.93 102.07 L 29.50 102.50 L 29.07 102.93 L 28.63 103.37 L 28.20 103.80 L 27.76 104.24 L 27.33 104.67 L 26.90 105.10 L 26.49 105.55 L 26.17 106.03 L 25.97 106.56 L 25.75 107.08 L 25.40 107.53 L 24.94 107.85 L 24.41 108.05 L 23.89 108.27 L 23.45 108.63 L 23.14 109.10 L 22.94 109.63 L 22.71 110.15 L 22.36 110.62 L 21.94 111.06 L 21.53 111.50 L 21.21 111.98 L 21.05 112.53 L 20.99 113.12 L 20.90 113.69 L 20.67 114.21 L 20.31 114.67 L 19.89 115.11 L 19.45 115.55 L 19.02 115.98 L 18.59 116.41 L 18.15 116.85 L 17.73 117.29 L 17.36 117.75 L 17.09 118.25 L 16.90 118.78 L 16.64 119.29 L 16.33 119.77 L 16.08 120.29 L 15.89 120.82 L 15.62 121.32 L 15.31 121.81 L 15.12 122.32 L 15.15 122.86 L 15.40 123.35 L 15.71 123.84 L 15.94 124.36 L 16.13 124.89 L 16.42 125.39 L 16.72 125.87 L 16.89 126.39 L 16.83 126.93 L 16.54 127.41 L 16.14 127.86 L 15.70 128.28 L 15.24 128.65 L 14.73 128.89 L 14.15 128.98 L 13.55 129.00 L 12.94 128.99 L 12.36 128.91 L 11.83 128.70 L 11.35 128.40 L 10.86 128.16 L 10.41 128.16 L 10.10 128.45 L 9.87 128.91 L 9.57 129.38 L 9.17 129.83 L 8.74 130.26 L 8.30 130.70 L 7.87 131.13 L 7.43 131.57 L 7.00 132.00 L 6.57 132.43 L 6.13 132.87 L 5.71 133.31 L 5.34 133.77 L 5.09 134.27 L 4.89 134.81 L 4.63 135.31 L 4.31 135.79 L 4.08 136.31 L 3.88 136.84 L 3.63 137.32 L 3.43 137.69 L 3.54 137.91 L 3.97 137.99 L 4.55 138.00 L 5.16 138.00 L 5.77 138.00 L 6.38 137.97 L 6.93 137.84 L 7.42 137.54 L 7.87 137.13 L 8.30 136.70 L 8.74 136.26 L 9.17 135.83 L 9.60 135.40 L 10.04 134.96 L 10.45 134.52 L 10.78 134.04 L 10.99 133.52 L 11.20 132.99 L 11.53 132.53 L 11.99 132.20 L 12.52 131.99 L 13.04 131.78 L 13.53 131.48 L 14.02 131.18 L 14.57 131.04 L 15.17 130.99 L 15.74 130.89 L 16.25 130.64 L 16.71 130.27 L 17.15 129.85 L 17.58 129.42 L 18.02 128.98 L 18.43 128.54 L 18.76 128.06 L 18.94 127.52 L 19.01 126.94 L 19.09 126.36 L 19.31 125.84 L 19.68 125.41 L 20.16 125.12 L 20.69 124.92 L 21.20 124.68 L 21.66 124.32 L 22.10 123.90 L 22.54 123.46 L 22.97 123.03 L 23.41 122.61 L 23.88 122.27 L 24.41 122.05 L 24.94 121.85 L 25.42 121.54 L 25.87 121.13 L 26.30 120.70 L 26.73 120.27 L 27.17 119.83 L 27.60 119.40 L 28.04 118.96 L 28.47 118.53 L 28.90 118.10 L 29.34 117.68 L 29.81 117.32 L 30.30 117.06 L 30.72 116.82 L 30.99 116.44 L 31.21 115.95 L 31.55 115.48 L 31.96 115.04 L 32.40 114.62 L 32.87 114.28 L 33.39 114.05 L 33.93 113.86 L 34.41 113.55 L 34.86 113.14 L 35.29 112.71 L 35.72 112.28 L 36.16 111.85 L 36.61 111.44 L 37.09 111.14 L 37.63 110.94 L 38.15 110.71 L 38.61 110.36 L 39.05 109.94 L 39.49 109.51 L 39.92 109.08 L 40.36 108.64 L 40.79 108.21 L 41.22 107.78 L 41.66 107.34 L 42.09 106.91 L 42.53 106.47 L 42.96 106.04 L 43.39 105.61 L 43.83 105.17 L 44.26 104.74 L 44.69 104.31 L 45.13 103.87 L 45.56 103.44 L 45.99 103.00 L 46.41 102.56 L 46.75 102.09 L 46.93 101.55 L 46.99 100.96 L 47.00 100.35 L 47.00 99.74 L 47.00 99.12 L 47.00 98.51 L 47.02 97.90 L 47.10 97.32 L 47.31 96.80 L 47.62 96.31 L 47.87 95.80 L 47.98 95.23 L 48.00 94.63 L 48.00 94.02 L 48.00 93.40 L 48.00 92.79 L 47.99 92.18 L 47.95 91.62 L 47.74 91.21 L 47.30 91.04 L 46.72 91.00 L 46.11 90.99 L 45.52 90.95 L 44.97 90.79 L 44.48 90.48 L 43.99 90.19 L 43.44 90.04 L 42.84 90.00 L 42.23 90.00 L 41.65 90.04 Z M 90.06 84.15 L 89.59 84.44 L 89.17 84.83 L 88.75 85.25 L 88.33 85.67 L 87.92 86.08 L 87.49 86.48 L 87.04 86.79 L 86.56 87.00 L 86.18 87.24 L 85.96 87.65 L 85.73 88.12 L 85.39 88.55 L 84.94 88.86 L 84.43 89.04 L 83.92 89.24 L 83.49 89.57 L 83.18 90.01 L 83.04 90.54 L 83.02 91.10 L 83.13 91.58 L 83.42 91.87 L 83.90 91.98 L 84.47 92.00 L 85.05 92.01 L 85.62 92.08 L 86.13 92.27 L 86.59 92.57 L 87.06 92.84 L 87.57 92.91 L 88.08 92.76 L 88.54 92.46 L 89.01 92.17 L 89.52 91.99 L 90.03 91.79 L 90.47 91.47 L 90.78 91.03 L 90.91 90.52 L 90.81 90.01 L 90.54 89.54 L 90.24 89.08 L 90.09 88.57 L 90.16 88.06 L 90.45 87.61 L 90.88 87.27 L 91.37 87.05 L 91.89 86.87 L 92.34 86.58 L 92.70 86.17 L 92.89 85.68 L 92.86 85.17 L 92.61 84.70 L 92.21 84.33 L 91.72 84.10 L 91.17 84.02 L 90.60 84.03 Z M 104.05 60.16 L 103.59 60.44 L 103.17 60.83 L 102.75 61.25 L 102.34 61.66 L 101.92 62.08 L 101.51 62.49 L 101.09 62.91 L 100.68 63.32 L 100.26 63.74 L 99.85 64.15 L 99.46 64.58 L 99.16 65.04 L 98.97 65.55 L 98.78 66.06 L 98.45 66.49 L 98.02 66.81 L 97.55 67.02 L 97.17 67.26 L 96.95 67.67 L 96.72 68.14 L 96.37 68.56 L 95.92 68.86 L 95.41 69.04 L 94.91 69.25 L 94.48 69.58 L 94.17 70.02 L 93.98 70.53 L 93.79 71.04 L 93.46 71.48 L 93.03 71.80 L 92.52 71.99 L 92.01 72.18 L 91.57 72.49 L 91.24 72.92 L 91.06 73.44 L 91.01 74.00 L 91.00 74.58 L 91.00 75.17 L 91.00 75.76 L 91.00 76.35 L 91.00 76.93 L 91.00 77.52 L 91.02 78.09 L 91.12 78.57 L 91.41 78.87 L 91.89 78.98 L 92.46 79.00 L 93.04 79.01 L 93.60 79.07 L 94.11 79.26 L 94.54 79.60 L 94.84 80.05 L 94.97 80.58 L 95.02 81.13 L 95.13 81.60 L 95.43 81.86 L 95.88 81.85 L 96.34 81.61 L 96.80 81.31 L 97.30 81.10 L 97.86 81.02 L 98.44 81.00 L 99.01 80.99 L 99.52 80.90 L 99.86 80.66 L 100.08 80.23 L 100.33 79.76 L 100.69 79.33 L 101.09 78.91 L 101.52 78.51 L 101.97 78.20 L 102.44 77.99 L 102.82 77.75 L 103.04 77.35 L 103.27 76.87 L 103.60 76.42 L 104.00 76.00 L 104.42 75.60 L 104.87 75.27 L 105.37 75.05 L 105.88 74.87 L 106.35 74.59 L 106.78 74.21 L 107.20 73.80 L 107.62 73.38 L 108.03 72.97 L 108.43 72.55 L 108.75 72.09 L 108.96 71.59 L 109.14 71.08 L 109.43 70.61 L 109.82 70.19 L 110.23 69.77 L 110.65 69.35 L 111.06 68.94 L 111.46 68.52 L 111.78 68.06 L 111.97 67.56 L 112.15 67.04 L 112.45 66.58 L 112.85 66.16 L 113.25 65.74 L 113.62 65.30 L 113.86 64.84 L 113.85 64.41 L 113.58 64.14 L 113.14 64.15 L 112.68 64.39 L 112.25 64.76 L 111.83 65.17 L 111.41 65.56 L 110.94 65.85 L 110.40 65.97 L 109.83 66.00 L 109.24 66.00 L 108.66 65.98 L 108.12 65.86 L 107.64 65.61 L 107.19 65.30 L 106.71 65.12 L 106.30 65.19 L 106.11 65.52 L 106.18 65.98 L 106.45 66.44 L 106.75 66.90 L 106.91 67.41 L 106.84 67.92 L 106.56 68.37 L 106.14 68.72 L 105.65 68.90 L 105.14 68.85 L 104.68 68.60 L 104.31 68.19 L 104.08 67.71 L 103.90 67.20 L 103.65 66.71 L 103.34 66.25 L 103.11 65.76 L 103.02 65.21 L 103.03 64.64 L 103.14 64.10 L 103.43 63.65 L 103.84 63.29 L 104.31 63.06 L 104.71 62.83 L 104.93 62.45 L 104.99 61.93 L 105.00 61.35 L 104.97 60.79 L 104.84 60.34 L 104.51 60.12 Z M 129.05 41.12 L 128.67 41.37 L 128.31 41.69 L 127.97 42.03 L 127.63 42.38 L 127.32 42.73 L 127.11 43.12 L 127.07 43.53 L 127.22 43.84 L 127.57 43.97 L 128.03 44.00 L 128.51 43.98 L 128.95 43.88 L 129.33 43.63 L 129.69 43.31 L 130.03 42.97 L 130.37 42.62 L 130.68 42.27 L 130.89 41.88 L 130.93 41.47 L 130.78 41.16 L 130.43 41.03 L 129.97 41.00 L 129.49 41.02 Z M 132.08 3.28 L 131.14 3.67 L 130.21 4.15 L 129.33 4.76 L 128.51 5.51 L 127.70 6.30 L 126.88 7.06 L 126.01 7.69 L 125.10 8.21 L 124.22 8.84 L 123.40 9.59 L 122.57 10.31 L 121.68 10.91 L 120.78 11.46 L 119.92 12.12 L 119.10 12.87 L 118.24 13.53 L 117.34 14.09 L 116.45 14.68 L 115.61 15.40 L 114.79 16.15 L 113.92 16.78 L 113.05 17.31 L 112.45 17.96 L 112.46 18.54 L 113.07 18.62 L 113.97 18.33 L 114.99 18.10 L 116.05 18.11 L 117.00 18.42 L 117.60 19.09 L 117.65 19.98 L 117.29 20.92 L 116.80 21.81 L 116.11 22.51 L 115.19 22.92 L 114.20 23.25 L 113.29 23.80 L 112.46 24.53 L 111.63 25.26 L 110.75 25.87 L 109.82 26.35 L 108.86 26.74 L 107.85 26.83 L 106.93 26.53 L 106.28 25.84 L 105.89 24.97 L 105.38 24.32 L 104.52 24.06 L 103.45 24.04 L 102.40 24.23 L 101.46 24.70 L 100.62 25.40 L 99.81 26.19 L 99.01 26.99 L 98.21 27.79 L 97.42 28.60 L 96.70 29.43 L 96.09 30.30 L 95.52 31.16 L 94.78 31.83 L 93.94 32.39 L 93.24 33.10 L 92.70 33.95 L 92.04 34.67 L 91.33 35.28 L 90.74 36.03 L 90.09 36.85 L 89.33 37.67 L 88.53 38.47 L 87.73 39.27 L 86.91 40.03 L 86.05 40.67 L 85.13 41.19 L 84.26 41.82 L 83.44 42.57 L 82.63 43.37 L 81.83 44.17 L 81.03 44.97 L 80.23 45.77 L 79.43 46.56 L 78.61 47.30 L 77.82 47.94 L 77.12 48.57 L 76.51 49.33 L 75.85 50.17 L 75.25 51.05 L 74.72 51.93 L 74.07 52.65 L 73.50 53.22 L 73.51 53.78 L 74.11 54.33 L 74.89 54.99 L 75.52 55.83 L 75.82 56.80 L 75.70 57.76 L 75.17 58.55 L 74.57 59.18 L 74.40 59.90 L 74.79 60.71 L 75.35 61.57 L 75.62 62.44 L 75.34 63.24 L 74.59 63.79 L 73.63 64.14 L 72.78 64.62 L 72.24 65.41 L 72.01 66.42 L 71.80 67.45 L 71.32 68.26 L 70.57 68.62 L 69.76 68.39 L 69.07 67.83 L 68.42 67.43 L 67.65 67.52 L 66.89 67.94 L 66.50 68.38 L 66.74 68.62 L 67.47 68.51 L 68.36 68.35 L 69.17 68.60 L 69.62 69.29 L 69.50 70.17 L 68.90 70.99 L 68.08 71.65 L 67.19 72.19 L 66.46 72.86 L 65.88 73.70 L 65.26 74.47 L 64.56 75.11 L 63.94 75.81 L 63.29 76.59 L 62.52 77.30 L 61.60 77.75 L 60.62 77.78 L 59.74 77.40 L 59.08 76.82 L 58.57 76.51 L 58.20 76.85 L 57.99 77.72 L 57.75 78.73 L 57.22 79.63 L 56.45 80.34 L 55.53 80.83 L 54.55 81.17 L 53.72 81.67 L 53.19 82.48 L 52.85 83.45 L 52.39 84.39 L 51.69 85.18 L 50.80 85.73 L 49.76 85.95 L 48.65 86.00 L 47.56 86.05 L 46.68 86.29 L 46.25 86.87 L 46.40 87.52 L 47.09 87.82 L 48.03 87.67 L 49.00 87.31 L 50.03 87.08 L 51.13 87.03 L 52.20 87.14 L 53.12 87.52 L 53.72 88.26 L 53.93 89.26 L 53.83 90.31 L 53.44 91.21 L 52.84 91.92 L 52.43 92.57 L 52.49 93.36 L 52.82 94.27 L 53.17 95.12 L 53.67 95.55 L 54.41 95.36 L 55.23 94.73 L 56.00 93.94 L 56.59 93.06 L 56.89 92.06 L 56.90 90.99 L 56.67 89.97 L 56.36 89.01 L 56.39 88.11 L 56.97 87.44 L 57.90 87.16 L 58.85 87.32 L 59.61 87.89 L 60.25 88.53 L 61.06 88.82 L 62.01 88.68 L 62.95 88.27 L 63.89 87.80 L 64.76 87.17 L 65.58 86.41 L 66.38 85.62 L 67.18 84.82 L 67.99 84.01 L 68.79 83.21 L 69.57 82.41 L 70.28 81.57 L 70.73 80.67 L 70.73 79.82 L 70.21 79.25 L 69.29 79.04 L 68.20 79.00 L 67.10 78.93 L 66.11 78.66 L 65.47 78.02 L 65.37 77.16 L 65.83 76.30 L 66.57 75.57 L 67.34 74.95 L 68.01 74.30 L 68.68 73.67 L 69.50 73.36 L 70.41 73.48 L 71.35 73.67 L 72.28 73.52 L 73.22 73.11 L 74.16 72.65 L 75.13 72.25 L 76.18 72.05 L 77.29 72.00 L 78.42 72.00 L 79.54 71.96 L 80.59 71.78 L 81.53 71.30 L 82.37 70.60 L 83.18 69.82 L 83.94 69.00 L 84.56 68.12 L 84.89 67.13 L 85.00 66.04 L 85.10 64.95 L 85.41 63.98 L 86.03 63.25 L 86.73 62.64 L 87.33 61.90 L 88.00 61.10 L 88.82 60.43 L 89.73 59.88 L 90.61 59.28 L 91.44 58.54 L 92.25 57.75 L 93.05 56.95 L 93.85 56.15 L 94.66 55.37 L 95.49 54.65 L 96.37 54.06 L 97.21 53.47 L 97.86 52.71 L 98.41 51.83 L 99.04 50.96 L 99.65 50.08 L 100.17 49.16 L 100.79 48.29 L 101.53 47.46 L 102.25 46.62 L 102.77 45.71 L 103.11 44.71 L 103.52 43.75 L 104.16 42.88 L 104.90 42.06 L 105.56 41.20 L 106.11 40.29 L 106.72 39.43 L 107.49 38.70 L 108.41 38.22 L 109.45 38.00 L 110.50 37.80 L 111.45 37.35 L 112.30 36.67 L 113.06 35.87 L 113.58 35.04 L 113.54 34.30 L 112.98 33.69 L 112.42 32.97 L 112.34 32.08 L 112.67 31.15 L 113.15 30.22 L 113.77 29.36 L 114.55 28.68 L 115.42 28.37 L 116.25 28.61 L 116.94 29.20 L 117.64 29.69 L 118.49 29.76 L 119.41 29.38 L 120.26 28.71 L 121.07 27.93 L 121.87 27.13 L 122.67 26.33 L 123.47 25.52 L 124.21 24.70 L 124.83 23.82 L 125.31 22.89 L 125.71 21.95 L 125.81 21.01 L 125.49 20.21 L 124.86 19.57 L 124.38 18.82 L 124.44 17.93 L 124.99 17.07 L 125.76 16.28 L 126.60 15.58 L 127.50 15.00 L 128.39 14.43 L 129.23 13.73 L 130.01 12.94 L 130.65 12.07 L 131.14 11.14 L 131.62 10.21 L 132.09 9.27 L 132.54 8.32 L 132.89 7.34 L 133.19 6.33 L 133.54 5.35 L 133.79 4.39 L 133.64 3.59 L 133.00 3.20 Z M 61.13 84.05 L 61.37 83.67 L 61.70 83.34 L 62.09 83.12 L 62.53 83.04 L 62.96 83.13 L 63.34 83.38 L 63.66 83.71 L 63.89 84.10 L 63.98 84.55 L 64.00 85.03 L 63.98 85.51 L 63.87 85.95 L 63.63 86.33 L 63.30 86.66 L 62.91 86.88 L 62.47 86.96 L 62.04 86.87 L 61.66 86.62 L 61.34 86.29 L 61.11 85.90 L 61.02 85.45 L 61.00 84.97 L 61.02 84.49 Z" fill="rgb(33,32,31)" fill-rule="evenodd"/>
  <path d="M 64.06 108.14 L 63.61 108.42 L 63.21 108.79 L 62.82 109.19 L 62.44 109.59 L 62.16 110.03 L 62.03 110.54 L 62.02 111.07 L 62.10 111.55 L 62.35 111.86 L 62.79 111.98 L 63.32 112.00 L 63.88 112.00 L 64.43 111.98 L 64.94 111.86 L 65.39 111.59 L 65.82 111.29 L 66.27 111.06 L 66.68 110.86 L 66.89 110.54 L 66.86 110.10 L 66.62 109.66 L 66.31 109.23 L 66.08 108.78 L 65.88 108.36 L 65.57 108.11 L 65.10 108.02 L 64.57 108.03 Z M 48.19 81.22 L 48.03 81.60 L 47.99 82.12 L 47.92 82.66 L 47.73 83.14 L 47.40 83.55 L 46.97 83.84 L 46.46 83.97 L 45.91 84.01 L 45.37 84.07 L 44.89 84.25 L 44.45 84.57 L 44.05 84.95 L 43.66 85.35 L 43.32 85.78 L 43.08 86.24 L 42.92 86.74 L 42.69 87.21 L 42.39 87.64 L 42.15 88.09 L 42.11 88.53 L 42.33 88.85 L 42.76 88.98 L 43.30 89.02 L 43.82 89.12 L 44.28 89.35 L 44.72 89.65 L 45.19 89.89 L 45.71 89.98 L 46.27 90.00 L 46.83 90.00 L 47.38 90.02 L 47.90 90.14 L 48.34 90.41 L 48.69 90.80 L 48.92 91.27 L 49.09 91.76 L 49.32 92.23 L 49.62 92.67 L 49.87 93.13 L 49.98 93.65 L 50.00 94.20 L 50.00 94.76 L 50.03 95.30 L 50.17 95.72 L 50.51 95.90 L 50.96 95.84 L 51.39 95.56 L 51.72 95.15 L 51.90 94.68 L 51.87 94.19 L 51.65 93.72 L 51.35 93.29 L 51.13 92.82 L 51.10 92.33 L 51.28 91.86 L 51.61 91.45 L 52.03 91.15 L 52.48 90.97 L 52.83 90.73 L 52.97 90.31 L 52.97 89.80 L 52.86 89.35 L 52.55 89.10 L 52.07 89.02 L 51.52 89.00 L 50.96 89.01 L 50.42 89.06 L 49.92 89.23 L 49.48 89.52 L 49.04 89.80 L 48.55 89.92 L 48.05 89.85 L 47.60 89.58 L 47.16 89.28 L 46.69 89.07 L 46.19 88.90 L 45.74 88.65 L 45.37 88.28 L 45.12 87.83 L 45.02 87.30 L 45.02 86.76 L 45.11 86.23 L 45.33 85.77 L 45.69 85.38 L 46.14 85.13 L 46.66 85.02 L 47.19 84.98 L 47.64 84.86 L 47.90 84.55 L 47.99 84.08 L 48.03 83.54 L 48.16 83.03 L 48.43 82.58 L 48.73 82.14 L 48.89 81.69 L 48.82 81.29 L 48.52 81.11 Z M 89.06 79.16 L 88.60 79.42 L 88.15 79.72 L 87.65 79.92 L 87.11 79.99 L 86.54 80.00 L 85.98 80.01 L 85.48 80.09 L 85.15 80.34 L 85.02 80.79 L 84.98 81.33 L 84.87 81.86 L 84.61 82.32 L 84.21 82.68 L 83.74 82.92 L 83.24 83.09 L 82.76 83.33 L 82.33 83.68 L 81.92 84.08 L 81.51 84.47 L 81.06 84.78 L 80.59 84.98 L 80.21 85.20 L 80.04 85.61 L 80.00 86.15 L 80.00 86.73 L 80.00 87.30 L 80.00 87.88 L 79.97 88.44 L 79.84 88.96 L 79.54 89.40 L 79.12 89.73 L 78.63 89.92 L 78.09 89.99 L 77.57 90.05 L 77.18 90.25 L 76.96 90.64 L 76.75 91.11 L 76.42 91.55 L 76.03 91.97 L 75.63 92.37 L 75.22 92.78 L 74.82 93.19 L 74.43 93.60 L 74.15 94.06 L 74.02 94.59 L 73.99 95.15 L 73.91 95.69 L 73.70 96.18 L 73.37 96.61 L 72.97 97.03 L 72.58 97.44 L 72.26 97.88 L 72.07 98.38 L 72.02 98.92 L 72.06 99.44 L 72.26 99.81 L 72.68 99.97 L 73.23 100.00 L 73.80 100.00 L 74.38 100.00 L 74.95 100.01 L 75.51 100.05 L 76.02 100.20 L 76.45 100.51 L 76.77 100.93 L 76.98 101.40 L 77.20 101.79 L 77.60 101.96 L 78.14 101.98 L 78.68 101.91 L 79.17 101.71 L 79.62 101.40 L 80.08 101.13 L 80.59 100.96 L 81.08 100.77 L 81.50 100.44 L 81.81 100.01 L 81.96 99.49 L 82.01 98.94 L 82.07 98.39 L 82.25 97.89 L 82.55 97.44 L 82.84 96.98 L 83.01 96.48 L 83.20 95.98 L 83.51 95.55 L 83.93 95.23 L 84.40 95.02 L 84.78 94.81 L 84.88 94.47 L 84.70 94.15 L 84.29 93.94 L 83.83 93.71 L 83.39 93.37 L 82.98 92.98 L 82.59 92.57 L 82.26 92.13 L 82.08 91.63 L 82.01 91.08 L 82.00 90.51 L 82.01 89.94 L 82.07 89.39 L 82.26 88.89 L 82.59 88.47 L 83.02 88.17 L 83.52 87.99 L 84.02 87.81 L 84.47 87.50 L 84.89 87.11 L 85.30 86.72 L 85.72 86.36 L 86.19 86.10 L 86.70 85.93 L 87.18 85.70 L 87.61 85.37 L 88.03 84.97 L 88.43 84.57 L 88.84 84.16 L 89.25 83.76 L 89.67 83.39 L 90.12 83.11 L 90.56 82.91 L 90.86 82.63 L 90.98 82.17 L 91.00 81.61 L 90.99 81.04 L 90.95 80.48 L 90.80 79.97 L 90.48 79.54 L 90.06 79.23 L 89.56 79.08 Z M 69.21 74.21 L 69.09 74.57 L 69.20 75.04 L 69.48 75.48 L 69.77 75.92 L 69.94 76.41 L 70.00 76.94 L 70.05 77.45 L 70.24 77.81 L 70.65 77.97 L 71.17 77.98 L 71.70 77.91 L 72.18 77.71 L 72.60 77.38 L 73.00 77.00 L 73.38 76.60 L 73.71 76.18 L 73.89 75.73 L 73.84 75.32 L 73.53 75.09 L 73.05 75.01 L 72.50 75.00 L 71.94 74.99 L 71.41 74.94 L 70.92 74.77 L 70.48 74.48 L 70.04 74.20 L 69.57 74.09 Z M 71.20 56.20 L 70.98 56.58 L 70.79 57.05 L 70.47 57.47 L 70.05 57.79 L 69.56 57.97 L 69.06 58.14 L 68.62 58.43 L 68.28 58.84 L 68.06 59.32 L 67.90 59.82 L 67.64 60.27 L 67.26 60.65 L 66.82 60.91 L 66.39 61.10 L 66.10 61.40 L 65.90 61.83 L 65.64 62.28 L 65.29 62.70 L 64.89 63.11 L 64.48 63.49 L 64.04 63.80 L 63.54 63.98 L 63.04 64.15 L 62.60 64.44 L 62.18 64.82 L 61.78 65.22 L 61.41 65.63 L 61.14 66.09 L 61.02 66.61 L 60.99 67.17 L 60.91 67.70 L 60.70 68.18 L 60.35 68.58 L 59.91 68.86 L 59.39 68.98 L 58.85 69.02 L 58.39 69.13 L 58.09 69.42 L 57.90 69.85 L 57.64 70.30 L 57.34 70.74 L 57.11 71.22 L 57.02 71.75 L 56.98 72.30 L 56.88 72.83 L 56.63 73.29 L 56.25 73.65 L 55.78 73.89 L 55.25 73.98 L 54.72 74.03 L 54.29 74.17 L 54.07 74.52 L 54.00 75.02 L 53.94 75.56 L 53.78 76.06 L 53.49 76.51 L 53.20 76.96 L 53.05 77.47 L 53.00 78.02 L 52.94 78.56 L 52.78 79.06 L 52.49 79.51 L 52.21 79.96 L 52.09 80.43 L 52.22 80.79 L 52.60 80.91 L 53.07 80.78 L 53.51 80.49 L 53.96 80.20 L 54.47 80.05 L 55.02 80.00 L 55.56 79.94 L 56.06 79.78 L 56.48 79.46 L 56.79 79.03 L 56.95 78.53 L 56.99 77.98 L 57.00 77.41 L 57.01 76.85 L 57.09 76.31 L 57.29 75.83 L 57.63 75.43 L 58.08 75.14 L 58.60 75.02 L 59.16 75.00 L 59.72 75.00 L 60.28 75.02 L 60.81 75.12 L 61.29 75.35 L 61.73 75.65 L 62.18 75.87 L 62.61 75.86 L 62.85 75.61 L 62.82 75.28 L 62.49 75.08 L 61.99 75.00 L 61.45 74.95 L 60.95 74.79 L 60.51 74.48 L 60.10 74.10 L 59.70 73.69 L 59.35 73.27 L 59.13 72.80 L 59.11 72.30 L 59.29 71.83 L 59.62 71.40 L 60.01 70.99 L 60.42 70.60 L 60.85 70.27 L 61.34 70.08 L 61.88 70.02 L 62.44 70.03 L 62.95 70.16 L 63.39 70.45 L 63.73 70.85 L 63.95 71.31 L 64.15 71.71 L 64.48 71.89 L 64.81 71.77 L 64.97 71.38 L 65.00 70.84 L 65.00 70.28 L 65.00 69.71 L 65.00 69.14 L 65.00 68.57 L 65.01 68.00 L 65.05 67.45 L 65.22 66.95 L 65.53 66.53 L 65.95 66.22 L 66.45 66.05 L 67.00 66.01 L 67.57 66.00 L 68.13 65.99 L 68.67 65.92 L 69.16 65.72 L 69.60 65.41 L 70.06 65.14 L 70.56 64.97 L 71.05 64.79 L 71.49 64.48 L 71.90 64.10 L 72.30 63.70 L 72.71 63.29 L 73.11 62.89 L 73.49 62.48 L 73.79 62.04 L 73.92 61.54 L 73.84 61.04 L 73.58 60.59 L 73.27 60.15 L 73.08 59.66 L 73.01 59.12 L 73.00 58.55 L 73.00 57.98 L 73.00 57.42 L 72.98 56.87 L 72.88 56.40 L 72.59 56.12 L 72.12 56.02 L 71.60 56.04 Z M 126.05 45.17 L 125.57 45.44 L 125.10 45.75 L 124.56 45.93 L 123.99 46.00 L 123.41 46.08 L 122.89 46.27 L 122.45 46.62 L 122.14 47.09 L 121.95 47.61 L 121.72 48.13 L 121.37 48.56 L 120.90 48.87 L 120.37 49.06 L 119.86 49.28 L 119.38 49.59 L 118.90 49.88 L 118.44 50.09 L 118.12 50.40 L 117.89 50.85 L 117.60 51.31 L 117.18 51.68 L 116.68 51.93 L 116.16 52.12 L 115.68 52.41 L 115.31 52.83 L 115.07 53.33 L 114.88 53.86 L 114.58 54.33 L 114.16 54.70 L 113.66 54.93 L 113.13 55.13 L 112.64 55.42 L 112.20 55.81 L 111.78 56.24 L 111.39 56.68 L 111.11 57.18 L 110.92 57.70 L 110.68 58.21 L 110.37 58.69 L 110.11 59.19 L 109.92 59.72 L 109.67 60.21 L 109.28 60.62 L 108.82 60.90 L 108.38 61.13 L 108.08 61.47 L 107.87 61.93 L 107.56 62.40 L 107.15 62.84 L 106.72 63.26 L 106.27 63.64 L 105.77 63.88 L 105.20 63.98 L 104.64 64.04 L 104.23 64.21 L 104.14 64.55 L 104.37 64.83 L 104.80 64.86 L 105.29 64.64 L 105.76 64.33 L 106.27 64.13 L 106.80 64.14 L 107.30 64.37 L 107.78 64.68 L 108.29 64.90 L 108.86 64.98 L 109.46 65.00 L 110.07 64.99 L 110.64 64.91 L 111.16 64.70 L 111.58 64.34 L 111.88 63.86 L 112.07 63.34 L 112.30 62.83 L 112.66 62.36 L 113.07 61.93 L 113.50 61.50 L 113.93 61.07 L 114.34 60.64 L 114.70 60.17 L 114.93 59.67 L 115.12 59.14 L 115.41 58.65 L 115.80 58.20 L 116.23 57.78 L 116.68 57.40 L 117.17 57.11 L 117.70 56.92 L 118.20 56.68 L 118.61 56.30 L 118.89 55.82 L 119.08 55.29 L 119.33 54.79 L 119.69 54.33 L 120.11 53.89 L 120.54 53.46 L 120.96 53.04 L 121.39 52.61 L 121.82 52.18 L 122.25 51.75 L 122.68 51.32 L 123.11 50.89 L 123.54 50.46 L 123.97 50.03 L 124.38 49.59 L 124.73 49.13 L 124.95 48.61 L 125.14 48.09 L 125.44 47.60 L 125.84 47.16 L 126.26 46.73 L 126.63 46.28 L 126.86 45.80 L 126.82 45.36 L 126.51 45.13 Z M 113.05 20.16 L 112.60 20.44 L 112.18 20.82 L 111.77 21.22 L 111.34 21.60 L 110.88 21.88 L 110.37 22.05 L 109.88 22.26 L 109.46 22.60 L 109.17 23.03 L 109.11 23.49 L 109.31 23.83 L 109.74 23.97 L 110.29 24.00 L 110.87 24.00 L 111.44 23.97 L 111.96 23.83 L 112.41 23.54 L 112.74 23.11 L 112.95 22.62 L 113.12 22.11 L 113.39 21.65 L 113.70 21.20 L 113.88 20.73 L 113.82 20.32 L 113.50 20.11 Z" fill="rgb(82,82,80)" fill-rule="evenodd"/>
  <path d="M 59.18 91.18 L 59.03 91.53 L 59.00 92.00 L 59.00 92.50 L 59.00 93.00 L 59.03 93.47 L 59.18 93.82 L 59.53 93.97 L 60.00 94.00 L 60.50 94.00 L 61.00 94.00 L 61.47 93.97 L 61.82 93.82 L 61.97 93.47 L 62.00 93.00 L 62.00 92.50 L 62.00 92.00 L 61.97 91.53 L 61.82 91.18 L 61.47 91.03 L 61.00 91.00 L 60.50 91.00 L 60.00 91.00 L 59.53 91.03 Z M 84.06 71.15 L 83.62 71.43 L 83.29 71.84 L 83.10 72.32 L 83.13 72.82 L 83.35 73.29 L 83.66 73.73 L 83.89 74.20 L 83.98 74.73 L 84.00 75.29 L 84.00 75.86 L 84.04 76.39 L 84.20 76.79 L 84.58 76.91 L 85.05 76.78 L 85.49 76.48 L 85.90 76.10 L 86.31 75.70 L 86.73 75.35 L 87.20 75.11 L 87.73 75.02 L 88.27 74.97 L 88.70 74.83 L 88.92 74.49 L 88.98 74.00 L 88.92 73.51 L 88.70 73.15 L 88.30 72.94 L 87.84 72.72 L 87.40 72.41 L 86.94 72.14 L 86.44 71.97 L 85.95 71.79 L 85.50 71.50 L 85.05 71.22 L 84.56 71.08 Z M 103.05 48.15 L 102.64 48.41 L 102.30 48.80 L 102.08 49.24 L 101.93 49.72 L 101.72 50.18 L 101.42 50.59 L 101.16 51.02 L 101.08 51.47 L 101.23 51.82 L 101.62 51.97 L 102.13 52.00 L 102.67 52.00 L 103.21 52.00 L 103.75 52.00 L 104.29 52.00 L 104.83 52.00 L 105.35 51.97 L 105.75 51.83 L 105.94 51.48 L 105.99 51.00 L 105.94 50.52 L 105.75 50.16 L 105.37 49.97 L 104.93 49.78 L 104.52 49.48 L 104.22 49.07 L 104.03 48.63 L 103.84 48.25 L 103.49 48.08 Z M 115.05 30.15 L 114.64 30.41 L 114.31 30.79 L 114.11 31.23 L 114.10 31.71 L 114.27 32.16 L 114.56 32.57 L 114.83 33.00 L 114.96 33.48 L 115.00 34.00 L 115.06 34.48 L 115.25 34.83 L 115.64 34.97 L 116.15 35.00 L 116.68 35.00 L 117.22 35.00 L 117.75 35.00 L 118.27 34.98 L 118.69 34.86 L 118.91 34.55 L 118.99 34.08 L 119.00 33.56 L 118.99 33.03 L 118.95 32.54 L 118.77 32.18 L 118.38 32.03 L 117.88 31.99 L 117.37 31.93 L 116.90 31.77 L 116.51 31.46 L 116.21 31.06 L 116.03 30.62 L 115.84 30.24 L 115.49 30.08 Z" fill="rgb(251,251,251)" fill-rule="evenodd"/>
</svg>