<svg xmlns="http://www.w3.org/2000/svg" width="92" height="107" viewBox="0 0 92 107" role="img" aria-label="32_icons_32">
  <title>32_icons_32</title>
  <path d="M 16.21 87.22 L 16.04 87.62 L 16.00 88.17 L 16.00 88.75 L 15.98 89.32 L 15.87 89.86 L 15.60 90.32 L 15.20 90.68 L 14.72 90.88 L 14.21 90.87 L 13.73 90.65 L 13.27 90.35 L 12.79 90.13 L 12.28 90.12 L 11.80 90.31 L 11.34 90.62 L 10.86 90.87 L 10.32 90.98 L 9.75 91.00 L 9.17 91.00 L 8.62 91.04 L 8.21 91.21 L 7.98 91.59 L 7.77 92.07 L 7.48 92.53 L 7.20 92.99 L 7.09 93.50 L 7.19 94.00 L 7.47 94.47 L 7.77 94.93 L 7.94 95.44 L 7.99 96.00 L 8.00 96.58 L 7.98 97.16 L 7.90 97.71 L 7.69 98.20 L 7.39 98.66 L 7.13 99.13 L 7.02 99.67 L 6.98 100.24 L 6.89 100.78 L 6.65 101.26 L 6.29 101.70 L 5.89 102.12 L 5.49 102.54 L 5.19 102.99 L 5.00 103.50 L 4.82 104.00 L 4.53 104.47 L 4.23 104.92 L 4.10 105.40 L 4.22 105.79 L 4.62 105.96 L 5.16 105.98 L 5.71 105.90 L 6.19 105.69 L 6.60 105.33 L 6.88 104.87 L 7.06 104.36 L 7.27 103.87 L 7.60 103.42 L 8.00 103.00 L 8.41 102.59 L 8.82 102.18 L 9.23 101.77 L 9.65 101.35 L 10.06 100.94 L 10.47 100.53 L 10.88 100.12 L 11.29 99.71 L 11.71 99.29 L 12.12 98.88 L 12.51 98.46 L 12.82 98.00 L 13.00 97.50 L 13.19 96.99 L 13.50 96.56 L 13.93 96.23 L 14.41 96.02 L 14.79 95.79 L 14.96 95.38 L 15.01 94.84 L 15.10 94.29 L 15.32 93.80 L 15.68 93.40 L 16.12 93.11 L 16.57 92.91 L 16.86 92.61 L 16.98 92.14 L 17.00 91.58 L 17.01 91.00 L 17.06 90.44 L 17.23 89.93 L 17.53 89.47 L 17.81 89.01 L 17.91 88.50 L 17.80 88.00 L 17.50 87.56 L 17.07 87.24 L 16.59 87.10 Z M 17.06 73.16 L 16.62 73.44 L 16.27 73.86 L 16.06 74.35 L 15.88 74.86 L 15.62 75.33 L 15.32 75.78 L 15.13 76.25 L 15.17 76.66 L 15.48 76.91 L 15.98 76.99 L 16.55 77.00 L 17.13 77.00 L 17.71 77.00 L 18.28 76.98 L 18.82 76.88 L 19.28 76.63 L 19.65 76.24 L 19.87 75.77 L 19.88 75.26 L 19.68 74.78 L 19.33 74.35 L 18.93 73.93 L 18.51 73.54 L 18.07 73.23 L 17.57 73.09 Z M 65.06 16.17 L 64.58 16.46 L 64.14 16.86 L 63.70 17.28 L 63.25 17.65 L 62.75 17.91 L 62.22 18.10 L 61.72 18.37 L 61.27 18.75 L 60.83 19.16 L 60.39 19.56 L 59.92 19.87 L 59.46 20.09 L 59.14 20.40 L 59.02 20.89 L 58.96 21.46 L 58.80 22.00 L 58.48 22.46 L 58.03 22.79 L 57.50 23.00 L 56.98 23.20 L 56.53 23.54 L 56.20 23.99 L 55.99 24.51 L 55.79 25.04 L 55.48 25.52 L 55.20 26.00 L 55.12 26.47 L 55.33 26.82 L 55.78 26.97 L 56.35 27.02 L 56.91 27.15 L 57.38 27.45 L 57.73 27.89 L 57.90 28.40 L 57.83 28.93 L 57.54 29.39 L 57.10 29.74 L 56.57 29.93 L 55.98 29.99 L 55.38 30.00 L 54.78 29.98 L 54.21 29.88 L 53.70 29.63 L 53.22 29.33 L 52.72 29.12 L 52.19 29.14 L 51.69 29.38 L 51.21 29.68 L 50.69 29.90 L 50.12 29.99 L 49.53 30.05 L 48.99 30.20 L 48.51 30.52 L 48.07 30.93 L 47.64 31.36 L 47.21 31.79 L 46.78 32.22 L 46.35 32.65 L 45.92 33.08 L 45.51 33.52 L 45.19 34.00 L 44.99 34.52 L 44.78 35.05 L 44.45 35.52 L 44.04 35.96 L 43.63 36.39 L 43.28 36.86 L 43.06 37.38 L 42.87 37.91 L 42.58 38.40 L 42.27 38.87 L 42.05 39.39 L 41.86 39.92 L 41.55 40.40 L 41.15 40.85 L 40.72 41.28 L 40.29 41.71 L 39.86 42.14 L 39.43 42.57 L 39.00 43.00 L 38.56 43.41 L 38.09 43.75 L 37.57 43.96 L 37.04 44.16 L 36.57 44.47 L 36.13 44.88 L 35.69 45.31 L 35.26 45.74 L 34.83 46.17 L 34.40 46.60 L 33.97 47.03 L 33.54 47.46 L 33.11 47.89 L 32.68 48.32 L 32.25 48.75 L 31.82 49.18 L 31.39 49.61 L 30.96 50.04 L 30.55 50.48 L 30.23 50.95 L 30.06 51.49 L 30.01 52.08 L 30.00 52.69 L 29.98 53.29 L 29.86 53.85 L 29.59 54.34 L 29.20 54.79 L 28.78 55.23 L 28.40 55.68 L 28.12 56.17 L 27.92 56.70 L 27.69 57.21 L 27.37 57.69 L 27.13 58.19 L 27.02 58.76 L 27.00 59.36 L 27.01 59.96 L 27.07 60.55 L 27.25 61.08 L 27.55 61.56 L 27.85 62.04 L 28.07 62.51 L 28.35 62.86 L 28.79 63.09 L 29.26 63.37 L 29.65 63.77 L 29.87 64.26 L 29.86 64.79 L 29.64 65.29 L 29.33 65.77 L 29.10 66.29 L 29.01 66.86 L 28.96 67.45 L 28.81 67.99 L 28.49 68.47 L 28.09 68.91 L 27.66 69.34 L 27.23 69.77 L 26.80 70.20 L 26.37 70.63 L 25.94 71.07 L 25.53 71.50 L 25.22 71.97 L 25.12 72.45 L 25.30 72.80 L 25.71 72.87 L 26.20 72.68 L 26.66 72.32 L 27.09 71.91 L 27.53 71.50 L 28.01 71.19 L 28.56 71.04 L 29.15 71.00 L 29.76 71.00 L 30.33 70.96 L 30.75 70.79 L 30.89 70.40 L 30.74 69.90 L 30.44 69.43 L 30.17 68.94 L 30.10 68.41 L 30.27 67.89 L 30.60 67.42 L 31.02 66.99 L 31.45 66.58 L 31.92 66.25 L 32.44 66.10 L 32.97 66.18 L 33.46 66.47 L 33.94 66.77 L 34.48 66.94 L 35.06 67.01 L 35.63 67.09 L 36.15 67.30 L 36.58 67.66 L 36.88 68.12 L 37.10 68.57 L 37.40 68.84 L 37.73 68.79 L 37.88 68.44 L 37.77 67.96 L 37.48 67.48 L 37.19 66.99 L 37.04 66.44 L 37.02 65.86 L 37.11 65.29 L 37.34 64.78 L 37.73 64.38 L 38.22 64.12 L 38.78 64.02 L 39.37 64.03 L 39.93 64.15 L 40.42 64.44 L 40.90 64.74 L 41.42 64.90 L 41.95 64.83 L 42.43 64.53 L 42.87 64.13 L 43.30 63.70 L 43.73 63.27 L 44.16 62.84 L 44.56 62.39 L 44.86 61.91 L 45.05 61.38 L 45.28 60.86 L 45.62 60.40 L 46.04 59.96 L 46.47 59.53 L 46.90 59.10 L 47.33 58.67 L 47.76 58.24 L 48.19 57.81 L 48.62 57.38 L 49.05 56.95 L 49.46 56.51 L 49.78 56.04 L 49.90 55.51 L 49.79 54.99 L 49.50 54.50 L 49.21 54.02 L 49.10 53.50 L 49.22 52.97 L 49.51 52.49 L 49.81 52.00 L 50.01 51.48 L 50.22 50.96 L 50.56 50.51 L 51.02 50.19 L 51.56 50.04 L 52.16 50.00 L 52.76 50.00 L 53.36 49.97 L 53.92 49.85 L 54.40 49.55 L 54.85 49.15 L 55.27 48.72 L 55.64 48.26 L 55.90 47.76 L 56.10 47.24 L 56.36 46.75 L 56.76 46.35 L 57.26 46.11 L 57.83 46.02 L 58.44 46.00 L 59.04 45.99 L 59.62 45.92 L 60.14 45.71 L 60.61 45.37 L 61.05 44.95 L 61.48 44.52 L 61.91 44.09 L 62.34 43.66 L 62.77 43.23 L 63.19 42.80 L 63.58 42.35 L 63.88 41.87 L 64.07 41.34 L 64.30 40.83 L 64.66 40.36 L 65.07 39.93 L 65.50 39.50 L 65.93 39.07 L 66.35 38.63 L 66.70 38.17 L 66.94 37.65 L 67.13 37.13 L 67.42 36.64 L 67.81 36.19 L 68.23 35.76 L 68.61 35.31 L 68.89 34.81 L 69.08 34.28 L 69.33 33.78 L 69.70 33.32 L 70.11 32.88 L 70.52 32.44 L 70.82 31.97 L 70.90 31.44 L 70.75 30.92 L 70.45 30.44 L 70.16 29.95 L 70.03 29.39 L 70.02 28.80 L 70.12 28.23 L 70.37 27.73 L 70.74 27.27 L 71.16 26.84 L 71.59 26.41 L 72.02 25.98 L 72.43 25.54 L 72.75 25.07 L 72.88 24.59 L 72.73 24.20 L 72.31 24.03 L 71.74 23.98 L 71.18 23.87 L 70.68 23.60 L 70.23 23.22 L 69.80 22.80 L 69.37 22.37 L 68.93 21.94 L 68.50 21.53 L 68.02 21.21 L 67.48 21.05 L 66.89 20.99 L 66.32 20.90 L 65.81 20.68 L 65.40 20.30 L 65.15 19.82 L 65.12 19.29 L 65.33 18.79 L 65.71 18.39 L 66.18 18.10 L 66.62 17.87 L 66.86 17.53 L 66.83 17.07 L 66.54 16.61 L 66.11 16.27 L 65.59 16.10 Z M 90.05 3.16 L 89.59 3.42 L 89.14 3.73 L 88.64 3.92 L 88.10 3.99 L 87.54 4.04 L 87.01 4.18 L 86.56 4.47 L 86.14 4.86 L 85.73 5.26 L 85.30 5.63 L 84.82 5.88 L 84.29 5.98 L 83.72 6.00 L 83.14 6.00 L 82.56 6.00 L 81.98 6.01 L 81.43 6.06 L 80.92 6.24 L 80.47 6.55 L 80.06 6.95 L 79.65 7.35 L 79.24 7.76 L 78.83 8.17 L 78.41 8.56 L 77.95 8.85 L 77.45 9.03 L 76.95 9.22 L 76.50 9.53 L 76.08 9.92 L 75.67 10.32 L 75.23 10.67 L 74.77 10.92 L 74.35 11.13 L 74.10 11.47 L 74.02 11.95 L 74.07 12.46 L 74.28 12.82 L 74.71 12.97 L 75.26 13.02 L 75.79 13.11 L 76.28 13.35 L 76.73 13.65 L 77.21 13.89 L 77.75 13.98 L 78.31 14.02 L 78.85 14.13 L 79.32 14.38 L 79.78 14.68 L 80.27 14.90 L 80.81 14.98 L 81.38 15.00 L 81.96 15.00 L 82.54 15.00 L 83.12 15.00 L 83.70 15.00 L 84.27 14.98 L 84.81 14.88 L 85.27 14.63 L 85.65 14.25 L 85.90 13.78 L 86.08 13.28 L 86.31 12.79 L 86.66 12.36 L 87.06 11.94 L 87.45 11.53 L 87.77 11.08 L 87.96 10.58 L 88.14 10.08 L 88.42 9.62 L 88.81 9.20 L 89.21 8.78 L 89.59 8.36 L 89.87 7.90 L 90.05 7.39 L 90.25 6.90 L 90.55 6.44 L 90.83 5.98 L 90.96 5.46 L 91.00 4.89 L 91.00 4.32 L 90.97 3.76 L 90.84 3.32 L 90.51 3.11 Z" fill="rgb(245,27,26)" fill-rule="evenodd"/>
  <path d="M 27.19 73.22 L 26.97 73.60 L 26.76 74.08 L 26.43 74.51 L 25.98 74.82 L 25.45 74.96 L 24.87 74.98 L 24.32 74.91 L 23.81 74.70 L 23.35 74.39 L 22.88 74.15 L 22.44 74.14 L 22.12 74.39 L 21.90 74.82 L 21.63 75.29 L 21.26 75.73 L 20.85 76.15 L 20.46 76.57 L 20.16 77.04 L 19.97 77.55 L 19.78 78.06 L 19.48 78.53 L 19.18 79.00 L 18.99 79.51 L 18.80 80.02 L 18.51 80.49 L 18.21 80.96 L 18.02 81.47 L 17.83 81.98 L 17.54 82.45 L 17.24 82.92 L 17.10 83.40 L 17.22 83.79 L 17.63 83.96 L 18.18 84.00 L 18.77 84.00 L 19.35 83.98 L 19.89 83.86 L 20.37 83.58 L 20.80 83.19 L 21.22 82.79 L 21.65 82.40 L 22.13 82.12 L 22.64 81.94 L 23.14 81.72 L 23.59 81.38 L 24.02 80.98 L 24.42 80.56 L 24.75 80.10 L 24.95 79.60 L 25.13 79.08 L 25.41 78.61 L 25.72 78.14 L 25.94 77.64 L 26.12 77.13 L 26.39 76.65 L 26.70 76.19 L 26.93 75.69 L 27.11 75.17 L 27.37 74.69 L 27.67 74.23 L 27.87 73.76 L 27.83 73.34 L 27.53 73.13 Z M 74.06 15.17 L 73.57 15.44 L 73.09 15.75 L 72.55 15.93 L 71.97 16.00 L 71.39 16.08 L 70.86 16.28 L 70.38 16.59 L 69.88 16.87 L 69.35 17.06 L 68.84 17.30 L 68.37 17.65 L 67.93 18.07 L 67.49 18.48 L 67.02 18.81 L 66.54 19.03 L 66.21 19.28 L 66.18 19.63 L 66.47 19.89 L 66.98 19.99 L 67.55 20.07 L 68.08 20.25 L 68.56 20.58 L 69.00 21.00 L 69.43 21.43 L 69.86 21.86 L 70.30 22.28 L 70.76 22.65 L 71.27 22.89 L 71.84 22.98 L 72.43 22.96 L 72.98 22.81 L 73.46 22.50 L 73.90 22.09 L 74.34 21.66 L 74.77 21.23 L 75.20 20.80 L 75.64 20.36 L 76.07 19.93 L 76.50 19.50 L 76.93 19.07 L 77.35 18.63 L 77.70 18.16 L 77.89 17.65 L 77.84 17.12 L 77.56 16.65 L 77.13 16.28 L 76.62 16.06 L 76.09 15.86 L 75.60 15.58 L 75.11 15.27 L 74.59 15.10 Z" fill="rgb(249,85,82)" fill-rule="evenodd"/>
</svg>