<svg xmlns="http://www.w3.org/2000/svg" width="126" height="137" viewBox="0 0 126 137" role="img" aria-label="33_icons_33">
  <title>33_icons_33</title>
  <path d="M 19.19 110.22 L 18.98 110.59 L 18.77 111.07 L 18.45 111.52 L 18.06 111.94 L 17.66 112.36 L 17.32 112.79 L 17.10 113.29 L 17.02 113.83 L 17.00 114.41 L 17.00 114.99 L 17.00 115.57 L 16.98 116.15 L 16.91 116.70 L 16.69 117.19 L 16.33 117.59 L 15.88 117.88 L 15.37 118.05 L 14.87 118.26 L 14.43 118.59 L 14.01 118.99 L 13.59 119.39 L 13.15 119.72 L 12.68 119.95 L 12.27 120.17 L 12.03 120.53 L 11.83 121.00 L 11.54 121.45 L 11.24 121.91 L 11.07 122.42 L 11.01 122.98 L 11.00 123.56 L 11.02 124.12 L 11.13 124.59 L 11.42 124.88 L 11.90 124.99 L 12.45 125.04 L 12.98 125.17 L 13.44 125.47 L 13.86 125.86 L 14.26 126.27 L 14.63 126.70 L 14.90 127.16 L 15.11 127.60 L 15.42 127.88 L 15.90 127.98 L 16.45 127.96 L 16.97 127.83 L 17.43 127.53 L 17.85 127.14 L 18.27 126.73 L 18.68 126.32 L 19.09 125.91 L 19.50 125.50 L 19.91 125.09 L 20.32 124.68 L 20.73 124.27 L 21.15 123.85 L 21.56 123.44 L 21.97 123.03 L 22.37 122.61 L 22.71 122.17 L 22.91 121.67 L 22.99 121.12 L 23.03 120.56 L 23.17 120.04 L 23.47 119.59 L 23.89 119.26 L 24.40 119.07 L 24.95 119.01 L 25.53 119.00 L 26.11 118.99 L 26.66 118.91 L 27.16 118.71 L 27.57 118.37 L 27.84 117.93 L 27.88 117.47 L 27.65 117.15 L 27.20 117.03 L 26.65 117.03 L 26.12 117.14 L 25.65 117.41 L 25.22 117.78 L 24.81 118.19 L 24.39 118.57 L 23.92 118.84 L 23.42 118.91 L 22.92 118.76 L 22.49 118.43 L 22.18 117.99 L 22.04 117.47 L 21.99 116.91 L 21.92 116.35 L 21.72 115.85 L 21.39 115.41 L 20.99 114.99 L 20.60 114.57 L 20.27 114.13 L 20.08 113.62 L 20.01 113.07 L 20.00 112.49 L 20.00 111.91 L 20.00 111.33 L 19.97 110.77 L 19.84 110.33 L 19.53 110.12 Z M 63.25 52.26 L 62.91 52.73 L 62.57 53.31 L 62.12 53.86 L 61.64 54.40 L 61.27 54.98 L 61.17 55.60 L 61.36 56.22 L 61.66 56.82 L 61.83 57.44 L 61.70 58.05 L 61.29 58.55 L 60.70 58.86 L 60.04 59.01 L 59.47 59.18 L 59.21 59.56 L 59.30 60.11 L 59.61 60.70 L 59.92 61.28 L 60.25 61.77 L 60.74 62.10 L 61.30 62.45 L 61.70 62.95 L 61.83 63.56 L 61.66 64.18 L 61.34 64.78 L 61.05 65.40 L 60.76 66.01 L 60.33 66.52 L 59.76 66.82 L 59.13 66.80 L 58.57 66.46 L 58.17 65.92 L 57.90 65.30 L 57.60 64.68 L 57.27 64.08 L 57.07 63.42 L 56.96 62.76 L 56.74 62.29 L 56.37 62.24 L 56.02 62.60 L 55.70 63.14 L 55.27 63.70 L 54.76 64.21 L 54.20 64.64 L 53.56 64.89 L 52.86 64.98 L 52.13 65.02 L 51.43 65.11 L 50.81 65.38 L 50.34 65.85 L 50.03 66.44 L 49.74 67.07 L 49.33 67.64 L 48.84 68.18 L 48.40 68.73 L 48.08 69.34 L 47.80 69.97 L 47.41 70.55 L 46.91 71.08 L 46.39 71.61 L 45.87 72.13 L 45.34 72.66 L 44.82 73.18 L 44.29 73.71 L 43.79 74.24 L 43.36 74.80 L 43.11 75.44 L 43.02 76.14 L 42.98 76.87 L 42.89 77.57 L 42.63 78.21 L 42.20 78.77 L 41.68 79.28 L 41.11 79.69 L 40.47 79.92 L 39.77 80.02 L 39.09 80.19 L 38.50 80.55 L 37.96 81.04 L 37.44 81.56 L 36.92 82.08 L 36.39 82.61 L 35.87 83.13 L 35.34 83.66 L 34.83 84.19 L 34.40 84.75 L 34.12 85.38 L 34.02 86.08 L 34.00 86.81 L 34.00 87.55 L 33.96 88.28 L 33.79 88.95 L 33.42 89.54 L 32.93 90.08 L 32.47 90.62 L 32.12 91.22 L 31.85 91.85 L 31.49 92.44 L 31.01 92.98 L 30.49 93.51 L 29.96 94.04 L 29.44 94.56 L 28.93 95.09 L 28.46 95.64 L 28.12 96.24 L 27.85 96.87 L 27.51 97.47 L 27.19 98.08 L 27.02 98.75 L 26.92 99.45 L 26.69 100.08 L 26.25 100.58 L 25.65 100.87 L 24.97 101.00 L 24.28 101.14 L 23.67 101.45 L 23.12 101.90 L 22.59 102.41 L 22.06 102.94 L 21.57 103.48 L 21.20 104.06 L 21.04 104.74 L 21.01 105.46 L 21.04 106.16 L 21.25 106.67 L 21.70 106.81 L 22.25 106.58 L 22.70 106.10 L 23.00 105.50 L 23.30 104.88 L 23.72 104.31 L 24.22 103.78 L 24.74 103.26 L 25.25 102.72 L 25.67 102.16 L 25.98 101.54 L 26.27 100.94 L 26.72 100.44 L 27.31 100.14 L 28.00 100.04 L 28.68 100.14 L 29.30 100.43 L 29.86 100.88 L 30.36 101.40 L 30.73 101.97 L 30.83 102.60 L 30.62 103.19 L 30.15 103.65 L 29.53 103.90 L 28.87 104.02 L 28.36 104.22 L 28.24 104.56 L 28.55 104.86 L 29.16 104.98 L 29.87 105.02 L 30.57 105.11 L 31.19 105.38 L 31.65 105.85 L 31.90 106.47 L 31.98 107.18 L 32.00 107.91 L 32.00 108.65 L 32.00 109.40 L 32.00 110.14 L 32.02 110.85 L 32.15 111.46 L 32.50 111.78 L 33.03 111.74 L 33.62 111.44 L 34.22 111.12 L 34.85 110.85 L 35.41 110.47 L 35.82 109.94 L 36.10 109.31 L 36.42 108.71 L 36.87 108.15 L 37.38 107.62 L 37.90 107.10 L 38.43 106.57 L 38.95 106.05 L 39.44 105.51 L 39.81 104.92 L 39.95 104.25 L 39.92 103.55 L 39.71 102.90 L 39.39 102.29 L 39.17 101.67 L 39.23 101.05 L 39.60 100.52 L 40.18 100.17 L 40.86 100.03 L 41.59 100.00 L 42.33 100.00 L 43.06 99.97 L 43.75 99.85 L 44.36 99.54 L 44.91 99.07 L 45.41 98.55 L 45.80 97.97 L 46.08 97.35 L 46.41 96.76 L 46.90 96.32 L 47.54 96.08 L 48.25 96.01 L 48.97 95.98 L 49.67 95.87 L 50.30 95.60 L 50.90 95.27 L 51.53 94.98 L 52.14 94.68 L 52.71 94.26 L 53.22 93.75 L 53.66 93.19 L 53.96 92.57 L 54.24 91.94 L 54.58 91.34 L 54.86 90.72 L 55.00 90.03 L 55.13 89.35 L 55.41 88.72 L 55.86 88.16 L 56.37 87.63 L 56.89 87.11 L 57.39 86.57 L 57.79 86.00 L 58.07 85.37 L 58.39 84.78 L 58.88 84.33 L 59.50 84.09 L 60.20 83.98 L 60.87 83.82 L 61.47 83.47 L 62.01 82.98 L 62.54 82.46 L 63.05 81.94 L 63.52 81.39 L 63.84 80.78 L 63.97 80.09 L 64.01 79.37 L 64.06 78.65 L 64.25 77.99 L 64.66 77.47 L 65.21 77.11 L 65.69 76.78 L 65.94 76.27 L 66.06 75.61 L 66.27 74.97 L 66.69 74.46 L 67.27 74.18 L 67.90 74.21 L 68.45 74.56 L 68.85 75.08 L 69.17 75.57 L 69.59 75.80 L 70.15 75.68 L 70.73 75.36 L 71.31 75.05 L 71.78 74.71 L 72.11 74.21 L 72.46 73.64 L 72.92 73.09 L 73.44 72.56 L 73.96 72.04 L 74.49 71.51 L 75.01 70.99 L 75.48 70.44 L 75.83 69.84 L 75.97 69.16 L 76.00 68.43 L 76.04 67.71 L 76.22 67.04 L 76.59 66.45 L 77.09 65.93 L 77.64 65.46 L 78.24 65.12 L 78.87 64.85 L 79.46 64.48 L 79.99 63.99 L 80.48 63.46 L 80.82 62.86 L 80.97 62.18 L 81.00 61.45 L 81.00 60.71 L 80.98 59.98 L 80.86 59.28 L 80.58 58.66 L 80.26 58.05 L 80.07 57.39 L 80.01 56.67 L 79.96 55.97 L 79.79 55.40 L 79.34 55.10 L 78.69 55.02 L 77.97 55.02 L 77.28 55.14 L 76.66 55.42 L 76.06 55.73 L 75.43 55.83 L 74.81 55.64 L 74.25 55.22 L 73.72 54.72 L 73.20 54.20 L 72.67 53.67 L 72.15 53.15 L 71.61 52.65 L 71.05 52.28 L 70.52 52.21 L 70.11 52.50 L 69.79 53.01 L 69.36 53.51 L 68.79 53.81 L 68.16 53.80 L 67.57 53.49 L 67.03 53.02 L 66.48 52.54 L 65.89 52.18 L 65.21 52.03 L 64.49 52.01 L 63.79 52.05 Z M 94.06 25.15 L 93.60 25.44 L 93.18 25.82 L 92.77 26.23 L 92.36 26.64 L 91.95 27.05 L 91.55 27.47 L 91.24 27.92 L 91.06 28.43 L 91.00 28.99 L 90.94 29.54 L 90.78 30.05 L 90.46 30.49 L 90.03 30.80 L 89.56 31.00 L 89.21 31.23 L 89.13 31.57 L 89.36 31.87 L 89.78 32.08 L 90.23 32.34 L 90.62 32.71 L 90.88 33.18 L 90.98 33.72 L 90.98 34.28 L 90.88 34.82 L 90.62 35.29 L 90.24 35.66 L 89.76 35.89 L 89.21 35.98 L 88.64 36.00 L 88.06 35.99 L 87.50 35.95 L 86.98 35.80 L 86.55 35.49 L 86.22 35.06 L 86.02 34.59 L 85.79 34.20 L 85.37 34.04 L 84.82 34.00 L 84.25 34.00 L 83.67 34.02 L 83.14 34.13 L 82.67 34.40 L 82.24 34.77 L 81.83 35.17 L 81.42 35.58 L 81.01 35.99 L 80.59 36.39 L 80.15 36.72 L 79.68 36.95 L 79.27 37.17 L 79.03 37.53 L 78.83 38.00 L 78.51 38.43 L 78.09 38.76 L 77.59 38.96 L 77.08 39.13 L 76.64 39.43 L 76.29 39.84 L 76.09 40.34 L 76.01 40.89 L 76.00 41.46 L 76.01 42.04 L 76.07 42.60 L 76.25 43.10 L 76.57 43.55 L 76.97 43.97 L 77.36 44.38 L 77.70 44.82 L 77.93 45.31 L 78.11 45.82 L 78.37 46.29 L 78.73 46.72 L 79.14 47.13 L 79.55 47.55 L 79.96 47.96 L 80.37 48.35 L 80.81 48.69 L 81.30 48.91 L 81.85 48.99 L 82.43 49.00 L 83.01 49.01 L 83.56 49.06 L 84.07 49.23 L 84.50 49.56 L 84.81 50.00 L 84.96 50.52 L 85.01 51.08 L 85.08 51.63 L 85.27 52.13 L 85.57 52.59 L 85.85 53.05 L 85.97 53.58 L 86.00 54.15 L 86.00 54.73 L 86.03 55.28 L 86.17 55.71 L 86.49 55.88 L 86.83 55.75 L 87.04 55.36 L 87.25 54.89 L 87.58 54.44 L 87.98 54.03 L 88.39 53.63 L 88.83 53.29 L 89.32 53.07 L 89.83 52.89 L 90.29 52.62 L 90.66 52.23 L 90.91 51.76 L 91.09 51.25 L 91.32 50.77 L 91.63 50.32 L 91.88 49.84 L 91.98 49.30 L 92.02 48.73 L 92.12 48.19 L 92.36 47.72 L 92.73 47.29 L 93.13 46.87 L 93.55 46.48 L 94.00 46.18 L 94.51 46.00 L 95.01 45.81 L 95.45 45.49 L 95.77 45.06 L 95.94 44.56 L 96.00 44.00 L 96.06 43.44 L 96.23 42.93 L 96.55 42.48 L 96.94 42.06 L 97.34 41.65 L 97.68 41.21 L 97.88 40.75 L 97.83 40.33 L 97.51 40.09 L 97.01 40.01 L 96.44 40.00 L 95.86 39.99 L 95.31 39.91 L 94.82 39.70 L 94.42 39.35 L 94.14 38.89 L 94.02 38.36 L 93.98 37.79 L 93.89 37.25 L 93.67 36.76 L 93.37 36.31 L 93.14 35.83 L 93.11 35.32 L 93.29 34.84 L 93.64 34.43 L 94.09 34.15 L 94.60 34.09 L 95.09 34.25 L 95.55 34.54 L 96.01 34.82 L 96.52 34.91 L 97.02 34.80 L 97.48 34.49 L 97.89 34.10 L 98.31 33.70 L 98.74 33.35 L 99.23 33.11 L 99.77 33.02 L 100.34 33.00 L 100.92 32.99 L 101.48 32.96 L 102.00 32.81 L 102.44 32.50 L 102.76 32.07 L 102.90 31.60 L 102.78 31.21 L 102.39 31.04 L 101.85 31.02 L 101.30 31.09 L 100.81 31.30 L 100.35 31.61 L 99.88 31.85 L 99.38 31.90 L 98.88 31.74 L 98.43 31.44 L 97.96 31.16 L 97.43 31.03 L 96.86 31.00 L 96.28 31.00 L 95.70 31.00 L 95.12 31.00 L 94.54 31.00 L 93.96 30.99 L 93.41 30.93 L 92.90 30.75 L 92.48 30.42 L 92.18 29.98 L 92.09 29.48 L 92.21 28.97 L 92.52 28.54 L 92.95 28.22 L 93.45 28.03 L 93.96 27.85 L 94.41 27.55 L 94.83 27.16 L 95.24 26.75 L 95.61 26.33 L 95.85 25.87 L 95.86 25.43 L 95.61 25.13 L 95.14 25.02 L 94.59 25.03 Z M 115.06 18.15 L 114.60 18.44 L 114.17 18.83 L 113.76 19.24 L 113.34 19.66 L 112.93 20.07 L 112.51 20.49 L 112.10 20.90 L 111.68 21.31 L 111.24 21.66 L 110.77 21.92 L 110.35 22.13 L 110.07 22.47 L 109.87 22.92 L 109.57 23.36 L 109.16 23.71 L 108.69 23.95 L 108.29 24.16 L 108.13 24.49 L 108.27 24.82 L 108.69 24.97 L 109.24 25.00 L 109.83 25.00 L 110.41 25.00 L 111.00 24.99 L 111.56 24.94 L 112.08 24.77 L 112.54 24.47 L 113.00 24.18 L 113.51 23.99 L 114.02 23.80 L 114.48 23.49 L 114.90 23.10 L 115.31 22.68 L 115.66 22.24 L 115.91 21.76 L 116.09 21.24 L 116.34 20.76 L 116.69 20.32 L 117.10 19.90 L 117.49 19.48 L 117.79 19.03 L 117.89 18.56 L 117.73 18.19 L 117.31 18.03 L 116.76 18.00 L 116.17 18.00 L 115.60 18.03 Z M 124.85 3.37 L 124.55 3.48 L 124.16 3.85 L 123.74 4.26 L 123.32 4.68 L 122.90 5.10 L 122.47 5.50 L 122.01 5.81 L 121.49 6.00 L 120.98 6.20 L 120.51 6.52 L 120.09 6.92 L 119.67 7.33 L 119.25 7.75 L 118.82 8.17 L 118.39 8.56 L 117.93 8.87 L 117.48 9.07 L 117.17 9.35 L 117.14 9.78 L 117.36 10.25 L 117.74 10.63 L 118.22 10.88 L 118.77 10.98 L 119.36 11.00 L 119.95 11.00 L 120.55 11.00 L 121.12 10.98 L 121.60 10.86 L 121.91 10.56 L 122.12 10.11 L 122.41 9.65 L 122.79 9.22 L 123.21 8.79 L 123.63 8.37 L 124.05 7.95 L 124.45 7.52 L 124.77 7.06 L 124.94 6.54 L 124.99 5.97 L 125.00 5.38 L 125.00 4.78 L 125.00 4.19 L 124.97 3.66 Z" fill="rgb(247,31,30)" fill-rule="evenodd"/>
  <path d="M 11.06 126.15 L 10.61 126.46 L 10.26 126.89 L 10.05 127.40 L 9.86 127.92 L 9.56 128.39 L 9.17 128.83 L 8.75 129.26 L 8.38 129.70 L 8.11 130.19 L 7.92 130.71 L 7.69 131.21 L 7.38 131.68 L 7.15 132.15 L 7.15 132.59 L 7.43 132.85 L 7.88 132.85 L 8.35 132.61 L 8.82 132.30 L 9.32 132.07 L 9.84 131.88 L 10.33 131.62 L 10.80 131.31 L 11.30 131.07 L 11.82 130.89 L 12.30 130.61 L 12.67 130.21 L 12.92 129.72 L 13.10 129.20 L 13.36 128.70 L 13.67 128.23 L 13.88 127.74 L 13.87 127.22 L 13.63 126.74 L 13.24 126.35 L 12.75 126.11 L 12.19 126.02 L 11.61 126.03 Z M 29.05 102.16 L 28.59 102.42 L 28.14 102.73 L 27.64 102.92 L 27.10 102.99 L 26.57 103.05 L 26.19 103.25 L 26.03 103.67 L 26.00 104.22 L 26.00 104.80 L 26.00 105.37 L 26.01 105.95 L 26.05 106.51 L 26.20 107.03 L 26.49 107.49 L 26.78 107.94 L 26.91 108.45 L 26.84 108.95 L 26.55 109.39 L 26.13 109.73 L 25.66 109.95 L 25.26 110.17 L 25.02 110.54 L 24.82 111.00 L 24.51 111.43 L 24.08 111.76 L 23.58 111.93 L 23.02 111.99 L 22.45 112.00 L 21.89 112.02 L 21.41 112.12 L 21.14 112.40 L 21.14 112.84 L 21.36 113.30 L 21.67 113.75 L 21.92 114.21 L 22.12 114.64 L 22.44 114.92 L 22.89 115.12 L 23.33 115.40 L 23.69 115.80 L 23.93 116.26 L 24.14 116.67 L 24.48 116.89 L 24.94 116.84 L 25.39 116.57 L 25.81 116.19 L 26.22 115.78 L 26.63 115.37 L 27.04 114.96 L 27.45 114.55 L 27.86 114.14 L 28.26 113.74 L 28.67 113.33 L 29.08 112.92 L 29.47 112.50 L 29.78 112.05 L 29.95 111.54 L 30.00 110.98 L 30.06 110.43 L 30.24 109.92 L 30.53 109.46 L 30.81 109.01 L 30.90 108.54 L 30.73 108.17 L 30.34 107.96 L 29.87 107.74 L 29.43 107.41 L 29.01 107.01 L 28.60 106.60 L 28.20 106.20 L 27.79 105.78 L 27.41 105.36 L 27.15 104.90 L 27.09 104.39 L 27.25 103.90 L 27.58 103.48 L 28.02 103.18 L 28.54 103.04 L 29.09 102.99 L 29.57 102.89 L 29.84 102.63 L 29.82 102.30 L 29.50 102.11 Z M 75.06 45.15 L 74.60 45.43 L 74.19 45.82 L 73.78 46.22 L 73.35 46.59 L 72.89 46.87 L 72.39 47.05 L 71.90 47.25 L 71.45 47.57 L 71.04 47.96 L 70.63 48.37 L 70.22 48.78 L 69.82 49.18 L 69.41 49.59 L 69.00 50.00 L 68.61 50.41 L 68.28 50.85 L 68.11 51.32 L 68.19 51.71 L 68.52 51.90 L 68.98 51.82 L 69.43 51.56 L 69.88 51.26 L 70.38 51.10 L 70.88 51.14 L 71.35 51.39 L 71.80 51.69 L 72.28 51.89 L 72.78 51.87 L 73.26 51.66 L 73.71 51.36 L 74.19 51.12 L 74.72 51.02 L 75.29 51.00 L 75.87 51.00 L 76.44 51.00 L 77.02 51.00 L 77.60 51.00 L 78.17 51.00 L 78.75 51.00 L 79.32 51.00 L 79.90 51.00 L 80.46 51.04 L 80.98 51.18 L 81.42 51.48 L 81.75 51.89 L 81.96 52.36 L 82.17 52.75 L 82.51 52.88 L 82.84 52.72 L 83.05 52.33 L 83.27 51.86 L 83.57 51.41 L 83.84 50.96 L 83.89 50.50 L 83.69 50.17 L 83.26 50.03 L 82.71 50.00 L 82.13 50.00 L 81.55 50.00 L 80.98 49.99 L 80.43 49.94 L 79.92 49.77 L 79.48 49.45 L 79.06 49.06 L 78.67 48.65 L 78.32 48.22 L 78.08 47.74 L 77.91 47.23 L 77.67 46.76 L 77.36 46.31 L 77.10 45.85 L 76.90 45.41 L 76.60 45.13 L 76.13 45.02 L 75.59 45.03 Z M 116.06 11.16 L 115.58 11.43 L 115.11 11.74 L 114.60 11.95 L 114.08 12.14 L 113.60 12.44 L 113.17 12.83 L 112.74 13.26 L 112.32 13.68 L 111.90 14.10 L 111.48 14.52 L 111.05 14.95 L 110.63 15.37 L 110.21 15.79 L 109.79 16.22 L 109.41 16.66 L 109.13 17.15 L 109.02 17.70 L 108.98 18.28 L 108.87 18.83 L 108.61 19.32 L 108.23 19.76 L 107.81 20.18 L 107.37 20.58 L 106.90 20.87 L 106.37 21.05 L 105.87 21.27 L 105.40 21.58 L 104.91 21.85 L 104.36 21.97 L 103.77 22.00 L 103.18 22.00 L 102.59 22.03 L 102.05 22.16 L 101.57 22.46 L 101.14 22.86 L 100.72 23.28 L 100.29 23.71 L 99.87 24.13 L 99.44 24.53 L 98.97 24.84 L 98.45 25.03 L 97.93 25.23 L 97.49 25.57 L 97.18 26.02 L 97.04 26.56 L 96.99 27.14 L 96.90 27.70 L 96.67 28.20 L 96.30 28.61 L 95.84 28.89 L 95.41 29.11 L 95.15 29.41 L 95.21 29.74 L 95.58 29.94 L 96.10 29.97 L 96.58 29.87 L 96.90 29.57 L 97.12 29.13 L 97.41 28.67 L 97.83 28.31 L 98.33 28.09 L 98.90 28.02 L 99.47 28.05 L 100.00 28.20 L 100.45 28.52 L 100.79 28.96 L 101.00 29.43 L 101.26 29.81 L 101.70 29.96 L 102.26 29.98 L 102.81 29.88 L 103.30 29.62 L 103.75 29.24 L 104.17 28.83 L 104.60 28.40 L 105.02 27.98 L 105.42 27.55 L 105.75 27.09 L 105.93 26.56 L 105.98 25.99 L 105.93 25.42 L 105.75 24.90 L 105.44 24.43 L 105.17 23.95 L 105.10 23.43 L 105.25 22.92 L 105.58 22.48 L 106.04 22.17 L 106.58 22.03 L 107.16 21.99 L 107.72 21.90 L 108.21 21.66 L 108.62 21.29 L 108.89 20.81 L 109.08 20.29 L 109.32 19.80 L 109.70 19.39 L 110.18 19.13 L 110.73 19.02 L 111.32 19.00 L 111.91 18.99 L 112.49 18.95 L 113.03 18.79 L 113.50 18.47 L 113.93 18.07 L 114.35 17.65 L 114.77 17.23 L 115.19 16.80 L 115.58 16.36 L 115.87 15.89 L 116.06 15.36 L 116.28 14.86 L 116.62 14.40 L 117.03 13.97 L 117.43 13.54 L 117.76 13.08 L 117.90 12.56 L 117.83 12.05 L 117.53 11.59 L 117.09 11.25 L 116.58 11.10 Z" fill="rgb(251,82,79)" fill-rule="evenodd"/>
  <path d="M 43.05 102.16 L 42.61 102.43 L 42.20 102.81 L 41.80 103.21 L 41.42 103.62 L 41.14 104.08 L 41.02 104.60 L 40.99 105.15 L 40.91 105.69 L 40.71 106.17 L 40.41 106.62 L 40.15 107.06 L 40.11 107.51 L 40.32 107.84 L 40.75 107.97 L 41.29 107.98 L 41.81 107.88 L 42.27 107.64 L 42.65 107.26 L 42.90 106.80 L 43.07 106.30 L 43.29 105.83 L 43.59 105.38 L 43.86 104.92 L 43.98 104.40 L 44.00 103.84 L 44.00 103.28 L 43.97 102.74 L 43.84 102.31 L 43.50 102.10 Z" fill="rgb(253,251,251)" fill-rule="evenodd"/>
</svg>