<svg xmlns="http://www.w3.org/2000/svg" width="95" height="105" viewBox="0 0 95 105" role="img" aria-label="34_icons_34">
  <title>34_icons_34</title>
  <path d="M 20.21 76.21 L 20.04 76.62 L 19.99 77.16 L 19.90 77.71 L 19.69 78.21 L 19.38 78.67 L 19.12 79.14 L 18.94 79.65 L 18.72 80.14 L 18.37 80.56 L 17.92 80.85 L 17.39 80.98 L 16.82 81.01 L 16.27 81.10 L 15.78 81.32 L 15.34 81.67 L 14.92 82.08 L 14.51 82.49 L 14.10 82.90 L 13.69 83.32 L 13.34 83.76 L 13.09 84.24 L 12.91 84.75 L 12.68 85.24 L 12.37 85.69 L 12.11 86.17 L 11.93 86.68 L 11.71 87.17 L 11.37 87.61 L 10.97 88.03 L 10.57 88.45 L 10.25 88.90 L 10.07 89.41 L 10.01 89.97 L 10.00 90.56 L 10.00 91.14 L 10.00 91.72 L 10.02 92.30 L 10.13 92.84 L 10.39 93.32 L 10.76 93.75 L 11.16 94.16 L 11.55 94.59 L 11.84 95.05 L 11.97 95.58 L 11.98 96.15 L 11.90 96.70 L 11.69 97.20 L 11.35 97.64 L 10.94 98.05 L 10.53 98.47 L 10.12 98.88 L 9.70 99.29 L 9.27 99.64 L 8.79 99.87 L 8.28 99.88 L 7.80 99.68 L 7.40 99.31 L 7.13 98.85 L 7.02 98.31 L 6.97 97.76 L 6.84 97.32 L 6.53 97.12 L 6.19 97.23 L 5.97 97.61 L 5.76 98.09 L 5.46 98.55 L 5.17 99.01 L 4.99 99.52 L 4.80 100.03 L 4.49 100.48 L 4.10 100.90 L 3.69 101.32 L 3.34 101.76 L 3.11 102.25 L 3.02 102.79 L 3.04 103.34 L 3.20 103.76 L 3.59 103.95 L 4.13 103.99 L 4.71 104.00 L 5.28 103.98 L 5.83 103.88 L 6.30 103.62 L 6.74 103.25 L 7.15 102.85 L 7.58 102.46 L 8.04 102.16 L 8.55 101.98 L 9.05 101.78 L 9.50 101.47 L 9.92 101.07 L 10.34 100.66 L 10.75 100.25 L 11.16 99.83 L 11.55 99.41 L 11.85 98.95 L 12.03 98.44 L 12.23 97.94 L 12.55 97.51 L 12.99 97.19 L 13.45 96.98 L 13.83 96.74 L 14.05 96.34 L 14.27 95.86 L 14.62 95.44 L 15.07 95.15 L 15.60 95.02 L 16.15 94.98 L 16.62 94.86 L 16.91 94.56 L 17.12 94.11 L 17.41 93.67 L 17.81 93.31 L 18.29 93.07 L 18.81 92.90 L 19.29 92.65 L 19.74 92.34 L 20.23 92.11 L 20.78 92.02 L 21.35 91.98 L 21.88 91.86 L 22.35 91.59 L 22.78 91.21 L 23.19 90.80 L 23.58 90.38 L 23.86 89.91 L 23.98 89.37 L 24.02 88.80 L 24.10 88.26 L 24.33 87.77 L 24.69 87.33 L 25.09 86.91 L 25.50 86.50 L 25.91 86.08 L 26.32 85.67 L 26.67 85.23 L 26.90 84.74 L 26.98 84.19 L 27.00 83.61 L 26.99 83.04 L 26.92 82.52 L 26.69 82.17 L 26.25 82.03 L 25.69 82.00 L 25.11 82.00 L 24.54 81.96 L 24.01 81.82 L 23.57 81.51 L 23.24 81.08 L 23.06 80.57 L 23.01 80.01 L 23.00 79.43 L 23.00 78.85 L 23.00 78.26 L 22.98 77.69 L 22.87 77.15 L 22.60 76.68 L 22.20 76.32 L 21.71 76.10 L 21.16 76.02 L 20.62 76.04 Z M 82.05 24.18 L 81.55 24.46 L 81.04 24.77 L 80.47 24.94 L 79.85 24.99 L 79.22 25.00 L 78.59 25.04 L 78.02 25.20 L 77.51 25.52 L 77.05 25.95 L 76.62 26.41 L 76.26 26.90 L 76.03 27.45 L 75.81 28.00 L 75.46 28.47 L 74.98 28.81 L 74.40 28.96 L 73.78 28.97 L 73.19 28.86 L 72.69 28.58 L 72.30 28.14 L 72.06 27.61 L 71.84 27.06 L 71.50 26.58 L 71.03 26.22 L 70.49 25.99 L 69.94 25.77 L 69.43 25.45 L 68.91 25.16 L 68.33 25.03 L 67.70 25.00 L 67.06 25.01 L 66.45 25.08 L 65.89 25.27 L 65.40 25.63 L 64.94 26.06 L 64.49 26.51 L 64.04 26.97 L 63.60 27.43 L 63.25 27.92 L 63.02 28.46 L 62.80 29.01 L 62.44 29.49 L 61.98 29.83 L 61.49 30.08 L 61.13 30.39 L 60.89 30.85 L 60.57 31.33 L 60.13 31.71 L 59.63 31.97 L 59.20 32.23 L 58.94 32.67 L 58.68 33.17 L 58.29 33.60 L 57.80 33.90 L 57.35 34.15 L 57.05 34.53 L 56.80 35.02 L 56.45 35.48 L 55.96 35.81 L 55.39 35.96 L 54.77 36.02 L 54.18 36.14 L 53.65 36.42 L 53.18 36.83 L 52.73 37.27 L 52.27 37.72 L 51.82 38.17 L 51.35 38.58 L 50.85 38.89 L 50.39 39.13 L 50.08 39.49 L 49.83 39.98 L 49.50 40.47 L 49.07 40.93 L 48.63 41.39 L 48.27 41.88 L 48.04 42.42 L 47.82 42.97 L 47.48 43.45 L 47.00 43.80 L 46.46 44.02 L 45.91 44.25 L 45.42 44.61 L 44.96 45.04 L 44.51 45.49 L 44.05 45.95 L 43.60 46.40 L 43.15 46.85 L 42.69 47.31 L 42.24 47.76 L 41.79 48.21 L 41.34 48.66 L 40.89 49.12 L 40.47 49.58 L 40.14 50.09 L 39.93 50.64 L 39.68 51.18 L 39.31 51.66 L 38.87 52.12 L 38.41 52.54 L 37.90 52.86 L 37.35 53.07 L 36.82 53.32 L 36.39 53.72 L 36.10 54.23 L 35.89 54.78 L 35.61 55.30 L 35.21 55.78 L 34.76 56.23 L 34.31 56.69 L 33.86 57.14 L 33.41 57.59 L 32.96 58.05 L 32.53 58.51 L 32.19 59.01 L 31.97 59.56 L 31.74 60.10 L 31.38 60.59 L 30.95 61.05 L 30.49 61.51 L 30.04 61.96 L 29.61 62.42 L 29.26 62.91 L 29.07 63.47 L 29.03 64.07 L 29.15 64.57 L 29.48 64.85 L 29.96 64.82 L 30.46 64.54 L 30.97 64.23 L 31.53 64.06 L 32.15 64.03 L 32.74 64.12 L 33.26 64.38 L 33.66 64.81 L 33.90 65.34 L 33.99 65.94 L 34.07 66.55 L 34.27 67.11 L 34.58 67.62 L 34.88 68.12 L 35.12 68.58 L 35.47 68.85 L 35.95 68.82 L 36.45 68.54 L 36.95 68.22 L 37.45 67.97 L 37.80 67.68 L 37.85 67.23 L 37.64 66.72 L 37.33 66.21 L 37.13 65.67 L 37.17 65.12 L 37.46 64.63 L 37.91 64.27 L 38.47 64.07 L 39.08 64.01 L 39.72 64.00 L 40.35 64.03 L 40.93 64.17 L 41.42 64.49 L 41.76 64.96 L 41.88 65.50 L 41.76 66.05 L 41.45 66.56 L 41.17 67.07 L 41.12 67.63 L 41.30 68.17 L 41.61 68.68 L 41.85 69.20 L 41.86 69.75 L 41.61 70.27 L 41.19 70.67 L 40.69 70.94 L 40.27 71.20 L 40.06 71.64 L 39.98 72.22 L 39.86 72.81 L 39.58 73.31 L 39.14 73.70 L 38.60 73.91 L 37.99 73.99 L 37.35 74.00 L 36.75 74.04 L 36.28 74.21 L 36.06 74.63 L 36.03 75.21 L 36.13 75.79 L 36.41 76.30 L 36.85 76.69 L 37.38 76.88 L 37.93 76.82 L 38.44 76.52 L 38.90 76.10 L 39.36 75.66 L 39.85 75.30 L 40.39 75.06 L 40.94 74.85 L 41.42 74.51 L 41.78 74.04 L 42.00 73.49 L 42.23 72.95 L 42.59 72.48 L 43.08 72.15 L 43.63 71.94 L 44.16 71.69 L 44.59 71.30 L 44.89 70.79 L 45.10 70.24 L 45.38 69.72 L 45.78 69.24 L 46.21 68.78 L 46.61 68.30 L 46.89 67.78 L 47.10 67.23 L 47.37 66.70 L 47.69 66.19 L 47.90 65.64 L 48.00 65.04 L 48.08 64.43 L 48.28 63.87 L 48.59 63.36 L 48.84 62.84 L 48.87 62.29 L 48.66 61.76 L 48.34 61.25 L 48.09 60.71 L 47.88 60.16 L 47.59 59.64 L 47.28 59.13 L 47.08 58.57 L 47.03 57.96 L 47.10 57.36 L 47.33 56.83 L 47.72 56.40 L 48.24 56.13 L 48.83 56.02 L 49.46 56.00 L 50.10 56.00 L 50.74 56.00 L 51.38 56.00 L 52.02 56.00 L 52.66 56.00 L 53.30 56.00 L 53.94 55.99 L 54.55 55.92 L 55.11 55.73 L 55.60 55.37 L 56.06 54.94 L 56.51 54.49 L 56.97 54.03 L 57.43 53.60 L 57.92 53.25 L 58.49 53.07 L 59.10 52.99 L 59.69 52.89 L 60.23 52.65 L 60.72 52.27 L 61.17 51.82 L 61.58 51.35 L 61.88 50.84 L 62.09 50.29 L 62.36 49.76 L 62.74 49.28 L 63.18 48.82 L 63.58 48.34 L 63.88 47.83 L 64.09 47.27 L 64.36 46.75 L 64.75 46.27 L 65.19 45.81 L 65.64 45.36 L 66.09 44.90 L 66.52 44.44 L 66.85 43.94 L 67.06 43.39 L 67.30 42.85 L 67.69 42.41 L 68.17 42.11 L 68.63 41.86 L 68.94 41.49 L 69.18 41.00 L 69.52 40.51 L 69.95 40.05 L 70.38 39.59 L 70.74 39.10 L 70.97 38.55 L 71.19 38.00 L 71.53 37.50 L 71.96 37.04 L 72.41 36.59 L 72.86 36.13 L 73.30 35.68 L 73.68 35.19 L 73.93 34.66 L 74.14 34.10 L 74.44 33.59 L 74.76 33.08 L 74.98 32.53 L 75.20 31.98 L 75.55 31.49 L 75.98 31.03 L 76.43 30.57 L 76.88 30.12 L 77.33 29.67 L 77.79 29.21 L 78.24 28.77 L 78.72 28.38 L 79.24 28.10 L 79.80 27.89 L 80.32 27.60 L 80.79 27.20 L 81.25 26.75 L 81.70 26.30 L 82.15 25.85 L 82.56 25.38 L 82.83 24.88 L 82.83 24.42 L 82.53 24.15 Z M 67.17 28.06 L 67.47 27.59 L 67.93 27.25 L 68.47 27.07 L 69.06 27.02 L 69.64 27.09 L 70.17 27.30 L 70.66 27.61 L 71.17 27.88 L 71.70 28.08 L 72.21 28.34 L 72.62 28.73 L 72.86 29.22 L 72.86 29.76 L 72.63 30.26 L 72.26 30.73 L 71.83 31.16 L 71.38 31.56 L 70.89 31.84 L 70.35 31.88 L 69.83 31.69 L 69.36 31.34 L 68.92 30.92 L 68.48 30.48 L 68.04 30.04 L 67.62 29.60 L 67.28 29.12 L 67.11 28.60 Z M 80.05 12.15 L 79.62 12.41 L 79.23 12.77 L 78.84 13.16 L 78.46 13.54 L 78.07 13.93 L 77.70 14.31 L 77.35 14.71 L 77.13 15.15 L 77.11 15.57 L 77.34 15.85 L 77.73 15.89 L 78.18 15.72 L 78.60 15.42 L 79.03 15.15 L 79.51 14.99 L 79.99 14.83 L 80.40 14.55 L 80.73 14.15 L 80.92 13.69 L 80.98 13.18 L 80.97 12.66 L 80.83 12.26 L 80.49 12.09 Z M 93.85 3.36 L 93.57 3.47 L 93.18 3.82 L 92.77 4.23 L 92.37 4.63 L 91.96 5.04 L 91.54 5.43 L 91.10 5.76 L 90.63 5.97 L 90.24 6.18 L 90.10 6.56 L 90.21 7.03 L 90.49 7.49 L 90.78 7.94 L 90.94 8.45 L 91.00 9.00 L 91.08 9.50 L 91.30 9.82 L 91.64 9.84 L 91.89 9.56 L 91.99 9.09 L 92.04 8.54 L 92.17 8.02 L 92.47 7.56 L 92.85 7.15 L 93.26 6.74 L 93.62 6.31 L 93.88 5.84 L 93.98 5.30 L 94.00 4.73 L 94.00 4.16 L 93.97 3.64 Z" fill="rgb(246,33,32)" fill-rule="evenodd"/>
  <path d="M 31.06 65.15 L 30.59 65.43 L 30.13 65.74 L 29.65 65.96 L 29.24 66.18 L 29.00 66.57 L 28.79 67.04 L 28.47 67.50 L 28.08 67.92 L 27.67 68.34 L 27.32 68.79 L 27.08 69.28 L 26.90 69.79 L 26.64 70.28 L 26.27 70.71 L 25.87 71.14 L 25.47 71.56 L 25.17 72.03 L 24.98 72.54 L 24.78 73.05 L 24.47 73.51 L 24.07 73.93 L 23.66 74.35 L 23.32 74.80 L 23.12 75.29 L 23.14 75.80 L 23.37 76.29 L 23.73 76.72 L 24.14 77.14 L 24.54 77.57 L 24.84 78.03 L 25.02 78.55 L 25.22 79.05 L 25.55 79.49 L 25.99 79.80 L 26.50 79.91 L 27.01 79.80 L 27.48 79.51 L 27.95 79.22 L 28.47 79.06 L 29.04 79.01 L 29.63 79.00 L 30.22 79.00 L 30.81 79.00 L 31.39 78.97 L 31.93 78.85 L 32.40 78.56 L 32.82 78.17 L 33.24 77.75 L 33.61 77.32 L 33.89 76.84 L 34.07 76.33 L 34.29 75.83 L 34.60 75.37 L 34.86 74.89 L 34.98 74.35 L 35.02 73.77 L 35.11 73.22 L 35.36 72.74 L 35.75 72.36 L 36.22 72.10 L 36.73 71.92 L 37.23 71.68 L 37.69 71.37 L 38.17 71.11 L 38.69 70.93 L 39.18 70.70 L 39.59 70.34 L 39.86 69.87 L 39.98 69.33 L 39.98 68.76 L 39.88 68.21 L 39.65 67.72 L 39.34 67.25 L 39.11 66.76 L 39.02 66.21 L 38.97 65.66 L 38.81 65.25 L 38.48 65.13 L 38.18 65.31 L 38.12 65.72 L 38.31 66.20 L 38.61 66.66 L 38.86 67.14 L 38.89 67.65 L 38.71 68.15 L 38.36 68.57 L 37.91 68.87 L 37.39 69.05 L 36.89 69.25 L 36.43 69.56 L 35.96 69.83 L 35.44 69.91 L 34.94 69.77 L 34.50 69.44 L 34.18 69.00 L 33.99 68.49 L 33.80 67.98 L 33.51 67.51 L 33.21 67.04 L 33.05 66.52 L 32.99 65.96 L 32.89 65.47 L 32.62 65.15 L 32.16 65.03 L 31.60 65.03 Z M 87.05 10.18 L 86.57 10.47 L 86.11 10.89 L 85.66 11.32 L 85.19 11.68 L 84.69 11.94 L 84.26 12.19 L 83.99 12.59 L 83.75 13.09 L 83.39 13.53 L 82.91 13.86 L 82.37 14.06 L 81.84 14.30 L 81.37 14.66 L 80.91 15.08 L 80.46 15.50 L 79.97 15.83 L 79.43 16.04 L 78.90 16.26 L 78.41 16.61 L 77.96 17.04 L 77.52 17.48 L 77.08 17.92 L 76.63 18.37 L 76.19 18.81 L 75.76 19.26 L 75.37 19.73 L 75.14 20.24 L 75.14 20.78 L 75.39 21.28 L 75.81 21.67 L 76.33 21.90 L 76.93 21.98 L 77.55 22.00 L 78.15 21.97 L 78.64 21.83 L 78.94 21.49 L 79.17 21.01 L 79.51 20.53 L 79.93 20.08 L 80.37 19.63 L 80.81 19.19 L 81.26 18.74 L 81.70 18.30 L 82.14 17.86 L 82.59 17.41 L 83.03 16.97 L 83.47 16.53 L 83.91 16.09 L 84.36 15.64 L 84.80 15.20 L 85.24 14.75 L 85.62 14.28 L 85.90 13.77 L 86.10 13.23 L 86.38 12.72 L 86.76 12.25 L 87.19 11.80 L 87.59 11.34 L 87.84 10.85 L 87.83 10.40 L 87.52 10.14 Z" fill="rgb(250,82,79)" fill-rule="evenodd"/>
</svg>