<svg xmlns="http://www.w3.org/2000/svg" width="105" height="159" viewBox="0 0 105 159" role="img" aria-label="35_icons_35">
  <title>35_icons_35</title>
  <path d="M 86.12 4.30 L 84.79 4.70 L 83.38 4.94 L 81.90 5.00 L 80.40 5.00 L 78.90 5.00 L 77.41 5.03 L 75.96 5.16 L 74.58 5.47 L 73.22 5.80 L 71.78 5.96 L 70.29 6.00 L 68.81 6.05 L 67.40 6.27 L 66.05 6.64 L 64.66 6.91 L 63.20 7.02 L 61.77 7.20 L 60.40 7.53 L 59.03 7.84 L 57.58 7.97 L 56.09 8.00 L 54.59 8.02 L 53.14 8.14 L 51.83 8.48 L 50.89 9.08 L 50.76 9.71 L 51.48 10.24 L 52.36 11.01 L 52.89 12.17 L 53.30 13.44 L 54.06 14.37 L 55.19 14.65 L 56.42 14.28 L 57.59 13.57 L 58.61 12.75 L 59.47 11.78 L 60.43 10.90 L 61.56 10.49 L 62.70 10.50 L 63.61 10.25 L 64.26 9.42 L 65.08 8.60 L 66.20 8.37 L 67.29 8.79 L 68.26 9.43 L 69.37 9.67 L 70.64 9.44 L 72.01 9.15 L 73.43 8.97 L 74.81 8.73 L 76.06 8.50 L 77.08 8.79 L 77.63 9.73 L 77.46 10.85 L 76.57 11.64 L 75.25 11.95 L 73.85 12.07 L 72.70 12.45 L 71.94 13.27 L 71.19 14.15 L 70.19 14.43 L 69.06 13.99 L 67.85 13.38 L 66.56 13.16 L 65.49 13.54 L 64.81 14.49 L 64.09 15.60 L 63.06 16.45 L 61.76 16.89 L 60.45 17.14 L 59.49 17.69 L 59.13 18.75 L 59.29 19.96 L 59.84 21.01 L 60.41 22.03 L 60.50 23.20 L 60.17 24.48 L 59.68 25.76 L 58.89 26.87 L 57.77 27.64 L 56.48 28.04 L 55.33 28.52 L 54.40 29.36 L 53.41 30.18 L 52.28 30.44 L 51.20 29.92 L 50.42 28.87 L 50.05 27.55 L 49.79 26.23 L 49.25 25.14 L 48.33 24.21 L 47.27 23.24 L 46.20 22.20 L 45.12 21.22 L 43.98 20.57 L 42.75 20.55 L 41.52 21.05 L 40.33 21.77 L 39.15 22.38 L 37.92 22.51 L 36.62 22.25 L 35.23 22.01 L 33.87 21.76 L 32.77 21.16 L 32.07 20.28 L 31.59 19.78 L 31.21 20.22 L 30.98 21.39 L 30.65 22.73 L 30.01 23.96 L 29.32 25.18 L 28.78 26.46 L 28.15 27.71 L 27.49 28.94 L 27.07 30.26 L 26.73 31.63 L 26.23 32.92 L 25.65 34.19 L 25.04 35.43 L 24.46 36.70 L 24.00 38.01 L 23.57 39.34 L 23.13 40.66 L 22.68 41.97 L 22.10 43.24 L 21.50 44.49 L 20.89 45.74 L 20.24 46.98 L 19.63 48.23 L 19.01 49.48 L 18.40 50.72 L 17.82 51.99 L 17.30 53.28 L 16.97 54.64 L 16.66 56.02 L 16.27 57.36 L 16.02 58.76 L 15.78 60.16 L 15.28 61.46 L 14.61 62.68 L 14.05 63.96 L 13.60 65.27 L 13.16 66.59 L 12.70 67.91 L 12.13 69.17 L 11.53 70.43 L 10.93 71.68 L 10.39 72.96 L 10.08 74.34 L 9.88 75.76 L 9.48 77.10 L 8.79 78.31 L 8.05 79.51 L 7.46 80.77 L 7.09 82.12 L 6.76 83.49 L 6.30 84.80 L 5.73 86.06 L 5.06 87.29 L 4.33 88.49 L 3.65 89.69 L 3.35 90.95 L 3.65 92.18 L 4.51 93.15 L 5.70 93.66 L 7.01 93.62 L 8.33 93.26 L 9.71 92.96 L 11.08 92.64 L 12.42 92.26 L 13.84 92.05 L 15.32 92.00 L 16.81 91.96 L 18.25 91.80 L 19.61 91.46 L 20.99 91.16 L 22.43 91.01 L 23.87 90.87 L 25.26 90.58 L 26.61 90.23 L 28.04 90.04 L 29.53 90.00 L 31.03 90.00 L 32.53 90.00 L 34.03 89.99 L 35.51 89.94 L 36.90 89.72 L 38.13 89.51 L 39.10 89.83 L 39.48 90.75 L 39.28 91.96 L 38.88 93.27 L 38.42 94.58 L 37.84 95.84 L 37.18 97.07 L 36.62 98.34 L 36.19 99.67 L 35.88 101.04 L 35.48 102.38 L 34.94 103.66 L 34.40 104.94 L 34.04 106.30 L 33.68 107.65 L 33.02 108.88 L 32.25 110.07 L 31.64 111.31 L 31.16 112.62 L 30.73 113.94 L 30.29 115.27 L 30.03 116.66 L 29.83 118.08 L 29.46 119.43 L 28.90 120.70 L 28.27 121.94 L 27.69 123.21 L 27.25 124.53 L 27.01 125.93 L 26.78 127.34 L 26.37 128.67 L 25.81 129.94 L 25.16 131.18 L 24.58 132.44 L 24.17 133.77 L 23.82 135.13 L 23.27 136.41 L 22.44 137.57 L 21.62 138.73 L 21.04 139.99 L 20.58 141.31 L 20.15 142.63 L 19.69 143.94 L 19.12 145.21 L 18.55 146.48 L 18.09 147.79 L 17.70 149.10 L 17.46 150.37 L 17.53 151.62 L 17.54 152.88 L 17.23 154.15 L 16.84 155.44 L 16.54 156.65 L 16.69 157.47 L 17.39 157.52 L 18.25 156.84 L 19.19 155.84 L 20.22 154.78 L 21.26 153.71 L 22.20 152.60 L 23.03 151.44 L 23.84 150.27 L 24.64 149.11 L 25.43 148.01 L 26.38 147.07 L 27.34 146.16 L 28.17 145.11 L 29.07 144.00 L 30.07 142.91 L 31.05 141.82 L 31.91 140.67 L 32.73 139.50 L 33.66 138.39 L 34.69 137.31 L 35.75 136.25 L 36.81 135.18 L 37.84 134.10 L 38.73 132.97 L 39.51 131.79 L 40.40 130.66 L 41.43 129.58 L 42.49 128.51 L 43.55 127.45 L 44.61 126.39 L 45.67 125.32 L 46.70 124.24 L 47.59 123.11 L 48.37 121.93 L 49.26 120.80 L 50.28 119.72 L 51.32 118.64 L 52.25 117.53 L 53.07 116.36 L 53.93 115.21 L 54.91 114.12 L 55.95 113.05 L 57.01 111.98 L 58.00 110.89 L 58.87 109.75 L 59.68 108.57 L 60.60 107.45 L 61.63 106.38 L 62.68 105.31 L 63.71 104.23 L 64.60 103.10 L 65.39 101.94 L 66.28 100.88 L 67.24 99.96 L 68.14 99.06 L 69.14 98.21 L 70.28 97.43 L 71.38 96.52 L 72.31 95.44 L 73.12 94.27 L 73.95 93.11 L 74.78 91.97 L 75.55 90.88 L 76.37 89.91 L 77.21 88.93 L 78.13 87.90 L 79.17 86.84 L 80.23 85.77 L 81.29 84.71 L 82.32 83.63 L 83.26 82.52 L 84.08 81.36 L 84.95 80.25 L 86.00 79.32 L 87.14 78.52 L 88.16 77.59 L 88.96 76.45 L 89.58 75.20 L 90.09 73.94 L 90.75 72.85 L 91.73 72.10 L 92.78 71.46 L 93.74 70.68 L 94.73 69.85 L 95.54 68.84 L 95.93 67.55 L 96.15 66.15 L 96.60 64.86 L 97.49 63.86 L 98.69 63.23 L 100.03 62.85 L 101.32 62.32 L 102.43 61.46 L 103.27 60.37 L 103.59 59.26 L 103.16 58.42 L 102.05 58.07 L 100.63 58.02 L 99.17 58.12 L 97.79 58.41 L 96.43 58.77 L 95.01 58.96 L 93.52 59.00 L 92.03 59.04 L 90.61 59.23 L 89.25 59.58 L 87.87 59.87 L 86.41 59.98 L 84.93 60.04 L 83.51 60.25 L 82.16 60.61 L 80.77 60.89 L 79.31 60.98 L 77.81 61.00 L 76.31 61.00 L 74.81 61.00 L 73.30 61.00 L 71.80 61.00 L 70.30 61.00 L 68.79 61.00 L 67.29 61.00 L 65.81 61.05 L 64.39 61.27 L 63.05 61.64 L 61.68 61.85 L 60.41 61.62 L 59.63 60.87 L 59.68 59.79 L 60.38 58.65 L 61.22 57.51 L 61.86 56.27 L 62.43 55.00 L 63.22 53.83 L 64.13 52.70 L 64.93 51.53 L 65.55 50.28 L 66.04 48.98 L 66.63 47.72 L 67.48 46.57 L 68.47 45.48 L 69.33 44.33 L 69.95 43.09 L 70.55 41.83 L 71.36 40.67 L 72.26 39.53 L 73.09 38.41 L 74.01 37.43 L 75.09 36.60 L 76.07 35.65 L 76.77 34.47 L 77.34 33.24 L 78.19 32.23 L 79.29 31.42 L 80.38 30.51 L 81.26 29.40 L 81.79 28.11 L 82.02 26.71 L 82.30 25.32 L 82.82 24.03 L 83.48 22.80 L 84.24 21.62 L 84.99 20.42 L 85.66 19.20 L 86.35 17.98 L 87.20 16.83 L 88.13 15.71 L 88.92 14.54 L 89.45 13.30 L 89.58 12.06 L 89.47 10.84 L 89.76 9.68 L 90.64 8.73 L 91.83 8.09 L 93.07 7.49 L 94.08 6.61 L 94.62 5.49 L 94.41 4.54 L 93.41 4.10 L 92.00 4.01 L 90.51 4.00 L 89.01 4.00 L 87.53 4.06 Z M 48.00 65.00 L 48.42 64.60 L 48.87 64.27 L 49.37 64.10 L 49.89 64.15 L 50.36 64.41 L 50.79 64.80 L 51.20 65.21 L 51.59 65.64 L 51.86 66.11 L 51.98 66.65 L 52.00 67.23 L 52.00 67.82 L 52.00 68.41 L 52.01 68.99 L 52.09 69.50 L 52.34 69.84 L 52.79 69.97 L 53.36 70.00 L 53.94 70.01 L 54.51 70.05 L 55.03 70.21 L 55.49 70.52 L 55.92 70.92 L 56.32 71.34 L 56.67 71.78 L 56.90 72.28 L 56.98 72.83 L 57.00 73.41 L 57.00 74.00 L 57.00 74.59 L 57.02 75.17 L 57.10 75.73 L 57.32 76.22 L 57.63 76.69 L 57.89 77.17 L 58.07 77.68 L 58.29 78.18 L 58.60 78.64 L 58.85 79.11 L 58.90 79.63 L 58.73 80.13 L 58.39 80.55 L 57.94 80.84 L 57.42 80.91 L 56.92 80.76 L 56.49 80.43 L 56.17 79.98 L 55.99 79.47 L 55.79 78.96 L 55.48 78.51 L 55.08 78.08 L 54.68 77.66 L 54.33 77.22 L 54.10 76.72 L 54.02 76.17 L 54.00 75.59 L 53.99 75.01 L 53.91 74.50 L 53.67 74.14 L 53.25 73.92 L 52.77 73.68 L 52.31 73.37 L 51.83 73.11 L 51.32 72.93 L 50.82 72.70 L 50.38 72.36 L 49.96 71.95 L 49.56 71.53 L 49.23 71.08 L 49.03 70.60 L 48.80 70.20 L 48.40 69.97 L 47.92 69.76 L 47.46 69.44 L 47.04 69.04 L 46.64 68.62 L 46.30 68.17 L 46.11 67.68 L 46.14 67.16 L 46.39 66.69 L 46.76 66.25 L 47.17 65.83 L 47.58 65.42 Z M 47.13 61.05 L 47.37 60.67 L 47.70 60.34 L 48.09 60.12 L 48.53 60.04 L 48.96 60.13 L 49.34 60.38 L 49.66 60.71 L 49.89 61.10 L 49.98 61.55 L 50.00 62.03 L 49.98 62.51 L 49.87 62.95 L 49.63 63.33 L 49.30 63.66 L 48.91 63.88 L 48.47 63.96 L 48.04 63.87 L 47.66 63.62 L 47.34 63.29 L 47.11 62.90 L 47.02 62.45 L 47.00 61.97 L 47.02 61.49 Z M 46.13 42.05 L 46.37 41.67 L 46.70 41.34 L 47.09 41.12 L 47.53 41.04 L 47.96 41.13 L 48.34 41.38 L 48.66 41.71 L 48.89 42.10 L 48.98 42.55 L 49.00 43.03 L 48.98 43.51 L 48.87 43.95 L 48.63 44.33 L 48.30 44.66 L 47.91 44.88 L 47.47 44.96 L 47.04 44.87 L 46.66 44.62 L 46.34 44.29 L 46.11 43.90 L 46.02 43.45 L 46.00 42.97 L 46.02 42.49 Z M 48.13 39.05 L 48.37 38.67 L 48.70 38.34 L 49.09 38.12 L 49.53 38.04 L 49.96 38.13 L 50.34 38.38 L 50.66 38.71 L 50.89 39.10 L 50.98 39.55 L 51.00 40.03 L 50.98 40.51 L 50.87 40.95 L 50.63 41.33 L 50.30 41.66 L 49.91 41.88 L 49.47 41.96 L 49.04 41.87 L 48.66 41.62 L 48.34 41.29 L 48.11 40.90 L 48.02 40.45 L 48.00 39.97 L 48.02 39.49 Z M 50.15 33.06 L 50.45 32.61 L 50.87 32.27 L 51.36 32.10 L 51.88 32.15 L 52.35 32.40 L 52.77 32.78 L 53.19 33.19 L 53.60 33.60 L 54.02 34.02 L 54.43 34.43 L 54.84 34.85 L 55.25 35.26 L 55.62 35.69 L 55.86 36.17 L 55.89 36.68 L 55.70 37.17 L 55.35 37.58 L 54.89 37.86 L 54.35 37.98 L 53.78 38.00 L 53.19 38.00 L 52.61 38.00 L 52.03 37.99 L 51.46 37.94 L 50.95 37.78 L 50.51 37.45 L 50.20 37.01 L 50.05 36.49 L 50.01 35.92 L 50.00 35.34 L 50.00 34.76 L 50.00 34.17 L 50.03 33.60 Z" fill="rgb(17,16,15)" fill-rule="evenodd"/>
  <path d="M 49.06 65.15 L 48.63 65.42 L 48.30 65.82 L 48.09 66.28 L 48.01 66.80 L 48.00 67.35 L 48.00 67.90 L 48.04 68.42 L 48.21 68.80 L 48.60 68.97 L 49.12 69.01 L 49.64 69.07 L 50.12 69.25 L 50.52 69.57 L 50.82 69.99 L 50.96 70.49 L 51.00 71.02 L 51.07 71.50 L 51.29 71.85 L 51.68 72.05 L 52.13 72.26 L 52.56 72.55 L 53.00 72.83 L 53.49 72.99 L 53.97 73.16 L 54.39 73.44 L 54.72 73.84 L 54.92 74.32 L 54.99 74.84 L 55.00 75.39 L 55.00 75.94 L 55.03 76.48 L 55.17 76.98 L 55.45 77.40 L 55.85 77.73 L 56.30 77.89 L 56.69 77.83 L 56.90 77.53 L 56.86 77.09 L 56.62 76.65 L 56.31 76.22 L 56.10 75.76 L 56.02 75.24 L 56.00 74.69 L 56.00 74.14 L 56.00 73.59 L 56.00 73.04 L 55.96 72.50 L 55.82 72.00 L 55.53 71.58 L 55.13 71.26 L 54.65 71.08 L 54.13 71.01 L 53.58 71.00 L 53.03 70.99 L 52.49 70.96 L 51.99 70.82 L 51.57 70.52 L 51.25 70.12 L 51.07 69.64 L 51.01 69.11 L 51.00 68.56 L 51.00 68.01 L 51.00 67.46 L 50.99 66.91 L 50.93 66.38 L 50.76 65.90 L 50.44 65.49 L 50.03 65.20 L 49.54 65.07 Z M 41.21 10.19 L 41.11 10.53 L 41.29 10.85 L 41.68 11.05 L 42.14 11.27 L 42.58 11.57 L 43.03 11.84 L 43.52 12.01 L 44.01 12.19 L 44.44 12.49 L 44.76 12.90 L 44.93 13.39 L 44.99 13.93 L 44.96 14.48 L 44.83 14.98 L 44.53 15.41 L 44.12 15.74 L 43.64 15.92 L 43.10 15.99 L 42.56 15.97 L 42.05 15.85 L 41.60 15.56 L 41.19 15.19 L 40.79 14.79 L 40.38 14.42 L 39.94 14.14 L 39.42 14.02 L 38.87 13.99 L 38.34 13.92 L 37.86 13.73 L 37.43 13.41 L 37.02 13.02 L 36.64 12.62 L 36.30 12.20 L 36.07 11.74 L 35.87 11.34 L 35.57 11.12 L 35.24 11.20 L 35.05 11.55 L 35.01 12.07 L 35.00 12.62 L 35.00 13.18 L 35.00 13.75 L 35.00 14.31 L 35.00 14.87 L 34.97 15.43 L 34.86 15.94 L 34.58 16.39 L 34.20 16.80 L 33.81 17.20 L 33.43 17.60 L 33.16 18.05 L 33.08 18.54 L 33.20 19.03 L 33.48 19.48 L 33.77 19.92 L 33.97 20.38 L 34.18 20.76 L 34.56 20.95 L 35.08 20.98 L 35.61 20.93 L 36.10 20.76 L 36.54 20.46 L 36.99 20.19 L 37.48 20.08 L 37.98 20.17 L 38.42 20.44 L 38.86 20.73 L 39.32 20.89 L 39.72 20.82 L 39.95 20.50 L 40.14 20.05 L 40.43 19.62 L 40.84 19.29 L 41.32 19.09 L 41.85 19.01 L 42.41 19.00 L 42.97 19.01 L 43.51 19.05 L 44.02 19.19 L 44.46 19.49 L 44.86 19.86 L 45.26 20.26 L 45.66 20.66 L 46.06 21.06 L 46.46 21.46 L 46.85 21.85 L 47.25 22.25 L 47.67 22.61 L 48.12 22.87 L 48.64 22.98 L 49.19 23.01 L 49.72 23.09 L 50.19 23.30 L 50.59 23.65 L 50.86 24.09 L 50.98 24.61 L 51.00 25.16 L 51.00 25.72 L 51.00 26.28 L 51.00 26.84 L 51.03 27.38 L 51.19 27.77 L 51.56 27.91 L 52.02 27.80 L 52.47 27.53 L 52.91 27.24 L 53.40 27.07 L 53.94 27.01 L 54.50 27.00 L 55.06 27.00 L 55.63 27.00 L 56.19 27.00 L 56.75 27.00 L 57.31 26.98 L 57.83 26.88 L 58.28 26.63 L 58.65 26.26 L 58.89 25.80 L 58.98 25.28 L 59.02 24.73 L 59.11 24.20 L 59.34 23.73 L 59.64 23.30 L 59.86 22.85 L 59.87 22.42 L 59.62 22.13 L 59.17 22.02 L 58.63 22.00 L 58.07 22.00 L 57.50 22.00 L 56.94 22.00 L 56.38 22.00 L 55.82 21.99 L 55.29 21.91 L 54.81 21.70 L 54.39 21.37 L 53.99 20.98 L 53.60 20.58 L 53.28 20.15 L 53.10 19.68 L 53.13 19.18 L 53.36 18.73 L 53.73 18.36 L 54.18 18.12 L 54.71 18.02 L 55.26 18.00 L 55.82 18.00 L 56.36 17.97 L 56.77 17.81 L 56.99 17.45 L 57.18 16.99 L 57.48 16.57 L 57.89 16.25 L 58.37 16.05 L 58.87 15.88 L 59.32 15.63 L 59.76 15.32 L 60.23 15.10 L 60.76 15.02 L 61.32 15.00 L 61.88 15.00 L 62.44 15.00 L 62.99 14.99 L 63.49 14.93 L 63.83 14.70 L 63.97 14.28 L 63.97 13.77 L 63.85 13.33 L 63.54 13.07 L 63.10 12.88 L 62.67 12.60 L 62.31 12.21 L 62.08 11.76 L 61.88 11.35 L 61.58 11.13 L 61.25 11.19 L 61.03 11.52 L 60.85 11.98 L 60.55 12.41 L 60.18 12.82 L 59.78 13.22 L 59.37 13.59 L 58.92 13.87 L 58.43 14.03 L 57.94 14.22 L 57.52 14.53 L 57.21 14.95 L 57.03 15.44 L 56.87 15.93 L 56.58 16.36 L 56.18 16.71 L 55.70 16.91 L 55.17 16.99 L 54.61 17.00 L 54.05 17.00 L 53.49 17.00 L 52.93 16.99 L 52.39 16.93 L 51.90 16.75 L 51.47 16.44 L 51.06 16.06 L 50.67 15.66 L 50.33 15.24 L 50.10 14.77 L 50.02 14.24 L 50.00 13.68 L 50.00 13.12 L 49.96 12.60 L 49.79 12.21 L 49.42 12.09 L 48.95 12.21 L 48.51 12.49 L 48.07 12.78 L 47.57 12.94 L 47.03 12.99 L 46.47 13.00 L 45.91 12.99 L 45.37 12.93 L 44.89 12.75 L 44.47 12.42 L 44.18 11.99 L 44.04 11.49 L 43.99 10.95 L 43.91 10.47 L 43.67 10.15 L 43.23 10.02 L 42.69 10.00 L 42.13 10.00 L 41.60 10.03 Z M 38.13 17.05 L 38.37 16.67 L 38.70 16.34 L 39.09 16.12 L 39.53 16.04 L 39.96 16.13 L 40.34 16.38 L 40.66 16.71 L 40.89 17.10 L 40.98 17.55 L 41.00 18.03 L 40.98 18.51 L 40.87 18.95 L 40.63 19.33 L 40.30 19.66 L 39.91 19.88 L 39.47 19.96 L 39.04 19.87 L 38.66 19.62 L 38.34 19.29 L 38.11 18.90 L 38.02 18.45 L 38.00 17.97 L 38.02 17.49 Z M 45.15 15.06 L 45.41 14.64 L 45.80 14.30 L 46.26 14.09 L 46.77 14.02 L 47.30 14.02 L 47.81 14.11 L 48.25 14.34 L 48.62 14.69 L 48.88 15.13 L 48.98 15.63 L 48.99 16.16 L 48.92 16.67 L 48.73 17.14 L 48.41 17.54 L 48.00 17.82 L 47.52 17.93 L 47.04 17.85 L 46.61 17.58 L 46.22 17.22 L 45.83 16.83 L 45.47 16.44 L 45.19 16.01 L 45.07 15.54 Z M 66.19 9.20 L 66.03 9.56 L 66.00 10.06 L 66.00 10.59 L 66.01 11.11 L 66.09 11.56 L 66.32 11.86 L 66.73 11.98 L 67.23 12.01 L 67.73 12.09 L 68.18 12.28 L 68.59 12.57 L 69.01 12.84 L 69.49 12.96 L 70.00 12.99 L 70.48 12.95 L 70.83 12.77 L 71.02 12.40 L 71.19 11.96 L 71.48 11.56 L 71.87 11.25 L 72.32 11.07 L 72.83 11.01 L 73.35 11.00 L 73.88 11.00 L 74.41 11.00 L 74.94 11.00 L 75.47 11.00 L 75.99 10.99 L 76.48 10.95 L 76.82 10.78 L 76.90 10.45 L 76.72 10.15 L 76.33 10.03 L 75.82 10.00 L 75.29 10.00 L 74.76 10.00 L 74.23 10.00 L 73.70 10.00 L 73.18 10.00 L 72.65 10.02 L 72.16 10.11 L 71.73 10.34 L 71.32 10.64 L 70.89 10.88 L 70.40 10.98 L 69.88 11.00 L 69.35 11.00 L 68.83 10.99 L 68.32 10.93 L 67.87 10.75 L 67.48 10.44 L 67.19 10.04 L 67.02 9.60 L 66.83 9.23 L 66.51 9.08 Z" fill="rgb(92,92,89)" fill-rule="evenodd"/>
  <path d="M 8.19 68.19 L 8.03 68.57 L 8.01 69.07 L 8.05 69.58 L 8.20 70.05 L 8.48 70.47 L 8.76 70.89 L 8.96 71.33 L 9.14 71.71 L 9.44 71.90 L 9.77 71.82 L 9.95 71.48 L 10.00 71.00 L 10.04 70.48 L 10.17 70.00 L 10.44 69.58 L 10.73 69.16 L 10.90 68.73 L 10.85 68.33 L 10.58 68.10 L 10.12 68.01 L 9.60 68.00 L 9.07 68.00 L 8.57 68.03 Z" fill="rgb(252,252,252)" fill-rule="evenodd"/>
</svg>