<svg xmlns="http://www.w3.org/2000/svg" width="100" height="159" viewBox="0 0 100 159" role="img" aria-label="36_icons_36">
  <title>36_icons_36</title>
  <path d="M 53.06 15.14 L 52.62 15.40 L 52.19 15.71 L 51.72 15.91 L 51.20 15.99 L 50.65 16.00 L 50.11 16.00 L 49.59 16.03 L 49.21 16.19 L 49.10 16.52 L 49.27 16.84 L 49.66 17.04 L 50.11 17.24 L 50.54 17.53 L 50.98 17.81 L 51.46 17.98 L 51.94 18.13 L 52.38 18.40 L 52.81 18.70 L 53.26 18.89 L 53.66 18.85 L 53.90 18.56 L 53.99 18.09 L 54.02 17.56 L 54.14 17.06 L 54.40 16.62 L 54.70 16.19 L 54.89 15.74 L 54.85 15.34 L 54.56 15.10 L 54.09 15.02 L 53.56 15.03 Z M 96.83 3.53 L 95.77 3.78 L 94.49 4.19 L 93.17 4.63 L 91.85 5.06 L 90.52 5.48 L 89.17 5.85 L 87.80 6.16 L 86.45 6.51 L 85.08 6.83 L 83.66 7.03 L 82.27 7.29 L 80.93 7.68 L 79.54 7.95 L 78.11 8.13 L 76.75 8.47 L 75.48 9.01 L 74.20 9.55 L 72.84 9.88 L 71.41 10.06 L 70.03 10.34 L 68.77 10.79 L 67.82 11.36 L 67.50 12.22 L 67.51 13.29 L 67.08 14.26 L 66.05 14.91 L 64.78 15.38 L 63.46 15.82 L 62.15 16.29 L 60.93 16.89 L 59.89 17.68 L 59.17 18.74 L 58.58 19.96 L 57.73 21.01 L 56.65 21.76 L 55.76 22.39 L 55.54 23.30 L 55.83 24.50 L 56.23 25.79 L 56.52 27.05 L 56.30 28.22 L 55.48 29.13 L 54.42 29.42 L 53.54 28.86 L 53.05 27.74 L 52.59 26.61 L 51.75 25.84 L 50.67 25.54 L 49.67 25.93 L 48.81 26.79 L 47.84 27.45 L 46.65 27.44 L 45.41 26.96 L 44.14 26.42 L 42.78 26.07 L 41.42 25.77 L 40.14 25.50 L 39.01 25.66 L 38.11 26.47 L 37.44 27.64 L 36.78 28.86 L 35.93 30.01 L 34.98 31.12 L 34.12 32.26 L 33.32 33.43 L 32.40 34.55 L 31.41 35.64 L 30.54 36.78 L 29.84 37.99 L 29.27 39.26 L 28.80 40.56 L 28.34 41.88 L 27.88 43.19 L 27.30 44.45 L 26.58 45.65 L 25.82 46.84 L 24.95 47.97 L 23.94 49.06 L 22.90 50.13 L 21.96 51.24 L 21.29 52.46 L 20.91 53.81 L 20.47 55.12 L 19.78 56.34 L 19.04 57.53 L 18.43 58.78 L 17.94 60.08 L 17.37 61.34 L 16.65 62.55 L 15.92 63.75 L 15.25 64.97 L 14.64 66.22 L 14.02 67.46 L 13.40 68.71 L 12.75 69.94 L 11.95 71.10 L 11.12 72.26 L 10.36 73.45 L 9.60 74.63 L 8.87 75.84 L 8.17 77.05 L 7.48 78.26 L 6.75 79.46 L 6.15 80.71 L 5.60 81.98 L 4.87 83.18 L 4.07 84.35 L 3.24 85.47 L 2.25 86.38 L 1.24 87.00 L 0.78 87.48 L 1.29 87.86 L 2.44 88.19 L 3.73 88.51 L 5.01 88.55 L 6.30 88.26 L 7.68 88.02 L 9.10 87.83 L 10.47 87.51 L 11.84 87.18 L 13.28 87.03 L 14.76 87.00 L 16.24 86.95 L 17.65 86.72 L 18.99 86.34 L 20.39 86.08 L 21.86 86.01 L 23.35 86.00 L 24.85 86.00 L 26.35 85.98 L 27.81 85.88 L 29.19 85.60 L 30.54 85.24 L 31.96 85.04 L 33.45 85.00 L 34.94 85.01 L 36.41 85.07 L 37.72 85.40 L 38.54 86.25 L 38.65 87.45 L 38.15 88.69 L 37.47 89.91 L 36.95 91.19 L 36.50 92.50 L 36.05 93.82 L 35.52 95.10 L 34.80 96.30 L 34.05 97.49 L 33.40 98.72 L 32.79 99.97 L 32.14 101.20 L 31.52 102.45 L 30.91 103.69 L 30.27 104.93 L 29.70 106.20 L 29.24 107.50 L 28.90 108.86 L 28.44 110.18 L 27.79 111.41 L 27.23 112.68 L 26.85 114.02 L 26.36 115.32 L 25.65 116.53 L 24.89 117.71 L 24.07 118.87 L 23.25 120.03 L 22.51 121.23 L 21.79 122.43 L 21.22 123.70 L 20.85 125.04 L 20.32 126.32 L 19.51 127.49 L 18.68 128.65 L 18.08 129.90 L 17.59 131.20 L 17.01 132.46 L 16.41 133.71 L 15.80 134.96 L 15.15 136.19 L 14.57 137.45 L 14.10 138.76 L 13.67 140.08 L 13.21 141.39 L 12.75 142.70 L 12.21 143.98 L 11.62 145.24 L 11.01 146.48 L 10.44 147.75 L 9.98 149.06 L 9.51 150.36 L 8.95 151.63 L 8.38 152.90 L 7.92 154.20 L 7.46 155.51 L 6.98 156.69 L 6.86 157.50 L 7.50 157.65 L 8.59 157.15 L 9.70 156.26 L 10.77 155.23 L 11.83 154.17 L 12.89 153.11 L 13.95 152.05 L 15.00 150.98 L 16.00 149.89 L 16.87 148.75 L 17.67 147.58 L 18.59 146.46 L 19.62 145.39 L 20.68 144.32 L 21.74 143.26 L 22.80 142.20 L 23.86 141.14 L 24.92 140.08 L 25.98 139.02 L 27.04 137.96 L 28.10 136.90 L 29.17 135.83 L 30.23 134.77 L 31.29 133.71 L 32.35 132.65 L 33.41 131.59 L 34.47 130.53 L 35.53 129.47 L 36.59 128.41 L 37.66 127.34 L 38.72 126.28 L 39.78 125.22 L 40.84 124.16 L 41.90 123.10 L 42.96 122.04 L 44.02 120.98 L 45.08 119.92 L 46.15 118.85 L 47.21 117.79 L 48.27 116.73 L 49.33 115.67 L 50.39 114.61 L 51.45 113.55 L 52.51 112.49 L 53.53 111.41 L 54.43 110.28 L 55.21 109.10 L 56.09 107.97 L 57.12 106.89 L 58.17 105.83 L 59.23 104.77 L 60.30 103.70 L 61.36 102.65 L 62.43 101.61 L 63.55 100.69 L 64.71 99.89 L 65.82 99.01 L 66.74 97.94 L 67.52 96.78 L 68.41 95.65 L 69.44 94.57 L 70.49 93.51 L 71.55 92.44 L 72.58 91.37 L 73.47 90.24 L 74.24 89.11 L 75.09 88.12 L 76.00 87.24 L 76.96 86.41 L 77.95 85.58 L 78.68 84.53 L 79.05 83.22 L 79.33 81.91 L 79.41 80.92 L 78.90 80.55 L 77.85 80.73 L 76.52 80.87 L 75.18 80.61 L 74.08 79.84 L 73.35 78.69 L 73.03 77.33 L 72.84 75.91 L 72.57 74.57 L 72.52 73.31 L 73.04 72.16 L 73.96 71.07 L 75.04 70.08 L 76.24 69.36 L 77.58 68.98 L 78.92 68.57 L 80.10 67.81 L 81.19 66.81 L 82.26 65.78 L 83.39 64.87 L 84.64 64.27 L 86.05 64.05 L 87.53 64.00 L 88.95 63.94 L 90.02 63.70 L 90.20 63.30 L 89.34 63.06 L 87.96 63.00 L 86.48 62.98 L 85.03 62.85 L 83.65 62.55 L 82.29 62.21 L 80.88 62.09 L 79.48 62.25 L 78.14 62.59 L 76.82 62.71 L 75.49 62.48 L 74.13 62.18 L 72.69 62.03 L 71.20 62.00 L 69.70 62.00 L 68.21 61.96 L 66.78 61.81 L 65.42 61.49 L 64.10 61.29 L 62.79 61.39 L 61.60 61.48 L 60.74 61.00 L 60.58 60.01 L 61.11 58.87 L 61.89 57.72 L 62.66 56.53 L 63.42 55.35 L 64.14 54.15 L 64.85 52.96 L 65.59 51.86 L 66.39 50.89 L 67.16 49.89 L 67.90 48.77 L 68.66 47.60 L 69.52 46.47 L 70.25 45.40 L 70.35 44.65 L 69.66 44.59 L 68.75 45.18 L 68.04 46.14 L 67.38 47.26 L 66.50 48.27 L 65.54 49.15 L 64.65 49.98 L 63.63 50.47 L 62.43 50.37 L 61.18 49.87 L 59.90 49.34 L 58.52 49.04 L 57.11 48.84 L 55.83 48.37 L 54.89 47.51 L 54.58 46.44 L 55.12 45.57 L 56.30 45.13 L 57.72 44.98 L 59.15 44.81 L 60.49 44.44 L 61.76 43.87 L 62.98 43.21 L 64.19 42.49 L 65.30 41.60 L 66.25 40.53 L 67.06 39.37 L 67.83 38.23 L 68.37 37.21 L 68.20 36.60 L 67.31 36.58 L 66.10 36.68 L 65.04 36.33 L 64.60 35.48 L 65.02 34.56 L 66.04 33.80 L 67.18 33.08 L 68.16 32.24 L 68.66 31.15 L 68.63 29.89 L 68.52 28.68 L 68.97 27.73 L 70.05 27.19 L 71.43 26.96 L 72.78 26.62 L 73.89 25.86 L 74.59 24.74 L 74.69 23.46 L 74.38 22.13 L 74.17 20.77 L 74.36 19.48 L 75.13 18.54 L 76.35 18.11 L 77.75 17.96 L 79.02 17.69 L 80.03 17.04 L 80.94 16.06 L 81.79 14.96 L 82.62 13.94 L 83.71 13.28 L 85.02 12.98 L 86.23 12.63 L 87.22 11.95 L 88.25 11.18 L 89.45 10.53 L 90.70 9.92 L 91.98 9.38 L 93.33 9.07 L 94.64 8.82 L 95.57 8.24 L 96.06 7.15 L 96.51 5.89 L 97.11 4.73 L 97.35 3.84 Z M 68.00 86.00 L 68.41 85.61 L 68.85 85.28 L 69.35 85.08 L 69.90 85.01 L 70.47 85.00 L 71.04 85.01 L 71.59 85.07 L 72.09 85.25 L 72.52 85.57 L 72.81 86.01 L 72.92 86.51 L 72.80 87.01 L 72.50 87.44 L 72.08 87.77 L 71.61 87.97 L 71.21 88.19 L 70.99 88.57 L 70.79 89.05 L 70.47 89.47 L 70.04 89.79 L 69.53 89.95 L 68.98 89.99 L 68.40 90.00 L 67.83 90.00 L 67.25 90.00 L 66.68 89.98 L 66.15 89.87 L 65.69 89.61 L 65.33 89.22 L 65.12 88.75 L 65.12 88.24 L 65.34 87.77 L 65.70 87.38 L 66.16 87.11 L 66.66 86.94 L 67.15 86.72 L 67.59 86.39 Z M 58.14 37.05 L 58.39 36.65 L 58.76 36.32 L 59.19 36.11 L 59.65 36.08 L 60.09 36.23 L 60.49 36.52 L 60.87 36.87 L 61.23 37.24 L 61.58 37.61 L 61.84 38.02 L 61.94 38.48 L 61.86 38.95 L 61.61 39.35 L 61.24 39.68 L 60.81 39.89 L 60.35 39.92 L 59.91 39.77 L 59.51 39.48 L 59.13 39.13 L 58.77 38.76 L 58.42 38.39 L 58.16 37.98 L 58.06 37.52 Z M 58.16 27.06 L 58.44 26.62 L 58.86 26.28 L 59.36 26.08 L 59.91 26.01 L 60.48 26.00 L 61.06 26.01 L 61.61 26.07 L 62.11 26.26 L 62.54 26.59 L 62.83 27.04 L 62.97 27.56 L 62.98 28.12 L 62.91 28.67 L 62.71 29.16 L 62.36 29.57 L 61.91 29.85 L 61.41 29.91 L 60.91 29.76 L 60.45 29.46 L 59.99 29.17 L 59.49 28.99 L 58.99 28.81 L 58.55 28.49 L 58.23 28.06 L 58.09 27.57 Z" fill="rgb(245,23,21)" fill-rule="evenodd"/>
  <path d="M 78.05 70.15 L 77.60 70.41 L 77.17 70.72 L 76.68 70.91 L 76.15 70.99 L 75.59 71.02 L 75.08 71.14 L 74.63 71.42 L 74.21 71.79 L 73.81 72.19 L 73.44 72.60 L 73.16 73.04 L 73.08 73.54 L 73.20 74.03 L 73.48 74.48 L 73.77 74.93 L 73.94 75.42 L 74.00 75.96 L 74.04 76.51 L 74.19 77.02 L 74.47 77.47 L 74.76 77.91 L 74.94 78.41 L 75.00 78.94 L 75.06 79.45 L 75.25 79.81 L 75.64 79.90 L 76.11 79.75 L 76.52 79.43 L 76.82 79.00 L 76.96 78.49 L 77.00 77.94 L 77.07 77.40 L 77.24 76.91 L 77.56 76.49 L 77.99 76.20 L 78.48 76.08 L 78.97 76.17 L 79.40 76.46 L 79.73 76.87 L 79.92 77.35 L 79.99 77.89 L 80.03 78.44 L 80.16 78.95 L 80.44 79.39 L 80.85 79.72 L 81.31 79.89 L 81.71 79.82 L 81.93 79.49 L 81.99 78.99 L 82.00 78.43 L 82.01 77.87 L 82.08 77.34 L 82.28 76.85 L 82.61 76.44 L 83.05 76.15 L 83.56 76.03 L 84.12 76.00 L 84.68 76.00 L 85.22 75.98 L 85.66 75.85 L 85.88 75.56 L 85.80 75.23 L 85.44 75.05 L 84.92 75.01 L 84.36 75.00 L 83.80 74.98 L 83.27 74.90 L 82.80 74.69 L 82.40 74.33 L 82.14 73.89 L 82.09 73.40 L 82.24 72.91 L 82.53 72.47 L 82.80 72.02 L 82.91 71.56 L 82.77 71.20 L 82.39 71.09 L 81.92 71.23 L 81.48 71.52 L 81.03 71.80 L 80.54 71.92 L 80.04 71.84 L 79.61 71.56 L 79.27 71.15 L 79.05 70.69 L 78.85 70.29 L 78.50 70.10 Z M 92.06 64.15 L 91.60 64.42 L 91.15 64.72 L 90.66 64.92 L 90.11 64.99 L 89.54 65.00 L 88.97 65.00 L 88.39 65.00 L 87.82 65.00 L 87.25 65.00 L 86.70 65.03 L 86.28 65.18 L 86.10 65.53 L 86.18 65.99 L 86.45 66.44 L 86.75 66.89 L 86.95 67.38 L 87.12 67.89 L 87.39 68.35 L 87.70 68.80 L 87.92 69.28 L 88.09 69.78 L 88.34 70.26 L 88.64 70.70 L 88.90 71.16 L 89.10 71.59 L 89.40 71.86 L 89.83 71.86 L 90.28 71.64 L 90.71 71.28 L 91.12 70.88 L 91.52 70.48 L 91.93 70.07 L 92.33 69.66 L 92.67 69.23 L 92.90 68.75 L 92.98 68.21 L 93.02 67.65 L 93.13 67.12 L 93.40 66.66 L 93.77 66.24 L 94.17 65.83 L 94.55 65.41 L 94.83 64.97 L 94.90 64.51 L 94.70 64.17 L 94.27 64.03 L 93.72 64.00 L 93.15 64.00 L 92.59 64.03 Z M 62.06 45.15 L 61.61 45.41 L 61.17 45.71 L 60.69 45.91 L 60.16 45.99 L 59.60 46.00 L 59.04 46.00 L 58.48 46.00 L 57.92 46.00 L 57.36 46.00 L 56.79 46.00 L 56.23 46.00 L 55.70 46.03 L 55.28 46.17 L 55.10 46.51 L 55.16 46.96 L 55.44 47.39 L 55.85 47.72 L 56.32 47.92 L 56.86 47.99 L 57.41 48.00 L 57.98 48.00 L 58.54 48.00 L 59.10 48.01 L 59.63 48.07 L 60.12 48.25 L 60.56 48.55 L 61.01 48.82 L 61.50 48.92 L 61.99 48.82 L 62.43 48.54 L 62.84 48.16 L 63.23 47.76 L 63.60 47.35 L 63.86 46.91 L 63.92 46.41 L 63.77 45.93 L 63.46 45.51 L 63.04 45.21 L 62.55 45.08 Z M 61.06 14.15 L 60.60 14.41 L 60.16 14.72 L 59.67 14.92 L 59.13 14.99 L 58.57 15.00 L 58.00 15.01 L 57.45 15.05 L 56.95 15.22 L 56.53 15.53 L 56.21 15.95 L 56.03 16.44 L 55.86 16.94 L 55.59 17.40 L 55.28 17.84 L 55.06 18.32 L 54.90 18.82 L 54.64 19.27 L 54.26 19.65 L 53.80 19.89 L 53.27 19.98 L 52.71 19.98 L 52.19 19.88 L 51.71 19.65 L 51.27 19.34 L 50.80 19.11 L 50.27 19.02 L 49.71 18.98 L 49.19 18.88 L 48.71 18.65 L 48.27 18.34 L 47.80 18.13 L 47.30 18.11 L 46.83 18.29 L 46.38 18.59 L 45.92 18.86 L 45.40 18.98 L 44.85 19.01 L 44.31 19.09 L 43.83 19.29 L 43.40 19.62 L 42.99 20.01 L 42.60 20.42 L 42.27 20.85 L 42.08 21.34 L 42.02 21.88 L 42.04 22.41 L 42.22 22.81 L 42.60 23.02 L 43.07 23.22 L 43.50 23.53 L 43.91 23.91 L 44.32 24.31 L 44.74 24.66 L 45.22 24.89 L 45.75 24.98 L 46.31 25.00 L 46.88 25.00 L 47.45 25.00 L 48.01 24.99 L 48.50 24.92 L 48.85 24.69 L 49.06 24.29 L 49.29 23.83 L 49.63 23.43 L 50.07 23.15 L 50.57 23.08 L 51.06 23.23 L 51.48 23.54 L 51.80 23.96 L 51.99 24.43 L 52.21 24.80 L 52.62 24.97 L 53.16 25.00 L 53.72 25.00 L 54.26 24.97 L 54.69 24.84 L 54.89 24.53 L 54.78 24.20 L 54.39 24.03 L 53.86 23.99 L 53.33 23.92 L 52.84 23.72 L 52.43 23.38 L 52.15 22.94 L 52.08 22.44 L 52.22 21.95 L 52.53 21.53 L 52.95 21.21 L 53.44 21.03 L 53.94 20.86 L 54.40 20.59 L 54.84 20.28 L 55.33 20.08 L 55.87 20.01 L 56.42 19.98 L 56.94 19.85 L 57.38 19.57 L 57.72 19.16 L 57.94 18.68 L 58.10 18.18 L 58.36 17.72 L 58.71 17.30 L 59.11 16.89 L 59.51 16.49 L 59.91 16.09 L 60.32 15.69 L 60.74 15.34 L 61.22 15.11 L 61.75 15.02 L 62.31 15.00 L 62.88 15.00 L 63.41 14.96 L 63.79 14.79 L 63.88 14.46 L 63.68 14.16 L 63.25 14.03 L 62.71 14.00 L 62.14 14.00 L 61.58 14.03 Z M 90.05 11.16 L 89.59 11.43 L 89.13 11.74 L 88.65 11.96 L 88.25 12.18 L 88.00 12.56 L 87.80 13.03 L 87.47 13.47 L 87.03 13.79 L 86.51 13.95 L 85.94 13.99 L 85.36 14.00 L 84.80 14.03 L 84.34 14.16 L 84.09 14.50 L 84.00 15.00 L 83.94 15.56 L 83.76 16.07 L 83.44 16.50 L 82.99 16.81 L 82.46 16.96 L 81.91 17.01 L 81.43 17.12 L 81.13 17.41 L 81.02 17.89 L 80.96 18.45 L 80.82 18.97 L 80.52 19.42 L 80.09 19.75 L 79.58 19.91 L 79.07 19.84 L 78.60 19.58 L 78.14 19.27 L 77.63 19.08 L 77.07 19.01 L 76.49 19.00 L 75.92 19.02 L 75.43 19.12 L 75.13 19.41 L 75.02 19.89 L 75.00 20.46 L 75.01 21.04 L 75.07 21.60 L 75.26 22.11 L 75.56 22.57 L 75.84 23.05 L 75.97 23.58 L 76.00 24.16 L 76.00 24.74 L 75.98 25.32 L 75.87 25.86 L 75.59 26.33 L 75.18 26.69 L 74.70 26.93 L 74.18 27.11 L 73.71 27.37 L 73.27 27.74 L 72.85 28.15 L 72.43 28.54 L 71.96 28.83 L 71.45 28.91 L 70.94 28.77 L 70.48 28.48 L 70.02 28.20 L 69.55 28.11 L 69.20 28.27 L 69.11 28.67 L 69.28 29.15 L 69.59 29.61 L 69.86 30.08 L 69.97 30.62 L 69.98 31.19 L 69.89 31.74 L 69.66 32.24 L 69.31 32.68 L 68.90 33.10 L 68.49 33.51 L 68.07 33.93 L 67.65 34.33 L 67.21 34.68 L 66.71 34.90 L 66.16 34.99 L 65.61 35.04 L 65.22 35.21 L 65.13 35.54 L 65.34 35.83 L 65.76 35.87 L 66.24 35.67 L 66.69 35.37 L 67.18 35.12 L 67.73 35.02 L 68.30 35.02 L 68.84 35.13 L 69.31 35.40 L 69.67 35.80 L 69.88 36.28 L 69.87 36.79 L 69.64 37.27 L 69.28 37.71 L 68.87 38.13 L 68.48 38.56 L 68.17 39.02 L 67.99 39.53 L 67.79 40.04 L 67.50 40.50 L 67.21 40.97 L 67.09 41.48 L 67.19 41.99 L 67.49 42.43 L 67.92 42.76 L 68.44 42.94 L 69.00 42.98 L 69.56 42.94 L 70.07 42.76 L 70.51 42.43 L 70.82 41.99 L 71.01 41.48 L 71.20 40.97 L 71.52 40.51 L 71.91 40.09 L 72.33 39.67 L 72.74 39.26 L 73.16 38.84 L 73.55 38.41 L 73.85 37.95 L 74.03 37.44 L 74.23 36.93 L 74.55 36.48 L 74.95 36.05 L 75.35 35.63 L 75.70 35.19 L 75.93 34.69 L 76.11 34.18 L 76.36 33.70 L 76.67 33.24 L 76.91 32.75 L 77.09 32.24 L 77.35 31.76 L 77.72 31.37 L 78.18 31.10 L 78.61 30.88 L 78.91 30.57 L 79.12 30.12 L 79.40 29.66 L 79.78 29.23 L 80.19 28.81 L 80.57 28.38 L 80.87 27.92 L 81.04 27.40 L 81.25 26.90 L 81.55 26.44 L 81.84 25.97 L 82.02 25.45 L 82.22 24.95 L 82.52 24.48 L 82.81 24.02 L 83.00 23.51 L 83.19 23.00 L 83.50 22.54 L 83.89 22.11 L 84.31 21.69 L 84.72 21.28 L 85.14 20.86 L 85.53 20.44 L 85.83 19.98 L 86.02 19.46 L 86.21 18.96 L 86.53 18.50 L 86.93 18.08 L 87.35 17.67 L 87.79 17.32 L 88.26 17.07 L 88.67 16.85 L 88.88 16.50 L 88.83 16.04 L 88.57 15.58 L 88.26 15.12 L 88.10 14.62 L 88.15 14.11 L 88.42 13.65 L 88.83 13.30 L 89.33 13.07 L 89.84 12.89 L 90.30 12.61 L 90.67 12.21 L 90.87 11.75 L 90.82 11.33 L 90.51 11.12 Z" fill="rgb(250,82,81)" fill-rule="evenodd"/>
  <path d="M 78.05 59.13 L 77.65 59.38 L 77.26 59.68 L 76.84 59.89 L 76.36 59.98 L 75.86 60.00 L 75.35 60.00 L 74.85 60.01 L 74.42 60.09 L 74.15 60.30 L 74.12 60.62 L 74.33 60.88 L 74.74 60.98 L 75.23 61.00 L 75.74 61.00 L 76.25 61.00 L 76.76 61.00 L 77.27 61.00 L 77.78 61.00 L 78.29 61.00 L 78.80 61.00 L 79.31 61.00 L 79.83 61.00 L 80.34 61.00 L 80.85 61.00 L 81.33 60.98 L 81.72 60.85 L 81.93 60.55 L 81.99 60.10 L 81.97 59.62 L 81.84 59.25 L 81.52 59.06 L 81.06 59.01 L 80.55 59.00 L 80.04 59.00 L 79.53 59.00 L 79.02 59.00 L 78.52 59.02 Z" fill="rgb(253,252,252)" fill-rule="evenodd"/>
</svg>