<svg xmlns="http://www.w3.org/2000/svg" width="57" height="82" viewBox="0 0 57 82" role="img" aria-label="37_icons_37">
  <title>37_icons_37</title>
  <path d="M 26.08 4.18 L 25.49 4.50 L 24.91 4.84 L 24.30 5.10 L 23.70 5.39 L 23.12 5.72 L 22.52 5.99 L 21.91 6.27 L 21.36 6.67 L 20.84 7.14 L 20.30 7.58 L 19.71 7.87 L 19.04 8.00 L 18.37 8.11 L 17.76 8.38 L 17.22 8.80 L 16.70 9.27 L 16.16 9.69 L 15.62 10.00 L 15.25 10.32 L 15.25 10.67 L 15.64 10.82 L 16.19 10.67 L 16.76 10.36 L 17.38 10.11 L 18.05 10.04 L 18.71 10.14 L 19.28 10.43 L 19.70 10.92 L 19.92 11.54 L 19.99 12.23 L 19.98 12.93 L 19.89 13.61 L 19.62 14.20 L 19.16 14.65 L 18.56 14.90 L 17.88 14.98 L 17.17 15.00 L 16.45 15.00 L 15.73 15.00 L 15.02 15.02 L 14.34 15.12 L 13.73 15.37 L 13.15 15.69 L 12.52 15.91 L 11.83 15.99 L 11.14 16.02 L 10.55 16.14 L 10.22 16.43 L 10.30 16.80 L 10.74 17.09 L 11.28 17.42 L 11.71 17.89 L 12.03 18.42 L 12.40 18.81 L 12.96 18.97 L 13.65 19.00 L 14.34 19.05 L 14.98 19.23 L 15.50 19.62 L 15.81 20.16 L 15.82 20.77 L 15.54 21.33 L 15.04 21.73 L 14.42 21.94 L 13.76 22.04 L 13.26 22.26 L 13.04 22.76 L 12.94 23.41 L 12.75 24.05 L 12.43 24.63 L 12.15 25.23 L 12.02 25.90 L 12.00 26.61 L 12.00 27.32 L 11.98 28.03 L 11.87 28.71 L 11.60 29.31 L 11.29 29.89 L 11.16 30.50 L 11.29 31.11 L 11.60 31.69 L 11.87 32.29 L 12.00 32.96 L 12.11 33.63 L 12.38 34.24 L 12.80 34.78 L 13.27 35.30 L 13.68 35.85 L 13.97 36.45 L 14.25 37.05 L 14.64 37.61 L 15.13 38.12 L 15.63 38.63 L 16.13 39.14 L 16.57 39.68 L 16.89 40.26 L 17.15 40.88 L 17.48 41.46 L 17.82 42.03 L 18.07 42.64 L 18.38 43.24 L 18.80 43.78 L 19.27 44.30 L 19.69 44.85 L 19.97 45.45 L 20.25 46.05 L 20.64 46.61 L 21.12 47.13 L 21.56 47.66 L 21.89 48.24 L 22.14 48.86 L 22.50 49.43 L 22.96 49.95 L 23.46 50.46 L 23.97 50.97 L 24.45 51.49 L 24.81 52.06 L 24.97 52.71 L 25.06 53.39 L 25.25 54.03 L 25.63 54.59 L 26.10 55.11 L 26.55 55.65 L 26.88 56.23 L 27.14 56.84 L 27.46 57.42 L 27.80 58.00 L 28.06 58.61 L 28.35 59.21 L 28.77 59.75 L 29.25 60.27 L 29.66 60.82 L 29.96 61.41 L 30.22 62.02 L 30.56 62.60 L 30.87 63.19 L 31.13 63.80 L 31.46 64.38 L 31.92 64.91 L 32.39 65.43 L 32.78 65.99 L 33.05 66.59 L 33.35 67.17 L 33.80 67.62 L 34.38 67.84 L 34.99 67.77 L 35.57 67.46 L 36.16 67.16 L 36.82 67.04 L 37.49 67.09 L 38.11 67.31 L 38.58 67.74 L 38.87 68.32 L 38.96 68.99 L 38.88 69.65 L 38.60 70.24 L 38.13 70.67 L 37.52 70.91 L 36.87 71.02 L 36.36 71.22 L 36.18 71.64 L 36.35 72.18 L 36.75 72.72 L 37.22 73.24 L 37.64 73.79 L 37.94 74.38 L 38.20 74.99 L 38.54 75.57 L 38.86 76.15 L 39.12 76.77 L 39.42 77.36 L 39.76 77.94 L 40.02 78.54 L 40.31 79.14 L 40.72 79.69 L 41.22 80.19 L 41.76 80.62 L 42.36 80.88 L 43.04 80.98 L 43.75 81.00 L 44.47 81.00 L 45.19 81.00 L 45.90 80.98 L 46.58 80.90 L 47.19 80.65 L 47.74 80.23 L 48.26 79.76 L 48.81 79.35 L 49.43 79.10 L 50.10 78.99 L 50.76 78.85 L 51.35 78.55 L 51.88 78.10 L 52.41 77.63 L 52.96 77.24 L 53.57 76.97 L 54.17 76.69 L 54.75 76.36 L 55.31 76.06 L 55.76 75.73 L 55.96 75.20 L 56.00 74.52 L 56.00 73.81 L 55.98 73.10 L 55.90 72.42 L 55.66 71.80 L 55.33 71.21 L 55.06 70.61 L 54.80 70.00 L 54.46 69.42 L 54.16 68.83 L 54.01 68.17 L 53.92 67.49 L 53.70 66.86 L 53.38 66.28 L 53.09 65.68 L 52.84 65.07 L 52.50 64.49 L 52.18 63.91 L 52.02 63.25 L 51.93 62.57 L 51.74 61.93 L 51.42 61.35 L 51.14 60.75 L 51.01 60.08 L 50.90 59.41 L 50.66 58.79 L 50.33 58.21 L 50.05 57.61 L 49.80 57.00 L 49.46 56.42 L 49.16 55.82 L 49.01 55.17 L 48.91 54.49 L 48.70 53.86 L 48.37 53.28 L 48.09 52.68 L 47.84 52.06 L 47.50 51.49 L 47.18 50.90 L 47.02 50.25 L 46.93 49.57 L 46.74 48.93 L 46.41 48.35 L 46.11 47.75 L 45.86 47.14 L 45.53 46.56 L 45.21 45.97 L 45.04 45.33 L 44.95 44.64 L 44.78 44.00 L 44.45 43.41 L 44.16 42.82 L 44.01 42.16 L 43.91 41.48 L 43.70 40.86 L 43.37 40.27 L 43.09 39.67 L 42.84 39.06 L 42.49 38.48 L 42.18 37.90 L 42.02 37.24 L 41.93 36.56 L 41.74 35.93 L 41.41 35.34 L 41.14 34.74 L 41.01 34.07 L 40.89 33.40 L 40.66 32.78 L 40.33 32.20 L 40.05 31.60 L 39.79 30.99 L 39.45 30.41 L 39.16 29.82 L 39.01 29.16 L 38.91 28.48 L 38.69 27.85 L 38.37 27.27 L 38.09 26.67 L 37.83 26.06 L 37.49 25.48 L 37.17 24.89 L 37.02 24.24 L 36.93 23.56 L 36.73 22.92 L 36.41 22.34 L 36.11 21.75 L 35.86 21.13 L 35.53 20.55 L 35.20 19.97 L 35.04 19.32 L 34.95 18.64 L 34.77 17.99 L 34.45 17.41 L 34.16 16.81 L 34.01 16.15 L 33.91 15.48 L 33.69 14.85 L 33.37 14.27 L 33.08 13.67 L 32.83 13.05 L 32.49 12.48 L 32.15 11.90 L 31.90 11.29 L 31.61 10.69 L 31.28 10.11 L 31.08 9.47 L 31.01 8.78 L 30.98 8.08 L 30.89 7.40 L 30.65 6.78 L 30.32 6.19 L 30.05 5.59 L 29.78 4.99 L 29.37 4.49 L 28.80 4.16 L 28.14 4.03 L 27.44 4.00 L 26.73 4.03 Z" fill="rgb(230,16,14)" fill-rule="evenodd"/>
  <path d="M 13.06 12.15 L 12.60 12.43 L 12.18 12.82 L 11.77 13.22 L 11.35 13.60 L 10.88 13.86 L 10.35 13.98 L 9.79 14.02 L 9.25 14.11 L 8.76 14.33 L 8.31 14.63 L 7.84 14.89 L 7.33 15.06 L 6.84 15.28 L 6.40 15.62 L 5.99 16.01 L 5.60 16.43 L 5.27 16.87 L 5.08 17.37 L 5.02 17.92 L 5.04 18.48 L 5.18 19.00 L 5.48 19.45 L 5.87 19.87 L 6.27 20.28 L 6.63 20.71 L 6.89 21.18 L 7.07 21.69 L 7.29 22.17 L 7.60 22.62 L 7.87 23.09 L 8.04 23.59 L 8.24 24.09 L 8.54 24.55 L 8.82 25.01 L 8.96 25.53 L 9.01 26.09 L 9.08 26.63 L 9.27 27.13 L 9.61 27.55 L 10.04 27.83 L 10.50 27.89 L 10.83 27.69 L 10.97 27.25 L 11.00 26.70 L 11.00 26.12 L 11.00 25.54 L 11.01 24.97 L 11.07 24.41 L 11.24 23.91 L 11.54 23.45 L 11.81 22.99 L 11.92 22.49 L 11.80 21.99 L 11.52 21.53 L 11.23 21.07 L 11.04 20.57 L 10.86 20.07 L 10.57 19.62 L 10.15 19.28 L 9.66 19.06 L 9.16 18.89 L 8.70 18.62 L 8.34 18.23 L 8.12 17.75 L 8.12 17.25 L 8.33 16.77 L 8.68 16.34 L 9.08 15.93 L 9.49 15.54 L 9.94 15.22 L 10.45 15.06 L 11.01 15.01 L 11.58 15.00 L 12.16 14.98 L 12.70 14.91 L 13.19 14.70 L 13.65 14.39 L 14.12 14.13 L 14.65 14.02 L 15.19 13.98 L 15.65 13.85 L 15.90 13.53 L 15.98 13.04 L 15.93 12.54 L 15.71 12.18 L 15.28 12.03 L 14.73 12.00 L 14.16 12.00 L 13.59 12.03 Z" fill="rgb(247,82,80)" fill-rule="evenodd"/>
  <path d="M 36.19 17.18 L 36.06 17.53 L 36.14 17.96 L 36.39 18.37 L 36.69 18.76 L 36.90 19.18 L 36.98 19.65 L 37.01 20.14 L 37.09 20.58 L 37.31 20.86 L 37.68 20.91 L 38.10 20.77 L 38.48 20.48 L 38.77 20.10 L 38.94 19.66 L 38.99 19.17 L 38.98 18.67 L 38.90 18.20 L 38.69 17.77 L 38.37 17.41 L 37.98 17.15 L 37.52 17.03 L 37.02 17.01 L 36.54 17.03 Z" fill="rgb(253,251,251)" fill-rule="evenodd"/>
</svg>