<svg xmlns="http://www.w3.org/2000/svg" width="82" height="41" viewBox="0 0 82 41" role="img" aria-label="38_icons_38">
  <title>38_icons_38</title>
  <path d="M 36.08 4.19 L 35.54 4.56 L 35.16 5.10 L 34.90 5.71 L 34.57 6.28 L 34.09 6.70 L 33.47 6.92 L 32.82 7.03 L 32.30 7.24 L 32.07 7.72 L 32.06 8.37 L 32.23 9.01 L 32.55 9.60 L 32.82 10.19 L 32.82 10.80 L 32.52 11.35 L 32.01 11.75 L 31.37 11.94 L 30.69 11.95 L 30.05 11.79 L 29.52 11.41 L 29.17 10.85 L 29.03 10.19 L 29.00 9.48 L 29.00 8.76 L 29.00 8.04 L 28.99 7.33 L 28.92 6.68 L 28.65 6.23 L 28.12 6.05 L 27.47 6.10 L 26.84 6.31 L 26.26 6.64 L 25.65 6.92 L 25.04 7.18 L 24.46 7.52 L 23.87 7.83 L 23.21 7.98 L 22.52 8.08 L 21.89 8.29 L 21.30 8.61 L 20.70 8.90 L 20.09 9.16 L 19.52 9.53 L 19.00 10.00 L 18.47 10.48 L 17.90 10.84 L 17.29 11.10 L 16.69 11.40 L 16.10 11.73 L 15.50 12.00 L 14.89 12.27 L 14.30 12.61 L 13.70 12.90 L 13.09 13.16 L 12.52 13.53 L 12.00 14.01 L 11.49 14.51 L 10.98 15.02 L 10.47 15.53 L 9.96 16.04 L 9.45 16.55 L 8.94 17.06 L 8.43 17.57 L 7.91 18.07 L 7.38 18.53 L 6.80 18.87 L 6.19 19.13 L 5.61 19.47 L 5.08 19.93 L 4.56 20.44 L 4.06 20.95 L 3.57 21.47 L 3.21 22.04 L 3.05 22.69 L 3.06 23.37 L 3.24 24.01 L 3.62 24.58 L 4.11 25.09 L 4.64 25.54 L 5.22 25.88 L 5.84 26.14 L 6.41 26.49 L 6.94 26.95 L 7.45 27.45 L 7.96 27.97 L 8.44 28.49 L 8.82 29.05 L 9.08 29.66 L 9.37 30.27 L 9.71 30.84 L 10.01 31.39 L 10.36 31.82 L 10.86 32.13 L 11.41 32.49 L 11.94 32.95 L 12.45 33.45 L 12.96 33.96 L 13.47 34.47 L 13.98 34.98 L 14.51 35.46 L 15.08 35.82 L 15.74 35.97 L 16.45 36.00 L 17.17 36.00 L 17.88 35.98 L 18.57 35.90 L 19.19 35.65 L 19.74 35.24 L 20.24 34.74 L 20.65 34.19 L 20.90 33.57 L 20.98 32.88 L 21.01 32.18 L 21.09 31.49 L 21.33 30.88 L 21.76 30.41 L 22.34 30.16 L 22.95 30.21 L 23.53 30.51 L 24.11 30.80 L 24.73 30.83 L 25.33 30.59 L 25.91 30.29 L 26.52 30.16 L 27.13 30.30 L 27.71 30.62 L 28.31 30.91 L 28.92 31.16 L 29.46 31.55 L 29.85 32.07 L 30.15 32.57 L 30.58 32.88 L 31.20 32.98 L 31.90 32.98 L 32.58 32.89 L 33.20 32.64 L 33.75 32.23 L 34.27 31.75 L 34.82 31.33 L 35.42 31.04 L 36.03 30.78 L 36.61 30.44 L 37.20 30.12 L 37.82 29.87 L 38.41 29.55 L 39.00 29.23 L 39.65 29.05 L 40.35 29.01 L 41.07 29.00 L 41.79 29.00 L 42.51 29.00 L 43.23 29.00 L 43.95 29.00 L 44.67 29.00 L 45.39 29.00 L 46.10 29.03 L 46.77 29.15 L 47.38 29.43 L 47.97 29.76 L 48.61 29.93 L 49.26 29.94 L 49.77 29.73 L 50.09 29.26 L 50.42 28.72 L 50.91 28.31 L 51.50 28.16 L 52.11 28.29 L 52.69 28.61 L 53.29 28.90 L 53.90 29.16 L 54.44 29.54 L 54.84 30.05 L 55.14 30.56 L 55.54 30.94 L 56.07 31.25 L 56.62 31.65 L 57.13 32.14 L 57.64 32.64 L 58.15 33.15 L 58.66 33.66 L 59.17 34.17 L 59.68 34.68 L 60.18 35.20 L 60.61 35.74 L 60.93 36.30 L 61.26 36.75 L 61.78 36.97 L 62.44 37.07 L 63.07 37.28 L 63.63 37.67 L 64.15 38.15 L 64.66 38.66 L 65.18 39.16 L 65.72 39.59 L 66.33 39.87 L 67.00 39.98 L 67.71 39.99 L 68.41 39.93 L 69.04 39.73 L 69.54 39.32 L 69.88 38.76 L 70.14 38.15 L 70.49 37.58 L 70.96 37.05 L 71.46 36.54 L 71.97 36.03 L 72.48 35.52 L 72.99 35.01 L 73.50 34.50 L 74.01 33.98 L 74.48 33.46 L 74.85 32.89 L 75.11 32.27 L 75.43 31.69 L 75.87 31.15 L 76.34 30.62 L 76.73 30.06 L 76.93 29.43 L 77.02 28.74 L 77.18 28.09 L 77.54 27.51 L 78.01 26.99 L 78.48 26.46 L 78.85 25.89 L 79.11 25.28 L 79.42 24.69 L 79.87 24.15 L 80.34 23.62 L 80.73 23.06 L 80.93 22.43 L 80.99 21.73 L 80.98 21.02 L 80.88 20.34 L 80.60 19.73 L 80.17 19.19 L 79.67 18.68 L 79.17 18.17 L 78.66 17.66 L 78.15 17.15 L 77.64 16.64 L 77.13 16.13 L 76.62 15.62 L 76.11 15.11 L 75.59 14.62 L 75.03 14.23 L 74.42 13.96 L 73.81 13.68 L 73.23 13.35 L 72.63 13.06 L 72.01 12.80 L 71.45 12.41 L 70.94 11.93 L 70.48 11.40 L 70.12 10.84 L 69.81 10.36 L 69.34 10.09 L 68.71 9.98 L 68.07 9.81 L 67.49 9.45 L 66.97 8.97 L 66.44 8.51 L 65.86 8.17 L 65.20 8.02 L 64.52 7.92 L 63.89 7.71 L 63.30 7.39 L 62.70 7.10 L 62.08 6.84 L 61.50 6.50 L 60.92 6.18 L 60.26 6.03 L 59.55 6.00 L 58.84 5.97 L 58.17 5.84 L 57.58 5.54 L 56.99 5.22 L 56.34 5.05 L 55.63 5.01 L 54.91 5.00 L 54.19 5.00 L 53.47 5.00 L 52.75 5.00 L 52.06 5.03 L 51.48 5.17 L 51.14 5.55 L 51.00 6.15 L 50.85 6.79 L 50.56 7.39 L 50.23 7.98 L 50.05 8.63 L 49.96 9.31 L 49.79 9.96 L 49.41 10.48 L 48.86 10.81 L 48.25 10.83 L 47.69 10.55 L 47.28 10.05 L 47.07 9.42 L 47.01 8.73 L 47.00 8.01 L 46.99 7.30 L 46.91 6.66 L 46.64 6.19 L 46.16 5.88 L 45.63 5.51 L 45.21 5.02 L 44.90 4.50 L 44.50 4.16 L 43.91 4.03 L 43.21 4.00 L 42.49 4.00 L 41.77 4.00 L 41.05 4.00 L 40.33 4.00 L 39.61 4.00 L 38.88 4.00 L 38.16 4.00 L 37.44 4.00 L 36.73 4.03 Z M 58.13 15.05 L 58.37 14.67 L 58.70 14.34 L 59.09 14.12 L 59.53 14.04 L 59.96 14.13 L 60.34 14.38 L 60.66 14.71 L 60.89 15.10 L 60.98 15.55 L 61.00 16.03 L 60.98 16.51 L 60.87 16.95 L 60.63 17.33 L 60.30 17.66 L 59.91 17.88 L 59.47 17.96 L 59.04 17.87 L 58.66 17.62 L 58.34 17.29 L 58.11 16.90 L 58.02 16.45 L 58.00 15.97 L 58.02 15.49 Z M 41.17 13.06 L 41.46 12.60 L 41.90 12.26 L 42.41 12.10 L 42.94 12.16 L 43.42 12.44 L 43.90 12.75 L 44.41 12.96 L 44.94 13.14 L 45.42 13.43 L 45.90 13.74 L 46.41 13.90 L 46.94 13.84 L 47.42 13.56 L 47.90 13.26 L 48.41 13.10 L 48.94 13.17 L 49.40 13.46 L 49.74 13.90 L 49.90 14.41 L 49.83 14.94 L 49.55 15.42 L 49.14 15.85 L 48.72 16.27 L 48.27 16.64 L 47.76 16.88 L 47.20 16.98 L 46.61 16.97 L 46.06 16.85 L 45.58 16.56 L 45.10 16.26 L 44.57 16.07 L 44.00 16.00 L 43.43 15.93 L 42.90 15.74 L 42.43 15.41 L 42.00 15.00 L 41.59 14.57 L 41.26 14.10 L 41.10 13.59 Z M 64.14 12.06 L 64.44 11.62 L 64.86 11.28 L 65.35 11.08 L 65.90 11.02 L 66.46 11.04 L 66.98 11.17 L 67.44 11.47 L 67.85 11.86 L 68.26 12.26 L 68.62 12.69 L 68.88 13.16 L 68.98 13.70 L 68.98 14.26 L 68.88 14.80 L 68.64 15.27 L 68.26 15.64 L 67.79 15.89 L 67.25 15.98 L 66.68 16.00 L 66.10 16.00 L 65.53 16.00 L 64.95 15.99 L 64.40 15.93 L 63.90 15.75 L 63.48 15.42 L 63.18 14.98 L 63.08 14.48 L 63.20 13.98 L 63.48 13.52 L 63.78 13.06 L 63.97 12.56 Z M 37.15 10.06 L 37.44 9.62 L 37.86 9.28 L 38.36 9.08 L 38.91 9.01 L 39.48 9.00 L 40.06 9.01 L 40.61 9.07 L 41.11 9.26 L 41.54 9.59 L 41.83 10.03 L 41.91 10.54 L 41.78 11.04 L 41.47 11.47 L 41.04 11.79 L 40.54 11.98 L 40.03 12.16 L 39.57 12.44 L 39.12 12.74 L 38.62 12.90 L 38.12 12.85 L 37.66 12.59 L 37.31 12.19 L 37.09 11.70 L 37.02 11.15 L 37.03 10.59 Z" fill="rgb(238,29,28)" fill-rule="evenodd"/>
  <path d="M 22.22 31.23 L 22.04 31.64 L 22.00 32.21 L 22.00 32.81 L 21.97 33.40 L 21.84 33.95 L 21.53 34.43 L 21.13 34.87 L 20.71 35.29 L 20.28 35.72 L 19.85 36.14 L 19.42 36.55 L 18.95 36.86 L 18.49 37.07 L 18.16 37.36 L 18.03 37.83 L 18.05 38.37 L 18.23 38.80 L 18.63 39.04 L 19.12 39.26 L 19.59 39.57 L 20.08 39.84 L 20.60 39.90 L 21.12 39.73 L 21.58 39.40 L 22.01 38.99 L 22.44 38.56 L 22.87 38.13 L 23.29 37.71 L 23.72 37.28 L 24.15 36.85 L 24.57 36.43 L 25.00 36.00 L 25.43 35.57 L 25.85 35.15 L 26.28 34.72 L 26.71 34.29 L 27.13 33.87 L 27.57 33.46 L 28.04 33.15 L 28.50 32.94 L 28.81 32.68 L 28.82 32.34 L 28.51 32.13 L 28.05 32.17 L 27.58 32.44 L 27.10 32.74 L 26.57 32.93 L 26.00 32.98 L 25.43 32.93 L 24.90 32.74 L 24.43 32.41 L 24.00 32.00 L 23.57 31.59 L 23.10 31.26 L 22.61 31.11 Z" fill="rgb(247,83,82)" fill-rule="evenodd"/>
  <path d="M 41.18 0.18 L 41.03 0.53 L 41.00 1.00 L 41.03 1.47 L 41.18 1.82 L 41.53 1.97 L 42.00 2.00 L 42.50 2.00 L 43.00 2.00 L 43.50 2.00 L 44.00 2.00 L 44.50 2.00 L 45.00 2.00 L 45.47 1.97 L 45.82 1.82 L 45.97 1.47 L 46.00 1.00 L 45.97 0.53 L 45.82 0.18 L 45.47 0.03 L 45.00 0.00 L 44.50 0.00 L 44.00 0.00 L 43.50 0.00 L 43.00 0.00 L 42.50 0.00 L 42.00 0.00 L 41.53 0.03 Z" fill="rgb(253,249,250)" fill-rule="evenodd"/>
</svg>