<svg xmlns="http://www.w3.org/2000/svg" width="41" height="85" viewBox="0 0 41 85" role="img" aria-label="39_icons_39">
  <title>39_icons_39</title>
  <path d="M 38.11 4.32 L 37.45 4.82 L 36.96 5.57 L 36.43 6.29 L 35.70 6.78 L 34.79 6.97 L 33.83 7.08 L 32.93 7.32 L 32.07 7.68 L 31.18 7.95 L 30.28 8.21 L 29.46 8.66 L 28.76 9.32 L 28.26 10.10 L 28.00 11.00 L 27.77 11.91 L 27.44 12.76 L 27.29 13.59 L 27.49 14.42 L 27.81 15.28 L 27.96 16.22 L 27.98 17.21 L 27.91 18.18 L 27.62 19.03 L 27.02 19.67 L 26.24 20.13 L 25.45 20.65 L 24.69 21.26 L 23.91 21.79 L 23.07 22.19 L 22.27 22.63 L 21.59 23.12 L 21.20 23.76 L 21.19 24.58 L 21.48 25.43 L 21.81 26.29 L 21.98 27.23 L 22.09 28.19 L 22.33 29.09 L 22.69 29.95 L 22.92 30.86 L 22.99 31.84 L 23.00 32.83 L 22.96 33.82 L 22.77 34.73 L 22.27 35.41 L 21.54 35.69 L 20.74 35.49 L 20.01 34.93 L 19.44 34.19 L 19.12 33.32 L 18.98 32.39 L 18.76 31.58 L 18.27 30.98 L 17.67 30.41 L 17.31 29.69 L 17.38 28.88 L 17.66 28.05 L 17.72 27.20 L 17.45 26.37 L 17.13 25.50 L 16.88 24.60 L 16.50 23.79 L 15.85 23.20 L 15.07 22.75 L 14.41 22.18 L 13.86 21.56 L 13.21 21.13 L 12.41 20.83 L 11.66 20.39 L 11.07 19.78 L 10.49 19.27 L 9.69 19.03 L 8.77 18.90 L 7.92 18.59 L 7.29 18.03 L 6.80 17.48 L 6.36 17.43 L 6.09 18.00 L 6.01 18.90 L 6.00 19.89 L 6.00 20.90 L 6.00 21.90 L 6.00 22.91 L 6.00 23.91 L 6.00 24.92 L 6.00 25.92 L 6.04 26.91 L 6.22 27.84 L 6.57 28.71 L 6.86 29.59 L 6.98 30.55 L 7.02 31.53 L 7.15 32.48 L 7.46 33.36 L 7.79 34.23 L 7.96 35.16 L 8.00 36.16 L 8.00 37.16 L 8.00 38.16 L 8.00 39.17 L 8.00 40.18 L 8.00 41.18 L 8.01 42.18 L 8.08 43.16 L 8.32 44.06 L 8.67 44.92 L 8.91 45.83 L 8.99 46.80 L 9.00 47.80 L 9.00 48.81 L 9.00 49.81 L 9.04 50.80 L 9.20 51.74 L 9.53 52.61 L 9.84 53.49 L 9.98 54.43 L 10.03 55.40 L 10.17 56.21 L 10.50 56.58 L 10.95 56.35 L 11.47 55.76 L 12.17 55.26 L 13.07 55.05 L 14.03 55.06 L 14.91 55.30 L 15.52 55.86 L 15.71 56.64 L 15.50 57.46 L 15.21 58.31 L 15.17 59.14 L 15.51 59.82 L 16.11 60.36 L 16.66 61.02 L 16.92 61.90 L 16.95 62.85 L 16.76 63.75 L 16.26 64.42 L 15.52 64.69 L 14.77 64.46 L 14.17 63.89 L 13.63 63.33 L 12.88 63.07 L 12.00 63.09 L 11.34 63.43 L 11.06 64.15 L 11.01 65.10 L 11.07 66.08 L 11.28 66.99 L 11.63 67.85 L 11.89 68.75 L 11.98 69.72 L 12.00 70.71 L 12.04 71.67 L 12.24 72.39 L 12.59 72.57 L 12.88 72.10 L 13.02 71.25 L 13.21 70.35 L 13.68 69.63 L 14.43 69.19 L 15.36 69.03 L 16.33 68.98 L 17.17 68.83 L 17.62 68.43 L 17.56 67.75 L 17.29 66.95 L 17.31 66.15 L 17.80 65.52 L 18.55 65.31 L 19.29 65.58 L 19.88 66.16 L 20.44 66.71 L 21.18 67.03 L 22.00 67.35 L 22.66 67.91 L 23.18 68.55 L 23.79 69.09 L 24.41 69.68 L 24.82 70.46 L 24.95 71.38 L 24.87 72.33 L 24.53 73.15 L 23.90 73.67 L 23.10 73.69 L 22.33 73.24 L 21.66 72.57 L 21.12 71.87 L 20.68 71.41 L 20.34 71.51 L 20.37 72.11 L 20.72 72.87 L 21.21 73.52 L 21.89 73.91 L 22.70 74.21 L 23.38 74.70 L 23.69 75.42 L 23.50 76.18 L 22.87 76.72 L 22.00 76.91 L 21.10 76.77 L 20.24 76.42 L 19.36 76.13 L 18.43 76.06 L 17.61 76.24 L 17.00 76.71 L 16.43 77.31 L 15.73 77.69 L 14.96 77.59 L 14.32 77.07 L 13.83 76.51 L 13.39 76.43 L 13.10 76.95 L 13.01 77.84 L 13.00 78.83 L 13.00 79.83 L 13.00 80.84 L 13.00 81.84 L 13.06 82.79 L 13.32 83.53 L 13.97 83.89 L 14.88 83.99 L 15.87 84.00 L 16.88 84.00 L 17.88 84.00 L 18.89 84.00 L 19.89 84.00 L 20.90 84.00 L 21.90 84.00 L 22.91 84.00 L 23.91 84.00 L 24.92 84.00 L 25.92 84.00 L 26.91 83.96 L 27.81 83.75 L 28.48 83.21 L 28.85 82.40 L 28.98 81.46 L 29.02 80.47 L 29.15 79.52 L 29.46 78.64 L 29.79 77.77 L 29.96 76.84 L 30.00 75.85 L 30.01 74.85 L 30.08 73.87 L 30.31 72.96 L 30.66 72.10 L 30.91 71.20 L 30.99 70.23 L 31.00 69.23 L 31.00 68.22 L 31.03 67.23 L 31.19 66.29 L 31.52 65.42 L 31.84 64.55 L 31.97 63.60 L 32.00 62.60 L 32.00 61.60 L 32.00 60.59 L 32.02 59.60 L 32.13 58.64 L 32.42 57.75 L 32.77 56.89 L 32.96 55.96 L 33.05 54.99 L 33.24 54.07 L 33.60 53.21 L 33.88 52.32 L 33.98 51.36 L 34.00 50.36 L 34.00 49.36 L 34.03 48.36 L 34.17 47.42 L 34.49 46.54 L 34.81 45.67 L 34.97 44.73 L 35.00 43.74 L 35.00 42.74 L 35.00 41.73 L 35.02 40.73 L 35.10 39.76 L 35.36 38.86 L 35.72 38.01 L 35.97 37.11 L 36.20 36.20 L 36.55 35.34 L 36.85 34.46 L 36.98 33.50 L 37.00 32.51 L 37.00 31.50 L 37.02 30.51 L 37.15 29.55 L 37.45 28.67 L 37.79 27.81 L 37.96 26.87 L 38.00 25.88 L 38.00 24.88 L 38.00 23.87 L 38.01 22.87 L 38.07 21.89 L 38.30 20.98 L 38.65 20.12 L 38.90 19.22 L 39.02 18.26 L 39.19 17.33 L 39.51 16.46 L 39.83 15.58 L 39.97 14.64 L 40.00 13.64 L 40.00 12.64 L 40.00 11.63 L 40.00 10.63 L 40.00 9.62 L 40.00 8.62 L 40.00 7.61 L 39.98 6.62 L 39.87 5.66 L 39.52 4.83 L 38.89 4.32 Z M 10.00 33.00 L 10.44 32.59 L 10.91 32.25 L 11.44 32.07 L 12.02 32.02 L 12.60 32.08 L 13.12 32.27 L 13.59 32.62 L 14.03 33.03 L 14.44 33.47 L 14.77 33.94 L 14.94 34.48 L 14.98 35.06 L 14.91 35.63 L 14.71 36.16 L 14.40 36.64 L 14.12 37.13 L 13.93 37.66 L 13.70 38.17 L 13.35 38.63 L 12.93 39.07 L 12.50 39.50 L 12.07 39.93 L 11.63 40.35 L 11.17 40.70 L 10.66 40.89 L 10.13 40.85 L 9.66 40.57 L 9.30 40.15 L 9.11 39.64 L 9.16 39.11 L 9.41 38.62 L 9.72 38.14 L 9.89 37.62 L 9.84 37.10 L 9.58 36.60 L 9.27 36.12 L 9.08 35.60 L 9.02 35.02 L 9.07 34.44 L 9.25 33.91 L 9.59 33.44 Z M 29.00 26.00 L 29.40 25.62 L 29.83 25.29 L 30.31 25.09 L 30.84 25.02 L 31.39 25.02 L 31.91 25.14 L 32.35 25.41 L 32.69 25.81 L 32.91 26.28 L 32.98 26.81 L 33.00 27.37 L 33.01 27.92 L 33.05 28.44 L 33.24 28.81 L 33.65 28.97 L 34.18 29.01 L 34.71 29.09 L 35.18 29.30 L 35.58 29.64 L 35.85 30.07 L 35.92 30.57 L 35.78 31.05 L 35.47 31.47 L 35.05 31.78 L 34.56 31.94 L 34.01 31.99 L 33.45 32.00 L 32.89 32.00 L 32.33 32.00 L 31.77 32.00 L 31.20 32.00 L 30.65 31.98 L 30.13 31.87 L 29.68 31.61 L 29.33 31.23 L 29.10 30.76 L 29.02 30.23 L 28.98 29.68 L 28.88 29.16 L 28.64 28.70 L 28.34 28.26 L 28.12 27.80 L 28.10 27.30 L 28.29 26.83 L 28.62 26.40 Z" fill="rgb(249,42,41)" fill-rule="evenodd"/>
  <path d="M 14.19 71.19 L 14.03 71.57 L 14.01 72.06 L 14.05 72.58 L 14.20 73.05 L 14.47 73.47 L 14.76 73.88 L 14.93 74.34 L 14.99 74.85 L 15.03 75.35 L 15.17 75.74 L 15.50 75.92 L 15.93 75.86 L 16.35 75.62 L 16.76 75.32 L 17.20 75.10 L 17.70 75.02 L 18.23 75.00 L 18.76 75.00 L 19.27 74.98 L 19.68 74.86 L 19.89 74.58 L 19.83 74.26 L 19.52 74.04 L 19.09 73.88 L 18.67 73.62 L 18.33 73.25 L 18.11 72.82 L 18.02 72.32 L 17.98 71.81 L 17.88 71.38 L 17.62 71.11 L 17.18 71.02 L 16.66 71.00 L 16.13 71.00 L 15.60 71.00 L 15.07 71.00 L 14.57 71.03 Z M 10.21 34.22 L 10.04 34.63 L 10.02 35.17 L 10.10 35.72 L 10.32 36.22 L 10.63 36.68 L 10.86 37.16 L 10.89 37.68 L 10.71 38.17 L 10.40 38.63 L 10.15 39.10 L 10.13 39.55 L 10.35 39.83 L 10.69 39.82 L 10.94 39.51 L 11.14 39.05 L 11.44 38.59 L 11.84 38.17 L 12.24 37.75 L 12.61 37.31 L 12.86 36.84 L 12.89 36.32 L 12.70 35.83 L 12.36 35.38 L 11.96 34.96 L 11.53 34.56 L 11.08 34.24 L 10.60 34.10 Z M 25.19 3.20 L 24.99 3.56 L 24.81 4.02 L 24.52 4.43 L 24.11 4.75 L 23.64 4.93 L 23.12 4.99 L 22.57 5.00 L 22.02 5.00 L 21.47 5.00 L 20.92 5.00 L 20.38 5.00 L 19.83 5.00 L 19.28 5.00 L 18.73 5.00 L 18.18 5.00 L 17.63 5.00 L 17.08 5.00 L 16.53 5.00 L 15.98 5.00 L 15.44 5.00 L 14.89 5.00 L 14.34 5.00 L 13.79 5.00 L 13.24 5.00 L 12.69 5.00 L 12.14 5.00 L 11.59 5.00 L 11.04 5.00 L 10.49 5.00 L 9.95 5.00 L 9.40 5.00 L 8.85 5.00 L 8.30 5.00 L 7.75 5.00 L 7.20 5.00 L 6.65 5.00 L 6.11 5.00 L 5.59 5.03 L 5.21 5.20 L 5.08 5.56 L 5.19 6.02 L 5.46 6.45 L 5.75 6.88 L 5.93 7.36 L 5.99 7.88 L 5.98 8.41 L 5.87 8.92 L 5.61 9.36 L 5.31 9.78 L 5.10 10.25 L 5.02 10.76 L 5.00 11.30 L 5.00 11.85 L 5.00 12.40 L 5.01 12.94 L 5.05 13.45 L 5.23 13.82 L 5.61 14.02 L 6.06 14.21 L 6.48 14.51 L 6.88 14.88 L 7.27 15.27 L 7.66 15.66 L 8.04 16.04 L 8.42 16.44 L 8.73 16.85 L 8.95 17.30 L 9.14 17.70 L 9.47 17.92 L 9.95 17.99 L 10.48 18.03 L 10.97 18.16 L 11.39 18.44 L 11.72 18.84 L 11.94 19.28 L 12.13 19.68 L 12.46 19.91 L 12.93 19.99 L 13.46 20.03 L 13.95 20.15 L 14.38 20.43 L 14.71 20.82 L 14.93 21.26 L 15.12 21.67 L 15.43 21.93 L 15.86 22.10 L 16.30 22.36 L 16.70 22.71 L 17.09 23.09 L 17.48 23.48 L 17.87 23.87 L 18.25 24.26 L 18.61 24.66 L 18.87 25.10 L 18.98 25.60 L 19.00 26.14 L 19.00 26.69 L 18.98 27.23 L 18.90 27.75 L 18.69 28.21 L 18.39 28.63 L 18.15 29.07 L 18.09 29.51 L 18.28 29.85 L 18.67 30.04 L 19.12 30.25 L 19.52 30.57 L 19.81 30.98 L 19.95 31.47 L 19.99 32.00 L 20.00 32.55 L 20.01 33.09 L 20.07 33.62 L 20.24 34.10 L 20.55 34.50 L 20.96 34.80 L 21.42 34.92 L 21.79 34.80 L 21.96 34.43 L 22.00 33.92 L 22.00 33.38 L 22.00 32.83 L 22.00 32.28 L 22.00 31.73 L 22.00 31.18 L 21.98 30.64 L 21.88 30.13 L 21.64 29.68 L 21.33 29.26 L 21.11 28.80 L 21.02 28.29 L 21.00 27.75 L 21.00 27.20 L 20.98 26.66 L 20.88 26.15 L 20.65 25.70 L 20.34 25.28 L 20.11 24.82 L 20.02 24.32 L 20.00 23.77 L 20.00 23.23 L 20.02 22.68 L 20.11 22.17 L 20.35 21.73 L 20.71 21.36 L 21.16 21.12 L 21.66 21.02 L 22.20 20.99 L 22.72 20.91 L 23.18 20.71 L 23.61 20.41 L 24.04 20.14 L 24.53 19.99 L 25.01 19.82 L 25.44 19.55 L 25.87 19.25 L 26.32 19.05 L 26.71 18.85 L 26.92 18.51 L 26.99 18.03 L 27.00 17.49 L 26.99 16.94 L 26.94 16.41 L 26.78 15.93 L 26.50 15.50 L 26.22 15.07 L 26.06 14.59 L 26.01 14.06 L 26.00 13.51 L 26.01 12.97 L 26.05 12.44 L 26.21 11.95 L 26.49 11.52 L 26.77 11.09 L 26.96 10.61 L 27.11 10.13 L 27.37 9.69 L 27.72 9.28 L 28.11 8.89 L 28.49 8.51 L 28.88 8.12 L 29.27 7.73 L 29.67 7.38 L 30.12 7.12 L 30.60 6.96 L 31.07 6.78 L 31.50 6.50 L 31.94 6.22 L 32.42 6.06 L 32.95 6.01 L 33.49 6.00 L 34.04 6.00 L 34.59 6.00 L 35.12 5.98 L 35.58 5.89 L 35.85 5.66 L 35.84 5.33 L 35.56 5.10 L 35.10 5.01 L 34.56 5.00 L 34.02 5.00 L 33.47 5.00 L 32.92 5.00 L 32.37 5.00 L 31.83 4.99 L 31.31 4.92 L 30.84 4.72 L 30.44 4.39 L 30.15 3.98 L 29.98 3.53 L 29.76 3.18 L 29.36 3.03 L 28.84 3.00 L 28.29 3.00 L 27.74 3.00 L 27.20 3.00 L 26.65 3.00 L 26.10 3.00 L 25.58 3.03 Z M 15.15 9.06 L 15.45 8.61 L 15.87 8.27 L 16.37 8.08 L 16.93 8.02 L 17.49 8.05 L 18.01 8.20 L 18.45 8.51 L 18.78 8.95 L 18.94 9.46 L 18.98 10.02 L 18.93 10.58 L 18.75 11.09 L 18.43 11.54 L 18.03 11.96 L 17.62 12.38 L 17.21 12.79 L 16.79 13.20 L 16.36 13.58 L 15.89 13.86 L 15.36 13.97 L 14.79 13.98 L 14.24 13.89 L 13.76 13.65 L 13.37 13.28 L 13.13 12.81 L 13.11 12.30 L 13.31 11.81 L 13.67 11.41 L 14.11 11.12 L 14.56 10.91 L 14.86 10.62 L 14.98 10.15 L 15.02 9.59 Z" fill="rgb(251,92,89)" fill-rule="evenodd"/>
  <path d="M 0.18 10.18 L 0.03 10.53 L 0.00 11.00 L 0.00 11.50 L 0.00 12.00 L 0.03 12.47 L 0.18 12.82 L 0.53 12.97 L 1.00 13.00 L 1.50 13.00 L 2.00 13.00 L 2.50 13.00 L 3.00 13.00 L 3.47 12.97 L 3.82 12.82 L 3.97 12.47 L 4.00 12.00 L 4.00 11.50 L 4.00 11.00 L 3.97 10.53 L 3.82 10.18 L 3.47 10.03 L 3.00 10.00 L 2.50 10.00 L 2.00 10.00 L 1.50 10.00 L 1.00 10.00 L 0.53 10.03 Z M 16.18 0.18 L 16.03 0.53 L 16.00 1.00 L 16.03 1.47 L 16.18 1.82 L 16.53 1.97 L 17.00 2.00 L 17.50 2.00 L 18.00 2.00 L 18.50 2.00 L 19.00 2.00 L 19.50 2.00 L 20.00 2.00 L 20.50 2.00 L 21.00 2.00 L 21.50 2.00 L 22.00 2.00 L 22.50 2.00 L 23.00 2.00 L 23.50 2.00 L 24.00 2.00 L 24.50 2.00 L 25.00 2.00 L 25.50 2.00 L 26.00 2.00 L 26.50 2.00 L 27.00 2.00 L 27.50 2.00 L 28.00 2.00 L 28.50 2.00 L 29.00 2.00 L 29.50 2.00 L 30.00 2.00 L 30.50 2.00 L 31.00 2.00 L 31.50 2.00 L 32.00 2.00 L 32.47 1.97 L 32.82 1.82 L 32.97 1.47 L 33.00 1.00 L 32.97 0.53 L 32.82 0.18 L 32.47 0.03 L 32.00 0.00 L 31.50 0.00 L 31.00 0.00 L 30.50 0.00 L 30.00 0.00 L 29.50 0.00 L 29.00 0.00 L 28.50 0.00 L 28.00 0.00 L 27.50 0.00 L 27.00 0.00 L 26.50 0.00 L 26.00 0.00 L 25.50 0.00 L 25.00 0.00 L 24.50 0.00 L 24.00 0.00 L 23.50 0.00 L 23.00 0.00 L 22.50 0.00 L 22.00 0.00 L 21.50 0.00 L 21.00 0.00 L 20.50 0.00 L 20.00 0.00 L 19.50 0.00 L 19.00 0.00 L 18.50 0.00 L 18.00 0.00 L 17.50 0.00 L 17.00 0.00 L 16.53 0.03 Z" fill="rgb(253,248,248)" fill-rule="evenodd"/>
</svg>