<svg xmlns="http://www.w3.org/2000/svg" width="60" height="83" viewBox="0 0 60 83" role="img" aria-label="40_icons_40">
  <title>40_icons_40</title>
  <path d="M 35.05 3.20 L 34.53 3.51 L 34.04 3.96 L 33.58 4.45 L 33.22 4.98 L 32.97 5.56 L 32.72 6.14 L 32.39 6.68 L 32.11 7.24 L 31.87 7.83 L 31.57 8.38 L 31.24 8.93 L 31.00 9.50 L 30.75 10.08 L 30.42 10.63 L 30.12 11.18 L 29.89 11.77 L 29.60 12.33 L 29.29 12.87 L 29.08 13.47 L 28.99 14.11 L 28.87 14.74 L 28.61 15.31 L 28.29 15.86 L 28.03 16.44 L 27.79 17.02 L 27.46 17.56 L 27.14 18.11 L 26.91 18.69 L 26.64 19.26 L 26.32 19.81 L 26.06 20.38 L 25.83 20.96 L 25.50 21.51 L 25.18 22.06 L 25.03 22.67 L 25.00 23.34 L 24.98 24.01 L 24.89 24.65 L 24.65 25.24 L 24.33 25.78 L 24.07 26.36 L 23.84 26.94 L 23.51 27.48 L 23.18 28.03 L 22.94 28.61 L 22.69 29.18 L 22.37 29.73 L 22.12 30.31 L 22.01 30.94 L 21.91 31.58 L 21.69 32.17 L 21.37 32.72 L 21.09 33.28 L 20.86 33.87 L 20.55 34.42 L 20.23 34.97 L 20.06 35.57 L 19.98 36.22 L 19.85 36.85 L 19.56 37.41 L 19.24 37.96 L 19.06 38.56 L 18.98 39.21 L 18.85 39.83 L 18.54 40.39 L 18.11 40.89 L 17.65 41.38 L 17.27 41.90 L 17.01 42.47 L 16.77 43.05 L 16.44 43.60 L 16.15 44.16 L 16.02 44.78 L 15.94 45.43 L 15.76 46.04 L 15.44 46.59 L 15.14 47.14 L 14.90 47.72 L 14.63 48.29 L 14.30 48.83 L 14.05 49.41 L 13.81 49.99 L 13.48 50.53 L 13.17 51.08 L 13.03 51.70 L 12.96 52.36 L 12.80 52.97 L 12.48 53.52 L 12.16 54.06 L 11.92 54.65 L 11.66 55.22 L 11.34 55.77 L 11.08 56.34 L 10.85 56.92 L 10.52 57.47 L 10.19 58.01 L 9.95 58.59 L 9.70 59.17 L 9.38 59.71 L 9.12 60.29 L 9.01 60.92 L 8.91 61.56 L 8.69 62.15 L 8.30 62.67 L 7.85 63.16 L 7.43 63.67 L 7.14 64.23 L 7.01 64.85 L 6.93 65.50 L 6.73 66.10 L 6.41 66.65 L 6.14 67.21 L 6.01 67.84 L 5.93 68.49 L 5.74 69.09 L 5.42 69.64 L 5.14 70.20 L 5.01 70.83 L 4.93 71.47 L 4.74 72.07 L 4.37 72.60 L 3.91 73.09 L 3.47 73.59 L 3.16 74.14 L 3.03 74.77 L 3.00 75.43 L 3.03 76.08 L 3.18 76.62 L 3.55 76.96 L 4.07 77.23 L 4.60 77.56 L 5.15 77.87 L 5.74 78.10 L 6.30 78.38 L 6.85 78.71 L 7.42 78.96 L 8.00 79.20 L 8.55 79.53 L 9.09 79.85 L 9.68 80.08 L 10.25 80.35 L 10.79 80.67 L 11.37 80.93 L 11.95 81.17 L 12.49 81.49 L 13.04 81.81 L 13.66 81.96 L 14.33 82.00 L 15.00 82.00 L 15.68 82.00 L 16.35 81.96 L 16.96 81.80 L 17.50 81.46 L 17.99 81.00 L 18.47 80.53 L 18.95 80.04 L 19.41 79.55 L 19.78 79.03 L 20.03 78.45 L 20.29 77.88 L 20.67 77.36 L 21.13 76.86 L 21.56 76.36 L 21.88 75.81 L 22.11 75.23 L 22.40 74.67 L 22.72 74.13 L 22.98 73.55 L 23.22 72.97 L 23.59 72.44 L 24.05 71.95 L 24.49 71.46 L 24.83 70.92 L 24.97 70.30 L 25.04 69.64 L 25.20 69.03 L 25.56 68.52 L 26.07 68.16 L 26.65 67.92 L 27.20 67.64 L 27.64 67.21 L 27.92 66.66 L 28.15 66.08 L 28.48 65.53 L 28.81 64.99 L 29.05 64.41 L 29.31 63.84 L 29.70 63.32 L 30.16 62.83 L 30.58 62.32 L 30.89 61.77 L 31.12 61.19 L 31.42 60.63 L 31.75 60.09 L 32.00 59.51 L 32.25 58.94 L 32.64 58.46 L 33.15 58.12 L 33.63 57.84 L 33.96 57.45 L 34.23 56.93 L 34.56 56.40 L 34.87 55.85 L 35.10 55.26 L 35.40 54.71 L 35.82 54.20 L 36.27 53.71 L 36.67 53.19 L 36.94 52.62 L 37.18 52.04 L 37.53 51.51 L 37.99 51.02 L 38.44 50.52 L 38.80 49.99 L 39.04 49.41 L 39.31 48.84 L 39.70 48.33 L 40.16 47.84 L 40.64 47.36 L 41.12 46.87 L 41.55 46.37 L 41.87 45.82 L 42.11 45.24 L 42.41 44.69 L 42.83 44.18 L 43.30 43.70 L 43.78 43.22 L 44.25 42.73 L 44.65 42.21 L 44.92 41.65 L 45.16 41.06 L 45.51 40.53 L 45.96 40.04 L 46.42 39.55 L 46.78 39.02 L 47.03 38.44 L 47.28 37.86 L 47.61 37.32 L 47.89 36.76 L 48.13 36.17 L 48.45 35.63 L 48.88 35.13 L 49.34 34.63 L 49.71 34.11 L 49.92 33.52 L 49.96 32.90 L 49.81 32.38 L 49.41 32.10 L 48.82 31.99 L 48.21 31.86 L 47.67 31.55 L 47.29 31.08 L 47.14 30.52 L 47.26 29.94 L 47.62 29.42 L 48.07 28.93 L 48.55 28.45 L 49.03 27.97 L 49.52 27.48 L 49.99 27.00 L 50.45 26.51 L 50.80 25.97 L 50.95 25.36 L 50.97 24.71 L 50.83 24.09 L 50.50 23.55 L 50.05 23.05 L 49.56 22.60 L 49.03 22.24 L 48.42 22.06 L 47.78 21.98 L 47.15 21.84 L 46.63 21.52 L 46.26 21.04 L 46.14 20.47 L 46.30 19.90 L 46.68 19.44 L 47.21 19.12 L 47.79 18.88 L 48.32 18.56 L 48.71 18.09 L 48.86 17.52 L 48.75 16.95 L 48.44 16.40 L 48.15 15.84 L 48.03 15.21 L 48.00 14.54 L 47.98 13.87 L 47.86 13.24 L 47.57 12.70 L 47.11 12.29 L 46.55 12.02 L 45.97 11.77 L 45.49 11.39 L 45.16 10.86 L 45.03 10.24 L 45.00 9.57 L 44.98 8.90 L 44.87 8.27 L 44.58 7.72 L 44.13 7.31 L 43.55 7.09 L 42.91 7.03 L 42.28 7.13 L 41.70 7.38 L 41.16 7.69 L 40.58 7.86 L 40.00 7.77 L 39.46 7.47 L 38.91 7.15 L 38.33 6.92 L 37.76 6.64 L 37.25 6.23 L 36.78 5.76 L 36.37 5.25 L 36.11 4.67 L 36.00 4.05 L 35.86 3.50 L 35.54 3.18 Z" fill="rgb(243,30,29)" fill-rule="evenodd"/>
  <path d="M 48.22 11.22 L 48.10 11.60 L 48.25 12.09 L 48.54 12.55 L 48.83 13.03 L 48.96 13.56 L 49.00 14.14 L 49.00 14.74 L 49.02 15.32 L 49.13 15.87 L 49.39 16.35 L 49.70 16.82 L 49.89 17.31 L 49.86 17.83 L 49.61 18.31 L 49.24 18.75 L 48.83 19.17 L 48.40 19.56 L 47.93 19.84 L 47.41 19.91 L 46.91 19.75 L 46.47 19.41 L 46.16 18.97 L 45.95 18.51 L 45.70 18.19 L 45.36 18.17 L 45.14 18.42 L 45.21 18.76 L 45.56 19.00 L 46.04 19.21 L 46.47 19.53 L 46.80 19.97 L 47.01 20.45 L 47.26 20.81 L 47.70 20.97 L 48.26 21.02 L 48.81 21.12 L 49.29 21.37 L 49.73 21.75 L 50.16 22.16 L 50.58 22.58 L 50.99 23.00 L 51.40 23.42 L 51.73 23.88 L 51.92 24.39 L 51.98 24.95 L 51.94 25.52 L 51.78 26.05 L 51.49 26.52 L 51.19 26.99 L 51.00 27.50 L 50.81 28.01 L 50.48 28.45 L 50.05 28.79 L 49.57 29.00 L 49.20 29.24 L 49.04 29.67 L 49.03 30.21 L 49.16 30.66 L 49.50 30.88 L 49.96 30.83 L 50.40 30.54 L 50.74 30.11 L 50.95 29.60 L 51.14 29.08 L 51.43 28.61 L 51.82 28.18 L 52.24 27.76 L 52.66 27.34 L 53.08 26.92 L 53.49 26.51 L 53.91 26.09 L 54.32 25.66 L 54.68 25.22 L 54.92 24.72 L 55.10 24.21 L 55.35 23.72 L 55.66 23.25 L 55.91 22.76 L 56.09 22.24 L 56.34 21.76 L 56.70 21.31 L 57.11 20.89 L 57.51 20.46 L 57.82 20.00 L 58.01 19.48 L 58.20 18.97 L 58.50 18.50 L 58.79 18.04 L 58.89 17.56 L 58.73 17.18 L 58.34 16.95 L 57.86 16.72 L 57.41 16.38 L 56.98 15.98 L 56.55 15.58 L 56.10 15.25 L 55.58 15.07 L 55.01 15.02 L 54.45 15.06 L 53.93 15.24 L 53.46 15.54 L 52.99 15.81 L 52.47 15.91 L 51.96 15.78 L 51.52 15.46 L 51.20 15.01 L 51.05 14.49 L 50.99 13.92 L 50.92 13.36 L 50.71 12.85 L 50.37 12.40 L 49.97 11.97 L 49.54 11.57 L 49.09 11.25 L 48.60 11.10 Z" fill="rgb(247,82,83)" fill-rule="evenodd"/>
</svg>