<svg xmlns="http://www.w3.org/2000/svg" viewBox="0 0 183 316" width="183" height="316" role="img" aria-label="03_d_odd_second">
  <title>03_d_odd_second</title>
  <path d="M 113.89 3.54 L 109.53 5.39 L 105.45 7.93 L 102.64 11.90 L 100.78 16.26 L 100.50 21.27 L 100.50 26.40 L 100.50 31.53 L 100.50 36.66 L 100.50 41.79 L 100.50 46.92 L 100.50 52.05 L 100.50 57.19 L 100.50 62.32 L 100.50 67.45 L 100.50 72.58 L 100.50 77.71 L 100.50 82.84 L 100.50 87.97 L 97.43 89.31 L 92.74 88.26 L 88.04 87.22 L 83.35 86.16 L 78.65 85.11 L 73.77 84.50 L 68.64 84.50 L 63.51 84.50 L 58.38 84.50 L 53.55 85.22 L 48.84 86.24 L 44.13 87.25 L 39.72 88.99 L 35.40 90.96 L 31.11 92.98 L 27.10 95.69 L 23.21 98.67 L 19.32 101.68 L 15.89 105.10 L 13.18 109.10 L 10.47 113.11 L 7.75 117.11 L 5.90 121.48 L 4.82 126.16 L 3.74 130.85 L 3.50 135.88 L 3.50 141.01 L 3.50 146.14 L 3.50 151.27 L 3.50 156.40 L 3.50 161.53 L 3.50 166.66 L 3.50 171.79 L 3.50 176.93 L 3.50 182.06 L 3.50 187.19 L 3.50 192.32 L 3.50 197.45 L 3.50 202.58 L 3.50 207.71 L 3.50 212.84 L 3.50 217.97 L 3.50 223.10 L 3.50 228.23 L 3.50 233.36 L 3.50 238.49 L 3.50 243.62 L 3.50 248.76 L 3.50 253.89 L 3.50 259.02 L 3.50 264.15 L 3.94 269.09 L 4.88 273.84 L 6.70 278.21 L 8.52 282.59 L 10.98 286.70 L 14.18 290.51 L 17.38 294.32 L 20.75 297.95 L 24.72 300.73 L 28.70 303.51 L 32.98 305.58 L 37.38 307.35 L 41.78 309.11 L 46.29 310.61 L 51.10 311.37 L 56.23 311.38 L 61.36 311.38 L 66.49 311.38 L 71.62 311.38 L 76.75 311.38 L 81.88 311.38 L 87.02 311.38 L 92.15 311.38 L 97.28 311.38 L 102.41 311.38 L 107.54 311.38 L 112.67 311.38 L 117.80 311.38 L 122.93 311.38 L 128.06 311.38 L 133.19 311.38 L 138.32 311.38 L 143.45 311.38 L 148.58 311.38 L 153.72 311.38 L 158.85 311.38 L 163.98 311.38 L 168.94 310.98 L 173.25 309.00 L 176.17 305.08 L 178.04 300.72 L 177.42 296.12 L 177.38 291.01 L 178.07 286.17 L 177.38 281.47 L 177.38 276.34 L 177.38 271.21 L 177.38 266.08 L 177.38 260.95 L 177.38 255.82 L 177.38 250.69 L 177.38 245.56 L 177.38 240.43 L 177.38 235.30 L 177.38 230.17 L 177.38 225.03 L 177.38 219.90 L 177.38 214.77 L 177.38 209.64 L 177.38 204.51 L 177.38 199.38 L 177.38 194.25 L 177.38 189.12 L 177.38 183.99 L 177.49 178.90 L 177.87 174.35 L 178.32 169.82 L 177.56 165.05 L 178.38 160.41 L 178.38 155.28 L 177.38 150.56 L 177.38 145.43 L 178.36 140.70 L 178.38 135.58 L 178.38 130.45 L 177.72 125.59 L 178.22 120.98 L 177.38 116.20 L 177.38 111.07 L 177.38 105.94 L 177.51 100.86 L 178.12 96.71 L 177.38 91.89 L 177.38 86.76 L 177.38 81.63 L 177.38 76.50 L 177.38 71.37 L 177.38 66.24 L 177.38 61.11 L 177.38 55.97 L 177.38 50.84 L 177.38 45.71 L 177.38 40.58 L 177.38 35.45 L 177.38 30.32 L 177.38 25.19 L 177.39 20.07 L 177.53 15.69 L 175.87 11.25 L 172.67 7.66 L 168.84 4.51 L 164.13 3.50 L 159.00 3.50 L 153.87 3.50 L 148.74 3.50 L 143.61 3.50 L 138.48 3.50 L 133.35 3.50 L 128.21 3.50 L 123.08 3.50 L 117.95 3.50 Z M 86.74 168.47 L 87.88 168.38 L 89.05 168.38 L 90.23 168.38 L 91.41 168.38 L 92.59 168.38 L 93.76 168.38 L 94.94 168.38 L 96.12 168.38 L 97.26 168.47 L 98.30 168.81 L 99.33 169.15 L 100.37 169.50 L 101.40 169.84 L 102.44 170.19 L 103.41 170.67 L 104.36 171.24 L 105.30 171.81 L 106.24 172.37 L 107.18 172.94 L 108.13 173.50 L 109.07 174.07 L 110.01 174.64 L 110.96 175.20 L 111.90 175.77 L 112.83 176.36 L 113.60 177.20 L 114.33 178.08 L 115.05 178.96 L 115.74 179.85 L 116.48 180.72 L 117.19 181.61 L 117.89 182.49 L 118.62 183.37 L 119.33 184.25 L 120.03 185.14 L 120.76 186.01 L 121.45 186.91 L 121.81 187.93 L 122.12 188.99 L 122.46 190.02 L 122.77 191.07 L 123.08 192.12 L 123.43 193.15 L 123.73 194.20 L 124.05 195.25 L 124.39 196.29 L 124.69 197.34 L 125.02 198.38 L 125.35 199.42 L 125.45 200.52 L 125.36 201.66 L 125.25 202.79 L 125.13 203.92 L 125.01 205.05 L 124.91 206.18 L 124.84 207.33 L 124.74 208.47 L 124.62 209.60 L 124.49 210.72 L 124.13 211.75 L 123.67 212.73 L 123.23 213.73 L 122.75 214.71 L 122.31 215.70 L 121.85 216.69 L 121.38 217.68 L 120.94 218.67 L 120.46 219.65 L 120.02 220.64 L 119.57 221.64 L 119.10 222.62 L 118.66 223.61 L 117.90 224.48 L 117.05 225.26 L 116.20 226.05 L 115.33 226.80 L 114.48 227.60 L 113.62 228.37 L 112.76 229.12 L 111.91 229.93 L 111.05 230.70 L 110.18 231.44 L 109.34 232.26 L 108.48 233.02 L 107.55 233.60 L 106.50 233.92 L 105.44 234.19 L 104.38 234.50 L 103.33 234.80 L 102.27 235.08 L 101.22 235.39 L 100.17 235.69 L 99.11 235.97 L 98.05 236.27 L 97.00 236.58 L 95.94 236.85 L 94.82 237.00 L 93.69 236.89 L 92.52 236.88 L 91.34 236.87 L 90.21 236.75 L 89.04 236.75 L 87.87 236.72 L 86.73 236.62 L 85.56 236.62 L 84.42 236.53 L 83.25 236.50 L 82.21 236.18 L 81.21 235.73 L 80.22 235.28 L 79.23 234.84 L 78.23 234.40 L 77.24 233.96 L 76.24 233.52 L 75.24 233.09 L 74.25 232.64 L 73.39 231.89 L 72.55 231.05 L 71.72 230.22 L 70.89 229.39 L 70.06 228.56 L 69.22 227.72 L 68.39 226.89 L 67.56 226.06 L 66.72 225.22 L 65.89 224.39 L 65.06 223.56 L 64.23 222.73 L 63.41 221.89 L 62.94 220.90 L 62.54 219.89 L 62.11 218.89 L 61.68 217.89 L 61.28 216.88 L 60.85 215.88 L 60.43 214.88 L 60.02 213.87 L 59.59 212.87 L 59.17 211.87 L 58.76 210.86 L 58.39 209.83 L 58.38 208.66 L 58.38 207.48 L 58.38 206.31 L 58.38 205.13 L 58.38 203.95 L 58.38 202.77 L 58.38 201.60 L 58.38 200.42 L 58.38 199.24 L 58.38 198.06 L 58.38 196.89 L 58.48 195.75 L 58.91 194.75 L 59.39 193.77 L 59.83 192.78 L 60.28 191.79 L 60.75 190.80 L 61.19 189.81 L 61.67 188.83 L 62.12 187.84 L 62.56 186.84 L 63.04 185.86 L 63.48 184.87 L 63.95 183.88 L 64.46 182.92 L 65.29 182.08 L 66.16 181.34 L 66.99 180.51 L 67.86 179.76 L 68.72 178.98 L 69.56 178.19 L 70.43 177.43 L 71.27 176.61 L 72.14 175.86 L 72.98 175.06 L 73.84 174.29 L 74.70 173.54 L 75.54 172.72 L 76.50 172.18 L 77.51 171.79 L 78.54 171.43 L 79.57 171.06 L 80.59 170.68 L 81.61 170.31 L 82.64 169.94 L 83.66 169.57 L 84.68 169.19 L 85.70 168.82 Z" fill="#000000" fill-rule="evenodd"/>
</svg>
