<svg xmlns="http://www.w3.org/2000/svg" viewBox="0 0 174 316" width="174" height="316" role="img" aria-label="04_F_from">
  <title>04_F_from</title>
  <path d="M 19.89 3.54 L 15.12 5.09 L 10.56 7.03 L 7.40 11.14 L 4.40 15.32 L 3.50 20.36 L 3.50 25.78 L 3.50 31.19 L 3.50 36.61 L 3.50 42.03 L 3.50 47.44 L 3.50 52.86 L 3.50 58.28 L 3.50 63.69 L 3.50 69.11 L 3.50 74.53 L 3.50 79.94 L 3.50 85.36 L 3.50 90.78 L 3.50 96.19 L 3.50 101.61 L 3.50 107.02 L 3.50 112.44 L 3.50 117.86 L 3.50 123.27 L 3.50 128.69 L 3.50 134.11 L 3.50 139.52 L 3.50 144.94 L 3.50 150.36 L 3.50 155.77 L 3.50 161.19 L 3.50 166.61 L 3.50 172.02 L 3.50 177.44 L 3.50 182.86 L 3.50 188.27 L 3.50 193.69 L 3.50 199.11 L 3.50 204.52 L 3.50 209.94 L 3.50 215.36 L 3.50 220.77 L 3.50 226.19 L 3.50 231.61 L 3.50 237.02 L 3.50 242.44 L 3.50 247.86 L 3.50 253.27 L 3.50 258.69 L 3.50 264.11 L 3.50 269.52 L 3.50 274.94 L 3.50 280.36 L 3.50 285.77 L 3.50 291.19 L 3.50 296.61 L 4.72 301.52 L 7.44 305.81 L 11.43 309.24 L 16.06 311.15 L 21.38 311.38 L 26.80 311.38 L 32.21 311.38 L 37.63 311.38 L 43.05 311.38 L 48.46 311.38 L 53.88 311.38 L 59.30 311.38 L 64.71 311.38 L 70.13 311.38 L 74.99 310.03 L 79.56 308.00 L 82.59 304.24 L 84.94 299.80 L 85.38 294.56 L 85.38 289.14 L 85.38 283.72 L 85.38 278.31 L 85.38 272.89 L 85.38 267.47 L 85.38 262.06 L 85.38 256.64 L 85.38 251.22 L 85.38 245.81 L 85.38 240.39 L 85.38 234.97 L 85.38 229.56 L 85.38 224.14 L 85.38 218.73 L 85.38 213.31 L 85.38 207.89 L 85.38 202.48 L 85.38 197.06 L 85.38 191.64 L 85.38 186.23 L 88.66 182.82 L 93.48 181.38 L 98.90 181.38 L 104.31 181.38 L 109.73 181.38 L 115.15 181.38 L 120.56 181.38 L 125.41 179.99 L 129.45 176.75 L 131.71 172.27 L 132.38 167.13 L 132.38 161.71 L 132.38 156.29 L 132.38 150.88 L 132.38 145.46 L 132.38 140.04 L 132.38 134.63 L 132.38 129.21 L 132.38 123.79 L 132.38 118.38 L 132.03 113.10 L 130.02 108.52 L 126.18 104.71 L 121.26 103.50 L 115.85 103.50 L 110.43 103.50 L 105.01 103.50 L 99.60 103.50 L 94.18 103.50 L 88.99 102.96 L 85.38 99.93 L 85.38 94.52 L 86.63 89.62 L 90.46 85.80 L 95.29 84.38 L 100.71 84.38 L 106.12 84.38 L 111.54 84.38 L 116.96 84.38 L 122.37 84.38 L 127.79 84.38 L 133.21 84.38 L 138.62 84.38 L 144.04 84.38 L 149.46 84.38 L 154.87 84.38 L 159.95 83.57 L 164.29 80.96 L 167.76 76.98 L 169.37 72.23 L 169.38 66.82 L 169.38 61.40 L 169.38 55.98 L 169.38 50.57 L 169.38 45.15 L 169.38 39.73 L 169.38 34.32 L 169.38 28.90 L 169.38 23.48 L 169.38 18.07 L 168.01 13.21 L 165.22 9.10 L 161.06 6.06 L 156.54 3.90 L 151.29 3.50 L 145.88 3.50 L 140.46 3.50 L 135.04 3.50 L 129.63 3.50 L 124.21 3.50 L 118.79 3.50 L 113.38 3.50 L 107.96 3.50 L 102.54 3.50 L 97.13 3.50 L 91.71 3.50 L 86.29 3.50 L 80.88 3.50 L 75.46 3.50 L 70.04 3.50 L 64.63 3.50 L 59.21 3.50 L 53.79 3.50 L 48.38 3.50 L 42.96 3.50 L 37.54 3.50 L 32.13 3.50 L 26.71 3.50 L 21.29 3.50 Z" fill="#000000" fill-rule="evenodd"/>
</svg>
