<svg xmlns="http://www.w3.org/2000/svg" viewBox="0 0 138 235" width="138" height="235" role="img" aria-label="05_r_from">
  <title>05_r_from</title>
  <path d="M 107.89 3.55 L 104.57 5.06 L 101.24 6.60 L 97.92 8.13 L 94.65 9.78 L 91.84 12.54 L 89.04 15.34 L 86.24 18.13 L 83.86 21.10 L 82.11 24.34 L 80.34 27.56 L 78.56 30.78 L 75.75 31.76 L 75.02 28.11 L 74.29 24.46 L 73.56 20.80 L 71.29 17.79 L 68.49 14.99 L 65.28 13.18 L 61.61 12.50 L 57.65 12.50 L 53.69 12.50 L 49.74 12.50 L 45.78 12.50 L 41.82 12.50 L 37.87 12.50 L 33.91 12.50 L 29.95 12.50 L 26.00 12.50 L 22.04 12.50 L 18.08 12.50 L 14.44 13.25 L 11.26 15.12 L 8.46 17.92 L 6.22 20.95 L 5.21 24.48 L 4.50 28.15 L 4.50 32.10 L 4.50 36.06 L 4.50 40.02 L 4.50 43.97 L 4.50 47.93 L 4.50 51.89 L 4.50 55.84 L 4.50 59.80 L 4.50 63.76 L 4.50 67.71 L 4.50 71.67 L 4.50 75.63 L 4.50 79.58 L 4.50 83.54 L 4.50 87.49 L 4.50 91.45 L 4.50 95.41 L 4.50 99.36 L 3.71 102.95 L 4.50 106.55 L 4.50 110.51 L 4.50 114.47 L 4.50 118.42 L 4.50 122.38 L 4.50 126.34 L 4.50 130.29 L 4.50 134.25 L 4.50 138.21 L 4.50 142.16 L 4.50 146.12 L 4.50 150.08 L 4.50 154.03 L 4.50 157.99 L 4.50 161.94 L 4.50 165.90 L 4.50 169.86 L 4.50 173.81 L 4.50 177.77 L 4.50 181.73 L 4.50 185.68 L 4.50 189.64 L 4.50 193.60 L 4.50 197.55 L 4.50 201.51 L 3.87 205.21 L 3.71 208.92 L 3.98 212.77 L 4.24 216.62 L 4.50 220.47 L 6.47 223.60 L 8.68 226.64 L 11.43 228.98 L 14.84 230.31 L 18.77 230.38 L 22.72 230.38 L 26.68 230.38 L 30.64 230.38 L 34.59 230.38 L 38.55 230.38 L 42.51 230.38 L 46.46 230.38 L 50.42 230.38 L 54.38 230.38 L 58.33 230.38 L 62.29 230.38 L 66.24 230.38 L 70.20 230.38 L 74.16 230.38 L 78.11 230.38 L 82.07 230.38 L 86.03 230.38 L 89.98 230.38 L 93.94 230.38 L 97.90 230.38 L 101.85 230.38 L 105.81 230.38 L 109.77 230.38 L 113.72 230.37 L 117.15 229.09 L 120.24 227.01 L 122.79 224.11 L 124.36 220.80 L 124.38 216.85 L 122.45 213.69 L 119.99 210.75 L 117.47 207.84 L 115.01 204.90 L 112.50 201.98 L 110.04 199.05 L 107.55 196.13 L 105.89 192.85 L 104.31 189.55 L 102.72 186.25 L 101.13 182.96 L 99.55 179.65 L 97.96 176.36 L 96.37 173.06 L 95.12 169.62 L 94.39 165.97 L 93.66 162.31 L 92.93 158.66 L 92.20 155.00 L 91.47 151.35 L 91.38 147.43 L 91.38 143.47 L 91.38 139.52 L 91.38 135.56 L 91.38 131.61 L 91.38 127.65 L 91.38 123.69 L 91.38 119.74 L 91.38 115.78 L 92.08 112.12 L 92.98 108.53 L 93.38 104.74 L 93.38 100.78 L 93.65 96.94 L 94.66 93.40 L 95.68 89.86 L 96.69 86.33 L 97.91 82.88 L 99.55 79.60 L 101.19 76.32 L 103.80 73.45 L 106.60 70.65 L 109.40 67.85 L 111.99 64.97 L 114.02 61.85 L 116.02 58.72 L 118.02 55.60 L 120.02 52.47 L 122.37 49.49 L 124.77 46.53 L 127.18 43.57 L 129.59 40.61 L 131.98 37.64 L 133.38 34.26 L 133.38 30.31 L 133.38 26.35 L 133.38 22.39 L 133.17 18.52 L 131.37 15.31 L 129.58 12.10 L 127.36 9.16 L 124.37 6.83 L 121.06 5.25 L 117.70 3.82 L 113.88 3.50 L 109.92 3.50 Z" fill="#000000" fill-rule="evenodd"/>
</svg>
