<svg xmlns="http://www.w3.org/2000/svg" viewBox="0 0 296 279" width="296" height="279" role="img" aria-label="09_o_you_with_pointing_hand">
  <title>09_o_you_with_pointing_hand</title>
  <path d="M 188.64 61.54 L 188.12 61.65 L 187.60 61.75 L 187.08 61.86 L 186.56 61.97 L 186.04 62.07 L 185.52 62.17 L 185.00 62.27 L 184.48 62.38 L 183.96 62.49 L 183.44 62.59 L 182.91 62.69 L 182.39 62.79 L 181.87 62.90 L 181.35 63.01 L 180.83 63.11 L 180.31 63.22 L 179.79 63.32 L 179.28 63.45 L 178.78 63.61 L 178.34 63.91 L 177.91 64.23 L 177.47 64.52 L 177.02 64.82 L 176.59 65.14 L 176.15 65.44 L 175.71 65.74 L 175.27 66.03 L 174.84 66.36 L 174.40 66.65 L 173.96 66.95 L 173.52 67.25 L 173.09 67.57 L 172.65 67.87 L 172.28 68.27 L 172.02 68.73 L 171.75 69.18 L 171.47 69.63 L 171.20 70.08 L 170.93 70.54 L 170.66 70.99 L 170.38 71.44 L 170.11 71.89 L 169.85 72.34 L 169.58 72.80 L 169.50 73.33 L 169.50 73.89 L 169.50 74.46 L 169.50 75.02 L 169.50 75.58 L 169.50 76.15 L 169.50 76.71 L 169.50 77.28 L 169.50 77.84 L 169.50 78.41 L 169.50 78.97 L 169.50 79.53 L 169.50 80.10 L 169.52 80.66 L 169.75 81.12 L 170.15 81.52 L 170.55 81.92 L 170.95 82.32 L 171.34 82.72 L 171.74 83.11 L 172.18 83.30 L 172.69 83.19 L 173.20 83.06 L 173.71 82.93 L 174.22 82.81 L 174.73 82.68 L 175.24 82.55 L 175.75 82.42 L 176.26 82.29 L 176.78 82.16 L 177.29 82.03 L 177.80 81.91 L 178.31 81.78 L 178.82 81.65 L 179.33 81.53 L 179.84 81.40 L 180.36 81.27 L 180.87 81.14 L 181.38 81.01 L 181.89 80.88 L 182.40 80.76 L 182.91 80.63 L 183.42 80.50 L 183.93 80.38 L 184.45 80.25 L 184.96 80.12 L 185.47 79.99 L 185.98 79.87 L 186.49 79.74 L 187.00 79.61 L 187.51 79.48 L 188.04 79.38 L 188.60 79.38 L 189.16 79.38 L 189.73 79.38 L 190.29 79.38 L 190.85 79.38 L 191.42 79.38 L 191.98 79.38 L 192.55 79.38 L 193.11 79.38 L 193.68 79.38 L 194.24 79.38 L 194.80 79.38 L 195.37 79.38 L 195.93 79.38 L 196.50 79.38 L 197.06 79.38 L 197.62 79.38 L 198.19 79.38 L 198.75 79.38 L 199.26 79.51 L 199.76 79.67 L 200.25 79.85 L 200.74 80.03 L 201.23 80.20 L 201.72 80.39 L 202.21 80.57 L 202.70 80.73 L 203.19 80.93 L 203.68 81.10 L 204.17 81.27 L 204.66 81.47 L 205.15 81.64 L 205.64 81.81 L 206.13 82.00 L 206.62 82.17 L 207.11 82.34 L 207.60 82.53 L 208.10 82.70 L 208.58 82.88 L 209.07 83.06 L 209.57 83.23 L 210.03 83.25 L 210.48 83.00 L 210.91 82.68 L 211.35 82.38 L 211.78 82.06 L 212.22 81.76 L 212.65 81.44 L 213.09 81.13 L 213.35 80.69 L 213.28 80.17 L 213.25 79.63 L 213.16 79.09 L 213.12 78.55 L 213.05 78.01 L 213.00 77.47 L 212.94 76.93 L 212.88 76.39 L 212.82 75.85 L 212.75 75.32 L 212.71 74.77 L 212.63 74.24 L 212.59 73.69 L 212.50 73.16 L 212.47 72.61 L 212.35 72.10 L 212.11 71.63 L 211.74 71.22 L 211.41 70.79 L 211.02 70.39 L 210.68 69.97 L 210.31 69.56 L 209.96 69.14 L 209.60 68.72 L 209.22 68.32 L 208.89 67.89 L 208.51 67.48 L 208.17 67.06 L 207.78 66.66 L 207.44 66.23 L 207.07 65.82 L 206.73 65.40 L 206.36 64.99 L 205.96 64.59 L 205.51 64.33 L 205.02 64.14 L 204.54 63.94 L 204.06 63.75 L 203.57 63.56 L 203.09 63.36 L 202.61 63.16 L 202.12 62.97 L 201.63 62.78 L 201.15 62.60 L 200.62 62.50 L 200.09 62.41 L 199.55 62.38 L 198.99 62.36 L 198.46 62.27 L 197.91 62.25 L 197.35 62.22 L 196.83 62.13 L 196.26 62.12 L 195.72 62.07 L 195.19 62.00 L 194.63 62.00 L 194.09 61.91 L 193.55 61.88 L 192.99 61.86 L 192.46 61.77 L 191.91 61.75 L 191.35 61.72 L 190.83 61.63 L 190.27 61.62 L 189.72 61.57 L 189.19 61.50 Z M 196.98 66.46 L 197.36 66.39 L 197.77 66.39 L 198.14 66.47 L 198.50 66.60 L 198.86 66.74 L 199.21 66.88 L 199.56 67.02 L 199.91 67.17 L 200.27 67.31 L 200.62 67.45 L 200.98 67.58 L 201.33 67.73 L 201.68 67.87 L 202.03 68.01 L 202.39 68.16 L 202.74 68.30 L 203.07 68.50 L 203.37 68.75 L 203.67 69.04 L 203.96 69.33 L 204.25 69.62 L 204.54 69.91 L 204.83 70.21 L 205.12 70.50 L 205.41 70.79 L 205.70 71.08 L 206.00 71.37 L 206.29 71.66 L 206.58 71.95 L 206.87 72.24 L 207.16 72.54 L 207.38 72.85 L 207.49 73.22 L 207.50 73.63 L 207.50 74.04 L 207.50 74.45 L 207.50 74.86 L 207.50 75.28 L 207.50 75.69 L 207.50 76.10 L 207.50 76.51 L 207.41 76.87 L 207.12 77.08 L 206.76 77.20 L 206.40 77.32 L 206.05 77.42 L 205.70 77.37 L 205.36 77.21 L 205.02 77.04 L 204.68 76.87 L 204.34 76.70 L 204.00 76.53 L 203.65 76.36 L 203.31 76.19 L 202.97 76.02 L 202.63 75.85 L 202.29 75.68 L 201.94 75.54 L 201.54 75.50 L 201.13 75.50 L 200.72 75.50 L 200.31 75.50 L 199.89 75.50 L 199.48 75.50 L 199.07 75.50 L 198.66 75.50 L 198.25 75.50 L 197.84 75.50 L 197.42 75.50 L 197.01 75.50 L 196.60 75.50 L 196.19 75.50 L 195.78 75.50 L 195.37 75.50 L 194.95 75.50 L 194.54 75.50 L 194.13 75.50 L 193.72 75.50 L 193.31 75.50 L 192.90 75.50 L 192.48 75.50 L 192.07 75.50 L 191.66 75.50 L 191.25 75.50 L 190.84 75.50 L 190.42 75.50 L 190.01 75.50 L 189.60 75.50 L 189.19 75.50 L 188.78 75.50 L 188.37 75.50 L 187.95 75.50 L 187.54 75.50 L 187.13 75.50 L 186.72 75.50 L 186.31 75.50 L 185.90 75.50 L 185.48 75.50 L 185.07 75.50 L 184.66 75.50 L 184.25 75.50 L 183.84 75.50 L 183.43 75.50 L 183.01 75.50 L 182.60 75.50 L 182.19 75.50 L 181.81 75.56 L 181.43 75.66 L 181.07 75.77 L 180.71 75.89 L 180.34 76.01 L 179.98 76.13 L 179.62 76.25 L 179.26 76.37 L 178.90 76.49 L 178.53 76.61 L 178.17 76.73 L 177.81 76.85 L 177.45 76.98 L 177.09 77.10 L 176.73 77.22 L 176.36 77.33 L 176.02 77.29 L 175.86 76.99 L 175.77 76.62 L 175.75 76.21 L 175.72 75.81 L 175.64 75.43 L 175.62 75.03 L 175.58 74.63 L 175.51 74.25 L 175.50 73.85 L 175.44 73.46 L 175.41 73.09 L 175.54 72.73 L 175.74 72.40 L 175.98 72.09 L 176.20 71.77 L 176.43 71.45 L 176.66 71.13 L 176.88 70.81 L 177.11 70.50 L 177.34 70.18 L 177.56 69.86 L 177.82 69.56 L 178.13 69.31 L 178.48 69.16 L 178.83 69.02 L 179.18 68.88 L 179.54 68.73 L 179.89 68.59 L 180.24 68.46 L 180.60 68.31 L 180.95 68.17 L 181.30 68.03 L 181.66 67.89 L 182.01 67.75 L 182.36 67.61 L 182.72 67.47 L 183.09 67.39 L 183.50 67.37 L 183.89 67.32 L 184.28 67.26 L 184.69 67.25 L 185.10 67.25 L 185.50 67.24 L 185.89 67.17 L 186.28 67.13 L 186.69 67.13 L 187.10 67.12 L 187.51 67.10 L 187.88 67.02 L 188.29 67.00 L 188.70 67.00 L 189.11 67.00 L 189.50 66.95 L 189.89 66.88 L 190.29 66.88 L 190.71 66.87 L 191.11 66.87 L 191.50 66.80 L 191.89 66.75 L 192.30 66.75 L 192.71 66.75 L 193.12 66.73 L 193.49 66.65 L 193.90 66.63 L 194.31 66.62 L 194.72 66.62 L 195.11 66.58 L 195.49 66.51 L 195.90 66.50 L 196.31 66.50 L 196.72 66.49 Z M 118.02 3.56 L 113.24 4.73 L 108.08 5.00 L 102.91 5.25 L 97.76 5.54 L 92.95 6.65 L 88.14 7.76 L 83.43 9.13 L 78.93 11.00 L 74.44 12.87 L 69.94 14.75 L 65.45 16.62 L 60.96 18.50 L 56.86 21.35 L 52.78 24.21 L 48.69 27.08 L 44.60 29.93 L 40.57 32.93 L 37.02 36.73 L 33.47 40.53 L 29.91 44.33 L 26.38 48.14 L 23.70 52.30 L 21.03 56.46 L 18.34 60.62 L 16.11 64.97 L 14.09 69.40 L 12.24 73.91 L 10.95 78.65 L 9.69 83.40 L 8.41 88.14 L 7.14 92.88 L 5.86 97.62 L 5.37 102.69 L 5.12 107.86 L 4.88 113.03 L 4.62 118.20 L 3.50 123.00 L 3.63 128.22 L 3.75 133.44 L 3.88 138.66 L 4.04 143.86 L 4.23 149.06 L 4.37 154.27 L 4.50 159.49 L 5.15 164.49 L 6.05 169.39 L 6.98 174.28 L 7.87 179.18 L 8.79 184.07 L 9.85 188.91 L 11.50 193.49 L 13.11 198.10 L 14.88 202.64 L 17.25 206.93 L 19.60 211.22 L 21.98 215.51 L 24.32 219.81 L 27.25 223.87 L 30.65 227.73 L 34.08 231.58 L 37.54 235.42 L 40.97 239.27 L 44.85 242.53 L 48.89 245.50 L 52.94 248.46 L 56.97 251.46 L 61.02 254.41 L 65.42 256.50 L 69.81 258.63 L 74.22 260.70 L 78.61 262.84 L 83.02 264.92 L 87.65 266.47 L 92.35 267.85 L 97.05 269.23 L 101.85 270.38 L 107.01 270.64 L 111.78 271.84 L 116.56 273.03 L 121.69 273.38 L 126.96 273.38 L 131.82 274.38 L 137.09 274.38 L 142.36 274.38 L 147.64 274.38 L 152.91 274.38 L 158.18 274.37 L 163.04 273.38 L 168.31 273.38 L 173.30 272.69 L 178.24 271.90 L 183.19 271.12 L 188.13 270.32 L 192.80 268.88 L 197.48 267.43 L 202.15 265.99 L 206.83 264.56 L 211.51 263.12 L 216.01 261.27 L 220.36 259.04 L 224.68 256.75 L 229.03 254.51 L 233.35 252.23 L 237.64 249.85 L 241.66 246.83 L 245.68 243.82 L 249.63 240.62 L 253.27 236.86 L 256.82 233.06 L 260.46 229.29 L 264.01 225.49 L 267.65 221.73 L 270.56 217.66 L 273.31 213.53 L 275.67 209.23 L 277.75 204.82 L 279.82 200.41 L 281.91 196.00 L 283.73 191.49 L 284.87 186.69 L 286.04 181.90 L 287.21 177.11 L 288.35 172.31 L 289.51 167.52 L 290.38 162.61 L 290.50 157.39 L 290.62 152.17 L 290.75 146.95 L 290.87 141.73 L 290.88 136.46 L 291.00 131.24 L 291.12 126.02 L 291.25 120.80 L 291.38 115.58 L 290.78 110.55 L 289.95 105.63 L 289.09 100.71 L 288.25 95.79 L 287.39 90.87 L 286.54 85.95 L 284.89 81.36 L 283.02 76.87 L 281.15 72.37 L 279.28 67.87 L 277.40 63.38 L 275.05 59.08 L 272.17 55.00 L 269.30 50.92 L 266.43 46.84 L 263.26 42.88 L 259.45 39.33 L 255.65 35.78 L 251.86 32.22 L 248.07 28.63 L 243.85 26.10 L 239.60 23.64 L 235.35 21.16 L 231.10 18.69 L 226.86 16.21 L 222.49 14.03 L 217.83 12.56 L 213.18 11.06 L 208.51 9.59 L 203.85 8.11 L 199.03 7.03 L 194.09 6.24 L 189.14 5.46 L 184.21 4.64 L 179.25 3.87 L 174.14 3.50 L 168.86 3.50 L 163.59 3.50 L 158.32 3.50 L 153.05 3.50 L 147.78 3.50 L 142.51 3.50 L 137.23 3.50 L 131.96 3.50 L 126.69 3.50 L 121.42 3.50 Z M 156.74 207.47 L 156.99 207.40 L 157.25 207.40 L 157.51 207.46 L 157.78 207.49 L 158.05 207.50 L 158.32 207.54 L 158.58 207.59 L 158.85 207.62 L 159.12 207.63 L 159.39 207.68 L 159.65 207.73 L 159.92 207.75 L 160.20 207.77 L 160.46 207.82 L 160.72 207.86 L 160.99 207.88 L 161.27 207.90 L 161.52 207.96 L 161.79 207.99 L 162.07 208.00 L 162.33 208.04 L 162.59 208.09 L 162.86 208.12 L 163.14 208.14 L 163.40 208.18 L 163.66 208.23 L 163.94 208.25 L 164.21 208.27 L 164.47 208.32 L 164.72 208.39 L 164.96 208.50 L 165.15 208.68 L 165.31 208.89 L 165.47 209.11 L 165.63 209.32 L 165.78 209.54 L 165.93 209.76 L 166.09 209.98 L 166.25 210.19 L 166.40 210.41 L 166.55 210.63 L 166.71 210.85 L 166.87 211.06 L 167.02 211.28 L 167.17 211.50 L 167.31 211.72 L 167.43 211.96 L 167.49 212.21 L 167.50 212.49 L 167.50 212.77 L 167.50 213.05 L 167.50 213.33 L 167.50 213.62 L 167.50 213.90 L 167.50 214.18 L 167.50 214.46 L 167.50 214.74 L 167.50 215.02 L 167.50 215.30 L 167.50 215.59 L 167.50 215.87 L 167.50 216.15 L 167.50 216.43 L 167.50 216.71 L 167.50 216.99 L 167.50 217.28 L 167.50 217.56 L 167.50 217.84 L 167.50 218.12 L 167.50 218.40 L 167.50 218.68 L 167.50 218.96 L 167.50 219.25 L 167.50 219.53 L 167.46 219.79 L 167.33 220.02 L 167.15 220.23 L 166.95 220.43 L 166.75 220.62 L 166.55 220.82 L 166.35 221.02 L 166.15 221.22 L 165.94 221.39 L 165.70 221.48 L 165.42 221.50 L 165.14 221.50 L 164.86 221.50 L 164.58 221.50 L 164.30 221.50 L 164.02 221.50 L 163.74 221.50 L 163.45 221.50 L 163.17 221.50 L 162.89 221.50 L 162.61 221.50 L 162.33 221.50 L 162.05 221.50 L 161.76 221.50 L 161.48 221.50 L 161.20 221.50 L 160.93 221.54 L 160.68 221.60 L 160.42 221.66 L 160.17 221.73 L 159.93 221.82 L 159.68 221.90 L 159.43 221.98 L 159.18 222.06 L 158.94 222.15 L 158.69 222.23 L 158.44 222.31 L 158.19 222.39 L 157.95 222.48 L 157.70 222.56 L 157.45 222.64 L 157.21 222.72 L 156.96 222.81 L 156.71 222.89 L 156.46 222.97 L 156.22 223.06 L 155.97 223.14 L 155.72 223.22 L 155.47 223.30 L 155.23 223.39 L 154.98 223.47 L 154.73 223.55 L 154.48 223.63 L 154.24 223.72 L 153.99 223.80 L 153.74 223.88 L 153.49 223.96 L 153.24 224.02 L 152.98 224.08 L 152.72 224.12 L 152.44 224.14 L 152.18 224.19 L 151.92 224.24 L 151.65 224.26 L 151.38 224.30 L 151.12 224.35 L 150.85 224.37 L 150.58 224.39 L 150.32 224.43 L 150.07 224.44 L 149.85 224.33 L 149.64 224.14 L 149.44 223.94 L 149.25 223.75 L 149.05 223.55 L 148.85 223.35 L 148.65 223.15 L 148.48 222.94 L 148.36 222.70 L 148.29 222.45 L 148.25 222.19 L 148.21 221.92 L 148.16 221.66 L 148.12 221.40 L 148.08 221.13 L 148.02 220.87 L 147.99 220.61 L 147.94 220.34 L 147.89 220.08 L 147.86 219.81 L 147.81 219.55 L 147.76 219.29 L 147.73 219.02 L 147.68 218.76 L 147.63 218.50 L 147.60 218.23 L 147.54 217.98 L 147.50 217.71 L 147.47 217.44 L 147.41 217.19 L 147.40 216.92 L 147.44 216.67 L 147.50 216.41 L 147.57 216.16 L 147.63 215.90 L 147.70 215.65 L 147.76 215.39 L 147.82 215.14 L 147.89 214.88 L 147.95 214.63 L 148.02 214.37 L 148.08 214.12 L 148.15 213.86 L 148.21 213.61 L 148.28 213.35 L 148.37 213.11 L 148.50 212.88 L 148.65 212.66 L 148.81 212.45 L 149.00 212.25 L 149.20 212.05 L 149.40 211.85 L 149.60 211.65 L 149.80 211.45 L 150.00 211.25 L 150.20 211.05 L 150.40 210.85 L 150.60 210.65 L 150.80 210.45 L 150.99 210.26 L 151.19 210.06 L 151.39 209.86 L 151.60 209.69 L 151.82 209.53 L 152.03 209.37 L 152.27 209.25 L 152.51 209.15 L 152.75 209.05 L 152.99 208.96 L 153.23 208.86 L 153.47 208.76 L 153.72 208.67 L 153.95 208.57 L 154.20 208.47 L 154.44 208.37 L 154.68 208.28 L 154.92 208.18 L 155.16 208.08 L 155.40 207.99 L 155.65 207.89 L 155.89 207.79 L 156.13 207.70 L 156.37 207.60 L 156.61 207.51 Z M 222.74 102.65 L 223.77 104.57 L 224.61 106.85 L 225.45 109.13 L 226.29 111.40 L 227.11 113.69 L 227.95 115.97 L 228.79 118.24 L 229.61 120.52 L 230.45 122.80 L 231.63 124.93 L 232.86 127.05 L 234.06 129.18 L 235.28 131.30 L 236.49 133.42 L 237.70 135.54 L 238.92 137.66 L 240.12 139.79 L 241.35 141.90 L 242.55 144.03 L 243.77 146.15 L 244.98 148.27 L 246.19 150.39 L 246.85 152.74 L 247.34 155.17 L 247.82 157.59 L 248.30 160.01 L 248.10 162.39 L 247.46 164.75 L 246.81 167.10 L 246.18 169.47 L 245.52 171.81 L 244.23 173.91 L 242.89 175.98 L 241.55 178.04 L 240.21 180.11 L 238.84 182.17 L 237.51 184.24 L 236.17 186.31 L 234.83 188.38 L 233.49 190.45 L 232.15 192.52 L 230.82 194.59 L 229.47 196.66 L 228.14 198.73 L 226.77 200.79 L 225.43 202.86 L 224.09 204.92 L 222.75 206.99 L 221.41 209.06 L 219.66 210.96 L 217.95 212.88 L 216.22 214.78 L 214.47 216.68 L 212.77 218.60 L 210.78 220.13 L 208.63 221.27 L 206.48 222.42 L 204.33 223.55 L 201.90 224.04 L 199.32 224.13 L 196.74 224.25 L 194.17 224.37 L 191.57 224.44 L 189.10 224.19 L 186.84 223.33 L 184.56 222.48 L 182.29 221.64 L 179.83 221.25 L 177.31 220.99 L 174.80 220.71 L 172.78 219.78 L 172.50 217.28 L 172.21 214.77 L 171.88 212.28 L 171.60 209.77 L 170.83 207.48 L 168.87 205.89 L 166.91 204.29 L 164.70 203.29 L 162.24 202.88 L 159.79 202.54 L 157.39 203.07 L 154.99 203.61 L 152.58 204.13 L 150.33 205.04 L 148.38 206.66 L 146.44 208.31 L 144.53 210.00 L 143.59 212.23 L 142.68 214.48 L 142.75 216.92 L 143.06 219.42 L 143.37 221.91 L 141.98 223.28 L 139.84 222.56 L 137.91 220.89 L 135.98 219.21 L 134.05 217.54 L 132.78 215.45 L 131.88 213.20 L 131.38 210.78 L 131.38 208.16 L 131.88 205.74 L 132.80 203.50 L 133.74 201.27 L 134.66 199.02 L 135.61 196.79 L 136.68 194.61 L 138.51 192.74 L 140.36 190.89 L 142.39 189.46 L 144.48 188.17 L 146.57 186.86 L 148.65 185.56 L 150.93 184.73 L 153.24 183.97 L 155.62 183.37 L 158.19 183.24 L 160.75 183.10 L 163.31 182.94 L 165.86 182.78 L 168.43 182.63 L 171.00 182.50 L 173.57 182.37 L 175.78 181.38 L 178.35 181.50 L 180.92 181.62 L 183.50 181.75 L 186.07 181.88 L 188.64 182.00 L 191.21 182.13 L 193.78 182.25 L 196.36 182.37 L 198.36 180.89 L 198.99 178.74 L 197.83 176.78 L 195.57 175.92 L 195.63 173.49 L 196.89 171.39 L 198.15 169.29 L 199.41 167.19 L 200.68 165.09 L 202.17 163.08 L 204.02 161.23 L 205.88 159.37 L 206.28 157.01 L 204.09 156.06 L 201.84 155.16 L 201.38 152.84 L 200.76 150.47 L 199.79 148.24 L 198.85 146.01 L 197.46 143.96 L 195.61 142.11 L 193.75 140.25 L 191.67 138.93 L 189.45 137.95 L 187.23 136.99 L 185.01 136.01 L 182.79 135.04 L 180.59 134.04 L 179.73 131.79 L 179.03 129.46 L 178.33 127.12 L 177.64 124.79 L 177.22 122.34 L 176.91 119.84 L 176.63 117.33 L 176.65 115.03 L 179.05 115.50 L 181.44 116.06 L 183.83 116.63 L 186.22 117.20 L 188.77 117.38 L 191.40 117.38 L 194.02 117.38 L 196.64 117.38 L 199.14 117.07 L 201.52 116.48 L 203.90 115.88 L 206.25 115.22 L 208.42 114.13 L 210.60 113.05 L 212.77 111.96 L 214.78 110.47 L 216.63 108.62 L 218.49 106.76 L 220.34 104.91 L 222.20 103.05 Z M 137.61 55.47 L 141.36 56.35 L 145.11 57.42 L 148.86 58.49 L 152.53 59.74 L 154.41 62.66 L 154.25 66.79 L 154.12 70.93 L 154.00 75.07 L 153.76 79.16 L 153.62 83.29 L 153.61 87.39 L 154.62 91.16 L 156.18 94.70 L 157.75 98.25 L 159.94 101.53 L 162.72 104.57 L 165.50 107.61 L 168.29 110.65 L 169.50 114.33 L 169.87 118.37 L 170.87 122.15 L 171.87 125.93 L 172.85 129.71 L 173.86 133.49 L 174.63 137.36 L 175.11 141.35 L 175.86 145.23 L 179.16 147.38 L 182.27 145.56 L 181.76 141.86 L 185.43 142.12 L 188.78 144.16 L 191.74 147.12 L 193.79 150.46 L 194.57 154.33 L 195.34 158.20 L 194.49 161.91 L 193.19 165.56 L 191.37 169.00 L 188.30 171.70 L 185.22 174.39 L 181.54 175.62 L 177.40 175.75 L 173.26 175.87 L 169.12 176.00 L 164.98 176.12 L 160.85 176.25 L 156.71 176.37 L 152.57 176.49 L 148.69 175.73 L 145.47 173.40 L 142.37 170.76 L 139.87 167.67 L 137.68 164.39 L 135.49 161.10 L 134.31 157.40 L 133.19 153.67 L 132.07 149.95 L 130.95 146.22 L 129.83 142.49 L 128.89 138.69 L 128.07 134.84 L 127.25 130.99 L 126.43 127.14 L 125.59 123.29 L 124.76 119.44 L 123.94 115.59 L 122.74 111.90 L 119.44 110.50 L 116.50 112.56 L 116.50 116.75 L 117.47 120.54 L 118.47 124.31 L 119.47 128.09 L 120.48 131.86 L 121.49 135.64 L 122.50 139.41 L 123.50 143.19 L 124.50 146.96 L 125.51 150.74 L 126.52 154.51 L 127.52 158.28 L 128.57 162.04 L 130.45 165.46 L 132.34 168.86 L 134.73 172.00 L 137.78 174.76 L 140.85 177.47 L 142.42 180.87 L 139.26 183.24 L 136.01 185.53 L 132.77 187.82 L 129.52 190.09 L 125.60 190.25 L 121.55 189.91 L 117.48 189.62 L 113.93 188.08 L 110.67 185.82 L 107.43 183.54 L 104.49 180.79 L 101.85 177.69 L 99.56 174.45 L 97.67 171.04 L 95.78 167.63 L 94.68 163.90 L 93.79 160.08 L 92.92 156.24 L 91.81 152.51 L 90.37 148.92 L 88.93 145.32 L 87.93 141.54 L 87.23 137.64 L 86.52 133.75 L 83.83 130.96 L 80.65 130.72 L 79.50 134.44 L 79.94 138.44 L 81.09 142.16 L 82.21 145.89 L 83.33 149.61 L 84.47 153.33 L 85.60 157.06 L 86.72 160.78 L 87.86 164.50 L 88.99 168.23 L 90.54 171.77 L 92.43 175.18 L 94.33 178.59 L 96.94 181.70 L 99.63 184.78 L 100.40 187.65 L 97.09 189.78 L 93.35 190.88 L 89.27 191.13 L 85.18 191.38 L 81.28 190.93 L 77.60 189.70 L 74.51 187.01 L 71.55 184.05 L 68.59 181.09 L 66.48 177.77 L 64.98 174.20 L 63.50 170.62 L 62.09 167.01 L 60.97 163.29 L 59.85 159.56 L 58.73 155.83 L 57.62 152.10 L 56.50 148.37 L 55.38 144.64 L 54.27 140.92 L 53.35 137.11 L 53.08 133.02 L 52.81 128.94 L 52.54 124.86 L 52.71 120.88 L 54.31 117.35 L 56.37 114.01 L 59.47 111.40 L 62.78 109.27 L 66.81 108.88 L 70.84 108.50 L 74.22 106.53 L 77.30 103.91 L 78.58 100.25 L 79.81 96.57 L 81.04 92.88 L 82.30 89.22 L 85.08 86.17 L 88.04 83.21 L 91.21 80.74 L 94.68 79.00 L 98.55 78.53 L 102.61 78.85 L 106.68 79.12 L 110.76 79.34 L 113.76 76.49 L 116.61 73.47 L 118.34 70.00 L 120.08 66.53 L 122.23 63.35 L 125.49 61.09 L 128.76 58.87 L 132.18 57.02 L 135.93 55.94 Z M 185.74 41.47 L 187.08 41.50 L 188.47 41.61 L 189.86 41.72 L 191.25 41.83 L 192.64 41.93 L 194.03 42.03 L 195.42 42.14 L 196.80 42.26 L 198.14 42.49 L 199.31 43.12 L 200.48 43.77 L 201.64 44.42 L 202.81 45.06 L 203.98 45.71 L 205.14 46.36 L 206.31 47.01 L 207.31 47.91 L 208.06 49.03 L 208.68 50.16 L 207.54 50.12 L 206.26 49.77 L 204.97 49.41 L 203.68 49.06 L 202.39 48.71 L 201.11 48.35 L 199.82 48.00 L 198.53 47.65 L 197.16 47.50 L 195.73 47.50 L 194.29 47.50 L 192.86 47.50 L 191.43 47.50 L 189.99 47.50 L 188.81 47.86 L 188.29 49.08 L 187.76 50.30 L 188.10 51.48 L 189.17 52.35 L 190.55 52.50 L 191.93 52.62 L 193.32 52.73 L 194.71 52.82 L 196.12 52.90 L 197.51 53.00 L 198.89 53.13 L 200.27 53.25 L 201.65 53.38 L 202.91 53.80 L 204.12 54.34 L 205.33 54.88 L 206.54 55.43 L 207.75 55.97 L 208.96 56.50 L 210.17 57.05 L 211.33 57.70 L 212.39 58.62 L 213.46 59.48 L 214.52 60.39 L 215.57 61.31 L 216.64 62.18 L 217.62 63.19 L 218.17 64.40 L 218.71 65.61 L 219.25 66.81 L 219.81 68.02 L 220.36 69.22 L 220.92 70.42 L 221.47 71.63 L 222.01 72.84 L 222.48 74.08 L 222.50 75.51 L 222.50 76.94 L 222.50 78.37 L 222.50 79.81 L 222.50 81.24 L 222.50 82.67 L 222.50 84.11 L 222.50 85.54 L 222.50 86.98 L 222.34 88.34 L 221.85 89.57 L 221.35 90.80 L 220.86 92.03 L 220.37 93.26 L 219.88 94.49 L 219.39 95.72 L 218.89 96.95 L 218.25 98.12 L 217.24 99.13 L 216.23 100.15 L 215.21 101.16 L 214.20 102.18 L 213.18 103.19 L 212.17 104.20 L 211.16 105.22 L 210.14 106.23 L 208.99 106.91 L 207.78 107.45 L 206.57 108.00 L 205.36 108.54 L 204.15 109.08 L 202.94 109.62 L 201.73 110.16 L 200.46 110.56 L 199.10 110.73 L 197.73 110.87 L 196.35 111.00 L 194.93 110.96 L 193.53 110.88 L 192.10 110.87 L 190.72 110.75 L 189.28 110.75 L 187.89 110.64 L 186.47 110.63 L 185.04 110.61 L 183.65 110.50 L 182.34 110.21 L 181.13 109.66 L 179.92 109.12 L 178.71 108.57 L 177.50 108.03 L 176.29 107.49 L 175.09 106.94 L 173.89 106.38 L 172.68 105.82 L 171.56 105.06 L 170.55 104.05 L 169.54 103.04 L 168.52 102.02 L 167.51 101.01 L 166.49 99.99 L 165.49 98.98 L 164.92 97.78 L 164.42 96.55 L 163.93 95.32 L 163.44 94.09 L 162.94 92.86 L 162.46 91.63 L 161.97 90.40 L 161.47 89.17 L 160.98 87.94 L 160.48 86.71 L 159.99 85.48 L 159.50 84.25 L 159.38 82.87 L 159.38 81.44 L 159.38 80.00 L 159.38 78.57 L 159.38 77.14 L 159.38 75.70 L 159.38 74.27 L 159.38 72.83 L 159.38 71.40 L 159.38 69.97 L 159.48 68.58 L 159.88 67.31 L 160.28 66.04 L 160.66 64.76 L 161.05 63.49 L 161.43 62.22 L 161.84 60.95 L 162.23 59.68 L 162.61 58.40 L 163.00 57.13 L 163.46 55.89 L 164.39 54.84 L 165.32 53.79 L 166.26 52.74 L 167.18 51.69 L 168.11 50.64 L 169.03 49.59 L 169.96 48.54 L 170.92 47.51 L 171.90 46.49 L 173.12 45.96 L 174.36 45.51 L 175.61 45.06 L 176.87 44.63 L 178.11 44.17 L 179.36 43.72 L 180.61 43.29 L 181.86 42.84 L 183.11 42.38 L 184.35 41.93 L 185.61 41.51 Z" fill="#000000" fill-rule="evenodd"/>
</svg>
