<svg xmlns="http://www.w3.org/2000/svg" viewBox="0 0 264 294" width="264" height="294" role="img" aria-label="10_u_you">
  <title>10_u_you</title>
  <path d="M 17.77 3.54 L 11.57 6.24 L 6.26 10.59 L 3.88 16.92 L 3.50 24.07 L 3.50 31.39 L 3.50 38.70 L 3.50 46.02 L 3.50 53.33 L 3.50 60.65 L 3.50 67.96 L 3.50 75.28 L 3.50 82.59 L 4.37 89.55 L 5.41 96.43 L 5.50 103.71 L 6.29 110.70 L 6.50 117.92 L 6.50 125.24 L 6.50 132.55 L 6.50 139.87 L 6.50 147.18 L 6.50 154.50 L 5.50 161.40 L 5.50 168.71 L 5.50 176.03 L 5.50 183.34 L 5.62 189.88 L 6.00 197.04 L 6.38 204.20 L 7.81 210.92 L 9.52 217.53 L 11.24 224.13 L 13.32 230.58 L 16.35 236.64 L 19.65 242.59 L 23.63 248.26 L 28.27 253.65 L 33.45 258.82 L 38.62 263.99 L 44.19 268.21 L 49.92 272.03 L 55.86 275.34 L 61.92 278.37 L 68.24 280.79 L 74.66 282.93 L 81.20 284.81 L 87.96 286.16 L 94.71 287.51 L 101.67 288.38 L 108.88 288.62 L 116.14 288.75 L 123.41 288.88 L 130.67 289.00 L 137.93 289.13 L 145.19 289.25 L 152.04 288.38 L 159.36 288.38 L 166.49 287.93 L 173.31 286.74 L 180.12 285.52 L 186.63 283.58 L 193.11 281.55 L 199.56 279.48 L 205.59 276.36 L 211.58 273.18 L 217.39 269.53 L 222.97 265.35 L 228.41 260.84 L 233.59 255.66 L 238.23 250.27 L 242.48 244.72 L 245.67 238.72 L 248.86 232.73 L 251.75 226.62 L 253.62 220.07 L 255.49 213.53 L 257.36 206.99 L 257.75 199.84 L 258.13 192.68 L 259.10 186.00 L 258.38 178.98 L 258.38 171.67 L 258.38 164.35 L 258.38 157.04 L 258.38 149.72 L 258.38 142.41 L 258.38 135.09 L 258.38 127.78 L 258.38 120.46 L 258.38 113.15 L 258.38 105.83 L 258.38 98.52 L 258.38 91.20 L 258.38 83.89 L 258.38 76.57 L 259.38 69.67 L 259.38 62.36 L 259.38 55.04 L 259.38 47.73 L 259.38 40.41 L 259.38 33.10 L 259.38 25.78 L 258.50 18.83 L 257.50 11.93 L 252.99 6.49 L 246.90 3.53 L 239.59 3.50 L 232.28 3.50 L 224.96 3.50 L 217.65 3.50 L 210.33 3.50 L 203.02 3.50 L 195.70 3.50 L 188.39 3.50 L 181.08 3.50 L 173.76 3.50 L 166.49 3.61 L 160.43 6.63 L 155.88 11.74 L 153.74 18.16 L 153.50 25.38 L 153.50 32.69 L 153.50 40.01 L 153.50 47.32 L 153.50 54.64 L 153.50 61.95 L 153.50 69.27 L 153.50 76.58 L 153.50 83.90 L 153.50 91.21 L 153.50 98.53 L 153.50 105.84 L 153.50 113.16 L 153.50 120.47 L 153.50 127.79 L 153.50 135.10 L 153.50 142.42 L 152.50 149.32 L 151.69 156.30 L 149.55 162.73 L 145.86 168.51 L 140.67 173.63 L 134.13 175.50 L 126.81 175.50 L 120.35 173.45 L 115.09 169.13 L 111.71 163.22 L 109.19 156.95 L 107.84 150.19 L 107.38 143.07 L 107.38 135.75 L 107.38 128.44 L 107.38 121.12 L 107.38 113.81 L 107.38 106.49 L 107.38 99.18 L 107.38 91.86 L 107.38 84.55 L 107.38 77.23 L 107.38 69.92 L 107.38 62.60 L 107.38 55.29 L 107.38 47.97 L 107.38 40.66 L 107.38 33.35 L 107.38 26.03 L 107.38 18.72 L 105.77 12.06 L 101.16 6.66 L 95.01 3.84 L 87.84 3.50 L 80.52 3.50 L 73.21 3.50 L 65.89 3.50 L 58.58 3.50 L 51.27 3.50 L 43.95 3.50 L 36.64 3.50 L 29.32 3.50 L 22.01 3.50 Z" fill="#000000" fill-rule="evenodd"/>
</svg>
