<?xml version="1.0" standalone="no"?>
<!DOCTYPE svg PUBLIC "-//W3C//DTD SVG 20010904//EN"
 "http://www.w3.org/TR/2001/REC-SVG-20010904/DTD/svg10.dtd">
<svg version="1.0" xmlns="http://www.w3.org/2000/svg"
 width="512.000000pt" height="512.000000pt" viewBox="0 0 512.000000 512.000000"
 preserveAspectRatio="xMidYMid meet">
<metadata>
Created by potrace 1.16, written by Peter Selinger 2001-2019
</metadata>
<g transform="translate(0.000000,512.000000) scale(0.020000,-0.020000)"
fill="#000000" stroke="none">
<path d="M15850 20568 c-627 -125 -1400 -384 -2300 -768 -1593 -680 -2485
-674 -3850 29 -1428 734 -2334 631 -3456 -394 -880 -804 -1039 -2350 -345
-3358 86 -125 172 -227 191 -227 19 0 102 -106 184 -236 82 -130 267 -369 411
-530 1034 -1158 835 -2788 -531 -4366 -435 -503 -762 -1352 -830 -2160 -153
-1811 1561 -3509 3289 -3256 943 138 1027 168 1837 648 1455 863 2132 826
3150 -172 608 -596 937 -772 1516 -811 1261 -87 2108 573 2387 1859 131 608
280 914 550 1133 113 91 305 250 427 352 231 193 427 265 940 344 959 148
1859 1019 2036 1970 136 736 -94 2077 -385 2240 -39 22 -181 202 -315 400
-134 198 -294 405 -356 460 -599 535 -720 1300 -417 2640 365 1614 174 2402
-797 3297 -722 665 -2340 1104 -3336 906z m1138 -3418 c377 -230 362 -91 362
-3230 0 -2805 0 -2805 -114 -2975 -330 -490 -1173 -439 -1428 86 -101 208
-108 296 -109 1433 0 1283 -24 1586 -124 1586 -88 0 -606 -472 -982 -894 -175
-197 -943 -995 -1707 -1774 -765 -778 -1426 -1470 -1471 -1536 -44 -67 -285
-339 -535 -606 -250 -266 -630 -674 -843 -906 -460 -498 -678 -597 -1082 -490
-731 196 -893 1001 -323 1616 119 129 254 311 298 405 45 94 145 208 223 254
78 46 192 156 254 245 61 89 203 264 314 391 112 126 305 358 429 516 124 158
424 493 666 745 243 253 528 574 634 714 105 140 310 353 455 475 145 121 519
479 831 795 730 740 711 721 1091 1088 525 508 518 511 -1262 511 -1349 1
-1361 3 -1602 332 -295 401 -201 975 199 1219 254 155 5572 155 5826 0z"/>
<path d="M4800 13453 c-886 -177 -839 -1512 59 -1673 454 -82 915 210 993 629
131 695 -360 1182 -1052 1044z"/>
<path d="M19475 7480 c-729 -180 -1021 -997 -606 -1693 529 -888 1985 -521
1994 503 8 879 -587 1389 -1388 1190z"/>
</g>
</svg>
