<?xml version="1.0" standalone="no"?>
<!DOCTYPE svg PUBLIC "-//W3C//DTD SVG 20010904//EN"
 "http://www.w3.org/TR/2001/REC-SVG-20010904/DTD/svg10.dtd">
<svg version="1.0" xmlns="http://www.w3.org/2000/svg"
 width="512.000000pt" height="512.000000pt" viewBox="0 0 512.000000 512.000000"
 preserveAspectRatio="xMidYMid meet">
<metadata>
Created by potrace 1.16, written by Peter Selinger 2001-2019
</metadata>
<g transform="translate(0.000000,512.000000) scale(0.020000,-0.020000)"
fill="#000000" stroke="none">
<path d="M12150 20868 c-685 -130 -1338 -543 -2299 -1452 -746 -705 -1201
-864 -2901 -1014 -560 -49 -1134 -215 -1414 -409 -605 -419 -844 -627 -1012
-879 -593 -893 -628 -2169 -94 -3385 97 -222 241 -550 320 -729 378 -857 399
-1513 94 -2906 -241 -1106 86 -2559 706 -3129 96 -88 309 -285 473 -437 494
-458 1215 -776 2002 -881 220 -30 549 -74 732 -98 464 -63 1379 -368 1723
-575 551 -332 776 -392 1470 -396 995 -5 1458 230 2484 1258 891 893 944 915
2223 912 560 -1 1116 -21 1236 -45 209 -40 589 -6 1194 106 262 48 1027 500
1223 722 82 93 331 519 667 1144 281 521 623 2188 623 3028 -1 837 -408 2474
-748 3011 -83 131 -196 326 -251 435 -228 445 -1028 981 -1784 1195 -299 84
-633 217 -1065 422 -67 33 -259 183 -425 335 -166 152 -387 339 -490 416 -104
77 -322 320 -486 540 -588 792 -1315 1571 -1634 1751 -142 81 -294 201 -337
266 -286 436 -1619 911 -2230 794z m714 -3197 c253 -98 541 -231 639 -294 99
-64 319 -187 489 -273 171 -86 355 -201 408 -254 54 -54 261 -180 461 -280
1326 -666 1889 -1111 1889 -1495 0 -437 -314 -662 -2750 -1972 -289 -155 -694
-385 -900 -511 -896 -548 -1131 -595 -1635 -332 -686 359 -1058 574 -1249 720
-117 89 -339 209 -494 267 -155 58 -601 300 -990 538 -389 238 -808 486 -932
551 -626 329 -804 829 -412 1162 230 196 868 603 1251 798 294 149 1115 628
1736 1012 192 120 462 252 600 296 137 43 318 115 400 160 288 157 949 116
1489 -93z m6152 -4077 c260 -134 334 -250 334 -523 0 -557 -671 -767 -956
-300 -289 474 156 1063 622 823z m-10469 -537 c575 -337 2068 -1215 2353
-1383 838 -494 1126 -523 1804 -184 565 283 1320 703 1596 889 124 83 394 249
600 368 206 119 483 281 616 360 397 236 639 195 1022 -173 448 -432 271 -729
-822 -1379 -335 -199 -728 -407 -875 -462 -146 -55 -345 -163 -442 -239 -97
-77 -266 -186 -376 -242 -109 -56 -390 -219 -624 -363 -1092 -670 -1425 -760
-1881 -508 -106 59 -407 221 -668 361 -261 139 -581 325 -710 413 -357 243
-837 506 -1106 606 -133 50 -470 240 -750 423 -280 183 -638 411 -796 505
-496 296 -393 768 237 1093 290 150 451 133 822 -85z m10638 -1667 c368 -356
162 -890 -344 -890 -415 0 -541 109 -541 469 0 526 521 774 885 421z m-10933
-667 c80 -73 490 -303 1434 -807 226 -121 423 -240 438 -265 144 -233 1510
-851 1880 -851 230 0 890 247 1252 469 2408 1474 2682 1599 3011 1373 563
-385 638 -672 271 -1025 -250 -239 -802 -617 -902 -617 -105 0 -813 -383
-1236 -669 -358 -242 -730 -455 -1725 -987 -582 -311 -810 -324 -1250 -69
-165 95 -435 244 -600 331 -165 86 -739 421 -1275 744 -536 322 -1031 604
-1100 625 -69 21 -181 77 -250 125 -69 48 -226 137 -350 199 -834 414 -864
964 -75 1368 294 151 363 159 477 56z m10764 -1329 c510 -263 466 -867 -76
-1041 -522 -167 -877 523 -480 932 170 176 355 212 556 109z"/>
<path d="M19000 19354 c-490 -97 -851 -734 -726 -1284 162 -711 800 -990 1491
-652 1108 542 462 2177 -765 1936z"/>
</g>
</svg>
