<svg xmlns="http://www.w3.org/2000/svg" width="493" height="249" viewBox="0 0 493 249" role="img" aria-label="01_plates_01">
  <title>01_plates_01</title>
  <path d="M 436.21 227.20 L 436.09 227.58 L 436.21 228.04 L 436.49 228.49 L 436.78 228.93 L 436.94 229.42 L 436.99 229.97 L 437.00 230.53 L 436.99 231.08 L 436.93 231.62 L 436.75 232.11 L 436.43 232.52 L 436.00 232.82 L 435.55 233.01 L 435.20 233.23 L 435.10 233.62 L 435.23 234.08 L 435.52 234.52 L 435.80 234.97 L 435.92 235.46 L 435.84 235.95 L 435.56 236.38 L 435.16 236.72 L 434.70 236.94 L 434.30 237.15 L 434.08 237.49 L 434.02 237.98 L 434.05 238.52 L 434.19 239.02 L 434.47 239.47 L 434.76 239.91 L 434.91 240.39 L 434.86 240.89 L 434.60 241.33 L 434.21 241.68 L 433.75 241.92 L 433.26 242.08 L 432.79 242.31 L 432.35 242.61 L 431.90 242.86 L 431.40 242.91 L 430.92 242.77 L 430.49 242.46 L 430.08 242.08 L 429.69 241.68 L 429.34 241.26 L 429.11 240.79 L 429.02 240.27 L 428.97 239.74 L 428.84 239.31 L 428.54 239.12 L 428.21 239.21 L 428.04 239.58 L 428.02 240.10 L 428.07 240.63 L 428.25 241.12 L 428.55 241.56 L 428.82 242.01 L 428.92 242.50 L 428.82 242.99 L 428.53 243.42 L 428.12 243.74 L 427.64 243.91 L 427.15 243.87 L 426.70 243.62 L 426.34 243.24 L 426.09 242.80 L 425.89 242.38 L 425.59 242.11 L 425.12 242.02 L 424.57 242.00 L 424.01 241.99 L 423.47 241.95 L 422.97 241.80 L 422.53 241.50 L 422.12 241.12 L 421.72 240.73 L 421.31 240.37 L 420.85 240.13 L 420.36 240.09 L 419.88 240.26 L 419.45 240.57 L 419.05 240.96 L 418.65 241.35 L 418.25 241.75 L 417.85 242.15 L 417.44 242.53 L 417.00 242.82 L 416.51 242.99 L 416.02 243.16 L 415.57 243.44 L 415.13 243.74 L 414.65 243.92 L 414.11 243.99 L 413.55 244.00 L 412.99 244.00 L 412.43 244.00 L 411.86 244.00 L 411.30 244.00 L 410.75 244.02 L 410.22 244.11 L 409.75 244.33 L 409.31 244.64 L 408.86 244.89 L 408.36 245.05 L 407.88 245.25 L 407.44 245.55 L 406.99 245.82 L 406.49 245.96 L 405.94 246.00 L 405.38 246.00 L 404.81 246.00 L 404.25 246.00 L 403.69 246.00 L 403.13 246.00 L 402.60 246.04 L 402.20 246.21 L 402.04 246.60 L 402.02 247.11 L 402.11 247.58 L 402.38 247.87 L 402.84 247.98 L 403.38 248.00 L 403.94 248.00 L 404.50 248.00 L 405.05 247.99 L 405.54 247.91 L 405.87 247.67 L 406.07 247.26 L 406.30 246.81 L 406.65 246.41 L 407.09 246.14 L 407.60 246.02 L 408.15 246.00 L 408.72 246.00 L 409.27 245.98 L 409.80 245.89 L 410.26 245.66 L 410.70 245.36 L 411.17 245.12 L 411.69 245.02 L 412.24 245.02 L 412.76 245.10 L 413.23 245.33 L 413.61 245.68 L 413.89 246.12 L 414.07 246.55 L 414.34 246.87 L 414.75 247.07 L 415.21 247.30 L 415.64 247.61 L 416.10 247.86 L 416.61 247.98 L 417.15 247.98 L 417.61 247.88 L 417.90 247.60 L 418.10 247.17 L 418.35 246.73 L 418.72 246.36 L 419.18 246.12 L 419.70 246.02 L 420.26 246.00 L 420.82 246.00 L 421.38 246.00 L 421.94 246.00 L 422.51 246.00 L 423.07 246.00 L 423.63 246.00 L 424.20 246.00 L 424.76 246.00 L 425.32 246.00 L 425.88 246.00 L 426.41 245.96 L 426.81 245.79 L 427.02 245.42 L 427.21 244.95 L 427.52 244.53 L 427.94 244.22 L 428.43 244.06 L 428.97 244.01 L 429.52 244.05 L 430.02 244.19 L 430.44 244.50 L 430.76 244.91 L 430.93 245.40 L 430.99 245.94 L 431.00 246.50 L 431.01 247.05 L 431.09 247.53 L 431.31 247.83 L 431.65 247.85 L 431.91 247.58 L 432.10 247.16 L 432.36 246.72 L 432.74 246.35 L 433.20 246.11 L 433.72 246.02 L 434.27 246.00 L 434.84 246.00 L 435.40 246.00 L 435.96 245.99 L 436.51 245.96 L 437.01 245.81 L 437.46 245.54 L 437.90 245.24 L 438.38 245.09 L 438.88 245.14 L 439.33 245.38 L 439.77 245.68 L 440.23 245.88 L 440.73 245.89 L 441.20 245.69 L 441.59 245.35 L 441.86 244.91 L 441.98 244.39 L 441.98 243.84 L 441.91 243.31 L 441.72 242.83 L 441.41 242.39 L 441.15 241.94 L 441.08 241.45 L 441.21 240.96 L 441.51 240.54 L 441.93 240.23 L 442.42 240.06 L 442.96 240.01 L 443.51 240.04 L 444.01 240.19 L 444.45 240.48 L 444.86 240.86 L 445.26 241.25 L 445.67 241.61 L 446.12 241.86 L 446.62 241.91 L 447.10 241.76 L 447.54 241.47 L 447.99 241.19 L 448.49 241.04 L 449.04 241.01 L 449.60 241.00 L 450.16 241.00 L 450.72 241.00 L 451.29 241.00 L 451.85 241.00 L 452.41 241.00 L 452.97 240.99 L 453.47 240.93 L 453.81 240.73 L 453.90 240.34 L 453.74 239.88 L 453.42 239.47 L 452.99 239.18 L 452.50 239.08 L 452.01 239.18 L 451.56 239.45 L 451.12 239.74 L 450.64 239.91 L 450.15 239.87 L 449.69 239.63 L 449.25 239.33 L 448.79 239.12 L 448.29 239.11 L 447.82 239.29 L 447.38 239.59 L 446.93 239.86 L 446.42 239.98 L 445.86 240.00 L 445.30 240.00 L 444.75 239.98 L 444.22 239.89 L 443.75 239.67 L 443.31 239.37 L 442.85 239.13 L 442.36 239.09 L 441.88 239.26 L 441.44 239.55 L 440.99 239.82 L 440.50 239.92 L 440.01 239.82 L 439.58 239.53 L 439.26 239.12 L 439.09 238.64 L 439.13 238.15 L 439.36 237.69 L 439.67 237.25 L 439.91 236.79 L 440.07 236.29 L 440.29 235.82 L 440.59 235.39 L 440.86 234.93 L 440.98 234.42 L 441.00 233.86 L 441.00 233.30 L 441.00 232.74 L 441.00 232.18 L 441.00 231.61 L 441.00 231.05 L 440.96 230.51 L 440.82 230.00 L 440.52 229.57 L 440.11 229.25 L 439.63 229.05 L 439.14 228.88 L 438.69 228.62 L 438.33 228.24 L 438.08 227.79 L 437.89 227.37 L 437.58 227.11 L 437.11 227.02 L 436.60 227.04 Z M 430.06 227.15 L 429.60 227.42 L 429.15 227.73 L 428.65 227.92 L 428.10 227.99 L 427.54 228.04 L 427.02 228.17 L 426.56 228.45 L 426.10 228.75 L 425.60 228.93 L 425.06 229.00 L 424.54 229.07 L 424.17 229.28 L 423.95 229.68 L 423.73 230.15 L 423.42 230.60 L 423.16 231.05 L 423.11 231.50 L 423.30 231.82 L 423.63 231.84 L 423.91 231.58 L 424.11 231.14 L 424.38 230.69 L 424.74 230.26 L 425.15 229.86 L 425.56 229.47 L 426.02 229.18 L 426.52 229.08 L 427.02 229.20 L 427.47 229.50 L 427.89 229.89 L 428.30 230.30 L 428.71 230.71 L 429.11 231.12 L 429.50 231.53 L 429.80 231.99 L 429.95 232.50 L 430.00 233.06 L 430.07 233.61 L 430.26 234.11 L 430.59 234.53 L 431.02 234.82 L 431.48 234.89 L 431.82 234.71 L 431.97 234.28 L 431.98 233.74 L 431.88 233.20 L 431.65 232.72 L 431.35 232.27 L 431.13 231.80 L 431.11 231.29 L 431.31 230.81 L 431.66 230.41 L 432.10 230.12 L 432.55 229.92 L 432.86 229.64 L 432.97 229.18 L 432.97 228.64 L 432.86 228.11 L 432.59 227.66 L 432.18 227.30 L 431.69 227.09 L 431.15 227.02 L 430.59 227.03 Z M 63.06 17.15 L 62.61 17.41 L 62.19 17.71 L 61.74 17.93 L 61.33 18.13 L 61.09 18.45 L 61.01 18.93 L 60.97 19.46 L 60.85 19.96 L 60.56 20.38 L 60.17 20.72 L 59.72 20.94 L 59.32 21.14 L 59.09 21.47 L 59.02 21.94 L 59.05 22.44 L 59.23 22.81 L 59.63 22.97 L 60.14 22.98 L 60.59 22.89 L 60.88 22.62 L 60.98 22.16 L 61.02 21.64 L 61.13 21.13 L 61.38 20.69 L 61.76 20.33 L 62.22 20.11 L 62.74 20.02 L 63.28 19.98 L 63.79 19.89 L 64.25 19.66 L 64.62 19.30 L 64.87 18.86 L 64.91 18.38 L 64.76 17.90 L 64.44 17.50 L 64.03 17.20 L 63.54 17.07 Z M 63.06 8.14 L 62.64 8.42 L 62.30 8.80 L 62.11 9.26 L 62.11 9.74 L 62.30 10.19 L 62.63 10.58 L 63.05 10.86 L 63.53 11.02 L 64.01 11.18 L 64.42 11.47 L 64.74 11.87 L 64.93 12.34 L 64.99 12.86 L 65.03 13.37 L 65.18 13.76 L 65.54 13.95 L 66.05 13.99 L 66.59 14.00 L 67.13 14.00 L 67.68 14.00 L 68.20 13.98 L 68.64 13.87 L 68.90 13.58 L 68.98 13.12 L 69.00 12.59 L 69.00 12.05 L 69.03 11.51 L 69.16 11.02 L 69.45 10.60 L 69.84 10.28 L 70.30 10.10 L 70.78 10.11 L 71.23 10.32 L 71.61 10.66 L 71.88 11.08 L 72.05 11.52 L 72.27 11.83 L 72.60 11.87 L 72.87 11.64 L 72.98 11.21 L 73.02 10.69 L 73.11 10.18 L 73.34 9.74 L 73.70 9.37 L 74.12 9.11 L 74.55 8.93 L 74.84 8.70 L 74.86 8.37 L 74.61 8.12 L 74.17 8.02 L 73.65 8.02 L 73.14 8.12 L 72.69 8.36 L 72.27 8.66 L 71.82 8.89 L 71.31 8.98 L 70.78 9.00 L 70.23 9.00 L 69.68 9.00 L 69.14 9.00 L 68.59 9.00 L 68.05 9.00 L 67.50 9.00 L 66.96 8.99 L 66.43 8.95 L 65.95 8.79 L 65.52 8.51 L 65.09 8.23 L 64.61 8.06 L 64.09 8.01 L 63.56 8.03 Z M 391.17 5.17 L 391.03 5.51 L 391.00 5.95 L 391.00 6.43 L 391.00 6.90 L 391.02 7.36 L 391.13 7.72 L 391.40 7.93 L 391.82 7.99 L 392.28 7.99 L 392.73 7.93 L 393.13 7.76 L 393.48 7.48 L 393.76 7.13 L 393.93 6.73 L 393.99 6.28 L 393.99 5.82 L 393.93 5.40 L 393.72 5.13 L 393.36 5.02 L 392.90 5.00 L 392.43 5.00 L 391.95 5.00 L 391.51 5.03 Z M 140.72 3.47 L 141.89 9.62 L 136.43 11.64 L 131.62 7.85 L 124.85 7.89 L 118.80 10.01 L 113.70 13.72 L 108.63 17.44 L 102.86 20.75 L 97.16 23.35 L 91.23 25.16 L 89.00 21.63 L 90.46 18.63 L 86.14 23.41 L 83.05 28.67 L 80.32 34.91 L 79.50 41.11 L 74.35 39.60 L 68.13 42.41 L 64.95 38.31 L 62.44 38.91 L 60.20 42.74 L 62.67 46.15 L 62.91 52.69 L 60.18 58.29 L 57.03 63.83 L 57.30 69.97 L 53.65 72.15 L 48.43 73.70 L 48.44 79.34 L 44.65 79.81 L 38.86 80.51 L 33.02 82.91 L 29.35 88.22 L 26.75 85.28 L 22.52 85.26 L 26.02 80.68 L 24.99 74.95 L 21.18 71.75 L 21.54 76.19 L 18.11 78.67 L 15.00 80.92 L 10.66 85.18 L 11.32 90.04 L 17.79 90.39 L 19.10 96.25 L 18.38 103.14 L 15.78 108.72 L 12.60 114.04 L 8.10 112.94 L 6.12 115.22 L 6.88 121.34 L 10.95 117.37 L 11.76 122.50 L 6.83 125.61 L 8.52 128.50 L 11.09 133.19 L 5.69 135.19 L 6.27 141.35 L 8.43 144.72 L 6.00 149.91 L 6.42 157.24 L 6.04 164.11 L 6.00 171.59 L 6.00 179.09 L 6.00 186.60 L 6.05 194.08 L 7.01 201.18 L 8.00 208.28 L 8.00 215.78 L 8.00 223.28 L 7.67 230.65 L 9.05 234.91 L 16.14 234.00 L 23.50 233.86 L 24.46 228.31 L 24.72 221.88 L 25.00 214.51 L 25.98 207.41 L 26.45 200.23 L 29.00 203.76 L 29.83 210.92 L 30.80 217.98 L 30.05 225.01 L 31.01 232.10 L 35.19 234.09 L 42.29 235.00 L 49.79 235.00 L 57.29 235.00 L 64.40 235.54 L 71.47 235.00 L 78.62 234.29 L 85.61 234.92 L 92.74 234.00 L 100.22 234.05 L 107.33 235.00 L 114.83 235.00 L 122.34 235.00 L 129.45 235.93 L 136.43 235.26 L 143.49 235.77 L 148.76 238.55 L 153.14 244.23 L 158.56 247.98 L 166.06 248.00 L 173.56 248.00 L 181.06 248.00 L 188.57 248.00 L 196.07 248.00 L 203.57 248.00 L 211.07 248.00 L 218.58 248.00 L 226.08 248.00 L 233.58 248.00 L 241.09 248.00 L 248.59 248.00 L 256.09 248.00 L 263.59 248.00 L 271.10 248.00 L 278.60 248.00 L 286.10 248.00 L 293.60 248.00 L 300.40 247.75 L 306.06 246.21 L 311.38 242.80 L 317.79 243.82 L 323.67 247.74 L 331.06 248.00 L 335.29 244.55 L 340.97 242.66 L 345.21 246.70 L 350.77 247.59 L 356.72 245.83 L 362.33 247.52 L 369.07 247.18 L 374.84 246.25 L 380.24 247.52 L 375.51 245.06 L 368.78 243.42 L 363.13 244.13 L 362.28 240.47 L 368.38 238.68 L 374.01 236.09 L 380.66 236.46 L 384.34 240.03 L 386.27 238.66 L 391.30 234.38 L 394.16 228.27 L 398.41 223.31 L 404.47 220.52 L 409.54 223.49 L 414.30 223.22 L 413.93 217.70 L 417.57 212.25 L 417.79 205.92 L 421.29 202.08 L 423.72 195.97 L 429.23 196.09 L 430.85 189.50 L 433.83 192.09 L 436.13 193.19 L 442.16 190.14 L 446.19 191.29 L 448.84 193.17 L 452.64 188.56 L 457.76 187.69 L 459.21 192.14 L 453.47 195.18 L 451.91 200.40 L 457.13 197.19 L 461.16 192.00 L 466.28 190.10 L 469.88 184.59 L 476.83 184.52 L 482.98 182.11 L 486.85 177.31 L 489.00 171.27 L 486.09 167.32 L 484.86 172.40 L 478.89 170.30 L 479.80 164.09 L 485.51 161.46 L 489.00 158.39 L 488.79 151.01 L 485.58 146.41 L 484.67 143.75 L 479.59 144.75 L 482.46 139.43 L 484.66 134.52 L 488.68 129.95 L 489.00 122.76 L 489.00 115.25 L 489.00 107.75 L 489.00 100.25 L 489.00 92.74 L 489.00 85.24 L 489.00 77.74 L 488.09 70.62 L 488.97 63.55 L 486.19 57.25 L 480.60 52.89 L 475.79 54.90 L 473.00 49.69 L 473.00 42.19 L 472.32 35.21 L 472.00 28.42 L 471.93 21.00 L 467.17 19.18 L 460.35 18.21 L 459.00 24.34 L 458.45 31.27 L 458.04 38.12 L 456.73 44.40 L 455.00 38.72 L 454.24 31.70 L 454.30 24.83 L 452.39 19.03 L 445.84 18.78 L 438.96 17.33 L 432.08 17.55 L 424.92 17.00 L 417.42 17.00 L 409.92 17.00 L 403.17 15.71 L 398.72 11.67 L 393.03 11.30 L 386.85 9.17 L 385.86 5.17 L 378.46 5.00 L 370.95 5.00 L 363.46 4.97 L 356.36 4.00 L 348.86 4.00 L 341.56 3.52 L 334.27 3.00 L 326.77 3.00 L 319.26 3.00 L 312.03 3.65 L 304.67 4.00 L 297.17 4.00 L 289.66 4.00 L 282.16 4.00 L 274.66 4.00 L 267.16 4.00 L 259.65 4.00 L 252.15 4.00 L 244.65 4.00 L 237.14 4.00 L 229.64 4.00 L 222.14 4.00 L 214.64 4.00 L 207.13 4.00 L 199.63 4.00 L 192.13 4.00 L 184.62 4.00 L 177.24 3.71 L 170.04 3.01 L 165.73 6.61 L 161.05 9.36 L 158.51 3.67 L 153.81 5.53 L 147.00 5.35 L 141.62 3.08 Z M 328.15 244.06 L 328.41 243.64 L 328.80 243.30 L 329.26 243.09 L 329.77 243.02 L 330.30 243.02 L 330.81 243.11 L 331.25 243.34 L 331.62 243.69 L 331.88 244.13 L 331.98 244.63 L 331.99 245.16 L 331.92 245.67 L 331.73 246.14 L 331.41 246.54 L 331.00 246.82 L 330.52 246.93 L 330.04 246.85 L 329.61 246.58 L 329.22 246.22 L 328.83 245.83 L 328.47 245.44 L 328.19 245.01 L 328.07 244.54 Z M 299.00 242.00 L 299.45 241.58 L 299.92 241.25 L 300.45 241.11 L 300.98 241.20 L 301.45 241.51 L 301.79 241.97 L 302.00 242.50 L 302.21 243.03 L 302.52 243.52 L 302.80 244.01 L 302.89 244.55 L 302.75 245.08 L 302.42 245.55 L 302.00 246.00 L 301.55 246.42 L 301.08 246.75 L 300.55 246.89 L 300.01 246.80 L 299.53 246.50 L 299.09 246.08 L 298.66 245.64 L 298.31 245.17 L 298.09 244.64 L 298.02 244.06 L 298.07 243.47 L 298.25 242.92 L 298.58 242.45 Z M 301.15 236.06 L 301.43 235.63 L 301.83 235.29 L 302.31 235.09 L 302.85 235.01 L 303.40 235.00 L 303.97 235.00 L 304.53 235.00 L 305.10 235.00 L 305.66 235.00 L 306.22 235.00 L 306.79 235.00 L 307.34 235.02 L 307.86 235.13 L 308.32 235.37 L 308.76 235.68 L 309.23 235.91 L 309.72 236.08 L 310.19 236.30 L 310.59 236.65 L 310.85 237.09 L 310.92 237.58 L 310.77 238.07 L 310.46 238.48 L 310.04 238.79 L 309.58 238.98 L 309.20 239.20 L 309.03 239.60 L 308.99 240.12 L 308.92 240.66 L 308.73 241.14 L 308.40 241.55 L 307.97 241.83 L 307.47 241.92 L 306.98 241.80 L 306.54 241.51 L 306.14 241.13 L 305.73 240.74 L 305.32 240.38 L 304.86 240.13 L 304.34 240.02 L 303.79 240.00 L 303.22 240.00 L 302.67 239.98 L 302.15 239.88 L 301.70 239.62 L 301.34 239.24 L 301.11 238.77 L 301.02 238.25 L 301.00 237.69 L 301.00 237.13 L 301.03 236.57 Z M 324.13 221.05 L 324.37 220.67 L 324.70 220.34 L 325.09 220.12 L 325.54 220.02 L 326.01 220.00 L 326.49 220.02 L 326.94 220.12 L 327.32 220.36 L 327.65 220.69 L 327.88 221.08 L 327.96 221.51 L 327.87 221.95 L 327.63 222.33 L 327.30 222.66 L 326.91 222.88 L 326.46 222.98 L 325.99 223.00 L 325.51 222.98 L 325.06 222.88 L 324.68 222.64 L 324.35 222.31 L 324.12 221.92 L 324.04 221.49 Z M 394.15 219.06 L 394.43 218.62 L 394.84 218.28 L 395.33 218.08 L 395.87 218.02 L 396.42 218.03 L 396.94 218.15 L 397.38 218.43 L 397.72 218.84 L 397.92 219.33 L 397.98 219.87 L 397.97 220.42 L 397.85 220.94 L 397.57 221.38 L 397.16 221.72 L 396.67 221.92 L 396.13 221.98 L 395.58 221.97 L 395.06 221.85 L 394.62 221.57 L 394.28 221.16 L 394.08 220.67 L 394.02 220.13 L 394.03 219.58 Z M 450.94 183.85 L 451.40 183.59 L 451.84 183.28 L 452.33 183.08 L 452.87 183.02 L 453.42 183.03 L 453.94 183.15 L 454.38 183.43 L 454.71 183.84 L 454.90 184.32 L 454.87 184.82 L 454.64 185.28 L 454.29 185.70 L 453.89 186.11 L 453.48 186.49 L 453.04 186.79 L 452.53 186.95 L 451.98 186.99 L 451.41 187.00 L 450.85 187.00 L 450.28 187.00 L 449.71 187.00 L 449.14 187.00 L 448.58 186.97 L 448.06 186.85 L 447.62 186.57 L 447.29 186.16 L 447.10 185.68 L 447.13 185.18 L 447.36 184.73 L 447.74 184.35 L 448.20 184.11 L 448.73 184.02 L 449.29 184.00 L 449.86 184.00 L 450.42 183.97 Z M 466.14 179.05 L 466.47 178.60 L 466.92 178.25 L 467.44 178.10 L 467.98 178.19 L 468.46 178.49 L 468.90 178.90 L 469.32 179.34 L 469.68 179.81 L 469.90 180.33 L 469.98 180.91 L 469.94 181.50 L 469.77 182.04 L 469.45 182.52 L 469.03 182.97 L 468.60 183.40 L 468.16 183.84 L 467.72 184.26 L 467.26 184.64 L 466.76 184.86 L 466.23 184.86 L 465.72 184.63 L 465.26 184.25 L 464.83 183.82 L 464.39 183.39 L 463.96 182.95 L 463.54 182.51 L 463.22 182.03 L 463.10 181.51 L 463.22 180.98 L 463.55 180.52 L 464.01 180.20 L 464.56 180.04 L 465.13 179.98 L 465.62 179.85 L 465.92 179.52 Z M 26.14 174.06 L 26.42 173.63 L 26.81 173.30 L 27.26 173.11 L 27.74 173.11 L 28.20 173.30 L 28.59 173.64 L 28.86 174.06 L 28.98 174.56 L 29.00 175.10 L 29.00 175.65 L 29.00 176.20 L 29.00 176.75 L 29.00 177.29 L 29.00 177.84 L 29.02 178.38 L 29.13 178.88 L 29.37 179.33 L 29.67 179.75 L 29.88 180.20 L 29.90 180.69 L 29.73 181.15 L 29.44 181.58 L 29.17 182.01 L 29.04 182.51 L 29.00 183.04 L 28.95 183.56 L 28.79 184.05 L 28.49 184.46 L 28.09 184.77 L 27.62 184.92 L 27.14 184.87 L 26.70 184.63 L 26.35 184.26 L 26.11 183.81 L 26.02 183.30 L 26.00 182.76 L 26.00 182.22 L 26.00 181.67 L 26.00 181.12 L 26.00 180.57 L 26.00 180.03 L 26.00 179.48 L 26.00 178.93 L 26.00 178.38 L 26.00 177.83 L 26.00 177.29 L 26.00 176.74 L 26.00 176.19 L 26.00 175.64 L 26.00 175.10 L 26.02 174.56 Z M 461.13 169.05 L 461.37 168.67 L 461.70 168.34 L 462.09 168.12 L 462.53 168.04 L 462.96 168.13 L 463.34 168.38 L 463.66 168.71 L 463.89 169.10 L 463.98 169.55 L 464.00 170.03 L 463.98 170.51 L 463.87 170.95 L 463.63 171.33 L 463.30 171.66 L 462.91 171.88 L 462.47 171.96 L 462.04 171.87 L 461.66 171.62 L 461.34 171.29 L 461.11 170.90 L 461.02 170.45 L 461.00 169.97 L 461.02 169.49 Z M 473.14 158.06 L 473.43 157.62 L 473.84 157.28 L 474.33 157.08 L 474.87 157.02 L 475.42 157.03 L 475.94 157.15 L 476.38 157.43 L 476.72 157.84 L 476.92 158.33 L 476.99 158.87 L 477.00 159.43 L 477.00 160.00 L 477.00 160.57 L 477.01 161.13 L 477.08 161.67 L 477.28 162.16 L 477.59 162.60 L 477.85 163.06 L 477.92 163.56 L 477.78 164.05 L 477.47 164.47 L 477.05 164.79 L 476.56 164.97 L 476.06 165.14 L 475.60 165.41 L 475.16 165.72 L 474.67 165.92 L 474.13 165.99 L 473.57 166.00 L 473.00 165.99 L 472.45 165.95 L 471.95 165.78 L 471.53 165.47 L 471.22 165.05 L 471.08 164.56 L 471.15 164.06 L 471.41 163.60 L 471.72 163.16 L 471.92 162.67 L 471.99 162.13 L 472.00 161.57 L 472.01 161.00 L 472.05 160.45 L 472.21 159.95 L 472.50 159.50 L 472.79 159.05 L 472.97 158.56 Z M 475.15 149.06 L 475.43 148.62 L 475.84 148.29 L 476.32 148.10 L 476.82 148.13 L 477.27 148.36 L 477.65 148.74 L 477.89 149.20 L 477.98 149.73 L 478.00 150.29 L 478.00 150.86 L 477.97 151.42 L 477.85 151.94 L 477.57 152.38 L 477.16 152.71 L 476.68 152.90 L 476.18 152.87 L 475.73 152.64 L 475.35 152.26 L 475.11 151.80 L 475.02 151.27 L 475.00 150.71 L 475.00 150.14 L 475.03 149.58 Z M 173.94 4.85 L 174.40 4.59 L 174.84 4.28 L 175.32 4.10 L 175.82 4.13 L 176.27 4.36 L 176.65 4.74 L 176.90 5.20 L 177.07 5.70 L 177.29 6.17 L 177.59 6.62 L 177.86 7.08 L 177.98 7.60 L 178.00 8.16 L 178.00 8.72 L 177.98 9.28 L 177.88 9.81 L 177.64 10.27 L 177.26 10.65 L 176.80 10.89 L 176.27 10.98 L 175.73 11.03 L 175.30 11.16 L 175.05 11.50 L 174.86 11.95 L 174.57 12.38 L 174.16 12.72 L 173.67 12.92 L 173.13 12.99 L 172.57 13.00 L 172.00 13.00 L 171.43 13.00 L 170.86 13.00 L 170.29 13.00 L 169.73 12.98 L 169.20 12.89 L 168.73 12.65 L 168.31 12.30 L 167.90 11.90 L 167.52 11.49 L 167.21 11.05 L 167.05 10.55 L 167.01 10.00 L 167.00 9.43 L 167.01 8.87 L 167.08 8.33 L 167.28 7.84 L 167.61 7.41 L 168.00 7.00 L 168.41 6.61 L 168.84 6.28 L 169.33 6.08 L 169.87 6.01 L 170.42 5.98 L 170.94 5.85 L 171.40 5.59 L 171.84 5.28 L 172.33 5.08 L 172.87 5.01 L 173.42 4.98 Z M 95.20 3.20 L 95.03 3.58 L 94.99 4.09 L 94.94 4.61 L 94.77 5.09 L 94.46 5.49 L 94.05 5.79 L 93.57 5.95 L 93.04 5.99 L 92.50 6.00 L 91.95 6.00 L 91.41 6.00 L 90.86 6.00 L 90.32 6.00 L 89.77 6.00 L 89.22 6.00 L 88.68 6.00 L 88.13 6.00 L 87.59 6.00 L 87.04 6.00 L 86.51 5.96 L 86.02 5.83 L 85.58 5.57 L 85.16 5.27 L 84.69 5.08 L 84.17 5.01 L 83.63 5.00 L 83.09 5.00 L 82.55 4.97 L 82.05 4.86 L 81.61 4.60 L 81.19 4.29 L 80.73 4.09 L 80.22 4.01 L 79.68 4.00 L 79.13 4.00 L 78.59 4.00 L 78.05 4.01 L 77.54 4.05 L 77.19 4.22 L 77.11 4.55 L 77.30 4.86 L 77.69 5.05 L 78.13 5.25 L 78.56 5.55 L 78.99 5.82 L 79.47 5.98 L 79.95 6.14 L 80.37 6.42 L 80.70 6.81 L 80.92 7.26 L 81.08 7.74 L 81.30 8.20 L 81.62 8.61 L 82.00 9.00 L 82.39 9.38 L 82.80 9.70 L 83.26 9.91 L 83.78 9.98 L 84.31 9.98 L 84.82 9.89 L 85.27 9.66 L 85.69 9.36 L 86.14 9.12 L 86.64 9.02 L 87.18 9.00 L 87.72 9.00 L 88.26 8.98 L 88.77 8.90 L 89.23 8.68 L 89.65 8.38 L 90.09 8.13 L 90.59 8.02 L 91.13 7.99 L 91.65 7.93 L 92.12 7.75 L 92.55 7.46 L 92.98 7.19 L 93.47 7.05 L 94.00 7.01 L 94.54 7.00 L 95.09 7.00 L 95.63 7.00 L 96.17 6.99 L 96.69 6.92 L 97.16 6.73 L 97.58 6.43 L 98.02 6.17 L 98.51 6.04 L 99.04 6.00 L 99.58 6.00 L 100.12 5.98 L 100.58 5.90 L 100.87 5.64 L 100.98 5.21 L 100.97 4.71 L 100.84 4.30 L 100.52 4.08 L 100.04 4.01 L 99.50 4.00 L 98.95 4.00 L 98.41 4.00 L 97.87 3.99 L 97.35 3.93 L 96.87 3.75 L 96.45 3.46 L 96.02 3.19 L 95.56 3.08 Z" fill="rgb(22,21,19)" fill-rule="evenodd"/>
  <path d="M 438.06 202.15 L 437.62 202.43 L 437.29 202.84 L 437.11 203.30 L 437.18 203.70 L 437.50 203.92 L 438.00 204.00 L 438.54 204.05 L 439.04 204.21 L 439.46 204.52 L 439.78 204.94 L 439.92 205.43 L 439.85 205.93 L 439.58 206.37 L 439.17 206.71 L 438.70 206.93 L 438.20 207.10 L 437.73 207.34 L 437.29 207.64 L 436.83 207.87 L 436.33 207.90 L 435.85 207.72 L 435.44 207.39 L 435.15 206.95 L 434.98 206.46 L 434.80 205.96 L 434.51 205.51 L 434.22 205.07 L 434.03 204.58 L 433.87 204.08 L 433.58 203.64 L 433.18 203.30 L 432.72 203.12 L 432.32 203.17 L 432.11 203.48 L 432.15 203.93 L 432.40 204.37 L 432.70 204.81 L 432.91 205.30 L 432.99 205.83 L 433.00 206.39 L 432.99 206.96 L 432.95 207.51 L 432.81 208.02 L 432.50 208.44 L 432.08 208.76 L 431.60 208.91 L 431.10 208.85 L 430.66 208.59 L 430.31 208.19 L 430.09 207.72 L 430.01 207.19 L 429.97 206.65 L 429.82 206.25 L 429.49 206.11 L 429.18 206.27 L 429.03 206.68 L 429.03 207.20 L 429.14 207.64 L 429.44 207.92 L 429.88 208.11 L 430.32 208.39 L 430.67 208.78 L 430.88 209.24 L 430.88 209.74 L 430.68 210.21 L 430.34 210.64 L 429.95 211.05 L 429.57 211.45 L 429.25 211.89 L 429.07 212.38 L 429.02 212.92 L 429.05 213.44 L 429.25 213.81 L 429.66 213.97 L 430.20 214.00 L 430.76 214.00 L 431.32 214.02 L 431.84 214.12 L 432.30 214.38 L 432.66 214.76 L 432.88 215.22 L 432.89 215.72 L 432.70 216.20 L 432.39 216.64 L 432.13 217.09 L 431.96 217.59 L 431.77 218.08 L 431.46 218.52 L 431.07 218.93 L 430.67 219.32 L 430.24 219.66 L 429.77 219.88 L 429.28 219.89 L 428.81 219.69 L 428.41 219.34 L 428.13 218.90 L 427.96 218.40 L 427.77 217.92 L 427.45 217.50 L 427.02 217.20 L 426.56 217.09 L 426.19 217.24 L 426.04 217.64 L 426.02 218.15 L 426.13 218.61 L 426.42 218.89 L 426.89 218.98 L 427.43 219.03 L 427.95 219.15 L 428.38 219.44 L 428.72 219.85 L 428.92 220.33 L 428.99 220.87 L 429.04 221.40 L 429.21 221.79 L 429.61 221.96 L 430.14 222.00 L 430.70 222.00 L 431.27 222.02 L 431.79 222.11 L 432.27 222.34 L 432.71 222.65 L 433.18 222.88 L 433.71 222.98 L 434.27 223.00 L 434.83 223.00 L 435.40 223.00 L 435.97 222.99 L 436.52 222.95 L 437.02 222.80 L 437.47 222.52 L 437.92 222.23 L 438.38 222.03 L 438.77 221.81 L 438.95 221.42 L 439.00 220.90 L 439.00 220.34 L 439.02 219.78 L 439.10 219.24 L 439.32 218.77 L 439.63 218.33 L 439.86 217.88 L 439.88 217.44 L 439.64 217.14 L 439.19 217.02 L 438.64 217.00 L 438.08 217.00 L 437.52 216.96 L 437.01 216.82 L 436.58 216.53 L 436.25 216.11 L 436.07 215.62 L 436.01 215.08 L 436.04 214.53 L 436.17 214.02 L 436.46 213.57 L 436.84 213.16 L 437.24 212.76 L 437.66 212.40 L 438.11 212.14 L 438.61 212.09 L 439.10 212.24 L 439.54 212.54 L 439.99 212.81 L 440.45 212.91 L 440.80 212.75 L 440.90 212.37 L 440.76 211.91 L 440.47 211.46 L 440.19 211.01 L 440.08 210.52 L 440.18 210.02 L 440.46 209.57 L 440.84 209.16 L 441.24 208.77 L 441.65 208.40 L 442.11 208.14 L 442.61 208.09 L 443.09 208.24 L 443.54 208.53 L 443.99 208.81 L 444.50 208.96 L 445.04 208.98 L 445.52 208.91 L 445.83 208.69 L 445.84 208.35 L 445.58 208.09 L 445.15 207.89 L 444.71 207.63 L 444.34 207.24 L 444.09 206.80 L 443.89 206.38 L 443.58 206.11 L 443.10 206.02 L 442.56 205.97 L 442.05 205.85 L 441.61 205.56 L 441.28 205.15 L 441.06 204.67 L 440.89 204.17 L 440.65 203.71 L 440.34 203.27 L 440.09 202.81 L 439.89 202.39 L 439.59 202.12 L 439.12 202.02 L 438.58 202.03 Z M 445.05 190.16 L 444.59 190.42 L 444.14 190.73 L 443.64 190.92 L 443.09 190.99 L 442.56 191.06 L 442.19 191.27 L 442.03 191.69 L 441.98 192.24 L 441.89 192.78 L 441.65 193.25 L 441.27 193.63 L 440.80 193.88 L 440.26 193.98 L 439.69 193.98 L 439.15 193.87 L 438.67 193.62 L 438.22 193.32 L 437.75 193.13 L 437.33 193.17 L 437.07 193.48 L 436.87 193.93 L 436.59 194.39 L 436.28 194.84 L 436.11 195.31 L 436.19 195.72 L 436.53 195.97 L 436.99 196.17 L 437.44 196.47 L 437.86 196.86 L 438.28 197.26 L 438.71 197.63 L 439.18 197.88 L 439.72 197.98 L 440.29 198.02 L 440.83 198.12 L 441.31 198.38 L 441.74 198.75 L 442.15 199.15 L 442.57 199.54 L 443.03 199.82 L 443.54 199.91 L 444.04 199.78 L 444.49 199.48 L 444.91 199.09 L 445.32 198.68 L 445.73 198.27 L 446.15 197.85 L 446.56 197.44 L 446.97 197.03 L 447.37 196.61 L 447.70 196.17 L 447.88 195.71 L 447.81 195.30 L 447.49 195.11 L 447.02 195.18 L 446.57 195.44 L 446.11 195.75 L 445.64 195.96 L 445.24 196.18 L 445.00 196.56 L 444.80 197.03 L 444.48 197.46 L 444.05 197.78 L 443.55 197.91 L 443.04 197.83 L 442.60 197.54 L 442.26 197.12 L 442.07 196.61 L 442.02 196.06 L 442.05 195.50 L 442.20 194.98 L 442.48 194.52 L 442.78 194.06 L 442.94 193.54 L 443.00 192.99 L 443.06 192.43 L 443.24 191.92 L 443.57 191.49 L 444.01 191.19 L 444.52 191.04 L 445.07 190.99 L 445.56 190.89 L 445.84 190.64 L 445.82 190.31 L 445.51 190.11 Z M 452.05 189.15 L 451.63 189.43 L 451.29 189.83 L 451.09 190.30 L 451.01 190.83 L 450.98 191.37 L 450.87 191.89 L 450.62 192.34 L 450.32 192.77 L 450.12 193.22 L 450.15 193.64 L 450.43 193.89 L 450.90 193.98 L 451.44 194.00 L 452.00 193.99 L 452.54 193.95 L 453.03 193.80 L 453.45 193.49 L 453.77 193.08 L 453.94 192.59 L 453.99 192.06 L 453.96 191.52 L 453.83 191.01 L 453.56 190.57 L 453.26 190.13 L 453.05 189.67 L 452.84 189.28 L 452.50 189.10 Z M 432.19 189.21 L 432.03 189.58 L 431.99 190.10 L 431.93 190.62 L 431.76 191.10 L 431.48 191.53 L 431.20 191.96 L 431.05 192.45 L 431.01 192.98 L 431.00 193.53 L 431.00 194.08 L 431.00 194.63 L 431.00 195.18 L 431.00 195.73 L 431.02 196.25 L 431.15 196.68 L 431.45 196.93 L 431.89 197.11 L 432.32 197.37 L 432.74 197.67 L 433.18 197.87 L 433.60 197.87 L 433.86 197.63 L 433.88 197.22 L 433.68 196.77 L 433.35 196.36 L 432.97 195.97 L 432.60 195.58 L 432.28 195.16 L 432.10 194.70 L 432.12 194.21 L 432.32 193.76 L 432.62 193.34 L 432.87 192.89 L 432.98 192.39 L 433.00 191.84 L 433.00 191.30 L 433.00 190.75 L 433.00 190.20 L 432.97 189.68 L 432.83 189.27 L 432.52 189.10 Z M 9.19 94.21 L 9.03 94.58 L 9.00 95.09 L 9.00 95.64 L 9.00 96.18 L 9.00 96.73 L 9.02 97.25 L 9.14 97.68 L 9.45 97.93 L 9.88 98.11 L 10.30 98.37 L 10.66 98.74 L 10.90 99.17 L 11.08 99.59 L 11.36 99.87 L 11.80 99.98 L 12.32 100.00 L 12.87 100.00 L 13.38 99.97 L 13.77 99.81 L 13.92 99.46 L 13.83 99.01 L 13.55 98.60 L 13.16 98.27 L 12.70 98.06 L 12.22 97.91 L 11.77 97.68 L 11.39 97.33 L 11.12 96.90 L 10.97 96.42 L 10.79 95.95 L 10.51 95.52 L 10.23 95.09 L 10.03 94.64 L 9.84 94.26 L 9.52 94.10 Z" fill="rgb(99,12,11)" fill-rule="evenodd"/>
  <path d="M 372.21 237.21 L 372.09 237.58 L 372.22 238.05 L 372.52 238.49 L 372.90 238.90 L 373.30 239.31 L 373.65 239.73 L 373.89 240.20 L 373.98 240.73 L 374.03 241.27 L 374.16 241.70 L 374.50 241.95 L 374.95 242.13 L 375.40 242.41 L 375.84 242.72 L 376.30 242.89 L 376.70 242.82 L 376.95 242.50 L 377.13 242.05 L 377.41 241.60 L 377.72 241.16 L 377.92 240.67 L 377.98 240.13 L 377.97 239.58 L 377.85 239.06 L 377.57 238.62 L 377.16 238.28 L 376.67 238.08 L 376.13 238.01 L 375.57 238.00 L 375.00 237.99 L 374.45 237.95 L 373.95 237.79 L 373.50 237.50 L 373.05 237.22 L 372.58 237.09 Z M 438.05 223.14 L 437.63 223.39 L 437.22 223.69 L 436.77 223.90 L 436.27 223.99 L 435.76 224.02 L 435.34 224.13 L 435.10 224.42 L 435.02 224.87 L 435.03 225.37 L 435.17 225.76 L 435.52 225.95 L 436.00 225.99 L 436.52 225.96 L 437.00 225.83 L 437.42 225.56 L 437.84 225.27 L 438.27 225.06 L 438.67 224.88 L 438.90 224.58 L 438.98 224.13 L 438.97 223.63 L 438.83 223.24 L 438.49 223.08 Z M 450.01 196.34 L 449.17 196.66 L 448.29 197.12 L 447.43 197.68 L 446.63 198.38 L 445.86 199.14 L 445.08 199.88 L 444.26 200.46 L 443.39 200.65 L 442.53 200.35 L 441.70 199.76 L 440.83 199.25 L 439.87 198.95 L 438.92 198.61 L 438.06 198.05 L 437.22 197.51 L 436.35 197.35 L 435.49 197.67 L 434.67 198.25 L 433.82 198.66 L 432.92 198.62 L 432.02 198.34 L 431.12 198.34 L 430.30 198.82 L 429.62 199.57 L 429.19 200.48 L 429.00 201.49 L 428.81 202.48 L 428.35 203.27 L 427.62 203.64 L 426.82 203.45 L 426.18 202.80 L 425.66 201.99 L 425.02 201.43 L 424.39 201.46 L 424.00 202.10 L 423.67 202.99 L 423.09 203.81 L 422.30 204.46 L 421.42 204.89 L 420.63 205.26 L 420.21 205.89 L 420.24 206.76 L 420.56 207.68 L 420.90 208.59 L 421.22 209.33 L 421.61 209.51 L 421.93 209.01 L 422.26 208.19 L 422.85 207.53 L 423.65 207.36 L 424.37 207.75 L 424.78 208.54 L 424.80 209.49 L 424.50 210.43 L 424.06 211.33 L 423.53 212.15 L 422.79 212.72 L 421.82 212.96 L 420.78 213.03 L 419.86 213.20 L 419.24 213.68 L 418.86 214.47 L 418.38 215.26 L 417.64 215.80 L 416.86 216.13 L 416.48 216.51 L 416.74 216.99 L 417.42 217.56 L 418.15 218.25 L 418.65 219.07 L 418.67 219.97 L 418.32 220.87 L 417.86 221.77 L 417.28 222.61 L 416.58 223.41 L 415.86 224.20 L 415.30 225.06 L 414.99 226.01 L 414.66 226.93 L 414.01 227.59 L 413.11 227.86 L 412.18 227.70 L 411.48 227.12 L 411.07 226.28 L 410.68 225.52 L 409.98 225.13 L 409.00 225.01 L 407.96 224.92 L 406.99 224.64 L 406.13 224.08 L 405.34 223.36 L 404.54 222.70 L 403.69 222.35 L 402.82 222.49 L 401.99 223.06 L 401.21 223.79 L 400.44 224.56 L 399.67 225.33 L 398.90 226.10 L 398.13 226.87 L 397.36 227.63 L 396.58 228.33 L 395.83 228.94 L 395.28 229.59 L 395.05 230.47 L 394.97 231.50 L 394.80 232.52 L 394.38 233.43 L 393.72 234.25 L 392.97 235.03 L 392.20 235.79 L 391.43 236.55 L 390.63 237.26 L 389.77 237.78 L 388.91 238.12 L 388.30 238.62 L 388.05 239.46 L 387.97 240.49 L 387.81 241.51 L 387.39 242.42 L 386.71 243.19 L 385.89 243.80 L 385.01 244.29 L 384.20 244.89 L 383.59 245.64 L 383.42 246.35 L 383.86 246.81 L 384.75 246.97 L 385.81 247.00 L 386.89 246.99 L 387.90 246.91 L 388.71 246.59 L 389.30 245.93 L 389.93 245.16 L 390.73 244.52 L 391.66 244.15 L 392.69 244.03 L 393.76 244.04 L 394.77 244.22 L 395.71 244.57 L 396.68 244.86 L 397.72 244.98 L 398.80 244.99 L 399.87 244.95 L 400.87 244.76 L 401.80 244.36 L 402.70 243.92 L 403.61 243.49 L 404.56 243.16 L 405.55 242.98 L 406.38 242.71 L 406.88 242.09 L 407.23 241.26 L 407.80 240.52 L 408.61 239.98 L 409.50 239.53 L 410.44 239.18 L 411.43 238.99 L 412.32 238.76 L 413.00 238.24 L 413.61 237.51 L 414.32 236.78 L 415.15 236.19 L 416.04 235.72 L 416.91 235.26 L 417.63 234.73 L 418.21 234.06 L 418.90 233.44 L 419.80 233.07 L 420.73 232.75 L 421.46 232.18 L 421.88 231.32 L 422.17 230.36 L 422.52 229.42 L 422.84 228.46 L 422.97 227.43 L 423.04 226.37 L 423.23 225.38 L 423.71 224.58 L 424.37 223.95 L 424.99 223.32 L 425.62 222.69 L 426.38 222.36 L 427.17 222.56 L 427.72 223.24 L 427.84 224.17 L 427.57 225.07 L 426.98 225.75 L 426.46 226.26 L 426.55 226.70 L 427.28 226.92 L 428.26 226.87 L 429.22 226.58 L 430.13 226.15 L 430.99 225.67 L 431.62 224.98 L 431.84 224.11 L 431.59 223.39 L 430.84 223.05 L 429.86 222.90 L 428.95 222.57 L 428.33 221.89 L 428.14 220.97 L 428.36 220.05 L 428.98 219.35 L 429.79 218.83 L 430.51 218.19 L 431.04 217.37 L 431.45 216.50 L 431.61 215.74 L 431.23 215.23 L 430.39 215.00 L 429.43 214.78 L 428.66 214.29 L 428.22 213.48 L 428.21 212.54 L 428.58 211.63 L 429.18 210.79 L 429.76 209.95 L 430.25 209.09 L 430.88 208.38 L 431.51 207.78 L 431.81 207.06 L 431.62 206.33 L 431.03 205.74 L 430.46 205.07 L 430.35 204.22 L 430.75 203.39 L 431.47 202.71 L 432.31 202.34 L 433.20 202.44 L 434.12 202.75 L 435.10 202.86 L 436.05 202.62 L 436.91 202.08 L 437.76 201.50 L 438.70 201.14 L 439.74 201.03 L 440.80 201.05 L 441.77 201.27 L 442.53 201.80 L 443.14 202.47 L 443.79 203.07 L 444.46 203.70 L 445.06 204.38 L 445.69 205.00 L 446.34 205.64 L 446.79 206.47 L 446.94 207.45 L 446.81 208.45 L 446.36 209.27 L 445.60 209.75 L 444.65 209.82 L 443.72 209.58 L 442.92 209.35 L 442.42 209.56 L 442.45 210.22 L 442.75 211.10 L 442.87 212.07 L 442.61 212.98 L 441.96 213.62 L 441.05 213.87 L 440.08 213.74 L 439.20 213.43 L 438.54 213.42 L 438.39 213.89 L 438.84 214.52 L 439.61 215.06 L 440.37 215.64 L 441.01 216.28 L 441.70 216.76 L 442.57 216.91 L 443.41 216.72 L 444.07 216.20 L 444.74 215.58 L 445.58 215.21 L 446.51 215.23 L 447.31 215.68 L 447.79 216.47 L 447.94 217.45 L 447.81 218.45 L 447.39 219.30 L 446.80 219.93 L 446.46 220.45 L 446.71 220.95 L 447.42 221.42 L 448.33 221.79 L 449.34 221.96 L 450.38 221.96 L 451.29 221.77 L 451.96 221.26 L 452.46 220.49 L 452.81 219.57 L 452.96 218.55 L 452.96 217.48 L 452.80 216.47 L 452.38 215.55 L 451.77 214.72 L 451.27 213.84 L 451.03 212.85 L 450.89 211.82 L 450.61 210.85 L 450.19 209.93 L 449.77 209.02 L 449.32 208.12 L 448.88 207.21 L 448.42 206.31 L 447.97 205.41 L 447.53 204.51 L 447.21 203.57 L 447.18 202.60 L 447.47 201.65 L 447.91 200.75 L 448.41 199.90 L 449.10 199.24 L 449.92 198.73 L 450.57 198.06 L 450.83 197.20 L 450.64 196.50 Z M 425.14 217.06 L 425.41 216.64 L 425.80 216.30 L 426.25 216.11 L 426.73 216.11 L 427.19 216.29 L 427.60 216.62 L 427.99 216.99 L 428.36 217.38 L 428.69 217.79 L 428.89 218.24 L 428.90 218.72 L 428.71 219.17 L 428.39 219.56 L 427.97 219.84 L 427.47 219.97 L 426.94 219.99 L 426.42 219.94 L 425.94 219.79 L 425.54 219.49 L 425.23 219.08 L 425.06 218.61 L 425.01 218.09 L 425.02 217.55 Z M 427.15 206.06 L 427.43 205.62 L 427.84 205.28 L 428.33 205.08 L 428.87 205.02 L 429.42 205.03 L 429.94 205.15 L 430.38 205.43 L 430.72 205.84 L 430.92 206.33 L 430.98 206.87 L 430.97 207.42 L 430.85 207.94 L 430.57 208.38 L 430.16 208.72 L 429.67 208.92 L 429.13 208.98 L 428.58 208.97 L 428.06 208.85 L 427.62 208.57 L 427.28 208.16 L 427.08 207.67 L 427.02 207.13 L 427.03 206.58 Z M 14.20 102.21 L 14.03 102.58 L 13.99 103.09 L 13.93 103.62 L 13.77 104.09 L 13.48 104.52 L 13.20 104.96 L 13.05 105.44 L 13.01 105.96 L 13.05 106.46 L 13.24 106.82 L 13.64 106.97 L 14.16 106.99 L 14.67 106.92 L 15.14 106.73 L 15.54 106.41 L 15.83 105.99 L 15.96 105.50 L 16.00 104.97 L 16.00 104.42 L 15.99 103.88 L 15.93 103.35 L 15.75 102.88 L 15.43 102.48 L 15.02 102.19 L 14.56 102.08 Z M 32.05 60.16 L 31.60 60.43 L 31.19 60.82 L 30.78 61.22 L 30.37 61.63 L 29.97 62.03 L 29.55 62.42 L 29.11 62.75 L 28.62 62.95 L 28.12 63.12 L 27.65 63.39 L 27.20 63.70 L 26.72 63.92 L 26.22 64.09 L 25.75 64.35 L 25.37 64.72 L 25.12 65.18 L 25.02 65.72 L 25.02 66.28 L 25.12 66.81 L 25.35 67.29 L 25.66 67.74 L 25.91 68.20 L 26.11 68.62 L 26.42 68.91 L 26.86 69.11 L 27.32 69.37 L 27.77 69.68 L 28.25 69.90 L 28.79 69.98 L 29.35 70.02 L 29.88 70.13 L 30.33 70.41 L 30.69 70.80 L 30.92 71.28 L 31.09 71.78 L 31.34 72.26 L 31.64 72.71 L 31.88 73.18 L 31.98 73.72 L 32.00 74.29 L 32.00 74.86 L 32.00 75.44 L 32.00 76.01 L 32.00 76.59 L 31.99 77.15 L 31.91 77.70 L 31.70 78.18 L 31.35 78.59 L 30.91 78.88 L 30.46 79.07 L 30.15 79.35 L 30.02 79.80 L 29.98 80.34 L 29.87 80.87 L 29.60 81.32 L 29.20 81.68 L 28.75 81.93 L 28.34 82.14 L 28.12 82.47 L 28.15 82.92 L 28.40 83.37 L 28.71 83.82 L 28.91 84.31 L 28.99 84.85 L 29.03 85.39 L 29.20 85.78 L 29.53 85.88 L 29.82 85.69 L 29.88 85.28 L 29.70 84.82 L 29.40 84.37 L 29.14 83.90 L 29.03 83.38 L 29.02 82.82 L 29.10 82.28 L 29.32 81.80 L 29.67 81.40 L 30.11 81.12 L 30.56 80.92 L 30.88 80.64 L 31.08 80.22 L 31.34 79.77 L 31.70 79.38 L 32.16 79.11 L 32.66 78.94 L 33.15 78.73 L 33.60 78.42 L 34.06 78.15 L 34.59 78.03 L 35.15 78.00 L 35.73 78.00 L 36.30 78.00 L 36.88 78.00 L 37.44 78.03 L 37.96 78.16 L 38.42 78.43 L 38.87 78.74 L 39.36 78.90 L 39.87 78.86 L 40.33 78.61 L 40.75 78.24 L 41.16 77.84 L 41.58 77.46 L 42.03 77.17 L 42.55 77.03 L 43.10 76.99 L 43.57 76.89 L 43.89 76.61 L 44.09 76.19 L 44.35 75.74 L 44.73 75.36 L 45.18 75.10 L 45.61 74.89 L 45.90 74.59 L 46.10 74.15 L 46.36 73.70 L 46.67 73.25 L 46.89 72.77 L 46.98 72.23 L 46.98 71.67 L 46.87 71.14 L 46.61 70.67 L 46.24 70.25 L 45.84 69.84 L 45.42 69.46 L 44.97 69.17 L 44.47 69.08 L 43.97 69.21 L 43.51 69.49 L 43.06 69.78 L 42.55 69.94 L 42.00 69.99 L 41.42 70.00 L 40.86 69.99 L 40.31 69.91 L 39.82 69.71 L 39.37 69.40 L 38.91 69.13 L 38.40 68.96 L 37.91 68.76 L 37.49 68.43 L 37.19 68.00 L 37.08 67.50 L 37.19 67.00 L 37.47 66.54 L 37.76 66.09 L 37.93 65.59 L 37.98 65.04 L 37.95 64.48 L 37.80 63.97 L 37.51 63.51 L 37.22 63.06 L 37.08 62.56 L 37.16 62.06 L 37.44 61.62 L 37.85 61.28 L 38.32 61.05 L 38.71 60.84 L 38.88 60.52 L 38.76 60.20 L 38.38 60.10 L 37.91 60.24 L 37.46 60.54 L 37.00 60.82 L 36.50 61.00 L 36.00 61.18 L 35.54 61.46 L 35.09 61.76 L 34.60 61.91 L 34.09 61.85 L 33.65 61.58 L 33.30 61.18 L 33.06 60.72 L 32.85 60.31 L 32.51 60.11 Z M 36.06 50.14 L 35.62 50.42 L 35.21 50.79 L 34.82 51.18 L 34.41 51.55 L 33.97 51.84 L 33.47 51.97 L 32.92 52.00 L 32.37 52.00 L 31.81 52.00 L 31.25 52.00 L 30.70 52.00 L 30.14 52.00 L 29.58 52.00 L 29.03 52.01 L 28.48 52.04 L 27.99 52.19 L 27.57 52.49 L 27.25 52.90 L 27.07 53.38 L 27.01 53.91 L 26.97 54.45 L 26.85 54.96 L 26.58 55.41 L 26.28 55.84 L 26.08 56.32 L 26.01 56.84 L 26.00 57.40 L 26.01 57.95 L 26.06 58.45 L 26.25 58.81 L 26.63 58.90 L 27.09 58.76 L 27.50 58.45 L 27.80 58.03 L 27.95 57.54 L 28.00 57.00 L 28.05 56.46 L 28.20 55.97 L 28.50 55.55 L 28.91 55.24 L 29.40 55.06 L 29.93 55.01 L 30.47 54.97 L 30.98 54.83 L 31.42 54.56 L 31.86 54.27 L 32.34 54.08 L 32.87 54.01 L 33.41 54.02 L 33.92 54.14 L 34.35 54.41 L 34.70 54.80 L 34.93 55.25 L 35.12 55.66 L 35.42 55.87 L 35.75 55.81 L 35.94 55.47 L 35.99 54.97 L 36.00 54.42 L 36.01 53.87 L 36.08 53.34 L 36.27 52.86 L 36.59 52.43 L 36.97 52.03 L 37.35 51.63 L 37.68 51.22 L 37.88 50.77 L 37.85 50.36 L 37.57 50.10 L 37.10 50.02 L 36.57 50.03 Z M 44.05 39.14 L 43.64 39.41 L 43.31 39.78 L 43.10 40.23 L 43.02 40.73 L 43.02 41.25 L 43.09 41.75 L 43.30 42.20 L 43.60 42.61 L 43.86 43.04 L 44.02 43.48 L 44.22 43.81 L 44.55 43.90 L 44.84 43.72 L 44.97 43.32 L 45.00 42.81 L 45.00 42.28 L 45.00 41.74 L 45.00 41.21 L 45.00 40.67 L 45.00 40.14 L 44.97 39.63 L 44.83 39.24 L 44.49 39.08 Z M 62.05 34.15 L 61.61 34.41 L 61.18 34.71 L 60.70 34.91 L 60.17 34.99 L 59.65 35.03 L 59.24 35.19 L 59.05 35.55 L 59.00 36.06 L 58.94 36.59 L 58.77 37.08 L 58.45 37.49 L 58.03 37.80 L 57.55 37.97 L 57.06 38.14 L 56.61 38.41 L 56.18 38.71 L 55.70 38.91 L 55.17 38.99 L 54.62 39.00 L 54.06 39.00 L 53.50 39.00 L 52.94 39.00 L 52.38 39.00 L 51.83 38.99 L 51.30 38.91 L 50.82 38.71 L 50.39 38.41 L 49.94 38.14 L 49.43 38.03 L 48.90 38.02 L 48.43 38.11 L 48.15 38.36 L 48.12 38.78 L 48.32 39.23 L 48.62 39.66 L 48.87 40.11 L 48.98 40.63 L 49.00 41.18 L 49.00 41.74 L 48.98 42.29 L 48.89 42.81 L 48.66 43.27 L 48.35 43.71 L 48.12 44.17 L 48.02 44.69 L 48.00 45.24 L 48.00 45.80 L 48.00 46.36 L 48.00 46.91 L 48.00 47.47 L 47.99 48.03 L 47.94 48.57 L 47.78 49.06 L 47.50 49.50 L 47.21 49.94 L 47.06 50.44 L 47.01 50.97 L 47.04 51.51 L 47.19 52.01 L 47.46 52.46 L 47.76 52.90 L 47.91 53.37 L 47.86 53.87 L 47.62 54.31 L 47.24 54.67 L 46.78 54.91 L 46.29 55.07 L 45.83 55.29 L 45.43 55.63 L 45.14 56.06 L 45.03 56.57 L 45.01 57.11 L 45.08 57.65 L 45.26 58.13 L 45.56 58.57 L 45.83 59.01 L 46.00 59.50 L 46.17 59.99 L 46.44 60.43 L 46.74 60.87 L 46.92 61.35 L 46.99 61.88 L 47.03 62.41 L 47.20 62.80 L 47.57 63.01 L 48.04 63.20 L 48.48 63.48 L 48.92 63.77 L 49.40 63.96 L 49.89 64.12 L 50.33 64.39 L 50.68 64.78 L 50.92 65.22 L 51.12 65.64 L 51.42 65.91 L 51.85 66.10 L 52.28 66.36 L 52.65 66.74 L 52.90 67.17 L 53.10 67.60 L 53.39 67.88 L 53.84 67.98 L 54.35 67.97 L 54.76 67.81 L 54.95 67.45 L 54.98 66.94 L 54.94 66.41 L 54.77 65.92 L 54.46 65.49 L 54.08 65.08 L 53.70 64.69 L 53.35 64.27 L 53.11 63.81 L 53.02 63.29 L 53.00 62.74 L 53.00 62.18 L 53.02 61.63 L 53.13 61.11 L 53.40 60.67 L 53.78 60.32 L 54.24 60.12 L 54.73 60.11 L 55.19 60.31 L 55.59 60.65 L 55.87 61.07 L 56.05 61.52 L 56.28 61.82 L 56.62 61.86 L 56.88 61.61 L 56.98 61.16 L 57.00 60.62 L 57.00 60.06 L 57.04 59.52 L 57.17 59.01 L 57.47 58.59 L 57.87 58.26 L 58.33 58.05 L 58.72 57.84 L 58.93 57.49 L 59.00 56.99 L 59.05 56.46 L 59.20 55.97 L 59.50 55.53 L 59.88 55.13 L 60.26 54.73 L 60.62 54.32 L 60.87 53.86 L 60.98 53.35 L 61.00 52.80 L 61.00 52.24 L 60.98 51.69 L 60.88 51.17 L 60.65 50.71 L 60.34 50.27 L 60.11 49.81 L 60.02 49.29 L 60.00 48.74 L 60.00 48.18 L 60.00 47.62 L 60.00 47.06 L 60.00 46.50 L 59.99 45.95 L 59.91 45.47 L 59.67 45.15 L 59.24 45.02 L 58.71 44.98 L 58.19 44.89 L 57.74 44.65 L 57.37 44.28 L 57.12 43.83 L 57.02 43.31 L 57.02 42.77 L 57.10 42.25 L 57.32 41.78 L 57.62 41.34 L 57.88 40.89 L 58.04 40.40 L 58.23 39.92 L 58.52 39.48 L 58.80 39.04 L 58.97 38.55 L 59.14 38.06 L 59.43 37.63 L 59.82 37.29 L 60.27 37.06 L 60.68 36.86 L 60.93 36.54 L 61.12 36.10 L 61.39 35.67 L 61.78 35.32 L 62.22 35.08 L 62.64 34.89 L 62.87 34.60 L 62.82 34.27 L 62.50 34.09 Z M 74.06 31.16 L 73.61 31.43 L 73.19 31.81 L 72.79 32.21 L 72.38 32.62 L 71.98 33.02 L 71.56 33.41 L 71.13 33.74 L 70.63 33.92 L 70.09 33.99 L 69.52 34.00 L 68.96 34.01 L 68.47 34.10 L 68.15 34.35 L 68.02 34.80 L 67.98 35.34 L 67.87 35.86 L 67.62 36.33 L 67.32 36.78 L 67.10 37.26 L 67.01 37.80 L 66.98 38.36 L 66.87 38.88 L 66.61 39.35 L 66.31 39.79 L 66.12 40.26 L 66.17 40.67 L 66.48 40.91 L 66.97 40.98 L 67.51 40.95 L 68.02 40.80 L 68.47 40.50 L 68.88 40.12 L 69.29 39.72 L 69.72 39.36 L 70.19 39.12 L 70.72 39.02 L 71.28 39.00 L 71.85 39.00 L 72.42 38.97 L 72.94 38.85 L 73.39 38.57 L 73.81 38.19 L 74.22 37.79 L 74.63 37.41 L 75.09 37.15 L 75.59 37.09 L 76.08 37.24 L 76.53 37.53 L 76.98 37.80 L 77.45 37.90 L 77.81 37.75 L 77.97 37.34 L 78.00 36.80 L 78.00 36.23 L 78.00 35.66 L 78.00 35.08 L 78.00 34.51 L 78.01 33.94 L 78.07 33.39 L 78.25 32.90 L 78.58 32.48 L 79.01 32.17 L 79.46 31.98 L 79.80 31.75 L 79.87 31.42 L 79.65 31.16 L 79.32 31.17 L 79.07 31.46 L 78.88 31.90 L 78.59 32.34 L 78.19 32.69 L 77.72 32.89 L 77.22 32.88 L 76.75 32.66 L 76.32 32.31 L 75.91 31.91 L 75.50 31.53 L 75.06 31.22 L 74.56 31.08 Z M 96.06 16.14 L 95.61 16.42 L 95.21 16.80 L 94.81 17.19 L 94.43 17.60 L 94.16 18.04 L 94.08 18.54 L 94.20 19.03 L 94.48 19.47 L 94.77 19.91 L 94.97 20.37 L 95.18 20.76 L 95.54 20.99 L 96.00 21.17 L 96.44 21.45 L 96.88 21.75 L 97.37 21.93 L 97.90 21.99 L 98.45 21.97 L 98.96 21.84 L 99.41 21.58 L 99.85 21.27 L 100.30 21.05 L 100.70 20.85 L 100.92 20.50 L 100.99 20.01 L 101.00 19.45 L 101.00 18.89 L 101.00 18.33 L 100.98 17.78 L 100.90 17.25 L 100.68 16.78 L 100.32 16.39 L 99.88 16.13 L 99.36 16.02 L 98.81 16.00 L 98.25 16.00 L 97.69 16.00 L 97.13 16.00 L 96.57 16.03 Z M 175.18 7.20 L 174.99 7.55 L 174.83 8.00 L 174.54 8.41 L 174.15 8.73 L 173.70 8.92 L 173.19 8.99 L 172.67 9.02 L 172.17 9.11 L 171.73 9.34 L 171.31 9.64 L 170.89 9.89 L 170.46 10.06 L 170.17 10.28 L 170.13 10.61 L 170.35 10.87 L 170.78 10.98 L 171.29 11.00 L 171.83 11.00 L 172.36 10.98 L 172.85 10.88 L 173.29 10.65 L 173.71 10.35 L 174.15 10.12 L 174.64 10.02 L 175.15 9.98 L 175.60 9.89 L 175.88 9.63 L 175.98 9.20 L 176.00 8.68 L 176.00 8.15 L 175.97 7.64 L 175.83 7.25 L 175.51 7.09 Z M 137.19 5.20 L 136.99 5.57 L 136.81 6.02 L 136.51 6.44 L 136.11 6.76 L 135.66 6.96 L 135.27 7.16 L 135.10 7.48 L 135.21 7.81 L 135.59 7.97 L 136.10 8.01 L 136.63 8.07 L 137.11 8.24 L 137.54 8.53 L 137.98 8.81 L 138.47 8.95 L 139.00 8.99 L 139.55 9.00 L 140.09 8.99 L 140.56 8.90 L 140.85 8.66 L 140.89 8.26 L 140.70 7.81 L 140.40 7.38 L 140.13 6.94 L 139.98 6.46 L 139.81 5.98 L 139.51 5.56 L 139.10 5.24 L 138.63 5.07 L 138.10 5.01 L 137.59 5.04 Z M 120.19 4.19 L 120.03 4.56 L 120.01 5.05 L 120.07 5.52 L 120.26 5.85 L 120.64 6.03 L 121.08 6.21 L 121.49 6.49 L 121.90 6.77 L 122.35 6.92 L 122.82 6.89 L 123.25 6.68 L 123.65 6.38 L 124.08 6.13 L 124.56 6.02 L 125.08 6.00 L 125.60 6.00 L 126.13 6.00 L 126.66 6.00 L 127.18 6.00 L 127.71 6.00 L 128.23 5.99 L 128.73 5.91 L 129.18 5.72 L 129.55 5.40 L 129.83 5.00 L 129.93 4.56 L 129.81 4.20 L 129.45 4.04 L 128.96 4.00 L 128.43 4.00 L 127.91 4.00 L 127.38 4.00 L 126.85 4.00 L 126.32 4.00 L 125.80 4.00 L 125.27 4.00 L 124.74 4.00 L 124.22 4.00 L 123.69 4.00 L 123.16 4.00 L 122.64 4.00 L 122.11 4.00 L 121.58 4.00 L 121.06 4.00 L 120.56 4.03 Z" fill="rgb(160,6,5)" fill-rule="evenodd"/>
  <path d="M 393.06 245.13 L 392.64 245.38 L 392.24 245.68 L 391.82 245.91 L 391.42 246.07 L 391.15 246.30 L 391.12 246.63 L 391.35 246.88 L 391.77 246.98 L 392.27 247.00 L 392.79 247.00 L 393.31 247.00 L 393.83 247.00 L 394.36 247.00 L 394.88 247.00 L 395.40 247.00 L 395.92 247.00 L 396.44 247.00 L 396.96 247.00 L 397.48 247.00 L 398.00 247.00 L 398.52 247.00 L 399.03 246.99 L 399.50 246.94 L 399.83 246.76 L 399.90 246.44 L 399.72 246.15 L 399.33 246.03 L 398.83 246.00 L 398.31 246.00 L 397.79 246.00 L 397.27 246.00 L 396.76 245.99 L 396.27 245.92 L 395.82 245.72 L 395.42 245.44 L 395.01 245.17 L 394.55 245.04 L 394.04 245.01 L 393.53 245.02 Z M 337.20 245.20 L 337.03 245.57 L 337.01 246.07 L 337.06 246.59 L 337.21 247.06 L 337.51 247.46 L 337.90 247.76 L 338.36 247.92 L 338.84 247.88 L 339.27 247.66 L 339.69 247.36 L 340.12 247.12 L 340.62 247.02 L 341.15 247.00 L 341.68 247.00 L 342.22 247.00 L 342.75 247.00 L 343.27 246.98 L 343.68 246.86 L 343.89 246.58 L 343.82 246.25 L 343.50 246.06 L 343.02 246.01 L 342.49 246.00 L 341.95 245.99 L 341.44 245.95 L 340.96 245.80 L 340.54 245.53 L 340.12 245.25 L 339.65 245.07 L 339.14 245.01 L 338.61 245.00 L 338.08 245.00 L 337.57 245.03 Z M 372.05 240.15 L 371.61 240.40 L 371.19 240.71 L 370.72 240.91 L 370.20 240.99 L 369.68 241.03 L 369.27 241.17 L 369.09 241.50 L 369.15 241.95 L 369.42 242.38 L 369.78 242.78 L 370.17 243.17 L 370.57 243.54 L 371.00 243.82 L 371.50 243.96 L 372.04 244.00 L 372.59 244.00 L 373.14 244.00 L 373.69 244.00 L 374.22 243.98 L 374.65 243.86 L 374.87 243.59 L 374.82 243.26 L 374.49 243.04 L 374.05 242.87 L 373.63 242.58 L 373.30 242.19 L 373.09 241.72 L 373.01 241.20 L 372.97 240.68 L 372.83 240.27 L 372.50 240.09 Z M 425.20 231.22 L 424.98 231.59 L 424.78 232.06 L 424.45 232.49 L 424.02 232.81 L 423.55 233.01 L 423.18 233.24 L 422.96 233.64 L 422.75 234.11 L 422.42 234.55 L 422.03 234.97 L 421.61 235.37 L 421.17 235.70 L 420.68 235.91 L 420.13 235.99 L 419.56 236.00 L 418.98 236.00 L 418.40 236.00 L 417.83 236.02 L 417.29 236.10 L 416.80 236.32 L 416.40 236.67 L 416.12 237.13 L 415.95 237.63 L 415.74 238.12 L 415.40 238.54 L 414.96 238.85 L 414.45 239.02 L 413.95 239.21 L 413.50 239.50 L 413.04 239.80 L 412.54 239.98 L 412.03 240.16 L 411.57 240.44 L 411.12 240.74 L 410.61 240.93 L 410.07 241.00 L 409.55 241.06 L 409.20 241.26 L 409.14 241.59 L 409.38 241.89 L 409.81 242.09 L 410.27 242.34 L 410.72 242.65 L 411.20 242.88 L 411.74 242.98 L 412.31 243.00 L 412.89 243.00 L 413.47 243.00 L 414.04 242.99 L 414.60 242.93 L 415.10 242.75 L 415.56 242.45 L 416.02 242.17 L 416.52 241.99 L 417.02 241.80 L 417.47 241.50 L 417.89 241.11 L 418.30 240.70 L 418.71 240.29 L 419.12 239.88 L 419.54 239.49 L 419.99 239.20 L 420.49 239.09 L 421.00 239.19 L 421.45 239.48 L 421.87 239.87 L 422.28 240.27 L 422.71 240.63 L 423.19 240.88 L 423.72 240.98 L 424.29 241.00 L 424.87 241.00 L 425.44 241.03 L 425.96 241.16 L 426.40 241.46 L 426.74 241.88 L 426.96 242.35 L 427.17 242.74 L 427.50 242.88 L 427.81 242.73 L 427.89 242.33 L 427.73 241.86 L 427.43 241.41 L 427.15 240.95 L 427.03 240.42 L 427.02 239.86 L 427.09 239.31 L 427.30 238.82 L 427.65 238.42 L 428.10 238.15 L 428.61 238.09 L 429.10 238.25 L 429.52 238.58 L 429.82 239.02 L 429.96 239.54 L 430.01 240.10 L 430.08 240.65 L 430.28 241.14 L 430.62 241.56 L 431.06 241.84 L 431.57 241.91 L 432.07 241.77 L 432.53 241.48 L 432.98 241.19 L 433.45 240.99 L 433.80 240.75 L 433.89 240.35 L 433.74 239.88 L 433.44 239.43 L 433.17 238.97 L 433.03 238.44 L 433.02 237.88 L 433.09 237.33 L 433.29 236.84 L 433.63 236.43 L 434.07 236.13 L 434.52 235.94 L 434.82 235.69 L 434.84 235.35 L 434.56 235.13 L 434.12 235.15 L 433.66 235.38 L 433.21 235.69 L 432.72 235.90 L 432.18 235.98 L 431.61 235.97 L 431.08 235.86 L 430.62 235.58 L 430.20 235.20 L 429.79 234.79 L 429.41 234.37 L 429.13 233.91 L 428.96 233.40 L 428.75 232.90 L 428.42 232.48 L 427.99 232.17 L 427.48 231.99 L 426.98 231.81 L 426.52 231.52 L 426.07 231.23 L 425.59 231.10 Z M 486.04 185.25 L 485.37 185.56 L 484.67 185.92 L 483.98 186.28 L 483.43 186.80 L 483.11 187.51 L 482.94 188.29 L 482.69 189.02 L 482.19 189.56 L 481.52 189.77 L 480.85 189.59 L 480.34 189.07 L 480.06 188.36 L 479.86 187.67 L 479.45 187.21 L 478.77 187.03 L 477.94 187.00 L 477.09 187.00 L 476.23 187.00 L 475.38 187.02 L 474.56 187.11 L 473.81 187.36 L 473.09 187.70 L 472.33 187.92 L 471.51 188.00 L 470.76 188.12 L 470.19 188.44 L 469.79 189.01 L 469.31 189.64 L 468.74 190.26 L 468.13 190.87 L 467.53 191.47 L 466.91 192.06 L 466.26 192.56 L 465.53 192.87 L 464.73 192.98 L 463.92 193.05 L 463.29 193.29 L 462.87 193.82 L 462.44 194.47 L 461.88 195.08 L 461.25 195.59 L 460.55 195.98 L 459.87 196.36 L 459.36 196.91 L 459.08 197.63 L 458.91 198.42 L 458.61 199.13 L 458.09 199.67 L 457.41 200.05 L 456.75 200.45 L 456.24 201.03 L 455.89 201.73 L 455.53 202.43 L 455.16 203.14 L 454.84 203.86 L 454.47 204.57 L 454.11 205.27 L 453.79 205.99 L 453.42 206.70 L 453.14 207.44 L 453.02 208.25 L 453.00 209.10 L 453.00 209.95 L 453.00 210.81 L 453.00 211.67 L 453.00 212.53 L 453.01 213.38 L 453.06 214.22 L 453.25 214.99 L 453.59 215.71 L 453.87 216.45 L 453.98 217.26 L 454.00 218.11 L 453.97 218.96 L 453.82 219.75 L 453.50 220.48 L 453.15 221.18 L 452.81 221.89 L 452.33 222.48 L 451.65 222.84 L 450.85 222.97 L 450.00 223.00 L 449.15 223.00 L 448.29 223.00 L 447.43 223.00 L 446.58 223.00 L 445.72 223.00 L 444.88 223.04 L 444.11 223.23 L 443.50 223.68 L 443.09 224.34 L 442.75 225.05 L 442.39 225.76 L 442.12 226.50 L 442.02 227.32 L 442.00 228.17 L 442.00 229.02 L 442.00 229.88 L 442.00 230.74 L 442.00 231.60 L 442.00 232.45 L 442.00 233.31 L 441.96 234.15 L 441.78 234.93 L 441.44 235.65 L 441.07 236.35 L 440.74 237.07 L 440.40 237.76 L 440.27 238.36 L 440.53 238.72 L 441.11 238.67 L 441.79 238.38 L 442.49 238.23 L 443.16 238.42 L 443.64 238.94 L 443.77 239.62 L 443.50 240.29 L 442.97 240.79 L 442.45 241.20 L 442.26 241.71 L 442.46 242.36 L 442.78 243.06 L 442.93 243.83 L 442.85 244.62 L 442.55 245.35 L 442.26 246.02 L 442.30 246.59 L 442.80 246.90 L 443.57 246.99 L 444.41 246.99 L 445.24 246.94 L 446.01 246.74 L 446.71 246.38 L 447.35 245.99 L 447.85 245.54 L 448.23 244.94 L 448.60 244.25 L 448.86 243.52 L 448.88 242.80 L 448.60 242.30 L 448.03 242.25 L 447.36 242.54 L 446.66 242.77 L 445.95 242.67 L 445.29 242.24 L 444.71 241.66 L 444.29 240.99 L 444.23 240.28 L 444.54 239.59 L 445.07 238.98 L 445.70 238.46 L 446.42 238.14 L 447.23 238.03 L 448.07 238.04 L 448.86 238.19 L 449.57 238.52 L 450.28 238.78 L 451.00 238.73 L 451.70 238.43 L 452.41 238.22 L 453.13 238.34 L 453.84 238.66 L 454.59 238.90 L 455.41 238.98 L 456.27 239.00 L 457.12 239.00 L 457.97 238.97 L 458.76 238.82 L 459.49 238.51 L 460.19 238.22 L 460.90 238.26 L 461.48 238.68 L 461.77 239.33 L 461.67 240.02 L 461.20 240.58 L 460.54 240.98 L 459.87 241.36 L 459.35 241.92 L 459.08 242.64 L 458.91 243.42 L 458.61 244.13 L 458.08 244.63 L 457.40 244.77 L 456.69 244.56 L 455.99 244.21 L 455.28 243.88 L 454.63 243.45 L 454.16 242.88 L 453.75 242.34 L 453.17 242.11 L 452.57 242.21 L 452.27 242.62 L 452.39 243.23 L 452.68 243.92 L 452.78 244.64 L 452.55 245.34 L 452.26 246.01 L 452.27 246.55 L 452.59 246.69 L 452.99 246.35 L 453.40 245.79 L 453.97 245.34 L 454.66 245.23 L 455.31 245.51 L 455.81 246.06 L 456.23 246.60 L 456.80 246.90 L 457.58 246.99 L 458.42 247.00 L 459.28 247.00 L 460.13 247.00 L 460.99 247.00 L 461.85 247.00 L 462.71 247.00 L 463.56 247.00 L 464.42 247.00 L 465.28 247.00 L 466.13 247.00 L 466.99 247.00 L 467.85 247.00 L 468.70 247.00 L 469.56 247.00 L 470.42 247.00 L 471.28 247.00 L 472.12 247.04 L 472.91 247.20 L 473.62 247.54 L 474.35 247.84 L 475.16 247.97 L 476.01 248.00 L 476.86 248.00 L 477.72 248.00 L 478.58 248.00 L 479.43 247.99 L 480.26 247.93 L 481.03 247.73 L 481.75 247.41 L 482.46 247.22 L 483.17 247.36 L 483.87 247.66 L 484.58 247.77 L 485.28 247.54 L 485.92 247.05 L 486.54 246.46 L 487.12 245.85 L 487.60 245.19 L 487.89 244.45 L 487.98 243.63 L 488.00 242.78 L 488.00 241.92 L 488.00 241.07 L 488.00 240.21 L 488.00 239.35 L 488.00 238.50 L 488.00 237.64 L 488.00 236.78 L 488.00 235.93 L 488.00 235.07 L 488.00 234.21 L 488.00 233.35 L 488.00 232.50 L 488.00 231.64 L 488.00 230.78 L 488.00 229.93 L 488.00 229.07 L 488.00 228.21 L 488.00 227.35 L 488.00 226.50 L 488.00 225.64 L 488.00 224.78 L 488.00 223.93 L 488.00 223.07 L 488.00 222.21 L 488.00 221.35 L 488.00 220.50 L 488.00 219.64 L 488.00 218.78 L 488.00 217.93 L 488.00 217.07 L 488.00 216.21 L 488.00 215.36 L 488.00 214.50 L 488.00 213.64 L 488.00 212.78 L 488.00 211.93 L 488.00 211.07 L 488.00 210.21 L 488.00 209.36 L 488.00 208.50 L 487.99 207.64 L 487.95 206.81 L 487.76 206.03 L 487.43 205.31 L 487.15 204.57 L 487.08 203.78 L 487.25 203.01 L 487.58 202.30 L 487.86 201.56 L 487.98 200.75 L 488.00 199.90 L 488.00 199.04 L 488.00 198.19 L 487.98 197.34 L 487.88 196.52 L 487.62 195.77 L 487.28 195.05 L 487.09 194.29 L 487.13 193.50 L 487.39 192.76 L 487.72 192.04 L 487.91 191.28 L 487.87 190.49 L 487.61 189.75 L 487.27 189.03 L 487.07 188.26 L 487.01 187.43 L 486.99 186.58 L 486.90 185.81 L 486.60 185.31 Z M 460.13 223.05 L 460.37 222.67 L 460.70 222.34 L 461.09 222.12 L 461.53 222.04 L 461.96 222.13 L 462.34 222.38 L 462.66 222.71 L 462.89 223.10 L 462.98 223.55 L 463.00 224.03 L 462.98 224.51 L 462.87 224.95 L 462.63 225.33 L 462.30 225.66 L 461.91 225.88 L 461.47 225.96 L 461.04 225.87 L 460.66 225.62 L 460.34 225.29 L 460.11 224.90 L 460.02 224.45 L 460.00 223.97 L 460.02 223.49 Z M 468.13 216.05 L 468.37 215.67 L 468.70 215.34 L 469.09 215.12 L 469.54 215.02 L 470.01 215.00 L 470.49 215.02 L 470.94 215.12 L 471.32 215.36 L 471.65 215.69 L 471.88 216.08 L 471.96 216.51 L 471.87 216.95 L 471.63 217.33 L 471.30 217.66 L 470.91 217.88 L 470.46 217.98 L 469.99 218.00 L 469.51 217.98 L 469.06 217.88 L 468.68 217.64 L 468.35 217.31 L 468.12 216.92 L 468.04 216.49 Z M 471.15 194.06 L 471.43 193.62 L 471.84 193.29 L 472.32 193.10 L 472.82 193.13 L 473.27 193.36 L 473.65 193.74 L 473.89 194.20 L 473.98 194.73 L 474.00 195.29 L 474.00 195.86 L 473.97 196.42 L 473.85 196.94 L 473.57 197.38 L 473.16 197.71 L 472.68 197.90 L 472.18 197.87 L 471.73 197.64 L 471.35 197.26 L 471.11 196.80 L 471.02 196.27 L 471.00 195.71 L 471.00 195.14 L 471.03 194.58 Z M 487.06 164.14 L 486.62 164.40 L 486.19 164.71 L 485.72 164.91 L 485.20 164.99 L 484.66 165.02 L 484.15 165.12 L 483.71 165.37 L 483.35 165.74 L 483.10 166.18 L 482.94 166.67 L 482.74 167.13 L 482.42 167.53 L 482.00 167.82 L 481.50 167.96 L 480.97 168.01 L 480.49 168.08 L 480.17 168.29 L 480.10 168.68 L 480.26 169.13 L 480.58 169.53 L 481.00 169.82 L 481.49 169.93 L 481.97 169.84 L 482.41 169.58 L 482.84 169.28 L 483.28 169.06 L 483.68 168.86 L 483.91 168.54 L 483.99 168.06 L 484.03 167.53 L 484.16 167.03 L 484.44 166.61 L 484.84 166.28 L 485.31 166.08 L 485.83 166.01 L 486.38 166.00 L 486.93 166.00 L 487.48 166.00 L 488.02 165.99 L 488.51 165.92 L 488.84 165.70 L 488.97 165.29 L 488.98 164.78 L 488.86 164.35 L 488.56 164.10 L 488.09 164.02 L 487.56 164.03 Z M 10.19 104.19 L 9.99 104.56 L 9.82 105.01 L 9.53 105.42 L 9.14 105.74 L 8.68 105.94 L 8.20 106.09 L 7.76 106.33 L 7.39 106.67 L 7.14 107.09 L 7.09 107.52 L 7.29 107.84 L 7.70 107.97 L 8.21 108.01 L 8.72 108.09 L 9.17 108.28 L 9.56 108.61 L 9.84 109.03 L 9.97 109.52 L 10.01 110.04 L 10.07 110.51 L 10.27 110.83 L 10.60 110.88 L 10.87 110.65 L 10.98 110.23 L 11.02 109.71 L 11.10 109.21 L 11.32 108.76 L 11.62 108.34 L 11.87 107.90 L 11.98 107.40 L 12.00 106.87 L 12.00 106.33 L 12.00 105.79 L 12.00 105.25 L 11.98 104.73 L 11.85 104.31 L 11.54 104.08 L 11.07 104.01 L 10.57 104.03 Z M 13.50 5.52 L 12.80 6.42 L 12.04 7.27 L 10.98 7.54 L 9.83 7.48 L 8.84 7.85 L 8.24 8.87 L 8.02 10.24 L 7.91 11.69 L 7.67 13.06 L 7.46 14.33 L 7.57 15.60 L 7.80 16.94 L 7.76 18.30 L 7.45 19.65 L 7.15 21.02 L 7.03 22.46 L 7.00 23.95 L 7.00 25.44 L 7.00 26.94 L 7.00 28.44 L 7.00 29.93 L 7.00 31.43 L 7.00 32.92 L 7.00 34.42 L 7.00 35.91 L 7.06 37.39 L 7.30 38.78 L 7.69 40.11 L 7.88 41.49 L 7.69 42.86 L 7.30 44.19 L 7.06 45.58 L 7.00 47.06 L 7.00 48.55 L 7.00 50.05 L 7.00 51.54 L 7.00 53.04 L 7.00 54.54 L 7.00 56.03 L 7.00 57.53 L 7.00 59.02 L 7.00 60.52 L 7.00 62.02 L 7.00 63.51 L 7.00 65.01 L 7.00 66.50 L 7.00 68.00 L 7.00 69.50 L 7.00 70.99 L 7.00 72.49 L 7.00 73.98 L 7.00 75.48 L 7.00 76.98 L 7.00 78.47 L 7.01 79.96 L 7.09 81.37 L 7.53 82.43 L 8.55 82.87 L 9.89 82.83 L 11.17 82.38 L 12.21 81.51 L 12.99 80.38 L 13.57 79.13 L 13.90 77.77 L 14.09 76.35 L 14.48 75.03 L 15.30 73.97 L 16.39 73.23 L 17.37 72.56 L 17.88 71.53 L 18.12 70.21 L 18.52 68.89 L 19.17 67.66 L 19.67 66.42 L 19.68 65.13 L 19.49 63.88 L 19.74 62.72 L 20.60 61.78 L 21.83 61.23 L 23.22 61.09 L 24.61 61.27 L 25.95 61.64 L 27.32 61.85 L 28.66 61.65 L 29.87 60.98 L 30.99 60.12 L 32.10 59.56 L 33.17 59.72 L 34.13 60.26 L 35.13 60.45 L 36.27 60.08 L 37.48 59.61 L 38.63 59.54 L 39.36 60.12 L 39.34 61.08 L 38.81 62.04 L 38.54 63.02 L 38.70 64.16 L 38.72 65.43 L 38.52 66.67 L 38.67 67.69 L 39.50 68.38 L 40.75 68.76 L 42.11 68.80 L 43.43 68.57 L 44.68 68.52 L 45.84 69.02 L 46.92 69.85 L 47.95 70.39 L 48.85 70.15 L 49.44 69.22 L 49.50 68.05 L 49.01 66.96 L 48.23 66.00 L 47.43 65.01 L 46.77 63.87 L 46.23 62.61 L 45.75 61.31 L 45.22 60.03 L 44.68 58.77 L 44.31 57.47 L 44.42 56.19 L 45.09 55.06 L 45.95 54.11 L 46.42 53.20 L 46.36 52.11 L 46.28 50.84 L 46.51 49.51 L 46.82 48.16 L 46.98 46.73 L 47.10 45.28 L 47.37 43.90 L 47.73 42.57 L 47.84 41.20 L 47.65 39.86 L 47.52 38.64 L 47.98 37.72 L 49.03 37.33 L 50.31 37.46 L 51.64 37.76 L 53.01 37.80 L 54.31 37.47 L 55.38 36.81 L 56.26 35.89 L 57.20 34.87 L 58.27 33.94 L 59.50 33.31 L 60.88 33.09 L 62.29 33.21 L 63.63 33.52 L 64.96 33.71 L 66.28 33.55 L 67.62 33.22 L 69.02 32.99 L 70.40 32.72 L 71.65 32.12 L 72.78 31.27 L 73.93 30.60 L 75.14 30.45 L 76.37 30.55 L 77.61 30.38 L 78.77 29.93 L 79.57 29.20 L 79.81 28.07 L 79.62 26.78 L 79.47 25.51 L 79.71 24.28 L 80.33 23.15 L 81.32 22.36 L 82.54 21.93 L 83.55 21.38 L 84.17 20.38 L 84.65 19.13 L 85.08 17.82 L 85.54 16.51 L 86.16 15.28 L 87.02 14.19 L 88.12 13.45 L 89.37 13.35 L 90.56 13.88 L 91.51 14.83 L 92.32 15.85 L 93.29 16.43 L 94.44 16.25 L 95.64 15.66 L 96.94 15.20 L 98.34 15.09 L 99.70 15.35 L 100.88 16.04 L 101.84 16.89 L 102.73 17.40 L 103.79 17.28 L 105.01 16.80 L 106.29 16.29 L 107.63 15.95 L 108.85 15.49 L 109.69 14.58 L 110.19 13.37 L 110.47 12.19 L 110.23 11.22 L 109.39 10.62 L 108.40 10.62 L 107.53 11.28 L 106.55 12.14 L 105.34 12.74 L 103.99 13.02 L 102.78 13.36 L 101.80 13.98 L 100.81 14.44 L 99.86 14.16 L 99.29 13.17 L 99.27 11.91 L 99.82 10.82 L 100.86 10.13 L 102.12 9.62 L 103.37 9.05 L 104.62 8.45 L 105.87 7.86 L 107.14 7.32 L 108.50 7.02 L 109.75 6.77 L 110.51 6.20 L 110.39 5.48 L 109.41 5.09 L 108.00 5.01 L 106.52 5.00 L 105.02 5.01 L 103.59 5.08 L 102.39 5.44 L 101.41 6.13 L 100.31 6.75 L 98.99 7.11 L 97.64 7.45 L 96.29 7.80 L 94.88 8.01 L 93.49 8.25 L 92.15 8.65 L 90.83 9.07 L 89.53 9.50 L 88.29 9.97 L 87.21 10.56 L 86.24 11.22 L 85.17 11.48 L 83.99 11.13 L 82.78 10.51 L 81.60 9.84 L 80.41 9.50 L 79.15 9.65 L 77.79 9.89 L 76.38 10.03 L 75.12 10.28 L 74.24 10.95 L 73.55 11.90 L 72.59 12.66 L 71.37 13.09 L 70.24 13.57 L 69.24 14.26 L 68.08 14.77 L 66.71 14.91 L 65.40 14.64 L 64.44 13.88 L 63.77 12.87 L 63.02 11.92 L 62.13 10.97 L 61.56 9.88 L 61.72 8.75 L 62.56 7.81 L 63.76 7.33 L 65.06 7.39 L 66.38 7.73 L 67.79 7.95 L 69.26 7.98 L 70.71 7.90 L 72.09 7.62 L 73.35 7.18 L 74.30 6.61 L 74.51 5.87 L 73.86 5.28 L 72.63 5.05 L 71.18 5.00 L 69.69 5.00 L 68.19 5.00 L 66.70 5.00 L 65.20 5.00 L 63.70 5.00 L 62.21 5.00 L 60.71 5.00 L 59.23 5.03 L 57.80 5.19 L 56.45 5.50 L 55.12 5.71 L 53.80 5.57 L 52.46 5.24 L 51.05 5.05 L 49.57 5.00 L 48.08 5.00 L 46.58 5.00 L 45.08 5.00 L 43.59 5.00 L 42.09 5.00 L 40.60 5.00 L 39.10 5.00 L 37.60 5.00 L 36.11 5.00 L 34.61 5.00 L 33.13 5.04 L 31.71 5.21 L 30.35 5.55 L 28.98 5.85 L 27.54 5.97 L 26.07 5.96 L 24.65 5.78 L 23.29 5.43 L 21.92 5.14 L 20.47 5.02 L 18.98 5.00 L 17.49 5.00 L 16.00 5.01 L 14.59 5.09 Z M 34.94 49.85 L 35.40 49.59 L 35.84 49.28 L 36.33 49.08 L 36.87 49.02 L 37.42 49.03 L 37.94 49.15 L 38.38 49.43 L 38.71 49.84 L 38.90 50.32 L 38.87 50.82 L 38.64 51.28 L 38.29 51.70 L 37.89 52.11 L 37.51 52.52 L 37.21 52.96 L 37.05 53.47 L 37.01 54.02 L 37.00 54.59 L 36.99 55.15 L 36.91 55.69 L 36.71 56.17 L 36.37 56.57 L 35.93 56.85 L 35.43 56.92 L 34.94 56.77 L 34.52 56.46 L 34.20 56.04 L 34.01 55.57 L 33.79 55.20 L 33.38 55.04 L 32.85 55.02 L 32.31 55.09 L 31.83 55.29 L 31.38 55.59 L 30.92 55.86 L 30.41 55.98 L 29.86 56.02 L 29.40 56.12 L 29.12 56.41 L 29.02 56.88 L 29.00 57.43 L 29.00 58.00 L 29.00 58.57 L 28.99 59.13 L 28.92 59.67 L 28.72 60.16 L 28.38 60.57 L 27.94 60.85 L 27.44 60.92 L 26.95 60.78 L 26.51 60.48 L 26.10 60.10 L 25.70 59.69 L 25.35 59.27 L 25.11 58.80 L 25.02 58.27 L 25.00 57.71 L 25.00 57.14 L 25.03 56.58 L 25.15 56.06 L 25.41 55.60 L 25.72 55.16 L 25.92 54.67 L 25.99 54.13 L 26.02 53.58 L 26.15 53.06 L 26.43 52.61 L 26.81 52.20 L 27.21 51.80 L 27.62 51.42 L 28.08 51.14 L 28.60 51.02 L 29.16 51.00 L 29.72 51.00 L 30.29 51.00 L 30.86 51.00 L 31.42 50.97 L 31.94 50.85 L 32.40 50.59 L 32.84 50.28 L 33.33 50.08 L 33.87 50.01 L 34.42 49.98 Z M 42.00 37.00 L 42.40 36.62 L 42.83 36.29 L 43.31 36.09 L 43.84 36.02 L 44.39 36.02 L 44.91 36.14 L 45.35 36.41 L 45.69 36.81 L 45.91 37.28 L 45.98 37.81 L 46.00 38.37 L 46.00 38.93 L 46.00 39.49 L 46.00 40.05 L 46.00 40.62 L 46.00 41.18 L 46.00 41.74 L 46.00 42.31 L 46.00 42.87 L 45.98 43.42 L 45.86 43.93 L 45.57 44.37 L 45.17 44.71 L 44.69 44.91 L 44.16 44.99 L 43.60 45.00 L 43.04 44.99 L 42.50 44.96 L 41.99 44.81 L 41.57 44.51 L 41.25 44.10 L 41.07 43.61 L 41.01 43.07 L 40.97 42.53 L 40.83 42.02 L 40.56 41.57 L 40.26 41.13 L 40.10 40.65 L 40.13 40.16 L 40.36 39.70 L 40.66 39.26 L 40.90 38.80 L 41.07 38.30 L 41.29 37.83 L 41.62 37.40 Z M 53.94 21.85 L 54.41 21.58 L 54.86 21.27 L 55.35 21.10 L 55.86 21.14 L 56.32 21.40 L 56.68 21.80 L 56.90 22.28 L 56.98 22.83 L 57.00 23.40 L 56.99 23.98 L 56.94 24.54 L 56.78 25.05 L 56.46 25.48 L 56.02 25.80 L 55.52 25.99 L 55.02 26.17 L 54.55 26.45 L 54.10 26.76 L 53.60 26.96 L 53.09 27.13 L 52.62 27.40 L 52.17 27.71 L 51.67 27.91 L 51.12 27.98 L 50.56 27.97 L 50.03 27.83 L 49.57 27.54 L 49.15 27.15 L 48.75 26.74 L 48.38 26.31 L 48.13 25.84 L 48.02 25.30 L 48.02 24.73 L 48.12 24.19 L 48.37 23.72 L 48.75 23.35 L 49.22 23.09 L 49.73 22.92 L 50.22 22.69 L 50.67 22.38 L 51.15 22.13 L 51.68 22.02 L 52.26 22.00 L 52.84 22.00 L 53.41 21.97 Z M 61.94 16.85 L 62.44 16.55 L 62.93 16.25 L 63.47 16.11 L 64.00 16.21 L 64.49 16.53 L 64.94 16.94 L 65.37 17.39 L 65.71 17.87 L 65.89 18.40 L 65.83 18.94 L 65.53 19.43 L 65.12 19.88 L 64.68 20.32 L 64.23 20.77 L 63.79 21.21 L 63.35 21.65 L 62.91 22.09 L 62.47 22.53 L 62.03 22.97 L 61.58 23.39 L 61.10 23.74 L 60.55 23.93 L 59.96 23.98 L 59.37 23.91 L 58.84 23.69 L 58.41 23.31 L 58.13 22.82 L 58.02 22.24 L 58.03 21.64 L 58.16 21.07 L 58.45 20.56 L 58.77 20.07 L 58.98 19.53 L 59.19 19.00 L 59.52 18.51 L 59.94 18.06 L 60.39 17.63 L 60.87 17.28 L 61.40 17.05 Z M 55.14 12.05 L 55.46 11.60 L 55.90 11.26 L 56.41 11.10 L 56.94 11.17 L 57.40 11.46 L 57.74 11.90 L 57.93 12.43 L 57.98 13.00 L 57.93 13.57 L 57.74 14.10 L 57.40 14.54 L 56.94 14.85 L 56.41 15.04 L 55.90 15.26 L 55.43 15.59 L 55.00 16.00 L 54.57 16.41 L 54.10 16.74 L 53.59 16.90 L 53.06 16.83 L 52.60 16.54 L 52.26 16.10 L 52.10 15.59 L 52.17 15.06 L 52.45 14.58 L 52.86 14.15 L 53.28 13.73 L 53.73 13.36 L 54.21 13.09 L 54.65 12.86 L 54.93 12.52 Z M 48.15 9.06 L 48.46 8.60 L 48.90 8.26 L 49.41 8.10 L 49.94 8.17 L 50.40 8.46 L 50.74 8.90 L 50.93 9.43 L 50.98 10.00 L 50.93 10.57 L 50.74 11.10 L 50.41 11.57 L 50.00 12.00 L 49.57 12.41 L 49.10 12.74 L 48.59 12.90 L 48.06 12.83 L 47.60 12.54 L 47.26 12.10 L 47.10 11.59 L 47.16 11.06 L 47.44 10.58 L 47.75 10.10 L 47.96 9.59 Z M 86.18 4.18 L 86.06 4.50 L 86.18 4.82 L 86.53 4.97 L 87.00 5.00 L 87.50 5.00 L 88.00 5.00 L 88.50 5.00 L 89.00 5.00 L 89.50 5.00 L 90.00 5.00 L 90.50 5.00 L 91.00 5.00 L 91.50 5.00 L 92.00 5.00 L 92.50 5.00 L 93.00 5.00 L 93.47 4.97 L 93.82 4.82 L 93.94 4.50 L 93.82 4.18 L 93.47 4.03 L 93.00 4.00 L 92.50 4.00 L 92.00 4.00 L 91.50 4.00 L 91.00 4.00 L 90.50 4.00 L 90.00 4.00 L 89.50 4.00 L 89.00 4.00 L 88.50 4.00 L 88.00 4.00 L 87.50 4.00 L 87.00 4.00 L 86.53 4.03 Z" fill="rgb(226,16,14)" fill-rule="evenodd"/>
  <path d="M 434.18 229.19 L 434.00 229.54 L 433.85 229.97 L 433.59 230.37 L 433.22 230.69 L 432.81 230.92 L 432.40 231.07 L 432.14 231.31 L 432.12 231.63 L 432.35 231.88 L 432.76 231.98 L 433.26 232.00 L 433.78 232.00 L 434.29 232.00 L 434.81 232.00 L 435.30 231.98 L 435.70 231.86 L 435.92 231.56 L 435.99 231.12 L 436.00 230.61 L 436.00 230.10 L 435.97 229.61 L 435.83 229.23 L 435.50 229.05 L 435.03 229.01 L 434.55 229.03 Z M 27.18 200.19 L 27.03 200.55 L 27.00 201.03 L 27.00 201.54 L 27.00 202.05 L 27.00 202.56 L 27.00 203.08 L 27.00 203.59 L 27.00 204.10 L 27.00 204.62 L 27.00 205.13 L 27.00 205.64 L 27.00 206.16 L 27.00 206.67 L 27.00 207.18 L 27.00 207.69 L 27.00 208.21 L 27.00 208.72 L 26.99 209.23 L 26.92 209.71 L 26.74 210.15 L 26.46 210.55 L 26.20 210.95 L 26.05 211.40 L 26.01 211.90 L 26.00 212.41 L 26.00 212.92 L 26.03 213.41 L 26.17 213.78 L 26.51 213.95 L 26.98 213.99 L 27.49 214.00 L 28.00 214.00 L 28.47 213.96 L 28.82 213.80 L 28.97 213.43 L 29.00 212.95 L 29.00 212.44 L 29.00 211.92 L 29.00 211.41 L 28.99 210.90 L 28.95 210.40 L 28.80 209.95 L 28.54 209.55 L 28.26 209.15 L 28.08 208.71 L 28.01 208.23 L 28.00 207.72 L 28.00 207.21 L 28.00 206.69 L 28.00 206.18 L 28.00 205.67 L 28.00 205.16 L 28.00 204.64 L 28.00 204.13 L 28.00 203.62 L 28.00 203.10 L 28.00 202.59 L 28.00 202.08 L 28.00 201.56 L 28.00 201.05 L 27.97 200.57 L 27.82 200.21 L 27.51 200.07 Z M 3.18 186.18 L 3.03 186.54 L 3.00 187.02 L 3.00 187.52 L 3.00 188.03 L 2.97 188.52 L 2.85 188.98 L 2.59 189.37 L 2.23 189.69 L 1.81 189.90 L 1.34 189.98 L 0.85 190.01 L 0.41 190.09 L 0.13 190.31 L 0.02 190.71 L 0.00 191.19 L 0.00 191.70 L 0.00 192.21 L 0.00 192.71 L 0.00 193.22 L 0.00 193.73 L 0.00 194.24 L 0.00 194.74 L 0.02 195.23 L 0.11 195.65 L 0.37 195.89 L 0.79 195.98 L 1.28 196.00 L 1.79 196.00 L 2.29 196.00 L 2.80 196.00 L 3.31 196.00 L 3.81 196.00 L 4.30 195.98 L 4.70 195.87 L 4.92 195.58 L 4.99 195.14 L 5.00 194.65 L 5.00 194.14 L 5.00 193.64 L 5.00 193.13 L 5.00 192.62 L 5.00 192.11 L 5.00 191.61 L 5.00 191.10 L 5.00 190.59 L 5.00 190.09 L 5.00 189.58 L 5.00 189.07 L 5.00 188.56 L 5.00 188.06 L 5.00 187.55 L 5.00 187.05 L 4.97 186.57 L 4.82 186.20 L 4.48 186.04 L 4.01 186.01 L 3.54 186.03 Z M 27.18 174.19 L 27.03 174.55 L 27.00 175.04 L 27.00 175.56 L 27.00 176.08 L 27.00 176.59 L 27.00 177.11 L 27.00 177.63 L 27.00 178.15 L 27.00 178.67 L 27.00 179.19 L 27.00 179.71 L 27.00 180.23 L 27.00 180.74 L 27.00 181.26 L 27.00 181.78 L 27.00 182.30 L 27.00 182.82 L 27.02 183.31 L 27.14 183.71 L 27.43 183.90 L 27.75 183.83 L 27.94 183.52 L 27.99 183.06 L 28.02 182.56 L 28.13 182.08 L 28.37 181.66 L 28.67 181.27 L 28.88 180.85 L 28.93 180.38 L 28.79 179.93 L 28.52 179.53 L 28.24 179.12 L 28.07 178.68 L 28.01 178.18 L 28.00 177.67 L 28.00 177.15 L 28.00 176.63 L 28.00 176.11 L 28.00 175.59 L 28.00 175.08 L 27.97 174.59 L 27.83 174.22 L 27.51 174.08 Z M 0.18 161.18 L 0.03 161.54 L 0.00 162.01 L 0.00 162.51 L 0.00 163.02 L 0.00 163.52 L 0.00 164.03 L 0.00 164.53 L 0.00 165.04 L 0.00 165.54 L 0.00 166.05 L 0.00 166.55 L 0.00 167.06 L 0.00 167.56 L 0.00 168.06 L 0.00 168.57 L 0.00 169.07 L 0.00 169.58 L 0.00 170.08 L 0.00 170.59 L 0.00 171.09 L 0.00 171.60 L 0.00 172.10 L 0.00 172.61 L 0.00 173.11 L 0.00 173.62 L 0.00 174.12 L 0.00 174.62 L 0.00 175.13 L 0.00 175.63 L 0.00 176.14 L 0.00 176.64 L 0.01 177.14 L 0.08 177.57 L 0.29 177.86 L 0.68 177.98 L 1.16 178.01 L 1.65 178.06 L 2.09 178.22 L 2.48 178.48 L 2.87 178.76 L 3.30 178.93 L 3.78 178.99 L 4.26 178.98 L 4.67 178.88 L 4.90 178.61 L 4.99 178.19 L 5.00 177.70 L 5.00 177.19 L 5.00 176.69 L 5.00 176.18 L 5.00 175.68 L 5.00 175.17 L 5.00 174.67 L 5.00 174.17 L 5.00 173.66 L 5.00 173.16 L 5.00 172.65 L 5.00 172.15 L 5.00 171.64 L 5.00 171.14 L 5.00 170.63 L 5.00 170.13 L 5.00 169.62 L 5.00 169.12 L 5.00 168.62 L 5.00 168.11 L 5.00 167.61 L 5.00 167.10 L 5.00 166.60 L 5.00 166.09 L 5.00 165.59 L 5.00 165.08 L 5.00 164.58 L 5.00 164.07 L 5.00 163.57 L 5.00 163.06 L 5.00 162.56 L 5.00 162.06 L 4.97 161.58 L 4.83 161.22 L 4.50 161.05 L 4.03 161.01 L 3.53 161.00 L 3.03 161.00 L 2.52 161.00 L 2.02 161.00 L 1.51 161.00 L 1.01 161.00 L 0.54 161.03 Z M 490.18 151.18 L 490.03 151.53 L 490.00 152.00 L 490.00 152.50 L 490.00 153.00 L 490.00 153.50 L 490.00 154.00 L 490.00 154.50 L 490.00 155.00 L 490.00 155.50 L 490.00 156.00 L 490.00 156.50 L 490.00 157.00 L 490.00 157.50 L 490.00 158.00 L 490.00 158.50 L 490.00 159.00 L 490.00 159.50 L 490.00 160.00 L 490.00 160.50 L 490.00 161.00 L 490.00 161.50 L 490.00 162.00 L 490.00 162.50 L 490.00 163.00 L 490.00 163.50 L 490.00 164.00 L 490.00 164.50 L 490.00 165.00 L 490.03 165.47 L 490.18 165.82 L 490.53 165.97 L 491.00 166.00 L 491.47 165.97 L 491.82 165.82 L 491.97 165.47 L 492.00 165.00 L 492.00 164.50 L 492.00 164.00 L 492.00 163.50 L 492.00 163.00 L 492.00 162.50 L 492.00 162.00 L 492.00 161.50 L 492.00 161.00 L 492.00 160.50 L 492.00 160.00 L 492.00 159.50 L 492.00 159.00 L 492.00 158.50 L 492.00 158.00 L 492.00 157.50 L 492.00 157.00 L 492.00 156.50 L 492.00 156.00 L 492.00 155.50 L 492.00 155.00 L 492.00 154.50 L 492.00 154.00 L 492.00 153.50 L 492.00 153.00 L 492.00 152.50 L 492.00 152.00 L 491.97 151.53 L 491.82 151.18 L 491.47 151.03 L 491.00 151.00 L 490.53 151.03 Z M 0.18 146.18 L 0.03 146.53 L 0.00 147.00 L 0.00 147.50 L 0.00 148.00 L 0.00 148.50 L 0.00 149.00 L 0.00 149.50 L 0.00 150.00 L 0.00 150.50 L 0.00 151.00 L 0.00 151.50 L 0.00 152.00 L 0.00 152.50 L 0.00 153.00 L 0.00 153.50 L 0.00 154.00 L 0.03 154.47 L 0.18 154.82 L 0.53 154.97 L 1.00 155.00 L 1.50 155.00 L 2.00 155.00 L 2.50 155.00 L 3.00 155.00 L 3.50 155.00 L 4.00 155.00 L 4.47 154.97 L 4.82 154.82 L 4.97 154.47 L 5.00 154.00 L 5.00 153.50 L 5.00 153.00 L 5.00 152.50 L 5.00 152.00 L 5.00 151.50 L 5.00 151.00 L 5.00 150.50 L 5.00 150.00 L 5.00 149.50 L 5.00 149.00 L 5.00 148.50 L 5.00 148.00 L 5.00 147.50 L 5.00 147.00 L 4.97 146.53 L 4.82 146.18 L 4.47 146.03 L 4.00 146.00 L 3.50 146.00 L 3.00 146.00 L 2.50 146.00 L 2.00 146.00 L 1.50 146.00 L 1.00 146.00 L 0.53 146.03 Z M 3.18 125.18 L 3.03 125.53 L 3.00 126.00 L 3.00 126.50 L 3.00 127.00 L 3.00 127.50 L 3.00 128.00 L 3.03 128.47 L 3.18 128.82 L 3.53 128.97 L 4.00 129.00 L 4.47 128.97 L 4.82 128.82 L 4.97 128.47 L 5.00 128.00 L 5.00 127.50 L 5.00 127.00 L 5.00 126.50 L 5.00 126.00 L 4.97 125.53 L 4.82 125.18 L 4.47 125.03 L 4.00 125.00 L 3.53 125.03 Z M 490.18 122.18 L 490.03 122.53 L 490.00 123.00 L 490.00 123.50 L 490.00 124.00 L 490.00 124.50 L 490.00 125.00 L 490.00 125.50 L 490.00 126.00 L 490.03 126.47 L 490.18 126.82 L 490.53 126.97 L 491.00 127.00 L 491.47 126.97 L 491.82 126.82 L 491.97 126.47 L 492.00 126.00 L 492.00 125.50 L 492.00 125.00 L 492.00 124.50 L 492.00 124.00 L 492.00 123.50 L 492.00 123.00 L 491.97 122.53 L 491.82 122.18 L 491.47 122.03 L 491.00 122.00 L 490.53 122.03 Z M 0.18 115.18 L 0.03 115.53 L 0.00 116.00 L 0.00 116.50 L 0.00 117.00 L 0.00 117.50 L 0.00 118.00 L 0.03 118.47 L 0.18 118.82 L 0.53 118.97 L 1.00 119.00 L 1.50 119.00 L 2.00 119.00 L 2.50 119.00 L 3.00 119.00 L 3.50 119.00 L 4.00 119.00 L 4.47 118.97 L 4.82 118.82 L 4.97 118.47 L 5.00 118.00 L 5.00 117.50 L 5.00 117.00 L 5.00 116.50 L 5.00 116.00 L 4.97 115.53 L 4.82 115.18 L 4.47 115.03 L 4.00 115.00 L 3.50 115.00 L 3.00 115.00 L 2.50 115.00 L 2.00 115.00 L 1.50 115.00 L 1.00 115.00 L 0.53 115.03 Z M 474.19 48.19 L 474.03 48.54 L 474.00 49.02 L 474.00 49.53 L 474.00 50.04 L 474.00 50.55 L 474.00 51.07 L 474.00 51.58 L 474.00 52.09 L 474.00 52.60 L 474.01 53.10 L 474.07 53.55 L 474.28 53.85 L 474.67 53.98 L 475.15 54.00 L 475.66 54.00 L 476.17 54.00 L 476.68 54.00 L 477.18 53.98 L 477.61 53.90 L 477.87 53.67 L 477.91 53.28 L 477.75 52.86 L 477.47 52.47 L 477.21 52.07 L 477.06 51.62 L 477.01 51.13 L 477.00 50.62 L 477.00 50.11 L 477.00 49.60 L 477.00 49.09 L 476.97 48.60 L 476.83 48.23 L 476.50 48.05 L 476.04 48.01 L 475.53 48.00 L 475.02 48.00 L 474.54 48.03 Z M 455.20 24.19 L 455.07 24.55 L 455.17 24.99 L 455.42 25.41 L 455.72 25.82 L 455.91 26.26 L 455.99 26.76 L 456.00 27.28 L 456.00 27.81 L 456.00 28.34 L 456.00 28.87 L 456.00 29.40 L 456.00 29.92 L 455.98 30.44 L 455.87 30.93 L 455.62 31.35 L 455.32 31.76 L 455.10 32.19 L 455.02 32.69 L 455.01 33.20 L 455.08 33.70 L 455.27 34.15 L 455.55 34.56 L 455.82 34.98 L 455.96 35.45 L 455.99 35.97 L 456.00 36.49 L 456.00 37.02 L 456.00 37.55 L 456.00 38.08 L 456.00 38.60 L 456.00 39.13 L 456.00 39.66 L 456.00 40.19 L 456.00 40.72 L 456.00 41.25 L 456.00 41.77 L 456.00 42.30 L 456.00 42.83 L 456.03 43.33 L 456.16 43.73 L 456.45 43.90 L 456.78 43.82 L 456.95 43.48 L 456.99 42.99 L 457.00 42.47 L 457.00 41.94 L 457.00 41.42 L 457.00 40.89 L 457.00 40.36 L 457.00 39.83 L 457.00 39.30 L 457.00 38.77 L 457.00 38.25 L 457.00 37.72 L 457.00 37.19 L 457.00 36.66 L 457.00 36.13 L 457.00 35.60 L 457.00 35.08 L 457.02 34.56 L 457.13 34.07 L 457.38 33.65 L 457.68 33.25 L 457.89 32.81 L 457.92 32.34 L 457.76 31.89 L 457.48 31.48 L 457.21 31.06 L 457.06 30.60 L 457.01 30.09 L 457.02 29.57 L 457.13 29.09 L 457.37 28.66 L 457.67 28.26 L 457.89 27.82 L 457.98 27.33 L 458.00 26.81 L 458.00 26.28 L 458.00 25.75 L 458.00 25.23 L 457.98 24.72 L 457.86 24.31 L 457.56 24.08 L 457.10 24.01 L 456.58 24.00 L 456.06 24.00 L 455.56 24.03 Z M 395.06 7.15 L 394.62 7.42 L 394.22 7.79 L 393.82 8.17 L 393.42 8.55 L 392.99 8.83 L 392.49 8.96 L 391.95 9.00 L 391.39 9.00 L 390.86 9.02 L 390.40 9.11 L 390.15 9.37 L 390.17 9.70 L 390.47 9.91 L 390.95 9.99 L 391.49 10.00 L 392.04 10.00 L 392.60 10.00 L 393.15 10.01 L 393.67 10.08 L 394.15 10.27 L 394.57 10.59 L 394.97 10.97 L 395.37 11.35 L 395.78 11.68 L 396.23 11.88 L 396.64 11.85 L 396.89 11.58 L 396.98 11.11 L 397.00 10.58 L 397.00 10.02 L 397.00 9.47 L 396.99 8.92 L 396.93 8.39 L 396.76 7.90 L 396.44 7.50 L 396.03 7.20 L 395.54 7.07 Z M 373.18 0.18 L 373.03 0.53 L 373.00 1.00 L 373.00 1.50 L 373.00 2.00 L 373.00 2.50 L 373.00 3.00 L 373.03 3.47 L 373.18 3.82 L 373.53 3.97 L 374.00 4.00 L 374.50 4.00 L 375.00 4.00 L 375.47 3.97 L 375.82 3.82 L 375.97 3.47 L 376.00 3.00 L 376.00 2.50 L 376.00 2.00 L 376.00 1.50 L 376.00 1.00 L 375.97 0.53 L 375.82 0.18 L 375.47 0.03 L 375.00 0.00 L 374.50 0.00 L 374.00 0.00 L 373.53 0.03 Z" fill="rgb(250,249,249)" fill-rule="evenodd"/>
</svg>