<svg xmlns="http://www.w3.org/2000/svg" width="405" height="249" viewBox="0 0 405 249" role="img" aria-label="02_plates_02">
  <title>02_plates_02</title>
  <path d="M 7.19 152.20 L 7.03 152.57 L 7.00 153.07 L 7.00 153.60 L 7.00 154.14 L 7.00 154.67 L 7.00 155.21 L 7.00 155.74 L 7.02 156.25 L 7.14 156.67 L 7.43 156.89 L 7.85 156.87 L 8.27 156.65 L 8.63 156.31 L 8.88 155.88 L 8.98 155.39 L 9.00 154.86 L 9.00 154.33 L 8.99 153.80 L 8.92 153.29 L 8.73 152.84 L 8.41 152.45 L 8.00 152.17 L 7.55 152.07 Z M 104.19 43.19 L 104.03 43.55 L 104.00 44.04 L 104.00 44.56 L 104.00 45.08 L 104.00 45.60 L 104.00 46.12 L 104.00 46.64 L 104.00 47.17 L 104.00 47.69 L 104.00 48.21 L 104.00 48.73 L 104.02 49.23 L 104.12 49.65 L 104.39 49.90 L 104.83 49.98 L 105.33 50.00 L 105.85 50.00 L 106.35 49.97 L 106.74 49.84 L 106.96 49.53 L 107.11 49.11 L 107.35 48.69 L 107.65 48.29 L 107.88 47.87 L 107.98 47.39 L 108.00 46.88 L 108.00 46.36 L 108.00 45.83 L 108.00 45.31 L 107.98 44.81 L 107.89 44.38 L 107.64 44.11 L 107.21 44.02 L 106.72 43.99 L 106.23 43.91 L 105.79 43.70 L 105.39 43.41 L 104.98 43.16 L 104.54 43.07 Z M 360.20 32.22 L 360.03 32.61 L 359.99 33.14 L 359.91 33.68 L 359.71 34.17 L 359.41 34.61 L 359.13 35.07 L 358.97 35.57 L 358.78 36.07 L 358.48 36.52 L 358.20 36.97 L 358.05 37.48 L 358.01 38.04 L 358.00 38.61 L 357.98 39.17 L 357.91 39.71 L 357.70 40.20 L 357.39 40.64 L 357.13 41.10 L 356.96 41.61 L 356.76 42.10 L 356.46 42.54 L 356.18 43.00 L 356.04 43.51 L 355.99 44.07 L 355.93 44.61 L 355.75 45.11 L 355.42 45.52 L 354.98 45.82 L 354.47 45.96 L 353.91 46.00 L 353.34 46.00 L 352.77 46.00 L 352.20 46.00 L 351.63 46.00 L 351.05 46.00 L 350.48 46.00 L 349.91 46.00 L 349.34 46.00 L 348.77 46.00 L 348.19 46.00 L 347.62 46.00 L 347.05 46.00 L 346.48 46.00 L 345.91 46.00 L 345.34 46.00 L 344.76 46.00 L 344.19 46.00 L 343.62 46.00 L 343.05 46.00 L 342.48 46.00 L 341.90 46.00 L 341.33 46.00 L 340.78 46.03 L 340.34 46.15 L 340.12 46.47 L 340.15 46.91 L 340.41 47.36 L 340.78 47.78 L 341.18 48.18 L 341.60 48.56 L 342.05 48.85 L 342.55 49.03 L 343.04 49.21 L 343.49 49.52 L 343.90 49.90 L 344.31 50.31 L 344.71 50.71 L 345.11 51.11 L 345.52 51.52 L 345.92 51.92 L 346.33 52.33 L 346.73 52.73 L 347.14 53.13 L 347.55 53.52 L 348.00 53.82 L 348.50 54.00 L 348.99 54.17 L 349.44 54.47 L 349.85 54.86 L 350.25 55.26 L 350.62 55.68 L 350.87 56.15 L 350.98 56.68 L 351.00 57.24 L 351.00 57.81 L 350.98 58.38 L 350.86 58.90 L 350.60 59.37 L 350.30 59.81 L 350.09 60.30 L 350.01 60.84 L 350.00 61.40 L 350.00 61.97 L 350.00 62.55 L 349.99 63.11 L 349.92 63.66 L 349.72 64.15 L 349.40 64.58 L 349.01 64.99 L 348.62 65.40 L 348.28 65.84 L 348.08 66.33 L 348.01 66.87 L 348.00 67.44 L 348.00 68.01 L 348.00 68.58 L 348.00 69.15 L 348.00 69.72 L 348.03 70.27 L 348.17 70.70 L 348.52 70.92 L 349.02 70.98 L 349.56 70.94 L 350.06 70.78 L 350.51 70.47 L 350.92 70.08 L 351.33 69.69 L 351.76 69.34 L 352.23 69.11 L 352.76 69.02 L 353.30 68.97 L 353.73 68.82 L 353.97 68.47 L 354.16 68.02 L 354.46 67.57 L 354.84 67.16 L 355.25 66.76 L 355.67 66.39 L 356.13 66.13 L 356.66 66.02 L 357.22 65.98 L 357.75 65.90 L 358.23 65.67 L 358.66 65.33 L 359.07 64.93 L 359.48 64.55 L 359.92 64.23 L 360.42 64.06 L 360.97 64.02 L 361.52 64.05 L 362.03 64.20 L 362.48 64.50 L 362.89 64.89 L 363.30 65.29 L 363.72 65.64 L 364.19 65.90 L 364.69 66.07 L 365.17 66.29 L 365.61 66.59 L 366.07 66.87 L 366.57 67.03 L 367.07 67.22 L 367.52 67.52 L 367.97 67.80 L 368.47 67.98 L 368.97 68.16 L 369.40 68.46 L 369.74 68.87 L 369.95 69.34 L 370.17 69.74 L 370.53 69.97 L 370.99 70.16 L 371.44 70.45 L 371.89 70.75 L 372.37 70.95 L 372.88 71.12 L 373.34 71.38 L 373.78 71.69 L 374.24 71.88 L 374.66 71.84 L 374.88 71.54 L 374.85 71.10 L 374.61 70.65 L 374.30 70.20 L 374.08 69.72 L 373.91 69.22 L 373.67 68.75 L 373.36 68.30 L 373.12 67.83 L 373.02 67.30 L 373.00 66.74 L 373.00 66.17 L 373.00 65.60 L 372.99 65.03 L 372.95 64.47 L 372.79 63.96 L 372.51 63.51 L 372.22 63.06 L 372.06 62.55 L 372.00 62.01 L 371.95 61.46 L 371.79 60.95 L 371.50 60.50 L 371.21 60.04 L 371.05 59.54 L 371.01 58.99 L 371.00 58.42 L 371.00 57.84 L 371.00 57.27 L 371.02 56.71 L 371.12 56.18 L 371.37 55.72 L 371.75 55.35 L 372.21 55.10 L 372.71 54.93 L 373.19 54.70 L 373.62 54.36 L 374.03 53.97 L 374.44 53.56 L 374.84 53.16 L 375.25 52.76 L 375.67 52.39 L 376.13 52.12 L 376.63 51.95 L 377.12 51.75 L 377.55 51.42 L 377.96 51.03 L 378.37 50.63 L 378.77 50.23 L 379.18 49.82 L 379.58 49.42 L 379.99 49.01 L 380.40 48.62 L 380.83 48.29 L 381.31 48.07 L 381.81 47.90 L 382.27 47.64 L 382.64 47.26 L 382.87 46.82 L 382.85 46.39 L 382.58 46.12 L 382.11 46.02 L 381.55 46.00 L 380.98 46.00 L 380.41 46.00 L 379.84 46.00 L 379.27 46.00 L 378.70 46.00 L 378.12 46.00 L 377.55 46.00 L 376.98 46.00 L 376.41 46.00 L 375.84 46.00 L 375.26 46.00 L 374.69 46.00 L 374.12 46.00 L 373.55 46.00 L 372.98 46.00 L 372.41 46.00 L 371.83 46.00 L 371.26 46.00 L 370.69 46.00 L 370.12 46.00 L 369.55 46.00 L 368.98 45.99 L 368.43 45.94 L 367.93 45.77 L 367.48 45.46 L 367.07 45.07 L 366.68 44.66 L 366.33 44.23 L 366.10 43.76 L 366.02 43.22 L 365.98 42.66 L 365.87 42.14 L 365.62 41.67 L 365.32 41.22 L 365.08 40.75 L 364.91 40.24 L 364.68 39.77 L 364.37 39.32 L 364.13 38.86 L 364.02 38.33 L 363.98 37.77 L 363.89 37.24 L 363.67 36.76 L 363.37 36.31 L 363.12 35.84 L 363.02 35.31 L 362.98 34.75 L 362.89 34.22 L 362.66 33.75 L 362.31 33.32 L 361.91 32.91 L 361.50 32.53 L 361.06 32.22 L 360.58 32.09 Z M 180.20 14.20 L 179.98 14.58 L 179.79 15.04 L 179.48 15.46 L 179.07 15.78 L 178.60 15.97 L 178.22 16.19 L 178.04 16.58 L 178.00 17.10 L 178.00 17.66 L 178.02 18.22 L 178.10 18.75 L 178.31 19.22 L 178.62 19.66 L 178.86 20.11 L 178.91 20.61 L 178.76 21.09 L 178.47 21.54 L 178.20 21.98 L 178.09 22.44 L 178.23 22.81 L 178.63 22.96 L 179.14 22.98 L 179.60 22.88 L 179.88 22.59 L 179.98 22.13 L 180.02 21.59 L 180.14 21.08 L 180.42 20.64 L 180.82 20.30 L 181.29 20.09 L 181.82 20.01 L 182.37 19.98 L 182.89 19.87 L 183.35 19.61 L 183.79 19.31 L 184.24 19.07 L 184.65 18.88 L 184.88 18.56 L 184.86 18.12 L 184.62 17.68 L 184.26 17.27 L 183.87 16.86 L 183.49 16.46 L 183.19 16.02 L 183.01 15.53 L 182.84 15.03 L 182.55 14.60 L 182.14 14.27 L 181.66 14.08 L 181.12 14.02 L 180.60 14.04 Z M 163.06 9.14 L 162.63 9.40 L 162.25 9.75 L 161.87 10.13 L 161.49 10.49 L 161.08 10.78 L 160.61 10.94 L 160.10 10.99 L 159.57 11.00 L 159.05 11.00 L 158.55 11.04 L 158.19 11.20 L 158.09 11.53 L 158.26 11.83 L 158.65 11.97 L 159.15 12.00 L 159.68 12.00 L 160.21 12.00 L 160.74 12.00 L 161.27 11.98 L 161.77 11.90 L 162.21 11.70 L 162.62 11.40 L 163.05 11.14 L 163.53 11.03 L 164.05 11.01 L 164.57 11.05 L 165.04 11.19 L 165.46 11.46 L 165.87 11.75 L 166.33 11.93 L 166.84 11.99 L 167.36 12.00 L 167.89 12.00 L 168.40 11.97 L 168.78 11.82 L 168.95 11.46 L 169.00 10.97 L 169.00 10.45 L 168.99 9.93 L 168.92 9.46 L 168.70 9.15 L 168.29 9.02 L 167.78 9.00 L 167.25 9.00 L 166.72 9.00 L 166.19 9.00 L 165.66 9.00 L 165.13 9.00 L 164.60 9.00 L 164.06 9.00 L 163.54 9.02 Z M 140.12 3.30 L 137.39 3.94 L 134.41 4.00 L 131.41 4.00 L 128.41 4.00 L 125.41 4.00 L 122.41 4.00 L 119.40 4.00 L 116.40 4.00 L 113.50 4.25 L 110.77 4.89 L 107.81 5.00 L 104.81 5.00 L 101.81 5.00 L 98.81 5.00 L 95.81 5.00 L 92.80 5.00 L 89.80 5.00 L 86.80 5.00 L 83.80 5.00 L 80.80 5.00 L 77.80 5.00 L 74.79 5.00 L 71.79 5.00 L 68.80 4.99 L 65.95 4.68 L 63.40 4.58 L 60.60 4.97 L 57.61 5.00 L 54.61 5.00 L 51.61 5.00 L 48.63 4.94 L 45.90 4.31 L 43.02 4.01 L 40.02 4.00 L 37.02 4.00 L 34.02 4.00 L 31.01 4.00 L 28.01 4.00 L 25.01 4.00 L 22.01 4.00 L 19.01 4.00 L 16.01 4.00 L 13.01 4.01 L 10.22 4.41 L 8.43 6.35 L 7.22 8.85 L 7.00 11.76 L 7.00 14.76 L 7.00 17.76 L 7.00 20.76 L 7.00 23.76 L 7.00 26.77 L 7.00 29.77 L 7.00 32.77 L 7.00 35.77 L 7.03 38.76 L 7.52 41.56 L 7.97 44.37 L 8.00 47.36 L 8.00 50.36 L 7.94 53.34 L 7.35 56.07 L 7.51 58.69 L 7.27 61.26 L 7.00 64.13 L 7.00 67.13 L 7.00 70.13 L 7.00 73.13 L 7.00 76.14 L 7.00 79.14 L 7.00 82.14 L 7.00 85.14 L 7.00 88.14 L 7.00 91.14 L 7.07 94.07 L 8.33 95.85 L 10.85 96.52 L 13.43 96.26 L 15.90 96.60 L 16.32 98.68 L 14.89 101.02 L 12.69 102.75 L 10.92 104.29 L 9.19 106.10 L 7.39 107.78 L 7.00 110.44 L 7.00 113.43 L 7.00 116.44 L 7.00 119.44 L 7.03 122.40 L 7.54 124.23 L 8.86 122.91 L 10.63 121.58 L 12.47 123.00 L 12.46 125.58 L 12.09 128.37 L 12.69 131.09 L 12.99 133.97 L 12.59 136.73 L 10.57 137.63 L 8.58 136.49 L 7.20 137.35 L 7.00 140.15 L 7.00 143.14 L 7.27 145.81 L 8.95 146.31 L 11.53 145.67 L 12.50 143.78 L 12.43 141.26 L 14.24 139.42 L 15.73 137.24 L 15.49 134.53 L 14.70 131.90 L 14.59 129.36 L 15.24 126.66 L 16.54 124.21 L 18.31 122.29 L 20.05 120.75 L 21.85 119.19 L 23.29 118.25 L 22.51 116.55 L 22.85 113.97 L 22.95 111.05 L 22.19 108.37 L 21.15 105.81 L 21.45 103.05 L 23.08 100.72 L 24.27 98.21 L 25.43 95.69 L 26.89 93.33 L 28.95 91.56 L 29.99 89.16 L 30.82 86.54 L 33.02 85.31 L 35.51 85.47 L 37.08 83.86 L 38.78 81.98 L 41.00 81.71 L 42.31 83.82 L 43.60 86.25 L 43.26 88.80 L 41.55 90.68 L 39.44 91.74 L 38.47 94.06 L 36.89 96.01 L 37.58 96.90 L 39.66 96.15 L 41.11 94.04 L 42.78 92.11 L 44.17 90.07 L 46.09 88.48 L 48.71 88.30 L 51.29 89.21 L 52.88 91.03 L 54.14 92.57 L 55.49 91.36 L 55.58 88.97 L 57.25 86.86 L 58.25 85.33 L 56.76 84.08 L 57.27 82.31 L 58.49 80.83 L 58.80 78.63 L 60.81 77.55 L 62.99 78.40 L 64.97 77.56 L 67.29 76.62 L 68.93 74.76 L 70.81 72.95 L 73.40 72.02 L 76.05 71.16 L 78.33 69.85 L 80.27 68.28 L 82.14 66.80 L 82.64 64.87 L 81.72 65.71 L 79.90 67.53 L 77.34 67.36 L 75.09 65.86 L 74.80 63.74 L 75.85 61.60 L 76.05 58.75 L 76.51 56.08 L 75.38 54.31 L 72.93 54.38 L 71.75 56.33 L 69.94 57.98 L 67.84 59.12 L 68.18 60.70 L 68.03 62.85 L 66.83 65.31 L 65.24 67.48 L 63.36 69.10 L 61.46 68.91 L 60.07 66.65 L 58.74 64.38 L 57.59 62.51 L 58.85 60.74 L 59.13 58.98 L 58.65 56.91 L 60.53 55.24 L 63.14 54.30 L 65.88 53.67 L 68.36 52.40 L 70.75 50.92 L 73.22 49.64 L 75.74 48.48 L 78.54 48.00 L 81.33 47.60 L 83.34 48.07 L 83.56 50.03 L 84.92 49.92 L 86.48 47.85 L 86.52 45.43 L 87.84 43.54 L 89.74 41.85 L 91.19 39.69 L 92.74 37.74 L 94.71 36.20 L 97.29 35.29 L 99.89 34.71 L 101.42 33.04 L 103.07 31.18 L 105.26 30.36 L 107.24 31.35 L 108.72 30.30 L 109.30 27.64 L 110.92 25.88 L 112.14 23.91 L 113.56 21.56 L 115.80 20.56 L 117.67 22.19 L 119.00 24.29 L 121.26 24.47 L 123.64 25.42 L 125.44 27.15 L 125.46 29.56 L 126.24 32.06 L 127.40 34.27 L 129.55 34.48 L 132.17 34.39 L 134.69 34.45 L 137.23 34.72 L 140.08 34.95 L 142.81 34.29 L 145.08 32.97 L 146.52 31.08 L 148.50 30.88 L 149.55 32.96 L 149.83 35.15 L 152.06 36.28 L 154.51 36.21 L 157.03 35.14 L 159.74 34.43 L 162.53 33.98 L 164.52 33.15 L 163.65 31.41 L 162.13 29.21 L 161.52 26.71 L 163.01 25.17 L 165.68 24.44 L 168.50 24.05 L 171.26 24.37 L 173.12 23.79 L 173.84 21.34 L 172.75 19.04 L 170.89 18.99 L 168.61 20.14 L 165.94 20.90 L 163.31 21.70 L 161.38 23.26 L 160.15 25.34 L 159.46 27.87 L 157.41 28.58 L 156.51 26.74 L 157.13 24.11 L 158.27 21.89 L 158.29 19.72 L 156.17 18.23 L 153.27 18.00 L 150.33 17.88 L 148.14 16.58 L 147.16 14.03 L 147.00 11.09 L 147.04 8.11 L 147.52 5.36 L 147.08 3.39 L 144.50 3.00 L 141.53 3.06 Z M 17.13 109.05 L 17.37 108.67 L 17.70 108.34 L 18.09 108.12 L 18.54 108.02 L 19.01 108.00 L 19.49 108.02 L 19.94 108.12 L 20.32 108.36 L 20.65 108.69 L 20.88 109.08 L 20.96 109.51 L 20.87 109.95 L 20.63 110.33 L 20.30 110.66 L 19.91 110.88 L 19.46 110.98 L 18.99 111.00 L 18.51 110.98 L 18.06 110.88 L 17.68 110.64 L 17.35 110.31 L 17.12 109.92 L 17.04 109.49 Z M 21.15 91.06 L 21.44 90.62 L 21.86 90.28 L 22.36 90.08 L 22.91 90.01 L 23.48 90.00 L 24.06 90.01 L 24.61 90.07 L 25.11 90.26 L 25.54 90.59 L 25.83 91.03 L 25.91 91.54 L 25.78 92.04 L 25.47 92.47 L 25.04 92.79 L 24.54 92.98 L 24.03 93.16 L 23.57 93.44 L 23.12 93.74 L 22.62 93.90 L 22.12 93.85 L 21.66 93.59 L 21.31 93.19 L 21.09 92.70 L 21.02 92.15 L 21.03 91.59 Z M 15.13 51.05 L 15.37 50.67 L 15.70 50.34 L 16.09 50.12 L 16.53 50.04 L 16.96 50.13 L 17.34 50.38 L 17.66 50.71 L 17.89 51.10 L 17.98 51.55 L 18.00 52.03 L 17.98 52.51 L 17.87 52.95 L 17.63 53.33 L 17.30 53.66 L 16.91 53.88 L 16.47 53.96 L 16.04 53.87 L 15.66 53.62 L 15.34 53.29 L 15.11 52.90 L 15.02 52.45 L 15.00 51.97 L 15.02 51.49 Z M 19.13 40.05 L 19.37 39.67 L 19.70 39.34 L 20.09 39.12 L 20.54 39.02 L 21.01 39.00 L 21.49 39.02 L 21.94 39.12 L 22.32 39.36 L 22.65 39.69 L 22.88 40.08 L 22.96 40.51 L 22.87 40.95 L 22.63 41.33 L 22.30 41.66 L 21.91 41.88 L 21.46 41.98 L 20.99 42.00 L 20.51 41.98 L 20.06 41.88 L 19.68 41.64 L 19.35 41.31 L 19.12 40.92 L 19.04 40.49 Z M 19.14 35.06 L 19.41 34.64 L 19.80 34.30 L 20.25 34.09 L 20.76 34.02 L 21.29 34.00 L 21.83 34.00 L 22.38 34.00 L 22.92 34.00 L 23.46 34.00 L 24.00 34.00 L 24.54 34.00 L 25.08 34.01 L 25.60 34.06 L 26.07 34.22 L 26.48 34.52 L 26.78 34.93 L 26.94 35.40 L 26.99 35.92 L 26.98 36.45 L 26.86 36.94 L 26.59 37.36 L 26.20 37.70 L 25.75 37.91 L 25.24 37.98 L 24.71 38.00 L 24.17 38.00 L 23.62 38.00 L 23.08 38.00 L 22.54 38.00 L 22.00 38.00 L 21.46 38.00 L 20.92 37.99 L 20.40 37.94 L 19.93 37.78 L 19.52 37.48 L 19.22 37.07 L 19.06 36.60 L 19.01 36.08 L 19.02 35.55 Z M 125.15 19.06 L 125.43 18.62 L 125.84 18.28 L 126.33 18.08 L 126.87 18.01 L 127.43 18.00 L 128.00 18.01 L 128.55 18.05 L 129.05 18.22 L 129.47 18.53 L 129.78 18.95 L 129.92 19.44 L 129.85 19.94 L 129.57 20.38 L 129.16 20.72 L 128.67 20.92 L 128.13 20.99 L 127.57 21.00 L 127.00 20.99 L 126.45 20.95 L 125.95 20.78 L 125.53 20.47 L 125.22 20.05 L 125.08 19.56 Z M 130.13 8.05 L 130.37 7.67 L 130.70 7.34 L 131.09 7.12 L 131.54 7.02 L 132.01 7.00 L 132.49 7.02 L 132.94 7.12 L 133.32 7.36 L 133.65 7.69 L 133.88 8.08 L 133.96 8.51 L 133.87 8.95 L 133.63 9.33 L 133.30 9.66 L 132.91 9.88 L 132.46 9.98 L 131.99 10.00 L 131.51 9.98 L 131.06 9.88 L 130.68 9.64 L 130.35 9.31 L 130.12 8.92 L 130.04 8.49 Z" fill="rgb(26,24,23)" fill-rule="evenodd"/>
  <path d="M 46.21 90.20 L 46.09 90.57 L 46.20 91.04 L 46.48 91.48 L 46.77 91.92 L 46.91 92.40 L 46.86 92.89 L 46.60 93.33 L 46.22 93.68 L 45.75 93.90 L 45.23 93.98 L 44.68 94.00 L 44.12 94.00 L 43.57 94.02 L 43.06 94.14 L 42.61 94.41 L 42.18 94.71 L 41.73 94.94 L 41.32 95.14 L 41.09 95.47 L 41.02 95.95 L 41.05 96.45 L 41.24 96.81 L 41.62 96.91 L 42.08 96.77 L 42.51 96.46 L 42.92 96.08 L 43.31 95.70 L 43.73 95.35 L 44.19 95.11 L 44.71 95.02 L 45.26 95.02 L 45.78 95.11 L 46.25 95.33 L 46.68 95.63 L 47.13 95.89 L 47.63 96.05 L 48.10 96.24 L 48.51 96.56 L 48.81 96.98 L 49.00 97.44 L 49.21 97.81 L 49.60 98.02 L 50.06 98.21 L 50.50 98.50 L 50.94 98.78 L 51.42 98.97 L 51.91 99.13 L 52.36 99.39 L 52.80 99.70 L 53.27 99.91 L 53.79 99.98 L 54.32 99.97 L 54.73 99.83 L 54.91 99.48 L 54.84 99.03 L 54.58 98.59 L 54.28 98.16 L 54.08 97.68 L 54.01 97.15 L 53.97 96.62 L 53.81 96.22 L 53.45 96.00 L 52.99 95.82 L 52.57 95.52 L 52.25 95.11 L 52.07 94.62 L 52.01 94.09 L 52.00 93.53 L 51.99 92.98 L 51.94 92.44 L 51.79 91.94 L 51.50 91.50 L 51.21 91.06 L 51.02 90.60 L 50.81 90.22 L 50.43 90.04 L 49.91 90.00 L 49.35 90.00 L 48.80 90.00 L 48.24 90.00 L 47.68 90.00 L 47.12 90.00 L 46.59 90.04 Z M 38.06 85.16 L 37.61 85.45 L 37.27 85.88 L 37.10 86.37 L 37.15 86.89 L 37.40 87.36 L 37.71 87.82 L 37.94 88.30 L 38.16 88.71 L 38.53 88.97 L 38.99 89.17 L 39.46 89.46 L 39.92 89.76 L 40.43 89.91 L 40.94 89.84 L 41.39 89.55 L 41.73 89.13 L 41.89 88.65 L 41.79 88.24 L 41.44 88.00 L 40.96 87.80 L 40.53 87.47 L 40.21 87.03 L 40.01 86.52 L 39.83 86.01 L 39.51 85.57 L 39.08 85.24 L 38.57 85.09 Z M 61.20 79.22 L 61.04 79.61 L 61.00 80.15 L 61.00 80.72 L 61.00 81.29 L 61.00 81.86 L 61.03 82.42 L 61.15 82.94 L 61.42 83.40 L 61.72 83.85 L 61.90 84.33 L 61.87 84.83 L 61.63 85.29 L 61.25 85.66 L 60.79 85.91 L 60.28 86.07 L 59.81 86.30 L 59.38 86.64 L 58.97 87.03 L 58.56 87.44 L 58.16 87.84 L 57.75 88.24 L 57.33 88.61 L 56.88 88.89 L 56.45 89.08 L 56.16 89.35 L 56.13 89.77 L 56.32 90.23 L 56.63 90.68 L 56.87 91.15 L 56.98 91.67 L 57.00 92.24 L 57.00 92.81 L 57.03 93.35 L 57.19 93.76 L 57.57 93.95 L 58.10 93.99 L 58.67 94.00 L 59.24 94.00 L 59.81 94.00 L 60.38 94.00 L 60.95 93.99 L 61.51 93.95 L 62.02 93.80 L 62.46 93.51 L 62.88 93.12 L 63.28 92.73 L 63.71 92.37 L 64.17 92.11 L 64.67 91.94 L 65.15 91.72 L 65.56 91.38 L 65.86 90.94 L 66.03 90.44 L 66.22 89.95 L 66.53 89.52 L 66.96 89.21 L 67.47 89.05 L 68.02 89.00 L 68.56 88.94 L 69.07 88.78 L 69.52 88.49 L 69.97 88.20 L 70.47 88.08 L 70.97 88.17 L 71.42 88.44 L 71.87 88.74 L 72.36 88.92 L 72.90 88.98 L 73.42 88.95 L 73.79 88.77 L 73.87 88.44 L 73.66 88.15 L 73.21 88.02 L 72.67 87.98 L 72.15 87.87 L 71.68 87.63 L 71.23 87.32 L 70.75 87.10 L 70.21 87.02 L 69.66 86.98 L 69.13 86.87 L 68.66 86.62 L 68.22 86.31 L 67.74 86.10 L 67.20 86.01 L 66.64 85.98 L 66.12 85.87 L 65.67 85.60 L 65.31 85.20 L 65.08 84.73 L 64.91 84.23 L 64.66 83.76 L 64.32 83.33 L 63.92 82.92 L 63.52 82.52 L 63.11 82.11 L 62.72 81.71 L 62.36 81.28 L 62.12 80.81 L 62.02 80.28 L 61.97 79.74 L 61.84 79.31 L 61.53 79.12 Z M 75.06 73.14 L 74.62 73.40 L 74.19 73.71 L 73.74 73.92 L 73.25 74.08 L 72.80 74.30 L 72.37 74.60 L 71.93 74.86 L 71.43 74.98 L 70.89 75.01 L 70.37 75.07 L 69.89 75.24 L 69.49 75.56 L 69.19 75.97 L 69.02 76.45 L 68.87 76.93 L 68.59 77.36 L 68.20 77.70 L 67.74 77.91 L 67.22 77.98 L 66.68 78.00 L 66.14 78.00 L 65.62 78.03 L 65.23 78.18 L 65.10 78.51 L 65.25 78.82 L 65.64 78.97 L 66.16 79.00 L 66.71 79.00 L 67.26 79.00 L 67.81 79.00 L 68.35 79.00 L 68.90 79.00 L 69.45 79.00 L 70.00 79.00 L 70.55 79.00 L 71.10 79.00 L 71.65 79.00 L 72.19 79.00 L 72.74 79.00 L 73.29 79.00 L 73.84 79.00 L 74.38 78.98 L 74.89 78.87 L 75.33 78.63 L 75.76 78.32 L 76.21 78.09 L 76.69 77.94 L 77.16 77.73 L 77.58 77.43 L 78.02 77.16 L 78.50 77.00 L 78.98 76.84 L 79.40 76.55 L 79.73 76.15 L 79.92 75.69 L 79.98 75.17 L 79.97 74.65 L 79.82 74.25 L 79.47 74.06 L 78.97 74.00 L 78.45 73.95 L 77.96 73.80 L 77.53 73.52 L 77.10 73.24 L 76.62 73.07 L 76.09 73.01 L 75.56 73.03 Z M 79.06 61.15 L 78.60 61.41 L 78.16 61.72 L 77.70 61.94 L 77.30 62.15 L 77.05 62.50 L 76.86 62.95 L 76.57 63.38 L 76.16 63.72 L 75.70 63.94 L 75.30 64.15 L 75.11 64.47 L 75.22 64.80 L 75.61 64.96 L 76.14 64.98 L 76.67 64.92 L 77.16 64.72 L 77.59 64.39 L 78.00 64.00 L 78.40 63.60 L 78.80 63.20 L 79.21 62.80 L 79.62 62.42 L 80.06 62.13 L 80.51 61.94 L 80.82 61.71 L 80.85 61.37 L 80.59 61.12 L 80.12 61.02 L 79.58 61.03 Z M 110.22 28.22 L 110.04 28.64 L 110.00 29.20 L 110.00 29.80 L 110.00 30.40 L 109.99 30.99 L 109.93 31.57 L 109.75 32.09 L 109.42 32.55 L 109.01 32.98 L 108.59 33.39 L 108.13 33.73 L 107.64 33.96 L 107.25 34.19 L 107.11 34.58 L 107.24 35.06 L 107.57 35.50 L 108.02 35.82 L 108.53 36.02 L 109.05 36.22 L 109.52 36.52 L 110.00 36.80 L 110.52 36.90 L 111.03 36.78 L 111.50 36.47 L 111.93 36.07 L 112.36 35.64 L 112.78 35.22 L 113.20 34.80 L 113.63 34.37 L 114.05 33.95 L 114.45 33.52 L 114.77 33.05 L 114.90 32.54 L 114.81 32.02 L 114.51 31.55 L 114.11 31.12 L 113.69 30.69 L 113.27 30.27 L 112.85 29.84 L 112.45 29.41 L 112.14 28.95 L 111.93 28.48 L 111.64 28.16 L 111.17 28.03 L 110.64 28.04 Z M 158.21 17.20 L 158.08 17.57 L 158.20 18.02 L 158.49 18.44 L 158.90 18.76 L 159.37 18.93 L 159.90 18.99 L 160.44 18.97 L 160.94 18.86 L 161.38 18.60 L 161.81 18.29 L 162.27 18.11 L 162.76 18.11 L 163.22 18.31 L 163.64 18.61 L 164.08 18.86 L 164.52 18.90 L 164.83 18.71 L 164.90 18.32 L 164.74 17.87 L 164.42 17.47 L 164.00 17.18 L 163.50 17.04 L 162.96 17.00 L 162.41 17.00 L 161.86 17.00 L 161.31 17.00 L 160.76 17.00 L 160.21 17.00 L 159.66 17.00 L 159.11 17.00 L 158.59 17.03 Z M 152.19 12.20 L 151.99 12.56 L 151.82 13.02 L 151.53 13.44 L 151.16 13.84 L 150.78 14.22 L 150.38 14.59 L 149.95 14.86 L 149.51 15.03 L 149.18 15.24 L 149.12 15.57 L 149.33 15.86 L 149.75 15.98 L 150.27 16.00 L 150.82 16.00 L 151.35 16.02 L 151.86 16.12 L 152.31 16.36 L 152.73 16.66 L 153.18 16.89 L 153.68 16.98 L 154.20 16.98 L 154.64 16.87 L 154.90 16.58 L 154.98 16.12 L 154.98 15.60 L 154.87 15.10 L 154.62 14.66 L 154.32 14.24 L 154.10 13.78 L 154.02 13.27 L 153.98 12.75 L 153.86 12.33 L 153.55 12.09 L 153.08 12.02 L 152.58 12.04 Z" fill="rgb(95,92,88)" fill-rule="evenodd"/>
  <path d="M 391.05 202.15 L 390.61 202.41 L 390.17 202.71 L 389.69 202.91 L 389.16 202.99 L 388.61 203.00 L 388.05 203.01 L 387.50 203.04 L 387.00 203.18 L 386.55 203.46 L 386.11 203.75 L 385.63 203.95 L 385.14 204.11 L 384.68 204.37 L 384.25 204.67 L 383.78 204.89 L 383.25 204.98 L 382.70 205.00 L 382.14 205.00 L 381.58 205.00 L 381.02 205.00 L 380.45 205.00 L 379.91 205.02 L 379.44 205.10 L 379.13 205.37 L 379.02 205.81 L 379.00 206.35 L 379.00 206.91 L 379.00 207.48 L 379.00 208.04 L 379.00 208.60 L 378.99 209.15 L 378.91 209.69 L 378.72 210.16 L 378.38 210.57 L 377.96 210.86 L 377.51 211.04 L 377.16 211.28 L 376.95 211.67 L 376.74 212.13 L 376.42 212.56 L 376.04 212.96 L 375.65 213.36 L 375.32 213.78 L 375.10 214.26 L 375.02 214.78 L 375.00 215.34 L 375.00 215.90 L 375.00 216.46 L 374.99 217.02 L 374.94 217.56 L 374.78 218.06 L 374.48 218.49 L 374.10 218.90 L 373.71 219.30 L 373.36 219.71 L 373.12 220.17 L 373.02 220.69 L 373.00 221.25 L 373.00 221.81 L 373.00 222.37 L 373.00 222.93 L 373.00 223.49 L 372.99 224.05 L 372.94 224.59 L 372.77 225.08 L 372.46 225.51 L 372.08 225.92 L 371.68 226.31 L 371.27 226.66 L 370.82 226.91 L 370.40 227.10 L 370.12 227.40 L 370.02 227.86 L 369.98 228.39 L 369.86 228.90 L 369.60 229.36 L 369.23 229.76 L 368.84 230.16 L 368.44 230.56 L 368.04 230.96 L 367.66 231.36 L 367.32 231.78 L 367.10 232.25 L 367.01 232.78 L 366.98 233.32 L 366.88 233.84 L 366.64 234.31 L 366.34 234.74 L 366.11 235.21 L 366.02 235.73 L 366.00 236.29 L 366.00 236.85 L 366.02 237.40 L 366.14 237.91 L 366.41 238.36 L 366.78 238.77 L 367.17 239.17 L 367.54 239.58 L 367.83 240.02 L 367.96 240.52 L 368.00 241.07 L 368.00 241.63 L 367.99 242.19 L 367.91 242.72 L 367.70 243.19 L 367.37 243.62 L 366.98 244.02 L 366.60 244.42 L 366.28 244.85 L 366.08 245.33 L 366.01 245.86 L 366.00 246.42 L 366.01 246.97 L 366.07 247.47 L 366.28 247.83 L 366.69 247.97 L 367.23 248.00 L 367.79 248.00 L 368.35 248.00 L 368.91 248.00 L 369.47 248.00 L 370.03 248.00 L 370.59 248.00 L 371.15 248.00 L 371.72 248.00 L 372.28 248.00 L 372.84 248.00 L 373.40 248.00 L 373.96 248.00 L 374.52 248.00 L 375.08 248.00 L 375.65 248.00 L 376.21 248.00 L 376.77 248.00 L 377.33 248.00 L 377.89 248.00 L 378.45 248.00 L 379.01 248.00 L 379.58 248.00 L 380.14 248.00 L 380.70 248.00 L 381.26 248.00 L 381.82 248.00 L 382.38 248.00 L 382.94 248.00 L 383.50 248.00 L 384.07 248.00 L 384.63 248.00 L 385.17 247.98 L 385.62 247.87 L 385.86 247.61 L 385.82 247.28 L 385.49 247.07 L 385.00 247.00 L 384.46 246.95 L 383.97 246.80 L 383.55 246.49 L 383.23 246.08 L 383.06 245.59 L 383.01 245.05 L 383.04 244.51 L 383.18 244.00 L 383.45 243.55 L 383.75 243.12 L 383.91 242.64 L 383.87 242.14 L 383.63 241.69 L 383.33 241.25 L 383.09 240.79 L 382.93 240.29 L 382.71 239.82 L 382.41 239.39 L 382.15 238.94 L 382.08 238.45 L 382.21 237.96 L 382.51 237.54 L 382.93 237.23 L 383.42 237.06 L 383.96 237.00 L 384.46 236.94 L 384.81 236.74 L 384.90 236.35 L 384.75 235.89 L 384.44 235.47 L 384.06 235.06 L 383.67 234.66 L 383.33 234.24 L 383.09 233.78 L 382.93 233.29 L 382.71 232.82 L 382.40 232.38 L 382.15 231.93 L 382.08 231.44 L 382.21 230.95 L 382.49 230.51 L 382.78 230.06 L 382.94 229.57 L 382.99 229.03 L 383.00 228.47 L 382.98 227.92 L 382.90 227.45 L 382.65 227.12 L 382.24 226.93 L 381.79 226.69 L 381.40 226.34 L 381.14 225.90 L 381.08 225.41 L 381.23 224.93 L 381.53 224.49 L 381.91 224.09 L 382.30 223.69 L 382.65 223.27 L 382.87 222.81 L 382.90 222.32 L 382.72 221.85 L 382.40 221.42 L 382.02 221.02 L 381.63 220.61 L 381.30 220.19 L 381.11 219.72 L 381.12 219.23 L 381.33 218.77 L 381.69 218.39 L 382.13 218.13 L 382.65 218.02 L 383.20 218.00 L 383.76 218.00 L 384.32 218.02 L 384.84 218.12 L 385.29 218.37 L 385.65 218.74 L 385.90 219.20 L 386.07 219.69 L 386.28 220.16 L 386.62 220.56 L 387.05 220.85 L 387.56 220.97 L 388.11 221.00 L 388.67 221.00 L 389.23 221.00 L 389.79 221.00 L 390.35 221.00 L 390.91 221.00 L 391.46 220.97 L 391.97 220.84 L 392.42 220.57 L 392.86 220.27 L 393.34 220.08 L 393.87 220.01 L 394.40 219.97 L 394.78 219.81 L 394.89 219.48 L 394.72 219.15 L 394.33 218.95 L 393.87 218.74 L 393.43 218.44 L 392.98 218.17 L 392.48 218.04 L 391.93 218.00 L 391.37 218.00 L 390.81 218.00 L 390.25 218.00 L 389.69 217.98 L 389.17 217.88 L 388.71 217.65 L 388.27 217.34 L 387.81 217.10 L 387.32 216.94 L 386.85 216.72 L 386.44 216.39 L 386.16 215.96 L 386.03 215.45 L 385.99 214.90 L 385.93 214.37 L 385.74 213.88 L 385.42 213.47 L 384.99 213.18 L 384.49 213.04 L 383.94 213.00 L 383.38 213.00 L 382.83 212.99 L 382.30 212.91 L 381.82 212.71 L 381.42 212.37 L 381.14 211.93 L 381.02 211.42 L 381.00 210.87 L 381.00 210.31 L 381.02 209.75 L 381.11 209.23 L 381.33 208.77 L 381.69 208.38 L 382.14 208.13 L 382.66 208.02 L 383.21 208.00 L 383.77 208.00 L 384.32 207.98 L 384.84 207.88 L 385.30 207.64 L 385.74 207.33 L 386.20 207.10 L 386.70 206.93 L 387.17 206.72 L 387.60 206.41 L 388.05 206.15 L 388.57 206.03 L 389.11 205.99 L 389.65 205.92 L 390.13 205.74 L 390.57 205.44 L 391.01 205.16 L 391.47 204.98 L 391.82 204.75 L 391.97 204.34 L 392.00 203.80 L 392.00 203.25 L 391.97 202.71 L 391.83 202.29 L 391.50 202.10 Z M 393.19 194.19 L 393.03 194.55 L 393.00 195.04 L 393.00 195.56 L 393.00 196.08 L 393.00 196.59 L 393.01 197.10 L 393.08 197.55 L 393.29 197.86 L 393.69 197.98 L 394.19 198.01 L 394.68 198.07 L 395.12 198.25 L 395.50 198.55 L 395.79 198.94 L 395.94 199.39 L 395.99 199.89 L 396.03 200.38 L 396.17 200.76 L 396.50 200.94 L 396.97 200.99 L 397.45 200.97 L 397.81 200.81 L 397.97 200.45 L 398.00 199.96 L 398.00 199.44 L 398.00 198.92 L 398.00 198.41 L 398.00 197.89 L 398.00 197.37 L 398.00 196.85 L 398.00 196.33 L 397.98 195.83 L 397.90 195.39 L 397.66 195.11 L 397.27 194.94 L 396.84 194.74 L 396.44 194.45 L 396.03 194.19 L 395.57 194.05 L 395.07 194.01 L 394.56 194.00 L 394.04 194.00 L 393.55 194.03 Z M 379.22 168.22 L 379.11 168.61 L 379.25 169.09 L 379.55 169.56 L 379.84 170.04 L 380.03 170.56 L 380.23 171.07 L 380.56 171.53 L 380.96 171.96 L 381.39 172.37 L 381.84 172.71 L 382.35 172.89 L 382.87 172.85 L 383.35 172.61 L 383.82 172.30 L 384.30 172.06 L 384.70 171.84 L 384.87 171.51 L 384.72 171.17 L 384.32 170.95 L 383.84 170.72 L 383.37 170.41 L 382.89 170.13 L 382.37 169.94 L 381.87 169.73 L 381.41 169.39 L 380.98 168.98 L 380.55 168.58 L 380.09 168.25 L 379.61 168.11 Z M 6.18 161.18 L 6.03 161.53 L 6.00 162.00 L 6.00 162.50 L 6.00 163.00 L 6.00 163.50 L 6.00 164.00 L 6.00 164.50 L 6.00 165.00 L 6.00 165.50 L 6.00 166.00 L 6.00 166.50 L 6.00 167.00 L 6.00 167.50 L 6.00 168.00 L 6.03 168.47 L 6.18 168.82 L 6.50 168.94 L 6.82 168.82 L 6.97 168.47 L 7.00 168.00 L 7.00 167.50 L 7.00 167.00 L 7.00 166.50 L 7.00 166.00 L 7.00 165.50 L 7.00 165.00 L 7.00 164.50 L 7.00 164.00 L 7.00 163.50 L 7.00 163.00 L 7.00 162.50 L 7.00 162.00 L 6.97 161.53 L 6.82 161.18 L 6.50 161.06 Z M 40.20 134.21 L 40.03 134.59 L 39.99 135.12 L 39.92 135.65 L 39.74 136.13 L 39.44 136.57 L 39.17 137.01 L 39.04 137.52 L 39.00 138.06 L 39.00 138.62 L 39.02 139.16 L 39.12 139.61 L 39.40 139.87 L 39.83 139.87 L 40.26 139.65 L 40.64 139.28 L 40.89 138.84 L 41.06 138.35 L 41.26 137.87 L 41.56 137.43 L 41.83 136.99 L 41.96 136.48 L 41.99 135.94 L 41.94 135.41 L 41.77 134.92 L 41.45 134.51 L 41.04 134.21 L 40.57 134.09 Z M 403.87 129.33 L 403.61 129.43 L 403.31 129.77 L 403.10 130.21 L 403.02 130.70 L 403.00 131.22 L 403.00 131.74 L 403.00 132.27 L 403.00 132.79 L 402.98 133.31 L 402.90 133.80 L 402.68 134.24 L 402.38 134.64 L 402.14 135.06 L 402.07 135.49 L 402.23 135.83 L 402.61 135.97 L 403.10 135.99 L 403.56 135.92 L 403.86 135.69 L 403.98 135.29 L 404.00 134.78 L 404.00 134.26 L 404.00 133.73 L 404.00 133.21 L 404.00 132.68 L 404.00 132.16 L 404.00 131.63 L 404.00 131.10 L 404.00 130.58 L 404.00 130.06 L 403.98 129.58 Z M 25.20 115.20 L 25.04 115.60 L 25.02 116.11 L 25.11 116.57 L 25.37 116.87 L 25.83 116.98 L 26.36 117.02 L 26.87 117.13 L 27.33 117.38 L 27.77 117.68 L 28.23 117.91 L 28.72 118.08 L 29.19 118.30 L 29.63 118.60 L 30.08 118.86 L 30.59 118.97 L 31.13 118.98 L 31.59 118.89 L 31.85 118.63 L 31.83 118.30 L 31.53 118.06 L 31.09 117.88 L 30.65 117.60 L 30.24 117.24 L 29.85 116.84 L 29.45 116.45 L 29.05 116.05 L 28.65 115.67 L 28.23 115.33 L 27.76 115.10 L 27.24 115.02 L 26.68 115.00 L 26.12 115.00 L 25.60 115.04 Z M 256.06 15.15 L 255.62 15.43 L 255.29 15.84 L 255.10 16.32 L 255.13 16.82 L 255.35 17.29 L 255.66 17.73 L 255.91 18.18 L 256.10 18.61 L 256.40 18.86 L 256.83 18.86 L 257.29 18.65 L 257.73 18.34 L 258.18 18.09 L 258.61 17.90 L 258.86 17.60 L 258.86 17.17 L 258.65 16.71 L 258.34 16.27 L 258.09 15.82 L 257.90 15.39 L 257.59 15.12 L 257.12 15.02 L 256.58 15.03 Z M 180.20 6.20 L 180.04 6.57 L 180.01 7.07 L 180.08 7.54 L 180.31 7.86 L 180.70 8.05 L 181.14 8.26 L 181.56 8.55 L 181.99 8.82 L 182.48 8.96 L 183.00 8.99 L 183.54 9.00 L 184.08 9.00 L 184.62 9.00 L 185.15 8.98 L 185.60 8.89 L 185.86 8.65 L 185.85 8.32 L 185.58 8.08 L 185.16 7.90 L 184.73 7.66 L 184.31 7.36 L 183.87 7.11 L 183.39 6.96 L 182.92 6.78 L 182.50 6.50 L 182.07 6.22 L 181.60 6.06 L 181.08 6.01 L 180.58 6.03 Z M 199.18 3.18 L 199.06 3.50 L 199.18 3.82 L 199.53 3.97 L 200.00 4.00 L 200.50 4.00 L 201.00 4.00 L 201.50 4.00 L 202.00 4.00 L 202.50 4.00 L 203.00 4.00 L 203.50 4.00 L 204.00 4.00 L 204.50 4.00 L 205.00 4.00 L 205.50 4.00 L 206.00 4.00 L 206.50 4.00 L 207.00 4.00 L 207.50 4.00 L 208.00 4.00 L 208.47 3.97 L 208.82 3.82 L 208.94 3.50 L 208.82 3.18 L 208.47 3.03 L 208.00 3.00 L 207.50 3.00 L 207.00 3.00 L 206.50 3.00 L 206.00 3.00 L 205.50 3.00 L 205.00 3.00 L 204.50 3.00 L 204.00 3.00 L 203.50 3.00 L 203.00 3.00 L 202.50 3.00 L 202.00 3.00 L 201.50 3.00 L 201.00 3.00 L 200.50 3.00 L 200.00 3.00 L 199.53 3.03 Z" fill="rgb(169,166,162)" fill-rule="evenodd"/>
  <path d="M 394.20 202.20 L 394.04 202.60 L 394.01 203.12 L 394.08 203.65 L 394.26 204.14 L 394.56 204.58 L 394.84 205.02 L 395.01 205.51 L 395.18 206.01 L 395.46 206.45 L 395.75 206.89 L 395.93 207.38 L 395.99 207.92 L 396.03 208.46 L 396.16 208.97 L 396.43 209.42 L 396.73 209.86 L 396.90 210.33 L 396.87 210.82 L 396.64 211.27 L 396.27 211.64 L 395.81 211.88 L 395.29 211.98 L 394.76 212.02 L 394.33 212.15 L 394.07 212.46 L 393.88 212.90 L 393.60 213.34 L 393.21 213.68 L 392.75 213.89 L 392.25 213.89 L 391.79 213.69 L 391.35 213.39 L 390.90 213.12 L 390.40 212.96 L 389.92 212.77 L 389.48 212.48 L 389.03 212.20 L 388.53 212.05 L 387.99 212.01 L 387.43 212.00 L 386.89 212.02 L 386.42 212.11 L 386.15 212.38 L 386.13 212.79 L 386.34 213.24 L 386.69 213.62 L 387.14 213.87 L 387.66 213.98 L 388.21 214.00 L 388.77 214.00 L 389.33 214.02 L 389.85 214.12 L 390.31 214.36 L 390.74 214.67 L 391.21 214.89 L 391.74 214.98 L 392.28 215.02 L 392.81 215.11 L 393.27 215.35 L 393.69 215.70 L 394.09 216.09 L 394.47 216.49 L 394.77 216.93 L 394.96 217.41 L 395.13 217.90 L 395.39 218.36 L 395.69 218.79 L 395.89 219.26 L 395.89 219.75 L 395.69 220.22 L 395.38 220.66 L 395.14 221.11 L 395.09 221.60 L 395.24 222.09 L 395.54 222.52 L 395.92 222.92 L 396.31 223.32 L 396.66 223.74 L 396.88 224.20 L 396.90 224.70 L 396.71 225.17 L 396.38 225.57 L 395.95 225.85 L 395.45 225.92 L 394.96 225.79 L 394.53 225.50 L 394.12 225.12 L 393.72 224.72 L 393.33 224.33 L 392.93 223.93 L 392.53 223.55 L 392.09 223.24 L 391.60 223.07 L 391.06 223.01 L 390.51 223.00 L 389.95 222.99 L 389.41 222.94 L 388.92 222.77 L 388.48 222.48 L 388.03 222.20 L 387.54 222.08 L 387.05 222.16 L 386.60 222.43 L 386.20 222.80 L 385.80 223.20 L 385.43 223.61 L 385.16 224.05 L 385.08 224.54 L 385.20 225.03 L 385.48 225.48 L 385.77 225.92 L 385.94 226.41 L 385.99 226.95 L 385.96 227.49 L 385.82 228.00 L 385.52 228.42 L 385.12 228.75 L 384.66 228.96 L 384.27 229.16 L 384.06 229.53 L 384.02 230.02 L 384.08 230.51 L 384.31 230.84 L 384.74 230.97 L 385.27 231.02 L 385.79 231.11 L 386.25 231.34 L 386.63 231.71 L 386.88 232.16 L 386.98 232.68 L 387.00 233.23 L 387.00 233.79 L 387.00 234.35 L 387.00 234.92 L 387.00 235.48 L 387.00 236.04 L 387.00 236.60 L 387.00 237.16 L 387.00 237.72 L 386.98 238.28 L 386.89 238.80 L 386.66 239.27 L 386.36 239.70 L 386.12 240.17 L 386.02 240.69 L 386.02 241.24 L 386.10 241.76 L 386.32 242.23 L 386.62 242.67 L 386.86 243.12 L 386.91 243.62 L 386.76 244.10 L 386.47 244.54 L 386.19 244.98 L 386.08 245.47 L 386.17 245.97 L 386.44 246.41 L 386.82 246.82 L 387.21 247.21 L 387.62 247.58 L 388.07 247.86 L 388.58 247.97 L 389.12 247.98 L 389.58 247.89 L 389.87 247.62 L 389.98 247.16 L 390.00 246.62 L 389.99 246.06 L 389.94 245.55 L 389.75 245.17 L 389.37 244.97 L 388.91 244.76 L 388.50 244.44 L 388.20 244.02 L 388.08 243.53 L 388.16 243.04 L 388.42 242.59 L 388.72 242.15 L 388.92 241.67 L 388.99 241.14 L 389.00 240.58 L 389.00 240.02 L 389.00 239.46 L 389.01 238.90 L 389.07 238.37 L 389.26 237.88 L 389.58 237.47 L 390.01 237.18 L 390.50 237.08 L 390.99 237.18 L 391.44 237.45 L 391.87 237.74 L 392.36 237.93 L 392.90 237.99 L 393.45 238.00 L 394.00 237.99 L 394.50 237.92 L 394.84 237.70 L 394.97 237.27 L 394.98 236.74 L 394.89 236.22 L 394.67 235.75 L 394.37 235.32 L 394.12 234.86 L 394.02 234.34 L 394.02 233.79 L 394.10 233.26 L 394.31 232.79 L 394.66 232.40 L 395.11 232.13 L 395.62 232.02 L 396.17 232.02 L 396.70 232.09 L 397.17 232.29 L 397.58 232.63 L 397.86 233.07 L 397.98 233.58 L 398.02 234.11 L 398.11 234.58 L 398.38 234.87 L 398.83 234.98 L 399.37 234.98 L 399.88 234.87 L 400.34 234.62 L 400.78 234.31 L 401.25 234.10 L 401.78 234.01 L 402.30 233.97 L 402.72 233.83 L 402.93 233.48 L 402.99 232.97 L 403.00 232.42 L 403.00 231.86 L 403.00 231.30 L 403.00 230.74 L 403.00 230.17 L 403.00 229.61 L 403.00 229.05 L 403.00 228.49 L 403.00 227.93 L 403.00 227.37 L 403.02 226.81 L 403.09 226.28 L 403.30 225.80 L 403.60 225.37 L 403.86 224.91 L 403.98 224.40 L 404.00 223.85 L 404.00 223.29 L 404.00 222.72 L 404.00 222.16 L 404.00 221.60 L 404.00 221.04 L 404.00 220.48 L 404.00 219.92 L 404.00 219.35 L 404.00 218.79 L 404.00 218.23 L 404.00 217.67 L 404.00 217.11 L 404.00 216.55 L 404.00 215.98 L 404.00 215.42 L 404.00 214.86 L 404.00 214.30 L 404.00 213.74 L 404.00 213.17 L 404.00 212.61 L 404.00 212.05 L 403.96 211.51 L 403.82 211.00 L 403.55 210.55 L 403.25 210.11 L 403.07 209.63 L 403.01 209.09 L 403.03 208.55 L 403.16 208.04 L 403.43 207.59 L 403.73 207.15 L 403.90 206.68 L 403.87 206.18 L 403.64 205.73 L 403.27 205.36 L 402.82 205.10 L 402.33 204.94 L 401.86 204.73 L 401.42 204.43 L 400.97 204.16 L 400.48 203.99 L 399.99 203.82 L 399.55 203.52 L 399.14 203.14 L 398.74 202.75 L 398.33 202.39 L 397.88 202.13 L 397.36 202.02 L 396.81 202.00 L 396.25 202.00 L 395.69 202.00 L 395.13 202.00 L 394.60 202.04 Z M 0.18 153.18 L 0.03 153.53 L 0.00 154.00 L 0.00 154.50 L 0.00 155.00 L 0.03 155.47 L 0.18 155.82 L 0.53 155.97 L 1.00 156.00 L 1.50 156.00 L 2.00 156.00 L 2.50 156.00 L 3.00 156.00 L 3.50 156.00 L 4.00 156.00 L 4.47 155.97 L 4.82 155.82 L 4.97 155.47 L 5.00 155.00 L 5.00 154.50 L 5.00 154.00 L 4.97 153.53 L 4.82 153.18 L 4.47 153.03 L 4.00 153.00 L 3.50 153.00 L 3.00 153.00 L 2.50 153.00 L 2.00 153.00 L 1.50 153.00 L 1.00 153.00 L 0.53 153.03 Z M 8.20 127.20 L 8.03 127.58 L 8.00 128.09 L 8.00 128.64 L 8.00 129.18 L 8.00 129.73 L 8.00 130.28 L 8.00 130.82 L 8.03 131.34 L 8.17 131.74 L 8.51 131.97 L 8.95 132.14 L 9.37 132.42 L 9.70 132.81 L 9.93 133.25 L 10.12 133.65 L 10.42 133.88 L 10.84 133.87 L 11.27 133.65 L 11.63 133.30 L 11.87 132.86 L 11.92 132.38 L 11.77 131.91 L 11.49 131.48 L 11.21 131.05 L 11.05 130.57 L 11.01 130.04 L 11.00 129.50 L 10.99 128.96 L 10.95 128.43 L 10.79 127.95 L 10.49 127.54 L 10.09 127.23 L 9.61 127.06 L 9.09 127.01 L 8.58 127.04 Z M 6.20 98.20 L 6.04 98.58 L 6.02 99.08 L 6.09 99.55 L 6.32 99.87 L 6.72 100.06 L 7.16 100.28 L 7.56 100.61 L 7.84 101.03 L 7.93 101.51 L 7.83 101.98 L 7.55 102.40 L 7.15 102.73 L 6.71 102.94 L 6.32 103.13 L 6.09 103.46 L 6.01 103.93 L 6.00 104.47 L 6.01 105.00 L 6.07 105.49 L 6.27 105.82 L 6.65 105.90 L 7.10 105.76 L 7.53 105.47 L 7.96 105.20 L 8.41 105.02 L 8.79 104.82 L 8.96 104.44 L 9.00 103.93 L 9.06 103.41 L 9.22 102.93 L 9.53 102.53 L 9.93 102.22 L 10.40 102.04 L 10.88 101.88 L 11.33 101.63 L 11.75 101.33 L 12.20 101.09 L 12.68 100.94 L 13.14 100.74 L 13.56 100.42 L 13.95 100.05 L 14.33 99.66 L 14.67 99.25 L 14.88 98.81 L 14.87 98.40 L 14.62 98.12 L 14.18 98.02 L 13.65 98.00 L 13.11 98.00 L 12.56 98.00 L 12.01 98.00 L 11.47 98.00 L 10.92 98.00 L 10.37 98.00 L 9.83 98.00 L 9.28 98.00 L 8.73 98.00 L 8.19 98.00 L 7.64 98.00 L 7.10 98.00 L 6.58 98.03 Z M 3.19 74.19 L 3.03 74.54 L 3.00 75.02 L 3.00 75.53 L 3.00 76.04 L 3.00 76.55 L 3.00 77.07 L 3.00 77.58 L 3.00 78.09 L 3.00 78.60 L 3.00 79.11 L 3.00 79.62 L 3.01 80.12 L 3.08 80.56 L 3.29 80.86 L 3.69 80.98 L 4.18 81.00 L 4.68 81.00 L 5.18 80.98 L 5.61 80.90 L 5.88 80.66 L 5.98 80.25 L 6.00 79.76 L 6.00 79.25 L 6.00 78.74 L 6.00 78.23 L 6.00 77.72 L 6.00 77.21 L 6.00 76.69 L 6.00 76.18 L 5.98 75.68 L 5.90 75.20 L 5.70 74.78 L 5.37 74.42 L 4.98 74.15 L 4.52 74.03 L 4.02 74.01 L 3.54 74.03 Z M 79.05 50.13 L 78.65 50.38 L 78.26 50.68 L 77.85 50.90 L 77.44 51.06 L 77.15 51.28 L 77.08 51.65 L 77.21 52.07 L 77.49 52.45 L 77.87 52.75 L 78.30 52.91 L 78.75 52.90 L 79.18 52.72 L 79.57 52.44 L 79.97 52.18 L 80.40 52.02 L 80.76 51.84 L 80.94 51.51 L 80.99 51.06 L 80.97 50.58 L 80.83 50.21 L 80.49 50.04 L 80.02 50.01 L 79.52 50.02 Z M 3.18 49.18 L 3.03 49.53 L 3.00 50.00 L 3.00 50.50 L 3.00 51.00 L 3.00 51.50 L 3.00 52.00 L 3.00 52.50 L 3.00 53.00 L 3.00 53.50 L 3.00 54.00 L 3.00 54.50 L 3.00 55.00 L 3.00 55.50 L 3.00 56.00 L 3.00 56.50 L 3.00 57.00 L 3.00 57.50 L 3.00 58.00 L 3.03 58.47 L 3.18 58.82 L 3.53 58.97 L 4.00 59.00 L 4.50 59.00 L 5.00 59.00 L 5.47 58.97 L 5.82 58.82 L 5.97 58.47 L 6.00 58.00 L 6.00 57.50 L 6.00 57.00 L 6.00 56.50 L 6.00 56.00 L 6.00 55.50 L 6.00 55.00 L 6.00 54.50 L 6.00 54.00 L 6.00 53.50 L 6.00 53.00 L 6.00 52.50 L 6.00 52.00 L 6.00 51.50 L 6.00 51.00 L 6.00 50.50 L 6.00 50.00 L 5.97 49.53 L 5.82 49.18 L 5.47 49.03 L 5.00 49.00 L 4.50 49.00 L 4.00 49.00 L 3.53 49.03 Z M 107.06 39.14 L 106.62 39.40 L 106.20 39.70 L 105.73 39.91 L 105.22 39.99 L 104.70 40.03 L 104.29 40.16 L 104.11 40.46 L 104.20 40.79 L 104.56 40.96 L 105.06 41.00 L 105.59 41.06 L 106.07 41.22 L 106.50 41.50 L 106.93 41.78 L 107.40 41.92 L 107.89 41.86 L 108.32 41.62 L 108.67 41.24 L 108.89 40.79 L 108.98 40.28 L 108.98 39.76 L 108.86 39.33 L 108.55 39.09 L 108.08 39.02 L 107.56 39.03 Z M 95.05 38.16 L 94.60 38.43 L 94.19 38.82 L 93.78 39.22 L 93.41 39.65 L 93.14 40.11 L 93.02 40.64 L 93.00 41.21 L 93.00 41.78 L 93.03 42.33 L 93.19 42.75 L 93.55 42.99 L 94.01 43.19 L 94.44 43.50 L 94.77 43.92 L 94.97 44.39 L 95.19 44.77 L 95.57 44.90 L 96.05 44.78 L 96.50 44.50 L 96.96 44.21 L 97.47 44.05 L 98.01 43.99 L 98.51 43.91 L 98.83 43.67 L 98.88 43.26 L 98.69 42.80 L 98.35 42.37 L 97.95 41.95 L 97.56 41.54 L 97.24 41.10 L 97.04 40.60 L 96.87 40.10 L 96.60 39.63 L 96.29 39.18 L 96.06 38.72 L 95.85 38.31 L 95.51 38.11 Z M 198.15 5.37 L 191.90 8.39 L 185.41 10.71 L 180.96 10.98 L 187.49 11.52 L 193.24 12.59 L 199.81 13.60 L 207.15 14.00 L 214.12 13.27 L 212.49 16.99 L 206.41 18.07 L 200.70 20.50 L 194.72 18.18 L 188.37 18.41 L 185.50 23.76 L 180.50 25.55 L 174.64 28.47 L 171.56 34.66 L 166.39 38.10 L 160.32 37.29 L 153.46 38.82 L 148.27 37.23 L 142.85 36.63 L 136.28 37.52 L 130.74 40.21 L 126.62 43.82 L 123.27 45.17 L 117.46 44.12 L 120.15 40.82 L 122.07 38.19 L 116.66 40.84 L 112.49 40.84 L 111.61 41.18 L 109.83 47.95 L 105.68 52.91 L 99.04 53.00 L 94.27 48.85 L 87.92 49.52 L 82.91 54.08 L 83.96 57.80 L 85.20 63.60 L 83.68 70.43 L 82.25 75.15 L 78.56 79.04 L 76.60 83.58 L 71.09 81.09 L 67.24 82.68 L 72.68 84.03 L 76.45 88.82 L 71.60 91.56 L 66.06 93.90 L 60.49 97.07 L 56.07 101.77 L 49.45 101.71 L 45.66 97.43 L 40.60 100.43 L 37.65 106.06 L 32.45 106.05 L 28.40 106.67 L 26.38 103.12 L 30.49 99.00 L 33.55 93.69 L 36.31 89.92 L 32.28 88.15 L 29.58 94.22 L 25.92 99.73 L 23.12 105.38 L 26.80 109.39 L 32.93 108.65 L 36.22 108.25 L 39.26 110.29 L 36.15 115.65 L 33.51 116.46 L 33.37 119.96 L 28.49 123.33 L 33.04 125.65 L 38.43 123.07 L 39.06 127.70 L 32.20 129.04 L 26.51 131.42 L 21.13 130.44 L 18.87 124.78 L 18.06 129.34 L 17.41 134.44 L 15.43 140.64 L 13.42 146.46 L 9.74 150.16 L 10.04 156.72 L 8.00 163.34 L 8.00 170.85 L 8.02 178.34 L 10.75 184.72 L 16.03 190.03 L 20.73 195.59 L 25.09 200.17 L 30.54 205.06 L 35.31 210.31 L 41.28 214.02 L 48.29 215.21 L 55.38 216.23 L 62.46 217.24 L 69.55 218.26 L 76.73 219.03 L 83.84 220.00 L 90.93 221.00 L 98.00 222.04 L 105.11 223.01 L 112.18 224.05 L 118.93 225.58 L 123.07 226.19 L 130.06 227.00 L 137.08 228.17 L 144.16 229.19 L 151.17 230.39 L 158.25 231.43 L 163.90 233.33 L 170.98 233.48 L 176.82 235.88 L 182.60 236.94 L 188.37 236.39 L 193.75 238.75 L 199.86 237.30 L 206.66 238.92 L 211.72 240.95 L 216.78 240.59 L 223.84 241.65 L 229.59 243.46 L 236.49 243.93 L 243.65 244.78 L 250.73 245.80 L 257.76 246.95 L 265.16 247.19 L 272.33 248.00 L 279.84 248.00 L 287.34 248.00 L 294.85 248.00 L 302.35 248.00 L 309.61 247.52 L 316.53 248.00 L 324.04 248.00 L 331.54 248.00 L 337.63 246.14 L 344.71 247.03 L 351.48 247.30 L 358.49 248.00 L 364.47 245.75 L 363.41 239.22 L 363.12 233.11 L 366.02 226.81 L 370.24 221.46 L 371.74 215.83 L 374.52 210.06 L 377.08 205.26 L 377.19 201.16 L 383.90 201.43 L 389.76 200.86 L 392.21 194.54 L 394.54 188.46 L 396.40 182.90 L 398.81 186.01 L 398.78 192.52 L 401.83 197.95 L 401.52 195.06 L 403.00 188.72 L 403.97 181.62 L 404.00 174.12 L 404.00 166.62 L 404.00 159.11 L 404.00 151.61 L 402.44 145.72 L 402.05 140.52 L 402.08 136.50 L 402.30 130.20 L 403.98 123.39 L 404.00 115.89 L 403.46 108.76 L 404.00 101.71 L 404.00 94.20 L 404.00 86.70 L 404.00 79.19 L 403.80 71.77 L 403.00 64.60 L 403.54 57.50 L 403.07 50.44 L 404.00 43.32 L 404.00 35.82 L 402.58 28.90 L 398.84 22.94 L 394.19 17.60 L 387.35 16.02 L 380.91 14.74 L 375.17 16.00 L 367.67 16.00 L 360.16 16.00 L 353.05 15.05 L 345.59 14.94 L 340.70 14.65 L 333.38 15.00 L 325.88 15.00 L 319.69 13.69 L 315.18 12.78 L 309.83 14.96 L 303.34 17.26 L 298.49 14.97 L 292.73 13.38 L 286.31 15.00 L 278.81 15.00 L 271.34 14.91 L 264.78 15.38 L 260.54 18.11 L 255.23 19.11 L 248.68 17.19 L 243.44 17.94 L 238.62 16.75 L 234.57 16.21 L 234.14 10.86 L 228.96 11.42 L 222.97 9.95 L 216.27 8.01 L 209.73 5.67 L 202.50 5.00 Z M 356.00 239.00 L 356.42 238.61 L 356.86 238.28 L 357.36 238.08 L 357.91 238.02 L 358.47 238.04 L 358.99 238.18 L 359.43 238.49 L 359.76 238.91 L 359.93 239.42 L 359.98 239.97 L 359.95 240.53 L 359.79 241.04 L 359.47 241.47 L 359.04 241.79 L 358.53 241.95 L 357.97 241.99 L 357.39 242.00 L 356.82 241.98 L 356.27 241.90 L 355.79 241.68 L 355.39 241.31 L 355.14 240.86 L 355.10 240.35 L 355.28 239.86 L 355.61 239.42 Z M 332.15 209.06 L 332.43 208.62 L 332.84 208.29 L 333.32 208.10 L 333.82 208.13 L 334.27 208.36 L 334.65 208.74 L 334.89 209.20 L 334.98 209.73 L 335.00 210.29 L 335.00 210.86 L 334.97 211.42 L 334.85 211.94 L 334.57 212.38 L 334.16 212.71 L 333.68 212.90 L 333.18 212.87 L 332.73 212.64 L 332.35 212.26 L 332.11 211.80 L 332.02 211.27 L 332.00 210.71 L 332.00 210.14 L 332.03 209.58 Z M 365.13 186.05 L 365.37 185.67 L 365.70 185.34 L 366.09 185.12 L 366.53 185.04 L 366.96 185.13 L 367.34 185.38 L 367.66 185.71 L 367.89 186.10 L 367.98 186.55 L 368.00 187.03 L 367.98 187.51 L 367.87 187.95 L 367.63 188.33 L 367.30 188.66 L 366.91 188.88 L 366.47 188.96 L 366.04 188.87 L 365.66 188.62 L 365.34 188.29 L 365.11 187.90 L 365.02 187.45 L 365.00 186.97 L 365.02 186.49 Z M 378.17 168.06 L 378.47 167.60 L 378.91 167.25 L 379.44 167.07 L 380.02 167.01 L 380.63 167.00 L 381.23 167.02 L 381.79 167.12 L 382.30 167.38 L 382.75 167.76 L 383.18 168.18 L 383.63 168.57 L 384.12 168.86 L 384.68 168.98 L 385.27 169.02 L 385.83 169.13 L 386.31 169.41 L 386.68 169.82 L 386.88 170.33 L 386.85 170.85 L 386.59 171.34 L 386.20 171.79 L 385.78 172.22 L 385.35 172.65 L 384.92 173.08 L 384.48 173.49 L 384.00 173.80 L 383.45 173.95 L 382.87 173.98 L 382.30 173.90 L 381.78 173.67 L 381.32 173.31 L 380.89 172.89 L 380.46 172.46 L 380.03 172.03 L 379.61 171.59 L 379.27 171.12 L 379.05 170.61 L 378.86 170.08 L 378.57 169.59 L 378.26 169.11 L 378.10 168.59 Z M 13.13 164.05 L 13.37 163.67 L 13.70 163.34 L 14.09 163.12 L 14.53 163.04 L 14.96 163.13 L 15.34 163.38 L 15.66 163.71 L 15.89 164.10 L 15.98 164.55 L 16.00 165.03 L 15.98 165.51 L 15.87 165.95 L 15.63 166.33 L 15.30 166.66 L 14.91 166.88 L 14.47 166.96 L 14.04 166.87 L 13.66 166.62 L 13.34 166.29 L 13.11 165.90 L 13.02 165.45 L 13.00 164.97 L 13.02 164.49 Z M 382.94 159.86 L 383.41 159.58 L 383.86 159.27 L 384.35 159.10 L 384.86 159.14 L 385.33 159.39 L 385.76 159.76 L 386.17 160.17 L 386.58 160.58 L 386.99 160.99 L 387.39 161.41 L 387.72 161.85 L 387.92 162.35 L 387.98 162.90 L 387.96 163.46 L 387.82 163.98 L 387.52 164.44 L 387.13 164.86 L 386.72 165.27 L 386.29 165.63 L 385.81 165.88 L 385.27 165.98 L 384.70 166.00 L 384.12 166.00 L 383.54 166.00 L 382.96 166.00 L 382.38 166.00 L 381.80 166.00 L 381.22 166.00 L 380.64 165.98 L 380.11 165.86 L 379.66 165.58 L 379.30 165.18 L 379.09 164.69 L 379.01 164.14 L 379.00 163.56 L 379.01 162.99 L 379.06 162.43 L 379.24 161.92 L 379.57 161.49 L 380.00 161.18 L 380.51 161.00 L 381.01 160.81 L 381.47 160.52 L 381.93 160.23 L 382.43 160.03 Z M 396.00 149.00 L 396.42 148.60 L 396.86 148.28 L 397.35 148.10 L 397.86 148.14 L 398.33 148.39 L 398.76 148.76 L 399.17 149.17 L 399.55 149.59 L 399.84 150.05 L 399.97 150.58 L 400.00 151.15 L 400.00 151.73 L 399.98 152.30 L 399.87 152.84 L 399.61 153.30 L 399.22 153.67 L 398.76 153.92 L 398.34 154.13 L 398.10 154.48 L 398.01 154.98 L 397.95 155.52 L 397.79 156.04 L 397.47 156.47 L 397.04 156.79 L 396.52 156.95 L 395.96 156.99 L 395.38 157.00 L 394.81 156.98 L 394.26 156.90 L 393.78 156.67 L 393.39 156.30 L 393.13 155.84 L 393.02 155.30 L 393.00 154.73 L 393.00 154.15 L 393.03 153.58 L 393.16 153.05 L 393.45 152.59 L 393.83 152.17 L 394.24 151.76 L 394.61 151.33 L 394.88 150.86 L 395.06 150.35 L 395.27 149.86 L 395.60 149.42 Z M 38.00 134.00 L 38.43 133.59 L 38.89 133.26 L 39.41 133.07 L 39.98 133.02 L 40.55 133.07 L 41.08 133.24 L 41.54 133.57 L 41.97 133.98 L 42.38 134.40 L 42.72 134.86 L 42.92 135.38 L 42.99 135.95 L 43.00 136.54 L 42.98 137.14 L 42.90 137.70 L 42.68 138.21 L 42.32 138.66 L 41.91 139.09 L 41.49 139.51 L 41.06 139.94 L 40.64 140.36 L 40.22 140.78 L 39.79 141.20 L 39.35 141.59 L 38.87 141.86 L 38.32 141.97 L 37.73 141.98 L 37.18 141.87 L 36.70 141.61 L 36.33 141.20 L 36.10 140.70 L 36.01 140.14 L 35.96 139.56 L 35.82 139.02 L 35.53 138.54 L 35.24 138.07 L 35.10 137.55 L 35.18 137.03 L 35.48 136.58 L 35.92 136.24 L 36.40 136.02 L 36.80 135.78 L 37.04 135.38 L 37.26 134.89 L 37.59 134.43 Z M 104.94 125.86 L 105.41 125.58 L 105.86 125.27 L 106.35 125.10 L 106.86 125.14 L 107.31 125.39 L 107.68 125.79 L 107.90 126.27 L 107.98 126.82 L 108.00 127.39 L 108.01 127.97 L 108.05 128.53 L 108.21 129.04 L 108.50 129.50 L 108.79 129.96 L 108.99 130.43 L 109.22 130.81 L 109.62 131.03 L 110.09 131.24 L 110.51 131.57 L 110.82 132.01 L 110.96 132.53 L 110.98 133.09 L 110.92 133.64 L 110.72 134.14 L 110.38 134.56 L 109.94 134.85 L 109.41 134.97 L 108.85 134.98 L 108.30 134.91 L 107.81 134.69 L 107.37 134.35 L 106.96 133.95 L 106.56 133.54 L 106.24 133.09 L 106.04 132.59 L 105.87 132.09 L 105.59 131.62 L 105.29 131.17 L 105.09 130.67 L 105.01 130.13 L 104.96 129.59 L 104.77 129.19 L 104.38 128.97 L 103.91 128.76 L 103.49 128.43 L 103.19 127.99 L 103.09 127.49 L 103.20 126.99 L 103.51 126.55 L 103.94 126.23 L 104.43 126.03 Z M 42.94 112.86 L 43.39 112.60 L 43.81 112.29 L 44.28 112.11 L 44.77 112.11 L 45.23 112.32 L 45.65 112.62 L 46.10 112.87 L 46.61 112.98 L 47.16 113.00 L 47.71 113.00 L 48.26 113.02 L 48.78 113.10 L 49.23 113.33 L 49.61 113.68 L 49.87 114.12 L 49.98 114.63 L 50.00 115.18 L 50.00 115.73 L 50.03 116.26 L 50.15 116.69 L 50.48 116.92 L 50.96 116.99 L 51.49 117.04 L 51.98 117.17 L 52.41 117.46 L 52.73 117.86 L 52.90 118.33 L 52.88 118.81 L 52.65 119.26 L 52.29 119.63 L 51.85 119.88 L 51.33 119.98 L 50.79 119.98 L 50.27 119.91 L 49.80 119.70 L 49.38 119.40 L 48.93 119.14 L 48.42 119.03 L 47.89 119.02 L 47.43 119.10 L 47.13 119.36 L 47.02 119.80 L 47.02 120.33 L 47.12 120.84 L 47.36 121.30 L 47.66 121.73 L 47.88 122.18 L 47.90 122.67 L 47.73 123.14 L 47.41 123.54 L 46.99 123.83 L 46.49 123.96 L 45.95 124.00 L 45.40 124.00 L 44.84 124.00 L 44.29 124.00 L 43.73 124.00 L 43.18 124.00 L 42.64 123.98 L 42.13 123.87 L 41.68 123.62 L 41.33 123.24 L 41.09 122.80 L 40.90 122.38 L 40.60 122.12 L 40.14 122.02 L 39.62 121.98 L 39.11 121.87 L 38.67 121.61 L 38.32 121.22 L 38.10 120.76 L 38.02 120.25 L 38.00 119.70 L 38.00 119.14 L 38.00 118.59 L 38.00 118.04 L 38.04 117.50 L 38.18 117.00 L 38.45 116.56 L 38.74 116.13 L 38.93 115.65 L 38.99 115.12 L 39.02 114.58 L 39.14 114.08 L 39.41 113.64 L 39.80 113.30 L 40.27 113.09 L 40.79 113.02 L 41.34 113.00 L 41.89 113.00 L 42.44 112.98 Z M 113.13 89.05 L 113.37 88.67 L 113.70 88.34 L 114.09 88.12 L 114.53 88.04 L 114.96 88.13 L 115.34 88.38 L 115.66 88.71 L 115.89 89.10 L 115.98 89.55 L 116.00 90.03 L 115.98 90.51 L 115.87 90.95 L 115.63 91.33 L 115.30 91.66 L 114.91 91.88 L 114.47 91.96 L 114.04 91.87 L 113.66 91.62 L 113.34 91.29 L 113.11 90.90 L 113.02 90.45 L 113.00 89.97 L 113.02 89.49 Z M 117.14 73.06 L 117.41 72.64 L 117.80 72.30 L 118.26 72.09 L 118.77 72.02 L 119.30 72.02 L 119.81 72.11 L 120.25 72.34 L 120.62 72.69 L 120.87 73.12 L 120.92 73.60 L 120.78 74.07 L 120.48 74.49 L 120.11 74.88 L 119.73 75.27 L 119.33 75.62 L 118.89 75.86 L 118.41 75.92 L 117.94 75.79 L 117.54 75.49 L 117.23 75.08 L 117.06 74.61 L 117.01 74.09 L 117.02 73.55 Z M 129.00 68.00 L 129.44 67.59 L 129.91 67.25 L 130.45 67.07 L 131.03 67.02 L 131.61 67.08 L 132.13 67.29 L 132.56 67.65 L 132.86 68.12 L 132.97 68.68 L 132.98 69.28 L 132.86 69.84 L 132.59 70.34 L 132.20 70.79 L 131.77 71.22 L 131.32 71.60 L 130.83 71.85 L 130.29 71.88 L 129.79 71.67 L 129.33 71.31 L 128.89 70.89 L 128.48 70.44 L 128.18 69.96 L 128.10 69.43 L 128.26 68.91 L 128.59 68.44 Z M 133.94 60.86 L 134.39 60.60 L 134.81 60.29 L 135.28 60.09 L 135.81 60.02 L 136.35 60.02 L 136.86 60.12 L 137.31 60.36 L 137.74 60.67 L 138.20 60.89 L 138.72 60.98 L 139.26 61.02 L 139.77 61.10 L 140.23 61.33 L 140.61 61.68 L 140.86 62.11 L 140.92 62.60 L 140.77 63.08 L 140.46 63.49 L 140.05 63.79 L 139.56 63.95 L 139.03 63.99 L 138.48 64.00 L 137.92 64.00 L 137.37 64.00 L 136.82 64.01 L 136.30 64.09 L 135.83 64.29 L 135.40 64.59 L 134.95 64.85 L 134.45 64.97 L 133.91 65.00 L 133.35 65.00 L 132.80 65.00 L 132.25 65.00 L 131.69 65.00 L 131.14 65.00 L 130.59 64.98 L 130.09 64.86 L 129.65 64.59 L 129.31 64.21 L 129.10 63.74 L 129.02 63.22 L 129.02 62.68 L 129.12 62.17 L 129.36 61.72 L 129.72 61.36 L 130.17 61.12 L 130.69 61.02 L 131.23 61.00 L 131.79 61.00 L 132.34 61.00 L 132.89 61.00 L 133.44 60.98 Z M 391.14 45.06 L 391.43 44.63 L 391.83 44.29 L 392.29 44.11 L 392.78 44.12 L 393.24 44.34 L 393.62 44.69 L 393.87 45.14 L 393.98 45.65 L 394.00 46.20 L 394.00 46.76 L 394.00 47.32 L 394.00 47.88 L 393.97 48.43 L 393.86 48.94 L 393.57 49.37 L 393.17 49.71 L 392.71 49.89 L 392.22 49.88 L 391.76 49.66 L 391.38 49.31 L 391.13 48.86 L 391.02 48.35 L 391.00 47.80 L 391.00 47.24 L 391.00 46.68 L 391.00 46.12 L 391.03 45.57 Z M 359.14 31.06 L 359.44 30.62 L 359.86 30.28 L 360.35 30.08 L 360.90 30.02 L 361.46 30.04 L 361.98 30.17 L 362.42 30.48 L 362.75 30.90 L 362.95 31.39 L 363.13 31.90 L 363.41 32.36 L 363.78 32.78 L 364.19 33.19 L 364.57 33.61 L 364.85 34.07 L 364.98 34.60 L 365.01 35.16 L 365.09 35.70 L 365.30 36.19 L 365.61 36.64 L 365.87 37.12 L 365.98 37.65 L 366.00 38.22 L 366.00 38.79 L 366.02 39.36 L 366.14 39.89 L 366.41 40.36 L 366.78 40.78 L 367.19 41.19 L 367.57 41.61 L 367.85 42.07 L 367.98 42.59 L 368.02 43.14 L 368.13 43.61 L 368.43 43.89 L 368.91 43.98 L 369.48 44.00 L 370.05 44.00 L 370.63 44.00 L 371.21 44.00 L 371.78 44.00 L 372.36 44.00 L 372.94 44.00 L 373.52 44.00 L 374.10 44.00 L 374.67 44.00 L 375.25 44.00 L 375.83 44.00 L 376.41 44.00 L 376.98 44.00 L 377.56 44.00 L 378.14 44.00 L 378.72 44.00 L 379.29 44.00 L 379.87 44.00 L 380.45 44.00 L 381.03 44.00 L 381.61 44.00 L 382.18 44.00 L 382.76 44.00 L 383.33 44.02 L 383.86 44.13 L 384.32 44.40 L 384.68 44.79 L 384.90 45.28 L 384.98 45.82 L 384.97 46.38 L 384.86 46.91 L 384.58 47.37 L 384.20 47.79 L 383.80 48.20 L 383.38 48.58 L 382.92 48.87 L 382.41 49.04 L 381.92 49.24 L 381.47 49.56 L 381.05 49.95 L 380.65 50.35 L 380.24 50.76 L 379.83 51.17 L 379.42 51.58 L 379.01 51.99 L 378.60 52.40 L 378.19 52.81 L 377.78 53.21 L 377.36 53.59 L 376.90 53.87 L 376.40 54.04 L 375.90 54.24 L 375.45 54.54 L 374.99 54.83 L 374.49 55.01 L 373.98 55.19 L 373.53 55.50 L 373.12 55.89 L 372.72 56.30 L 372.36 56.73 L 372.13 57.20 L 372.11 57.70 L 372.30 58.19 L 372.60 58.64 L 372.86 59.11 L 372.98 59.64 L 373.02 60.20 L 373.10 60.74 L 373.32 61.23 L 373.63 61.68 L 373.87 62.16 L 373.98 62.69 L 374.02 63.25 L 374.11 63.79 L 374.35 64.27 L 374.65 64.72 L 374.88 65.20 L 374.98 65.74 L 375.00 66.31 L 375.00 66.89 L 375.00 67.47 L 375.01 68.04 L 375.07 68.59 L 375.25 69.10 L 375.54 69.55 L 375.83 70.01 L 376.01 70.51 L 376.19 71.02 L 376.48 71.47 L 376.77 71.93 L 376.94 72.44 L 376.98 72.99 L 376.94 73.55 L 376.78 74.05 L 376.46 74.48 L 376.03 74.79 L 375.53 74.92 L 375.03 74.82 L 374.59 74.53 L 374.25 74.11 L 374.04 73.64 L 373.82 73.25 L 373.43 73.05 L 372.90 72.99 L 372.36 72.92 L 371.86 72.73 L 371.41 72.42 L 370.95 72.14 L 370.44 71.97 L 369.95 71.78 L 369.52 71.46 L 369.20 71.03 L 369.00 70.56 L 368.77 70.18 L 368.37 69.97 L 367.90 69.76 L 367.45 69.46 L 366.99 69.17 L 366.49 68.99 L 365.98 68.81 L 365.53 68.52 L 365.07 68.23 L 364.57 68.04 L 364.07 67.86 L 363.61 67.57 L 363.19 67.19 L 362.78 66.78 L 362.36 66.41 L 361.89 66.14 L 361.36 66.02 L 360.79 66.00 L 360.22 66.00 L 359.67 66.03 L 359.25 66.19 L 359.01 66.55 L 358.81 67.02 L 358.49 67.45 L 358.07 67.77 L 357.56 67.94 L 357.02 68.00 L 356.51 68.08 L 356.15 68.31 L 355.94 68.72 L 355.70 69.18 L 355.36 69.62 L 354.97 70.03 L 354.55 70.42 L 354.11 70.74 L 353.61 70.93 L 353.06 71.00 L 352.50 71.05 L 351.99 71.20 L 351.53 71.50 L 351.12 71.89 L 350.70 72.28 L 350.27 72.64 L 349.80 72.88 L 349.26 72.98 L 348.69 73.00 L 348.11 73.00 L 347.55 72.96 L 347.03 72.83 L 346.59 72.53 L 346.26 72.11 L 346.07 71.61 L 346.01 71.06 L 346.00 70.48 L 346.00 69.90 L 346.00 69.33 L 346.00 68.75 L 346.00 68.17 L 346.03 67.60 L 346.14 67.08 L 346.41 66.61 L 346.72 66.16 L 346.94 65.67 L 347.11 65.16 L 347.36 64.69 L 347.67 64.24 L 347.89 63.76 L 347.98 63.22 L 348.00 62.65 L 348.01 62.07 L 348.04 61.51 L 348.19 60.99 L 348.47 60.53 L 348.77 60.08 L 348.96 59.58 L 349.14 59.07 L 349.41 58.61 L 349.72 58.16 L 349.89 57.67 L 349.86 57.17 L 349.62 56.71 L 349.23 56.34 L 348.76 56.09 L 348.26 55.92 L 347.78 55.68 L 347.35 55.33 L 346.93 54.93 L 346.52 54.52 L 346.12 54.12 L 345.71 53.71 L 345.30 53.30 L 344.89 52.89 L 344.48 52.48 L 344.07 52.07 L 343.66 51.66 L 343.26 51.26 L 342.85 50.85 L 342.43 50.46 L 341.98 50.16 L 341.47 49.99 L 340.97 49.80 L 340.52 49.49 L 340.10 49.10 L 339.70 48.70 L 339.29 48.29 L 338.88 47.88 L 338.47 47.47 L 338.06 47.06 L 337.66 46.65 L 337.32 46.21 L 337.12 45.73 L 337.12 45.23 L 337.34 44.76 L 337.71 44.38 L 338.18 44.12 L 338.71 44.02 L 339.28 44.02 L 339.81 44.12 L 340.29 44.36 L 340.74 44.66 L 341.22 44.87 L 341.72 44.88 L 342.21 44.69 L 342.66 44.38 L 343.13 44.13 L 343.66 44.02 L 344.23 44.00 L 344.81 44.00 L 345.39 44.00 L 345.96 44.00 L 346.54 44.00 L 347.12 44.00 L 347.70 44.00 L 348.28 44.00 L 348.85 44.00 L 349.43 44.00 L 350.01 44.00 L 350.59 44.00 L 351.16 44.00 L 351.74 44.00 L 352.32 44.00 L 352.89 43.99 L 353.42 43.95 L 353.82 43.76 L 354.04 43.37 L 354.25 42.89 L 354.55 42.44 L 354.83 41.98 L 355.01 41.48 L 355.19 40.98 L 355.48 40.52 L 355.78 40.06 L 355.97 39.56 L 356.14 39.06 L 356.42 38.60 L 356.73 38.15 L 356.92 37.65 L 356.99 37.10 L 357.00 36.53 L 357.01 35.95 L 357.07 35.40 L 357.25 34.90 L 357.55 34.44 L 357.83 33.98 L 358.01 33.48 L 358.19 32.98 L 358.48 32.52 L 358.78 32.06 L 358.97 31.56 Z M 261.13 19.05 L 261.37 18.67 L 261.70 18.34 L 262.09 18.12 L 262.54 18.02 L 263.01 18.00 L 263.49 18.02 L 263.94 18.12 L 264.32 18.36 L 264.65 18.69 L 264.88 19.08 L 264.96 19.51 L 264.87 19.95 L 264.63 20.33 L 264.30 20.66 L 263.91 20.88 L 263.46 20.98 L 262.99 21.00 L 262.51 20.98 L 262.06 20.88 L 261.68 20.64 L 261.35 20.31 L 261.12 19.92 L 261.04 19.49 Z M 218.15 11.06 L 218.43 10.62 L 218.84 10.28 L 219.33 10.08 L 219.87 10.02 L 220.42 10.03 L 220.94 10.15 L 221.38 10.43 L 221.72 10.84 L 221.94 11.30 L 222.15 11.70 L 222.51 11.92 L 223.01 12.00 L 223.55 12.05 L 224.05 12.22 L 224.47 12.53 L 224.78 12.95 L 224.94 13.45 L 224.98 14.00 L 224.94 14.55 L 224.78 15.05 L 224.47 15.47 L 224.05 15.79 L 223.56 15.97 L 223.06 16.14 L 222.60 16.41 L 222.16 16.72 L 221.67 16.92 L 221.13 16.98 L 220.58 16.97 L 220.06 16.85 L 219.62 16.57 L 219.28 16.16 L 219.06 15.68 L 218.90 15.18 L 218.65 14.71 L 218.34 14.27 L 218.11 13.80 L 218.02 13.27 L 218.00 12.71 L 218.00 12.14 L 218.03 11.58 Z M 209.00 10.00 L 209.42 9.61 L 209.86 9.28 L 210.36 9.08 L 210.91 9.02 L 211.47 9.04 L 211.99 9.18 L 212.43 9.49 L 212.76 9.91 L 212.93 10.42 L 212.98 10.97 L 212.95 11.53 L 212.79 12.04 L 212.47 12.47 L 212.04 12.79 L 211.53 12.95 L 210.97 12.99 L 210.39 13.00 L 209.82 12.98 L 209.27 12.90 L 208.79 12.68 L 208.39 12.31 L 208.14 11.86 L 208.10 11.35 L 208.28 10.86 L 208.61 10.42 Z M 194.18 0.18 L 194.03 0.54 L 194.00 1.01 L 194.00 1.51 L 194.00 2.01 L 194.04 2.48 L 194.20 2.82 L 194.54 2.94 L 194.97 2.86 L 195.37 2.61 L 195.75 2.32 L 196.17 2.10 L 196.63 2.02 L 197.13 2.00 L 197.63 2.00 L 198.14 2.00 L 198.64 2.00 L 199.14 2.00 L 199.65 2.00 L 200.15 2.00 L 200.65 2.00 L 201.16 2.00 L 201.66 2.00 L 202.16 2.00 L 202.67 2.00 L 203.17 2.00 L 203.67 2.00 L 204.18 2.00 L 204.68 2.00 L 205.18 2.00 L 205.69 2.00 L 206.19 2.00 L 206.69 2.00 L 207.20 2.00 L 207.70 2.00 L 208.20 2.00 L 208.71 2.00 L 209.21 2.00 L 209.71 2.00 L 210.22 2.00 L 210.72 2.00 L 211.22 2.00 L 211.73 2.00 L 212.23 2.00 L 212.74 2.00 L 213.24 2.00 L 213.74 2.00 L 214.25 2.00 L 214.75 2.00 L 215.25 2.00 L 215.76 2.00 L 216.26 2.00 L 216.76 2.00 L 217.27 2.00 L 217.77 2.00 L 218.27 2.00 L 218.78 2.00 L 219.28 2.00 L 219.78 2.00 L 220.29 2.00 L 220.79 2.00 L 221.27 1.98 L 221.67 1.88 L 221.91 1.61 L 221.98 1.18 L 221.98 0.71 L 221.87 0.32 L 221.60 0.09 L 221.17 0.01 L 220.68 0.00 L 220.18 0.00 L 219.67 0.00 L 219.17 0.00 L 218.67 0.00 L 218.16 0.00 L 217.66 0.00 L 217.16 0.00 L 216.65 0.00 L 216.15 0.00 L 215.65 0.00 L 215.14 0.00 L 214.64 0.00 L 214.14 0.00 L 213.63 0.00 L 213.13 0.00 L 212.63 0.00 L 212.12 0.00 L 211.62 0.00 L 211.12 0.00 L 210.61 0.00 L 210.11 0.00 L 209.61 0.00 L 209.10 0.00 L 208.60 0.00 L 208.10 0.00 L 207.59 0.00 L 207.09 0.00 L 206.58 0.00 L 206.08 0.00 L 205.58 0.00 L 205.07 0.00 L 204.57 0.00 L 204.07 0.00 L 203.56 0.00 L 203.06 0.00 L 202.56 0.00 L 202.05 0.00 L 201.55 0.00 L 201.05 0.00 L 200.54 0.00 L 200.04 0.00 L 199.54 0.00 L 199.03 0.00 L 198.53 0.00 L 198.03 0.00 L 197.52 0.00 L 197.02 0.00 L 196.52 0.00 L 196.01 0.00 L 195.51 0.00 L 195.01 0.00 L 194.54 0.03 Z M 130.22 0.22 L 130.04 0.63 L 130.03 1.17 L 130.15 1.63 L 130.48 1.90 L 130.99 1.98 L 131.57 2.00 L 132.16 2.00 L 132.76 2.00 L 133.35 2.00 L 133.95 2.00 L 134.54 2.00 L 135.14 2.00 L 135.73 2.00 L 136.32 2.00 L 136.92 2.00 L 137.51 2.00 L 138.11 2.00 L 138.70 2.00 L 139.30 2.00 L 139.89 2.00 L 140.49 2.00 L 141.08 2.00 L 141.68 2.00 L 142.27 2.00 L 142.87 2.00 L 143.46 2.00 L 144.06 2.00 L 144.65 2.00 L 145.24 2.00 L 145.84 2.00 L 146.43 2.00 L 147.03 2.00 L 147.62 2.00 L 148.22 2.00 L 148.81 2.00 L 149.41 2.00 L 150.00 2.00 L 150.60 2.00 L 151.18 2.02 L 151.74 2.11 L 152.23 2.34 L 152.62 2.72 L 152.86 3.20 L 152.88 3.72 L 152.67 4.20 L 152.30 4.61 L 151.83 4.87 L 151.28 4.98 L 150.70 5.02 L 150.15 5.13 L 149.68 5.40 L 149.32 5.81 L 149.12 6.28 L 149.19 6.70 L 149.52 6.96 L 149.99 7.17 L 150.46 7.46 L 150.93 7.77 L 151.45 7.94 L 152.02 8.00 L 152.59 8.07 L 153.10 8.26 L 153.57 8.56 L 154.05 8.84 L 154.59 8.97 L 155.18 9.00 L 155.77 9.00 L 156.35 8.98 L 156.90 8.86 L 157.38 8.59 L 157.85 8.28 L 158.33 8.05 L 158.74 7.82 L 158.99 7.44 L 159.20 6.97 L 159.53 6.53 L 159.98 6.21 L 160.50 6.05 L 161.06 5.99 L 161.55 5.88 L 161.83 5.63 L 161.80 5.29 L 161.46 5.08 L 160.94 5.01 L 160.35 5.00 L 159.76 5.00 L 159.17 5.00 L 158.57 5.00 L 157.98 5.00 L 157.38 5.00 L 156.79 5.00 L 156.19 5.00 L 155.61 4.97 L 155.07 4.85 L 154.61 4.55 L 154.27 4.12 L 154.10 3.61 L 154.16 3.10 L 154.43 2.64 L 154.86 2.29 L 155.36 2.08 L 155.93 2.01 L 156.52 2.00 L 157.11 2.00 L 157.71 2.00 L 158.30 2.00 L 158.90 2.00 L 159.49 2.00 L 160.09 2.00 L 160.68 2.00 L 161.28 2.00 L 161.87 2.00 L 162.47 2.00 L 163.06 2.00 L 163.66 2.00 L 164.25 2.00 L 164.84 2.00 L 165.44 2.00 L 166.03 2.00 L 166.63 2.00 L 167.22 2.00 L 167.82 2.00 L 168.41 2.00 L 169.01 2.00 L 169.60 2.00 L 170.20 2.00 L 170.79 2.00 L 171.39 2.00 L 171.98 2.00 L 172.58 2.00 L 173.17 2.00 L 173.76 2.00 L 174.36 2.00 L 174.95 2.00 L 175.55 2.00 L 176.14 2.02 L 176.70 2.10 L 177.19 2.32 L 177.60 2.69 L 177.86 3.16 L 177.89 3.67 L 177.70 4.17 L 177.34 4.58 L 176.87 4.86 L 176.32 4.98 L 175.74 5.00 L 175.14 5.00 L 174.55 5.00 L 173.97 5.02 L 173.47 5.11 L 173.15 5.38 L 173.03 5.85 L 173.04 6.38 L 173.23 6.79 L 173.65 6.96 L 174.21 7.00 L 174.80 7.00 L 175.40 7.00 L 175.99 6.99 L 176.56 6.94 L 177.08 6.76 L 177.55 6.46 L 178.02 6.17 L 178.54 5.98 L 179.05 5.78 L 179.52 5.48 L 180.00 5.19 L 180.53 5.04 L 181.11 5.01 L 181.70 5.00 L 182.30 5.00 L 182.89 5.01 L 183.47 5.04 L 184.00 5.19 L 184.48 5.48 L 184.95 5.78 L 185.48 5.94 L 186.05 6.00 L 186.61 6.08 L 187.13 6.27 L 187.59 6.57 L 188.07 6.84 L 188.59 6.90 L 189.09 6.75 L 189.53 6.41 L 189.82 5.97 L 189.88 5.51 L 189.67 5.18 L 189.25 5.13 L 188.78 5.32 L 188.31 5.63 L 187.83 5.86 L 187.31 5.88 L 186.81 5.69 L 186.34 5.39 L 185.85 5.13 L 185.30 5.02 L 184.73 4.98 L 184.18 4.87 L 183.70 4.61 L 183.33 4.21 L 183.12 3.72 L 183.14 3.20 L 183.37 2.73 L 183.77 2.35 L 184.26 2.11 L 184.81 2.02 L 185.40 2.00 L 186.00 2.00 L 186.59 2.00 L 187.18 2.00 L 187.78 2.00 L 188.37 2.00 L 188.96 1.99 L 189.48 1.92 L 189.83 1.67 L 189.97 1.22 L 189.96 0.69 L 189.80 0.26 L 189.41 0.06 L 188.86 0.01 L 188.27 0.00 L 187.68 0.00 L 187.09 0.00 L 186.49 0.00 L 185.90 0.00 L 185.30 0.00 L 184.71 0.00 L 184.11 0.00 L 183.52 0.00 L 182.92 0.00 L 182.33 0.00 L 181.73 0.00 L 181.14 0.00 L 180.54 0.00 L 179.95 0.00 L 179.35 0.00 L 178.76 0.00 L 178.17 0.00 L 177.57 0.00 L 176.98 0.00 L 176.38 0.00 L 175.79 0.00 L 175.19 0.00 L 174.60 0.00 L 174.00 0.00 L 173.41 0.00 L 172.81 0.00 L 172.22 0.00 L 171.62 0.00 L 171.03 0.00 L 170.44 0.00 L 169.84 0.00 L 169.25 0.00 L 168.65 0.00 L 168.06 0.00 L 167.46 0.00 L 166.87 0.00 L 166.27 0.00 L 165.68 0.00 L 165.08 0.00 L 164.49 0.00 L 163.89 0.00 L 163.30 0.00 L 162.71 0.00 L 162.11 0.00 L 161.52 0.00 L 160.92 0.00 L 160.33 0.00 L 159.73 0.00 L 159.14 0.00 L 158.54 0.00 L 157.95 0.00 L 157.35 0.00 L 156.76 0.00 L 156.16 0.00 L 155.57 0.00 L 154.97 0.00 L 154.38 0.00 L 153.79 0.00 L 153.19 0.00 L 152.60 0.00 L 152.00 0.00 L 151.41 0.00 L 150.81 0.00 L 150.22 0.00 L 149.62 0.00 L 149.03 0.00 L 148.43 0.00 L 147.84 0.00 L 147.24 0.00 L 146.65 0.00 L 146.06 0.00 L 145.46 0.00 L 144.87 0.00 L 144.27 0.00 L 143.68 0.00 L 143.08 0.00 L 142.49 0.00 L 141.89 0.00 L 141.30 0.00 L 140.70 0.00 L 140.11 0.00 L 139.51 0.00 L 138.92 0.00 L 138.32 0.00 L 137.73 0.00 L 137.14 0.00 L 136.54 0.00 L 135.95 0.00 L 135.35 0.00 L 134.76 0.00 L 134.16 0.00 L 133.57 0.00 L 132.97 0.00 L 132.38 0.00 L 131.78 0.00 L 131.19 0.00 L 130.63 0.04 Z" fill="rgb(234,232,228)" fill-rule="evenodd"/>
</svg>