<svg xmlns="http://www.w3.org/2000/svg" width="427" height="249" viewBox="0 0 427 249" role="img" aria-label="03_plates_03">
  <title>03_plates_03</title>
  <path d="M 308.06 246.14 L 307.64 246.41 L 307.31 246.78 L 307.11 247.21 L 307.13 247.62 L 307.38 247.88 L 307.81 247.98 L 308.33 248.00 L 308.86 248.00 L 309.40 248.00 L 309.93 248.00 L 310.47 248.00 L 310.99 247.99 L 311.48 247.95 L 311.82 247.77 L 311.90 247.44 L 311.71 247.14 L 311.33 246.96 L 310.89 246.76 L 310.47 246.48 L 310.05 246.20 L 309.58 246.05 L 309.07 246.01 L 308.54 246.02 Z M 412.69 159.49 L 412.60 160.35 L 413.17 161.35 L 413.98 162.27 L 414.60 163.32 L 414.61 164.50 L 413.96 165.31 L 412.97 165.36 L 412.05 164.88 L 411.30 164.72 L 410.70 165.37 L 410.25 166.55 L 410.04 167.95 L 409.94 169.40 L 409.60 170.71 L 408.76 171.63 L 407.61 172.24 L 406.65 173.01 L 406.15 174.19 L 405.95 175.59 L 405.70 176.96 L 405.46 178.24 L 405.49 179.49 L 405.48 180.69 L 404.96 181.71 L 404.13 182.60 L 403.24 183.56 L 402.26 184.48 L 401.28 185.33 L 400.41 186.31 L 399.44 187.23 L 398.34 187.93 L 397.45 188.66 L 396.99 189.76 L 396.65 191.07 L 396.32 192.39 L 396.33 193.71 L 396.67 195.03 L 396.92 196.42 L 397.00 197.89 L 397.08 199.33 L 397.43 200.54 L 398.16 201.51 L 398.98 202.52 L 399.82 203.64 L 400.79 204.70 L 401.89 205.61 L 402.94 206.44 L 403.61 207.48 L 403.64 208.72 L 403.16 209.96 L 402.43 211.07 L 401.44 211.93 L 400.22 212.53 L 398.88 212.82 L 397.51 212.74 L 396.18 212.43 L 394.90 212.34 L 393.79 212.81 L 392.90 213.75 L 392.00 214.80 L 390.90 215.62 L 389.64 216.18 L 388.40 216.78 L 387.20 217.36 L 386.01 217.41 L 384.88 216.78 L 383.83 215.79 L 382.95 214.69 L 382.55 213.54 L 382.84 212.38 L 383.33 211.28 L 383.24 210.40 L 382.37 209.83 L 381.14 209.35 L 379.83 208.89 L 378.57 208.32 L 377.37 207.71 L 376.16 207.49 L 374.89 207.72 L 373.53 207.88 L 372.19 207.73 L 371.09 207.55 L 370.45 207.91 L 370.54 208.74 L 371.17 209.66 L 371.71 210.77 L 371.74 212.05 L 371.20 213.13 L 370.13 213.75 L 368.77 213.91 L 367.44 213.67 L 366.35 213.01 L 365.49 212.13 L 364.77 211.20 L 364.59 210.20 L 365.20 209.35 L 366.10 208.71 L 366.51 208.00 L 366.10 207.29 L 365.14 206.68 L 364.14 205.93 L 363.22 205.11 L 362.17 204.56 L 361.14 204.59 L 360.66 205.17 L 361.06 205.84 L 361.92 206.51 L 362.46 207.44 L 362.34 208.62 L 361.79 209.85 L 361.02 211.02 L 360.31 212.23 L 359.83 213.51 L 359.53 214.74 L 359.66 215.79 L 360.20 216.72 L 360.43 217.76 L 359.94 218.87 L 358.99 219.89 L 357.81 220.63 L 356.54 221.04 L 355.48 221.54 L 354.79 222.45 L 354.03 223.27 L 353.04 223.40 L 352.12 222.95 L 351.44 222.74 L 350.90 223.32 L 350.19 224.18 L 349.15 224.63 L 348.05 224.37 L 347.27 223.46 L 346.72 222.25 L 346.09 221.18 L 345.28 220.60 L 344.21 220.65 L 342.95 220.94 L 341.84 221.39 L 341.18 222.26 L 340.72 223.42 L 340.01 224.42 L 339.07 225.13 L 338.42 225.94 L 338.36 227.05 L 338.49 228.23 L 338.12 229.26 L 337.18 230.04 L 336.00 230.52 L 334.80 230.57 L 333.80 230.62 L 333.19 231.27 L 332.82 232.43 L 332.54 233.64 L 332.72 234.49 L 333.59 234.68 L 334.83 234.42 L 336.09 234.34 L 337.10 234.81 L 337.43 235.75 L 337.04 236.88 L 336.54 238.04 L 336.51 239.29 L 336.82 240.58 L 337.21 241.79 L 337.88 242.68 L 338.92 243.32 L 340.09 244.02 L 341.31 244.61 L 342.58 244.63 L 343.81 244.10 L 344.99 243.56 L 346.24 243.50 L 347.54 243.80 L 348.87 244.13 L 349.97 244.66 L 350.40 245.53 L 349.98 246.42 L 349.14 247.05 L 348.78 247.53 L 349.39 247.85 L 350.66 247.98 L 352.13 248.00 L 353.63 248.00 L 355.13 248.00 L 356.63 248.00 L 358.13 248.00 L 359.63 248.00 L 361.13 248.00 L 362.63 248.00 L 364.13 248.00 L 365.63 248.00 L 367.13 248.00 L 368.63 248.00 L 370.13 248.00 L 371.63 248.00 L 373.13 248.00 L 374.64 248.00 L 376.14 248.00 L 377.64 248.00 L 379.14 248.00 L 380.64 248.00 L 382.12 247.98 L 383.51 247.87 L 384.55 247.38 L 385.25 246.46 L 386.08 245.58 L 387.27 245.19 L 388.54 245.37 L 389.52 246.08 L 390.23 247.03 L 391.10 247.70 L 392.36 247.95 L 393.82 248.00 L 395.32 248.00 L 396.82 248.00 L 398.32 248.00 L 399.82 248.00 L 401.32 248.00 L 402.82 248.00 L 404.32 248.00 L 405.81 247.99 L 407.23 247.92 L 408.29 247.52 L 408.61 246.63 L 408.19 245.49 L 407.31 244.41 L 406.20 243.52 L 404.99 242.83 L 403.71 242.30 L 402.37 241.95 L 401.15 241.49 L 400.35 240.55 L 400.03 239.23 L 399.82 237.82 L 399.55 236.49 L 399.55 235.30 L 400.23 234.45 L 401.45 234.03 L 402.77 233.67 L 403.89 233.05 L 404.66 232.16 L 405.11 231.00 L 405.65 229.77 L 406.54 228.76 L 407.68 227.96 L 408.90 227.29 L 410.14 226.68 L 411.38 226.05 L 412.57 225.41 L 413.48 224.63 L 413.84 223.49 L 413.72 222.18 L 413.49 220.95 L 413.77 219.96 L 414.65 219.58 L 415.75 219.99 L 416.79 220.90 L 417.55 222.07 L 417.89 223.41 L 417.84 224.81 L 417.41 226.04 L 416.68 227.05 L 415.86 227.98 L 415.02 228.88 L 414.42 229.72 L 414.39 230.27 L 414.80 230.02 L 415.39 229.17 L 416.26 228.58 L 417.34 228.78 L 418.20 229.63 L 418.45 230.73 L 418.05 231.69 L 417.73 232.39 L 418.15 232.95 L 419.00 233.60 L 419.47 234.56 L 419.40 235.76 L 419.28 237.07 L 419.43 238.37 L 419.48 239.58 L 419.00 240.61 L 418.17 241.50 L 417.35 242.52 L 416.58 243.67 L 415.83 244.85 L 415.07 245.98 L 414.63 246.97 L 415.02 247.66 L 416.10 247.88 L 417.27 247.62 L 418.22 246.92 L 419.07 246.05 L 419.78 245.07 L 420.34 243.92 L 420.96 242.71 L 421.67 241.50 L 422.37 240.29 L 422.82 238.98 L 422.97 237.54 L 423.00 236.05 L 423.00 234.55 L 423.00 233.05 L 423.00 231.55 L 423.00 230.05 L 423.00 228.55 L 423.00 227.05 L 423.00 225.55 L 423.00 224.05 L 423.00 222.55 L 423.00 221.05 L 423.00 219.55 L 423.00 218.05 L 423.00 216.55 L 423.00 215.04 L 423.00 213.54 L 423.00 212.04 L 423.00 210.54 L 423.00 209.05 L 422.97 207.58 L 422.77 206.28 L 422.14 205.43 L 421.03 205.21 L 419.77 205.50 L 418.69 206.15 L 417.80 207.05 L 416.83 207.98 L 415.64 208.67 L 414.30 209.04 L 412.94 209.32 L 411.69 209.50 L 410.54 209.15 L 409.68 208.23 L 409.35 207.01 L 409.65 205.77 L 410.45 204.62 L 411.46 203.54 L 412.52 202.48 L 413.58 201.42 L 414.60 200.34 L 415.49 199.21 L 416.27 198.03 L 417.17 196.91 L 418.23 195.92 L 419.37 195.07 L 420.54 194.29 L 421.66 193.50 L 422.53 192.61 L 422.91 191.42 L 422.93 190.04 L 422.60 188.88 L 421.74 188.23 L 420.48 187.96 L 419.14 187.62 L 417.91 186.96 L 416.69 186.28 L 415.46 185.72 L 414.44 184.93 L 413.70 183.83 L 413.06 182.61 L 412.50 181.34 L 412.15 179.99 L 411.97 178.56 L 411.70 177.17 L 411.35 175.86 L 411.36 174.60 L 411.98 173.54 L 412.91 172.66 L 413.65 171.61 L 413.98 170.28 L 414.23 168.91 L 414.84 167.83 L 415.91 167.27 L 417.24 167.23 L 418.58 167.53 L 419.95 167.83 L 421.31 167.89 L 422.32 167.55 L 422.52 166.86 L 421.87 166.39 L 420.76 166.41 L 419.59 166.48 L 418.73 165.99 L 418.49 164.97 L 418.79 163.74 L 419.27 162.50 L 420.04 161.47 L 421.09 160.71 L 422.01 160.02 L 422.24 159.46 L 421.57 159.30 L 420.38 159.55 L 419.02 159.84 L 417.60 159.91 L 416.21 159.70 L 414.89 159.31 L 413.59 159.14 Z M 341.13 234.05 L 341.37 233.67 L 341.70 233.34 L 342.09 233.12 L 342.53 233.04 L 342.96 233.13 L 343.34 233.38 L 343.66 233.71 L 343.89 234.10 L 343.98 234.55 L 344.00 235.03 L 343.98 235.51 L 343.87 235.95 L 343.63 236.33 L 343.30 236.66 L 342.91 236.88 L 342.47 236.96 L 342.04 236.87 L 341.66 236.62 L 341.34 236.29 L 341.11 235.90 L 341.02 235.45 L 341.00 234.97 L 341.02 234.49 Z M 340.13 228.05 L 340.37 227.67 L 340.70 227.34 L 341.09 227.12 L 341.54 227.02 L 342.01 227.00 L 342.49 227.02 L 342.94 227.12 L 343.32 227.36 L 343.65 227.69 L 343.88 228.08 L 343.96 228.51 L 343.87 228.95 L 343.63 229.33 L 343.30 229.66 L 342.91 229.88 L 342.46 229.98 L 341.99 230.00 L 341.51 229.98 L 341.06 229.88 L 340.68 229.64 L 340.35 229.31 L 340.12 228.92 L 340.04 228.49 Z M 407.00 198.00 L 407.39 197.63 L 407.80 197.30 L 408.25 197.11 L 408.73 197.11 L 409.19 197.29 L 409.58 197.62 L 409.85 198.05 L 409.97 198.54 L 409.99 199.07 L 409.94 199.59 L 409.78 200.07 L 409.48 200.48 L 409.07 200.78 L 408.59 200.94 L 408.07 200.99 L 407.54 200.97 L 407.05 200.85 L 406.62 200.58 L 406.29 200.19 L 406.11 199.73 L 406.11 199.25 L 406.30 198.80 L 406.63 198.39 Z" fill="rgb(107,2,2)" fill-rule="evenodd"/>
  <path d="M 345.05 244.13 L 344.66 244.39 L 344.33 244.74 L 344.11 245.16 L 344.02 245.63 L 344.01 246.13 L 344.08 246.57 L 344.30 246.86 L 344.69 246.98 L 345.18 247.00 L 345.69 247.00 L 346.19 246.99 L 346.68 246.93 L 347.12 246.76 L 347.49 246.47 L 347.78 246.09 L 347.92 245.66 L 347.85 245.29 L 347.57 245.06 L 347.17 244.91 L 346.76 244.69 L 346.37 244.39 L 345.96 244.14 L 345.51 244.05 Z M 414.21 220.21 L 414.09 220.58 L 414.22 221.06 L 414.50 221.50 L 414.79 221.96 L 414.95 222.46 L 414.99 223.01 L 415.00 223.58 L 414.99 224.15 L 414.91 224.69 L 414.71 225.17 L 414.36 225.58 L 413.92 225.87 L 413.42 226.04 L 412.93 226.22 L 412.48 226.52 L 412.03 226.81 L 411.56 227.00 L 411.19 227.22 L 410.97 227.61 L 410.77 228.08 L 410.45 228.50 L 410.02 228.80 L 409.51 228.95 L 408.95 228.99 L 408.39 229.00 L 407.82 229.02 L 407.28 229.10 L 406.80 229.31 L 406.41 229.66 L 406.14 230.11 L 406.02 230.64 L 406.00 231.20 L 406.00 231.77 L 405.98 232.33 L 405.87 232.86 L 405.61 233.31 L 405.22 233.67 L 404.76 233.91 L 404.26 234.08 L 403.78 234.31 L 403.34 234.62 L 402.87 234.87 L 402.34 234.98 L 401.78 235.00 L 401.21 235.00 L 400.67 235.03 L 400.26 235.18 L 400.10 235.54 L 400.19 236.00 L 400.46 236.45 L 400.76 236.90 L 400.93 237.40 L 400.99 237.95 L 401.00 238.51 L 401.00 239.08 L 401.00 239.65 L 401.02 240.20 L 401.15 240.65 L 401.46 240.90 L 401.95 240.99 L 402.51 241.00 L 403.07 241.01 L 403.62 241.07 L 404.12 241.25 L 404.56 241.55 L 405.02 241.83 L 405.52 242.01 L 406.01 242.19 L 406.46 242.49 L 406.87 242.87 L 407.27 243.27 L 407.68 243.68 L 408.08 244.08 L 408.49 244.49 L 408.89 244.89 L 409.29 245.30 L 409.64 245.72 L 409.90 246.17 L 410.10 246.60 L 410.40 246.86 L 410.83 246.87 L 411.28 246.65 L 411.73 246.35 L 412.20 246.11 L 412.73 246.02 L 413.29 245.98 L 413.82 245.88 L 414.28 245.63 L 414.65 245.26 L 414.90 244.80 L 415.07 244.30 L 415.30 243.82 L 415.63 243.39 L 416.02 242.98 L 416.41 242.57 L 416.73 242.13 L 416.92 241.64 L 416.99 241.09 L 417.00 240.53 L 417.01 239.96 L 417.06 239.41 L 417.24 238.91 L 417.53 238.46 L 417.81 238.01 L 417.96 237.50 L 418.00 236.95 L 418.07 236.40 L 418.24 235.90 L 418.54 235.46 L 418.81 235.01 L 418.90 234.54 L 418.74 234.19 L 418.33 234.03 L 417.80 233.99 L 417.26 233.90 L 416.79 233.68 L 416.39 233.32 L 416.12 232.88 L 415.92 232.45 L 415.64 232.14 L 415.19 232.02 L 414.65 231.98 L 414.12 231.87 L 413.67 231.60 L 413.32 231.21 L 413.10 230.73 L 413.02 230.19 L 413.02 229.64 L 413.13 229.11 L 413.40 228.65 L 413.77 228.24 L 414.17 227.83 L 414.57 227.43 L 414.98 227.02 L 415.39 226.63 L 415.82 226.30 L 416.28 226.06 L 416.68 225.86 L 416.91 225.51 L 416.98 225.01 L 416.95 224.47 L 416.80 223.96 L 416.51 223.51 L 416.22 223.06 L 416.06 222.56 L 416.00 222.01 L 415.95 221.46 L 415.79 220.96 L 415.48 220.53 L 415.05 220.22 L 414.58 220.09 Z M 409.00 234.00 L 409.42 233.60 L 409.87 233.27 L 410.36 233.10 L 410.88 233.15 L 411.35 233.39 L 411.81 233.70 L 412.31 233.91 L 412.86 233.99 L 413.43 234.03 L 413.96 234.16 L 414.40 234.46 L 414.74 234.89 L 414.90 235.39 L 414.85 235.90 L 414.58 236.35 L 414.17 236.70 L 413.67 236.91 L 413.12 236.99 L 412.54 237.00 L 411.96 237.01 L 411.40 237.07 L 410.89 237.26 L 410.43 237.56 L 409.96 237.83 L 409.45 237.91 L 408.95 237.77 L 408.51 237.45 L 408.20 237.01 L 408.05 236.49 L 408.02 235.93 L 408.08 235.37 L 408.27 234.87 L 408.60 234.42 Z M 16.06 216.15 L 15.60 216.41 L 15.16 216.72 L 14.68 216.94 L 14.18 217.10 L 13.71 217.35 L 13.27 217.66 L 12.82 217.91 L 12.39 218.10 L 12.14 218.40 L 12.14 218.83 L 12.36 219.28 L 12.71 219.70 L 13.11 220.11 L 13.51 220.51 L 13.91 220.91 L 14.32 221.32 L 14.72 221.72 L 15.12 222.12 L 15.53 222.50 L 15.97 222.80 L 16.44 222.91 L 16.81 222.77 L 17.03 222.39 L 17.23 221.92 L 17.55 221.50 L 17.98 221.20 L 18.48 221.05 L 19.02 220.99 L 19.52 220.91 L 19.84 220.67 L 19.98 220.23 L 20.02 219.70 L 20.12 219.17 L 20.37 218.71 L 20.75 218.35 L 21.22 218.11 L 21.75 218.02 L 22.28 217.97 L 22.70 217.83 L 22.89 217.52 L 22.77 217.19 L 22.38 217.03 L 21.85 216.99 L 21.31 216.91 L 20.83 216.71 L 20.38 216.41 L 19.92 216.14 L 19.40 216.02 L 18.84 216.00 L 18.28 216.00 L 17.71 216.00 L 17.14 216.00 L 16.58 216.03 Z M 368.20 209.21 L 368.03 209.58 L 367.99 210.09 L 367.93 210.62 L 367.77 211.09 L 367.48 211.52 L 367.21 211.95 L 367.08 212.41 L 367.20 212.78 L 367.56 212.96 L 368.07 213.00 L 368.61 213.00 L 369.16 213.00 L 369.71 213.00 L 370.23 212.98 L 370.66 212.86 L 370.89 212.56 L 370.87 212.14 L 370.64 211.70 L 370.34 211.28 L 370.10 210.83 L 369.95 210.35 L 369.75 209.88 L 369.43 209.48 L 369.02 209.19 L 368.56 209.08 Z M 360.06 207.15 L 359.59 207.43 L 359.13 207.73 L 358.62 207.92 L 358.06 207.99 L 357.50 208.05 L 356.98 208.20 L 356.51 208.49 L 356.04 208.79 L 355.54 208.98 L 355.02 209.16 L 354.56 209.45 L 354.09 209.75 L 353.58 209.93 L 353.02 209.99 L 352.43 210.00 L 351.85 210.02 L 351.30 210.10 L 350.80 210.31 L 350.34 210.62 L 349.86 210.88 L 349.35 211.06 L 348.85 211.28 L 348.39 211.59 L 347.93 211.87 L 347.48 212.07 L 347.14 212.34 L 346.92 212.77 L 346.67 213.24 L 346.37 213.69 L 346.14 214.18 L 346.11 214.69 L 346.30 215.18 L 346.61 215.64 L 346.88 216.11 L 347.09 216.55 L 347.37 216.88 L 347.80 217.09 L 348.27 217.35 L 348.73 217.65 L 349.20 217.86 L 349.63 217.84 L 349.92 217.55 L 350.12 217.11 L 350.41 216.66 L 350.83 216.30 L 351.32 216.09 L 351.88 216.01 L 352.44 215.97 L 352.97 215.83 L 353.44 215.55 L 353.91 215.24 L 354.41 215.04 L 354.92 214.86 L 355.39 214.58 L 355.85 214.28 L 356.35 214.06 L 356.86 213.88 L 357.34 213.60 L 357.77 213.22 L 358.18 212.81 L 358.60 212.40 L 359.02 211.98 L 359.43 211.57 L 359.85 211.15 L 360.25 210.74 L 360.62 210.30 L 360.89 209.83 L 361.07 209.31 L 361.30 208.82 L 361.60 208.36 L 361.85 207.90 L 361.87 207.45 L 361.62 207.14 L 361.15 207.03 L 360.60 207.03 Z M 415.05 201.16 L 414.62 201.43 L 414.29 201.83 L 414.09 202.31 L 414.01 202.85 L 413.98 203.39 L 413.86 203.91 L 413.60 204.37 L 413.30 204.80 L 413.08 205.28 L 412.91 205.77 L 412.67 206.23 L 412.31 206.61 L 411.86 206.87 L 411.34 206.98 L 410.81 207.02 L 410.36 207.14 L 410.12 207.43 L 410.14 207.87 L 410.38 208.30 L 410.76 208.66 L 411.21 208.87 L 411.62 208.85 L 411.89 208.58 L 411.98 208.11 L 412.02 207.57 L 412.15 207.06 L 412.43 206.63 L 412.83 206.29 L 413.30 206.07 L 413.80 205.90 L 414.26 205.66 L 414.70 205.36 L 415.17 205.12 L 415.69 205.02 L 416.25 205.00 L 416.81 205.00 L 417.37 205.00 L 417.93 204.99 L 418.44 204.95 L 418.80 204.75 L 418.90 204.37 L 418.76 203.91 L 418.44 203.49 L 418.02 203.19 L 417.53 203.01 L 417.03 202.84 L 416.60 202.55 L 416.27 202.14 L 416.05 201.69 L 415.85 201.29 L 415.50 201.10 Z M 384.21 189.21 L 384.04 189.60 L 384.02 190.13 L 384.08 190.66 L 384.27 191.15 L 384.57 191.59 L 384.84 192.04 L 384.97 192.55 L 385.00 193.11 L 385.00 193.67 L 384.98 194.23 L 384.90 194.76 L 384.68 195.23 L 384.37 195.67 L 384.12 196.13 L 383.95 196.63 L 383.75 197.11 L 383.42 197.52 L 383.00 197.81 L 382.50 197.92 L 382.01 197.82 L 381.56 197.55 L 381.12 197.25 L 380.63 197.07 L 380.09 197.01 L 379.54 196.97 L 379.03 196.84 L 378.58 196.57 L 378.14 196.27 L 377.66 196.10 L 377.16 196.13 L 376.71 196.37 L 376.35 196.75 L 376.11 197.21 L 376.02 197.73 L 376.03 198.27 L 376.16 198.70 L 376.49 198.95 L 376.94 199.13 L 377.37 199.42 L 377.71 199.83 L 377.89 200.30 L 377.88 200.79 L 377.66 201.26 L 377.31 201.68 L 376.92 202.08 L 376.54 202.49 L 376.23 202.93 L 376.06 203.42 L 376.00 203.96 L 375.96 204.51 L 375.81 205.01 L 375.51 205.44 L 375.09 205.76 L 374.60 205.93 L 374.06 205.99 L 373.50 206.00 L 372.95 206.01 L 372.46 206.09 L 372.17 206.32 L 372.16 206.65 L 372.44 206.89 L 372.91 206.98 L 373.46 207.00 L 374.02 206.99 L 374.56 206.94 L 375.06 206.78 L 375.51 206.49 L 375.96 206.21 L 376.45 206.08 L 376.94 206.15 L 377.39 206.41 L 377.83 206.72 L 378.32 206.91 L 378.85 206.99 L 379.40 207.02 L 379.92 207.14 L 380.37 207.41 L 380.78 207.79 L 381.18 208.18 L 381.59 208.56 L 382.03 208.83 L 382.48 208.90 L 382.83 208.72 L 382.97 208.30 L 383.00 207.76 L 383.00 207.20 L 383.02 206.65 L 383.13 206.13 L 383.39 205.68 L 383.78 205.32 L 384.23 205.08 L 384.64 204.88 L 384.90 204.56 L 384.98 204.08 L 384.95 203.57 L 384.77 203.19 L 384.37 203.03 L 383.84 202.99 L 383.31 202.91 L 382.83 202.71 L 382.42 202.37 L 382.15 201.93 L 382.08 201.44 L 382.22 200.95 L 382.53 200.53 L 382.95 200.21 L 383.41 200.02 L 383.80 199.81 L 384.01 199.43 L 384.20 198.96 L 384.51 198.54 L 384.93 198.23 L 385.41 198.08 L 385.91 198.15 L 386.37 198.40 L 386.80 198.70 L 387.28 198.91 L 387.82 198.98 L 388.38 199.00 L 388.94 199.00 L 389.49 199.04 L 390.00 199.18 L 390.42 199.48 L 390.75 199.89 L 390.96 200.35 L 391.17 200.74 L 391.54 200.94 L 392.05 201.00 L 392.59 201.06 L 393.08 201.23 L 393.50 201.55 L 393.80 201.98 L 393.92 202.47 L 393.84 202.96 L 393.55 203.39 L 393.15 203.73 L 392.69 203.95 L 392.29 204.15 L 392.07 204.51 L 392.02 205.01 L 392.05 205.54 L 392.21 206.04 L 392.52 206.46 L 392.94 206.78 L 393.43 206.92 L 393.92 206.85 L 394.38 206.60 L 394.81 206.29 L 395.29 206.09 L 395.83 206.01 L 396.35 205.97 L 396.75 205.82 L 396.89 205.49 L 396.73 205.18 L 396.32 205.03 L 395.79 204.99 L 395.26 204.90 L 394.79 204.68 L 394.40 204.33 L 394.14 203.89 L 394.09 203.39 L 394.24 202.91 L 394.53 202.46 L 394.81 202.02 L 394.99 201.52 L 395.16 201.03 L 395.43 200.58 L 395.73 200.14 L 395.89 199.68 L 395.82 199.29 L 395.49 199.10 L 395.04 199.16 L 394.60 199.42 L 394.16 199.72 L 393.67 199.92 L 393.14 199.99 L 392.58 200.00 L 392.01 199.99 L 391.47 199.95 L 390.97 199.80 L 390.54 199.49 L 390.23 199.07 L 390.06 198.58 L 390.01 198.03 L 390.00 197.47 L 390.00 196.91 L 390.00 196.34 L 390.00 195.78 L 390.00 195.21 L 390.02 194.65 L 390.13 194.13 L 390.38 193.67 L 390.68 193.23 L 390.88 192.78 L 390.85 192.36 L 390.56 192.11 L 390.09 192.01 L 389.55 191.97 L 389.04 191.84 L 388.59 191.56 L 388.18 191.18 L 387.78 190.78 L 387.38 190.38 L 386.98 189.98 L 386.58 189.60 L 386.15 189.27 L 385.66 189.08 L 385.13 189.02 L 384.60 189.04 Z M 419.05 183.15 L 418.63 183.42 L 418.30 183.81 L 418.09 184.27 L 418.02 184.78 L 418.02 185.32 L 418.11 185.83 L 418.35 186.27 L 418.71 186.64 L 419.15 186.88 L 419.66 186.98 L 420.20 187.00 L 420.74 187.00 L 421.27 186.97 L 421.69 186.85 L 421.89 186.56 L 421.81 186.23 L 421.47 186.02 L 421.03 185.85 L 420.61 185.56 L 420.28 185.17 L 420.09 184.70 L 420.01 184.19 L 419.97 183.67 L 419.83 183.27 L 419.49 183.09 Z M 4.06 20.15 L 3.63 20.43 L 3.29 20.83 L 3.09 21.31 L 3.01 21.84 L 3.00 22.40 L 3.00 22.96 L 3.00 23.52 L 3.00 24.08 L 3.00 24.64 L 3.02 25.19 L 3.13 25.63 L 3.41 25.87 L 3.74 25.81 L 3.96 25.49 L 4.14 25.04 L 4.44 24.61 L 4.85 24.28 L 5.32 24.08 L 5.86 24.01 L 6.40 24.03 L 6.92 24.14 L 7.37 24.40 L 7.81 24.70 L 8.26 24.88 L 8.67 24.84 L 8.91 24.53 L 8.98 24.05 L 8.96 23.52 L 8.83 23.01 L 8.54 22.57 L 8.16 22.16 L 7.76 21.77 L 7.35 21.40 L 6.91 21.13 L 6.41 20.96 L 5.93 20.78 L 5.48 20.49 L 5.04 20.21 L 4.55 20.08 Z M 331.23 16.20 L 331.13 16.54 L 331.35 16.86 L 331.78 17.08 L 332.26 17.34 L 332.73 17.65 L 333.22 17.90 L 333.74 18.09 L 334.23 18.34 L 334.63 18.73 L 334.90 19.21 L 335.08 19.73 L 335.33 20.22 L 335.69 20.67 L 336.10 21.10 L 336.50 21.54 L 336.82 22.00 L 337.01 22.52 L 337.21 23.04 L 337.54 23.48 L 337.99 23.79 L 338.51 23.90 L 339.02 23.79 L 339.47 23.47 L 339.79 23.02 L 339.90 22.51 L 339.79 21.99 L 339.49 21.52 L 339.09 21.09 L 338.67 20.67 L 338.24 20.24 L 337.82 19.82 L 337.43 19.38 L 337.13 18.90 L 336.95 18.38 L 336.73 17.88 L 336.38 17.45 L 335.92 17.14 L 335.40 16.95 L 334.89 16.74 L 334.42 16.43 L 333.93 16.15 L 333.39 16.03 L 332.80 16.00 L 332.20 16.00 L 331.64 16.04 Z M 390.21 11.21 L 390.04 11.62 L 390.02 12.17 L 390.10 12.72 L 390.33 13.21 L 390.69 13.61 L 391.16 13.89 L 391.67 14.06 L 392.16 14.29 L 392.57 14.64 L 392.85 15.10 L 392.90 15.61 L 392.74 16.11 L 392.40 16.54 L 391.96 16.84 L 391.45 17.03 L 390.94 17.22 L 390.48 17.52 L 390.01 17.81 L 389.50 18.00 L 388.99 18.19 L 388.55 18.51 L 388.23 18.94 L 388.03 19.44 L 387.85 19.96 L 387.56 20.42 L 387.26 20.89 L 387.07 21.40 L 387.01 21.96 L 387.00 22.54 L 387.01 23.12 L 387.09 23.68 L 387.30 24.17 L 387.66 24.58 L 388.12 24.86 L 388.66 24.98 L 389.23 25.00 L 389.82 25.00 L 390.37 24.96 L 390.77 24.79 L 390.90 24.40 L 390.76 23.92 L 390.45 23.47 L 390.05 23.05 L 389.65 22.63 L 389.31 22.19 L 389.11 21.69 L 389.14 21.18 L 389.36 20.70 L 389.67 20.24 L 389.91 19.75 L 390.09 19.24 L 390.34 18.76 L 390.72 18.37 L 391.19 18.11 L 391.70 17.93 L 392.19 17.70 L 392.65 17.39 L 393.13 17.15 L 393.64 17.10 L 394.14 17.28 L 394.59 17.61 L 395.01 18.01 L 395.41 18.43 L 395.74 18.88 L 395.92 19.39 L 395.98 19.95 L 395.95 20.51 L 395.79 21.03 L 395.48 21.49 L 395.08 21.91 L 394.68 22.33 L 394.33 22.77 L 394.13 23.24 L 394.17 23.67 L 394.48 23.93 L 394.94 24.13 L 395.40 24.43 L 395.82 24.82 L 396.24 25.24 L 396.65 25.65 L 397.07 26.07 L 397.49 26.46 L 397.95 26.78 L 398.45 26.98 L 398.96 27.16 L 399.43 27.44 L 399.89 27.74 L 400.39 27.90 L 400.91 27.85 L 401.36 27.57 L 401.71 27.16 L 401.94 26.66 L 402.11 26.15 L 402.38 25.67 L 402.68 25.21 L 402.88 24.72 L 402.87 24.21 L 402.64 23.73 L 402.28 23.29 L 401.88 22.87 L 401.48 22.45 L 401.18 21.99 L 401.04 21.46 L 401.00 20.89 L 401.00 20.30 L 401.02 19.72 L 401.12 19.18 L 401.37 18.69 L 401.67 18.23 L 401.87 17.76 L 401.83 17.34 L 401.52 17.07 L 401.07 16.87 L 400.60 16.58 L 400.14 16.28 L 399.64 16.08 L 399.08 16.01 L 398.50 16.00 L 397.92 15.99 L 397.36 15.92 L 396.85 15.72 L 396.41 15.38 L 395.99 14.98 L 395.59 14.56 L 395.26 14.11 L 395.05 13.61 L 394.87 13.10 L 394.60 12.62 L 394.29 12.17 L 394.06 11.69 L 393.83 11.28 L 393.45 11.07 L 392.93 11.01 L 392.35 11.00 L 391.76 11.00 L 391.18 11.00 L 390.62 11.04 Z M 144.19 3.18 L 144.08 3.51 L 144.21 3.82 L 144.58 3.97 L 145.07 4.00 L 145.59 4.00 L 146.10 4.00 L 146.62 4.00 L 147.14 4.00 L 147.66 4.00 L 148.17 4.00 L 148.69 4.00 L 149.20 4.01 L 149.69 4.07 L 150.14 4.25 L 150.54 4.53 L 150.94 4.80 L 151.39 4.93 L 151.85 4.88 L 152.28 4.66 L 152.67 4.37 L 153.09 4.13 L 153.56 4.02 L 154.06 3.99 L 154.52 3.94 L 154.83 3.75 L 154.90 3.43 L 154.71 3.14 L 154.32 3.02 L 153.83 3.00 L 153.31 3.00 L 152.79 3.00 L 152.28 3.00 L 151.76 3.00 L 151.24 3.00 L 150.72 3.00 L 150.21 3.00 L 149.69 3.00 L 149.17 3.00 L 148.66 3.00 L 148.14 3.00 L 147.62 3.00 L 147.10 3.00 L 146.59 3.00 L 146.07 3.00 L 145.55 3.00 L 145.04 3.00 L 144.55 3.03 Z" fill="rgb(163,5,5)" fill-rule="evenodd"/>
  <path d="M 353.19 217.20 L 352.99 217.55 L 352.83 218.00 L 352.54 218.41 L 352.15 218.73 L 351.70 218.92 L 351.19 218.99 L 350.66 219.00 L 350.12 219.00 L 349.59 219.00 L 349.05 219.00 L 348.55 219.04 L 348.20 219.20 L 348.10 219.53 L 348.27 219.84 L 348.66 219.97 L 349.17 220.00 L 349.71 220.00 L 350.24 220.00 L 350.78 220.00 L 351.32 220.00 L 351.85 220.00 L 352.38 219.98 L 352.88 219.88 L 353.31 219.64 L 353.72 219.34 L 354.15 219.10 L 354.57 218.93 L 354.85 218.68 L 354.90 218.28 L 354.73 217.84 L 354.41 217.46 L 354.00 217.18 L 353.55 217.07 Z M 388.21 200.21 L 388.04 200.61 L 387.99 201.15 L 387.91 201.69 L 387.71 202.17 L 387.37 202.61 L 386.98 203.02 L 386.59 203.43 L 386.26 203.87 L 386.05 204.36 L 385.88 204.87 L 385.62 205.33 L 385.32 205.78 L 385.10 206.26 L 385.02 206.80 L 385.00 207.37 L 385.01 207.94 L 385.05 208.50 L 385.19 209.01 L 385.48 209.47 L 385.77 209.92 L 385.94 210.43 L 385.98 210.98 L 385.95 211.53 L 385.79 212.04 L 385.50 212.49 L 385.22 212.95 L 385.06 213.46 L 385.02 214.01 L 385.06 214.56 L 385.23 215.06 L 385.54 215.49 L 385.97 215.79 L 386.47 215.92 L 386.97 215.83 L 387.42 215.54 L 387.84 215.16 L 388.25 214.76 L 388.67 214.39 L 389.13 214.12 L 389.63 213.95 L 390.12 213.74 L 390.56 213.41 L 390.97 213.02 L 391.38 212.62 L 391.79 212.21 L 392.19 211.81 L 392.60 211.40 L 393.01 211.00 L 393.42 210.60 L 393.86 210.28 L 394.35 210.08 L 394.89 210.02 L 395.45 210.03 L 395.97 210.17 L 396.43 210.44 L 396.88 210.74 L 397.35 210.89 L 397.74 210.80 L 397.94 210.44 L 397.99 209.92 L 398.00 209.36 L 398.00 208.78 L 398.00 208.21 L 397.97 207.67 L 397.81 207.25 L 397.43 207.05 L 396.90 207.01 L 396.34 207.00 L 395.77 207.02 L 395.23 207.11 L 394.75 207.33 L 394.30 207.64 L 393.83 207.89 L 393.33 208.06 L 392.85 208.28 L 392.40 208.58 L 391.94 208.85 L 391.41 208.97 L 390.85 209.00 L 390.27 209.00 L 389.71 208.98 L 389.18 208.88 L 388.71 208.63 L 388.34 208.24 L 388.11 207.77 L 388.02 207.24 L 388.02 206.68 L 388.13 206.15 L 388.39 205.69 L 388.78 205.33 L 389.25 205.09 L 389.75 204.91 L 390.22 204.67 L 390.61 204.31 L 390.87 203.85 L 390.98 203.32 L 390.98 202.76 L 390.89 202.22 L 390.66 201.74 L 390.36 201.30 L 390.10 200.84 L 389.90 200.41 L 389.60 200.13 L 389.13 200.02 L 388.61 200.04 Z M 422.20 195.20 L 422.03 195.58 L 421.99 196.08 L 421.94 196.60 L 421.78 197.07 L 421.48 197.48 L 421.07 197.78 L 420.60 197.94 L 420.08 197.99 L 419.54 198.00 L 419.00 198.01 L 418.48 198.04 L 417.99 198.18 L 417.58 198.47 L 417.26 198.86 L 417.08 199.32 L 417.01 199.84 L 417.00 200.38 L 417.00 200.91 L 417.03 201.42 L 417.19 201.81 L 417.56 202.01 L 418.01 202.18 L 418.44 202.45 L 418.86 202.74 L 419.32 202.92 L 419.84 202.99 L 420.37 202.98 L 420.87 202.88 L 421.30 202.63 L 421.65 202.27 L 421.89 201.83 L 421.98 201.32 L 422.01 200.80 L 422.09 200.28 L 422.28 199.83 L 422.61 199.44 L 423.02 199.15 L 423.47 198.98 L 423.82 198.78 L 423.97 198.38 L 424.00 197.87 L 424.00 197.33 L 424.00 196.79 L 424.00 196.25 L 423.98 195.73 L 423.85 195.31 L 423.54 195.08 L 423.07 195.01 L 422.57 195.04 Z M 391.19 194.19 L 391.03 194.57 L 391.00 195.07 L 391.00 195.60 L 391.01 196.12 L 391.10 196.58 L 391.34 196.87 L 391.76 196.98 L 392.27 196.98 L 392.77 196.90 L 393.22 196.69 L 393.63 196.39 L 394.05 196.13 L 394.49 195.97 L 394.82 195.77 L 394.90 195.44 L 394.71 195.14 L 394.33 194.96 L 393.89 194.76 L 393.47 194.48 L 393.05 194.20 L 392.58 194.05 L 392.07 194.01 L 391.57 194.03 Z M 414.05 174.15 L 413.63 174.42 L 413.30 174.82 L 413.11 175.28 L 413.12 175.77 L 413.32 176.23 L 413.62 176.66 L 413.87 177.11 L 413.98 177.62 L 414.00 178.17 L 414.00 178.72 L 414.03 179.25 L 414.15 179.68 L 414.47 179.94 L 414.90 180.12 L 415.33 180.39 L 415.68 180.78 L 415.88 181.23 L 415.89 181.72 L 415.71 182.19 L 415.40 182.62 L 415.14 183.06 L 415.03 183.57 L 415.02 184.10 L 415.10 184.56 L 415.34 184.84 L 415.67 184.84 L 415.92 184.57 L 416.10 184.14 L 416.35 183.70 L 416.66 183.27 L 416.90 182.82 L 417.06 182.33 L 417.27 181.86 L 417.59 181.46 L 418.01 181.16 L 418.47 180.98 L 418.82 180.76 L 418.97 180.36 L 418.98 179.85 L 418.88 179.40 L 418.61 179.14 L 418.19 179.13 L 417.75 179.33 L 417.32 179.63 L 416.87 179.87 L 416.38 179.91 L 415.90 179.76 L 415.50 179.44 L 415.20 179.03 L 415.05 178.53 L 415.01 177.99 L 415.00 177.44 L 415.00 176.89 L 415.00 176.33 L 415.00 175.78 L 415.00 175.22 L 414.97 174.69 L 414.83 174.28 L 414.50 174.09 Z M 416.20 168.21 L 416.04 168.60 L 416.00 169.13 L 416.00 169.69 L 416.02 170.25 L 416.11 170.77 L 416.33 171.24 L 416.68 171.67 L 417.07 172.07 L 417.45 172.47 L 417.76 172.91 L 417.93 173.40 L 417.99 173.94 L 418.00 174.50 L 418.01 175.05 L 418.09 175.53 L 418.33 175.84 L 418.74 175.88 L 419.20 175.70 L 419.63 175.40 L 420.09 175.13 L 420.58 174.96 L 421.07 174.78 L 421.51 174.49 L 421.96 174.20 L 422.42 174.02 L 422.80 173.80 L 422.96 173.40 L 423.00 172.87 L 423.00 172.31 L 422.98 171.75 L 422.89 171.23 L 422.66 170.76 L 422.30 170.38 L 421.87 170.14 L 421.43 170.12 L 421.12 170.36 L 420.92 170.77 L 420.68 171.22 L 420.33 171.60 L 419.89 171.86 L 419.39 171.91 L 418.91 171.76 L 418.49 171.44 L 418.19 171.01 L 418.04 170.51 L 418.00 169.97 L 417.94 169.43 L 417.78 168.93 L 417.46 168.52 L 417.04 168.21 L 416.58 168.09 Z M 396.19 10.19 L 396.03 10.57 L 396.00 11.07 L 396.00 11.60 L 396.00 12.13 L 396.00 12.66 L 396.02 13.17 L 396.11 13.61 L 396.37 13.88 L 396.80 13.98 L 397.31 14.02 L 397.81 14.10 L 398.25 14.32 L 398.66 14.62 L 399.09 14.87 L 399.57 14.98 L 400.10 15.00 L 400.63 15.00 L 401.16 15.00 L 401.69 15.00 L 402.22 15.00 L 402.75 15.00 L 403.26 14.98 L 403.68 14.86 L 403.93 14.57 L 404.10 14.15 L 404.34 13.73 L 404.68 13.33 L 405.04 12.95 L 405.41 12.57 L 405.72 12.17 L 405.90 11.73 L 405.90 11.25 L 405.71 10.81 L 405.39 10.43 L 404.98 10.16 L 404.50 10.03 L 403.98 10.00 L 403.45 10.00 L 402.91 10.00 L 402.38 10.00 L 401.85 10.00 L 401.32 10.00 L 400.79 10.00 L 400.25 10.00 L 399.72 10.00 L 399.19 10.00 L 398.66 10.00 L 398.13 10.00 L 397.60 10.00 L 397.07 10.00 L 396.57 10.03 Z M 27.36 3.45 L 23.35 6.13 L 19.31 5.41 L 15.16 9.15 L 12.04 13.28 L 7.73 16.39 L 7.43 20.62 L 9.34 24.96 L 5.34 25.96 L 4.92 30.80 L 5.05 35.94 L 5.00 41.92 L 4.22 47.61 L 3.13 53.15 L 3.00 59.11 L 3.00 65.11 L 3.00 71.11 L 3.00 77.12 L 3.51 82.70 L 3.94 87.19 L 4.31 91.13 L 3.92 95.66 L 3.36 101.08 L 3.24 106.33 L 4.00 112.00 L 4.00 118.00 L 4.05 123.98 L 6.41 128.24 L 4.07 131.84 L 1.70 135.95 L 3.01 137.61 L 4.73 142.44 L 3.06 147.73 L 3.93 153.33 L 4.70 158.77 L 3.98 164.47 L 2.05 169.43 L 2.17 171.78 L 3.00 177.24 L 3.00 183.25 L 3.00 189.25 L 3.00 195.25 L 3.00 201.26 L 3.23 207.17 L 5.57 212.20 L 10.02 215.42 L 14.90 215.85 L 20.35 215.47 L 23.16 218.28 L 19.52 221.80 L 20.26 225.54 L 23.58 229.62 L 27.22 233.99 L 32.36 235.98 L 37.00 237.93 L 42.53 236.99 L 47.67 235.18 L 51.45 237.85 L 57.27 237.94 L 62.48 236.13 L 67.73 237.79 L 73.65 238.00 L 79.66 238.00 L 85.55 237.74 L 91.25 237.00 L 97.25 237.00 L 103.25 237.00 L 109.26 237.00 L 115.11 237.37 L 120.85 238.00 L 126.85 238.00 L 132.86 238.00 L 138.81 237.88 L 144.45 237.00 L 150.45 237.00 L 156.46 237.00 L 162.46 237.00 L 168.46 237.00 L 174.37 237.22 L 179.65 237.09 L 184.58 239.58 L 188.33 244.03 L 192.14 247.75 L 197.92 247.99 L 202.51 246.58 L 207.11 247.99 L 213.10 247.99 L 218.68 247.15 L 224.29 248.00 L 230.13 247.62 L 235.56 247.76 L 241.47 248.00 L 247.47 248.00 L 253.47 248.00 L 259.48 248.00 L 265.48 248.00 L 271.48 248.00 L 277.49 248.00 L 283.40 247.77 L 288.95 247.32 L 294.67 248.00 L 300.47 247.51 L 305.85 246.00 L 310.75 244.67 L 315.88 245.48 L 320.66 247.73 L 326.44 247.75 L 330.43 244.80 L 333.54 243.22 L 335.73 246.55 L 335.11 242.35 L 331.47 238.90 L 330.45 233.74 L 332.55 228.80 L 336.00 225.78 L 338.73 221.94 L 342.36 218.97 L 345.57 216.13 L 344.49 211.20 L 348.99 210.17 L 354.28 208.52 L 358.21 204.85 L 362.68 202.87 L 368.03 204.34 L 372.35 202.91 L 376.34 200.64 L 375.96 196.34 L 380.66 195.40 L 383.74 192.59 L 384.75 188.36 L 389.42 190.44 L 393.69 190.30 L 394.95 188.85 L 394.45 183.52 L 393.92 179.45 L 397.77 179.82 L 398.45 184.76 L 400.37 182.70 L 403.89 178.66 L 405.12 173.25 L 407.77 168.82 L 408.53 163.62 L 410.74 159.00 L 415.49 157.03 L 419.79 156.65 L 419.87 151.81 L 422.37 148.37 L 420.56 144.04 L 422.82 139.13 L 423.00 133.20 L 423.00 127.20 L 423.00 121.20 L 422.96 115.21 L 422.24 109.68 L 423.00 104.02 L 423.00 98.01 L 423.00 92.01 L 423.00 86.01 L 422.06 80.39 L 422.00 74.41 L 422.42 68.62 L 422.53 63.45 L 421.41 58.84 L 421.17 53.15 L 422.97 48.44 L 421.42 44.02 L 420.43 40.81 L 422.24 37.08 L 418.74 33.46 L 414.07 30.28 L 409.78 30.83 L 407.02 28.83 L 404.06 26.28 L 399.79 28.46 L 395.15 25.42 L 394.35 21.32 L 391.86 19.36 L 391.22 23.50 L 388.33 25.64 L 385.36 21.28 L 384.50 16.19 L 387.65 17.36 L 388.61 14.64 L 385.45 10.61 L 380.14 11.00 L 374.14 11.00 L 368.15 11.04 L 362.69 11.69 L 358.01 10.16 L 352.37 11.00 L 346.40 10.92 L 340.85 10.19 L 335.98 9.85 L 331.40 10.94 L 326.06 11.77 L 321.81 11.48 L 316.66 10.00 L 310.66 10.00 L 304.74 10.20 L 299.45 10.06 L 293.48 10.02 L 288.01 10.63 L 282.33 10.09 L 276.70 11.00 L 270.98 10.34 L 265.50 10.94 L 259.52 11.00 L 253.52 11.00 L 247.52 11.00 L 241.80 10.30 L 235.99 10.16 L 230.54 10.51 L 224.75 10.00 L 218.74 10.00 L 212.74 10.00 L 206.74 10.00 L 201.15 8.99 L 197.25 5.03 L 192.79 3.01 L 186.80 3.00 L 180.86 3.07 L 176.18 4.94 L 170.20 5.00 L 164.96 3.79 L 159.62 3.02 L 154.35 4.81 L 149.18 5.18 L 143.49 4.43 L 138.87 3.98 L 133.59 5.23 L 128.25 5.16 L 123.60 3.15 L 117.88 3.38 L 112.13 4.00 L 106.13 4.00 L 100.13 4.00 L 94.12 4.00 L 88.12 4.00 L 82.12 4.00 L 76.11 4.00 L 70.11 4.00 L 64.11 4.00 L 58.42 3.23 L 52.51 3.00 L 46.51 3.00 L 40.51 3.00 L 34.50 3.00 L 28.57 3.08 Z M 319.00 239.00 L 319.42 238.60 L 319.87 238.27 L 320.38 238.08 L 320.94 238.02 L 321.51 238.05 L 322.03 238.21 L 322.47 238.53 L 322.79 238.97 L 322.95 239.49 L 322.98 240.06 L 322.92 240.62 L 322.73 241.13 L 322.40 241.58 L 322.00 242.00 L 321.58 242.40 L 321.13 242.73 L 320.62 242.92 L 320.06 242.98 L 319.49 242.95 L 318.97 242.79 L 318.53 242.47 L 318.21 242.03 L 318.05 241.51 L 318.02 240.94 L 318.08 240.38 L 318.27 239.87 L 318.60 239.42 Z M 361.16 198.06 L 361.45 197.61 L 361.88 197.27 L 362.38 197.08 L 362.94 197.02 L 363.51 197.05 L 364.03 197.21 L 364.49 197.52 L 364.91 197.92 L 365.32 198.34 L 365.67 198.78 L 365.90 199.28 L 365.98 199.83 L 365.97 200.40 L 365.85 200.94 L 365.55 201.39 L 365.12 201.73 L 364.62 201.92 L 364.06 201.98 L 363.49 201.95 L 362.97 201.79 L 362.53 201.47 L 362.21 201.03 L 362.01 200.52 L 361.83 200.01 L 361.54 199.54 L 361.24 199.08 L 361.09 198.57 Z M 380.00 184.00 L 380.45 183.58 L 380.92 183.25 L 381.47 183.07 L 382.06 183.02 L 382.64 183.09 L 383.16 183.31 L 383.59 183.68 L 383.85 184.17 L 383.87 184.70 L 383.66 185.22 L 383.30 185.68 L 382.87 186.13 L 382.44 186.56 L 382.00 187.00 L 381.55 187.42 L 381.08 187.75 L 380.53 187.93 L 379.94 187.98 L 379.36 187.91 L 378.84 187.69 L 378.41 187.32 L 378.15 186.83 L 378.13 186.30 L 378.34 185.78 L 378.70 185.32 L 379.13 184.87 L 379.56 184.44 Z M 389.13 177.05 L 389.37 176.67 L 389.70 176.34 L 390.09 176.12 L 390.53 176.04 L 390.96 176.13 L 391.34 176.38 L 391.66 176.71 L 391.89 177.10 L 391.98 177.55 L 392.00 178.03 L 391.98 178.51 L 391.87 178.95 L 391.63 179.33 L 391.30 179.66 L 390.91 179.88 L 390.47 179.96 L 390.04 179.87 L 389.66 179.62 L 389.34 179.29 L 389.11 178.90 L 389.02 178.45 L 389.00 177.97 L 389.02 177.49 Z M 376.00 177.00 L 376.44 176.59 L 376.91 176.25 L 377.44 176.07 L 378.02 176.02 L 378.60 176.08 L 379.12 176.28 L 379.56 176.64 L 379.85 177.11 L 379.97 177.67 L 379.98 178.26 L 379.87 178.82 L 379.60 179.32 L 379.22 179.77 L 378.79 180.21 L 378.36 180.64 L 377.93 181.07 L 377.50 181.50 L 377.07 181.93 L 376.63 182.35 L 376.17 182.70 L 375.66 182.89 L 375.13 182.84 L 374.65 182.57 L 374.29 182.14 L 374.08 181.62 L 374.01 181.04 L 374.00 180.44 L 374.02 179.84 L 374.11 179.27 L 374.35 178.75 L 374.72 178.30 L 375.14 177.86 L 375.57 177.43 Z M 382.16 174.07 L 382.46 173.60 L 382.90 173.26 L 383.41 173.10 L 383.94 173.17 L 384.42 173.45 L 384.85 173.86 L 385.27 174.28 L 385.64 174.73 L 385.88 175.24 L 385.98 175.80 L 385.97 176.39 L 385.84 176.93 L 385.54 177.40 L 385.10 177.74 L 384.59 177.90 L 384.06 177.83 L 383.58 177.55 L 383.15 177.14 L 382.73 176.72 L 382.36 176.27 L 382.12 175.76 L 382.02 175.20 L 382.03 174.61 Z M 106.13 120.05 L 106.37 119.67 L 106.70 119.34 L 107.09 119.12 L 107.53 119.04 L 107.96 119.13 L 108.34 119.38 L 108.66 119.71 L 108.89 120.10 L 108.98 120.55 L 109.00 121.03 L 108.98 121.51 L 108.87 121.95 L 108.63 122.33 L 108.30 122.66 L 107.91 122.88 L 107.47 122.96 L 107.04 122.87 L 106.66 122.62 L 106.34 122.29 L 106.11 121.90 L 106.02 121.45 L 106.00 120.97 L 106.02 120.49 Z M 20.16 120.06 L 20.45 119.61 L 20.88 119.27 L 21.38 119.08 L 21.95 119.01 L 22.53 119.00 L 23.12 119.00 L 23.71 119.00 L 24.29 119.02 L 24.83 119.13 L 25.30 119.39 L 25.67 119.79 L 25.88 120.27 L 25.87 120.78 L 25.64 121.27 L 25.28 121.71 L 24.87 122.12 L 24.45 122.52 L 23.98 122.82 L 23.45 122.96 L 22.89 122.98 L 22.33 122.91 L 21.83 122.70 L 21.38 122.36 L 20.96 121.96 L 20.56 121.53 L 20.24 121.08 L 20.09 120.57 Z M 405.15 44.06 L 405.45 43.61 L 405.88 43.27 L 406.37 43.10 L 406.89 43.15 L 407.36 43.41 L 407.79 43.80 L 408.21 44.21 L 408.62 44.62 L 409.04 45.04 L 409.44 45.46 L 409.76 45.92 L 409.91 46.42 L 409.84 46.94 L 409.55 47.39 L 409.13 47.73 L 408.62 47.92 L 408.06 47.99 L 407.47 48.00 L 406.89 47.99 L 406.33 47.91 L 405.83 47.70 L 405.42 47.35 L 405.14 46.89 L 405.02 46.35 L 405.00 45.77 L 405.00 45.18 L 405.03 44.60 Z M 412.17 40.06 L 412.46 39.60 L 412.90 39.26 L 413.43 39.07 L 414.00 39.02 L 414.57 39.07 L 415.10 39.26 L 415.57 39.59 L 416.00 40.00 L 416.41 40.43 L 416.74 40.90 L 416.90 41.41 L 416.83 41.94 L 416.54 42.40 L 416.10 42.74 L 415.59 42.90 L 415.06 42.84 L 414.58 42.56 L 414.10 42.25 L 413.59 42.04 L 413.06 41.85 L 412.60 41.54 L 412.26 41.10 L 412.10 40.59 Z M 405.94 32.86 L 406.42 32.57 L 406.90 32.26 L 407.41 32.10 L 407.94 32.17 L 408.40 32.46 L 408.74 32.90 L 408.90 33.41 L 408.83 33.94 L 408.55 34.42 L 408.15 34.85 L 407.73 35.28 L 407.36 35.73 L 407.10 36.23 L 406.91 36.75 L 406.65 37.25 L 406.28 37.70 L 405.86 38.13 L 405.43 38.53 L 404.95 38.84 L 404.40 38.97 L 403.82 38.98 L 403.25 38.89 L 402.75 38.65 L 402.30 38.28 L 401.87 37.86 L 401.47 37.43 L 401.17 36.95 L 401.10 36.43 L 401.25 35.91 L 401.59 35.47 L 402.05 35.16 L 402.60 35.03 L 403.16 34.98 L 403.64 34.84 L 403.93 34.51 L 404.14 34.05 L 404.46 33.60 L 404.90 33.26 L 405.41 33.04 Z M 343.21 28.10 L 343.65 27.52 L 344.28 27.21 L 344.97 27.27 L 345.60 27.66 L 346.18 28.21 L 346.65 28.84 L 347.00 29.51 L 347.34 30.20 L 347.68 30.88 L 347.92 31.60 L 348.07 32.36 L 348.29 33.09 L 348.63 33.77 L 348.89 34.49 L 349.04 35.25 L 349.25 35.98 L 349.67 36.63 L 350.20 37.23 L 350.67 37.86 L 351.02 38.54 L 351.35 39.23 L 351.70 39.90 L 351.92 40.64 L 351.99 41.43 L 352.05 42.23 L 352.23 42.97 L 352.57 43.66 L 352.92 44.33 L 353.23 45.03 L 353.59 45.70 L 353.87 46.41 L 354.01 47.17 L 354.21 47.90 L 354.65 48.48 L 355.30 48.84 L 356.06 48.97 L 356.87 49.00 L 357.70 49.00 L 358.52 49.00 L 359.34 49.00 L 360.16 49.00 L 360.99 49.00 L 361.80 49.02 L 362.58 49.13 L 363.29 49.40 L 363.97 49.74 L 364.71 49.94 L 365.51 49.99 L 366.33 50.00 L 367.15 50.00 L 367.96 49.97 L 368.73 49.84 L 369.42 49.53 L 370.11 49.19 L 370.86 49.03 L 371.67 49.00 L 372.49 49.00 L 373.32 49.00 L 374.12 49.03 L 374.88 49.19 L 375.57 49.52 L 376.26 49.84 L 377.01 50.00 L 377.76 50.18 L 378.38 50.56 L 378.77 51.15 L 378.78 51.83 L 378.43 52.48 L 377.90 53.07 L 377.29 53.57 L 376.62 53.94 L 375.94 54.28 L 375.31 54.73 L 374.72 55.29 L 374.13 55.87 L 373.55 56.45 L 372.97 57.03 L 372.39 57.61 L 371.80 58.17 L 371.17 58.65 L 370.50 59.00 L 369.82 59.36 L 369.20 59.83 L 368.61 60.40 L 368.02 60.98 L 367.44 61.56 L 366.86 62.14 L 366.28 62.72 L 365.70 63.30 L 365.12 63.88 L 364.53 64.46 L 363.95 65.03 L 363.33 65.54 L 362.67 65.91 L 362.00 66.25 L 361.46 66.74 L 361.14 67.41 L 361.02 68.18 L 361.03 68.98 L 361.17 69.75 L 361.48 70.44 L 361.81 71.13 L 361.99 71.87 L 362.14 72.63 L 362.43 73.34 L 362.77 74.02 L 362.95 74.77 L 363.01 75.57 L 363.08 76.36 L 363.30 77.09 L 363.63 77.77 L 363.88 78.49 L 363.98 79.27 L 364.00 80.09 L 364.03 80.90 L 364.15 81.67 L 364.49 82.35 L 364.98 82.97 L 365.48 83.59 L 365.87 84.25 L 366.18 84.94 L 366.54 85.62 L 366.84 86.31 L 366.98 87.08 L 367.02 87.88 L 367.15 88.65 L 367.44 89.35 L 367.75 90.03 L 367.79 90.72 L 367.48 91.35 L 366.90 91.78 L 366.17 91.94 L 365.41 91.86 L 364.70 91.59 L 364.03 91.23 L 363.34 90.92 L 362.66 90.57 L 361.99 90.21 L 361.29 89.89 L 360.63 89.51 L 360.02 89.00 L 359.43 88.43 L 358.84 87.87 L 358.22 87.39 L 357.55 87.03 L 356.86 86.70 L 356.19 86.33 L 355.51 86.00 L 354.83 85.65 L 354.20 85.17 L 353.60 84.64 L 352.96 84.21 L 352.27 83.88 L 351.61 83.50 L 350.99 82.99 L 350.38 82.49 L 349.71 82.11 L 349.03 81.78 L 348.39 81.34 L 347.78 80.81 L 347.15 80.36 L 346.43 80.10 L 345.65 80.02 L 344.85 80.04 L 344.09 80.20 L 343.41 80.53 L 342.73 80.88 L 342.04 81.21 L 341.40 81.64 L 340.80 82.17 L 340.17 82.65 L 339.49 83.00 L 338.81 83.33 L 338.14 83.70 L 337.45 84.03 L 336.78 84.39 L 336.16 84.87 L 335.57 85.43 L 334.99 86.01 L 334.40 86.59 L 333.81 87.15 L 333.18 87.62 L 332.48 87.90 L 331.72 88.05 L 330.98 88.26 L 330.30 88.60 L 329.62 88.94 L 328.94 89.28 L 328.30 89.73 L 327.70 90.26 L 327.07 90.72 L 326.38 91.06 L 325.70 91.40 L 325.03 91.72 L 324.34 91.79 L 323.71 91.51 L 323.26 90.96 L 323.05 90.23 L 323.02 89.43 L 323.08 88.64 L 323.30 87.91 L 323.64 87.23 L 323.98 86.55 L 324.33 85.87 L 324.79 85.24 L 325.32 84.64 L 325.74 83.99 L 325.94 83.25 L 325.99 82.45 L 326.00 81.63 L 326.00 80.80 L 326.00 79.98 L 326.02 79.17 L 326.14 78.39 L 326.42 77.69 L 326.75 77.00 L 326.94 76.26 L 326.99 75.46 L 327.00 74.64 L 327.04 73.83 L 327.20 73.08 L 327.54 72.40 L 327.89 71.72 L 328.20 71.02 L 328.56 70.35 L 328.85 69.65 L 328.97 68.88 L 328.96 68.10 L 328.78 67.45 L 328.35 67.00 L 327.75 66.61 L 327.14 66.12 L 326.55 65.55 L 325.97 64.99 L 325.35 64.48 L 324.69 64.10 L 324.00 63.77 L 323.37 63.32 L 322.77 62.77 L 322.19 62.19 L 321.64 61.59 L 321.20 60.95 L 320.88 60.26 L 320.49 59.60 L 319.98 58.99 L 319.41 58.41 L 318.83 57.83 L 318.24 57.24 L 317.66 56.66 L 317.08 56.08 L 316.50 55.50 L 315.91 54.93 L 315.29 54.44 L 314.63 54.07 L 313.94 53.73 L 313.31 53.27 L 312.75 52.70 L 312.33 52.07 L 312.21 51.39 L 312.46 50.75 L 313.00 50.29 L 313.71 50.05 L 314.47 49.90 L 315.18 49.65 L 315.87 49.32 L 316.59 49.10 L 317.35 49.09 L 318.08 49.29 L 318.77 49.63 L 319.48 49.88 L 320.26 49.98 L 321.08 50.00 L 321.90 50.00 L 322.72 50.00 L 323.54 49.99 L 324.34 49.92 L 325.07 49.71 L 325.76 49.38 L 326.47 49.12 L 327.25 49.02 L 328.05 49.03 L 328.81 49.18 L 329.50 49.50 L 330.18 49.79 L 330.88 49.78 L 331.55 49.48 L 332.24 49.17 L 333.01 49.03 L 333.81 48.98 L 334.58 48.86 L 335.25 48.55 L 335.74 48.01 L 336.08 47.34 L 336.43 46.66 L 336.79 45.99 L 337.10 45.30 L 337.45 44.62 L 337.79 43.94 L 337.98 43.19 L 338.13 42.43 L 338.40 41.72 L 338.76 41.05 L 339.07 40.35 L 339.42 39.67 L 339.76 38.99 L 339.95 38.25 L 340.00 37.45 L 340.08 36.66 L 340.29 35.92 L 340.62 35.24 L 340.89 34.53 L 341.03 33.76 L 341.23 33.02 L 341.57 32.34 L 341.92 31.66 L 342.23 30.97 L 342.59 30.30 L 342.87 29.59 L 343.02 28.83 Z M 330.17 16.06 L 330.47 15.60 L 330.92 15.25 L 331.46 15.07 L 332.05 15.01 L 332.66 15.00 L 333.27 15.02 L 333.84 15.13 L 334.34 15.39 L 334.83 15.71 L 335.35 15.94 L 335.88 16.13 L 336.37 16.43 L 336.82 16.83 L 337.25 17.26 L 337.63 17.72 L 337.90 18.23 L 338.10 18.76 L 338.36 19.26 L 338.74 19.72 L 339.16 20.16 L 339.60 20.60 L 340.03 21.03 L 340.45 21.48 L 340.77 21.95 L 340.90 22.48 L 340.79 23.01 L 340.48 23.49 L 340.06 23.93 L 339.62 24.35 L 339.15 24.70 L 338.64 24.89 L 338.10 24.84 L 337.61 24.56 L 337.17 24.16 L 336.74 23.72 L 336.36 23.26 L 336.10 22.76 L 335.90 22.23 L 335.63 21.72 L 335.25 21.26 L 334.83 20.82 L 334.43 20.38 L 334.12 19.90 L 333.90 19.44 L 333.58 19.11 L 333.13 18.88 L 332.64 18.60 L 332.16 18.29 L 331.64 18.06 L 331.10 17.86 L 330.63 17.55 L 330.28 17.11 L 330.10 16.59 Z" fill="rgb(221,11,9)" fill-rule="evenodd"/>
  <path d="M 0.18 197.18 L 0.03 197.53 L 0.00 198.00 L 0.00 198.50 L 0.00 199.00 L 0.00 199.50 L 0.00 200.00 L 0.03 200.47 L 0.18 200.82 L 0.53 200.97 L 1.00 201.00 L 1.47 200.97 L 1.82 200.82 L 1.97 200.47 L 2.00 200.00 L 2.00 199.50 L 2.00 199.00 L 2.00 198.50 L 2.00 198.00 L 1.97 197.53 L 1.82 197.18 L 1.47 197.03 L 1.00 197.00 L 0.53 197.03 Z M 0.18 179.18 L 0.03 179.53 L 0.00 180.00 L 0.00 180.50 L 0.00 181.00 L 0.00 181.50 L 0.00 182.00 L 0.03 182.47 L 0.18 182.82 L 0.53 182.97 L 1.00 183.00 L 1.47 182.97 L 1.82 182.82 L 1.97 182.47 L 2.00 182.00 L 2.00 181.50 L 2.00 181.00 L 2.00 180.50 L 2.00 180.00 L 1.97 179.53 L 1.82 179.18 L 1.47 179.03 L 1.00 179.00 L 0.53 179.03 Z M 0.18 138.18 L 0.03 138.53 L 0.00 139.00 L 0.00 139.50 L 0.00 140.00 L 0.00 140.50 L 0.00 141.00 L 0.00 141.50 L 0.00 142.00 L 0.00 142.50 L 0.00 143.00 L 0.00 143.50 L 0.00 144.00 L 0.00 144.50 L 0.00 145.00 L 0.00 145.50 L 0.00 146.00 L 0.00 146.50 L 0.00 147.00 L 0.00 147.50 L 0.00 148.00 L 0.00 148.50 L 0.00 149.00 L 0.00 149.50 L 0.00 150.00 L 0.00 150.50 L 0.00 151.00 L 0.00 151.50 L 0.00 152.00 L 0.00 152.50 L 0.00 153.00 L 0.00 153.50 L 0.00 154.00 L 0.00 154.50 L 0.00 155.00 L 0.00 155.50 L 0.00 156.00 L 0.00 156.50 L 0.00 157.00 L 0.00 157.50 L 0.00 158.00 L 0.00 158.50 L 0.00 159.00 L 0.00 159.50 L 0.00 160.00 L 0.00 160.50 L 0.00 161.00 L 0.00 161.50 L 0.00 162.00 L 0.00 162.50 L 0.00 163.00 L 0.00 163.50 L 0.00 164.00 L 0.00 164.50 L 0.00 165.00 L 0.00 165.50 L 0.00 166.00 L 0.00 166.50 L 0.00 167.00 L 0.00 167.50 L 0.00 168.00 L 0.03 168.47 L 0.18 168.82 L 0.53 168.97 L 1.00 169.00 L 1.47 168.97 L 1.82 168.82 L 1.97 168.47 L 2.00 168.00 L 2.00 167.50 L 2.00 167.00 L 2.00 166.50 L 2.00 166.00 L 2.00 165.50 L 2.00 165.00 L 2.00 164.50 L 2.00 164.00 L 2.00 163.50 L 2.00 163.00 L 2.00 162.50 L 2.00 162.00 L 2.00 161.50 L 2.00 161.00 L 2.00 160.50 L 2.00 160.00 L 2.00 159.50 L 2.00 159.00 L 2.00 158.50 L 2.00 158.00 L 2.00 157.50 L 2.00 157.00 L 2.00 156.50 L 2.00 156.00 L 2.00 155.50 L 2.00 155.00 L 2.00 154.50 L 2.00 154.00 L 2.00 153.50 L 2.00 153.00 L 2.00 152.50 L 2.00 152.00 L 2.00 151.50 L 2.00 151.00 L 2.00 150.50 L 2.00 150.00 L 2.00 149.50 L 2.00 149.00 L 2.00 148.50 L 2.00 148.00 L 2.00 147.50 L 2.00 147.00 L 2.00 146.50 L 2.00 146.00 L 2.00 145.50 L 2.00 145.00 L 2.00 144.50 L 2.00 144.00 L 2.00 143.50 L 2.00 143.00 L 2.00 142.50 L 2.00 142.00 L 2.00 141.50 L 2.00 141.00 L 2.00 140.50 L 2.00 140.00 L 2.00 139.50 L 2.00 139.00 L 1.97 138.53 L 1.82 138.18 L 1.47 138.03 L 1.00 138.00 L 0.53 138.03 Z M 0.18 95.18 L 0.03 95.53 L 0.00 96.00 L 0.00 96.50 L 0.00 97.00 L 0.00 97.50 L 0.00 98.00 L 0.00 98.50 L 0.00 99.00 L 0.00 99.50 L 0.00 100.00 L 0.00 100.50 L 0.00 101.00 L 0.00 101.50 L 0.00 102.00 L 0.00 102.50 L 0.00 103.00 L 0.00 103.50 L 0.00 104.00 L 0.00 104.50 L 0.00 105.00 L 0.00 105.50 L 0.00 106.00 L 0.00 106.50 L 0.00 107.00 L 0.00 107.50 L 0.00 108.00 L 0.00 108.50 L 0.00 109.00 L 0.00 109.50 L 0.00 110.00 L 0.00 110.50 L 0.00 111.00 L 0.00 111.50 L 0.00 112.00 L 0.00 112.50 L 0.00 113.00 L 0.00 113.50 L 0.00 114.00 L 0.00 114.50 L 0.00 115.00 L 0.00 115.50 L 0.00 116.00 L 0.00 116.50 L 0.00 117.00 L 0.00 117.50 L 0.00 118.00 L 0.00 118.50 L 0.00 119.00 L 0.00 119.50 L 0.00 120.00 L 0.00 120.50 L 0.00 121.00 L 0.00 121.50 L 0.00 122.00 L 0.00 122.50 L 0.00 123.00 L 0.00 123.50 L 0.00 124.00 L 0.00 124.50 L 0.00 125.00 L 0.00 125.50 L 0.00 126.00 L 0.00 126.50 L 0.00 127.00 L 0.00 127.50 L 0.00 128.00 L 0.00 128.50 L 0.00 129.00 L 0.00 129.50 L 0.00 130.00 L 0.00 130.50 L 0.00 131.00 L 0.00 131.50 L 0.00 132.00 L 0.00 132.50 L 0.00 133.00 L 0.00 133.50 L 0.00 134.00 L 0.03 134.47 L 0.18 134.82 L 0.53 134.97 L 1.00 135.00 L 1.47 134.97 L 1.82 134.82 L 1.97 134.47 L 2.00 134.00 L 2.00 133.50 L 2.00 133.00 L 2.00 132.50 L 2.00 132.00 L 2.00 131.50 L 2.00 131.00 L 2.00 130.50 L 2.00 130.00 L 2.00 129.50 L 2.00 129.00 L 2.00 128.50 L 2.00 128.00 L 2.00 127.50 L 2.00 127.00 L 2.00 126.50 L 2.00 126.00 L 2.00 125.50 L 2.00 125.00 L 2.00 124.50 L 2.00 124.00 L 2.00 123.50 L 2.00 123.00 L 2.00 122.50 L 2.00 122.00 L 2.00 121.50 L 2.00 121.00 L 2.00 120.50 L 2.00 120.00 L 2.00 119.50 L 2.00 119.00 L 2.00 118.50 L 2.00 118.00 L 2.00 117.50 L 2.00 117.00 L 2.00 116.50 L 2.00 116.00 L 2.00 115.50 L 2.00 115.00 L 2.00 114.50 L 2.00 114.00 L 2.00 113.50 L 2.00 113.00 L 2.00 112.50 L 2.00 112.00 L 2.00 111.50 L 2.00 111.00 L 2.00 110.50 L 2.00 110.00 L 2.00 109.50 L 2.00 109.00 L 2.00 108.50 L 2.00 108.00 L 2.00 107.50 L 2.00 107.00 L 2.00 106.50 L 2.00 106.00 L 2.00 105.50 L 2.00 105.00 L 2.00 104.50 L 2.00 104.00 L 2.00 103.50 L 2.00 103.00 L 2.00 102.50 L 2.00 102.00 L 2.00 101.50 L 2.00 101.00 L 2.00 100.50 L 2.00 100.00 L 2.00 99.50 L 2.00 99.00 L 2.00 98.50 L 2.00 98.00 L 2.00 97.50 L 2.00 97.00 L 2.00 96.50 L 2.00 96.00 L 1.97 95.53 L 1.82 95.18 L 1.47 95.03 L 1.00 95.00 L 0.53 95.03 Z M 0.18 47.18 L 0.03 47.53 L 0.00 48.00 L 0.00 48.50 L 0.00 49.00 L 0.00 49.50 L 0.00 50.00 L 0.00 50.50 L 0.00 51.00 L 0.03 51.47 L 0.18 51.82 L 0.53 51.97 L 1.00 52.00 L 1.47 51.97 L 1.82 51.82 L 1.97 51.47 L 2.00 51.00 L 2.00 50.50 L 2.00 50.00 L 2.00 49.50 L 2.00 49.00 L 2.00 48.50 L 2.00 48.00 L 1.97 47.53 L 1.82 47.18 L 1.47 47.03 L 1.00 47.00 L 0.53 47.03 Z" fill="rgb(231,160,159)" fill-rule="evenodd"/>
  <path d="M 0.18 184.18 L 0.03 184.53 L 0.00 185.00 L 0.00 185.50 L 0.00 186.00 L 0.00 186.50 L 0.00 187.00 L 0.00 187.50 L 0.00 188.00 L 0.00 188.50 L 0.00 189.00 L 0.00 189.50 L 0.00 190.00 L 0.00 190.50 L 0.00 191.00 L 0.00 191.50 L 0.00 192.00 L 0.00 192.50 L 0.00 193.00 L 0.00 193.50 L 0.00 194.00 L 0.00 194.50 L 0.00 195.00 L 0.03 195.47 L 0.18 195.82 L 0.53 195.97 L 1.00 196.00 L 1.47 195.97 L 1.82 195.82 L 1.97 195.47 L 2.00 195.00 L 2.00 194.50 L 2.00 194.00 L 2.00 193.50 L 2.00 193.00 L 2.00 192.50 L 2.00 192.00 L 2.00 191.50 L 2.00 191.00 L 2.00 190.50 L 2.00 190.00 L 2.00 189.50 L 2.00 189.00 L 2.00 188.50 L 2.00 188.00 L 2.00 187.50 L 2.00 187.00 L 2.00 186.50 L 2.00 186.00 L 2.00 185.50 L 2.00 185.00 L 1.97 184.53 L 1.82 184.18 L 1.47 184.03 L 1.00 184.00 L 0.53 184.03 Z M 0.18 172.18 L 0.03 172.53 L 0.00 173.00 L 0.00 173.50 L 0.00 174.00 L 0.00 174.50 L 0.00 175.00 L 0.00 175.50 L 0.00 176.00 L 0.00 176.50 L 0.00 177.00 L 0.03 177.47 L 0.18 177.82 L 0.53 177.97 L 1.00 178.00 L 1.47 177.97 L 1.82 177.82 L 1.97 177.47 L 2.00 177.00 L 2.00 176.50 L 2.00 176.00 L 2.00 175.50 L 2.00 175.00 L 2.00 174.50 L 2.00 174.00 L 2.00 173.50 L 2.00 173.00 L 1.97 172.53 L 1.82 172.18 L 1.47 172.03 L 1.00 172.00 L 0.53 172.03 Z M 0.18 59.18 L 0.03 59.53 L 0.00 60.00 L 0.00 60.50 L 0.00 61.00 L 0.00 61.50 L 0.00 62.00 L 0.00 62.50 L 0.00 63.00 L 0.00 63.50 L 0.00 64.00 L 0.00 64.50 L 0.00 65.00 L 0.00 65.50 L 0.00 66.00 L 0.00 66.50 L 0.00 67.00 L 0.00 67.50 L 0.00 68.00 L 0.00 68.50 L 0.00 69.00 L 0.00 69.50 L 0.00 70.00 L 0.00 70.50 L 0.00 71.00 L 0.00 71.50 L 0.00 72.00 L 0.00 72.50 L 0.00 73.00 L 0.00 73.50 L 0.00 74.00 L 0.00 74.50 L 0.00 75.00 L 0.00 75.50 L 0.00 76.00 L 0.00 76.50 L 0.00 77.00 L 0.00 77.50 L 0.00 78.00 L 0.00 78.50 L 0.00 79.00 L 0.00 79.50 L 0.00 80.00 L 0.00 80.50 L 0.00 81.00 L 0.00 81.50 L 0.00 82.00 L 0.00 82.50 L 0.00 83.00 L 0.00 83.50 L 0.00 84.00 L 0.00 84.50 L 0.00 85.00 L 0.00 85.50 L 0.00 86.00 L 0.00 86.50 L 0.00 87.00 L 0.00 87.50 L 0.00 88.00 L 0.00 88.50 L 0.00 89.00 L 0.00 89.50 L 0.00 90.00 L 0.00 90.50 L 0.00 91.00 L 0.00 91.50 L 0.00 92.00 L 0.03 92.47 L 0.18 92.82 L 0.53 92.97 L 1.00 93.00 L 1.47 92.97 L 1.82 92.82 L 1.97 92.47 L 2.00 92.00 L 2.00 91.50 L 2.00 91.00 L 2.00 90.50 L 2.00 90.00 L 2.00 89.50 L 2.00 89.00 L 2.00 88.50 L 2.00 88.00 L 2.00 87.50 L 2.00 87.00 L 2.00 86.50 L 2.00 86.00 L 2.00 85.50 L 2.00 85.00 L 2.00 84.50 L 2.00 84.00 L 2.00 83.50 L 2.00 83.00 L 2.00 82.50 L 2.00 82.00 L 2.00 81.50 L 2.00 81.00 L 2.00 80.50 L 2.00 80.00 L 2.00 79.50 L 2.00 79.00 L 2.00 78.50 L 2.00 78.00 L 2.00 77.50 L 2.00 77.00 L 2.00 76.50 L 2.00 76.00 L 2.00 75.50 L 2.00 75.00 L 2.00 74.50 L 2.00 74.00 L 2.00 73.50 L 2.00 73.00 L 2.00 72.50 L 2.00 72.00 L 2.00 71.50 L 2.00 71.00 L 2.00 70.50 L 2.00 70.00 L 2.00 69.50 L 2.00 69.00 L 2.00 68.50 L 2.00 68.00 L 2.00 67.50 L 2.00 67.00 L 2.00 66.50 L 2.00 66.00 L 2.00 65.50 L 2.00 65.00 L 2.00 64.50 L 2.00 64.00 L 2.00 63.50 L 2.00 63.00 L 2.00 62.50 L 2.00 62.00 L 2.00 61.50 L 2.00 61.00 L 2.00 60.50 L 2.00 60.00 L 1.97 59.53 L 1.82 59.18 L 1.47 59.03 L 1.00 59.00 L 0.53 59.03 Z M 0.18 41.18 L 0.03 41.53 L 0.00 42.00 L 0.00 42.50 L 0.00 43.00 L 0.00 43.50 L 0.00 44.00 L 0.00 44.50 L 0.00 45.00 L 0.03 45.47 L 0.18 45.82 L 0.53 45.97 L 1.00 46.00 L 1.47 45.97 L 1.82 45.82 L 1.97 45.47 L 2.00 45.00 L 2.00 44.50 L 2.00 44.00 L 2.00 43.50 L 2.00 43.00 L 2.00 42.50 L 2.00 42.00 L 1.97 41.53 L 1.82 41.18 L 1.47 41.03 L 1.00 41.00 L 0.53 41.03 Z M 344.09 30.20 L 343.53 30.61 L 343.17 31.21 L 343.01 31.91 L 342.87 32.63 L 342.60 33.29 L 342.27 33.93 L 342.06 34.62 L 341.95 35.34 L 341.75 36.03 L 341.42 36.67 L 341.14 37.33 L 341.02 38.05 L 340.98 38.81 L 340.89 39.54 L 340.62 40.21 L 340.18 40.80 L 339.68 41.36 L 339.27 41.97 L 339.05 42.65 L 338.94 43.38 L 338.73 44.07 L 338.39 44.70 L 338.08 45.35 L 337.79 46.00 L 337.44 46.63 L 337.15 47.28 L 337.00 47.99 L 336.85 48.71 L 336.53 49.35 L 336.06 49.92 L 335.50 50.43 L 334.89 50.81 L 334.18 50.97 L 333.42 51.00 L 332.64 51.00 L 331.87 51.00 L 331.10 51.00 L 330.32 51.00 L 329.55 51.00 L 328.78 51.00 L 328.00 51.00 L 327.23 51.00 L 326.45 51.00 L 325.68 51.00 L 324.91 51.00 L 324.13 51.00 L 323.36 51.00 L 322.58 51.00 L 321.81 51.00 L 321.04 51.00 L 320.26 51.00 L 319.49 51.00 L 318.72 51.00 L 317.94 51.00 L 317.17 51.00 L 316.39 51.00 L 315.62 51.00 L 314.85 51.00 L 314.10 51.03 L 313.50 51.19 L 313.23 51.58 L 313.35 52.12 L 313.79 52.61 L 314.40 52.95 L 315.05 53.26 L 315.65 53.68 L 316.20 54.21 L 316.75 54.75 L 317.30 55.30 L 317.85 55.85 L 318.39 56.39 L 318.94 56.94 L 319.49 57.49 L 320.03 58.03 L 320.58 58.58 L 321.13 59.13 L 321.68 59.68 L 322.22 60.22 L 322.77 60.77 L 323.32 61.32 L 323.87 61.87 L 324.41 62.41 L 324.96 62.95 L 325.53 63.46 L 326.14 63.85 L 326.79 64.14 L 327.41 64.51 L 327.98 65.00 L 328.53 65.54 L 329.07 66.09 L 329.54 66.67 L 329.85 67.31 L 329.97 68.03 L 329.98 68.79 L 329.89 69.53 L 329.65 70.20 L 329.32 70.84 L 329.09 71.52 L 328.98 72.24 L 328.80 72.94 L 328.47 73.58 L 328.16 74.23 L 328.03 74.95 L 328.00 75.71 L 328.00 76.48 L 327.96 77.24 L 327.80 77.94 L 327.47 78.58 L 327.16 79.23 L 327.03 79.95 L 327.00 80.71 L 327.00 81.48 L 327.00 82.26 L 327.00 83.03 L 326.98 83.80 L 326.89 84.53 L 326.63 85.20 L 326.19 85.79 L 325.68 86.35 L 325.26 86.95 L 324.95 87.60 L 324.64 88.24 L 324.32 88.86 L 324.23 89.42 L 324.50 89.81 L 325.10 89.94 L 325.78 89.83 L 326.43 89.53 L 327.05 89.17 L 327.71 88.89 L 328.34 88.54 L 328.92 88.07 L 329.47 87.53 L 330.02 86.99 L 330.59 86.50 L 331.22 86.16 L 331.93 86.01 L 332.65 85.87 L 333.30 85.56 L 333.88 85.10 L 334.44 84.60 L 335.05 84.19 L 335.70 83.90 L 336.33 83.55 L 336.91 83.08 L 337.48 82.57 L 338.08 82.17 L 338.74 81.88 L 339.38 81.56 L 340.00 81.21 L 340.66 80.92 L 341.29 80.58 L 341.87 80.11 L 342.42 79.58 L 342.97 79.04 L 343.54 78.54 L 344.17 78.18 L 344.87 78.05 L 345.59 78.12 L 346.25 78.40 L 346.83 78.86 L 347.40 79.36 L 348.00 79.78 L 348.65 80.08 L 349.28 80.42 L 349.86 80.88 L 350.43 81.39 L 351.03 81.80 L 351.68 82.09 L 352.31 82.44 L 352.89 82.91 L 353.46 83.41 L 354.06 83.82 L 354.72 84.11 L 355.36 84.43 L 355.99 84.78 L 356.64 85.07 L 357.27 85.41 L 357.86 85.87 L 358.42 86.38 L 359.02 86.79 L 359.67 87.09 L 360.30 87.43 L 360.88 87.90 L 361.45 88.41 L 362.05 88.81 L 362.71 89.10 L 363.35 89.43 L 363.98 89.76 L 364.67 89.93 L 365.32 89.88 L 365.78 89.57 L 365.96 88.98 L 365.98 88.25 L 365.90 87.51 L 365.67 86.83 L 365.33 86.20 L 365.03 85.55 L 364.73 84.90 L 364.38 84.27 L 364.07 83.63 L 363.78 82.98 L 363.43 82.35 L 363.14 81.69 L 363.02 80.97 L 363.00 80.20 L 362.99 79.43 L 362.94 78.68 L 362.76 77.98 L 362.43 77.35 L 362.14 76.69 L 362.00 75.98 L 361.85 75.26 L 361.55 74.61 L 361.22 73.98 L 361.04 73.28 L 360.92 72.55 L 360.69 71.87 L 360.37 71.23 L 360.11 70.56 L 360.02 69.83 L 360.00 69.06 L 360.01 68.30 L 360.09 67.55 L 360.33 66.88 L 360.75 66.28 L 361.28 65.72 L 361.82 65.18 L 362.37 64.63 L 362.92 64.08 L 363.46 63.54 L 364.01 62.99 L 364.56 62.44 L 365.11 61.89 L 365.65 61.35 L 366.21 60.82 L 366.79 60.37 L 367.43 60.04 L 368.08 59.72 L 368.67 59.29 L 369.23 58.77 L 369.78 58.22 L 370.32 57.68 L 370.87 57.13 L 371.42 56.58 L 371.97 56.04 L 372.51 55.49 L 373.06 54.95 L 373.64 54.47 L 374.27 54.12 L 374.92 53.83 L 375.53 53.42 L 376.07 52.90 L 376.54 52.33 L 376.80 51.74 L 376.67 51.26 L 376.15 51.05 L 375.42 51.00 L 374.65 51.00 L 373.87 51.00 L 373.10 51.00 L 372.33 51.00 L 371.55 51.00 L 370.78 51.00 L 370.00 51.00 L 369.23 51.00 L 368.46 51.00 L 367.68 51.00 L 366.91 51.00 L 366.13 51.00 L 365.36 51.00 L 364.59 51.00 L 363.83 50.97 L 363.12 50.82 L 362.48 50.49 L 361.83 50.18 L 361.13 50.05 L 360.41 50.12 L 359.74 50.38 L 359.10 50.71 L 358.42 50.92 L 357.67 50.99 L 356.92 50.97 L 356.20 50.83 L 355.56 50.52 L 354.93 50.16 L 354.27 49.88 L 353.67 49.52 L 353.25 48.98 L 353.04 48.30 L 352.92 47.57 L 352.70 46.89 L 352.37 46.26 L 352.06 45.61 L 351.77 44.96 L 351.42 44.33 L 351.14 43.67 L 351.02 42.94 L 350.98 42.19 L 350.89 41.45 L 350.64 40.78 L 350.30 40.15 L 350.00 39.50 L 349.70 38.85 L 349.35 38.22 L 349.04 37.58 L 348.74 36.92 L 348.39 36.29 L 348.08 35.65 L 347.79 35.00 L 347.44 34.37 L 347.15 33.72 L 347.00 33.00 L 346.85 32.29 L 346.56 31.64 L 346.20 31.03 L 345.87 30.48 L 345.41 30.15 L 344.77 30.06 Z M 0.18 25.18 L 0.03 25.53 L 0.00 26.00 L 0.00 26.50 L 0.00 27.00 L 0.00 27.50 L 0.00 28.00 L 0.03 28.47 L 0.18 28.82 L 0.53 28.97 L 1.00 29.00 L 1.47 28.97 L 1.82 28.82 L 1.97 28.47 L 2.00 28.00 L 2.00 27.50 L 2.00 27.00 L 2.00 26.50 L 2.00 26.00 L 1.97 25.53 L 1.82 25.18 L 1.47 25.03 L 1.00 25.00 L 0.53 25.03 Z M 186.18 0.18 L 186.03 0.53 L 186.00 1.00 L 186.03 1.47 L 186.18 1.82 L 186.53 1.97 L 187.00 2.00 L 187.50 2.00 L 188.00 2.00 L 188.50 2.00 L 189.00 2.00 L 189.50 2.00 L 190.00 2.00 L 190.50 2.00 L 191.00 2.00 L 191.50 2.00 L 192.00 2.00 L 192.50 2.00 L 193.00 2.00 L 193.50 2.00 L 194.00 2.00 L 194.47 1.97 L 194.82 1.82 L 194.97 1.47 L 195.00 1.00 L 194.97 0.53 L 194.82 0.18 L 194.47 0.03 L 194.00 0.00 L 193.50 0.00 L 193.00 0.00 L 192.50 0.00 L 192.00 0.00 L 191.50 0.00 L 191.00 0.00 L 190.50 0.00 L 190.00 0.00 L 189.50 0.00 L 189.00 0.00 L 188.50 0.00 L 188.00 0.00 L 187.50 0.00 L 187.00 0.00 L 186.53 0.03 Z M 130.18 0.18 L 130.03 0.53 L 130.00 1.00 L 130.03 1.47 L 130.18 1.82 L 130.53 1.97 L 131.00 2.00 L 131.50 2.00 L 132.00 2.00 L 132.50 2.00 L 133.00 2.00 L 133.50 2.00 L 134.00 2.00 L 134.50 2.00 L 135.00 2.00 L 135.50 2.00 L 136.00 2.00 L 136.50 2.00 L 137.00 2.00 L 137.50 2.00 L 138.00 2.00 L 138.50 2.00 L 139.00 2.00 L 139.50 2.00 L 140.00 2.00 L 140.50 2.00 L 141.00 2.00 L 141.50 2.00 L 142.00 2.00 L 142.50 2.00 L 143.00 2.00 L 143.50 2.00 L 144.00 2.00 L 144.50 2.00 L 145.00 2.00 L 145.50 2.00 L 146.00 2.00 L 146.50 2.00 L 147.00 2.00 L 147.50 2.00 L 148.00 2.00 L 148.50 2.00 L 149.00 2.00 L 149.50 2.00 L 150.00 2.00 L 150.50 2.00 L 151.00 2.00 L 151.50 2.00 L 152.00 2.00 L 152.50 2.00 L 153.00 2.00 L 153.50 2.00 L 154.00 2.00 L 154.50 2.00 L 155.00 2.00 L 155.50 2.00 L 156.00 2.00 L 156.50 2.00 L 157.00 2.00 L 157.50 2.00 L 158.00 2.00 L 158.50 2.00 L 159.00 2.00 L 159.50 2.00 L 160.00 2.00 L 160.50 2.00 L 161.00 2.00 L 161.50 2.00 L 162.00 2.00 L 162.50 2.00 L 163.00 2.00 L 163.50 2.00 L 164.00 2.00 L 164.50 2.00 L 165.00 2.00 L 165.50 2.00 L 166.00 2.00 L 166.50 2.00 L 167.00 2.00 L 167.50 2.00 L 168.00 2.00 L 168.50 2.00 L 169.00 2.00 L 169.50 2.00 L 170.00 2.00 L 170.50 2.00 L 171.00 2.00 L 171.47 1.97 L 171.82 1.82 L 171.97 1.47 L 172.00 1.00 L 171.97 0.53 L 171.82 0.18 L 171.47 0.03 L 171.00 0.00 L 170.50 0.00 L 170.00 0.00 L 169.50 0.00 L 169.00 0.00 L 168.50 0.00 L 168.00 0.00 L 167.50 0.00 L 167.00 0.00 L 166.50 0.00 L 166.00 0.00 L 165.50 0.00 L 165.00 0.00 L 164.50 0.00 L 164.00 0.00 L 163.50 0.00 L 163.00 0.00 L 162.50 0.00 L 162.00 0.00 L 161.50 0.00 L 161.00 0.00 L 160.50 0.00 L 160.00 0.00 L 159.50 0.00 L 159.00 0.00 L 158.50 0.00 L 158.00 0.00 L 157.50 0.00 L 157.00 0.00 L 156.50 0.00 L 156.00 0.00 L 155.50 0.00 L 155.00 0.00 L 154.50 0.00 L 154.00 0.00 L 153.50 0.00 L 153.00 0.00 L 152.50 0.00 L 152.00 0.00 L 151.50 0.00 L 151.00 0.00 L 150.50 0.00 L 150.00 0.00 L 149.50 0.00 L 149.00 0.00 L 148.50 0.00 L 148.00 0.00 L 147.50 0.00 L 147.00 0.00 L 146.50 0.00 L 146.00 0.00 L 145.50 0.00 L 145.00 0.00 L 144.50 0.00 L 144.00 0.00 L 143.50 0.00 L 143.00 0.00 L 142.50 0.00 L 142.00 0.00 L 141.50 0.00 L 141.00 0.00 L 140.50 0.00 L 140.00 0.00 L 139.50 0.00 L 139.00 0.00 L 138.50 0.00 L 138.00 0.00 L 137.50 0.00 L 137.00 0.00 L 136.50 0.00 L 136.00 0.00 L 135.50 0.00 L 135.00 0.00 L 134.50 0.00 L 134.00 0.00 L 133.50 0.00 L 133.00 0.00 L 132.50 0.00 L 132.00 0.00 L 131.50 0.00 L 131.00 0.00 L 130.53 0.03 Z M 119.18 0.18 L 119.03 0.53 L 119.00 1.00 L 119.03 1.47 L 119.18 1.82 L 119.53 1.97 L 120.00 2.00 L 120.50 2.00 L 121.00 2.00 L 121.50 2.00 L 122.00 2.00 L 122.50 2.00 L 123.00 2.00 L 123.47 1.97 L 123.82 1.82 L 123.97 1.47 L 124.00 1.00 L 123.97 0.53 L 123.82 0.18 L 123.47 0.03 L 123.00 0.00 L 122.50 0.00 L 122.00 0.00 L 121.50 0.00 L 121.00 0.00 L 120.50 0.00 L 120.00 0.00 L 119.53 0.03 Z M 53.18 0.18 L 53.03 0.53 L 53.00 1.00 L 53.03 1.47 L 53.18 1.82 L 53.53 1.97 L 54.00 2.00 L 54.50 2.00 L 55.00 2.00 L 55.50 2.00 L 56.00 2.00 L 56.50 2.00 L 57.00 2.00 L 57.47 1.97 L 57.82 1.82 L 57.97 1.47 L 58.00 1.00 L 57.97 0.53 L 57.82 0.18 L 57.47 0.03 L 57.00 0.00 L 56.50 0.00 L 56.00 0.00 L 55.50 0.00 L 55.00 0.00 L 54.50 0.00 L 54.00 0.00 L 53.53 0.03 Z M 32.18 0.18 L 32.03 0.53 L 32.00 1.00 L 32.03 1.47 L 32.18 1.82 L 32.53 1.97 L 33.00 2.00 L 33.50 2.00 L 34.00 2.00 L 34.50 2.00 L 35.00 2.00 L 35.50 2.00 L 36.00 2.00 L 36.50 2.00 L 37.00 2.00 L 37.50 2.00 L 38.00 2.00 L 38.50 2.00 L 39.00 2.00 L 39.50 2.00 L 40.00 2.00 L 40.50 2.00 L 41.00 2.00 L 41.50 2.00 L 42.00 2.00 L 42.50 2.00 L 43.00 2.00 L 43.50 2.00 L 44.00 2.00 L 44.50 2.00 L 45.00 2.00 L 45.50 2.00 L 46.00 2.00 L 46.50 2.00 L 47.00 2.00 L 47.50 2.00 L 48.00 2.00 L 48.47 1.97 L 48.82 1.82 L 48.97 1.47 L 49.00 1.00 L 48.97 0.53 L 48.82 0.18 L 48.47 0.03 L 48.00 0.00 L 47.50 0.00 L 47.00 0.00 L 46.50 0.00 L 46.00 0.00 L 45.50 0.00 L 45.00 0.00 L 44.50 0.00 L 44.00 0.00 L 43.50 0.00 L 43.00 0.00 L 42.50 0.00 L 42.00 0.00 L 41.50 0.00 L 41.00 0.00 L 40.50 0.00 L 40.00 0.00 L 39.50 0.00 L 39.00 0.00 L 38.50 0.00 L 38.00 0.00 L 37.50 0.00 L 37.00 0.00 L 36.50 0.00 L 36.00 0.00 L 35.50 0.00 L 35.00 0.00 L 34.50 0.00 L 34.00 0.00 L 33.50 0.00 L 33.00 0.00 L 32.53 0.03 Z" fill="rgb(253,250,250)" fill-rule="evenodd"/>
</svg>