<svg xmlns="http://www.w3.org/2000/svg" width="323" height="183" viewBox="0 0 323 183" role="img" aria-label="04_plates_04">
  <title>04_plates_04</title>
  <path d="M 53.06 5.44 L 50.39 5.94 L 47.41 6.00 L 44.41 6.00 L 41.41 6.00 L 38.41 6.00 L 35.51 6.26 L 32.93 7.27 L 30.45 8.53 L 28.05 9.98 L 25.71 11.59 L 23.50 13.50 L 21.38 15.62 L 19.25 17.75 L 17.13 19.87 L 15.01 21.99 L 12.89 24.11 L 10.79 26.25 L 9.25 28.61 L 8.51 31.31 L 7.43 33.86 L 7.02 36.69 L 7.00 39.69 L 7.00 42.69 L 7.00 45.69 L 7.00 48.69 L 7.25 51.58 L 7.52 54.17 L 7.05 56.89 L 7.00 59.87 L 7.00 62.88 L 7.04 65.86 L 7.49 68.63 L 7.32 71.17 L 7.52 73.77 L 7.26 76.35 L 7.02 79.23 L 7.37 82.08 L 7.95 84.84 L 8.00 87.82 L 7.96 90.81 L 7.47 93.61 L 7.03 96.43 L 7.00 99.42 L 7.00 102.42 L 7.00 105.42 L 7.00 108.42 L 7.00 111.42 L 7.00 114.43 L 6.98 117.42 L 6.58 120.26 L 6.09 123.02 L 6.59 125.78 L 6.98 128.62 L 7.00 131.61 L 7.00 134.61 L 7.00 137.61 L 7.00 140.62 L 7.00 143.62 L 7.00 146.62 L 7.03 149.61 L 7.48 152.43 L 7.98 155.22 L 8.36 158.06 L 9.29 160.68 L 10.99 162.98 L 13.10 165.10 L 15.23 167.23 L 17.32 169.36 L 19.07 171.64 L 20.90 173.88 L 23.02 176.00 L 25.26 177.83 L 27.74 179.09 L 30.31 180.12 L 33.02 180.85 L 35.95 181.00 L 38.90 181.14 L 41.64 181.78 L 44.55 182.00 L 47.55 182.00 L 50.55 182.00 L 53.55 182.00 L 56.55 182.00 L 59.56 182.00 L 62.56 182.00 L 65.56 182.00 L 68.56 182.00 L 71.56 182.00 L 74.57 182.00 L 77.57 182.00 L 80.57 182.00 L 83.57 182.00 L 86.57 182.00 L 89.58 182.00 L 92.58 182.00 L 95.58 182.00 L 98.58 182.00 L 101.58 182.00 L 104.59 182.00 L 107.59 182.00 L 110.59 182.00 L 113.59 182.00 L 116.59 182.00 L 119.60 182.00 L 122.60 182.00 L 125.60 182.00 L 128.60 182.00 L 131.60 182.00 L 134.61 182.00 L 137.61 182.00 L 140.61 182.00 L 143.61 182.00 L 146.61 182.00 L 149.62 182.00 L 152.58 181.92 L 155.32 181.28 L 158.19 181.05 L 160.90 181.53 L 163.49 181.24 L 166.39 181.00 L 169.39 181.00 L 172.39 181.00 L 175.39 181.00 L 178.39 181.00 L 181.39 181.00 L 184.40 181.00 L 187.40 181.00 L 190.40 181.00 L 193.40 181.00 L 196.40 181.00 L 199.41 181.00 L 202.40 181.02 L 205.24 181.42 L 208.02 181.96 L 211.00 182.00 L 214.00 182.00 L 217.00 182.00 L 220.01 182.00 L 223.01 182.00 L 226.01 182.00 L 229.01 182.00 L 232.01 182.00 L 235.02 182.00 L 238.02 182.00 L 241.02 182.00 L 244.02 182.00 L 247.02 182.00 L 250.03 182.00 L 253.03 182.00 L 256.03 182.00 L 259.03 182.00 L 262.03 182.00 L 265.04 182.00 L 268.03 181.99 L 270.91 181.69 L 273.65 181.06 L 276.63 181.00 L 279.63 181.00 L 282.63 181.00 L 285.64 181.00 L 288.64 181.00 L 291.60 180.92 L 294.34 180.26 L 297.06 179.60 L 299.59 178.45 L 301.76 176.86 L 303.45 174.61 L 305.55 172.51 L 307.81 170.80 L 309.63 168.86 L 311.52 167.03 L 313.24 164.91 L 315.09 163.05 L 316.78 160.87 L 317.87 158.32 L 318.72 155.67 L 319.05 152.81 L 319.53 150.10 L 319.24 147.50 L 319.00 144.61 L 319.00 141.61 L 319.00 138.61 L 319.00 135.60 L 319.00 132.60 L 319.00 129.60 L 319.00 126.60 L 319.00 123.60 L 319.00 120.59 L 319.00 117.59 L 319.06 114.61 L 319.70 111.88 L 320.00 109.00 L 320.00 106.00 L 320.00 103.00 L 320.00 99.99 L 320.00 96.99 L 320.00 93.99 L 320.00 90.99 L 320.00 87.99 L 320.00 84.98 L 320.00 81.98 L 320.00 78.98 L 320.00 75.98 L 320.00 72.98 L 320.00 69.98 L 319.85 67.03 L 319.21 64.30 L 319.00 61.38 L 319.00 58.38 L 319.00 55.38 L 319.00 52.38 L 319.00 49.37 L 319.00 46.37 L 319.00 43.37 L 319.00 40.37 L 319.00 37.37 L 318.73 34.48 L 317.63 31.93 L 316.04 29.59 L 314.28 27.31 L 312.18 25.18 L 310.10 23.04 L 308.43 20.73 L 306.50 18.56 L 304.21 16.85 L 301.99 14.97 L 299.86 12.86 L 297.74 10.74 L 295.55 8.77 L 293.12 7.39 L 290.48 6.51 L 287.68 6.03 L 284.69 6.00 L 281.71 5.95 L 278.96 5.33 L 276.09 5.01 L 273.09 5.00 L 270.09 5.00 L 267.09 5.00 L 264.09 5.00 L 261.09 5.00 L 258.09 5.00 L 255.08 5.00 L 252.08 5.00 L 249.08 5.00 L 246.08 5.00 L 243.09 5.04 L 240.31 5.56 L 237.48 5.98 L 234.48 6.00 L 231.48 6.00 L 228.48 6.00 L 225.48 6.00 L 222.48 6.00 L 219.47 6.00 L 216.47 6.00 L 213.47 6.00 L 210.47 6.00 L 207.47 6.00 L 204.46 6.00 L 201.46 6.00 L 198.46 6.00 L 195.46 6.00 L 192.46 6.00 L 189.45 6.00 L 186.45 6.00 L 183.45 6.00 L 180.45 6.00 L 177.45 6.00 L 174.44 6.00 L 171.44 6.00 L 168.44 6.00 L 165.44 6.00 L 162.44 6.00 L 159.44 5.97 L 156.62 5.54 L 153.83 5.04 L 150.84 5.00 L 147.84 5.00 L 144.84 5.00 L 141.84 5.00 L 138.85 5.05 L 136.09 5.63 L 133.29 6.11 L 130.74 7.10 L 128.58 7.09 L 126.41 6.08 L 123.48 6.00 L 120.48 6.00 L 117.48 6.00 L 114.51 6.04 L 112.36 6.90 L 111.30 9.02 L 109.23 9.07 L 106.79 7.86 L 104.70 6.51 L 102.11 6.01 L 99.12 6.00 L 96.11 6.00 L 93.11 6.00 L 90.11 6.00 L 87.11 6.00 L 84.11 6.00 L 81.10 6.00 L 78.10 6.00 L 75.10 6.00 L 72.10 6.00 L 69.10 6.00 L 66.09 6.00 L 63.09 6.00 L 60.09 6.00 L 57.11 5.96 L 54.34 5.50 Z M 234.13 132.05 L 234.37 131.67 L 234.70 131.34 L 235.09 131.12 L 235.54 131.02 L 236.01 131.00 L 236.49 131.02 L 236.94 131.12 L 237.32 131.36 L 237.65 131.69 L 237.88 132.08 L 237.96 132.51 L 237.87 132.95 L 237.63 133.33 L 237.30 133.66 L 236.91 133.88 L 236.46 133.98 L 235.99 134.00 L 235.51 133.98 L 235.06 133.88 L 234.68 133.64 L 234.35 133.31 L 234.12 132.92 L 234.04 132.49 Z M 311.14 97.06 L 311.43 96.63 L 311.83 96.29 L 312.31 96.09 L 312.84 96.01 L 313.40 96.00 L 313.96 96.00 L 314.52 96.00 L 315.08 96.01 L 315.62 96.07 L 316.10 96.25 L 316.52 96.57 L 316.81 97.00 L 316.96 97.50 L 316.99 98.04 L 316.94 98.58 L 316.77 99.07 L 316.46 99.49 L 316.04 99.80 L 315.58 99.98 L 315.19 100.19 L 314.98 100.58 L 314.80 101.04 L 314.49 101.46 L 314.07 101.77 L 313.58 101.94 L 313.04 101.99 L 312.48 102.00 L 311.92 101.99 L 311.38 101.93 L 310.90 101.75 L 310.48 101.43 L 310.19 101.01 L 310.08 100.52 L 310.17 100.02 L 310.44 99.58 L 310.73 99.14 L 310.92 98.65 L 310.99 98.12 L 311.02 97.57 Z M 297.13 83.05 L 297.37 82.67 L 297.70 82.34 L 298.09 82.12 L 298.54 82.02 L 299.01 82.00 L 299.49 82.02 L 299.94 82.12 L 300.32 82.36 L 300.65 82.69 L 300.88 83.08 L 300.96 83.51 L 300.87 83.95 L 300.63 84.33 L 300.30 84.66 L 299.91 84.88 L 299.46 84.98 L 298.99 85.00 L 298.51 84.98 L 298.06 84.88 L 297.68 84.64 L 297.35 84.31 L 297.12 83.92 L 297.04 83.49 Z M 293.15 83.06 L 293.45 82.61 L 293.88 82.27 L 294.37 82.10 L 294.89 82.15 L 295.34 82.42 L 295.70 82.83 L 295.93 83.32 L 296.11 83.84 L 296.37 84.32 L 296.68 84.78 L 296.90 85.28 L 296.98 85.83 L 296.97 86.40 L 296.85 86.94 L 296.55 87.39 L 296.12 87.73 L 295.63 87.90 L 295.11 87.85 L 294.66 87.58 L 294.30 87.17 L 294.07 86.68 L 293.89 86.16 L 293.63 85.68 L 293.32 85.22 L 293.10 84.72 L 293.02 84.17 L 293.03 83.60 Z M 24.13 37.05 L 24.37 36.67 L 24.70 36.34 L 25.09 36.12 L 25.53 36.04 L 25.96 36.13 L 26.34 36.38 L 26.66 36.71 L 26.89 37.10 L 26.98 37.55 L 27.00 38.03 L 26.98 38.51 L 26.87 38.95 L 26.63 39.33 L 26.30 39.66 L 25.91 39.88 L 25.47 39.96 L 25.04 39.87 L 24.66 39.62 L 24.34 39.29 L 24.11 38.90 L 24.02 38.45 L 24.00 37.97 L 24.02 37.49 Z M 34.16 27.06 L 34.44 26.62 L 34.86 26.28 L 35.36 26.08 L 35.91 26.02 L 36.47 26.04 L 36.99 26.18 L 37.43 26.49 L 37.76 26.91 L 37.93 27.42 L 37.99 27.97 L 38.00 28.55 L 37.99 29.12 L 37.91 29.67 L 37.71 30.16 L 37.36 30.57 L 36.91 30.85 L 36.41 30.91 L 35.91 30.75 L 35.49 30.43 L 35.18 29.99 L 34.99 29.49 L 34.81 28.98 L 34.52 28.52 L 34.23 28.07 L 34.09 27.57 Z M 125.00 12.00 L 125.43 11.60 L 125.88 11.27 L 126.39 11.08 L 126.96 11.01 L 127.55 11.00 L 128.13 11.02 L 128.69 11.10 L 129.19 11.31 L 129.59 11.68 L 129.87 12.15 L 129.98 12.69 L 129.98 13.27 L 129.88 13.82 L 129.62 14.30 L 129.25 14.74 L 128.84 15.16 L 128.44 15.59 L 128.14 16.06 L 127.96 16.58 L 127.76 17.08 L 127.42 17.52 L 126.98 17.82 L 126.46 17.91 L 125.95 17.77 L 125.51 17.45 L 125.20 17.01 L 125.05 16.48 L 124.99 15.91 L 124.92 15.35 L 124.72 14.84 L 124.41 14.38 L 124.15 13.90 L 124.10 13.38 L 124.27 12.88 L 124.60 12.43 Z M 119.15 10.06 L 119.45 9.61 L 119.88 9.27 L 120.37 9.10 L 120.89 9.15 L 121.34 9.42 L 121.70 9.83 L 121.94 10.30 L 122.16 10.71 L 122.53 10.97 L 122.99 11.17 L 123.43 11.49 L 123.76 11.92 L 123.91 12.43 L 123.84 12.94 L 123.55 13.39 L 123.12 13.73 L 122.62 13.92 L 122.06 13.98 L 121.49 13.95 L 120.97 13.79 L 120.51 13.48 L 120.09 13.08 L 119.68 12.66 L 119.33 12.22 L 119.10 11.72 L 119.02 11.17 L 119.03 10.60 Z M 167.13 9.05 L 167.37 8.67 L 167.70 8.34 L 168.09 8.12 L 168.53 8.04 L 168.96 8.13 L 169.34 8.38 L 169.66 8.71 L 169.89 9.10 L 169.98 9.55 L 170.00 10.03 L 169.98 10.51 L 169.87 10.95 L 169.63 11.33 L 169.30 11.66 L 168.91 11.88 L 168.47 11.96 L 168.04 11.87 L 167.66 11.62 L 167.34 11.29 L 167.11 10.90 L 167.02 10.45 L 167.00 9.97 L 167.02 9.49 Z" fill="rgb(23,22,20)" fill-rule="evenodd"/>
  <path d="M 120.21 11.21 L 120.09 11.59 L 120.23 12.06 L 120.54 12.49 L 120.98 12.80 L 121.49 12.95 L 122.05 12.99 L 122.62 13.00 L 123.19 13.02 L 123.73 13.10 L 124.22 13.32 L 124.65 13.67 L 125.06 14.06 L 125.45 14.48 L 125.77 14.92 L 125.97 15.39 L 126.19 15.77 L 126.57 15.90 L 127.05 15.78 L 127.47 15.47 L 127.78 15.05 L 127.90 14.57 L 127.77 14.19 L 127.39 13.97 L 126.92 13.77 L 126.47 13.47 L 126.01 13.19 L 125.49 13.04 L 124.94 12.99 L 124.39 12.93 L 123.89 12.75 L 123.44 12.45 L 122.98 12.16 L 122.47 11.99 L 121.97 11.80 L 121.52 11.51 L 121.06 11.22 L 120.59 11.09 Z" fill="rgb(88,87,86)" fill-rule="evenodd"/>
  <path d="M 321.18 108.18 L 321.03 108.53 L 321.00 109.00 L 321.00 109.50 L 321.00 110.00 L 321.00 110.50 L 321.00 111.00 L 321.00 111.50 L 321.00 112.00 L 321.00 112.50 L 321.00 113.00 L 321.00 113.50 L 321.00 114.00 L 321.00 114.50 L 321.00 115.00 L 321.00 115.50 L 321.00 116.00 L 321.00 116.50 L 321.00 117.00 L 321.03 117.47 L 321.18 117.82 L 321.50 117.94 L 321.82 117.82 L 321.97 117.47 L 322.00 117.00 L 322.00 116.50 L 322.00 116.00 L 322.00 115.50 L 322.00 115.00 L 322.00 114.50 L 322.00 114.00 L 322.00 113.50 L 322.00 113.00 L 322.00 112.50 L 322.00 112.00 L 322.00 111.50 L 322.00 111.00 L 322.00 110.50 L 322.00 110.00 L 322.00 109.50 L 322.00 109.00 L 321.97 108.53 L 321.82 108.18 L 321.50 108.06 Z M 0.18 107.18 L 0.03 107.53 L 0.00 108.00 L 0.00 108.50 L 0.00 109.00 L 0.00 109.50 L 0.00 110.00 L 0.00 110.50 L 0.00 111.00 L 0.00 111.50 L 0.00 112.00 L 0.00 112.50 L 0.00 113.00 L 0.00 113.50 L 0.00 114.00 L 0.00 114.50 L 0.00 115.00 L 0.00 115.50 L 0.00 116.00 L 0.00 116.50 L 0.00 117.00 L 0.00 117.50 L 0.00 118.00 L 0.00 118.50 L 0.00 119.00 L 0.00 119.50 L 0.00 120.00 L 0.00 120.50 L 0.00 121.00 L 0.00 121.50 L 0.00 122.00 L 0.00 122.50 L 0.00 123.00 L 0.00 123.50 L 0.00 124.00 L 0.00 124.50 L 0.00 125.00 L 0.00 125.50 L 0.00 126.00 L 0.00 126.50 L 0.00 127.00 L 0.00 127.50 L 0.00 128.00 L 0.00 128.50 L 0.00 129.00 L 0.00 129.50 L 0.00 130.00 L 0.00 130.50 L 0.00 131.00 L 0.00 131.50 L 0.00 132.00 L 0.00 132.50 L 0.00 133.00 L 0.00 133.50 L 0.00 134.00 L 0.00 134.50 L 0.00 135.00 L 0.00 135.50 L 0.00 136.00 L 0.00 136.50 L 0.00 137.00 L 0.00 137.50 L 0.00 138.00 L 0.00 138.50 L 0.00 139.00 L 0.00 139.50 L 0.00 140.00 L 0.00 140.50 L 0.00 141.00 L 0.00 141.50 L 0.00 142.00 L 0.00 142.50 L 0.00 143.00 L 0.03 143.47 L 0.18 143.82 L 0.53 143.97 L 1.00 144.00 L 1.50 144.00 L 2.00 144.00 L 2.50 144.00 L 3.00 144.00 L 3.50 144.00 L 4.00 144.00 L 4.47 143.97 L 4.82 143.82 L 4.97 143.47 L 5.00 143.00 L 5.00 142.50 L 5.00 142.00 L 5.00 141.50 L 5.00 141.00 L 5.00 140.50 L 5.00 140.00 L 5.00 139.50 L 5.00 139.00 L 5.00 138.50 L 5.00 138.00 L 5.00 137.50 L 5.00 137.00 L 5.00 136.50 L 5.00 136.00 L 5.00 135.50 L 5.00 135.00 L 5.00 134.50 L 5.00 134.00 L 5.00 133.50 L 5.00 133.00 L 5.00 132.50 L 5.00 132.00 L 5.00 131.50 L 5.00 131.00 L 5.00 130.50 L 5.00 130.00 L 5.00 129.50 L 5.00 129.00 L 5.00 128.50 L 5.00 128.00 L 5.00 127.50 L 5.00 127.00 L 5.00 126.50 L 5.00 126.00 L 5.00 125.50 L 5.00 125.00 L 5.00 124.50 L 5.00 124.00 L 5.00 123.50 L 5.00 123.00 L 5.00 122.50 L 5.00 122.00 L 5.00 121.50 L 5.00 121.00 L 5.00 120.50 L 5.00 120.00 L 5.00 119.50 L 5.00 119.00 L 5.00 118.50 L 5.00 118.00 L 5.00 117.50 L 5.00 117.00 L 5.00 116.50 L 5.00 116.00 L 5.00 115.50 L 5.00 115.00 L 5.00 114.50 L 5.00 114.00 L 5.00 113.50 L 5.00 113.00 L 5.00 112.50 L 5.00 112.00 L 5.00 111.50 L 5.00 111.00 L 5.00 110.50 L 5.00 110.00 L 5.00 109.50 L 5.00 109.00 L 5.00 108.50 L 5.00 108.00 L 4.97 107.53 L 4.82 107.18 L 4.47 107.03 L 4.00 107.00 L 3.50 107.00 L 3.00 107.00 L 2.50 107.00 L 2.00 107.00 L 1.50 107.00 L 1.00 107.00 L 0.53 107.03 Z M 321.18 73.18 L 321.03 73.53 L 321.00 74.00 L 321.00 74.50 L 321.00 75.00 L 321.00 75.50 L 321.00 76.00 L 321.00 76.50 L 321.00 77.00 L 321.00 77.50 L 321.00 78.00 L 321.00 78.50 L 321.00 79.00 L 321.00 79.50 L 321.00 80.00 L 321.00 80.50 L 321.00 81.00 L 321.00 81.50 L 321.00 82.00 L 321.00 82.50 L 321.00 83.00 L 321.03 83.47 L 321.18 83.82 L 321.50 83.94 L 321.82 83.82 L 321.97 83.47 L 322.00 83.00 L 322.00 82.50 L 322.00 82.00 L 322.00 81.50 L 322.00 81.00 L 322.00 80.50 L 322.00 80.00 L 322.00 79.50 L 322.00 79.00 L 322.00 78.50 L 322.00 78.00 L 322.00 77.50 L 322.00 77.00 L 322.00 76.50 L 322.00 76.00 L 322.00 75.50 L 322.00 75.00 L 322.00 74.50 L 322.00 74.00 L 321.97 73.53 L 321.82 73.18 L 321.50 73.06 Z M 4.18 55.18 L 4.03 55.53 L 4.00 56.00 L 4.00 56.50 L 4.00 57.00 L 4.00 57.50 L 4.00 58.00 L 4.03 58.47 L 4.18 58.82 L 4.53 58.97 L 5.00 59.00 L 5.47 58.97 L 5.82 58.82 L 5.97 58.47 L 6.00 58.00 L 6.00 57.50 L 6.00 57.00 L 6.00 56.50 L 6.00 56.00 L 5.97 55.53 L 5.82 55.18 L 5.47 55.03 L 5.00 55.00 L 4.53 55.03 Z M 0.18 35.18 L 0.03 35.54 L 0.00 36.01 L 0.00 36.51 L 0.00 37.02 L 0.00 37.52 L 0.00 38.03 L 0.00 38.53 L 0.00 39.04 L 0.00 39.54 L 0.00 40.05 L 0.00 40.55 L 0.00 41.06 L 0.00 41.56 L 0.00 42.07 L 0.00 42.57 L 0.00 43.08 L 0.00 43.58 L 0.00 44.09 L 0.00 44.59 L 0.00 45.10 L 0.00 45.60 L 0.00 46.11 L 0.00 46.61 L 0.00 47.12 L 0.00 47.62 L 0.00 48.13 L 0.00 48.63 L 0.00 49.13 L 0.00 49.64 L 0.01 50.13 L 0.08 50.57 L 0.29 50.86 L 0.68 50.98 L 1.17 51.00 L 1.67 51.00 L 2.17 51.00 L 2.68 51.00 L 3.18 51.00 L 3.69 51.00 L 4.19 51.00 L 4.70 51.00 L 5.19 50.99 L 5.61 50.90 L 5.88 50.67 L 5.98 50.26 L 6.00 49.78 L 6.00 49.27 L 6.00 48.77 L 6.00 48.26 L 5.99 47.76 L 5.92 47.29 L 5.75 46.85 L 5.47 46.46 L 5.21 46.07 L 5.06 45.63 L 5.01 45.14 L 5.00 44.64 L 5.00 44.13 L 5.00 43.63 L 5.00 43.13 L 5.00 42.62 L 5.00 42.12 L 5.00 41.61 L 5.00 41.11 L 5.00 40.60 L 5.00 40.10 L 5.00 39.59 L 5.00 39.09 L 5.00 38.58 L 5.00 38.08 L 5.00 37.57 L 5.00 37.07 L 5.00 36.56 L 5.00 36.06 L 4.97 35.58 L 4.83 35.22 L 4.50 35.05 L 4.03 35.01 L 3.53 35.00 L 3.03 35.00 L 2.52 35.00 L 2.02 35.00 L 1.51 35.00 L 1.01 35.00 L 0.54 35.03 Z M 243.18 0.18 L 243.03 0.53 L 243.00 1.00 L 243.00 1.50 L 243.00 2.00 L 243.00 2.50 L 243.00 3.00 L 243.03 3.47 L 243.18 3.82 L 243.53 3.97 L 244.00 4.00 L 244.50 4.00 L 245.00 4.00 L 245.47 3.97 L 245.82 3.82 L 245.97 3.47 L 246.00 3.00 L 246.00 2.50 L 246.00 2.00 L 246.00 1.50 L 246.00 1.00 L 245.97 0.53 L 245.82 0.18 L 245.47 0.03 L 245.00 0.00 L 244.50 0.00 L 244.00 0.00 L 243.53 0.03 Z M 182.18 0.18 L 182.03 0.53 L 182.00 1.00 L 182.00 1.50 L 182.00 2.00 L 182.00 2.50 L 182.00 3.00 L 182.03 3.47 L 182.18 3.82 L 182.53 3.97 L 183.00 4.00 L 183.47 3.97 L 183.82 3.82 L 183.97 3.47 L 184.00 3.00 L 184.00 2.50 L 184.00 2.00 L 184.00 1.50 L 184.00 1.00 L 183.97 0.53 L 183.82 0.18 L 183.47 0.03 L 183.00 0.00 L 182.53 0.03 Z M 45.18 0.18 L 45.03 0.53 L 45.00 1.00 L 45.00 1.50 L 45.00 2.00 L 45.00 2.50 L 45.00 3.00 L 45.03 3.47 L 45.18 3.82 L 45.53 3.97 L 46.00 4.00 L 46.50 4.00 L 47.00 4.00 L 47.47 3.97 L 47.82 3.82 L 47.97 3.47 L 48.00 3.00 L 48.00 2.50 L 48.00 2.00 L 48.00 1.50 L 48.00 1.00 L 47.97 0.53 L 47.82 0.18 L 47.47 0.03 L 47.00 0.00 L 46.50 0.00 L 46.00 0.00 L 45.53 0.03 Z" fill="rgb(248,248,248)" fill-rule="evenodd"/>
</svg>