<svg xmlns="http://www.w3.org/2000/svg" width="305" height="178" viewBox="0 0 305 178" role="img" aria-label="05_plates_05">
  <title>05_plates_05</title>
  <path d="M 0.19 100.19 L 0.03 100.54 L 0.00 101.02 L 0.00 101.53 L 0.00 102.04 L 0.00 102.56 L 0.00 103.07 L 0.00 103.58 L 0.00 104.09 L 0.00 104.60 L 0.00 105.11 L 0.00 105.62 L 0.00 106.13 L 0.00 106.65 L 0.00 107.16 L 0.00 107.67 L 0.00 108.18 L 0.00 108.69 L 0.00 109.20 L 0.00 109.71 L 0.00 110.22 L 0.00 110.74 L 0.00 111.25 L 0.00 111.76 L 0.00 112.27 L 0.00 112.78 L 0.00 113.29 L 0.00 113.80 L 0.00 114.31 L 0.00 114.82 L 0.00 115.34 L 0.00 115.85 L 0.00 116.36 L 0.00 116.87 L 0.00 117.38 L 0.00 117.89 L 0.00 118.40 L 0.00 118.91 L 0.00 119.43 L 0.00 119.94 L 0.00 120.45 L 0.00 120.96 L 0.00 121.47 L 0.00 121.98 L 0.00 122.49 L 0.00 123.00 L 0.00 123.51 L 0.00 124.03 L 0.00 124.54 L 0.00 125.05 L 0.00 125.56 L 0.00 126.07 L 0.00 126.58 L 0.00 127.09 L 0.00 127.60 L 0.00 128.12 L 0.00 128.63 L 0.00 129.14 L 0.00 129.65 L 0.00 130.16 L 0.00 130.67 L 0.00 131.18 L 0.00 131.69 L 0.00 132.21 L 0.00 132.72 L 0.00 133.23 L 0.00 133.74 L 0.02 134.23 L 0.11 134.65 L 0.38 134.90 L 0.80 134.98 L 1.28 134.98 L 1.68 134.87 L 1.91 134.59 L 1.99 134.16 L 2.00 133.66 L 2.00 133.15 L 2.00 132.64 L 2.00 132.13 L 2.02 131.62 L 2.11 131.15 L 2.33 130.73 L 2.63 130.34 L 2.87 129.93 L 2.98 129.46 L 2.99 128.96 L 2.96 128.47 L 2.84 128.01 L 2.59 127.60 L 2.29 127.21 L 2.10 126.79 L 2.08 126.33 L 2.23 125.89 L 2.50 125.50 L 2.78 125.10 L 2.94 124.65 L 2.99 124.16 L 3.00 123.66 L 3.00 123.15 L 3.00 122.63 L 3.00 122.12 L 3.00 121.61 L 3.00 121.10 L 3.00 120.59 L 3.00 120.08 L 3.00 119.57 L 3.00 119.06 L 3.00 118.54 L 3.00 118.03 L 3.00 117.52 L 3.00 117.01 L 3.00 116.50 L 3.00 115.99 L 3.00 115.48 L 3.00 114.97 L 3.00 114.46 L 3.00 113.94 L 3.00 113.43 L 3.00 112.92 L 3.00 112.41 L 2.99 111.90 L 2.95 111.41 L 2.81 110.96 L 2.55 110.55 L 2.26 110.16 L 2.08 109.72 L 2.01 109.24 L 2.00 108.73 L 2.00 108.22 L 2.00 107.71 L 2.00 107.20 L 2.00 106.69 L 2.00 106.18 L 2.00 105.67 L 2.00 105.16 L 2.00 104.65 L 2.00 104.13 L 2.00 103.62 L 2.00 103.11 L 2.00 102.60 L 2.00 102.09 L 2.00 101.58 L 2.00 101.07 L 1.97 100.59 L 1.83 100.22 L 1.49 100.05 L 1.02 100.01 L 0.54 100.03 Z M 0.19 86.19 L 0.03 86.54 L 0.00 87.02 L 0.00 87.53 L 0.00 88.04 L 0.00 88.55 L 0.00 89.05 L 0.00 89.56 L 0.00 90.07 L 0.00 90.58 L 0.00 91.09 L 0.00 91.60 L 0.00 92.11 L 0.00 92.62 L 0.00 93.13 L 0.00 93.63 L 0.01 94.13 L 0.08 94.57 L 0.30 94.86 L 0.69 94.98 L 1.18 95.00 L 1.69 95.00 L 2.18 94.98 L 2.61 94.90 L 2.87 94.67 L 2.91 94.29 L 2.75 93.87 L 2.48 93.47 L 2.21 93.08 L 2.06 92.63 L 2.01 92.14 L 2.00 91.63 L 2.00 91.13 L 2.00 90.62 L 2.00 90.11 L 2.00 89.60 L 2.00 89.09 L 2.00 88.58 L 2.00 88.07 L 2.00 87.56 L 2.00 87.06 L 1.97 86.58 L 1.83 86.21 L 1.48 86.04 L 1.02 86.01 L 0.54 86.03 Z M 0.19 74.19 L 0.03 74.55 L 0.00 75.03 L 0.00 75.54 L 0.00 76.06 L 0.00 76.57 L 0.00 77.08 L 0.00 77.60 L 0.01 78.10 L 0.07 78.55 L 0.28 78.85 L 0.68 78.98 L 1.17 79.00 L 1.68 79.00 L 2.18 78.98 L 2.61 78.90 L 2.87 78.66 L 2.90 78.28 L 2.74 77.86 L 2.47 77.46 L 2.20 77.06 L 2.05 76.60 L 2.01 76.11 L 2.00 75.60 L 2.00 75.08 L 1.97 74.60 L 1.83 74.23 L 1.49 74.05 L 1.02 74.01 L 0.55 74.03 Z M 0.18 34.18 L 0.03 34.54 L 0.00 35.02 L 0.00 35.52 L 0.00 36.03 L 0.00 36.54 L 0.00 37.05 L 0.00 37.55 L 0.00 38.06 L 0.00 38.57 L 0.00 39.08 L 0.00 39.58 L 0.00 40.09 L 0.00 40.60 L 0.00 41.11 L 0.00 41.62 L 0.00 42.12 L 0.00 42.63 L 0.00 43.14 L 0.00 43.64 L 0.01 44.14 L 0.08 44.58 L 0.30 44.87 L 0.70 44.98 L 1.19 45.00 L 1.69 45.00 L 2.18 44.99 L 2.61 44.90 L 2.88 44.67 L 2.98 44.26 L 3.00 43.77 L 3.00 43.26 L 3.00 42.75 L 3.00 42.25 L 3.00 41.74 L 3.00 41.23 L 3.00 40.72 L 3.00 40.22 L 3.00 39.71 L 3.00 39.20 L 2.98 38.70 L 2.91 38.22 L 2.71 37.80 L 2.42 37.41 L 2.17 37.01 L 2.04 36.55 L 2.00 36.06 L 2.00 35.55 L 2.00 35.05 L 1.97 34.57 L 1.82 34.21 L 1.48 34.04 L 1.01 34.01 L 0.54 34.03 Z" fill="rgb(107,105,102)" fill-rule="evenodd"/>
  <path d="M 290.05 153.16 L 289.59 153.42 L 289.14 153.73 L 288.64 153.94 L 288.13 154.12 L 287.66 154.39 L 287.20 154.69 L 286.70 154.90 L 286.15 154.98 L 285.58 155.00 L 284.99 155.00 L 284.41 155.00 L 283.83 155.00 L 283.24 155.00 L 282.66 155.00 L 282.07 155.00 L 281.49 155.00 L 280.91 155.00 L 280.32 155.00 L 279.75 155.02 L 279.21 155.12 L 278.72 155.36 L 278.29 155.72 L 277.88 156.13 L 277.48 156.55 L 277.18 157.01 L 276.99 157.51 L 276.81 158.02 L 276.52 158.48 L 276.22 158.94 L 276.03 159.45 L 275.85 159.96 L 275.55 160.42 L 275.16 160.84 L 274.75 161.25 L 274.38 161.68 L 274.11 162.16 L 273.94 162.67 L 273.71 163.16 L 273.38 163.60 L 272.98 164.02 L 272.58 164.44 L 272.26 164.89 L 272.05 165.39 L 271.87 165.90 L 271.59 166.36 L 271.21 166.79 L 270.80 167.20 L 270.42 167.63 L 270.16 168.08 L 270.12 168.53 L 270.36 168.85 L 270.81 168.98 L 271.37 169.00 L 271.96 169.00 L 272.54 169.00 L 273.12 168.99 L 273.67 168.91 L 274.17 168.71 L 274.63 168.40 L 275.09 168.12 L 275.54 167.92 L 275.87 167.65 L 276.08 167.23 L 276.34 166.76 L 276.69 166.32 L 277.09 165.91 L 277.51 165.52 L 277.97 165.20 L 278.47 165.01 L 278.98 164.83 L 279.44 164.53 L 279.86 164.14 L 280.28 163.73 L 280.71 163.37 L 281.18 163.11 L 281.69 162.93 L 282.18 162.70 L 282.64 162.40 L 283.12 162.14 L 283.65 162.02 L 284.23 162.00 L 284.81 162.00 L 285.38 161.97 L 285.92 161.86 L 286.39 161.59 L 286.85 161.28 L 287.34 161.06 L 287.85 160.88 L 288.32 160.61 L 288.75 160.24 L 289.17 159.84 L 289.59 159.45 L 290.04 159.14 L 290.50 158.95 L 290.85 158.69 L 291.07 158.27 L 291.31 157.81 L 291.67 157.41 L 292.13 157.12 L 292.64 156.95 L 293.13 156.73 L 293.55 156.39 L 293.83 155.95 L 293.89 155.50 L 293.67 155.16 L 293.23 155.03 L 292.68 154.98 L 292.14 154.87 L 291.68 154.60 L 291.32 154.20 L 291.07 153.74 L 290.85 153.32 L 290.51 153.11 Z M 125.20 153.20 L 125.03 153.58 L 125.00 154.09 L 125.00 154.64 L 125.00 155.18 L 125.00 155.73 L 124.98 156.27 L 124.90 156.78 L 124.68 157.23 L 124.33 157.61 L 123.90 157.87 L 123.40 157.98 L 122.88 158.01 L 122.42 158.10 L 122.15 158.34 L 122.15 158.67 L 122.43 158.90 L 122.88 158.98 L 123.41 159.00 L 123.95 158.99 L 124.46 158.95 L 124.82 158.76 L 124.97 158.37 L 125.01 157.86 L 125.07 157.34 L 125.26 156.87 L 125.57 156.45 L 125.94 156.06 L 126.32 155.67 L 126.66 155.27 L 126.88 154.82 L 126.91 154.34 L 126.74 153.88 L 126.43 153.48 L 126.02 153.19 L 125.56 153.08 Z M 112.19 150.21 L 112.03 150.60 L 111.99 151.12 L 111.92 151.65 L 111.73 152.14 L 111.44 152.58 L 111.17 153.02 L 111.08 153.52 L 111.19 154.01 L 111.48 154.43 L 111.90 154.75 L 112.37 154.91 L 112.87 154.86 L 113.33 154.63 L 113.76 154.32 L 114.23 154.09 L 114.72 153.93 L 115.19 153.70 L 115.63 153.40 L 116.07 153.13 L 116.52 152.94 L 116.84 152.69 L 116.97 152.26 L 116.97 151.75 L 116.85 151.32 L 116.55 151.12 L 116.22 151.20 L 116.00 151.55 L 115.82 152.01 L 115.52 152.43 L 115.10 152.75 L 114.63 152.91 L 114.13 152.86 L 113.69 152.61 L 113.33 152.23 L 113.10 151.77 L 113.02 151.24 L 112.97 150.71 L 112.84 150.29 L 112.52 150.11 Z M 60.06 106.15 L 59.61 106.42 L 59.21 106.80 L 58.81 107.19 L 58.44 107.60 L 58.16 108.03 L 58.10 108.49 L 58.28 108.83 L 58.69 108.97 L 59.22 109.01 L 59.74 109.10 L 60.21 109.32 L 60.60 109.67 L 60.87 110.11 L 60.98 110.62 L 61.00 111.17 L 61.00 111.73 L 60.98 112.29 L 60.89 112.81 L 60.65 113.27 L 60.28 113.64 L 59.83 113.89 L 59.34 114.06 L 58.86 114.27 L 58.46 114.60 L 58.17 115.03 L 58.03 115.53 L 58.00 116.08 L 58.00 116.64 L 58.02 117.19 L 58.09 117.72 L 58.30 118.20 L 58.61 118.63 L 58.86 119.09 L 58.98 119.60 L 59.00 120.15 L 59.00 120.71 L 59.03 121.25 L 59.16 121.68 L 59.48 121.92 L 59.97 121.98 L 60.50 121.96 L 61.00 121.81 L 61.43 121.52 L 61.75 121.11 L 61.90 120.65 L 61.81 120.26 L 61.48 120.03 L 61.03 119.85 L 60.60 119.55 L 60.27 119.14 L 60.10 118.67 L 60.13 118.18 L 60.36 117.73 L 60.73 117.36 L 61.18 117.12 L 61.70 117.02 L 62.26 117.00 L 62.82 117.00 L 63.38 117.00 L 63.94 117.00 L 64.50 117.00 L 65.06 117.00 L 65.62 117.00 L 66.18 117.01 L 66.71 117.09 L 67.18 117.30 L 67.58 117.64 L 67.85 118.07 L 67.92 118.56 L 67.79 119.05 L 67.48 119.47 L 67.06 119.78 L 66.57 119.94 L 66.04 120.00 L 65.53 120.06 L 65.18 120.27 L 65.03 120.68 L 65.02 121.19 L 65.14 121.64 L 65.44 121.90 L 65.91 121.98 L 66.46 122.00 L 67.01 122.01 L 67.55 122.05 L 68.05 122.21 L 68.47 122.52 L 68.78 122.94 L 68.92 123.42 L 68.85 123.91 L 68.59 124.35 L 68.19 124.70 L 67.73 124.92 L 67.24 125.09 L 66.78 125.32 L 66.39 125.68 L 66.14 126.11 L 66.11 126.55 L 66.33 126.87 L 66.74 127.07 L 67.19 127.29 L 67.62 127.60 L 68.07 127.85 L 68.51 127.90 L 68.85 127.70 L 69.05 127.30 L 69.27 126.85 L 69.61 126.45 L 70.04 126.16 L 70.53 126.08 L 71.02 126.19 L 71.44 126.49 L 71.76 126.90 L 71.93 127.39 L 72.00 127.92 L 72.05 128.44 L 72.24 128.81 L 72.64 128.97 L 73.17 129.00 L 73.73 129.00 L 74.29 129.00 L 74.85 129.00 L 75.41 129.00 L 75.98 129.00 L 76.54 129.00 L 77.10 129.00 L 77.66 129.00 L 78.20 128.98 L 78.64 128.86 L 78.90 128.56 L 78.98 128.09 L 78.96 127.58 L 78.78 127.20 L 78.38 127.03 L 77.86 127.02 L 77.33 127.08 L 76.84 127.28 L 76.41 127.58 L 75.96 127.84 L 75.47 127.92 L 74.98 127.80 L 74.54 127.51 L 74.14 127.13 L 73.74 126.74 L 73.38 126.33 L 73.12 125.87 L 72.95 125.38 L 72.76 124.90 L 72.45 124.47 L 72.06 124.07 L 71.68 123.66 L 71.33 123.25 L 71.09 122.79 L 70.93 122.29 L 70.71 121.82 L 70.41 121.39 L 70.15 120.94 L 70.08 120.44 L 70.21 119.96 L 70.52 119.54 L 70.93 119.23 L 71.42 119.06 L 71.96 119.01 L 72.52 119.00 L 73.08 119.00 L 73.64 119.00 L 74.18 118.98 L 74.63 118.87 L 74.89 118.57 L 74.98 118.10 L 74.96 117.59 L 74.79 117.19 L 74.42 116.98 L 73.95 116.79 L 73.54 116.48 L 73.22 116.07 L 73.03 115.61 L 72.82 115.23 L 72.43 115.05 L 71.92 115.02 L 71.38 115.07 L 70.90 115.25 L 70.46 115.56 L 70.06 115.94 L 69.66 116.33 L 69.24 116.67 L 68.78 116.88 L 68.29 116.89 L 67.82 116.71 L 67.38 116.40 L 66.93 116.13 L 66.44 115.97 L 65.95 115.79 L 65.53 115.48 L 65.22 115.06 L 65.08 114.58 L 65.15 114.09 L 65.41 113.65 L 65.80 113.31 L 66.27 113.09 L 66.80 113.02 L 67.36 113.00 L 67.92 113.00 L 68.48 113.00 L 69.03 112.99 L 69.52 112.92 L 69.83 112.70 L 69.85 112.37 L 69.60 112.10 L 69.18 111.91 L 68.74 111.65 L 68.37 111.29 L 68.12 110.83 L 68.02 110.32 L 68.00 109.76 L 68.00 109.20 L 67.97 108.67 L 67.82 108.26 L 67.47 108.09 L 67.02 108.17 L 66.60 108.46 L 66.27 108.86 L 66.06 109.34 L 65.89 109.83 L 65.64 110.28 L 65.27 110.64 L 64.82 110.87 L 64.32 110.90 L 63.85 110.72 L 63.45 110.39 L 63.16 109.96 L 63.08 109.47 L 63.19 108.98 L 63.47 108.54 L 63.76 108.10 L 63.90 107.64 L 63.81 107.25 L 63.46 107.06 L 62.95 107.00 L 62.42 106.94 L 61.92 106.77 L 61.48 106.49 L 61.04 106.21 L 60.55 106.08 Z M 16.87 105.60 L 15.88 106.06 L 14.68 106.66 L 13.30 106.94 L 11.84 107.05 L 10.43 107.26 L 9.10 107.60 L 7.82 107.66 L 6.70 107.20 L 5.73 106.57 L 4.68 106.39 L 3.73 106.94 L 3.24 108.05 L 3.25 109.38 L 3.57 110.72 L 3.86 112.10 L 3.98 113.56 L 4.00 115.05 L 4.00 116.55 L 4.00 118.05 L 4.00 119.56 L 4.00 121.06 L 4.00 122.56 L 4.00 124.06 L 4.00 125.56 L 4.00 127.07 L 3.97 128.56 L 3.84 130.01 L 3.54 131.38 L 3.17 132.73 L 2.81 134.06 L 2.22 135.16 L 1.29 135.93 L 0.45 136.69 L 0.08 137.83 L 0.01 139.26 L 0.05 140.71 L 0.32 141.94 L 1.06 142.72 L 2.18 143.20 L 3.14 143.84 L 3.40 144.77 L 2.76 145.57 L 1.60 146.01 L 0.58 146.52 L 0.11 147.56 L 0.02 148.96 L 0.09 150.36 L 0.53 151.42 L 1.54 151.82 L 2.77 151.59 L 3.79 150.82 L 4.66 149.84 L 5.67 149.03 L 6.84 148.54 L 7.94 148.66 L 8.72 149.41 L 9.29 150.18 L 9.95 150.22 L 10.82 149.61 L 11.89 148.88 L 13.08 148.19 L 14.32 147.67 L 15.52 147.52 L 16.56 147.95 L 17.53 148.59 L 18.73 148.96 L 20.11 149.17 L 21.45 149.43 L 22.63 149.46 L 23.36 148.89 L 23.26 147.98 L 22.37 147.31 L 21.04 147.09 L 19.64 147.22 L 18.32 147.49 L 17.19 147.43 L 16.54 146.70 L 16.56 145.54 L 16.93 144.24 L 17.45 142.96 L 18.17 141.76 L 18.98 140.63 L 19.90 139.70 L 21.07 139.23 L 22.41 139.26 L 23.71 139.67 L 24.89 140.33 L 25.81 141.29 L 26.44 142.49 L 26.91 143.80 L 27.34 145.12 L 27.72 146.45 L 27.80 147.80 L 27.43 149.02 L 26.80 150.03 L 26.46 150.92 L 26.83 151.54 L 27.66 151.50 L 28.56 150.92 L 29.51 150.59 L 30.31 151.04 L 30.56 152.02 L 30.55 152.98 L 30.98 153.41 L 31.96 153.20 L 33.17 152.74 L 34.35 152.53 L 35.23 152.96 L 35.44 153.89 L 35.01 154.81 L 34.76 155.47 L 35.34 155.88 L 36.49 156.27 L 37.63 156.94 L 38.36 157.94 L 38.39 159.11 L 37.84 160.29 L 37.29 161.55 L 37.01 162.94 L 36.79 164.35 L 36.50 165.68 L 36.48 166.94 L 36.94 168.13 L 37.71 169.09 L 38.72 169.50 L 39.88 169.46 L 40.93 169.67 L 41.47 170.49 L 41.40 171.68 L 41.14 173.04 L 40.96 174.45 L 40.59 175.74 L 39.71 176.60 L 38.40 176.93 L 36.93 177.00 L 35.44 177.00 L 34.07 177.00 L 33.26 177.00 L 33.52 177.00 L 34.65 177.00 L 36.09 177.00 L 37.57 176.97 L 39.02 176.84 L 40.40 176.53 L 41.76 176.20 L 43.19 176.04 L 44.68 176.00 L 46.18 176.00 L 47.69 176.00 L 49.19 176.00 L 50.69 176.00 L 52.19 176.00 L 53.69 176.00 L 55.20 176.00 L 56.70 176.00 L 58.20 176.00 L 59.70 176.00 L 61.20 176.00 L 62.71 176.00 L 64.21 176.00 L 65.71 176.00 L 67.21 176.01 L 68.68 176.10 L 70.06 176.36 L 71.25 176.73 L 71.87 176.91 L 71.53 176.74 L 70.76 176.12 L 70.37 175.08 L 70.67 174.04 L 71.56 173.54 L 72.74 173.71 L 73.96 174.28 L 75.14 175.01 L 76.31 175.48 L 77.56 175.45 L 78.87 175.28 L 80.19 175.43 L 81.53 175.74 L 82.90 175.82 L 84.26 175.57 L 85.61 175.25 L 86.98 175.19 L 88.35 175.45 L 89.71 175.79 L 91.14 175.96 L 92.62 176.00 L 94.13 176.00 L 95.63 176.00 L 97.13 176.00 L 98.63 176.00 L 100.13 176.00 L 101.59 175.96 L 102.80 175.74 L 103.31 175.19 L 102.87 174.49 L 101.79 173.91 L 100.57 173.27 L 99.42 172.43 L 98.28 171.56 L 97.18 170.75 L 96.39 169.72 L 96.07 168.39 L 96.06 166.93 L 96.32 165.59 L 97.05 164.60 L 98.17 164.07 L 99.15 163.61 L 99.46 162.77 L 99.30 161.62 L 99.41 160.39 L 100.12 159.38 L 101.23 158.74 L 102.44 158.51 L 103.62 158.84 L 104.69 159.34 L 105.35 159.30 L 105.23 158.55 L 104.48 157.48 L 103.66 156.33 L 103.04 155.09 L 102.44 153.87 L 101.61 152.93 L 100.81 152.65 L 100.56 153.20 L 100.91 154.24 L 101.38 155.46 L 101.47 156.66 L 100.97 157.68 L 100.12 158.53 L 99.16 159.31 L 97.98 159.76 L 96.71 159.68 L 95.70 159.03 L 95.17 157.89 L 94.92 156.56 L 94.44 155.53 L 93.41 155.02 L 92.12 154.62 L 90.90 153.96 L 89.65 153.34 L 88.28 153.09 L 86.86 153.18 L 85.52 153.45 L 84.25 153.52 L 83.01 153.17 L 81.75 152.67 L 80.43 152.27 L 79.07 152.21 L 77.76 152.59 L 76.55 153.19 L 75.43 153.42 L 74.55 152.87 L 74.05 151.76 L 73.56 150.67 L 72.72 149.93 L 71.85 149.19 L 71.60 148.25 L 72.22 147.49 L 73.39 147.30 L 74.68 147.51 L 75.94 147.58 L 77.18 147.44 L 78.42 147.58 L 79.67 148.06 L 80.91 148.50 L 82.16 148.56 L 83.40 148.45 L 84.67 148.59 L 85.97 148.79 L 87.06 148.62 L 87.51 148.01 L 87.09 147.34 L 86.05 146.88 L 84.92 146.32 L 84.05 145.38 L 83.55 144.21 L 83.58 143.06 L 84.06 142.11 L 84.24 141.45 L 83.56 141.07 L 82.39 140.68 L 81.33 140.01 L 80.41 139.18 L 79.32 138.55 L 78.05 138.29 L 76.75 138.40 L 75.54 138.48 L 74.50 138.06 L 73.55 137.37 L 72.43 136.81 L 71.18 136.28 L 69.97 135.62 L 68.90 134.75 L 67.98 133.91 L 67.10 133.65 L 66.35 134.25 L 65.80 135.40 L 65.12 136.55 L 64.15 137.32 L 63.10 137.35 L 62.33 136.56 L 61.89 135.40 L 61.31 134.52 L 60.29 134.35 L 59.02 134.66 L 57.64 134.89 L 56.22 134.85 L 54.88 134.47 L 53.65 133.82 L 52.38 133.25 L 51.04 132.87 L 49.73 132.40 L 48.52 131.79 L 47.33 131.48 L 46.12 131.54 L 44.98 131.37 L 43.99 130.73 L 43.03 129.94 L 41.97 129.18 L 40.94 128.38 L 40.20 127.34 L 39.61 126.16 L 38.76 125.17 L 37.76 124.35 L 36.79 123.63 L 35.71 123.34 L 34.48 123.47 L 33.28 123.48 L 32.26 122.95 L 31.41 122.09 L 30.72 121.14 L 30.56 120.11 L 31.00 119.19 L 31.33 118.64 L 31.03 118.66 L 30.28 119.22 L 29.19 119.72 L 27.91 119.73 L 26.79 119.20 L 25.93 118.23 L 25.19 117.14 L 24.43 116.13 L 23.70 115.15 L 23.36 114.03 L 23.64 112.90 L 24.22 111.92 L 24.36 111.00 L 23.73 110.14 L 22.77 109.36 L 21.82 108.70 L 20.78 108.52 L 19.58 108.70 L 18.39 108.59 L 17.60 107.86 L 17.44 106.78 L 17.41 105.86 Z M 59.15 165.06 L 59.43 164.62 L 59.84 164.29 L 60.32 164.10 L 60.82 164.13 L 61.27 164.36 L 61.65 164.74 L 61.89 165.20 L 61.98 165.73 L 62.00 166.29 L 62.00 166.86 L 61.97 167.42 L 61.85 167.94 L 61.57 168.38 L 61.16 168.71 L 60.68 168.90 L 60.18 168.87 L 59.73 168.64 L 59.35 168.26 L 59.11 167.80 L 59.02 167.27 L 59.00 166.71 L 59.00 166.14 L 59.03 165.58 Z M 54.00 164.00 L 54.42 163.60 L 54.87 163.27 L 55.36 163.10 L 55.88 163.15 L 56.33 163.41 L 56.69 163.82 L 56.91 164.31 L 56.98 164.86 L 57.00 165.44 L 57.00 166.02 L 57.00 166.61 L 56.98 167.19 L 56.90 167.74 L 56.67 168.22 L 56.30 168.62 L 55.83 168.89 L 55.32 169.07 L 54.83 169.29 L 54.37 169.60 L 53.90 169.85 L 53.39 169.90 L 52.89 169.74 L 52.46 169.40 L 52.17 168.96 L 52.09 168.45 L 52.22 167.94 L 52.52 167.48 L 52.80 167.02 L 52.95 166.49 L 53.01 165.93 L 53.08 165.37 L 53.27 164.87 L 53.60 164.42 Z M 75.00 162.00 L 75.44 161.59 L 75.91 161.26 L 76.43 161.10 L 76.96 161.18 L 77.44 161.48 L 77.89 161.89 L 78.31 162.33 L 78.67 162.79 L 78.88 163.29 L 78.85 163.83 L 78.60 164.32 L 78.22 164.77 L 77.79 165.20 L 77.34 165.59 L 76.84 165.86 L 76.28 165.98 L 75.68 165.97 L 75.12 165.86 L 74.65 165.56 L 74.29 165.13 L 74.08 164.61 L 74.02 164.03 L 74.07 163.45 L 74.25 162.91 L 74.59 162.44 Z M 40.15 158.06 L 40.44 157.62 L 40.86 157.28 L 41.36 157.08 L 41.91 157.02 L 42.47 157.04 L 42.99 157.18 L 43.45 157.48 L 43.86 157.87 L 44.27 158.28 L 44.63 158.71 L 44.87 159.18 L 44.89 159.68 L 44.70 160.17 L 44.36 160.58 L 43.90 160.86 L 43.37 160.98 L 42.80 161.00 L 42.22 161.00 L 41.65 160.98 L 41.12 160.86 L 40.66 160.59 L 40.31 160.19 L 40.09 159.70 L 40.02 159.15 L 40.03 158.59 Z M 56.13 156.05 L 56.37 155.67 L 56.70 155.34 L 57.09 155.12 L 57.53 155.04 L 57.96 155.13 L 58.34 155.38 L 58.66 155.71 L 58.89 156.10 L 58.98 156.55 L 59.00 157.03 L 58.98 157.51 L 58.87 157.95 L 58.63 158.33 L 58.30 158.66 L 57.91 158.88 L 57.47 158.96 L 57.04 158.87 L 56.66 158.62 L 56.34 158.29 L 56.11 157.90 L 56.02 157.45 L 56.00 156.97 L 56.02 156.49 Z M 29.15 146.06 L 29.43 145.63 L 29.83 145.29 L 30.30 145.09 L 30.83 145.01 L 31.38 145.00 L 31.94 145.00 L 32.50 145.00 L 33.06 145.01 L 33.59 145.06 L 34.08 145.23 L 34.49 145.55 L 34.80 145.97 L 34.92 146.45 L 34.85 146.94 L 34.57 147.37 L 34.17 147.71 L 33.70 147.91 L 33.17 147.99 L 32.62 148.00 L 32.06 148.00 L 31.50 148.00 L 30.94 147.99 L 30.41 147.94 L 29.92 147.77 L 29.51 147.45 L 29.20 147.03 L 29.08 146.55 Z M 27.16 140.06 L 27.46 139.61 L 27.89 139.26 L 28.41 139.07 L 28.97 139.02 L 29.54 139.06 L 30.07 139.24 L 30.51 139.57 L 30.83 140.01 L 31.04 140.48 L 31.30 140.84 L 31.72 141.07 L 32.20 141.32 L 32.60 141.69 L 32.86 142.16 L 32.89 142.68 L 32.69 143.17 L 32.33 143.59 L 31.86 143.86 L 31.31 143.98 L 30.73 143.98 L 30.18 143.87 L 29.69 143.61 L 29.25 143.24 L 28.82 142.82 L 28.40 142.40 L 27.98 141.98 L 27.58 141.55 L 27.25 141.09 L 27.09 140.58 Z M 6.15 138.06 L 6.41 137.64 L 6.80 137.30 L 7.26 137.09 L 7.77 137.02 L 8.30 137.02 L 8.81 137.11 L 9.25 137.34 L 9.62 137.69 L 9.88 138.13 L 9.98 138.63 L 9.99 139.16 L 9.92 139.67 L 9.73 140.14 L 9.41 140.54 L 9.00 140.82 L 8.52 140.93 L 8.04 140.85 L 7.61 140.58 L 7.22 140.22 L 6.83 139.83 L 6.47 139.44 L 6.19 139.01 L 6.07 138.54 Z M 38.15 129.06 L 38.46 128.60 L 38.90 128.26 L 39.41 128.10 L 39.94 128.17 L 40.40 128.46 L 40.74 128.90 L 40.93 129.43 L 40.98 130.00 L 40.93 130.57 L 40.74 131.10 L 40.41 131.57 L 40.00 132.00 L 39.57 132.41 L 39.10 132.74 L 38.59 132.90 L 38.06 132.83 L 37.60 132.54 L 37.26 132.10 L 37.10 131.59 L 37.16 131.06 L 37.44 130.58 L 37.75 130.10 L 37.96 129.59 Z M 28.15 125.06 L 28.43 124.62 L 28.84 124.29 L 29.31 124.10 L 29.81 124.13 L 30.27 124.36 L 30.64 124.73 L 30.90 125.17 L 31.10 125.60 L 31.40 125.88 L 31.86 125.98 L 32.41 126.00 L 32.98 126.00 L 33.54 126.00 L 34.09 125.98 L 34.57 125.89 L 34.88 125.63 L 35.08 125.21 L 35.33 124.76 L 35.70 124.38 L 36.15 124.14 L 36.64 124.10 L 37.12 124.26 L 37.54 124.59 L 37.83 125.02 L 37.92 125.52 L 37.81 126.01 L 37.53 126.46 L 37.24 126.91 L 37.04 127.39 L 36.88 127.89 L 36.60 128.34 L 36.23 128.76 L 35.84 129.16 L 35.43 129.54 L 34.99 129.84 L 34.53 130.02 L 34.18 130.26 L 34.03 130.68 L 34.00 131.22 L 34.00 131.78 L 33.98 132.34 L 33.87 132.87 L 33.61 133.33 L 33.25 133.74 L 32.85 134.14 L 32.44 134.52 L 32.00 134.82 L 31.49 134.96 L 30.94 134.99 L 30.40 134.93 L 29.91 134.76 L 29.47 134.44 L 29.06 134.06 L 28.66 133.66 L 28.26 133.26 L 27.86 132.86 L 27.48 132.45 L 27.18 132.01 L 26.99 131.55 L 26.76 131.19 L 26.35 131.03 L 25.83 131.02 L 25.38 131.13 L 25.14 131.40 L 25.19 131.74 L 25.51 131.96 L 25.97 132.15 L 26.39 132.45 L 26.73 132.86 L 26.92 133.34 L 26.99 133.88 L 26.97 134.43 L 26.85 134.95 L 26.56 135.39 L 26.15 135.72 L 25.67 135.90 L 25.18 135.87 L 24.71 135.65 L 24.27 135.34 L 23.80 135.11 L 23.27 135.02 L 22.72 134.98 L 22.19 134.89 L 21.72 134.65 L 21.28 134.35 L 20.82 134.10 L 20.32 133.94 L 19.84 133.72 L 19.40 133.42 L 18.95 133.16 L 18.50 133.10 L 18.15 133.29 L 17.95 133.69 L 17.72 134.15 L 17.39 134.56 L 16.95 134.85 L 16.44 134.97 L 15.89 134.99 L 15.35 134.92 L 14.86 134.73 L 14.45 134.40 L 14.16 133.96 L 14.03 133.45 L 14.01 132.90 L 14.08 132.36 L 14.27 131.87 L 14.60 131.46 L 15.03 131.17 L 15.54 131.03 L 16.08 130.99 L 16.56 130.90 L 16.86 130.63 L 16.98 130.18 L 17.02 129.64 L 17.13 129.12 L 17.40 128.68 L 17.79 128.32 L 18.25 128.12 L 18.75 128.12 L 19.22 128.32 L 19.66 128.62 L 20.13 128.87 L 20.65 128.98 L 21.21 129.00 L 21.77 129.00 L 22.33 128.98 L 22.86 128.87 L 23.32 128.63 L 23.76 128.32 L 24.24 128.10 L 24.77 128.02 L 25.33 128.00 L 25.90 128.00 L 26.46 128.00 L 27.02 127.99 L 27.51 127.91 L 27.84 127.68 L 27.97 127.24 L 28.00 126.70 L 28.00 126.13 L 28.03 125.58 Z M 18.15 112.06 L 18.44 111.62 L 18.86 111.28 L 19.34 111.10 L 19.85 111.14 L 20.30 111.39 L 20.67 111.78 L 20.90 112.26 L 20.98 112.80 L 21.00 113.37 L 20.99 113.95 L 20.95 114.51 L 20.80 115.02 L 20.50 115.47 L 20.11 115.89 L 19.70 116.29 L 19.27 116.65 L 18.79 116.89 L 18.25 116.98 L 17.69 116.98 L 17.16 116.87 L 16.70 116.61 L 16.33 116.22 L 16.12 115.75 L 16.12 115.24 L 16.34 114.77 L 16.70 114.38 L 17.15 114.11 L 17.58 113.90 L 17.87 113.60 L 17.98 113.14 L 18.02 112.59 Z M 0.19 96.19 L 0.03 96.56 L 0.00 97.06 L 0.00 97.59 L 0.01 98.11 L 0.09 98.56 L 0.32 98.86 L 0.73 98.98 L 1.23 99.01 L 1.73 99.09 L 2.18 99.28 L 2.59 99.57 L 3.01 99.83 L 3.45 99.93 L 3.80 99.80 L 3.93 99.45 L 3.83 99.01 L 3.57 98.59 L 3.28 98.18 L 3.09 97.73 L 3.01 97.23 L 2.98 96.73 L 2.86 96.32 L 2.56 96.09 L 2.11 96.01 L 1.59 96.00 L 1.06 96.00 L 0.56 96.03 Z M 0.20 80.20 L 0.03 80.57 L 0.00 81.08 L 0.00 81.61 L 0.00 82.15 L 0.00 82.68 L 0.00 83.22 L 0.00 83.75 L 0.02 84.27 L 0.14 84.69 L 0.45 84.91 L 0.91 84.99 L 1.44 85.00 L 1.97 85.00 L 2.50 84.97 L 2.98 84.84 L 3.40 84.56 L 3.79 84.21 L 4.17 83.83 L 4.53 83.44 L 4.81 83.02 L 4.92 82.57 L 4.81 82.21 L 4.45 82.04 L 3.95 82.00 L 3.44 81.95 L 2.96 81.80 L 2.56 81.51 L 2.25 81.12 L 2.05 80.68 L 1.86 80.29 L 1.53 80.08 L 1.06 80.01 L 0.57 80.03 Z M 0.18 63.18 L 0.03 63.54 L 0.00 64.02 L 0.00 64.52 L 0.00 65.03 L 0.00 65.54 L 0.00 66.05 L 0.00 66.56 L 0.00 67.07 L 0.00 67.57 L 0.00 68.08 L 0.00 68.59 L 0.00 69.10 L 0.00 69.61 L 0.00 70.12 L 0.00 70.62 L 0.00 71.13 L 0.00 71.64 L 0.01 72.14 L 0.08 72.58 L 0.30 72.86 L 0.70 72.98 L 1.18 73.00 L 1.69 73.00 L 2.18 72.98 L 2.61 72.90 L 2.88 72.66 L 2.98 72.26 L 3.00 71.77 L 3.00 71.26 L 3.00 70.75 L 3.00 70.24 L 3.00 69.73 L 3.00 69.23 L 3.00 68.72 L 3.00 68.21 L 2.99 67.71 L 2.91 67.23 L 2.71 66.80 L 2.43 66.41 L 2.17 66.01 L 2.04 65.56 L 2.01 65.06 L 2.00 64.56 L 2.00 64.05 L 1.97 63.57 L 1.83 63.21 L 1.48 63.04 L 1.01 63.01 L 0.54 63.03 Z M 22.06 7.15 L 21.61 7.43 L 21.20 7.80 L 20.80 8.20 L 20.40 8.60 L 20.00 9.00 L 19.60 9.40 L 19.20 9.80 L 18.80 10.20 L 18.40 10.60 L 18.00 11.00 L 17.60 11.40 L 17.20 11.81 L 16.80 12.21 L 16.42 12.62 L 16.14 13.07 L 15.97 13.56 L 15.79 14.05 L 15.48 14.49 L 15.10 14.90 L 14.70 15.30 L 14.30 15.70 L 13.90 16.10 L 13.50 16.50 L 13.10 16.90 L 12.70 17.30 L 12.30 17.70 L 11.90 18.10 L 11.50 18.50 L 11.10 18.90 L 10.69 19.31 L 10.29 19.71 L 9.90 20.11 L 9.51 20.51 L 9.21 20.96 L 9.05 21.46 L 9.01 22.00 L 9.00 22.57 L 8.99 23.13 L 8.92 23.67 L 8.72 24.15 L 8.40 24.58 L 8.01 24.99 L 7.61 25.38 L 7.18 25.71 L 6.69 25.91 L 6.16 25.99 L 5.61 26.02 L 5.09 26.14 L 4.63 26.40 L 4.19 26.70 L 3.73 26.93 L 3.33 27.14 L 3.09 27.47 L 3.01 27.96 L 2.96 28.50 L 2.81 29.01 L 2.51 29.43 L 2.10 29.76 L 1.60 29.93 L 1.07 30.00 L 0.55 30.06 L 0.19 30.25 L 0.03 30.67 L 0.00 31.20 L 0.00 31.76 L 0.03 32.30 L 0.18 32.72 L 0.53 32.93 L 1.04 33.00 L 1.57 33.06 L 2.07 33.23 L 2.49 33.54 L 2.80 33.97 L 2.95 34.47 L 2.99 35.02 L 3.00 35.58 L 3.01 36.14 L 3.08 36.68 L 3.28 37.16 L 3.59 37.60 L 3.85 38.06 L 3.97 38.58 L 4.00 39.13 L 4.00 39.70 L 4.00 40.26 L 4.00 40.83 L 4.00 41.40 L 4.00 41.96 L 4.00 42.53 L 4.00 43.09 L 4.00 43.66 L 3.98 44.22 L 3.90 44.75 L 3.67 45.22 L 3.32 45.61 L 2.87 45.87 L 2.35 45.98 L 1.79 46.00 L 1.23 46.00 L 0.69 46.03 L 0.27 46.18 L 0.06 46.54 L 0.01 47.05 L 0.00 47.61 L 0.00 48.17 L 0.00 48.74 L 0.00 49.31 L 0.00 49.87 L 0.00 50.44 L 0.00 51.01 L 0.00 51.57 L 0.00 52.14 L 0.00 52.70 L 0.00 53.27 L 0.00 53.84 L 0.00 54.40 L 0.01 54.96 L 0.07 55.47 L 0.28 55.82 L 0.70 55.97 L 1.24 56.00 L 1.80 56.00 L 2.34 55.97 L 2.75 55.81 L 2.94 55.44 L 2.99 54.93 L 3.00 54.37 L 3.00 53.80 L 3.00 53.23 L 3.00 52.67 L 3.00 52.10 L 3.00 51.54 L 3.00 50.97 L 3.00 50.40 L 3.00 49.84 L 3.00 49.27 L 3.00 48.70 L 3.00 48.14 L 3.00 47.57 L 3.01 47.01 L 3.05 46.46 L 3.21 45.96 L 3.52 45.54 L 3.94 45.22 L 4.44 45.06 L 4.98 45.01 L 5.52 45.05 L 6.03 45.20 L 6.48 45.48 L 6.92 45.77 L 7.39 45.90 L 7.77 45.80 L 7.95 45.42 L 8.01 44.91 L 8.07 44.37 L 8.26 43.88 L 8.59 43.47 L 9.02 43.17 L 9.53 43.04 L 10.08 43.00 L 10.64 43.00 L 11.21 43.00 L 11.78 43.00 L 12.34 43.00 L 12.91 43.00 L 13.46 43.03 L 13.97 43.16 L 14.43 43.44 L 14.87 43.74 L 15.36 43.92 L 15.90 43.99 L 16.45 43.97 L 16.96 43.84 L 17.41 43.56 L 17.82 43.18 L 18.22 42.78 L 18.63 42.41 L 19.08 42.13 L 19.58 41.96 L 20.07 41.78 L 20.49 41.46 L 20.79 41.04 L 20.95 40.53 L 20.99 39.99 L 21.00 39.42 L 20.99 38.86 L 20.92 38.33 L 20.72 37.84 L 20.42 37.40 L 20.15 36.95 L 20.08 36.45 L 20.21 35.96 L 20.52 35.54 L 20.94 35.22 L 21.44 35.06 L 21.98 35.01 L 22.54 35.00 L 23.09 34.98 L 23.57 34.89 L 23.87 34.62 L 23.98 34.17 L 24.02 33.63 L 24.13 33.11 L 24.40 32.66 L 24.76 32.24 L 25.16 31.84 L 25.56 31.44 L 25.96 31.04 L 26.37 30.65 L 26.79 30.31 L 27.26 30.11 L 27.76 30.12 L 28.23 30.32 L 28.67 30.62 L 29.12 30.86 L 29.55 30.88 L 29.84 30.65 L 29.88 30.24 L 29.68 29.79 L 29.33 29.40 L 28.89 29.14 L 28.39 29.09 L 27.90 29.24 L 27.46 29.53 L 27.01 29.81 L 26.52 29.92 L 26.02 29.83 L 25.58 29.54 L 25.17 29.16 L 24.77 28.77 L 24.37 28.37 L 23.96 27.96 L 23.56 27.56 L 23.16 27.16 L 22.77 26.76 L 22.40 26.35 L 22.12 25.90 L 21.96 25.40 L 21.77 24.91 L 21.47 24.47 L 21.19 24.02 L 21.05 23.51 L 21.01 22.96 L 21.00 22.40 L 21.00 21.83 L 21.00 21.27 L 21.00 20.70 L 21.00 20.13 L 21.00 19.57 L 21.01 19.00 L 21.05 18.46 L 21.21 17.96 L 21.52 17.53 L 21.94 17.22 L 22.44 17.06 L 22.99 17.01 L 23.55 17.00 L 24.11 16.99 L 24.65 16.92 L 25.14 16.73 L 25.58 16.43 L 26.03 16.17 L 26.53 16.08 L 27.02 16.20 L 27.47 16.47 L 27.91 16.76 L 28.38 16.90 L 28.76 16.80 L 28.95 16.43 L 28.99 15.91 L 29.00 15.35 L 29.02 14.79 L 29.10 14.26 L 29.32 13.78 L 29.66 13.36 L 30.05 12.95 L 30.43 12.55 L 30.75 12.11 L 30.91 11.63 L 30.86 11.13 L 30.62 10.67 L 30.32 10.23 L 30.09 9.76 L 29.92 9.27 L 29.69 8.80 L 29.34 8.40 L 28.89 8.13 L 28.37 8.02 L 27.82 7.99 L 27.29 7.91 L 26.81 7.70 L 26.37 7.40 L 25.91 7.14 L 25.39 7.02 L 24.83 7.00 L 24.27 7.00 L 23.70 7.00 L 23.13 7.00 L 22.58 7.03 Z M 6.13 34.05 L 6.37 33.67 L 6.70 33.34 L 7.09 33.12 L 7.54 33.02 L 8.01 33.00 L 8.49 33.02 L 8.94 33.12 L 9.32 33.36 L 9.65 33.69 L 9.88 34.08 L 9.96 34.51 L 9.87 34.95 L 9.63 35.33 L 9.30 35.66 L 8.91 35.88 L 8.46 35.98 L 7.99 36.00 L 7.51 35.98 L 7.06 35.88 L 6.68 35.64 L 6.35 35.31 L 6.12 34.92 L 6.04 34.49 Z" fill="rgb(174,170,166)" fill-rule="evenodd"/>
  <path d="M 5.21 150.21 L 5.04 150.61 L 5.00 151.14 L 5.00 151.71 L 5.00 152.28 L 5.00 152.85 L 5.00 153.42 L 5.00 153.99 L 5.00 154.56 L 5.01 155.13 L 5.08 155.67 L 5.28 156.16 L 5.61 156.59 L 6.00 157.00 L 6.39 157.41 L 6.72 157.84 L 6.94 158.32 L 7.11 158.82 L 7.36 159.29 L 7.72 159.71 L 8.12 160.12 L 8.52 160.52 L 8.92 160.92 L 9.33 161.33 L 9.73 161.73 L 10.13 162.13 L 10.54 162.54 L 10.94 162.94 L 11.34 163.34 L 11.75 163.75 L 12.15 164.15 L 12.55 164.55 L 12.96 164.96 L 13.35 165.36 L 13.69 165.79 L 13.92 166.27 L 14.09 166.77 L 14.33 167.24 L 14.68 167.67 L 15.07 168.07 L 15.48 168.48 L 15.88 168.88 L 16.29 169.28 L 16.71 169.63 L 17.17 169.89 L 17.67 170.06 L 18.15 170.28 L 18.59 170.61 L 19.00 171.00 L 19.40 171.38 L 19.84 171.71 L 20.33 171.92 L 20.87 171.99 L 21.42 172.02 L 21.94 172.15 L 22.38 172.44 L 22.72 172.85 L 22.92 173.33 L 22.99 173.87 L 23.00 174.44 L 23.01 175.01 L 23.06 175.56 L 23.22 176.06 L 23.54 176.48 L 23.96 176.79 L 24.47 176.95 L 25.02 176.98 L 25.56 176.94 L 26.07 176.78 L 26.52 176.49 L 26.97 176.20 L 27.48 176.05 L 28.03 176.01 L 28.60 176.00 L 29.17 176.00 L 29.74 176.00 L 30.31 176.00 L 30.88 176.00 L 31.45 176.00 L 32.02 176.00 L 32.59 176.00 L 33.16 176.00 L 33.73 176.00 L 34.30 176.00 L 34.87 176.00 L 35.44 176.00 L 36.01 176.00 L 36.58 176.00 L 37.15 176.00 L 37.72 176.00 L 38.29 176.00 L 38.86 176.00 L 39.40 175.96 L 39.79 175.79 L 39.96 175.39 L 40.00 174.85 L 40.00 174.29 L 40.00 173.72 L 40.00 173.14 L 40.00 172.58 L 39.99 172.01 L 39.92 171.51 L 39.70 171.17 L 39.27 171.03 L 38.73 170.98 L 38.20 170.89 L 37.73 170.65 L 37.30 170.29 L 36.90 169.90 L 36.49 169.49 L 36.09 169.09 L 35.69 168.69 L 35.28 168.28 L 34.88 167.88 L 34.48 167.48 L 34.08 167.07 L 33.68 166.67 L 33.34 166.24 L 33.12 165.77 L 33.11 165.27 L 33.31 164.80 L 33.66 164.40 L 34.10 164.12 L 34.54 163.93 L 34.85 163.65 L 34.98 163.21 L 35.00 162.66 L 35.00 162.09 L 35.04 161.53 L 35.17 161.02 L 35.46 160.57 L 35.84 160.16 L 36.24 159.75 L 36.61 159.33 L 36.86 158.88 L 36.91 158.37 L 36.74 157.89 L 36.42 157.47 L 35.98 157.18 L 35.47 157.04 L 34.92 156.99 L 34.38 156.93 L 33.88 156.74 L 33.47 156.41 L 33.16 155.99 L 32.97 155.53 L 32.73 155.18 L 32.31 155.03 L 31.77 155.00 L 31.20 155.00 L 30.63 155.00 L 30.06 154.99 L 29.50 154.96 L 28.99 154.81 L 28.55 154.52 L 28.13 154.13 L 27.73 153.74 L 27.31 153.38 L 26.85 153.14 L 26.35 153.10 L 25.86 153.27 L 25.42 153.57 L 24.96 153.84 L 24.46 153.92 L 23.97 153.79 L 23.52 153.49 L 23.11 153.11 L 22.72 152.71 L 22.36 152.28 L 22.10 151.83 L 21.90 151.40 L 21.61 151.10 L 21.18 150.91 L 20.72 150.65 L 20.28 150.35 L 19.81 150.11 L 19.27 150.02 L 18.71 150.00 L 18.14 150.00 L 17.57 150.00 L 17.00 150.00 L 16.43 150.00 L 15.86 150.00 L 15.29 150.00 L 14.72 150.00 L 14.15 150.00 L 13.58 150.00 L 13.02 150.01 L 12.51 150.08 L 12.15 150.29 L 11.94 150.70 L 11.72 151.16 L 11.38 151.56 L 10.94 151.85 L 10.42 151.97 L 9.86 151.98 L 9.32 151.91 L 8.84 151.71 L 8.43 151.37 L 8.13 150.94 L 7.94 150.49 L 7.69 150.16 L 7.25 150.03 L 6.71 150.00 L 6.14 150.00 L 5.61 150.04 Z M 24.06 142.16 L 23.60 142.44 L 23.18 142.82 L 22.77 143.22 L 22.34 143.60 L 21.88 143.85 L 21.37 143.90 L 20.88 143.74 L 20.42 143.44 L 19.96 143.17 L 19.46 143.09 L 18.96 143.22 L 18.52 143.53 L 18.21 143.97 L 18.05 144.48 L 18.02 145.03 L 18.09 145.52 L 18.33 145.82 L 18.66 145.83 L 18.92 145.55 L 19.12 145.10 L 19.41 144.66 L 19.81 144.31 L 20.29 144.11 L 20.80 144.13 L 21.26 144.36 L 21.64 144.74 L 21.91 145.19 L 22.11 145.62 L 22.43 145.91 L 22.87 146.11 L 23.32 146.39 L 23.75 146.76 L 24.16 147.16 L 24.58 147.55 L 25.04 147.84 L 25.57 147.97 L 26.11 147.98 L 26.59 147.88 L 26.88 147.58 L 26.98 147.11 L 26.97 146.56 L 26.84 146.04 L 26.56 145.57 L 26.26 145.12 L 26.07 144.61 L 26.01 144.06 L 25.95 143.50 L 25.80 142.99 L 25.49 142.55 L 25.06 142.23 L 24.57 142.09 Z M 29.19 125.21 L 29.03 125.58 L 29.00 126.09 L 29.00 126.63 L 28.99 127.17 L 28.92 127.69 L 28.73 128.16 L 28.40 128.55 L 27.99 128.84 L 27.54 129.01 L 27.20 129.21 L 27.10 129.54 L 27.28 129.83 L 27.67 129.90 L 28.12 129.75 L 28.54 129.47 L 28.97 129.19 L 29.45 129.07 L 29.93 129.14 L 30.35 129.41 L 30.69 129.79 L 30.90 130.24 L 30.99 130.75 L 31.02 131.27 L 31.15 131.69 L 31.47 131.92 L 31.94 131.98 L 32.43 131.96 L 32.81 131.79 L 32.97 131.40 L 33.00 130.89 L 33.00 130.35 L 33.00 129.80 L 33.00 129.26 L 32.98 128.74 L 32.85 128.31 L 32.55 128.06 L 32.12 127.89 L 31.68 127.63 L 31.29 127.28 L 30.90 126.90 L 30.53 126.51 L 30.23 126.09 L 30.03 125.64 L 29.84 125.26 L 29.52 125.10 Z M 62.21 123.21 L 62.09 123.57 L 62.21 124.04 L 62.51 124.45 L 62.92 124.77 L 63.41 124.94 L 63.94 124.99 L 64.50 125.00 L 65.06 124.99 L 65.59 124.94 L 66.08 124.77 L 66.52 124.48 L 66.96 124.20 L 67.43 124.02 L 67.79 123.81 L 67.89 123.48 L 67.71 123.17 L 67.29 123.03 L 66.77 123.02 L 66.25 123.10 L 65.78 123.32 L 65.34 123.62 L 64.89 123.86 L 64.40 123.91 L 63.92 123.77 L 63.48 123.48 L 63.04 123.20 L 62.57 123.09 Z M 128.44 3.59 L 124.69 5.26 L 118.82 5.00 L 112.81 5.00 L 106.81 5.00 L 100.80 5.00 L 94.80 5.00 L 89.10 5.53 L 83.61 5.00 L 77.61 5.00 L 71.60 5.00 L 65.60 5.00 L 59.59 5.00 L 53.59 5.00 L 47.93 4.45 L 42.40 5.00 L 36.40 5.00 L 30.68 5.53 L 30.88 8.86 L 30.57 13.79 L 27.78 17.85 L 22.58 19.09 L 22.80 24.40 L 25.85 25.71 L 29.12 28.21 L 31.91 32.85 L 29.44 37.05 L 27.33 34.53 L 27.26 31.59 L 24.06 35.34 L 21.73 38.30 L 19.72 43.11 L 14.67 44.54 L 10.11 45.71 L 5.06 47.33 L 4.00 52.28 L 4.06 58.26 L 6.31 63.29 L 4.82 67.60 L 4.31 72.93 L 6.35 76.60 L 6.00 81.17 L 6.39 85.87 L 10.20 86.88 L 9.83 91.87 L 6.75 96.04 L 5.68 100.38 L 6.05 104.43 L 10.35 105.41 L 11.88 102.78 L 9.56 98.04 L 9.65 94.17 L 13.68 91.58 L 15.46 95.59 L 18.12 95.35 L 20.04 98.72 L 19.28 103.19 L 21.46 106.51 L 25.12 109.36 L 24.65 113.73 L 27.28 117.57 L 30.92 116.92 L 35.60 118.27 L 40.82 117.89 L 44.24 119.94 L 42.21 123.81 L 42.15 126.03 L 45.41 127.66 L 49.63 129.97 L 55.32 129.31 L 58.77 124.99 L 55.75 121.36 L 55.71 116.98 L 57.38 111.78 L 55.97 112.36 L 54.00 110.13 L 57.68 106.18 L 62.68 104.54 L 66.96 107.00 L 71.06 110.07 L 73.80 109.86 L 77.43 112.12 L 75.49 116.16 L 73.89 120.68 L 73.91 123.66 L 78.98 125.25 L 79.12 130.22 L 77.55 131.91 L 82.87 133.23 L 85.10 137.19 L 80.89 136.21 L 76.76 135.58 L 80.67 137.92 L 84.91 140.57 L 85.44 145.09 L 89.21 144.42 L 90.82 146.93 L 87.53 150.47 L 82.02 150.00 L 76.80 150.30 L 80.93 151.14 L 86.48 151.77 L 91.14 152.35 L 94.47 149.58 L 95.63 153.36 L 97.64 157.09 L 99.39 156.99 L 98.45 152.57 L 96.34 148.44 L 97.37 143.26 L 101.71 144.11 L 105.98 146.98 L 107.88 149.88 L 105.36 154.33 L 107.90 154.57 L 111.07 150.09 L 115.90 149.46 L 119.50 151.85 L 124.00 150.36 L 127.90 153.37 L 129.49 156.94 L 130.31 159.74 L 126.55 162.85 L 123.67 166.55 L 118.90 168.51 L 113.72 170.38 L 111.69 167.61 L 110.81 166.14 L 107.63 167.94 L 105.44 163.04 L 102.71 161.37 L 100.27 165.82 L 98.51 170.00 L 102.77 173.31 L 107.69 175.94 L 113.67 176.00 L 118.66 174.98 L 120.98 170.62 L 124.46 173.12 L 128.92 175.67 L 134.63 176.00 L 140.63 176.00 L 146.64 176.00 L 152.64 176.00 L 158.65 176.00 L 164.65 176.00 L 170.66 176.00 L 176.66 176.00 L 182.67 176.00 L 188.67 176.00 L 194.67 176.03 L 200.20 176.78 L 205.46 176.54 L 211.04 176.00 L 216.98 176.15 L 222.64 177.00 L 228.63 176.97 L 234.25 176.03 L 240.24 176.00 L 246.24 176.00 L 252.25 176.00 L 258.23 175.95 L 263.15 173.60 L 266.16 168.87 L 269.21 164.13 L 272.13 159.34 L 275.30 155.20 L 279.74 152.21 L 285.66 152.00 L 291.56 151.74 L 297.26 151.00 L 302.38 149.28 L 304.00 143.97 L 304.00 137.97 L 304.00 131.96 L 304.00 125.96 L 304.00 119.95 L 304.00 113.95 L 304.00 107.94 L 304.00 101.93 L 304.00 95.93 L 304.00 89.92 L 304.00 83.92 L 304.00 77.91 L 304.00 71.91 L 304.00 65.90 L 304.00 59.90 L 304.00 53.89 L 304.00 47.89 L 304.00 41.88 L 303.99 35.89 L 301.18 32.27 L 296.80 29.79 L 297.09 26.09 L 301.05 27.44 L 301.51 24.89 L 300.79 19.91 L 296.01 17.15 L 292.18 13.21 L 287.51 10.05 L 283.11 7.33 L 278.15 5.05 L 272.17 5.00 L 266.16 5.00 L 260.16 5.00 L 254.20 5.12 L 248.91 5.14 L 242.99 5.04 L 237.57 5.50 L 231.79 5.00 L 225.86 5.18 L 220.57 5.07 L 214.60 5.00 L 208.59 5.00 L 202.59 5.00 L 196.58 5.00 L 190.58 5.00 L 184.58 4.98 L 180.30 3.75 L 176.38 5.97 L 170.75 5.11 L 164.79 5.00 L 158.94 5.36 L 153.58 5.08 L 147.60 5.00 L 141.60 5.00 L 135.59 5.00 L 130.19 4.01 Z M 141.15 158.06 L 141.43 157.63 L 141.83 157.29 L 142.30 157.09 L 142.83 157.01 L 143.38 157.00 L 143.94 157.00 L 144.50 157.00 L 145.06 157.01 L 145.59 157.06 L 146.08 157.23 L 146.49 157.55 L 146.80 157.97 L 146.92 158.45 L 146.85 158.94 L 146.57 159.37 L 146.17 159.71 L 145.70 159.91 L 145.17 159.99 L 144.62 160.00 L 144.06 160.00 L 143.50 160.00 L 142.94 159.99 L 142.41 159.94 L 141.92 159.77 L 141.51 159.45 L 141.20 159.03 L 141.08 158.55 Z M 300.13 120.05 L 300.37 119.67 L 300.70 119.34 L 301.09 119.12 L 301.53 119.04 L 301.96 119.13 L 302.34 119.38 L 302.66 119.71 L 302.89 120.10 L 302.98 120.55 L 303.00 121.03 L 302.98 121.51 L 302.87 121.95 L 302.63 122.33 L 302.30 122.66 L 301.91 122.88 L 301.47 122.96 L 301.04 122.87 L 300.66 122.62 L 300.34 122.29 L 300.11 121.90 L 300.02 121.45 L 300.00 120.97 L 300.02 120.49 Z M 49.15 116.06 L 49.43 115.62 L 49.84 115.28 L 50.33 115.08 L 50.87 115.01 L 51.43 115.00 L 52.00 115.01 L 52.55 115.05 L 53.05 115.22 L 53.47 115.53 L 53.78 115.95 L 53.92 116.44 L 53.85 116.94 L 53.57 117.38 L 53.16 117.72 L 52.67 117.92 L 52.13 117.99 L 51.57 118.00 L 51.00 117.99 L 50.45 117.95 L 49.95 117.78 L 49.53 117.47 L 49.22 117.05 L 49.08 116.56 Z M 33.14 111.06 L 33.41 110.64 L 33.80 110.30 L 34.25 110.11 L 34.73 110.11 L 35.19 110.29 L 35.60 110.62 L 35.99 110.99 L 36.36 111.38 L 36.69 111.79 L 36.89 112.24 L 36.90 112.72 L 36.71 113.17 L 36.39 113.56 L 35.97 113.84 L 35.47 113.97 L 34.94 113.99 L 34.42 113.94 L 33.94 113.79 L 33.54 113.49 L 33.23 113.08 L 33.06 112.61 L 33.01 112.09 L 33.02 111.55 Z M 30.15 108.06 L 30.41 107.64 L 30.80 107.30 L 31.26 107.09 L 31.77 107.02 L 32.30 107.02 L 32.81 107.11 L 33.25 107.34 L 33.62 107.69 L 33.88 108.13 L 33.98 108.63 L 33.99 109.16 L 33.92 109.67 L 33.73 110.14 L 33.41 110.54 L 33.00 110.82 L 32.52 110.93 L 32.04 110.85 L 31.61 110.58 L 31.22 110.22 L 30.83 109.83 L 30.47 109.44 L 30.19 109.01 L 30.07 108.54 Z M 54.16 102.07 L 54.46 101.60 L 54.90 101.26 L 55.41 101.10 L 55.94 101.17 L 56.40 101.46 L 56.74 101.90 L 56.96 102.41 L 57.14 102.94 L 57.43 103.42 L 57.74 103.90 L 57.90 104.41 L 57.83 104.94 L 57.54 105.40 L 57.10 105.74 L 56.59 105.90 L 56.06 105.83 L 55.58 105.55 L 55.15 105.14 L 54.73 104.72 L 54.36 104.27 L 54.12 103.76 L 54.02 103.20 L 54.03 102.61 Z M 50.00 102.00 L 50.45 101.58 L 50.92 101.25 L 51.45 101.11 L 51.98 101.20 L 52.45 101.51 L 52.78 101.97 L 52.95 102.52 L 53.01 103.11 L 53.10 103.69 L 53.33 104.22 L 53.63 104.71 L 53.86 105.22 L 53.86 105.76 L 53.63 106.25 L 53.23 106.65 L 52.73 106.87 L 52.19 106.85 L 51.69 106.61 L 51.23 106.22 L 50.79 105.79 L 50.35 105.35 L 49.92 104.92 L 49.50 104.47 L 49.20 103.99 L 49.11 103.45 L 49.25 102.92 L 49.58 102.45 Z M 40.16 100.06 L 40.45 99.61 L 40.87 99.28 L 41.36 99.10 L 41.87 99.14 L 42.34 99.39 L 42.80 99.69 L 43.28 99.88 L 43.79 99.87 L 44.27 99.65 L 44.73 99.35 L 45.21 99.13 L 45.72 99.12 L 46.20 99.32 L 46.60 99.68 L 46.87 100.14 L 46.98 100.68 L 47.00 101.25 L 47.00 101.83 L 47.00 102.42 L 46.99 103.00 L 46.94 103.56 L 46.77 104.07 L 46.44 104.50 L 46.00 104.80 L 45.50 104.91 L 45.00 104.80 L 44.56 104.50 L 44.23 104.07 L 44.02 103.59 L 43.80 103.20 L 43.41 102.98 L 42.93 102.77 L 42.47 102.47 L 42.01 102.18 L 41.50 102.00 L 41.00 101.81 L 40.56 101.50 L 40.23 101.07 L 40.09 100.57 Z M 58.13 94.05 L 58.37 93.67 L 58.70 93.34 L 59.09 93.12 L 59.53 93.04 L 59.96 93.13 L 60.34 93.38 L 60.66 93.71 L 60.89 94.10 L 60.98 94.55 L 61.00 95.03 L 60.98 95.51 L 60.87 95.95 L 60.63 96.33 L 60.30 96.66 L 59.91 96.88 L 59.47 96.96 L 59.04 96.87 L 58.66 96.62 L 58.34 96.29 L 58.11 95.90 L 58.02 95.45 L 58.00 94.97 L 58.02 94.49 Z M 22.13 90.05 L 22.37 89.67 L 22.70 89.34 L 23.09 89.12 L 23.54 89.02 L 24.01 89.00 L 24.49 89.02 L 24.94 89.12 L 25.32 89.36 L 25.65 89.69 L 25.88 90.08 L 25.96 90.51 L 25.87 90.95 L 25.63 91.33 L 25.30 91.66 L 24.91 91.88 L 24.46 91.98 L 23.99 92.00 L 23.51 91.98 L 23.06 91.88 L 22.68 91.64 L 22.35 91.31 L 22.12 90.92 L 22.04 90.49 Z M 24.15 82.06 L 24.43 81.62 L 24.84 81.29 L 25.32 81.10 L 25.82 81.13 L 26.27 81.36 L 26.65 81.74 L 26.89 82.20 L 26.98 82.73 L 27.00 83.29 L 27.00 83.86 L 26.97 84.42 L 26.85 84.94 L 26.57 85.38 L 26.16 85.71 L 25.68 85.90 L 25.18 85.87 L 24.73 85.64 L 24.35 85.26 L 24.11 84.80 L 24.02 84.27 L 24.00 83.71 L 24.00 83.14 L 24.03 82.58 Z M 37.13 80.05 L 37.37 79.67 L 37.70 79.34 L 38.09 79.12 L 38.53 79.04 L 38.96 79.13 L 39.34 79.38 L 39.66 79.71 L 39.89 80.10 L 39.98 80.55 L 40.00 81.03 L 39.98 81.51 L 39.87 81.95 L 39.63 82.33 L 39.30 82.66 L 38.91 82.88 L 38.47 82.96 L 38.04 82.87 L 37.66 82.62 L 37.34 82.29 L 37.11 81.90 L 37.02 81.45 L 37.00 80.97 L 37.02 80.49 Z M 54.94 77.86 L 55.41 77.58 L 55.86 77.27 L 56.35 77.10 L 56.86 77.14 L 57.31 77.39 L 57.68 77.79 L 57.90 78.27 L 57.98 78.81 L 57.97 79.38 L 57.86 79.91 L 57.57 80.36 L 57.16 80.71 L 56.67 80.91 L 56.12 80.99 L 55.55 81.00 L 54.97 80.99 L 54.42 80.93 L 53.91 80.76 L 53.49 80.43 L 53.19 79.99 L 53.09 79.49 L 53.20 78.99 L 53.51 78.55 L 53.94 78.23 L 54.43 78.03 Z M 43.00 77.00 L 43.43 76.59 L 43.89 76.26 L 44.40 76.10 L 44.92 76.16 L 45.38 76.45 L 45.73 76.88 L 45.95 77.38 L 46.13 77.90 L 46.43 78.38 L 46.82 78.81 L 47.23 79.24 L 47.61 79.68 L 47.87 80.17 L 47.98 80.72 L 47.98 81.31 L 47.86 81.86 L 47.59 82.33 L 47.17 82.69 L 46.68 82.89 L 46.16 82.85 L 45.69 82.60 L 45.32 82.19 L 45.07 81.72 L 44.84 81.30 L 44.46 81.08 L 43.92 81.01 L 43.34 81.00 L 42.75 80.98 L 42.19 80.88 L 41.71 80.61 L 41.34 80.21 L 41.12 79.73 L 41.14 79.20 L 41.37 78.72 L 41.74 78.27 L 42.15 77.85 L 42.58 77.42 Z M 12.16 75.06 L 12.45 74.61 L 12.88 74.27 L 13.38 74.10 L 13.90 74.15 L 14.37 74.42 L 14.80 74.81 L 15.22 75.23 L 15.60 75.66 L 15.87 76.14 L 15.98 76.69 L 16.02 77.26 L 16.12 77.81 L 16.37 78.30 L 16.67 78.77 L 16.88 79.26 L 16.87 79.78 L 16.64 80.25 L 16.26 80.64 L 15.77 80.89 L 15.22 80.98 L 14.64 81.00 L 14.05 80.99 L 13.48 80.94 L 12.95 80.78 L 12.52 80.45 L 12.20 80.01 L 12.09 79.50 L 12.20 78.99 L 12.49 78.52 L 12.78 78.05 L 12.91 77.54 L 12.82 77.02 L 12.54 76.55 L 12.24 76.08 L 12.09 75.58 Z M 20.15 72.06 L 20.43 71.62 L 20.84 71.28 L 21.33 71.08 L 21.87 71.01 L 22.43 71.00 L 23.00 71.00 L 23.57 71.00 L 24.14 71.00 L 24.71 71.00 L 25.27 71.02 L 25.80 71.11 L 26.26 71.35 L 26.64 71.73 L 26.88 72.19 L 26.98 72.71 L 26.98 73.27 L 26.89 73.80 L 26.66 74.27 L 26.35 74.71 L 26.12 75.19 L 26.02 75.71 L 25.98 76.27 L 25.89 76.80 L 25.65 77.26 L 25.27 77.64 L 24.81 77.88 L 24.29 77.98 L 23.73 77.98 L 23.20 77.89 L 22.74 77.65 L 22.36 77.27 L 22.12 76.81 L 22.02 76.29 L 21.98 75.73 L 21.89 75.20 L 21.65 74.73 L 21.30 74.31 L 20.90 73.90 L 20.52 73.49 L 20.22 73.05 L 20.08 72.56 Z M 7.14 67.05 L 7.45 66.61 L 7.88 66.27 L 8.38 66.10 L 8.90 66.15 L 9.38 66.41 L 9.84 66.72 L 10.34 66.94 L 10.86 67.12 L 11.32 67.40 L 11.69 67.81 L 11.90 68.31 L 11.98 68.87 L 11.96 69.44 L 11.82 69.97 L 11.52 70.42 L 11.08 70.75 L 10.58 70.91 L 10.06 70.84 L 9.59 70.57 L 9.12 70.27 L 8.62 70.10 L 8.10 70.15 L 7.62 70.41 L 7.16 70.71 L 6.66 70.89 L 6.14 70.85 L 5.68 70.59 L 5.32 70.19 L 5.12 69.70 L 5.14 69.18 L 5.38 68.71 L 5.78 68.34 L 6.24 68.08 L 6.66 67.86 L 6.93 67.51 Z M 13.15 64.06 L 13.45 63.61 L 13.88 63.27 L 14.37 63.10 L 14.89 63.15 L 15.34 63.42 L 15.70 63.83 L 15.91 64.33 L 15.99 64.89 L 16.04 65.45 L 16.18 65.98 L 16.46 66.46 L 16.76 66.92 L 16.91 67.43 L 16.84 67.94 L 16.55 68.39 L 16.12 68.73 L 15.63 68.90 L 15.11 68.85 L 14.64 68.59 L 14.21 68.20 L 13.80 67.79 L 13.41 67.36 L 13.14 66.89 L 13.02 66.35 L 13.00 65.77 L 13.00 65.18 L 13.03 64.60 Z M 20.15 49.06 L 20.43 48.62 L 20.84 48.29 L 21.32 48.10 L 21.82 48.13 L 22.27 48.36 L 22.65 48.74 L 22.89 49.20 L 22.98 49.73 L 23.00 50.29 L 23.00 50.86 L 23.03 51.42 L 23.15 51.94 L 23.41 52.40 L 23.72 52.84 L 23.90 53.32 L 23.87 53.82 L 23.64 54.28 L 23.29 54.70 L 22.89 55.11 L 22.48 55.49 L 22.04 55.79 L 21.54 55.92 L 21.05 55.84 L 20.61 55.55 L 20.28 55.14 L 20.08 54.66 L 20.01 54.12 L 20.00 53.55 L 20.00 52.98 L 20.00 52.41 L 20.00 51.85 L 20.00 51.28 L 20.00 50.71 L 20.00 50.14 L 20.03 49.58 Z M 12.15 46.06 L 12.43 45.62 L 12.84 45.29 L 13.32 45.10 L 13.82 45.13 L 14.27 45.36 L 14.65 45.74 L 14.89 46.20 L 14.98 46.73 L 15.00 47.29 L 15.00 47.86 L 14.97 48.42 L 14.85 48.94 L 14.57 49.38 L 14.16 49.71 L 13.68 49.90 L 13.18 49.87 L 12.73 49.64 L 12.35 49.26 L 12.11 48.80 L 12.02 48.27 L 12.00 47.71 L 12.00 47.14 L 12.03 46.58 Z M 26.14 40.06 L 26.41 39.64 L 26.80 39.30 L 27.26 39.09 L 27.77 39.02 L 28.30 39.02 L 28.81 39.11 L 29.25 39.34 L 29.62 39.69 L 29.87 40.12 L 29.92 40.60 L 29.78 41.07 L 29.48 41.49 L 29.11 41.88 L 28.73 42.27 L 28.33 42.62 L 27.89 42.86 L 27.41 42.92 L 26.94 42.79 L 26.54 42.49 L 26.23 42.08 L 26.06 41.61 L 26.01 41.09 L 26.02 40.55 Z M 291.13 27.05 L 291.37 26.67 L 291.70 26.34 L 292.09 26.12 L 292.54 26.02 L 293.01 26.00 L 293.49 26.02 L 293.94 26.12 L 294.32 26.36 L 294.65 26.69 L 294.88 27.08 L 294.96 27.51 L 294.87 27.95 L 294.63 28.33 L 294.30 28.66 L 293.91 28.88 L 293.46 28.98 L 292.99 29.00 L 292.51 28.98 L 292.06 28.88 L 291.68 28.64 L 291.35 28.31 L 291.12 27.92 L 291.04 27.49 Z M 248.94 14.86 L 249.40 14.58 L 249.85 14.27 L 250.35 14.08 L 250.90 14.01 L 251.47 14.00 L 252.05 14.01 L 252.60 14.07 L 253.10 14.25 L 253.52 14.58 L 253.82 15.02 L 253.92 15.52 L 253.80 16.02 L 253.49 16.45 L 253.06 16.77 L 252.55 16.94 L 252.00 16.99 L 251.42 17.00 L 250.85 17.01 L 250.30 17.09 L 249.81 17.30 L 249.36 17.60 L 248.90 17.85 L 248.39 17.91 L 247.90 17.75 L 247.48 17.42 L 247.18 16.98 L 247.08 16.48 L 247.20 15.98 L 247.51 15.55 L 247.94 15.22 L 248.44 15.03 Z M 270.17 13.06 L 270.47 12.60 L 270.91 12.26 L 271.43 12.10 L 271.96 12.18 L 272.45 12.46 L 272.93 12.76 L 273.45 12.97 L 273.98 13.17 L 274.46 13.49 L 274.89 13.90 L 275.31 14.33 L 275.67 14.79 L 275.90 15.31 L 275.98 15.88 L 276.00 16.49 L 275.98 17.09 L 275.91 17.67 L 275.68 18.18 L 275.31 18.59 L 274.83 18.85 L 274.30 18.88 L 273.79 18.67 L 273.33 18.31 L 272.90 17.90 L 272.47 17.47 L 272.04 17.03 L 271.62 16.60 L 271.28 16.13 L 271.05 15.61 L 270.86 15.08 L 270.57 14.59 L 270.26 14.11 L 270.10 13.59 Z M 245.18 0.18 L 245.03 0.53 L 245.00 1.00 L 245.03 1.47 L 245.18 1.82 L 245.53 1.97 L 246.00 2.00 L 246.50 2.00 L 247.00 2.00 L 247.50 2.00 L 248.00 2.00 L 248.50 2.00 L 249.00 2.00 L 249.50 2.00 L 250.00 2.00 L 250.50 2.00 L 251.00 2.00 L 251.50 2.00 L 252.00 2.00 L 252.47 1.97 L 252.82 1.82 L 252.97 1.47 L 253.00 1.00 L 252.97 0.53 L 252.82 0.18 L 252.47 0.03 L 252.00 0.00 L 251.50 0.00 L 251.00 0.00 L 250.50 0.00 L 250.00 0.00 L 249.50 0.00 L 249.00 0.00 L 248.50 0.00 L 248.00 0.00 L 247.50 0.00 L 247.00 0.00 L 246.50 0.00 L 246.00 0.00 L 245.53 0.03 Z" fill="rgb(231,228,223)" fill-rule="evenodd"/>
</svg>