<svg xmlns="http://www.w3.org/2000/svg" width="298" height="176" viewBox="0 0 298 176" role="img" aria-label="06_plates_06">
  <title>06_plates_06</title>
  <path d="M 219.06 167.14 L 218.61 167.40 L 218.18 167.71 L 217.71 167.91 L 217.19 167.99 L 216.64 168.00 L 216.09 168.00 L 215.53 168.00 L 214.98 168.00 L 214.42 168.00 L 213.89 168.02 L 213.42 168.11 L 213.15 168.35 L 213.16 168.68 L 213.44 168.93 L 213.87 169.11 L 214.31 169.36 L 214.74 169.67 L 215.19 169.90 L 215.68 170.06 L 216.15 170.27 L 216.58 170.57 L 217.02 170.83 L 217.51 170.93 L 217.99 170.82 L 218.41 170.53 L 218.74 170.13 L 218.94 169.66 L 219.10 169.17 L 219.35 168.73 L 219.72 168.36 L 220.15 168.10 L 220.58 167.92 L 220.84 167.66 L 220.84 167.33 L 220.56 167.10 L 220.09 167.02 L 219.56 167.03 Z M 179.06 166.14 L 178.64 166.42 L 178.30 166.80 L 178.11 167.26 L 178.11 167.74 L 178.30 168.19 L 178.63 168.58 L 179.05 168.86 L 179.55 168.97 L 180.09 169.00 L 180.63 169.00 L 181.18 169.00 L 181.72 169.00 L 182.27 169.00 L 182.82 169.00 L 183.36 169.00 L 183.91 169.00 L 184.44 168.98 L 184.94 168.86 L 185.36 168.58 L 185.70 168.20 L 185.89 167.76 L 185.86 167.35 L 185.58 167.10 L 185.12 167.02 L 184.59 167.00 L 184.05 167.00 L 183.50 167.00 L 182.96 166.99 L 182.43 166.95 L 181.95 166.79 L 181.52 166.51 L 181.09 166.23 L 180.61 166.06 L 180.09 166.01 L 179.56 166.03 Z M 207.06 164.15 L 206.61 164.41 L 206.17 164.71 L 205.69 164.91 L 205.16 164.99 L 204.60 165.00 L 204.04 165.01 L 203.54 165.06 L 203.18 165.27 L 203.03 165.68 L 203.00 166.22 L 203.00 166.78 L 203.00 167.34 L 203.00 167.90 L 203.03 168.46 L 203.16 168.97 L 203.43 169.42 L 203.73 169.85 L 203.90 170.33 L 203.87 170.83 L 203.64 171.28 L 203.29 171.70 L 202.90 172.10 L 202.52 172.51 L 202.22 172.95 L 202.06 173.44 L 202.02 173.98 L 202.07 174.48 L 202.28 174.83 L 202.70 174.97 L 203.24 175.00 L 203.79 175.00 L 204.33 174.97 L 204.75 174.82 L 204.98 174.47 L 205.16 174.01 L 205.44 173.57 L 205.74 173.13 L 205.94 172.65 L 206.11 172.16 L 206.37 171.70 L 206.72 171.29 L 207.12 170.89 L 207.52 170.51 L 207.96 170.21 L 208.46 170.05 L 209.00 170.01 L 209.54 170.05 L 210.04 170.21 L 210.46 170.51 L 210.77 170.93 L 210.94 171.43 L 210.99 171.97 L 210.96 172.51 L 210.81 173.01 L 210.53 173.46 L 210.24 173.90 L 210.10 174.36 L 210.19 174.75 L 210.55 174.94 L 211.06 174.99 L 211.62 175.00 L 212.18 175.00 L 212.74 175.00 L 213.26 174.98 L 213.59 174.88 L 213.57 174.64 L 213.33 174.27 L 213.11 173.81 L 213.02 173.29 L 212.98 172.74 L 212.89 172.21 L 212.66 171.75 L 212.29 171.37 L 211.85 171.11 L 211.35 170.95 L 210.87 170.74 L 210.47 170.41 L 210.17 169.98 L 210.04 169.48 L 209.99 168.93 L 209.93 168.39 L 209.76 167.90 L 209.47 167.46 L 209.19 167.01 L 209.04 166.51 L 209.00 165.97 L 208.94 165.43 L 208.77 164.93 L 208.46 164.51 L 208.04 164.21 L 207.55 164.08 Z M 294.20 149.22 L 294.03 149.61 L 293.99 150.14 L 293.91 150.68 L 293.71 151.16 L 293.37 151.57 L 292.93 151.85 L 292.43 151.92 L 291.94 151.78 L 291.49 151.49 L 291.04 151.21 L 290.53 151.05 L 289.98 151.01 L 289.41 151.00 L 288.84 151.01 L 288.30 151.09 L 287.82 151.29 L 287.37 151.60 L 286.91 151.86 L 286.39 151.97 L 285.83 151.98 L 285.30 151.91 L 284.81 151.70 L 284.37 151.40 L 283.90 151.14 L 283.38 151.02 L 282.82 151.00 L 282.25 151.00 L 281.71 151.03 L 281.28 151.18 L 281.07 151.53 L 281.00 152.04 L 280.94 152.58 L 280.77 153.08 L 280.44 153.50 L 280.01 153.81 L 279.51 153.95 L 278.95 153.99 L 278.38 154.00 L 277.81 154.00 L 277.24 154.00 L 276.67 154.00 L 276.10 154.00 L 275.54 154.03 L 275.03 154.17 L 274.58 154.46 L 274.17 154.84 L 273.77 155.24 L 273.40 155.66 L 273.12 156.12 L 272.95 156.62 L 272.75 157.10 L 272.42 157.52 L 271.99 157.82 L 271.48 157.96 L 270.92 158.00 L 270.36 158.00 L 269.81 158.02 L 269.36 158.14 L 269.13 158.43 L 269.20 158.76 L 269.54 158.98 L 270.00 159.17 L 270.45 159.46 L 270.90 159.75 L 271.36 159.90 L 271.76 159.80 L 271.99 159.45 L 272.18 158.99 L 272.49 158.57 L 272.91 158.24 L 273.40 158.09 L 273.90 158.15 L 274.34 158.41 L 274.69 158.81 L 274.91 159.29 L 274.98 159.82 L 274.98 160.38 L 274.86 160.90 L 274.59 161.36 L 274.22 161.78 L 273.82 162.18 L 273.41 162.59 L 273.01 162.99 L 272.61 163.39 L 272.20 163.80 L 271.80 164.20 L 271.39 164.58 L 270.94 164.87 L 270.49 165.06 L 270.18 165.29 L 270.15 165.63 L 270.41 165.88 L 270.88 165.98 L 271.42 165.97 L 271.94 165.85 L 272.40 165.58 L 272.85 165.28 L 273.34 165.08 L 273.88 165.01 L 274.44 165.00 L 275.01 164.99 L 275.56 164.94 L 276.06 164.78 L 276.52 164.49 L 276.97 164.20 L 277.48 164.05 L 278.02 164.02 L 278.57 164.06 L 279.07 164.23 L 279.52 164.52 L 279.98 164.80 L 280.48 164.95 L 281.04 164.99 L 281.61 165.00 L 282.18 165.00 L 282.75 165.00 L 283.32 165.00 L 283.89 165.00 L 284.46 165.00 L 285.03 164.99 L 285.58 164.94 L 286.08 164.77 L 286.52 164.46 L 286.93 164.07 L 287.34 163.68 L 287.76 163.33 L 288.23 163.09 L 288.73 162.92 L 289.21 162.69 L 289.64 162.35 L 290.04 161.95 L 290.43 161.54 L 290.75 161.10 L 290.93 160.61 L 290.99 160.06 L 291.04 159.51 L 291.18 159.00 L 291.48 158.55 L 291.86 158.14 L 292.26 157.74 L 292.67 157.33 L 293.07 156.93 L 293.48 156.53 L 293.88 156.12 L 294.29 155.72 L 294.71 155.37 L 295.17 155.11 L 295.67 154.94 L 296.15 154.72 L 296.56 154.38 L 296.85 153.94 L 296.97 153.42 L 296.98 152.88 L 296.88 152.41 L 296.61 152.10 L 296.18 151.91 L 295.73 151.64 L 295.36 151.27 L 295.12 150.81 L 295.02 150.28 L 294.97 149.74 L 294.84 149.31 L 294.53 149.11 Z M 258.19 138.21 L 258.03 138.60 L 257.99 139.12 L 257.92 139.65 L 257.74 140.14 L 257.44 140.57 L 257.16 141.02 L 256.99 141.51 L 256.82 142.00 L 256.52 142.43 L 256.11 142.75 L 255.63 142.95 L 255.14 143.12 L 254.69 143.38 L 254.33 143.76 L 254.09 144.22 L 253.93 144.71 L 253.71 145.18 L 253.36 145.58 L 252.94 145.87 L 252.49 146.05 L 252.18 146.28 L 252.14 146.61 L 252.38 146.86 L 252.80 146.87 L 253.25 146.67 L 253.68 146.37 L 254.14 146.12 L 254.66 146.02 L 255.22 146.00 L 255.78 146.00 L 256.33 146.02 L 256.85 146.12 L 257.30 146.38 L 257.66 146.75 L 257.89 147.21 L 257.98 147.74 L 258.03 148.27 L 258.16 148.70 L 258.49 148.94 L 258.93 149.13 L 259.37 149.40 L 259.81 149.70 L 260.26 149.88 L 260.67 149.84 L 260.91 149.54 L 260.98 149.06 L 260.95 148.56 L 260.76 148.19 L 260.35 148.03 L 259.82 147.99 L 259.30 147.91 L 258.82 147.71 L 258.42 147.37 L 258.14 146.93 L 258.02 146.42 L 257.99 145.87 L 257.92 145.34 L 257.73 144.85 L 257.43 144.42 L 257.17 143.97 L 257.08 143.48 L 257.19 142.99 L 257.47 142.54 L 257.76 142.10 L 257.93 141.61 L 257.99 141.08 L 258.03 140.53 L 258.17 140.02 L 258.44 139.57 L 258.73 139.14 L 258.89 138.68 L 258.82 138.29 L 258.52 138.11 Z M 58.06 133.15 L 57.62 133.43 L 57.29 133.84 L 57.10 134.32 L 57.13 134.82 L 57.35 135.29 L 57.66 135.73 L 57.89 136.20 L 57.98 136.73 L 57.98 137.29 L 57.88 137.81 L 57.64 138.27 L 57.26 138.65 L 56.80 138.89 L 56.27 138.98 L 55.71 139.02 L 55.19 139.12 L 54.73 139.36 L 54.35 139.74 L 54.11 140.20 L 54.02 140.73 L 54.03 141.27 L 54.16 141.69 L 54.47 141.89 L 54.81 141.79 L 55.02 141.42 L 55.21 140.95 L 55.53 140.53 L 55.95 140.22 L 56.45 140.06 L 57.00 140.02 L 57.55 140.06 L 58.05 140.21 L 58.49 140.52 L 58.90 140.90 L 59.30 141.30 L 59.71 141.71 L 60.11 142.11 L 60.51 142.51 L 60.91 142.91 L 61.32 143.31 L 61.74 143.66 L 62.21 143.90 L 62.71 144.07 L 63.19 144.29 L 63.63 144.60 L 64.08 144.85 L 64.53 144.89 L 64.86 144.68 L 65.07 144.27 L 65.30 143.82 L 65.65 143.42 L 66.08 143.13 L 66.52 142.94 L 66.85 142.67 L 66.97 142.23 L 67.00 141.69 L 67.00 141.12 L 67.00 140.55 L 67.01 139.99 L 67.06 139.44 L 67.22 138.94 L 67.51 138.49 L 67.79 138.04 L 67.95 137.53 L 67.98 136.99 L 67.92 136.50 L 67.69 136.17 L 67.29 136.11 L 66.83 136.29 L 66.42 136.63 L 66.13 137.07 L 65.97 137.57 L 65.78 138.06 L 65.46 138.48 L 65.03 138.79 L 64.53 138.95 L 63.98 138.99 L 63.41 139.00 L 62.85 139.00 L 62.28 139.00 L 61.71 139.00 L 61.14 139.00 L 60.58 138.97 L 60.06 138.85 L 59.62 138.57 L 59.29 138.16 L 59.10 137.68 L 59.13 137.18 L 59.35 136.71 L 59.66 136.27 L 59.90 135.80 L 60.07 135.30 L 60.29 134.83 L 60.59 134.38 L 60.85 133.94 L 60.89 133.49 L 60.68 133.16 L 60.25 133.03 L 59.71 133.00 L 59.14 133.00 L 58.58 133.03 Z M 36.06 126.15 L 35.62 126.40 L 35.19 126.71 L 34.74 126.93 L 34.34 127.12 L 34.13 127.41 L 34.18 127.74 L 34.52 127.94 L 35.01 128.00 L 35.53 128.05 L 36.02 128.19 L 36.44 128.49 L 36.76 128.90 L 36.93 129.37 L 36.99 129.90 L 37.03 130.41 L 37.20 130.80 L 37.59 130.96 L 38.09 130.98 L 38.56 130.90 L 38.86 130.65 L 38.98 130.22 L 38.98 129.70 L 38.89 129.18 L 38.66 128.73 L 38.36 128.30 L 38.11 127.85 L 37.95 127.36 L 37.76 126.89 L 37.44 126.49 L 37.02 126.20 L 36.54 126.07 Z M 3.30 111.58 L 3.06 112.30 L 3.00 113.43 L 3.00 114.63 L 3.00 115.84 L 3.02 117.04 L 3.14 118.20 L 3.43 119.29 L 3.75 120.35 L 3.78 121.42 L 3.50 122.49 L 3.18 123.56 L 3.03 124.71 L 3.00 125.91 L 3.00 127.12 L 3.00 128.33 L 3.00 129.54 L 3.00 130.75 L 3.00 131.96 L 3.00 133.17 L 3.00 134.38 L 3.00 135.59 L 3.00 136.80 L 3.02 138.00 L 3.13 139.17 L 3.42 140.26 L 3.74 141.31 L 3.79 142.38 L 3.51 143.45 L 3.19 144.52 L 3.03 145.67 L 3.00 146.87 L 3.00 148.08 L 3.00 149.29 L 3.00 150.50 L 3.00 151.71 L 3.00 152.92 L 3.00 154.13 L 3.03 155.32 L 3.19 156.47 L 3.52 157.54 L 3.87 158.61 L 4.23 159.67 L 4.77 160.66 L 5.42 161.60 L 6.00 162.57 L 6.53 163.56 L 7.05 164.55 L 7.67 165.51 L 8.42 166.41 L 9.20 167.29 L 9.87 168.22 L 10.49 169.11 L 11.31 169.74 L 12.32 170.14 L 13.24 170.65 L 13.95 171.43 L 14.62 172.26 L 15.45 172.93 L 16.43 173.44 L 17.48 173.84 L 18.55 174.16 L 19.56 174.48 L 20.37 174.52 L 20.89 173.98 L 21.32 173.12 L 22.02 172.48 L 22.91 172.45 L 23.62 173.05 L 24.07 173.94 L 24.62 174.65 L 25.54 174.94 L 26.70 175.00 L 27.90 175.00 L 29.11 175.00 L 30.32 175.00 L 31.53 175.00 L 32.74 175.00 L 33.95 175.00 L 35.16 175.00 L 36.37 175.00 L 37.58 175.00 L 38.80 175.00 L 40.01 175.00 L 41.22 175.00 L 42.43 175.00 L 43.63 175.00 L 44.81 174.99 L 45.79 174.89 L 46.18 174.61 L 45.76 174.14 L 44.95 173.57 L 44.29 172.78 L 43.89 171.77 L 43.41 170.83 L 42.66 170.10 L 41.81 169.45 L 41.12 168.63 L 40.63 167.67 L 40.39 166.69 L 40.65 165.82 L 41.40 165.21 L 42.25 164.75 L 42.83 164.08 L 43.27 163.15 L 43.89 162.24 L 44.70 161.49 L 45.43 160.81 L 45.74 160.02 L 45.49 159.23 L 44.85 158.54 L 44.25 157.72 L 43.79 156.85 L 43.15 156.26 L 42.19 155.98 L 41.17 155.67 L 40.49 155.00 L 40.44 154.12 L 41.04 153.41 L 42.02 152.99 L 43.02 152.57 L 43.78 151.85 L 44.38 150.96 L 45.07 150.18 L 45.81 149.50 L 46.48 148.71 L 47.24 147.90 L 48.17 147.30 L 49.27 147.02 L 50.37 146.80 L 51.25 146.29 L 51.72 145.47 L 51.62 144.64 L 50.93 144.17 L 49.88 144.00 L 48.74 143.85 L 47.66 143.55 L 46.60 143.17 L 45.56 142.82 L 44.65 142.30 L 43.90 141.66 L 43.07 141.20 L 42.01 141.03 L 40.83 141.00 L 39.63 140.96 L 38.50 140.77 L 37.51 140.28 L 36.69 139.51 L 36.05 138.58 L 35.44 137.63 L 34.78 136.69 L 34.24 135.70 L 33.88 134.64 L 33.50 133.59 L 33.01 132.58 L 32.41 131.62 L 31.68 130.71 L 30.85 129.85 L 30.04 128.97 L 29.46 128.05 L 29.43 127.11 L 29.98 126.34 L 30.72 125.68 L 31.36 124.88 L 32.06 123.99 L 32.84 123.11 L 33.46 122.19 L 33.59 121.22 L 33.18 120.28 L 32.58 119.33 L 32.11 118.36 L 31.65 117.56 L 30.98 117.28 L 30.31 117.63 L 29.88 118.47 L 29.51 119.49 L 29.14 120.54 L 28.77 121.57 L 28.17 122.35 L 27.30 122.61 L 26.33 122.37 L 25.37 121.88 L 24.59 121.18 L 24.11 120.29 L 23.72 119.60 L 23.28 119.62 L 22.89 120.35 L 22.41 121.31 L 21.69 122.13 L 20.78 122.60 L 19.82 122.57 L 18.97 122.38 L 18.56 122.50 L 18.88 122.83 L 19.74 123.19 L 20.74 123.54 L 21.75 123.64 L 22.75 123.44 L 23.71 123.41 L 24.50 123.91 L 25.12 124.77 L 25.77 125.70 L 26.40 126.65 L 26.82 127.68 L 27.03 128.81 L 27.27 129.91 L 27.59 130.94 L 27.58 131.94 L 27.05 132.86 L 26.25 133.71 L 25.34 134.44 L 24.37 135.03 L 23.36 135.51 L 22.30 135.85 L 21.25 136.06 L 20.54 136.43 L 20.55 137.09 L 21.24 137.69 L 22.29 137.98 L 23.41 138.20 L 24.41 138.67 L 25.23 139.43 L 25.75 140.40 L 25.95 141.52 L 25.94 142.69 L 25.69 143.77 L 25.11 144.58 L 24.54 145.20 L 24.57 145.82 L 25.17 146.44 L 25.88 147.14 L 26.55 147.87 L 27.24 148.59 L 27.72 149.47 L 27.73 150.47 L 27.24 151.28 L 26.41 151.58 L 25.48 151.29 L 24.54 150.69 L 23.54 150.19 L 22.51 149.80 L 21.66 149.22 L 21.13 148.37 L 20.67 147.62 L 19.98 147.45 L 19.12 147.90 L 18.20 148.46 L 17.23 148.59 L 16.30 148.16 L 15.44 147.39 L 14.73 146.51 L 14.42 145.58 L 14.68 144.71 L 15.32 143.98 L 15.97 143.23 L 16.50 142.34 L 16.80 141.30 L 16.73 140.23 L 16.35 139.20 L 15.87 138.19 L 15.41 137.17 L 15.09 136.10 L 14.85 135.07 L 14.36 134.35 L 13.44 134.06 L 12.34 134.07 L 11.41 134.38 L 10.70 135.04 L 9.92 135.72 L 8.96 136.26 L 7.94 136.70 L 6.84 136.91 L 5.73 136.81 L 4.81 136.35 L 4.28 135.53 L 4.27 134.53 L 4.77 133.68 L 5.66 133.15 L 6.65 132.75 L 7.40 132.12 L 7.57 131.28 L 7.08 130.54 L 6.15 130.09 L 5.15 129.68 L 4.43 128.97 L 4.12 127.95 L 4.17 126.84 L 4.57 125.88 L 5.37 125.25 L 6.40 124.88 L 7.45 124.55 L 8.45 124.38 L 9.40 124.68 L 10.24 125.36 L 10.91 126.10 L 11.44 126.44 L 11.80 126.04 L 11.89 125.10 L 11.68 124.03 L 11.24 123.00 L 10.77 122.00 L 10.40 121.00 L 10.44 120.01 L 10.95 119.07 L 11.48 118.19 L 11.50 117.53 L 10.91 117.47 L 10.06 118.00 L 9.19 118.77 L 8.26 119.44 L 7.23 119.79 L 6.18 119.68 L 5.25 119.11 L 4.55 118.24 L 4.15 117.20 L 4.02 116.04 L 4.00 114.84 L 4.00 113.64 L 3.94 112.49 L 3.70 111.66 Z M 37.15 171.06 L 37.43 170.62 L 37.84 170.28 L 38.33 170.08 L 38.87 170.01 L 39.43 170.00 L 40.00 170.01 L 40.55 170.05 L 41.05 170.22 L 41.47 170.53 L 41.78 170.95 L 41.95 171.45 L 41.99 172.00 L 42.00 172.57 L 41.99 173.13 L 41.92 173.67 L 41.72 174.16 L 41.38 174.57 L 40.94 174.85 L 40.44 174.92 L 39.95 174.78 L 39.53 174.47 L 39.21 174.05 L 39.02 173.58 L 38.80 173.20 L 38.42 172.98 L 37.95 172.79 L 37.53 172.47 L 37.22 172.05 L 37.08 171.56 Z M 34.13 162.05 L 34.37 161.67 L 34.70 161.34 L 35.09 161.12 L 35.54 161.02 L 36.01 161.00 L 36.49 161.02 L 36.94 161.12 L 37.32 161.36 L 37.65 161.69 L 37.88 162.08 L 37.96 162.51 L 37.87 162.95 L 37.63 163.33 L 37.30 163.66 L 36.91 163.88 L 36.46 163.98 L 35.99 164.00 L 35.51 163.98 L 35.06 163.88 L 34.68 163.64 L 34.35 163.31 L 34.12 162.92 L 34.04 162.49 Z M 10.13 137.05 L 10.37 136.67 L 10.70 136.34 L 11.09 136.12 L 11.54 136.02 L 12.01 136.00 L 12.49 136.02 L 12.94 136.12 L 13.32 136.36 L 13.65 136.69 L 13.88 137.08 L 13.96 137.51 L 13.87 137.95 L 13.63 138.33 L 13.30 138.66 L 12.91 138.88 L 12.46 138.98 L 11.99 139.00 L 11.51 138.98 L 11.06 138.88 L 10.68 138.64 L 10.35 138.31 L 10.12 137.92 L 10.04 137.49 Z M 19.21 110.20 L 19.09 110.58 L 19.22 111.05 L 19.52 111.49 L 19.90 111.90 L 20.30 112.31 L 20.65 112.73 L 20.90 113.20 L 21.07 113.70 L 21.29 114.17 L 21.63 114.57 L 22.08 114.86 L 22.59 114.97 L 23.14 114.98 L 23.60 114.88 L 23.88 114.59 L 23.98 114.12 L 24.00 113.57 L 23.99 113.00 L 23.95 112.45 L 23.79 111.95 L 23.48 111.51 L 23.10 111.10 L 22.69 110.70 L 22.27 110.35 L 21.80 110.11 L 21.27 110.02 L 20.71 110.00 L 20.14 110.00 L 19.61 110.04 Z M 230.06 108.14 L 229.64 108.41 L 229.31 108.78 L 229.11 109.21 L 229.13 109.62 L 229.38 109.88 L 229.81 109.98 L 230.33 110.00 L 230.86 110.00 L 231.39 109.98 L 231.88 109.88 L 232.32 109.64 L 232.72 109.34 L 233.15 109.10 L 233.57 108.93 L 233.85 108.69 L 233.87 108.36 L 233.62 108.12 L 233.19 108.02 L 232.67 108.00 L 232.14 108.00 L 231.60 108.00 L 231.07 108.00 L 230.54 108.02 Z M 3.19 56.19 L 3.03 56.56 L 3.00 57.05 L 3.00 57.57 L 3.00 58.09 L 3.00 58.62 L 3.00 59.14 L 3.00 59.66 L 3.01 60.18 L 3.07 60.68 L 3.25 61.13 L 3.53 61.53 L 3.80 61.94 L 3.97 62.38 L 4.16 62.75 L 4.49 62.94 L 4.96 62.99 L 5.44 62.97 L 5.81 62.81 L 5.97 62.44 L 6.00 61.95 L 6.00 61.43 L 6.00 60.91 L 6.00 60.38 L 6.00 59.86 L 6.00 59.34 L 6.00 58.82 L 6.00 58.29 L 5.98 57.79 L 5.88 57.36 L 5.62 57.09 L 5.22 56.93 L 4.80 56.71 L 4.40 56.41 L 3.98 56.16 L 3.54 56.07 Z M 3.18 38.19 L 3.03 38.55 L 3.00 39.04 L 3.00 39.55 L 3.00 40.07 L 3.00 40.59 L 3.00 41.10 L 3.00 41.62 L 3.00 42.14 L 3.00 42.66 L 3.00 43.17 L 3.00 43.69 L 3.00 44.21 L 3.00 44.72 L 3.00 45.24 L 3.00 45.76 L 3.00 46.28 L 3.00 46.79 L 3.00 47.31 L 3.00 47.83 L 3.02 48.32 L 3.14 48.71 L 3.43 48.90 L 3.75 48.83 L 3.94 48.52 L 3.99 48.06 L 4.00 47.55 L 4.00 47.03 L 4.00 46.52 L 4.00 46.00 L 4.03 45.49 L 4.15 45.03 L 4.40 44.61 L 4.70 44.22 L 4.90 43.79 L 4.98 43.30 L 4.99 42.80 L 4.93 42.31 L 4.75 41.86 L 4.47 41.46 L 4.20 41.06 L 4.05 40.60 L 4.01 40.10 L 4.00 39.59 L 4.00 39.07 L 3.97 38.58 L 3.82 38.21 L 3.51 38.08 Z M 273.20 8.22 L 273.04 8.61 L 273.00 9.14 L 273.00 9.71 L 273.02 10.28 L 273.12 10.81 L 273.36 11.28 L 273.71 11.70 L 274.11 12.11 L 274.49 12.52 L 274.80 12.97 L 274.98 13.46 L 275.15 13.96 L 275.43 14.42 L 275.73 14.86 L 275.92 15.35 L 275.99 15.90 L 276.00 16.46 L 276.00 17.04 L 276.00 17.61 L 276.00 18.18 L 276.00 18.75 L 276.02 19.31 L 276.12 19.84 L 276.37 20.31 L 276.67 20.75 L 276.89 21.23 L 276.98 21.77 L 277.02 22.32 L 277.13 22.85 L 277.37 23.32 L 277.68 23.76 L 277.90 24.24 L 277.98 24.78 L 278.02 25.33 L 278.13 25.86 L 278.39 26.31 L 278.78 26.68 L 279.25 26.91 L 279.75 27.08 L 280.22 27.32 L 280.67 27.62 L 281.14 27.87 L 281.66 27.98 L 282.22 28.02 L 282.75 28.10 L 283.23 28.32 L 283.68 28.63 L 284.15 28.87 L 284.67 28.98 L 285.24 29.00 L 285.81 29.00 L 286.37 29.02 L 286.89 29.14 L 287.36 29.39 L 287.80 29.70 L 288.29 29.91 L 288.83 29.98 L 289.39 30.00 L 289.96 30.01 L 290.51 30.05 L 291.02 30.20 L 291.48 30.48 L 291.93 30.77 L 292.43 30.94 L 292.98 30.99 L 293.54 31.00 L 294.10 30.98 L 294.57 30.89 L 294.85 30.62 L 294.87 30.20 L 294.65 29.74 L 294.30 29.32 L 293.91 28.91 L 293.50 28.53 L 293.06 28.22 L 292.56 28.08 L 292.06 28.15 L 291.60 28.41 L 291.16 28.72 L 290.67 28.92 L 290.13 28.98 L 289.57 28.97 L 289.05 28.85 L 288.59 28.58 L 288.15 28.28 L 287.66 28.08 L 287.12 28.01 L 286.55 28.00 L 285.98 27.99 L 285.43 27.94 L 284.93 27.77 L 284.48 27.48 L 284.03 27.20 L 283.52 27.05 L 282.96 27.01 L 282.40 27.00 L 281.83 26.99 L 281.29 26.91 L 280.81 26.70 L 280.38 26.36 L 279.97 25.97 L 279.58 25.56 L 279.26 25.12 L 279.07 24.63 L 279.01 24.08 L 279.00 23.51 L 279.00 22.94 L 279.00 22.37 L 279.00 21.80 L 279.00 21.23 L 278.98 20.67 L 278.87 20.14 L 278.63 19.67 L 278.32 19.23 L 278.09 18.75 L 277.92 18.25 L 277.69 17.78 L 277.38 17.33 L 277.13 16.87 L 277.02 16.34 L 276.98 15.78 L 276.90 15.25 L 276.68 14.77 L 276.37 14.32 L 276.14 13.86 L 276.10 13.36 L 276.26 12.87 L 276.56 12.43 L 276.83 11.97 L 276.92 11.47 L 276.80 10.98 L 276.50 10.53 L 276.12 10.12 L 275.72 9.72 L 275.31 9.31 L 274.91 8.91 L 274.50 8.52 L 274.05 8.22 L 273.58 8.09 Z" fill="rgb(174,4,4)" fill-rule="evenodd"/>
  <path d="M 277.06 165.13 L 276.64 165.39 L 276.24 165.69 L 275.80 165.90 L 275.32 165.98 L 274.80 166.00 L 274.28 166.00 L 273.77 166.02 L 273.35 166.12 L 273.12 166.37 L 273.15 166.70 L 273.43 166.91 L 273.88 166.99 L 274.39 167.00 L 274.91 167.00 L 275.43 167.00 L 275.95 167.00 L 276.48 167.00 L 277.00 167.00 L 277.52 167.00 L 278.05 167.00 L 278.57 167.00 L 279.09 167.00 L 279.61 167.00 L 280.12 166.99 L 280.57 166.91 L 280.85 166.70 L 280.88 166.37 L 280.65 166.11 L 280.26 165.94 L 279.83 165.73 L 279.43 165.44 L 279.02 165.18 L 278.55 165.04 L 278.04 165.01 L 277.53 165.02 Z M 277.22 13.20 L 277.09 13.58 L 277.22 14.06 L 277.51 14.51 L 277.79 14.96 L 277.95 15.47 L 278.00 16.02 L 278.06 16.56 L 278.22 17.07 L 278.52 17.52 L 278.80 17.97 L 278.98 18.47 L 279.16 18.97 L 279.44 19.42 L 279.74 19.87 L 279.92 20.37 L 279.99 20.91 L 280.00 21.48 L 280.00 22.05 L 280.00 22.62 L 280.00 23.19 L 280.00 23.77 L 280.02 24.33 L 280.13 24.86 L 280.39 25.31 L 280.78 25.67 L 281.25 25.90 L 281.79 25.98 L 282.36 26.00 L 282.93 26.00 L 283.50 26.00 L 284.07 26.01 L 284.61 26.07 L 285.11 26.25 L 285.56 26.55 L 286.02 26.83 L 286.53 26.96 L 287.08 27.01 L 287.63 27.07 L 288.12 27.26 L 288.57 27.56 L 289.03 27.83 L 289.55 27.96 L 290.09 27.98 L 290.57 27.89 L 290.87 27.62 L 290.98 27.16 L 290.97 26.62 L 290.86 26.09 L 290.59 25.64 L 290.21 25.22 L 289.81 24.81 L 289.40 24.43 L 288.95 24.16 L 288.50 24.10 L 288.15 24.30 L 287.94 24.70 L 287.71 25.16 L 287.37 25.57 L 286.93 25.85 L 286.43 25.92 L 285.94 25.77 L 285.51 25.46 L 285.20 25.03 L 285.01 24.57 L 284.78 24.20 L 284.37 24.03 L 283.83 24.00 L 283.26 24.00 L 282.69 23.98 L 282.16 23.88 L 281.71 23.62 L 281.34 23.24 L 281.11 22.77 L 281.02 22.23 L 281.02 21.68 L 281.13 21.15 L 281.38 20.68 L 281.75 20.26 L 282.14 19.85 L 282.53 19.44 L 282.82 18.99 L 282.92 18.49 L 282.81 18.00 L 282.52 17.55 L 282.13 17.14 L 281.73 16.73 L 281.33 16.33 L 280.92 15.92 L 280.54 15.51 L 280.22 15.07 L 280.03 14.57 L 279.86 14.07 L 279.57 13.63 L 279.17 13.29 L 278.68 13.09 L 278.14 13.02 L 277.61 13.04 Z M 255.26 0.77 L 252.82 2.84 L 248.60 3.47 L 244.33 3.97 L 240.15 3.18 L 235.72 3.00 L 231.21 3.00 L 226.71 3.00 L 222.20 3.00 L 217.70 3.00 L 213.19 3.00 L 208.69 3.00 L 204.18 3.00 L 199.96 3.67 L 195.59 4.00 L 191.08 4.00 L 186.58 4.00 L 182.07 4.00 L 177.74 3.58 L 173.49 3.03 L 169.52 4.21 L 165.94 3.43 L 161.62 3.00 L 157.32 3.21 L 154.87 5.39 L 152.45 3.50 L 148.43 3.00 L 143.92 3.00 L 139.61 3.46 L 135.33 4.00 L 130.82 4.00 L 126.43 4.25 L 122.54 4.22 L 118.45 3.24 L 114.04 3.00 L 109.54 3.00 L 105.16 3.30 L 101.01 3.85 L 97.10 3.66 L 92.77 3.99 L 88.59 3.31 L 84.55 3.92 L 80.31 3.44 L 75.98 3.00 L 71.48 3.00 L 66.98 3.00 L 62.50 3.06 L 58.36 3.94 L 53.87 4.00 L 49.37 4.00 L 44.87 3.99 L 40.66 3.28 L 36.27 3.00 L 31.76 3.00 L 27.30 3.10 L 23.16 3.99 L 19.15 5.17 L 15.51 7.26 L 11.82 9.23 L 9.08 12.10 L 6.98 15.62 L 5.26 19.41 L 3.88 23.31 L 3.87 27.13 L 4.00 31.58 L 4.16 36.02 L 5.14 40.12 L 5.59 44.12 L 4.80 48.27 L 4.58 52.10 L 5.05 55.54 L 6.94 58.82 L 6.46 62.99 L 4.56 65.95 L 5.43 68.99 L 4.06 72.77 L 4.06 77.23 L 5.60 81.09 L 6.85 85.08 L 7.63 88.99 L 6.09 92.82 L 5.13 96.83 L 5.82 100.93 L 5.11 105.01 L 7.06 107.69 L 6.01 110.19 L 5.85 113.21 L 8.40 115.44 L 5.95 117.34 L 7.51 118.64 L 10.97 116.61 L 12.15 118.64 L 11.92 122.27 L 12.71 126.18 L 10.23 126.83 L 7.28 125.93 L 5.53 128.38 L 8.25 130.71 L 6.92 134.01 L 6.41 135.81 L 9.93 134.14 L 13.87 133.18 L 16.19 135.86 L 17.84 139.22 L 17.28 143.35 L 17.42 147.16 L 20.43 146.56 L 23.38 148.74 L 26.33 150.35 L 25.27 148.05 L 23.56 145.14 L 24.89 141.92 L 22.80 139.10 L 19.63 137.05 L 21.87 134.92 L 25.14 133.01 L 26.33 130.11 L 25.01 126.29 L 21.38 124.64 L 20.86 121.41 L 23.22 118.58 L 25.69 120.50 L 28.64 118.87 L 31.05 116.37 L 33.40 118.99 L 34.15 122.52 L 32.16 126.15 L 32.65 130.33 L 34.66 134.00 L 36.49 137.74 L 39.65 139.94 L 43.98 140.37 L 47.66 142.35 L 51.68 143.39 L 52.10 146.58 L 48.50 148.31 L 45.82 151.01 L 43.85 153.99 L 44.81 156.60 L 46.64 159.71 L 44.79 162.76 L 42.55 165.75 L 42.14 168.26 L 44.71 171.24 L 47.23 174.07 L 51.33 175.00 L 55.83 175.00 L 60.34 175.00 L 64.84 175.00 L 69.35 175.00 L 73.85 175.00 L 78.36 175.00 L 82.86 175.00 L 87.37 175.00 L 91.87 175.00 L 96.38 175.00 L 100.88 175.00 L 105.39 175.00 L 109.89 175.00 L 114.40 175.00 L 118.90 175.00 L 123.41 175.00 L 127.91 175.00 L 132.42 175.00 L 136.92 175.00 L 141.43 175.00 L 145.93 175.00 L 150.44 175.00 L 154.94 175.00 L 159.44 174.98 L 163.63 174.22 L 168.04 173.99 L 172.24 173.24 L 176.14 172.34 L 178.73 174.57 L 182.70 174.71 L 186.91 174.01 L 191.13 174.70 L 195.51 175.00 L 199.41 174.46 L 199.56 171.09 L 201.13 167.83 L 203.14 164.48 L 207.02 163.48 L 209.83 165.71 L 210.59 169.56 L 207.71 171.86 L 206.92 174.59 L 209.55 173.19 L 211.68 170.58 L 214.54 172.34 L 214.61 170.62 L 212.65 168.09 L 216.19 166.95 L 220.32 166.04 L 224.24 164.71 L 227.99 165.19 L 232.16 166.00 L 236.66 166.00 L 240.73 165.46 L 244.19 164.26 L 247.96 165.68 L 252.05 165.04 L 256.53 165.00 L 260.78 165.56 L 264.80 165.19 L 269.05 164.60 L 271.43 162.15 L 268.94 159.33 L 270.26 157.05 L 273.29 154.79 L 276.67 152.59 L 279.87 150.43 L 284.05 150.35 L 288.01 150.34 L 291.86 150.46 L 294.21 148.24 L 296.81 145.69 L 296.97 141.36 L 296.29 137.22 L 296.95 133.15 L 297.00 128.66 L 297.00 124.16 L 297.00 119.65 L 297.00 115.15 L 297.00 110.64 L 297.00 106.14 L 297.00 101.63 L 297.00 97.13 L 297.00 92.62 L 297.00 88.12 L 297.00 83.61 L 297.00 79.11 L 297.00 74.60 L 297.00 70.10 L 297.00 65.59 L 296.72 61.22 L 296.79 57.32 L 296.39 53.52 L 292.95 52.26 L 294.26 49.92 L 296.88 47.53 L 297.00 43.13 L 297.00 38.62 L 296.94 34.18 L 294.58 32.02 L 290.44 31.21 L 286.35 30.19 L 282.29 29.11 L 278.58 27.28 L 276.60 23.74 L 275.30 19.77 L 274.74 15.50 L 272.90 11.76 L 271.38 7.98 L 268.45 5.21 L 265.19 3.20 L 260.92 3.36 L 257.17 2.93 Z M 54.13 171.05 L 54.37 170.67 L 54.70 170.34 L 55.09 170.12 L 55.54 170.02 L 56.01 170.00 L 56.49 170.02 L 56.94 170.12 L 57.32 170.36 L 57.65 170.69 L 57.88 171.08 L 57.96 171.51 L 57.87 171.95 L 57.63 172.33 L 57.30 172.66 L 56.91 172.88 L 56.46 172.98 L 55.99 173.00 L 55.51 172.98 L 55.06 172.88 L 54.68 172.64 L 54.35 172.31 L 54.12 171.92 L 54.04 171.49 Z M 178.00 166.00 L 178.41 165.61 L 178.85 165.28 L 179.35 165.08 L 179.89 165.02 L 180.45 165.03 L 180.97 165.17 L 181.43 165.44 L 181.88 165.74 L 182.38 165.93 L 182.93 165.99 L 183.50 166.00 L 184.08 166.00 L 184.65 166.00 L 185.22 166.02 L 185.76 166.11 L 186.23 166.34 L 186.62 166.70 L 186.86 167.16 L 186.90 167.66 L 186.72 168.15 L 186.39 168.59 L 186.00 169.00 L 185.59 169.39 L 185.15 169.72 L 184.65 169.92 L 184.11 169.99 L 183.54 170.00 L 182.96 170.00 L 182.39 170.00 L 181.81 170.00 L 181.24 170.00 L 180.66 170.00 L 180.09 170.00 L 179.53 169.96 L 179.01 169.82 L 178.56 169.52 L 178.14 169.14 L 177.74 168.73 L 177.38 168.31 L 177.14 167.84 L 177.10 167.34 L 177.28 166.85 L 177.61 166.41 Z M 184.14 160.06 L 184.45 159.61 L 184.88 159.27 L 185.37 159.10 L 185.89 159.15 L 186.34 159.42 L 186.70 159.83 L 186.89 160.32 L 186.86 160.84 L 186.63 161.32 L 186.32 161.78 L 186.10 162.28 L 186.01 162.83 L 185.97 163.40 L 185.85 163.94 L 185.55 164.39 L 185.12 164.73 L 184.63 164.90 L 184.11 164.85 L 183.66 164.58 L 183.30 164.17 L 183.09 163.67 L 183.02 163.11 L 183.04 162.55 L 183.18 162.02 L 183.46 161.54 L 183.76 161.08 L 183.96 160.57 Z M 90.00 156.00 L 90.43 155.59 L 90.90 155.26 L 91.41 155.10 L 91.94 155.17 L 92.42 155.45 L 92.85 155.86 L 93.27 156.28 L 93.64 156.73 L 93.87 157.23 L 93.87 157.75 L 93.64 158.24 L 93.25 158.64 L 92.76 158.88 L 92.20 158.98 L 91.60 159.00 L 91.00 158.99 L 90.43 158.93 L 89.90 158.74 L 89.46 158.40 L 89.17 157.94 L 89.10 157.41 L 89.26 156.90 L 89.59 156.43 Z M 89.13 152.05 L 89.37 151.67 L 89.70 151.34 L 90.09 151.12 L 90.53 151.04 L 90.96 151.13 L 91.34 151.38 L 91.66 151.71 L 91.89 152.10 L 91.98 152.55 L 92.00 153.03 L 91.98 153.51 L 91.87 153.95 L 91.63 154.33 L 91.30 154.66 L 90.91 154.88 L 90.47 154.96 L 90.04 154.87 L 89.66 154.62 L 89.34 154.29 L 89.11 153.90 L 89.02 153.45 L 89.00 152.97 L 89.02 152.49 Z M 62.16 152.06 L 62.44 151.62 L 62.86 151.28 L 63.36 151.08 L 63.91 151.01 L 64.48 151.00 L 65.06 151.01 L 65.61 151.07 L 66.11 151.26 L 66.54 151.59 L 66.83 152.04 L 66.97 152.56 L 66.98 153.12 L 66.91 153.67 L 66.71 154.16 L 66.36 154.57 L 65.91 154.86 L 65.38 154.97 L 64.81 154.98 L 64.27 154.90 L 63.78 154.68 L 63.35 154.33 L 62.93 153.93 L 62.54 153.51 L 62.23 153.07 L 62.09 152.57 Z M 243.14 148.05 L 243.39 147.65 L 243.76 147.32 L 244.19 147.11 L 244.65 147.08 L 245.09 147.23 L 245.49 147.52 L 245.87 147.87 L 246.23 148.24 L 246.58 148.61 L 246.84 149.02 L 246.94 149.48 L 246.86 149.95 L 246.61 150.35 L 246.24 150.68 L 245.81 150.89 L 245.35 150.92 L 244.91 150.77 L 244.51 150.48 L 244.13 150.13 L 243.77 149.76 L 243.42 149.39 L 243.16 148.98 L 243.06 148.52 Z M 256.14 141.05 L 256.44 140.62 L 256.86 140.28 L 257.34 140.10 L 257.85 140.14 L 258.30 140.39 L 258.67 140.78 L 258.88 141.25 L 258.88 141.75 L 258.68 142.23 L 258.37 142.68 L 258.14 143.15 L 258.10 143.66 L 258.28 144.14 L 258.62 144.56 L 259.06 144.85 L 259.58 144.97 L 260.15 145.01 L 260.69 145.09 L 261.18 145.30 L 261.58 145.65 L 261.86 146.10 L 261.98 146.63 L 262.00 147.20 L 262.00 147.78 L 262.00 148.35 L 261.99 148.93 L 261.96 149.49 L 261.81 150.00 L 261.50 150.44 L 261.08 150.76 L 260.58 150.91 L 260.08 150.85 L 259.62 150.59 L 259.17 150.28 L 258.68 150.07 L 258.18 149.89 L 257.72 149.63 L 257.34 149.24 L 257.11 148.77 L 257.02 148.23 L 256.97 147.69 L 256.82 147.27 L 256.44 147.06 L 255.92 147.01 L 255.35 147.00 L 254.78 147.02 L 254.24 147.11 L 253.76 147.33 L 253.31 147.63 L 252.84 147.86 L 252.33 147.90 L 251.85 147.71 L 251.43 147.37 L 251.16 146.93 L 251.09 146.43 L 251.23 145.93 L 251.55 145.50 L 251.98 145.19 L 252.45 144.99 L 252.82 144.76 L 253.04 144.36 L 253.25 143.89 L 253.58 143.45 L 253.97 143.03 L 254.38 142.64 L 254.81 142.30 L 255.28 142.06 L 255.69 141.85 L 255.94 141.51 Z M 57.00 133.00 L 57.41 132.61 L 57.85 132.28 L 58.34 132.08 L 58.88 132.01 L 59.45 132.00 L 60.02 132.01 L 60.57 132.06 L 61.07 132.23 L 61.50 132.55 L 61.80 132.98 L 61.92 133.48 L 61.82 133.98 L 61.55 134.44 L 61.25 134.89 L 61.05 135.38 L 60.88 135.88 L 60.62 136.34 L 60.31 136.79 L 60.12 137.25 L 60.17 137.66 L 60.48 137.91 L 60.97 137.99 L 61.53 138.00 L 62.10 138.00 L 62.68 138.00 L 63.25 138.00 L 63.82 138.00 L 64.36 137.97 L 64.77 137.80 L 64.96 137.41 L 65.01 136.89 L 65.08 136.35 L 65.28 135.86 L 65.62 135.44 L 66.06 135.15 L 66.58 135.03 L 67.14 135.02 L 67.68 135.09 L 68.16 135.29 L 68.57 135.63 L 68.86 136.08 L 68.97 136.60 L 68.98 137.16 L 68.91 137.70 L 68.70 138.19 L 68.40 138.64 L 68.14 139.10 L 68.03 139.63 L 68.02 140.17 L 68.14 140.62 L 68.41 140.86 L 68.75 140.80 L 68.98 140.47 L 69.17 140.01 L 69.48 139.58 L 69.90 139.25 L 70.38 139.09 L 70.88 139.14 L 71.33 139.41 L 71.69 139.80 L 71.90 140.28 L 71.98 140.82 L 72.00 141.39 L 71.99 141.96 L 71.95 142.52 L 71.80 143.02 L 71.49 143.45 L 71.06 143.77 L 70.56 143.94 L 70.01 144.00 L 69.46 144.05 L 68.95 144.21 L 68.51 144.52 L 68.09 144.91 L 67.69 145.30 L 67.26 145.65 L 66.78 145.89 L 66.25 145.98 L 65.68 146.00 L 65.11 146.00 L 64.55 145.97 L 64.03 145.83 L 63.57 145.56 L 63.12 145.26 L 62.63 145.05 L 62.13 144.88 L 61.67 144.61 L 61.25 144.24 L 60.84 143.84 L 60.44 143.44 L 60.03 143.03 L 59.63 142.63 L 59.22 142.22 L 58.81 141.82 L 58.40 141.44 L 57.94 141.15 L 57.42 141.03 L 56.88 141.02 L 56.41 141.12 L 56.10 141.40 L 55.90 141.83 L 55.64 142.28 L 55.26 142.65 L 54.79 142.87 L 54.29 142.89 L 53.82 142.70 L 53.41 142.35 L 53.14 141.90 L 53.02 141.37 L 53.02 140.81 L 53.10 140.28 L 53.31 139.79 L 53.66 139.36 L 54.05 138.95 L 54.46 138.56 L 54.90 138.25 L 55.40 138.07 L 55.94 138.00 L 56.46 137.94 L 56.82 137.72 L 56.97 137.30 L 56.98 136.76 L 56.89 136.23 L 56.67 135.75 L 56.36 135.30 L 56.13 134.83 L 56.10 134.33 L 56.28 133.85 L 56.61 133.41 Z M 45.15 133.06 L 45.43 132.62 L 45.84 132.29 L 46.32 132.10 L 46.82 132.13 L 47.27 132.36 L 47.65 132.74 L 47.89 133.20 L 47.98 133.73 L 48.00 134.29 L 48.00 134.86 L 47.97 135.42 L 47.85 135.94 L 47.57 136.38 L 47.16 136.71 L 46.68 136.90 L 46.18 136.87 L 45.73 136.64 L 45.35 136.26 L 45.11 135.80 L 45.02 135.27 L 45.00 134.71 L 45.00 134.14 L 45.03 133.58 Z M 23.13 130.05 L 23.37 129.67 L 23.70 129.34 L 24.09 129.12 L 24.53 129.04 L 24.96 129.13 L 25.34 129.38 L 25.66 129.71 L 25.89 130.10 L 25.98 130.55 L 26.00 131.03 L 25.98 131.51 L 25.87 131.95 L 25.63 132.33 L 25.30 132.66 L 24.91 132.88 L 24.47 132.96 L 24.04 132.87 L 23.66 132.62 L 23.34 132.29 L 23.11 131.90 L 23.02 131.45 L 23.00 130.97 L 23.02 130.49 Z M 34.94 125.86 L 35.41 125.58 L 35.86 125.27 L 36.36 125.10 L 36.87 125.14 L 37.34 125.40 L 37.76 125.77 L 38.18 126.18 L 38.56 126.60 L 38.86 127.06 L 39.04 127.57 L 39.23 128.07 L 39.53 128.53 L 39.81 129.00 L 39.96 129.52 L 39.98 130.08 L 39.92 130.64 L 39.72 131.14 L 39.38 131.56 L 38.93 131.85 L 38.40 131.97 L 37.84 131.98 L 37.29 131.90 L 36.80 131.68 L 36.40 131.32 L 36.13 130.86 L 36.02 130.32 L 35.97 129.78 L 35.84 129.33 L 35.50 129.09 L 34.99 129.00 L 34.44 128.94 L 33.93 128.77 L 33.50 128.44 L 33.20 128.00 L 33.09 127.50 L 33.20 127.00 L 33.50 126.56 L 33.93 126.23 L 34.43 126.04 Z M 279.13 122.05 L 279.37 121.67 L 279.70 121.34 L 280.09 121.12 L 280.54 121.02 L 281.01 121.00 L 281.49 121.02 L 281.94 121.12 L 282.32 121.36 L 282.65 121.69 L 282.88 122.08 L 282.96 122.51 L 282.87 122.95 L 282.63 123.33 L 282.30 123.66 L 281.91 123.88 L 281.46 123.98 L 280.99 124.00 L 280.51 123.98 L 280.06 123.88 L 279.68 123.64 L 279.35 123.31 L 279.12 122.92 L 279.04 122.49 Z M 18.16 110.06 L 18.46 109.61 L 18.89 109.26 L 19.41 109.07 L 19.98 109.01 L 20.58 109.00 L 21.17 109.02 L 21.73 109.11 L 22.23 109.34 L 22.68 109.70 L 23.11 110.11 L 23.53 110.53 L 23.95 110.95 L 24.36 111.38 L 24.71 111.84 L 24.91 112.35 L 24.99 112.92 L 25.00 113.51 L 24.99 114.10 L 24.91 114.67 L 24.69 115.17 L 24.33 115.59 L 23.86 115.86 L 23.31 115.98 L 22.72 115.98 L 22.17 115.87 L 21.68 115.61 L 21.24 115.23 L 20.82 114.81 L 20.43 114.38 L 20.13 113.90 L 19.95 113.38 L 19.73 112.87 L 19.39 112.41 L 18.98 111.98 L 18.58 111.55 L 18.25 111.09 L 18.10 110.58 Z M 229.00 108.00 L 229.41 107.61 L 229.86 107.28 L 230.35 107.08 L 230.90 107.01 L 231.47 107.00 L 232.05 107.00 L 232.63 107.00 L 233.20 107.02 L 233.74 107.10 L 234.22 107.33 L 234.61 107.70 L 234.86 108.15 L 234.90 108.66 L 234.72 109.14 L 234.38 109.56 L 233.94 109.86 L 233.44 110.03 L 232.94 110.22 L 232.48 110.52 L 232.02 110.80 L 231.51 110.95 L 230.95 110.99 L 230.37 111.00 L 229.80 110.98 L 229.26 110.90 L 228.78 110.67 L 228.39 110.30 L 228.14 109.85 L 228.10 109.34 L 228.28 108.86 L 228.61 108.41 Z M 9.13 108.05 L 9.37 107.67 L 9.70 107.34 L 10.09 107.12 L 10.54 107.02 L 11.01 107.00 L 11.49 107.02 L 11.94 107.12 L 12.32 107.36 L 12.65 107.69 L 12.88 108.08 L 12.96 108.51 L 12.87 108.95 L 12.63 109.33 L 12.30 109.66 L 11.91 109.88 L 11.46 109.98 L 10.99 110.00 L 10.51 109.98 L 10.06 109.88 L 9.68 109.64 L 9.35 109.31 L 9.12 108.92 L 9.04 108.49 Z M 251.15 104.06 L 251.41 103.64 L 251.80 103.30 L 252.26 103.09 L 252.77 103.02 L 253.30 103.02 L 253.81 103.11 L 254.25 103.34 L 254.62 103.69 L 254.88 104.13 L 254.98 104.63 L 254.99 105.16 L 254.92 105.67 L 254.73 106.14 L 254.41 106.54 L 254.00 106.82 L 253.52 106.93 L 253.04 106.85 L 252.61 106.58 L 252.22 106.22 L 251.83 105.83 L 251.47 105.44 L 251.19 105.01 L 251.07 104.54 Z M 17.15 101.06 L 17.45 100.61 L 17.88 100.27 L 18.37 100.10 L 18.89 100.15 L 19.36 100.41 L 19.79 100.80 L 20.20 101.21 L 20.58 101.64 L 20.85 102.11 L 20.90 102.62 L 20.73 103.12 L 20.43 103.59 L 20.14 104.06 L 19.96 104.57 L 19.76 105.08 L 19.43 105.51 L 18.99 105.81 L 18.48 105.91 L 17.97 105.79 L 17.53 105.47 L 17.21 105.03 L 17.05 104.51 L 17.01 103.94 L 17.00 103.35 L 17.00 102.77 L 17.00 102.18 L 17.03 101.60 Z M 224.13 79.05 L 224.37 78.67 L 224.70 78.34 L 225.09 78.12 L 225.53 78.04 L 225.96 78.13 L 226.34 78.38 L 226.66 78.71 L 226.89 79.10 L 226.98 79.55 L 227.00 80.03 L 226.98 80.51 L 226.87 80.95 L 226.63 81.33 L 226.30 81.66 L 225.91 81.88 L 225.47 81.96 L 225.04 81.87 L 224.66 81.62 L 224.34 81.29 L 224.11 80.90 L 224.02 80.45 L 224.00 79.97 L 224.02 79.49 Z M 16.16 49.07 L 16.46 48.60 L 16.90 48.26 L 17.41 48.10 L 17.94 48.17 L 18.40 48.46 L 18.74 48.90 L 18.96 49.41 L 19.14 49.94 L 19.43 50.42 L 19.74 50.90 L 19.90 51.41 L 19.83 51.94 L 19.54 52.40 L 19.10 52.74 L 18.59 52.90 L 18.06 52.83 L 17.58 52.55 L 17.15 52.14 L 16.73 51.72 L 16.36 51.27 L 16.12 50.76 L 16.02 50.20 L 16.03 49.61 Z M 26.13 28.05 L 26.37 27.67 L 26.70 27.34 L 27.09 27.12 L 27.53 27.04 L 27.96 27.13 L 28.34 27.38 L 28.66 27.71 L 28.89 28.10 L 28.98 28.55 L 29.00 29.03 L 28.98 29.51 L 28.87 29.95 L 28.63 30.33 L 28.30 30.66 L 27.91 30.88 L 27.47 30.96 L 27.04 30.87 L 26.66 30.62 L 26.34 30.29 L 26.11 29.90 L 26.02 29.45 L 26.00 28.97 L 26.02 28.49 Z M 257.17 8.06 L 257.48 7.59 L 257.94 7.24 L 258.48 7.06 L 259.08 7.02 L 259.67 7.10 L 260.19 7.33 L 260.61 7.72 L 260.89 8.21 L 261.09 8.75 L 261.36 9.26 L 261.74 9.73 L 262.17 10.18 L 262.57 10.64 L 262.84 11.14 L 262.88 11.68 L 262.67 12.19 L 262.28 12.61 L 261.79 12.85 L 261.25 12.86 L 260.74 12.63 L 260.27 12.25 L 259.82 11.82 L 259.38 11.38 L 258.94 10.94 L 258.50 10.50 L 258.06 10.06 L 257.63 9.61 L 257.29 9.13 L 257.11 8.60 Z" fill="rgb(215,12,11)" fill-rule="evenodd"/>
  <path d="M 283.06 20.14 L 282.64 20.41 L 282.31 20.79 L 282.10 21.24 L 282.02 21.74 L 282.02 22.25 L 282.14 22.67 L 282.43 22.91 L 282.89 22.99 L 283.42 23.00 L 283.95 23.00 L 284.48 23.03 L 284.96 23.15 L 285.38 23.42 L 285.71 23.81 L 285.93 24.24 L 286.11 24.64 L 286.37 24.87 L 286.70 24.84 L 286.89 24.58 L 286.82 24.25 L 286.51 24.04 L 286.07 23.88 L 285.66 23.61 L 285.32 23.23 L 285.10 22.79 L 285.02 22.29 L 285.00 21.76 L 285.00 21.22 L 284.97 20.71 L 284.85 20.30 L 284.53 20.08 L 284.06 20.01 L 283.55 20.02 Z M 227.18 0.18 L 227.03 0.53 L 227.00 1.00 L 227.03 1.47 L 227.18 1.82 L 227.53 1.97 L 228.00 2.00 L 228.50 2.00 L 229.00 2.00 L 229.50 2.00 L 230.00 2.00 L 230.50 2.00 L 231.00 2.00 L 231.50 2.00 L 232.00 2.00 L 232.50 2.00 L 233.00 2.00 L 233.50 2.00 L 234.00 2.00 L 234.50 2.00 L 235.00 2.00 L 235.50 2.00 L 236.00 2.00 L 236.50 2.00 L 237.00 2.00 L 237.50 2.00 L 238.00 2.00 L 238.50 2.00 L 239.00 2.00 L 239.50 2.00 L 240.00 2.00 L 240.50 2.00 L 241.00 2.00 L 241.50 2.00 L 242.00 2.00 L 242.50 2.00 L 243.00 2.00 L 243.50 2.00 L 244.00 2.00 L 244.50 2.00 L 245.00 2.00 L 245.50 2.00 L 246.00 2.00 L 246.50 2.00 L 247.00 2.00 L 247.50 2.00 L 248.00 2.00 L 248.50 2.00 L 249.00 2.00 L 249.50 2.00 L 250.00 2.00 L 250.50 2.00 L 251.00 2.00 L 251.50 2.00 L 252.00 2.00 L 252.50 2.00 L 253.00 2.00 L 253.47 1.97 L 253.82 1.82 L 253.97 1.47 L 254.00 1.00 L 253.97 0.53 L 253.82 0.18 L 253.47 0.03 L 253.00 0.00 L 252.50 0.00 L 252.00 0.00 L 251.50 0.00 L 251.00 0.00 L 250.50 0.00 L 250.00 0.00 L 249.50 0.00 L 249.00 0.00 L 248.50 0.00 L 248.00 0.00 L 247.50 0.00 L 247.00 0.00 L 246.50 0.00 L 246.00 0.00 L 245.50 0.00 L 245.00 0.00 L 244.50 0.00 L 244.00 0.00 L 243.50 0.00 L 243.00 0.00 L 242.50 0.00 L 242.00 0.00 L 241.50 0.00 L 241.00 0.00 L 240.50 0.00 L 240.00 0.00 L 239.50 0.00 L 239.00 0.00 L 238.50 0.00 L 238.00 0.00 L 237.50 0.00 L 237.00 0.00 L 236.50 0.00 L 236.00 0.00 L 235.50 0.00 L 235.00 0.00 L 234.50 0.00 L 234.00 0.00 L 233.50 0.00 L 233.00 0.00 L 232.50 0.00 L 232.00 0.00 L 231.50 0.00 L 231.00 0.00 L 230.50 0.00 L 230.00 0.00 L 229.50 0.00 L 229.00 0.00 L 228.50 0.00 L 228.00 0.00 L 227.53 0.03 Z" fill="rgb(222,90,87)" fill-rule="evenodd"/>
  <path d="M 0.18 131.18 L 0.03 131.53 L 0.00 132.00 L 0.00 132.50 L 0.00 133.00 L 0.00 133.50 L 0.00 134.00 L 0.00 134.50 L 0.00 135.00 L 0.00 135.50 L 0.00 136.00 L 0.00 136.50 L 0.00 137.00 L 0.00 137.50 L 0.00 138.00 L 0.00 138.50 L 0.00 139.00 L 0.00 139.50 L 0.00 140.00 L 0.00 140.50 L 0.00 141.00 L 0.00 141.50 L 0.00 142.00 L 0.00 142.50 L 0.00 143.00 L 0.00 143.50 L 0.00 144.00 L 0.00 144.50 L 0.00 145.00 L 0.00 145.50 L 0.00 146.00 L 0.00 146.50 L 0.00 147.00 L 0.00 147.50 L 0.00 148.00 L 0.00 148.50 L 0.00 149.00 L 0.00 149.50 L 0.00 150.00 L 0.00 150.50 L 0.00 151.00 L 0.00 151.50 L 0.00 152.00 L 0.00 152.50 L 0.00 153.00 L 0.03 153.47 L 0.18 153.82 L 0.53 153.97 L 1.00 154.00 L 1.47 153.97 L 1.82 153.82 L 1.97 153.47 L 2.00 153.00 L 2.00 152.50 L 2.00 152.00 L 2.00 151.50 L 2.00 151.00 L 2.00 150.50 L 2.00 150.00 L 2.00 149.50 L 2.00 149.00 L 2.00 148.50 L 2.00 148.00 L 2.00 147.50 L 2.00 147.00 L 2.00 146.50 L 2.00 146.00 L 2.00 145.50 L 2.00 145.00 L 2.00 144.50 L 2.00 144.00 L 2.00 143.50 L 2.00 143.00 L 2.00 142.50 L 2.00 142.00 L 2.00 141.50 L 2.00 141.00 L 2.00 140.50 L 2.00 140.00 L 2.00 139.50 L 2.00 139.00 L 2.00 138.50 L 2.00 138.00 L 2.00 137.50 L 2.00 137.00 L 2.00 136.50 L 2.00 136.00 L 2.00 135.50 L 2.00 135.00 L 2.00 134.50 L 2.00 134.00 L 2.00 133.50 L 2.00 133.00 L 2.00 132.50 L 2.00 132.00 L 1.97 131.53 L 1.82 131.18 L 1.47 131.03 L 1.00 131.00 L 0.53 131.03 Z M 0.18 116.18 L 0.03 116.53 L 0.00 117.00 L 0.00 117.50 L 0.00 118.00 L 0.00 118.50 L 0.00 119.00 L 0.00 119.50 L 0.00 120.00 L 0.00 120.50 L 0.00 121.00 L 0.03 121.47 L 0.18 121.82 L 0.53 121.97 L 1.00 122.00 L 1.47 121.97 L 1.82 121.82 L 1.97 121.47 L 2.00 121.00 L 2.00 120.50 L 2.00 120.00 L 2.00 119.50 L 2.00 119.00 L 2.00 118.50 L 2.00 118.00 L 2.00 117.50 L 2.00 117.00 L 1.97 116.53 L 1.82 116.18 L 1.47 116.03 L 1.00 116.00 L 0.53 116.03 Z M 217.18 0.18 L 217.03 0.53 L 217.00 1.00 L 217.03 1.47 L 217.18 1.82 L 217.53 1.97 L 218.00 2.00 L 218.50 2.00 L 219.00 2.00 L 219.50 2.00 L 220.00 2.00 L 220.50 2.00 L 221.00 2.00 L 221.50 2.00 L 222.00 2.00 L 222.50 2.00 L 223.00 2.00 L 223.50 2.00 L 224.00 2.00 L 224.47 1.97 L 224.82 1.82 L 224.97 1.47 L 225.00 1.00 L 224.97 0.53 L 224.82 0.18 L 224.47 0.03 L 224.00 0.00 L 223.50 0.00 L 223.00 0.00 L 222.50 0.00 L 222.00 0.00 L 221.50 0.00 L 221.00 0.00 L 220.50 0.00 L 220.00 0.00 L 219.50 0.00 L 219.00 0.00 L 218.50 0.00 L 218.00 0.00 L 217.53 0.03 Z M 160.18 0.18 L 160.03 0.53 L 160.00 1.00 L 160.03 1.47 L 160.18 1.82 L 160.53 1.97 L 161.00 2.00 L 161.50 2.00 L 162.00 2.00 L 162.50 2.00 L 163.00 2.00 L 163.50 2.00 L 164.00 2.00 L 164.50 2.00 L 165.00 2.00 L 165.47 1.97 L 165.82 1.82 L 165.97 1.47 L 166.00 1.00 L 165.97 0.53 L 165.82 0.18 L 165.47 0.03 L 165.00 0.00 L 164.50 0.00 L 164.00 0.00 L 163.50 0.00 L 163.00 0.00 L 162.50 0.00 L 162.00 0.00 L 161.50 0.00 L 161.00 0.00 L 160.53 0.03 Z M 120.18 0.18 L 120.03 0.53 L 120.00 1.00 L 120.03 1.47 L 120.18 1.82 L 120.53 1.97 L 121.00 2.00 L 121.50 2.00 L 122.00 2.00 L 122.50 2.00 L 123.00 2.00 L 123.50 2.00 L 124.00 2.00 L 124.50 2.00 L 125.00 2.00 L 125.50 2.00 L 126.00 2.00 L 126.47 1.97 L 126.82 1.82 L 126.97 1.47 L 127.00 1.00 L 126.97 0.53 L 126.82 0.18 L 126.47 0.03 L 126.00 0.00 L 125.50 0.00 L 125.00 0.00 L 124.50 0.00 L 124.00 0.00 L 123.50 0.00 L 123.00 0.00 L 122.50 0.00 L 122.00 0.00 L 121.50 0.00 L 121.00 0.00 L 120.53 0.03 Z M 42.18 0.18 L 42.03 0.53 L 42.00 1.00 L 42.03 1.47 L 42.18 1.82 L 42.53 1.97 L 43.00 2.00 L 43.50 2.00 L 44.00 2.00 L 44.50 2.00 L 45.00 2.00 L 45.50 2.00 L 46.00 2.00 L 46.50 2.00 L 47.00 2.00 L 47.50 2.00 L 48.00 2.00 L 48.50 2.00 L 49.00 2.00 L 49.50 2.00 L 50.00 2.00 L 50.50 2.00 L 51.00 2.00 L 51.50 2.00 L 52.00 2.00 L 52.50 2.00 L 53.00 2.00 L 53.50 2.00 L 54.00 2.00 L 54.50 2.00 L 55.00 2.00 L 55.50 2.00 L 56.00 2.00 L 56.50 2.00 L 57.00 2.00 L 57.50 2.00 L 58.00 2.00 L 58.47 1.97 L 58.82 1.82 L 58.97 1.47 L 59.00 1.00 L 58.97 0.53 L 58.82 0.18 L 58.47 0.03 L 58.00 0.00 L 57.50 0.00 L 57.00 0.00 L 56.50 0.00 L 56.00 0.00 L 55.50 0.00 L 55.00 0.00 L 54.50 0.00 L 54.00 0.00 L 53.50 0.00 L 53.00 0.00 L 52.50 0.00 L 52.00 0.00 L 51.50 0.00 L 51.00 0.00 L 50.50 0.00 L 50.00 0.00 L 49.50 0.00 L 49.00 0.00 L 48.50 0.00 L 48.00 0.00 L 47.50 0.00 L 47.00 0.00 L 46.50 0.00 L 46.00 0.00 L 45.50 0.00 L 45.00 0.00 L 44.50 0.00 L 44.00 0.00 L 43.50 0.00 L 43.00 0.00 L 42.53 0.03 Z" fill="rgb(221,162,162)" fill-rule="evenodd"/>
  <path d="M 0.18 123.18 L 0.03 123.53 L 0.00 124.00 L 0.00 124.50 L 0.00 125.00 L 0.00 125.50 L 0.00 126.00 L 0.00 126.50 L 0.00 127.00 L 0.00 127.50 L 0.00 128.00 L 0.00 128.50 L 0.00 129.00 L 0.03 129.47 L 0.18 129.82 L 0.53 129.97 L 1.00 130.00 L 1.47 129.97 L 1.82 129.82 L 1.97 129.47 L 2.00 129.00 L 2.00 128.50 L 2.00 128.00 L 2.00 127.50 L 2.00 127.00 L 2.00 126.50 L 2.00 126.00 L 2.00 125.50 L 2.00 125.00 L 2.00 124.50 L 2.00 124.00 L 1.97 123.53 L 1.82 123.18 L 1.47 123.03 L 1.00 123.00 L 0.53 123.03 Z M 0.18 29.18 L 0.03 29.53 L 0.00 30.00 L 0.00 30.50 L 0.00 31.00 L 0.00 31.50 L 0.00 32.00 L 0.00 32.50 L 0.00 33.00 L 0.00 33.50 L 0.00 34.00 L 0.00 34.50 L 0.00 35.00 L 0.00 35.50 L 0.00 36.00 L 0.00 36.50 L 0.00 37.00 L 0.00 37.50 L 0.00 38.00 L 0.00 38.50 L 0.00 39.00 L 0.00 39.50 L 0.00 40.00 L 0.00 40.50 L 0.00 41.00 L 0.00 41.50 L 0.00 42.00 L 0.00 42.50 L 0.00 43.00 L 0.00 43.50 L 0.00 44.00 L 0.03 44.47 L 0.18 44.82 L 0.53 44.97 L 1.00 45.00 L 1.47 44.97 L 1.82 44.82 L 1.97 44.47 L 2.00 44.00 L 2.00 43.50 L 2.00 43.00 L 2.00 42.50 L 2.00 42.00 L 2.00 41.50 L 2.00 41.00 L 2.00 40.50 L 2.00 40.00 L 2.00 39.50 L 2.00 39.00 L 2.00 38.50 L 2.00 38.00 L 2.00 37.50 L 2.00 37.00 L 2.00 36.50 L 2.00 36.00 L 2.00 35.50 L 2.00 35.00 L 2.00 34.50 L 2.00 34.00 L 2.00 33.50 L 2.00 33.00 L 2.00 32.50 L 2.00 32.00 L 2.00 31.50 L 2.00 31.00 L 2.00 30.50 L 2.00 30.00 L 1.97 29.53 L 1.82 29.18 L 1.47 29.03 L 1.00 29.00 L 0.53 29.03 Z M 202.18 0.18 L 202.03 0.53 L 202.00 1.00 L 202.03 1.47 L 202.18 1.82 L 202.53 1.97 L 203.00 2.00 L 203.50 2.00 L 204.00 2.00 L 204.50 2.00 L 205.00 2.00 L 205.50 2.00 L 206.00 2.00 L 206.50 2.00 L 207.00 2.00 L 207.50 2.00 L 208.00 2.00 L 208.50 2.00 L 209.00 2.00 L 209.50 2.00 L 210.00 2.00 L 210.50 2.00 L 211.00 2.00 L 211.50 2.00 L 212.00 2.00 L 212.50 2.00 L 213.00 2.00 L 213.47 1.97 L 213.82 1.82 L 213.97 1.47 L 214.00 1.00 L 213.97 0.53 L 213.82 0.18 L 213.47 0.03 L 213.00 0.00 L 212.50 0.00 L 212.00 0.00 L 211.50 0.00 L 211.00 0.00 L 210.50 0.00 L 210.00 0.00 L 209.50 0.00 L 209.00 0.00 L 208.50 0.00 L 208.00 0.00 L 207.50 0.00 L 207.00 0.00 L 206.50 0.00 L 206.00 0.00 L 205.50 0.00 L 205.00 0.00 L 204.50 0.00 L 204.00 0.00 L 203.50 0.00 L 203.00 0.00 L 202.53 0.03 Z M 167.18 0.18 L 167.03 0.53 L 167.00 1.00 L 167.03 1.47 L 167.18 1.82 L 167.53 1.97 L 168.00 2.00 L 168.50 2.00 L 169.00 2.00 L 169.50 2.00 L 170.00 2.00 L 170.50 2.00 L 171.00 2.00 L 171.50 2.00 L 172.00 2.00 L 172.50 2.00 L 173.00 2.00 L 173.50 2.00 L 174.00 2.00 L 174.50 2.00 L 175.00 2.00 L 175.50 2.00 L 176.00 2.00 L 176.47 1.97 L 176.82 1.82 L 176.97 1.47 L 177.00 1.00 L 176.97 0.53 L 176.82 0.18 L 176.47 0.03 L 176.00 0.00 L 175.50 0.00 L 175.00 0.00 L 174.50 0.00 L 174.00 0.00 L 173.50 0.00 L 173.00 0.00 L 172.50 0.00 L 172.00 0.00 L 171.50 0.00 L 171.00 0.00 L 170.50 0.00 L 170.00 0.00 L 169.50 0.00 L 169.00 0.00 L 168.50 0.00 L 168.00 0.00 L 167.53 0.03 Z M 140.18 0.18 L 140.03 0.53 L 140.00 1.00 L 140.03 1.47 L 140.18 1.82 L 140.53 1.97 L 141.00 2.00 L 141.50 2.00 L 142.00 2.00 L 142.50 2.00 L 143.00 2.00 L 143.50 2.00 L 144.00 2.00 L 144.50 2.00 L 145.00 2.00 L 145.50 2.00 L 146.00 2.00 L 146.50 2.00 L 147.00 2.00 L 147.50 2.00 L 148.00 2.00 L 148.50 2.00 L 149.00 2.00 L 149.50 2.00 L 150.00 2.00 L 150.50 2.00 L 151.00 2.00 L 151.50 2.00 L 152.00 2.00 L 152.50 2.00 L 153.00 2.00 L 153.50 2.00 L 154.00 2.00 L 154.50 2.00 L 155.00 2.00 L 155.50 2.00 L 156.00 2.00 L 156.50 2.00 L 157.00 2.00 L 157.50 2.00 L 158.00 2.00 L 158.47 1.97 L 158.82 1.82 L 158.97 1.47 L 159.00 1.00 L 158.97 0.53 L 158.82 0.18 L 158.47 0.03 L 158.00 0.00 L 157.50 0.00 L 157.00 0.00 L 156.50 0.00 L 156.00 0.00 L 155.50 0.00 L 155.00 0.00 L 154.50 0.00 L 154.00 0.00 L 153.50 0.00 L 153.00 0.00 L 152.50 0.00 L 152.00 0.00 L 151.50 0.00 L 151.00 0.00 L 150.50 0.00 L 150.00 0.00 L 149.50 0.00 L 149.00 0.00 L 148.50 0.00 L 148.00 0.00 L 147.50 0.00 L 147.00 0.00 L 146.50 0.00 L 146.00 0.00 L 145.50 0.00 L 145.00 0.00 L 144.50 0.00 L 144.00 0.00 L 143.50 0.00 L 143.00 0.00 L 142.50 0.00 L 142.00 0.00 L 141.50 0.00 L 141.00 0.00 L 140.53 0.03 Z M 129.18 0.18 L 129.03 0.53 L 129.00 1.00 L 129.03 1.47 L 129.18 1.82 L 129.53 1.97 L 130.00 2.00 L 130.50 2.00 L 131.00 2.00 L 131.50 2.00 L 132.00 2.00 L 132.47 1.97 L 132.82 1.82 L 132.97 1.47 L 133.00 1.00 L 132.97 0.53 L 132.82 0.18 L 132.47 0.03 L 132.00 0.00 L 131.50 0.00 L 131.00 0.00 L 130.50 0.00 L 130.00 0.00 L 129.53 0.03 Z M 108.18 0.18 L 108.03 0.53 L 108.00 1.00 L 108.03 1.47 L 108.18 1.82 L 108.53 1.97 L 109.00 2.00 L 109.50 2.00 L 110.00 2.00 L 110.50 2.00 L 111.00 2.00 L 111.50 2.00 L 112.00 2.00 L 112.50 2.00 L 113.00 2.00 L 113.50 2.00 L 114.00 2.00 L 114.50 2.00 L 115.00 2.00 L 115.50 2.00 L 116.00 2.00 L 116.50 2.00 L 117.00 2.00 L 117.47 1.97 L 117.82 1.82 L 117.97 1.47 L 118.00 1.00 L 117.97 0.53 L 117.82 0.18 L 117.47 0.03 L 117.00 0.00 L 116.50 0.00 L 116.00 0.00 L 115.50 0.00 L 115.00 0.00 L 114.50 0.00 L 114.00 0.00 L 113.50 0.00 L 113.00 0.00 L 112.50 0.00 L 112.00 0.00 L 111.50 0.00 L 111.00 0.00 L 110.50 0.00 L 110.00 0.00 L 109.50 0.00 L 109.00 0.00 L 108.53 0.03 Z M 61.18 0.18 L 61.03 0.53 L 61.00 1.00 L 61.03 1.47 L 61.18 1.82 L 61.53 1.97 L 62.00 2.00 L 62.50 2.00 L 63.00 2.00 L 63.50 2.00 L 64.00 2.00 L 64.50 2.00 L 65.00 2.00 L 65.50 2.00 L 66.00 2.00 L 66.50 2.00 L 67.00 2.00 L 67.50 2.00 L 68.00 2.00 L 68.50 2.00 L 69.00 2.00 L 69.50 2.00 L 70.00 2.00 L 70.50 2.00 L 71.00 2.00 L 71.50 2.00 L 72.00 2.00 L 72.50 2.00 L 73.00 2.00 L 73.50 2.00 L 74.00 2.00 L 74.47 1.97 L 74.82 1.82 L 74.97 1.47 L 75.00 1.00 L 74.97 0.53 L 74.82 0.18 L 74.47 0.03 L 74.00 0.00 L 73.50 0.00 L 73.00 0.00 L 72.50 0.00 L 72.00 0.00 L 71.50 0.00 L 71.00 0.00 L 70.50 0.00 L 70.00 0.00 L 69.50 0.00 L 69.00 0.00 L 68.50 0.00 L 68.00 0.00 L 67.50 0.00 L 67.00 0.00 L 66.50 0.00 L 66.00 0.00 L 65.50 0.00 L 65.00 0.00 L 64.50 0.00 L 64.00 0.00 L 63.50 0.00 L 63.00 0.00 L 62.50 0.00 L 62.00 0.00 L 61.53 0.03 Z M 30.18 0.18 L 30.03 0.53 L 30.00 1.00 L 30.03 1.47 L 30.18 1.82 L 30.53 1.97 L 31.00 2.00 L 31.50 2.00 L 32.00 2.00 L 32.50 2.00 L 33.00 2.00 L 33.50 2.00 L 34.00 2.00 L 34.50 2.00 L 35.00 2.00 L 35.50 2.00 L 36.00 2.00 L 36.50 2.00 L 37.00 2.00 L 37.50 2.00 L 38.00 2.00 L 38.50 2.00 L 39.00 2.00 L 39.50 2.00 L 40.00 2.00 L 40.47 1.97 L 40.82 1.82 L 40.97 1.47 L 41.00 1.00 L 40.97 0.53 L 40.82 0.18 L 40.47 0.03 L 40.00 0.00 L 39.50 0.00 L 39.00 0.00 L 38.50 0.00 L 38.00 0.00 L 37.50 0.00 L 37.00 0.00 L 36.50 0.00 L 36.00 0.00 L 35.50 0.00 L 35.00 0.00 L 34.50 0.00 L 34.00 0.00 L 33.50 0.00 L 33.00 0.00 L 32.50 0.00 L 32.00 0.00 L 31.50 0.00 L 31.00 0.00 L 30.53 0.03 Z" fill="rgb(252,248,248)" fill-rule="evenodd"/>
</svg>