<svg xmlns="http://www.w3.org/2000/svg" width="320" height="168" viewBox="0 0 320 168" role="img" aria-label="07_plates_07">
  <title>07_plates_07</title>
  <path d="M 307.19 33.21 L 306.98 33.58 L 306.79 34.05 L 306.47 34.47 L 306.05 34.79 L 305.58 34.98 L 305.20 35.20 L 304.98 35.58 L 304.79 36.05 L 304.50 36.50 L 304.22 36.95 L 304.08 37.44 L 304.15 37.94 L 304.43 38.38 L 304.84 38.72 L 305.32 38.94 L 305.82 39.10 L 306.28 39.36 L 306.70 39.71 L 307.11 40.11 L 307.49 40.52 L 307.80 40.96 L 307.99 41.43 L 308.20 41.79 L 308.54 41.88 L 308.86 41.69 L 309.06 41.29 L 309.29 40.82 L 309.59 40.38 L 309.85 39.94 L 309.89 39.49 L 309.68 39.16 L 309.25 39.03 L 308.71 38.98 L 308.19 38.88 L 307.73 38.64 L 307.36 38.26 L 307.13 37.80 L 307.11 37.30 L 307.29 36.83 L 307.59 36.38 L 307.86 35.92 L 307.98 35.40 L 308.00 34.84 L 308.00 34.28 L 307.97 33.74 L 307.84 33.31 L 307.53 33.11 Z M 264.12 3.30 L 261.39 3.94 L 258.57 4.08 L 257.92 5.02 L 259.77 6.87 L 260.88 9.38 L 260.66 12.13 L 261.08 14.13 L 262.47 16.20 L 262.08 18.72 L 260.94 20.90 L 261.48 21.87 L 264.11 21.66 L 266.29 21.98 L 267.20 24.38 L 268.22 26.93 L 269.93 28.67 L 272.60 28.92 L 275.26 28.46 L 277.74 29.17 L 280.02 30.92 L 282.55 32.02 L 284.42 33.28 L 283.67 35.61 L 283.05 38.33 L 283.39 41.16 L 283.56 43.72 L 281.58 45.21 L 279.47 46.89 L 278.29 49.38 L 277.99 52.26 L 277.62 55.11 L 276.68 57.64 L 274.76 58.34 L 272.39 57.02 L 270.05 56.63 L 268.33 58.51 L 267.22 61.01 L 267.67 63.64 L 269.41 65.32 L 271.83 65.22 L 273.90 63.62 L 275.75 61.72 L 277.96 62.17 L 279.48 64.45 L 280.67 66.93 L 281.90 69.08 L 282.91 71.46 L 282.94 74.39 L 282.00 77.00 L 280.83 79.51 L 280.46 82.07 L 280.61 84.64 L 279.01 86.90 L 276.66 88.43 L 274.24 89.84 L 271.76 90.97 L 270.21 92.42 L 270.52 94.95 L 269.62 97.30 L 267.55 99.41 L 265.60 101.27 L 265.02 103.82 L 264.87 106.75 L 263.70 109.26 L 262.27 111.67 L 261.98 114.55 L 261.54 117.37 L 261.21 120.10 L 261.86 122.77 L 262.86 125.03 L 263.89 127.38 L 263.94 130.30 L 262.81 132.53 L 260.10 133.03 L 257.45 133.62 L 256.81 134.98 L 257.65 137.09 L 256.48 139.46 L 254.31 141.27 L 251.95 141.08 L 250.30 139.26 L 250.47 136.59 L 250.75 133.88 L 249.39 131.51 L 246.97 130.19 L 244.43 130.48 L 242.99 132.55 L 241.96 135.11 L 241.10 137.75 L 240.60 140.08 L 242.33 140.89 L 244.91 140.03 L 247.47 139.14 L 249.64 140.27 L 250.57 142.81 L 250.44 145.43 L 248.89 147.49 L 246.32 148.16 L 244.33 149.59 L 243.61 151.71 L 244.43 153.61 L 243.48 155.96 L 242.89 158.72 L 241.65 161.10 L 239.31 162.44 L 237.01 161.81 L 235.26 159.84 L 233.74 159.51 L 234.40 161.04 L 233.37 162.67 L 230.91 162.38 L 228.93 161.60 L 226.66 162.61 L 224.17 162.07 L 222.01 161.39 L 222.16 162.56 L 223.19 164.77 L 224.92 166.23 L 227.59 166.94 L 230.57 167.00 L 233.57 167.00 L 236.57 167.00 L 239.57 167.00 L 242.57 167.00 L 245.57 167.00 L 248.57 167.00 L 251.58 167.00 L 254.58 167.00 L 257.58 167.00 L 260.58 167.00 L 263.58 167.00 L 266.58 167.00 L 269.58 167.00 L 272.58 167.00 L 275.58 167.00 L 278.59 167.00 L 281.59 167.00 L 284.59 167.00 L 287.59 167.00 L 290.59 167.00 L 293.59 167.00 L 296.59 167.00 L 299.59 167.00 L 302.59 167.00 L 305.60 167.00 L 308.56 166.96 L 310.96 166.21 L 313.25 165.14 L 315.90 164.70 L 317.26 162.92 L 317.49 160.45 L 318.01 158.21 L 318.93 155.99 L 319.00 153.05 L 319.00 150.05 L 318.87 147.11 L 318.46 144.47 L 318.88 141.82 L 319.00 138.87 L 319.00 135.88 L 318.83 133.37 L 317.84 133.71 L 315.74 134.65 L 313.31 133.54 L 311.40 131.74 L 311.46 129.21 L 313.57 127.94 L 315.71 126.78 L 317.94 125.72 L 318.95 123.71 L 319.00 120.76 L 318.98 117.78 L 318.31 115.42 L 316.63 113.91 L 316.56 111.57 L 316.55 109.21 L 318.13 108.23 L 318.89 106.80 L 317.99 104.69 L 317.84 102.69 L 318.88 100.54 L 319.00 97.65 L 319.00 94.65 L 318.94 91.76 L 318.03 90.79 L 315.96 91.80 L 313.29 91.60 L 312.31 89.54 L 313.37 87.13 L 315.71 86.02 L 318.17 85.17 L 318.96 82.69 L 319.00 79.71 L 318.98 76.73 L 318.35 74.22 L 316.60 72.26 L 315.33 69.81 L 315.00 66.94 L 315.05 63.97 L 316.02 61.66 L 318.14 61.66 L 318.96 61.44 L 318.99 58.77 L 318.52 55.97 L 317.09 53.56 L 316.55 51.16 L 318.13 49.31 L 318.96 46.81 L 319.00 43.83 L 319.00 40.83 L 318.79 37.92 L 317.67 35.38 L 317.09 32.67 L 317.98 30.24 L 318.93 28.01 L 319.00 25.07 L 319.00 22.07 L 318.99 19.07 L 318.57 16.42 L 317.29 14.33 L 317.30 11.63 L 318.50 9.61 L 317.74 8.04 L 315.22 7.20 L 312.34 6.91 L 309.73 6.02 L 307.70 4.52 L 305.12 4.02 L 302.67 4.49 L 302.49 6.63 L 301.71 8.61 L 299.76 9.37 L 300.33 10.92 L 299.55 12.64 L 296.90 12.76 L 295.23 11.06 L 295.31 8.31 L 296.33 5.75 L 296.41 3.54 L 294.00 3.01 L 291.01 3.00 L 288.01 3.00 L 285.01 3.00 L 282.01 3.00 L 279.01 3.00 L 276.00 3.00 L 273.00 3.00 L 270.00 3.00 L 267.00 3.00 Z M 305.94 134.86 L 306.40 134.58 L 306.85 134.28 L 307.35 134.08 L 307.89 134.02 L 308.45 134.04 L 308.97 134.17 L 309.41 134.47 L 309.74 134.89 L 309.93 135.39 L 309.98 135.94 L 309.95 136.49 L 309.81 137.01 L 309.53 137.47 L 309.23 137.92 L 309.04 138.42 L 308.87 138.92 L 308.57 139.37 L 308.16 139.71 L 307.67 139.91 L 307.13 139.99 L 306.55 140.00 L 305.98 140.00 L 305.40 140.00 L 304.83 139.98 L 304.29 139.90 L 303.81 139.69 L 303.41 139.33 L 303.13 138.88 L 303.02 138.35 L 303.02 137.79 L 303.10 137.25 L 303.33 136.77 L 303.68 136.33 L 304.08 135.92 L 304.49 135.53 L 304.94 135.22 L 305.44 135.03 Z M 266.13 129.05 L 266.37 128.67 L 266.70 128.34 L 267.09 128.12 L 267.54 128.02 L 268.01 128.00 L 268.49 128.02 L 268.94 128.12 L 269.32 128.36 L 269.65 128.69 L 269.88 129.08 L 269.96 129.51 L 269.87 129.95 L 269.63 130.33 L 269.30 130.66 L 268.91 130.88 L 268.46 130.98 L 267.99 131.00 L 267.51 130.98 L 267.06 130.88 L 266.68 130.64 L 266.35 130.31 L 266.12 129.92 L 266.04 129.49 Z M 284.00 121.00 L 284.43 120.60 L 284.88 120.27 L 285.38 120.10 L 285.90 120.15 L 286.38 120.41 L 286.84 120.72 L 287.35 120.92 L 287.91 120.99 L 288.48 121.05 L 289.01 121.20 L 289.45 121.51 L 289.77 121.95 L 289.91 122.46 L 289.82 122.98 L 289.52 123.42 L 289.08 123.76 L 288.60 123.97 L 288.20 124.20 L 287.97 124.60 L 287.76 125.08 L 287.42 125.52 L 286.98 125.82 L 286.46 125.91 L 285.95 125.78 L 285.48 125.49 L 285.01 125.19 L 284.50 125.00 L 283.99 124.81 L 283.55 124.49 L 283.22 124.05 L 283.06 123.52 L 283.02 122.96 L 283.08 122.39 L 283.27 121.88 L 283.60 121.43 Z M 283.15 101.06 L 283.43 100.62 L 283.84 100.29 L 284.32 100.10 L 284.82 100.13 L 285.27 100.36 L 285.65 100.74 L 285.89 101.20 L 285.98 101.73 L 286.02 102.29 L 286.12 102.81 L 286.35 103.29 L 286.66 103.73 L 286.87 104.20 L 286.89 104.70 L 286.71 105.17 L 286.37 105.57 L 285.92 105.86 L 285.41 105.98 L 284.86 106.02 L 284.40 106.12 L 284.12 106.41 L 284.02 106.88 L 283.98 107.42 L 283.85 107.94 L 283.57 108.38 L 283.16 108.71 L 282.68 108.90 L 282.18 108.87 L 281.73 108.64 L 281.35 108.26 L 281.11 107.80 L 281.02 107.27 L 280.98 106.71 L 280.88 106.19 L 280.65 105.71 L 280.34 105.27 L 280.13 104.80 L 280.11 104.30 L 280.29 103.83 L 280.63 103.43 L 281.08 103.14 L 281.59 103.02 L 282.14 102.98 L 282.60 102.88 L 282.88 102.59 L 282.98 102.12 L 283.02 101.58 Z M 309.15 98.06 L 309.43 97.62 L 309.84 97.29 L 310.32 97.10 L 310.82 97.13 L 311.27 97.36 L 311.65 97.74 L 311.89 98.20 L 311.98 98.73 L 312.00 99.29 L 312.00 99.86 L 311.97 100.42 L 311.85 100.94 L 311.57 101.38 L 311.16 101.71 L 310.68 101.90 L 310.18 101.87 L 309.73 101.64 L 309.35 101.26 L 309.11 100.80 L 309.02 100.27 L 309.00 99.71 L 309.00 99.14 L 309.03 98.58 Z M 308.15 76.06 L 308.45 75.61 L 308.87 75.27 L 309.36 75.10 L 309.88 75.15 L 310.33 75.41 L 310.69 75.82 L 310.91 76.31 L 310.99 76.86 L 311.03 77.43 L 311.16 77.96 L 311.44 78.43 L 311.74 78.89 L 311.93 79.40 L 311.98 79.95 L 311.95 80.52 L 311.79 81.03 L 311.47 81.47 L 311.03 81.78 L 310.53 81.91 L 310.02 81.82 L 309.55 81.55 L 309.09 81.24 L 308.59 81.04 L 308.08 80.86 L 307.63 80.57 L 307.29 80.15 L 307.11 79.66 L 307.14 79.15 L 307.38 78.67 L 307.69 78.21 L 307.90 77.72 L 307.99 77.16 L 308.03 76.60 Z M 299.94 22.85 L 300.40 22.58 L 300.85 22.28 L 301.34 22.08 L 301.88 22.02 L 302.44 22.03 L 302.96 22.16 L 303.41 22.45 L 303.82 22.83 L 304.23 23.23 L 304.65 23.60 L 305.11 23.86 L 305.64 23.98 L 306.20 24.01 L 306.73 24.10 L 307.22 24.31 L 307.66 24.62 L 308.13 24.87 L 308.66 24.98 L 309.22 25.02 L 309.75 25.10 L 310.23 25.33 L 310.61 25.70 L 310.87 26.15 L 310.98 26.68 L 311.02 27.22 L 311.15 27.67 L 311.47 27.93 L 311.92 28.13 L 312.37 28.40 L 312.82 28.71 L 313.30 28.93 L 313.80 29.10 L 314.26 29.35 L 314.64 29.73 L 314.90 30.19 L 315.07 30.69 L 315.29 31.17 L 315.59 31.62 L 315.85 32.08 L 315.91 32.58 L 315.77 33.07 L 315.46 33.51 L 315.07 33.93 L 314.68 34.34 L 314.33 34.76 L 314.09 35.24 L 313.92 35.74 L 313.69 36.22 L 313.38 36.66 L 313.15 37.12 L 313.12 37.56 L 313.36 37.88 L 313.78 38.08 L 314.23 38.33 L 314.61 38.69 L 314.87 39.15 L 314.98 39.68 L 315.00 40.24 L 315.00 40.81 L 315.03 41.36 L 315.19 41.77 L 315.56 42.00 L 316.03 42.20 L 316.45 42.51 L 316.77 42.93 L 316.92 43.43 L 316.85 43.93 L 316.57 44.37 L 316.16 44.71 L 315.70 44.94 L 315.30 45.15 L 315.05 45.50 L 314.86 45.95 L 314.58 46.41 L 314.27 46.85 L 314.06 47.33 L 313.89 47.84 L 313.62 48.29 L 313.24 48.66 L 312.78 48.88 L 312.27 48.89 L 311.80 48.69 L 311.40 48.33 L 311.13 47.88 L 311.02 47.36 L 311.00 46.79 L 311.00 46.22 L 311.00 45.65 L 310.99 45.08 L 310.94 44.56 L 310.76 44.20 L 310.43 44.13 L 310.14 44.36 L 310.02 44.81 L 310.00 45.36 L 310.00 45.93 L 310.00 46.51 L 309.99 47.08 L 309.93 47.62 L 309.74 48.12 L 309.42 48.56 L 309.03 48.97 L 308.64 49.38 L 308.30 49.81 L 308.07 50.29 L 307.90 50.79 L 307.66 51.27 L 307.35 51.71 L 307.12 52.19 L 307.02 52.72 L 306.98 53.27 L 306.88 53.81 L 306.64 54.27 L 306.26 54.64 L 305.80 54.87 L 305.30 54.89 L 304.82 54.70 L 304.42 54.35 L 304.13 53.92 L 303.93 53.47 L 303.67 53.15 L 303.22 53.03 L 302.70 53.03 L 302.28 53.18 L 302.07 53.54 L 302.01 54.05 L 302.00 54.62 L 301.98 55.18 L 301.90 55.72 L 301.69 56.20 L 301.33 56.60 L 300.88 56.86 L 300.38 56.91 L 299.89 56.75 L 299.48 56.42 L 299.17 55.99 L 298.99 55.49 L 298.82 54.99 L 298.53 54.53 L 298.24 54.08 L 298.09 53.59 L 298.15 53.09 L 298.40 52.63 L 298.71 52.18 L 298.91 51.70 L 298.99 51.15 L 299.00 50.59 L 299.01 50.02 L 299.05 49.46 L 299.21 48.96 L 299.50 48.50 L 299.79 48.05 L 299.95 47.54 L 299.99 46.99 L 300.00 46.42 L 299.99 45.85 L 299.91 45.31 L 299.71 44.82 L 299.37 44.39 L 298.98 43.98 L 298.59 43.57 L 298.27 43.13 L 298.08 42.64 L 298.01 42.09 L 298.00 41.52 L 297.99 40.95 L 297.93 40.40 L 297.76 39.90 L 297.46 39.45 L 297.19 39.00 L 297.08 38.50 L 297.19 38.00 L 297.46 37.55 L 297.76 37.10 L 297.93 36.60 L 298.00 36.05 L 298.04 35.50 L 298.19 34.99 L 298.47 34.53 L 298.77 34.08 L 298.91 33.59 L 298.85 33.08 L 298.60 32.62 L 298.29 32.18 L 298.11 31.70 L 298.13 31.19 L 298.35 30.72 L 298.65 30.28 L 298.87 29.82 L 298.86 29.39 L 298.58 29.12 L 298.12 29.02 L 297.60 29.04 L 297.20 29.22 L 296.98 29.60 L 296.78 30.07 L 296.45 30.49 L 296.02 30.80 L 295.52 30.95 L 294.96 30.98 L 294.42 30.94 L 293.92 30.76 L 293.47 30.45 L 293.06 30.06 L 292.67 29.65 L 292.32 29.22 L 292.10 28.74 L 292.02 28.20 L 292.02 27.65 L 292.13 27.12 L 292.40 26.67 L 292.80 26.31 L 293.28 26.10 L 293.82 26.02 L 294.38 26.00 L 294.95 25.99 L 295.51 25.95 L 296.02 25.80 L 296.45 25.49 L 296.77 25.07 L 296.96 24.58 L 297.13 24.08 L 297.42 23.64 L 297.83 23.29 L 298.32 23.09 L 298.86 23.01 L 299.42 22.98 Z M 268.14 18.06 L 268.43 17.63 L 268.83 17.29 L 269.30 17.09 L 269.84 17.01 L 270.39 17.00 L 270.95 17.00 L 271.51 17.00 L 272.07 17.01 L 272.61 17.07 L 273.09 17.24 L 273.51 17.56 L 273.81 17.98 L 273.95 18.48 L 273.99 19.03 L 274.00 19.59 L 273.99 20.14 L 273.92 20.67 L 273.72 21.15 L 273.39 21.56 L 272.96 21.84 L 272.45 21.97 L 271.90 22.00 L 271.34 22.00 L 270.79 21.98 L 270.26 21.90 L 269.79 21.69 L 269.37 21.35 L 268.97 20.96 L 268.58 20.56 L 268.26 20.13 L 268.08 19.65 L 268.01 19.12 L 268.03 18.57 Z" fill="rgb(26,25,23)" fill-rule="evenodd"/>
  <path d="M 318.05 68.15 L 317.62 68.40 L 317.20 68.70 L 316.75 68.93 L 316.35 69.12 L 316.12 69.42 L 316.13 69.84 L 316.34 70.28 L 316.65 70.70 L 316.89 71.15 L 317.05 71.63 L 317.24 72.10 L 317.55 72.50 L 317.96 72.80 L 318.41 72.92 L 318.79 72.80 L 318.96 72.44 L 319.00 71.93 L 319.00 71.38 L 319.00 70.83 L 319.00 70.29 L 319.00 69.74 L 319.00 69.19 L 318.97 68.67 L 318.83 68.27 L 318.49 68.09 Z M 305.19 47.20 L 305.03 47.56 L 305.00 48.05 L 305.00 48.58 L 305.00 49.10 L 305.00 49.63 L 305.00 50.16 L 305.00 50.68 L 305.00 51.21 L 305.00 51.73 L 305.00 52.26 L 305.00 52.78 L 305.02 53.29 L 305.14 53.69 L 305.42 53.89 L 305.74 53.83 L 305.93 53.52 L 305.99 53.05 L 306.00 52.53 L 306.00 52.01 L 306.03 51.50 L 306.16 51.02 L 306.41 50.60 L 306.71 50.20 L 306.90 49.76 L 306.91 49.29 L 306.74 48.85 L 306.45 48.44 L 306.18 48.03 L 306.02 47.59 L 305.83 47.23 L 305.51 47.08 Z M 301.21 23.21 L 301.03 23.60 L 300.99 24.13 L 300.92 24.66 L 300.73 25.15 L 300.43 25.59 L 300.16 26.04 L 300.03 26.55 L 300.00 27.10 L 300.00 27.67 L 300.00 28.23 L 300.00 28.80 L 299.98 29.35 L 299.87 29.87 L 299.62 30.34 L 299.32 30.77 L 299.12 31.24 L 299.11 31.74 L 299.31 32.21 L 299.61 32.65 L 299.88 33.10 L 300.04 33.60 L 300.23 34.09 L 300.52 34.53 L 300.80 34.98 L 300.95 35.48 L 301.01 36.02 L 301.08 36.51 L 301.29 36.82 L 301.62 36.85 L 301.86 36.60 L 301.87 36.18 L 301.66 35.73 L 301.35 35.29 L 301.12 34.82 L 301.02 34.30 L 301.00 33.74 L 301.00 33.18 L 301.02 32.62 L 301.14 32.10 L 301.41 31.66 L 301.80 31.31 L 302.27 31.10 L 302.80 31.02 L 303.35 31.02 L 303.87 31.13 L 304.34 31.38 L 304.77 31.68 L 305.24 31.88 L 305.74 31.89 L 306.21 31.69 L 306.65 31.39 L 307.11 31.13 L 307.63 31.02 L 308.18 31.00 L 308.75 31.00 L 309.30 31.02 L 309.83 31.12 L 310.28 31.37 L 310.65 31.74 L 310.87 32.20 L 310.90 32.69 L 310.71 33.17 L 310.41 33.61 L 310.14 34.06 L 309.97 34.55 L 309.79 35.04 L 309.51 35.49 L 309.22 35.94 L 309.06 36.43 L 309.02 36.97 L 309.07 37.47 L 309.27 37.84 L 309.67 38.05 L 310.13 38.26 L 310.57 38.56 L 311.01 38.82 L 311.47 38.90 L 311.82 38.74 L 311.97 38.33 L 312.01 37.80 L 312.10 37.27 L 312.31 36.79 L 312.61 36.35 L 312.88 35.90 L 313.04 35.40 L 313.23 34.92 L 313.55 34.48 L 313.93 34.07 L 314.32 33.67 L 314.66 33.25 L 314.88 32.78 L 314.89 32.29 L 314.70 31.82 L 314.36 31.42 L 313.92 31.13 L 313.43 30.97 L 312.94 30.78 L 312.52 30.47 L 312.21 30.05 L 312.02 29.58 L 311.81 29.20 L 311.42 28.99 L 310.96 28.80 L 310.54 28.48 L 310.23 28.07 L 310.06 27.57 L 310.00 27.04 L 309.94 26.53 L 309.73 26.18 L 309.31 26.03 L 308.77 26.00 L 308.21 26.00 L 307.64 26.00 L 307.08 26.00 L 306.51 26.00 L 305.95 25.99 L 305.41 25.94 L 304.92 25.76 L 304.50 25.45 L 304.19 25.02 L 304.02 24.53 L 303.85 24.04 L 303.55 23.61 L 303.14 23.27 L 302.66 23.08 L 302.13 23.02 L 301.60 23.04 Z M 263.05 23.15 L 262.62 23.40 L 262.20 23.70 L 261.75 23.93 L 261.35 24.12 L 261.13 24.40 L 261.18 24.73 L 261.48 24.95 L 261.92 25.12 L 262.36 25.39 L 262.78 25.69 L 263.24 25.90 L 263.75 25.98 L 264.29 26.00 L 264.84 26.00 L 265.36 25.97 L 265.75 25.82 L 265.90 25.51 L 265.78 25.18 L 265.41 24.98 L 264.96 24.80 L 264.55 24.50 L 264.23 24.09 L 264.04 23.65 L 263.84 23.26 L 263.50 23.09 Z" fill="rgb(94,92,89)" fill-rule="evenodd"/>
  <path d="M 18.19 151.21 L 17.99 151.57 L 17.81 152.02 L 17.51 152.44 L 17.10 152.76 L 16.63 152.93 L 16.10 152.99 L 15.59 153.03 L 15.20 153.20 L 15.03 153.59 L 15.00 154.11 L 15.00 154.66 L 15.00 155.21 L 15.00 155.76 L 15.00 156.31 L 15.00 156.86 L 15.00 157.41 L 15.00 157.96 L 15.04 158.50 L 15.18 159.00 L 15.46 159.43 L 15.83 159.83 L 16.22 160.22 L 16.62 160.59 L 17.06 160.86 L 17.54 161.02 L 18.02 161.19 L 18.46 161.47 L 18.89 161.76 L 19.37 161.93 L 19.90 161.99 L 20.45 162.00 L 20.99 161.99 L 21.49 161.93 L 21.83 161.73 L 21.97 161.32 L 21.98 160.81 L 21.87 160.37 L 21.59 160.09 L 21.17 159.90 L 20.73 159.66 L 20.30 159.36 L 19.85 159.12 L 19.34 159.02 L 18.80 158.99 L 18.28 158.91 L 17.81 158.70 L 17.42 158.37 L 17.15 157.94 L 17.07 157.46 L 17.19 156.98 L 17.47 156.54 L 17.76 156.11 L 17.93 155.63 L 17.99 155.10 L 18.02 154.56 L 18.14 154.06 L 18.40 153.62 L 18.71 153.19 L 18.91 152.72 L 18.98 152.20 L 18.97 151.68 L 18.83 151.28 L 18.52 151.10 Z M 7.19 146.21 L 6.98 146.58 L 6.80 147.04 L 6.49 147.46 L 6.08 147.77 L 5.62 147.97 L 5.24 148.18 L 5.05 148.56 L 5.01 149.07 L 5.00 149.63 L 5.00 150.19 L 5.00 150.75 L 5.00 151.31 L 5.00 151.86 L 5.03 152.39 L 5.20 152.78 L 5.57 152.91 L 6.03 152.80 L 6.46 152.51 L 6.87 152.13 L 7.27 151.74 L 7.68 151.38 L 8.13 151.13 L 8.65 151.02 L 9.19 150.99 L 9.72 150.91 L 10.20 150.70 L 10.62 150.37 L 11.02 149.98 L 11.42 149.60 L 11.85 149.28 L 12.33 149.08 L 12.86 149.01 L 13.40 149.02 L 13.92 149.14 L 14.37 149.40 L 14.80 149.70 L 15.25 149.88 L 15.66 149.84 L 15.88 149.55 L 15.86 149.12 L 15.61 148.69 L 15.23 148.33 L 14.77 148.10 L 14.25 148.02 L 13.69 148.00 L 13.13 148.00 L 12.57 148.00 L 12.02 148.01 L 11.47 148.05 L 10.97 148.20 L 10.53 148.47 L 10.09 148.76 L 9.61 148.91 L 9.12 148.86 L 8.68 148.61 L 8.32 148.22 L 8.10 147.76 L 8.01 147.24 L 7.97 146.71 L 7.84 146.29 L 7.52 146.11 Z M 225.19 143.21 L 224.98 143.58 L 224.80 144.04 L 224.49 144.46 L 224.07 144.77 L 223.58 144.94 L 223.04 144.99 L 222.48 145.00 L 221.93 145.01 L 221.39 145.07 L 220.90 145.24 L 220.47 145.56 L 220.06 145.94 L 219.67 146.33 L 219.27 146.73 L 218.87 147.13 L 218.47 147.51 L 218.03 147.80 L 217.53 147.95 L 216.98 147.99 L 216.42 148.00 L 215.86 148.00 L 215.30 148.00 L 214.74 148.00 L 214.18 148.00 L 213.62 148.00 L 213.06 148.01 L 212.55 148.06 L 212.18 148.25 L 212.03 148.66 L 211.99 149.19 L 211.91 149.72 L 211.70 150.19 L 211.35 150.58 L 210.92 150.85 L 210.43 150.92 L 209.94 150.78 L 209.52 150.47 L 209.22 150.05 L 209.05 149.56 L 209.00 149.02 L 208.95 148.48 L 208.80 147.98 L 208.50 147.56 L 208.09 147.24 L 207.63 147.10 L 207.24 147.19 L 207.02 147.54 L 206.83 147.99 L 206.53 148.42 L 206.12 148.74 L 205.67 148.95 L 205.28 149.16 L 205.11 149.48 L 205.22 149.81 L 205.61 149.97 L 206.14 150.01 L 206.67 150.08 L 207.15 150.28 L 207.55 150.61 L 207.84 151.04 L 207.92 151.53 L 207.81 152.02 L 207.51 152.44 L 207.10 152.76 L 206.64 152.96 L 206.26 153.17 L 206.09 153.53 L 206.18 153.99 L 206.44 154.43 L 206.74 154.87 L 206.90 155.34 L 206.87 155.84 L 206.63 156.29 L 206.28 156.71 L 205.89 157.11 L 205.49 157.49 L 205.05 157.79 L 204.55 157.95 L 204.01 158.00 L 203.47 158.05 L 202.97 158.20 L 202.53 158.48 L 202.09 158.77 L 201.59 158.94 L 201.06 159.00 L 200.55 159.05 L 200.20 159.24 L 200.12 159.57 L 200.33 159.84 L 200.74 159.88 L 201.19 159.70 L 201.62 159.40 L 202.08 159.14 L 202.59 159.02 L 203.15 159.00 L 203.71 159.00 L 204.27 159.00 L 204.83 159.00 L 205.39 159.00 L 205.95 159.00 L 206.51 159.00 L 207.08 159.00 L 207.64 159.00 L 208.18 158.98 L 208.63 158.87 L 208.89 158.57 L 208.99 158.10 L 209.03 157.56 L 209.15 157.05 L 209.43 156.62 L 209.84 156.29 L 210.31 156.09 L 210.85 156.01 L 211.40 156.00 L 211.96 156.01 L 212.51 156.04 L 213.01 156.19 L 213.46 156.46 L 213.89 156.75 L 214.35 156.90 L 214.74 156.81 L 214.94 156.46 L 214.99 155.95 L 215.00 155.40 L 215.01 154.84 L 215.09 154.31 L 215.29 153.83 L 215.62 153.43 L 216.06 153.15 L 216.55 153.08 L 217.04 153.21 L 217.48 153.49 L 217.92 153.77 L 218.41 153.96 L 218.90 154.12 L 219.35 154.39 L 219.79 154.69 L 220.26 154.90 L 220.79 154.98 L 221.34 154.98 L 221.86 154.88 L 222.32 154.63 L 222.75 154.33 L 223.22 154.12 L 223.71 154.11 L 224.18 154.30 L 224.58 154.64 L 224.87 155.07 L 225.03 155.56 L 225.21 156.05 L 225.49 156.49 L 225.78 156.93 L 225.98 157.40 L 226.18 157.78 L 226.56 158.00 L 227.02 158.18 L 227.46 158.47 L 227.90 158.76 L 228.36 158.90 L 228.75 158.81 L 228.98 158.47 L 229.16 158.02 L 229.46 157.59 L 229.87 157.27 L 230.35 157.08 L 230.88 157.01 L 231.44 157.00 L 232.00 157.01 L 232.54 157.05 L 233.04 157.21 L 233.49 157.49 L 233.93 157.78 L 234.42 157.94 L 234.96 157.98 L 235.46 157.94 L 235.82 157.74 L 235.97 157.33 L 236.01 156.80 L 236.09 156.27 L 236.30 155.80 L 236.61 155.36 L 236.87 154.91 L 237.04 154.42 L 237.22 153.93 L 237.54 153.52 L 237.96 153.21 L 238.42 153.02 L 238.79 152.80 L 238.96 152.41 L 238.99 151.88 L 238.92 151.35 L 238.74 150.87 L 238.44 150.43 L 238.17 149.98 L 238.04 149.47 L 238.01 148.93 L 238.07 148.39 L 238.24 147.90 L 238.53 147.46 L 238.81 147.02 L 238.95 146.51 L 238.99 145.97 L 239.00 145.41 L 238.98 144.87 L 238.88 144.41 L 238.61 144.14 L 238.19 144.13 L 237.75 144.35 L 237.37 144.71 L 237.11 145.15 L 236.95 145.65 L 236.74 146.12 L 236.41 146.53 L 235.99 146.83 L 235.48 146.96 L 234.93 147.00 L 234.38 147.00 L 233.81 147.00 L 233.25 147.00 L 232.69 147.00 L 232.13 147.00 L 231.60 147.04 L 231.21 147.20 L 231.04 147.59 L 230.99 148.12 L 230.92 148.65 L 230.74 149.13 L 230.42 149.56 L 230.03 149.96 L 229.63 150.35 L 229.21 150.69 L 228.74 150.90 L 228.21 150.99 L 227.66 151.02 L 227.15 151.12 L 226.68 151.37 L 226.25 151.67 L 225.78 151.88 L 225.29 151.89 L 224.82 151.70 L 224.42 151.37 L 224.15 150.93 L 224.08 150.44 L 224.21 149.95 L 224.52 149.54 L 224.93 149.22 L 225.39 149.03 L 225.77 148.81 L 225.95 148.43 L 225.98 147.91 L 225.93 147.38 L 225.75 146.89 L 225.46 146.45 L 225.19 146.01 L 225.08 145.51 L 225.17 145.02 L 225.44 144.57 L 225.73 144.14 L 225.89 143.68 L 225.82 143.29 L 225.52 143.11 Z M 3.18 124.18 L 3.03 124.53 L 3.00 125.00 L 3.00 125.50 L 3.00 126.00 L 3.00 126.50 L 3.00 127.00 L 3.00 127.50 L 3.00 128.00 L 3.00 128.50 L 3.00 129.00 L 3.00 129.50 L 3.00 130.00 L 3.00 130.50 L 3.00 131.00 L 3.00 131.50 L 3.00 132.00 L 3.03 132.47 L 3.18 132.82 L 3.50 132.94 L 3.82 132.82 L 3.97 132.47 L 4.00 132.00 L 4.00 131.50 L 4.00 131.00 L 4.00 130.50 L 4.00 130.00 L 4.00 129.50 L 4.00 129.00 L 4.00 128.50 L 4.00 128.00 L 4.00 127.50 L 4.00 127.00 L 4.00 126.50 L 4.00 126.00 L 4.00 125.50 L 4.00 125.00 L 3.97 124.53 L 3.82 124.18 L 3.50 124.06 Z M 3.18 102.18 L 3.03 102.53 L 3.00 103.00 L 3.00 103.50 L 3.00 104.00 L 3.00 104.50 L 3.00 105.00 L 3.00 105.50 L 3.00 106.00 L 3.00 106.50 L 3.00 107.00 L 3.00 107.50 L 3.00 108.00 L 3.00 108.50 L 3.00 109.00 L 3.00 109.50 L 3.00 110.00 L 3.00 110.50 L 3.00 111.00 L 3.00 111.50 L 3.00 112.00 L 3.00 112.50 L 3.00 113.00 L 3.00 113.50 L 3.00 114.00 L 3.03 114.47 L 3.18 114.82 L 3.50 114.94 L 3.82 114.82 L 3.97 114.47 L 4.00 114.00 L 4.00 113.50 L 4.00 113.00 L 4.00 112.50 L 4.00 112.00 L 4.00 111.50 L 4.00 111.00 L 4.00 110.50 L 4.00 110.00 L 4.00 109.50 L 4.00 109.00 L 4.00 108.50 L 4.00 108.00 L 4.00 107.50 L 4.00 107.00 L 4.00 106.50 L 4.00 106.00 L 4.00 105.50 L 4.00 105.00 L 4.00 104.50 L 4.00 104.00 L 4.00 103.50 L 4.00 103.00 L 3.97 102.53 L 3.82 102.18 L 3.50 102.06 Z M 278.06 72.15 L 277.63 72.43 L 277.29 72.83 L 277.07 73.30 L 276.90 73.80 L 276.65 74.25 L 276.29 74.63 L 275.84 74.87 L 275.34 74.90 L 274.87 74.74 L 274.43 74.44 L 273.98 74.17 L 273.49 74.08 L 272.99 74.19 L 272.55 74.46 L 272.10 74.76 L 271.62 74.95 L 271.13 75.12 L 270.67 75.37 L 270.24 75.68 L 269.78 75.92 L 269.37 76.12 L 269.11 76.43 L 269.02 76.90 L 269.04 77.41 L 269.21 77.80 L 269.61 77.97 L 270.14 78.01 L 270.67 78.08 L 271.15 78.28 L 271.56 78.61 L 271.84 79.04 L 271.92 79.54 L 271.80 80.02 L 271.50 80.45 L 271.08 80.77 L 270.59 80.94 L 270.05 80.99 L 269.51 80.96 L 269.00 80.82 L 268.55 80.54 L 268.11 80.25 L 267.65 80.10 L 267.27 80.19 L 267.10 80.52 L 267.17 80.98 L 267.46 81.40 L 267.86 81.73 L 268.35 81.92 L 268.88 81.99 L 269.43 82.03 L 269.94 82.15 L 270.39 82.43 L 270.80 82.80 L 271.20 83.20 L 271.61 83.57 L 272.06 83.85 L 272.57 83.97 L 273.12 84.00 L 273.68 84.00 L 274.24 83.98 L 274.77 83.90 L 275.24 83.68 L 275.68 83.37 L 276.14 83.13 L 276.66 83.02 L 277.21 83.00 L 277.78 83.00 L 278.31 82.97 L 278.73 82.82 L 278.94 82.47 L 278.99 81.96 L 279.00 81.41 L 279.00 80.84 L 279.00 80.28 L 278.98 79.72 L 278.89 79.20 L 278.65 78.73 L 278.30 78.31 L 277.91 77.91 L 277.53 77.51 L 277.23 77.07 L 277.08 76.59 L 277.15 76.09 L 277.41 75.65 L 277.81 75.31 L 278.28 75.09 L 278.81 75.01 L 279.33 74.97 L 279.75 74.82 L 279.94 74.45 L 279.99 73.94 L 280.00 73.38 L 279.98 72.84 L 279.87 72.38 L 279.58 72.11 L 279.11 72.02 L 278.57 72.03 Z M 273.15 79.06 L 273.43 78.62 L 273.84 78.29 L 274.32 78.10 L 274.82 78.13 L 275.27 78.36 L 275.65 78.74 L 275.89 79.20 L 275.98 79.73 L 276.00 80.29 L 276.00 80.86 L 275.97 81.42 L 275.85 81.94 L 275.57 82.38 L 275.16 82.71 L 274.68 82.90 L 274.18 82.87 L 273.73 82.64 L 273.35 82.26 L 273.11 81.80 L 273.02 81.27 L 273.00 80.71 L 273.00 80.14 L 273.03 79.58 Z M 275.05 65.12 L 274.69 65.34 L 274.38 65.65 L 274.15 66.00 L 274.05 66.40 L 274.09 66.81 L 274.26 67.18 L 274.54 67.51 L 274.87 67.78 L 275.26 67.93 L 275.69 67.99 L 276.13 67.99 L 276.55 67.96 L 276.85 67.81 L 276.97 67.49 L 277.00 67.06 L 277.00 66.61 L 277.00 66.16 L 276.99 65.72 L 276.91 65.34 L 276.70 65.11 L 276.34 65.02 L 275.90 65.00 L 275.46 65.02 Z M 263.20 51.20 L 263.10 51.52 L 263.28 51.85 L 263.67 52.05 L 264.13 52.26 L 264.53 52.58 L 264.82 53.01 L 264.93 53.50 L 264.83 53.98 L 264.54 54.41 L 264.14 54.74 L 263.68 54.95 L 263.29 55.15 L 263.10 55.49 L 263.15 55.94 L 263.40 56.38 L 263.71 56.81 L 263.89 57.28 L 263.88 57.77 L 263.67 58.23 L 263.32 58.61 L 262.88 58.87 L 262.36 58.98 L 261.83 59.02 L 261.38 59.13 L 261.11 59.42 L 261.02 59.88 L 261.03 60.41 L 261.14 60.92 L 261.40 61.37 L 261.70 61.81 L 261.91 62.28 L 261.98 62.80 L 262.00 63.36 L 262.00 63.92 L 262.00 64.47 L 262.01 65.02 L 262.08 65.51 L 262.29 65.82 L 262.62 65.86 L 262.88 65.61 L 262.98 65.16 L 263.02 64.63 L 263.13 64.11 L 263.39 63.66 L 263.75 63.25 L 264.14 62.86 L 264.52 62.45 L 264.81 62.02 L 264.95 61.52 L 264.99 60.98 L 265.00 60.42 L 265.00 59.86 L 265.00 59.30 L 265.02 58.75 L 265.10 58.23 L 265.33 57.76 L 265.67 57.35 L 266.05 56.95 L 266.45 56.57 L 266.88 56.25 L 267.34 56.04 L 267.73 55.84 L 267.93 55.48 L 267.98 54.99 L 267.93 54.50 L 267.71 54.15 L 267.32 53.95 L 266.86 53.74 L 266.43 53.44 L 265.99 53.16 L 265.50 53.00 L 265.01 52.83 L 264.58 52.53 L 264.26 52.13 L 264.05 51.67 L 263.85 51.28 L 263.52 51.10 Z M 22.19 43.20 L 22.03 43.57 L 22.00 44.08 L 22.00 44.61 L 21.99 45.15 L 21.93 45.66 L 21.75 46.12 L 21.46 46.54 L 21.19 46.97 L 21.05 47.44 L 21.00 47.96 L 20.97 48.49 L 20.84 48.97 L 20.58 49.40 L 20.29 49.82 L 20.09 50.27 L 20.01 50.78 L 20.00 51.31 L 20.00 51.85 L 20.03 52.36 L 20.17 52.75 L 20.48 52.91 L 20.81 52.80 L 20.97 52.43 L 21.00 51.92 L 21.00 51.39 L 21.00 50.85 L 21.00 50.31 L 21.01 49.78 L 21.09 49.27 L 21.29 48.82 L 21.58 48.40 L 21.84 47.97 L 21.97 47.49 L 22.00 46.96 L 22.05 46.44 L 22.19 45.97 L 22.46 45.54 L 22.75 45.12 L 22.93 44.66 L 22.99 44.15 L 22.97 43.64 L 22.83 43.25 L 22.52 43.09 Z M 230.06 39.15 L 229.60 39.41 L 229.16 39.72 L 228.68 39.94 L 228.18 40.10 L 227.73 40.36 L 227.36 40.74 L 227.13 41.20 L 227.11 41.70 L 227.29 42.17 L 227.63 42.57 L 228.07 42.85 L 228.51 42.89 L 228.85 42.69 L 229.06 42.29 L 229.29 41.83 L 229.63 41.43 L 230.08 41.14 L 230.60 41.02 L 231.16 41.00 L 231.72 41.00 L 232.26 40.97 L 232.69 40.84 L 232.90 40.50 L 232.84 40.05 L 232.57 39.62 L 232.16 39.28 L 231.67 39.08 L 231.13 39.02 L 230.58 39.03 Z M 219.19 28.19 L 219.03 28.57 L 219.00 29.07 L 219.00 29.60 L 219.01 30.12 L 219.10 30.58 L 219.34 30.87 L 219.76 30.98 L 220.28 31.00 L 220.81 31.00 L 221.35 31.00 L 221.88 31.00 L 222.38 30.97 L 222.77 30.82 L 222.92 30.48 L 222.85 30.04 L 222.59 29.62 L 222.23 29.23 L 221.85 28.85 L 221.47 28.49 L 221.05 28.21 L 220.58 28.05 L 220.07 28.01 L 219.57 28.03 Z M 182.06 11.17 L 181.60 11.46 L 181.26 11.90 L 181.07 12.43 L 181.00 13.00 L 180.93 13.57 L 180.74 14.10 L 180.44 14.58 L 180.17 15.05 L 180.13 15.51 L 180.36 15.82 L 180.79 15.86 L 181.27 15.64 L 181.72 15.27 L 182.15 14.85 L 182.57 14.43 L 183.00 14.00 L 183.41 13.57 L 183.74 13.10 L 183.90 12.59 L 183.83 12.06 L 183.54 11.60 L 183.10 11.26 L 182.59 11.10 Z M 244.24 3.30 L 244.06 3.79 L 244.09 4.46 L 244.30 5.10 L 244.71 5.68 L 245.20 6.22 L 245.62 6.78 L 245.89 7.42 L 245.95 8.11 L 245.84 8.79 L 245.50 9.37 L 244.98 9.79 L 244.36 10.07 L 243.74 10.37 L 243.15 10.71 L 242.60 11.02 L 242.24 11.37 L 242.29 11.72 L 242.72 11.82 L 243.30 11.60 L 243.90 11.27 L 244.52 10.99 L 245.15 10.70 L 245.75 10.37 L 246.37 10.17 L 246.99 10.26 L 247.51 10.64 L 247.88 11.18 L 248.19 11.64 L 248.55 11.76 L 248.85 11.45 L 248.98 10.85 L 249.02 10.14 L 249.11 9.43 L 249.37 8.82 L 249.85 8.36 L 250.47 8.10 L 251.17 8.02 L 251.90 8.02 L 252.60 8.12 L 253.21 8.40 L 253.67 8.88 L 253.91 9.51 L 253.95 10.20 L 253.82 10.88 L 253.46 11.47 L 252.98 12.02 L 252.46 12.54 L 251.93 13.06 L 251.38 13.53 L 250.78 13.87 L 250.15 14.14 L 249.55 14.48 L 248.94 14.81 L 248.26 14.96 L 247.54 15.00 L 246.84 15.04 L 246.33 15.23 L 246.24 15.58 L 246.58 15.87 L 247.20 15.98 L 247.92 16.00 L 248.67 16.00 L 249.41 16.00 L 250.14 16.03 L 250.82 16.17 L 251.40 16.52 L 251.81 17.05 L 252.09 17.67 L 252.39 18.29 L 252.73 18.89 L 253.01 19.52 L 253.29 20.14 L 253.62 20.74 L 253.83 21.36 L 253.75 21.98 L 253.36 22.50 L 252.78 22.84 L 252.10 22.97 L 251.37 22.99 L 250.65 22.94 L 249.98 22.75 L 249.40 22.36 L 248.88 21.86 L 248.42 21.31 L 248.09 20.73 L 247.78 20.29 L 247.40 20.24 L 247.12 20.62 L 247.02 21.25 L 246.98 21.97 L 246.87 22.67 L 246.60 23.30 L 246.28 23.91 L 246.08 24.57 L 246.01 25.28 L 246.03 25.99 L 246.19 26.58 L 246.59 26.97 L 247.12 27.30 L 247.60 27.76 L 247.94 28.31 L 248.28 28.78 L 248.79 29.10 L 249.37 29.43 L 249.97 29.74 L 250.60 29.83 L 251.22 29.64 L 251.82 29.34 L 252.44 29.17 L 253.07 29.28 L 253.67 29.59 L 254.30 29.86 L 255.00 29.98 L 255.73 30.00 L 256.47 30.00 L 257.21 30.03 L 257.88 30.18 L 258.44 30.56 L 258.79 31.10 L 258.83 31.73 L 258.58 32.34 L 258.26 32.95 L 258.07 33.61 L 258.08 34.27 L 258.32 34.75 L 258.86 34.96 L 259.56 35.00 L 260.30 35.00 L 261.04 35.02 L 261.73 35.15 L 262.32 35.47 L 262.73 35.98 L 262.94 36.63 L 262.99 37.35 L 263.00 38.09 L 262.98 38.82 L 262.90 39.53 L 262.67 40.18 L 262.35 40.79 L 262.11 41.43 L 262.06 42.10 L 262.23 42.62 L 262.66 42.81 L 263.22 42.62 L 263.77 42.20 L 264.28 41.69 L 264.70 41.12 L 265.00 40.50 L 265.31 39.90 L 265.76 39.42 L 266.35 39.17 L 266.97 39.24 L 267.49 39.62 L 267.84 40.20 L 267.97 40.88 L 268.01 41.61 L 268.08 42.28 L 268.33 42.79 L 268.82 43.12 L 269.36 43.49 L 269.78 44.01 L 270.06 44.63 L 270.36 45.25 L 270.69 45.86 L 270.91 46.51 L 270.95 47.21 L 270.82 47.88 L 270.45 48.44 L 269.89 48.81 L 269.23 48.99 L 268.61 49.12 L 268.23 49.44 L 268.22 49.95 L 268.56 50.51 L 269.04 51.05 L 269.51 51.60 L 269.87 52.20 L 270.14 52.83 L 270.47 53.43 L 270.82 54.01 L 271.14 54.54 L 271.57 54.87 L 272.19 55.01 L 272.86 55.17 L 273.46 55.49 L 274.04 55.78 L 274.56 55.77 L 274.88 55.39 L 275.01 54.77 L 275.18 54.10 L 275.50 53.50 L 275.82 52.89 L 275.95 52.22 L 275.87 51.60 L 275.56 51.15 L 275.04 50.83 L 274.53 50.42 L 274.20 49.85 L 274.18 49.23 L 274.49 48.66 L 275.01 48.25 L 275.65 48.04 L 276.30 47.92 L 276.80 47.65 L 277.12 47.16 L 277.49 46.59 L 277.96 46.05 L 278.45 45.50 L 278.79 44.92 L 278.83 44.29 L 278.59 43.67 L 278.27 43.07 L 278.07 42.41 L 278.05 41.70 L 278.21 41.03 L 278.54 40.43 L 278.87 39.82 L 279.13 39.19 L 279.46 38.58 L 279.79 37.97 L 279.94 37.30 L 279.93 36.60 L 279.74 35.94 L 279.41 35.33 L 279.14 34.71 L 279.02 34.01 L 278.99 33.28 L 278.92 32.57 L 278.70 31.93 L 278.26 31.43 L 277.66 31.13 L 276.97 31.02 L 276.23 31.00 L 275.49 31.00 L 274.75 31.00 L 274.01 31.00 L 273.26 31.00 L 272.52 31.00 L 271.78 31.00 L 271.04 31.00 L 270.29 31.00 L 269.55 31.00 L 268.82 30.97 L 268.14 30.82 L 267.57 30.46 L 267.19 29.91 L 267.02 29.24 L 266.92 28.54 L 266.69 27.91 L 266.24 27.42 L 265.64 27.13 L 264.94 27.02 L 264.21 26.99 L 263.50 26.91 L 262.85 26.69 L 262.25 26.37 L 261.63 26.17 L 260.99 26.25 L 260.39 26.55 L 259.77 26.84 L 259.09 26.95 L 258.40 26.88 L 257.79 26.61 L 257.34 26.13 L 257.09 25.50 L 257.01 24.79 L 257.00 24.05 L 257.00 23.31 L 257.00 22.57 L 257.00 21.82 L 256.98 21.09 L 256.88 20.39 L 256.63 19.75 L 256.31 19.14 L 256.09 18.49 L 256.01 17.78 L 256.00 17.04 L 256.00 16.30 L 256.00 15.55 L 256.03 14.82 L 256.18 14.14 L 256.54 13.57 L 257.06 13.16 L 257.57 12.84 L 257.88 12.39 L 257.98 11.75 L 258.00 11.02 L 258.00 10.28 L 258.00 9.54 L 257.96 8.84 L 257.75 8.29 L 257.30 7.94 L 256.75 7.59 L 256.32 7.10 L 256.08 6.47 L 255.97 5.79 L 255.74 5.26 L 255.28 4.92 L 254.72 4.57 L 254.27 4.09 L 253.94 3.56 L 253.54 3.18 L 252.97 3.06 L 252.41 3.20 L 252.03 3.59 L 251.70 4.14 L 251.27 4.70 L 250.76 5.21 L 250.20 5.63 L 249.58 5.83 L 248.95 5.73 L 248.35 5.42 L 247.73 5.14 L 247.04 5.00 L 246.35 4.87 L 245.75 4.58 L 245.29 4.11 L 244.96 3.58 L 244.61 3.23 Z M 228.06 3.15 L 227.62 3.42 L 227.22 3.79 L 226.82 4.18 L 226.42 4.55 L 225.98 4.84 L 225.50 5.00 L 225.01 5.17 L 224.59 5.46 L 224.27 5.86 L 224.10 6.31 L 224.17 6.71 L 224.50 6.92 L 224.98 6.99 L 225.51 7.04 L 226.01 7.19 L 226.44 7.47 L 226.85 7.85 L 227.24 8.24 L 227.60 8.64 L 227.88 9.08 L 228.05 9.52 L 228.30 9.84 L 228.73 9.97 L 229.26 10.00 L 229.81 10.00 L 230.36 10.00 L 230.92 10.00 L 231.43 9.96 L 231.81 9.78 L 231.97 9.38 L 232.01 8.86 L 232.08 8.34 L 232.27 7.86 L 232.58 7.44 L 232.96 7.04 L 233.36 6.65 L 233.78 6.32 L 234.24 6.10 L 234.76 6.01 L 235.28 5.97 L 235.70 5.84 L 235.92 5.50 L 235.98 5.02 L 235.94 4.53 L 235.74 4.18 L 235.33 4.03 L 234.80 4.00 L 234.25 4.00 L 233.69 4.00 L 233.14 4.00 L 232.58 4.00 L 232.03 4.00 L 231.47 4.00 L 230.92 3.99 L 230.39 3.93 L 229.90 3.76 L 229.47 3.47 L 229.03 3.20 L 228.55 3.07 Z M 44.18 3.18 L 44.06 3.50 L 44.18 3.82 L 44.53 3.97 L 45.00 4.00 L 45.50 4.00 L 46.00 4.00 L 46.50 4.00 L 47.00 4.00 L 47.50 4.00 L 48.00 4.00 L 48.50 4.00 L 49.00 4.00 L 49.50 4.00 L 50.00 4.00 L 50.50 4.00 L 51.00 4.00 L 51.50 4.00 L 52.00 4.00 L 52.47 3.97 L 52.82 3.82 L 52.94 3.50 L 52.82 3.18 L 52.47 3.03 L 52.00 3.00 L 51.50 3.00 L 51.00 3.00 L 50.50 3.00 L 50.00 3.00 L 49.50 3.00 L 49.00 3.00 L 48.50 3.00 L 48.00 3.00 L 47.50 3.00 L 47.00 3.00 L 46.50 3.00 L 46.00 3.00 L 45.50 3.00 L 45.00 3.00 L 44.53 3.03 Z M 273.18 0.18 L 273.03 0.53 L 273.00 1.00 L 273.03 1.47 L 273.18 1.82 L 273.53 1.97 L 274.00 2.00 L 274.50 2.00 L 275.00 2.00 L 275.50 2.00 L 276.00 2.00 L 276.50 2.00 L 277.00 2.00 L 277.50 2.00 L 278.00 2.00 L 278.47 1.97 L 278.82 1.82 L 278.97 1.47 L 279.00 1.00 L 278.97 0.53 L 278.82 0.18 L 278.47 0.03 L 278.00 0.00 L 277.50 0.00 L 277.00 0.00 L 276.50 0.00 L 276.00 0.00 L 275.50 0.00 L 275.00 0.00 L 274.50 0.00 L 274.00 0.00 L 273.53 0.03 Z" fill="rgb(171,167,164)" fill-rule="evenodd"/>
  <path d="M 215.06 162.14 L 214.63 162.42 L 214.30 162.81 L 214.11 163.27 L 214.11 163.75 L 214.30 164.21 L 214.61 164.63 L 214.87 165.06 L 215.05 165.51 L 215.28 165.84 L 215.69 165.97 L 216.22 166.00 L 216.76 166.00 L 217.30 166.02 L 217.82 166.11 L 218.27 166.34 L 218.69 166.64 L 219.15 166.88 L 219.65 166.98 L 220.19 167.00 L 220.74 167.00 L 221.25 166.98 L 221.58 166.89 L 221.59 166.66 L 221.36 166.31 L 221.12 165.87 L 221.02 165.37 L 221.00 164.82 L 221.00 164.28 L 220.98 163.75 L 220.85 163.32 L 220.55 163.07 L 220.12 162.89 L 219.68 162.64 L 219.26 162.33 L 218.80 162.11 L 218.29 162.02 L 217.75 162.00 L 217.20 162.00 L 216.65 162.00 L 216.10 162.00 L 215.56 162.02 Z M 243.05 142.15 L 242.62 142.40 L 242.19 142.71 L 241.75 142.93 L 241.34 143.12 L 241.08 143.43 L 240.90 143.85 L 240.65 144.29 L 240.35 144.72 L 240.12 145.17 L 240.02 145.68 L 240.00 146.22 L 240.00 146.77 L 240.00 147.32 L 240.00 147.87 L 240.00 148.42 L 240.01 148.96 L 240.06 149.47 L 240.25 149.82 L 240.65 149.97 L 241.17 149.98 L 241.69 149.92 L 242.16 149.72 L 242.55 149.40 L 242.84 148.98 L 243.00 148.49 L 243.17 148.01 L 243.46 147.59 L 243.86 147.27 L 244.33 147.08 L 244.85 147.01 L 245.36 146.97 L 245.76 146.82 L 245.98 146.47 L 246.16 146.02 L 246.45 145.60 L 246.84 145.28 L 247.31 145.08 L 247.83 145.01 L 248.35 144.97 L 248.75 144.82 L 248.94 144.47 L 248.98 143.97 L 248.93 143.50 L 248.71 143.17 L 248.32 143.10 L 247.87 143.25 L 247.45 143.54 L 247.01 143.82 L 246.52 143.96 L 245.99 143.99 L 245.46 143.95 L 244.97 143.80 L 244.55 143.50 L 244.24 143.10 L 244.04 142.65 L 243.84 142.27 L 243.50 142.09 Z M 252.19 137.19 L 252.03 137.54 L 252.01 138.02 L 252.03 138.52 L 252.15 138.98 L 252.41 139.37 L 252.77 139.69 L 253.19 139.89 L 253.65 139.92 L 254.09 139.78 L 254.48 139.50 L 254.85 139.15 L 255.21 138.79 L 255.55 138.42 L 255.82 138.03 L 255.93 137.60 L 255.83 137.24 L 255.51 137.06 L 255.05 137.01 L 254.55 137.00 L 254.04 137.00 L 253.53 137.00 L 253.02 137.00 L 252.54 137.03 Z M 280.18 0.18 L 280.03 0.53 L 280.00 1.00 L 280.03 1.47 L 280.18 1.82 L 280.53 1.97 L 281.00 2.00 L 281.50 2.00 L 282.00 2.00 L 282.50 2.00 L 283.00 2.00 L 283.50 2.00 L 284.00 2.00 L 284.50 2.00 L 285.00 2.00 L 285.50 2.00 L 286.00 2.00 L 286.50 2.00 L 287.00 2.00 L 287.50 2.00 L 288.00 2.00 L 288.50 2.00 L 289.00 2.00 L 289.50 2.00 L 290.00 2.00 L 290.50 2.00 L 291.00 2.00 L 291.50 2.00 L 292.00 2.00 L 292.50 2.00 L 293.00 2.00 L 293.50 2.00 L 294.00 2.00 L 294.50 2.00 L 295.00 2.00 L 295.50 2.00 L 296.00 2.00 L 296.50 2.00 L 297.00 2.00 L 297.50 2.00 L 298.00 2.00 L 298.47 1.97 L 298.82 1.82 L 298.97 1.47 L 299.00 1.00 L 298.97 0.53 L 298.82 0.18 L 298.47 0.03 L 298.00 0.00 L 297.50 0.00 L 297.00 0.00 L 296.50 0.00 L 296.00 0.00 L 295.50 0.00 L 295.00 0.00 L 294.50 0.00 L 294.00 0.00 L 293.50 0.00 L 293.00 0.00 L 292.50 0.00 L 292.00 0.00 L 291.50 0.00 L 291.00 0.00 L 290.50 0.00 L 290.00 0.00 L 289.50 0.00 L 289.00 0.00 L 288.50 0.00 L 288.00 0.00 L 287.50 0.00 L 287.00 0.00 L 286.50 0.00 L 286.00 0.00 L 285.50 0.00 L 285.00 0.00 L 284.50 0.00 L 284.00 0.00 L 283.50 0.00 L 283.00 0.00 L 282.50 0.00 L 282.00 0.00 L 281.50 0.00 L 281.00 0.00 L 280.53 0.03 Z M 263.18 0.18 L 263.03 0.53 L 263.00 1.00 L 263.03 1.47 L 263.18 1.82 L 263.53 1.97 L 264.00 2.00 L 264.50 2.00 L 265.00 2.00 L 265.50 2.00 L 266.00 2.00 L 266.50 2.00 L 267.00 2.00 L 267.50 2.00 L 268.00 2.00 L 268.50 2.00 L 269.00 2.00 L 269.50 2.00 L 270.00 2.00 L 270.50 2.00 L 271.00 2.00 L 271.47 1.97 L 271.82 1.82 L 271.97 1.47 L 272.00 1.00 L 271.97 0.53 L 271.82 0.18 L 271.47 0.03 L 271.00 0.00 L 270.50 0.00 L 270.00 0.00 L 269.50 0.00 L 269.00 0.00 L 268.50 0.00 L 268.00 0.00 L 267.50 0.00 L 267.00 0.00 L 266.50 0.00 L 266.00 0.00 L 265.50 0.00 L 265.00 0.00 L 264.50 0.00 L 264.00 0.00 L 263.53 0.03 Z M 48.61 0.48 L 50.54 1.97 L 54.25 2.96 L 52.29 4.94 L 47.97 5.35 L 43.89 5.62 L 39.67 4.95 L 35.78 4.67 L 32.36 6.92 L 31.06 10.18 L 31.89 14.31 L 30.80 18.02 L 29.40 21.62 L 27.40 25.17 L 26.79 28.20 L 28.82 31.33 L 26.90 34.26 L 25.21 37.57 L 24.22 41.65 L 23.40 45.81 L 22.54 49.73 L 24.77 52.02 L 25.83 55.82 L 23.60 56.99 L 21.15 54.50 L 18.42 55.96 L 16.91 59.63 L 13.56 62.18 L 9.89 64.18 L 7.12 67.04 L 5.27 70.64 L 5.00 75.03 L 5.00 79.53 L 5.00 84.04 L 5.00 88.54 L 5.04 93.02 L 5.54 97.04 L 5.00 101.21 L 5.00 105.71 L 5.00 110.21 L 5.05 114.67 L 6.93 117.49 L 6.99 120.71 L 5.15 124.04 L 5.35 128.05 L 7.10 127.03 L 9.56 124.58 L 10.22 127.43 L 8.51 130.90 L 5.62 132.77 L 6.23 136.49 L 7.65 140.35 L 6.71 143.39 L 9.29 145.35 L 13.33 146.44 L 17.18 147.71 L 19.66 150.44 L 19.46 154.38 L 21.06 158.01 L 22.59 161.54 L 19.22 162.95 L 15.72 161.47 L 12.70 159.21 L 13.59 156.10 L 12.49 152.57 L 11.59 152.69 L 11.62 156.66 L 8.75 156.52 L 5.94 154.62 L 5.47 157.28 L 9.11 158.24 L 9.83 160.61 L 8.60 163.11 L 8.58 166.43 L 10.71 164.92 L 13.45 165.97 L 16.72 165.88 L 19.88 164.31 L 22.95 163.65 L 25.86 164.54 L 27.38 161.87 L 29.22 158.45 L 32.40 159.18 L 31.52 162.16 L 32.31 165.91 L 35.60 166.85 L 38.75 165.56 L 41.96 166.93 L 46.40 167.00 L 50.90 167.00 L 55.40 167.00 L 59.90 167.00 L 64.40 167.00 L 68.90 167.00 L 73.40 167.00 L 77.90 167.00 L 82.40 167.00 L 86.90 167.00 L 91.41 167.00 L 95.91 167.00 L 100.41 167.00 L 104.91 167.00 L 109.41 167.00 L 113.91 167.00 L 118.41 167.00 L 122.91 167.00 L 127.41 167.00 L 131.91 167.00 L 136.42 167.00 L 140.92 167.00 L 145.42 167.00 L 149.92 167.00 L 154.42 167.00 L 158.92 167.00 L 163.42 167.00 L 167.80 166.70 L 171.76 166.56 L 175.66 166.46 L 179.56 166.47 L 183.74 165.71 L 187.93 165.05 L 191.96 166.17 L 196.12 167.00 L 200.62 167.00 L 205.11 167.00 L 208.64 166.02 L 208.44 162.67 L 204.80 163.02 L 200.67 163.91 L 196.28 163.86 L 194.44 161.31 L 197.82 159.64 L 201.47 157.58 L 205.10 156.22 L 203.71 153.91 L 200.76 154.59 L 198.53 152.92 L 200.60 149.81 L 203.88 147.90 L 207.60 146.50 L 211.64 146.88 L 215.39 145.51 L 219.21 145.40 L 222.53 143.02 L 225.35 140.58 L 227.83 142.60 L 231.69 142.50 L 235.33 143.61 L 237.55 141.97 L 234.27 140.86 L 232.96 138.64 L 236.29 136.34 L 239.83 134.64 L 241.80 131.01 L 244.69 128.26 L 248.85 128.42 L 252.06 130.33 L 255.86 131.70 L 259.64 130.40 L 261.36 127.73 L 258.31 127.50 L 254.92 128.73 L 253.56 126.01 L 255.81 122.98 L 258.49 120.48 L 259.02 116.48 L 259.87 112.33 L 261.70 108.73 L 262.98 105.19 L 263.25 100.84 L 266.13 98.45 L 267.71 95.14 L 264.89 92.92 L 262.33 90.14 L 263.53 86.32 L 265.61 83.51 L 267.25 82.52 L 266.97 79.25 L 267.00 75.99 L 266.95 72.44 L 267.47 69.14 L 263.76 67.94 L 261.09 65.60 L 260.26 61.47 L 261.22 58.03 L 260.09 58.52 L 257.72 61.52 L 255.34 61.44 L 256.19 57.62 L 257.08 53.49 L 259.46 50.58 L 263.61 50.27 L 266.40 50.00 L 265.21 46.46 L 263.21 44.61 L 259.88 43.75 L 257.93 45.70 L 255.38 47.58 L 254.81 44.41 L 256.57 40.96 L 258.77 37.83 L 259.97 36.50 L 256.47 36.23 L 252.71 35.04 L 252.47 31.38 L 250.23 30.78 L 246.51 29.39 L 245.09 25.56 L 245.71 21.54 L 245.56 17.74 L 245.94 14.33 L 244.57 13.04 L 240.33 13.39 L 238.03 16.30 L 234.93 15.77 L 232.15 16.72 L 228.97 15.19 L 229.63 12.27 L 230.70 11.18 L 227.13 9.97 L 223.90 8.25 L 223.11 4.39 L 225.78 2.06 L 230.25 2.00 L 234.76 2.00 L 239.26 2.00 L 243.76 2.00 L 248.26 2.00 L 252.23 1.58 L 250.69 0.05 L 246.24 0.00 L 241.74 0.00 L 237.24 0.00 L 232.74 0.00 L 228.23 0.00 L 223.73 0.00 L 219.23 0.00 L 215.55 0.65 L 217.22 2.85 L 217.10 6.20 L 213.56 5.84 L 210.75 6.54 L 207.50 7.47 L 204.35 5.46 L 205.63 2.31 L 209.90 1.94 L 211.09 0.37 L 207.04 0.00 L 202.53 0.00 L 198.03 0.00 L 193.53 0.00 L 189.03 0.00 L 184.53 0.00 L 180.03 0.00 L 175.53 0.00 L 171.03 0.00 L 166.53 0.00 L 162.03 0.00 L 157.52 0.00 L 153.02 0.00 L 148.52 0.00 L 144.02 0.00 L 139.52 0.00 L 135.02 0.00 L 130.52 0.00 L 126.02 0.00 L 121.52 0.00 L 117.02 0.00 L 112.51 0.00 L 108.01 0.00 L 103.51 0.00 L 99.01 0.00 L 94.51 0.00 L 90.01 0.00 L 85.51 0.00 L 81.01 0.00 L 76.51 0.00 L 72.01 0.00 L 67.50 0.00 L 63.00 0.00 L 58.50 0.00 L 54.00 0.00 L 49.60 0.09 Z M 52.15 162.06 L 52.43 161.62 L 52.84 161.29 L 53.32 161.10 L 53.82 161.13 L 54.27 161.36 L 54.65 161.74 L 54.89 162.20 L 54.98 162.73 L 55.00 163.29 L 55.00 163.86 L 54.97 164.42 L 54.85 164.94 L 54.57 165.38 L 54.16 165.71 L 53.68 165.90 L 53.18 165.87 L 52.73 165.64 L 52.35 165.26 L 52.11 164.80 L 52.02 164.27 L 52.00 163.71 L 52.00 163.14 L 52.03 162.58 Z M 39.13 162.05 L 39.37 161.67 L 39.70 161.34 L 40.09 161.12 L 40.54 161.02 L 41.01 161.00 L 41.49 161.02 L 41.94 161.12 L 42.32 161.36 L 42.65 161.69 L 42.88 162.08 L 42.96 162.51 L 42.87 162.95 L 42.63 163.33 L 42.30 163.66 L 41.91 163.88 L 41.46 163.98 L 40.99 164.00 L 40.51 163.98 L 40.06 163.88 L 39.68 163.64 L 39.35 163.31 L 39.12 162.92 L 39.04 162.49 Z M 13.00 143.00 L 13.43 142.59 L 13.90 142.26 L 14.43 142.07 L 15.00 142.02 L 15.57 142.07 L 16.10 142.26 L 16.54 142.60 L 16.83 143.06 L 16.90 143.59 L 16.74 144.10 L 16.40 144.54 L 15.94 144.85 L 15.41 145.04 L 14.90 145.25 L 14.42 145.56 L 13.94 145.84 L 13.41 145.90 L 12.90 145.74 L 12.46 145.40 L 12.17 144.94 L 12.10 144.41 L 12.26 143.90 L 12.59 143.43 Z M 12.15 132.06 L 12.43 131.62 L 12.84 131.29 L 13.32 131.10 L 13.82 131.13 L 14.27 131.36 L 14.65 131.74 L 14.89 132.20 L 14.98 132.73 L 15.00 133.29 L 15.00 133.86 L 15.00 134.43 L 14.99 135.00 L 14.95 135.55 L 14.79 136.05 L 14.48 136.49 L 14.10 136.90 L 13.69 137.30 L 13.27 137.65 L 12.80 137.89 L 12.27 137.98 L 11.71 137.98 L 11.19 137.88 L 10.73 137.64 L 10.36 137.26 L 10.13 136.80 L 10.11 136.30 L 10.29 135.83 L 10.63 135.42 L 11.07 135.13 L 11.51 134.94 L 11.84 134.69 L 11.97 134.25 L 12.00 133.71 L 12.00 133.14 L 12.03 132.58 Z M 250.00 117.00 L 250.42 116.60 L 250.86 116.27 L 251.37 116.08 L 251.92 116.01 L 252.50 116.00 L 253.08 116.01 L 253.63 116.08 L 254.14 116.27 L 254.59 116.58 L 255.06 116.85 L 255.59 116.98 L 256.16 117.01 L 256.71 117.10 L 257.20 117.32 L 257.60 117.68 L 257.86 118.13 L 257.90 118.64 L 257.72 119.13 L 257.39 119.56 L 256.94 119.85 L 256.41 119.97 L 255.84 119.98 L 255.29 119.90 L 254.80 119.69 L 254.34 119.39 L 253.87 119.14 L 253.36 119.10 L 252.86 119.27 L 252.41 119.58 L 251.94 119.85 L 251.41 119.97 L 250.84 119.98 L 250.29 119.90 L 249.80 119.68 L 249.40 119.32 L 249.14 118.87 L 249.10 118.36 L 249.27 117.86 L 249.60 117.42 Z M 249.00 70.00 L 249.37 69.64 L 249.76 69.32 L 250.19 69.11 L 250.65 69.08 L 251.09 69.23 L 251.48 69.52 L 251.77 69.91 L 251.92 70.35 L 251.89 70.81 L 251.68 71.24 L 251.36 71.63 L 251.00 72.00 L 250.63 72.36 L 250.24 72.68 L 249.81 72.89 L 249.35 72.92 L 248.91 72.77 L 248.52 72.48 L 248.23 72.09 L 248.08 71.65 L 248.11 71.19 L 248.32 70.76 L 248.64 70.37 Z M 246.15 63.06 L 246.43 62.62 L 246.84 62.28 L 247.33 62.08 L 247.87 62.02 L 248.42 62.03 L 248.94 62.15 L 249.38 62.43 L 249.72 62.84 L 249.92 63.33 L 249.98 63.87 L 249.97 64.42 L 249.85 64.94 L 249.57 65.38 L 249.16 65.72 L 248.67 65.92 L 248.13 65.98 L 247.58 65.97 L 247.06 65.85 L 246.62 65.57 L 246.28 65.16 L 246.08 64.67 L 246.02 64.13 L 246.03 63.58 Z M 27.13 57.05 L 27.37 56.67 L 27.70 56.34 L 28.09 56.12 L 28.54 56.02 L 29.01 56.00 L 29.49 56.02 L 29.94 56.12 L 30.32 56.36 L 30.65 56.69 L 30.88 57.08 L 30.96 57.51 L 30.87 57.95 L 30.63 58.33 L 30.30 58.66 L 29.91 58.88 L 29.46 58.98 L 28.99 59.00 L 28.51 58.98 L 28.06 58.88 L 27.68 58.64 L 27.35 58.31 L 27.12 57.92 L 27.04 57.49 Z M 215.00 28.00 L 215.41 27.61 L 215.84 27.28 L 216.32 27.08 L 216.86 27.01 L 217.42 27.00 L 217.99 27.00 L 218.56 27.00 L 219.13 27.00 L 219.69 27.00 L 220.25 27.02 L 220.78 27.11 L 221.26 27.33 L 221.70 27.64 L 222.17 27.88 L 222.69 27.98 L 223.25 28.00 L 223.82 28.00 L 224.39 28.00 L 224.95 28.00 L 225.52 28.00 L 226.08 28.01 L 226.63 28.07 L 227.12 28.26 L 227.53 28.59 L 227.82 29.02 L 227.92 29.51 L 227.81 30.00 L 227.54 30.46 L 227.24 30.90 L 227.05 31.39 L 226.88 31.88 L 226.60 32.33 L 226.21 32.68 L 225.74 32.88 L 225.24 32.88 L 224.77 32.68 L 224.33 32.38 L 223.88 32.14 L 223.44 32.12 L 223.14 32.36 L 223.02 32.80 L 223.02 33.34 L 223.13 33.86 L 223.39 34.32 L 223.75 34.74 L 224.15 35.14 L 224.56 35.52 L 225.00 35.82 L 225.51 35.96 L 226.06 36.00 L 226.63 36.00 L 227.20 36.00 L 227.76 36.00 L 228.32 36.02 L 228.85 36.12 L 229.30 36.38 L 229.66 36.76 L 229.91 37.21 L 230.11 37.63 L 230.43 37.89 L 230.90 37.99 L 231.44 38.03 L 231.96 38.16 L 232.41 38.43 L 232.86 38.73 L 233.34 38.94 L 233.83 39.11 L 234.29 39.37 L 234.65 39.75 L 234.88 40.21 L 234.89 40.71 L 234.70 41.18 L 234.36 41.58 L 233.92 41.86 L 233.40 41.98 L 232.85 42.01 L 232.31 42.09 L 231.83 42.29 L 231.42 42.63 L 231.14 43.07 L 230.97 43.57 L 230.78 44.06 L 230.47 44.48 L 230.04 44.79 L 229.54 44.95 L 228.99 44.99 L 228.43 45.00 L 227.88 45.02 L 227.41 45.12 L 227.12 45.40 L 227.02 45.86 L 226.98 46.40 L 226.86 46.92 L 226.58 47.36 L 226.18 47.70 L 225.70 47.91 L 225.16 47.98 L 224.61 47.97 L 224.09 47.86 L 223.63 47.59 L 223.22 47.22 L 222.82 46.82 L 222.42 46.42 L 222.02 46.02 L 221.63 45.61 L 221.30 45.18 L 221.11 44.71 L 221.12 44.21 L 221.35 43.75 L 221.71 43.37 L 222.17 43.12 L 222.70 43.02 L 223.26 43.00 L 223.82 43.00 L 224.36 42.97 L 224.76 42.81 L 224.95 42.43 L 225.01 41.91 L 225.07 41.37 L 225.26 40.88 L 225.59 40.47 L 226.01 40.16 L 226.47 39.98 L 226.80 39.75 L 226.87 39.42 L 226.64 39.14 L 226.19 39.03 L 225.68 39.03 L 225.26 39.18 L 225.02 39.53 L 224.83 39.99 L 224.54 40.43 L 224.16 40.84 L 223.75 41.24 L 223.34 41.61 L 222.88 41.87 L 222.36 41.98 L 221.80 42.00 L 221.23 42.00 L 220.67 41.98 L 220.15 41.87 L 219.69 41.62 L 219.27 41.26 L 218.87 40.86 L 218.49 40.45 L 218.19 40.01 L 218.04 39.50 L 218.01 38.95 L 218.00 38.39 L 218.00 37.82 L 218.00 37.25 L 218.00 36.68 L 218.00 36.12 L 218.03 35.56 L 218.15 35.04 L 218.42 34.59 L 218.73 34.15 L 218.90 33.67 L 218.87 33.17 L 218.63 32.72 L 218.25 32.35 L 217.79 32.11 L 217.26 32.02 L 216.70 32.00 L 216.13 32.00 L 215.57 32.00 L 215.00 31.99 L 214.45 31.95 L 213.95 31.79 L 213.53 31.48 L 213.22 31.05 L 213.08 30.56 L 213.15 30.07 L 213.42 29.62 L 213.80 29.20 L 214.20 28.80 L 214.60 28.40 Z M 179.15 10.06 L 179.44 9.62 L 179.86 9.28 L 180.36 9.08 L 180.91 9.02 L 181.47 9.04 L 181.99 9.18 L 182.45 9.48 L 182.86 9.87 L 183.27 10.27 L 183.68 10.68 L 184.09 11.10 L 184.48 11.51 L 184.79 11.96 L 184.91 12.47 L 184.83 12.97 L 184.54 13.43 L 184.15 13.85 L 183.74 14.26 L 183.33 14.67 L 182.93 15.08 L 182.53 15.49 L 182.22 15.94 L 182.03 16.44 L 181.85 16.95 L 181.55 17.39 L 181.13 17.73 L 180.63 17.92 L 180.08 17.99 L 179.50 18.00 L 178.92 18.00 L 178.34 18.00 L 177.77 17.98 L 177.23 17.89 L 176.76 17.65 L 176.37 17.28 L 176.13 16.82 L 176.11 16.31 L 176.30 15.83 L 176.65 15.42 L 177.10 15.14 L 177.63 15.02 L 178.18 14.98 L 178.64 14.85 L 178.90 14.54 L 178.98 14.04 L 179.00 13.48 L 179.00 12.90 L 179.00 12.32 L 179.00 11.74 L 179.00 11.16 L 179.03 10.59 Z M 38.14 7.05 L 38.39 6.65 L 38.76 6.32 L 39.19 6.11 L 39.65 6.08 L 40.09 6.23 L 40.49 6.52 L 40.87 6.87 L 41.23 7.24 L 41.58 7.61 L 41.84 8.02 L 41.94 8.48 L 41.86 8.95 L 41.61 9.35 L 41.24 9.68 L 40.81 9.89 L 40.35 9.92 L 39.91 9.77 L 39.51 9.48 L 39.13 9.13 L 38.77 8.76 L 38.42 8.39 L 38.16 7.98 L 38.06 7.52 Z M 166.15 3.06 L 166.42 2.63 L 166.80 2.30 L 167.26 2.09 L 167.78 2.02 L 168.32 2.00 L 168.86 2.00 L 169.41 2.00 L 169.95 2.00 L 170.50 2.00 L 171.05 2.00 L 171.59 2.00 L 172.13 2.01 L 172.65 2.07 L 173.12 2.25 L 173.52 2.57 L 173.81 2.99 L 173.93 3.46 L 173.85 3.94 L 173.58 4.37 L 173.20 4.70 L 172.74 4.91 L 172.22 4.98 L 171.68 5.00 L 171.14 5.00 L 170.59 5.00 L 170.05 5.00 L 169.50 5.00 L 168.95 5.00 L 168.41 5.00 L 167.87 4.99 L 167.35 4.93 L 166.88 4.75 L 166.48 4.43 L 166.19 4.01 L 166.07 3.54 Z M 147.15 3.06 L 147.42 2.63 L 147.80 2.30 L 148.26 2.09 L 148.78 2.02 L 149.32 2.00 L 149.86 2.00 L 150.41 2.00 L 150.95 2.00 L 151.50 2.00 L 152.05 2.00 L 152.59 2.00 L 153.13 2.01 L 153.65 2.07 L 154.12 2.25 L 154.52 2.57 L 154.81 2.99 L 154.93 3.46 L 154.85 3.94 L 154.58 4.37 L 154.20 4.70 L 153.74 4.91 L 153.22 4.98 L 152.68 5.00 L 152.14 5.00 L 151.59 5.00 L 151.05 5.00 L 150.50 5.00 L 149.95 5.00 L 149.41 5.00 L 148.87 4.99 L 148.35 4.93 L 147.88 4.75 L 147.48 4.43 L 147.19 4.01 L 147.07 3.54 Z" fill="rgb(229,226,221)" fill-rule="evenodd"/>
</svg>