<svg xmlns="http://www.w3.org/2000/svg" width="333" height="146" viewBox="0 0 333 146" role="img" aria-label="08_plates_08">
  <title>08_plates_08</title>
  <path d="M 99.19 141.19 L 99.03 141.55 L 99.00 142.04 L 99.00 142.56 L 98.99 143.08 L 98.95 143.58 L 98.81 144.04 L 98.53 144.43 L 98.15 144.74 L 97.70 144.92 L 97.21 144.99 L 96.70 145.00 L 96.18 145.00 L 95.66 145.00 L 95.14 145.00 L 94.62 145.00 L 94.10 145.00 L 93.58 145.00 L 93.06 145.00 L 92.54 145.00 L 92.02 145.00 L 91.50 145.00 L 90.98 145.00 L 90.46 145.00 L 89.94 145.00 L 89.42 145.00 L 88.90 145.00 L 88.38 145.00 L 87.86 145.00 L 87.34 145.00 L 86.82 145.00 L 86.31 145.00 L 85.82 145.00 L 85.48 145.00 L 85.48 145.00 L 85.81 145.00 L 86.30 145.00 L 86.82 145.00 L 87.34 145.00 L 87.86 145.00 L 88.37 145.00 L 88.89 145.00 L 89.41 145.00 L 89.93 145.00 L 90.45 145.00 L 90.97 145.00 L 91.49 145.00 L 92.01 145.00 L 92.53 145.00 L 93.05 145.00 L 93.57 145.00 L 94.09 145.00 L 94.61 145.00 L 95.13 145.00 L 95.65 145.00 L 96.17 145.00 L 96.69 145.00 L 97.21 145.00 L 97.73 145.00 L 98.25 145.00 L 98.77 145.00 L 99.29 145.00 L 99.81 145.00 L 100.33 145.00 L 100.85 145.00 L 101.37 145.00 L 101.89 145.00 L 102.40 144.98 L 102.88 144.88 L 103.30 144.64 L 103.64 144.30 L 103.87 143.89 L 103.91 143.47 L 103.73 143.15 L 103.37 142.97 L 102.93 142.79 L 102.53 142.51 L 102.16 142.16 L 101.79 141.79 L 101.42 141.44 L 101.01 141.17 L 100.54 141.04 L 100.04 141.01 L 99.55 141.03 Z M 101.20 129.20 L 100.98 129.58 L 100.79 130.05 L 100.47 130.47 L 100.05 130.78 L 99.55 130.95 L 99.00 131.00 L 98.45 131.05 L 97.95 131.21 L 97.50 131.50 L 97.05 131.79 L 96.56 131.97 L 96.06 132.14 L 95.62 132.43 L 95.28 132.84 L 95.08 133.33 L 95.01 133.87 L 94.98 134.42 L 94.85 134.94 L 94.57 135.38 L 94.16 135.72 L 93.70 135.94 L 93.30 136.15 L 93.11 136.47 L 93.22 136.80 L 93.61 136.97 L 94.14 137.01 L 94.67 137.08 L 95.16 137.28 L 95.60 137.59 L 96.05 137.84 L 96.50 137.90 L 96.82 137.70 L 96.89 137.30 L 96.72 136.84 L 96.41 136.40 L 96.15 135.94 L 96.08 135.44 L 96.22 134.95 L 96.53 134.53 L 96.95 134.21 L 97.44 134.03 L 97.94 133.86 L 98.40 133.59 L 98.84 133.28 L 99.32 133.10 L 99.82 133.13 L 100.29 133.35 L 100.73 133.65 L 101.18 133.87 L 101.61 133.86 L 101.90 133.59 L 102.10 133.17 L 102.35 132.71 L 102.66 132.27 L 102.90 131.80 L 103.07 131.30 L 103.29 130.83 L 103.59 130.38 L 103.85 129.94 L 103.89 129.49 L 103.68 129.16 L 103.25 129.03 L 102.71 129.00 L 102.14 129.00 L 101.60 129.04 Z M 299.20 128.20 L 299.03 128.58 L 299.00 129.10 L 299.00 129.64 L 299.02 130.18 L 299.12 130.62 L 299.40 130.91 L 299.81 131.09 L 300.25 131.33 L 300.62 131.69 L 300.87 132.12 L 300.92 132.61 L 300.77 133.08 L 300.47 133.48 L 300.06 133.78 L 299.58 133.92 L 299.10 133.86 L 298.66 133.62 L 298.24 133.32 L 297.79 133.12 L 297.38 133.14 L 297.13 133.39 L 297.12 133.80 L 297.33 134.25 L 297.63 134.67 L 297.87 135.11 L 297.98 135.62 L 298.00 136.16 L 298.00 136.71 L 298.02 137.23 L 298.14 137.66 L 298.42 137.88 L 298.75 137.82 L 298.94 137.48 L 299.00 136.99 L 299.04 136.47 L 299.19 135.98 L 299.46 135.55 L 299.75 135.12 L 299.95 134.65 L 300.10 134.17 L 300.35 133.73 L 300.72 133.36 L 301.16 133.12 L 301.67 133.02 L 302.21 133.00 L 302.76 133.00 L 303.31 133.00 L 303.85 133.00 L 304.37 132.97 L 304.77 132.82 L 304.95 132.45 L 304.98 131.96 L 304.92 131.48 L 304.70 131.16 L 304.28 131.02 L 303.76 130.99 L 303.25 130.90 L 302.79 130.69 L 302.40 130.35 L 302.13 129.92 L 301.97 129.44 L 301.80 128.96 L 301.50 128.55 L 301.10 128.24 L 300.62 128.07 L 300.10 128.01 L 299.58 128.04 Z M 320.05 111.16 L 319.62 111.43 L 319.29 111.84 L 319.10 112.32 L 319.13 112.82 L 319.35 113.29 L 319.66 113.73 L 319.89 114.20 L 319.98 114.73 L 320.03 115.27 L 320.16 115.69 L 320.47 115.89 L 320.81 115.79 L 321.02 115.42 L 321.21 114.95 L 321.50 114.50 L 321.78 114.05 L 321.92 113.56 L 321.85 113.06 L 321.59 112.60 L 321.28 112.16 L 321.06 111.70 L 320.85 111.30 L 320.50 111.10 Z M 332.00 105.41 L 332.00 105.63 L 331.99 106.12 L 331.93 106.64 L 331.74 107.12 L 331.42 107.53 L 331.00 107.82 L 330.50 107.96 L 329.96 108.00 L 329.42 108.06 L 328.93 108.22 L 328.50 108.52 L 328.10 108.90 L 327.71 109.30 L 327.36 109.71 L 327.12 110.17 L 327.02 110.68 L 327.02 111.21 L 327.14 111.65 L 327.44 111.88 L 327.87 111.86 L 328.31 111.64 L 328.74 111.33 L 329.20 111.12 L 329.69 111.10 L 330.16 111.28 L 330.56 111.61 L 330.84 112.04 L 330.93 112.53 L 330.81 113.01 L 330.51 113.43 L 330.11 113.75 L 329.63 113.95 L 329.14 114.11 L 328.69 114.36 L 328.26 114.67 L 327.79 114.89 L 327.27 114.98 L 326.72 115.00 L 326.17 115.00 L 325.61 115.00 L 325.06 115.01 L 324.55 115.05 L 324.18 115.25 L 324.03 115.65 L 324.00 116.18 L 324.00 116.74 L 324.00 117.29 L 324.00 117.85 L 324.02 118.40 L 324.14 118.91 L 324.39 119.36 L 324.69 119.79 L 324.90 120.26 L 324.98 120.79 L 325.00 121.34 L 325.00 121.89 L 324.97 122.44 L 324.85 122.95 L 324.57 123.38 L 324.17 123.71 L 323.70 123.90 L 323.21 123.88 L 322.76 123.67 L 322.34 123.33 L 321.94 122.94 L 321.56 122.54 L 321.25 122.11 L 321.07 121.63 L 321.01 121.10 L 320.97 120.56 L 320.85 120.05 L 320.57 119.62 L 320.17 119.29 L 319.72 119.11 L 319.32 119.16 L 319.09 119.47 L 319.01 119.95 L 318.96 120.48 L 318.83 120.98 L 318.54 121.41 L 318.13 121.73 L 317.66 121.92 L 317.13 121.99 L 316.61 122.03 L 316.22 122.20 L 316.09 122.56 L 316.20 123.02 L 316.49 123.44 L 316.90 123.76 L 317.38 123.93 L 317.92 123.99 L 318.47 124.00 L 319.03 124.00 L 319.59 124.00 L 320.14 124.01 L 320.67 124.08 L 321.15 124.27 L 321.57 124.59 L 321.97 124.97 L 322.35 125.37 L 322.69 125.79 L 322.90 126.26 L 322.99 126.78 L 323.02 127.32 L 323.12 127.84 L 323.37 128.29 L 323.74 128.65 L 324.19 128.89 L 324.71 128.98 L 325.25 129.02 L 325.77 129.10 L 326.24 129.33 L 326.65 129.67 L 327.05 130.05 L 327.45 130.45 L 327.84 130.84 L 328.23 131.24 L 328.60 131.64 L 328.87 132.09 L 329.03 132.58 L 329.21 133.06 L 329.52 133.49 L 329.89 133.89 L 330.29 134.28 L 330.70 134.63 L 331.14 134.86 L 331.57 134.88 L 331.86 134.64 L 331.98 134.20 L 331.97 133.69 L 331.83 133.28 L 331.49 133.04 L 331.05 132.86 L 330.62 132.57 L 330.29 132.17 L 330.09 131.70 L 330.01 131.17 L 330.00 130.62 L 330.00 130.07 L 330.04 129.52 L 330.17 129.02 L 330.46 128.59 L 330.86 128.27 L 331.31 128.05 L 331.71 127.85 L 331.92 127.50 L 331.99 127.01 L 332.00 126.46 L 332.00 125.91 L 332.00 125.35 L 332.00 124.79 L 332.00 124.23 L 332.00 123.68 L 332.00 123.12 L 332.00 122.56 L 332.00 122.00 L 332.00 121.45 L 331.99 120.89 L 331.93 120.36 L 331.75 119.88 L 331.45 119.44 L 331.18 119.00 L 331.07 118.51 L 331.17 118.03 L 331.43 117.58 L 331.73 117.15 L 331.92 116.67 L 331.99 116.14 L 332.00 115.59 L 332.00 115.03 L 332.00 114.47 L 332.00 113.92 L 332.00 113.36 L 332.00 112.80 L 332.00 112.24 L 332.00 111.69 L 332.00 111.13 L 332.00 110.57 L 332.00 110.02 L 332.00 109.46 L 332.00 108.90 L 332.00 108.34 L 332.00 107.79 L 332.00 107.23 L 332.00 106.67 L 332.00 106.12 L 332.00 105.63 Z M 326.15 119.06 L 326.43 118.62 L 326.84 118.29 L 327.32 118.10 L 327.82 118.13 L 328.29 118.35 L 328.73 118.66 L 329.20 118.90 L 329.70 119.07 L 330.17 119.29 L 330.57 119.63 L 330.86 120.08 L 330.98 120.60 L 331.00 121.16 L 331.00 121.72 L 331.00 122.29 L 331.00 122.86 L 330.97 123.42 L 330.85 123.94 L 330.57 124.38 L 330.16 124.72 L 329.67 124.92 L 329.13 124.98 L 328.58 124.97 L 328.06 124.85 L 327.62 124.57 L 327.28 124.16 L 327.06 123.68 L 326.90 123.18 L 326.65 122.71 L 326.34 122.27 L 326.11 121.80 L 326.02 121.27 L 326.00 120.71 L 326.00 120.14 L 326.03 119.58 Z" fill="rgb(112,109,106)" fill-rule="evenodd"/>
  <path d="M 99.05 135.16 L 98.62 135.43 L 98.29 135.84 L 98.10 136.32 L 98.13 136.82 L 98.35 137.29 L 98.66 137.73 L 98.90 138.20 L 99.07 138.70 L 99.29 139.17 L 99.63 139.57 L 100.07 139.85 L 100.51 139.89 L 100.83 139.69 L 100.89 139.29 L 100.71 138.82 L 100.41 138.38 L 100.14 137.92 L 100.02 137.40 L 100.00 136.84 L 100.00 136.28 L 99.97 135.74 L 99.84 135.31 L 99.50 135.10 Z M 75.06 116.18 L 74.55 116.49 L 74.08 116.92 L 73.62 117.38 L 73.16 117.84 L 72.69 118.29 L 72.20 118.67 L 71.65 118.93 L 71.09 119.14 L 70.57 119.45 L 70.05 119.76 L 69.47 119.94 L 68.87 120.02 L 68.36 120.18 L 68.05 120.54 L 67.79 121.03 L 67.43 121.50 L 66.93 121.83 L 66.34 121.97 L 65.70 122.00 L 65.05 121.99 L 64.43 121.92 L 63.86 121.71 L 63.34 121.40 L 62.80 121.14 L 62.20 121.02 L 61.55 121.00 L 60.90 121.00 L 60.25 121.00 L 59.60 121.00 L 58.95 121.00 L 58.30 121.00 L 57.65 121.00 L 57.00 121.00 L 56.35 121.00 L 55.70 121.00 L 55.04 121.00 L 54.39 121.00 L 53.74 121.00 L 53.11 121.02 L 52.55 121.10 L 52.20 121.38 L 52.17 121.83 L 52.41 122.35 L 52.72 122.86 L 52.98 123.38 L 53.26 123.78 L 53.74 123.96 L 54.36 124.00 L 55.00 123.98 L 55.62 123.91 L 56.18 123.69 L 56.70 123.38 L 57.24 123.15 L 57.80 123.16 L 58.31 123.42 L 58.69 123.87 L 58.88 124.41 L 58.80 124.97 L 58.48 125.48 L 58.05 125.95 L 57.58 126.39 L 57.09 126.75 L 56.58 127.01 L 56.18 127.30 L 55.92 127.75 L 55.62 128.25 L 55.19 128.66 L 54.66 128.87 L 54.10 128.83 L 53.57 128.55 L 53.05 128.24 L 52.48 128.06 L 51.85 128.01 L 51.20 128.00 L 50.55 128.00 L 49.90 128.00 L 49.25 128.00 L 48.60 128.00 L 47.95 128.02 L 47.34 128.11 L 46.80 128.35 L 46.37 128.76 L 46.12 129.30 L 46.02 129.91 L 46.00 130.55 L 46.02 131.19 L 46.14 131.79 L 46.42 132.31 L 46.87 132.70 L 47.41 132.88 L 47.97 132.80 L 48.49 132.51 L 49.01 132.20 L 49.60 132.04 L 50.23 132.01 L 50.88 132.01 L 51.51 132.07 L 52.07 132.26 L 52.54 132.63 L 52.87 133.13 L 53.08 133.69 L 53.35 134.23 L 53.74 134.72 L 54.18 135.19 L 54.59 135.67 L 54.89 136.20 L 55.10 136.76 L 55.39 137.29 L 55.79 137.78 L 56.23 138.25 L 56.62 138.73 L 56.86 139.27 L 56.84 139.83 L 56.56 140.33 L 56.11 140.72 L 55.55 140.92 L 54.95 141.01 L 54.43 141.15 L 54.13 141.50 L 54.04 142.02 L 54.14 142.54 L 54.45 142.89 L 54.93 143.14 L 55.44 143.45 L 55.96 143.77 L 56.54 143.94 L 57.17 143.99 L 57.82 144.01 L 58.45 144.06 L 59.03 144.23 L 59.55 144.54 L 60.08 144.84 L 60.67 144.97 L 61.31 145.00 L 61.96 145.00 L 62.61 145.00 L 63.26 144.97 L 63.86 144.85 L 64.39 144.57 L 64.91 144.26 L 65.49 144.07 L 66.11 144.01 L 66.76 144.00 L 67.41 144.00 L 68.06 144.00 L 68.71 144.00 L 69.36 144.00 L 70.01 144.00 L 70.67 144.00 L 71.32 144.00 L 71.97 144.00 L 72.62 144.00 L 73.27 144.00 L 73.92 144.01 L 74.54 144.08 L 75.11 144.27 L 75.63 144.59 L 76.17 144.86 L 76.77 144.98 L 77.41 145.00 L 78.07 145.00 L 78.72 145.00 L 79.37 145.00 L 80.02 145.00 L 80.67 145.00 L 81.32 145.00 L 81.97 144.99 L 82.59 144.91 L 83.15 144.71 L 83.67 144.39 L 84.22 144.13 L 84.82 144.02 L 85.47 144.00 L 86.12 144.00 L 86.77 144.00 L 87.42 144.00 L 88.07 144.00 L 88.72 144.00 L 89.37 144.00 L 90.02 144.00 L 90.67 144.00 L 91.33 144.00 L 91.98 144.00 L 92.63 144.00 L 93.28 144.00 L 93.93 144.00 L 94.58 144.00 L 95.23 144.00 L 95.87 143.99 L 96.44 143.90 L 96.82 143.63 L 96.96 143.14 L 96.94 142.53 L 96.77 141.96 L 96.45 141.44 L 96.16 140.91 L 96.03 140.31 L 95.97 139.68 L 95.84 139.09 L 95.51 138.59 L 95.03 138.23 L 94.46 138.06 L 93.83 138.01 L 93.18 138.00 L 92.53 138.00 L 91.88 137.98 L 91.28 137.88 L 90.75 137.62 L 90.34 137.19 L 90.13 136.65 L 90.18 136.10 L 90.48 135.60 L 90.96 135.24 L 91.53 135.06 L 92.15 134.99 L 92.75 134.87 L 93.28 134.60 L 93.68 134.16 L 93.93 133.63 L 94.15 133.07 L 94.49 132.55 L 94.92 132.08 L 95.38 131.62 L 95.84 131.16 L 96.30 130.70 L 96.76 130.24 L 97.23 129.79 L 97.71 129.39 L 98.25 129.12 L 98.86 129.01 L 99.48 128.94 L 100.05 128.76 L 100.56 128.41 L 101.03 127.97 L 101.50 127.53 L 102.00 127.19 L 102.49 126.94 L 102.80 126.64 L 102.77 126.29 L 102.39 126.07 L 101.81 125.99 L 101.22 125.87 L 100.70 125.58 L 100.31 125.14 L 100.12 124.60 L 100.20 124.04 L 100.52 123.56 L 100.99 123.19 L 101.48 122.94 L 101.80 122.65 L 101.77 122.30 L 101.40 122.08 L 100.82 122.01 L 100.18 122.00 L 99.53 122.00 L 98.87 122.00 L 98.23 121.99 L 97.59 121.95 L 97.01 121.80 L 96.48 121.49 L 95.98 121.20 L 95.49 121.16 L 95.13 121.42 L 94.87 121.88 L 94.54 122.37 L 94.08 122.74 L 93.51 122.93 L 92.88 122.99 L 92.24 123.00 L 91.59 123.00 L 90.96 123.02 L 90.44 123.15 L 90.13 123.49 L 90.00 124.03 L 89.90 124.63 L 89.67 125.19 L 89.30 125.68 L 88.85 126.14 L 88.37 126.56 L 87.85 126.83 L 87.29 126.86 L 86.77 126.63 L 86.35 126.21 L 86.07 125.71 L 85.80 125.26 L 85.39 124.98 L 84.87 124.72 L 84.38 124.35 L 83.91 123.91 L 83.45 123.45 L 82.99 122.99 L 82.55 122.52 L 82.23 122.01 L 82.12 121.45 L 82.27 120.90 L 82.58 120.38 L 82.83 119.87 L 82.82 119.41 L 82.50 119.16 L 82.01 119.21 L 81.50 119.50 L 80.99 119.79 L 80.43 119.88 L 79.89 119.71 L 79.44 119.33 L 79.16 118.82 L 79.14 118.26 L 79.37 117.72 L 79.68 117.20 L 79.86 116.68 L 79.76 116.27 L 79.36 116.14 L 78.85 116.30 L 78.33 116.61 L 77.80 116.85 L 77.23 116.85 L 76.70 116.62 L 76.18 116.31 L 75.62 116.12 Z M 63.15 124.06 L 63.44 123.62 L 63.86 123.28 L 64.35 123.08 L 64.91 123.01 L 65.48 123.00 L 66.05 123.01 L 66.61 123.07 L 67.11 123.26 L 67.53 123.59 L 67.84 124.02 L 68.04 124.48 L 68.28 124.84 L 68.69 125.05 L 69.15 125.28 L 69.57 125.63 L 69.86 126.07 L 70.04 126.58 L 70.23 127.08 L 70.53 127.53 L 70.81 127.99 L 70.91 128.49 L 70.81 129.00 L 70.51 129.43 L 70.09 129.76 L 69.59 129.96 L 69.08 130.13 L 68.62 130.41 L 68.17 130.71 L 67.68 130.89 L 67.17 130.86 L 66.71 130.62 L 66.34 130.24 L 66.11 129.76 L 66.02 129.22 L 65.97 128.68 L 65.81 128.27 L 65.45 128.10 L 64.99 128.20 L 64.54 128.49 L 64.12 128.88 L 63.71 129.28 L 63.28 129.64 L 62.81 129.87 L 62.30 129.89 L 61.82 129.70 L 61.42 129.35 L 61.14 128.89 L 61.03 128.36 L 61.02 127.80 L 61.10 127.26 L 61.33 126.78 L 61.70 126.39 L 62.14 126.11 L 62.58 125.91 L 62.87 125.61 L 62.98 125.14 L 63.02 124.59 Z M 75.15 122.06 L 75.43 121.62 L 75.84 121.28 L 76.33 121.08 L 76.87 121.01 L 77.43 121.00 L 78.00 121.01 L 78.55 121.05 L 79.05 121.22 L 79.47 121.53 L 79.78 121.95 L 79.92 122.44 L 79.85 122.94 L 79.57 123.38 L 79.16 123.72 L 78.67 123.92 L 78.13 123.99 L 77.57 124.00 L 77.00 123.99 L 76.45 123.95 L 75.95 123.78 L 75.53 123.47 L 75.22 123.05 L 75.08 122.56 Z M 297.19 115.21 L 296.98 115.58 L 296.79 116.05 L 296.48 116.49 L 296.10 116.90 L 295.70 117.31 L 295.35 117.73 L 295.11 118.20 L 295.02 118.73 L 295.03 119.27 L 295.16 119.70 L 295.50 119.95 L 295.95 120.13 L 296.40 120.41 L 296.84 120.72 L 297.32 120.90 L 297.82 120.87 L 298.29 120.65 L 298.73 120.34 L 299.20 120.11 L 299.73 120.02 L 300.27 119.97 L 300.69 119.84 L 300.90 119.50 L 300.84 119.05 L 300.57 118.62 L 300.16 118.28 L 299.68 118.06 L 299.18 117.90 L 298.73 117.64 L 298.35 117.26 L 298.11 116.80 L 298.02 116.27 L 297.97 115.73 L 297.84 115.31 L 297.53 115.11 Z M 0.18 84.18 L 0.03 84.53 L 0.00 85.00 L 0.00 85.50 L 0.00 86.00 L 0.03 86.47 L 0.18 86.82 L 0.53 86.97 L 1.00 87.00 L 1.50 87.00 L 2.00 87.00 L 2.47 86.97 L 2.82 86.82 L 2.97 86.47 L 3.00 86.00 L 3.00 85.50 L 3.00 85.00 L 2.97 84.53 L 2.82 84.18 L 2.47 84.03 L 2.00 84.00 L 1.50 84.00 L 1.00 84.00 L 0.53 84.03 Z M 311.10 68.28 L 310.09 68.64 L 309.05 68.98 L 308.07 69.37 L 307.38 70.08 L 307.11 71.08 L 307.20 72.08 L 307.63 72.89 L 308.25 73.60 L 308.59 74.41 L 308.34 75.24 L 307.61 75.90 L 306.70 76.43 L 305.85 76.99 L 305.28 77.70 L 305.11 78.61 L 305.35 79.49 L 305.95 80.18 L 306.56 80.96 L 306.82 81.94 L 306.61 82.92 L 305.94 83.63 L 305.05 84.06 L 304.33 84.57 L 303.87 85.38 L 303.37 86.20 L 302.60 86.59 L 301.80 86.34 L 301.25 85.57 L 300.99 84.55 L 300.68 83.66 L 300.00 83.12 L 299.06 82.75 L 298.08 82.37 L 297.13 82.21 L 296.49 82.50 L 296.44 83.23 L 296.65 84.15 L 296.51 85.07 L 295.93 85.83 L 295.34 86.53 L 295.06 87.46 L 295.01 88.58 L 295.05 89.74 L 295.25 90.83 L 295.63 91.85 L 295.98 92.84 L 296.46 93.59 L 297.30 93.90 L 298.36 93.83 L 299.40 93.50 L 300.38 93.03 L 301.32 92.46 L 302.14 91.72 L 302.71 90.80 L 302.95 89.72 L 303.03 88.58 L 303.23 87.50 L 303.75 86.70 L 304.55 86.41 L 305.32 86.77 L 305.80 87.61 L 305.96 88.70 L 305.94 89.84 L 305.72 90.93 L 305.36 91.95 L 305.18 92.99 L 305.40 94.01 L 306.02 94.90 L 306.87 95.60 L 307.78 96.18 L 308.50 96.91 L 308.89 97.87 L 309.11 98.88 L 309.55 99.60 L 310.37 99.78 L 311.33 99.51 L 312.18 98.98 L 312.77 98.28 L 313.16 97.37 L 313.58 96.38 L 314.08 95.44 L 314.73 94.69 L 315.58 94.38 L 316.54 94.54 L 317.56 94.87 L 318.57 95.22 L 319.38 95.81 L 319.87 96.70 L 320.20 97.73 L 320.58 98.75 L 320.82 99.79 L 320.68 100.79 L 320.10 101.59 L 319.39 102.25 L 318.75 102.97 L 317.97 103.60 L 316.95 103.91 L 315.82 103.96 L 314.72 103.83 L 313.78 103.41 L 313.07 102.82 L 312.51 102.52 L 311.98 102.86 L 311.49 103.67 L 311.16 104.69 L 311.02 105.81 L 310.98 106.97 L 310.88 108.11 L 310.60 109.17 L 310.22 110.19 L 309.89 111.23 L 309.46 112.17 L 308.83 112.93 L 308.25 113.65 L 307.83 114.52 L 307.30 115.37 L 306.66 116.09 L 306.21 116.89 L 306.13 117.83 L 306.48 118.60 L 307.31 118.96 L 308.34 119.19 L 309.20 119.65 L 309.59 120.41 L 309.33 121.21 L 308.55 121.76 L 307.53 122.02 L 306.65 122.33 L 306.19 123.01 L 306.16 123.91 L 306.53 124.51 L 307.28 124.54 L 308.21 124.36 L 309.11 124.54 L 309.81 125.23 L 310.33 126.16 L 310.72 127.15 L 310.81 128.19 L 310.45 129.12 L 309.67 129.72 L 308.62 129.95 L 307.48 129.95 L 306.41 129.75 L 305.55 129.23 L 304.91 128.64 L 304.46 128.48 L 304.50 128.82 L 305.07 129.37 L 305.67 130.14 L 305.91 131.17 L 305.83 132.25 L 305.40 133.17 L 304.59 133.75 L 303.57 134.01 L 302.64 134.30 L 301.92 134.89 L 301.26 135.70 L 300.61 136.60 L 300.15 137.59 L 299.82 138.63 L 299.50 139.60 L 299.41 140.33 L 299.71 140.48 L 300.23 140.01 L 300.98 139.43 L 301.96 139.18 L 302.93 139.40 L 303.56 140.06 L 303.57 140.93 L 303.02 141.69 L 302.41 142.33 L 302.26 143.08 L 302.71 143.69 L 303.62 143.95 L 304.75 144.00 L 305.93 144.00 L 307.11 144.00 L 308.29 144.00 L 309.47 144.00 L 310.65 144.00 L 311.83 144.00 L 313.00 144.00 L 314.18 144.00 L 315.36 144.00 L 316.54 144.00 L 317.72 144.00 L 318.90 144.00 L 320.08 144.00 L 321.25 144.03 L 322.37 144.17 L 323.43 144.48 L 324.46 144.80 L 325.52 144.91 L 326.40 144.64 L 326.87 143.93 L 327.10 142.93 L 327.47 141.96 L 328.21 141.31 L 329.25 141.05 L 330.36 140.95 L 331.28 140.70 L 331.75 140.05 L 331.72 139.12 L 331.37 138.13 L 331.04 137.09 L 330.67 136.06 L 330.06 135.13 L 329.27 134.28 L 328.44 133.46 L 327.57 132.71 L 326.65 132.08 L 325.71 131.49 L 324.81 130.83 L 323.89 130.20 L 322.92 129.70 L 321.91 129.28 L 320.82 129.05 L 319.67 129.00 L 318.51 128.96 L 317.44 128.75 L 316.66 128.20 L 316.41 127.39 L 316.75 126.59 L 317.32 125.94 L 317.48 125.37 L 317.00 124.83 L 316.24 124.15 L 315.60 123.30 L 315.40 122.40 L 315.77 121.58 L 316.38 120.87 L 316.83 120.06 L 317.06 119.05 L 317.38 118.05 L 317.98 117.29 L 318.48 116.74 L 318.33 116.26 L 317.59 115.86 L 316.73 115.35 L 316.08 114.56 L 315.58 113.61 L 315.24 112.60 L 315.25 111.58 L 315.71 110.72 L 316.57 110.22 L 317.65 110.03 L 318.80 109.95 L 319.89 109.74 L 320.91 109.38 L 321.95 109.18 L 322.93 109.40 L 323.61 110.08 L 323.82 111.06 L 323.64 112.08 L 323.38 112.97 L 323.55 113.51 L 324.16 113.42 L 324.74 112.72 L 325.11 111.72 L 325.55 110.73 L 326.22 109.82 L 326.98 108.96 L 327.65 108.06 L 328.22 107.15 L 328.95 106.44 L 329.86 106.01 L 330.59 105.52 L 330.79 104.71 L 330.56 103.71 L 330.22 102.68 L 330.04 101.58 L 330.00 100.42 L 329.95 99.25 L 329.75 98.16 L 329.39 97.13 L 329.18 96.10 L 329.37 95.10 L 329.97 94.33 L 330.62 93.65 L 330.93 92.74 L 330.99 91.62 L 331.00 90.45 L 331.00 89.27 L 331.00 88.09 L 330.98 86.92 L 330.85 85.80 L 330.43 84.87 L 329.65 84.30 L 328.67 84.23 L 327.76 84.63 L 327.07 85.38 L 326.43 86.19 L 325.60 86.72 L 324.59 86.77 L 323.62 86.37 L 322.81 85.64 L 322.29 84.72 L 322.22 83.71 L 322.58 82.78 L 323.17 82.07 L 323.48 81.51 L 323.16 80.96 L 322.41 80.33 L 321.53 79.66 L 320.60 79.07 L 319.63 78.56 L 318.66 78.05 L 317.72 77.48 L 316.88 76.76 L 316.30 75.84 L 316.05 74.77 L 315.97 73.62 L 315.81 72.51 L 315.48 71.47 L 315.12 70.47 L 314.71 69.59 L 314.06 68.93 L 313.17 68.43 L 312.15 68.17 Z M 319.00 140.00 L 319.39 139.63 L 319.80 139.30 L 320.25 139.11 L 320.73 139.11 L 321.19 139.29 L 321.58 139.62 L 321.85 140.05 L 321.97 140.54 L 321.99 141.07 L 321.94 141.59 L 321.78 142.07 L 321.48 142.48 L 321.07 142.78 L 320.59 142.94 L 320.07 142.99 L 319.54 142.97 L 319.05 142.85 L 318.62 142.58 L 318.29 142.19 L 318.11 141.73 L 318.11 141.25 L 318.30 140.80 L 318.63 140.39 Z M 0.19 33.19 L 0.03 33.55 L 0.00 34.03 L 0.00 34.55 L 0.00 35.06 L 0.00 35.58 L 0.00 36.10 L 0.00 36.61 L 0.00 37.13 L 0.00 37.64 L 0.00 38.16 L 0.00 38.68 L 0.00 39.19 L 0.00 39.71 L 0.00 40.22 L 0.00 40.74 L 0.00 41.25 L 0.00 41.77 L 0.00 42.29 L 0.00 42.80 L 0.00 43.32 L 0.00 43.83 L 0.00 44.35 L 0.00 44.87 L 0.00 45.38 L 0.00 45.90 L 0.00 46.41 L 0.00 46.93 L 0.03 47.42 L 0.18 47.79 L 0.52 47.96 L 1.00 48.00 L 1.51 48.00 L 2.03 48.00 L 2.54 48.00 L 3.06 48.00 L 3.57 48.00 L 4.08 47.99 L 4.54 47.93 L 4.84 47.74 L 4.90 47.42 L 4.71 47.13 L 4.33 46.96 L 3.91 46.78 L 3.53 46.48 L 3.23 46.10 L 3.07 45.65 L 3.01 45.16 L 3.00 44.65 L 3.00 44.13 L 3.00 43.62 L 3.00 43.10 L 2.98 42.59 L 2.88 42.12 L 2.65 41.70 L 2.35 41.31 L 2.12 40.89 L 2.02 40.41 L 2.00 39.90 L 2.00 39.39 L 2.00 38.87 L 2.00 38.36 L 2.01 37.84 L 2.06 37.35 L 2.23 36.90 L 2.50 36.50 L 2.77 36.10 L 2.94 35.65 L 2.99 35.16 L 3.00 34.64 L 3.00 34.13 L 2.97 33.64 L 2.84 33.25 L 2.52 33.06 L 2.06 33.01 L 1.55 33.00 L 1.03 33.00 L 0.55 33.03 Z M 267.20 21.21 L 267.08 21.57 L 267.19 22.03 L 267.47 22.46 L 267.76 22.89 L 267.96 23.34 L 268.16 23.73 L 268.51 23.93 L 269.01 23.99 L 269.55 24.00 L 270.10 23.99 L 270.63 23.93 L 271.11 23.76 L 271.54 23.47 L 271.97 23.19 L 272.43 23.01 L 272.79 22.81 L 272.90 22.48 L 272.72 22.17 L 272.32 22.03 L 271.80 22.02 L 271.28 22.09 L 270.81 22.29 L 270.38 22.60 L 269.94 22.85 L 269.46 22.93 L 268.98 22.80 L 268.56 22.51 L 268.24 22.11 L 268.04 21.66 L 267.84 21.27 L 267.52 21.10 Z M 265.20 10.20 L 264.99 10.57 L 264.81 11.03 L 264.50 11.44 L 264.10 11.76 L 263.64 11.96 L 263.26 12.17 L 263.06 12.53 L 263.01 13.03 L 263.05 13.56 L 263.21 14.05 L 263.49 14.48 L 263.77 14.92 L 263.96 15.40 L 264.12 15.88 L 264.39 16.32 L 264.77 16.67 L 265.21 16.88 L 265.62 16.86 L 265.87 16.60 L 265.87 16.18 L 265.66 15.74 L 265.36 15.31 L 265.12 14.85 L 265.02 14.34 L 265.02 13.80 L 265.09 13.28 L 265.30 12.81 L 265.64 12.42 L 266.06 12.13 L 266.50 11.95 L 266.83 11.72 L 266.97 11.30 L 266.98 10.79 L 266.86 10.35 L 266.56 10.10 L 266.10 10.02 L 265.59 10.04 Z M 0.18 8.18 L 0.03 8.53 L 0.00 9.00 L 0.00 9.50 L 0.00 10.00 L 0.00 10.50 L 0.00 11.00 L 0.00 11.50 L 0.00 12.00 L 0.00 12.50 L 0.00 13.00 L 0.00 13.50 L 0.00 14.00 L 0.00 14.50 L 0.00 15.00 L 0.00 15.50 L 0.00 16.00 L 0.00 16.50 L 0.00 17.00 L 0.03 17.47 L 0.18 17.82 L 0.53 17.97 L 1.00 18.00 L 1.50 18.00 L 2.00 18.00 L 2.47 17.97 L 2.82 17.82 L 2.97 17.47 L 3.00 17.00 L 3.00 16.50 L 3.00 16.00 L 3.00 15.50 L 3.00 15.00 L 3.00 14.50 L 3.00 14.00 L 3.00 13.50 L 3.00 13.00 L 3.00 12.50 L 3.00 12.00 L 3.00 11.50 L 3.00 11.00 L 3.00 10.50 L 3.00 10.00 L 3.00 9.50 L 3.00 9.00 L 2.97 8.53 L 2.82 8.18 L 2.47 8.03 L 2.00 8.00 L 1.50 8.00 L 1.00 8.00 L 0.53 8.03 Z M 214.18 4.18 L 214.06 4.50 L 214.18 4.82 L 214.53 4.97 L 215.00 5.00 L 215.50 5.00 L 216.00 5.00 L 216.50 5.00 L 217.00 5.00 L 217.50 5.00 L 218.00 5.00 L 218.50 5.00 L 219.00 5.00 L 219.50 5.00 L 220.00 5.00 L 220.50 5.00 L 221.00 5.00 L 221.50 5.00 L 222.00 5.00 L 222.50 5.00 L 223.00 5.00 L 223.50 5.00 L 224.00 5.00 L 224.47 4.97 L 224.82 4.82 L 224.94 4.50 L 224.82 4.18 L 224.47 4.03 L 224.00 4.00 L 223.50 4.00 L 223.00 4.00 L 222.50 4.00 L 222.00 4.00 L 221.50 4.00 L 221.00 4.00 L 220.50 4.00 L 220.00 4.00 L 219.50 4.00 L 219.00 4.00 L 218.50 4.00 L 218.00 4.00 L 217.50 4.00 L 217.00 4.00 L 216.50 4.00 L 216.00 4.00 L 215.50 4.00 L 215.00 4.00 L 214.53 4.03 Z M 185.19 4.18 L 185.08 4.51 L 185.22 4.83 L 185.59 4.97 L 186.08 5.00 L 186.59 5.00 L 187.11 5.00 L 187.63 5.00 L 188.15 5.00 L 188.67 5.00 L 189.19 5.00 L 189.71 5.00 L 190.22 5.01 L 190.71 5.08 L 191.15 5.26 L 191.53 5.57 L 191.81 5.96 L 191.98 6.40 L 192.16 6.76 L 192.50 6.94 L 192.97 6.99 L 193.45 6.97 L 193.81 6.82 L 193.92 6.49 L 193.78 6.17 L 193.41 6.03 L 192.93 6.00 L 192.43 5.95 L 191.97 5.81 L 191.57 5.53 L 191.26 5.15 L 191.06 4.73 L 190.89 4.34 L 190.61 4.10 L 190.17 4.02 L 189.67 4.00 L 189.15 4.00 L 188.63 4.00 L 188.11 4.00 L 187.59 4.00 L 187.08 4.00 L 186.56 4.00 L 186.04 4.00 L 185.55 4.03 Z" fill="rgb(164,160,156)" fill-rule="evenodd"/>
  <path d="M 75.19 109.20 L 75.03 109.57 L 75.00 110.07 L 75.00 110.60 L 75.00 111.14 L 75.00 111.67 L 75.02 112.19 L 75.12 112.62 L 75.38 112.87 L 75.79 112.89 L 76.22 112.69 L 76.63 112.39 L 77.05 112.13 L 77.49 111.97 L 77.83 111.76 L 77.97 111.37 L 77.98 110.87 L 77.90 110.42 L 77.67 110.12 L 77.27 109.94 L 76.84 109.73 L 76.42 109.44 L 76.00 109.17 L 75.55 109.07 Z M 71.18 73.18 L 71.03 73.53 L 71.00 74.00 L 71.00 74.50 L 71.00 75.00 L 71.00 75.50 L 71.00 76.00 L 71.00 76.50 L 71.00 77.00 L 71.00 77.50 L 71.00 78.00 L 71.00 78.50 L 71.00 79.00 L 71.00 79.50 L 71.00 80.00 L 71.03 80.47 L 71.18 80.82 L 71.50 80.94 L 71.82 80.82 L 71.97 80.47 L 72.00 80.00 L 72.00 79.50 L 72.00 79.00 L 72.00 78.50 L 72.00 78.00 L 72.00 77.50 L 72.00 77.00 L 72.00 76.50 L 72.00 76.00 L 72.00 75.50 L 72.00 75.00 L 72.00 74.50 L 72.00 74.00 L 71.97 73.53 L 71.82 73.18 L 71.50 73.06 Z" fill="rgb(202,177,173)" fill-rule="evenodd"/>
  <path d="M 328.19 142.19 L 328.03 142.57 L 328.01 143.06 L 328.08 143.53 L 328.29 143.85 L 328.70 143.98 L 329.20 144.01 L 329.71 144.08 L 330.16 144.27 L 330.58 144.56 L 331.00 144.83 L 331.45 144.93 L 331.80 144.80 L 331.93 144.45 L 331.83 144.00 L 331.56 143.58 L 331.27 143.16 L 331.06 142.73 L 330.88 142.33 L 330.58 142.10 L 330.12 142.01 L 329.60 142.00 L 329.07 142.00 L 328.57 142.03 Z M 71.54 0.55 L 70.28 4.05 L 66.51 5.24 L 62.31 5.98 L 58.07 5.36 L 53.72 5.00 L 49.21 5.00 L 44.71 5.00 L 40.21 5.00 L 35.72 5.05 L 31.60 5.86 L 27.49 5.06 L 23.07 5.14 L 18.91 5.96 L 14.42 6.00 L 9.92 6.00 L 5.59 6.32 L 4.02 9.69 L 4.00 14.18 L 3.18 18.16 L 0.36 20.04 L 1.97 22.54 L 3.25 26.27 L 4.40 29.82 L 1.36 30.34 L 1.39 31.89 L 4.09 34.30 L 4.91 38.40 L 4.06 42.52 L 5.19 45.90 L 8.94 47.38 L 12.56 49.52 L 16.01 52.04 L 18.50 55.51 L 20.37 59.23 L 21.86 63.12 L 21.76 67.47 L 20.28 71.22 L 17.75 74.24 L 15.14 77.62 L 11.69 79.91 L 8.26 82.09 L 5.19 84.21 L 3.27 87.08 L 0.35 88.99 L 0.00 93.14 L 0.00 97.65 L 0.00 102.15 L 0.00 106.65 L 0.00 111.16 L 0.00 115.66 L 0.00 120.17 L 0.40 124.18 L 1.95 122.77 L 2.00 118.32 L 2.01 113.82 L 3.34 110.60 L 4.97 113.38 L 5.00 117.87 L 5.72 121.36 L 8.55 122.28 L 7.11 125.11 L 7.68 127.96 L 10.35 131.35 L 13.11 134.71 L 16.02 138.01 L 19.20 141.20 L 22.65 143.75 L 26.72 144.79 L 31.14 145.00 L 35.44 144.50 L 39.41 143.32 L 43.44 143.93 L 47.91 144.00 L 51.60 143.17 L 53.57 140.20 L 53.76 138.19 L 50.21 136.23 L 46.78 133.69 L 45.23 130.01 L 46.89 126.25 L 49.28 124.92 L 51.72 126.73 L 52.00 124.00 L 52.05 120.50 L 55.33 118.57 L 58.34 119.48 L 62.17 119.87 L 65.90 120.21 L 69.29 118.12 L 70.98 114.68 L 73.77 112.72 L 74.73 108.97 L 77.93 109.46 L 78.02 112.75 L 77.69 115.30 L 79.69 112.94 L 83.12 113.18 L 86.65 115.32 L 86.43 117.81 L 85.92 120.56 L 88.46 120.77 L 91.52 118.32 L 95.33 119.36 L 98.75 120.16 L 101.07 117.66 L 102.95 119.95 L 103.74 124.13 L 104.87 128.16 L 104.23 132.30 L 103.04 136.31 L 102.71 140.05 L 106.05 141.71 L 109.79 141.93 L 113.71 143.27 L 117.92 143.99 L 122.42 144.00 L 126.92 144.00 L 131.43 144.00 L 135.93 144.00 L 140.44 144.00 L 144.94 144.00 L 149.45 144.00 L 153.95 144.00 L 158.46 144.00 L 162.96 144.00 L 167.47 144.00 L 171.97 144.00 L 176.48 144.00 L 180.98 144.00 L 185.48 144.00 L 189.99 144.00 L 194.49 144.00 L 199.00 144.00 L 203.50 144.00 L 208.01 144.00 L 212.51 144.00 L 217.02 144.00 L 221.52 144.00 L 225.19 143.02 L 228.65 143.05 L 231.80 142.71 L 235.08 143.25 L 238.98 144.00 L 243.48 144.00 L 247.98 144.00 L 252.49 144.00 L 256.87 144.30 L 260.95 144.67 L 265.15 144.05 L 269.30 144.89 L 273.46 144.25 L 277.86 144.00 L 282.08 144.68 L 286.26 144.53 L 290.04 142.78 L 293.88 141.50 L 296.24 143.20 L 295.93 141.48 L 296.39 138.15 L 296.08 134.24 L 296.83 130.09 L 297.55 125.99 L 296.62 122.18 L 294.29 119.18 L 295.57 115.82 L 298.70 114.44 L 301.12 116.57 L 301.77 115.00 L 300.26 111.94 L 302.98 109.42 L 306.76 109.44 L 307.95 106.00 L 306.97 101.91 L 305.98 97.82 L 304.47 93.97 L 304.79 90.05 L 304.00 89.58 L 301.86 93.01 L 298.11 94.82 L 294.15 93.94 L 291.99 90.43 L 292.12 86.78 L 294.05 83.10 L 297.53 81.31 L 301.48 82.46 L 303.92 81.13 L 304.00 76.70 L 304.74 72.51 L 306.83 68.87 L 308.89 65.39 L 310.56 62.10 L 313.76 60.31 L 315.82 56.92 L 317.89 53.27 L 320.97 50.04 L 324.45 47.58 L 328.48 46.48 L 330.92 44.12 L 331.00 39.69 L 331.00 35.18 L 331.00 30.68 L 331.47 26.42 L 331.06 22.47 L 330.93 18.06 L 328.90 15.33 L 326.37 12.99 L 324.89 10.81 L 328.64 10.25 L 330.87 9.10 L 328.87 6.35 L 324.54 6.02 L 320.45 6.54 L 316.53 5.69 L 314.12 3.48 L 311.86 5.48 L 307.67 6.00 L 303.53 5.19 L 300.42 3.09 L 296.81 4.01 L 292.89 5.00 L 288.39 5.00 L 283.89 5.01 L 279.68 5.72 L 275.52 6.56 L 272.22 9.05 L 269.57 9.92 L 268.02 6.35 L 265.02 5.66 L 260.95 6.32 L 257.71 7.50 L 253.88 7.50 L 250.78 5.94 L 248.60 3.77 L 246.80 6.29 L 244.13 9.08 L 244.47 11.22 L 244.57 13.60 L 240.67 13.03 L 237.35 10.85 L 235.18 7.29 L 231.47 5.55 L 227.53 5.93 L 223.05 6.00 L 218.55 6.00 L 214.14 5.82 L 211.48 3.52 L 208.78 4.47 L 205.53 5.65 L 203.01 3.37 L 200.49 4.95 L 197.19 6.63 L 193.92 8.52 L 189.89 8.04 L 185.82 7.30 L 182.50 5.54 L 178.61 5.54 L 174.68 4.74 L 171.42 3.12 L 168.13 4.68 L 164.27 5.98 L 159.86 6.07 L 158.70 8.42 L 156.81 10.31 L 154.77 7.17 L 151.40 6.00 L 146.91 5.99 L 142.97 4.81 L 140.53 4.13 L 136.91 5.68 L 132.72 5.57 L 128.85 4.33 L 125.38 3.07 L 122.03 4.36 L 118.99 3.33 L 115.85 4.57 L 111.61 4.94 L 108.50 3.73 L 105.67 5.65 L 101.35 6.09 L 97.44 6.37 L 93.76 5.65 L 90.11 6.34 L 85.78 6.00 L 81.39 5.71 L 78.53 3.52 L 78.09 0.39 L 74.01 0.01 Z M 267.13 125.05 L 267.37 124.67 L 267.70 124.34 L 268.09 124.12 L 268.54 124.02 L 269.01 124.00 L 269.49 124.02 L 269.94 124.12 L 270.32 124.36 L 270.65 124.69 L 270.88 125.08 L 270.96 125.51 L 270.87 125.95 L 270.63 126.33 L 270.30 126.66 L 269.91 126.88 L 269.46 126.98 L 268.99 127.00 L 268.51 126.98 L 268.06 126.88 L 267.68 126.64 L 267.35 126.31 L 267.12 125.92 L 267.04 125.49 Z M 292.15 112.06 L 292.43 111.62 L 292.84 111.29 L 293.32 111.10 L 293.82 111.13 L 294.27 111.36 L 294.65 111.74 L 294.89 112.20 L 294.98 112.73 L 295.00 113.29 L 295.00 113.86 L 294.97 114.42 L 294.85 114.94 L 294.57 115.38 L 294.16 115.71 L 293.68 115.90 L 293.18 115.87 L 292.73 115.64 L 292.35 115.26 L 292.11 114.80 L 292.02 114.27 L 292.00 113.71 L 292.00 113.14 L 292.03 112.58 Z M 288.13 106.05 L 288.37 105.67 L 288.70 105.34 L 289.09 105.12 L 289.54 105.02 L 290.01 105.00 L 290.49 105.02 L 290.94 105.12 L 291.32 105.36 L 291.65 105.69 L 291.88 106.08 L 291.96 106.51 L 291.87 106.95 L 291.63 107.33 L 291.30 107.66 L 290.91 107.88 L 290.46 107.98 L 289.99 108.00 L 289.51 107.98 L 289.06 107.88 L 288.68 107.64 L 288.35 107.31 L 288.12 106.92 L 288.04 106.49 Z M 100.94 105.86 L 101.43 105.56 L 101.91 105.25 L 102.43 105.10 L 102.96 105.18 L 103.42 105.48 L 103.76 105.93 L 103.97 106.45 L 104.17 106.98 L 104.47 107.46 L 104.77 107.95 L 104.90 108.47 L 104.80 109.00 L 104.49 109.47 L 104.08 109.91 L 103.66 110.34 L 103.22 110.78 L 102.79 111.20 L 102.34 111.59 L 101.85 111.85 L 101.32 111.88 L 100.82 111.68 L 100.40 111.31 L 100.13 110.82 L 100.02 110.26 L 99.98 109.67 L 99.85 109.11 L 99.58 108.61 L 99.28 108.13 L 99.11 107.61 L 99.16 107.08 L 99.45 106.62 L 99.89 106.26 L 100.41 106.05 Z M 284.13 104.05 L 284.37 103.67 L 284.70 103.34 L 285.09 103.12 L 285.53 103.04 L 285.96 103.13 L 286.34 103.38 L 286.66 103.71 L 286.89 104.10 L 286.98 104.55 L 287.00 105.03 L 286.98 105.51 L 286.87 105.95 L 286.63 106.33 L 286.30 106.66 L 285.91 106.88 L 285.47 106.96 L 285.04 106.87 L 284.66 106.62 L 284.34 106.29 L 284.11 105.90 L 284.02 105.45 L 284.00 104.97 L 284.02 104.49 Z M 287.13 97.05 L 287.37 96.67 L 287.70 96.34 L 288.09 96.12 L 288.54 96.02 L 289.01 96.00 L 289.49 96.02 L 289.94 96.12 L 290.32 96.36 L 290.65 96.69 L 290.88 97.08 L 290.96 97.51 L 290.87 97.95 L 290.63 98.33 L 290.30 98.66 L 289.91 98.88 L 289.46 98.98 L 288.99 99.00 L 288.51 98.98 L 288.06 98.88 L 287.68 98.64 L 287.35 98.31 L 287.12 97.92 L 287.04 97.49 Z M 70.14 96.06 L 70.42 95.63 L 70.81 95.30 L 71.28 95.09 L 71.80 95.01 L 72.35 95.00 L 72.90 95.00 L 73.44 95.02 L 73.94 95.14 L 74.37 95.42 L 74.70 95.81 L 74.91 96.28 L 74.99 96.80 L 75.00 97.35 L 75.00 97.90 L 74.98 98.44 L 74.86 98.94 L 74.58 99.37 L 74.19 99.70 L 73.72 99.91 L 73.20 99.99 L 72.65 100.00 L 72.10 100.00 L 71.56 99.98 L 71.06 99.86 L 70.63 99.58 L 70.30 99.19 L 70.09 98.72 L 70.01 98.20 L 70.00 97.65 L 70.00 97.10 L 70.02 96.56 Z M 2.13 96.05 L 2.37 95.67 L 2.70 95.34 L 3.09 95.12 L 3.53 95.04 L 3.96 95.13 L 4.34 95.38 L 4.66 95.71 L 4.89 96.10 L 4.98 96.55 L 5.00 97.03 L 4.98 97.51 L 4.87 97.95 L 4.63 98.33 L 4.30 98.66 L 3.91 98.88 L 3.47 98.96 L 3.04 98.87 L 2.66 98.62 L 2.34 98.29 L 2.11 97.90 L 2.02 97.45 L 2.00 96.97 L 2.02 96.49 Z M 280.15 88.06 L 280.43 87.62 L 280.84 87.28 L 281.33 87.08 L 281.87 87.01 L 282.43 87.00 L 283.00 87.01 L 283.55 87.05 L 284.05 87.22 L 284.47 87.53 L 284.78 87.95 L 284.92 88.44 L 284.85 88.94 L 284.57 89.38 L 284.16 89.72 L 283.67 89.92 L 283.13 89.99 L 282.57 90.00 L 282.00 89.99 L 281.45 89.95 L 280.95 89.78 L 280.53 89.47 L 280.22 89.05 L 280.08 88.56 Z M 71.00 72.00 L 71.38 71.64 L 71.77 71.31 L 72.21 71.10 L 72.71 71.02 L 73.22 71.01 L 73.72 71.08 L 74.17 71.28 L 74.55 71.60 L 74.83 72.00 L 74.96 72.47 L 75.00 72.99 L 75.00 73.51 L 75.00 74.04 L 75.00 74.57 L 75.00 75.10 L 75.00 75.63 L 75.00 76.15 L 75.00 76.68 L 75.00 77.21 L 75.00 77.74 L 75.00 78.27 L 75.00 78.80 L 75.00 79.33 L 75.00 79.85 L 75.00 80.38 L 75.00 80.91 L 75.00 81.44 L 75.00 81.97 L 75.00 82.50 L 75.00 83.02 L 75.00 83.55 L 75.00 84.08 L 75.00 84.61 L 75.00 85.14 L 75.00 85.67 L 75.00 86.19 L 75.00 86.72 L 75.00 87.25 L 75.00 87.78 L 75.00 88.31 L 75.00 88.84 L 75.00 89.37 L 75.00 89.89 L 75.00 90.42 L 75.00 90.95 L 75.00 91.48 L 75.00 92.01 L 74.96 92.52 L 74.83 92.99 L 74.56 93.40 L 74.18 93.72 L 73.73 93.91 L 73.23 93.99 L 72.71 94.00 L 72.18 94.00 L 71.66 93.98 L 71.17 93.89 L 70.74 93.66 L 70.38 93.32 L 70.13 92.90 L 70.02 92.41 L 70.00 91.89 L 70.00 91.37 L 70.00 90.84 L 70.00 90.31 L 70.00 89.78 L 70.00 89.25 L 70.00 88.72 L 70.00 88.20 L 70.00 87.67 L 70.00 87.14 L 70.00 86.61 L 70.00 86.08 L 70.02 85.56 L 70.13 85.08 L 70.38 84.65 L 70.68 84.25 L 70.90 83.81 L 70.98 83.32 L 70.99 82.80 L 70.92 82.30 L 70.74 81.85 L 70.45 81.44 L 70.18 81.02 L 70.04 80.55 L 70.01 80.04 L 70.00 79.51 L 70.00 78.98 L 70.00 78.46 L 70.00 77.93 L 70.00 77.40 L 70.00 76.87 L 70.00 76.34 L 70.00 75.81 L 70.00 75.28 L 70.00 74.76 L 70.00 74.23 L 70.02 73.71 L 70.10 73.21 L 70.31 72.77 L 70.64 72.38 Z M 137.13 71.05 L 137.37 70.67 L 137.70 70.34 L 138.09 70.12 L 138.54 70.02 L 139.01 70.00 L 139.49 70.02 L 139.94 70.12 L 140.32 70.36 L 140.65 70.69 L 140.88 71.08 L 140.96 71.51 L 140.87 71.95 L 140.63 72.33 L 140.30 72.66 L 139.91 72.88 L 139.46 72.98 L 138.99 73.00 L 138.51 72.98 L 138.06 72.88 L 137.68 72.64 L 137.35 72.31 L 137.12 71.92 L 137.04 71.49 Z M 72.14 47.06 L 72.43 46.63 L 72.83 46.29 L 73.29 46.11 L 73.78 46.12 L 74.24 46.34 L 74.62 46.69 L 74.87 47.14 L 74.98 47.65 L 75.00 48.20 L 75.00 48.76 L 75.00 49.32 L 75.00 49.88 L 74.97 50.43 L 74.86 50.94 L 74.57 51.37 L 74.17 51.71 L 73.71 51.89 L 73.22 51.88 L 72.76 51.66 L 72.38 51.31 L 72.13 50.86 L 72.02 50.35 L 72.00 49.80 L 72.00 49.24 L 72.00 48.68 L 72.00 48.12 L 72.03 47.57 Z M 279.14 26.06 L 279.41 25.64 L 279.80 25.30 L 280.26 25.09 L 280.77 25.02 L 281.30 25.02 L 281.81 25.11 L 282.25 25.34 L 282.62 25.69 L 282.87 26.12 L 282.92 26.60 L 282.78 27.07 L 282.48 27.49 L 282.11 27.88 L 281.73 28.27 L 281.33 28.62 L 280.89 28.86 L 280.41 28.92 L 279.94 28.79 L 279.54 28.49 L 279.23 28.08 L 279.06 27.61 L 279.01 27.09 L 279.02 26.55 Z M 259.15 23.06 L 259.43 22.63 L 259.83 22.29 L 260.30 22.10 L 260.80 22.13 L 261.26 22.35 L 261.63 22.71 L 261.88 23.17 L 261.98 23.69 L 262.02 24.24 L 262.10 24.77 L 262.32 25.24 L 262.63 25.67 L 262.89 26.12 L 263.08 26.56 L 263.35 26.86 L 263.80 26.98 L 264.34 27.00 L 264.90 27.00 L 265.47 27.00 L 266.03 27.01 L 266.57 27.06 L 267.07 27.22 L 267.48 27.54 L 267.79 27.96 L 267.92 28.45 L 267.85 28.94 L 267.57 29.38 L 267.17 29.71 L 266.69 29.91 L 266.15 29.99 L 265.60 30.00 L 265.03 30.00 L 264.47 30.00 L 263.90 30.00 L 263.34 30.00 L 262.78 29.98 L 262.25 29.90 L 261.78 29.68 L 261.36 29.34 L 260.96 28.95 L 260.57 28.55 L 260.26 28.12 L 260.07 27.63 L 260.01 27.09 L 259.97 26.54 L 259.84 26.03 L 259.57 25.58 L 259.27 25.14 L 259.08 24.66 L 259.01 24.12 L 259.03 23.57 Z M 266.15 21.06 L 266.44 20.61 L 266.87 20.28 L 267.36 20.10 L 267.87 20.14 L 268.34 20.39 L 268.80 20.69 L 269.29 20.90 L 269.84 20.98 L 270.42 21.00 L 271.00 21.00 L 271.58 21.00 L 272.16 21.02 L 272.71 21.10 L 273.20 21.32 L 273.60 21.68 L 273.86 22.13 L 273.90 22.64 L 273.72 23.13 L 273.39 23.56 L 272.94 23.86 L 272.43 24.04 L 271.93 24.23 L 271.47 24.53 L 271.01 24.82 L 270.50 25.00 L 269.99 25.18 L 269.53 25.47 L 269.07 25.77 L 268.57 25.91 L 268.06 25.84 L 267.61 25.55 L 267.27 25.13 L 267.06 24.64 L 266.88 24.13 L 266.62 23.66 L 266.31 23.20 L 266.10 22.71 L 266.02 22.16 L 266.03 21.59 Z M 78.15 21.06 L 78.43 20.62 L 78.84 20.28 L 79.33 20.08 L 79.87 20.01 L 80.43 20.00 L 81.00 20.01 L 81.55 20.05 L 82.05 20.22 L 82.47 20.53 L 82.78 20.95 L 82.92 21.44 L 82.85 21.94 L 82.57 22.38 L 82.16 22.72 L 81.67 22.92 L 81.13 22.99 L 80.57 23.00 L 80.00 22.99 L 79.45 22.95 L 78.95 22.78 L 78.53 22.47 L 78.22 22.05 L 78.08 21.56 Z M 249.15 20.06 L 249.44 19.62 L 249.85 19.28 L 250.34 19.10 L 250.84 19.14 L 251.30 19.38 L 251.67 19.77 L 251.90 20.25 L 251.99 20.79 L 252.03 21.33 L 252.19 21.74 L 252.57 21.94 L 253.09 22.01 L 253.63 22.08 L 254.13 22.27 L 254.55 22.60 L 254.83 23.04 L 254.92 23.54 L 254.78 24.04 L 254.48 24.49 L 254.09 24.91 L 253.68 25.31 L 253.25 25.66 L 252.77 25.89 L 252.23 25.98 L 251.67 25.98 L 251.14 25.87 L 250.68 25.61 L 250.32 25.21 L 250.10 24.73 L 250.01 24.19 L 249.98 23.63 L 249.86 23.10 L 249.60 22.63 L 249.30 22.18 L 249.09 21.69 L 249.02 21.15 L 249.03 20.59 Z M 319.16 9.06 L 319.44 8.62 L 319.86 8.28 L 320.36 8.08 L 320.91 8.01 L 321.48 8.00 L 322.06 8.01 L 322.61 8.07 L 323.11 8.26 L 323.54 8.59 L 323.83 9.04 L 323.97 9.56 L 323.98 10.12 L 323.91 10.67 L 323.71 11.16 L 323.36 11.57 L 322.91 11.86 L 322.38 11.97 L 321.81 11.98 L 321.27 11.90 L 320.78 11.68 L 320.35 11.33 L 319.93 10.93 L 319.54 10.51 L 319.23 10.07 L 319.09 9.57 Z M 265.00 8.00 L 265.42 7.60 L 265.87 7.27 L 266.37 7.10 L 266.89 7.15 L 267.34 7.42 L 267.70 7.83 L 267.91 8.33 L 267.99 8.89 L 268.00 9.47 L 268.02 10.04 L 268.11 10.54 L 268.37 10.88 L 268.80 11.09 L 269.26 11.36 L 269.64 11.74 L 269.89 12.23 L 269.98 12.77 L 269.97 13.35 L 269.86 13.89 L 269.60 14.37 L 269.29 14.83 L 269.07 15.32 L 268.89 15.84 L 268.61 16.30 L 268.21 16.67 L 267.75 16.93 L 267.33 17.14 L 267.06 17.49 L 266.86 17.95 L 266.55 18.39 L 266.12 18.73 L 265.62 18.90 L 265.11 18.85 L 264.65 18.58 L 264.30 18.17 L 264.07 17.68 L 263.89 17.16 L 263.62 16.69 L 263.24 16.25 L 262.83 15.83 L 262.44 15.41 L 262.15 14.94 L 262.03 14.40 L 262.00 13.82 L 262.00 13.23 L 262.00 12.65 L 262.01 12.06 L 262.05 11.49 L 262.21 10.97 L 262.52 10.51 L 262.92 10.08 L 263.33 9.67 L 263.75 9.25 L 264.17 8.83 L 264.58 8.42 Z" fill="rgb(228,225,221)" fill-rule="evenodd"/>
</svg>