<svg xmlns="http://www.w3.org/2000/svg" width="322" height="146" viewBox="0 0 322 146" role="img" aria-label="09_plates_09">
  <title>09_plates_09</title>
  <path d="M 73.12 3.30 L 70.39 3.94 L 67.41 4.00 L 64.41 4.00 L 61.41 4.00 L 58.41 4.00 L 55.41 4.00 L 52.41 4.00 L 49.41 4.00 L 46.41 4.00 L 43.41 4.00 L 40.41 4.00 L 37.41 4.00 L 34.41 4.00 L 31.41 4.00 L 28.41 4.00 L 25.41 4.00 L 22.40 4.00 L 19.40 4.00 L 16.40 4.00 L 13.40 4.00 L 10.44 4.09 L 7.89 5.12 L 6.02 6.91 L 5.09 9.39 L 5.00 12.36 L 5.00 15.36 L 5.21 18.27 L 6.15 20.88 L 6.94 23.56 L 6.98 26.52 L 6.55 29.34 L 5.87 32.07 L 5.19 34.78 L 5.00 37.71 L 5.00 40.71 L 5.01 43.70 L 5.46 46.25 L 7.62 47.24 L 10.31 47.96 L 12.96 48.81 L 15.37 50.24 L 17.51 51.89 L 19.38 53.64 L 21.13 55.76 L 22.76 58.08 L 23.78 60.66 L 24.00 63.57 L 24.00 66.57 L 23.75 69.47 L 22.74 72.05 L 21.49 74.53 L 20.40 77.04 L 20.93 79.36 L 23.03 81.11 L 24.43 83.26 L 23.16 84.47 L 20.71 83.65 L 17.96 83.04 L 14.98 83.00 L 11.98 83.00 L 8.98 83.01 L 6.23 83.43 L 5.06 85.64 L 5.00 88.61 L 5.03 91.60 L 5.42 94.39 L 5.33 96.95 L 5.01 99.79 L 5.00 102.78 L 5.28 105.67 L 5.92 108.40 L 6.00 111.37 L 6.00 114.37 L 5.79 117.29 L 5.15 120.02 L 5.14 122.90 L 6.07 125.52 L 7.82 127.79 L 9.92 129.92 L 12.04 132.04 L 14.07 134.20 L 15.74 136.51 L 17.70 138.70 L 19.82 140.82 L 21.95 142.94 L 24.25 144.63 L 27.10 145.00 L 30.09 145.00 L 33.09 144.99 L 35.96 144.67 L 38.70 144.05 L 41.68 144.00 L 44.57 144.26 L 47.31 144.90 L 50.27 145.00 L 53.27 145.00 L 56.27 145.00 L 59.27 145.00 L 62.27 145.00 L 65.27 145.00 L 68.27 145.00 L 71.27 145.00 L 74.27 145.00 L 77.27 145.00 L 80.28 145.00 L 83.28 145.00 L 86.28 145.00 L 89.28 145.00 L 92.28 145.00 L 95.28 145.00 L 98.28 145.00 L 101.28 145.00 L 104.28 145.00 L 107.28 145.00 L 110.28 145.00 L 113.28 145.00 L 116.28 145.00 L 119.28 145.00 L 122.28 145.00 L 125.28 145.00 L 128.28 145.00 L 131.28 145.00 L 134.29 145.00 L 137.29 145.00 L 140.29 145.00 L 143.29 145.00 L 146.29 145.00 L 149.29 145.00 L 152.29 145.00 L 155.29 145.00 L 158.29 145.00 L 161.29 145.00 L 164.29 145.00 L 167.29 145.00 L 170.29 145.00 L 173.29 145.00 L 176.29 145.00 L 179.29 145.00 L 182.29 145.00 L 185.29 145.00 L 188.29 145.00 L 191.30 145.00 L 194.30 145.00 L 197.30 145.00 L 200.30 145.00 L 203.30 145.00 L 206.30 145.00 L 209.30 145.00 L 212.30 145.00 L 215.30 145.00 L 218.30 145.00 L 221.30 145.00 L 224.30 145.00 L 227.30 145.00 L 230.30 145.00 L 233.30 145.00 L 236.30 145.00 L 239.30 145.00 L 242.30 145.00 L 245.31 145.00 L 248.31 145.00 L 251.31 145.00 L 254.31 145.00 L 257.31 145.00 L 260.31 145.00 L 263.31 145.00 L 266.31 145.00 L 269.31 145.00 L 272.31 145.00 L 275.31 145.00 L 278.31 145.00 L 281.31 145.00 L 284.31 145.00 L 287.31 145.00 L 290.31 145.00 L 293.31 145.00 L 296.31 145.00 L 299.31 145.00 L 302.32 145.00 L 305.32 145.00 L 308.32 145.00 L 311.32 145.00 L 314.31 145.00 L 317.04 144.69 L 319.05 143.27 L 320.70 141.35 L 321.00 138.51 L 321.00 135.51 L 321.00 132.51 L 321.00 129.51 L 321.00 126.51 L 321.00 123.51 L 321.00 120.51 L 321.00 117.50 L 321.00 114.50 L 321.00 111.50 L 321.00 108.50 L 321.00 105.50 L 321.00 102.50 L 321.00 99.50 L 321.00 96.50 L 321.00 93.50 L 321.00 90.50 L 321.00 87.50 L 320.70 84.66 L 318.83 83.16 L 316.05 82.67 L 313.42 81.78 L 310.91 80.58 L 308.70 78.69 L 306.61 76.56 L 304.93 74.25 L 303.68 71.77 L 302.91 69.09 L 302.23 66.37 L 302.24 63.56 L 303.04 60.89 L 303.92 58.26 L 305.26 55.81 L 307.33 53.67 L 309.45 51.55 L 311.66 49.63 L 314.12 48.33 L 316.86 47.70 L 319.48 46.94 L 320.91 45.34 L 321.00 42.43 L 321.00 39.43 L 320.76 36.53 L 320.12 33.79 L 319.93 30.91 L 318.72 29.02 L 316.31 27.86 L 314.00 26.25 L 312.37 24.37 L 313.25 22.24 L 315.57 21.55 L 316.95 23.25 L 318.16 24.53 L 319.61 22.96 L 320.28 20.26 L 320.93 17.53 L 321.00 14.56 L 321.00 11.56 L 320.94 8.59 L 319.87 6.10 L 317.46 4.81 L 314.76 4.11 L 311.80 4.00 L 308.80 4.00 L 305.80 4.00 L 302.80 4.00 L 299.80 4.00 L 296.80 4.00 L 293.80 4.00 L 290.80 4.00 L 287.80 4.00 L 284.80 4.00 L 281.80 4.00 L 278.79 4.00 L 275.79 4.00 L 272.79 4.00 L 269.79 4.00 L 266.80 3.99 L 263.94 3.64 L 261.18 3.05 L 258.21 3.00 L 255.20 3.00 L 252.20 3.00 L 249.20 3.00 L 246.25 3.11 L 243.51 3.75 L 240.61 4.00 L 237.62 4.00 L 234.62 4.00 L 231.61 4.00 L 228.61 4.00 L 225.61 4.00 L 222.61 4.00 L 219.61 4.00 L 216.61 4.00 L 213.61 4.00 L 210.61 4.00 L 207.61 4.00 L 204.61 4.00 L 201.61 4.00 L 198.61 4.00 L 195.61 4.00 L 192.61 4.00 L 189.61 4.00 L 186.61 4.00 L 183.61 4.00 L 180.61 4.00 L 177.60 4.00 L 174.60 4.00 L 171.60 4.00 L 168.60 4.00 L 165.60 4.00 L 162.60 4.00 L 159.60 4.00 L 156.60 4.00 L 153.60 4.00 L 150.60 4.00 L 147.60 4.00 L 144.60 4.00 L 141.60 4.00 L 138.60 4.00 L 135.60 4.00 L 132.60 4.00 L 129.60 4.00 L 126.60 4.00 L 123.60 4.00 L 120.59 4.00 L 117.59 4.00 L 114.59 4.00 L 111.59 4.00 L 108.59 4.00 L 105.59 4.00 L 102.68 3.79 L 99.94 3.14 L 97.00 3.00 L 94.00 3.00 L 91.00 3.00 L 88.00 3.00 L 85.00 3.00 L 82.00 3.00 L 79.00 3.00 L 76.00 3.00 Z M 33.15 137.06 L 33.42 136.63 L 33.80 136.30 L 34.26 136.09 L 34.78 136.02 L 35.32 136.00 L 35.86 136.00 L 36.41 136.00 L 36.95 136.00 L 37.50 136.00 L 38.05 136.00 L 38.59 136.00 L 39.13 136.01 L 39.65 136.07 L 40.12 136.25 L 40.52 136.57 L 40.81 136.99 L 40.93 137.46 L 40.85 137.94 L 40.58 138.37 L 40.20 138.70 L 39.74 138.91 L 39.22 138.98 L 38.68 139.00 L 38.14 139.00 L 37.59 139.00 L 37.05 139.00 L 36.50 139.00 L 35.95 139.00 L 35.41 139.00 L 34.87 138.99 L 34.35 138.93 L 33.88 138.75 L 33.48 138.43 L 33.19 138.01 L 33.07 137.54 Z M 155.17 131.06 L 155.46 130.60 L 155.90 130.26 L 156.41 130.10 L 156.94 130.16 L 157.42 130.44 L 157.90 130.75 L 158.41 130.96 L 158.94 131.15 L 159.40 131.46 L 159.74 131.90 L 159.90 132.41 L 159.83 132.94 L 159.54 133.40 L 159.10 133.74 L 158.57 133.93 L 158.00 133.98 L 157.43 133.93 L 156.90 133.74 L 156.43 133.41 L 156.00 133.00 L 155.59 132.57 L 155.26 132.10 L 155.10 131.59 Z M 124.13 26.05 L 124.37 25.67 L 124.70 25.34 L 125.09 25.12 L 125.54 25.02 L 126.01 25.00 L 126.49 25.02 L 126.94 25.12 L 127.32 25.36 L 127.65 25.69 L 127.88 26.08 L 127.96 26.51 L 127.87 26.95 L 127.63 27.33 L 127.30 27.66 L 126.91 27.88 L 126.46 27.98 L 125.99 28.00 L 125.51 27.98 L 125.06 27.88 L 124.68 27.64 L 124.35 27.31 L 124.12 26.92 L 124.04 26.49 Z M 64.16 18.07 L 64.47 17.60 L 64.92 17.25 L 65.45 17.07 L 66.03 17.02 L 66.61 17.08 L 67.14 17.29 L 67.57 17.65 L 67.86 18.13 L 67.98 18.69 L 68.02 19.29 L 68.14 19.85 L 68.40 20.35 L 68.71 20.84 L 68.91 21.36 L 69.00 21.94 L 69.06 22.53 L 69.24 23.07 L 69.55 23.55 L 69.84 24.04 L 70.04 24.57 L 70.25 25.10 L 70.56 25.58 L 70.85 26.07 L 70.97 26.63 L 71.02 27.23 L 71.12 27.80 L 71.37 28.31 L 71.68 28.79 L 71.90 29.31 L 71.99 29.89 L 72.05 30.47 L 72.21 31.02 L 72.51 31.51 L 72.81 31.99 L 73.04 32.47 L 73.32 32.82 L 73.78 32.97 L 74.37 33.00 L 74.97 33.01 L 75.56 33.07 L 76.10 33.26 L 76.58 33.57 L 77.08 33.85 L 77.64 33.97 L 78.24 34.00 L 78.85 34.00 L 79.46 34.00 L 80.07 34.00 L 80.69 34.00 L 81.30 34.00 L 81.91 34.00 L 82.52 34.00 L 83.14 34.00 L 83.75 34.00 L 84.36 34.00 L 84.97 34.00 L 85.59 34.00 L 86.20 34.00 L 86.81 34.00 L 87.42 34.00 L 88.03 34.00 L 88.65 34.00 L 89.25 34.02 L 89.82 34.13 L 90.30 34.40 L 90.68 34.82 L 90.88 35.32 L 90.85 35.86 L 90.59 36.35 L 90.19 36.80 L 89.76 37.22 L 89.31 37.61 L 88.82 37.89 L 88.28 38.08 L 87.78 38.34 L 87.32 38.70 L 86.88 39.12 L 86.44 39.56 L 86.01 39.99 L 85.57 40.40 L 85.10 40.74 L 84.61 40.97 L 84.20 41.22 L 83.96 41.63 L 83.72 42.13 L 83.36 42.56 L 82.89 42.87 L 82.36 43.06 L 81.84 43.29 L 81.38 43.65 L 80.94 44.06 L 80.50 44.50 L 80.07 44.93 L 79.64 45.36 L 79.21 45.79 L 78.78 46.23 L 78.40 46.68 L 78.13 47.19 L 78.02 47.75 L 78.03 48.35 L 78.15 48.91 L 78.43 49.40 L 78.74 49.89 L 78.93 50.42 L 78.99 51.01 L 79.00 51.62 L 79.02 52.22 L 79.12 52.79 L 79.37 53.30 L 79.68 53.78 L 79.92 54.30 L 80.11 54.83 L 80.38 55.33 L 80.69 55.81 L 80.91 56.34 L 80.99 56.91 L 81.05 57.50 L 81.22 58.04 L 81.52 58.53 L 81.82 59.02 L 81.96 59.57 L 82.00 60.17 L 82.00 60.78 L 82.03 61.38 L 82.16 61.94 L 82.44 62.43 L 82.75 62.92 L 82.93 63.46 L 82.98 64.04 L 82.92 64.62 L 82.71 65.14 L 82.35 65.57 L 81.87 65.84 L 81.34 65.88 L 80.83 65.69 L 80.36 65.34 L 79.92 64.92 L 79.49 64.49 L 79.06 64.06 L 78.62 63.62 L 78.19 63.19 L 77.75 62.77 L 77.30 62.38 L 76.79 62.12 L 76.23 62.02 L 75.63 61.97 L 75.07 61.84 L 74.59 61.54 L 74.14 61.14 L 73.70 60.72 L 73.24 60.35 L 72.74 60.09 L 72.21 59.90 L 71.70 59.64 L 71.22 59.32 L 70.71 59.08 L 70.18 58.89 L 69.68 58.61 L 69.23 58.22 L 68.79 57.80 L 68.34 57.41 L 67.84 57.14 L 67.27 57.02 L 66.67 57.00 L 66.06 57.01 L 65.47 57.06 L 64.93 57.24 L 64.45 57.54 L 63.96 57.84 L 63.43 58.04 L 62.90 58.25 L 62.42 58.56 L 61.93 58.86 L 61.40 59.05 L 60.88 59.27 L 60.41 59.62 L 59.97 60.03 L 59.54 60.46 L 59.10 60.90 L 58.66 61.32 L 58.20 61.68 L 57.68 61.90 L 57.11 61.99 L 56.52 62.05 L 55.97 62.21 L 55.50 62.54 L 55.05 62.95 L 54.62 63.38 L 54.19 63.81 L 53.75 64.24 L 53.30 64.62 L 52.79 64.88 L 52.22 64.98 L 51.63 64.97 L 51.07 64.84 L 50.60 64.53 L 50.26 64.09 L 50.10 63.57 L 50.18 63.04 L 50.46 62.55 L 50.76 62.06 L 50.94 61.52 L 50.99 60.93 L 51.00 60.32 L 51.00 59.71 L 51.00 59.10 L 51.00 58.49 L 51.02 57.88 L 51.10 57.30 L 51.32 56.78 L 51.63 56.30 L 51.88 55.79 L 51.98 55.22 L 52.00 54.62 L 52.01 54.01 L 52.07 53.42 L 52.26 52.89 L 52.57 52.40 L 52.85 51.91 L 52.98 51.35 L 53.02 50.75 L 53.13 50.18 L 53.38 49.68 L 53.69 49.19 L 53.90 48.67 L 53.98 48.09 L 53.94 47.51 L 53.78 46.97 L 53.44 46.51 L 52.99 46.18 L 52.46 45.98 L 51.93 45.77 L 51.46 45.43 L 51.02 45.02 L 50.59 44.59 L 50.15 44.15 L 49.72 43.72 L 49.29 43.29 L 48.85 42.85 L 48.42 42.42 L 47.99 41.99 L 47.56 41.56 L 47.12 41.12 L 46.69 40.69 L 46.26 40.26 L 45.82 39.82 L 45.39 39.39 L 44.96 38.96 L 44.52 38.55 L 44.04 38.22 L 43.51 38.01 L 42.99 37.81 L 42.50 37.50 L 42.01 37.20 L 41.49 36.99 L 40.96 36.78 L 40.51 36.44 L 40.20 35.99 L 40.10 35.46 L 40.24 34.94 L 40.58 34.49 L 41.05 34.17 L 41.60 34.03 L 42.20 34.00 L 42.81 34.00 L 43.42 34.00 L 44.04 34.00 L 44.65 34.00 L 45.26 34.00 L 45.87 34.00 L 46.48 34.00 L 47.10 34.00 L 47.71 34.00 L 48.32 34.00 L 48.93 34.00 L 49.55 34.00 L 50.16 34.00 L 50.77 34.00 L 51.38 34.00 L 51.99 34.00 L 52.61 34.00 L 53.22 34.00 L 53.83 34.00 L 54.44 34.00 L 55.06 34.00 L 55.67 34.00 L 56.28 34.00 L 56.89 33.99 L 57.48 33.95 L 58.03 33.78 L 58.51 33.46 L 58.95 33.05 L 59.37 32.61 L 59.71 32.14 L 59.92 31.62 L 60.00 31.04 L 60.07 30.45 L 60.25 29.92 L 60.56 29.43 L 60.84 28.94 L 60.97 28.38 L 61.00 27.78 L 61.00 27.17 L 61.04 26.57 L 61.19 26.02 L 61.50 25.54 L 61.91 25.09 L 62.33 24.65 L 62.69 24.19 L 62.93 23.68 L 63.12 23.15 L 63.40 22.65 L 63.71 22.16 L 63.91 21.64 L 63.99 21.06 L 64.00 20.45 L 64.00 19.84 L 64.00 19.23 L 64.03 18.62 Z" fill="rgb(18,18,17)" fill-rule="evenodd"/>
  <path d="M 17.21 81.19 L 17.10 81.52 L 17.28 81.83 L 17.68 81.97 L 18.21 82.00 L 18.76 82.00 L 19.30 82.02 L 19.82 82.11 L 20.27 82.34 L 20.70 82.64 L 21.15 82.89 L 21.64 83.05 L 22.11 83.24 L 22.54 83.53 L 22.97 83.81 L 23.43 83.92 L 23.80 83.80 L 23.92 83.43 L 23.80 82.97 L 23.52 82.54 L 23.14 82.15 L 22.75 81.76 L 22.35 81.40 L 21.91 81.13 L 21.40 81.02 L 20.86 81.00 L 20.31 81.00 L 19.76 81.00 L 19.21 81.00 L 18.66 81.00 L 18.11 81.00 L 17.59 81.03 Z M 313.20 23.19 L 313.08 23.56 L 313.18 24.01 L 313.47 24.42 L 313.86 24.74 L 314.32 24.94 L 314.80 25.09 L 315.24 25.33 L 315.61 25.67 L 315.88 26.09 L 316.05 26.52 L 316.28 26.84 L 316.69 26.97 L 317.19 26.98 L 317.63 26.88 L 317.87 26.62 L 317.84 26.29 L 317.55 26.06 L 317.12 25.89 L 316.70 25.63 L 316.35 25.27 L 316.11 24.83 L 316.02 24.32 L 315.98 23.81 L 315.88 23.37 L 315.60 23.11 L 315.15 23.02 L 314.62 23.00 L 314.09 23.00 L 313.58 23.03 Z" fill="rgb(92,92,91)" fill-rule="evenodd"/>
  <path d="M 304.18 63.18 L 304.03 63.53 L 304.00 64.00 L 304.00 64.50 L 304.00 65.00 L 304.00 65.50 L 304.00 66.00 L 304.00 66.50 L 304.00 67.00 L 304.03 67.47 L 304.18 67.82 L 304.53 67.97 L 305.00 68.00 L 305.50 68.00 L 306.00 68.00 L 306.47 67.97 L 306.82 67.82 L 306.97 67.47 L 307.00 67.00 L 307.00 66.50 L 307.00 66.00 L 307.00 65.50 L 307.00 65.00 L 307.00 64.50 L 307.00 64.00 L 306.97 63.53 L 306.82 63.18 L 306.47 63.03 L 306.00 63.00 L 305.50 63.00 L 305.00 63.00 L 304.53 63.03 Z M 0.18 23.18 L 0.03 23.53 L 0.00 24.00 L 0.00 24.50 L 0.00 25.00 L 0.00 25.50 L 0.00 26.00 L 0.03 26.47 L 0.18 26.82 L 0.53 26.97 L 1.00 27.00 L 1.50 27.00 L 2.00 27.00 L 2.50 27.00 L 3.00 27.00 L 3.50 27.00 L 4.00 27.00 L 4.47 26.97 L 4.82 26.82 L 4.97 26.47 L 5.00 26.00 L 5.00 25.50 L 5.00 25.00 L 5.00 24.50 L 5.00 24.00 L 4.97 23.53 L 4.82 23.18 L 4.47 23.03 L 4.00 23.00 L 3.50 23.00 L 3.00 23.00 L 2.50 23.00 L 2.00 23.00 L 1.50 23.00 L 1.00 23.00 L 0.53 23.03 Z M 66.19 20.22 L 65.98 20.59 L 65.77 21.07 L 65.48 21.53 L 65.19 21.99 L 65.04 22.51 L 64.99 23.07 L 64.92 23.62 L 64.74 24.12 L 64.41 24.57 L 64.01 24.99 L 63.62 25.40 L 63.28 25.85 L 63.08 26.34 L 63.01 26.90 L 63.00 27.47 L 62.99 28.05 L 62.93 28.60 L 62.75 29.11 L 62.44 29.56 L 62.16 30.03 L 61.98 30.54 L 61.79 31.04 L 61.50 31.50 L 61.21 31.96 L 61.05 32.47 L 61.00 33.03 L 60.93 33.59 L 60.75 34.09 L 60.42 34.52 L 59.98 34.82 L 59.46 34.96 L 58.89 35.00 L 58.31 35.00 L 57.73 35.00 L 57.15 35.00 L 56.58 35.03 L 56.05 35.15 L 55.59 35.43 L 55.13 35.73 L 54.64 35.90 L 54.13 35.86 L 53.66 35.61 L 53.21 35.31 L 52.72 35.12 L 52.21 35.13 L 51.73 35.34 L 51.28 35.65 L 50.80 35.88 L 50.25 35.98 L 49.68 36.00 L 49.10 36.00 L 48.52 36.00 L 47.94 36.00 L 47.36 36.00 L 46.78 36.00 L 46.20 36.00 L 45.62 36.00 L 45.04 36.01 L 44.53 36.07 L 44.19 36.28 L 44.15 36.62 L 44.41 36.90 L 44.84 37.10 L 45.30 37.37 L 45.73 37.74 L 46.14 38.14 L 46.53 38.56 L 46.83 39.02 L 47.01 39.52 L 47.20 40.02 L 47.52 40.46 L 47.95 40.78 L 48.45 40.97 L 48.96 41.15 L 49.41 41.45 L 49.83 41.84 L 50.24 42.24 L 50.66 42.66 L 51.07 43.07 L 51.48 43.48 L 51.89 43.89 L 52.30 44.29 L 52.73 44.65 L 53.21 44.90 L 53.72 45.08 L 54.20 45.31 L 54.64 45.66 L 55.05 46.06 L 55.45 46.47 L 55.76 46.92 L 55.91 47.42 L 55.84 47.93 L 55.58 48.40 L 55.28 48.85 L 55.08 49.35 L 55.01 49.90 L 55.00 50.48 L 54.99 51.06 L 54.93 51.61 L 54.74 52.12 L 54.44 52.57 L 54.16 53.04 L 54.03 53.56 L 54.00 54.13 L 54.00 54.71 L 53.98 55.28 L 53.88 55.82 L 53.64 56.30 L 53.33 56.76 L 53.11 57.25 L 53.02 57.79 L 53.00 58.37 L 53.00 58.95 L 53.00 59.53 L 53.00 60.11 L 53.00 60.69 L 53.03 61.24 L 53.17 61.68 L 53.50 61.89 L 53.96 61.83 L 54.42 61.57 L 54.87 61.27 L 55.37 61.08 L 55.92 61.01 L 56.48 60.96 L 57.00 60.81 L 57.46 60.51 L 57.88 60.12 L 58.29 59.71 L 58.70 59.30 L 59.11 58.89 L 59.53 58.50 L 59.99 58.19 L 60.49 58.00 L 61.00 57.82 L 61.45 57.52 L 61.87 57.13 L 62.28 56.73 L 62.72 56.36 L 63.19 56.10 L 63.70 55.93 L 64.18 55.70 L 64.64 55.40 L 65.11 55.14 L 65.65 55.02 L 66.21 55.02 L 66.75 55.11 L 67.24 55.33 L 67.70 55.64 L 68.17 55.89 L 68.68 56.07 L 69.17 56.29 L 69.61 56.63 L 70.03 57.02 L 70.44 57.42 L 70.89 57.74 L 71.39 57.93 L 71.95 58.00 L 72.51 58.05 L 73.02 58.20 L 73.48 58.51 L 73.90 58.90 L 74.31 59.31 L 74.72 59.72 L 75.13 60.13 L 75.55 60.52 L 76.01 60.82 L 76.53 60.96 L 77.09 61.01 L 77.64 61.08 L 78.14 61.28 L 78.58 61.61 L 79.00 62.00 L 79.42 62.40 L 79.86 62.72 L 80.33 62.89 L 80.73 62.81 L 80.90 62.46 L 80.81 62.00 L 80.53 61.54 L 80.24 61.08 L 80.06 60.57 L 80.00 60.02 L 79.94 59.46 L 79.78 58.95 L 79.49 58.49 L 79.20 58.02 L 79.05 57.51 L 79.00 56.95 L 78.93 56.39 L 78.75 55.89 L 78.44 55.43 L 78.17 54.97 L 78.03 54.44 L 77.99 53.88 L 77.91 53.33 L 77.71 52.83 L 77.41 52.38 L 77.14 51.91 L 77.02 51.37 L 77.00 50.80 L 77.00 50.22 L 76.98 49.65 L 76.86 49.12 L 76.61 48.64 L 76.30 48.19 L 76.11 47.70 L 76.13 47.19 L 76.36 46.72 L 76.72 46.29 L 77.13 45.87 L 77.54 45.46 L 77.95 45.05 L 78.36 44.64 L 78.77 44.23 L 79.18 43.82 L 79.60 43.44 L 80.06 43.14 L 80.57 42.97 L 81.07 42.77 L 81.52 42.45 L 81.94 42.06 L 82.35 41.65 L 82.76 41.24 L 83.17 40.83 L 83.59 40.44 L 84.04 40.14 L 84.50 39.95 L 84.85 39.69 L 85.06 39.28 L 85.30 38.81 L 85.64 38.37 L 86.04 37.96 L 86.46 37.57 L 86.91 37.24 L 87.40 37.04 L 87.91 36.87 L 88.36 36.57 L 88.71 36.16 L 88.88 35.70 L 88.81 35.29 L 88.47 35.07 L 87.95 35.01 L 87.38 35.00 L 86.81 35.02 L 86.26 35.10 L 85.77 35.32 L 85.32 35.63 L 84.84 35.87 L 84.30 35.98 L 83.73 36.00 L 83.15 36.00 L 82.57 36.00 L 81.98 36.00 L 81.40 36.00 L 80.83 35.98 L 80.28 35.90 L 79.79 35.69 L 79.34 35.38 L 78.86 35.13 L 78.32 35.02 L 77.75 35.00 L 77.17 35.00 L 76.59 35.00 L 76.01 35.00 L 75.43 35.00 L 74.85 35.00 L 74.27 35.00 L 73.69 34.98 L 73.16 34.87 L 72.68 34.61 L 72.25 34.25 L 71.84 33.84 L 71.46 33.42 L 71.16 32.96 L 71.03 32.43 L 70.99 31.87 L 70.91 31.32 L 70.71 30.83 L 70.40 30.37 L 70.13 29.90 L 69.95 29.39 L 69.75 28.90 L 69.45 28.44 L 69.17 27.98 L 69.04 27.45 L 69.00 26.88 L 69.00 26.31 L 68.98 25.73 L 68.88 25.19 L 68.63 24.71 L 68.27 24.28 L 67.87 23.87 L 67.48 23.45 L 67.18 22.99 L 67.04 22.47 L 67.00 21.90 L 67.00 21.33 L 66.97 20.77 L 66.84 20.33 L 66.53 20.12 Z M 279.18 0.18 L 279.03 0.53 L 279.00 1.00 L 279.03 1.47 L 279.18 1.82 L 279.53 1.97 L 280.00 2.00 L 280.50 2.00 L 281.00 2.00 L 281.50 2.00 L 282.00 2.00 L 282.50 2.00 L 283.00 2.00 L 283.50 2.00 L 284.00 2.00 L 284.50 2.00 L 285.00 2.00 L 285.50 2.00 L 286.00 2.00 L 286.50 2.00 L 287.00 2.00 L 287.50 2.00 L 288.00 2.00 L 288.50 2.00 L 289.00 2.00 L 289.50 2.00 L 290.00 2.00 L 290.50 2.00 L 291.00 2.00 L 291.50 2.00 L 292.00 2.00 L 292.50 2.00 L 293.00 2.00 L 293.50 2.00 L 294.00 2.00 L 294.50 2.00 L 295.00 2.00 L 295.50 2.00 L 296.00 2.00 L 296.50 2.00 L 297.00 2.00 L 297.50 2.00 L 298.00 2.00 L 298.47 1.97 L 298.82 1.82 L 298.97 1.47 L 299.00 1.00 L 298.97 0.53 L 298.82 0.18 L 298.47 0.03 L 298.00 0.00 L 297.50 0.00 L 297.00 0.00 L 296.50 0.00 L 296.00 0.00 L 295.50 0.00 L 295.00 0.00 L 294.50 0.00 L 294.00 0.00 L 293.50 0.00 L 293.00 0.00 L 292.50 0.00 L 292.00 0.00 L 291.50 0.00 L 291.00 0.00 L 290.50 0.00 L 290.00 0.00 L 289.50 0.00 L 289.00 0.00 L 288.50 0.00 L 288.00 0.00 L 287.50 0.00 L 287.00 0.00 L 286.50 0.00 L 286.00 0.00 L 285.50 0.00 L 285.00 0.00 L 284.50 0.00 L 284.00 0.00 L 283.50 0.00 L 283.00 0.00 L 282.50 0.00 L 282.00 0.00 L 281.50 0.00 L 281.00 0.00 L 280.50 0.00 L 280.00 0.00 L 279.53 0.03 Z M 222.18 0.18 L 222.03 0.53 L 222.00 1.00 L 222.03 1.47 L 222.18 1.82 L 222.53 1.97 L 223.00 2.00 L 223.50 2.00 L 224.00 2.00 L 224.50 2.00 L 225.00 2.00 L 225.50 2.00 L 226.00 2.00 L 226.50 2.00 L 227.00 2.00 L 227.50 2.00 L 228.00 2.00 L 228.50 2.00 L 229.00 2.00 L 229.50 2.00 L 230.00 2.00 L 230.50 2.00 L 231.00 2.00 L 231.50 2.00 L 232.00 2.00 L 232.50 2.00 L 233.00 2.00 L 233.50 2.00 L 234.00 2.00 L 234.50 2.00 L 235.00 2.00 L 235.50 2.00 L 236.00 2.00 L 236.50 2.00 L 237.00 2.00 L 237.50 2.00 L 238.00 2.00 L 238.50 2.00 L 239.00 2.00 L 239.50 2.00 L 240.00 2.00 L 240.50 2.00 L 241.00 2.00 L 241.50 2.00 L 242.00 2.00 L 242.50 2.00 L 243.00 2.00 L 243.50 2.00 L 244.00 2.00 L 244.50 2.00 L 245.00 2.00 L 245.50 2.00 L 246.00 2.00 L 246.50 2.00 L 247.00 2.00 L 247.50 2.00 L 248.00 2.00 L 248.50 2.00 L 249.00 2.00 L 249.50 2.00 L 250.00 2.00 L 250.50 2.00 L 251.00 2.00 L 251.50 2.00 L 252.00 2.00 L 252.50 2.00 L 253.00 2.00 L 253.50 2.00 L 254.00 2.00 L 254.50 2.00 L 255.00 2.00 L 255.50 2.00 L 256.00 2.00 L 256.50 2.00 L 257.00 2.00 L 257.50 2.00 L 258.00 2.00 L 258.50 2.00 L 259.00 2.00 L 259.50 2.00 L 260.00 2.00 L 260.50 2.00 L 261.00 2.00 L 261.50 2.00 L 262.00 2.00 L 262.50 2.00 L 263.00 2.00 L 263.50 2.00 L 264.00 2.00 L 264.50 2.00 L 265.00 2.00 L 265.50 2.00 L 266.00 2.00 L 266.50 2.00 L 267.00 2.00 L 267.50 2.00 L 268.00 2.00 L 268.50 2.00 L 269.00 2.00 L 269.50 2.00 L 270.00 2.00 L 270.50 2.00 L 271.00 2.00 L 271.50 2.00 L 272.00 2.00 L 272.50 2.00 L 273.00 2.00 L 273.50 2.00 L 274.00 2.00 L 274.47 1.97 L 274.82 1.82 L 274.97 1.47 L 275.00 1.00 L 274.97 0.53 L 274.82 0.18 L 274.47 0.03 L 274.00 0.00 L 273.50 0.00 L 273.00 0.00 L 272.50 0.00 L 272.00 0.00 L 271.50 0.00 L 271.00 0.00 L 270.50 0.00 L 270.00 0.00 L 269.50 0.00 L 269.00 0.00 L 268.50 0.00 L 268.00 0.00 L 267.50 0.00 L 267.00 0.00 L 266.50 0.00 L 266.00 0.00 L 265.50 0.00 L 265.00 0.00 L 264.50 0.00 L 264.00 0.00 L 263.50 0.00 L 263.00 0.00 L 262.50 0.00 L 262.00 0.00 L 261.50 0.00 L 261.00 0.00 L 260.50 0.00 L 260.00 0.00 L 259.50 0.00 L 259.00 0.00 L 258.50 0.00 L 258.00 0.00 L 257.50 0.00 L 257.00 0.00 L 256.50 0.00 L 256.00 0.00 L 255.50 0.00 L 255.00 0.00 L 254.50 0.00 L 254.00 0.00 L 253.50 0.00 L 253.00 0.00 L 252.50 0.00 L 252.00 0.00 L 251.50 0.00 L 251.00 0.00 L 250.50 0.00 L 250.00 0.00 L 249.50 0.00 L 249.00 0.00 L 248.50 0.00 L 248.00 0.00 L 247.50 0.00 L 247.00 0.00 L 246.50 0.00 L 246.00 0.00 L 245.50 0.00 L 245.00 0.00 L 244.50 0.00 L 244.00 0.00 L 243.50 0.00 L 243.00 0.00 L 242.50 0.00 L 242.00 0.00 L 241.50 0.00 L 241.00 0.00 L 240.50 0.00 L 240.00 0.00 L 239.50 0.00 L 239.00 0.00 L 238.50 0.00 L 238.00 0.00 L 237.50 0.00 L 237.00 0.00 L 236.50 0.00 L 236.00 0.00 L 235.50 0.00 L 235.00 0.00 L 234.50 0.00 L 234.00 0.00 L 233.50 0.00 L 233.00 0.00 L 232.50 0.00 L 232.00 0.00 L 231.50 0.00 L 231.00 0.00 L 230.50 0.00 L 230.00 0.00 L 229.50 0.00 L 229.00 0.00 L 228.50 0.00 L 228.00 0.00 L 227.50 0.00 L 227.00 0.00 L 226.50 0.00 L 226.00 0.00 L 225.50 0.00 L 225.00 0.00 L 224.50 0.00 L 224.00 0.00 L 223.50 0.00 L 223.00 0.00 L 222.53 0.03 Z M 193.18 0.18 L 193.03 0.53 L 193.00 1.00 L 193.03 1.47 L 193.18 1.82 L 193.53 1.97 L 194.00 2.00 L 194.50 2.00 L 195.00 2.00 L 195.50 2.00 L 196.00 2.00 L 196.50 2.00 L 197.00 2.00 L 197.50 2.00 L 198.00 2.00 L 198.50 2.00 L 199.00 2.00 L 199.50 2.00 L 200.00 2.00 L 200.50 2.00 L 201.00 2.00 L 201.50 2.00 L 202.00 2.00 L 202.50 2.00 L 203.00 2.00 L 203.47 1.97 L 203.82 1.82 L 203.97 1.47 L 204.00 1.00 L 203.97 0.53 L 203.82 0.18 L 203.47 0.03 L 203.00 0.00 L 202.50 0.00 L 202.00 0.00 L 201.50 0.00 L 201.00 0.00 L 200.50 0.00 L 200.00 0.00 L 199.50 0.00 L 199.00 0.00 L 198.50 0.00 L 198.00 0.00 L 197.50 0.00 L 197.00 0.00 L 196.50 0.00 L 196.00 0.00 L 195.50 0.00 L 195.00 0.00 L 194.50 0.00 L 194.00 0.00 L 193.53 0.03 Z M 163.18 0.18 L 163.03 0.53 L 163.00 1.00 L 163.03 1.47 L 163.18 1.82 L 163.53 1.97 L 164.00 2.00 L 164.50 2.00 L 165.00 2.00 L 165.50 2.00 L 166.00 2.00 L 166.50 2.00 L 167.00 2.00 L 167.50 2.00 L 168.00 2.00 L 168.50 2.00 L 169.00 2.00 L 169.50 2.00 L 170.00 2.00 L 170.50 2.00 L 171.00 2.00 L 171.50 2.00 L 172.00 2.00 L 172.50 2.00 L 173.00 2.00 L 173.50 2.00 L 174.00 2.00 L 174.50 2.00 L 175.00 2.00 L 175.50 2.00 L 176.00 2.00 L 176.50 2.00 L 177.00 2.00 L 177.50 2.00 L 178.00 2.00 L 178.50 2.00 L 179.00 2.00 L 179.50 2.00 L 180.00 2.00 L 180.50 2.00 L 181.00 2.00 L 181.50 2.00 L 182.00 2.00 L 182.50 2.00 L 183.00 2.00 L 183.50 2.00 L 184.00 2.00 L 184.50 2.00 L 185.00 2.00 L 185.50 2.00 L 186.00 2.00 L 186.50 2.00 L 187.00 2.00 L 187.50 2.00 L 188.00 2.00 L 188.47 1.97 L 188.82 1.82 L 188.97 1.47 L 189.00 1.00 L 188.97 0.53 L 188.82 0.18 L 188.47 0.03 L 188.00 0.00 L 187.50 0.00 L 187.00 0.00 L 186.50 0.00 L 186.00 0.00 L 185.50 0.00 L 185.00 0.00 L 184.50 0.00 L 184.00 0.00 L 183.50 0.00 L 183.00 0.00 L 182.50 0.00 L 182.00 0.00 L 181.50 0.00 L 181.00 0.00 L 180.50 0.00 L 180.00 0.00 L 179.50 0.00 L 179.00 0.00 L 178.50 0.00 L 178.00 0.00 L 177.50 0.00 L 177.00 0.00 L 176.50 0.00 L 176.00 0.00 L 175.50 0.00 L 175.00 0.00 L 174.50 0.00 L 174.00 0.00 L 173.50 0.00 L 173.00 0.00 L 172.50 0.00 L 172.00 0.00 L 171.50 0.00 L 171.00 0.00 L 170.50 0.00 L 170.00 0.00 L 169.50 0.00 L 169.00 0.00 L 168.50 0.00 L 168.00 0.00 L 167.50 0.00 L 167.00 0.00 L 166.50 0.00 L 166.00 0.00 L 165.50 0.00 L 165.00 0.00 L 164.50 0.00 L 164.00 0.00 L 163.53 0.03 Z M 60.18 0.18 L 60.03 0.53 L 60.00 1.00 L 60.03 1.47 L 60.18 1.82 L 60.53 1.97 L 61.00 2.00 L 61.50 2.00 L 62.00 2.00 L 62.50 2.00 L 63.00 2.00 L 63.50 2.00 L 64.00 2.00 L 64.50 2.00 L 65.00 2.00 L 65.50 2.00 L 66.00 2.00 L 66.50 2.00 L 67.00 2.00 L 67.50 2.00 L 68.00 2.00 L 68.50 2.00 L 69.00 2.00 L 69.50 2.00 L 70.00 2.00 L 70.50 2.00 L 71.00 2.00 L 71.50 2.00 L 72.00 2.00 L 72.50 2.00 L 73.00 2.00 L 73.50 2.00 L 74.00 2.00 L 74.50 2.00 L 75.00 2.00 L 75.50 2.00 L 76.00 2.00 L 76.50 2.00 L 77.00 2.00 L 77.50 2.00 L 78.00 2.00 L 78.50 2.00 L 79.00 2.00 L 79.50 2.00 L 80.00 2.00 L 80.50 2.00 L 81.00 2.00 L 81.50 2.00 L 82.00 2.00 L 82.50 2.00 L 83.00 2.00 L 83.50 2.00 L 84.00 2.00 L 84.50 2.00 L 85.00 2.00 L 85.50 2.00 L 86.00 2.00 L 86.50 2.00 L 87.00 2.00 L 87.50 2.00 L 88.00 2.00 L 88.50 2.00 L 89.00 2.00 L 89.50 2.00 L 90.00 2.00 L 90.50 2.00 L 91.00 2.00 L 91.50 2.00 L 92.00 2.00 L 92.50 2.00 L 93.00 2.00 L 93.50 2.00 L 94.00 2.00 L 94.50 2.00 L 95.00 2.00 L 95.50 2.00 L 96.00 2.00 L 96.50 2.00 L 97.00 2.00 L 97.50 2.00 L 98.00 2.00 L 98.50 2.00 L 99.00 2.00 L 99.50 2.00 L 100.00 2.00 L 100.50 2.00 L 101.00 2.00 L 101.50 2.00 L 102.00 2.00 L 102.50 2.00 L 103.00 2.00 L 103.50 2.00 L 104.00 2.00 L 104.50 2.00 L 105.00 2.00 L 105.50 2.00 L 106.00 2.00 L 106.50 2.00 L 107.00 2.00 L 107.47 1.97 L 107.82 1.82 L 107.97 1.47 L 108.00 1.00 L 107.97 0.53 L 107.82 0.18 L 107.47 0.03 L 107.00 0.00 L 106.50 0.00 L 106.00 0.00 L 105.50 0.00 L 105.00 0.00 L 104.50 0.00 L 104.00 0.00 L 103.50 0.00 L 103.00 0.00 L 102.50 0.00 L 102.00 0.00 L 101.50 0.00 L 101.00 0.00 L 100.50 0.00 L 100.00 0.00 L 99.50 0.00 L 99.00 0.00 L 98.50 0.00 L 98.00 0.00 L 97.50 0.00 L 97.00 0.00 L 96.50 0.00 L 96.00 0.00 L 95.50 0.00 L 95.00 0.00 L 94.50 0.00 L 94.00 0.00 L 93.50 0.00 L 93.00 0.00 L 92.50 0.00 L 92.00 0.00 L 91.50 0.00 L 91.00 0.00 L 90.50 0.00 L 90.00 0.00 L 89.50 0.00 L 89.00 0.00 L 88.50 0.00 L 88.00 0.00 L 87.50 0.00 L 87.00 0.00 L 86.50 0.00 L 86.00 0.00 L 85.50 0.00 L 85.00 0.00 L 84.50 0.00 L 84.00 0.00 L 83.50 0.00 L 83.00 0.00 L 82.50 0.00 L 82.00 0.00 L 81.50 0.00 L 81.00 0.00 L 80.50 0.00 L 80.00 0.00 L 79.50 0.00 L 79.00 0.00 L 78.50 0.00 L 78.00 0.00 L 77.50 0.00 L 77.00 0.00 L 76.50 0.00 L 76.00 0.00 L 75.50 0.00 L 75.00 0.00 L 74.50 0.00 L 74.00 0.00 L 73.50 0.00 L 73.00 0.00 L 72.50 0.00 L 72.00 0.00 L 71.50 0.00 L 71.00 0.00 L 70.50 0.00 L 70.00 0.00 L 69.50 0.00 L 69.00 0.00 L 68.50 0.00 L 68.00 0.00 L 67.50 0.00 L 67.00 0.00 L 66.50 0.00 L 66.00 0.00 L 65.50 0.00 L 65.00 0.00 L 64.50 0.00 L 64.00 0.00 L 63.50 0.00 L 63.00 0.00 L 62.50 0.00 L 62.00 0.00 L 61.50 0.00 L 61.00 0.00 L 60.53 0.03 Z M 23.18 0.18 L 23.03 0.53 L 23.00 1.00 L 23.03 1.47 L 23.18 1.82 L 23.53 1.97 L 24.00 2.00 L 24.50 2.00 L 25.00 2.00 L 25.50 2.00 L 26.00 2.00 L 26.50 2.00 L 27.00 2.00 L 27.47 1.97 L 27.82 1.82 L 27.97 1.47 L 28.00 1.00 L 27.97 0.53 L 27.82 0.18 L 27.47 0.03 L 27.00 0.00 L 26.50 0.00 L 26.00 0.00 L 25.50 0.00 L 25.00 0.00 L 24.50 0.00 L 24.00 0.00 L 23.53 0.03 Z" fill="rgb(247,247,247)" fill-rule="evenodd"/>
</svg>