<svg xmlns="http://www.w3.org/2000/svg" width="316" height="148" viewBox="0 0 316 148" role="img" aria-label="10_plates_10">
  <title>10_plates_10</title>
  <path d="M 47.12 3.30 L 44.39 3.94 L 41.41 4.00 L 38.41 4.00 L 35.42 4.03 L 32.60 4.48 L 29.94 5.32 L 27.25 6.06 L 24.62 6.96 L 22.14 8.22 L 19.88 10.02 L 17.55 11.64 L 15.09 12.96 L 12.68 14.39 L 10.54 16.46 L 8.46 18.60 L 7.17 21.07 L 7.00 24.00 L 7.00 27.01 L 7.00 30.01 L 7.00 33.01 L 7.00 36.01 L 7.00 39.02 L 7.00 42.02 L 7.00 45.02 L 7.00 48.02 L 7.00 51.03 L 7.00 54.03 L 7.00 57.03 L 7.00 60.03 L 7.00 63.04 L 7.00 66.04 L 6.96 69.02 L 6.41 71.80 L 6.10 74.61 L 6.72 77.34 L 7.00 80.23 L 7.00 83.23 L 7.00 86.23 L 7.00 89.23 L 7.00 92.23 L 7.00 95.24 L 7.00 98.24 L 7.00 101.24 L 7.00 104.24 L 7.00 107.25 L 7.00 110.25 L 7.00 113.25 L 7.00 116.26 L 7.00 119.26 L 7.00 122.26 L 7.00 125.26 L 7.23 128.17 L 8.64 130.59 L 10.73 132.73 L 12.85 134.85 L 14.98 136.96 L 17.21 138.47 L 19.76 138.07 L 22.25 136.91 L 24.67 136.67 L 27.14 137.84 L 29.55 139.13 L 30.50 141.16 L 30.25 143.66 L 31.92 144.93 L 34.85 145.00 L 37.85 145.00 L 40.85 145.00 L 43.85 145.00 L 46.86 145.00 L 49.84 145.04 L 52.64 145.54 L 55.46 145.97 L 58.43 145.94 L 61.15 145.34 L 63.80 145.60 L 66.64 145.98 L 69.63 146.00 L 72.64 146.00 L 75.64 146.00 L 78.64 146.00 L 81.65 146.00 L 84.65 146.00 L 87.54 145.74 L 90.28 145.10 L 93.24 145.00 L 96.24 145.00 L 99.25 145.00 L 102.25 145.00 L 105.25 145.00 L 108.25 145.00 L 111.26 145.00 L 114.26 145.00 L 117.26 145.00 L 120.27 145.00 L 123.27 145.00 L 126.27 145.00 L 129.27 145.00 L 132.28 145.00 L 135.28 145.00 L 138.28 145.00 L 141.28 145.00 L 144.29 145.00 L 147.29 145.00 L 150.29 145.00 L 153.29 145.00 L 156.30 145.00 L 159.30 145.00 L 162.30 145.00 L 165.30 145.00 L 168.31 145.00 L 171.31 145.00 L 174.31 145.00 L 177.31 145.00 L 180.32 145.00 L 183.32 145.00 L 186.32 145.00 L 189.33 145.00 L 192.33 145.00 L 195.33 145.00 L 198.33 145.00 L 201.34 145.00 L 204.34 145.00 L 207.34 145.00 L 210.34 145.00 L 213.35 145.00 L 216.35 145.00 L 219.35 145.00 L 222.35 145.00 L 225.36 145.00 L 228.36 145.00 L 231.36 145.00 L 234.36 145.00 L 237.37 145.00 L 240.37 145.00 L 243.37 145.00 L 246.37 145.00 L 249.38 145.00 L 252.38 145.00 L 255.38 145.00 L 258.39 145.00 L 261.38 145.02 L 264.22 145.41 L 266.94 145.82 L 269.66 145.22 L 272.47 145.23 L 275.06 145.54 L 277.77 145.05 L 280.74 144.97 L 283.54 144.49 L 286.35 144.03 L 289.32 143.94 L 292.04 143.27 L 294.33 142.05 L 295.70 139.92 L 297.96 138.62 L 300.39 137.26 L 302.87 135.99 L 305.13 134.19 L 307.50 132.68 L 309.83 131.05 L 311.91 128.98 L 312.94 126.40 L 313.00 123.42 L 313.00 120.42 L 313.00 117.42 L 313.00 114.42 L 313.00 111.41 L 313.00 108.41 L 313.00 105.41 L 313.00 102.41 L 313.00 99.40 L 313.00 96.40 L 313.00 93.40 L 313.00 90.40 L 313.00 87.39 L 313.00 84.39 L 312.76 81.50 L 312.47 78.90 L 312.95 76.19 L 313.00 73.21 L 313.00 70.21 L 313.00 67.20 L 313.00 64.20 L 313.00 61.20 L 313.00 58.20 L 313.00 55.19 L 313.00 52.19 L 313.00 49.19 L 313.00 46.19 L 313.00 43.18 L 313.00 40.18 L 313.00 37.18 L 313.00 34.18 L 313.00 31.17 L 313.00 28.17 L 313.00 25.17 L 312.96 22.18 L 312.20 19.49 L 310.26 17.33 L 307.97 15.65 L 306.06 13.61 L 304.30 11.34 L 302.21 9.21 L 300.08 7.08 L 297.92 5.06 L 295.33 4.06 L 292.35 4.00 L 289.35 4.00 L 286.35 4.00 L 283.34 4.00 L 280.34 4.00 L 277.34 4.00 L 274.34 4.00 L 271.33 4.00 L 268.33 4.00 L 265.33 4.00 L 262.33 4.00 L 259.32 4.00 L 256.32 4.00 L 253.32 4.00 L 250.32 4.00 L 247.31 4.00 L 244.31 4.00 L 241.31 4.00 L 238.30 4.00 L 235.30 4.00 L 232.30 4.00 L 229.30 4.00 L 226.29 4.00 L 223.29 4.00 L 220.29 4.00 L 217.29 4.00 L 214.28 4.00 L 211.28 4.00 L 208.28 4.00 L 205.28 4.00 L 202.27 4.00 L 199.27 4.00 L 196.27 4.00 L 193.27 4.00 L 190.26 4.00 L 187.31 4.05 L 184.98 4.85 L 182.94 5.34 L 180.86 4.24 L 178.08 4.00 L 175.08 4.00 L 172.07 4.00 L 169.07 4.00 L 166.07 4.00 L 163.08 3.96 L 160.31 3.46 L 157.65 3.47 L 154.87 3.96 L 151.88 4.00 L 148.88 3.99 L 146.02 3.67 L 143.27 3.05 L 140.30 3.03 L 137.49 3.50 L 134.68 3.97 L 131.70 3.98 L 128.87 3.65 L 126.32 3.58 L 123.70 3.58 L 121.16 3.64 L 118.33 3.98 L 115.35 3.97 L 112.53 3.51 L 109.73 3.03 L 106.76 3.05 L 104.01 3.65 L 101.27 3.72 L 98.71 3.49 L 95.96 3.96 L 92.97 4.00 L 89.99 3.96 L 87.24 3.49 L 84.67 3.74 L 81.79 4.00 L 78.79 4.00 L 75.78 4.00 L 72.78 4.00 L 69.78 4.00 L 66.85 3.82 L 64.23 3.46 L 61.65 3.71 L 58.95 3.15 L 56.01 3.00 L 53.01 3.00 L 50.00 3.00 Z M 85.88 9.70 L 88.62 9.06 L 91.60 9.00 L 94.60 9.00 L 97.61 9.00 L 100.61 9.00 L 103.62 9.00 L 106.62 9.00 L 109.63 9.00 L 112.63 9.00 L 115.64 9.00 L 118.64 9.00 L 121.65 9.00 L 124.65 9.00 L 127.66 9.00 L 130.66 9.00 L 133.67 9.00 L 136.67 9.00 L 139.68 9.00 L 142.68 9.00 L 145.68 9.00 L 148.50 9.34 L 150.21 11.02 L 152.31 11.93 L 154.60 11.28 L 156.15 9.53 L 158.31 9.91 L 159.85 11.61 L 162.49 12.00 L 165.46 11.94 L 168.20 11.30 L 171.08 11.00 L 174.09 11.00 L 177.09 11.00 L 180.10 11.00 L 183.10 11.00 L 186.11 11.00 L 189.11 11.00 L 192.12 11.00 L 195.12 11.00 L 198.13 11.00 L 201.13 11.00 L 204.07 11.17 L 206.81 11.81 L 209.73 12.00 L 212.74 12.00 L 215.74 12.00 L 218.63 12.26 L 221.21 12.52 L 223.95 12.04 L 226.93 12.00 L 229.79 12.36 L 232.26 13.65 L 235.10 13.94 L 237.76 13.12 L 240.35 12.11 L 243.31 12.00 L 246.31 12.00 L 249.31 12.02 L 252.09 12.55 L 254.21 14.42 L 255.88 16.72 L 258.04 18.53 L 260.50 18.55 L 262.36 16.80 L 263.98 14.88 L 265.73 13.37 L 267.93 14.16 L 270.00 15.59 L 272.70 15.70 L 275.43 15.10 L 278.14 15.60 L 279.99 17.59 L 281.27 20.06 L 282.82 22.23 L 285.29 23.17 L 287.66 23.41 L 289.66 22.36 L 292.07 23.16 L 294.20 25.22 L 296.07 27.28 L 297.63 29.26 L 298.00 32.08 L 298.00 35.09 L 298.01 38.09 L 298.33 40.96 L 298.95 43.71 L 299.00 46.69 L 299.00 49.70 L 299.00 52.70 L 299.00 55.71 L 299.00 58.71 L 299.00 61.72 L 299.00 64.72 L 299.00 67.73 L 299.00 70.73 L 299.00 73.74 L 298.90 76.70 L 298.26 79.44 L 297.81 82.25 L 297.46 84.87 L 297.92 87.53 L 297.50 90.32 L 296.42 92.88 L 296.02 95.71 L 296.00 98.71 L 296.00 101.72 L 296.00 104.72 L 296.00 107.73 L 296.00 110.73 L 296.00 113.74 L 295.97 116.73 L 295.43 119.51 L 293.98 121.92 L 291.93 124.07 L 289.81 126.19 L 287.68 128.32 L 285.47 130.23 L 282.89 131.20 L 280.88 132.79 L 278.86 134.65 L 276.58 135.95 L 274.65 137.63 L 271.85 137.95 L 269.10 137.33 L 266.81 136.15 L 266.60 133.88 L 268.15 131.95 L 267.54 130.56 L 265.11 129.42 L 262.47 129.37 L 261.31 131.29 L 261.80 133.95 L 261.06 136.31 L 258.67 137.41 L 255.91 137.91 L 253.16 137.39 L 250.42 137.28 L 247.68 137.90 L 244.72 138.00 L 241.71 138.00 L 238.79 138.19 L 236.17 138.54 L 233.50 138.06 L 230.52 138.00 L 227.55 138.03 L 225.10 138.72 L 222.83 139.84 L 219.92 140.00 L 216.91 140.00 L 213.91 140.00 L 210.90 140.00 L 207.90 140.00 L 204.89 140.00 L 201.89 140.00 L 198.88 140.00 L 195.88 140.00 L 192.87 140.00 L 189.87 140.00 L 186.86 140.00 L 183.86 140.00 L 180.85 140.00 L 177.85 140.00 L 174.84 140.00 L 171.84 140.00 L 168.83 140.00 L 165.83 140.00 L 162.83 140.01 L 159.98 140.32 L 157.42 140.43 L 154.62 140.03 L 151.63 140.00 L 148.62 140.00 L 145.62 140.00 L 142.62 140.00 L 139.61 140.00 L 136.61 140.00 L 133.60 140.00 L 130.60 140.00 L 127.59 140.00 L 124.59 140.00 L 121.58 140.00 L 118.58 140.00 L 115.58 139.98 L 112.98 139.33 L 111.48 137.52 L 108.96 137.01 L 106.03 137.07 L 103.82 138.09 L 101.64 139.66 L 98.78 140.00 L 95.77 140.00 L 92.90 139.76 L 91.05 138.21 L 89.32 136.54 L 86.57 136.03 L 83.58 136.00 L 80.57 136.00 L 77.57 136.00 L 74.56 136.00 L 71.56 136.00 L 68.64 136.22 L 65.97 136.71 L 63.28 136.21 L 60.36 136.00 L 57.36 136.00 L 54.36 136.00 L 51.35 136.00 L 48.35 136.00 L 45.35 135.97 L 42.56 135.46 L 40.13 134.07 L 37.78 132.48 L 35.57 130.57 L 33.44 128.44 L 31.32 126.32 L 29.20 124.20 L 27.08 122.07 L 25.36 119.77 L 24.68 117.05 L 24.06 114.30 L 24.00 111.32 L 24.00 108.32 L 24.00 105.31 L 24.00 102.31 L 24.00 99.30 L 24.00 96.30 L 24.00 93.29 L 23.90 90.33 L 23.26 87.59 L 23.00 84.69 L 23.00 81.69 L 23.00 78.68 L 23.00 75.68 L 23.00 72.67 L 23.00 69.67 L 23.00 66.66 L 23.00 63.66 L 23.06 60.68 L 23.98 58.23 L 24.93 55.99 L 25.00 53.05 L 25.00 50.05 L 25.00 47.04 L 25.00 44.04 L 25.00 41.03 L 25.00 38.03 L 25.00 35.02 L 25.04 32.03 L 25.58 29.25 L 26.28 26.54 L 27.94 24.39 L 30.24 22.74 L 32.52 20.99 L 34.85 19.40 L 36.72 17.56 L 38.02 15.13 L 40.07 13.09 L 42.47 12.56 L 45.10 13.33 L 47.73 13.66 L 50.14 12.73 L 52.20 11.33 L 54.78 10.42 L 57.62 10.02 L 60.61 10.00 L 63.58 10.08 L 66.25 10.90 L 68.86 11.78 L 71.59 11.47 L 74.41 11.03 L 77.40 11.00 L 80.32 10.79 L 83.05 10.14 Z" fill="rgb(20,20,19)" fill-rule="evenodd"/>
  <path d="M 23.19 138.20 L 22.99 138.56 L 22.82 139.02 L 22.52 139.43 L 22.13 139.74 L 21.66 139.93 L 21.14 139.99 L 20.63 140.03 L 20.24 140.18 L 20.10 140.50 L 20.23 140.82 L 20.61 140.97 L 21.12 141.01 L 21.64 141.07 L 22.11 141.25 L 22.54 141.53 L 22.97 141.81 L 23.46 141.95 L 23.98 141.99 L 24.53 142.00 L 25.07 141.99 L 25.59 141.94 L 26.07 141.78 L 26.50 141.50 L 26.93 141.22 L 27.41 141.06 L 27.93 141.01 L 28.47 141.00 L 29.01 140.99 L 29.50 140.93 L 29.82 140.74 L 29.88 140.41 L 29.67 140.12 L 29.27 139.94 L 28.83 139.72 L 28.41 139.42 L 27.97 139.15 L 27.49 139.00 L 27.01 138.84 L 26.58 138.57 L 26.16 138.27 L 25.69 138.08 L 25.17 138.01 L 24.63 138.00 L 24.09 138.00 L 23.58 138.03 Z" fill="rgb(94,94,93)" fill-rule="evenodd"/>
  <path d="M 314.18 88.18 L 314.03 88.53 L 314.00 89.00 L 314.00 89.50 L 314.00 90.00 L 314.00 90.50 L 314.00 91.00 L 314.00 91.50 L 314.00 92.00 L 314.00 92.50 L 314.00 93.00 L 314.00 93.50 L 314.00 94.00 L 314.00 94.50 L 314.00 95.00 L 314.00 95.50 L 314.00 96.00 L 314.00 96.50 L 314.00 97.00 L 314.00 97.50 L 314.00 98.00 L 314.00 98.50 L 314.00 99.00 L 314.00 99.50 L 314.00 100.00 L 314.00 100.50 L 314.00 101.00 L 314.00 101.50 L 314.00 102.00 L 314.00 102.50 L 314.00 103.00 L 314.00 103.50 L 314.00 104.00 L 314.00 104.50 L 314.00 105.00 L 314.00 105.50 L 314.00 106.00 L 314.00 106.50 L 314.00 107.00 L 314.00 107.50 L 314.00 108.00 L 314.00 108.50 L 314.00 109.00 L 314.00 109.50 L 314.00 110.00 L 314.00 110.50 L 314.00 111.00 L 314.00 111.50 L 314.00 112.00 L 314.00 112.50 L 314.00 113.00 L 314.00 113.50 L 314.00 114.00 L 314.00 114.50 L 314.00 115.00 L 314.00 115.50 L 314.00 116.00 L 314.00 116.50 L 314.00 117.00 L 314.03 117.47 L 314.18 117.82 L 314.50 117.94 L 314.82 117.82 L 314.97 117.47 L 315.00 117.00 L 315.00 116.50 L 315.00 116.00 L 315.00 115.50 L 315.00 115.00 L 315.00 114.50 L 315.00 114.00 L 315.00 113.50 L 315.00 113.00 L 315.00 112.50 L 315.00 112.00 L 315.00 111.50 L 315.00 111.00 L 315.00 110.50 L 315.00 110.00 L 315.00 109.50 L 315.00 109.00 L 315.00 108.50 L 315.00 108.00 L 315.00 107.50 L 315.00 107.00 L 315.00 106.50 L 315.00 106.00 L 315.00 105.50 L 315.00 105.00 L 315.00 104.50 L 315.00 104.00 L 315.00 103.50 L 315.00 103.00 L 315.00 102.50 L 315.00 102.00 L 315.00 101.50 L 315.00 101.00 L 315.00 100.50 L 315.00 100.00 L 315.00 99.50 L 315.00 99.00 L 315.00 98.50 L 315.00 98.00 L 315.00 97.50 L 315.00 97.00 L 315.00 96.50 L 315.00 96.00 L 315.00 95.50 L 315.00 95.00 L 315.00 94.50 L 315.00 94.00 L 315.00 93.50 L 315.00 93.00 L 315.00 92.50 L 315.00 92.00 L 315.00 91.50 L 315.00 91.00 L 315.00 90.50 L 315.00 90.00 L 315.00 89.50 L 315.00 89.00 L 314.97 88.53 L 314.82 88.18 L 314.50 88.06 Z M 0.18 70.18 L 0.03 70.53 L 0.00 71.00 L 0.00 71.50 L 0.00 72.00 L 0.00 72.50 L 0.00 73.00 L 0.00 73.50 L 0.00 74.00 L 0.00 74.50 L 0.00 75.00 L 0.00 75.50 L 0.00 76.00 L 0.00 76.50 L 0.00 77.00 L 0.03 77.47 L 0.18 77.82 L 0.53 77.97 L 1.00 78.00 L 1.50 78.00 L 2.00 78.00 L 2.50 78.00 L 3.00 78.00 L 3.50 78.00 L 4.00 78.00 L 4.47 77.97 L 4.82 77.82 L 4.97 77.47 L 5.00 77.00 L 5.00 76.50 L 5.00 76.00 L 5.00 75.50 L 5.00 75.00 L 5.00 74.50 L 5.00 74.00 L 5.00 73.50 L 5.00 73.00 L 5.00 72.50 L 5.00 72.00 L 5.00 71.50 L 5.00 71.00 L 4.97 70.53 L 4.82 70.18 L 4.47 70.03 L 4.00 70.00 L 3.50 70.00 L 3.00 70.00 L 2.50 70.00 L 2.00 70.00 L 1.50 70.00 L 1.00 70.00 L 0.53 70.03 Z M 314.18 53.18 L 314.03 53.53 L 314.00 54.00 L 314.00 54.50 L 314.00 55.00 L 314.00 55.50 L 314.00 56.00 L 314.00 56.50 L 314.00 57.00 L 314.00 57.50 L 314.00 58.00 L 314.00 58.50 L 314.00 59.00 L 314.00 59.50 L 314.00 60.00 L 314.00 60.50 L 314.00 61.00 L 314.00 61.50 L 314.00 62.00 L 314.03 62.47 L 314.18 62.82 L 314.50 62.94 L 314.82 62.82 L 314.97 62.47 L 315.00 62.00 L 315.00 61.50 L 315.00 61.00 L 315.00 60.50 L 315.00 60.00 L 315.00 59.50 L 315.00 59.00 L 315.00 58.50 L 315.00 58.00 L 315.00 57.50 L 315.00 57.00 L 315.00 56.50 L 315.00 56.00 L 315.00 55.50 L 315.00 55.00 L 315.00 54.50 L 315.00 54.00 L 314.97 53.53 L 314.82 53.18 L 314.50 53.06 Z M 0.18 34.18 L 0.03 34.53 L 0.00 35.00 L 0.00 35.50 L 0.00 36.00 L 0.00 36.50 L 0.00 37.00 L 0.00 37.50 L 0.00 38.00 L 0.00 38.50 L 0.00 39.00 L 0.00 39.50 L 0.00 40.00 L 0.00 40.50 L 0.00 41.00 L 0.03 41.47 L 0.18 41.82 L 0.53 41.97 L 1.00 42.00 L 1.50 42.00 L 2.00 42.00 L 2.50 42.00 L 3.00 42.00 L 3.50 42.00 L 4.00 42.00 L 4.47 41.97 L 4.82 41.82 L 4.97 41.47 L 5.00 41.00 L 5.00 40.50 L 5.00 40.00 L 5.00 39.50 L 5.00 39.00 L 5.00 38.50 L 5.00 38.00 L 5.00 37.50 L 5.00 37.00 L 5.00 36.50 L 5.00 36.00 L 5.00 35.50 L 5.00 35.00 L 4.97 34.53 L 4.82 34.18 L 4.47 34.03 L 4.00 34.00 L 3.50 34.00 L 3.00 34.00 L 2.50 34.00 L 2.00 34.00 L 1.50 34.00 L 1.00 34.00 L 0.53 34.03 Z M 57.13 11.30 L 54.51 12.24 L 52.08 13.62 L 49.54 14.73 L 46.67 14.94 L 43.93 14.32 L 41.24 14.21 L 39.20 15.48 L 37.79 17.48 L 36.18 19.78 L 33.99 21.68 L 31.55 23.03 L 29.32 24.79 L 27.94 27.20 L 27.18 29.89 L 27.00 32.82 L 27.00 35.82 L 27.00 38.82 L 27.00 41.82 L 26.96 44.81 L 26.49 47.60 L 26.44 50.25 L 26.96 53.02 L 27.00 56.00 L 27.00 59.01 L 26.95 61.99 L 26.17 64.67 L 25.13 67.24 L 25.00 70.19 L 25.00 73.19 L 25.00 76.19 L 25.00 79.19 L 25.00 82.19 L 25.00 85.20 L 25.00 88.20 L 25.00 91.20 L 25.00 94.20 L 25.00 97.20 L 25.00 100.20 L 25.18 103.13 L 25.82 105.87 L 26.00 108.80 L 26.00 111.80 L 26.04 114.79 L 26.55 117.58 L 27.53 120.17 L 29.12 122.34 L 31.03 124.17 L 32.71 126.41 L 34.84 128.17 L 37.09 130.00 L 39.40 131.66 L 41.71 133.34 L 44.45 133.97 L 47.44 134.00 L 50.44 134.00 L 53.44 134.00 L 56.44 134.00 L 59.45 134.00 L 62.42 134.06 L 65.16 134.69 L 67.91 134.68 L 70.65 134.06 L 73.63 134.00 L 76.63 134.00 L 79.63 134.00 L 82.63 134.00 L 85.62 134.03 L 88.44 134.48 L 91.24 134.97 L 94.23 135.00 L 97.23 135.00 L 100.23 135.00 L 103.23 135.00 L 106.23 135.00 L 109.24 135.00 L 112.23 135.02 L 114.90 135.56 L 116.44 137.36 L 118.85 137.98 L 121.83 138.00 L 124.83 138.00 L 127.84 138.00 L 130.84 138.00 L 133.84 138.00 L 136.84 138.00 L 139.84 138.00 L 142.84 138.00 L 145.72 138.27 L 148.29 138.51 L 151.04 138.05 L 153.90 138.31 L 156.63 138.91 L 159.41 138.54 L 162.07 138.39 L 164.69 138.67 L 167.32 138.28 L 169.90 138.55 L 172.58 138.06 L 175.56 138.00 L 178.53 138.07 L 181.20 138.54 L 183.80 138.22 L 186.53 138.51 L 189.25 138.77 L 191.98 138.16 L 194.91 138.00 L 197.92 138.00 L 200.92 138.00 L 203.92 138.00 L 206.92 138.00 L 209.92 138.00 L 212.87 137.94 L 215.13 137.03 L 217.55 136.07 L 220.52 136.00 L 223.52 136.00 L 226.52 136.00 L 229.52 136.00 L 232.50 136.06 L 235.23 136.69 L 237.98 136.66 L 240.72 136.05 L 243.70 136.00 L 246.70 136.00 L 249.60 135.74 L 252.25 135.29 L 254.95 135.84 L 257.80 135.84 L 259.63 134.38 L 259.35 131.83 L 259.92 129.32 L 262.02 127.48 L 264.70 127.32 L 267.27 128.35 L 269.77 129.38 L 270.62 131.45 L 269.11 133.33 L 269.02 134.98 L 271.39 135.91 L 274.06 135.67 L 276.04 134.11 L 278.22 132.69 L 280.01 130.87 L 281.26 128.41 L 282.95 126.18 L 285.32 125.50 L 287.99 125.77 L 290.40 124.49 L 291.83 122.11 L 292.80 119.55 L 294.52 117.63 L 294.85 115.06 L 294.46 112.43 L 294.89 109.78 L 295.00 106.83 L 294.83 103.90 L 294.46 101.28 L 294.92 98.62 L 295.00 95.65 L 295.00 92.65 L 295.00 89.65 L 295.00 86.65 L 295.00 83.64 L 295.00 80.64 L 295.06 77.67 L 295.99 75.22 L 296.93 72.99 L 297.00 70.05 L 297.00 67.05 L 297.00 64.04 L 297.00 61.04 L 297.00 58.04 L 297.00 55.04 L 297.00 52.04 L 297.00 49.03 L 297.00 46.03 L 297.00 43.03 L 297.00 40.03 L 297.00 37.03 L 297.00 34.02 L 296.82 31.12 L 295.44 28.97 L 293.69 26.96 L 291.72 24.96 L 289.30 24.61 L 286.50 24.95 L 283.70 24.51 L 281.49 23.02 L 279.88 20.78 L 278.42 18.44 L 276.57 16.89 L 274.07 16.52 L 271.73 17.48 L 269.19 17.23 L 267.17 18.03 L 265.47 19.62 L 263.09 19.52 L 261.09 20.37 L 258.64 20.47 L 256.23 19.08 L 254.11 17.05 L 252.38 14.88 L 250.15 13.44 L 247.34 13.05 L 244.53 13.49 L 241.75 13.99 L 239.22 14.59 L 237.04 15.78 L 234.27 15.70 L 231.64 14.81 L 229.16 13.55 L 226.41 13.10 L 223.68 13.72 L 220.80 14.00 L 217.80 13.99 L 214.94 13.64 L 212.18 13.05 L 209.20 13.00 L 206.20 13.00 L 203.20 13.00 L 200.20 13.00 L 197.20 13.00 L 194.19 13.00 L 191.19 13.00 L 188.19 13.00 L 185.19 13.00 L 182.19 13.00 L 179.18 13.00 L 176.18 13.00 L 173.18 13.00 L 170.18 13.00 L 167.18 13.00 L 164.17 13.00 L 161.17 13.00 L 158.17 13.00 L 155.17 13.00 L 152.17 13.00 L 149.16 13.00 L 146.16 13.00 L 143.16 13.00 L 140.16 13.00 L 137.33 12.65 L 135.24 11.37 L 132.56 11.00 L 129.56 11.00 L 126.56 11.00 L 123.56 11.00 L 120.56 11.00 L 117.56 11.00 L 114.55 11.00 L 111.55 11.00 L 108.55 11.00 L 105.55 11.00 L 102.55 11.00 L 99.54 11.00 L 96.54 11.00 L 93.54 11.00 L 90.54 11.00 L 87.56 11.06 L 84.83 11.71 L 82.08 12.31 L 79.34 12.94 L 76.36 13.00 L 73.37 13.03 L 70.57 13.43 L 68.04 13.28 L 65.48 12.26 L 62.93 11.17 L 60.00 11.01 Z M 283.13 102.05 L 283.37 101.67 L 283.70 101.34 L 284.09 101.12 L 284.53 101.04 L 284.96 101.13 L 285.34 101.38 L 285.66 101.71 L 285.89 102.10 L 285.98 102.55 L 286.00 103.03 L 285.98 103.51 L 285.87 103.95 L 285.63 104.33 L 285.30 104.66 L 284.91 104.88 L 284.47 104.96 L 284.04 104.87 L 283.66 104.62 L 283.34 104.29 L 283.11 103.90 L 283.02 103.45 L 283.00 102.97 L 283.02 102.49 Z M 286.15 81.06 L 286.44 80.62 L 286.86 80.28 L 287.36 80.08 L 287.91 80.02 L 288.47 80.04 L 288.99 80.18 L 289.43 80.49 L 289.75 80.91 L 289.91 81.41 L 289.85 81.91 L 289.59 82.38 L 289.29 82.83 L 289.07 83.32 L 288.89 83.83 L 288.62 84.29 L 288.24 84.66 L 287.76 84.88 L 287.26 84.88 L 286.78 84.67 L 286.39 84.31 L 286.13 83.84 L 286.02 83.31 L 286.00 82.74 L 286.00 82.16 L 286.03 81.59 Z M 287.15 59.06 L 287.43 58.62 L 287.84 58.29 L 288.32 58.10 L 288.82 58.13 L 289.27 58.36 L 289.65 58.74 L 289.89 59.20 L 289.98 59.73 L 290.00 60.29 L 290.00 60.86 L 289.97 61.42 L 289.85 61.94 L 289.57 62.38 L 289.16 62.71 L 288.68 62.90 L 288.18 62.87 L 287.73 62.64 L 287.35 62.26 L 287.11 61.80 L 287.02 61.27 L 287.00 60.71 L 287.00 60.14 L 287.03 59.58 Z M 288.13 37.05 L 288.37 36.67 L 288.70 36.34 L 289.09 36.12 L 289.53 36.04 L 289.96 36.13 L 290.34 36.38 L 290.66 36.71 L 290.89 37.10 L 290.98 37.55 L 291.00 38.03 L 290.98 38.51 L 290.87 38.95 L 290.63 39.33 L 290.30 39.66 L 289.91 39.88 L 289.47 39.96 L 289.04 39.87 L 288.66 39.62 L 288.34 39.29 L 288.11 38.90 L 288.02 38.45 L 288.00 37.97 L 288.02 37.49 Z M 270.00 32.00 L 270.44 31.59 L 270.91 31.25 L 271.45 31.07 L 272.03 31.02 L 272.61 31.08 L 273.13 31.29 L 273.56 31.65 L 273.86 32.12 L 273.97 32.68 L 273.98 33.28 L 273.86 33.84 L 273.59 34.34 L 273.20 34.79 L 272.77 35.22 L 272.32 35.60 L 271.83 35.85 L 271.29 35.88 L 270.79 35.67 L 270.33 35.31 L 269.89 34.89 L 269.48 34.44 L 269.18 33.96 L 269.10 33.43 L 269.26 32.91 L 269.59 32.44 Z M 287.15 27.06 L 287.44 26.62 L 287.86 26.28 L 288.35 26.10 L 288.86 26.14 L 289.32 26.40 L 289.68 26.79 L 289.93 27.25 L 290.14 27.67 L 290.49 27.91 L 291.00 27.99 L 291.56 28.00 L 292.14 28.00 L 292.72 28.00 L 293.30 28.02 L 293.83 28.13 L 294.30 28.39 L 294.67 28.78 L 294.90 29.26 L 294.98 29.80 L 294.97 30.37 L 294.86 30.90 L 294.60 31.37 L 294.29 31.83 L 294.07 32.32 L 293.89 32.82 L 293.62 33.29 L 293.24 33.66 L 292.76 33.88 L 292.26 33.88 L 291.78 33.67 L 291.39 33.30 L 291.11 32.84 L 290.94 32.34 L 290.72 31.85 L 290.37 31.43 L 289.92 31.14 L 289.42 30.96 L 288.92 30.76 L 288.47 30.44 L 288.05 30.05 L 287.65 29.63 L 287.31 29.20 L 287.09 28.70 L 287.02 28.16 L 287.03 27.59 Z M 277.17 23.06 L 277.46 22.60 L 277.90 22.26 L 278.41 22.10 L 278.94 22.17 L 279.42 22.45 L 279.85 22.86 L 280.27 23.28 L 280.64 23.73 L 280.88 24.24 L 280.98 24.80 L 280.97 25.39 L 280.84 25.93 L 280.54 26.40 L 280.10 26.74 L 279.59 26.90 L 279.06 26.83 L 278.60 26.54 L 278.26 26.10 L 278.04 25.59 L 277.86 25.06 L 277.57 24.58 L 277.26 24.10 L 277.10 23.59 Z M 34.61 0.48 L 34.49 1.20 L 35.25 1.76 L 36.54 1.96 L 38.00 2.00 L 39.50 2.00 L 41.00 2.00 L 42.50 2.00 L 44.00 2.00 L 45.50 2.00 L 47.00 2.00 L 48.50 2.00 L 50.00 2.00 L 51.50 2.00 L 53.00 2.00 L 54.50 2.00 L 56.00 2.00 L 57.50 2.00 L 59.00 2.00 L 60.50 2.00 L 62.00 2.00 L 63.50 2.00 L 65.00 2.00 L 66.50 2.00 L 68.00 2.00 L 69.50 2.00 L 71.00 2.00 L 72.50 2.00 L 74.00 2.00 L 75.50 2.00 L 77.00 2.00 L 78.50 2.00 L 80.00 2.00 L 81.50 2.00 L 83.00 2.00 L 84.50 2.00 L 86.00 2.00 L 87.50 2.00 L 89.00 2.00 L 90.50 2.00 L 92.00 2.00 L 93.50 2.00 L 95.00 2.00 L 96.50 2.00 L 98.00 2.00 L 99.50 2.00 L 101.00 2.00 L 102.50 2.00 L 104.00 2.00 L 105.50 2.00 L 107.00 2.00 L 108.50 2.00 L 110.00 2.00 L 111.50 2.00 L 113.00 2.00 L 114.50 2.00 L 116.00 2.00 L 117.50 2.00 L 119.00 2.00 L 120.50 2.00 L 122.00 2.00 L 123.50 2.00 L 125.00 2.00 L 126.50 2.00 L 128.00 2.00 L 129.50 2.00 L 131.00 2.00 L 132.50 2.00 L 134.00 2.00 L 135.50 2.00 L 137.00 2.00 L 138.50 2.00 L 140.00 2.00 L 141.50 2.00 L 143.00 2.00 L 144.50 2.00 L 146.00 2.00 L 147.50 2.00 L 149.00 2.00 L 150.50 2.00 L 152.00 2.00 L 153.50 2.00 L 155.00 2.00 L 156.50 2.00 L 158.00 2.00 L 159.50 2.00 L 161.00 2.00 L 162.50 2.00 L 164.00 2.00 L 165.50 2.00 L 167.00 2.00 L 168.50 2.00 L 170.00 2.00 L 171.50 2.00 L 173.00 2.00 L 174.50 2.00 L 176.00 2.00 L 177.50 2.00 L 179.00 2.00 L 180.50 2.00 L 182.00 2.00 L 183.50 2.00 L 185.00 2.00 L 186.50 2.00 L 188.00 2.00 L 189.50 2.00 L 191.00 2.00 L 192.50 2.00 L 194.00 2.00 L 195.50 2.00 L 197.00 2.00 L 198.50 2.00 L 200.00 2.00 L 201.50 2.00 L 203.00 2.00 L 204.50 2.00 L 206.00 2.00 L 207.50 2.00 L 209.00 2.00 L 210.50 2.00 L 212.00 2.00 L 213.50 2.00 L 215.00 2.00 L 216.50 2.00 L 218.00 2.00 L 219.50 2.00 L 221.00 2.00 L 222.50 2.00 L 224.00 2.00 L 225.50 2.00 L 227.00 2.00 L 228.50 2.00 L 230.00 2.00 L 231.50 2.00 L 233.00 2.00 L 234.50 2.00 L 236.00 2.00 L 237.50 2.00 L 239.00 2.00 L 240.50 2.00 L 242.00 2.00 L 243.50 2.00 L 245.00 2.00 L 246.50 2.00 L 248.00 2.00 L 249.50 2.00 L 251.00 2.00 L 252.50 2.00 L 254.00 2.00 L 255.50 2.00 L 257.00 2.00 L 258.50 2.00 L 260.00 2.00 L 261.50 2.00 L 263.00 2.00 L 264.50 2.00 L 266.00 2.00 L 267.50 2.00 L 269.00 2.00 L 270.50 2.00 L 272.00 2.00 L 273.50 2.00 L 275.00 2.00 L 276.50 2.00 L 278.00 2.00 L 279.50 2.00 L 281.00 2.00 L 282.50 2.00 L 284.00 2.00 L 285.50 2.00 L 287.00 2.00 L 288.50 2.00 L 290.00 2.00 L 291.50 2.00 L 292.99 1.99 L 294.40 1.91 L 295.39 1.52 L 295.51 0.80 L 294.75 0.24 L 293.46 0.04 L 292.00 0.00 L 290.50 0.00 L 289.00 0.00 L 287.50 0.00 L 286.00 0.00 L 284.50 0.00 L 283.00 0.00 L 281.50 0.00 L 280.00 0.00 L 278.50 0.00 L 277.00 0.00 L 275.50 0.00 L 274.00 0.00 L 272.50 0.00 L 271.00 0.00 L 269.50 0.00 L 268.00 0.00 L 266.50 0.00 L 265.00 0.00 L 263.50 0.00 L 262.00 0.00 L 260.50 0.00 L 259.00 0.00 L 257.50 0.00 L 256.00 0.00 L 254.50 0.00 L 253.00 0.00 L 251.50 0.00 L 250.00 0.00 L 248.50 0.00 L 247.00 0.00 L 245.50 0.00 L 244.00 0.00 L 242.50 0.00 L 241.00 0.00 L 239.50 0.00 L 238.00 0.00 L 236.50 0.00 L 235.00 0.00 L 233.50 0.00 L 232.00 0.00 L 230.50 0.00 L 229.00 0.00 L 227.50 0.00 L 226.00 0.00 L 224.50 0.00 L 223.00 0.00 L 221.50 0.00 L 220.00 0.00 L 218.50 0.00 L 217.00 0.00 L 215.50 0.00 L 214.00 0.00 L 212.50 0.00 L 211.00 0.00 L 209.50 0.00 L 208.00 0.00 L 206.50 0.00 L 205.00 0.00 L 203.50 0.00 L 202.00 0.00 L 200.50 0.00 L 199.00 0.00 L 197.50 0.00 L 196.00 0.00 L 194.50 0.00 L 193.00 0.00 L 191.50 0.00 L 190.00 0.00 L 188.50 0.00 L 187.00 0.00 L 185.50 0.00 L 184.00 0.00 L 182.50 0.00 L 181.00 0.00 L 179.50 0.00 L 178.00 0.00 L 176.50 0.00 L 175.00 0.00 L 173.50 0.00 L 172.00 0.00 L 170.50 0.00 L 169.00 0.00 L 167.50 0.00 L 166.00 0.00 L 164.50 0.00 L 163.00 0.00 L 161.50 0.00 L 160.00 0.00 L 158.50 0.00 L 157.00 0.00 L 155.50 0.00 L 154.00 0.00 L 152.50 0.00 L 151.00 0.00 L 149.50 0.00 L 148.00 0.00 L 146.50 0.00 L 145.00 0.00 L 143.50 0.00 L 142.00 0.00 L 140.50 0.00 L 139.00 0.00 L 137.50 0.00 L 136.00 0.00 L 134.50 0.00 L 133.00 0.00 L 131.50 0.00 L 130.00 0.00 L 128.50 0.00 L 127.00 0.00 L 125.50 0.00 L 124.00 0.00 L 122.50 0.00 L 121.00 0.00 L 119.50 0.00 L 118.00 0.00 L 116.50 0.00 L 115.00 0.00 L 113.50 0.00 L 112.00 0.00 L 110.50 0.00 L 109.00 0.00 L 107.50 0.00 L 106.00 0.00 L 104.50 0.00 L 103.00 0.00 L 101.50 0.00 L 100.00 0.00 L 98.50 0.00 L 97.00 0.00 L 95.50 0.00 L 94.00 0.00 L 92.50 0.00 L 91.00 0.00 L 89.50 0.00 L 88.00 0.00 L 86.50 0.00 L 85.00 0.00 L 83.50 0.00 L 82.00 0.00 L 80.50 0.00 L 79.00 0.00 L 77.50 0.00 L 76.00 0.00 L 74.50 0.00 L 73.00 0.00 L 71.50 0.00 L 70.00 0.00 L 68.50 0.00 L 67.00 0.00 L 65.50 0.00 L 64.00 0.00 L 62.50 0.00 L 61.00 0.00 L 59.50 0.00 L 58.00 0.00 L 56.50 0.00 L 55.00 0.00 L 53.50 0.00 L 52.00 0.00 L 50.50 0.00 L 49.00 0.00 L 47.50 0.00 L 46.00 0.00 L 44.50 0.00 L 43.00 0.00 L 41.50 0.00 L 40.00 0.00 L 38.50 0.00 L 37.01 0.01 L 35.60 0.09 Z" fill="rgb(252,252,252)" fill-rule="evenodd"/>
</svg>