<svg xmlns="http://www.w3.org/2000/svg" width="309" height="178" viewBox="0 0 309 178" role="img" aria-label="11_plates_11">
  <title>11_plates_11</title>
  <path d="M 220.20 166.22 L 220.04 166.61 L 220.02 167.15 L 220.09 167.69 L 220.29 168.18 L 220.60 168.62 L 220.87 169.08 L 221.07 169.53 L 221.33 169.85 L 221.78 169.97 L 222.33 170.00 L 222.90 170.00 L 223.46 170.04 L 223.98 170.18 L 224.44 170.47 L 224.85 170.85 L 225.26 171.25 L 225.68 171.62 L 226.15 171.86 L 226.65 171.90 L 227.14 171.73 L 227.58 171.40 L 227.99 171.01 L 228.38 170.60 L 228.71 170.16 L 228.91 169.67 L 228.98 169.13 L 228.97 168.57 L 228.84 168.05 L 228.55 167.61 L 228.14 167.27 L 227.65 167.10 L 227.15 167.14 L 226.68 167.38 L 226.26 167.75 L 225.85 168.15 L 225.44 168.53 L 224.98 168.82 L 224.46 168.96 L 223.90 169.00 L 223.33 169.00 L 222.76 168.98 L 222.23 168.89 L 221.76 168.66 L 221.37 168.29 L 221.12 167.82 L 221.02 167.29 L 220.97 166.75 L 220.84 166.32 L 220.53 166.12 Z M 225.06 158.15 L 224.62 158.40 L 224.20 158.70 L 223.74 158.92 L 223.26 159.08 L 222.81 159.30 L 222.42 159.63 L 222.15 160.05 L 222.09 160.49 L 222.26 160.82 L 222.64 160.91 L 223.09 160.77 L 223.51 160.49 L 223.94 160.21 L 224.42 160.06 L 224.95 160.01 L 225.49 160.00 L 226.04 160.00 L 226.59 160.00 L 227.13 160.00 L 227.68 160.00 L 228.22 160.00 L 228.77 160.00 L 229.29 159.97 L 229.70 159.85 L 229.89 159.55 L 229.80 159.22 L 229.45 159.05 L 228.95 159.01 L 228.41 159.00 L 227.87 158.99 L 227.35 158.93 L 226.87 158.75 L 226.45 158.46 L 226.02 158.19 L 225.54 158.07 Z M 253.18 146.18 L 253.06 146.50 L 253.18 146.82 L 253.53 146.97 L 254.00 147.00 L 254.50 147.00 L 255.00 147.00 L 255.50 147.00 L 256.00 147.00 L 256.50 147.00 L 257.00 147.00 L 257.50 147.00 L 258.00 147.00 L 258.50 147.00 L 259.00 147.00 L 259.50 147.00 L 260.00 147.00 L 260.50 147.00 L 261.00 147.00 L 261.47 146.97 L 261.82 146.82 L 261.94 146.50 L 261.82 146.18 L 261.47 146.03 L 261.00 146.00 L 260.50 146.00 L 260.00 146.00 L 259.50 146.00 L 259.00 146.00 L 258.50 146.00 L 258.00 146.00 L 257.50 146.00 L 257.00 146.00 L 256.50 146.00 L 256.00 146.00 L 255.50 146.00 L 255.00 146.00 L 254.50 146.00 L 254.00 146.00 L 253.53 146.03 Z M 178.18 146.18 L 178.06 146.50 L 178.18 146.82 L 178.53 146.97 L 179.00 147.00 L 179.50 147.00 L 180.00 147.00 L 180.50 147.00 L 181.00 147.00 L 181.50 147.00 L 182.00 147.00 L 182.50 147.00 L 183.00 147.00 L 183.50 147.00 L 184.00 147.00 L 184.50 147.00 L 185.00 147.00 L 185.50 147.00 L 186.00 147.00 L 186.50 147.00 L 187.00 147.00 L 187.50 147.00 L 188.00 147.00 L 188.50 147.00 L 189.00 147.00 L 189.50 147.00 L 190.00 147.00 L 190.50 147.00 L 191.00 147.00 L 191.50 147.00 L 192.00 147.00 L 192.50 147.00 L 193.00 147.00 L 193.50 147.00 L 194.00 147.00 L 194.50 147.00 L 195.00 147.00 L 195.50 147.00 L 196.00 147.00 L 196.50 147.00 L 197.00 147.00 L 197.50 147.00 L 198.00 147.00 L 198.50 147.00 L 199.00 147.00 L 199.50 147.00 L 200.00 147.00 L 200.50 147.00 L 201.00 147.00 L 201.50 147.00 L 202.00 147.00 L 202.50 147.00 L 203.00 147.00 L 203.50 147.00 L 204.00 147.00 L 204.50 147.00 L 205.00 147.00 L 205.50 147.00 L 206.00 147.00 L 206.50 147.00 L 207.00 147.00 L 207.50 147.00 L 208.00 147.00 L 208.50 147.00 L 209.00 147.00 L 209.50 147.00 L 210.00 147.00 L 210.50 147.00 L 211.00 147.00 L 211.50 147.00 L 212.00 147.00 L 212.50 147.00 L 213.00 147.00 L 213.47 146.97 L 213.82 146.82 L 213.94 146.50 L 213.82 146.18 L 213.47 146.03 L 213.00 146.00 L 212.50 146.00 L 212.00 146.00 L 211.50 146.00 L 211.00 146.00 L 210.50 146.00 L 210.00 146.00 L 209.50 146.00 L 209.00 146.00 L 208.50 146.00 L 208.00 146.00 L 207.50 146.00 L 207.00 146.00 L 206.50 146.00 L 206.00 146.00 L 205.50 146.00 L 205.00 146.00 L 204.50 146.00 L 204.00 146.00 L 203.50 146.00 L 203.00 146.00 L 202.50 146.00 L 202.00 146.00 L 201.50 146.00 L 201.00 146.00 L 200.50 146.00 L 200.00 146.00 L 199.50 146.00 L 199.00 146.00 L 198.50 146.00 L 198.00 146.00 L 197.50 146.00 L 197.00 146.00 L 196.50 146.00 L 196.00 146.00 L 195.50 146.00 L 195.00 146.00 L 194.50 146.00 L 194.00 146.00 L 193.50 146.00 L 193.00 146.00 L 192.50 146.00 L 192.00 146.00 L 191.50 146.00 L 191.00 146.00 L 190.50 146.00 L 190.00 146.00 L 189.50 146.00 L 189.00 146.00 L 188.50 146.00 L 188.00 146.00 L 187.50 146.00 L 187.00 146.00 L 186.50 146.00 L 186.00 146.00 L 185.50 146.00 L 185.00 146.00 L 184.50 146.00 L 184.00 146.00 L 183.50 146.00 L 183.00 146.00 L 182.50 146.00 L 182.00 146.00 L 181.50 146.00 L 181.00 146.00 L 180.50 146.00 L 180.00 146.00 L 179.50 146.00 L 179.00 146.00 L 178.53 146.03 Z M 126.18 146.18 L 126.06 146.50 L 126.18 146.82 L 126.53 146.97 L 127.00 147.00 L 127.50 147.00 L 128.00 147.00 L 128.50 147.00 L 129.00 147.00 L 129.50 147.00 L 130.00 147.00 L 130.50 147.00 L 131.00 147.00 L 131.50 147.00 L 132.00 147.00 L 132.50 147.00 L 133.00 147.00 L 133.50 147.00 L 134.00 147.00 L 134.50 147.00 L 135.00 147.00 L 135.50 147.00 L 136.00 147.00 L 136.50 147.00 L 137.00 147.00 L 137.50 147.00 L 138.00 147.00 L 138.50 147.00 L 139.00 147.00 L 139.50 147.00 L 140.00 147.00 L 140.50 147.00 L 141.00 147.00 L 141.50 147.00 L 142.00 147.00 L 142.50 147.00 L 143.00 147.00 L 143.50 147.00 L 144.00 147.00 L 144.50 147.00 L 145.00 147.00 L 145.50 147.00 L 146.00 147.00 L 146.50 147.00 L 147.00 147.00 L 147.50 147.00 L 148.00 147.00 L 148.50 147.00 L 149.00 147.00 L 149.50 147.00 L 150.00 147.00 L 150.50 147.00 L 151.00 147.00 L 151.50 147.00 L 152.00 147.00 L 152.50 147.00 L 153.00 147.00 L 153.50 147.00 L 154.00 147.00 L 154.50 147.00 L 155.00 147.00 L 155.50 147.00 L 156.00 147.00 L 156.50 147.00 L 157.00 147.00 L 157.50 147.00 L 158.00 147.00 L 158.50 147.00 L 159.00 147.00 L 159.50 147.00 L 160.00 147.00 L 160.50 147.00 L 161.00 147.00 L 161.50 147.00 L 162.00 147.00 L 162.50 147.00 L 163.00 147.00 L 163.50 147.00 L 164.00 147.00 L 164.50 147.00 L 165.00 147.00 L 165.47 146.97 L 165.82 146.82 L 165.94 146.50 L 165.82 146.18 L 165.47 146.03 L 165.00 146.00 L 164.50 146.00 L 164.00 146.00 L 163.50 146.00 L 163.00 146.00 L 162.50 146.00 L 162.00 146.00 L 161.50 146.00 L 161.00 146.00 L 160.50 146.00 L 160.00 146.00 L 159.50 146.00 L 159.00 146.00 L 158.50 146.00 L 158.00 146.00 L 157.50 146.00 L 157.00 146.00 L 156.50 146.00 L 156.00 146.00 L 155.50 146.00 L 155.00 146.00 L 154.50 146.00 L 154.00 146.00 L 153.50 146.00 L 153.00 146.00 L 152.50 146.00 L 152.00 146.00 L 151.50 146.00 L 151.00 146.00 L 150.50 146.00 L 150.00 146.00 L 149.50 146.00 L 149.00 146.00 L 148.50 146.00 L 148.00 146.00 L 147.50 146.00 L 147.00 146.00 L 146.50 146.00 L 146.00 146.00 L 145.50 146.00 L 145.00 146.00 L 144.50 146.00 L 144.00 146.00 L 143.50 146.00 L 143.00 146.00 L 142.50 146.00 L 142.00 146.00 L 141.50 146.00 L 141.00 146.00 L 140.50 146.00 L 140.00 146.00 L 139.50 146.00 L 139.00 146.00 L 138.50 146.00 L 138.00 146.00 L 137.50 146.00 L 137.00 146.00 L 136.50 146.00 L 136.00 146.00 L 135.50 146.00 L 135.00 146.00 L 134.50 146.00 L 134.00 146.00 L 133.50 146.00 L 133.00 146.00 L 132.50 146.00 L 132.00 146.00 L 131.50 146.00 L 131.00 146.00 L 130.50 146.00 L 130.00 146.00 L 129.50 146.00 L 129.00 146.00 L 128.50 146.00 L 128.00 146.00 L 127.50 146.00 L 127.00 146.00 L 126.53 146.03 Z M 67.18 146.18 L 67.06 146.50 L 67.18 146.82 L 67.53 146.97 L 68.00 147.00 L 68.50 147.00 L 69.00 147.00 L 69.50 147.00 L 70.00 147.00 L 70.50 147.00 L 71.00 147.00 L 71.50 147.00 L 72.00 147.00 L 72.50 147.00 L 73.00 147.00 L 73.50 147.00 L 74.00 147.00 L 74.50 147.00 L 75.00 147.00 L 75.50 147.00 L 76.00 147.00 L 76.50 147.00 L 77.00 147.00 L 77.50 147.00 L 78.00 147.00 L 78.50 147.00 L 79.00 147.00 L 79.50 147.00 L 80.00 147.00 L 80.50 147.00 L 81.00 147.00 L 81.50 147.00 L 82.00 147.00 L 82.50 147.00 L 83.00 147.00 L 83.50 147.00 L 84.00 147.00 L 84.50 147.00 L 85.00 147.00 L 85.50 147.00 L 86.00 147.00 L 86.50 147.00 L 87.00 147.00 L 87.50 147.00 L 88.00 147.00 L 88.50 147.00 L 89.00 147.00 L 89.50 147.00 L 90.00 147.00 L 90.50 147.00 L 91.00 147.00 L 91.50 147.00 L 92.00 147.00 L 92.50 147.00 L 93.00 147.00 L 93.50 147.00 L 94.00 147.00 L 94.50 147.00 L 95.00 147.00 L 95.50 147.00 L 96.00 147.00 L 96.50 147.00 L 97.00 147.00 L 97.50 147.00 L 98.00 147.00 L 98.50 147.00 L 99.00 147.00 L 99.50 147.00 L 100.00 147.00 L 100.50 147.00 L 101.00 147.00 L 101.50 147.00 L 102.00 147.00 L 102.50 147.00 L 103.00 147.00 L 103.50 147.00 L 104.00 147.00 L 104.50 147.00 L 105.00 147.00 L 105.50 147.00 L 106.00 147.00 L 106.50 147.00 L 107.00 147.00 L 107.50 147.00 L 108.00 147.00 L 108.50 147.00 L 109.00 147.00 L 109.47 146.97 L 109.82 146.82 L 109.94 146.50 L 109.82 146.18 L 109.47 146.03 L 109.00 146.00 L 108.50 146.00 L 108.00 146.00 L 107.50 146.00 L 107.00 146.00 L 106.50 146.00 L 106.00 146.00 L 105.50 146.00 L 105.00 146.00 L 104.50 146.00 L 104.00 146.00 L 103.50 146.00 L 103.00 146.00 L 102.50 146.00 L 102.00 146.00 L 101.50 146.00 L 101.00 146.00 L 100.50 146.00 L 100.00 146.00 L 99.50 146.00 L 99.00 146.00 L 98.50 146.00 L 98.00 146.00 L 97.50 146.00 L 97.00 146.00 L 96.50 146.00 L 96.00 146.00 L 95.50 146.00 L 95.00 146.00 L 94.50 146.00 L 94.00 146.00 L 93.50 146.00 L 93.00 146.00 L 92.50 146.00 L 92.00 146.00 L 91.50 146.00 L 91.00 146.00 L 90.50 146.00 L 90.00 146.00 L 89.50 146.00 L 89.00 146.00 L 88.50 146.00 L 88.00 146.00 L 87.50 146.00 L 87.00 146.00 L 86.50 146.00 L 86.00 146.00 L 85.50 146.00 L 85.00 146.00 L 84.50 146.00 L 84.00 146.00 L 83.50 146.00 L 83.00 146.00 L 82.50 146.00 L 82.00 146.00 L 81.50 146.00 L 81.00 146.00 L 80.50 146.00 L 80.00 146.00 L 79.50 146.00 L 79.00 146.00 L 78.50 146.00 L 78.00 146.00 L 77.50 146.00 L 77.00 146.00 L 76.50 146.00 L 76.00 146.00 L 75.50 146.00 L 75.00 146.00 L 74.50 146.00 L 74.00 146.00 L 73.50 146.00 L 73.00 146.00 L 72.50 146.00 L 72.00 146.00 L 71.50 146.00 L 71.00 146.00 L 70.50 146.00 L 70.00 146.00 L 69.50 146.00 L 69.00 146.00 L 68.50 146.00 L 68.00 146.00 L 67.53 146.03 Z M 39.18 146.18 L 39.06 146.50 L 39.18 146.82 L 39.53 146.97 L 40.00 147.00 L 40.50 147.00 L 41.00 147.00 L 41.50 147.00 L 42.00 147.00 L 42.50 147.00 L 43.00 147.00 L 43.50 147.00 L 44.00 147.00 L 44.50 147.00 L 45.00 147.00 L 45.50 147.00 L 46.00 147.00 L 46.50 147.00 L 47.00 147.00 L 47.50 147.00 L 48.00 147.00 L 48.50 147.00 L 49.00 147.00 L 49.50 147.00 L 50.00 147.00 L 50.50 147.00 L 51.00 147.00 L 51.47 146.97 L 51.82 146.82 L 51.94 146.50 L 51.82 146.18 L 51.47 146.03 L 51.00 146.00 L 50.50 146.00 L 50.00 146.00 L 49.50 146.00 L 49.00 146.00 L 48.50 146.00 L 48.00 146.00 L 47.50 146.00 L 47.00 146.00 L 46.50 146.00 L 46.00 146.00 L 45.50 146.00 L 45.00 146.00 L 44.50 146.00 L 44.00 146.00 L 43.50 146.00 L 43.00 146.00 L 42.50 146.00 L 42.00 146.00 L 41.50 146.00 L 41.00 146.00 L 40.50 146.00 L 40.00 146.00 L 39.53 146.03 Z M 26.18 146.18 L 26.06 146.50 L 26.18 146.82 L 26.53 146.97 L 27.00 147.00 L 27.50 147.00 L 28.00 147.00 L 28.50 147.00 L 29.00 147.00 L 29.50 147.00 L 30.00 147.00 L 30.50 147.00 L 31.00 147.00 L 31.50 147.00 L 32.00 147.00 L 32.50 147.00 L 33.00 147.00 L 33.50 147.00 L 34.00 147.00 L 34.50 147.00 L 35.00 147.00 L 35.47 146.97 L 35.82 146.82 L 35.94 146.50 L 35.82 146.18 L 35.47 146.03 L 35.00 146.00 L 34.50 146.00 L 34.00 146.00 L 33.50 146.00 L 33.00 146.00 L 32.50 146.00 L 32.00 146.00 L 31.50 146.00 L 31.00 146.00 L 30.50 146.00 L 30.00 146.00 L 29.50 146.00 L 29.00 146.00 L 28.50 146.00 L 28.00 146.00 L 27.50 146.00 L 27.00 146.00 L 26.53 146.03 Z M 289.20 138.20 L 289.03 138.58 L 288.99 139.10 L 288.93 139.62 L 288.76 140.10 L 288.46 140.52 L 288.08 140.92 L 287.70 141.31 L 287.36 141.71 L 287.11 142.16 L 286.95 142.64 L 286.76 143.11 L 286.47 143.54 L 286.19 143.97 L 286.08 144.43 L 286.20 144.80 L 286.58 144.96 L 287.10 145.00 L 287.65 145.00 L 288.19 145.00 L 288.74 145.00 L 289.29 145.00 L 289.84 145.00 L 290.39 145.00 L 290.94 145.00 L 291.49 145.00 L 292.04 145.00 L 292.59 145.00 L 293.14 145.00 L 293.69 145.00 L 294.21 144.98 L 294.65 144.86 L 294.90 144.57 L 294.99 144.10 L 295.02 143.57 L 295.14 143.07 L 295.41 142.65 L 295.80 142.31 L 296.26 142.10 L 296.77 142.01 L 297.31 141.98 L 297.82 141.89 L 298.27 141.65 L 298.68 141.31 L 299.07 140.93 L 299.46 140.56 L 299.88 140.25 L 300.33 140.04 L 300.72 139.85 L 300.90 139.53 L 300.80 139.20 L 300.43 139.04 L 299.92 139.00 L 299.37 139.00 L 298.83 139.01 L 298.31 139.08 L 297.84 139.28 L 297.41 139.57 L 296.97 139.84 L 296.48 139.97 L 295.94 140.00 L 295.39 140.00 L 294.84 140.00 L 294.29 140.00 L 293.77 140.02 L 293.33 140.14 L 293.07 140.44 L 292.89 140.87 L 292.63 141.30 L 292.26 141.65 L 291.82 141.88 L 291.34 141.91 L 290.87 141.74 L 290.47 141.42 L 290.18 141.00 L 290.07 140.52 L 290.16 140.04 L 290.41 139.60 L 290.71 139.18 L 290.89 138.73 L 290.85 138.33 L 290.55 138.09 L 290.09 138.02 L 289.58 138.04 Z M 303.21 127.21 L 303.04 127.61 L 302.99 128.15 L 302.91 128.69 L 302.70 129.18 L 302.35 129.58 L 301.91 129.87 L 301.47 130.07 L 301.17 130.34 L 301.12 130.76 L 301.32 131.22 L 301.62 131.67 L 301.87 132.14 L 301.98 132.67 L 302.02 133.21 L 302.15 133.66 L 302.48 133.91 L 302.98 133.98 L 303.52 133.95 L 304.04 133.79 L 304.48 133.49 L 304.90 133.10 L 305.31 132.69 L 305.72 132.28 L 306.12 131.88 L 306.51 131.46 L 306.80 131.01 L 306.92 130.51 L 306.81 130.01 L 306.52 129.56 L 306.14 129.14 L 305.74 128.73 L 305.37 128.30 L 305.10 127.85 L 304.90 127.41 L 304.60 127.13 L 304.13 127.02 L 303.61 127.04 Z M 256.20 35.19 L 256.07 35.55 L 256.17 35.99 L 256.43 36.41 L 256.72 36.82 L 256.91 37.27 L 256.99 37.77 L 257.00 38.29 L 257.00 38.82 L 257.03 39.33 L 257.16 39.72 L 257.48 39.93 L 257.95 39.99 L 258.44 39.97 L 258.80 39.81 L 258.93 39.45 L 258.83 39.01 L 258.57 38.59 L 258.28 38.18 L 258.09 37.73 L 258.01 37.23 L 258.00 36.71 L 258.00 36.18 L 257.97 35.67 L 257.84 35.28 L 257.52 35.07 L 257.05 35.01 L 256.56 35.03 Z M 264.19 22.21 L 263.99 22.57 L 263.80 23.03 L 263.51 23.47 L 263.13 23.87 L 262.74 24.26 L 262.35 24.65 L 261.95 25.05 L 261.56 25.44 L 261.17 25.83 L 260.77 26.23 L 260.37 26.59 L 259.92 26.86 L 259.41 26.98 L 258.88 27.02 L 258.42 27.11 L 258.14 27.37 L 258.12 27.78 L 258.32 28.23 L 258.62 28.66 L 258.86 29.11 L 258.92 29.60 L 258.77 30.08 L 258.46 30.49 L 258.05 30.79 L 257.59 30.98 L 257.22 31.18 L 257.10 31.52 L 257.27 31.84 L 257.65 32.04 L 258.11 32.24 L 258.54 32.54 L 258.98 32.81 L 259.44 32.91 L 259.81 32.78 L 259.97 32.39 L 260.00 31.86 L 260.00 31.31 L 260.00 30.75 L 260.00 30.20 L 260.00 29.64 L 260.00 29.08 L 260.03 28.54 L 260.16 28.04 L 260.44 27.61 L 260.84 27.28 L 261.32 27.08 L 261.85 27.01 L 262.39 27.02 L 262.90 27.13 L 263.35 27.39 L 263.78 27.69 L 264.23 27.88 L 264.64 27.85 L 264.89 27.57 L 264.99 27.11 L 265.02 26.57 L 265.14 26.07 L 265.42 25.64 L 265.82 25.30 L 266.28 25.09 L 266.81 25.01 L 267.36 25.00 L 267.92 25.00 L 268.46 25.03 L 268.96 25.16 L 269.41 25.42 L 269.84 25.72 L 270.29 25.89 L 270.69 25.83 L 270.92 25.52 L 270.98 25.04 L 270.94 24.54 L 270.75 24.18 L 270.35 24.03 L 269.82 24.00 L 269.26 24.00 L 268.71 24.00 L 268.15 24.00 L 267.59 24.00 L 267.04 24.00 L 266.50 23.96 L 266.00 23.82 L 265.58 23.53 L 265.25 23.12 L 265.04 22.67 L 264.85 22.28 L 264.52 22.10 Z M 265.06 11.14 L 264.63 11.42 L 264.30 11.81 L 264.09 12.28 L 264.01 12.80 L 263.98 13.34 L 263.88 13.85 L 263.64 14.30 L 263.34 14.73 L 263.12 15.18 L 263.09 15.67 L 263.26 16.13 L 263.55 16.56 L 263.82 17.00 L 263.96 17.50 L 264.01 18.03 L 264.08 18.51 L 264.30 18.84 L 264.72 18.97 L 265.24 19.00 L 265.79 19.00 L 266.32 18.97 L 266.72 18.83 L 266.90 18.52 L 266.79 18.19 L 266.43 17.99 L 265.98 17.81 L 265.56 17.51 L 265.24 17.10 L 265.07 16.63 L 265.01 16.10 L 265.03 15.56 L 265.14 15.06 L 265.40 14.62 L 265.71 14.19 L 265.93 13.73 L 266.08 13.24 L 266.31 12.79 L 266.66 12.40 L 267.08 12.12 L 267.52 11.95 L 267.82 11.72 L 267.87 11.39 L 267.63 11.13 L 267.19 11.02 L 266.65 11.00 L 266.10 11.00 L 265.56 11.02 Z M 260.06 3.13 L 259.64 3.38 L 259.25 3.68 L 258.83 3.91 L 258.42 4.07 L 258.13 4.31 L 258.02 4.72 L 258.02 5.20 L 258.11 5.63 L 258.35 5.87 L 258.67 5.86 L 258.92 5.61 L 259.08 5.21 L 259.30 4.79 L 259.62 4.42 L 260.02 4.16 L 260.49 4.03 L 260.99 4.00 L 261.51 4.00 L 262.03 4.00 L 262.55 4.00 L 263.07 4.00 L 263.59 4.00 L 264.10 4.00 L 264.62 4.00 L 265.14 4.00 L 265.66 4.00 L 266.18 4.00 L 266.70 4.00 L 267.22 4.00 L 267.74 4.00 L 268.26 4.00 L 268.77 4.00 L 269.29 4.02 L 269.77 4.09 L 270.21 4.30 L 270.61 4.59 L 271.02 4.84 L 271.48 4.94 L 271.94 4.87 L 272.35 4.62 L 272.75 4.32 L 273.18 4.10 L 273.66 4.02 L 274.17 4.00 L 274.69 4.00 L 275.21 4.00 L 275.73 4.00 L 276.25 4.00 L 276.76 4.00 L 277.26 3.98 L 277.67 3.87 L 277.88 3.61 L 277.85 3.29 L 277.56 3.08 L 277.11 3.01 L 276.60 3.00 L 276.08 3.00 L 275.56 3.00 L 275.05 3.00 L 274.53 3.00 L 274.01 3.00 L 273.49 3.00 L 272.97 3.00 L 272.45 3.00 L 271.93 3.00 L 271.41 3.00 L 270.90 3.00 L 270.38 3.00 L 269.86 3.00 L 269.34 3.00 L 268.82 3.00 L 268.30 3.00 L 267.78 3.00 L 267.26 3.00 L 266.74 3.00 L 266.23 3.00 L 265.71 3.00 L 265.19 3.00 L 264.67 3.00 L 264.15 3.00 L 263.63 3.00 L 263.11 3.00 L 262.59 3.00 L 262.08 3.00 L 261.56 3.00 L 261.04 3.00 L 260.53 3.02 Z M 198.18 3.18 L 198.06 3.50 L 198.18 3.82 L 198.53 3.97 L 199.00 4.00 L 199.50 4.00 L 200.00 4.00 L 200.50 4.00 L 201.00 4.00 L 201.50 4.00 L 202.00 4.00 L 202.50 4.00 L 203.00 4.00 L 203.50 4.00 L 204.00 4.00 L 204.50 4.00 L 205.00 4.00 L 205.50 4.00 L 206.00 4.00 L 206.47 3.97 L 206.82 3.82 L 206.94 3.50 L 206.82 3.18 L 206.47 3.03 L 206.00 3.00 L 205.50 3.00 L 205.00 3.00 L 204.50 3.00 L 204.00 3.00 L 203.50 3.00 L 203.00 3.00 L 202.50 3.00 L 202.00 3.00 L 201.50 3.00 L 201.00 3.00 L 200.50 3.00 L 200.00 3.00 L 199.50 3.00 L 199.00 3.00 L 198.53 3.03 Z M 157.18 3.18 L 157.06 3.50 L 157.18 3.82 L 157.53 3.97 L 158.00 4.00 L 158.50 4.00 L 159.00 4.00 L 159.50 4.00 L 160.00 4.00 L 160.50 4.00 L 161.00 4.00 L 161.50 4.00 L 162.00 4.00 L 162.50 4.00 L 163.00 4.00 L 163.50 4.00 L 164.00 4.00 L 164.50 4.00 L 165.00 4.00 L 165.50 4.00 L 166.00 4.00 L 166.47 3.97 L 166.82 3.82 L 166.94 3.50 L 166.82 3.18 L 166.47 3.03 L 166.00 3.00 L 165.50 3.00 L 165.00 3.00 L 164.50 3.00 L 164.00 3.00 L 163.50 3.00 L 163.00 3.00 L 162.50 3.00 L 162.00 3.00 L 161.50 3.00 L 161.00 3.00 L 160.50 3.00 L 160.00 3.00 L 159.50 3.00 L 159.00 3.00 L 158.50 3.00 L 158.00 3.00 L 157.53 3.03 Z M 119.18 3.18 L 119.06 3.50 L 119.18 3.82 L 119.53 3.97 L 120.00 4.00 L 120.50 4.00 L 121.00 4.00 L 121.50 4.00 L 122.00 4.00 L 122.50 4.00 L 123.00 4.00 L 123.50 4.00 L 124.00 4.00 L 124.50 4.00 L 125.00 4.00 L 125.50 4.00 L 126.00 4.00 L 126.50 4.00 L 127.00 4.00 L 127.50 4.00 L 128.00 4.00 L 128.50 4.00 L 129.00 4.00 L 129.50 4.00 L 130.00 4.00 L 130.50 4.00 L 131.00 4.00 L 131.50 4.00 L 132.00 4.00 L 132.50 4.00 L 133.00 4.00 L 133.50 4.00 L 134.00 4.00 L 134.50 4.00 L 135.00 4.00 L 135.50 4.00 L 136.00 4.00 L 136.50 4.00 L 137.00 4.00 L 137.50 4.00 L 138.00 4.00 L 138.50 4.00 L 139.00 4.00 L 139.50 4.00 L 140.00 4.00 L 140.47 3.97 L 140.82 3.82 L 140.94 3.50 L 140.82 3.18 L 140.47 3.03 L 140.00 3.00 L 139.50 3.00 L 139.00 3.00 L 138.50 3.00 L 138.00 3.00 L 137.50 3.00 L 137.00 3.00 L 136.50 3.00 L 136.00 3.00 L 135.50 3.00 L 135.00 3.00 L 134.50 3.00 L 134.00 3.00 L 133.50 3.00 L 133.00 3.00 L 132.50 3.00 L 132.00 3.00 L 131.50 3.00 L 131.00 3.00 L 130.50 3.00 L 130.00 3.00 L 129.50 3.00 L 129.00 3.00 L 128.50 3.00 L 128.00 3.00 L 127.50 3.00 L 127.00 3.00 L 126.50 3.00 L 126.00 3.00 L 125.50 3.00 L 125.00 3.00 L 124.50 3.00 L 124.00 3.00 L 123.50 3.00 L 123.00 3.00 L 122.50 3.00 L 122.00 3.00 L 121.50 3.00 L 121.00 3.00 L 120.50 3.00 L 120.00 3.00 L 119.53 3.03 Z M 97.18 3.18 L 97.06 3.50 L 97.18 3.82 L 97.53 3.97 L 98.00 4.00 L 98.50 4.00 L 99.00 4.00 L 99.50 4.00 L 100.00 4.00 L 100.50 4.00 L 101.00 4.00 L 101.50 4.00 L 102.00 4.00 L 102.50 4.00 L 103.00 4.00 L 103.50 4.00 L 104.00 4.00 L 104.50 4.00 L 105.00 4.00 L 105.50 4.00 L 106.00 4.00 L 106.50 4.00 L 107.00 4.00 L 107.50 4.00 L 108.00 4.00 L 108.50 4.00 L 109.00 4.00 L 109.50 4.00 L 110.00 4.00 L 110.50 4.00 L 111.00 4.00 L 111.50 4.00 L 112.00 4.00 L 112.47 3.97 L 112.82 3.82 L 112.94 3.50 L 112.82 3.18 L 112.47 3.03 L 112.00 3.00 L 111.50 3.00 L 111.00 3.00 L 110.50 3.00 L 110.00 3.00 L 109.50 3.00 L 109.00 3.00 L 108.50 3.00 L 108.00 3.00 L 107.50 3.00 L 107.00 3.00 L 106.50 3.00 L 106.00 3.00 L 105.50 3.00 L 105.00 3.00 L 104.50 3.00 L 104.00 3.00 L 103.50 3.00 L 103.00 3.00 L 102.50 3.00 L 102.00 3.00 L 101.50 3.00 L 101.00 3.00 L 100.50 3.00 L 100.00 3.00 L 99.50 3.00 L 99.00 3.00 L 98.50 3.00 L 98.00 3.00 L 97.53 3.03 Z M 48.18 3.18 L 48.06 3.50 L 48.18 3.82 L 48.53 3.97 L 49.00 4.00 L 49.50 4.00 L 50.00 4.00 L 50.50 4.00 L 51.00 4.00 L 51.50 4.00 L 52.00 4.00 L 52.50 4.00 L 53.00 4.00 L 53.50 4.00 L 54.00 4.00 L 54.50 4.00 L 55.00 4.00 L 55.50 4.00 L 56.00 4.00 L 56.50 4.00 L 57.00 4.00 L 57.50 4.00 L 58.00 4.00 L 58.50 4.00 L 59.00 4.00 L 59.50 4.00 L 60.00 4.00 L 60.47 3.97 L 60.82 3.82 L 60.94 3.50 L 60.82 3.18 L 60.47 3.03 L 60.00 3.00 L 59.50 3.00 L 59.00 3.00 L 58.50 3.00 L 58.00 3.00 L 57.50 3.00 L 57.00 3.00 L 56.50 3.00 L 56.00 3.00 L 55.50 3.00 L 55.00 3.00 L 54.50 3.00 L 54.00 3.00 L 53.50 3.00 L 53.00 3.00 L 52.50 3.00 L 52.00 3.00 L 51.50 3.00 L 51.00 3.00 L 50.50 3.00 L 50.00 3.00 L 49.50 3.00 L 49.00 3.00 L 48.53 3.03 Z" fill="rgb(169,166,162)" fill-rule="evenodd"/>
  <path d="M 222.05 171.13 L 221.66 171.39 L 221.33 171.74 L 221.11 172.16 L 221.02 172.63 L 221.00 173.14 L 221.00 173.65 L 221.01 174.14 L 221.09 174.58 L 221.31 174.87 L 221.71 174.98 L 222.19 174.99 L 222.68 174.93 L 223.12 174.76 L 223.49 174.47 L 223.78 174.09 L 223.94 173.64 L 223.99 173.15 L 223.98 172.65 L 223.90 172.18 L 223.68 171.76 L 223.36 171.40 L 222.96 171.14 L 222.51 171.05 Z M 170.18 0.18 L 170.03 0.53 L 170.00 1.00 L 170.03 1.47 L 170.18 1.82 L 170.53 1.97 L 171.00 2.00 L 171.50 2.00 L 172.00 2.00 L 172.50 2.00 L 173.00 2.00 L 173.50 2.00 L 174.00 2.00 L 174.50 2.00 L 175.00 2.00 L 175.50 2.00 L 176.00 2.00 L 176.50 2.00 L 177.00 2.00 L 177.50 2.00 L 178.00 2.00 L 178.50 2.00 L 179.00 2.00 L 179.47 1.97 L 179.82 1.82 L 179.97 1.47 L 180.00 1.00 L 179.97 0.53 L 179.82 0.18 L 179.47 0.03 L 179.00 0.00 L 178.50 0.00 L 178.00 0.00 L 177.50 0.00 L 177.00 0.00 L 176.50 0.00 L 176.00 0.00 L 175.50 0.00 L 175.00 0.00 L 174.50 0.00 L 174.00 0.00 L 173.50 0.00 L 173.00 0.00 L 172.50 0.00 L 172.00 0.00 L 171.50 0.00 L 171.00 0.00 L 170.53 0.03 Z M 154.18 0.18 L 154.03 0.53 L 154.00 1.00 L 154.03 1.47 L 154.18 1.82 L 154.53 1.97 L 155.00 2.00 L 155.50 2.00 L 156.00 2.00 L 156.50 2.00 L 157.00 2.00 L 157.50 2.00 L 158.00 2.00 L 158.50 2.00 L 159.00 2.00 L 159.50 2.00 L 160.00 2.00 L 160.50 2.00 L 161.00 2.00 L 161.50 2.00 L 162.00 2.00 L 162.50 2.00 L 163.00 2.00 L 163.50 2.00 L 164.00 2.00 L 164.47 1.97 L 164.82 1.82 L 164.97 1.47 L 165.00 1.00 L 164.97 0.53 L 164.82 0.18 L 164.47 0.03 L 164.00 0.00 L 163.50 0.00 L 163.00 0.00 L 162.50 0.00 L 162.00 0.00 L 161.50 0.00 L 161.00 0.00 L 160.50 0.00 L 160.00 0.00 L 159.50 0.00 L 159.00 0.00 L 158.50 0.00 L 158.00 0.00 L 157.50 0.00 L 157.00 0.00 L 156.50 0.00 L 156.00 0.00 L 155.50 0.00 L 155.00 0.00 L 154.53 0.03 Z M 35.61 0.48 L 38.76 2.42 L 38.73 6.41 L 34.22 5.02 L 28.63 5.54 L 23.37 5.66 L 19.47 8.98 L 17.43 13.66 L 21.38 15.07 L 20.17 19.43 L 16.30 19.44 L 13.40 16.53 L 10.66 20.67 L 6.13 23.96 L 2.97 27.52 L 0.03 29.70 L 0.00 35.67 L 0.00 41.67 L 0.00 47.67 L 0.90 52.53 L 4.51 52.19 L 4.63 57.62 L 1.55 56.58 L 0.00 60.03 L 0.06 65.96 L 2.91 66.68 L 4.46 69.75 L 5.55 75.03 L 4.97 80.54 L 2.56 82.88 L 2.00 77.28 L 0.66 73.54 L 0.00 78.73 L 0.00 84.73 L 0.00 90.73 L 0.00 96.73 L 0.00 102.73 L 0.00 108.73 L 0.00 114.74 L 0.00 120.74 L 0.00 126.74 L 1.39 130.47 L 5.33 128.05 L 8.03 130.35 L 7.31 133.96 L 11.35 137.71 L 15.08 140.61 L 19.42 142.52 L 24.24 144.31 L 29.95 145.00 L 35.83 144.70 L 41.04 144.55 L 46.34 144.91 L 52.30 145.00 L 58.31 145.00 L 64.31 145.00 L 70.31 145.00 L 76.31 145.00 L 82.31 145.00 L 88.31 145.00 L 94.32 145.00 L 100.32 145.00 L 106.32 145.00 L 112.32 145.00 L 118.32 145.00 L 124.32 145.00 L 130.32 145.00 L 136.33 145.00 L 142.33 145.00 L 148.33 145.00 L 154.33 145.00 L 160.33 145.00 L 166.33 145.00 L 171.99 144.16 L 177.80 144.30 L 183.51 145.00 L 189.51 145.00 L 195.51 145.00 L 201.52 145.00 L 207.52 145.00 L 213.52 145.00 L 219.49 145.07 L 223.44 148.32 L 221.80 151.96 L 223.57 156.47 L 228.66 157.89 L 229.58 161.63 L 225.46 162.99 L 222.53 164.76 L 226.05 166.30 L 231.76 165.63 L 236.18 161.82 L 240.42 157.58 L 244.04 153.11 L 246.03 149.25 L 245.53 145.57 L 250.37 146.32 L 255.36 144.53 L 258.11 140.60 L 260.41 144.15 L 265.18 144.59 L 267.48 140.14 L 271.68 140.51 L 274.60 144.66 L 279.15 145.29 L 284.03 144.48 L 286.67 140.02 L 284.66 136.09 L 288.13 134.58 L 292.51 132.10 L 295.62 135.87 L 298.41 138.22 L 301.53 135.16 L 299.64 130.19 L 302.07 126.73 L 305.74 126.47 L 307.69 124.87 L 306.85 120.07 L 302.89 117.27 L 304.61 114.39 L 306.96 113.60 L 306.68 107.94 L 305.90 103.61 L 307.96 98.88 L 307.67 93.03 L 307.50 87.51 L 307.81 81.80 L 307.00 76.13 L 307.27 70.26 L 307.35 65.07 L 308.00 59.37 L 308.00 53.36 L 307.52 47.56 L 306.39 42.26 L 304.31 37.75 L 307.41 36.10 L 307.01 30.85 L 307.20 25.54 L 303.72 21.44 L 299.53 19.46 L 298.17 17.00 L 296.13 13.38 L 291.38 11.10 L 287.06 10.35 L 286.06 6.35 L 281.28 5.55 L 277.67 5.72 L 274.31 7.40 L 269.14 5.97 L 264.15 5.24 L 259.35 6.95 L 254.62 5.15 L 248.79 4.94 L 247.61 2.31 L 253.42 2.00 L 259.42 2.00 L 265.42 2.00 L 271.42 2.00 L 277.02 1.66 L 274.57 0.01 L 268.57 0.00 L 262.57 0.00 L 256.57 0.00 L 250.57 0.00 L 244.57 0.00 L 238.56 0.00 L 232.56 0.00 L 226.56 0.00 L 220.56 0.00 L 214.56 0.00 L 208.56 0.00 L 202.55 0.00 L 196.55 0.00 L 190.55 0.00 L 186.49 1.18 L 191.45 2.00 L 197.45 2.00 L 203.46 2.00 L 209.46 2.00 L 213.38 3.88 L 208.37 5.00 L 202.37 5.00 L 196.48 5.24 L 192.24 6.14 L 189.14 9.44 L 185.86 6.05 L 181.37 4.35 L 177.10 6.50 L 171.79 5.30 L 165.91 5.00 L 159.91 5.00 L 153.91 4.99 L 149.08 3.36 L 144.67 4.88 L 138.73 5.00 L 132.73 5.00 L 126.73 5.00 L 120.73 5.00 L 114.72 5.00 L 108.72 5.00 L 102.72 5.00 L 96.72 5.00 L 90.72 5.00 L 85.12 4.43 L 87.47 2.03 L 93.46 2.00 L 99.46 2.00 L 105.46 2.00 L 111.46 2.00 L 117.47 2.00 L 123.47 2.00 L 129.47 2.00 L 135.47 2.00 L 138.09 0.37 L 132.53 0.00 L 126.52 0.00 L 120.52 0.00 L 114.52 0.00 L 108.52 0.00 L 102.52 0.00 L 96.52 0.00 L 90.51 0.00 L 84.51 0.00 L 78.51 0.00 L 72.51 0.00 L 66.51 0.00 L 60.51 0.00 L 54.51 0.00 L 48.50 0.00 L 42.50 0.00 L 36.60 0.09 Z M 243.16 141.06 L 243.45 140.61 L 243.88 140.27 L 244.38 140.08 L 244.94 140.02 L 245.51 140.05 L 246.03 140.21 L 246.47 140.53 L 246.79 140.97 L 246.99 141.48 L 247.17 141.99 L 247.46 142.46 L 247.76 142.92 L 247.91 143.43 L 247.84 143.94 L 247.55 144.39 L 247.12 144.73 L 246.63 144.90 L 246.11 144.85 L 245.66 144.58 L 245.30 144.17 L 245.06 143.70 L 244.84 143.29 L 244.47 143.03 L 244.01 142.83 L 243.57 142.51 L 243.24 142.08 L 243.09 141.57 Z M 277.94 135.85 L 278.41 135.58 L 278.86 135.27 L 279.37 135.08 L 279.92 135.01 L 280.50 135.00 L 281.08 135.01 L 281.63 135.08 L 282.13 135.27 L 282.55 135.61 L 282.84 136.06 L 282.91 136.57 L 282.77 137.07 L 282.44 137.50 L 282.01 137.82 L 281.54 138.02 L 281.20 138.26 L 281.11 138.66 L 281.27 139.14 L 281.58 139.59 L 281.86 140.06 L 282.04 140.57 L 282.23 141.07 L 282.53 141.53 L 282.81 141.99 L 282.91 142.50 L 282.80 143.00 L 282.50 143.44 L 282.07 143.77 L 281.57 143.91 L 281.06 143.84 L 280.61 143.55 L 280.27 143.13 L 280.06 142.64 L 279.88 142.13 L 279.60 141.68 L 279.20 141.32 L 278.72 141.12 L 278.21 141.13 L 277.73 141.35 L 277.27 141.65 L 276.79 141.87 L 276.28 141.88 L 275.80 141.68 L 275.36 141.34 L 274.94 140.94 L 274.55 140.52 L 274.23 140.07 L 274.06 139.55 L 274.01 138.99 L 274.00 138.41 L 274.02 137.84 L 274.10 137.29 L 274.32 136.80 L 274.68 136.40 L 275.14 136.13 L 275.68 136.02 L 276.25 136.00 L 276.83 136.00 L 277.41 135.97 Z M 2.14 107.06 L 2.40 106.64 L 2.78 106.31 L 3.21 106.11 L 3.68 106.09 L 4.13 106.25 L 4.52 106.56 L 4.80 106.96 L 4.95 107.43 L 4.99 107.94 L 5.00 108.47 L 5.00 109.00 L 5.00 109.53 L 5.00 110.06 L 5.00 110.59 L 5.00 111.12 L 5.00 111.64 L 5.00 112.17 L 5.00 112.70 L 5.00 113.23 L 5.00 113.76 L 5.00 114.29 L 5.00 114.82 L 5.00 115.35 L 5.00 115.88 L 5.00 116.41 L 5.00 116.94 L 4.98 117.46 L 4.86 117.94 L 4.60 118.36 L 4.22 118.69 L 3.79 118.89 L 3.32 118.91 L 2.87 118.75 L 2.48 118.44 L 2.20 118.04 L 2.05 117.57 L 2.01 117.06 L 2.00 116.53 L 2.00 116.00 L 2.00 115.47 L 2.00 114.94 L 2.00 114.41 L 2.00 113.88 L 2.00 113.36 L 2.00 112.83 L 2.00 112.30 L 2.00 111.77 L 2.00 111.24 L 2.00 110.71 L 2.00 110.18 L 2.00 109.65 L 2.00 109.12 L 2.00 108.59 L 2.00 108.06 L 2.02 107.54 Z M 2.14 92.06 L 2.42 91.63 L 2.81 91.30 L 3.26 91.11 L 3.74 91.11 L 4.20 91.30 L 4.61 91.63 L 5.00 92.01 L 5.38 92.40 L 5.70 92.81 L 5.91 93.27 L 5.98 93.79 L 5.98 94.32 L 5.89 94.83 L 5.65 95.28 L 5.35 95.71 L 5.12 96.16 L 5.02 96.66 L 5.00 97.20 L 5.00 97.75 L 5.00 98.30 L 5.00 98.85 L 5.00 99.39 L 5.00 99.94 L 5.00 100.49 L 4.99 101.03 L 4.95 101.56 L 4.79 102.05 L 4.49 102.46 L 4.09 102.77 L 3.62 102.92 L 3.14 102.87 L 2.70 102.63 L 2.35 102.26 L 2.11 101.81 L 2.02 101.30 L 2.00 100.76 L 2.00 100.22 L 2.00 99.67 L 2.00 99.12 L 2.00 98.57 L 2.00 98.03 L 2.00 97.48 L 2.00 96.93 L 2.00 96.38 L 2.00 95.83 L 2.00 95.29 L 2.00 94.74 L 2.00 94.19 L 2.00 93.64 L 2.00 93.10 L 2.02 92.56 Z M 279.00 44.00 L 279.39 43.63 L 279.80 43.30 L 280.25 43.11 L 280.73 43.11 L 281.19 43.29 L 281.58 43.62 L 281.85 44.05 L 281.97 44.54 L 281.99 45.07 L 281.94 45.59 L 281.78 46.07 L 281.48 46.48 L 281.07 46.78 L 280.59 46.94 L 280.07 46.99 L 279.54 46.97 L 279.05 46.85 L 278.62 46.58 L 278.29 46.19 L 278.11 45.73 L 278.11 45.25 L 278.30 44.80 L 278.63 44.39 Z M 2.14 33.06 L 2.40 32.64 L 2.78 32.31 L 3.22 32.11 L 3.69 32.09 L 4.14 32.26 L 4.52 32.57 L 4.81 32.97 L 4.95 33.45 L 4.99 33.96 L 5.00 34.49 L 5.00 35.02 L 5.00 35.55 L 5.00 36.09 L 5.00 36.62 L 5.00 37.15 L 5.00 37.68 L 5.00 38.21 L 5.00 38.75 L 5.00 39.28 L 5.00 39.81 L 5.00 40.34 L 5.00 40.87 L 5.00 41.40 L 5.00 41.94 L 4.98 42.46 L 4.86 42.94 L 4.60 43.36 L 4.22 43.69 L 3.78 43.89 L 3.31 43.91 L 2.86 43.74 L 2.48 43.43 L 2.19 43.03 L 2.05 42.55 L 2.01 42.04 L 2.00 41.51 L 2.00 40.98 L 2.00 40.45 L 2.00 39.91 L 2.00 39.38 L 2.00 38.85 L 2.00 38.32 L 2.00 37.79 L 2.00 37.25 L 2.00 36.72 L 2.00 36.19 L 2.00 35.66 L 2.00 35.13 L 2.00 34.60 L 2.00 34.06 L 2.02 33.54 Z M 276.94 28.86 L 277.41 28.58 L 277.87 28.27 L 278.37 28.10 L 278.88 28.15 L 279.34 28.41 L 279.69 28.82 L 279.91 29.31 L 279.99 29.87 L 280.03 30.43 L 280.17 30.97 L 280.45 31.44 L 280.75 31.90 L 280.91 32.40 L 280.85 32.91 L 280.57 33.36 L 280.16 33.71 L 279.69 33.95 L 279.28 34.17 L 279.03 34.53 L 278.82 35.00 L 278.51 35.44 L 278.07 35.76 L 277.56 35.94 L 277.00 35.99 L 276.41 36.00 L 275.83 35.98 L 275.28 35.90 L 274.79 35.68 L 274.35 35.33 L 273.93 34.93 L 273.51 34.51 L 273.10 34.10 L 272.69 33.68 L 272.34 33.24 L 272.12 32.76 L 272.12 32.24 L 272.34 31.77 L 272.72 31.38 L 273.19 31.12 L 273.73 31.02 L 274.28 30.97 L 274.72 30.82 L 274.97 30.47 L 275.18 30.00 L 275.49 29.56 L 275.93 29.23 L 276.43 29.04 Z M 290.15 21.06 L 290.43 20.62 L 290.84 20.28 L 291.33 20.08 L 291.87 20.01 L 292.43 20.00 L 293.00 20.01 L 293.55 20.05 L 294.05 20.22 L 294.47 20.53 L 294.78 20.95 L 294.92 21.44 L 294.85 21.94 L 294.57 22.38 L 294.16 22.72 L 293.67 22.92 L 293.13 22.99 L 292.57 23.00 L 292.00 22.99 L 291.45 22.95 L 290.95 22.78 L 290.53 22.47 L 290.22 22.05 L 290.08 21.56 Z M 265.00 10.00 L 265.41 9.61 L 265.84 9.29 L 266.31 9.10 L 266.81 9.13 L 267.27 9.35 L 267.69 9.70 L 268.09 10.10 L 268.48 10.50 L 268.78 10.94 L 268.92 11.43 L 268.85 11.93 L 268.59 12.38 L 268.29 12.82 L 268.09 13.31 L 268.01 13.84 L 267.98 14.39 L 267.86 14.91 L 267.60 15.37 L 267.30 15.81 L 267.12 16.27 L 267.17 16.68 L 267.47 16.93 L 267.91 17.12 L 268.34 17.41 L 268.69 17.80 L 268.89 18.27 L 268.88 18.77 L 268.68 19.24 L 268.37 19.68 L 268.13 20.14 L 268.02 20.66 L 268.02 21.20 L 268.14 21.65 L 268.45 21.90 L 268.94 21.98 L 269.49 22.00 L 270.05 22.00 L 270.62 22.00 L 271.18 22.02 L 271.71 22.09 L 272.19 22.30 L 272.59 22.65 L 272.85 23.09 L 272.92 23.59 L 272.77 24.08 L 272.48 24.52 L 272.20 24.97 L 272.05 25.47 L 272.00 26.02 L 271.94 26.56 L 271.78 27.06 L 271.47 27.50 L 271.09 27.91 L 270.69 28.30 L 270.27 28.65 L 269.80 28.89 L 269.27 28.98 L 268.74 29.03 L 268.31 29.16 L 268.08 29.50 L 268.01 30.00 L 268.00 30.55 L 268.00 31.12 L 268.00 31.68 L 267.98 32.24 L 267.89 32.77 L 267.66 33.24 L 267.30 33.62 L 266.85 33.86 L 266.35 33.90 L 265.87 33.74 L 265.43 33.44 L 264.98 33.16 L 264.48 32.99 L 263.99 32.82 L 263.57 32.51 L 263.24 32.09 L 263.07 31.60 L 263.01 31.06 L 263.00 30.50 L 263.00 29.93 L 263.00 29.37 L 262.98 28.82 L 262.87 28.37 L 262.59 28.14 L 262.26 28.19 L 262.03 28.52 L 261.85 28.97 L 261.57 29.42 L 261.27 29.86 L 261.08 30.35 L 261.01 30.89 L 261.00 31.45 L 261.00 32.02 L 261.00 32.58 L 261.00 33.15 L 261.00 33.71 L 260.98 34.27 L 260.89 34.80 L 260.65 35.26 L 260.28 35.64 L 259.84 35.90 L 259.41 36.10 L 259.13 36.39 L 259.02 36.85 L 259.04 37.37 L 259.20 37.77 L 259.58 37.95 L 260.10 38.00 L 260.66 38.00 L 261.22 38.02 L 261.75 38.10 L 262.22 38.33 L 262.61 38.68 L 262.86 39.13 L 262.91 39.63 L 262.75 40.11 L 262.42 40.52 L 261.99 40.82 L 261.49 40.96 L 260.93 41.00 L 260.37 41.00 L 259.80 41.00 L 259.24 41.00 L 258.67 41.00 L 258.11 41.00 L 257.55 40.97 L 257.04 40.84 L 256.61 40.55 L 256.27 40.14 L 256.08 39.66 L 256.01 39.12 L 256.00 38.56 L 255.99 37.99 L 255.94 37.45 L 255.78 36.95 L 255.50 36.50 L 255.21 36.05 L 255.06 35.55 L 255.01 35.01 L 255.05 34.46 L 255.21 33.96 L 255.49 33.51 L 255.78 33.06 L 255.94 32.56 L 256.00 32.02 L 256.05 31.48 L 256.20 30.97 L 256.48 30.52 L 256.77 30.08 L 256.94 29.58 L 256.99 29.04 L 257.00 28.47 L 257.01 27.91 L 257.07 27.37 L 257.26 26.88 L 257.59 26.47 L 258.02 26.17 L 258.53 26.04 L 259.07 25.99 L 259.61 25.93 L 260.10 25.75 L 260.52 25.43 L 260.82 25.00 L 261.00 24.50 L 261.17 24.01 L 261.47 23.58 L 261.88 23.25 L 262.34 23.04 L 262.74 22.83 L 262.97 22.48 L 263.16 22.02 L 263.44 21.57 L 263.74 21.13 L 263.90 20.65 L 263.87 20.15 L 263.63 19.69 L 263.33 19.25 L 263.09 18.78 L 262.93 18.28 L 262.70 17.81 L 262.40 17.37 L 262.14 16.91 L 262.02 16.39 L 261.99 15.84 L 261.91 15.31 L 261.71 14.82 L 261.41 14.38 L 261.15 13.93 L 261.08 13.43 L 261.22 12.94 L 261.53 12.52 L 261.95 12.21 L 262.44 12.03 L 262.94 11.86 L 263.39 11.58 L 263.80 11.20 L 264.20 10.80 L 264.60 10.40 Z M 222.15 3.06 L 222.43 2.63 L 222.83 2.29 L 223.30 2.09 L 223.83 2.01 L 224.38 2.00 L 224.94 2.00 L 225.50 2.00 L 226.06 2.01 L 226.59 2.06 L 227.08 2.23 L 227.49 2.55 L 227.80 2.97 L 227.92 3.45 L 227.85 3.94 L 227.57 4.37 L 227.17 4.71 L 226.70 4.91 L 226.17 4.99 L 225.62 5.00 L 225.06 5.00 L 224.50 5.00 L 223.94 4.99 L 223.41 4.94 L 222.92 4.77 L 222.51 4.45 L 222.20 4.03 L 222.08 3.55 Z M 68.14 3.06 L 68.40 2.64 L 68.78 2.31 L 69.22 2.10 L 69.71 2.02 L 70.23 2.00 L 70.76 2.00 L 71.29 2.00 L 71.82 2.00 L 72.35 2.00 L 72.88 2.00 L 73.41 2.00 L 73.94 2.00 L 74.47 2.00 L 75.00 2.00 L 75.53 2.00 L 76.06 2.00 L 76.59 2.00 L 77.12 2.00 L 77.65 2.00 L 78.18 2.00 L 78.71 2.00 L 79.23 2.01 L 79.73 2.09 L 80.18 2.28 L 80.56 2.60 L 80.83 3.01 L 80.94 3.48 L 80.86 3.94 L 80.60 4.36 L 80.22 4.69 L 79.78 4.90 L 79.29 4.98 L 78.77 5.00 L 78.24 5.00 L 77.71 5.00 L 77.18 5.00 L 76.65 5.00 L 76.12 5.00 L 75.59 5.00 L 75.06 5.00 L 74.53 5.00 L 74.00 5.00 L 73.47 5.00 L 72.94 5.00 L 72.41 5.00 L 71.88 5.00 L 71.35 5.00 L 70.82 5.00 L 70.29 5.00 L 69.77 4.99 L 69.27 4.91 L 68.82 4.72 L 68.44 4.40 L 68.17 3.99 L 68.06 3.52 Z M 41.14 3.06 L 41.40 2.65 L 41.77 2.31 L 42.21 2.10 L 42.70 2.02 L 43.22 2.00 L 43.75 2.00 L 44.27 2.00 L 44.80 2.00 L 45.33 2.00 L 45.86 2.00 L 46.38 2.00 L 46.91 2.00 L 47.44 2.00 L 47.96 2.00 L 48.49 2.00 L 49.02 2.00 L 49.55 2.00 L 50.07 2.00 L 50.60 2.00 L 51.13 2.00 L 51.65 2.00 L 52.18 2.00 L 52.71 2.00 L 53.23 2.00 L 53.76 2.00 L 54.29 2.00 L 54.82 2.00 L 55.34 2.00 L 55.87 2.00 L 56.40 2.00 L 56.92 2.00 L 57.45 2.00 L 57.98 2.00 L 58.50 2.00 L 59.03 2.00 L 59.56 2.00 L 60.09 2.00 L 60.61 2.00 L 61.14 2.01 L 61.64 2.06 L 62.10 2.23 L 62.49 2.53 L 62.78 2.92 L 62.92 3.38 L 62.88 3.84 L 62.66 4.27 L 62.31 4.63 L 61.89 4.88 L 61.41 4.98 L 60.89 5.00 L 60.36 5.00 L 59.84 5.00 L 59.31 5.00 L 58.78 5.00 L 58.26 5.00 L 57.73 5.00 L 57.20 5.00 L 56.68 5.00 L 56.15 5.00 L 55.62 5.00 L 55.09 5.00 L 54.57 5.00 L 54.04 5.00 L 53.51 5.00 L 52.99 5.00 L 52.46 5.00 L 51.93 5.00 L 51.41 5.00 L 50.88 5.00 L 50.35 5.00 L 49.82 5.00 L 49.30 5.00 L 48.78 5.01 L 48.28 5.08 L 47.83 5.27 L 47.42 5.56 L 47.01 5.83 L 46.53 5.96 L 46.02 5.99 L 45.51 5.97 L 45.03 5.85 L 44.61 5.59 L 44.21 5.30 L 43.76 5.09 L 43.27 5.01 L 42.75 4.99 L 42.26 4.91 L 41.81 4.71 L 41.44 4.39 L 41.16 3.99 L 41.06 3.52 Z" fill="rgb(234,231,228)" fill-rule="evenodd"/>
</svg>