<svg xmlns="http://www.w3.org/2000/svg" width="318" height="123" viewBox="0 0 318 123" role="img" aria-label="12_plates_12">
  <title>12_plates_12</title>
  <path d="M 255.06 116.14 L 254.62 116.40 L 254.21 116.70 L 253.75 116.91 L 253.24 116.99 L 252.73 117.02 L 252.32 117.14 L 252.11 117.43 L 252.18 117.76 L 252.52 117.94 L 253.01 117.99 L 253.54 118.00 L 254.08 118.00 L 254.62 118.00 L 255.17 118.00 L 255.71 118.00 L 256.24 118.02 L 256.75 118.09 L 257.21 118.30 L 257.62 118.60 L 258.06 118.86 L 258.53 118.93 L 259.01 118.82 L 259.43 118.54 L 259.82 118.17 L 260.21 117.79 L 260.57 117.40 L 260.84 116.98 L 260.92 116.53 L 260.77 116.18 L 260.38 116.03 L 259.87 116.00 L 259.33 116.00 L 258.79 116.00 L 258.25 116.00 L 257.71 116.00 L 257.17 116.00 L 256.62 116.00 L 256.08 116.00 L 255.55 116.02 Z M 316.19 104.22 L 315.98 104.59 L 315.78 105.06 L 315.46 105.48 L 315.03 105.80 L 314.54 105.98 L 314.04 106.15 L 313.58 106.43 L 313.13 106.74 L 312.65 106.94 L 312.14 107.12 L 311.68 107.38 L 311.26 107.75 L 310.85 108.15 L 310.47 108.56 L 310.17 109.01 L 309.99 109.51 L 309.81 110.01 L 309.53 110.47 L 309.23 110.92 L 309.04 111.41 L 308.87 111.91 L 308.58 112.36 L 308.17 112.70 L 307.69 112.91 L 307.15 112.99 L 306.61 113.03 L 306.20 113.20 L 305.98 113.58 L 305.78 114.05 L 305.47 114.48 L 305.04 114.79 L 304.53 114.95 L 303.98 115.00 L 303.43 115.06 L 302.93 115.23 L 302.47 115.52 L 302.02 115.80 L 301.51 115.95 L 300.95 115.98 L 300.41 115.93 L 299.91 115.76 L 299.46 115.46 L 299.00 115.19 L 298.50 115.08 L 298.00 115.19 L 297.55 115.48 L 297.14 115.86 L 296.73 116.26 L 296.31 116.62 L 295.84 116.89 L 295.34 117.06 L 294.85 117.27 L 294.41 117.58 L 293.95 117.84 L 293.45 117.92 L 292.95 117.78 L 292.50 117.50 L 292.04 117.21 L 291.55 117.08 L 291.04 117.16 L 290.59 117.43 L 290.14 117.73 L 289.65 117.92 L 289.10 117.98 L 288.55 117.96 L 288.03 117.83 L 287.57 117.56 L 287.12 117.26 L 286.62 117.07 L 286.08 117.01 L 285.52 116.96 L 285.01 116.82 L 284.56 116.52 L 284.14 116.14 L 283.73 115.74 L 283.31 115.38 L 282.84 115.12 L 282.31 115.02 L 281.75 115.00 L 281.17 115.00 L 280.61 115.02 L 280.09 115.14 L 279.63 115.42 L 279.21 115.79 L 278.80 116.19 L 278.39 116.57 L 277.93 116.85 L 277.40 116.97 L 276.84 117.00 L 276.27 117.00 L 275.72 117.03 L 275.29 117.17 L 275.07 117.52 L 275.00 118.03 L 274.94 118.57 L 274.77 119.08 L 274.48 119.53 L 274.20 119.98 L 274.10 120.44 L 274.25 120.81 L 274.66 120.97 L 275.20 121.00 L 275.77 121.00 L 276.34 121.00 L 276.92 121.00 L 277.49 121.00 L 278.06 121.00 L 278.64 121.00 L 279.21 121.00 L 279.78 121.00 L 280.36 121.00 L 280.93 121.00 L 281.50 121.00 L 282.08 121.00 L 282.65 121.00 L 283.22 121.00 L 283.80 121.00 L 284.37 121.00 L 284.94 121.00 L 285.52 121.00 L 286.09 121.00 L 286.66 121.00 L 287.24 121.00 L 287.81 121.00 L 288.38 121.00 L 288.96 121.00 L 289.53 121.00 L 290.10 121.00 L 290.68 121.00 L 291.25 121.00 L 291.82 121.00 L 292.40 121.00 L 292.97 121.00 L 293.54 121.00 L 294.12 121.00 L 294.69 121.00 L 295.26 121.00 L 295.84 121.00 L 296.40 120.98 L 296.93 120.86 L 297.39 120.59 L 297.84 120.28 L 298.33 120.09 L 298.87 120.01 L 299.44 120.00 L 300.01 119.99 L 300.56 119.94 L 301.06 119.77 L 301.51 119.46 L 301.92 119.08 L 302.33 118.67 L 302.73 118.27 L 303.14 117.86 L 303.54 117.46 L 303.95 117.05 L 304.35 116.65 L 304.76 116.24 L 305.17 115.84 L 305.58 115.45 L 306.03 115.16 L 306.53 114.98 L 307.03 114.80 L 307.46 114.49 L 307.78 114.06 L 307.97 113.57 L 308.14 113.07 L 308.43 112.63 L 308.84 112.28 L 309.32 112.06 L 309.83 111.89 L 310.29 111.63 L 310.72 111.27 L 311.13 110.87 L 311.53 110.47 L 311.94 110.06 L 312.34 109.66 L 312.75 109.25 L 313.15 108.85 L 313.56 108.44 L 313.96 108.04 L 314.36 107.63 L 314.70 107.19 L 314.93 106.71 L 315.10 106.21 L 315.35 105.75 L 315.72 105.37 L 316.16 105.10 L 316.59 104.90 L 316.85 104.62 L 316.82 104.29 L 316.53 104.11 Z M 312.19 81.20 L 312.03 81.56 L 312.00 82.06 L 312.00 82.58 L 312.00 83.11 L 312.00 83.64 L 312.00 84.17 L 312.00 84.69 L 312.00 85.22 L 312.00 85.75 L 312.00 86.28 L 312.00 86.80 L 312.00 87.33 L 312.00 87.86 L 312.00 88.39 L 312.00 88.91 L 312.00 89.44 L 312.00 89.97 L 311.97 90.49 L 311.85 90.96 L 311.60 91.39 L 311.30 91.79 L 311.11 92.23 L 311.09 92.70 L 311.26 93.14 L 311.57 93.52 L 311.97 93.81 L 312.44 93.95 L 312.95 93.99 L 313.47 94.00 L 313.99 93.99 L 314.48 93.95 L 314.82 93.77 L 314.97 93.39 L 315.00 92.89 L 315.00 92.36 L 315.00 91.83 L 315.00 91.31 L 315.00 90.78 L 315.00 90.25 L 315.00 89.72 L 315.00 89.20 L 314.98 88.68 L 314.89 88.18 L 314.67 87.75 L 314.35 87.36 L 313.98 86.98 L 313.62 86.60 L 313.30 86.21 L 313.09 85.76 L 313.02 85.27 L 313.00 84.75 L 313.00 84.22 L 313.00 83.69 L 313.00 83.17 L 313.00 82.64 L 313.00 82.11 L 312.97 81.61 L 312.83 81.23 L 312.51 81.08 Z M 3.96 80.65 L 3.40 81.32 L 3.31 82.52 L 3.61 83.84 L 3.89 85.22 L 3.98 86.68 L 4.00 88.17 L 3.97 89.66 L 3.83 91.10 L 3.51 92.47 L 3.19 93.83 L 3.03 95.27 L 3.00 96.76 L 3.00 98.26 L 3.00 99.76 L 3.02 101.25 L 3.12 102.71 L 3.51 104.05 L 4.30 105.22 L 5.31 106.30 L 6.37 107.36 L 7.43 108.43 L 8.49 109.49 L 9.55 110.55 L 10.61 111.61 L 11.67 112.67 L 12.73 113.73 L 13.79 114.79 L 14.85 115.85 L 15.91 116.91 L 16.97 117.97 L 18.03 119.03 L 19.10 120.08 L 20.21 121.02 L 21.44 121.68 L 22.83 121.95 L 24.31 122.00 L 25.80 122.00 L 27.30 122.00 L 28.80 122.00 L 30.30 122.00 L 31.80 122.00 L 33.30 122.00 L 34.80 122.00 L 36.30 122.00 L 37.80 122.00 L 39.30 122.00 L 40.80 122.00 L 42.30 122.00 L 43.80 122.00 L 45.30 122.00 L 46.81 122.00 L 48.31 122.00 L 49.81 122.00 L 51.31 122.00 L 52.81 122.00 L 54.31 122.00 L 55.81 122.00 L 57.31 122.00 L 58.81 122.00 L 60.31 122.00 L 61.81 122.00 L 63.31 122.00 L 64.81 122.00 L 66.31 122.00 L 67.81 122.00 L 69.31 122.00 L 70.81 122.00 L 72.31 122.00 L 73.81 122.00 L 75.31 122.00 L 76.81 122.00 L 78.31 122.00 L 79.81 122.00 L 81.31 122.00 L 82.81 122.00 L 84.31 122.00 L 85.81 122.00 L 87.31 122.00 L 88.81 122.00 L 90.31 122.00 L 91.81 122.00 L 93.31 122.00 L 94.81 122.00 L 96.31 122.00 L 97.81 122.00 L 99.31 122.00 L 100.81 122.00 L 102.31 122.00 L 103.81 122.00 L 105.31 122.00 L 106.81 122.00 L 108.31 122.00 L 109.81 122.00 L 111.31 122.00 L 112.81 122.00 L 114.31 122.00 L 115.81 122.00 L 117.31 122.00 L 118.81 122.00 L 120.31 122.00 L 121.81 122.00 L 123.31 122.00 L 124.81 122.00 L 126.31 122.00 L 127.81 122.00 L 129.31 122.00 L 130.81 122.00 L 132.31 122.00 L 133.81 122.00 L 135.31 122.00 L 136.81 122.00 L 138.31 122.00 L 139.81 122.00 L 141.31 122.00 L 142.81 122.00 L 144.31 122.00 L 145.81 122.00 L 147.31 122.00 L 148.81 122.00 L 150.31 122.00 L 151.81 122.00 L 153.31 122.00 L 154.81 122.00 L 156.31 122.00 L 157.81 122.00 L 159.31 122.00 L 160.81 122.00 L 162.31 122.00 L 163.81 122.00 L 165.31 122.00 L 166.81 122.00 L 168.31 122.00 L 169.81 122.00 L 171.31 122.00 L 172.81 122.00 L 174.31 122.00 L 175.81 122.00 L 177.31 122.00 L 178.81 122.00 L 180.31 122.00 L 181.81 122.00 L 183.31 122.00 L 184.81 122.00 L 186.31 122.00 L 187.81 122.00 L 189.31 122.00 L 190.81 122.00 L 192.31 122.00 L 193.81 122.00 L 195.31 122.00 L 196.81 122.00 L 198.31 122.00 L 199.81 122.00 L 201.31 122.00 L 202.81 122.00 L 204.31 122.00 L 205.81 122.00 L 207.31 122.00 L 208.81 122.00 L 210.31 122.00 L 211.81 122.00 L 213.31 122.00 L 214.81 122.00 L 216.31 122.00 L 217.81 122.00 L 219.26 122.00 L 220.44 122.00 L 220.78 122.00 L 220.03 122.00 L 218.68 122.00 L 217.19 122.00 L 215.69 122.00 L 214.19 122.00 L 212.69 122.00 L 211.19 122.00 L 209.69 122.00 L 208.19 122.00 L 206.69 122.00 L 205.19 122.00 L 203.69 122.00 L 202.19 122.00 L 200.69 122.00 L 199.19 122.00 L 197.69 122.00 L 196.19 122.00 L 194.69 122.00 L 193.19 122.00 L 191.69 122.00 L 190.19 122.00 L 188.69 122.00 L 187.19 122.00 L 185.69 122.00 L 184.19 122.00 L 182.69 122.00 L 181.19 122.00 L 179.69 122.00 L 178.18 122.00 L 176.68 122.00 L 175.18 122.00 L 173.68 122.00 L 172.18 122.00 L 170.68 122.00 L 169.18 122.00 L 167.68 122.00 L 166.18 122.00 L 164.68 122.00 L 163.18 122.00 L 161.68 122.00 L 160.18 122.00 L 158.68 122.00 L 157.18 122.00 L 155.68 122.00 L 154.18 122.00 L 152.68 122.00 L 151.18 122.00 L 149.69 121.98 L 148.23 121.89 L 146.85 121.61 L 145.50 121.25 L 144.09 121.09 L 142.68 121.22 L 141.33 121.56 L 139.95 121.85 L 138.50 121.98 L 137.01 122.00 L 135.51 122.00 L 134.03 121.96 L 132.61 121.77 L 131.26 121.45 L 129.94 121.29 L 128.61 121.48 L 127.26 121.80 L 125.82 121.96 L 124.34 122.00 L 122.84 122.00 L 121.34 122.00 L 119.84 122.00 L 118.34 122.00 L 116.84 121.99 L 115.37 121.91 L 113.98 121.65 L 112.64 121.27 L 111.23 121.05 L 109.75 121.00 L 108.25 121.00 L 106.77 121.05 L 105.37 121.25 L 104.07 121.54 L 102.79 121.52 L 101.48 121.24 L 100.08 121.08 L 98.67 121.22 L 97.32 121.54 L 96.00 121.72 L 94.69 121.58 L 93.42 121.46 L 92.14 121.65 L 90.77 121.89 L 89.32 121.98 L 87.82 122.00 L 86.34 121.97 L 84.90 121.83 L 83.55 121.56 L 82.27 121.46 L 81.00 121.69 L 79.61 121.92 L 78.15 121.99 L 76.65 122.00 L 75.15 122.00 L 73.65 122.00 L 72.15 122.00 L 70.65 122.00 L 69.15 122.00 L 67.65 122.00 L 66.15 122.00 L 64.65 122.00 L 63.15 122.00 L 61.65 122.00 L 60.15 122.00 L 58.65 122.00 L 57.15 122.00 L 55.65 122.00 L 54.15 122.00 L 52.67 121.95 L 51.28 121.73 L 49.99 121.45 L 48.73 121.45 L 47.48 121.55 L 46.22 121.40 L 44.91 121.29 L 43.58 121.49 L 42.22 121.80 L 40.79 121.96 L 39.31 121.99 L 37.83 121.95 L 36.44 121.68 L 35.29 121.01 L 34.58 119.98 L 34.44 118.83 L 34.42 117.88 L 33.87 117.54 L 32.81 117.69 L 31.54 117.70 L 30.24 117.32 L 28.96 116.79 L 27.67 116.30 L 26.28 116.02 L 24.86 115.82 L 23.53 115.44 L 22.36 114.82 L 21.63 113.94 L 21.67 112.91 L 22.20 111.94 L 22.39 110.98 L 21.85 109.98 L 20.89 109.06 L 19.89 108.62 L 18.95 108.92 L 17.92 109.53 L 16.63 109.89 L 15.20 109.95 L 13.83 109.74 L 12.71 109.13 L 11.91 108.11 L 11.34 106.88 L 11.06 105.49 L 11.01 104.01 L 11.00 102.52 L 11.00 101.02 L 10.97 99.56 L 10.82 98.32 L 10.51 97.79 L 10.18 98.30 L 10.03 99.52 L 9.96 100.96 L 9.71 102.31 L 9.04 103.25 L 8.01 103.41 L 6.92 102.79 L 5.97 101.77 L 5.32 100.54 L 5.05 99.15 L 5.00 97.67 L 5.00 96.17 L 5.00 94.67 L 5.00 93.17 L 5.00 91.67 L 5.00 90.17 L 5.00 88.67 L 5.00 87.17 L 4.95 85.70 L 4.73 84.30 L 4.45 83.01 L 4.43 81.80 L 4.42 80.87 Z M 25.14 119.06 L 25.43 118.63 L 25.83 118.29 L 26.30 118.09 L 26.83 118.01 L 27.38 118.00 L 27.94 118.00 L 28.48 118.04 L 28.99 118.17 L 29.41 118.47 L 29.74 118.87 L 29.92 119.35 L 29.99 119.89 L 29.97 120.43 L 29.86 120.94 L 29.57 121.37 L 29.17 121.71 L 28.70 121.91 L 28.17 121.99 L 27.62 122.00 L 27.06 122.00 L 26.52 121.96 L 26.01 121.83 L 25.59 121.53 L 25.26 121.13 L 25.08 120.65 L 25.01 120.11 L 25.03 119.57 Z M 46.18 12.18 L 46.06 12.50 L 46.18 12.82 L 46.53 12.97 L 47.00 13.00 L 47.50 13.00 L 48.00 13.00 L 48.50 13.00 L 49.00 13.00 L 49.50 13.00 L 50.00 13.00 L 50.50 13.00 L 51.00 13.00 L 51.50 13.00 L 52.00 13.00 L 52.50 13.00 L 53.00 13.00 L 53.50 13.00 L 54.00 13.00 L 54.50 13.00 L 55.00 13.00 L 55.47 12.97 L 55.82 12.82 L 55.94 12.50 L 55.82 12.18 L 55.47 12.03 L 55.00 12.00 L 54.50 12.00 L 54.00 12.00 L 53.50 12.00 L 53.00 12.00 L 52.50 12.00 L 52.00 12.00 L 51.50 12.00 L 51.00 12.00 L 50.50 12.00 L 50.00 12.00 L 49.50 12.00 L 49.00 12.00 L 48.50 12.00 L 48.00 12.00 L 47.50 12.00 L 47.00 12.00 L 46.53 12.03 Z M 290.23 10.20 L 290.13 10.54 L 290.34 10.86 L 290.76 11.08 L 291.23 11.32 L 291.70 11.63 L 292.19 11.88 L 292.74 11.98 L 293.32 12.00 L 293.91 12.00 L 294.50 12.00 L 295.09 12.00 L 295.68 12.00 L 296.27 12.02 L 296.82 12.12 L 297.30 12.38 L 297.74 12.75 L 298.16 13.16 L 298.58 13.58 L 299.00 14.00 L 299.42 14.42 L 299.83 14.83 L 300.25 15.25 L 300.67 15.67 L 301.09 16.09 L 301.51 16.51 L 301.93 16.93 L 302.34 17.34 L 302.76 17.76 L 303.18 18.18 L 303.60 18.60 L 304.02 19.02 L 304.43 19.43 L 304.85 19.85 L 305.27 20.27 L 305.69 20.69 L 306.11 21.11 L 306.53 21.53 L 306.94 21.94 L 307.35 22.37 L 307.70 22.82 L 307.93 23.31 L 308.11 23.83 L 308.37 24.31 L 308.68 24.77 L 308.92 25.27 L 309.10 25.78 L 309.36 26.27 L 309.72 26.71 L 310.13 27.13 L 310.55 27.55 L 310.97 27.97 L 311.37 28.39 L 311.71 28.84 L 311.91 29.35 L 311.99 29.91 L 312.00 30.50 L 312.00 31.09 L 312.00 31.68 L 311.98 32.26 L 311.88 32.81 L 311.63 33.30 L 311.33 33.77 L 311.10 34.27 L 311.02 34.82 L 311.03 35.40 L 311.15 35.94 L 311.43 36.41 L 311.73 36.88 L 311.92 37.39 L 311.99 37.95 L 312.00 38.54 L 312.00 39.13 L 312.00 39.72 L 312.00 40.32 L 312.00 40.91 L 312.00 41.50 L 312.00 42.09 L 312.00 42.68 L 312.00 43.27 L 312.01 43.86 L 312.05 44.40 L 312.23 44.78 L 312.57 44.86 L 312.86 44.62 L 312.98 44.15 L 313.00 43.58 L 313.00 42.99 L 313.00 42.40 L 313.02 41.82 L 313.10 41.26 L 313.33 40.76 L 313.64 40.30 L 313.88 39.81 L 313.98 39.26 L 314.00 38.68 L 313.99 38.09 L 313.95 37.51 L 313.80 36.98 L 313.51 36.51 L 313.22 36.04 L 313.06 35.52 L 313.02 34.95 L 313.08 34.39 L 313.27 33.88 L 313.60 33.42 L 314.00 33.00 L 314.40 32.57 L 314.73 32.12 L 314.92 31.61 L 314.99 31.04 L 315.00 30.45 L 314.98 29.87 L 314.91 29.31 L 314.70 28.81 L 314.39 28.34 L 314.12 27.86 L 313.94 27.35 L 313.72 26.85 L 313.37 26.40 L 312.97 25.97 L 312.55 25.55 L 312.13 25.13 L 311.72 24.72 L 311.30 24.30 L 310.88 23.88 L 310.46 23.46 L 310.04 23.04 L 309.63 22.63 L 309.21 22.21 L 308.79 21.79 L 308.37 21.37 L 307.95 20.95 L 307.53 20.53 L 307.12 20.12 L 306.70 19.70 L 306.28 19.28 L 305.86 18.86 L 305.44 18.44 L 305.03 18.02 L 304.62 17.60 L 304.28 17.15 L 304.06 16.65 L 303.88 16.13 L 303.60 15.66 L 303.22 15.22 L 302.80 14.81 L 302.37 14.42 L 301.90 14.13 L 301.38 13.95 L 300.88 13.74 L 300.43 13.40 L 300.00 13.00 L 299.60 12.58 L 299.27 12.12 L 299.05 11.62 L 298.87 11.10 L 298.57 10.65 L 298.16 10.29 L 297.65 10.09 L 297.09 10.01 L 296.51 10.00 L 295.92 10.00 L 295.32 10.00 L 294.73 10.00 L 294.14 10.00 L 293.55 10.00 L 292.96 10.00 L 292.37 10.00 L 291.77 10.00 L 291.19 10.00 L 290.63 10.04 Z M 261.19 10.18 L 261.07 10.50 L 261.19 10.82 L 261.54 10.97 L 262.02 11.00 L 262.52 11.00 L 263.02 11.00 L 263.53 11.00 L 264.03 11.00 L 264.53 11.00 L 265.04 11.00 L 265.54 11.00 L 266.05 11.00 L 266.55 11.00 L 267.05 11.00 L 267.56 11.00 L 268.06 11.00 L 268.56 11.00 L 269.07 11.00 L 269.57 11.00 L 270.08 11.00 L 270.58 11.00 L 271.08 11.00 L 271.59 11.00 L 272.09 11.00 L 272.59 11.00 L 273.10 11.00 L 273.60 11.00 L 274.11 11.00 L 274.61 11.00 L 275.11 11.00 L 275.62 11.00 L 276.12 11.00 L 276.62 11.00 L 277.13 11.00 L 277.63 11.00 L 278.14 11.00 L 278.64 11.00 L 279.14 11.00 L 279.65 11.00 L 280.15 11.00 L 280.65 11.00 L 281.15 11.01 L 281.64 11.06 L 282.08 11.21 L 282.47 11.48 L 282.86 11.75 L 283.29 11.93 L 283.77 11.99 L 284.27 12.00 L 284.77 12.00 L 285.28 12.00 L 285.78 12.00 L 286.27 11.98 L 286.67 11.88 L 286.90 11.61 L 286.98 11.19 L 286.98 10.72 L 286.88 10.32 L 286.60 10.09 L 286.17 10.01 L 285.68 10.00 L 285.18 10.00 L 284.68 10.00 L 284.17 10.00 L 283.67 10.00 L 283.17 10.00 L 282.66 10.00 L 282.16 10.00 L 281.65 10.00 L 281.15 10.00 L 280.65 10.00 L 280.14 10.00 L 279.64 10.00 L 279.14 10.00 L 278.63 10.00 L 278.13 10.00 L 277.62 10.00 L 277.12 10.00 L 276.62 10.00 L 276.11 10.00 L 275.61 10.00 L 275.11 10.00 L 274.60 10.00 L 274.10 10.00 L 273.59 10.00 L 273.09 10.00 L 272.59 10.00 L 272.08 10.00 L 271.58 10.00 L 271.08 10.00 L 270.57 10.00 L 270.07 10.00 L 269.56 10.00 L 269.06 10.00 L 268.56 10.00 L 268.05 10.00 L 267.55 10.00 L 267.05 10.00 L 266.54 10.00 L 266.04 10.00 L 265.53 10.00 L 265.03 10.00 L 264.53 10.00 L 264.02 10.00 L 263.52 10.00 L 263.02 10.00 L 262.51 10.00 L 262.01 10.00 L 261.54 10.03 Z M 23.16 5.39 L 21.97 6.13 L 20.88 7.13 L 19.82 8.18 L 18.76 9.24 L 17.69 10.31 L 16.63 11.37 L 15.57 12.43 L 14.51 13.49 L 13.45 14.55 L 12.39 15.61 L 11.33 16.67 L 10.27 17.73 L 9.21 18.79 L 8.14 19.86 L 7.08 20.92 L 6.02 21.98 L 4.98 23.04 L 4.02 24.15 L 3.34 25.37 L 3.06 26.75 L 3.00 28.23 L 3.00 29.73 L 3.00 31.23 L 3.00 32.73 L 3.00 34.23 L 3.00 35.73 L 3.01 37.23 L 3.10 38.69 L 3.33 40.07 L 3.54 41.35 L 3.42 42.62 L 3.16 43.97 L 3.03 45.42 L 3.00 46.91 L 3.02 48.40 L 3.13 49.86 L 3.42 51.24 L 3.77 52.59 L 3.96 54.01 L 4.00 55.50 L 4.00 57.00 L 4.00 58.50 L 4.00 60.00 L 3.94 61.48 L 3.70 62.88 L 3.30 64.21 L 3.06 65.61 L 3.00 67.09 L 3.00 68.59 L 3.00 70.09 L 3.00 71.59 L 3.00 73.09 L 3.04 74.55 L 3.25 75.77 L 3.78 76.31 L 4.45 75.88 L 4.86 74.74 L 4.98 73.31 L 5.00 71.82 L 5.00 70.32 L 5.00 68.82 L 5.00 67.32 L 5.00 65.82 L 5.00 64.32 L 5.00 62.82 L 5.00 61.31 L 5.00 59.81 L 5.00 58.31 L 5.00 56.81 L 5.00 55.31 L 5.00 53.81 L 5.00 52.31 L 5.00 50.81 L 5.00 49.31 L 5.00 47.81 L 5.00 46.31 L 5.00 44.81 L 5.00 43.31 L 5.00 41.81 L 5.00 40.31 L 5.00 38.81 L 5.00 37.30 L 5.00 35.80 L 5.00 34.30 L 5.00 32.80 L 4.97 31.32 L 4.83 29.88 L 4.56 28.53 L 4.52 27.28 L 5.07 26.17 L 6.08 25.25 L 7.25 24.50 L 8.43 23.83 L 9.56 23.58 L 10.48 24.07 L 11.11 24.91 L 11.68 25.27 L 12.37 24.77 L 13.30 23.89 L 14.37 23.03 L 15.36 22.14 L 16.20 21.09 L 17.12 20.04 L 18.19 19.14 L 19.22 18.29 L 20.08 17.30 L 20.86 16.37 L 21.29 15.74 L 20.93 15.54 L 19.96 15.84 L 18.75 16.30 L 17.58 16.47 L 16.73 15.99 L 16.58 14.99 L 17.12 13.86 L 17.90 12.70 L 18.71 11.53 L 19.65 10.46 L 20.75 9.55 L 21.93 8.79 L 23.10 7.99 L 24.33 7.34 L 25.72 7.06 L 27.20 7.00 L 28.70 7.00 L 30.20 7.00 L 31.70 7.00 L 33.20 7.00 L 34.70 7.00 L 36.20 7.00 L 37.70 7.00 L 39.20 7.00 L 40.70 7.00 L 42.20 7.00 L 43.70 7.00 L 45.20 7.00 L 46.70 7.00 L 48.20 7.00 L 49.70 7.00 L 51.20 7.00 L 52.70 7.00 L 54.21 7.00 L 55.71 7.00 L 57.21 7.00 L 58.71 7.00 L 60.21 7.00 L 61.71 7.00 L 63.21 7.00 L 64.71 7.00 L 66.21 7.00 L 67.71 7.00 L 69.21 7.00 L 70.71 7.00 L 72.21 7.00 L 73.71 7.00 L 75.21 7.00 L 76.71 7.00 L 78.22 7.00 L 79.72 7.00 L 81.22 7.00 L 82.72 7.00 L 84.22 7.00 L 85.72 7.00 L 87.22 7.00 L 88.72 7.00 L 90.22 7.00 L 91.72 7.00 L 93.22 7.00 L 94.72 7.00 L 96.22 7.00 L 97.72 7.00 L 99.22 7.00 L 100.72 7.00 L 102.23 7.00 L 103.73 7.00 L 105.23 7.00 L 106.73 7.00 L 108.23 7.00 L 109.73 7.00 L 111.23 7.00 L 112.73 7.00 L 114.21 6.95 L 115.61 6.75 L 116.92 6.47 L 118.19 6.48 L 119.51 6.77 L 120.92 6.95 L 122.41 7.00 L 123.91 7.00 L 125.41 7.00 L 126.91 7.00 L 128.41 7.00 L 129.91 7.00 L 131.41 7.00 L 132.91 7.00 L 134.41 7.00 L 135.91 7.00 L 137.41 7.00 L 138.91 7.00 L 140.41 7.00 L 141.91 7.00 L 143.41 7.00 L 144.91 7.00 L 146.42 7.00 L 147.92 7.00 L 149.42 7.00 L 150.92 7.00 L 152.42 7.00 L 153.92 7.00 L 155.42 7.00 L 156.92 7.00 L 158.42 7.00 L 159.92 7.00 L 161.42 7.00 L 162.92 7.00 L 164.42 7.00 L 165.92 7.00 L 167.42 7.00 L 168.92 7.00 L 170.43 7.00 L 171.93 7.00 L 173.43 7.00 L 174.93 7.00 L 176.43 7.00 L 177.93 7.00 L 179.43 7.00 L 180.93 7.00 L 182.43 7.00 L 183.93 7.00 L 185.43 7.00 L 186.93 7.00 L 188.43 7.00 L 189.93 7.00 L 191.43 7.00 L 192.93 7.00 L 194.44 7.00 L 195.94 7.00 L 197.44 7.00 L 198.94 7.00 L 200.44 7.00 L 201.94 7.00 L 203.44 7.00 L 204.94 7.00 L 206.44 7.00 L 207.94 7.00 L 209.44 7.00 L 210.94 7.00 L 212.44 7.00 L 213.94 7.00 L 215.44 7.00 L 216.94 7.00 L 218.45 7.00 L 219.95 7.00 L 221.45 7.00 L 222.95 7.00 L 224.45 7.00 L 225.95 7.00 L 227.45 7.00 L 228.95 7.00 L 230.45 7.00 L 231.95 7.00 L 233.45 7.00 L 234.95 7.00 L 236.45 7.00 L 237.95 7.00 L 239.45 7.00 L 240.95 7.00 L 242.45 7.00 L 243.96 7.00 L 245.46 7.00 L 246.96 7.00 L 248.46 7.00 L 249.95 7.00 L 251.33 6.94 L 252.19 6.70 L 252.03 6.30 L 250.96 6.06 L 249.53 6.00 L 248.04 6.00 L 246.54 6.00 L 245.04 6.00 L 243.55 5.98 L 242.09 5.87 L 240.73 5.61 L 239.46 5.46 L 238.19 5.61 L 236.88 5.71 L 235.55 5.50 L 234.19 5.19 L 232.76 5.03 L 231.27 5.00 L 229.77 5.00 L 228.27 5.00 L 226.77 5.00 L 225.27 5.00 L 223.77 5.00 L 222.27 5.00 L 220.79 5.05 L 219.38 5.27 L 218.05 5.61 L 216.73 5.72 L 215.42 5.52 L 214.15 5.46 L 212.89 5.68 L 211.58 5.71 L 210.25 5.41 L 208.87 5.13 L 207.41 5.02 L 205.92 5.00 L 204.42 5.00 L 202.92 5.00 L 201.42 5.00 L 199.92 5.00 L 198.42 5.00 L 196.92 5.00 L 195.41 5.00 L 193.91 5.00 L 192.41 5.00 L 190.91 5.00 L 189.41 5.00 L 187.91 5.00 L 186.41 5.00 L 184.91 5.00 L 183.41 5.00 L 181.91 5.00 L 180.41 5.00 L 178.91 5.00 L 177.41 5.00 L 175.91 5.00 L 174.41 5.00 L 172.91 5.00 L 171.40 5.00 L 169.90 5.00 L 168.40 5.00 L 166.90 5.00 L 165.40 5.00 L 163.90 5.00 L 162.40 5.00 L 160.90 5.00 L 159.40 5.00 L 157.90 5.00 L 156.40 5.00 L 154.90 5.00 L 153.40 5.00 L 151.90 5.00 L 150.40 5.00 L 148.90 5.00 L 147.40 5.00 L 145.89 5.00 L 144.39 5.00 L 142.89 5.00 L 141.39 5.00 L 139.89 5.00 L 138.39 5.00 L 136.89 5.00 L 135.39 5.00 L 133.89 5.00 L 132.39 5.00 L 130.89 5.00 L 129.39 5.00 L 127.89 5.00 L 126.39 5.00 L 124.89 5.00 L 123.39 5.00 L 121.88 5.00 L 120.38 5.00 L 118.88 5.00 L 117.38 5.00 L 115.88 5.00 L 114.38 5.00 L 112.88 5.00 L 111.38 5.00 L 109.88 5.00 L 108.38 5.00 L 106.88 5.00 L 105.38 5.00 L 103.88 5.00 L 102.38 5.00 L 100.88 5.00 L 99.38 5.00 L 97.87 5.00 L 96.37 5.00 L 94.87 5.00 L 93.37 5.00 L 91.87 5.00 L 90.37 5.00 L 88.87 5.00 L 87.37 5.00 L 85.87 5.00 L 84.37 5.00 L 82.87 5.00 L 81.37 5.00 L 79.87 5.00 L 78.37 5.00 L 76.87 5.00 L 75.37 5.00 L 73.86 5.00 L 72.36 5.00 L 70.86 5.00 L 69.36 5.00 L 67.86 5.00 L 66.36 5.00 L 64.86 5.00 L 63.36 5.00 L 61.86 5.00 L 60.36 5.00 L 58.86 5.00 L 57.36 5.00 L 55.86 5.00 L 54.36 5.00 L 52.86 5.00 L 51.36 5.00 L 49.85 5.00 L 48.35 5.00 L 46.85 5.00 L 45.35 5.00 L 43.87 5.05 L 42.46 5.24 L 41.15 5.53 L 39.88 5.53 L 38.59 5.30 L 37.28 5.31 L 36.01 5.55 L 34.73 5.51 L 33.41 5.22 L 31.99 5.04 L 30.50 5.00 L 29.00 5.00 L 27.50 5.00 L 26.00 5.00 L 24.53 5.07 Z" fill="rgb(16,16,16)" fill-rule="evenodd"/>
  <path d="M 43.18 117.18 L 43.06 117.50 L 43.18 117.82 L 43.53 117.97 L 44.00 118.00 L 44.50 118.00 L 45.00 118.00 L 45.50 118.00 L 46.00 118.00 L 46.50 118.00 L 47.00 118.00 L 47.50 118.00 L 48.00 118.00 L 48.50 118.00 L 49.00 118.00 L 49.50 118.00 L 50.00 118.00 L 50.50 118.00 L 51.00 118.00 L 51.50 118.00 L 52.00 118.00 L 52.50 118.00 L 53.00 118.00 L 53.47 117.97 L 53.82 117.82 L 53.94 117.50 L 53.82 117.18 L 53.47 117.03 L 53.00 117.00 L 52.50 117.00 L 52.00 117.00 L 51.50 117.00 L 51.00 117.00 L 50.50 117.00 L 50.00 117.00 L 49.50 117.00 L 49.00 117.00 L 48.50 117.00 L 48.00 117.00 L 47.50 117.00 L 47.00 117.00 L 46.50 117.00 L 46.00 117.00 L 45.50 117.00 L 45.00 117.00 L 44.50 117.00 L 44.00 117.00 L 43.53 117.03 Z" fill="rgb(92,92,92)" fill-rule="evenodd"/>
  <path d="M 64.18 117.18 L 64.06 117.50 L 64.18 117.82 L 64.53 117.97 L 65.00 118.00 L 65.50 118.00 L 66.00 118.00 L 66.50 118.00 L 67.00 118.00 L 67.50 118.00 L 68.00 118.00 L 68.50 118.00 L 69.00 118.00 L 69.50 118.00 L 70.00 118.00 L 70.50 118.00 L 71.00 118.00 L 71.50 118.00 L 72.00 118.00 L 72.50 118.00 L 73.00 118.00 L 73.50 118.00 L 74.00 118.00 L 74.47 117.97 L 74.82 117.82 L 74.94 117.50 L 74.82 117.18 L 74.47 117.03 L 74.00 117.00 L 73.50 117.00 L 73.00 117.00 L 72.50 117.00 L 72.00 117.00 L 71.50 117.00 L 71.00 117.00 L 70.50 117.00 L 70.00 117.00 L 69.50 117.00 L 69.00 117.00 L 68.50 117.00 L 68.00 117.00 L 67.50 117.00 L 67.00 117.00 L 66.50 117.00 L 66.00 117.00 L 65.50 117.00 L 65.00 117.00 L 64.53 117.03 Z M 197.18 12.18 L 197.06 12.50 L 197.18 12.82 L 197.53 12.97 L 198.00 13.00 L 198.50 13.00 L 199.00 13.00 L 199.50 13.00 L 200.00 13.00 L 200.50 13.00 L 201.00 13.00 L 201.50 13.00 L 202.00 13.00 L 202.50 13.00 L 203.00 13.00 L 203.50 13.00 L 204.00 13.00 L 204.50 13.00 L 205.00 13.00 L 205.50 13.00 L 206.00 13.00 L 206.50 13.00 L 207.00 13.00 L 207.47 12.97 L 207.82 12.82 L 207.94 12.50 L 207.82 12.18 L 207.47 12.03 L 207.00 12.00 L 206.50 12.00 L 206.00 12.00 L 205.50 12.00 L 205.00 12.00 L 204.50 12.00 L 204.00 12.00 L 203.50 12.00 L 203.00 12.00 L 202.50 12.00 L 202.00 12.00 L 201.50 12.00 L 201.00 12.00 L 200.50 12.00 L 200.00 12.00 L 199.50 12.00 L 199.00 12.00 L 198.50 12.00 L 198.00 12.00 L 197.53 12.03 Z M 179.18 12.18 L 179.06 12.50 L 179.18 12.82 L 179.53 12.97 L 180.00 13.00 L 180.50 13.00 L 181.00 13.00 L 181.50 13.00 L 182.00 13.00 L 182.50 13.00 L 183.00 13.00 L 183.50 13.00 L 184.00 13.00 L 184.50 13.00 L 185.00 13.00 L 185.50 13.00 L 186.00 13.00 L 186.50 13.00 L 187.00 13.00 L 187.47 12.97 L 187.82 12.82 L 187.94 12.50 L 187.82 12.18 L 187.47 12.03 L 187.00 12.00 L 186.50 12.00 L 186.00 12.00 L 185.50 12.00 L 185.00 12.00 L 184.50 12.00 L 184.00 12.00 L 183.50 12.00 L 183.00 12.00 L 182.50 12.00 L 182.00 12.00 L 181.50 12.00 L 181.00 12.00 L 180.50 12.00 L 180.00 12.00 L 179.53 12.03 Z" fill="rgb(160,161,160)" fill-rule="evenodd"/>
  <path d="M 0.18 97.18 L 0.03 97.53 L 0.00 98.00 L 0.00 98.50 L 0.00 99.00 L 0.00 99.50 L 0.00 100.00 L 0.00 100.50 L 0.00 101.00 L 0.00 101.50 L 0.00 102.00 L 0.00 102.50 L 0.00 103.00 L 0.03 103.47 L 0.18 103.82 L 0.53 103.97 L 1.00 104.00 L 1.47 103.97 L 1.82 103.82 L 1.97 103.47 L 2.00 103.00 L 2.00 102.50 L 2.00 102.00 L 2.00 101.50 L 2.00 101.00 L 2.00 100.50 L 2.00 100.00 L 2.00 99.50 L 2.00 99.00 L 2.00 98.50 L 2.00 98.00 L 1.97 97.53 L 1.82 97.18 L 1.47 97.03 L 1.00 97.00 L 0.53 97.03 Z M 314.19 73.19 L 314.03 73.55 L 314.00 74.04 L 314.00 74.56 L 314.00 75.08 L 314.00 75.60 L 314.00 76.12 L 314.00 76.64 L 314.00 77.16 L 314.00 77.68 L 314.00 78.20 L 314.00 78.72 L 314.01 79.23 L 314.08 79.73 L 314.27 80.17 L 314.56 80.57 L 314.82 80.98 L 314.96 81.44 L 314.99 81.95 L 314.98 82.46 L 314.87 82.93 L 314.62 83.35 L 314.32 83.75 L 314.11 84.17 L 314.08 84.64 L 314.22 85.08 L 314.49 85.49 L 314.77 85.89 L 314.96 86.32 L 315.13 86.70 L 315.41 86.89 L 315.74 86.84 L 315.93 86.53 L 315.99 86.07 L 316.00 85.56 L 316.00 85.04 L 316.00 84.52 L 316.00 84.00 L 316.00 83.48 L 316.00 82.96 L 316.00 82.44 L 316.00 81.92 L 316.00 81.40 L 316.00 80.88 L 316.00 80.36 L 316.00 79.84 L 316.00 79.32 L 316.00 78.80 L 316.00 78.28 L 316.00 77.76 L 316.00 77.24 L 316.00 76.72 L 316.00 76.20 L 316.00 75.68 L 316.00 75.16 L 316.00 74.64 L 316.00 74.12 L 315.97 73.63 L 315.83 73.25 L 315.50 73.06 L 315.04 73.01 L 314.55 73.03 Z M 0.18 64.18 L 0.03 64.53 L 0.00 65.00 L 0.00 65.50 L 0.00 66.00 L 0.00 66.50 L 0.00 67.00 L 0.00 67.50 L 0.00 68.00 L 0.00 68.50 L 0.00 69.00 L 0.00 69.50 L 0.00 70.00 L 0.00 70.50 L 0.00 71.00 L 0.00 71.50 L 0.00 72.00 L 0.03 72.47 L 0.18 72.82 L 0.53 72.97 L 1.00 73.00 L 1.47 72.97 L 1.82 72.82 L 1.97 72.47 L 2.00 72.00 L 2.00 71.50 L 2.00 71.00 L 2.00 70.50 L 2.00 70.00 L 2.00 69.50 L 2.00 69.00 L 2.00 68.50 L 2.00 68.00 L 2.00 67.50 L 2.00 67.00 L 2.00 66.50 L 2.00 66.00 L 2.00 65.50 L 2.00 65.00 L 1.97 64.53 L 1.82 64.18 L 1.47 64.03 L 1.00 64.00 L 0.53 64.03 Z M 0.18 47.18 L 0.03 47.53 L 0.00 48.00 L 0.00 48.50 L 0.00 49.00 L 0.00 49.50 L 0.00 50.00 L 0.03 50.47 L 0.18 50.82 L 0.53 50.97 L 1.00 51.00 L 1.47 50.97 L 1.82 50.82 L 1.97 50.47 L 2.00 50.00 L 2.00 49.50 L 2.00 49.00 L 2.00 48.50 L 2.00 48.00 L 1.97 47.53 L 1.82 47.18 L 1.47 47.03 L 1.00 47.00 L 0.53 47.03 Z M 315.18 40.19 L 315.01 40.53 L 314.87 40.96 L 314.62 41.36 L 314.32 41.74 L 314.11 42.15 L 314.02 42.62 L 314.00 43.12 L 314.00 43.62 L 314.00 44.13 L 314.00 44.63 L 314.00 45.13 L 314.00 45.64 L 314.00 46.14 L 314.00 46.65 L 314.00 47.15 L 314.00 47.66 L 314.00 48.16 L 314.00 48.67 L 314.00 49.17 L 314.00 49.67 L 314.00 50.18 L 314.00 50.68 L 314.00 51.19 L 314.00 51.69 L 314.00 52.20 L 314.00 52.70 L 314.00 53.20 L 314.00 53.71 L 314.00 54.21 L 314.00 54.72 L 314.00 55.22 L 314.00 55.73 L 314.00 56.23 L 314.00 56.74 L 314.00 57.24 L 314.00 57.74 L 314.00 58.25 L 314.00 58.75 L 314.00 59.26 L 314.00 59.76 L 314.00 60.27 L 314.00 60.77 L 314.02 61.26 L 314.12 61.66 L 314.38 61.90 L 314.80 61.98 L 315.27 61.98 L 315.67 61.88 L 315.91 61.61 L 315.99 61.18 L 316.00 60.69 L 316.00 60.19 L 316.00 59.68 L 316.00 59.18 L 316.00 58.67 L 316.00 58.17 L 316.00 57.66 L 316.00 57.16 L 316.00 56.65 L 316.00 56.15 L 316.00 55.65 L 316.00 55.14 L 316.00 54.64 L 316.00 54.13 L 316.00 53.63 L 316.00 53.12 L 316.00 52.62 L 316.00 52.11 L 316.00 51.61 L 316.00 51.11 L 316.00 50.60 L 316.00 50.10 L 316.00 49.59 L 316.00 49.09 L 316.00 48.58 L 316.00 48.08 L 316.00 47.57 L 316.00 47.07 L 316.00 46.57 L 316.00 46.06 L 316.00 45.56 L 316.00 45.05 L 316.00 44.55 L 316.00 44.04 L 316.00 43.54 L 316.00 43.04 L 316.00 42.53 L 316.00 42.03 L 316.00 41.52 L 316.00 41.02 L 315.97 40.54 L 315.82 40.19 L 315.50 40.07 Z M 0.18 25.18 L 0.03 25.53 L 0.00 26.00 L 0.00 26.50 L 0.00 27.00 L 0.00 27.50 L 0.00 28.00 L 0.00 28.50 L 0.00 29.00 L 0.00 29.50 L 0.00 30.00 L 0.00 30.50 L 0.00 31.00 L 0.00 31.50 L 0.00 32.00 L 0.00 32.50 L 0.00 33.00 L 0.00 33.50 L 0.00 34.00 L 0.00 34.50 L 0.00 35.00 L 0.00 35.50 L 0.00 36.00 L 0.00 36.50 L 0.00 37.00 L 0.00 37.50 L 0.00 38.00 L 0.03 38.47 L 0.18 38.82 L 0.53 38.97 L 1.00 39.00 L 1.47 38.97 L 1.82 38.82 L 1.97 38.47 L 2.00 38.00 L 2.00 37.50 L 2.00 37.00 L 2.00 36.50 L 2.00 36.00 L 2.00 35.50 L 2.00 35.00 L 2.00 34.50 L 2.00 34.00 L 2.00 33.50 L 2.00 33.00 L 2.00 32.50 L 2.00 32.00 L 2.00 31.50 L 2.00 31.00 L 2.00 30.50 L 2.00 30.00 L 2.00 29.50 L 2.00 29.00 L 2.00 28.50 L 2.00 28.00 L 2.00 27.50 L 2.00 27.00 L 2.00 26.50 L 2.00 26.00 L 1.97 25.53 L 1.82 25.18 L 1.47 25.03 L 1.00 25.00 L 0.53 25.03 Z M 43.06 8.44 L 38.91 9.00 L 34.41 9.00 L 29.90 9.00 L 25.43 9.08 L 21.59 10.67 L 19.66 13.36 L 22.78 12.37 L 26.53 11.40 L 26.44 13.74 L 22.95 16.06 L 19.77 19.24 L 16.94 22.54 L 13.93 25.27 L 11.99 28.91 L 9.62 29.93 L 8.44 26.68 L 6.17 28.36 L 6.00 32.72 L 6.18 37.15 L 6.30 41.05 L 6.00 45.40 L 6.00 49.91 L 6.00 54.41 L 6.00 58.91 L 6.00 63.42 L 6.00 67.92 L 6.00 72.43 L 6.00 76.93 L 6.02 81.43 L 6.77 85.62 L 7.00 90.03 L 7.00 94.53 L 7.05 99.01 L 8.58 101.21 L 9.00 97.37 L 9.00 92.87 L 9.00 88.36 L 9.00 83.86 L 9.00 79.35 L 9.00 74.85 L 9.00 70.35 L 10.03 66.70 L 11.95 68.86 L 12.00 73.34 L 12.00 77.84 L 12.00 82.35 L 12.00 86.85 L 12.36 91.17 L 12.14 95.09 L 12.71 99.12 L 15.37 101.94 L 13.60 104.46 L 13.82 107.57 L 16.45 106.96 L 17.57 104.59 L 20.43 106.64 L 23.59 109.67 L 24.56 113.01 L 27.46 114.54 L 31.40 115.92 L 35.87 116.00 L 40.37 116.00 L 44.88 116.00 L 49.38 116.00 L 53.88 116.00 L 58.39 116.00 L 62.89 116.00 L 67.40 116.00 L 71.90 116.00 L 75.39 117.14 L 72.90 118.96 L 68.42 119.00 L 63.91 119.00 L 59.41 119.00 L 54.90 119.00 L 50.41 119.00 L 47.83 119.70 L 51.61 120.00 L 56.11 120.00 L 60.62 120.00 L 65.12 120.00 L 69.62 120.00 L 74.13 120.00 L 78.63 120.00 L 83.14 120.00 L 87.64 120.00 L 92.15 120.00 L 96.65 120.00 L 101.15 120.00 L 105.66 120.00 L 110.16 120.00 L 114.67 120.00 L 119.17 120.00 L 123.67 120.00 L 128.02 119.68 L 131.93 119.83 L 136.36 120.00 L 140.86 120.00 L 145.37 120.00 L 149.87 120.00 L 154.37 120.00 L 158.88 120.00 L 163.38 120.00 L 167.89 120.00 L 172.39 120.00 L 176.89 120.00 L 181.40 120.00 L 185.90 120.00 L 190.41 120.00 L 194.91 120.00 L 199.41 120.00 L 203.92 120.00 L 208.33 120.21 L 212.23 120.28 L 216.60 120.00 L 221.04 120.16 L 224.95 120.33 L 229.29 120.00 L 233.79 120.00 L 238.29 120.00 L 242.80 120.00 L 247.27 119.98 L 248.81 119.22 L 245.64 117.90 L 248.01 116.04 L 252.18 115.25 L 256.21 114.12 L 260.54 114.31 L 264.39 115.90 L 268.85 116.00 L 273.35 116.00 L 277.52 115.19 L 281.11 113.32 L 284.94 114.64 L 288.95 115.83 L 293.10 115.30 L 297.02 113.94 L 299.93 111.25 L 303.66 110.35 L 306.68 111.29 L 309.01 108.43 L 308.45 106.51 L 306.68 104.84 L 309.53 102.50 L 311.91 100.65 L 313.60 103.30 L 315.74 101.08 L 313.59 98.98 L 311.01 96.50 L 309.52 92.77 L 310.15 88.81 L 310.29 84.93 L 310.22 80.66 L 310.98 76.47 L 311.00 71.97 L 311.00 67.47 L 311.00 62.97 L 311.00 58.46 L 311.00 53.96 L 311.00 49.45 L 311.00 44.95 L 310.76 40.54 L 310.02 36.35 L 310.17 31.92 L 309.90 28.37 L 307.43 25.32 L 304.87 21.88 L 301.94 18.75 L 298.92 15.92 L 295.50 13.31 L 291.12 13.00 L 286.62 13.00 L 282.11 13.00 L 277.61 13.00 L 273.11 13.00 L 268.61 12.98 L 264.42 12.23 L 260.01 12.00 L 255.50 12.00 L 251.00 12.00 L 246.50 12.00 L 241.99 12.00 L 237.58 11.77 L 233.39 11.02 L 229.14 10.56 L 225.75 9.05 L 221.30 9.00 L 216.79 9.00 L 212.29 9.00 L 207.79 9.00 L 203.28 9.00 L 198.78 9.00 L 194.32 8.91 L 190.38 8.58 L 186.09 9.00 L 181.59 9.00 L 177.09 9.00 L 172.58 9.00 L 168.08 9.00 L 163.60 8.94 L 159.64 8.50 L 155.40 8.97 L 151.22 8.20 L 146.80 8.00 L 142.30 8.00 L 137.79 8.00 L 133.29 8.00 L 128.94 8.36 L 124.97 8.33 L 120.60 8.00 L 116.10 8.00 L 111.60 8.00 L 107.09 8.00 L 102.59 8.00 L 98.34 8.50 L 94.38 8.06 L 89.90 8.00 L 85.41 8.03 L 81.34 8.56 L 77.53 8.74 L 73.46 8.26 L 69.39 8.71 L 65.54 8.54 L 61.39 8.73 L 57.40 8.54 L 53.09 9.00 L 48.59 9.00 L 44.34 8.50 Z M 217.14 117.05 L 217.40 116.65 L 217.76 116.32 L 218.19 116.10 L 218.68 116.02 L 219.20 116.00 L 219.72 116.00 L 220.24 116.00 L 220.76 116.00 L 221.28 116.00 L 221.80 116.00 L 222.33 116.00 L 222.85 116.00 L 223.37 116.00 L 223.89 116.00 L 224.41 116.00 L 224.93 116.00 L 225.46 116.00 L 225.98 116.00 L 226.50 116.00 L 227.02 116.00 L 227.54 116.00 L 228.07 116.00 L 228.59 116.00 L 229.11 116.00 L 229.63 116.00 L 230.15 116.00 L 230.67 116.00 L 231.20 116.00 L 231.72 116.00 L 232.24 116.00 L 232.76 116.00 L 233.28 116.02 L 233.77 116.09 L 234.20 116.30 L 234.57 116.62 L 234.84 117.02 L 234.94 117.48 L 234.86 117.95 L 234.60 118.35 L 234.24 118.68 L 233.81 118.90 L 233.32 118.98 L 232.80 119.00 L 232.28 119.00 L 231.76 119.00 L 231.24 119.00 L 230.72 119.00 L 230.20 119.00 L 229.67 119.00 L 229.15 119.00 L 228.63 119.00 L 228.11 119.00 L 227.59 119.00 L 227.07 119.00 L 226.54 119.00 L 226.02 119.00 L 225.50 119.00 L 224.98 119.00 L 224.46 119.00 L 223.93 119.00 L 223.41 119.00 L 222.89 119.00 L 222.37 119.00 L 221.85 119.00 L 221.33 119.00 L 220.80 119.00 L 220.28 119.00 L 219.76 119.00 L 219.24 119.00 L 218.72 118.98 L 218.23 118.91 L 217.80 118.70 L 217.43 118.38 L 217.16 117.98 L 217.06 117.52 Z M 201.14 117.06 L 201.41 116.64 L 201.78 116.31 L 202.23 116.10 L 202.73 116.02 L 203.26 116.00 L 203.79 116.00 L 204.33 116.00 L 204.86 116.00 L 205.40 116.00 L 205.93 116.00 L 206.47 116.00 L 207.00 116.00 L 207.53 116.00 L 208.07 116.00 L 208.60 116.00 L 209.14 116.00 L 209.67 116.00 L 210.20 116.01 L 210.71 116.08 L 211.16 116.27 L 211.55 116.59 L 211.83 117.00 L 211.94 117.47 L 211.86 117.94 L 211.59 118.36 L 211.22 118.69 L 210.77 118.90 L 210.27 118.98 L 209.74 119.00 L 209.21 119.00 L 208.67 119.00 L 208.14 119.00 L 207.60 119.00 L 207.07 119.00 L 206.53 119.00 L 206.00 119.00 L 205.47 119.00 L 204.93 119.00 L 204.40 119.00 L 203.86 119.00 L 203.33 119.00 L 202.80 118.99 L 202.29 118.92 L 201.84 118.73 L 201.45 118.41 L 201.17 118.00 L 201.06 117.53 Z M 77.13 117.05 L 77.37 116.67 L 77.70 116.34 L 78.09 116.12 L 78.54 116.02 L 79.01 116.00 L 79.49 116.02 L 79.94 116.12 L 80.32 116.36 L 80.65 116.69 L 80.88 117.08 L 80.96 117.51 L 80.87 117.95 L 80.63 118.33 L 80.30 118.66 L 79.91 118.88 L 79.46 118.98 L 78.99 119.00 L 78.51 118.98 L 78.06 118.88 L 77.68 118.64 L 77.35 118.31 L 77.12 117.92 L 77.04 117.49 Z M 283.15 109.06 L 283.44 108.62 L 283.86 108.28 L 284.35 108.08 L 284.90 108.02 L 285.46 108.04 L 285.98 108.17 L 286.44 108.47 L 286.85 108.86 L 287.26 109.26 L 287.67 109.67 L 288.08 110.08 L 288.47 110.50 L 288.78 110.94 L 288.92 111.44 L 288.84 111.95 L 288.55 112.39 L 288.14 112.73 L 287.64 112.92 L 287.09 112.99 L 286.52 113.00 L 285.94 113.00 L 285.36 113.00 L 284.79 112.98 L 284.25 112.90 L 283.77 112.67 L 283.38 112.30 L 283.13 111.84 L 283.02 111.30 L 283.00 110.73 L 283.00 110.16 L 283.03 109.59 Z M 18.13 101.05 L 18.37 100.67 L 18.70 100.34 L 19.09 100.12 L 19.53 100.04 L 19.96 100.13 L 20.34 100.38 L 20.66 100.71 L 20.89 101.10 L 20.98 101.55 L 21.00 102.03 L 20.98 102.51 L 20.87 102.95 L 20.63 103.33 L 20.30 103.66 L 19.91 103.88 L 19.47 103.96 L 19.04 103.87 L 18.66 103.62 L 18.34 103.29 L 18.11 102.90 L 18.02 102.45 L 18.00 101.97 L 18.02 101.49 Z M 9.13 35.06 L 9.39 34.65 L 9.75 34.32 L 10.18 34.10 L 10.66 34.02 L 11.16 34.01 L 11.65 34.07 L 12.10 34.23 L 12.48 34.53 L 12.78 34.91 L 12.94 35.36 L 12.99 35.85 L 13.00 36.36 L 13.00 36.88 L 13.00 37.39 L 13.00 37.91 L 12.98 38.42 L 12.88 38.89 L 12.65 39.31 L 12.35 39.70 L 12.12 40.12 L 12.02 40.60 L 12.00 41.11 L 12.00 41.62 L 12.00 42.14 L 12.00 42.66 L 12.00 43.17 L 12.00 43.69 L 12.00 44.20 L 12.00 44.72 L 12.00 45.24 L 12.00 45.75 L 12.00 46.27 L 12.00 46.78 L 12.00 47.30 L 12.00 47.81 L 12.00 48.33 L 12.00 48.85 L 12.00 49.36 L 12.00 49.88 L 12.00 50.39 L 12.00 50.91 L 12.00 51.43 L 12.00 51.94 L 12.00 52.46 L 12.00 52.97 L 12.00 53.49 L 12.00 54.01 L 12.00 54.52 L 12.00 55.04 L 12.00 55.55 L 12.00 56.07 L 12.00 56.59 L 12.00 57.10 L 12.00 57.62 L 12.00 58.13 L 12.00 58.65 L 12.00 59.17 L 12.00 59.68 L 12.00 60.20 L 12.00 60.71 L 12.00 61.23 L 12.00 61.75 L 12.00 62.26 L 12.00 62.78 L 11.98 63.29 L 11.91 63.77 L 11.71 64.20 L 11.39 64.57 L 10.99 64.84 L 10.54 64.94 L 10.08 64.87 L 9.67 64.62 L 9.34 64.27 L 9.11 63.85 L 9.02 63.37 L 9.00 62.86 L 9.00 62.34 L 9.00 61.83 L 9.00 61.31 L 9.00 60.80 L 9.00 60.28 L 9.00 59.76 L 9.00 59.25 L 9.00 58.73 L 9.00 58.22 L 9.00 57.70 L 9.00 57.19 L 9.00 56.67 L 9.00 56.15 L 9.00 55.64 L 9.00 55.12 L 9.00 54.61 L 9.00 54.09 L 9.00 53.57 L 9.00 53.06 L 9.00 52.54 L 9.00 52.03 L 9.00 51.51 L 9.00 50.99 L 9.00 50.48 L 9.00 49.96 L 9.00 49.45 L 9.00 48.93 L 9.00 48.41 L 9.00 47.90 L 9.00 47.38 L 9.00 46.87 L 9.00 46.35 L 9.00 45.83 L 9.00 45.32 L 9.00 44.80 L 9.00 44.29 L 9.00 43.77 L 9.00 43.25 L 9.00 42.74 L 9.00 42.22 L 9.00 41.71 L 9.00 41.19 L 9.00 40.68 L 9.00 40.16 L 9.00 39.64 L 9.00 39.13 L 9.00 38.61 L 9.00 38.10 L 9.00 37.58 L 9.00 37.06 L 9.00 36.55 L 9.00 36.03 L 9.02 35.53 Z M 196.14 12.06 L 196.40 11.64 L 196.78 11.31 L 197.22 11.10 L 197.71 11.02 L 198.23 11.00 L 198.76 11.00 L 199.29 11.00 L 199.82 11.00 L 200.35 11.00 L 200.88 11.00 L 201.41 11.00 L 201.94 11.00 L 202.47 11.00 L 203.00 11.00 L 203.53 11.00 L 204.06 11.00 L 204.59 11.00 L 205.12 11.00 L 205.65 11.00 L 206.18 11.00 L 206.71 11.00 L 207.23 11.01 L 207.73 11.09 L 208.18 11.28 L 208.56 11.60 L 208.83 12.01 L 208.94 12.48 L 208.86 12.94 L 208.60 13.36 L 208.22 13.69 L 207.78 13.90 L 207.29 13.98 L 206.77 14.00 L 206.24 14.00 L 205.71 14.00 L 205.18 14.00 L 204.65 14.00 L 204.12 14.00 L 203.59 14.00 L 203.06 14.00 L 202.53 14.00 L 202.00 14.00 L 201.47 14.00 L 200.94 14.00 L 200.41 14.00 L 199.88 14.00 L 199.35 14.00 L 198.82 14.00 L 198.29 14.00 L 197.77 13.99 L 197.27 13.91 L 196.82 13.72 L 196.44 13.40 L 196.17 12.99 L 196.06 12.52 Z M 178.14 12.05 L 178.40 11.65 L 178.76 11.32 L 179.20 11.10 L 179.68 11.02 L 180.20 11.00 L 180.72 11.00 L 181.25 11.00 L 181.77 11.00 L 182.29 11.00 L 182.82 11.00 L 183.34 11.00 L 183.86 11.00 L 184.38 11.00 L 184.91 11.00 L 185.43 11.00 L 185.95 11.00 L 186.48 11.00 L 187.00 11.00 L 187.52 11.00 L 188.05 11.00 L 188.57 11.00 L 189.09 11.00 L 189.62 11.00 L 190.14 11.00 L 190.66 11.00 L 191.18 11.00 L 191.71 11.00 L 192.23 11.00 L 192.75 11.00 L 193.27 11.02 L 193.76 11.09 L 194.20 11.29 L 194.57 11.62 L 194.84 12.02 L 194.94 12.48 L 194.86 12.95 L 194.60 13.35 L 194.24 13.68 L 193.80 13.90 L 193.32 13.98 L 192.80 14.00 L 192.28 14.00 L 191.75 14.00 L 191.23 14.00 L 190.71 14.00 L 190.18 14.00 L 189.66 14.00 L 189.14 14.00 L 188.62 14.00 L 188.09 14.00 L 187.57 14.00 L 187.05 14.00 L 186.52 14.00 L 186.00 14.00 L 185.48 14.00 L 184.95 14.00 L 184.43 14.00 L 183.91 14.00 L 183.38 14.00 L 182.86 14.00 L 182.34 14.00 L 181.82 14.00 L 181.29 14.00 L 180.77 14.00 L 180.25 14.00 L 179.73 13.98 L 179.24 13.91 L 178.80 13.71 L 178.43 13.38 L 178.16 12.98 L 178.06 12.52 Z M 32.28 12.10 L 32.75 11.50 L 33.49 11.15 L 34.36 11.02 L 35.28 11.00 L 36.20 11.00 L 37.12 11.00 L 38.05 11.00 L 38.97 11.00 L 39.89 11.00 L 40.81 11.00 L 41.74 11.00 L 42.66 11.00 L 43.58 11.00 L 44.51 11.00 L 45.43 11.00 L 46.35 11.00 L 47.27 11.00 L 48.20 11.00 L 49.12 11.00 L 50.04 11.00 L 50.97 11.00 L 51.89 11.00 L 52.81 11.00 L 53.73 11.00 L 54.66 11.00 L 55.58 11.00 L 56.50 11.00 L 57.43 11.00 L 58.35 11.00 L 59.27 11.00 L 60.19 11.00 L 61.12 11.00 L 62.04 11.00 L 62.96 11.00 L 63.89 11.00 L 64.81 11.00 L 65.73 11.00 L 66.65 11.00 L 67.58 11.00 L 68.50 11.00 L 69.42 11.00 L 70.35 11.00 L 71.27 11.00 L 72.19 11.00 L 73.11 11.00 L 74.04 11.00 L 74.96 11.00 L 75.88 11.00 L 76.81 11.00 L 77.73 11.00 L 78.65 11.00 L 79.57 11.00 L 80.50 11.00 L 81.42 11.00 L 82.34 11.00 L 83.27 11.00 L 84.19 11.00 L 85.11 11.00 L 86.03 11.00 L 86.96 11.00 L 87.88 11.00 L 88.80 11.00 L 89.73 11.00 L 90.65 11.00 L 91.57 11.00 L 92.49 11.00 L 93.42 11.00 L 94.34 11.00 L 95.26 11.00 L 96.19 11.00 L 97.11 11.00 L 98.03 11.00 L 98.95 11.00 L 99.88 11.00 L 100.80 11.00 L 101.72 11.00 L 102.65 11.00 L 103.57 11.00 L 104.49 11.00 L 105.41 11.00 L 106.34 11.00 L 107.26 11.00 L 108.18 11.00 L 109.11 11.00 L 110.03 11.00 L 110.95 11.00 L 111.87 11.00 L 112.80 11.00 L 113.72 11.00 L 114.64 11.00 L 115.57 11.00 L 116.49 11.00 L 117.41 11.00 L 118.33 11.00 L 119.26 11.00 L 120.18 11.00 L 121.10 11.00 L 122.03 11.00 L 122.95 11.00 L 123.87 11.00 L 124.79 11.00 L 125.72 11.00 L 126.64 11.00 L 127.56 11.00 L 128.49 11.00 L 129.41 11.00 L 130.33 11.00 L 131.25 11.00 L 132.18 11.00 L 133.10 11.00 L 134.02 11.00 L 134.95 11.00 L 135.87 11.00 L 136.79 11.00 L 137.71 11.00 L 138.64 11.00 L 139.56 11.00 L 140.48 11.00 L 141.41 11.00 L 142.33 11.00 L 143.25 11.00 L 144.17 11.00 L 145.10 11.00 L 146.02 11.00 L 146.94 11.00 L 147.87 11.00 L 148.79 11.00 L 149.71 11.00 L 150.63 11.00 L 151.56 11.00 L 152.48 11.00 L 153.40 11.00 L 154.33 11.00 L 155.25 11.00 L 156.17 11.00 L 157.09 11.00 L 158.02 11.00 L 158.94 11.00 L 159.86 11.00 L 160.79 11.00 L 161.71 11.00 L 162.63 11.00 L 163.55 11.00 L 164.48 11.00 L 165.40 11.00 L 166.32 11.00 L 167.25 11.00 L 168.17 11.00 L 169.09 11.00 L 170.01 11.00 L 170.94 11.00 L 171.86 11.00 L 172.78 11.00 L 173.70 11.00 L 174.62 11.02 L 175.49 11.14 L 176.24 11.49 L 176.71 12.09 L 176.73 12.82 L 176.30 13.45 L 175.59 13.83 L 174.73 13.97 L 173.82 14.00 L 172.89 14.00 L 171.97 14.00 L 171.05 14.00 L 170.13 14.00 L 169.20 14.00 L 168.28 14.00 L 167.36 14.00 L 166.43 14.00 L 165.51 14.00 L 164.59 14.00 L 163.67 14.00 L 162.74 14.00 L 161.82 14.00 L 160.90 14.00 L 159.97 14.00 L 159.05 14.00 L 158.13 14.00 L 157.21 14.00 L 156.28 14.00 L 155.36 14.00 L 154.44 14.00 L 153.51 14.00 L 152.59 14.00 L 151.67 14.00 L 150.75 14.00 L 149.82 14.00 L 148.90 14.00 L 147.98 14.00 L 147.05 14.00 L 146.13 14.00 L 145.21 14.00 L 144.29 14.00 L 143.36 14.00 L 142.44 14.00 L 141.52 14.00 L 140.59 14.00 L 139.67 14.00 L 138.75 14.00 L 137.83 14.00 L 136.90 14.00 L 135.98 14.00 L 135.06 14.00 L 134.13 14.00 L 133.21 14.00 L 132.29 14.00 L 131.37 14.00 L 130.44 14.00 L 129.52 14.00 L 128.60 14.00 L 127.67 14.00 L 126.75 14.00 L 125.83 14.00 L 124.91 14.00 L 123.98 14.00 L 123.06 14.00 L 122.14 14.00 L 121.21 14.00 L 120.29 14.00 L 119.37 14.00 L 118.45 14.00 L 117.52 14.00 L 116.60 14.00 L 115.68 14.00 L 114.75 14.00 L 113.83 14.00 L 112.91 14.00 L 111.99 14.00 L 111.06 14.00 L 110.14 14.00 L 109.22 14.00 L 108.29 14.00 L 107.37 14.00 L 106.45 14.00 L 105.53 14.00 L 104.60 14.00 L 103.68 14.00 L 102.76 14.00 L 101.83 14.00 L 100.91 14.00 L 99.99 14.00 L 99.07 14.00 L 98.14 14.00 L 97.22 14.00 L 96.30 14.00 L 95.37 14.00 L 94.45 14.00 L 93.53 14.00 L 92.61 14.00 L 91.68 14.00 L 90.76 14.00 L 89.84 14.00 L 88.91 14.00 L 87.99 14.00 L 87.07 14.00 L 86.15 14.00 L 85.22 14.00 L 84.30 14.00 L 83.38 14.00 L 82.45 14.00 L 81.53 14.00 L 80.61 14.00 L 79.69 14.00 L 78.76 14.00 L 77.84 14.00 L 76.92 14.00 L 75.99 14.00 L 75.07 14.00 L 74.15 14.00 L 73.23 14.00 L 72.30 14.00 L 71.38 14.00 L 70.46 14.00 L 69.53 14.00 L 68.61 14.00 L 67.69 14.00 L 66.77 14.00 L 65.84 14.00 L 64.92 14.00 L 64.00 14.00 L 63.07 14.00 L 62.15 14.00 L 61.23 14.00 L 60.31 14.00 L 59.38 14.00 L 58.46 14.00 L 57.54 14.00 L 56.61 14.00 L 55.69 14.00 L 54.77 14.00 L 53.85 14.00 L 52.92 14.00 L 52.02 14.04 L 51.16 14.20 L 50.38 14.54 L 49.58 14.84 L 48.72 14.97 L 47.83 14.93 L 46.99 14.73 L 46.21 14.38 L 45.40 14.12 L 44.52 14.02 L 43.61 14.01 L 42.72 14.09 L 41.89 14.33 L 41.11 14.67 L 40.29 14.91 L 39.39 14.99 L 38.48 15.00 L 37.55 15.00 L 36.64 14.99 L 35.74 14.92 L 34.92 14.68 L 34.15 14.32 L 33.39 13.93 L 32.70 13.47 L 32.27 12.83 Z M 277.19 5.19 L 277.03 5.55 L 277.00 6.04 L 276.96 6.54 L 276.83 7.00 L 276.56 7.40 L 276.19 7.71 L 275.76 7.91 L 275.27 7.99 L 274.76 8.00 L 274.24 8.00 L 273.72 8.00 L 273.21 8.00 L 272.71 8.02 L 272.31 8.13 L 272.11 8.40 L 272.16 8.73 L 272.45 8.93 L 272.91 8.99 L 273.41 9.00 L 273.93 9.00 L 274.45 9.00 L 274.97 9.00 L 275.48 9.00 L 276.00 9.00 L 276.52 9.00 L 277.03 8.99 L 277.50 8.95 L 277.83 8.76 L 277.97 8.39 L 278.01 7.90 L 278.05 7.40 L 278.20 6.95 L 278.49 6.56 L 278.86 6.25 L 279.31 6.07 L 279.80 6.01 L 280.29 5.98 L 280.69 5.87 L 280.89 5.60 L 280.84 5.27 L 280.55 5.07 L 280.09 5.01 L 279.59 5.00 L 279.07 5.00 L 278.55 5.00 L 278.04 5.00 L 277.55 5.03 Z M 215.18 0.18 L 215.03 0.53 L 215.00 1.00 L 215.00 1.50 L 215.00 2.00 L 215.00 2.50 L 215.00 3.00 L 215.03 3.47 L 215.18 3.82 L 215.53 3.97 L 216.00 4.00 L 216.50 4.00 L 217.00 4.00 L 217.47 3.97 L 217.82 3.82 L 217.97 3.47 L 218.00 3.00 L 218.00 2.50 L 218.00 2.00 L 218.00 1.50 L 218.00 1.00 L 217.97 0.53 L 217.82 0.18 L 217.47 0.03 L 217.00 0.00 L 216.50 0.00 L 216.00 0.00 L 215.53 0.03 Z" fill="rgb(252,252,252)" fill-rule="evenodd"/>
</svg>