<svg xmlns="http://www.w3.org/2000/svg" width="309" height="96" viewBox="0 0 309 96" role="img" aria-label="13_plates_13">
  <title>13_plates_13</title>
  <path d="M 34.19 69.21 L 33.99 69.57 L 33.81 70.03 L 33.53 70.47 L 33.24 70.90 L 33.07 71.39 L 33.01 71.92 L 32.97 72.46 L 32.85 72.96 L 32.56 73.39 L 32.16 73.72 L 31.69 73.92 L 31.17 73.98 L 30.63 73.98 L 30.12 73.87 L 29.67 73.61 L 29.26 73.26 L 28.87 72.87 L 28.47 72.50 L 28.04 72.20 L 27.55 72.07 L 27.06 72.15 L 26.62 72.40 L 26.19 72.70 L 25.73 72.89 L 25.24 72.89 L 24.78 72.68 L 24.40 72.34 L 24.12 71.91 L 23.94 71.47 L 23.71 71.17 L 23.38 71.14 L 23.14 71.36 L 23.17 71.69 L 23.46 71.93 L 23.89 72.11 L 24.32 72.39 L 24.67 72.77 L 24.90 73.22 L 24.98 73.74 L 25.02 74.26 L 25.15 74.69 L 25.48 74.92 L 25.96 74.99 L 26.51 75.00 L 27.06 75.00 L 27.62 75.00 L 28.17 75.00 L 28.73 75.00 L 29.27 75.02 L 29.79 75.11 L 30.25 75.34 L 30.62 75.69 L 30.88 76.14 L 30.98 76.65 L 30.98 77.19 L 30.91 77.71 L 30.71 78.18 L 30.37 78.58 L 29.94 78.86 L 29.44 78.98 L 28.91 79.01 L 28.44 79.10 L 28.14 79.35 L 28.02 79.79 L 28.03 80.30 L 28.17 80.72 L 28.51 80.93 L 29.00 81.00 L 29.53 81.05 L 30.02 81.19 L 30.44 81.49 L 30.76 81.90 L 30.95 82.37 L 31.11 82.86 L 31.36 83.31 L 31.67 83.74 L 31.89 84.20 L 31.98 84.72 L 32.02 85.26 L 32.10 85.78 L 32.32 86.24 L 32.63 86.67 L 32.86 87.12 L 32.92 87.61 L 32.77 88.08 L 32.46 88.49 L 32.04 88.79 L 31.55 88.95 L 31.01 88.99 L 30.46 89.00 L 29.91 89.00 L 29.35 89.00 L 28.80 89.00 L 28.24 89.00 L 27.69 89.00 L 27.13 89.00 L 26.59 88.98 L 26.08 88.86 L 25.65 88.59 L 25.31 88.20 L 25.09 87.73 L 25.01 87.21 L 24.97 86.69 L 24.83 86.28 L 24.49 86.07 L 23.99 86.01 L 23.45 86.00 L 22.91 86.02 L 22.44 86.10 L 22.14 86.35 L 22.02 86.79 L 22.03 87.30 L 22.17 87.72 L 22.51 87.93 L 23.00 88.00 L 23.53 88.05 L 24.02 88.19 L 24.44 88.49 L 24.76 88.90 L 24.93 89.38 L 24.99 89.91 L 25.04 90.42 L 25.21 90.80 L 25.60 90.97 L 26.13 91.00 L 26.68 91.00 L 27.23 91.02 L 27.75 91.10 L 28.22 91.31 L 28.64 91.61 L 29.08 91.86 L 29.52 91.90 L 29.86 91.70 L 30.05 91.30 L 30.27 90.85 L 30.60 90.45 L 31.02 90.17 L 31.51 90.07 L 31.99 90.18 L 32.41 90.47 L 32.74 90.87 L 32.94 91.34 L 33.10 91.82 L 33.35 92.27 L 33.72 92.64 L 34.17 92.88 L 34.68 92.98 L 35.23 93.00 L 35.78 93.00 L 36.31 92.97 L 36.72 92.83 L 36.96 92.50 L 37.13 92.05 L 37.42 91.62 L 37.79 91.22 L 38.18 90.82 L 38.58 90.45 L 39.01 90.16 L 39.46 89.99 L 39.81 89.77 L 39.91 89.38 L 39.78 88.93 L 39.49 88.49 L 39.21 88.06 L 39.02 87.60 L 38.82 87.22 L 38.43 87.04 L 37.92 86.99 L 37.39 86.94 L 36.91 86.76 L 36.50 86.45 L 36.20 86.03 L 36.05 85.54 L 36.01 85.01 L 36.00 84.45 L 36.00 83.90 L 36.00 83.34 L 36.02 82.80 L 36.09 82.27 L 36.30 81.80 L 36.63 81.39 L 37.01 80.99 L 37.41 80.61 L 37.83 80.28 L 38.28 80.06 L 38.68 79.87 L 38.91 79.54 L 38.99 79.06 L 39.00 78.51 L 38.99 77.96 L 38.94 77.43 L 38.79 76.94 L 38.50 76.50 L 38.22 76.07 L 38.03 75.61 L 37.82 75.23 L 37.46 75.01 L 37.01 74.83 L 36.59 74.54 L 36.26 74.13 L 36.08 73.66 L 36.01 73.13 L 36.00 72.58 L 35.99 72.03 L 35.96 71.49 L 35.82 70.99 L 35.54 70.55 L 35.25 70.12 L 35.04 69.66 L 34.84 69.28 L 34.52 69.10 Z M 3.20 52.20 L 3.03 52.58 L 3.00 53.10 L 3.00 53.64 L 3.00 54.19 L 3.00 54.74 L 3.00 55.29 L 3.00 55.84 L 3.00 56.39 L 3.00 56.93 L 3.00 57.48 L 3.00 58.03 L 3.00 58.58 L 3.00 59.13 L 3.00 59.67 L 3.00 60.22 L 3.00 60.77 L 3.00 61.32 L 3.00 61.87 L 3.00 62.42 L 3.00 62.96 L 3.00 63.51 L 3.00 64.06 L 3.00 64.61 L 3.00 65.16 L 3.00 65.70 L 3.00 66.25 L 3.00 66.80 L 3.00 67.35 L 3.00 67.90 L 3.00 68.44 L 3.00 68.99 L 3.00 69.54 L 3.00 70.09 L 3.00 70.64 L 3.00 71.19 L 3.00 71.73 L 3.00 72.28 L 3.00 72.83 L 3.00 73.38 L 3.00 73.93 L 3.00 74.47 L 3.00 75.02 L 3.00 75.57 L 3.00 76.12 L 3.00 76.67 L 3.00 77.22 L 3.00 77.76 L 3.00 78.31 L 3.00 78.86 L 3.00 79.41 L 3.00 79.96 L 3.00 80.50 L 3.00 81.05 L 3.00 81.60 L 3.01 82.14 L 3.08 82.67 L 3.26 83.14 L 3.58 83.53 L 4.00 83.83 L 4.48 83.99 L 4.96 84.15 L 5.39 84.43 L 5.79 84.79 L 6.18 85.18 L 6.57 85.57 L 6.95 85.95 L 7.34 86.34 L 7.73 86.73 L 8.12 87.12 L 8.51 87.49 L 8.94 87.78 L 9.39 87.91 L 9.77 87.81 L 9.98 87.47 L 10.16 87.02 L 10.44 86.59 L 10.81 86.20 L 11.19 85.81 L 11.59 85.44 L 12.02 85.16 L 12.50 85.00 L 12.98 84.84 L 13.41 84.55 L 13.81 84.19 L 14.20 83.80 L 14.60 83.44 L 15.03 83.16 L 15.52 83.03 L 16.06 83.00 L 16.61 83.00 L 17.15 83.00 L 17.70 83.00 L 18.23 82.98 L 18.66 82.86 L 18.88 82.59 L 18.82 82.26 L 18.50 82.04 L 18.06 81.87 L 17.64 81.59 L 17.30 81.20 L 17.09 80.74 L 17.02 80.22 L 17.00 79.68 L 17.00 79.14 L 16.97 78.62 L 16.81 78.22 L 16.46 78.01 L 16.01 77.84 L 15.57 77.56 L 15.15 77.27 L 14.68 77.06 L 14.20 76.91 L 13.76 76.67 L 13.38 76.31 L 13.12 75.88 L 12.96 75.40 L 12.78 74.93 L 12.50 74.50 L 12.22 74.06 L 12.06 73.58 L 12.00 73.06 L 11.95 72.55 L 11.78 72.18 L 11.40 71.98 L 10.95 71.79 L 10.52 71.50 L 10.13 71.13 L 9.74 70.74 L 9.39 70.34 L 9.13 69.90 L 9.02 69.39 L 9.00 68.85 L 9.00 68.31 L 8.98 67.77 L 8.90 67.25 L 8.69 66.79 L 8.39 66.37 L 8.14 65.92 L 8.02 65.42 L 7.99 64.90 L 7.90 64.43 L 7.66 64.12 L 7.25 63.93 L 6.81 63.71 L 6.40 63.38 L 6.01 63.01 L 5.63 62.61 L 5.30 62.20 L 5.09 61.74 L 5.02 61.22 L 5.00 60.68 L 5.00 60.13 L 5.00 59.59 L 5.00 59.04 L 4.96 58.51 L 4.83 58.01 L 4.56 57.57 L 4.27 57.15 L 4.08 56.68 L 4.01 56.16 L 4.00 55.62 L 4.00 55.07 L 4.03 54.53 L 4.15 54.04 L 4.42 53.60 L 4.72 53.17 L 4.89 52.73 L 4.84 52.33 L 4.55 52.09 L 4.09 52.02 L 3.58 52.04 Z M 5.15 74.06 L 5.43 73.62 L 5.84 73.28 L 6.33 73.08 L 6.87 73.02 L 7.42 73.03 L 7.94 73.15 L 8.38 73.43 L 8.72 73.84 L 8.92 74.33 L 8.98 74.87 L 8.97 75.42 L 8.85 75.94 L 8.57 76.38 L 8.16 76.72 L 7.67 76.92 L 7.13 76.98 L 6.58 76.97 L 6.06 76.85 L 5.62 76.57 L 5.28 76.16 L 5.08 75.67 L 5.02 75.13 L 5.03 74.58 Z" fill="rgb(42,40,38)" fill-rule="evenodd"/>
  <path d="M 15.06 84.14 L 14.62 84.42 L 14.22 84.79 L 13.82 85.17 L 13.42 85.55 L 12.99 85.84 L 12.54 86.01 L 12.18 86.23 L 12.03 86.64 L 12.02 87.15 L 12.12 87.60 L 12.39 87.88 L 12.84 87.98 L 13.38 88.00 L 13.93 88.00 L 14.47 88.03 L 14.98 88.16 L 15.42 88.43 L 15.85 88.73 L 16.30 88.89 L 16.69 88.83 L 16.89 88.55 L 16.80 88.22 L 16.46 88.01 L 16.00 87.83 L 15.59 87.53 L 15.26 87.13 L 15.10 86.66 L 15.13 86.17 L 15.36 85.73 L 15.72 85.36 L 16.15 85.10 L 16.58 84.92 L 16.84 84.66 L 16.84 84.33 L 16.56 84.10 L 16.09 84.02 L 15.56 84.03 Z M 11.06 52.15 L 10.60 52.41 L 10.16 52.72 L 9.67 52.92 L 9.13 52.99 L 8.56 53.00 L 8.01 53.01 L 7.50 53.08 L 7.15 53.30 L 6.94 53.71 L 6.72 54.17 L 6.41 54.61 L 6.14 55.07 L 6.03 55.59 L 6.02 56.15 L 6.09 56.68 L 6.29 57.17 L 6.59 57.61 L 6.85 58.07 L 6.92 58.57 L 6.78 59.06 L 6.49 59.51 L 6.20 59.97 L 6.05 60.47 L 6.02 61.01 L 6.08 61.51 L 6.31 61.86 L 6.72 62.06 L 7.18 62.29 L 7.61 62.63 L 8.02 63.02 L 8.42 63.42 L 8.82 63.83 L 9.22 64.23 L 9.60 64.65 L 9.86 65.10 L 9.98 65.63 L 10.01 66.18 L 10.10 66.72 L 10.31 67.20 L 10.65 67.63 L 11.04 68.04 L 11.42 68.45 L 11.75 68.88 L 11.95 69.37 L 12.12 69.87 L 12.38 70.33 L 12.68 70.78 L 12.90 71.26 L 12.98 71.79 L 13.00 72.35 L 13.00 72.92 L 13.04 73.48 L 13.18 73.99 L 13.47 74.44 L 13.85 74.85 L 14.26 75.25 L 14.67 75.61 L 15.12 75.86 L 15.56 75.87 L 15.86 75.63 L 15.98 75.18 L 16.00 74.63 L 16.00 74.07 L 16.04 73.51 L 16.18 73.00 L 16.49 72.57 L 16.90 72.25 L 17.39 72.09 L 17.89 72.14 L 18.33 72.40 L 18.69 72.80 L 18.90 73.28 L 18.98 73.81 L 19.00 74.38 L 19.00 74.95 L 19.00 75.52 L 19.00 76.09 L 19.00 76.66 L 19.00 77.23 L 19.00 77.79 L 18.98 78.36 L 18.87 78.88 L 18.61 79.35 L 18.31 79.79 L 18.12 80.25 L 18.16 80.66 L 18.46 80.93 L 18.90 81.12 L 19.35 81.39 L 19.79 81.69 L 20.27 81.92 L 20.77 82.09 L 21.23 82.33 L 21.62 82.70 L 21.86 83.15 L 21.90 83.65 L 21.73 84.13 L 21.40 84.54 L 20.97 84.85 L 20.52 85.03 L 20.19 85.26 L 20.14 85.59 L 20.36 85.84 L 20.69 85.83 L 20.93 85.53 L 21.12 85.09 L 21.41 84.65 L 21.81 84.31 L 22.29 84.09 L 22.83 84.01 L 23.36 83.97 L 23.77 83.81 L 24.00 83.44 L 24.19 82.98 L 24.50 82.55 L 24.92 82.23 L 25.39 82.03 L 25.77 81.81 L 25.96 81.42 L 26.01 80.89 L 26.08 80.35 L 26.27 79.86 L 26.59 79.43 L 26.98 79.02 L 27.39 78.63 L 27.82 78.30 L 28.31 78.09 L 28.84 78.01 L 29.37 77.97 L 29.77 77.81 L 29.89 77.48 L 29.71 77.17 L 29.28 77.03 L 28.75 76.98 L 28.22 76.89 L 27.74 76.66 L 27.30 76.36 L 26.83 76.12 L 26.30 76.02 L 25.74 75.98 L 25.21 75.89 L 24.74 75.65 L 24.32 75.30 L 23.91 74.91 L 23.51 74.51 L 23.10 74.10 L 22.71 73.70 L 22.35 73.27 L 22.11 72.80 L 22.02 72.27 L 22.00 71.71 L 22.00 71.14 L 22.03 70.58 L 22.15 70.06 L 22.43 69.62 L 22.84 69.28 L 23.32 69.10 L 23.82 69.13 L 24.28 69.37 L 24.65 69.74 L 24.89 70.21 L 24.98 70.74 L 25.03 71.27 L 25.17 71.70 L 25.50 71.90 L 25.96 71.84 L 26.41 71.58 L 26.85 71.28 L 27.33 71.10 L 27.83 71.13 L 28.29 71.37 L 28.72 71.73 L 29.12 72.12 L 29.53 72.50 L 29.97 72.80 L 30.44 72.91 L 30.81 72.76 L 30.97 72.36 L 31.00 71.82 L 31.00 71.25 L 31.00 70.68 L 31.00 70.11 L 31.03 69.56 L 31.16 69.04 L 31.45 68.60 L 31.86 68.27 L 32.33 68.05 L 32.72 67.84 L 32.93 67.47 L 32.99 66.96 L 33.00 66.40 L 32.98 65.85 L 32.87 65.39 L 32.57 65.11 L 32.10 65.01 L 31.56 64.97 L 31.04 64.84 L 30.61 64.55 L 30.27 64.14 L 30.08 63.65 L 30.02 63.11 L 30.03 62.56 L 30.16 62.04 L 30.43 61.58 L 30.73 61.14 L 30.89 60.67 L 30.81 60.27 L 30.48 60.04 L 30.03 59.85 L 29.58 59.55 L 29.17 59.17 L 28.77 58.77 L 28.40 58.35 L 28.12 57.90 L 27.93 57.46 L 27.68 57.17 L 27.35 57.16 L 27.11 57.44 L 27.02 57.92 L 27.00 58.47 L 26.99 59.04 L 26.94 59.59 L 26.76 60.08 L 26.44 60.50 L 26.01 60.81 L 25.50 60.96 L 24.95 60.99 L 24.38 61.00 L 23.82 61.02 L 23.28 61.10 L 22.80 61.30 L 22.35 61.61 L 21.89 61.87 L 21.37 61.98 L 20.81 62.00 L 20.24 62.00 L 19.68 61.98 L 19.15 61.87 L 18.68 61.63 L 18.24 61.32 L 17.76 61.10 L 17.22 61.02 L 16.66 61.00 L 16.09 61.00 L 15.54 61.04 L 15.02 61.17 L 14.59 61.47 L 14.26 61.88 L 14.05 62.37 L 13.88 62.87 L 13.61 63.31 L 13.22 63.67 L 12.75 63.88 L 12.25 63.88 L 11.78 63.68 L 11.35 63.34 L 10.95 62.95 L 10.54 62.54 L 10.14 62.14 L 9.74 61.74 L 9.38 61.32 L 9.14 60.86 L 9.10 60.36 L 9.27 59.87 L 9.59 59.44 L 9.97 59.03 L 10.36 58.62 L 10.70 58.19 L 10.89 57.71 L 10.88 57.21 L 10.66 56.74 L 10.36 56.30 L 10.12 55.83 L 10.02 55.30 L 10.02 54.74 L 10.11 54.21 L 10.35 53.75 L 10.72 53.37 L 11.18 53.12 L 11.71 53.02 L 12.27 53.00 L 12.84 53.00 L 13.40 53.02 L 13.92 53.14 L 14.38 53.42 L 14.79 53.79 L 15.19 54.19 L 15.61 54.57 L 16.06 54.85 L 16.58 54.97 L 17.12 54.98 L 17.59 54.88 L 17.86 54.61 L 17.87 54.18 L 17.64 53.73 L 17.27 53.36 L 16.81 53.12 L 16.28 53.02 L 15.71 53.00 L 15.15 53.00 L 14.59 52.97 L 14.07 52.86 L 13.61 52.59 L 13.16 52.28 L 12.67 52.08 L 12.14 52.02 L 11.58 52.03 Z M 20.00 78.00 L 20.37 77.64 L 20.76 77.32 L 21.19 77.11 L 21.65 77.08 L 22.09 77.23 L 22.48 77.52 L 22.77 77.91 L 22.92 78.35 L 22.89 78.81 L 22.68 79.24 L 22.36 79.63 L 22.00 80.00 L 21.63 80.36 L 21.24 80.68 L 20.81 80.89 L 20.35 80.92 L 19.91 80.77 L 19.52 80.48 L 19.23 80.09 L 19.08 79.65 L 19.11 79.19 L 19.32 78.76 L 19.64 78.37 Z M 0.18 51.18 L 0.03 51.53 L 0.00 52.00 L 0.00 52.50 L 0.00 53.00 L 0.00 53.50 L 0.00 54.00 L 0.00 54.50 L 0.00 55.00 L 0.00 55.50 L 0.00 56.00 L 0.00 56.50 L 0.00 57.00 L 0.03 57.47 L 0.18 57.82 L 0.53 57.97 L 1.00 58.00 L 1.47 57.97 L 1.82 57.82 L 1.97 57.47 L 2.00 57.00 L 2.00 56.50 L 2.00 56.00 L 2.00 55.50 L 2.00 55.00 L 2.00 54.50 L 2.00 54.00 L 2.00 53.50 L 2.00 53.00 L 2.00 52.50 L 2.00 52.00 L 1.97 51.53 L 1.82 51.18 L 1.47 51.03 L 1.00 51.00 L 0.53 51.03 Z" fill="rgb(99,96,93)" fill-rule="evenodd"/>
  <path d="M 70.06 83.15 L 69.62 83.43 L 69.28 83.84 L 69.06 84.32 L 68.90 84.82 L 68.64 85.27 L 68.26 85.65 L 67.80 85.89 L 67.27 85.98 L 66.73 86.03 L 66.31 86.16 L 66.10 86.50 L 66.16 86.95 L 66.43 87.38 L 66.84 87.72 L 67.33 87.92 L 67.87 87.99 L 68.43 88.00 L 69.00 87.99 L 69.55 87.95 L 70.05 87.79 L 70.50 87.50 L 70.95 87.21 L 71.42 87.02 L 71.80 86.80 L 72.02 86.42 L 72.21 85.95 L 72.50 85.50 L 72.78 85.05 L 72.91 84.58 L 72.79 84.20 L 72.42 83.98 L 71.95 83.79 L 71.50 83.50 L 71.05 83.22 L 70.56 83.08 Z M 0.18 74.18 L 0.03 74.53 L 0.00 75.00 L 0.00 75.50 L 0.00 76.00 L 0.00 76.50 L 0.00 77.00 L 0.03 77.47 L 0.18 77.82 L 0.53 77.97 L 1.00 78.00 L 1.47 77.97 L 1.82 77.82 L 1.97 77.47 L 2.00 77.00 L 2.00 76.50 L 2.00 76.00 L 2.00 75.50 L 2.00 75.00 L 1.97 74.53 L 1.82 74.18 L 1.47 74.03 L 1.00 74.00 L 0.53 74.03 Z M 38.20 68.21 L 38.09 68.58 L 38.21 69.04 L 38.49 69.49 L 38.78 69.93 L 38.92 70.42 L 38.85 70.91 L 38.61 71.37 L 38.30 71.80 L 38.11 72.27 L 38.12 72.77 L 38.33 73.23 L 38.67 73.65 L 39.06 74.06 L 39.44 74.46 L 39.75 74.89 L 39.95 75.37 L 40.12 75.87 L 40.37 76.33 L 40.68 76.76 L 40.90 77.24 L 40.98 77.76 L 41.02 78.31 L 41.12 78.83 L 41.36 79.30 L 41.66 79.74 L 41.89 80.20 L 41.98 80.73 L 42.00 81.29 L 42.00 81.85 L 42.00 82.41 L 42.01 82.97 L 42.07 83.47 L 42.27 83.84 L 42.66 84.04 L 43.12 84.26 L 43.53 84.58 L 43.82 85.01 L 43.96 85.52 L 43.99 86.06 L 43.93 86.60 L 43.76 87.09 L 43.47 87.54 L 43.19 87.98 L 43.04 88.49 L 43.00 89.03 L 42.94 89.57 L 42.78 90.06 L 42.46 90.48 L 42.04 90.79 L 41.58 90.98 L 41.21 91.19 L 41.09 91.57 L 41.21 92.04 L 41.51 92.46 L 41.93 92.77 L 42.42 92.94 L 42.97 92.99 L 43.52 93.00 L 44.09 93.00 L 44.65 93.00 L 45.21 93.00 L 45.78 93.00 L 46.34 93.00 L 46.90 93.00 L 47.47 93.00 L 48.03 93.00 L 48.59 93.00 L 49.16 93.00 L 49.72 93.00 L 50.28 93.00 L 50.85 93.00 L 51.40 93.02 L 51.92 93.14 L 52.37 93.40 L 52.81 93.70 L 53.29 93.91 L 53.82 93.99 L 54.37 94.02 L 54.88 94.13 L 55.34 94.38 L 55.78 94.69 L 56.25 94.90 L 56.78 94.98 L 57.33 94.98 L 57.85 94.88 L 58.31 94.62 L 58.73 94.27 L 59.12 93.87 L 59.50 93.47 L 59.80 93.03 L 59.92 92.54 L 59.84 92.04 L 59.58 91.59 L 59.28 91.16 L 59.10 90.68 L 59.13 90.19 L 59.36 89.73 L 59.72 89.36 L 60.18 89.13 L 60.67 89.10 L 61.15 89.27 L 61.57 89.60 L 61.98 89.98 L 62.38 90.37 L 62.81 90.70 L 63.26 90.88 L 63.67 90.84 L 63.91 90.53 L 63.99 90.05 L 64.00 89.50 L 63.99 88.94 L 63.93 88.40 L 63.76 87.91 L 63.47 87.47 L 63.19 87.02 L 63.05 86.52 L 63.00 85.97 L 62.94 85.43 L 62.78 84.94 L 62.47 84.52 L 62.05 84.21 L 61.55 84.05 L 61.01 84.00 L 60.47 83.95 L 59.97 83.80 L 59.54 83.49 L 59.23 83.07 L 59.08 82.59 L 59.14 82.10 L 59.39 81.64 L 59.70 81.20 L 59.90 80.73 L 59.98 80.20 L 59.98 79.65 L 59.87 79.13 L 59.61 78.68 L 59.23 78.33 L 58.77 78.09 L 58.27 77.92 L 57.81 77.69 L 57.41 77.35 L 57.13 76.91 L 56.96 76.42 L 56.78 75.93 L 56.46 75.51 L 56.04 75.21 L 55.54 75.05 L 55.00 75.01 L 54.44 75.00 L 53.88 75.01 L 53.34 75.08 L 52.86 75.27 L 52.42 75.57 L 51.97 75.84 L 51.46 75.97 L 50.91 75.99 L 50.37 75.93 L 49.89 75.75 L 49.48 75.42 L 49.18 74.99 L 49.04 74.49 L 48.99 73.95 L 48.91 73.47 L 48.67 73.15 L 48.23 73.02 L 47.69 73.00 L 47.13 73.00 L 46.56 73.00 L 46.00 73.00 L 45.44 73.00 L 44.87 73.00 L 44.31 73.00 L 43.75 73.00 L 43.18 73.00 L 42.62 73.00 L 42.06 73.00 L 41.51 72.96 L 41.01 72.82 L 40.58 72.52 L 40.25 72.11 L 40.05 71.63 L 39.89 71.14 L 39.63 70.68 L 39.33 70.24 L 39.11 69.77 L 39.02 69.25 L 38.97 68.72 L 38.84 68.30 L 38.53 68.11 Z M 86.18 63.18 L 86.06 63.50 L 86.18 63.82 L 86.53 63.97 L 87.00 64.00 L 87.50 64.00 L 88.00 64.00 L 88.50 64.00 L 89.00 64.00 L 89.50 64.00 L 90.00 64.00 L 90.50 64.00 L 91.00 64.00 L 91.50 64.00 L 92.00 64.00 L 92.50 64.00 L 93.00 64.00 L 93.50 64.00 L 94.00 64.00 L 94.50 64.00 L 95.00 64.00 L 95.50 64.00 L 96.00 64.00 L 96.50 64.00 L 97.00 64.00 L 97.50 64.00 L 98.00 64.00 L 98.50 64.00 L 99.00 64.00 L 99.50 64.00 L 100.00 64.00 L 100.47 63.97 L 100.82 63.82 L 100.94 63.50 L 100.82 63.18 L 100.47 63.03 L 100.00 63.00 L 99.50 63.00 L 99.00 63.00 L 98.50 63.00 L 98.00 63.00 L 97.50 63.00 L 97.00 63.00 L 96.50 63.00 L 96.00 63.00 L 95.50 63.00 L 95.00 63.00 L 94.50 63.00 L 94.00 63.00 L 93.50 63.00 L 93.00 63.00 L 92.50 63.00 L 92.00 63.00 L 91.50 63.00 L 91.00 63.00 L 90.50 63.00 L 90.00 63.00 L 89.50 63.00 L 89.00 63.00 L 88.50 63.00 L 88.00 63.00 L 87.50 63.00 L 87.00 63.00 L 86.53 63.03 Z M 0.18 59.18 L 0.03 59.53 L 0.00 60.00 L 0.00 60.50 L 0.00 61.00 L 0.00 61.50 L 0.00 62.00 L 0.00 62.50 L 0.00 63.00 L 0.03 63.47 L 0.18 63.82 L 0.53 63.97 L 1.00 64.00 L 1.47 63.97 L 1.82 63.82 L 1.97 63.47 L 2.00 63.00 L 2.00 62.50 L 2.00 62.00 L 2.00 61.50 L 2.00 61.00 L 2.00 60.50 L 2.00 60.00 L 1.97 59.53 L 1.82 59.18 L 1.47 59.03 L 1.00 59.00 L 0.53 59.03 Z M 31.20 53.22 L 30.98 53.59 L 30.77 54.07 L 30.44 54.50 L 30.00 54.81 L 29.48 54.96 L 28.93 55.01 L 28.45 55.11 L 28.16 55.38 L 28.14 55.81 L 28.36 56.27 L 28.71 56.70 L 29.12 57.12 L 29.53 57.53 L 29.94 57.94 L 30.36 58.34 L 30.80 58.69 L 31.28 58.92 L 31.79 59.10 L 32.27 59.36 L 32.70 59.72 L 33.12 60.12 L 33.51 60.54 L 33.82 61.00 L 34.00 61.50 L 34.19 62.01 L 34.50 62.44 L 34.93 62.77 L 35.41 62.90 L 35.80 62.78 L 36.03 62.40 L 36.23 61.92 L 36.53 61.47 L 36.82 61.00 L 37.00 60.50 L 37.19 59.99 L 37.48 59.53 L 37.77 59.07 L 37.94 58.56 L 37.98 58.00 L 37.94 57.44 L 37.77 56.93 L 37.47 56.47 L 37.19 56.00 L 37.04 55.48 L 37.01 54.91 L 37.00 54.33 L 36.97 53.78 L 36.84 53.33 L 36.51 53.11 L 36.05 53.16 L 35.59 53.42 L 35.14 53.73 L 34.63 53.92 L 34.08 53.98 L 33.52 53.96 L 33.00 53.81 L 32.53 53.53 L 32.07 53.23 L 31.59 53.10 Z M 18.21 52.20 L 18.08 52.56 L 18.19 53.02 L 18.48 53.45 L 18.84 53.84 L 19.23 54.23 L 19.59 54.63 L 19.86 55.06 L 19.98 55.56 L 19.99 56.10 L 19.93 56.62 L 19.76 57.10 L 19.46 57.52 L 19.08 57.91 L 18.70 58.30 L 18.29 58.64 L 17.84 58.88 L 17.34 58.98 L 16.80 59.00 L 16.25 59.00 L 15.71 58.98 L 15.20 58.89 L 14.75 58.66 L 14.38 58.31 L 14.12 57.87 L 14.02 57.37 L 13.98 56.85 L 13.89 56.40 L 13.61 56.12 L 13.17 56.02 L 12.67 56.03 L 12.26 56.17 L 12.06 56.52 L 12.01 57.01 L 12.00 57.55 L 12.00 58.10 L 12.00 58.65 L 12.00 59.20 L 12.00 59.75 L 12.00 60.29 L 12.00 60.84 L 12.03 61.36 L 12.18 61.75 L 12.52 61.91 L 12.97 61.84 L 13.40 61.57 L 13.80 61.20 L 14.19 60.82 L 14.58 60.45 L 15.01 60.17 L 15.51 60.04 L 16.04 60.00 L 16.59 60.00 L 17.13 60.00 L 17.68 60.00 L 18.23 60.00 L 18.78 60.00 L 19.32 59.98 L 19.83 59.89 L 20.27 59.65 L 20.64 59.29 L 20.88 58.85 L 20.98 58.34 L 21.00 57.80 L 21.00 57.25 L 21.00 56.71 L 21.00 56.16 L 21.00 55.61 L 21.00 55.07 L 20.97 54.53 L 20.84 54.03 L 20.58 53.59 L 20.28 53.17 L 20.06 52.73 L 19.87 52.33 L 19.55 52.09 L 19.08 52.02 L 18.58 52.04 Z M 128.18 38.18 L 128.06 38.50 L 128.18 38.82 L 128.53 38.97 L 129.00 39.00 L 129.50 39.00 L 130.00 39.00 L 130.50 39.00 L 131.00 39.00 L 131.50 39.00 L 132.00 39.00 L 132.50 39.00 L 133.00 39.00 L 133.50 39.00 L 134.00 39.00 L 134.50 39.00 L 135.00 39.00 L 135.50 39.00 L 136.00 39.00 L 136.50 39.00 L 137.00 39.00 L 137.50 39.00 L 138.00 39.00 L 138.50 39.00 L 139.00 39.00 L 139.50 39.00 L 140.00 39.00 L 140.50 39.00 L 141.00 39.00 L 141.47 38.97 L 141.82 38.82 L 141.94 38.50 L 141.82 38.18 L 141.47 38.03 L 141.00 38.00 L 140.50 38.00 L 140.00 38.00 L 139.50 38.00 L 139.00 38.00 L 138.50 38.00 L 138.00 38.00 L 137.50 38.00 L 137.00 38.00 L 136.50 38.00 L 136.00 38.00 L 135.50 38.00 L 135.00 38.00 L 134.50 38.00 L 134.00 38.00 L 133.50 38.00 L 133.00 38.00 L 132.50 38.00 L 132.00 38.00 L 131.50 38.00 L 131.00 38.00 L 130.50 38.00 L 130.00 38.00 L 129.50 38.00 L 129.00 38.00 L 128.53 38.03 Z M 111.18 38.18 L 111.06 38.50 L 111.18 38.82 L 111.53 38.97 L 112.00 39.00 L 112.50 39.00 L 113.00 39.00 L 113.50 39.00 L 114.00 39.00 L 114.50 39.00 L 115.00 39.00 L 115.50 39.00 L 116.00 39.00 L 116.50 39.00 L 117.00 39.00 L 117.50 39.00 L 118.00 39.00 L 118.50 39.00 L 119.00 39.00 L 119.50 39.00 L 120.00 39.00 L 120.50 39.00 L 121.00 39.00 L 121.50 39.00 L 122.00 39.00 L 122.47 38.97 L 122.82 38.82 L 122.94 38.50 L 122.82 38.18 L 122.47 38.03 L 122.00 38.00 L 121.50 38.00 L 121.00 38.00 L 120.50 38.00 L 120.00 38.00 L 119.50 38.00 L 119.00 38.00 L 118.50 38.00 L 118.00 38.00 L 117.50 38.00 L 117.00 38.00 L 116.50 38.00 L 116.00 38.00 L 115.50 38.00 L 115.00 38.00 L 114.50 38.00 L 114.00 38.00 L 113.50 38.00 L 113.00 38.00 L 112.50 38.00 L 112.00 38.00 L 111.53 38.03 Z M 18.06 25.14 L 17.61 25.40 L 17.18 25.71 L 16.71 25.91 L 16.19 25.99 L 15.65 26.02 L 15.14 26.12 L 14.68 26.37 L 14.25 26.67 L 13.79 26.89 L 13.27 26.98 L 12.72 27.00 L 12.17 27.00 L 11.62 27.02 L 11.11 27.13 L 10.66 27.38 L 10.23 27.68 L 9.79 27.92 L 9.37 28.11 L 9.09 28.40 L 8.91 28.83 L 8.66 29.27 L 8.36 29.70 L 8.12 30.15 L 8.02 30.67 L 7.99 31.21 L 7.91 31.73 L 7.70 32.20 L 7.40 32.63 L 7.15 33.07 L 7.10 33.51 L 7.29 33.84 L 7.71 33.97 L 8.24 34.00 L 8.79 34.00 L 9.34 34.02 L 9.85 34.12 L 10.30 34.37 L 10.66 34.74 L 10.91 35.18 L 11.10 35.60 L 11.38 35.88 L 11.84 35.98 L 12.36 36.02 L 12.87 36.13 L 13.32 36.38 L 13.73 36.74 L 14.12 37.13 L 14.50 37.53 L 14.79 37.96 L 14.92 38.44 L 14.85 38.93 L 14.59 39.36 L 14.20 39.70 L 13.74 39.89 L 13.25 39.89 L 12.79 39.69 L 12.36 39.39 L 11.91 39.14 L 11.42 39.08 L 10.94 39.22 L 10.50 39.50 L 10.07 39.78 L 9.58 39.94 L 9.05 40.00 L 8.51 40.04 L 8.01 40.17 L 7.57 40.44 L 7.13 40.74 L 6.66 40.92 L 6.13 40.99 L 5.58 41.00 L 5.02 41.00 L 4.47 41.00 L 3.92 40.99 L 3.39 40.93 L 2.90 40.76 L 2.50 40.44 L 2.20 40.03 L 2.05 39.53 L 2.01 39.00 L 2.00 38.44 L 2.00 37.89 L 2.00 37.34 L 1.98 36.80 L 1.87 36.36 L 1.57 36.10 L 1.10 36.02 L 0.59 36.04 L 0.21 36.20 L 0.04 36.59 L 0.00 37.11 L 0.00 37.66 L 0.00 38.21 L 0.00 38.77 L 0.00 39.32 L 0.00 39.88 L 0.00 40.43 L 0.01 40.98 L 0.06 41.48 L 0.27 41.83 L 0.68 41.97 L 1.20 42.01 L 1.72 42.09 L 2.19 42.30 L 2.58 42.64 L 2.85 43.07 L 2.92 43.56 L 2.79 44.04 L 2.49 44.45 L 2.08 44.77 L 1.60 44.94 L 1.07 45.00 L 0.56 45.05 L 0.19 45.23 L 0.03 45.62 L 0.00 46.15 L 0.00 46.70 L 0.00 47.26 L 0.00 47.81 L 0.00 48.37 L 0.00 48.92 L 0.04 49.43 L 0.22 49.81 L 0.62 49.97 L 1.14 50.00 L 1.69 50.00 L 2.25 50.00 L 2.80 50.00 L 3.36 50.00 L 3.91 50.00 L 4.47 50.00 L 5.01 49.99 L 5.50 49.93 L 5.82 49.72 L 5.86 49.39 L 5.63 49.13 L 5.18 49.02 L 4.65 49.00 L 4.09 49.00 L 3.55 48.97 L 3.05 48.85 L 2.62 48.57 L 2.29 48.17 L 2.09 47.70 L 2.01 47.17 L 2.00 46.62 L 2.00 46.07 L 2.03 45.53 L 2.16 45.03 L 2.45 44.60 L 2.85 44.27 L 3.32 44.06 L 3.81 43.90 L 4.26 43.67 L 4.69 43.36 L 5.15 43.12 L 5.66 43.02 L 6.21 43.00 L 6.76 43.00 L 7.31 43.02 L 7.82 43.12 L 8.27 43.36 L 8.64 43.72 L 8.90 44.15 L 9.08 44.58 L 9.35 44.88 L 9.77 45.08 L 10.21 45.31 L 10.64 45.61 L 11.09 45.87 L 11.58 46.03 L 12.06 46.21 L 12.49 46.51 L 12.89 46.89 L 13.27 47.28 L 13.63 47.69 L 13.87 48.14 L 13.91 48.63 L 13.76 49.10 L 13.47 49.54 L 13.20 49.97 L 13.08 50.43 L 13.21 50.80 L 13.60 50.96 L 14.11 50.99 L 14.64 50.93 L 15.12 50.75 L 15.54 50.43 L 15.94 50.06 L 16.34 49.67 L 16.75 49.33 L 17.21 49.11 L 17.73 49.02 L 18.27 48.98 L 18.79 48.89 L 19.25 48.66 L 19.66 48.32 L 20.06 47.94 L 20.44 47.54 L 20.75 47.12 L 20.93 46.63 L 20.99 46.11 L 21.00 45.55 L 21.00 45.00 L 21.00 44.45 L 21.01 43.89 L 21.07 43.37 L 21.25 42.89 L 21.57 42.48 L 21.99 42.19 L 22.49 42.04 L 23.02 41.99 L 23.50 41.93 L 23.82 41.72 L 23.86 41.39 L 23.63 41.11 L 23.22 40.92 L 22.78 40.68 L 22.36 40.35 L 21.97 39.96 L 21.59 39.57 L 21.27 39.14 L 21.08 38.67 L 21.01 38.14 L 21.02 37.60 L 21.14 37.09 L 21.40 36.66 L 21.79 36.31 L 22.23 36.08 L 22.64 35.89 L 22.87 35.60 L 22.82 35.27 L 22.49 35.07 L 22.00 35.01 L 21.46 35.00 L 20.90 35.00 L 20.35 35.00 L 19.80 34.99 L 19.28 34.91 L 18.81 34.70 L 18.39 34.37 L 17.99 33.99 L 17.61 33.59 L 17.29 33.18 L 17.06 32.73 L 16.87 32.32 L 16.55 32.07 L 16.11 31.89 L 15.68 31.62 L 15.33 31.24 L 15.11 30.78 L 15.02 30.26 L 15.02 29.72 L 15.11 29.20 L 15.34 28.75 L 15.70 28.37 L 16.14 28.11 L 16.63 27.95 L 17.10 27.76 L 17.54 27.47 L 17.98 27.19 L 18.47 27.05 L 19.00 27.00 L 19.49 26.93 L 19.83 26.72 L 19.97 26.30 L 19.98 25.79 L 19.86 25.36 L 19.56 25.10 L 19.09 25.02 L 18.56 25.03 Z M 11.13 42.05 L 11.37 41.67 L 11.70 41.34 L 12.09 41.12 L 12.53 41.04 L 12.96 41.13 L 13.34 41.38 L 13.66 41.71 L 13.89 42.10 L 13.98 42.55 L 14.00 43.03 L 13.98 43.51 L 13.87 43.95 L 13.63 44.33 L 13.30 44.66 L 12.91 44.88 L 12.47 44.96 L 12.04 44.87 L 11.66 44.62 L 11.34 44.29 L 11.11 43.90 L 11.02 43.45 L 11.00 42.97 L 11.02 42.49 Z M 16.15 39.06 L 16.45 38.61 L 16.88 38.27 L 17.37 38.10 L 17.89 38.15 L 18.34 38.42 L 18.70 38.83 L 18.93 39.32 L 19.11 39.84 L 19.37 40.32 L 19.68 40.78 L 19.90 41.28 L 19.98 41.83 L 19.97 42.40 L 19.85 42.94 L 19.55 43.39 L 19.12 43.73 L 18.63 43.90 L 18.11 43.85 L 17.64 43.59 L 17.21 43.20 L 16.80 42.79 L 16.41 42.36 L 16.14 41.89 L 16.02 41.35 L 16.00 40.77 L 16.00 40.18 L 16.03 39.60 Z M 20.05 7.15 L 19.63 7.43 L 19.29 7.83 L 19.07 8.29 L 18.91 8.79 L 18.66 9.24 L 18.30 9.62 L 17.86 9.89 L 17.37 10.05 L 16.89 10.25 L 16.46 10.56 L 16.06 10.94 L 15.66 11.34 L 15.27 11.73 L 14.87 12.13 L 14.47 12.50 L 14.03 12.80 L 13.54 12.92 L 13.05 12.85 L 12.60 12.59 L 12.17 12.28 L 11.69 12.09 L 11.16 12.01 L 10.61 12.00 L 10.05 12.00 L 9.49 12.00 L 8.93 12.01 L 8.40 12.07 L 7.91 12.24 L 7.48 12.55 L 7.07 12.93 L 6.67 13.31 L 6.26 13.66 L 5.80 13.90 L 5.31 14.07 L 4.84 14.28 L 4.44 14.62 L 4.15 15.05 L 3.98 15.54 L 3.81 16.02 L 3.50 16.44 L 3.09 16.76 L 2.60 16.93 L 2.07 16.99 L 1.51 17.00 L 0.96 17.01 L 0.48 17.09 L 0.15 17.32 L 0.03 17.76 L 0.00 18.29 L 0.00 18.85 L 0.00 19.41 L 0.00 19.97 L 0.00 20.53 L 0.00 21.09 L 0.00 21.65 L 0.00 22.21 L 0.00 22.77 L 0.00 23.33 L 0.00 23.89 L 0.00 24.45 L 0.00 25.01 L 0.00 25.57 L 0.02 26.11 L 0.11 26.58 L 0.38 26.87 L 0.83 26.98 L 1.34 26.97 L 1.75 26.82 L 1.98 26.47 L 2.16 26.02 L 2.46 25.60 L 2.86 25.27 L 3.34 25.10 L 3.83 25.13 L 4.28 25.36 L 4.64 25.73 L 4.90 26.17 L 5.09 26.59 L 5.38 26.87 L 5.83 26.98 L 6.35 26.97 L 6.75 26.82 L 6.95 26.45 L 7.00 25.94 L 7.06 25.41 L 7.23 24.92 L 7.52 24.48 L 7.80 24.04 L 7.91 23.57 L 7.79 23.20 L 7.40 23.03 L 6.88 22.99 L 6.35 22.92 L 5.87 22.74 L 5.43 22.44 L 4.99 22.17 L 4.50 22.00 L 4.01 21.83 L 3.58 21.53 L 3.26 21.12 L 3.09 20.65 L 3.13 20.16 L 3.37 19.71 L 3.74 19.35 L 4.20 19.11 L 4.72 19.02 L 5.27 19.02 L 5.79 19.11 L 6.26 19.33 L 6.69 19.64 L 7.15 19.88 L 7.67 19.98 L 8.21 19.98 L 8.74 19.90 L 9.21 19.69 L 9.65 19.39 L 10.10 19.13 L 10.61 19.02 L 11.16 19.02 L 11.69 19.09 L 12.17 19.28 L 12.59 19.61 L 12.99 19.99 L 13.38 20.39 L 13.71 20.82 L 13.93 21.27 L 14.13 21.67 L 14.46 21.89 L 14.89 21.86 L 15.34 21.62 L 15.77 21.32 L 16.24 21.10 L 16.77 21.02 L 17.32 21.00 L 17.88 21.00 L 18.44 21.00 L 19.00 21.00 L 19.56 21.00 L 20.10 20.98 L 20.57 20.89 L 20.87 20.63 L 20.98 20.18 L 21.00 19.64 L 21.00 19.08 L 21.00 18.52 L 21.00 17.96 L 21.00 17.40 L 21.01 16.85 L 21.08 16.32 L 21.28 15.84 L 21.60 15.41 L 21.99 15.01 L 22.39 14.63 L 22.81 14.30 L 23.28 14.07 L 23.77 13.91 L 24.23 13.68 L 24.67 13.37 L 25.11 13.11 L 25.55 12.93 L 25.85 12.66 L 25.98 12.22 L 26.00 11.69 L 26.00 11.13 L 25.97 10.60 L 25.80 10.21 L 25.41 10.04 L 24.89 10.00 L 24.33 10.00 L 23.78 9.98 L 23.25 9.90 L 22.78 9.68 L 22.36 9.35 L 21.96 8.96 L 21.58 8.56 L 21.26 8.13 L 21.05 7.68 L 20.84 7.28 L 20.50 7.10 Z M 15.13 16.05 L 15.37 15.67 L 15.70 15.34 L 16.09 15.12 L 16.54 15.02 L 17.01 15.00 L 17.49 15.02 L 17.94 15.12 L 18.32 15.36 L 18.65 15.69 L 18.88 16.08 L 18.96 16.51 L 18.87 16.95 L 18.63 17.33 L 18.30 17.66 L 17.91 17.88 L 17.46 17.98 L 16.99 18.00 L 16.51 17.98 L 16.06 17.88 L 15.68 17.64 L 15.35 17.31 L 15.12 16.92 L 15.04 16.49 Z M 280.06 3.14 L 279.64 3.41 L 279.30 3.80 L 279.09 4.25 L 279.02 4.76 L 279.00 5.29 L 279.00 5.83 L 279.00 6.38 L 279.00 6.91 L 279.03 7.42 L 279.20 7.80 L 279.58 7.97 L 280.08 7.99 L 280.60 7.94 L 281.07 7.78 L 281.50 7.50 L 281.92 7.22 L 282.39 7.08 L 282.87 7.13 L 283.31 7.36 L 283.73 7.66 L 284.16 7.87 L 284.58 7.89 L 284.85 7.67 L 284.86 7.35 L 284.60 7.09 L 284.19 6.91 L 283.76 6.67 L 283.39 6.33 L 283.13 5.90 L 283.02 5.40 L 283.00 4.87 L 283.00 4.33 L 282.98 3.81 L 282.88 3.37 L 282.60 3.11 L 282.15 3.02 L 281.62 3.00 L 281.08 3.00 L 280.55 3.02 Z M 180.18 0.18 L 180.03 0.53 L 180.00 1.00 L 180.03 1.47 L 180.18 1.82 L 180.53 1.97 L 181.00 2.00 L 181.50 2.00 L 182.00 2.00 L 182.50 2.00 L 183.00 2.00 L 183.47 1.97 L 183.82 1.82 L 183.97 1.47 L 184.00 1.00 L 183.97 0.53 L 183.82 0.18 L 183.47 0.03 L 183.00 0.00 L 182.50 0.00 L 182.00 0.00 L 181.50 0.00 L 181.00 0.00 L 180.53 0.03 Z M 168.18 0.18 L 168.03 0.53 L 168.00 1.00 L 168.00 1.50 L 168.00 2.00 L 168.03 2.47 L 168.18 2.82 L 168.53 2.97 L 169.00 3.00 L 169.50 3.00 L 170.00 3.00 L 170.47 2.97 L 170.82 2.82 L 170.97 2.47 L 171.00 2.00 L 171.00 1.50 L 171.00 1.00 L 170.97 0.53 L 170.82 0.18 L 170.47 0.03 L 170.00 0.00 L 169.50 0.00 L 169.00 0.00 L 168.53 0.03 Z M 52.19 0.19 L 52.03 0.57 L 52.00 1.06 L 51.95 1.58 L 51.80 2.05 L 51.51 2.45 L 51.12 2.76 L 50.68 2.95 L 50.30 3.14 L 50.11 3.43 L 50.18 3.76 L 50.50 3.96 L 50.93 4.12 L 51.35 4.38 L 51.76 4.68 L 52.20 4.91 L 52.67 5.06 L 53.13 5.25 L 53.54 5.53 L 53.96 5.80 L 54.40 5.92 L 54.77 5.82 L 54.95 5.47 L 54.99 4.98 L 55.00 4.46 L 55.00 3.93 L 55.00 3.39 L 55.00 2.86 L 55.00 2.33 L 55.00 1.79 L 55.00 1.26 L 54.98 0.75 L 54.87 0.33 L 54.57 0.09 L 54.12 0.01 L 53.60 0.00 L 53.07 0.00 L 52.57 0.03 Z M 37.19 0.19 L 37.03 0.56 L 37.00 1.06 L 36.95 1.56 L 36.81 2.03 L 36.52 2.43 L 36.14 2.74 L 35.71 2.95 L 35.32 3.12 L 35.09 3.42 L 35.02 3.88 L 35.02 4.38 L 35.12 4.87 L 35.36 5.29 L 35.71 5.64 L 36.13 5.88 L 36.62 5.98 L 37.13 5.98 L 37.58 5.91 L 37.85 5.68 L 37.90 5.29 L 37.74 4.85 L 37.46 4.45 L 37.19 4.03 L 37.07 3.57 L 37.13 3.10 L 37.37 2.68 L 37.73 2.34 L 38.16 2.11 L 38.65 2.02 L 39.17 2.00 L 39.70 2.00 L 40.23 2.00 L 40.75 2.00 L 41.28 2.00 L 41.81 2.00 L 42.34 2.00 L 42.86 2.00 L 43.39 2.00 L 43.92 2.00 L 44.42 1.97 L 44.79 1.82 L 44.96 1.46 L 44.99 0.97 L 44.94 0.50 L 44.75 0.17 L 44.36 0.03 L 43.86 0.00 L 43.33 0.00 L 42.80 0.00 L 42.28 0.00 L 41.75 0.00 L 41.22 0.00 L 40.69 0.00 L 40.17 0.00 L 39.64 0.00 L 39.11 0.00 L 38.58 0.00 L 38.06 0.00 L 37.56 0.03 Z" fill="rgb(168,165,161)" fill-rule="evenodd"/>
  <path d="M 0.19 28.19 L 0.03 28.54 L 0.00 29.02 L 0.00 29.53 L 0.00 30.04 L 0.00 30.55 L 0.00 31.06 L 0.00 31.57 L 0.00 32.08 L 0.00 32.59 L 0.01 33.09 L 0.07 33.54 L 0.27 33.85 L 0.65 33.97 L 1.13 33.99 L 1.57 33.92 L 1.86 33.70 L 1.98 33.31 L 2.00 32.82 L 2.00 32.31 L 2.00 31.80 L 2.00 31.29 L 2.01 30.79 L 2.07 30.30 L 2.25 29.87 L 2.55 29.49 L 2.93 29.21 L 3.38 29.06 L 3.86 29.01 L 4.35 28.98 L 4.73 28.85 L 4.91 28.57 L 4.83 28.25 L 4.53 28.06 L 4.07 28.01 L 3.57 28.00 L 3.06 28.00 L 2.55 28.00 L 2.04 28.00 L 1.53 28.00 L 1.02 28.00 L 0.54 28.03 Z M 11.06 20.15 L 10.62 20.40 L 10.20 20.70 L 9.74 20.91 L 9.23 20.99 L 8.71 21.03 L 8.30 21.16 L 8.10 21.47 L 8.14 21.91 L 8.38 22.34 L 8.68 22.76 L 8.91 23.21 L 9.06 23.70 L 9.27 24.16 L 9.57 24.58 L 9.84 25.01 L 10.01 25.46 L 10.22 25.81 L 10.62 25.97 L 11.13 26.00 L 11.68 26.00 L 12.20 25.98 L 12.64 25.87 L 12.90 25.58 L 12.98 25.12 L 13.00 24.59 L 13.00 24.05 L 13.00 23.50 L 13.00 22.95 L 13.00 22.41 L 12.99 21.87 L 12.93 21.35 L 12.75 20.88 L 12.43 20.48 L 12.01 20.19 L 11.54 20.07 Z M 57.61 0.48 L 58.25 1.77 L 60.73 2.41 L 61.19 4.18 L 59.07 5.63 L 56.44 6.49 L 53.81 6.53 L 51.26 5.47 L 48.45 5.02 L 45.48 5.08 L 42.88 6.05 L 40.25 6.94 L 37.28 6.97 L 34.50 6.55 L 32.14 7.09 L 30.62 9.34 L 29.57 11.83 L 27.41 13.21 L 24.90 14.33 L 23.26 16.09 L 22.73 18.73 L 22.50 21.29 L 23.53 23.48 L 25.94 24.19 L 27.63 25.73 L 26.57 27.64 L 23.78 28.00 L 21.14 28.29 L 21.14 29.66 L 23.27 31.33 L 25.21 33.49 L 26.31 36.04 L 26.95 38.78 L 26.88 41.71 L 25.69 44.13 L 24.24 46.16 L 24.01 48.95 L 24.30 51.83 L 24.72 54.45 L 24.67 56.34 L 26.32 55.37 L 28.03 53.17 L 30.51 52.07 L 33.49 52.00 L 36.45 52.07 L 38.45 53.24 L 38.46 55.65 L 38.85 58.28 L 38.03 60.86 L 36.48 63.11 L 35.62 65.04 L 37.33 66.71 L 39.50 68.10 L 40.85 70.20 L 42.86 70.30 L 44.98 69.37 L 46.83 70.61 L 48.49 72.22 L 50.14 73.94 L 52.07 74.60 L 54.72 74.17 L 57.12 75.30 L 59.06 76.92 L 60.71 78.68 L 61.37 81.19 L 63.20 82.84 L 65.65 84.04 L 67.64 84.18 L 69.04 82.21 L 71.24 81.69 L 73.18 83.53 L 73.18 85.93 L 71.79 88.32 L 70.06 90.33 L 67.82 90.30 L 65.95 89.68 L 64.20 91.21 L 61.97 91.40 L 60.58 90.58 L 61.42 91.88 L 62.90 93.63 L 65.54 94.02 L 68.36 94.45 L 71.01 94.62 L 73.75 94.06 L 76.62 94.27 L 79.22 94.65 L 81.18 93.22 L 83.15 92.70 L 85.13 93.48 L 87.60 93.31 L 90.31 93.90 L 93.27 94.00 L 96.27 94.00 L 99.28 94.00 L 102.28 94.00 L 105.29 94.00 L 108.29 94.00 L 111.21 94.19 L 113.83 94.54 L 116.50 94.06 L 119.48 94.00 L 122.48 94.00 L 125.48 94.00 L 128.49 94.00 L 131.49 94.00 L 134.49 94.00 L 137.50 94.00 L 140.50 94.00 L 143.51 94.00 L 146.51 94.00 L 149.51 94.00 L 152.52 94.00 L 155.52 94.00 L 158.52 94.00 L 161.53 94.00 L 164.53 94.00 L 167.53 94.00 L 170.54 94.00 L 173.54 94.00 L 176.54 94.00 L 179.45 94.23 L 182.05 94.54 L 184.75 94.05 L 187.73 94.00 L 190.74 94.00 L 193.73 94.03 L 196.52 94.49 L 199.18 94.58 L 201.94 94.05 L 204.93 94.00 L 207.93 94.00 L 210.92 94.04 L 213.68 94.50 L 216.24 94.27 L 219.11 94.01 L 221.98 94.33 L 224.62 94.68 L 227.34 94.09 L 230.30 94.00 L 233.22 94.20 L 235.91 94.71 L 238.49 94.46 L 241.13 94.86 L 243.94 94.68 L 246.68 94.09 L 249.45 94.44 L 252.00 94.31 L 254.85 94.01 L 257.85 94.00 L 260.86 94.00 L 263.86 94.00 L 266.86 94.00 L 269.87 94.00 L 272.87 94.00 L 275.87 94.00 L 278.74 93.68 L 281.10 92.39 L 282.99 90.61 L 285.47 90.35 L 287.11 92.18 L 288.93 93.81 L 291.58 94.47 L 294.12 94.23 L 296.73 93.33 L 299.12 91.84 L 301.14 89.96 L 302.22 87.74 L 303.90 85.82 L 306.07 83.90 L 307.68 81.56 L 308.00 78.69 L 308.00 75.69 L 308.00 72.69 L 308.00 69.68 L 308.00 66.68 L 308.00 63.68 L 308.00 60.67 L 308.00 57.67 L 308.00 54.66 L 308.00 51.66 L 308.00 48.66 L 308.00 45.65 L 308.00 42.65 L 308.00 39.65 L 308.00 36.64 L 308.00 33.64 L 308.00 30.64 L 308.00 27.63 L 308.00 24.63 L 308.00 21.62 L 308.00 18.62 L 307.91 15.70 L 306.57 13.92 L 304.06 12.97 L 302.28 11.28 L 301.62 8.76 L 299.87 6.87 L 297.54 5.30 L 295.09 4.41 L 295.01 2.68 L 297.09 1.66 L 297.05 0.35 L 294.47 0.00 L 291.47 0.00 L 288.47 0.00 L 285.47 0.00 L 282.46 0.00 L 279.46 0.00 L 276.45 0.00 L 273.45 0.00 L 270.45 0.00 L 267.44 0.00 L 264.44 0.00 L 261.44 0.00 L 258.43 0.00 L 255.43 0.00 L 252.42 0.00 L 249.42 0.00 L 246.42 0.00 L 243.41 0.00 L 240.41 0.00 L 237.45 0.04 L 235.34 0.95 L 234.26 3.05 L 232.53 2.85 L 231.53 0.69 L 229.20 0.02 L 226.21 0.00 L 223.22 0.01 L 220.69 0.48 L 219.65 2.61 L 217.71 3.63 L 216.13 1.98 L 214.77 0.25 L 212.01 0.00 L 209.01 0.00 L 206.01 0.00 L 203.00 0.00 L 200.00 0.00 L 197.00 0.00 L 193.99 0.00 L 190.99 0.00 L 188.05 0.07 L 186.23 1.25 L 185.57 3.77 L 183.39 4.86 L 180.81 4.05 L 179.18 2.14 L 177.90 0.31 L 175.21 0.01 L 172.68 0.48 L 171.65 2.62 L 169.59 3.84 L 167.42 2.77 L 166.46 0.55 L 164.00 0.01 L 161.01 0.00 L 158.00 0.00 L 155.00 0.00 L 152.00 0.00 L 148.99 0.00 L 145.99 0.00 L 142.98 0.00 L 139.98 0.00 L 136.98 0.00 L 133.97 0.00 L 130.97 0.00 L 127.97 0.00 L 124.96 0.00 L 121.96 0.00 L 118.95 0.00 L 115.95 0.00 L 112.95 0.00 L 109.94 0.00 L 106.94 0.00 L 103.94 0.00 L 100.93 0.00 L 97.93 0.00 L 94.93 0.00 L 91.92 0.00 L 88.92 0.00 L 85.91 0.00 L 82.91 0.00 L 79.91 0.00 L 76.91 0.00 L 74.19 0.26 L 73.68 1.54 L 76.11 2.00 L 78.99 2.21 L 80.40 3.65 L 78.64 4.88 L 75.71 5.00 L 72.70 5.00 L 69.73 4.94 L 67.65 3.91 L 68.56 2.21 L 69.51 0.81 L 67.48 0.04 L 64.51 0.00 L 61.51 0.00 L 58.60 0.09 Z M 145.13 63.05 L 145.37 62.67 L 145.70 62.34 L 146.09 62.12 L 146.54 62.02 L 147.01 62.00 L 147.49 62.02 L 147.94 62.12 L 148.32 62.36 L 148.65 62.69 L 148.88 63.08 L 148.96 63.51 L 148.87 63.95 L 148.63 64.33 L 148.30 64.66 L 147.91 64.88 L 147.46 64.98 L 146.99 65.00 L 146.51 64.98 L 146.06 64.88 L 145.68 64.64 L 145.35 64.31 L 145.12 63.92 L 145.04 63.49 Z M 134.15 63.06 L 134.43 62.62 L 134.84 62.28 L 135.33 62.08 L 135.87 62.01 L 136.43 62.00 L 137.00 62.01 L 137.55 62.05 L 138.05 62.22 L 138.47 62.53 L 138.78 62.95 L 138.92 63.44 L 138.85 63.94 L 138.57 64.38 L 138.16 64.72 L 137.67 64.92 L 137.13 64.99 L 136.57 65.00 L 136.00 64.99 L 135.45 64.95 L 134.95 64.78 L 134.53 64.47 L 134.22 64.05 L 134.08 63.56 Z M 85.14 63.05 L 85.39 62.65 L 85.76 62.32 L 86.19 62.10 L 86.67 62.02 L 87.18 62.00 L 87.70 62.00 L 88.22 62.00 L 88.74 62.00 L 89.26 62.00 L 89.78 62.00 L 90.30 62.00 L 90.82 62.00 L 91.34 62.00 L 91.86 62.00 L 92.38 62.00 L 92.90 62.00 L 93.42 62.00 L 93.94 62.00 L 94.46 62.00 L 94.98 62.00 L 95.50 62.00 L 96.02 62.00 L 96.54 62.00 L 97.06 62.00 L 97.58 62.00 L 98.10 62.00 L 98.62 62.00 L 99.14 62.00 L 99.66 62.00 L 100.18 62.00 L 100.70 62.00 L 101.22 62.00 L 101.74 62.00 L 102.26 62.00 L 102.78 62.00 L 103.29 62.02 L 103.78 62.09 L 104.21 62.30 L 104.58 62.62 L 104.84 63.02 L 104.95 63.48 L 104.86 63.95 L 104.61 64.35 L 104.24 64.68 L 103.81 64.90 L 103.33 64.98 L 102.82 65.00 L 102.30 65.00 L 101.78 65.00 L 101.26 65.00 L 100.74 65.00 L 100.22 65.00 L 99.70 65.00 L 99.18 65.00 L 98.66 65.00 L 98.14 65.00 L 97.62 65.00 L 97.10 65.00 L 96.58 65.00 L 96.06 65.00 L 95.54 65.00 L 95.02 65.00 L 94.50 65.00 L 93.98 65.00 L 93.46 65.00 L 92.94 65.00 L 92.42 65.00 L 91.90 65.00 L 91.38 65.00 L 90.86 65.00 L 90.34 65.00 L 89.82 65.00 L 89.30 65.00 L 88.78 65.00 L 88.26 65.00 L 87.74 65.00 L 87.22 65.00 L 86.71 64.98 L 86.22 64.91 L 85.79 64.70 L 85.42 64.38 L 85.16 63.98 L 85.05 63.52 Z M 75.15 63.06 L 75.42 62.63 L 75.80 62.30 L 76.26 62.09 L 76.78 62.02 L 77.32 62.00 L 77.86 62.00 L 78.41 62.00 L 78.95 62.00 L 79.50 62.00 L 80.05 62.00 L 80.59 62.00 L 81.13 62.01 L 81.65 62.07 L 82.12 62.25 L 82.52 62.57 L 82.81 62.99 L 82.93 63.46 L 82.85 63.94 L 82.58 64.37 L 82.20 64.70 L 81.74 64.91 L 81.22 64.98 L 80.68 65.00 L 80.14 65.00 L 79.59 65.00 L 79.05 65.00 L 78.50 65.00 L 77.95 65.00 L 77.41 65.00 L 76.87 64.99 L 76.35 64.93 L 75.88 64.75 L 75.48 64.43 L 75.19 64.01 L 75.07 63.54 Z M 59.15 63.06 L 59.42 62.63 L 59.80 62.30 L 60.26 62.09 L 60.78 62.02 L 61.32 62.00 L 61.86 62.00 L 62.41 62.00 L 62.95 62.00 L 63.50 62.00 L 64.05 62.00 L 64.59 62.00 L 65.13 62.01 L 65.65 62.07 L 66.12 62.25 L 66.52 62.57 L 66.81 62.99 L 66.93 63.46 L 66.85 63.94 L 66.58 64.37 L 66.20 64.70 L 65.74 64.91 L 65.22 64.98 L 64.68 65.00 L 64.14 65.00 L 63.59 65.00 L 63.05 65.00 L 62.50 65.00 L 61.95 65.00 L 61.41 65.00 L 60.87 64.99 L 60.35 64.93 L 59.88 64.75 L 59.48 64.43 L 59.19 64.01 L 59.07 63.54 Z M 49.16 51.06 L 49.45 50.61 L 49.87 50.28 L 50.36 50.10 L 50.87 50.14 L 51.32 50.40 L 51.69 50.80 L 51.92 51.28 L 52.10 51.79 L 52.35 52.27 L 52.65 52.73 L 52.89 53.22 L 52.98 53.76 L 53.00 54.33 L 53.01 54.91 L 53.04 55.48 L 53.19 56.00 L 53.47 56.47 L 53.77 56.93 L 53.91 57.43 L 53.84 57.94 L 53.55 58.39 L 53.13 58.72 L 52.64 58.90 L 52.13 58.86 L 51.68 58.60 L 51.31 58.20 L 51.08 57.72 L 50.90 57.21 L 50.65 56.73 L 50.35 56.27 L 50.11 55.78 L 50.02 55.24 L 50.00 54.67 L 49.99 54.09 L 49.96 53.52 L 49.81 53.00 L 49.53 52.53 L 49.23 52.07 L 49.09 51.57 Z M 52.14 42.06 L 52.44 41.61 L 52.87 41.28 L 53.36 41.10 L 53.87 41.14 L 54.32 41.40 L 54.68 41.80 L 54.90 42.29 L 54.98 42.84 L 54.97 43.41 L 54.85 43.94 L 54.56 44.40 L 54.17 44.82 L 53.77 45.24 L 53.40 45.67 L 53.13 46.14 L 53.02 46.68 L 53.00 47.25 L 53.00 47.83 L 52.97 48.41 L 52.85 48.94 L 52.56 49.39 L 52.13 49.72 L 51.64 49.90 L 51.13 49.86 L 50.68 49.60 L 50.32 49.20 L 50.10 48.71 L 50.02 48.16 L 50.00 47.58 L 50.01 47.00 L 50.06 46.44 L 50.23 45.93 L 50.53 45.47 L 50.82 45.01 L 51.00 44.50 L 51.18 43.99 L 51.47 43.53 L 51.77 43.07 L 51.96 42.57 Z M 242.13 38.05 L 242.37 37.67 L 242.70 37.34 L 243.09 37.12 L 243.54 37.02 L 244.01 37.00 L 244.49 37.02 L 244.94 37.12 L 245.32 37.36 L 245.65 37.69 L 245.88 38.08 L 245.96 38.51 L 245.87 38.95 L 245.63 39.33 L 245.30 39.66 L 244.91 39.88 L 244.46 39.98 L 243.99 40.00 L 243.51 39.98 L 243.06 39.88 L 242.68 39.64 L 242.35 39.31 L 242.12 38.92 L 242.04 38.49 Z M 163.14 38.06 L 163.40 37.64 L 163.78 37.31 L 164.22 37.10 L 164.72 37.02 L 165.25 37.00 L 165.78 37.00 L 166.31 37.00 L 166.84 37.00 L 167.37 37.00 L 167.90 37.00 L 168.44 37.00 L 168.97 37.00 L 169.50 37.00 L 170.03 37.00 L 170.56 37.00 L 171.10 37.00 L 171.63 37.00 L 172.16 37.00 L 172.69 37.00 L 173.22 37.01 L 173.72 37.08 L 174.17 37.28 L 174.55 37.60 L 174.83 38.01 L 174.94 38.47 L 174.86 38.94 L 174.60 39.36 L 174.22 39.69 L 173.78 39.90 L 173.28 39.98 L 172.75 40.00 L 172.22 40.00 L 171.69 40.00 L 171.16 40.00 L 170.63 40.00 L 170.10 40.00 L 169.56 40.00 L 169.03 40.00 L 168.50 40.00 L 167.97 40.00 L 167.44 40.00 L 166.90 40.00 L 166.37 40.00 L 165.84 40.00 L 165.31 40.00 L 164.78 39.99 L 164.28 39.92 L 163.83 39.72 L 163.45 39.40 L 163.17 38.99 L 163.06 38.53 Z M 147.14 38.06 L 147.40 37.65 L 147.77 37.31 L 148.21 37.10 L 148.70 37.02 L 149.22 37.00 L 149.75 37.00 L 150.28 37.00 L 150.81 37.00 L 151.33 37.00 L 151.86 37.00 L 152.39 37.00 L 152.92 37.00 L 153.44 37.00 L 153.97 37.00 L 154.50 37.00 L 155.03 37.00 L 155.56 37.00 L 156.08 37.00 L 156.61 37.00 L 157.14 37.00 L 157.67 37.00 L 158.19 37.00 L 158.72 37.00 L 159.24 37.01 L 159.74 37.09 L 160.18 37.29 L 160.56 37.61 L 160.83 38.01 L 160.94 38.48 L 160.86 38.94 L 160.60 39.35 L 160.23 39.69 L 159.79 39.90 L 159.30 39.98 L 158.78 40.00 L 158.25 40.00 L 157.72 40.00 L 157.19 40.00 L 156.67 40.00 L 156.14 40.00 L 155.61 40.00 L 155.08 40.00 L 154.56 40.00 L 154.03 40.00 L 153.50 40.00 L 152.97 40.00 L 152.44 40.00 L 151.92 40.00 L 151.39 40.00 L 150.86 40.00 L 150.33 40.00 L 149.81 40.00 L 149.28 40.00 L 148.76 39.99 L 148.26 39.91 L 147.82 39.71 L 147.44 39.39 L 147.17 38.99 L 147.06 38.52 Z M 110.13 38.05 L 110.39 37.65 L 110.74 37.33 L 111.16 37.11 L 111.64 37.02 L 112.14 37.00 L 112.65 37.00 L 113.16 37.00 L 113.68 37.00 L 114.19 37.00 L 114.70 37.00 L 115.21 37.00 L 115.72 37.00 L 116.23 37.00 L 116.74 37.00 L 117.25 37.00 L 117.76 37.00 L 118.28 37.00 L 118.79 37.00 L 119.30 37.00 L 119.81 37.00 L 120.32 37.00 L 120.83 37.00 L 121.34 37.00 L 121.85 37.00 L 122.37 37.00 L 122.88 37.00 L 123.39 37.00 L 123.90 37.00 L 124.41 37.00 L 124.92 37.00 L 125.43 37.00 L 125.94 37.00 L 126.46 37.00 L 126.97 37.00 L 127.48 37.00 L 127.99 37.00 L 128.50 37.00 L 129.01 37.00 L 129.52 37.00 L 130.03 37.00 L 130.54 37.00 L 131.06 37.00 L 131.57 37.00 L 132.08 37.00 L 132.59 37.00 L 133.10 37.00 L 133.61 37.00 L 134.12 37.00 L 134.63 37.00 L 135.15 37.00 L 135.66 37.00 L 136.17 37.00 L 136.68 37.00 L 137.19 37.00 L 137.70 37.00 L 138.21 37.00 L 138.72 37.00 L 139.24 37.00 L 139.75 37.00 L 140.26 37.00 L 140.77 37.00 L 141.28 37.00 L 141.79 37.00 L 142.30 37.00 L 142.81 37.00 L 143.32 37.00 L 143.84 37.00 L 144.34 37.02 L 144.82 37.10 L 145.24 37.31 L 145.60 37.64 L 145.86 38.04 L 145.95 38.49 L 145.87 38.95 L 145.61 39.35 L 145.26 39.67 L 144.84 39.89 L 144.36 39.98 L 143.86 40.00 L 143.35 40.00 L 142.84 40.00 L 142.32 40.00 L 141.81 40.00 L 141.30 40.00 L 140.79 40.00 L 140.28 40.00 L 139.77 40.00 L 139.26 40.00 L 138.75 40.00 L 138.24 40.00 L 137.72 40.00 L 137.21 40.00 L 136.70 40.00 L 136.19 40.00 L 135.68 40.00 L 135.17 40.00 L 134.66 40.00 L 134.15 40.00 L 133.63 40.00 L 133.12 40.00 L 132.61 40.00 L 132.10 40.00 L 131.59 40.00 L 131.08 40.00 L 130.57 40.00 L 130.06 40.00 L 129.54 40.00 L 129.03 40.00 L 128.52 40.00 L 128.01 40.00 L 127.50 40.00 L 126.99 40.00 L 126.48 40.00 L 125.97 40.00 L 125.46 40.00 L 124.94 40.00 L 124.43 40.00 L 123.92 40.00 L 123.41 40.00 L 122.90 40.00 L 122.39 40.00 L 121.88 40.00 L 121.37 40.00 L 120.85 40.00 L 120.34 40.00 L 119.83 40.00 L 119.32 40.00 L 118.81 40.00 L 118.30 40.00 L 117.79 40.00 L 117.28 40.00 L 116.76 40.00 L 116.25 40.00 L 115.74 40.00 L 115.23 40.00 L 114.72 40.00 L 114.21 40.00 L 113.70 40.00 L 113.19 40.00 L 112.68 40.00 L 112.16 40.00 L 111.66 39.98 L 111.18 39.90 L 110.76 39.69 L 110.40 39.36 L 110.14 38.96 L 110.05 38.51 Z M 100.14 38.06 L 100.41 37.64 L 100.80 37.30 L 101.25 37.09 L 101.76 37.02 L 102.29 37.00 L 102.83 37.00 L 103.38 37.00 L 103.92 37.00 L 104.46 37.00 L 105.00 37.00 L 105.54 37.00 L 106.08 37.00 L 106.62 37.00 L 107.16 37.01 L 107.68 37.08 L 108.14 37.26 L 108.53 37.58 L 108.82 37.99 L 108.93 38.47 L 108.86 38.94 L 108.59 39.36 L 108.20 39.70 L 107.75 39.91 L 107.24 39.98 L 106.71 40.00 L 106.17 40.00 L 105.62 40.00 L 105.08 40.00 L 104.54 40.00 L 104.00 40.00 L 103.46 40.00 L 102.92 40.00 L 102.38 40.00 L 101.84 39.99 L 101.32 39.92 L 100.86 39.74 L 100.47 39.42 L 100.18 39.01 L 100.07 38.53 Z M 58.94 37.85 L 59.41 37.58 L 59.86 37.27 L 60.37 37.08 L 60.92 37.01 L 61.50 37.00 L 62.08 37.01 L 62.63 37.08 L 63.13 37.27 L 63.55 37.61 L 63.84 38.06 L 63.91 38.57 L 63.77 39.07 L 63.44 39.50 L 63.00 39.81 L 62.48 39.96 L 61.92 40.01 L 61.37 40.08 L 60.86 40.27 L 60.41 40.58 L 59.94 40.85 L 59.41 40.98 L 58.84 41.01 L 58.29 41.10 L 57.80 41.31 L 57.34 41.61 L 56.87 41.86 L 56.36 41.90 L 55.87 41.72 L 55.45 41.39 L 55.16 40.94 L 55.09 40.43 L 55.23 39.93 L 55.55 39.48 L 55.94 39.06 L 56.36 38.66 L 56.80 38.31 L 57.29 38.10 L 57.84 38.01 L 58.41 37.98 Z M 71.95 36.87 L 72.36 36.61 L 72.76 36.31 L 73.20 36.10 L 73.69 36.02 L 74.21 36.00 L 74.73 36.00 L 75.25 36.00 L 75.78 36.00 L 76.30 36.00 L 76.82 36.00 L 77.35 36.00 L 77.87 36.00 L 78.39 36.00 L 78.92 36.00 L 79.43 36.02 L 79.91 36.13 L 80.34 36.37 L 80.74 36.67 L 81.17 36.89 L 81.65 36.98 L 82.17 37.00 L 82.69 37.00 L 83.22 37.00 L 83.74 37.00 L 84.27 37.00 L 84.79 37.00 L 85.31 37.00 L 85.84 37.00 L 86.36 37.00 L 86.88 37.00 L 87.41 37.00 L 87.93 37.00 L 88.46 37.00 L 88.98 37.00 L 89.50 37.00 L 90.03 37.00 L 90.55 37.00 L 91.07 37.00 L 91.60 37.00 L 92.12 37.00 L 92.65 37.00 L 93.17 37.00 L 93.69 37.00 L 94.22 37.00 L 94.74 37.00 L 95.26 37.00 L 95.79 37.00 L 96.31 37.00 L 96.84 37.00 L 97.35 37.02 L 97.84 37.11 L 98.26 37.34 L 98.62 37.68 L 98.87 38.09 L 98.94 38.56 L 98.82 39.01 L 98.54 39.41 L 98.16 39.73 L 97.72 39.92 L 97.23 39.99 L 96.71 40.00 L 96.18 40.00 L 95.66 40.00 L 95.14 40.00 L 94.61 40.00 L 94.09 40.00 L 93.56 40.00 L 93.04 40.00 L 92.52 40.00 L 91.99 40.00 L 91.47 40.00 L 90.95 40.00 L 90.42 40.00 L 89.90 40.00 L 89.37 40.00 L 88.85 40.00 L 88.33 40.00 L 87.80 40.00 L 87.28 40.00 L 86.76 40.00 L 86.23 40.00 L 85.71 40.00 L 85.18 40.00 L 84.66 40.00 L 84.14 40.00 L 83.61 40.00 L 83.09 40.00 L 82.57 40.00 L 82.04 40.00 L 81.52 40.00 L 80.99 40.00 L 80.47 40.00 L 79.95 40.00 L 79.42 40.00 L 78.90 40.00 L 78.38 40.00 L 77.85 40.00 L 77.33 40.00 L 76.80 40.00 L 76.28 40.00 L 75.76 40.00 L 75.23 40.00 L 74.71 40.00 L 74.19 40.00 L 73.67 40.02 L 73.18 40.11 L 72.75 40.32 L 72.35 40.62 L 71.93 40.87 L 71.46 40.94 L 71.00 40.83 L 70.60 40.56 L 70.28 40.18 L 70.09 39.74 L 70.02 39.25 L 70.02 38.73 L 70.09 38.24 L 70.29 37.80 L 70.62 37.43 L 71.02 37.16 L 71.48 37.01 Z M 29.15 24.06 L 29.41 23.64 L 29.80 23.30 L 30.26 23.09 L 30.77 23.02 L 31.30 23.02 L 31.81 23.11 L 32.25 23.34 L 32.62 23.69 L 32.88 24.13 L 32.98 24.63 L 32.99 25.16 L 32.92 25.67 L 32.73 26.14 L 32.41 26.54 L 32.00 26.82 L 31.52 26.93 L 31.04 26.85 L 30.61 26.58 L 30.22 26.22 L 29.83 25.83 L 29.47 25.44 L 29.19 25.01 L 29.07 24.54 Z M 299.94 17.85 L 300.41 17.58 L 300.86 17.27 L 301.37 17.08 L 301.92 17.01 L 302.50 17.00 L 303.08 17.00 L 303.67 17.00 L 304.24 17.02 L 304.78 17.11 L 305.26 17.36 L 305.64 17.74 L 305.87 18.21 L 305.88 18.72 L 305.68 19.20 L 305.32 19.60 L 304.87 19.88 L 304.36 20.06 L 303.86 20.27 L 303.41 20.58 L 302.94 20.85 L 302.41 20.98 L 301.84 21.01 L 301.29 21.10 L 300.80 21.31 L 300.34 21.61 L 299.87 21.86 L 299.36 21.90 L 298.86 21.73 L 298.42 21.40 L 298.00 21.00 L 297.60 20.58 L 297.27 20.14 L 297.10 19.64 L 297.14 19.13 L 297.40 18.68 L 297.80 18.32 L 298.29 18.10 L 298.84 18.01 L 299.41 17.98 Z M 40.15 17.06 L 40.43 16.62 L 40.84 16.28 L 41.33 16.08 L 41.87 16.01 L 42.43 16.00 L 43.00 16.00 L 43.57 16.00 L 44.13 16.01 L 44.67 16.08 L 45.16 16.28 L 45.57 16.62 L 45.85 17.06 L 45.98 17.58 L 46.02 18.12 L 46.12 18.59 L 46.39 18.90 L 46.82 19.09 L 47.26 19.35 L 47.64 19.73 L 47.87 20.18 L 47.90 20.68 L 47.71 21.16 L 47.38 21.57 L 46.94 21.85 L 46.42 21.97 L 45.86 22.00 L 45.29 22.00 L 44.73 22.02 L 44.20 22.11 L 43.73 22.34 L 43.29 22.65 L 42.82 22.90 L 42.32 23.06 L 41.84 23.28 L 41.40 23.59 L 40.94 23.85 L 40.44 23.92 L 39.95 23.78 L 39.51 23.48 L 39.10 23.10 L 38.70 22.69 L 38.35 22.27 L 38.11 21.80 L 38.02 21.27 L 38.02 20.71 L 38.12 20.19 L 38.36 19.73 L 38.74 19.35 L 39.18 19.09 L 39.61 18.90 L 39.88 18.59 L 39.98 18.12 L 40.02 17.58 Z M 274.15 3.06 L 274.42 2.63 L 274.82 2.29 L 275.29 2.09 L 275.81 2.01 L 276.37 2.00 L 276.92 2.00 L 277.48 2.00 L 278.03 2.00 L 278.59 2.00 L 279.14 2.00 L 279.70 2.00 L 280.25 2.00 L 280.81 2.00 L 281.37 2.00 L 281.92 2.00 L 282.48 2.00 L 283.03 2.01 L 283.57 2.06 L 284.05 2.22 L 284.47 2.52 L 284.78 2.93 L 284.92 3.41 L 284.86 3.90 L 284.61 4.35 L 284.31 4.78 L 284.12 5.23 L 284.15 5.64 L 284.42 5.91 L 284.84 6.10 L 285.28 6.36 L 285.64 6.72 L 285.90 7.16 L 286.09 7.58 L 286.36 7.85 L 286.77 7.88 L 287.22 7.69 L 287.65 7.38 L 288.10 7.13 L 288.61 7.02 L 289.15 7.01 L 289.68 7.08 L 290.16 7.28 L 290.59 7.57 L 291.03 7.84 L 291.54 7.97 L 292.08 8.00 L 292.64 8.00 L 293.19 8.01 L 293.71 8.09 L 294.18 8.29 L 294.58 8.63 L 294.85 9.06 L 294.93 9.55 L 294.80 10.03 L 294.51 10.46 L 294.13 10.86 L 293.74 11.25 L 293.33 11.61 L 292.88 11.87 L 292.37 11.98 L 291.83 11.98 L 291.31 11.91 L 290.83 11.72 L 290.40 11.42 L 289.96 11.15 L 289.45 11.03 L 288.91 11.00 L 288.35 11.00 L 287.79 11.00 L 287.24 11.00 L 286.69 10.98 L 286.18 10.88 L 285.72 10.65 L 285.29 10.35 L 284.83 10.10 L 284.34 9.94 L 283.87 9.74 L 283.44 9.45 L 282.99 9.17 L 282.49 9.04 L 281.95 9.00 L 281.40 9.00 L 280.84 9.00 L 280.29 9.00 L 279.74 8.98 L 279.22 8.89 L 278.76 8.67 L 278.38 8.31 L 278.13 7.87 L 278.02 7.36 L 278.00 6.81 L 278.00 6.26 L 277.97 5.73 L 277.84 5.30 L 277.51 5.08 L 277.02 5.01 L 276.48 5.00 L 275.92 4.99 L 275.39 4.93 L 274.91 4.76 L 274.50 4.45 L 274.20 4.03 L 274.07 3.55 Z M 260.13 3.05 L 260.37 2.67 L 260.70 2.34 L 261.09 2.12 L 261.54 2.02 L 262.01 2.00 L 262.49 2.02 L 262.94 2.12 L 263.32 2.36 L 263.65 2.69 L 263.88 3.08 L 263.96 3.51 L 263.87 3.95 L 263.63 4.33 L 263.30 4.66 L 262.91 4.88 L 262.46 4.98 L 261.99 5.00 L 261.51 4.98 L 261.06 4.88 L 260.68 4.64 L 260.35 4.31 L 260.12 3.92 L 260.04 3.49 Z M 254.15 3.06 L 254.43 2.62 L 254.84 2.28 L 255.33 2.08 L 255.87 2.01 L 256.43 2.00 L 257.00 2.01 L 257.55 2.05 L 258.05 2.22 L 258.47 2.53 L 258.78 2.95 L 258.92 3.44 L 258.85 3.94 L 258.57 4.38 L 258.16 4.72 L 257.67 4.92 L 257.13 4.99 L 256.57 5.00 L 256.00 4.99 L 255.45 4.95 L 254.95 4.78 L 254.53 4.47 L 254.22 4.05 L 254.08 3.56 Z M 241.15 3.06 L 241.43 2.63 L 241.83 2.29 L 242.30 2.09 L 242.83 2.01 L 243.38 2.00 L 243.94 2.00 L 244.50 2.00 L 245.06 2.01 L 245.59 2.06 L 246.08 2.23 L 246.49 2.55 L 246.80 2.97 L 246.92 3.45 L 246.85 3.94 L 246.57 4.37 L 246.17 4.71 L 245.70 4.91 L 245.17 4.99 L 244.62 5.00 L 244.06 5.00 L 243.50 5.00 L 242.94 4.99 L 242.41 4.94 L 241.92 4.77 L 241.51 4.45 L 241.20 4.03 L 241.08 3.55 Z M 46.18 0.18 L 46.03 0.53 L 46.00 1.00 L 46.03 1.47 L 46.18 1.82 L 46.53 1.97 L 47.00 2.00 L 47.50 2.00 L 48.00 2.00 L 48.50 2.00 L 49.00 2.00 L 49.50 2.00 L 50.00 2.00 L 50.47 1.97 L 50.82 1.82 L 50.97 1.47 L 51.00 1.00 L 50.97 0.53 L 50.82 0.18 L 50.47 0.03 L 50.00 0.00 L 49.50 0.00 L 49.00 0.00 L 48.50 0.00 L 48.00 0.00 L 47.50 0.00 L 47.00 0.00 L 46.53 0.03 Z M 14.20 0.20 L 14.04 0.58 L 14.01 1.09 L 14.06 1.61 L 14.23 2.08 L 14.51 2.51 L 14.79 2.94 L 14.92 3.41 L 14.87 3.89 L 14.62 4.32 L 14.27 4.72 L 13.89 5.11 L 13.51 5.49 L 13.12 5.88 L 12.74 6.26 L 12.39 6.66 L 12.13 7.10 L 12.02 7.60 L 12.00 8.13 L 12.00 8.68 L 12.00 9.22 L 12.00 9.77 L 12.02 10.30 L 12.11 10.81 L 12.34 11.25 L 12.69 11.62 L 13.12 11.87 L 13.60 11.92 L 14.07 11.78 L 14.49 11.49 L 14.88 11.12 L 15.27 10.73 L 15.65 10.35 L 16.03 9.96 L 16.41 9.57 L 16.72 9.16 L 16.93 8.70 L 17.09 8.22 L 17.31 7.77 L 17.65 7.37 L 18.02 6.98 L 18.41 6.61 L 18.82 6.29 L 19.28 6.09 L 19.80 6.02 L 20.33 6.02 L 20.83 6.11 L 21.28 6.35 L 21.68 6.69 L 22.07 7.07 L 22.46 7.44 L 22.88 7.75 L 23.34 7.93 L 23.86 7.99 L 24.40 8.00 L 24.94 8.00 L 25.44 7.96 L 25.81 7.78 L 25.92 7.41 L 25.80 6.96 L 25.53 6.53 L 25.24 6.11 L 25.07 5.63 L 25.01 5.11 L 25.00 4.57 L 25.00 4.03 L 25.04 3.50 L 25.17 3.01 L 25.45 2.60 L 25.85 2.27 L 26.31 2.08 L 26.83 2.01 L 27.36 2.00 L 27.91 2.00 L 28.45 2.00 L 29.00 2.00 L 29.54 2.00 L 30.08 2.00 L 30.63 2.00 L 31.17 2.00 L 31.72 2.00 L 32.26 2.00 L 32.80 2.00 L 33.35 2.00 L 33.89 2.00 L 34.43 2.00 L 34.97 1.99 L 35.47 1.95 L 35.82 1.76 L 35.97 1.36 L 35.98 0.86 L 35.89 0.41 L 35.63 0.12 L 35.19 0.02 L 34.67 0.00 L 34.13 0.00 L 33.58 0.00 L 33.04 0.00 L 32.49 0.00 L 31.95 0.00 L 31.41 0.00 L 30.86 0.00 L 30.32 0.00 L 29.77 0.00 L 29.23 0.00 L 28.69 0.00 L 28.14 0.00 L 27.60 0.00 L 27.05 0.00 L 26.51 0.00 L 25.97 0.00 L 25.42 0.00 L 24.88 0.00 L 24.33 0.00 L 23.79 0.00 L 23.25 0.00 L 22.70 0.00 L 22.16 0.00 L 21.62 0.00 L 21.07 0.00 L 20.53 0.00 L 19.98 0.00 L 19.44 0.00 L 18.90 0.00 L 18.35 0.00 L 17.81 0.00 L 17.26 0.00 L 16.72 0.00 L 16.18 0.00 L 15.63 0.00 L 15.09 0.00 L 14.58 0.03 Z M 16.13 3.05 L 16.37 2.67 L 16.70 2.34 L 17.09 2.12 L 17.54 2.02 L 18.01 2.00 L 18.49 2.02 L 18.94 2.12 L 19.32 2.36 L 19.65 2.69 L 19.88 3.08 L 19.96 3.51 L 19.87 3.95 L 19.63 4.33 L 19.30 4.66 L 18.91 4.88 L 18.46 4.98 L 17.99 5.00 L 17.51 4.98 L 17.06 4.88 L 16.68 4.64 L 16.35 4.31 L 16.12 3.92 L 16.04 3.49 Z" fill="rgb(230,228,224)" fill-rule="evenodd"/>
</svg>