<svg xmlns="http://www.w3.org/2000/svg" width="309" height="102" viewBox="0 0 309 102" role="img" aria-label="14_plates_14">
  <title>14_plates_14</title>
  <path d="M 177.19 96.19 L 177.07 96.54 L 177.16 96.98 L 177.41 97.40 L 177.71 97.80 L 177.91 98.24 L 177.98 98.73 L 178.00 99.25 L 178.00 99.77 L 178.02 100.27 L 178.13 100.68 L 178.43 100.91 L 178.88 100.99 L 179.39 101.00 L 179.91 101.00 L 180.43 101.00 L 180.95 101.00 L 181.44 100.97 L 181.81 100.81 L 181.93 100.46 L 181.84 100.02 L 181.59 99.60 L 181.29 99.20 L 181.09 98.76 L 181.02 98.27 L 181.00 97.75 L 181.00 97.23 L 180.98 96.73 L 180.87 96.32 L 180.57 96.09 L 180.12 96.01 L 179.61 96.00 L 179.09 96.00 L 178.57 96.00 L 178.05 96.00 L 177.56 96.03 Z M 13.19 67.21 L 12.98 67.58 L 12.79 68.04 L 12.48 68.46 L 12.07 68.78 L 11.61 68.97 L 11.22 69.19 L 11.05 69.58 L 11.00 70.10 L 11.00 70.66 L 11.02 71.21 L 11.10 71.74 L 11.32 72.22 L 11.66 72.64 L 12.04 73.04 L 12.43 73.45 L 12.74 73.88 L 12.91 74.36 L 12.86 74.85 L 12.62 75.30 L 12.24 75.66 L 11.78 75.88 L 11.29 75.89 L 10.82 75.71 L 10.38 75.40 L 9.93 75.14 L 9.41 75.02 L 8.86 75.00 L 8.29 75.00 L 7.73 75.00 L 7.17 75.00 L 6.64 75.03 L 6.23 75.19 L 6.05 75.57 L 6.02 76.09 L 6.07 76.62 L 6.25 77.11 L 6.57 77.54 L 6.95 77.95 L 7.35 78.34 L 7.77 78.68 L 8.24 78.91 L 8.74 79.08 L 9.20 79.31 L 9.59 79.66 L 9.88 80.09 L 10.06 80.53 L 10.32 80.86 L 10.72 81.06 L 11.18 81.29 L 11.58 81.63 L 11.87 82.06 L 12.05 82.51 L 12.29 82.85 L 12.70 83.05 L 13.15 83.27 L 13.59 83.58 L 14.04 83.85 L 14.55 83.97 L 15.11 84.00 L 15.67 84.00 L 16.23 84.00 L 16.79 84.00 L 17.35 83.98 L 17.87 83.87 L 18.33 83.62 L 18.77 83.32 L 19.24 83.10 L 19.77 83.02 L 20.33 83.00 L 20.89 83.00 L 21.45 83.00 L 22.01 82.99 L 22.56 82.94 L 23.05 82.79 L 23.50 82.50 L 23.95 82.21 L 24.44 82.06 L 24.98 82.01 L 25.53 82.05 L 26.03 82.20 L 26.47 82.50 L 26.87 82.88 L 27.27 83.28 L 27.63 83.69 L 27.89 84.13 L 28.08 84.57 L 28.36 84.86 L 28.81 84.98 L 29.32 84.97 L 29.74 84.82 L 29.94 84.46 L 29.99 83.95 L 30.00 83.39 L 30.00 82.83 L 30.00 82.27 L 30.00 81.70 L 30.00 81.14 L 30.02 80.58 L 30.14 80.07 L 30.41 79.62 L 30.71 79.18 L 30.93 78.71 L 31.09 78.21 L 31.33 77.75 L 31.64 77.31 L 31.88 76.84 L 31.98 76.32 L 31.97 75.79 L 31.86 75.35 L 31.54 75.10 L 31.06 75.01 L 30.51 75.00 L 29.95 75.00 L 29.39 75.00 L 28.82 75.00 L 28.26 75.00 L 27.70 75.00 L 27.13 75.00 L 26.57 75.00 L 26.01 74.99 L 25.46 74.95 L 24.96 74.80 L 24.52 74.51 L 24.07 74.22 L 23.59 74.04 L 23.09 73.87 L 22.64 73.60 L 22.23 73.23 L 21.83 72.83 L 21.46 72.42 L 21.16 71.99 L 20.98 71.53 L 20.74 71.18 L 20.33 71.03 L 19.80 70.99 L 19.27 70.90 L 18.80 70.69 L 18.36 70.39 L 17.90 70.13 L 17.41 69.96 L 16.92 69.77 L 16.49 69.46 L 16.08 69.08 L 15.68 68.68 L 15.29 68.29 L 14.89 67.89 L 14.48 67.51 L 14.04 67.21 L 13.58 67.09 Z M 3.19 61.19 L 3.03 61.56 L 3.00 62.05 L 3.00 62.57 L 3.00 63.10 L 3.00 63.62 L 3.00 64.15 L 3.00 64.67 L 3.01 65.19 L 3.08 65.69 L 3.26 66.14 L 3.54 66.55 L 3.81 66.96 L 3.95 67.43 L 3.99 67.94 L 4.00 68.46 L 4.00 68.98 L 4.04 69.47 L 4.21 69.82 L 4.59 69.97 L 5.09 70.00 L 5.61 70.00 L 6.13 70.00 L 6.66 70.00 L 7.17 69.98 L 7.60 69.90 L 7.88 69.65 L 7.98 69.22 L 7.98 68.72 L 7.91 68.23 L 7.70 67.79 L 7.38 67.40 L 7.02 67.02 L 6.66 66.65 L 6.33 66.26 L 6.11 65.83 L 6.02 65.34 L 6.00 64.82 L 6.00 64.30 L 6.00 63.77 L 6.00 63.25 L 6.00 62.72 L 6.00 62.20 L 5.98 61.70 L 5.85 61.30 L 5.55 61.08 L 5.09 61.01 L 4.57 61.00 L 4.05 61.00 L 3.56 61.03 Z" fill="rgb(96,4,3)" fill-rule="evenodd"/>
  <path d="M 174.06 97.14 L 173.63 97.41 L 173.23 97.77 L 172.85 98.15 L 172.45 98.52 L 172.03 98.81 L 171.55 98.95 L 171.02 98.99 L 170.48 99.00 L 169.93 99.00 L 169.39 99.00 L 168.85 99.00 L 168.30 99.00 L 167.76 99.02 L 167.25 99.09 L 166.79 99.30 L 166.38 99.60 L 165.94 99.87 L 165.46 100.02 L 164.98 100.18 L 164.55 100.46 L 164.13 100.75 L 163.66 100.93 L 163.15 100.99 L 162.66 101.00 L 162.42 101.00 L 162.59 101.00 L 163.04 101.00 L 163.57 101.00 L 164.12 101.00 L 164.66 101.00 L 165.20 100.99 L 165.71 100.91 L 166.18 100.72 L 166.60 100.42 L 167.03 100.16 L 167.52 100.03 L 168.06 100.00 L 168.60 100.00 L 169.14 100.01 L 169.66 100.07 L 170.13 100.25 L 170.55 100.54 L 170.98 100.81 L 171.47 100.96 L 171.99 100.99 L 172.54 101.00 L 173.08 101.00 L 173.62 101.00 L 174.17 101.00 L 174.71 101.00 L 175.26 101.00 L 175.80 101.00 L 176.32 100.97 L 176.72 100.84 L 176.93 100.50 L 176.99 100.02 L 177.00 99.48 L 176.99 98.94 L 176.94 98.42 L 176.79 97.94 L 176.48 97.53 L 176.08 97.23 L 175.61 97.06 L 175.08 97.01 L 174.55 97.02 Z M 193.20 93.20 L 193.03 93.58 L 193.00 94.09 L 193.00 94.62 L 193.00 95.17 L 193.00 95.71 L 193.00 96.25 L 193.00 96.79 L 193.03 97.30 L 193.16 97.71 L 193.48 97.91 L 193.91 97.86 L 194.34 97.61 L 194.73 97.26 L 195.12 96.88 L 195.51 96.52 L 195.93 96.22 L 196.40 96.06 L 196.92 96.01 L 197.46 96.00 L 198.00 96.00 L 198.54 96.00 L 199.07 95.99 L 199.54 95.92 L 199.84 95.69 L 199.90 95.30 L 199.74 94.86 L 199.43 94.45 L 199.06 94.06 L 198.67 93.68 L 198.27 93.34 L 197.83 93.11 L 197.32 93.02 L 196.79 93.00 L 196.25 93.00 L 195.71 93.00 L 195.17 93.00 L 194.62 93.00 L 194.09 93.00 L 193.58 93.03 Z M 25.06 83.15 L 24.60 83.41 L 24.16 83.72 L 23.67 83.92 L 23.13 83.99 L 22.57 84.00 L 22.00 84.00 L 21.43 84.00 L 20.86 84.00 L 20.29 84.00 L 19.73 84.02 L 19.20 84.11 L 18.73 84.34 L 18.29 84.65 L 17.83 84.90 L 17.41 85.10 L 17.14 85.39 L 17.13 85.82 L 17.35 86.27 L 17.70 86.69 L 18.10 87.10 L 18.50 87.50 L 18.90 87.90 L 19.30 88.30 L 19.71 88.71 L 20.11 89.11 L 20.49 89.52 L 20.80 89.96 L 20.99 90.43 L 21.21 90.80 L 21.62 90.97 L 22.16 91.00 L 22.72 91.00 L 23.26 90.97 L 23.70 90.83 L 23.92 90.49 L 24.00 89.99 L 24.05 89.45 L 24.21 88.95 L 24.50 88.50 L 24.79 88.05 L 24.97 87.56 L 25.14 87.06 L 25.43 86.62 L 25.84 86.28 L 26.30 86.06 L 26.70 85.85 L 26.92 85.49 L 26.98 84.99 L 26.94 84.45 L 26.78 83.95 L 26.47 83.53 L 26.05 83.22 L 25.56 83.08 Z M 222.19 79.20 L 222.03 79.57 L 222.00 80.07 L 222.00 80.60 L 222.00 81.14 L 222.00 81.67 L 222.00 82.21 L 222.00 82.74 L 222.02 83.25 L 222.14 83.67 L 222.43 83.89 L 222.85 83.87 L 223.27 83.65 L 223.63 83.31 L 223.88 82.88 L 223.98 82.39 L 223.99 81.87 L 223.93 81.36 L 223.76 80.89 L 223.48 80.47 L 223.20 80.06 L 223.02 79.61 L 222.84 79.24 L 222.51 79.09 Z M 151.20 79.20 L 151.03 79.59 L 150.99 80.12 L 150.92 80.65 L 150.74 81.13 L 150.44 81.57 L 150.18 82.01 L 150.08 82.50 L 150.18 82.99 L 150.47 83.41 L 150.87 83.74 L 151.33 83.90 L 151.72 83.82 L 151.93 83.49 L 152.00 82.99 L 152.05 82.46 L 152.20 81.97 L 152.51 81.55 L 152.92 81.23 L 153.38 81.03 L 153.75 80.83 L 153.91 80.46 L 153.82 80.01 L 153.53 79.59 L 153.13 79.26 L 152.65 79.08 L 152.12 79.01 L 151.59 79.04 Z M 32.20 78.20 L 32.03 78.59 L 31.99 79.11 L 31.93 79.64 L 31.75 80.12 L 31.46 80.55 L 31.18 80.99 L 31.04 81.49 L 31.01 82.03 L 31.00 82.58 L 31.00 83.14 L 31.00 83.69 L 30.98 84.24 L 30.90 84.76 L 30.68 85.23 L 30.34 85.64 L 29.96 86.04 L 29.58 86.44 L 29.27 86.86 L 29.10 87.31 L 29.17 87.70 L 29.48 87.90 L 29.93 87.85 L 30.37 87.61 L 30.79 87.30 L 31.26 87.11 L 31.75 87.11 L 32.20 87.31 L 32.59 87.65 L 32.87 88.08 L 33.05 88.52 L 33.28 88.82 L 33.61 88.86 L 33.85 88.64 L 33.84 88.32 L 33.55 88.07 L 33.12 87.89 L 32.69 87.62 L 32.34 87.24 L 32.11 86.79 L 32.02 86.27 L 32.00 85.72 L 32.00 85.17 L 32.00 84.61 L 32.00 84.06 L 32.04 83.52 L 32.17 83.01 L 32.44 82.57 L 32.74 82.14 L 32.92 81.66 L 32.99 81.13 L 33.02 80.59 L 33.14 80.08 L 33.39 79.64 L 33.69 79.21 L 33.88 78.76 L 33.85 78.35 L 33.56 78.10 L 33.10 78.02 L 32.59 78.04 Z M 191.19 77.21 L 191.03 77.60 L 190.99 78.12 L 190.92 78.65 L 190.74 79.13 L 190.41 79.54 L 189.98 79.83 L 189.48 79.96 L 188.93 80.00 L 188.37 80.00 L 187.82 80.01 L 187.29 80.09 L 186.82 80.29 L 186.39 80.62 L 185.99 81.01 L 185.61 81.41 L 185.28 81.83 L 185.09 82.31 L 185.01 82.84 L 185.00 83.40 L 185.01 83.95 L 185.04 84.50 L 185.18 85.00 L 185.46 85.45 L 185.75 85.89 L 185.93 86.37 L 185.99 86.91 L 186.00 87.46 L 185.99 88.02 L 185.94 88.56 L 185.79 89.05 L 185.48 89.47 L 185.06 89.78 L 184.58 89.92 L 184.09 89.86 L 183.64 89.61 L 183.20 89.30 L 182.73 89.09 L 182.20 89.02 L 181.66 89.02 L 181.14 89.12 L 180.68 89.37 L 180.25 89.67 L 179.80 89.91 L 179.38 90.11 L 179.09 90.40 L 178.90 90.83 L 178.66 91.28 L 178.35 91.71 L 178.13 92.16 L 178.13 92.58 L 178.38 92.87 L 178.82 92.98 L 179.36 93.02 L 179.87 93.13 L 180.32 93.39 L 180.67 93.77 L 180.91 94.23 L 181.07 94.72 L 181.29 95.19 L 181.60 95.62 L 181.86 96.07 L 181.98 96.58 L 182.00 97.14 L 182.00 97.69 L 182.02 98.25 L 182.10 98.77 L 182.33 99.23 L 182.69 99.61 L 183.13 99.87 L 183.65 99.98 L 184.19 100.01 L 184.72 100.09 L 185.20 100.30 L 185.63 100.60 L 186.08 100.86 L 186.60 100.98 L 187.15 101.00 L 187.71 101.00 L 188.27 101.00 L 188.83 101.00 L 189.39 101.00 L 189.95 101.00 L 190.51 101.00 L 191.07 101.00 L 191.63 101.00 L 192.19 101.00 L 192.75 101.00 L 193.31 101.00 L 193.86 101.00 L 194.36 101.00 L 194.59 101.00 L 194.38 101.00 L 193.89 100.99 L 193.36 100.93 L 192.88 100.75 L 192.44 100.45 L 192.00 100.17 L 191.51 100.00 L 191.02 99.84 L 190.59 99.54 L 190.27 99.13 L 190.08 98.65 L 190.01 98.12 L 189.98 97.57 L 189.86 97.06 L 189.59 96.61 L 189.29 96.18 L 189.09 95.70 L 189.02 95.17 L 189.02 94.63 L 189.13 94.11 L 189.38 93.66 L 189.69 93.22 L 189.92 92.76 L 190.08 92.27 L 190.30 91.80 L 190.61 91.36 L 190.86 90.91 L 190.98 90.40 L 190.99 89.85 L 190.92 89.32 L 190.72 88.84 L 190.42 88.41 L 190.15 87.96 L 190.03 87.45 L 190.00 86.90 L 190.00 86.34 L 190.02 85.79 L 190.10 85.26 L 190.31 84.79 L 190.65 84.37 L 191.03 83.97 L 191.43 83.59 L 191.86 83.27 L 192.34 83.08 L 192.87 83.01 L 193.39 82.97 L 193.78 82.80 L 193.91 82.43 L 193.80 81.97 L 193.52 81.53 L 193.23 81.09 L 193.06 80.60 L 193.01 80.06 L 192.96 79.52 L 192.83 79.02 L 192.56 78.57 L 192.26 78.13 L 192.05 77.68 L 191.85 77.29 L 191.52 77.11 Z M 210.06 66.14 L 209.63 66.39 L 209.22 66.69 L 208.79 66.92 L 208.38 67.09 L 208.13 67.37 L 208.11 67.77 L 208.30 68.20 L 208.63 68.58 L 209.04 68.85 L 209.53 68.97 L 210.05 69.00 L 210.58 69.00 L 211.11 68.99 L 211.56 68.91 L 211.86 68.67 L 211.98 68.25 L 212.00 67.74 L 212.00 67.21 L 211.97 66.70 L 211.85 66.29 L 211.53 66.08 L 211.06 66.01 L 210.54 66.02 Z M 129.05 52.15 L 128.61 52.40 L 128.19 52.71 L 127.72 52.91 L 127.20 52.99 L 126.65 53.00 L 126.10 53.00 L 125.55 53.00 L 125.01 53.01 L 124.52 53.07 L 124.18 53.26 L 124.13 53.59 L 124.34 53.88 L 124.74 54.07 L 125.19 54.29 L 125.58 54.63 L 125.87 55.05 L 126.04 55.50 L 126.27 55.82 L 126.66 55.90 L 127.11 55.76 L 127.54 55.47 L 127.97 55.19 L 128.43 55.01 L 128.81 54.81 L 129.01 54.43 L 129.19 53.97 L 129.47 53.54 L 129.76 53.11 L 129.90 52.66 L 129.82 52.27 L 129.50 52.09 Z M 216.20 45.19 L 216.07 45.55 L 216.17 46.00 L 216.45 46.41 L 216.84 46.73 L 217.29 46.92 L 217.80 46.99 L 218.33 47.00 L 218.86 47.00 L 219.39 46.98 L 219.88 46.88 L 220.31 46.63 L 220.65 46.27 L 220.87 45.85 L 220.89 45.43 L 220.67 45.14 L 220.25 45.02 L 219.74 45.00 L 219.21 45.00 L 218.67 45.00 L 218.14 45.00 L 217.60 45.00 L 217.07 45.00 L 216.57 45.03 Z M 237.20 41.19 L 237.07 41.55 L 237.17 42.00 L 237.45 42.40 L 237.83 42.72 L 238.28 42.92 L 238.79 42.99 L 239.32 43.00 L 239.85 43.00 L 240.38 43.00 L 240.91 43.00 L 241.45 43.00 L 241.98 43.00 L 242.50 43.03 L 242.98 43.16 L 243.40 43.42 L 243.81 43.71 L 244.24 43.89 L 244.64 43.86 L 244.89 43.60 L 244.98 43.16 L 244.97 42.67 L 244.84 42.27 L 244.51 42.07 L 244.03 42.01 L 243.51 42.00 L 242.98 42.00 L 242.45 42.00 L 241.92 41.99 L 241.40 41.94 L 240.93 41.79 L 240.52 41.51 L 240.10 41.23 L 239.64 41.07 L 239.13 41.01 L 238.60 41.00 L 238.07 41.00 L 237.57 41.03 Z M 5.07 31.58 L 4.06 32.20 L 3.35 33.33 L 3.06 34.70 L 3.00 36.18 L 3.00 37.68 L 3.00 39.18 L 3.00 40.68 L 3.00 42.19 L 3.00 43.69 L 3.00 45.19 L 3.00 46.69 L 3.00 48.19 L 3.00 49.70 L 3.00 51.20 L 3.00 52.70 L 3.00 54.20 L 3.00 55.70 L 3.02 57.18 L 3.16 58.55 L 3.68 59.53 L 4.73 60.04 L 5.88 60.54 L 6.65 61.49 L 6.95 62.83 L 7.06 64.28 L 7.35 65.65 L 8.05 66.79 L 9.10 67.45 L 10.31 67.45 L 11.56 66.98 L 12.80 66.54 L 14.02 66.58 L 15.16 67.23 L 16.28 68.12 L 17.45 68.92 L 18.70 69.54 L 19.97 70.04 L 21.11 70.67 L 22.05 71.57 L 23.02 72.42 L 24.24 72.91 L 25.59 73.24 L 26.93 73.64 L 28.32 73.91 L 29.77 74.02 L 31.20 74.19 L 32.56 74.54 L 33.86 74.99 L 35.05 75.55 L 36.04 76.31 L 36.97 77.14 L 37.87 78.03 L 38.71 78.96 L 39.51 79.94 L 40.22 81.07 L 40.89 82.28 L 41.46 83.54 L 41.88 84.84 L 42.30 86.01 L 43.04 86.85 L 43.99 87.56 L 44.68 88.59 L 44.91 89.92 L 44.78 91.33 L 44.44 92.69 L 44.10 94.04 L 43.72 95.35 L 43.01 96.37 L 41.93 97.04 L 40.96 97.66 L 40.67 98.29 L 41.26 98.51 L 42.33 98.43 L 43.56 98.51 L 44.79 98.49 L 45.97 97.98 L 47.19 97.37 L 48.53 97.15 L 49.78 97.45 L 50.63 98.33 L 51.07 99.53 L 51.64 100.50 L 52.72 100.91 L 54.13 100.98 L 55.50 100.86 L 56.48 100.37 L 56.77 99.41 L 56.35 98.49 L 55.28 98.05 L 53.96 97.79 L 52.87 97.20 L 52.28 96.14 L 52.28 94.87 L 52.85 93.83 L 53.88 93.37 L 55.02 93.59 L 56.05 94.21 L 57.09 94.62 L 58.29 94.54 L 59.60 94.20 L 60.97 93.90 L 62.31 93.61 L 63.53 93.52 L 64.56 93.96 L 65.52 94.65 L 66.62 95.25 L 67.71 95.99 L 68.39 96.99 L 68.27 98.01 L 67.39 98.73 L 66.20 99.16 L 65.12 99.70 L 64.16 100.38 L 63.38 100.83 L 63.30 100.98 L 64.18 101.00 L 65.57 101.00 L 67.06 101.00 L 68.56 101.00 L 70.06 101.00 L 71.56 101.00 L 73.07 101.00 L 74.57 101.00 L 76.07 101.00 L 77.57 101.00 L 79.07 101.00 L 80.57 101.00 L 82.08 101.00 L 83.58 101.00 L 85.08 101.00 L 86.58 101.00 L 88.08 101.00 L 89.59 101.00 L 91.09 101.00 L 92.59 101.00 L 94.09 101.00 L 95.59 101.00 L 97.09 101.00 L 98.60 101.00 L 100.10 101.00 L 101.60 101.00 L 103.10 101.00 L 104.60 101.00 L 106.11 101.00 L 107.61 101.00 L 109.11 101.00 L 110.61 101.00 L 112.11 101.00 L 113.61 101.00 L 115.12 101.00 L 116.62 101.00 L 118.12 101.00 L 119.62 101.00 L 121.12 101.00 L 122.63 101.00 L 124.13 101.00 L 125.62 101.00 L 127.01 100.95 L 127.94 100.67 L 128.14 99.93 L 127.84 98.84 L 127.19 97.87 L 126.18 97.51 L 124.95 97.70 L 123.58 97.91 L 122.15 97.86 L 120.77 97.59 L 119.48 97.32 L 118.39 97.53 L 117.60 98.39 L 116.91 99.49 L 116.03 100.30 L 114.95 100.38 L 113.83 99.74 L 112.78 98.74 L 111.83 97.64 L 111.05 96.46 L 110.55 95.25 L 110.61 94.13 L 111.40 93.41 L 112.62 93.32 L 113.93 93.64 L 115.23 93.83 L 116.21 93.55 L 116.46 92.71 L 116.21 91.50 L 115.90 90.16 L 115.43 88.85 L 114.61 87.69 L 113.58 86.64 L 112.45 85.76 L 111.17 85.23 L 109.75 85.04 L 108.31 85.05 L 107.03 85.30 L 106.07 85.95 L 105.52 86.98 L 105.48 88.21 L 105.71 89.50 L 105.63 90.80 L 105.11 92.03 L 104.34 93.07 L 103.29 93.64 L 102.06 93.52 L 100.91 92.80 L 99.90 91.80 L 98.98 90.92 L 98.03 90.54 L 96.93 90.59 L 95.71 90.46 L 94.49 89.93 L 93.38 89.12 L 92.65 88.11 L 92.66 87.10 L 93.43 86.53 L 94.58 86.56 L 95.69 86.69 L 96.22 86.51 L 95.77 86.16 L 94.66 85.78 L 93.49 85.15 L 92.64 84.16 L 92.35 82.94 L 92.71 81.72 L 93.53 80.70 L 94.33 79.80 L 94.55 78.87 L 94.10 77.94 L 93.46 76.89 L 93.17 75.63 L 93.39 74.36 L 94.21 73.46 L 95.48 73.09 L 96.94 73.01 L 98.41 73.07 L 99.72 73.41 L 100.59 74.27 L 100.94 75.56 L 101.06 76.97 L 101.39 78.10 L 102.17 78.57 L 103.16 78.25 L 104.06 77.42 L 104.98 76.69 L 105.99 76.66 L 106.91 77.37 L 107.77 78.17 L 108.62 78.33 L 109.26 77.63 L 109.48 76.52 L 109.14 75.34 L 108.55 74.13 L 108.31 72.85 L 108.49 71.55 L 108.65 70.34 L 108.27 69.40 L 107.38 68.73 L 106.66 67.93 L 106.72 66.98 L 107.52 66.22 L 108.39 65.54 L 108.62 64.56 L 108.18 63.40 L 107.44 62.32 L 106.64 61.66 L 105.89 61.80 L 105.64 62.51 L 106.09 63.37 L 106.62 64.43 L 106.58 65.62 L 105.82 66.51 L 104.57 66.91 L 103.17 67.05 L 102.03 67.34 L 101.55 68.03 L 101.56 69.05 L 101.24 70.06 L 100.27 70.72 L 98.91 70.95 L 97.43 71.00 L 95.93 70.99 L 94.46 70.93 L 93.07 70.71 L 91.79 70.46 L 90.54 70.59 L 89.29 71.07 L 88.08 71.47 L 87.02 71.29 L 86.38 70.42 L 86.44 69.24 L 87.15 68.23 L 88.05 67.36 L 88.49 66.35 L 88.45 65.17 L 88.59 63.96 L 89.26 62.81 L 90.15 61.69 L 91.00 60.57 L 91.89 59.58 L 92.85 58.74 L 93.45 57.75 L 93.38 56.60 L 92.76 55.56 L 91.78 54.80 L 90.58 54.34 L 89.35 54.42 L 88.35 55.14 L 87.68 56.28 L 87.21 57.58 L 86.86 58.91 L 86.29 60.05 L 85.26 60.72 L 83.92 60.90 L 82.57 60.68 L 81.50 60.01 L 80.67 59.12 L 79.88 58.67 L 79.29 59.14 L 79.03 60.32 L 78.87 61.70 L 78.44 62.87 L 77.60 63.40 L 76.72 63.02 L 76.19 61.94 L 76.00 60.57 L 75.79 59.32 L 75.23 58.63 L 74.21 58.64 L 72.91 58.92 L 71.56 59.27 L 70.32 59.87 L 69.20 60.65 L 68.24 61.50 L 67.57 62.58 L 67.14 63.87 L 66.77 65.18 L 66.14 66.17 L 65.20 66.40 L 64.41 65.73 L 64.05 64.48 L 63.82 63.10 L 63.29 61.95 L 62.31 61.19 L 61.17 60.58 L 60.30 59.70 L 59.63 58.77 L 58.71 58.36 L 57.50 58.50 L 56.21 58.69 L 54.93 58.45 L 53.77 57.69 L 52.68 56.72 L 51.61 55.90 L 50.70 55.69 L 50.14 56.35 L 49.78 57.55 L 49.38 58.87 L 49.06 60.24 L 48.73 61.60 L 48.22 62.87 L 47.50 63.97 L 46.47 64.71 L 45.29 65.16 L 44.40 65.81 L 43.92 66.90 L 43.41 68.14 L 42.55 69.18 L 41.43 70.02 L 40.27 70.80 L 39.09 71.41 L 37.85 71.51 L 36.55 71.24 L 35.14 71.04 L 33.69 70.94 L 32.37 70.62 L 31.46 69.79 L 31.11 68.53 L 31.14 67.12 L 31.36 65.80 L 31.41 64.71 L 30.98 63.80 L 30.51 62.78 L 30.46 61.63 L 30.35 60.68 L 29.60 60.22 L 28.38 60.29 L 27.07 60.68 L 25.75 61.10 L 24.42 61.51 L 23.06 61.80 L 21.69 61.76 L 20.37 61.38 L 19.12 60.77 L 17.99 59.90 L 16.98 58.85 L 16.15 57.70 L 15.55 56.45 L 15.17 55.10 L 14.95 53.72 L 14.56 52.55 L 13.70 51.79 L 12.55 51.48 L 11.30 51.58 L 9.99 51.71 L 8.69 51.48 L 7.49 50.89 L 6.58 49.98 L 6.09 48.76 L 5.70 47.43 L 5.09 46.19 L 4.48 44.97 L 4.36 43.74 L 4.94 42.73 L 6.01 42.13 L 7.15 41.67 L 8.07 40.92 L 8.86 39.89 L 9.68 38.89 L 10.72 38.17 L 11.81 37.58 L 12.35 36.83 L 12.05 35.97 L 11.28 35.10 L 10.35 34.38 L 9.19 33.93 L 8.01 33.42 L 7.04 32.57 L 6.13 31.76 Z M 74.16 97.06 L 74.44 96.62 L 74.86 96.28 L 75.35 96.08 L 75.90 96.01 L 76.47 96.00 L 77.05 96.00 L 77.63 96.00 L 78.20 96.02 L 78.74 96.10 L 79.22 96.33 L 79.61 96.70 L 79.87 97.16 L 79.98 97.69 L 80.00 98.26 L 80.00 98.84 L 79.97 99.40 L 79.85 99.93 L 79.56 100.38 L 79.15 100.72 L 78.66 100.90 L 78.16 100.86 L 77.69 100.62 L 77.26 100.26 L 76.85 99.85 L 76.44 99.47 L 75.98 99.17 L 75.48 98.99 L 74.98 98.80 L 74.55 98.49 L 74.23 98.06 L 74.08 97.56 Z M 91.00 96.00 L 91.37 95.64 L 91.76 95.32 L 92.19 95.11 L 92.65 95.08 L 93.09 95.23 L 93.48 95.52 L 93.77 95.91 L 93.92 96.35 L 93.89 96.81 L 93.68 97.24 L 93.36 97.63 L 93.00 98.00 L 92.63 98.36 L 92.24 98.68 L 91.81 98.89 L 91.35 98.92 L 90.91 98.77 L 90.52 98.48 L 90.23 98.09 L 90.08 97.65 L 90.11 97.19 L 90.32 96.76 L 90.64 96.37 Z M 109.00 89.00 L 109.45 88.58 L 109.92 88.25 L 110.45 88.11 L 110.98 88.20 L 111.45 88.51 L 111.77 88.97 L 111.89 89.50 L 111.78 90.03 L 111.46 90.51 L 111.04 90.96 L 110.62 91.40 L 110.27 91.88 L 110.05 92.40 L 109.85 92.94 L 109.53 93.41 L 109.08 93.75 L 108.55 93.89 L 108.02 93.80 L 107.55 93.49 L 107.23 93.03 L 107.11 92.50 L 107.22 91.97 L 107.52 91.48 L 107.82 90.99 L 108.03 90.45 L 108.24 89.92 L 108.58 89.45 Z M 63.14 86.05 L 63.44 85.62 L 63.85 85.28 L 64.35 85.08 L 64.89 85.02 L 65.45 85.03 L 65.97 85.17 L 66.42 85.46 L 66.84 85.84 L 67.25 86.25 L 67.65 86.65 L 68.06 87.06 L 68.45 87.48 L 68.77 87.92 L 68.97 88.39 L 69.19 88.78 L 69.57 89.01 L 70.04 89.20 L 70.49 89.49 L 70.95 89.78 L 71.45 89.92 L 71.95 89.84 L 72.41 89.58 L 72.86 89.27 L 73.36 89.08 L 73.90 89.01 L 74.47 89.00 L 75.04 89.01 L 75.60 89.07 L 76.10 89.25 L 76.52 89.57 L 76.82 90.01 L 76.96 90.53 L 76.98 91.08 L 76.92 91.63 L 76.74 92.13 L 76.43 92.58 L 76.15 93.04 L 75.98 93.54 L 75.79 94.04 L 75.48 94.47 L 75.05 94.78 L 74.54 94.94 L 73.99 94.98 L 73.44 94.94 L 72.93 94.77 L 72.51 94.45 L 72.19 94.02 L 72.00 93.56 L 71.77 93.18 L 71.37 92.97 L 70.90 92.76 L 70.45 92.46 L 69.99 92.18 L 69.47 92.04 L 68.91 92.00 L 68.34 92.00 L 67.76 92.00 L 67.19 92.00 L 66.62 91.98 L 66.10 91.86 L 65.63 91.59 L 65.21 91.21 L 64.81 90.81 L 64.39 90.43 L 63.93 90.15 L 63.43 90.09 L 62.93 90.23 L 62.48 90.52 L 62.02 90.80 L 61.51 90.95 L 60.95 90.98 L 60.40 90.93 L 59.90 90.75 L 59.48 90.43 L 59.18 89.99 L 59.04 89.47 L 59.02 88.92 L 59.08 88.37 L 59.27 87.88 L 59.60 87.46 L 60.04 87.16 L 60.56 87.03 L 61.12 87.00 L 61.70 87.00 L 62.25 86.97 L 62.69 86.84 L 62.94 86.50 Z M 87.14 74.06 L 87.42 73.63 L 87.82 73.29 L 88.29 73.09 L 88.81 73.02 L 89.36 73.02 L 89.87 73.13 L 90.31 73.38 L 90.67 73.76 L 90.89 74.22 L 90.98 74.73 L 91.00 75.28 L 91.00 75.84 L 91.00 76.39 L 91.00 76.95 L 91.00 77.51 L 91.00 78.06 L 91.00 78.62 L 91.00 79.17 L 91.00 79.73 L 90.98 80.28 L 90.89 80.79 L 90.66 81.25 L 90.30 81.62 L 89.87 81.89 L 89.44 82.07 L 89.14 82.34 L 89.02 82.78 L 89.00 83.31 L 89.00 83.87 L 89.00 84.42 L 88.99 84.98 L 88.96 85.52 L 88.81 86.01 L 88.52 86.43 L 88.11 86.75 L 87.64 86.91 L 87.15 86.87 L 86.69 86.64 L 86.26 86.34 L 85.80 86.11 L 85.29 86.02 L 84.74 86.02 L 84.22 86.10 L 83.76 86.32 L 83.33 86.63 L 82.88 86.86 L 82.39 86.91 L 81.92 86.76 L 81.51 86.45 L 81.20 86.04 L 81.05 85.54 L 81.01 85.01 L 81.00 84.45 L 81.00 83.90 L 81.00 83.34 L 81.02 82.79 L 81.09 82.27 L 81.30 81.80 L 81.63 81.38 L 82.02 80.99 L 82.41 80.61 L 82.83 80.28 L 83.31 80.08 L 83.83 80.01 L 84.38 80.00 L 84.94 80.00 L 85.49 80.00 L 86.05 79.99 L 86.58 79.94 L 87.07 79.78 L 87.48 79.47 L 87.79 79.05 L 87.94 78.56 L 87.99 78.03 L 87.96 77.49 L 87.82 76.99 L 87.54 76.55 L 87.25 76.12 L 87.07 75.64 L 87.01 75.11 L 87.03 74.57 Z M 56.16 70.06 L 56.45 69.61 L 56.87 69.27 L 57.37 69.08 L 57.93 69.01 L 58.51 69.00 L 59.10 69.00 L 59.68 69.00 L 60.26 69.02 L 60.80 69.12 L 61.28 69.37 L 61.65 69.76 L 61.91 70.23 L 62.09 70.74 L 62.32 71.23 L 62.63 71.69 L 62.86 72.17 L 62.89 72.68 L 62.70 73.17 L 62.37 73.61 L 61.96 74.03 L 61.55 74.45 L 61.14 74.86 L 60.73 75.28 L 60.37 75.71 L 60.10 76.19 L 59.93 76.70 L 59.70 77.19 L 59.39 77.65 L 59.15 78.12 L 59.10 78.64 L 59.27 79.13 L 59.58 79.59 L 59.84 80.06 L 59.91 80.57 L 59.76 81.07 L 59.44 81.50 L 58.99 81.81 L 58.47 81.96 L 57.90 82.00 L 57.32 82.00 L 56.74 81.98 L 56.20 81.88 L 55.71 81.63 L 55.28 81.27 L 54.86 80.86 L 54.47 80.44 L 54.17 79.98 L 54.04 79.45 L 54.00 78.88 L 54.00 78.29 L 54.00 77.71 L 54.00 77.12 L 54.04 76.55 L 54.18 76.02 L 54.48 75.58 L 54.91 75.25 L 55.38 75.03 L 55.78 74.81 L 56.01 74.42 L 56.22 73.94 L 56.51 73.48 L 56.80 73.02 L 56.91 72.51 L 56.81 72.00 L 56.53 71.54 L 56.24 71.07 L 56.09 70.57 Z M 82.14 66.05 L 82.44 65.62 L 82.85 65.28 L 83.34 65.10 L 83.84 65.14 L 84.30 65.38 L 84.66 65.77 L 84.89 66.24 L 84.98 66.78 L 85.00 67.35 L 85.00 67.92 L 85.00 68.50 L 84.99 69.07 L 84.93 69.62 L 84.74 70.12 L 84.41 70.54 L 83.97 70.83 L 83.45 70.97 L 82.89 71.00 L 82.31 71.00 L 81.74 71.00 L 81.16 71.00 L 80.60 71.03 L 80.07 71.14 L 79.61 71.41 L 79.16 71.72 L 78.67 71.90 L 78.17 71.86 L 77.71 71.62 L 77.34 71.24 L 77.12 70.77 L 77.12 70.27 L 77.32 69.79 L 77.66 69.36 L 78.05 68.95 L 78.46 68.54 L 78.87 68.13 L 79.28 67.73 L 79.70 67.37 L 80.17 67.12 L 80.71 67.02 L 81.25 66.97 L 81.69 66.84 L 81.94 66.50 Z M 21.06 15.16 L 20.59 15.45 L 20.15 15.85 L 19.73 16.27 L 19.30 16.70 L 18.88 17.12 L 18.46 17.54 L 18.03 17.97 L 17.61 18.39 L 17.18 18.82 L 16.76 19.24 L 16.34 19.66 L 15.91 20.09 L 15.49 20.51 L 15.06 20.94 L 14.64 21.36 L 14.21 21.79 L 13.79 22.21 L 13.37 22.63 L 12.94 23.06 L 12.52 23.48 L 12.09 23.91 L 11.67 24.33 L 11.25 24.75 L 10.82 25.18 L 10.40 25.60 L 9.98 26.03 L 9.57 26.46 L 9.25 26.92 L 9.11 27.40 L 9.24 27.79 L 9.66 27.96 L 10.22 28.00 L 10.82 28.00 L 11.42 28.00 L 12.02 28.00 L 12.62 28.00 L 13.21 27.98 L 13.77 27.88 L 14.27 27.65 L 14.74 27.34 L 15.24 27.13 L 15.76 27.13 L 16.25 27.36 L 16.64 27.75 L 16.91 28.21 L 17.13 28.64 L 17.48 28.87 L 17.94 28.83 L 18.41 28.57 L 18.88 28.27 L 19.39 28.10 L 19.92 28.16 L 20.39 28.44 L 20.83 28.83 L 21.26 29.24 L 21.70 29.62 L 22.17 29.85 L 22.61 29.84 L 22.91 29.55 L 23.12 29.10 L 23.41 28.63 L 23.71 28.16 L 23.92 27.64 L 23.99 27.07 L 24.05 26.50 L 24.22 25.97 L 24.54 25.52 L 24.99 25.20 L 25.53 25.04 L 26.11 24.99 L 26.67 24.91 L 27.18 24.70 L 27.66 24.39 L 28.14 24.12 L 28.67 23.93 L 29.17 23.71 L 29.64 23.40 L 30.14 23.14 L 30.69 23.02 L 31.25 22.97 L 31.70 22.82 L 31.92 22.45 L 31.97 21.93 L 31.88 21.44 L 31.60 21.11 L 31.15 20.89 L 30.68 20.62 L 30.21 20.31 L 29.71 20.08 L 29.18 19.89 L 28.69 19.63 L 28.22 19.32 L 27.71 19.10 L 27.15 19.02 L 26.55 19.00 L 25.96 18.99 L 25.39 18.92 L 24.87 18.72 L 24.44 18.37 L 24.14 17.91 L 23.95 17.39 L 23.73 16.88 L 23.40 16.42 L 22.99 15.99 L 22.56 15.58 L 22.10 15.25 L 21.58 15.10 Z M 73.18 4.18 L 73.06 4.50 L 73.18 4.82 L 73.53 4.97 L 74.00 5.00 L 74.50 5.00 L 75.00 5.00 L 75.50 5.00 L 76.00 5.00 L 76.50 5.00 L 77.00 5.00 L 77.50 5.00 L 78.00 5.00 L 78.50 5.00 L 79.00 5.00 L 79.50 5.00 L 80.00 5.00 L 80.47 4.97 L 80.82 4.82 L 80.94 4.50 L 80.82 4.18 L 80.47 4.03 L 80.00 4.00 L 79.50 4.00 L 79.00 4.00 L 78.50 4.00 L 78.00 4.00 L 77.50 4.00 L 77.00 4.00 L 76.50 4.00 L 76.00 4.00 L 75.50 4.00 L 75.00 4.00 L 74.50 4.00 L 74.00 4.00 L 73.53 4.03 Z" fill="rgb(176,3,3)" fill-rule="evenodd"/>
  <path d="M 75.20 97.19 L 75.09 97.51 L 75.24 97.84 L 75.61 98.02 L 76.06 98.20 L 76.47 98.49 L 76.85 98.85 L 77.23 99.23 L 77.62 99.59 L 78.04 99.85 L 78.48 99.92 L 78.82 99.77 L 78.97 99.38 L 79.00 98.88 L 79.00 98.35 L 78.98 97.83 L 78.89 97.39 L 78.62 97.12 L 78.19 97.02 L 77.67 97.00 L 77.14 97.00 L 76.60 97.00 L 76.07 97.00 L 75.57 97.03 Z M 190.20 94.20 L 190.03 94.58 L 190.01 95.08 L 190.06 95.60 L 190.22 96.07 L 190.50 96.50 L 190.78 96.93 L 190.94 97.40 L 190.99 97.92 L 191.03 98.42 L 191.19 98.81 L 191.56 99.01 L 192.01 99.18 L 192.44 99.45 L 192.86 99.74 L 193.32 99.92 L 193.84 99.99 L 194.37 100.02 L 194.87 100.12 L 195.31 100.36 L 195.73 100.66 L 196.16 100.87 L 196.58 100.88 L 196.87 100.65 L 196.98 100.23 L 197.02 99.71 L 197.10 99.21 L 197.33 98.76 L 197.67 98.39 L 198.09 98.12 L 198.52 97.95 L 198.83 97.73 L 198.88 97.40 L 198.67 97.15 L 198.35 97.14 L 198.09 97.40 L 197.91 97.81 L 197.67 98.24 L 197.33 98.61 L 196.90 98.87 L 196.40 98.98 L 195.87 99.00 L 195.33 99.00 L 194.79 99.00 L 194.25 99.00 L 193.71 98.98 L 193.21 98.90 L 192.76 98.67 L 192.39 98.33 L 192.13 97.90 L 192.02 97.40 L 192.00 96.87 L 192.00 96.33 L 192.00 95.79 L 192.00 95.25 L 191.98 94.73 L 191.85 94.31 L 191.54 94.08 L 191.07 94.01 L 190.57 94.04 Z M 54.18 94.20 L 53.99 94.56 L 53.82 95.01 L 53.55 95.44 L 53.26 95.86 L 53.10 96.31 L 53.16 96.70 L 53.47 96.92 L 53.95 96.99 L 54.48 97.00 L 55.02 97.00 L 55.57 97.00 L 56.10 97.01 L 56.63 97.07 L 57.10 97.24 L 57.50 97.55 L 57.79 97.96 L 57.95 98.43 L 58.00 98.95 L 58.05 99.45 L 58.23 99.82 L 58.62 99.97 L 59.13 100.00 L 59.67 100.00 L 60.22 100.00 L 60.76 100.00 L 61.31 100.00 L 61.85 100.00 L 62.39 100.00 L 62.93 100.00 L 63.44 99.96 L 63.82 99.79 L 64.01 99.42 L 64.19 98.97 L 64.49 98.56 L 64.89 98.25 L 65.36 98.07 L 65.88 98.01 L 66.41 98.00 L 66.95 97.99 L 67.45 97.95 L 67.81 97.77 L 67.92 97.40 L 67.79 96.95 L 67.50 96.55 L 67.10 96.24 L 66.62 96.07 L 66.10 96.01 L 65.57 95.98 L 65.08 95.86 L 64.65 95.60 L 64.31 95.22 L 64.08 94.78 L 63.90 94.37 L 63.61 94.13 L 63.20 94.12 L 62.76 94.32 L 62.34 94.62 L 61.90 94.87 L 61.40 94.98 L 60.87 95.00 L 60.33 95.00 L 59.79 95.01 L 59.28 95.09 L 58.81 95.29 L 58.39 95.59 L 57.96 95.85 L 57.47 95.97 L 56.94 95.99 L 56.41 95.94 L 55.94 95.78 L 55.53 95.48 L 55.22 95.08 L 55.03 94.63 L 54.84 94.26 L 54.52 94.09 Z M 60.21 88.20 L 60.08 88.57 L 60.20 89.03 L 60.50 89.44 L 60.90 89.76 L 61.38 89.91 L 61.87 89.87 L 62.32 89.63 L 62.74 89.33 L 63.20 89.12 L 63.69 89.10 L 64.16 89.28 L 64.59 89.57 L 65.03 89.84 L 65.53 89.97 L 66.07 90.01 L 66.60 90.06 L 67.09 90.23 L 67.52 90.52 L 67.96 90.80 L 68.45 90.95 L 68.99 91.00 L 69.52 91.04 L 70.02 91.19 L 70.46 91.47 L 70.89 91.76 L 71.37 91.95 L 71.85 92.11 L 72.29 92.37 L 72.66 92.74 L 72.91 93.18 L 73.09 93.60 L 73.38 93.88 L 73.83 93.98 L 74.34 93.97 L 74.75 93.82 L 74.97 93.48 L 75.15 93.03 L 75.42 92.59 L 75.72 92.16 L 75.92 91.69 L 75.98 91.16 L 75.97 90.64 L 75.82 90.24 L 75.45 90.05 L 74.94 90.01 L 74.39 90.00 L 73.84 90.01 L 73.32 90.08 L 72.84 90.27 L 72.41 90.57 L 71.97 90.84 L 71.48 90.93 L 71.00 90.82 L 70.56 90.55 L 70.13 90.25 L 69.65 90.05 L 69.17 89.89 L 68.72 89.64 L 68.36 89.27 L 68.10 88.84 L 67.91 88.42 L 67.63 88.13 L 67.19 88.02 L 66.65 88.00 L 66.10 88.00 L 65.55 88.00 L 64.99 88.00 L 64.44 88.00 L 63.88 88.00 L 63.33 88.00 L 62.77 88.00 L 62.22 88.00 L 61.66 88.00 L 61.11 88.00 L 60.59 88.03 Z M 88.06 80.14 L 87.62 80.40 L 87.20 80.70 L 86.74 80.91 L 86.23 80.99 L 85.71 81.02 L 85.30 81.15 L 85.06 81.47 L 84.88 81.90 L 84.61 82.32 L 84.24 82.67 L 83.79 82.90 L 83.28 82.98 L 82.77 83.02 L 82.34 83.14 L 82.11 83.43 L 82.13 83.86 L 82.36 84.28 L 82.72 84.64 L 83.16 84.88 L 83.67 84.98 L 84.20 85.00 L 84.75 85.00 L 85.29 85.02 L 85.79 85.11 L 86.25 85.33 L 86.67 85.63 L 87.10 85.86 L 87.53 85.90 L 87.85 85.70 L 87.97 85.28 L 88.00 84.76 L 88.00 84.22 L 88.00 83.67 L 88.00 83.13 L 88.02 82.59 L 88.13 82.09 L 88.40 81.66 L 88.77 81.32 L 89.21 81.08 L 89.62 80.90 L 89.86 80.63 L 89.84 80.31 L 89.55 80.09 L 89.08 80.01 L 88.55 80.03 Z M 34.21 76.21 L 34.11 76.53 L 34.30 76.85 L 34.70 77.05 L 35.15 77.28 L 35.56 77.62 L 35.84 78.05 L 35.92 78.55 L 35.79 79.04 L 35.48 79.46 L 35.07 79.78 L 34.60 79.98 L 34.22 80.19 L 34.04 80.59 L 33.99 81.11 L 33.92 81.65 L 33.73 82.14 L 33.43 82.58 L 33.16 83.03 L 33.03 83.55 L 33.00 84.10 L 33.00 84.67 L 33.00 85.23 L 33.00 85.80 L 32.98 86.36 L 32.87 86.88 L 32.60 87.33 L 32.21 87.68 L 31.74 87.92 L 31.25 88.08 L 30.77 88.32 L 30.33 88.62 L 29.88 88.86 L 29.38 88.91 L 28.89 88.75 L 28.45 88.46 L 28.00 88.18 L 27.49 88.04 L 26.94 88.01 L 26.40 88.07 L 25.90 88.24 L 25.49 88.57 L 25.19 89.00 L 25.08 89.49 L 25.18 89.98 L 25.45 90.44 L 25.74 90.88 L 25.90 91.36 L 25.86 91.86 L 25.63 92.32 L 25.33 92.76 L 25.12 93.23 L 25.11 93.73 L 25.31 94.20 L 25.64 94.63 L 26.03 95.03 L 26.42 95.44 L 26.74 95.88 L 26.95 96.36 L 27.11 96.85 L 27.38 97.30 L 27.77 97.67 L 28.23 97.91 L 28.72 98.08 L 29.20 98.30 L 29.62 98.64 L 30.03 99.03 L 30.44 99.42 L 30.87 99.74 L 31.36 99.92 L 31.90 99.99 L 32.46 100.00 L 33.03 100.00 L 33.60 100.00 L 34.17 100.00 L 34.73 100.00 L 35.30 100.00 L 35.87 100.00 L 36.42 99.97 L 36.94 99.85 L 37.40 99.59 L 37.84 99.28 L 38.30 99.06 L 38.70 98.85 L 38.92 98.50 L 39.00 98.00 L 39.05 97.46 L 39.21 96.96 L 39.52 96.54 L 39.94 96.22 L 40.43 96.06 L 40.97 96.00 L 41.48 95.93 L 41.84 95.72 L 42.05 95.32 L 42.26 94.86 L 42.57 94.42 L 42.84 93.97 L 42.97 93.45 L 43.00 92.90 L 43.00 92.33 L 43.02 91.77 L 43.10 91.24 L 43.32 90.76 L 43.63 90.32 L 43.87 89.86 L 43.98 89.34 L 43.97 88.80 L 43.86 88.35 L 43.54 88.10 L 43.06 88.01 L 42.52 87.96 L 42.02 87.82 L 41.58 87.53 L 41.26 87.11 L 41.07 86.62 L 41.01 86.08 L 41.00 85.52 L 40.99 84.96 L 40.94 84.41 L 40.77 83.92 L 40.47 83.47 L 40.19 83.02 L 40.01 82.53 L 39.84 82.03 L 39.57 81.58 L 39.26 81.14 L 39.05 80.68 L 38.84 80.28 L 38.49 80.04 L 38.03 79.85 L 37.61 79.55 L 37.27 79.14 L 37.05 78.69 L 36.84 78.28 L 36.50 78.04 L 36.04 77.86 L 35.61 77.56 L 35.28 77.15 L 35.05 76.70 L 34.85 76.30 L 34.53 76.11 Z M 34.14 94.06 L 34.41 93.64 L 34.80 93.30 L 35.26 93.09 L 35.77 93.02 L 36.30 93.02 L 36.81 93.11 L 37.25 93.34 L 37.62 93.69 L 37.87 94.12 L 37.92 94.60 L 37.78 95.07 L 37.48 95.49 L 37.11 95.88 L 36.73 96.27 L 36.33 96.62 L 35.89 96.86 L 35.41 96.92 L 34.94 96.79 L 34.54 96.49 L 34.23 96.08 L 34.06 95.61 L 34.01 95.09 L 34.02 94.55 Z M 57.21 70.20 L 57.09 70.57 L 57.20 71.04 L 57.48 71.48 L 57.77 71.92 L 57.94 72.41 L 57.99 72.95 L 58.00 73.51 L 57.99 74.06 L 57.94 74.60 L 57.76 75.09 L 57.45 75.50 L 57.02 75.80 L 56.53 75.95 L 55.99 76.00 L 55.50 76.08 L 55.16 76.30 L 55.03 76.72 L 55.00 77.26 L 55.00 77.81 L 55.00 78.37 L 55.00 78.93 L 55.04 79.48 L 55.17 79.98 L 55.46 80.41 L 55.87 80.74 L 56.35 80.92 L 56.89 80.99 L 57.44 81.00 L 57.99 80.99 L 58.49 80.93 L 58.82 80.72 L 58.90 80.32 L 58.74 79.86 L 58.44 79.43 L 58.17 78.98 L 58.08 78.49 L 58.18 78.00 L 58.45 77.56 L 58.75 77.12 L 58.95 76.64 L 59.11 76.15 L 59.37 75.70 L 59.72 75.29 L 60.11 74.89 L 60.51 74.49 L 60.91 74.09 L 61.29 73.70 L 61.64 73.28 L 61.87 72.82 L 61.90 72.33 L 61.73 71.86 L 61.43 71.42 L 61.16 70.98 L 60.97 70.53 L 60.74 70.18 L 60.33 70.03 L 59.80 70.00 L 59.24 70.00 L 58.68 70.00 L 58.12 70.00 L 57.60 70.04 Z M 80.06 68.14 L 79.62 68.41 L 79.23 68.78 L 78.84 69.16 L 78.47 69.56 L 78.19 69.98 L 78.08 70.44 L 78.21 70.80 L 78.57 70.92 L 79.03 70.81 L 79.46 70.54 L 79.89 70.25 L 80.36 70.07 L 80.88 70.01 L 81.43 70.00 L 81.97 69.99 L 82.47 69.94 L 82.82 69.75 L 82.97 69.35 L 82.98 68.85 L 82.89 68.40 L 82.62 68.12 L 82.17 68.02 L 81.64 68.00 L 81.10 68.00 L 80.56 68.02 Z M 0.19 67.19 L 0.03 67.56 L 0.00 68.06 L 0.00 68.58 L 0.00 69.11 L 0.00 69.64 L 0.00 70.17 L 0.00 70.69 L 0.00 71.22 L 0.00 71.75 L 0.02 72.25 L 0.13 72.67 L 0.42 72.91 L 0.87 72.99 L 1.39 73.00 L 1.91 73.00 L 2.44 73.00 L 2.97 73.00 L 3.50 73.00 L 4.02 73.00 L 4.55 73.00 L 5.08 73.00 L 5.61 73.00 L 6.14 73.00 L 6.66 73.00 L 7.19 72.99 L 7.69 72.92 L 8.14 72.74 L 8.54 72.44 L 8.92 72.08 L 9.29 71.71 L 9.63 71.32 L 9.87 70.90 L 9.91 70.48 L 9.73 70.17 L 9.36 70.09 L 8.92 70.22 L 8.51 70.49 L 8.10 70.77 L 7.64 70.94 L 7.13 70.99 L 6.61 71.00 L 6.08 71.00 L 5.56 71.00 L 5.03 71.00 L 4.51 70.97 L 4.03 70.85 L 3.63 70.58 L 3.30 70.21 L 3.09 69.76 L 3.02 69.27 L 3.00 68.75 L 3.00 68.22 L 2.98 67.72 L 2.86 67.31 L 2.55 67.08 L 2.10 67.01 L 1.58 67.00 L 1.06 67.00 L 0.56 67.03 Z M 0.18 33.18 L 0.03 33.53 L 0.00 34.00 L 0.00 34.50 L 0.00 35.00 L 0.00 35.50 L 0.00 36.00 L 0.00 36.50 L 0.00 37.00 L 0.00 37.50 L 0.00 38.00 L 0.00 38.50 L 0.00 39.00 L 0.00 39.50 L 0.00 40.00 L 0.00 40.50 L 0.00 41.00 L 0.00 41.50 L 0.00 42.00 L 0.00 42.50 L 0.00 43.00 L 0.00 43.50 L 0.00 44.00 L 0.00 44.50 L 0.00 45.00 L 0.00 45.50 L 0.00 46.00 L 0.00 46.50 L 0.00 47.00 L 0.00 47.50 L 0.00 48.00 L 0.00 48.50 L 0.00 49.00 L 0.00 49.50 L 0.00 50.00 L 0.00 50.50 L 0.00 51.00 L 0.00 51.50 L 0.00 52.00 L 0.00 52.50 L 0.00 53.00 L 0.00 53.50 L 0.00 54.00 L 0.00 54.50 L 0.00 55.00 L 0.00 55.50 L 0.00 56.00 L 0.03 56.47 L 0.18 56.82 L 0.53 56.97 L 1.00 57.00 L 1.47 56.97 L 1.82 56.82 L 1.97 56.47 L 2.00 56.00 L 2.00 55.50 L 2.00 55.00 L 2.00 54.50 L 2.00 54.00 L 2.00 53.50 L 2.00 53.00 L 2.00 52.50 L 2.00 52.00 L 2.00 51.50 L 2.00 51.00 L 2.00 50.50 L 2.00 50.00 L 2.00 49.50 L 2.00 49.00 L 2.00 48.50 L 2.00 48.00 L 2.00 47.50 L 2.00 47.00 L 2.00 46.50 L 2.00 46.00 L 2.00 45.50 L 2.00 45.00 L 2.00 44.50 L 2.00 44.00 L 2.00 43.50 L 2.00 43.00 L 2.00 42.50 L 2.00 42.00 L 2.00 41.50 L 2.00 41.00 L 2.00 40.50 L 2.00 40.00 L 2.00 39.50 L 2.00 39.00 L 2.00 38.50 L 2.00 38.00 L 2.00 37.50 L 2.00 37.00 L 2.00 36.50 L 2.00 36.00 L 2.00 35.50 L 2.00 35.00 L 2.00 34.50 L 2.00 34.00 L 1.97 33.53 L 1.82 33.18 L 1.47 33.03 L 1.00 33.00 L 0.53 33.03 Z M 49.12 4.30 L 44.97 5.16 L 40.80 5.96 L 36.32 6.00 L 31.90 6.21 L 28.14 7.96 L 25.89 10.91 L 24.33 14.70 L 25.98 17.73 L 29.76 19.13 L 32.63 21.61 L 30.50 24.19 L 26.70 25.79 L 24.44 28.53 L 21.76 30.35 L 18.19 29.54 L 15.08 28.56 L 11.14 29.03 L 8.26 31.01 L 10.40 33.24 L 13.36 35.90 L 11.57 38.96 L 8.69 41.87 L 5.55 43.64 L 7.01 46.44 L 9.37 49.48 L 13.25 50.38 L 16.99 49.68 L 20.51 47.30 L 24.87 47.04 L 28.63 48.74 L 30.80 51.99 L 31.66 55.61 L 30.76 58.89 L 31.52 62.01 L 32.51 65.11 L 32.33 68.95 L 35.74 70.10 L 39.57 70.18 L 42.64 67.68 L 44.40 64.35 L 46.42 62.40 L 46.87 58.74 L 49.09 56.12 L 51.66 54.93 L 55.02 57.50 L 58.91 57.33 L 61.50 59.53 L 64.87 61.44 L 68.02 60.36 L 71.27 57.93 L 74.47 56.35 L 78.12 57.55 L 81.79 58.20 L 84.20 58.90 L 86.65 56.15 L 89.46 53.37 L 93.08 54.59 L 94.66 58.05 L 92.25 60.56 L 89.70 63.71 L 89.27 67.28 L 87.86 69.65 L 91.35 69.46 L 95.43 69.97 L 99.66 69.79 L 100.57 67.17 L 103.78 65.54 L 104.52 62.29 L 107.10 60.74 L 109.49 63.92 L 109.99 68.21 L 109.35 72.33 L 111.75 74.12 L 113.01 76.33 L 109.97 78.55 L 106.79 78.92 L 103.24 79.41 L 99.68 78.99 L 99.66 75.38 L 98.12 75.36 L 96.01 77.29 L 94.56 74.79 L 94.95 77.11 L 95.05 80.41 L 93.49 83.27 L 96.61 85.16 L 96.42 87.63 L 93.67 87.80 L 96.24 89.52 L 99.66 90.14 L 102.57 92.63 L 104.70 90.31 L 104.09 86.28 L 105.82 83.51 L 109.88 84.03 L 113.69 85.73 L 116.54 89.03 L 117.51 92.97 L 115.25 95.45 L 112.23 94.41 L 112.93 95.49 L 114.53 98.87 L 116.82 97.96 L 120.07 96.05 L 124.55 96.03 L 128.41 97.51 L 131.42 99.92 L 135.44 100.91 L 139.60 100.23 L 143.95 100.15 L 148.11 100.96 L 152.40 100.54 L 156.39 100.73 L 160.67 100.72 L 164.63 99.40 L 168.57 98.06 L 172.68 97.13 L 175.63 94.50 L 177.85 90.97 L 180.84 88.47 L 184.33 88.36 L 184.17 85.08 L 185.06 81.09 L 188.51 78.93 L 191.01 76.70 L 193.49 78.60 L 194.47 82.41 L 191.91 84.72 L 191.54 88.43 L 193.68 91.59 L 197.68 92.35 L 200.89 94.93 L 203.87 95.62 L 203.41 98.23 L 203.26 100.76 L 207.45 101.00 L 211.73 100.77 L 214.06 98.16 L 216.96 95.53 L 221.06 95.40 L 224.75 97.23 L 226.54 100.45 L 230.50 101.00 L 235.00 101.00 L 239.51 101.00 L 244.01 101.00 L 248.52 101.00 L 253.02 100.99 L 257.23 100.30 L 261.58 99.96 L 264.96 98.65 L 267.93 100.00 L 271.89 100.99 L 276.39 101.00 L 280.53 100.55 L 283.58 98.02 L 287.15 96.21 L 288.75 92.56 L 291.80 89.54 L 294.96 87.44 L 298.26 84.74 L 301.28 81.49 L 303.96 78.15 L 307.33 76.01 L 308.00 71.93 L 308.00 67.43 L 308.00 62.92 L 308.00 58.42 L 308.00 53.91 L 308.00 49.41 L 308.00 44.91 L 308.00 40.40 L 308.00 35.90 L 307.91 31.43 L 305.80 27.80 L 302.61 24.61 L 299.35 21.62 L 295.95 18.94 L 292.77 15.77 L 289.42 12.96 L 286.14 10.09 L 283.41 7.06 L 279.57 6.48 L 275.59 6.26 L 271.21 5.96 L 267.04 5.16 L 262.61 4.98 L 258.44 4.29 L 254.40 4.94 L 249.92 5.00 L 245.61 4.53 L 241.32 4.00 L 236.82 4.00 L 232.32 4.00 L 227.81 4.00 L 223.31 4.00 L 218.80 4.00 L 214.30 4.00 L 209.80 4.00 L 205.29 4.00 L 200.79 4.01 L 196.59 4.74 L 192.19 5.00 L 187.69 4.98 L 183.59 4.46 L 179.85 4.43 L 175.82 4.96 L 171.33 5.00 L 166.82 5.00 L 162.52 4.51 L 158.23 4.00 L 153.72 4.00 L 149.22 4.00 L 144.71 4.00 L 140.26 4.11 L 136.33 4.40 L 132.05 4.04 L 127.88 4.87 L 123.46 4.93 L 119.32 4.06 L 115.11 4.59 L 111.14 4.29 L 107.06 4.95 L 102.57 5.00 L 98.07 5.00 L 93.56 5.00 L 89.06 5.00 L 84.56 5.02 L 80.37 5.78 L 75.96 5.99 L 71.82 5.13 L 67.85 4.25 L 64.02 5.81 L 59.74 5.73 L 56.44 4.08 L 52.00 4.00 Z M 279.15 92.06 L 279.41 91.64 L 279.80 91.30 L 280.26 91.09 L 280.77 91.02 L 281.30 91.02 L 281.81 91.11 L 282.25 91.34 L 282.62 91.69 L 282.88 92.13 L 282.98 92.63 L 282.99 93.16 L 282.92 93.67 L 282.73 94.14 L 282.41 94.54 L 282.00 94.82 L 281.52 94.93 L 281.04 94.85 L 280.61 94.58 L 280.22 94.22 L 279.83 93.83 L 279.47 93.44 L 279.19 93.01 L 279.07 92.54 Z M 135.13 91.05 L 135.37 90.67 L 135.70 90.34 L 136.09 90.12 L 136.53 90.04 L 136.96 90.13 L 137.34 90.38 L 137.66 90.71 L 137.89 91.10 L 137.98 91.55 L 138.00 92.03 L 137.98 92.51 L 137.87 92.95 L 137.63 93.33 L 137.30 93.66 L 136.91 93.88 L 136.47 93.96 L 136.04 93.87 L 135.66 93.62 L 135.34 93.29 L 135.11 92.90 L 135.02 92.45 L 135.00 91.97 L 135.02 91.49 Z M 173.13 89.05 L 173.37 88.67 L 173.70 88.34 L 174.09 88.12 L 174.54 88.02 L 175.01 88.00 L 175.49 88.02 L 175.94 88.12 L 176.32 88.36 L 176.65 88.69 L 176.88 89.08 L 176.96 89.51 L 176.87 89.95 L 176.63 90.33 L 176.30 90.66 L 175.91 90.88 L 175.46 90.98 L 174.99 91.00 L 174.51 90.98 L 174.06 90.88 L 173.68 90.64 L 173.35 90.31 L 173.12 89.92 L 173.04 89.49 Z M 157.13 88.05 L 157.37 87.67 L 157.70 87.34 L 158.09 87.12 L 158.53 87.04 L 158.96 87.13 L 159.34 87.38 L 159.66 87.71 L 159.89 88.10 L 159.98 88.55 L 160.00 89.03 L 159.98 89.51 L 159.87 89.95 L 159.63 90.33 L 159.30 90.66 L 158.91 90.88 L 158.47 90.96 L 158.04 90.87 L 157.66 90.62 L 157.34 90.29 L 157.11 89.90 L 157.02 89.45 L 157.00 88.97 L 157.02 88.49 Z M 100.13 83.05 L 100.37 82.67 L 100.70 82.34 L 101.09 82.12 L 101.53 82.04 L 101.96 82.13 L 102.34 82.38 L 102.66 82.71 L 102.89 83.10 L 102.98 83.55 L 103.00 84.03 L 102.98 84.51 L 102.87 84.95 L 102.63 85.33 L 102.30 85.66 L 101.91 85.88 L 101.47 85.96 L 101.04 85.87 L 100.66 85.62 L 100.34 85.29 L 100.11 84.90 L 100.02 84.45 L 100.00 83.97 L 100.02 83.49 Z M 135.15 80.06 L 135.43 79.62 L 135.84 79.28 L 136.33 79.08 L 136.87 79.01 L 137.43 79.00 L 138.00 79.01 L 138.55 79.05 L 139.05 79.22 L 139.47 79.53 L 139.78 79.95 L 139.92 80.44 L 139.85 80.94 L 139.57 81.38 L 139.16 81.72 L 138.67 81.92 L 138.13 81.99 L 137.57 82.00 L 137.00 81.99 L 136.45 81.95 L 135.95 81.78 L 135.53 81.47 L 135.22 81.05 L 135.08 80.56 Z M 221.15 79.06 L 221.43 78.63 L 221.83 78.29 L 222.31 78.09 L 222.84 78.01 L 223.40 78.00 L 223.96 78.00 L 224.53 78.00 L 225.09 78.00 L 225.65 78.00 L 226.22 78.00 L 226.78 78.00 L 227.33 78.02 L 227.85 78.12 L 228.30 78.38 L 228.66 78.76 L 228.88 79.22 L 228.89 79.71 L 228.70 80.18 L 228.36 80.58 L 227.92 80.86 L 227.41 80.98 L 226.86 81.01 L 226.33 81.08 L 225.85 81.28 L 225.44 81.61 L 225.15 82.04 L 224.98 82.54 L 224.80 83.03 L 224.50 83.47 L 224.13 83.87 L 223.73 84.26 L 223.31 84.62 L 222.86 84.86 L 222.36 84.91 L 221.89 84.74 L 221.47 84.42 L 221.18 83.99 L 221.04 83.49 L 221.00 82.94 L 221.00 82.38 L 221.00 81.82 L 221.00 81.25 L 221.00 80.69 L 221.00 80.13 L 221.03 79.57 Z M 150.15 79.06 L 150.44 78.62 L 150.86 78.27 L 151.36 78.08 L 151.91 78.02 L 152.47 78.04 L 153.00 78.19 L 153.45 78.48 L 153.87 78.87 L 154.28 79.29 L 154.64 79.72 L 154.87 80.19 L 154.89 80.70 L 154.69 81.18 L 154.34 81.59 L 153.90 81.88 L 153.45 82.08 L 153.16 82.36 L 153.13 82.78 L 153.33 83.25 L 153.64 83.70 L 153.86 84.18 L 153.89 84.68 L 153.70 85.17 L 153.35 85.58 L 152.90 85.86 L 152.37 85.98 L 151.80 86.00 L 151.22 86.00 L 150.64 86.00 L 150.06 85.99 L 149.49 85.95 L 148.98 85.80 L 148.54 85.48 L 148.22 85.05 L 148.06 84.54 L 148.02 83.98 L 148.06 83.43 L 148.24 82.92 L 148.56 82.47 L 148.95 82.05 L 149.35 81.63 L 149.69 81.20 L 149.91 80.70 L 149.99 80.16 L 150.02 79.59 Z M 121.15 73.06 L 121.43 72.62 L 121.84 72.29 L 122.32 72.10 L 122.82 72.13 L 123.27 72.36 L 123.65 72.74 L 123.89 73.20 L 123.98 73.73 L 124.00 74.29 L 124.00 74.86 L 123.97 75.42 L 123.85 75.94 L 123.57 76.38 L 123.16 76.71 L 122.68 76.90 L 122.18 76.87 L 121.73 76.64 L 121.35 76.26 L 121.11 75.80 L 121.02 75.27 L 121.00 74.71 L 121.00 74.14 L 121.03 73.58 Z M 208.94 65.86 L 209.41 65.58 L 209.87 65.27 L 210.37 65.08 L 210.93 65.02 L 211.49 65.05 L 212.01 65.20 L 212.45 65.51 L 212.78 65.95 L 212.94 66.46 L 212.99 67.03 L 213.00 67.61 L 212.98 68.19 L 212.90 68.74 L 212.67 69.22 L 212.30 69.62 L 211.83 69.89 L 211.32 70.07 L 210.83 70.29 L 210.37 70.60 L 209.90 70.85 L 209.39 70.90 L 208.89 70.74 L 208.46 70.40 L 208.16 69.96 L 207.97 69.45 L 207.78 68.94 L 207.49 68.48 L 207.20 68.02 L 207.09 67.51 L 207.19 67.00 L 207.50 66.56 L 207.93 66.23 L 208.43 66.04 Z M 158.14 65.06 L 158.41 64.64 L 158.80 64.30 L 159.25 64.11 L 159.73 64.11 L 160.19 64.29 L 160.60 64.62 L 160.99 64.99 L 161.36 65.38 L 161.69 65.79 L 161.89 66.24 L 161.90 66.72 L 161.71 67.17 L 161.39 67.56 L 160.97 67.84 L 160.47 67.97 L 159.94 67.99 L 159.42 67.94 L 158.94 67.79 L 158.54 67.49 L 158.23 67.08 L 158.06 66.61 L 158.01 66.09 L 158.02 65.55 Z M 118.15 65.06 L 118.42 64.63 L 118.80 64.30 L 119.26 64.09 L 119.78 64.02 L 120.32 64.00 L 120.86 64.00 L 121.41 64.00 L 121.95 64.00 L 122.50 64.00 L 123.05 64.00 L 123.59 64.00 L 124.13 64.01 L 124.65 64.07 L 125.12 64.25 L 125.52 64.57 L 125.81 64.99 L 125.93 65.46 L 125.85 65.94 L 125.58 66.37 L 125.20 66.70 L 124.74 66.91 L 124.22 66.98 L 123.68 67.00 L 123.14 67.00 L 122.59 67.00 L 122.05 67.00 L 121.50 67.00 L 120.95 67.00 L 120.41 67.00 L 119.87 66.99 L 119.35 66.93 L 118.88 66.75 L 118.48 66.43 L 118.19 66.01 L 118.07 65.54 Z M 202.15 63.06 L 202.45 62.61 L 202.88 62.27 L 203.37 62.10 L 203.89 62.15 L 204.36 62.40 L 204.83 62.71 L 205.32 62.93 L 205.83 63.11 L 206.30 63.39 L 206.67 63.79 L 206.90 64.28 L 206.98 64.83 L 206.97 65.40 L 206.85 65.94 L 206.55 66.39 L 206.12 66.73 L 205.63 66.90 L 205.11 66.85 L 204.64 66.60 L 204.17 66.29 L 203.68 66.07 L 203.17 65.89 L 202.70 65.61 L 202.33 65.21 L 202.10 64.72 L 202.02 64.17 L 202.03 63.60 Z M 142.15 63.06 L 142.43 62.62 L 142.84 62.28 L 143.33 62.08 L 143.87 62.02 L 144.42 62.03 L 144.94 62.15 L 145.38 62.43 L 145.72 62.84 L 145.92 63.33 L 145.98 63.87 L 145.97 64.42 L 145.85 64.94 L 145.57 65.38 L 145.16 65.72 L 144.67 65.92 L 144.13 65.98 L 143.58 65.97 L 143.06 65.85 L 142.62 65.57 L 142.28 65.16 L 142.08 64.67 L 142.02 64.13 L 142.03 63.58 Z M 215.13 59.05 L 215.37 58.67 L 215.70 58.34 L 216.09 58.12 L 216.53 58.04 L 216.96 58.13 L 217.34 58.38 L 217.66 58.71 L 217.89 59.10 L 217.98 59.55 L 218.00 60.03 L 217.98 60.51 L 217.87 60.95 L 217.63 61.33 L 217.30 61.66 L 216.91 61.88 L 216.47 61.96 L 216.04 61.87 L 215.66 61.62 L 215.34 61.29 L 215.11 60.90 L 215.02 60.45 L 215.00 59.97 L 215.02 59.49 Z M 205.13 59.05 L 205.37 58.67 L 205.70 58.34 L 206.09 58.12 L 206.53 58.04 L 206.96 58.13 L 207.34 58.38 L 207.66 58.71 L 207.89 59.10 L 207.98 59.55 L 208.00 60.03 L 207.98 60.51 L 207.87 60.95 L 207.63 61.33 L 207.30 61.66 L 206.91 61.88 L 206.47 61.96 L 206.04 61.87 L 205.66 61.62 L 205.34 61.29 L 205.11 60.90 L 205.02 60.45 L 205.00 59.97 L 205.02 59.49 Z M 220.15 56.06 L 220.43 55.62 L 220.84 55.28 L 221.33 55.08 L 221.87 55.01 L 222.43 55.00 L 223.00 55.01 L 223.55 55.05 L 224.05 55.21 L 224.49 55.52 L 224.90 55.90 L 225.30 56.31 L 225.65 56.73 L 225.87 57.20 L 225.89 57.70 L 225.71 58.17 L 225.37 58.58 L 224.93 58.87 L 224.49 59.06 L 224.15 59.31 L 223.94 59.71 L 223.71 60.17 L 223.37 60.57 L 222.92 60.86 L 222.40 60.97 L 221.85 60.98 L 221.31 60.91 L 220.83 60.71 L 220.43 60.37 L 220.14 59.92 L 220.02 59.40 L 220.00 58.84 L 220.00 58.28 L 220.00 57.71 L 220.00 57.14 L 220.03 56.58 Z M 114.15 55.06 L 114.43 54.62 L 114.84 54.28 L 115.33 54.08 L 115.87 54.01 L 116.43 54.00 L 117.00 54.01 L 117.55 54.05 L 118.05 54.22 L 118.47 54.53 L 118.78 54.95 L 118.92 55.44 L 118.85 55.94 L 118.57 56.38 L 118.16 56.72 L 117.67 56.92 L 117.13 56.99 L 116.57 57.00 L 116.00 56.99 L 115.45 56.95 L 114.95 56.78 L 114.53 56.47 L 114.22 56.05 L 114.08 55.56 Z M 211.00 53.00 L 211.37 52.64 L 211.76 52.32 L 212.19 52.11 L 212.65 52.08 L 213.09 52.23 L 213.48 52.52 L 213.77 52.91 L 213.92 53.35 L 213.89 53.81 L 213.68 54.24 L 213.36 54.63 L 213.00 55.00 L 212.63 55.36 L 212.24 55.68 L 211.81 55.89 L 211.35 55.92 L 210.91 55.77 L 210.52 55.48 L 210.23 55.09 L 210.08 54.65 L 210.11 54.19 L 210.32 53.76 L 210.64 53.37 Z M 127.94 51.85 L 128.41 51.58 L 128.86 51.27 L 129.36 51.10 L 129.87 51.14 L 130.32 51.40 L 130.68 51.80 L 130.88 52.28 L 130.87 52.79 L 130.65 53.27 L 130.34 53.73 L 130.10 54.21 L 129.92 54.72 L 129.68 55.20 L 129.32 55.60 L 128.86 55.88 L 128.35 56.06 L 127.86 56.27 L 127.41 56.58 L 126.94 56.84 L 126.43 56.91 L 125.93 56.76 L 125.50 56.44 L 125.18 56.01 L 124.98 55.54 L 124.74 55.17 L 124.33 54.95 L 123.86 54.73 L 123.44 54.38 L 123.16 53.94 L 123.09 53.43 L 123.24 52.93 L 123.56 52.50 L 124.00 52.19 L 124.52 52.04 L 125.09 52.01 L 125.67 52.00 L 126.25 52.00 L 126.83 52.00 L 127.41 51.97 Z M 89.15 47.06 L 89.44 46.62 L 89.86 46.28 L 90.35 46.10 L 90.86 46.14 L 91.32 46.39 L 91.75 46.76 L 92.16 47.16 L 92.55 47.58 L 92.84 48.04 L 92.97 48.57 L 92.98 49.13 L 92.91 49.68 L 92.70 50.17 L 92.36 50.58 L 91.90 50.86 L 91.37 50.97 L 90.81 50.98 L 90.27 50.90 L 89.78 50.67 L 89.39 50.31 L 89.13 49.84 L 89.02 49.31 L 89.00 48.74 L 89.00 48.16 L 89.03 47.59 Z M 69.15 47.06 L 69.44 46.62 L 69.86 46.28 L 70.36 46.08 L 70.91 46.01 L 71.48 46.00 L 72.06 46.01 L 72.61 46.07 L 73.11 46.26 L 73.54 46.59 L 73.83 47.03 L 73.91 47.54 L 73.78 48.04 L 73.48 48.49 L 73.09 48.91 L 72.68 49.31 L 72.24 49.66 L 71.76 49.89 L 71.22 49.98 L 70.65 49.98 L 70.12 49.86 L 69.66 49.59 L 69.31 49.19 L 69.09 48.70 L 69.02 48.15 L 69.03 47.59 Z M 286.94 45.86 L 287.41 45.58 L 287.86 45.27 L 288.35 45.10 L 288.86 45.14 L 289.31 45.40 L 289.68 45.79 L 289.93 46.25 L 290.14 46.67 L 290.49 46.91 L 290.99 46.99 L 291.56 47.00 L 292.14 47.00 L 292.72 47.00 L 293.30 47.00 L 293.87 47.00 L 294.44 47.03 L 294.97 47.17 L 295.43 47.46 L 295.85 47.85 L 296.25 48.26 L 296.62 48.69 L 296.87 49.16 L 296.98 49.70 L 297.03 50.24 L 297.17 50.69 L 297.50 50.95 L 297.96 51.14 L 298.39 51.45 L 298.73 51.87 L 298.92 52.37 L 298.99 52.92 L 299.00 53.50 L 298.99 54.07 L 298.92 54.63 L 298.73 55.13 L 298.40 55.57 L 298.01 55.99 L 297.61 56.41 L 297.28 56.85 L 297.08 57.35 L 297.01 57.90 L 296.96 58.46 L 296.82 58.98 L 296.52 59.42 L 296.10 59.75 L 295.59 59.93 L 295.04 60.00 L 294.48 60.05 L 293.97 60.21 L 293.51 60.52 L 293.09 60.91 L 292.68 61.31 L 292.24 61.66 L 291.76 61.89 L 291.22 61.98 L 290.65 61.98 L 290.12 61.87 L 289.65 61.61 L 289.19 61.30 L 288.70 61.09 L 288.15 61.01 L 287.59 60.97 L 287.06 60.85 L 286.61 60.56 L 286.27 60.14 L 286.06 59.65 L 285.88 59.14 L 285.60 58.68 L 285.21 58.32 L 284.73 58.08 L 284.22 57.91 L 283.75 57.65 L 283.37 57.28 L 283.10 56.81 L 282.93 56.31 L 282.71 55.82 L 282.40 55.37 L 282.15 54.90 L 282.09 54.39 L 282.25 53.89 L 282.55 53.44 L 282.83 52.97 L 282.97 52.45 L 283.00 51.88 L 283.00 51.30 L 283.00 50.72 L 283.00 50.14 L 283.03 49.57 L 283.16 49.05 L 283.45 48.59 L 283.84 48.17 L 284.25 47.75 L 284.66 47.34 L 285.07 46.94 L 285.48 46.54 L 285.93 46.23 L 286.43 46.03 Z M 215.16 45.06 L 215.44 44.62 L 215.86 44.28 L 216.35 44.08 L 216.90 44.01 L 217.47 44.00 L 218.05 44.00 L 218.63 44.00 L 219.21 44.00 L 219.78 44.00 L 220.35 44.02 L 220.88 44.14 L 221.34 44.41 L 221.69 44.81 L 221.89 45.29 L 221.87 45.80 L 221.65 46.27 L 221.29 46.70 L 220.89 47.11 L 220.47 47.50 L 220.02 47.80 L 219.51 47.95 L 218.95 47.99 L 218.37 48.00 L 217.80 47.98 L 217.26 47.90 L 216.77 47.67 L 216.34 47.32 L 215.93 46.93 L 215.54 46.51 L 215.23 46.06 L 215.08 45.56 Z M 224.14 42.06 L 224.43 41.63 L 224.83 41.29 L 225.31 41.09 L 225.84 41.01 L 226.40 41.00 L 226.96 41.01 L 227.50 41.04 L 228.00 41.19 L 228.43 41.48 L 228.75 41.90 L 228.93 42.38 L 228.99 42.92 L 229.00 43.48 L 228.99 44.04 L 228.94 44.58 L 228.77 45.07 L 228.49 45.52 L 228.20 45.96 L 228.03 46.45 L 227.86 46.94 L 227.57 47.37 L 227.17 47.71 L 226.69 47.91 L 226.16 47.99 L 225.60 48.00 L 225.04 47.99 L 224.50 47.96 L 224.00 47.81 L 223.57 47.52 L 223.25 47.10 L 223.07 46.62 L 223.01 46.08 L 223.00 45.52 L 223.01 44.96 L 223.06 44.42 L 223.23 43.93 L 223.51 43.48 L 223.80 43.04 L 223.97 42.55 Z M 236.15 41.06 L 236.43 40.63 L 236.83 40.29 L 237.31 40.09 L 237.84 40.01 L 238.40 40.00 L 238.96 40.01 L 239.51 40.04 L 240.01 40.19 L 240.46 40.47 L 240.90 40.76 L 241.39 40.93 L 241.93 40.99 L 242.49 41.00 L 243.05 41.00 L 243.62 41.00 L 244.17 41.01 L 244.71 41.09 L 245.18 41.30 L 245.58 41.64 L 245.86 42.08 L 245.97 42.59 L 245.99 43.14 L 245.92 43.67 L 245.72 44.15 L 245.39 44.56 L 244.96 44.84 L 244.46 44.92 L 243.97 44.80 L 243.53 44.52 L 243.08 44.23 L 242.59 44.06 L 242.05 44.01 L 241.49 44.00 L 240.93 44.00 L 240.36 44.00 L 239.80 44.00 L 239.24 44.00 L 238.68 43.98 L 238.16 43.88 L 237.70 43.63 L 237.29 43.28 L 236.89 42.88 L 236.51 42.48 L 236.21 42.04 L 236.08 41.55 Z M 77.00 41.00 L 77.42 40.60 L 77.86 40.28 L 78.35 40.10 L 78.86 40.14 L 79.33 40.39 L 79.76 40.76 L 80.17 41.17 L 80.55 41.59 L 80.84 42.05 L 80.91 42.56 L 80.77 43.06 L 80.46 43.51 L 80.07 43.93 L 79.66 44.33 L 79.22 44.68 L 78.76 44.92 L 78.34 45.14 L 78.09 45.48 L 78.01 45.98 L 78.00 46.55 L 78.00 47.13 L 78.00 47.71 L 77.98 48.28 L 77.88 48.82 L 77.62 49.29 L 77.23 49.66 L 76.76 49.88 L 76.25 49.88 L 75.78 49.67 L 75.39 49.30 L 75.13 48.83 L 75.02 48.30 L 75.00 47.72 L 75.00 47.14 L 75.00 46.56 L 75.01 45.99 L 75.06 45.43 L 75.24 44.92 L 75.53 44.46 L 75.82 44.00 L 75.96 43.47 L 76.01 42.91 L 76.08 42.36 L 76.27 41.86 L 76.60 41.42 Z M 257.15 35.06 L 257.43 34.62 L 257.84 34.28 L 258.33 34.08 L 258.87 34.01 L 259.43 34.00 L 260.00 34.01 L 260.55 34.05 L 261.05 34.22 L 261.47 34.53 L 261.78 34.95 L 261.92 35.44 L 261.85 35.94 L 261.57 36.38 L 261.16 36.72 L 260.67 36.92 L 260.13 36.99 L 259.57 37.00 L 259.00 36.99 L 258.45 36.95 L 257.95 36.78 L 257.53 36.47 L 257.22 36.05 L 257.08 35.56 Z M 27.13 29.05 L 27.37 28.67 L 27.70 28.34 L 28.09 28.12 L 28.54 28.02 L 29.01 28.00 L 29.49 28.02 L 29.94 28.12 L 30.32 28.36 L 30.65 28.69 L 30.88 29.08 L 30.96 29.51 L 30.87 29.95 L 30.63 30.33 L 30.30 30.66 L 29.91 30.88 L 29.46 30.98 L 28.99 31.00 L 28.51 30.98 L 28.06 30.88 L 27.68 30.64 L 27.35 30.31 L 27.12 29.92 L 27.04 29.49 Z M 70.00 27.00 L 70.41 26.61 L 70.84 26.28 L 71.33 26.08 L 71.87 26.01 L 72.43 26.00 L 73.00 26.01 L 73.55 26.05 L 74.05 26.22 L 74.47 26.53 L 74.78 26.95 L 74.94 27.45 L 74.98 28.00 L 74.94 28.55 L 74.78 29.05 L 74.47 29.47 L 74.05 29.78 L 73.55 29.95 L 73.00 29.99 L 72.43 30.00 L 71.86 30.00 L 71.29 30.00 L 70.73 29.98 L 70.20 29.89 L 69.74 29.65 L 69.36 29.27 L 69.13 28.82 L 69.10 28.32 L 69.28 27.84 L 69.61 27.41 Z M 95.16 26.07 L 95.46 25.60 L 95.90 25.26 L 96.41 25.10 L 96.94 25.17 L 97.42 25.45 L 97.85 25.86 L 98.27 26.28 L 98.64 26.73 L 98.88 27.24 L 98.98 27.80 L 98.97 28.39 L 98.84 28.93 L 98.54 29.40 L 98.10 29.74 L 97.59 29.90 L 97.06 29.83 L 96.58 29.55 L 96.15 29.14 L 95.73 28.72 L 95.36 28.27 L 95.12 27.76 L 95.02 27.20 L 95.03 26.61 Z M 75.13 24.05 L 75.37 23.67 L 75.70 23.34 L 76.09 23.12 L 76.54 23.02 L 77.01 23.00 L 77.49 23.02 L 77.94 23.12 L 78.32 23.36 L 78.65 23.69 L 78.88 24.08 L 78.96 24.51 L 78.87 24.95 L 78.63 25.33 L 78.30 25.66 L 77.91 25.88 L 77.46 25.98 L 76.99 26.00 L 76.51 25.98 L 76.06 25.88 L 75.68 25.64 L 75.35 25.31 L 75.12 24.92 L 75.04 24.49 Z M 102.15 18.06 L 102.41 17.64 L 102.80 17.30 L 103.26 17.09 L 103.77 17.02 L 104.30 17.02 L 104.81 17.11 L 105.25 17.34 L 105.62 17.69 L 105.88 18.13 L 105.98 18.63 L 105.99 19.16 L 105.92 19.67 L 105.73 20.14 L 105.41 20.54 L 105.00 20.82 L 104.52 20.93 L 104.04 20.85 L 103.61 20.58 L 103.22 20.22 L 102.83 19.83 L 102.47 19.44 L 102.19 19.01 L 102.07 18.54 Z" fill="rgb(208,10,9)" fill-rule="evenodd"/>
  <path d="M 214.19 99.19 L 214.03 99.56 L 214.01 100.04 L 214.06 100.51 L 214.26 100.83 L 214.63 100.92 L 215.07 100.79 L 215.48 100.52 L 215.88 100.24 L 216.33 100.09 L 216.80 100.11 L 217.23 100.31 L 217.63 100.61 L 218.05 100.86 L 218.53 100.98 L 219.05 101.00 L 219.57 101.00 L 220.09 101.00 L 220.62 101.00 L 221.14 101.00 L 221.67 101.00 L 222.19 101.00 L 222.72 101.00 L 223.24 101.00 L 223.77 101.00 L 224.27 100.98 L 224.68 100.87 L 224.89 100.59 L 224.84 100.27 L 224.53 100.07 L 224.07 100.01 L 223.56 100.00 L 223.03 100.00 L 222.51 100.00 L 221.99 100.00 L 221.47 99.96 L 221.00 99.83 L 220.59 99.57 L 220.18 99.28 L 219.74 99.09 L 219.24 99.01 L 218.72 99.00 L 218.20 99.00 L 217.67 99.00 L 217.15 99.00 L 216.62 99.00 L 216.10 99.00 L 215.57 99.00 L 215.05 99.00 L 214.56 99.03 Z" fill="rgb(222,90,88)" fill-rule="evenodd"/>
  <path d="M 0.18 58.18 L 0.03 58.53 L 0.00 59.00 L 0.00 59.50 L 0.00 60.00 L 0.00 60.50 L 0.00 61.00 L 0.00 61.50 L 0.00 62.00 L 0.00 62.50 L 0.00 63.00 L 0.00 63.50 L 0.00 64.00 L 0.00 64.50 L 0.00 65.00 L 0.03 65.47 L 0.18 65.82 L 0.53 65.97 L 1.00 66.00 L 1.47 65.97 L 1.82 65.82 L 1.97 65.47 L 2.00 65.00 L 2.00 64.50 L 2.00 64.00 L 2.00 63.50 L 2.00 63.00 L 2.00 62.50 L 2.00 62.00 L 2.00 61.50 L 2.00 61.00 L 2.00 60.50 L 2.00 60.00 L 2.00 59.50 L 2.00 59.00 L 1.97 58.53 L 1.82 58.18 L 1.47 58.03 L 1.00 58.00 L 0.53 58.03 Z M 288.06 48.15 L 287.60 48.42 L 287.16 48.72 L 286.69 48.95 L 286.29 49.16 L 286.04 49.51 L 285.85 49.97 L 285.57 50.42 L 285.27 50.86 L 285.06 51.35 L 284.89 51.85 L 284.63 52.32 L 284.32 52.76 L 284.10 53.25 L 284.02 53.78 L 284.02 54.34 L 284.13 54.87 L 284.38 55.34 L 284.69 55.78 L 284.92 56.26 L 285.09 56.76 L 285.33 57.23 L 285.68 57.66 L 286.07 58.07 L 286.49 58.46 L 286.93 58.77 L 287.42 58.96 L 287.92 59.13 L 288.38 59.41 L 288.83 59.71 L 289.32 59.91 L 289.86 59.99 L 290.43 60.00 L 291.00 60.00 L 291.57 60.00 L 292.14 59.99 L 292.68 59.91 L 293.17 59.71 L 293.62 59.40 L 294.08 59.13 L 294.58 58.96 L 295.07 58.77 L 295.50 58.45 L 295.81 58.02 L 295.99 57.52 L 296.16 57.02 L 296.44 56.56 L 296.74 56.12 L 296.93 55.62 L 296.99 55.07 L 297.00 54.50 L 297.00 53.93 L 297.00 53.36 L 296.98 52.79 L 296.90 52.25 L 296.68 51.77 L 296.37 51.33 L 296.12 50.86 L 295.95 50.36 L 295.74 49.87 L 295.41 49.43 L 295.02 49.02 L 294.61 48.63 L 294.18 48.30 L 293.69 48.09 L 293.15 48.01 L 292.58 48.00 L 292.01 48.00 L 291.44 48.00 L 290.86 48.00 L 290.29 48.00 L 289.72 48.00 L 289.15 48.00 L 288.58 48.03 Z M 20.06 48.15 L 19.61 48.43 L 19.20 48.81 L 18.79 49.21 L 18.39 49.61 L 17.99 50.01 L 17.60 50.42 L 17.27 50.85 L 17.08 51.34 L 17.01 51.88 L 17.00 52.45 L 17.00 53.02 L 17.00 53.59 L 17.00 54.15 L 17.00 54.72 L 17.00 55.29 L 17.00 55.86 L 17.03 56.42 L 17.15 56.94 L 17.43 57.39 L 17.81 57.80 L 18.21 58.20 L 18.62 58.58 L 19.07 58.87 L 19.57 59.03 L 20.06 59.22 L 20.51 59.51 L 20.96 59.80 L 21.47 59.95 L 22.02 59.99 L 22.59 60.00 L 23.15 60.00 L 23.72 60.00 L 24.28 59.98 L 24.81 59.88 L 25.29 59.65 L 25.73 59.34 L 26.20 59.10 L 26.70 58.93 L 27.17 58.71 L 27.58 58.37 L 27.87 57.93 L 28.03 57.43 L 28.22 56.94 L 28.51 56.49 L 28.80 56.04 L 28.95 55.53 L 28.99 54.98 L 29.00 54.41 L 29.00 53.85 L 29.00 53.28 L 28.98 52.72 L 28.88 52.19 L 28.65 51.71 L 28.34 51.27 L 28.10 50.80 L 27.93 50.30 L 27.71 49.83 L 27.38 49.40 L 26.99 48.99 L 26.58 48.60 L 26.15 48.27 L 25.66 48.08 L 25.12 48.01 L 24.55 48.00 L 23.98 48.00 L 23.41 48.00 L 22.85 48.00 L 22.28 48.00 L 21.71 48.00 L 21.14 48.00 L 20.58 48.03 Z M 230.18 0.18 L 230.03 0.53 L 230.00 1.00 L 230.00 1.50 L 230.00 2.00 L 230.03 2.47 L 230.18 2.82 L 230.53 2.97 L 231.00 3.00 L 231.50 3.00 L 232.00 3.00 L 232.50 3.00 L 233.00 3.00 L 233.50 3.00 L 234.00 3.00 L 234.50 3.00 L 235.00 3.00 L 235.50 3.00 L 236.00 3.00 L 236.50 3.00 L 237.00 3.00 L 237.50 3.00 L 238.00 3.00 L 238.50 3.00 L 239.00 3.00 L 239.50 3.00 L 240.00 3.00 L 240.47 2.97 L 240.82 2.82 L 240.97 2.47 L 241.00 2.00 L 241.00 1.50 L 241.00 1.00 L 240.97 0.53 L 240.82 0.18 L 240.47 0.03 L 240.00 0.00 L 239.50 0.00 L 239.00 0.00 L 238.50 0.00 L 238.00 0.00 L 237.50 0.00 L 237.00 0.00 L 236.50 0.00 L 236.00 0.00 L 235.50 0.00 L 235.00 0.00 L 234.50 0.00 L 234.00 0.00 L 233.50 0.00 L 233.00 0.00 L 232.50 0.00 L 232.00 0.00 L 231.50 0.00 L 231.00 0.00 L 230.53 0.03 Z M 220.18 0.18 L 220.03 0.53 L 220.00 1.00 L 220.00 1.50 L 220.00 2.00 L 220.03 2.47 L 220.18 2.82 L 220.53 2.97 L 221.00 3.00 L 221.50 3.00 L 222.00 3.00 L 222.50 3.00 L 223.00 3.00 L 223.47 2.97 L 223.82 2.82 L 223.97 2.47 L 224.00 2.00 L 224.00 1.50 L 224.00 1.00 L 223.97 0.53 L 223.82 0.18 L 223.47 0.03 L 223.00 0.00 L 222.50 0.00 L 222.00 0.00 L 221.50 0.00 L 221.00 0.00 L 220.53 0.03 Z M 199.18 0.18 L 199.03 0.53 L 199.00 1.00 L 199.00 1.50 L 199.00 2.00 L 199.03 2.47 L 199.18 2.82 L 199.53 2.97 L 200.00 3.00 L 200.50 3.00 L 201.00 3.00 L 201.50 3.00 L 202.00 3.00 L 202.50 3.00 L 203.00 3.00 L 203.50 3.00 L 204.00 3.00 L 204.50 3.00 L 205.00 3.00 L 205.50 3.00 L 206.00 3.00 L 206.50 3.00 L 207.00 3.00 L 207.47 2.97 L 207.82 2.82 L 207.97 2.47 L 208.00 2.00 L 208.00 1.50 L 208.00 1.00 L 207.97 0.53 L 207.82 0.18 L 207.47 0.03 L 207.00 0.00 L 206.50 0.00 L 206.00 0.00 L 205.50 0.00 L 205.00 0.00 L 204.50 0.00 L 204.00 0.00 L 203.50 0.00 L 203.00 0.00 L 202.50 0.00 L 202.00 0.00 L 201.50 0.00 L 201.00 0.00 L 200.50 0.00 L 200.00 0.00 L 199.53 0.03 Z M 111.18 0.18 L 111.03 0.53 L 111.00 1.00 L 111.00 1.50 L 111.00 2.00 L 111.03 2.47 L 111.18 2.82 L 111.53 2.97 L 112.00 3.00 L 112.50 3.00 L 113.00 3.00 L 113.50 3.00 L 114.00 3.00 L 114.50 3.00 L 115.00 3.00 L 115.50 3.00 L 116.00 3.00 L 116.47 2.97 L 116.82 2.82 L 116.97 2.47 L 117.00 2.00 L 117.00 1.50 L 117.00 1.00 L 116.97 0.53 L 116.82 0.18 L 116.47 0.03 L 116.00 0.00 L 115.50 0.00 L 115.00 0.00 L 114.50 0.00 L 114.00 0.00 L 113.50 0.00 L 113.00 0.00 L 112.50 0.00 L 112.00 0.00 L 111.53 0.03 Z" fill="rgb(252,249,249)" fill-rule="evenodd"/>
</svg>