<svg xmlns="http://www.w3.org/2000/svg" width="318" height="96" viewBox="0 0 318 96" role="img" aria-label="15_plates_15">
  <title>15_plates_15</title>
  <path d="M 239.12 3.30 L 236.39 3.94 L 233.41 4.00 L 230.41 4.00 L 227.41 4.00 L 224.41 4.00 L 221.41 4.00 L 218.41 4.00 L 215.40 4.00 L 212.40 4.00 L 209.40 4.00 L 206.40 4.00 L 203.40 4.00 L 200.40 4.00 L 197.40 4.00 L 194.40 4.00 L 191.39 4.00 L 188.39 4.00 L 185.39 4.00 L 182.39 4.00 L 179.39 4.00 L 176.39 4.00 L 173.39 4.00 L 170.38 4.00 L 167.38 4.00 L 164.38 4.00 L 161.38 4.00 L 158.38 4.00 L 155.38 4.00 L 152.38 4.00 L 149.38 4.00 L 146.37 4.00 L 143.37 4.00 L 140.37 4.00 L 137.37 4.00 L 134.37 4.00 L 131.37 4.00 L 128.37 4.00 L 125.37 4.00 L 122.36 4.00 L 119.36 4.00 L 116.36 4.00 L 113.36 4.00 L 110.36 4.00 L 107.36 4.00 L 104.36 4.00 L 101.36 4.00 L 98.35 4.00 L 95.35 4.00 L 92.35 4.00 L 89.35 4.00 L 86.35 4.00 L 83.35 4.00 L 80.35 4.00 L 77.35 4.00 L 74.34 4.00 L 71.34 4.00 L 68.34 4.00 L 65.34 4.00 L 62.34 4.00 L 59.34 4.00 L 56.34 4.00 L 53.34 4.00 L 50.33 4.00 L 47.33 4.00 L 44.33 4.00 L 41.34 4.03 L 38.55 4.44 L 36.00 4.31 L 33.15 4.01 L 30.21 4.14 L 27.72 5.36 L 25.57 7.43 L 23.45 9.55 L 21.33 11.67 L 19.20 13.80 L 17.08 15.91 L 15.00 17.86 L 13.06 19.52 L 10.90 20.99 L 8.99 22.66 L 7.06 24.46 L 5.27 26.69 L 3.16 28.77 L 0.97 30.24 L 0.05 32.38 L 0.00 35.34 L 0.00 38.34 L 0.00 41.34 L 0.34 44.02 L 2.00 45.58 L 2.95 47.96 L 3.00 50.93 L 2.95 53.91 L 2.07 56.34 L 0.38 57.89 L 0.04 60.49 L 0.87 62.69 L 2.61 64.32 L 2.78 67.00 L 1.36 68.85 L 1.07 69.86 L 3.18 71.26 L 5.33 73.33 L 7.45 75.45 L 9.57 77.57 L 11.69 79.69 L 13.82 81.82 L 15.94 83.93 L 18.16 85.82 L 20.46 87.51 L 22.56 89.61 L 24.23 91.92 L 26.19 94.01 L 28.80 94.94 L 31.78 95.00 L 34.78 95.00 L 37.78 95.00 L 40.78 95.00 L 43.78 95.00 L 46.79 95.00 L 49.79 95.00 L 52.79 95.00 L 55.79 95.00 L 58.79 95.00 L 61.79 95.00 L 64.79 95.00 L 67.79 95.00 L 70.80 95.00 L 73.80 95.00 L 76.80 95.00 L 79.80 95.00 L 82.80 95.00 L 85.80 95.00 L 88.80 95.00 L 91.80 95.00 L 94.81 95.00 L 97.81 95.00 L 100.81 95.00 L 103.81 95.00 L 106.81 95.00 L 109.81 95.00 L 112.81 95.00 L 115.81 95.00 L 118.82 95.00 L 121.82 95.00 L 124.82 95.00 L 127.82 95.00 L 130.82 95.00 L 133.82 95.00 L 136.82 95.00 L 139.82 95.00 L 142.83 95.00 L 145.83 95.00 L 148.83 95.00 L 151.83 95.00 L 154.83 95.00 L 157.83 95.00 L 160.83 95.00 L 163.83 95.00 L 166.84 95.00 L 169.84 95.00 L 172.84 95.00 L 175.84 95.00 L 178.84 95.00 L 181.84 95.00 L 184.84 95.00 L 187.85 95.00 L 190.85 95.00 L 193.85 95.00 L 196.85 95.00 L 199.85 95.00 L 202.85 95.00 L 205.85 95.00 L 208.85 95.00 L 211.86 95.00 L 214.86 95.00 L 217.86 95.00 L 220.86 95.00 L 223.86 95.00 L 226.86 95.00 L 229.86 95.00 L 232.86 95.00 L 235.87 95.00 L 238.87 95.00 L 241.87 95.00 L 244.87 95.00 L 247.87 95.00 L 250.87 95.00 L 253.87 95.00 L 256.87 95.00 L 259.88 95.00 L 262.88 95.00 L 265.88 95.00 L 268.88 95.00 L 271.88 95.00 L 274.88 95.00 L 277.83 94.94 L 279.88 93.92 L 281.63 92.33 L 283.99 92.68 L 284.79 94.39 L 286.69 94.98 L 289.64 94.99 L 292.29 94.60 L 293.41 92.88 L 292.47 90.91 L 292.16 88.25 L 293.50 86.23 L 295.16 84.62 L 296.90 82.96 L 298.89 81.69 L 300.86 82.28 L 302.75 83.43 L 304.97 82.07 L 307.28 80.42 L 309.49 78.51 L 311.61 76.39 L 313.74 74.26 L 315.80 72.12 L 316.91 69.58 L 317.00 66.61 L 317.00 63.61 L 317.00 60.61 L 317.00 57.61 L 317.00 54.61 L 317.00 51.61 L 317.00 48.61 L 317.00 45.60 L 317.00 42.60 L 317.00 39.60 L 317.00 36.60 L 317.00 33.60 L 316.94 30.62 L 315.92 28.04 L 313.88 25.89 L 311.76 23.76 L 309.64 21.64 L 307.50 19.55 L 305.21 17.85 L 303.05 15.95 L 301.53 13.58 L 299.97 11.40 L 297.75 9.69 L 295.61 7.62 L 293.39 5.73 L 290.68 5.03 L 287.69 5.00 L 284.69 5.00 L 281.71 4.95 L 278.97 4.33 L 276.10 4.01 L 273.10 4.00 L 270.10 4.00 L 267.10 4.00 L 264.10 4.00 L 261.10 4.00 L 258.09 4.00 L 255.09 4.00 L 252.09 4.00 L 249.11 3.96 L 246.32 3.44 L 243.49 3.02 L 240.52 3.06 Z M 95.16 31.06 L 95.44 30.62 L 95.86 30.28 L 96.36 30.08 L 96.91 30.01 L 97.48 30.00 L 98.06 30.01 L 98.61 30.07 L 99.11 30.26 L 99.54 30.59 L 99.83 31.04 L 99.97 31.56 L 99.98 32.12 L 99.91 32.67 L 99.71 33.16 L 99.36 33.57 L 98.91 33.86 L 98.38 33.97 L 97.81 33.98 L 97.27 33.90 L 96.78 33.68 L 96.35 33.33 L 95.93 32.93 L 95.54 32.51 L 95.23 32.07 L 95.09 31.57 Z M 307.15 28.06 L 307.43 27.62 L 307.84 27.28 L 308.33 27.08 L 308.87 27.01 L 309.43 27.00 L 310.00 27.01 L 310.55 27.05 L 311.05 27.22 L 311.47 27.53 L 311.78 27.95 L 311.92 28.44 L 311.85 28.94 L 311.57 29.38 L 311.16 29.72 L 310.67 29.92 L 310.13 29.99 L 309.57 30.00 L 309.00 29.99 L 308.45 29.95 L 307.95 29.78 L 307.53 29.47 L 307.22 29.05 L 307.08 28.56 Z M 267.15 27.06 L 267.44 26.61 L 267.86 26.28 L 268.36 26.10 L 268.86 26.14 L 269.32 26.40 L 269.68 26.80 L 269.90 27.29 L 269.99 27.84 L 270.02 28.40 L 270.15 28.93 L 270.42 29.40 L 270.73 29.86 L 270.94 30.35 L 271.12 30.86 L 271.38 31.33 L 271.69 31.79 L 271.92 32.28 L 272.10 32.78 L 272.34 33.27 L 272.65 33.72 L 272.88 34.21 L 272.98 34.75 L 273.02 35.31 L 273.13 35.85 L 273.38 36.33 L 273.69 36.79 L 273.90 37.28 L 273.98 37.83 L 274.00 38.40 L 274.01 38.98 L 274.06 39.54 L 274.22 40.06 L 274.52 40.52 L 274.81 40.97 L 275.01 41.44 L 275.25 41.80 L 275.65 41.89 L 276.12 41.74 L 276.58 41.44 L 277.04 41.16 L 277.57 41.03 L 278.14 41.02 L 278.69 41.09 L 279.18 41.30 L 279.64 41.60 L 280.11 41.86 L 280.65 41.98 L 281.22 42.00 L 281.81 42.00 L 282.39 42.00 L 282.97 42.00 L 283.55 42.00 L 284.13 42.00 L 284.72 42.00 L 285.30 42.00 L 285.88 42.00 L 286.46 42.00 L 287.05 42.00 L 287.63 42.00 L 288.20 41.98 L 288.75 41.89 L 289.24 41.67 L 289.69 41.37 L 290.17 41.14 L 290.68 41.11 L 291.17 41.30 L 291.58 41.65 L 291.86 42.10 L 291.97 42.63 L 291.98 43.20 L 291.90 43.74 L 291.66 44.23 L 291.29 44.62 L 290.83 44.89 L 290.32 45.07 L 289.83 45.29 L 289.39 45.63 L 288.98 46.03 L 288.56 46.44 L 288.15 46.85 L 287.74 47.25 L 287.31 47.62 L 286.85 47.89 L 286.41 48.10 L 286.11 48.40 L 285.90 48.83 L 285.63 49.29 L 285.24 49.66 L 284.76 49.91 L 284.25 50.09 L 283.77 50.33 L 283.34 50.68 L 282.92 51.08 L 282.51 51.49 L 282.10 51.90 L 281.68 52.32 L 281.27 52.73 L 280.86 53.14 L 280.47 53.56 L 280.18 54.02 L 280.04 54.54 L 280.00 55.11 L 280.00 55.69 L 280.02 56.27 L 280.12 56.81 L 280.36 57.29 L 280.66 57.75 L 280.89 58.24 L 280.98 58.78 L 281.02 59.35 L 281.14 59.88 L 281.39 60.36 L 281.70 60.81 L 281.91 61.31 L 281.99 61.86 L 282.00 62.44 L 282.00 63.02 L 282.00 63.60 L 282.02 64.18 L 282.10 64.72 L 282.32 65.22 L 282.62 65.67 L 282.88 66.15 L 283.06 66.66 L 283.28 67.15 L 283.58 67.60 L 283.86 68.07 L 284.04 68.58 L 284.23 69.08 L 284.53 69.54 L 284.81 70.00 L 284.91 70.51 L 284.80 71.01 L 284.49 71.45 L 284.06 71.77 L 283.56 71.91 L 283.05 71.84 L 282.59 71.56 L 282.17 71.17 L 281.76 70.76 L 281.35 70.35 L 280.94 69.94 L 280.52 69.54 L 280.06 69.23 L 279.55 69.06 L 278.99 69.00 L 278.44 68.94 L 277.93 68.77 L 277.48 68.45 L 277.06 68.06 L 276.64 67.66 L 276.20 67.31 L 275.72 67.08 L 275.21 66.90 L 274.73 66.64 L 274.30 66.28 L 273.88 65.88 L 273.46 65.49 L 273.00 65.18 L 272.50 65.00 L 271.99 64.82 L 271.53 64.53 L 271.07 64.23 L 270.57 64.04 L 270.06 63.86 L 269.59 63.58 L 269.14 63.27 L 268.64 63.08 L 268.08 63.02 L 267.52 63.04 L 267.00 63.19 L 266.54 63.49 L 266.12 63.88 L 265.71 64.28 L 265.27 64.64 L 264.80 64.90 L 264.29 65.08 L 263.80 65.31 L 263.36 65.65 L 262.95 66.05 L 262.53 66.45 L 262.08 66.77 L 261.58 66.96 L 261.07 67.14 L 260.60 67.42 L 260.14 67.72 L 259.64 67.92 L 259.09 67.99 L 258.53 68.04 L 258.01 68.18 L 257.54 68.47 L 257.08 68.76 L 256.57 68.94 L 256.01 68.98 L 255.46 68.94 L 254.94 68.78 L 254.51 68.45 L 254.20 68.02 L 254.05 67.50 L 254.01 66.93 L 254.00 66.35 L 254.00 65.77 L 254.00 65.19 L 254.00 64.61 L 254.01 64.03 L 254.06 63.46 L 254.22 62.95 L 254.51 62.49 L 254.80 62.02 L 254.95 61.51 L 255.00 60.95 L 255.07 60.39 L 255.26 59.89 L 255.56 59.43 L 255.84 58.96 L 255.97 58.43 L 256.01 57.87 L 256.09 57.32 L 256.29 56.82 L 256.60 56.37 L 256.86 55.89 L 256.97 55.36 L 256.97 54.81 L 256.85 54.35 L 256.53 54.07 L 256.08 53.87 L 255.63 53.58 L 255.20 53.20 L 254.79 52.79 L 254.38 52.38 L 253.97 51.97 L 253.56 51.56 L 253.14 51.14 L 252.73 50.73 L 252.32 50.32 L 251.91 49.91 L 251.50 49.50 L 251.09 49.09 L 250.67 48.67 L 250.26 48.26 L 249.85 47.85 L 249.44 47.44 L 249.03 47.03 L 248.61 46.63 L 248.17 46.29 L 247.68 46.07 L 247.17 45.89 L 246.70 45.62 L 246.27 45.26 L 245.85 44.85 L 245.46 44.43 L 245.18 43.97 L 245.09 43.46 L 245.22 42.96 L 245.53 42.53 L 245.96 42.21 L 246.48 42.05 L 247.04 42.01 L 247.62 42.00 L 248.21 42.00 L 248.79 42.00 L 249.37 42.00 L 249.95 42.00 L 250.53 42.00 L 251.12 42.00 L 251.70 42.00 L 252.28 42.00 L 252.86 42.00 L 253.45 42.00 L 254.03 42.00 L 254.61 42.00 L 255.19 42.00 L 255.78 42.00 L 256.36 42.00 L 256.94 42.00 L 257.52 42.00 L 258.10 42.00 L 258.69 42.00 L 259.26 41.98 L 259.80 41.88 L 260.29 41.65 L 260.74 41.34 L 261.21 41.09 L 261.63 40.88 L 261.92 40.56 L 262.12 40.11 L 262.39 39.65 L 262.70 39.19 L 262.91 38.70 L 262.99 38.15 L 263.03 37.58 L 263.15 37.05 L 263.43 36.58 L 263.74 36.13 L 263.95 35.63 L 264.12 35.12 L 264.39 34.65 L 264.69 34.20 L 264.91 33.70 L 264.98 33.15 L 265.00 32.58 L 265.01 32.00 L 265.06 31.44 L 265.23 30.93 L 265.55 30.48 L 265.94 30.06 L 266.34 29.64 L 266.69 29.20 L 266.90 28.71 L 266.99 28.16 L 267.02 27.59 Z M 288.94 17.85 L 289.40 17.59 L 289.84 17.28 L 290.33 17.08 L 290.87 17.02 L 291.42 17.03 L 291.94 17.15 L 292.38 17.43 L 292.72 17.84 L 292.92 18.33 L 292.99 18.87 L 293.00 19.43 L 292.99 20.00 L 292.95 20.55 L 292.78 21.05 L 292.47 21.47 L 292.05 21.78 L 291.56 21.92 L 291.06 21.85 L 290.60 21.59 L 290.16 21.28 L 289.67 21.08 L 289.13 21.01 L 288.57 21.00 L 288.00 20.99 L 287.45 20.95 L 286.95 20.78 L 286.53 20.47 L 286.22 20.05 L 286.08 19.56 L 286.15 19.06 L 286.43 18.62 L 286.84 18.28 L 287.33 18.08 L 287.87 18.01 L 288.42 17.98 Z M 60.00 8.00 L 60.39 7.63 L 60.80 7.30 L 61.25 7.11 L 61.73 7.11 L 62.19 7.29 L 62.58 7.62 L 62.85 8.05 L 62.97 8.54 L 62.99 9.07 L 62.94 9.59 L 62.78 10.07 L 62.48 10.48 L 62.07 10.78 L 61.59 10.94 L 61.07 10.99 L 60.54 10.97 L 60.05 10.85 L 59.62 10.58 L 59.29 10.19 L 59.11 9.73 L 59.11 9.25 L 59.30 8.80 L 59.63 8.39 Z" fill="rgb(24,23,21)" fill-rule="evenodd"/>
  <path d="M 296.20 84.20 L 296.03 84.58 L 296.00 85.10 L 296.00 85.64 L 295.99 86.19 L 295.91 86.70 L 295.72 87.17 L 295.39 87.56 L 294.97 87.85 L 294.49 88.01 L 294.01 88.17 L 293.59 88.46 L 293.27 88.86 L 293.08 89.33 L 293.01 89.84 L 293.03 90.36 L 293.18 90.75 L 293.52 90.91 L 293.97 90.84 L 294.41 90.58 L 294.83 90.28 L 295.29 90.07 L 295.77 89.91 L 296.22 89.68 L 296.60 89.34 L 296.87 88.91 L 296.98 88.41 L 297.01 87.87 L 297.07 87.35 L 297.25 86.88 L 297.57 86.48 L 297.99 86.19 L 298.48 86.04 L 299.01 86.01 L 299.55 86.00 L 300.10 86.00 L 300.65 86.00 L 301.18 85.98 L 301.62 85.88 L 301.86 85.62 L 301.83 85.29 L 301.53 85.08 L 301.05 85.01 L 300.53 84.97 L 300.03 84.84 L 299.59 84.58 L 299.17 84.28 L 298.70 84.09 L 298.19 84.01 L 297.64 84.00 L 297.10 84.00 L 296.58 84.03 Z M 0.18 64.18 L 0.03 64.53 L 0.00 65.00 L 0.00 65.50 L 0.00 66.00 L 0.00 66.50 L 0.00 67.00 L 0.03 67.47 L 0.18 67.82 L 0.53 67.97 L 1.00 68.00 L 1.47 67.97 L 1.82 67.82 L 1.97 67.47 L 2.00 67.00 L 2.00 66.50 L 2.00 66.00 L 2.00 65.50 L 2.00 65.00 L 1.97 64.53 L 1.82 64.18 L 1.47 64.03 L 1.00 64.00 L 0.53 64.03 Z" fill="rgb(85,84,82)" fill-rule="evenodd"/>
  <path d="M 268.05 30.16 L 267.62 30.44 L 267.28 30.86 L 267.08 31.35 L 267.01 31.90 L 267.00 32.47 L 266.99 33.05 L 266.93 33.60 L 266.75 34.10 L 266.45 34.55 L 266.17 35.01 L 265.99 35.52 L 265.81 36.02 L 265.52 36.48 L 265.22 36.93 L 265.03 37.43 L 264.86 37.94 L 264.58 38.40 L 264.28 38.85 L 264.08 39.35 L 264.01 39.89 L 263.97 40.45 L 263.83 40.97 L 263.54 41.43 L 263.15 41.85 L 262.74 42.25 L 262.32 42.62 L 261.85 42.87 L 261.31 42.98 L 260.75 43.02 L 260.21 43.11 L 259.73 43.34 L 259.28 43.65 L 258.80 43.88 L 258.26 43.98 L 257.69 44.00 L 257.12 44.00 L 256.54 44.00 L 255.96 44.00 L 255.39 44.00 L 254.81 44.00 L 254.23 44.00 L 253.65 44.00 L 253.08 44.00 L 252.50 44.00 L 251.92 44.00 L 251.34 44.00 L 250.77 44.00 L 250.19 44.00 L 249.61 44.00 L 249.05 44.01 L 248.53 44.07 L 248.19 44.27 L 248.15 44.61 L 248.40 44.89 L 248.82 45.10 L 249.28 45.36 L 249.71 45.72 L 250.12 46.12 L 250.53 46.53 L 250.94 46.94 L 251.34 47.34 L 251.75 47.75 L 252.16 48.16 L 252.57 48.57 L 252.98 48.98 L 253.38 49.38 L 253.79 49.79 L 254.20 50.20 L 254.61 50.61 L 255.02 51.02 L 255.43 51.43 L 255.83 51.83 L 256.24 52.24 L 256.67 52.61 L 257.13 52.88 L 257.64 53.05 L 258.13 53.26 L 258.54 53.60 L 258.83 54.04 L 258.92 54.55 L 258.78 55.05 L 258.50 55.50 L 258.21 55.96 L 258.05 56.47 L 258.01 57.03 L 258.00 57.60 L 257.98 58.18 L 257.90 58.72 L 257.69 59.21 L 257.38 59.66 L 257.12 60.13 L 256.95 60.63 L 256.74 61.12 L 256.44 61.58 L 256.16 62.04 L 256.03 62.56 L 256.00 63.13 L 256.00 63.70 L 256.00 64.28 L 256.00 64.86 L 256.00 65.43 L 256.01 66.00 L 256.09 66.50 L 256.33 66.84 L 256.77 66.97 L 257.32 67.00 L 257.90 67.00 L 258.48 67.00 L 259.05 66.99 L 259.60 66.93 L 260.10 66.75 L 260.55 66.43 L 260.96 66.04 L 261.37 65.63 L 261.78 65.22 L 262.19 64.81 L 262.61 64.43 L 263.06 64.14 L 263.57 63.97 L 264.07 63.78 L 264.52 63.48 L 264.98 63.19 L 265.48 63.01 L 265.99 62.83 L 266.44 62.53 L 266.86 62.14 L 267.27 61.74 L 267.69 61.38 L 268.16 61.14 L 268.67 61.10 L 269.15 61.28 L 269.59 61.61 L 270.01 62.01 L 270.42 62.40 L 270.86 62.73 L 271.35 62.94 L 271.86 63.11 L 272.33 63.37 L 272.78 63.68 L 273.26 63.92 L 273.76 64.09 L 274.24 64.33 L 274.67 64.68 L 275.08 65.08 L 275.50 65.47 L 275.95 65.78 L 276.45 65.97 L 276.95 66.14 L 277.41 66.43 L 277.86 66.73 L 278.36 66.92 L 278.91 66.99 L 279.48 67.00 L 280.05 66.98 L 280.54 66.90 L 280.85 66.64 L 280.98 66.18 L 281.00 65.63 L 280.99 65.06 L 280.95 64.50 L 280.80 63.98 L 280.52 63.52 L 280.23 63.07 L 280.06 62.56 L 280.00 62.00 L 279.94 61.45 L 279.78 60.94 L 279.49 60.48 L 279.20 60.03 L 279.05 59.51 L 279.00 58.96 L 278.93 58.41 L 278.75 57.90 L 278.46 57.45 L 278.18 56.99 L 278.04 56.47 L 278.00 55.90 L 278.00 55.33 L 278.02 54.76 L 278.11 54.22 L 278.35 53.74 L 278.70 53.31 L 279.10 52.90 L 279.51 52.49 L 279.92 52.08 L 280.33 51.67 L 280.73 51.27 L 281.14 50.86 L 281.55 50.45 L 281.96 50.04 L 282.37 49.64 L 282.81 49.30 L 283.29 49.07 L 283.80 48.90 L 284.26 48.64 L 284.64 48.27 L 284.90 47.80 L 285.07 47.30 L 285.30 46.82 L 285.66 46.41 L 286.10 46.13 L 286.61 45.95 L 287.10 45.75 L 287.55 45.43 L 287.96 45.04 L 288.37 44.64 L 288.81 44.30 L 289.27 44.07 L 289.68 43.86 L 289.88 43.54 L 289.78 43.20 L 289.39 43.04 L 288.85 43.00 L 288.27 43.00 L 287.70 43.00 L 287.12 43.00 L 286.54 43.00 L 285.96 43.00 L 285.39 43.00 L 284.81 43.00 L 284.23 43.00 L 283.66 43.02 L 283.13 43.13 L 282.66 43.38 L 282.21 43.69 L 281.73 43.88 L 281.22 43.88 L 280.74 43.66 L 280.29 43.36 L 279.82 43.12 L 279.28 43.02 L 278.71 43.00 L 278.13 43.00 L 277.56 43.00 L 276.98 43.00 L 276.40 43.00 L 275.82 43.00 L 275.25 43.00 L 274.68 42.98 L 274.15 42.87 L 273.69 42.61 L 273.33 42.21 L 273.10 41.73 L 273.01 41.19 L 272.98 40.63 L 272.86 40.10 L 272.60 39.63 L 272.29 39.18 L 272.09 38.69 L 272.01 38.14 L 271.97 37.58 L 271.85 37.06 L 271.58 36.59 L 271.27 36.14 L 271.08 35.64 L 271.01 35.10 L 270.96 34.54 L 270.83 34.02 L 270.55 33.56 L 270.25 33.10 L 270.05 32.61 L 269.87 32.10 L 269.60 31.64 L 269.30 31.19 L 269.06 30.72 L 268.85 30.31 L 268.51 30.11 Z M 239.18 0.18 L 239.03 0.53 L 239.00 1.00 L 239.03 1.47 L 239.18 1.82 L 239.53 1.97 L 240.00 2.00 L 240.50 2.00 L 241.00 2.00 L 241.50 2.00 L 242.00 2.00 L 242.50 2.00 L 243.00 2.00 L 243.47 1.97 L 243.82 1.82 L 243.97 1.47 L 244.00 1.00 L 243.97 0.53 L 243.82 0.18 L 243.47 0.03 L 243.00 0.00 L 242.50 0.00 L 242.00 0.00 L 241.50 0.00 L 241.00 0.00 L 240.50 0.00 L 240.00 0.00 L 239.53 0.03 Z M 30.18 0.18 L 30.03 0.53 L 30.00 1.00 L 30.00 1.50 L 30.00 2.00 L 30.03 2.47 L 30.18 2.82 L 30.53 2.97 L 31.00 3.00 L 31.50 3.00 L 32.00 3.00 L 32.50 3.00 L 33.00 3.00 L 33.50 3.00 L 34.00 3.00 L 34.50 3.00 L 35.00 3.00 L 35.50 3.00 L 36.00 3.00 L 36.47 2.97 L 36.82 2.82 L 36.97 2.47 L 37.00 2.00 L 37.00 1.50 L 37.00 1.00 L 36.97 0.53 L 36.82 0.18 L 36.47 0.03 L 36.00 0.00 L 35.50 0.00 L 35.00 0.00 L 34.50 0.00 L 34.00 0.00 L 33.50 0.00 L 33.00 0.00 L 32.50 0.00 L 32.00 0.00 L 31.50 0.00 L 31.00 0.00 L 30.53 0.03 Z" fill="rgb(246,246,246)" fill-rule="evenodd"/>
</svg>