<svg xmlns="http://www.w3.org/2000/svg" width="433" height="41" viewBox="0 0 433 41" role="img" aria-label="16_plates_16">
  <title>16_plates_16</title>
  <path d="M 190.12 5.30 L 185.91 6.00 L 181.41 6.00 L 176.91 6.00 L 172.41 6.00 L 167.91 6.00 L 163.41 6.00 L 158.91 6.00 L 154.41 6.00 L 149.91 6.00 L 145.41 6.00 L 140.91 6.00 L 136.40 6.00 L 131.90 6.00 L 127.40 6.00 L 122.92 6.05 L 118.77 6.89 L 114.31 7.00 L 109.81 7.00 L 105.31 7.00 L 100.81 7.00 L 96.42 7.26 L 92.44 7.49 L 88.45 7.76 L 84.05 8.00 L 79.55 8.00 L 75.05 8.00 L 70.57 8.06 L 66.45 8.92 L 62.29 8.21 L 58.13 8.61 L 54.05 8.36 L 49.86 7.62 L 45.61 7.00 L 41.12 7.00 L 36.92 7.74 L 33.13 9.47 L 29.00 10.34 L 25.04 10.34 L 21.01 9.20 L 17.23 7.46 L 13.17 6.40 L 9.50 6.66 L 8.74 10.56 L 8.01 14.76 L 7.99 19.25 L 7.06 23.36 L 6.03 27.44 L 6.00 31.93 L 6.06 36.40 L 8.26 39.63 L 12.60 40.00 L 17.10 40.00 L 21.60 40.00 L 26.10 40.00 L 30.60 40.00 L 35.10 40.00 L 39.60 40.00 L 44.11 40.00 L 48.61 40.00 L 53.11 40.00 L 57.61 40.00 L 62.11 40.00 L 66.61 40.00 L 71.11 40.00 L 75.61 40.00 L 80.11 40.00 L 84.61 40.00 L 89.11 40.00 L 93.61 40.00 L 98.12 40.00 L 102.62 40.00 L 107.12 40.00 L 111.62 40.00 L 116.12 40.00 L 120.62 40.00 L 125.05 39.84 L 129.22 39.03 L 133.71 39.00 L 138.21 39.00 L 142.71 39.00 L 147.14 38.82 L 151.31 38.03 L 155.80 38.00 L 160.14 37.62 L 164.36 36.95 L 168.39 36.33 L 172.20 37.85 L 175.88 36.70 L 179.12 34.52 L 183.01 33.05 L 186.40 34.19 L 184.77 36.32 L 187.62 36.95 L 189.44 35.09 L 191.46 32.51 L 195.52 32.98 L 200.01 33.01 L 203.86 34.09 L 206.92 36.40 L 209.43 38.83 L 213.56 38.48 L 217.74 38.29 L 221.95 38.99 L 226.44 39.00 L 230.94 39.00 L 235.45 39.00 L 239.95 39.00 L 244.44 39.02 L 248.63 39.78 L 253.03 40.00 L 257.54 40.00 L 262.04 40.00 L 266.54 40.00 L 271.04 40.00 L 275.54 40.00 L 280.04 40.00 L 284.54 40.00 L 289.04 40.00 L 293.54 40.00 L 298.04 40.00 L 302.54 40.00 L 307.04 40.00 L 311.55 40.00 L 316.05 40.00 L 320.55 40.00 L 325.05 40.00 L 329.55 40.00 L 334.05 40.00 L 338.55 40.00 L 343.05 40.00 L 347.55 40.00 L 352.05 40.00 L 356.55 40.00 L 361.05 40.00 L 365.55 40.00 L 370.06 40.00 L 374.56 40.00 L 379.06 40.00 L 383.56 40.00 L 388.06 40.00 L 392.56 40.00 L 397.06 40.00 L 401.56 40.00 L 405.93 39.68 L 410.15 39.00 L 414.54 39.26 L 418.74 39.98 L 421.82 38.59 L 420.99 35.21 L 418.04 32.57 L 415.64 29.14 L 416.79 25.72 L 420.11 23.23 L 423.72 22.50 L 426.04 20.68 L 428.59 21.24 L 429.00 17.64 L 427.87 14.25 L 424.06 13.21 L 423.12 14.59 L 421.82 16.79 L 418.45 15.41 L 414.50 15.50 L 410.43 15.64 L 409.84 12.46 L 411.63 8.73 L 410.28 6.09 L 406.70 7.04 L 403.09 8.77 L 399.57 11.01 L 398.68 14.26 L 396.82 16.63 L 394.95 13.74 L 392.28 11.75 L 388.56 11.48 L 386.54 8.61 L 384.24 6.08 L 379.82 6.00 L 375.32 6.00 L 371.10 6.67 L 367.08 7.83 L 362.82 8.40 L 359.35 7.80 L 356.44 6.04 L 352.11 6.28 L 348.22 6.19 L 343.80 6.00 L 339.42 6.28 L 335.60 7.53 L 331.53 7.03 L 327.04 7.00 L 322.72 6.57 L 318.45 6.00 L 313.95 6.00 L 309.45 6.00 L 304.97 5.96 L 300.81 5.12 L 296.36 5.00 L 291.86 5.00 L 287.36 5.00 L 282.86 5.00 L 278.36 5.00 L 273.86 5.00 L 269.47 5.24 L 265.57 5.25 L 261.18 5.00 L 256.68 5.00 L 252.18 5.00 L 247.68 5.00 L 243.18 5.00 L 238.68 5.00 L 234.18 5.00 L 229.84 5.39 L 225.68 5.78 L 221.50 5.02 L 217.00 5.00 L 212.50 5.00 L 208.00 5.00 L 203.50 5.00 L 199.00 5.00 L 194.50 5.00 Z M 405.14 10.06 L 405.44 9.62 L 405.85 9.28 L 406.33 9.10 L 406.84 9.14 L 407.29 9.38 L 407.66 9.76 L 407.89 10.24 L 407.98 10.78 L 408.00 11.34 L 408.00 11.92 L 408.00 12.49 L 408.00 13.07 L 408.00 13.64 L 408.00 14.22 L 408.00 14.79 L 407.98 15.35 L 407.87 15.88 L 407.60 16.35 L 407.23 16.77 L 406.82 17.17 L 406.41 17.56 L 405.95 17.84 L 405.43 17.97 L 404.87 18.00 L 404.29 18.00 L 403.72 18.00 L 403.14 18.00 L 402.58 17.97 L 402.06 17.85 L 401.60 17.56 L 401.18 17.18 L 400.78 16.78 L 400.41 16.36 L 400.15 15.90 L 400.09 15.39 L 400.25 14.90 L 400.54 14.45 L 400.83 13.99 L 401.00 13.49 L 401.18 12.99 L 401.49 12.56 L 401.92 12.24 L 402.42 12.06 L 402.97 12.00 L 403.52 11.95 L 404.03 11.79 L 404.46 11.48 L 404.78 11.06 L 404.97 10.56 Z" fill="rgb(20,19,18)" fill-rule="evenodd"/>
  <path d="M 180.05 36.15 L 179.62 36.40 L 179.21 36.70 L 178.76 36.92 L 178.28 37.07 L 177.83 37.28 L 177.44 37.61 L 177.16 38.02 L 177.08 38.47 L 177.23 38.82 L 177.62 38.97 L 178.13 39.00 L 178.67 39.00 L 179.21 39.00 L 179.75 39.00 L 180.29 39.00 L 180.83 39.00 L 181.38 39.00 L 181.91 39.00 L 182.42 38.97 L 182.80 38.81 L 182.91 38.48 L 182.75 38.16 L 182.37 37.97 L 181.93 37.78 L 181.52 37.48 L 181.22 37.07 L 181.03 36.63 L 180.84 36.25 L 180.49 36.08 Z M 3.18 33.19 L 3.00 33.53 L 2.86 33.97 L 2.60 34.36 L 2.23 34.69 L 1.81 34.90 L 1.34 34.98 L 0.84 35.01 L 0.41 35.09 L 0.13 35.32 L 0.02 35.73 L 0.02 36.20 L 0.11 36.63 L 0.36 36.89 L 0.77 36.98 L 1.27 37.00 L 1.78 37.00 L 2.29 37.00 L 2.81 37.00 L 3.32 37.00 L 3.83 37.00 L 4.32 36.98 L 4.71 36.86 L 4.92 36.56 L 4.99 36.11 L 5.00 35.61 L 5.00 35.10 L 5.00 34.59 L 5.00 34.08 L 4.97 33.59 L 4.83 33.22 L 4.49 33.05 L 4.02 33.01 L 3.54 33.03 Z M 422.19 25.20 L 422.03 25.57 L 422.00 26.07 L 422.00 26.60 L 422.00 27.13 L 422.00 27.66 L 421.99 28.19 L 421.92 28.70 L 421.74 29.15 L 421.45 29.56 L 421.18 29.98 L 421.07 30.43 L 421.19 30.80 L 421.54 30.99 L 421.98 31.16 L 422.39 31.43 L 422.71 31.81 L 422.93 32.24 L 423.11 32.64 L 423.37 32.87 L 423.70 32.84 L 423.92 32.55 L 423.99 32.10 L 424.00 31.58 L 424.00 31.04 L 423.97 30.52 L 423.85 30.04 L 423.60 29.61 L 423.30 29.20 L 423.09 28.76 L 423.02 28.26 L 423.00 27.73 L 423.00 27.20 L 423.00 26.66 L 423.00 26.13 L 422.97 25.63 L 422.83 25.24 L 422.51 25.09 Z M 157.18 0.18 L 157.03 0.53 L 157.00 1.00 L 157.00 1.50 L 157.00 2.00 L 157.00 2.50 L 157.00 3.00 L 157.03 3.47 L 157.18 3.82 L 157.53 3.97 L 158.00 4.00 L 158.50 4.00 L 159.00 4.00 L 159.50 4.00 L 160.00 4.00 L 160.50 4.00 L 161.00 4.00 L 161.50 4.00 L 162.00 4.00 L 162.50 4.00 L 163.00 4.00 L 163.50 4.00 L 164.00 4.00 L 164.50 4.00 L 165.00 4.00 L 165.50 4.00 L 166.00 4.00 L 166.50 4.00 L 167.00 4.00 L 167.50 4.00 L 168.00 4.00 L 168.50 4.00 L 169.00 4.00 L 169.50 4.00 L 170.00 4.00 L 170.50 4.00 L 171.00 4.00 L 171.50 4.00 L 172.00 4.00 L 172.50 4.00 L 173.00 4.00 L 173.50 4.00 L 174.00 4.00 L 174.50 4.00 L 175.00 4.00 L 175.50 4.00 L 176.00 4.00 L 176.50 4.00 L 177.00 4.00 L 177.50 4.00 L 178.00 4.00 L 178.50 4.00 L 179.00 4.00 L 179.50 4.00 L 180.00 4.00 L 180.50 4.00 L 181.00 4.00 L 181.50 4.00 L 182.00 4.00 L 182.50 4.00 L 183.00 4.00 L 183.50 4.00 L 184.00 4.00 L 184.50 4.00 L 185.00 4.00 L 185.50 4.00 L 186.00 4.00 L 186.50 4.00 L 187.00 4.00 L 187.47 3.97 L 187.82 3.82 L 187.97 3.47 L 188.00 3.00 L 188.00 2.50 L 188.00 2.00 L 188.00 1.50 L 188.00 1.00 L 187.97 0.53 L 187.82 0.18 L 187.47 0.03 L 187.00 0.00 L 186.50 0.00 L 186.00 0.00 L 185.50 0.00 L 185.00 0.00 L 184.50 0.00 L 184.00 0.00 L 183.50 0.00 L 183.00 0.00 L 182.50 0.00 L 182.00 0.00 L 181.50 0.00 L 181.00 0.00 L 180.50 0.00 L 180.00 0.00 L 179.50 0.00 L 179.00 0.00 L 178.50 0.00 L 178.00 0.00 L 177.50 0.00 L 177.00 0.00 L 176.50 0.00 L 176.00 0.00 L 175.50 0.00 L 175.00 0.00 L 174.50 0.00 L 174.00 0.00 L 173.50 0.00 L 173.00 0.00 L 172.50 0.00 L 172.00 0.00 L 171.50 0.00 L 171.00 0.00 L 170.50 0.00 L 170.00 0.00 L 169.50 0.00 L 169.00 0.00 L 168.50 0.00 L 168.00 0.00 L 167.50 0.00 L 167.00 0.00 L 166.50 0.00 L 166.00 0.00 L 165.50 0.00 L 165.00 0.00 L 164.50 0.00 L 164.00 0.00 L 163.50 0.00 L 163.00 0.00 L 162.50 0.00 L 162.00 0.00 L 161.50 0.00 L 161.00 0.00 L 160.50 0.00 L 160.00 0.00 L 159.50 0.00 L 159.00 0.00 L 158.50 0.00 L 158.00 0.00 L 157.53 0.03 Z" fill="rgb(245,245,245)" fill-rule="evenodd"/>
</svg>