<svg xmlns="http://www.w3.org/2000/svg" width="447" height="39" viewBox="0 0 447 39" role="img" aria-label="17_plates_17">
  <title>17_plates_17</title>
  <path d="M 145.20 31.21 L 145.04 31.59 L 145.01 32.11 L 145.07 32.63 L 145.25 33.11 L 145.54 33.55 L 145.82 33.98 L 146.00 34.44 L 146.20 34.80 L 146.58 34.92 L 147.04 34.80 L 147.48 34.52 L 147.91 34.23 L 148.40 34.06 L 148.93 34.01 L 149.48 34.00 L 150.03 34.00 L 150.58 34.00 L 151.13 34.01 L 151.66 34.08 L 152.13 34.26 L 152.54 34.59 L 152.83 35.01 L 153.01 35.46 L 153.23 35.81 L 153.61 35.91 L 154.07 35.78 L 154.49 35.48 L 154.89 35.11 L 155.28 34.71 L 155.63 34.31 L 155.86 33.87 L 155.88 33.44 L 155.66 33.14 L 155.22 33.02 L 154.69 33.00 L 154.14 33.00 L 153.58 33.00 L 153.03 32.99 L 152.49 32.96 L 152.00 32.82 L 151.56 32.55 L 151.12 32.25 L 150.65 32.07 L 150.12 32.01 L 149.57 32.00 L 149.02 32.00 L 148.46 32.00 L 147.91 31.99 L 147.38 31.93 L 146.90 31.76 L 146.47 31.47 L 146.03 31.20 L 145.57 31.08 Z M 166.20 25.20 L 166.03 25.58 L 165.99 26.08 L 165.94 26.60 L 165.78 27.07 L 165.50 27.50 L 165.22 27.93 L 165.06 28.40 L 165.01 28.92 L 165.00 29.46 L 165.01 29.99 L 165.06 30.48 L 165.25 30.84 L 165.63 31.03 L 166.07 31.22 L 166.48 31.52 L 166.78 31.93 L 166.92 32.39 L 166.87 32.87 L 166.63 33.30 L 166.27 33.65 L 165.83 33.90 L 165.35 34.05 L 164.89 34.24 L 164.49 34.55 L 164.20 34.96 L 164.05 35.44 L 164.01 35.96 L 164.05 36.46 L 164.23 36.82 L 164.62 36.97 L 165.13 37.00 L 165.67 37.00 L 166.21 37.00 L 166.75 37.00 L 167.29 37.00 L 167.83 37.00 L 168.38 37.00 L 168.92 37.00 L 169.46 37.00 L 170.00 37.00 L 170.54 37.00 L 171.08 37.00 L 171.62 37.00 L 172.17 37.00 L 172.71 37.00 L 173.25 37.00 L 173.79 37.00 L 174.33 37.00 L 174.87 37.00 L 175.41 37.00 L 175.95 37.00 L 176.45 36.95 L 176.82 36.78 L 177.02 36.41 L 177.20 35.96 L 177.49 35.55 L 177.89 35.25 L 178.35 35.09 L 178.83 35.12 L 179.27 35.34 L 179.69 35.64 L 180.13 35.87 L 180.61 35.92 L 181.08 35.78 L 181.50 35.50 L 181.92 35.22 L 182.37 35.03 L 182.75 34.84 L 182.94 34.48 L 182.99 33.99 L 183.00 33.46 L 182.99 32.93 L 182.92 32.46 L 182.69 32.14 L 182.30 31.95 L 181.86 31.74 L 181.45 31.43 L 181.06 31.06 L 180.67 30.68 L 180.27 30.34 L 179.83 30.11 L 179.32 30.02 L 178.79 30.00 L 178.25 30.00 L 177.71 30.00 L 177.17 30.00 L 176.62 30.00 L 176.08 30.00 L 175.54 30.00 L 175.00 30.00 L 174.46 30.00 L 173.92 30.00 L 173.38 30.00 L 172.83 30.00 L 172.29 30.00 L 171.75 30.00 L 171.21 30.00 L 170.67 30.00 L 170.13 30.00 L 169.59 30.00 L 169.05 30.00 L 168.52 29.97 L 168.03 29.84 L 167.61 29.56 L 167.29 29.17 L 167.10 28.72 L 167.11 28.24 L 167.30 27.79 L 167.63 27.39 L 168.00 27.00 L 168.37 26.61 L 168.70 26.21 L 168.89 25.77 L 168.86 25.36 L 168.60 25.11 L 168.15 25.02 L 167.62 25.00 L 167.09 25.00 L 166.58 25.03 Z M 5.06 25.14 L 4.63 25.39 L 4.23 25.69 L 3.80 25.92 L 3.39 26.09 L 3.12 26.36 L 3.02 26.79 L 3.00 27.30 L 3.00 27.83 L 3.00 28.36 L 3.00 28.89 L 3.00 29.42 L 3.00 29.95 L 3.00 30.48 L 3.00 31.01 L 3.00 31.54 L 3.00 32.07 L 3.00 32.61 L 3.00 33.14 L 3.00 33.67 L 3.01 34.19 L 3.08 34.69 L 3.26 35.15 L 3.57 35.55 L 3.93 35.93 L 4.30 36.31 L 4.64 36.70 L 4.89 37.12 L 5.06 37.54 L 5.29 37.85 L 5.70 37.97 L 6.21 38.00 L 6.74 38.00 L 7.27 38.00 L 7.80 38.00 L 8.33 38.00 L 8.86 38.00 L 9.39 38.00 L 9.92 38.00 L 10.45 38.00 L 10.98 38.00 L 11.51 38.00 L 12.04 38.00 L 12.57 38.00 L 13.10 38.00 L 13.63 38.00 L 14.16 38.00 L 14.69 38.00 L 15.22 38.00 L 15.75 38.00 L 16.29 38.00 L 16.82 38.00 L 17.35 38.00 L 17.88 38.00 L 18.41 38.00 L 18.94 38.00 L 19.47 38.00 L 20.00 38.00 L 20.53 38.00 L 21.06 38.00 L 21.59 38.00 L 22.12 38.00 L 22.65 38.00 L 23.18 38.00 L 23.71 38.00 L 24.22 37.98 L 24.65 37.87 L 24.90 37.59 L 24.98 37.15 L 24.97 36.66 L 24.84 36.27 L 24.51 36.06 L 24.03 36.01 L 23.51 36.00 L 22.98 36.00 L 22.45 36.00 L 21.92 36.00 L 21.39 36.00 L 20.86 36.00 L 20.33 36.00 L 19.80 36.00 L 19.27 36.00 L 18.74 36.00 L 18.21 36.00 L 17.68 35.98 L 17.19 35.89 L 16.75 35.67 L 16.39 35.33 L 16.13 34.91 L 16.02 34.43 L 15.99 33.91 L 15.94 33.40 L 15.79 32.93 L 15.50 32.52 L 15.14 32.14 L 14.76 31.77 L 14.38 31.41 L 13.96 31.14 L 13.49 31.00 L 13.02 30.85 L 12.61 30.57 L 12.22 30.22 L 11.85 29.85 L 11.46 29.49 L 11.05 29.20 L 10.58 29.05 L 10.07 29.01 L 9.54 29.00 L 9.02 29.00 L 8.50 28.97 L 8.02 28.84 L 7.61 28.56 L 7.29 28.18 L 7.09 27.74 L 7.01 27.24 L 7.00 26.71 L 7.00 26.19 L 6.97 25.68 L 6.84 25.28 L 6.52 25.07 L 6.05 25.01 L 5.54 25.02 Z M 14.06 7.14 L 13.61 7.41 L 13.18 7.71 L 12.72 7.94 L 12.32 8.14 L 12.09 8.47 L 12.01 8.96 L 12.00 9.51 L 12.01 10.06 L 12.09 10.54 L 12.34 10.85 L 12.77 10.97 L 13.29 10.97 L 13.71 10.83 L 13.93 10.49 L 14.00 10.00 L 14.05 9.47 L 14.20 8.97 L 14.51 8.55 L 14.92 8.23 L 15.41 8.06 L 15.94 8.01 L 16.49 8.04 L 16.99 8.18 L 17.43 8.46 L 17.84 8.84 L 18.23 9.24 L 18.60 9.64 L 18.86 10.09 L 18.98 10.61 L 19.01 11.15 L 19.08 11.68 L 19.28 12.16 L 19.58 12.60 L 19.86 13.05 L 20.02 13.54 L 20.20 14.03 L 20.49 14.46 L 20.87 14.87 L 21.27 15.27 L 21.66 15.66 L 22.06 16.06 L 22.44 16.46 L 22.75 16.89 L 22.91 17.37 L 22.86 17.86 L 22.62 18.32 L 22.26 18.73 L 21.87 19.13 L 21.48 19.52 L 21.08 19.92 L 20.68 20.31 L 20.26 20.65 L 19.80 20.89 L 19.28 20.98 L 18.73 21.02 L 18.21 21.11 L 17.74 21.33 L 17.31 21.64 L 16.86 21.89 L 16.43 22.08 L 16.16 22.34 L 16.16 22.67 L 16.44 22.92 L 16.87 23.11 L 17.31 23.37 L 17.72 23.73 L 18.12 24.12 L 18.53 24.50 L 18.96 24.79 L 19.42 24.91 L 19.80 24.79 L 19.96 24.40 L 20.00 23.88 L 20.00 23.32 L 20.02 22.77 L 20.10 22.24 L 20.33 21.78 L 20.68 21.39 L 21.12 21.12 L 21.61 20.96 L 22.09 20.76 L 22.53 20.47 L 22.98 20.20 L 23.47 20.08 L 23.96 20.16 L 24.39 20.44 L 24.72 20.84 L 24.92 21.32 L 24.99 21.85 L 25.00 22.41 L 25.01 22.97 L 25.04 23.51 L 25.19 24.01 L 25.46 24.46 L 25.75 24.90 L 25.91 25.38 L 25.86 25.87 L 25.62 26.31 L 25.23 26.67 L 24.78 26.88 L 24.29 26.89 L 23.82 26.71 L 23.38 26.40 L 22.94 26.15 L 22.49 26.10 L 22.16 26.30 L 22.03 26.72 L 22.00 27.26 L 22.00 27.81 L 22.03 28.34 L 22.18 28.75 L 22.55 28.95 L 23.06 28.99 L 23.62 29.00 L 24.18 29.00 L 24.74 29.00 L 25.30 29.00 L 25.86 29.00 L 26.42 29.00 L 26.98 29.00 L 27.54 29.00 L 28.09 28.98 L 28.56 28.90 L 28.88 28.65 L 29.08 28.24 L 29.31 27.79 L 29.66 27.40 L 30.10 27.14 L 30.60 27.08 L 31.08 27.23 L 31.49 27.54 L 31.80 27.96 L 31.95 28.46 L 31.99 29.00 L 32.00 29.56 L 32.00 30.12 L 32.00 30.68 L 32.00 31.24 L 32.00 31.80 L 32.03 32.33 L 32.18 32.74 L 32.54 32.94 L 33.04 32.98 L 33.52 32.91 L 33.85 32.68 L 33.98 32.25 L 34.02 31.72 L 34.11 31.20 L 34.35 30.74 L 34.71 30.37 L 35.16 30.12 L 35.68 30.02 L 36.23 30.02 L 36.75 30.10 L 37.22 30.32 L 37.61 30.67 L 37.88 31.10 L 38.07 31.54 L 38.31 31.83 L 38.64 31.85 L 38.89 31.58 L 38.98 31.12 L 38.97 30.58 L 38.86 30.07 L 38.60 29.62 L 38.29 29.19 L 38.07 28.73 L 37.87 28.33 L 37.54 28.07 L 37.11 27.88 L 36.67 27.61 L 36.32 27.22 L 36.10 26.75 L 36.02 26.23 L 36.02 25.68 L 36.12 25.16 L 36.37 24.71 L 36.74 24.35 L 37.18 24.09 L 37.60 23.90 L 37.90 23.61 L 38.09 23.19 L 38.33 22.74 L 38.64 22.31 L 38.89 21.85 L 39.05 21.36 L 39.25 20.88 L 39.58 20.47 L 40.00 20.17 L 40.46 19.99 L 40.82 19.77 L 41.03 19.38 L 41.23 18.92 L 41.52 18.48 L 41.79 18.04 L 41.91 17.57 L 41.79 17.19 L 41.42 16.98 L 40.96 16.80 L 40.52 16.52 L 40.08 16.23 L 39.59 16.06 L 39.05 16.01 L 38.49 16.00 L 37.93 16.00 L 37.37 16.00 L 36.81 16.00 L 36.25 16.00 L 35.69 16.00 L 35.13 16.00 L 34.58 15.98 L 34.07 15.86 L 33.61 15.59 L 33.18 15.29 L 32.70 15.09 L 32.17 15.01 L 31.62 15.00 L 31.06 15.00 L 30.50 15.00 L 29.94 15.00 L 29.38 15.00 L 28.82 14.99 L 28.29 14.91 L 27.82 14.70 L 27.42 14.36 L 27.15 13.93 L 27.08 13.44 L 27.21 12.95 L 27.49 12.51 L 27.78 12.07 L 27.91 11.61 L 27.80 11.23 L 27.43 11.05 L 26.91 11.00 L 26.36 11.00 L 25.80 10.98 L 25.27 10.91 L 24.80 10.70 L 24.38 10.36 L 23.98 9.98 L 23.58 9.60 L 23.15 9.27 L 22.67 9.08 L 22.14 9.01 L 21.59 8.98 L 21.08 8.86 L 20.62 8.60 L 20.19 8.30 L 19.71 8.09 L 19.19 8.01 L 18.63 8.00 L 18.07 8.00 L 17.52 7.96 L 17.02 7.83 L 16.57 7.56 L 16.13 7.26 L 15.65 7.08 L 15.12 7.01 L 14.57 7.03 Z M 68.19 4.19 L 68.03 4.56 L 68.00 5.05 L 68.00 5.58 L 68.01 6.09 L 68.08 6.55 L 68.30 6.85 L 68.68 6.91 L 69.11 6.76 L 69.52 6.48 L 69.93 6.21 L 70.39 6.06 L 70.90 6.01 L 71.41 5.98 L 71.90 5.88 L 72.32 5.64 L 72.72 5.34 L 73.15 5.10 L 73.56 4.94 L 73.84 4.71 L 73.88 4.38 L 73.66 4.12 L 73.24 4.02 L 72.73 4.00 L 72.21 4.00 L 71.68 4.00 L 71.16 4.00 L 70.63 4.00 L 70.10 4.00 L 69.58 4.00 L 69.05 4.00 L 68.56 4.03 Z M 40.19 4.19 L 39.99 4.56 L 39.82 5.01 L 39.53 5.42 L 39.14 5.74 L 38.68 5.92 L 38.16 5.99 L 37.62 6.00 L 37.08 6.00 L 36.54 6.00 L 36.00 6.01 L 35.48 6.04 L 34.99 6.18 L 34.56 6.45 L 34.14 6.74 L 33.68 6.92 L 33.16 6.99 L 32.62 7.00 L 32.08 7.00 L 31.54 7.00 L 31.01 7.01 L 30.52 7.06 L 30.17 7.25 L 30.03 7.65 L 30.00 8.17 L 30.00 8.71 L 30.02 9.23 L 30.13 9.66 L 30.42 9.92 L 30.84 10.10 L 31.27 10.35 L 31.63 10.70 L 31.89 11.12 L 32.06 11.55 L 32.31 11.85 L 32.73 11.97 L 33.23 11.98 L 33.66 11.87 L 33.92 11.58 L 34.10 11.16 L 34.35 10.73 L 34.70 10.37 L 35.13 10.11 L 35.61 9.96 L 36.08 9.78 L 36.50 9.50 L 36.92 9.22 L 37.37 9.03 L 37.75 8.84 L 37.94 8.48 L 38.00 7.99 L 38.04 7.48 L 38.18 6.99 L 38.47 6.58 L 38.86 6.26 L 39.32 6.09 L 39.80 6.12 L 40.24 6.32 L 40.66 6.62 L 41.10 6.87 L 41.59 6.98 L 42.12 7.01 L 42.64 7.07 L 43.11 7.24 L 43.53 7.53 L 43.96 7.80 L 44.44 7.95 L 44.96 7.99 L 45.49 7.97 L 45.98 7.84 L 46.41 7.58 L 46.83 7.28 L 47.29 7.09 L 47.80 7.01 L 48.34 7.00 L 48.88 7.00 L 49.42 7.00 L 49.96 7.00 L 50.50 7.00 L 51.04 6.99 L 51.56 6.95 L 52.04 6.80 L 52.47 6.52 L 52.89 6.24 L 53.37 6.07 L 53.88 6.01 L 54.42 6.00 L 54.96 6.00 L 55.49 5.97 L 55.98 5.84 L 56.39 5.56 L 56.72 5.17 L 56.89 4.73 L 56.85 4.33 L 56.57 4.10 L 56.11 4.01 L 55.58 4.00 L 55.04 4.00 L 54.50 4.00 L 53.96 4.00 L 53.41 4.00 L 52.87 4.00 L 52.33 4.00 L 51.79 4.00 L 51.25 4.00 L 50.71 4.00 L 50.17 4.00 L 49.65 4.03 L 49.25 4.17 L 49.03 4.51 L 48.87 4.95 L 48.59 5.36 L 48.20 5.70 L 47.76 5.89 L 47.28 5.90 L 46.83 5.71 L 46.44 5.39 L 46.15 4.98 L 45.98 4.53 L 45.78 4.18 L 45.38 4.03 L 44.87 4.00 L 44.33 4.00 L 43.79 4.00 L 43.25 4.00 L 42.71 4.00 L 42.17 4.00 L 41.62 4.00 L 41.09 4.00 L 40.58 4.03 Z M 393.05 3.13 L 392.66 3.39 L 392.33 3.74 L 392.12 4.15 L 392.09 4.56 L 392.28 4.86 L 392.65 5.03 L 393.07 5.21 L 393.47 5.47 L 393.87 5.75 L 394.30 5.93 L 394.79 5.99 L 395.27 5.98 L 395.68 5.87 L 395.91 5.60 L 395.98 5.16 L 395.98 4.67 L 395.90 4.20 L 395.69 3.77 L 395.37 3.41 L 394.98 3.15 L 394.52 3.03 L 394.02 3.01 L 393.52 3.02 Z M 364.18 3.18 L 364.06 3.50 L 364.18 3.82 L 364.53 3.97 L 365.00 4.00 L 365.50 4.00 L 366.00 4.00 L 366.50 4.00 L 367.00 4.00 L 367.50 4.00 L 368.00 4.00 L 368.50 4.00 L 369.00 4.00 L 369.50 4.00 L 370.00 4.00 L 370.50 4.00 L 371.00 4.00 L 371.47 3.97 L 371.82 3.82 L 371.94 3.50 L 371.82 3.18 L 371.47 3.03 L 371.00 3.00 L 370.50 3.00 L 370.00 3.00 L 369.50 3.00 L 369.00 3.00 L 368.50 3.00 L 368.00 3.00 L 367.50 3.00 L 367.00 3.00 L 366.50 3.00 L 366.00 3.00 L 365.50 3.00 L 365.00 3.00 L 364.53 3.03 Z M 211.20 3.20 L 211.03 3.57 L 211.00 4.08 L 211.00 4.62 L 211.00 5.15 L 211.00 5.69 L 210.99 6.22 L 210.91 6.73 L 210.71 7.18 L 210.38 7.57 L 209.97 7.85 L 209.48 7.97 L 208.96 8.01 L 208.49 8.07 L 208.17 8.27 L 208.12 8.59 L 208.34 8.87 L 208.76 8.98 L 209.27 8.98 L 209.77 8.90 L 210.22 8.69 L 210.64 8.39 L 211.07 8.13 L 211.56 8.02 L 212.09 8.00 L 212.63 8.00 L 213.17 8.00 L 213.71 8.00 L 214.24 8.02 L 214.75 8.09 L 215.20 8.30 L 215.61 8.60 L 216.04 8.85 L 216.48 8.92 L 216.82 8.76 L 216.92 8.39 L 216.79 7.95 L 216.50 7.53 L 216.14 7.14 L 215.76 6.76 L 215.40 6.37 L 215.14 5.94 L 215.02 5.45 L 215.00 4.92 L 215.00 4.38 L 214.98 3.86 L 214.90 3.41 L 214.64 3.13 L 214.21 3.02 L 213.69 3.00 L 213.15 3.00 L 212.62 3.00 L 212.08 3.00 L 211.57 3.03 Z" fill="rgb(178,2,3)" fill-rule="evenodd"/>
  <path d="M 318.30 0.79 L 316.69 3.60 L 312.60 3.53 L 308.32 3.00 L 303.81 3.00 L 299.31 3.00 L 294.81 3.00 L 290.30 3.00 L 285.80 3.00 L 281.30 3.00 L 276.79 3.00 L 272.29 3.00 L 267.79 3.00 L 263.28 3.00 L 258.78 3.00 L 254.27 3.00 L 249.79 3.05 L 245.64 3.91 L 241.18 4.00 L 236.67 4.00 L 232.17 4.00 L 228.00 4.55 L 223.99 4.00 L 219.92 3.29 L 216.53 4.62 L 217.41 7.96 L 215.26 9.38 L 211.09 9.31 L 207.71 8.98 L 209.34 6.57 L 208.54 4.17 L 204.50 4.75 L 200.33 4.44 L 196.13 3.70 L 191.92 3.00 L 187.42 3.00 L 182.91 3.00 L 178.62 3.42 L 174.85 3.47 L 170.64 4.00 L 166.14 4.00 L 161.64 4.00 L 157.13 4.00 L 152.64 3.98 L 148.53 3.46 L 144.44 3.98 L 140.01 3.85 L 136.10 3.66 L 131.77 4.00 L 127.26 4.00 L 122.76 4.00 L 118.26 4.00 L 113.75 4.00 L 109.25 4.00 L 104.75 4.00 L 100.24 4.00 L 95.74 4.00 L 91.24 4.00 L 86.73 4.00 L 82.23 4.00 L 78.00 4.66 L 73.98 5.82 L 70.09 7.24 L 66.83 6.70 L 63.25 6.81 L 59.90 5.29 L 56.20 6.43 L 52.18 7.60 L 48.27 8.54 L 44.81 9.77 L 41.09 8.09 L 38.92 9.02 L 38.42 12.94 L 40.90 15.72 L 42.34 18.64 L 40.10 21.76 L 37.93 24.94 L 38.32 27.74 L 40.29 31.24 L 38.91 33.65 L 35.50 32.63 L 32.34 33.57 L 29.81 31.26 L 25.74 30.58 L 21.66 29.70 L 20.97 26.81 L 23.78 25.51 L 23.67 23.57 L 21.35 25.06 L 17.90 24.91 L 15.59 22.25 L 18.55 20.17 L 20.85 17.42 L 19.14 13.69 L 17.41 10.04 L 15.05 10.52 L 12.61 12.62 L 11.05 9.39 L 12.63 5.93 L 12.33 3.55 L 8.67 3.50 L 8.85 7.03 L 9.00 11.47 L 8.63 15.82 L 6.98 19.64 L 6.76 23.47 L 8.34 27.06 L 11.59 28.80 L 15.28 30.75 L 18.31 33.12 L 21.22 34.51 L 24.83 33.58 L 26.56 36.33 L 30.23 36.03 L 34.61 35.73 L 38.81 35.01 L 43.30 35.02 L 47.36 36.02 L 50.56 37.91 L 54.99 38.00 L 59.50 38.00 L 64.00 38.00 L 68.50 38.00 L 73.01 38.00 L 77.51 38.00 L 82.01 38.00 L 86.52 38.00 L 91.02 38.00 L 95.53 38.00 L 100.03 38.00 L 104.53 38.00 L 109.04 38.00 L 113.54 38.00 L 118.04 38.00 L 122.45 37.76 L 126.44 37.50 L 130.52 37.49 L 134.69 37.27 L 138.59 37.22 L 142.99 37.00 L 147.50 37.00 L 151.39 36.52 L 149.64 35.48 L 145.85 35.25 L 144.35 31.83 L 147.09 30.72 L 151.27 31.43 L 155.36 32.30 L 155.95 35.13 L 157.35 36.95 L 161.62 36.64 L 164.14 33.62 L 163.52 30.07 L 164.50 26.75 L 167.01 24.25 L 169.44 25.95 L 169.08 28.68 L 173.19 29.00 L 177.68 29.03 L 181.61 30.40 L 183.85 33.46 L 181.63 36.34 L 178.51 36.73 L 180.75 37.98 L 185.23 38.00 L 189.52 37.88 L 189.60 35.96 L 191.52 33.52 L 194.46 35.28 L 195.45 37.83 L 199.43 37.31 L 203.47 37.93 L 207.58 37.83 L 209.06 35.62 L 213.10 35.05 L 215.43 36.95 L 216.40 38.00 L 220.80 38.00 L 225.31 38.00 L 229.81 38.00 L 234.32 38.00 L 238.82 38.00 L 243.32 38.00 L 247.83 38.00 L 252.33 38.00 L 256.83 38.00 L 261.34 38.00 L 265.84 38.00 L 270.34 38.00 L 274.85 38.00 L 279.35 38.00 L 283.86 38.00 L 288.36 38.00 L 292.86 38.00 L 297.37 38.00 L 301.87 38.00 L 306.37 38.00 L 310.88 38.00 L 315.38 38.00 L 319.88 38.00 L 324.39 38.00 L 328.89 38.00 L 333.39 38.00 L 337.90 38.00 L 342.40 38.00 L 346.89 37.96 L 351.04 37.19 L 355.14 37.87 L 359.59 38.00 L 364.09 38.00 L 368.60 38.00 L 373.10 38.00 L 377.60 38.00 L 382.11 38.00 L 386.61 38.00 L 391.11 38.00 L 395.62 38.00 L 399.82 37.47 L 403.57 37.40 L 405.00 35.83 L 405.72 33.28 L 409.78 32.48 L 413.55 32.44 L 417.71 31.71 L 421.65 30.41 L 423.87 27.99 L 422.41 24.74 L 423.98 21.47 L 426.30 19.48 L 424.60 17.18 L 427.78 16.57 L 431.66 15.87 L 435.40 14.15 L 438.69 14.08 L 441.29 11.40 L 444.95 11.59 L 444.62 9.07 L 444.21 6.34 L 444.78 4.03 L 440.81 3.00 L 436.31 3.00 L 431.81 3.00 L 427.34 3.09 L 423.19 3.95 L 418.71 4.00 L 414.21 4.00 L 409.71 3.98 L 405.51 3.25 L 401.11 3.00 L 397.41 3.81 L 395.37 6.64 L 391.87 5.32 L 389.25 3.08 L 384.83 3.00 L 380.33 3.00 L 375.89 3.07 L 372.57 4.67 L 368.23 5.00 L 363.76 4.94 L 360.31 3.39 L 356.36 3.54 L 352.05 4.00 L 347.57 3.94 L 343.43 3.06 L 339.30 3.72 L 336.26 5.47 L 332.49 4.26 L 328.10 4.00 L 323.59 4.00 L 319.71 3.05 Z M 62.00 30.00 L 62.39 29.63 L 62.80 29.30 L 63.25 29.11 L 63.73 29.11 L 64.19 29.29 L 64.58 29.62 L 64.85 30.05 L 64.97 30.54 L 64.99 31.07 L 64.94 31.59 L 64.78 32.07 L 64.48 32.48 L 64.07 32.78 L 63.59 32.94 L 63.07 32.99 L 62.54 32.97 L 62.05 32.85 L 61.62 32.58 L 61.29 32.19 L 61.11 31.73 L 61.11 31.25 L 61.30 30.80 L 61.63 30.39 Z M 384.13 27.05 L 384.37 26.67 L 384.70 26.34 L 385.09 26.12 L 385.53 26.04 L 385.96 26.13 L 386.34 26.38 L 386.66 26.71 L 386.89 27.10 L 386.98 27.55 L 387.00 28.03 L 386.98 28.51 L 386.87 28.95 L 386.63 29.33 L 386.30 29.66 L 385.91 29.88 L 385.47 29.96 L 385.04 29.87 L 384.66 29.62 L 384.34 29.29 L 384.11 28.90 L 384.02 28.45 L 384.00 27.97 L 384.02 27.49 Z M 198.15 25.06 L 198.43 24.62 L 198.84 24.28 L 199.33 24.08 L 199.87 24.02 L 200.42 24.03 L 200.94 24.15 L 201.39 24.43 L 201.80 24.81 L 202.20 25.21 L 202.58 25.62 L 202.86 26.08 L 202.97 26.60 L 202.98 27.15 L 202.91 27.69 L 202.71 28.17 L 202.37 28.57 L 201.92 28.86 L 201.40 28.98 L 200.84 29.00 L 200.28 29.00 L 199.72 28.98 L 199.19 28.88 L 198.73 28.64 L 198.35 28.26 L 198.11 27.80 L 198.02 27.27 L 198.00 26.71 L 198.00 26.14 L 198.03 25.58 Z M 71.15 25.06 L 71.43 24.62 L 71.84 24.28 L 72.33 24.08 L 72.87 24.01 L 73.43 24.00 L 74.00 24.01 L 74.55 24.05 L 75.05 24.22 L 75.47 24.53 L 75.78 24.95 L 75.92 25.44 L 75.85 25.94 L 75.57 26.38 L 75.16 26.72 L 74.67 26.92 L 74.13 26.99 L 73.57 27.00 L 73.00 26.99 L 72.45 26.95 L 71.95 26.78 L 71.53 26.47 L 71.22 26.05 L 71.08 25.56 Z M 56.14 24.06 L 56.45 23.61 L 56.88 23.27 L 57.37 23.10 L 57.89 23.15 L 58.34 23.42 L 58.70 23.83 L 58.93 24.32 L 59.11 24.84 L 59.37 25.32 L 59.68 25.78 L 59.88 26.27 L 59.87 26.78 L 59.64 27.26 L 59.26 27.64 L 58.78 27.89 L 58.23 27.98 L 57.65 28.00 L 57.06 27.99 L 56.49 27.95 L 55.97 27.79 L 55.53 27.47 L 55.22 27.03 L 55.09 26.52 L 55.19 26.01 L 55.46 25.54 L 55.76 25.08 L 55.96 24.57 Z M 366.15 18.06 L 366.41 17.64 L 366.80 17.30 L 367.26 17.09 L 367.77 17.02 L 368.30 17.02 L 368.81 17.11 L 369.25 17.34 L 369.62 17.69 L 369.88 18.13 L 369.98 18.63 L 369.99 19.16 L 369.92 19.67 L 369.73 20.14 L 369.41 20.54 L 369.00 20.82 L 368.52 20.93 L 368.04 20.85 L 367.61 20.58 L 367.22 20.22 L 366.83 19.83 L 366.47 19.44 L 366.19 19.01 L 366.07 18.54 Z M 380.15 15.06 L 380.43 14.62 L 380.84 14.29 L 381.32 14.10 L 381.82 14.13 L 382.27 14.36 L 382.65 14.74 L 382.89 15.20 L 382.98 15.73 L 383.00 16.29 L 383.00 16.86 L 382.97 17.42 L 382.85 17.94 L 382.57 18.38 L 382.16 18.71 L 381.68 18.90 L 381.18 18.87 L 380.73 18.64 L 380.35 18.26 L 380.11 17.80 L 380.02 17.27 L 380.00 16.71 L 380.00 16.14 L 380.03 15.58 Z M 427.13 13.05 L 427.37 12.67 L 427.70 12.34 L 428.09 12.12 L 428.54 12.02 L 429.01 12.00 L 429.49 12.02 L 429.94 12.12 L 430.32 12.36 L 430.65 12.69 L 430.88 13.08 L 430.96 13.51 L 430.87 13.95 L 430.63 14.33 L 430.30 14.66 L 429.91 14.88 L 429.46 14.98 L 428.99 15.00 L 428.51 14.98 L 428.06 14.88 L 427.68 14.64 L 427.35 14.31 L 427.12 13.92 L 427.04 13.49 Z M 424.16 8.06 L 424.45 7.61 L 424.88 7.27 L 425.37 7.10 L 425.89 7.15 L 426.36 7.40 L 426.83 7.71 L 427.33 7.91 L 427.89 7.99 L 428.45 8.04 L 428.98 8.18 L 429.43 8.49 L 429.76 8.92 L 429.91 9.43 L 429.84 9.94 L 429.55 10.39 L 429.12 10.73 L 428.62 10.92 L 428.06 10.98 L 427.49 10.95 L 426.97 10.79 L 426.50 10.50 L 426.03 10.20 L 425.52 10.01 L 425.01 9.83 L 424.57 9.51 L 424.24 9.08 L 424.09 8.57 Z M 369.13 8.05 L 369.37 7.67 L 369.70 7.34 L 370.09 7.12 L 370.53 7.04 L 370.96 7.13 L 371.34 7.38 L 371.66 7.71 L 371.89 8.10 L 371.98 8.55 L 372.00 9.03 L 371.98 9.51 L 371.87 9.95 L 371.63 10.33 L 371.30 10.66 L 370.91 10.88 L 370.47 10.96 L 370.04 10.87 L 369.66 10.62 L 369.34 10.29 L 369.11 9.90 L 369.02 9.45 L 369.00 8.97 L 369.02 8.49 Z M 384.00 7.00 L 384.43 6.59 L 384.90 6.26 L 385.41 6.10 L 385.94 6.17 L 386.40 6.46 L 386.74 6.90 L 386.93 7.43 L 386.99 8.00 L 387.00 8.60 L 386.98 9.20 L 386.88 9.76 L 386.64 10.25 L 386.24 10.64 L 385.75 10.87 L 385.23 10.87 L 384.73 10.64 L 384.28 10.27 L 383.86 9.85 L 383.45 9.42 L 383.17 8.94 L 383.10 8.41 L 383.26 7.90 L 383.59 7.43 Z" fill="rgb(212,10,9)" fill-rule="evenodd"/>
  <path d="M 425.21 17.19 L 425.10 17.52 L 425.28 17.83 L 425.70 17.97 L 426.22 18.00 L 426.78 18.00 L 427.33 18.02 L 427.84 18.12 L 428.29 18.37 L 428.65 18.74 L 428.87 19.18 L 428.90 19.67 L 428.73 20.14 L 428.40 20.54 L 427.98 20.84 L 427.49 21.00 L 427.01 21.17 L 426.57 21.44 L 426.13 21.74 L 425.65 21.92 L 425.13 21.99 L 424.61 22.03 L 424.22 22.19 L 424.09 22.56 L 424.19 23.02 L 424.46 23.46 L 424.76 23.89 L 424.93 24.38 L 424.99 24.91 L 425.00 25.46 L 425.00 26.01 L 425.00 26.57 L 425.00 27.12 L 425.00 27.68 L 425.00 28.24 L 425.00 28.79 L 424.98 29.34 L 424.88 29.85 L 424.63 30.30 L 424.25 30.66 L 423.80 30.89 L 423.28 30.98 L 422.74 31.02 L 422.22 31.10 L 421.76 31.33 L 421.33 31.63 L 420.87 31.87 L 420.36 31.98 L 419.82 32.01 L 419.29 32.09 L 418.82 32.29 L 418.39 32.59 L 417.94 32.86 L 417.44 32.97 L 416.90 33.01 L 416.37 33.07 L 415.89 33.25 L 415.45 33.54 L 415.01 33.82 L 414.51 33.96 L 413.97 33.99 L 413.42 34.00 L 412.87 33.99 L 412.34 33.92 L 411.86 33.74 L 411.43 33.44 L 410.99 33.17 L 410.50 33.07 L 410.01 33.17 L 409.57 33.44 L 409.14 33.74 L 408.66 33.92 L 408.13 33.99 L 407.58 34.00 L 407.02 34.00 L 406.47 34.00 L 405.93 34.01 L 405.45 34.09 L 405.16 34.32 L 405.15 34.65 L 405.42 34.89 L 405.88 34.98 L 406.42 35.00 L 406.98 35.00 L 407.53 35.00 L 408.09 35.00 L 408.65 35.00 L 409.20 35.00 L 409.76 35.00 L 410.31 35.00 L 410.87 35.00 L 411.42 35.00 L 411.98 35.01 L 412.52 35.04 L 413.01 35.19 L 413.46 35.46 L 413.89 35.75 L 414.36 35.91 L 414.85 35.87 L 415.31 35.64 L 415.74 35.34 L 416.19 35.10 L 416.68 34.94 L 417.15 34.73 L 417.58 34.43 L 418.03 34.16 L 418.53 34.03 L 419.07 34.01 L 419.60 34.06 L 420.09 34.23 L 420.52 34.52 L 420.96 34.80 L 421.46 34.95 L 421.99 34.99 L 422.55 35.00 L 423.10 35.00 L 423.66 35.00 L 424.21 35.00 L 424.77 35.00 L 425.33 35.00 L 425.88 35.00 L 426.44 35.00 L 426.99 35.01 L 427.53 35.05 L 428.02 35.20 L 428.44 35.49 L 428.76 35.90 L 428.96 36.36 L 429.17 36.74 L 429.53 36.94 L 430.03 36.98 L 430.56 36.95 L 431.05 36.79 L 431.48 36.49 L 431.88 36.12 L 432.27 35.72 L 432.62 35.31 L 432.88 34.86 L 432.98 34.35 L 433.01 33.81 L 433.09 33.28 L 433.29 32.81 L 433.60 32.38 L 433.86 31.94 L 433.98 31.43 L 434.00 30.88 L 434.00 30.33 L 434.00 29.77 L 434.00 29.22 L 434.00 28.66 L 434.00 28.11 L 434.03 27.56 L 434.15 27.05 L 434.42 26.61 L 434.79 26.21 L 435.18 25.82 L 435.55 25.41 L 435.83 24.98 L 435.93 24.49 L 435.82 24.00 L 435.55 23.56 L 435.26 23.13 L 435.05 22.68 L 434.85 22.28 L 434.51 22.05 L 434.06 21.87 L 433.62 21.60 L 433.19 21.30 L 432.73 21.08 L 432.24 20.92 L 431.78 20.68 L 431.36 20.35 L 430.97 19.96 L 430.59 19.57 L 430.27 19.14 L 430.05 18.69 L 429.85 18.30 L 429.51 18.08 L 429.02 18.01 L 428.49 17.96 L 427.99 17.82 L 427.55 17.54 L 427.12 17.25 L 426.64 17.07 L 426.11 17.01 L 425.59 17.04 Z M 428.15 26.06 L 428.43 25.62 L 428.84 25.28 L 429.33 25.08 L 429.87 25.02 L 430.42 25.03 L 430.94 25.15 L 431.38 25.43 L 431.72 25.84 L 431.92 26.33 L 431.98 26.87 L 431.97 27.42 L 431.85 27.94 L 431.57 28.38 L 431.16 28.72 L 430.67 28.92 L 430.13 28.98 L 429.58 28.97 L 429.06 28.85 L 428.62 28.57 L 428.28 28.16 L 428.08 27.67 L 428.02 27.13 L 428.03 26.58 Z M 444.05 13.15 L 443.61 13.40 L 443.19 13.71 L 442.72 13.91 L 442.20 13.99 L 441.66 14.02 L 441.15 14.12 L 440.69 14.37 L 440.29 14.72 L 439.89 15.11 L 439.49 15.48 L 439.07 15.78 L 438.58 15.94 L 438.05 16.00 L 437.51 16.04 L 437.01 16.17 L 436.57 16.44 L 436.14 16.74 L 435.69 16.95 L 435.30 17.14 L 435.11 17.45 L 435.20 17.78 L 435.55 17.92 L 436.00 17.82 L 436.44 17.55 L 436.87 17.26 L 437.34 17.08 L 437.87 17.01 L 438.41 17.02 L 438.92 17.14 L 439.36 17.39 L 439.79 17.70 L 440.25 17.92 L 440.74 18.08 L 441.20 18.30 L 441.59 18.64 L 441.86 19.08 L 441.98 19.58 L 442.00 20.12 L 442.00 20.68 L 442.02 21.22 L 442.10 21.74 L 442.31 22.21 L 442.61 22.64 L 442.88 23.07 L 443.05 23.52 L 443.28 23.82 L 443.61 23.87 L 443.87 23.63 L 443.98 23.18 L 444.00 22.65 L 444.00 22.10 L 444.03 21.56 L 444.15 21.05 L 444.41 20.61 L 444.71 20.18 L 444.91 19.71 L 444.99 19.19 L 445.00 18.64 L 445.00 18.09 L 445.00 17.53 L 445.00 16.98 L 445.00 16.43 L 445.00 15.87 L 445.00 15.32 L 445.00 14.77 L 445.00 14.22 L 444.97 13.69 L 444.83 13.28 L 444.50 13.09 Z" fill="rgb(230,95,92)" fill-rule="evenodd"/>
  <path d="M 437.05 18.14 L 436.63 18.39 L 436.23 18.69 L 435.81 18.91 L 435.40 19.08 L 435.13 19.34 L 435.02 19.76 L 435.02 20.25 L 435.13 20.66 L 435.41 20.90 L 435.86 20.99 L 436.37 21.00 L 436.90 21.00 L 437.42 21.00 L 437.95 21.00 L 438.47 21.00 L 439.00 21.00 L 439.53 21.00 L 440.04 20.99 L 440.51 20.94 L 440.84 20.74 L 440.97 20.34 L 440.98 19.86 L 440.90 19.41 L 440.66 19.13 L 440.25 19.02 L 439.75 18.99 L 439.25 18.91 L 438.81 18.71 L 438.40 18.42 L 437.99 18.16 L 437.52 18.06 Z M 297.18 0.18 L 297.03 0.53 L 297.00 1.00 L 297.03 1.47 L 297.18 1.82 L 297.53 1.97 L 298.00 2.00 L 298.50 2.00 L 299.00 2.00 L 299.50 2.00 L 300.00 2.00 L 300.50 2.00 L 301.00 2.00 L 301.50 2.00 L 302.00 2.00 L 302.50 2.00 L 303.00 2.00 L 303.50 2.00 L 304.00 2.00 L 304.50 2.00 L 305.00 2.00 L 305.47 1.97 L 305.82 1.82 L 305.97 1.47 L 306.00 1.00 L 305.97 0.53 L 305.82 0.18 L 305.47 0.03 L 305.00 0.00 L 304.50 0.00 L 304.00 0.00 L 303.50 0.00 L 303.00 0.00 L 302.50 0.00 L 302.00 0.00 L 301.50 0.00 L 301.00 0.00 L 300.50 0.00 L 300.00 0.00 L 299.50 0.00 L 299.00 0.00 L 298.50 0.00 L 298.00 0.00 L 297.53 0.03 Z M 250.18 0.18 L 250.03 0.53 L 250.00 1.00 L 250.03 1.47 L 250.18 1.82 L 250.53 1.97 L 251.00 2.00 L 251.50 2.00 L 252.00 2.00 L 252.50 2.00 L 253.00 2.00 L 253.50 2.00 L 254.00 2.00 L 254.50 2.00 L 255.00 2.00 L 255.50 2.00 L 256.00 2.00 L 256.50 2.00 L 257.00 2.00 L 257.50 2.00 L 258.00 2.00 L 258.50 2.00 L 259.00 2.00 L 259.50 2.00 L 260.00 2.00 L 260.47 1.97 L 260.82 1.82 L 260.97 1.47 L 261.00 1.00 L 260.97 0.53 L 260.82 0.18 L 260.47 0.03 L 260.00 0.00 L 259.50 0.00 L 259.00 0.00 L 258.50 0.00 L 258.00 0.00 L 257.50 0.00 L 257.00 0.00 L 256.50 0.00 L 256.00 0.00 L 255.50 0.00 L 255.00 0.00 L 254.50 0.00 L 254.00 0.00 L 253.50 0.00 L 253.00 0.00 L 252.50 0.00 L 252.00 0.00 L 251.50 0.00 L 251.00 0.00 L 250.53 0.03 Z M 225.18 0.18 L 225.03 0.53 L 225.00 1.00 L 225.03 1.47 L 225.18 1.82 L 225.53 1.97 L 226.00 2.00 L 226.50 2.00 L 227.00 2.00 L 227.50 2.00 L 228.00 2.00 L 228.50 2.00 L 229.00 2.00 L 229.50 2.00 L 230.00 2.00 L 230.50 2.00 L 231.00 2.00 L 231.50 2.00 L 232.00 2.00 L 232.50 2.00 L 233.00 2.00 L 233.50 2.00 L 234.00 2.00 L 234.50 2.00 L 235.00 2.00 L 235.50 2.00 L 236.00 2.00 L 236.47 1.97 L 236.82 1.82 L 236.97 1.47 L 237.00 1.00 L 236.97 0.53 L 236.82 0.18 L 236.47 0.03 L 236.00 0.00 L 235.50 0.00 L 235.00 0.00 L 234.50 0.00 L 234.00 0.00 L 233.50 0.00 L 233.00 0.00 L 232.50 0.00 L 232.00 0.00 L 231.50 0.00 L 231.00 0.00 L 230.50 0.00 L 230.00 0.00 L 229.50 0.00 L 229.00 0.00 L 228.50 0.00 L 228.00 0.00 L 227.50 0.00 L 227.00 0.00 L 226.50 0.00 L 226.00 0.00 L 225.53 0.03 Z" fill="rgb(237,158,156)" fill-rule="evenodd"/>
  <path d="M 0.18 20.18 L 0.03 20.53 L 0.00 21.00 L 0.00 21.50 L 0.00 22.00 L 0.00 22.50 L 0.00 23.00 L 0.00 23.50 L 0.00 24.00 L 0.00 24.50 L 0.00 25.00 L 0.00 25.50 L 0.00 26.00 L 0.00 26.50 L 0.00 27.00 L 0.00 27.50 L 0.00 28.00 L 0.00 28.50 L 0.00 29.00 L 0.00 29.50 L 0.00 30.00 L 0.00 30.50 L 0.00 31.00 L 0.00 31.50 L 0.00 32.00 L 0.00 32.50 L 0.00 33.00 L 0.00 33.50 L 0.00 34.00 L 0.00 34.50 L 0.00 35.00 L 0.03 35.47 L 0.18 35.82 L 0.53 35.97 L 1.00 36.00 L 1.47 35.97 L 1.82 35.82 L 1.97 35.47 L 2.00 35.00 L 2.00 34.50 L 2.00 34.00 L 2.00 33.50 L 2.00 33.00 L 2.00 32.50 L 2.00 32.00 L 2.00 31.50 L 2.00 31.00 L 2.00 30.50 L 2.00 30.00 L 2.00 29.50 L 2.00 29.00 L 2.00 28.50 L 2.00 28.00 L 2.00 27.50 L 2.00 27.00 L 2.00 26.50 L 2.00 26.00 L 2.00 25.50 L 2.00 25.00 L 2.00 24.50 L 2.00 24.00 L 2.00 23.50 L 2.00 23.00 L 2.00 22.50 L 2.00 22.00 L 2.00 21.50 L 2.00 21.00 L 1.97 20.53 L 1.82 20.18 L 1.47 20.03 L 1.00 20.00 L 0.53 20.03 Z M 424.18 0.18 L 424.03 0.53 L 424.00 1.00 L 424.03 1.47 L 424.18 1.82 L 424.53 1.97 L 425.00 2.00 L 425.50 2.00 L 426.00 2.00 L 426.50 2.00 L 427.00 2.00 L 427.50 2.00 L 428.00 2.00 L 428.50 2.00 L 429.00 2.00 L 429.50 2.00 L 430.00 2.00 L 430.50 2.00 L 431.00 2.00 L 431.50 2.00 L 432.00 2.00 L 432.50 2.00 L 433.00 2.00 L 433.50 2.00 L 434.00 2.00 L 434.50 2.00 L 435.00 2.00 L 435.50 2.00 L 436.00 2.00 L 436.50 2.00 L 437.00 2.00 L 437.50 2.00 L 438.00 2.00 L 438.50 2.00 L 439.00 2.00 L 439.50 2.00 L 440.00 2.00 L 440.50 2.00 L 441.00 2.00 L 441.50 2.00 L 442.00 2.00 L 442.50 2.00 L 443.00 2.00 L 443.47 1.97 L 443.82 1.82 L 443.97 1.47 L 444.00 1.00 L 443.97 0.53 L 443.82 0.18 L 443.47 0.03 L 443.00 0.00 L 442.50 0.00 L 442.00 0.00 L 441.50 0.00 L 441.00 0.00 L 440.50 0.00 L 440.00 0.00 L 439.50 0.00 L 439.00 0.00 L 438.50 0.00 L 438.00 0.00 L 437.50 0.00 L 437.00 0.00 L 436.50 0.00 L 436.00 0.00 L 435.50 0.00 L 435.00 0.00 L 434.50 0.00 L 434.00 0.00 L 433.50 0.00 L 433.00 0.00 L 432.50 0.00 L 432.00 0.00 L 431.50 0.00 L 431.00 0.00 L 430.50 0.00 L 430.00 0.00 L 429.50 0.00 L 429.00 0.00 L 428.50 0.00 L 428.00 0.00 L 427.50 0.00 L 427.00 0.00 L 426.50 0.00 L 426.00 0.00 L 425.50 0.00 L 425.00 0.00 L 424.53 0.03 Z M 320.20 0.20 L 320.04 0.59 L 320.02 1.10 L 320.10 1.57 L 320.36 1.87 L 320.80 1.98 L 321.34 2.00 L 321.89 2.00 L 322.45 2.00 L 323.01 2.00 L 323.56 2.00 L 324.12 2.00 L 324.67 2.00 L 325.23 2.00 L 325.79 2.00 L 326.34 2.00 L 326.90 2.00 L 327.46 2.00 L 328.01 2.00 L 328.57 2.00 L 329.12 2.00 L 329.68 2.00 L 330.24 2.00 L 330.79 2.00 L 331.35 2.00 L 331.91 2.00 L 332.46 2.00 L 333.02 2.00 L 333.58 2.00 L 334.13 2.00 L 334.69 2.00 L 335.24 2.00 L 335.80 2.00 L 336.36 2.00 L 336.91 2.00 L 337.47 2.00 L 338.02 2.00 L 338.58 2.00 L 339.14 2.00 L 339.69 2.00 L 340.25 2.00 L 340.81 2.00 L 341.36 2.00 L 341.92 2.00 L 342.48 2.00 L 343.03 2.00 L 343.59 2.00 L 344.14 2.00 L 344.70 2.00 L 345.26 2.00 L 345.81 2.00 L 346.37 2.00 L 346.93 2.00 L 347.48 2.00 L 348.04 2.00 L 348.59 2.00 L 349.15 2.00 L 349.71 2.00 L 350.26 2.00 L 350.82 2.00 L 351.38 2.00 L 351.93 2.00 L 352.49 2.00 L 353.04 2.00 L 353.60 2.00 L 354.16 2.00 L 354.71 2.00 L 355.27 2.00 L 355.83 2.00 L 356.38 2.00 L 356.94 2.00 L 357.49 2.00 L 358.05 2.00 L 358.61 2.00 L 359.16 2.00 L 359.72 2.00 L 360.27 2.00 L 360.83 2.00 L 361.39 2.00 L 361.94 2.00 L 362.50 2.00 L 363.06 2.00 L 363.61 2.00 L 364.17 2.00 L 364.73 2.00 L 365.28 2.00 L 365.84 2.00 L 366.39 2.00 L 366.95 2.00 L 367.51 2.00 L 368.06 2.00 L 368.62 2.00 L 369.18 2.00 L 369.73 2.00 L 370.29 2.00 L 370.84 2.00 L 371.40 2.00 L 371.96 2.00 L 372.51 2.00 L 373.07 2.00 L 373.62 2.00 L 374.18 2.00 L 374.74 2.00 L 375.29 2.00 L 375.85 2.00 L 376.41 2.00 L 376.96 2.00 L 377.52 2.00 L 378.08 2.00 L 378.63 2.00 L 379.19 2.00 L 379.74 2.00 L 380.30 2.00 L 380.86 2.00 L 381.41 2.00 L 381.97 2.00 L 382.52 2.00 L 383.08 2.00 L 383.64 2.00 L 384.19 2.00 L 384.75 2.00 L 385.31 2.00 L 385.86 2.00 L 386.42 2.00 L 386.98 2.00 L 387.53 2.00 L 388.09 2.00 L 388.64 2.00 L 389.20 2.00 L 389.76 2.00 L 390.31 2.00 L 390.87 2.00 L 391.42 2.00 L 391.98 2.00 L 392.54 2.00 L 393.09 2.00 L 393.65 2.00 L 394.21 2.00 L 394.76 2.00 L 395.32 2.00 L 395.88 2.00 L 396.43 2.00 L 396.99 2.00 L 397.54 2.00 L 398.10 2.00 L 398.66 2.00 L 399.21 2.00 L 399.77 2.00 L 400.33 2.00 L 400.88 2.00 L 401.44 2.00 L 401.99 2.00 L 402.55 2.00 L 403.11 2.00 L 403.66 2.00 L 404.22 2.00 L 404.77 2.00 L 405.33 2.00 L 405.88 2.00 L 406.41 1.96 L 406.80 1.80 L 406.96 1.41 L 406.98 0.90 L 406.90 0.43 L 406.64 0.13 L 406.20 0.02 L 405.66 0.00 L 405.11 0.00 L 404.55 0.00 L 403.99 0.00 L 403.44 0.00 L 402.88 0.00 L 402.33 0.00 L 401.77 0.00 L 401.21 0.00 L 400.66 0.00 L 400.10 0.00 L 399.54 0.00 L 398.99 0.00 L 398.43 0.00 L 397.88 0.00 L 397.32 0.00 L 396.76 0.00 L 396.21 0.00 L 395.65 0.00 L 395.09 0.00 L 394.54 0.00 L 393.98 0.00 L 393.42 0.00 L 392.87 0.00 L 392.31 0.00 L 391.76 0.00 L 391.20 0.00 L 390.64 0.00 L 390.09 0.00 L 389.53 0.00 L 388.98 0.00 L 388.42 0.00 L 387.86 0.00 L 387.31 0.00 L 386.75 0.00 L 386.19 0.00 L 385.64 0.00 L 385.08 0.00 L 384.52 0.00 L 383.97 0.00 L 383.41 0.00 L 382.86 0.00 L 382.30 0.00 L 381.74 0.00 L 381.19 0.00 L 380.63 0.00 L 380.08 0.00 L 379.52 0.00 L 378.96 0.00 L 378.41 0.00 L 377.85 0.00 L 377.29 0.00 L 376.74 0.00 L 376.18 0.00 L 375.62 0.00 L 375.07 0.00 L 374.51 0.00 L 373.96 0.00 L 373.40 0.00 L 372.84 0.00 L 372.29 0.00 L 371.73 0.00 L 371.17 0.00 L 370.62 0.00 L 370.06 0.00 L 369.51 0.00 L 368.95 0.00 L 368.39 0.00 L 367.84 0.00 L 367.28 0.00 L 366.73 0.00 L 366.17 0.00 L 365.61 0.00 L 365.06 0.00 L 364.50 0.00 L 363.94 0.00 L 363.39 0.00 L 362.83 0.00 L 362.27 0.00 L 361.72 0.00 L 361.16 0.00 L 360.61 0.00 L 360.05 0.00 L 359.49 0.00 L 358.94 0.00 L 358.38 0.00 L 357.83 0.00 L 357.27 0.00 L 356.71 0.00 L 356.16 0.00 L 355.60 0.00 L 355.04 0.00 L 354.49 0.00 L 353.93 0.00 L 353.38 0.00 L 352.82 0.00 L 352.26 0.00 L 351.71 0.00 L 351.15 0.00 L 350.59 0.00 L 350.04 0.00 L 349.48 0.00 L 348.92 0.00 L 348.37 0.00 L 347.81 0.00 L 347.26 0.00 L 346.70 0.00 L 346.14 0.00 L 345.59 0.00 L 345.03 0.00 L 344.48 0.00 L 343.92 0.00 L 343.36 0.00 L 342.81 0.00 L 342.25 0.00 L 341.69 0.00 L 341.14 0.00 L 340.58 0.00 L 340.02 0.00 L 339.47 0.00 L 338.91 0.00 L 338.36 0.00 L 337.80 0.00 L 337.24 0.00 L 336.69 0.00 L 336.13 0.00 L 335.58 0.00 L 335.02 0.00 L 334.46 0.00 L 333.91 0.00 L 333.35 0.00 L 332.79 0.00 L 332.24 0.00 L 331.68 0.00 L 331.12 0.00 L 330.57 0.00 L 330.01 0.00 L 329.46 0.00 L 328.90 0.00 L 328.34 0.00 L 327.79 0.00 L 327.23 0.00 L 326.67 0.00 L 326.12 0.00 L 325.56 0.00 L 325.01 0.00 L 324.45 0.00 L 323.89 0.00 L 323.34 0.00 L 322.78 0.00 L 322.23 0.00 L 321.67 0.00 L 321.12 0.00 L 320.59 0.04 Z M 282.18 0.18 L 282.03 0.53 L 282.00 1.00 L 282.03 1.47 L 282.18 1.82 L 282.53 1.97 L 283.00 2.00 L 283.50 2.00 L 284.00 2.00 L 284.50 2.00 L 285.00 2.00 L 285.50 2.00 L 286.00 2.00 L 286.50 2.00 L 287.00 2.00 L 287.50 2.00 L 288.00 2.00 L 288.50 2.00 L 289.00 2.00 L 289.50 2.00 L 290.00 2.00 L 290.50 2.00 L 291.00 2.00 L 291.50 2.00 L 292.00 2.00 L 292.50 2.00 L 293.00 2.00 L 293.50 2.00 L 294.00 2.00 L 294.50 2.00 L 295.00 2.00 L 295.47 1.97 L 295.82 1.82 L 295.97 1.47 L 296.00 1.00 L 295.97 0.53 L 295.82 0.18 L 295.47 0.03 L 295.00 0.00 L 294.50 0.00 L 294.00 0.00 L 293.50 0.00 L 293.00 0.00 L 292.50 0.00 L 292.00 0.00 L 291.50 0.00 L 291.00 0.00 L 290.50 0.00 L 290.00 0.00 L 289.50 0.00 L 289.00 0.00 L 288.50 0.00 L 288.00 0.00 L 287.50 0.00 L 287.00 0.00 L 286.50 0.00 L 286.00 0.00 L 285.50 0.00 L 285.00 0.00 L 284.50 0.00 L 284.00 0.00 L 283.50 0.00 L 283.00 0.00 L 282.53 0.03 Z M 270.18 0.18 L 270.03 0.53 L 270.00 1.00 L 270.03 1.47 L 270.18 1.82 L 270.53 1.97 L 271.00 2.00 L 271.50 2.00 L 272.00 2.00 L 272.50 2.00 L 273.00 2.00 L 273.50 2.00 L 274.00 2.00 L 274.50 2.00 L 275.00 2.00 L 275.50 2.00 L 276.00 2.00 L 276.50 2.00 L 277.00 2.00 L 277.47 1.97 L 277.82 1.82 L 277.97 1.47 L 278.00 1.00 L 277.97 0.53 L 277.82 0.18 L 277.47 0.03 L 277.00 0.00 L 276.50 0.00 L 276.00 0.00 L 275.50 0.00 L 275.00 0.00 L 274.50 0.00 L 274.00 0.00 L 273.50 0.00 L 273.00 0.00 L 272.50 0.00 L 272.00 0.00 L 271.50 0.00 L 271.00 0.00 L 270.53 0.03 Z M 263.18 0.18 L 263.03 0.53 L 263.00 1.00 L 263.03 1.47 L 263.18 1.82 L 263.53 1.97 L 264.00 2.00 L 264.50 2.00 L 265.00 2.00 L 265.50 2.00 L 266.00 2.00 L 266.47 1.97 L 266.82 1.82 L 266.97 1.47 L 267.00 1.00 L 266.97 0.53 L 266.82 0.18 L 266.47 0.03 L 266.00 0.00 L 265.50 0.00 L 265.00 0.00 L 264.50 0.00 L 264.00 0.00 L 263.53 0.03 Z M 239.18 0.18 L 239.03 0.53 L 239.00 1.00 L 239.03 1.47 L 239.18 1.82 L 239.53 1.97 L 240.00 2.00 L 240.50 2.00 L 241.00 2.00 L 241.50 2.00 L 242.00 2.00 L 242.50 2.00 L 243.00 2.00 L 243.50 2.00 L 244.00 2.00 L 244.50 2.00 L 245.00 2.00 L 245.50 2.00 L 246.00 2.00 L 246.50 2.00 L 247.00 2.00 L 247.50 2.00 L 248.00 2.00 L 248.47 1.97 L 248.82 1.82 L 248.97 1.47 L 249.00 1.00 L 248.97 0.53 L 248.82 0.18 L 248.47 0.03 L 248.00 0.00 L 247.50 0.00 L 247.00 0.00 L 246.50 0.00 L 246.00 0.00 L 245.50 0.00 L 245.00 0.00 L 244.50 0.00 L 244.00 0.00 L 243.50 0.00 L 243.00 0.00 L 242.50 0.00 L 242.00 0.00 L 241.50 0.00 L 241.00 0.00 L 240.50 0.00 L 240.00 0.00 L 239.53 0.03 Z M 178.18 0.18 L 178.03 0.53 L 178.00 1.00 L 178.03 1.47 L 178.18 1.82 L 178.53 1.97 L 179.00 2.00 L 179.50 2.00 L 180.00 2.00 L 180.50 2.00 L 181.00 2.00 L 181.50 2.00 L 182.00 2.00 L 182.50 2.00 L 183.00 2.00 L 183.50 2.00 L 184.00 2.00 L 184.50 2.00 L 185.00 2.00 L 185.50 2.00 L 186.00 2.00 L 186.50 2.00 L 187.00 2.00 L 187.50 2.00 L 188.00 2.00 L 188.50 2.00 L 189.00 2.00 L 189.50 2.00 L 190.00 2.00 L 190.50 2.00 L 191.00 2.00 L 191.50 2.00 L 192.00 2.00 L 192.50 2.00 L 193.00 2.00 L 193.50 2.00 L 194.00 2.00 L 194.50 2.00 L 195.00 2.00 L 195.50 2.00 L 196.00 2.00 L 196.50 2.00 L 197.00 2.00 L 197.50 2.00 L 198.00 2.00 L 198.50 2.00 L 199.00 2.00 L 199.50 2.00 L 200.00 2.00 L 200.50 2.00 L 201.00 2.00 L 201.50 2.00 L 202.00 2.00 L 202.50 2.00 L 203.00 2.00 L 203.50 2.00 L 204.00 2.00 L 204.50 2.00 L 205.00 2.00 L 205.50 2.00 L 206.00 2.00 L 206.50 2.00 L 207.00 2.00 L 207.50 2.00 L 208.00 2.00 L 208.50 2.00 L 209.00 2.00 L 209.50 2.00 L 210.00 2.00 L 210.50 2.00 L 211.00 2.00 L 211.50 2.00 L 212.00 2.00 L 212.50 2.00 L 213.00 2.00 L 213.50 2.00 L 214.00 2.00 L 214.50 2.00 L 215.00 2.00 L 215.50 2.00 L 216.00 2.00 L 216.50 2.00 L 217.00 2.00 L 217.50 2.00 L 218.00 2.00 L 218.50 2.00 L 219.00 2.00 L 219.50 2.00 L 220.00 2.00 L 220.50 2.00 L 221.00 2.00 L 221.50 2.00 L 222.00 2.00 L 222.50 2.00 L 223.00 2.00 L 223.47 1.97 L 223.82 1.82 L 223.97 1.47 L 224.00 1.00 L 223.97 0.53 L 223.82 0.18 L 223.47 0.03 L 223.00 0.00 L 222.50 0.00 L 222.00 0.00 L 221.50 0.00 L 221.00 0.00 L 220.50 0.00 L 220.00 0.00 L 219.50 0.00 L 219.00 0.00 L 218.50 0.00 L 218.00 0.00 L 217.50 0.00 L 217.00 0.00 L 216.50 0.00 L 216.00 0.00 L 215.50 0.00 L 215.00 0.00 L 214.50 0.00 L 214.00 0.00 L 213.50 0.00 L 213.00 0.00 L 212.50 0.00 L 212.00 0.00 L 211.50 0.00 L 211.00 0.00 L 210.50 0.00 L 210.00 0.00 L 209.50 0.00 L 209.00 0.00 L 208.50 0.00 L 208.00 0.00 L 207.50 0.00 L 207.00 0.00 L 206.50 0.00 L 206.00 0.00 L 205.50 0.00 L 205.00 0.00 L 204.50 0.00 L 204.00 0.00 L 203.50 0.00 L 203.00 0.00 L 202.50 0.00 L 202.00 0.00 L 201.50 0.00 L 201.00 0.00 L 200.50 0.00 L 200.00 0.00 L 199.50 0.00 L 199.00 0.00 L 198.50 0.00 L 198.00 0.00 L 197.50 0.00 L 197.00 0.00 L 196.50 0.00 L 196.00 0.00 L 195.50 0.00 L 195.00 0.00 L 194.50 0.00 L 194.00 0.00 L 193.50 0.00 L 193.00 0.00 L 192.50 0.00 L 192.00 0.00 L 191.50 0.00 L 191.00 0.00 L 190.50 0.00 L 190.00 0.00 L 189.50 0.00 L 189.00 0.00 L 188.50 0.00 L 188.00 0.00 L 187.50 0.00 L 187.00 0.00 L 186.50 0.00 L 186.00 0.00 L 185.50 0.00 L 185.00 0.00 L 184.50 0.00 L 184.00 0.00 L 183.50 0.00 L 183.00 0.00 L 182.50 0.00 L 182.00 0.00 L 181.50 0.00 L 181.00 0.00 L 180.50 0.00 L 180.00 0.00 L 179.50 0.00 L 179.00 0.00 L 178.53 0.03 Z M 7.18 0.18 L 7.03 0.53 L 7.00 1.00 L 7.03 1.47 L 7.18 1.82 L 7.53 1.97 L 8.00 2.00 L 8.50 2.00 L 9.00 2.00 L 9.50 2.00 L 10.00 2.00 L 10.50 2.00 L 11.00 2.00 L 11.50 2.00 L 12.00 2.00 L 12.47 1.97 L 12.82 1.82 L 12.97 1.47 L 13.00 1.00 L 12.97 0.53 L 12.82 0.18 L 12.47 0.03 L 12.00 0.00 L 11.50 0.00 L 11.00 0.00 L 10.50 0.00 L 10.00 0.00 L 9.50 0.00 L 9.00 0.00 L 8.50 0.00 L 8.00 0.00 L 7.53 0.03 Z" fill="rgb(251,238,238)" fill-rule="evenodd"/>
</svg>