<svg xmlns="http://www.w3.org/2000/svg" width="410" height="38" viewBox="0 0 410 38" role="img" aria-label="18_plates_18">
  <title>18_plates_18</title>
  <path d="M 404.19 22.21 L 403.99 22.57 L 403.80 23.04 L 403.52 23.47 L 403.23 23.91 L 403.09 24.39 L 403.14 24.88 L 403.38 25.33 L 403.68 25.76 L 403.91 26.23 L 404.07 26.72 L 404.29 27.18 L 404.60 27.62 L 404.86 28.06 L 404.98 28.57 L 405.01 29.12 L 405.07 29.65 L 405.26 30.13 L 405.55 30.56 L 405.83 31.01 L 405.96 31.51 L 406.00 32.05 L 406.06 32.58 L 406.23 33.07 L 406.54 33.48 L 406.95 33.79 L 407.44 33.97 L 407.93 34.13 L 408.36 34.41 L 408.70 34.81 L 408.91 35.23 L 408.99 35.52 L 409.00 35.45 L 409.00 35.06 L 409.00 34.53 L 409.00 33.97 L 409.00 33.41 L 409.00 32.86 L 409.00 32.30 L 409.00 31.74 L 409.00 31.18 L 409.00 30.63 L 409.00 30.07 L 409.00 29.51 L 409.00 28.95 L 409.00 28.40 L 409.00 27.88 L 409.00 27.52 L 408.98 27.51 L 408.89 27.83 L 408.66 28.25 L 408.30 28.62 L 407.86 28.88 L 407.34 28.98 L 406.80 28.98 L 406.27 28.91 L 405.81 28.70 L 405.41 28.35 L 405.14 27.92 L 405.02 27.41 L 404.99 26.87 L 404.92 26.34 L 404.73 25.86 L 404.44 25.42 L 404.17 24.98 L 404.07 24.49 L 404.18 24.00 L 404.45 23.56 L 404.74 23.13 L 404.90 22.67 L 404.82 22.28 L 404.52 22.10 Z M 321.20 16.21 L 321.04 16.60 L 321.02 17.11 L 321.11 17.58 L 321.37 17.89 L 321.78 18.08 L 322.23 18.33 L 322.61 18.68 L 322.89 19.11 L 323.07 19.55 L 323.33 19.84 L 323.74 19.88 L 324.20 19.70 L 324.63 19.40 L 325.08 19.14 L 325.59 19.02 L 326.13 18.98 L 326.59 18.88 L 326.88 18.61 L 326.98 18.15 L 326.98 17.62 L 326.87 17.11 L 326.60 16.66 L 326.21 16.32 L 325.75 16.11 L 325.25 16.11 L 324.79 16.31 L 324.35 16.61 L 323.90 16.86 L 323.41 16.92 L 322.92 16.77 L 322.48 16.48 L 322.04 16.21 L 321.58 16.09 Z M 362.18 12.18 L 362.03 12.53 L 362.00 13.00 L 362.03 13.47 L 362.18 13.82 L 362.53 13.97 L 363.00 14.00 L 363.50 14.00 L 364.00 14.00 L 364.50 14.00 L 365.00 14.00 L 365.47 13.97 L 365.82 13.82 L 365.97 13.47 L 366.00 13.00 L 365.97 12.53 L 365.82 12.18 L 365.47 12.03 L 365.00 12.00 L 364.50 12.00 L 364.00 12.00 L 363.50 12.00 L 363.00 12.00 L 362.53 12.03 Z" fill="rgb(109,106,102)" fill-rule="evenodd"/>
  <path d="M 137.20 20.21 L 137.03 20.59 L 136.99 21.10 L 136.93 21.63 L 136.76 22.11 L 136.45 22.53 L 136.07 22.93 L 135.68 23.31 L 135.27 23.65 L 134.82 23.89 L 134.30 23.98 L 133.76 24.00 L 133.21 24.00 L 132.68 24.03 L 132.28 24.17 L 132.10 24.48 L 132.21 24.81 L 132.59 24.96 L 133.10 24.99 L 133.63 24.93 L 134.11 24.76 L 134.54 24.47 L 134.98 24.19 L 135.47 24.05 L 136.00 24.01 L 136.53 24.05 L 137.02 24.19 L 137.44 24.49 L 137.75 24.89 L 137.91 25.36 L 137.87 25.85 L 137.63 26.29 L 137.27 26.65 L 136.83 26.90 L 136.41 27.09 L 136.15 27.35 L 136.16 27.68 L 136.44 27.90 L 136.91 27.99 L 137.45 28.00 L 138.00 28.00 L 138.55 28.00 L 139.10 28.00 L 139.65 28.00 L 140.19 27.98 L 140.63 27.87 L 140.89 27.58 L 140.98 27.12 L 141.00 26.58 L 141.00 26.03 L 141.00 25.48 L 140.99 24.93 L 140.94 24.40 L 140.77 23.92 L 140.49 23.49 L 140.21 23.05 L 140.03 22.57 L 139.87 22.09 L 139.60 21.65 L 139.24 21.25 L 138.85 20.86 L 138.46 20.48 L 138.03 20.20 L 137.57 20.08 Z M 307.20 3.20 L 307.04 3.58 L 307.02 4.08 L 307.09 4.55 L 307.33 4.86 L 307.75 4.98 L 308.27 5.02 L 308.78 5.10 L 309.24 5.32 L 309.66 5.62 L 310.10 5.86 L 310.58 5.92 L 311.05 5.79 L 311.48 5.51 L 311.91 5.23 L 312.39 5.06 L 312.91 5.01 L 313.42 4.97 L 313.79 4.81 L 313.90 4.48 L 313.74 4.18 L 313.36 4.09 L 312.91 4.23 L 312.48 4.51 L 312.05 4.79 L 311.57 4.95 L 311.04 4.99 L 310.51 4.97 L 310.02 4.84 L 309.60 4.55 L 309.28 4.16 L 309.06 3.72 L 308.87 3.32 L 308.55 3.09 L 308.08 3.02 L 307.58 3.04 Z M 43.11 3.33 L 41.88 3.70 L 40.58 3.94 L 39.20 3.99 L 37.80 4.00 L 36.40 4.00 L 35.00 4.00 L 33.62 4.05 L 32.32 4.32 L 31.17 4.92 L 30.07 5.64 L 28.92 6.25 L 27.72 6.72 L 26.49 7.03 L 25.48 7.48 L 24.85 8.34 L 24.19 9.20 L 23.29 9.46 L 22.41 8.95 L 21.64 8.05 L 20.67 7.34 L 19.42 7.06 L 18.06 6.97 L 16.73 6.78 L 15.53 6.30 L 14.39 5.66 L 13.18 5.20 L 11.84 5.03 L 10.46 4.98 L 9.10 4.88 L 7.82 4.60 L 6.58 4.26 L 5.37 4.18 L 4.47 4.61 L 4.10 5.62 L 4.12 6.91 L 4.40 8.19 L 4.75 9.43 L 4.86 10.72 L 4.57 11.91 L 3.98 12.84 L 3.66 13.52 L 4.00 14.19 L 4.50 15.09 L 4.56 16.19 L 4.42 17.35 L 4.55 18.53 L 4.83 19.78 L 4.97 21.13 L 5.00 22.52 L 5.00 23.92 L 4.99 25.32 L 4.91 26.68 L 4.58 27.90 L 3.93 28.88 L 3.33 29.81 L 3.06 30.97 L 3.02 32.31 L 3.12 33.62 L 3.54 34.68 L 4.42 35.37 L 5.61 35.78 L 6.94 35.96 L 8.32 36.00 L 9.73 36.00 L 11.13 36.00 L 12.51 36.06 L 13.81 36.29 L 15.06 36.68 L 16.35 36.93 L 17.73 36.99 L 19.11 36.96 L 20.44 36.79 L 21.68 36.49 L 22.86 36.43 L 24.06 36.70 L 25.34 36.92 L 26.69 36.91 L 27.98 36.67 L 29.22 36.28 L 30.53 36.05 L 31.91 36.00 L 33.32 36.00 L 34.72 36.00 L 36.12 36.00 L 37.52 36.00 L 38.92 36.00 L 40.31 36.05 L 41.63 36.25 L 42.87 36.60 L 44.10 36.75 L 45.35 36.54 L 46.60 36.21 L 47.93 36.04 L 49.32 36.00 L 50.72 36.00 L 52.12 36.00 L 53.53 36.00 L 54.93 36.00 L 56.33 36.00 L 57.73 36.00 L 59.14 36.00 L 60.52 36.06 L 61.82 36.29 L 63.05 36.65 L 64.29 36.75 L 65.53 36.48 L 66.80 36.17 L 68.14 36.03 L 69.53 36.00 L 70.93 36.00 L 72.31 36.05 L 73.63 36.25 L 74.88 36.62 L 76.17 36.89 L 77.51 36.93 L 78.81 36.71 L 80.06 36.32 L 81.35 36.07 L 82.73 36.01 L 84.13 36.00 L 85.53 36.00 L 86.92 36.03 L 88.26 36.19 L 89.53 36.51 L 90.79 36.83 L 92.02 36.97 L 92.80 36.98 L 92.68 36.86 L 91.94 36.42 L 91.31 35.50 L 91.08 34.26 L 91.19 32.97 L 91.70 31.90 L 92.66 31.29 L 93.87 31.18 L 94.99 31.57 L 95.75 32.41 L 96.34 33.23 L 97.12 33.42 L 98.11 32.93 L 99.22 32.38 L 100.42 32.31 L 101.57 32.81 L 102.62 33.66 L 103.59 34.64 L 104.45 35.64 L 105.29 36.46 L 106.36 36.88 L 107.64 36.95 L 108.80 36.79 L 109.43 36.25 L 109.44 35.32 L 109.41 34.19 L 109.58 33.04 L 109.50 31.91 L 108.97 30.93 L 108.12 30.23 L 107.04 29.74 L 105.84 29.29 L 104.57 29.00 L 103.35 28.66 L 102.49 27.89 L 102.11 26.72 L 102.04 25.37 L 102.16 24.06 L 102.62 22.99 L 103.48 22.52 L 104.54 22.78 L 105.64 23.43 L 106.71 24.14 L 107.65 24.91 L 108.54 25.60 L 109.66 25.93 L 110.99 26.03 L 112.26 26.25 L 113.20 26.83 L 113.48 27.73 L 113.06 28.64 L 112.55 29.46 L 112.54 30.45 L 112.89 31.58 L 113.47 32.49 L 114.47 32.90 L 115.78 32.97 L 117.12 32.84 L 118.39 32.54 L 119.64 32.26 L 120.87 32.31 L 122.05 32.57 L 123.23 32.53 L 124.40 32.16 L 125.44 31.65 L 126.28 30.92 L 127.01 30.13 L 127.34 29.47 L 126.97 28.79 L 126.38 27.85 L 126.08 26.62 L 126.04 25.26 L 126.19 23.94 L 126.64 22.83 L 127.23 21.96 L 127.35 21.24 L 126.69 20.64 L 125.64 20.03 L 124.57 19.31 L 123.66 18.39 L 122.89 17.37 L 122.00 16.57 L 120.89 16.28 L 119.66 16.46 L 118.42 16.77 L 117.15 16.83 L 116.03 16.44 L 115.26 15.61 L 114.73 14.80 L 114.12 14.66 L 113.39 15.20 L 112.45 15.81 L 111.61 16.39 L 111.39 17.17 L 111.85 18.03 L 112.55 18.95 L 113.19 20.02 L 113.69 21.20 L 113.88 22.47 L 113.64 23.67 L 112.92 24.42 L 111.90 24.40 L 110.94 23.71 L 110.26 22.64 L 109.77 21.44 L 109.12 20.31 L 108.25 19.27 L 107.32 18.25 L 106.62 17.19 L 106.53 16.12 L 107.18 15.25 L 108.24 14.61 L 109.35 14.00 L 110.19 13.27 L 110.35 12.56 L 109.63 12.14 L 108.42 11.96 L 107.14 11.73 L 105.98 11.46 L 105.00 11.66 L 104.49 12.46 L 104.56 13.57 L 104.73 14.78 L 104.49 15.89 L 103.68 16.60 L 102.57 16.66 L 101.65 16.05 L 101.17 14.97 L 100.96 13.73 L 100.67 12.81 L 100.11 12.68 L 99.37 13.25 L 98.41 13.97 L 97.28 14.54 L 96.06 14.97 L 94.82 15.37 L 93.58 15.75 L 92.27 15.93 L 90.94 15.85 L 89.71 15.61 L 88.74 15.57 L 88.08 16.14 L 87.51 17.13 L 86.70 18.04 L 85.70 18.48 L 84.82 18.17 L 84.47 17.28 L 84.64 16.14 L 84.89 14.87 L 85.04 13.53 L 85.26 12.23 L 85.54 11.03 L 85.42 9.89 L 84.77 8.82 L 83.96 7.78 L 83.48 6.70 L 83.53 5.54 L 83.71 4.38 L 83.43 3.48 L 82.47 3.09 L 81.15 3.01 L 79.75 3.00 L 78.35 3.00 L 76.95 3.01 L 75.61 3.07 L 74.49 3.41 L 73.61 4.10 L 72.66 4.86 L 71.53 5.42 L 70.32 5.73 L 69.17 5.56 L 68.32 4.82 L 67.73 3.89 L 66.95 3.36 L 65.87 3.41 L 64.67 3.74 L 63.38 3.89 L 62.09 3.69 L 60.86 3.30 L 59.55 3.06 L 58.18 3.03 L 56.84 3.17 L 55.57 3.48 L 54.33 3.87 L 53.10 4.25 L 51.92 4.57 L 50.74 4.53 L 49.50 4.22 L 48.19 4.01 L 46.86 3.84 L 45.59 3.53 L 44.35 3.25 Z M 25.15 24.06 L 25.43 23.62 L 25.84 23.28 L 26.33 23.08 L 26.87 23.01 L 27.43 23.00 L 28.00 23.00 L 28.57 23.00 L 29.13 23.01 L 29.67 23.08 L 30.16 23.28 L 30.57 23.62 L 30.85 24.06 L 30.92 24.56 L 30.78 25.05 L 30.47 25.47 L 30.05 25.79 L 29.56 25.97 L 29.06 26.14 L 28.60 26.41 L 28.16 26.72 L 27.67 26.92 L 27.13 26.98 L 26.58 26.97 L 26.06 26.85 L 25.62 26.57 L 25.28 26.16 L 25.08 25.67 L 25.02 25.13 L 25.03 24.58 Z M 89.13 23.05 L 89.37 22.67 L 89.70 22.34 L 90.09 22.12 L 90.53 22.04 L 90.96 22.13 L 91.34 22.38 L 91.66 22.71 L 91.89 23.10 L 91.98 23.55 L 92.00 24.03 L 91.98 24.51 L 91.87 24.95 L 91.63 25.33 L 91.30 25.66 L 90.91 25.88 L 90.47 25.96 L 90.04 25.87 L 89.66 25.62 L 89.34 25.29 L 89.11 24.90 L 89.02 24.45 L 89.00 23.97 L 89.02 23.49 Z M 41.13 22.05 L 41.37 21.67 L 41.70 21.34 L 42.09 21.12 L 42.54 21.02 L 43.01 21.00 L 43.49 21.02 L 43.94 21.12 L 44.32 21.36 L 44.65 21.69 L 44.88 22.08 L 44.96 22.51 L 44.87 22.95 L 44.63 23.33 L 44.30 23.66 L 43.91 23.88 L 43.46 23.98 L 42.99 24.00 L 42.51 23.98 L 42.06 23.88 L 41.68 23.64 L 41.35 23.31 L 41.12 22.92 L 41.04 22.49 Z M 13.13 22.05 L 13.37 21.67 L 13.70 21.34 L 14.09 21.12 L 14.53 21.04 L 14.96 21.13 L 15.34 21.38 L 15.66 21.71 L 15.89 22.10 L 15.98 22.55 L 16.00 23.03 L 15.98 23.51 L 15.87 23.95 L 15.63 24.33 L 15.30 24.66 L 14.91 24.88 L 14.47 24.96 L 14.04 24.87 L 13.66 24.62 L 13.34 24.29 L 13.11 23.90 L 13.02 23.45 L 13.00 22.97 L 13.02 22.49 Z M 119.15 18.06 L 119.46 17.60 L 119.90 17.26 L 120.41 17.10 L 120.94 17.17 L 121.40 17.46 L 121.74 17.90 L 121.90 18.41 L 121.84 18.94 L 121.56 19.42 L 121.25 19.90 L 121.04 20.41 L 120.85 20.94 L 120.54 21.40 L 120.10 21.74 L 119.59 21.90 L 119.06 21.83 L 118.60 21.54 L 118.26 21.10 L 118.10 20.59 L 118.16 20.06 L 118.44 19.58 L 118.75 19.10 L 118.96 18.59 Z M 66.15 13.06 L 66.44 12.62 L 66.86 12.28 L 67.36 12.08 L 67.91 12.02 L 68.47 12.04 L 68.99 12.18 L 69.43 12.49 L 69.75 12.91 L 69.91 13.41 L 69.85 13.91 L 69.59 14.38 L 69.29 14.83 L 69.07 15.32 L 68.89 15.83 L 68.62 16.29 L 68.24 16.66 L 67.76 16.88 L 67.26 16.88 L 66.78 16.67 L 66.39 16.31 L 66.13 15.84 L 66.02 15.31 L 66.00 14.74 L 66.00 14.16 L 66.03 13.59 Z M 71.16 11.06 L 71.45 10.61 L 71.88 10.27 L 72.37 10.10 L 72.89 10.15 L 73.36 10.40 L 73.83 10.71 L 74.33 10.91 L 74.89 10.99 L 75.45 11.04 L 75.98 11.18 L 76.43 11.49 L 76.76 11.92 L 76.91 12.43 L 76.84 12.94 L 76.55 13.39 L 76.12 13.73 L 75.62 13.92 L 75.06 13.98 L 74.49 13.95 L 73.97 13.79 L 73.50 13.50 L 73.03 13.20 L 72.52 13.01 L 72.01 12.83 L 71.57 12.51 L 71.24 12.08 L 71.09 11.57 Z M 322.32 0.31 L 322.08 0.91 L 322.16 1.67 L 322.47 2.40 L 322.80 3.13 L 322.99 3.92 L 323.17 4.71 L 323.49 5.44 L 323.86 6.13 L 324.26 6.71 L 324.81 7.13 L 325.40 7.59 L 325.80 8.24 L 325.97 9.03 L 325.97 9.87 L 325.83 10.67 L 325.45 11.34 L 324.84 11.79 L 324.07 11.99 L 323.29 12.18 L 322.63 12.58 L 322.21 13.20 L 322.08 13.95 L 322.27 14.58 L 322.81 14.90 L 323.59 14.99 L 324.44 15.00 L 325.31 15.00 L 326.17 15.00 L 327.03 15.04 L 327.81 15.21 L 328.43 15.64 L 328.77 16.28 L 328.72 17.00 L 328.41 17.71 L 328.13 18.46 L 328.03 19.28 L 328.06 20.08 L 328.32 20.69 L 328.91 20.97 L 329.67 21.16 L 330.41 21.47 L 331.12 21.77 L 331.85 21.76 L 332.54 21.39 L 333.18 20.85 L 333.84 20.40 L 334.54 20.23 L 335.21 20.46 L 335.68 21.00 L 335.77 21.70 L 335.52 22.41 L 335.20 23.14 L 335.04 23.94 L 335.00 24.79 L 335.02 25.65 L 335.12 26.47 L 335.38 27.23 L 335.75 27.94 L 336.09 28.66 L 336.51 29.32 L 337.13 29.78 L 337.89 29.99 L 338.68 30.17 L 339.40 30.53 L 340.05 31.05 L 340.71 31.56 L 341.41 31.95 L 342.09 32.34 L 342.60 32.88 L 342.77 33.56 L 342.58 34.27 L 342.30 34.96 L 342.30 35.54 L 342.76 35.87 L 343.50 35.97 L 344.32 35.92 L 345.09 35.69 L 345.81 35.37 L 346.53 35.23 L 347.25 35.41 L 347.97 35.73 L 348.75 35.93 L 349.59 35.99 L 350.45 36.00 L 351.32 36.00 L 352.19 36.00 L 353.05 36.00 L 353.90 36.03 L 354.71 36.17 L 355.45 36.48 L 356.18 36.81 L 356.97 36.93 L 357.76 36.82 L 358.49 36.50 L 359.23 36.18 L 360.03 36.03 L 360.88 36.00 L 361.75 36.00 L 362.61 36.02 L 363.43 36.11 L 364.20 36.36 L 364.92 36.70 L 365.70 36.92 L 366.53 36.99 L 367.40 37.00 L 368.26 37.00 L 369.07 36.95 L 369.68 36.69 L 369.94 36.08 L 370.00 35.27 L 370.02 34.42 L 370.11 33.59 L 370.39 32.87 L 370.94 32.34 L 371.68 32.09 L 372.51 32.00 L 373.34 31.91 L 374.10 31.66 L 374.77 31.19 L 375.41 30.65 L 376.08 30.25 L 376.81 30.23 L 377.49 30.59 L 378.11 31.15 L 378.60 31.81 L 378.89 32.56 L 378.98 33.38 L 379.00 34.24 L 379.05 35.05 L 379.31 35.67 L 379.90 35.94 L 380.71 35.99 L 381.57 36.00 L 382.44 36.00 L 383.30 36.00 L 384.17 36.00 L 385.03 36.00 L 385.90 36.00 L 386.77 36.00 L 387.63 36.00 L 388.50 36.00 L 389.36 36.00 L 390.23 36.00 L 391.08 35.96 L 391.88 35.80 L 392.61 35.47 L 393.34 35.16 L 394.14 35.07 L 394.92 35.21 L 395.65 35.55 L 396.39 35.85 L 397.20 35.97 L 398.06 36.00 L 398.92 36.00 L 399.76 35.97 L 400.45 35.79 L 400.86 35.32 L 401.07 34.62 L 401.35 33.89 L 401.82 33.22 L 402.41 32.60 L 403.00 31.98 L 403.51 31.33 L 403.77 30.63 L 403.67 29.91 L 403.36 29.19 L 403.11 28.43 L 403.01 27.60 L 402.94 26.77 L 402.74 25.99 L 402.41 25.27 L 402.23 24.55 L 402.37 23.83 L 402.71 23.12 L 403.06 22.40 L 403.47 21.73 L 404.05 21.23 L 404.76 20.88 L 405.47 20.51 L 406.15 20.13 L 406.73 19.73 L 407.14 19.18 L 407.60 18.58 L 408.19 18.12 L 408.71 17.69 L 408.95 17.04 L 408.96 16.26 L 408.80 15.55 L 408.38 15.05 L 407.77 14.62 L 407.13 14.10 L 406.51 13.51 L 405.89 12.92 L 405.23 12.42 L 404.49 12.11 L 403.70 11.94 L 402.94 11.68 L 402.27 11.22 L 401.68 10.63 L 401.20 9.98 L 400.80 9.39 L 400.27 8.95 L 399.64 8.52 L 399.02 7.97 L 398.49 7.34 L 398.15 6.62 L 397.95 5.87 L 397.65 5.30 L 397.02 5.05 L 396.21 5.00 L 395.34 5.00 L 394.48 5.00 L 393.61 5.00 L 392.75 5.00 L 391.88 5.00 L 391.06 5.05 L 390.39 5.26 L 389.93 5.75 L 389.48 6.34 L 388.86 6.78 L 388.08 6.96 L 387.26 7.03 L 386.55 7.20 L 386.05 7.61 L 385.61 8.19 L 385.03 8.68 L 384.28 8.92 L 383.45 8.98 L 382.63 8.90 L 381.87 8.64 L 381.20 8.17 L 380.56 7.62 L 379.88 7.18 L 379.17 6.83 L 378.55 6.37 L 378.09 5.77 L 377.65 5.27 L 376.99 5.05 L 376.17 5.00 L 375.30 5.00 L 374.44 5.02 L 373.61 5.10 L 372.86 5.37 L 372.19 5.84 L 371.55 6.38 L 370.85 6.79 L 370.06 6.96 L 369.20 7.00 L 368.35 6.98 L 367.52 6.88 L 366.78 6.58 L 366.11 6.10 L 365.47 5.57 L 364.76 5.19 L 363.96 5.03 L 363.12 4.97 L 362.31 4.83 L 361.57 4.52 L 360.84 4.19 L 360.04 4.03 L 359.19 4.00 L 358.33 3.98 L 357.51 3.87 L 356.80 3.56 L 356.30 3.00 L 356.07 2.25 L 355.99 1.43 L 355.85 0.69 L 355.46 0.22 L 354.78 0.04 L 353.99 0.05 L 353.37 0.29 L 353.08 0.87 L 353.01 1.66 L 352.99 2.51 L 352.91 3.35 L 352.65 4.11 L 352.18 4.77 L 351.58 5.36 L 350.89 5.78 L 350.10 5.96 L 349.26 6.02 L 348.44 6.14 L 347.69 6.43 L 346.97 6.76 L 346.19 6.92 L 345.40 6.84 L 344.70 6.50 L 344.19 5.95 L 343.77 5.40 L 343.19 5.10 L 342.41 5.01 L 341.55 4.99 L 340.72 4.92 L 339.94 4.71 L 339.21 4.37 L 338.45 4.11 L 337.63 4.02 L 336.77 4.00 L 335.90 4.00 L 335.04 4.00 L 334.17 4.00 L 333.31 4.00 L 332.45 3.99 L 331.62 3.90 L 330.89 3.62 L 330.36 3.09 L 330.09 2.35 L 330.00 1.54 L 329.88 0.78 L 329.54 0.25 L 328.88 0.04 L 328.06 0.00 L 327.20 0.00 L 326.33 0.00 L 325.46 0.00 L 324.60 0.00 L 323.74 0.00 L 322.92 0.05 Z M 357.15 25.06 L 357.41 24.64 L 357.80 24.30 L 358.26 24.09 L 358.77 24.02 L 359.30 24.02 L 359.81 24.11 L 360.25 24.34 L 360.62 24.69 L 360.88 25.13 L 360.98 25.63 L 360.99 26.16 L 360.92 26.67 L 360.73 27.14 L 360.41 27.54 L 360.00 27.82 L 359.52 27.93 L 359.04 27.85 L 358.61 27.58 L 358.22 27.22 L 357.83 26.83 L 357.47 26.44 L 357.19 26.01 L 357.07 25.54 Z M 400.13 18.05 L 400.37 17.67 L 400.70 17.34 L 401.09 17.12 L 401.54 17.02 L 402.01 17.00 L 402.49 17.02 L 402.94 17.12 L 403.32 17.36 L 403.65 17.69 L 403.88 18.08 L 403.96 18.51 L 403.87 18.95 L 403.63 19.33 L 403.30 19.66 L 402.91 19.88 L 402.46 19.98 L 401.99 20.00 L 401.51 19.98 L 401.06 19.88 L 400.68 19.64 L 400.35 19.31 L 400.12 18.92 L 400.04 18.49 Z M 366.94 16.85 L 367.40 16.58 L 367.86 16.28 L 368.34 16.10 L 368.85 16.14 L 369.32 16.39 L 369.74 16.75 L 370.15 17.16 L 370.54 17.57 L 370.83 18.03 L 370.92 18.53 L 370.79 19.03 L 370.48 19.46 L 370.05 19.79 L 369.58 19.99 L 369.21 20.21 L 369.10 20.60 L 369.24 21.08 L 369.53 21.53 L 369.81 21.99 L 369.92 22.49 L 369.81 23.00 L 369.52 23.45 L 369.13 23.87 L 368.73 24.28 L 368.37 24.71 L 368.14 25.16 L 368.14 25.60 L 368.41 25.90 L 368.84 26.10 L 369.30 26.36 L 369.75 26.67 L 370.23 26.91 L 370.73 27.08 L 371.21 27.32 L 371.60 27.68 L 371.87 28.14 L 371.98 28.68 L 371.98 29.24 L 371.89 29.78 L 371.66 30.26 L 371.35 30.71 L 371.10 31.19 L 370.93 31.69 L 370.70 32.17 L 370.35 32.58 L 369.90 32.86 L 369.37 32.97 L 368.81 32.98 L 368.26 32.90 L 367.78 32.67 L 367.39 32.31 L 367.12 31.85 L 366.94 31.35 L 366.73 30.86 L 366.42 30.41 L 366.14 29.95 L 365.94 29.50 L 365.69 29.15 L 365.28 28.94 L 364.82 28.70 L 364.41 28.34 L 364.14 27.89 L 364.02 27.36 L 364.00 26.79 L 364.00 26.21 L 364.00 25.64 L 364.00 25.06 L 364.00 24.48 L 363.98 23.92 L 363.89 23.43 L 363.62 23.11 L 363.19 22.91 L 362.74 22.65 L 362.36 22.27 L 362.12 21.80 L 362.02 21.26 L 362.02 20.70 L 362.12 20.16 L 362.37 19.69 L 362.68 19.23 L 362.91 18.75 L 363.09 18.25 L 363.33 17.78 L 363.70 17.39 L 364.16 17.13 L 364.70 17.02 L 365.27 17.00 L 365.84 17.00 L 366.41 16.97 Z M 333.94 13.86 L 334.40 13.59 L 334.84 13.28 L 335.33 13.08 L 335.87 13.02 L 336.42 13.03 L 336.94 13.15 L 337.38 13.43 L 337.72 13.84 L 337.92 14.33 L 337.98 14.87 L 337.97 15.42 L 337.85 15.94 L 337.57 16.38 L 337.16 16.72 L 336.67 16.92 L 336.13 16.99 L 335.57 17.00 L 335.00 17.00 L 334.43 17.00 L 333.87 16.99 L 333.33 16.92 L 332.84 16.72 L 332.43 16.38 L 332.15 15.94 L 332.08 15.44 L 332.22 14.95 L 332.53 14.53 L 332.95 14.21 L 333.44 14.03 Z M 364.94 10.85 L 365.42 10.56 L 365.90 10.26 L 366.41 10.10 L 366.94 10.17 L 367.40 10.46 L 367.74 10.90 L 367.90 11.41 L 367.84 11.94 L 367.56 12.42 L 367.25 12.90 L 367.04 13.41 L 366.86 13.94 L 366.55 14.42 L 366.14 14.85 L 365.72 15.28 L 365.29 15.71 L 364.87 16.13 L 364.43 16.53 L 363.95 16.83 L 363.43 16.90 L 362.91 16.75 L 362.47 16.41 L 362.15 15.96 L 361.94 15.50 L 361.66 15.14 L 361.23 14.92 L 360.76 14.65 L 360.37 14.26 L 360.13 13.77 L 360.13 13.25 L 360.35 12.75 L 360.72 12.30 L 361.14 11.87 L 361.57 11.47 L 362.05 11.16 L 362.60 11.03 L 363.19 11.00 L 363.79 11.00 L 364.39 10.97 Z M 388.16 9.06 L 388.44 8.62 L 388.85 8.28 L 389.34 8.10 L 389.84 8.14 L 390.31 8.37 L 390.76 8.67 L 391.24 8.88 L 391.74 8.88 L 392.22 8.68 L 392.67 8.38 L 393.13 8.14 L 393.64 8.10 L 394.13 8.27 L 394.54 8.60 L 394.85 9.03 L 395.04 9.49 L 395.29 9.84 L 395.69 10.05 L 396.16 10.28 L 396.57 10.63 L 396.85 11.07 L 396.91 11.57 L 396.77 12.07 L 396.45 12.49 L 396.02 12.80 L 395.51 12.95 L 394.95 12.99 L 394.38 13.00 L 393.80 13.00 L 393.23 13.00 L 392.65 13.00 L 392.08 13.00 L 391.50 13.00 L 390.93 12.99 L 390.38 12.93 L 389.88 12.74 L 389.46 12.41 L 389.16 11.97 L 388.98 11.47 L 388.80 10.97 L 388.51 10.51 L 388.22 10.06 L 388.08 9.56 Z M 356.15 7.06 L 356.43 6.63 L 356.83 6.29 L 357.30 6.09 L 357.83 6.01 L 358.38 6.00 L 358.94 6.00 L 359.50 6.00 L 360.06 6.01 L 360.59 6.06 L 361.08 6.23 L 361.49 6.55 L 361.80 6.97 L 361.92 7.45 L 361.85 7.94 L 361.57 8.37 L 361.17 8.71 L 360.70 8.91 L 360.17 8.99 L 359.62 9.00 L 359.06 9.00 L 358.50 9.00 L 357.94 8.99 L 357.41 8.94 L 356.92 8.77 L 356.51 8.45 L 356.20 8.03 L 356.08 7.55 Z M 197.20 0.20 L 197.04 0.59 L 197.02 1.10 L 197.10 1.57 L 197.36 1.87 L 197.80 1.98 L 198.34 2.00 L 198.89 2.00 L 199.44 2.03 L 199.95 2.15 L 200.38 2.43 L 200.71 2.83 L 200.91 3.30 L 200.99 3.83 L 201.02 4.37 L 201.13 4.88 L 201.39 5.32 L 201.77 5.67 L 202.23 5.90 L 202.75 5.98 L 203.29 6.02 L 203.81 6.11 L 204.27 6.35 L 204.68 6.69 L 205.08 7.08 L 205.46 7.48 L 205.76 7.91 L 205.94 8.39 L 206.00 8.92 L 206.05 9.43 L 206.23 9.80 L 206.60 9.91 L 207.06 9.78 L 207.47 9.47 L 207.78 9.06 L 207.92 8.58 L 207.86 8.09 L 207.60 7.65 L 207.24 7.24 L 206.85 6.85 L 206.47 6.44 L 206.18 6.01 L 206.00 5.55 L 205.79 5.18 L 205.40 4.98 L 204.94 4.79 L 204.51 4.51 L 204.07 4.22 L 203.58 4.06 L 203.04 4.00 L 202.51 3.96 L 202.01 3.82 L 201.58 3.53 L 201.26 3.13 L 201.07 2.65 L 201.01 2.12 L 201.00 1.57 L 200.99 1.02 L 200.93 0.52 L 200.72 0.17 L 200.31 0.03 L 199.78 0.00 L 199.23 0.00 L 198.67 0.00 L 198.12 0.00 L 197.59 0.04 Z" fill="rgb(164,161,157)" fill-rule="evenodd"/>
  <path d="M 93.20 32.20 L 93.03 32.59 L 93.00 33.11 L 93.00 33.65 L 93.02 34.19 L 93.13 34.63 L 93.41 34.91 L 93.83 35.10 L 94.27 35.34 L 94.70 35.64 L 95.15 35.88 L 95.66 35.98 L 96.20 36.01 L 96.72 36.09 L 97.19 36.29 L 97.62 36.60 L 98.06 36.86 L 98.56 36.98 L 99.10 37.00 L 99.65 37.00 L 100.20 36.99 L 100.72 36.91 L 101.19 36.70 L 101.58 36.37 L 101.85 35.94 L 101.93 35.46 L 101.80 34.98 L 101.51 34.56 L 101.10 34.24 L 100.63 34.07 L 100.10 34.01 L 99.56 34.03 L 99.06 34.14 L 98.62 34.40 L 98.19 34.71 L 97.72 34.91 L 97.20 34.98 L 96.66 34.98 L 96.15 34.88 L 95.71 34.63 L 95.35 34.26 L 95.11 33.82 L 95.02 33.30 L 94.98 32.78 L 94.86 32.35 L 94.56 32.10 L 94.09 32.02 L 93.59 32.04 Z M 0.18 25.18 L 0.03 25.53 L 0.00 26.00 L 0.00 26.50 L 0.00 27.00 L 0.00 27.50 L 0.00 28.00 L 0.00 28.50 L 0.00 29.00 L 0.00 29.50 L 0.00 30.00 L 0.00 30.50 L 0.00 31.00 L 0.00 31.50 L 0.00 32.00 L 0.00 32.50 L 0.00 33.00 L 0.00 33.50 L 0.00 34.00 L 0.03 34.47 L 0.18 34.82 L 0.53 34.97 L 1.00 35.00 L 1.47 34.97 L 1.82 34.82 L 1.97 34.47 L 2.00 34.00 L 2.00 33.50 L 2.00 33.00 L 2.00 32.50 L 2.00 32.00 L 2.00 31.50 L 2.00 31.00 L 2.00 30.50 L 2.00 30.00 L 2.00 29.50 L 2.00 29.00 L 2.00 28.50 L 2.00 28.00 L 2.00 27.50 L 2.00 27.00 L 2.00 26.50 L 2.00 26.00 L 1.97 25.53 L 1.82 25.18 L 1.47 25.03 L 1.00 25.00 L 0.53 25.03 Z M 388.19 0.19 L 388.03 0.56 L 388.01 1.06 L 388.05 1.57 L 388.20 2.04 L 388.48 2.44 L 388.87 2.75 L 389.32 2.93 L 389.83 2.99 L 390.35 3.00 L 390.88 3.00 L 391.40 2.98 L 391.89 2.88 L 392.32 2.64 L 392.73 2.34 L 393.16 2.11 L 393.65 2.02 L 394.17 2.01 L 394.67 2.07 L 395.13 2.25 L 395.54 2.54 L 395.96 2.80 L 396.42 2.93 L 396.89 2.87 L 397.32 2.64 L 397.72 2.34 L 398.16 2.11 L 398.65 2.02 L 399.16 1.99 L 399.60 1.90 L 399.88 1.65 L 399.98 1.22 L 399.98 0.73 L 399.86 0.32 L 399.56 0.09 L 399.11 0.01 L 398.59 0.00 L 398.06 0.00 L 397.53 0.00 L 397.00 0.00 L 396.47 0.00 L 395.94 0.00 L 395.41 0.00 L 394.88 0.00 L 394.36 0.00 L 393.83 0.00 L 393.30 0.00 L 392.77 0.00 L 392.24 0.00 L 391.71 0.00 L 391.18 0.00 L 390.65 0.00 L 390.12 0.00 L 389.59 0.00 L 389.06 0.00 L 388.56 0.03 Z M 374.18 0.18 L 374.03 0.53 L 374.00 1.00 L 374.03 1.47 L 374.18 1.82 L 374.53 1.97 L 375.00 2.00 L 375.50 2.00 L 376.00 2.00 L 376.50 2.00 L 377.00 2.00 L 377.50 2.00 L 378.00 2.00 L 378.47 1.97 L 378.82 1.82 L 378.97 1.47 L 379.00 1.00 L 378.97 0.53 L 378.82 0.18 L 378.47 0.03 L 378.00 0.00 L 377.50 0.00 L 377.00 0.00 L 376.50 0.00 L 376.00 0.00 L 375.50 0.00 L 375.00 0.00 L 374.53 0.03 Z M 357.19 0.19 L 357.03 0.54 L 357.01 1.02 L 357.05 1.49 L 357.22 1.83 L 357.59 1.97 L 358.08 2.00 L 358.59 2.00 L 359.10 2.00 L 359.61 2.00 L 360.12 2.00 L 360.63 2.00 L 361.15 2.00 L 361.66 2.00 L 362.17 2.00 L 362.68 2.00 L 363.19 2.00 L 363.71 2.00 L 364.22 2.00 L 364.73 2.00 L 365.24 2.00 L 365.76 2.00 L 366.27 2.00 L 366.78 2.00 L 367.29 2.01 L 367.77 2.09 L 368.20 2.29 L 368.56 2.60 L 368.83 2.99 L 368.99 3.43 L 369.17 3.78 L 369.51 3.95 L 369.98 3.99 L 370.46 3.97 L 370.81 3.82 L 370.93 3.50 L 370.79 3.18 L 370.43 3.03 L 369.95 3.00 L 369.45 2.96 L 369.00 2.83 L 368.60 2.56 L 368.29 2.20 L 368.09 1.77 L 368.01 1.29 L 367.98 0.80 L 367.89 0.37 L 367.64 0.11 L 367.23 0.02 L 366.73 0.00 L 366.22 0.00 L 365.71 0.00 L 365.19 0.00 L 364.68 0.00 L 364.17 0.00 L 363.66 0.00 L 363.15 0.00 L 362.63 0.00 L 362.12 0.00 L 361.61 0.00 L 361.10 0.00 L 360.59 0.00 L 360.07 0.00 L 359.56 0.00 L 359.05 0.00 L 358.54 0.00 L 358.03 0.00 L 357.54 0.03 Z M 346.19 0.19 L 346.03 0.56 L 346.01 1.05 L 346.06 1.51 L 346.26 1.85 L 346.63 2.03 L 347.07 2.21 L 347.48 2.48 L 347.89 2.76 L 348.35 2.93 L 348.85 2.99 L 349.36 2.98 L 349.85 2.89 L 350.28 2.66 L 350.68 2.36 L 351.10 2.11 L 351.53 1.95 L 351.84 1.73 L 351.97 1.34 L 351.98 0.85 L 351.90 0.41 L 351.66 0.13 L 351.24 0.02 L 350.73 0.00 L 350.21 0.00 L 349.68 0.00 L 349.16 0.00 L 348.63 0.00 L 348.10 0.00 L 347.58 0.00 L 347.05 0.00 L 346.56 0.03 Z M 332.19 0.19 L 332.03 0.55 L 332.01 1.03 L 332.05 1.49 L 332.23 1.83 L 332.60 1.97 L 333.09 2.00 L 333.60 2.00 L 334.12 2.00 L 334.63 2.00 L 335.15 2.00 L 335.66 2.00 L 336.18 2.00 L 336.69 2.00 L 337.21 2.00 L 337.72 2.00 L 338.23 2.01 L 338.72 2.08 L 339.16 2.26 L 339.53 2.57 L 339.81 2.96 L 339.98 3.39 L 340.15 3.75 L 340.48 3.94 L 340.95 3.99 L 341.46 4.00 L 341.97 4.00 L 342.45 3.97 L 342.81 3.82 L 342.93 3.49 L 342.79 3.18 L 342.42 3.03 L 341.94 3.00 L 341.43 3.00 L 340.91 2.99 L 340.42 2.95 L 339.96 2.81 L 339.57 2.53 L 339.26 2.16 L 339.08 1.72 L 339.01 1.23 L 338.98 0.74 L 338.87 0.33 L 338.60 0.09 L 338.16 0.01 L 337.66 0.00 L 337.15 0.00 L 336.63 0.00 L 336.12 0.00 L 335.60 0.00 L 335.09 0.00 L 334.57 0.00 L 334.06 0.00 L 333.54 0.00 L 333.03 0.00 L 332.55 0.03 Z M 313.19 0.19 L 313.03 0.56 L 313.01 1.04 L 313.06 1.51 L 313.25 1.84 L 313.64 1.97 L 314.14 2.00 L 314.66 2.00 L 315.18 2.00 L 315.71 2.00 L 316.23 2.00 L 316.75 2.00 L 317.28 2.00 L 317.80 2.00 L 318.32 2.02 L 318.80 2.10 L 319.24 2.32 L 319.60 2.65 L 319.87 3.06 L 319.98 3.53 L 320.00 4.04 L 320.04 4.55 L 320.18 5.02 L 320.46 5.41 L 320.84 5.73 L 321.26 5.90 L 321.65 5.87 L 321.90 5.60 L 321.98 5.17 L 321.97 4.68 L 321.85 4.29 L 321.55 4.05 L 321.13 3.90 L 320.72 3.65 L 320.36 3.30 L 320.12 2.89 L 320.02 2.41 L 320.00 1.89 L 320.00 1.37 L 319.99 0.86 L 319.91 0.42 L 319.67 0.13 L 319.25 0.02 L 318.75 0.00 L 318.23 0.00 L 317.71 0.00 L 317.18 0.00 L 316.66 0.00 L 316.14 0.00 L 315.62 0.00 L 315.09 0.00 L 314.57 0.00 L 314.05 0.00 L 313.56 0.03 Z M 72.61 0.48 L 73.26 1.76 L 76.01 2.00 L 79.01 2.00 L 81.99 2.05 L 84.44 2.98 L 86.05 5.18 L 86.98 7.79 L 87.47 10.55 L 87.52 12.87 L 89.04 13.93 L 91.97 14.00 L 94.96 13.96 L 97.66 13.32 L 99.60 11.68 L 101.72 10.48 L 104.21 10.52 L 106.82 10.35 L 109.50 11.02 L 111.62 12.31 L 112.34 14.21 L 113.16 12.94 L 114.67 11.59 L 116.46 13.03 L 118.68 14.50 L 121.46 15.04 L 124.06 16.02 L 126.50 17.27 L 128.16 18.94 L 129.54 18.80 L 130.36 16.39 L 132.05 15.76 L 133.20 17.79 L 135.02 18.79 L 137.53 18.53 L 139.36 20.06 L 141.51 21.70 L 144.23 22.27 L 145.48 23.94 L 144.32 26.12 L 142.27 27.52 L 140.36 29.22 L 137.95 29.25 L 135.33 28.38 L 132.88 27.11 L 131.34 25.22 L 131.43 22.96 L 130.35 22.77 L 129.07 24.89 L 128.50 27.31 L 128.56 29.90 L 127.10 32.23 L 125.06 33.77 L 122.18 34.00 L 119.18 34.00 L 116.17 34.00 L 113.35 33.66 L 111.62 32.75 L 111.12 34.40 L 112.37 36.31 L 115.04 36.95 L 117.82 36.77 L 119.92 35.66 L 122.33 35.74 L 125.21 36.01 L 128.06 36.36 L 130.81 36.91 L 133.59 36.47 L 136.41 36.03 L 139.40 36.00 L 142.40 36.00 L 145.41 36.00 L 148.41 36.00 L 151.42 36.00 L 154.42 36.00 L 157.43 36.00 L 160.43 36.00 L 163.43 36.00 L 166.44 36.00 L 169.44 36.00 L 172.42 36.06 L 175.14 36.66 L 177.80 36.40 L 180.64 36.02 L 183.63 36.00 L 186.64 36.00 L 189.64 36.00 L 192.65 36.00 L 195.65 36.00 L 198.65 36.00 L 201.66 36.00 L 204.66 36.00 L 207.67 36.00 L 210.67 36.00 L 213.67 36.00 L 216.68 36.00 L 219.68 36.00 L 222.69 36.00 L 225.69 36.00 L 228.70 36.00 L 231.70 36.00 L 234.70 36.00 L 237.71 36.00 L 240.71 36.00 L 243.72 36.00 L 246.72 36.00 L 249.72 36.00 L 252.73 36.00 L 255.73 36.00 L 258.74 36.00 L 261.74 36.00 L 264.74 36.00 L 267.73 36.03 L 270.52 36.46 L 273.07 36.29 L 275.94 36.01 L 278.94 36.00 L 281.94 36.00 L 284.94 36.00 L 287.95 36.00 L 290.95 36.00 L 293.96 36.00 L 296.96 36.00 L 299.96 36.00 L 302.78 35.79 L 304.92 34.61 L 307.42 34.32 L 309.50 35.58 L 312.16 35.99 L 315.16 36.00 L 318.17 36.00 L 321.17 36.00 L 324.17 36.00 L 327.16 35.98 L 329.74 35.45 L 331.85 34.11 L 334.30 32.86 L 336.91 32.18 L 339.13 32.45 L 338.54 31.55 L 336.12 30.38 L 333.58 29.27 L 331.67 27.26 L 331.67 24.88 L 333.22 22.98 L 334.35 21.62 L 333.30 22.33 L 331.59 24.00 L 329.49 24.13 L 327.60 22.46 L 325.02 21.86 L 322.33 21.11 L 320.00 19.74 L 319.05 17.17 L 319.04 14.21 L 319.50 11.44 L 319.17 9.35 L 317.24 7.86 L 315.27 6.28 L 312.51 6.25 L 309.78 6.87 L 307.09 6.52 L 305.05 5.16 L 303.60 3.61 L 305.05 2.19 L 307.36 1.53 L 306.77 0.25 L 304.04 0.00 L 301.03 0.00 L 298.03 0.00 L 295.03 0.00 L 292.27 0.23 L 291.61 1.51 L 293.89 2.17 L 295.63 3.69 L 294.64 5.57 L 292.09 5.36 L 289.43 4.65 L 288.08 2.62 L 287.21 0.44 L 284.64 0.01 L 281.64 0.00 L 278.63 0.00 L 275.63 0.00 L 272.63 0.00 L 269.62 0.00 L 266.62 0.00 L 263.61 0.00 L 260.61 0.00 L 257.60 0.00 L 254.60 0.00 L 251.60 0.00 L 248.59 0.00 L 245.59 0.00 L 242.58 0.00 L 239.58 0.00 L 236.95 0.37 L 235.76 2.32 L 234.01 4.12 L 231.38 4.91 L 228.94 4.24 L 228.63 2.10 L 227.89 0.30 L 225.20 0.00 L 222.20 0.00 L 219.20 0.00 L 216.19 0.00 L 213.19 0.00 L 210.18 0.00 L 207.19 0.01 L 204.72 0.44 L 205.14 1.72 L 207.82 2.04 L 210.24 2.91 L 210.91 5.41 L 209.96 8.00 L 208.29 10.13 L 205.91 10.73 L 204.06 9.26 L 202.25 7.79 L 199.69 6.82 L 197.38 5.26 L 196.13 2.81 L 195.35 0.50 L 192.84 0.01 L 189.84 0.00 L 186.84 0.00 L 184.13 0.29 L 182.83 2.10 L 181.31 3.40 L 180.02 1.68 L 178.51 0.14 L 175.64 0.00 L 172.64 0.00 L 169.63 0.00 L 166.63 0.00 L 163.63 0.00 L 160.62 0.00 L 157.62 0.00 L 154.61 0.00 L 151.61 0.00 L 148.60 0.00 L 145.60 0.00 L 142.60 0.00 L 139.59 0.00 L 136.59 0.00 L 133.58 0.00 L 130.58 0.00 L 127.58 0.00 L 124.57 0.00 L 121.57 0.00 L 118.56 0.00 L 115.56 0.00 L 112.56 0.00 L 109.55 0.00 L 106.55 0.00 L 103.54 0.00 L 100.54 0.00 L 97.53 0.00 L 94.53 0.00 L 91.53 0.00 L 88.52 0.00 L 85.52 0.00 L 82.51 0.00 L 79.51 0.00 L 76.51 0.00 L 73.60 0.09 Z M 288.00 19.00 L 288.41 18.61 L 288.84 18.28 L 289.33 18.08 L 289.87 18.02 L 290.42 18.03 L 290.94 18.15 L 291.38 18.43 L 291.72 18.84 L 291.92 19.33 L 291.99 19.87 L 292.00 20.43 L 291.99 21.00 L 291.95 21.55 L 291.78 22.05 L 291.47 22.47 L 291.05 22.78 L 290.55 22.95 L 290.00 22.99 L 289.43 23.00 L 288.87 22.99 L 288.33 22.92 L 287.84 22.72 L 287.43 22.38 L 287.15 21.94 L 287.03 21.42 L 287.02 20.87 L 287.08 20.33 L 287.28 19.84 L 287.61 19.41 Z M 142.13 19.05 L 142.37 18.67 L 142.70 18.34 L 143.09 18.12 L 143.54 18.02 L 144.01 18.00 L 144.49 18.02 L 144.94 18.12 L 145.32 18.36 L 145.65 18.69 L 145.88 19.08 L 145.96 19.51 L 145.87 19.95 L 145.63 20.33 L 145.30 20.66 L 144.91 20.88 L 144.46 20.98 L 143.99 21.00 L 143.51 20.98 L 143.06 20.88 L 142.68 20.64 L 142.35 20.31 L 142.12 19.92 L 142.04 19.49 Z M 227.14 15.05 L 227.39 14.65 L 227.76 14.32 L 228.19 14.11 L 228.65 14.08 L 229.09 14.23 L 229.49 14.52 L 229.87 14.87 L 230.23 15.24 L 230.58 15.61 L 230.84 16.02 L 230.94 16.48 L 230.86 16.95 L 230.61 17.35 L 230.24 17.68 L 229.81 17.89 L 229.35 17.92 L 228.91 17.77 L 228.51 17.48 L 228.13 17.13 L 227.77 16.76 L 227.42 16.39 L 227.16 15.98 L 227.06 15.52 Z M 206.15 13.06 L 206.43 12.62 L 206.84 12.29 L 207.32 12.10 L 207.82 12.13 L 208.27 12.36 L 208.65 12.74 L 208.89 13.20 L 208.98 13.73 L 209.00 14.29 L 209.00 14.86 L 208.97 15.42 L 208.85 15.94 L 208.57 16.38 L 208.16 16.71 L 207.68 16.90 L 207.18 16.87 L 206.73 16.64 L 206.35 16.26 L 206.11 15.80 L 206.02 15.27 L 206.00 14.71 L 206.00 14.14 L 206.03 13.58 Z M 90.15 9.06 L 90.43 8.63 L 90.83 8.29 L 91.30 8.09 L 91.83 8.01 L 92.38 8.00 L 92.94 8.00 L 93.50 8.00 L 94.06 8.01 L 94.59 8.06 L 95.08 8.23 L 95.49 8.55 L 95.80 8.97 L 95.92 9.45 L 95.85 9.94 L 95.57 10.37 L 95.17 10.71 L 94.70 10.91 L 94.17 10.99 L 93.62 11.00 L 93.06 11.00 L 92.50 11.00 L 91.94 10.99 L 91.41 10.94 L 90.92 10.77 L 90.51 10.45 L 90.20 10.03 L 90.08 9.55 Z M 297.15 6.06 L 297.44 5.61 L 297.87 5.27 L 298.37 5.08 L 298.92 5.01 L 299.50 5.00 L 300.08 5.00 L 300.67 5.00 L 301.24 5.02 L 301.78 5.11 L 302.26 5.36 L 302.64 5.74 L 302.90 6.21 L 303.08 6.72 L 303.31 7.20 L 303.61 7.66 L 303.86 8.13 L 303.90 8.64 L 303.73 9.14 L 303.40 9.58 L 303.00 10.00 L 302.59 10.41 L 302.18 10.82 L 301.76 11.23 L 301.33 11.60 L 300.86 11.86 L 300.36 11.90 L 299.86 11.72 L 299.44 11.38 L 299.14 10.95 L 298.94 10.49 L 298.68 10.14 L 298.26 9.93 L 297.80 9.68 L 297.40 9.32 L 297.13 8.86 L 297.02 8.32 L 297.00 7.75 L 297.00 7.17 L 297.03 6.59 Z M 54.18 0.18 L 54.03 0.53 L 54.00 1.00 L 54.03 1.47 L 54.18 1.82 L 54.53 1.97 L 55.00 2.00 L 55.50 2.00 L 56.00 2.00 L 56.50 2.00 L 57.00 2.00 L 57.50 2.00 L 58.00 2.00 L 58.50 2.00 L 59.00 2.00 L 59.50 2.00 L 60.00 2.00 L 60.50 2.00 L 61.00 2.00 L 61.50 2.00 L 62.00 2.00 L 62.50 2.00 L 63.00 2.00 L 63.50 2.00 L 64.00 2.00 L 64.50 2.00 L 65.00 2.00 L 65.47 1.97 L 65.82 1.82 L 65.97 1.47 L 66.00 1.00 L 65.97 0.53 L 65.82 0.18 L 65.47 0.03 L 65.00 0.00 L 64.50 0.00 L 64.00 0.00 L 63.50 0.00 L 63.00 0.00 L 62.50 0.00 L 62.00 0.00 L 61.50 0.00 L 61.00 0.00 L 60.50 0.00 L 60.00 0.00 L 59.50 0.00 L 59.00 0.00 L 58.50 0.00 L 58.00 0.00 L 57.50 0.00 L 57.00 0.00 L 56.50 0.00 L 56.00 0.00 L 55.50 0.00 L 55.00 0.00 L 54.53 0.03 Z M 30.18 0.18 L 30.03 0.53 L 30.00 1.00 L 30.03 1.47 L 30.18 1.82 L 30.53 1.97 L 31.00 2.00 L 31.50 2.00 L 32.00 2.00 L 32.50 2.00 L 33.00 2.00 L 33.50 2.00 L 34.00 2.00 L 34.50 2.00 L 35.00 2.00 L 35.50 2.00 L 36.00 2.00 L 36.50 2.00 L 37.00 2.00 L 37.50 2.00 L 38.00 2.00 L 38.50 2.00 L 39.00 2.00 L 39.50 2.00 L 40.00 2.00 L 40.50 2.00 L 41.00 2.00 L 41.50 2.00 L 42.00 2.00 L 42.50 2.00 L 43.00 2.00 L 43.50 2.00 L 44.00 2.00 L 44.47 1.97 L 44.82 1.82 L 44.97 1.47 L 45.00 1.00 L 44.97 0.53 L 44.82 0.18 L 44.47 0.03 L 44.00 0.00 L 43.50 0.00 L 43.00 0.00 L 42.50 0.00 L 42.00 0.00 L 41.50 0.00 L 41.00 0.00 L 40.50 0.00 L 40.00 0.00 L 39.50 0.00 L 39.00 0.00 L 38.50 0.00 L 38.00 0.00 L 37.50 0.00 L 37.00 0.00 L 36.50 0.00 L 36.00 0.00 L 35.50 0.00 L 35.00 0.00 L 34.50 0.00 L 34.00 0.00 L 33.50 0.00 L 33.00 0.00 L 32.50 0.00 L 32.00 0.00 L 31.50 0.00 L 31.00 0.00 L 30.53 0.03 Z M 5.18 0.18 L 5.03 0.53 L 5.00 1.00 L 5.03 1.47 L 5.18 1.82 L 5.53 1.97 L 6.00 2.00 L 6.50 2.00 L 7.00 2.00 L 7.50 2.00 L 8.00 2.00 L 8.50 2.00 L 9.00 2.00 L 9.50 2.00 L 10.00 2.00 L 10.50 2.00 L 11.00 2.00 L 11.50 2.00 L 12.00 2.00 L 12.50 2.00 L 13.00 2.00 L 13.47 1.97 L 13.82 1.82 L 13.97 1.47 L 14.00 1.00 L 13.97 0.53 L 13.82 0.18 L 13.47 0.03 L 13.00 0.00 L 12.50 0.00 L 12.00 0.00 L 11.50 0.00 L 11.00 0.00 L 10.50 0.00 L 10.00 0.00 L 9.50 0.00 L 9.00 0.00 L 8.50 0.00 L 8.00 0.00 L 7.50 0.00 L 7.00 0.00 L 6.50 0.00 L 6.00 0.00 L 5.53 0.03 Z" fill="rgb(222,219,215)" fill-rule="evenodd"/>
</svg>