<svg xmlns="http://www.w3.org/2000/svg" width="346" height="136" viewBox="0 0 346 136" role="img" aria-label="19_plates_19">
  <title>19_plates_19</title>
  <path d="M 47.07 5.16 L 46.59 5.48 L 46.24 5.94 L 46.01 6.47 L 45.80 7.01 L 45.47 7.50 L 45.05 7.95 L 44.62 8.40 L 44.27 8.88 L 44.04 9.41 L 43.84 9.96 L 43.51 10.45 L 43.10 10.90 L 42.65 11.35 L 42.21 11.79 L 41.77 12.23 L 41.33 12.67 L 40.88 13.12 L 40.44 13.56 L 40.00 14.00 L 39.57 14.46 L 39.23 14.94 L 39.01 15.48 L 38.80 16.01 L 38.46 16.50 L 38.04 16.95 L 37.59 17.38 L 37.12 17.73 L 36.61 17.97 L 36.20 18.23 L 35.95 18.66 L 35.71 19.16 L 35.39 19.66 L 35.12 20.17 L 34.92 20.71 L 34.66 21.23 L 34.28 21.70 L 33.85 22.15 L 33.41 22.59 L 32.97 23.04 L 32.54 23.49 L 32.21 23.98 L 31.99 24.51 L 31.77 25.05 L 31.43 25.54 L 31.01 25.99 L 30.57 26.43 L 30.13 26.87 L 29.70 27.32 L 29.33 27.80 L 29.08 28.32 L 28.87 28.86 L 28.57 29.36 L 28.17 29.82 L 27.73 30.27 L 27.29 30.71 L 26.85 31.16 L 26.44 31.61 L 26.13 32.11 L 25.93 32.65 L 25.69 33.18 L 25.32 33.66 L 24.89 34.10 L 24.45 34.55 L 24.01 34.99 L 23.57 35.43 L 23.12 35.88 L 22.68 36.32 L 22.24 36.76 L 21.79 37.21 L 21.35 37.65 L 20.91 38.09 L 20.49 38.55 L 20.16 39.04 L 19.96 39.58 L 19.73 40.11 L 19.38 40.59 L 18.95 41.04 L 18.51 41.49 L 18.07 41.93 L 17.64 42.38 L 17.29 42.86 L 17.06 43.39 L 16.85 43.93 L 16.53 44.43 L 16.12 44.88 L 15.68 45.32 L 15.23 45.77 L 14.80 46.21 L 14.40 46.68 L 14.11 47.18 L 13.91 47.73 L 13.65 48.24 L 13.27 48.71 L 12.84 49.16 L 12.40 49.60 L 11.95 50.05 L 11.53 50.50 L 11.20 50.99 L 10.99 51.53 L 10.77 52.06 L 10.42 52.55 L 10.00 53.00 L 9.58 53.45 L 9.24 53.93 L 9.02 54.47 L 8.80 55.01 L 8.47 55.50 L 8.05 55.95 L 7.61 56.39 L 7.16 56.84 L 6.73 57.28 L 6.36 57.75 L 6.11 58.28 L 6.02 58.87 L 6.00 59.49 L 6.00 60.11 L 6.00 60.74 L 6.00 61.37 L 6.00 61.99 L 6.00 62.62 L 6.00 63.25 L 6.00 63.87 L 6.00 64.50 L 6.00 65.13 L 6.00 65.75 L 6.00 66.38 L 6.00 67.01 L 6.00 67.63 L 6.00 68.26 L 6.01 68.87 L 6.08 69.43 L 6.32 69.80 L 6.75 69.86 L 7.25 69.64 L 7.71 69.27 L 8.16 68.83 L 8.56 68.38 L 8.87 67.88 L 9.07 67.33 L 9.32 66.81 L 9.69 66.34 L 10.11 65.89 L 10.56 65.44 L 11.00 65.00 L 11.44 64.56 L 11.89 64.11 L 12.31 63.66 L 12.68 63.19 L 12.93 62.67 L 13.13 62.12 L 13.42 61.62 L 13.73 61.12 L 13.96 60.59 L 14.16 60.04 L 14.49 59.55 L 14.90 59.10 L 15.33 58.65 L 15.69 58.17 L 15.93 57.65 L 16.14 57.10 L 16.45 56.60 L 16.86 56.15 L 17.30 55.70 L 17.74 55.26 L 18.18 54.82 L 18.63 54.37 L 19.07 53.93 L 19.49 53.48 L 19.82 52.99 L 20.03 52.45 L 20.25 51.91 L 20.60 51.43 L 21.02 50.98 L 21.46 50.54 L 21.91 50.09 L 22.35 49.65 L 22.79 49.21 L 23.24 48.76 L 23.68 48.32 L 24.12 47.88 L 24.58 47.46 L 25.06 47.14 L 25.53 46.91 L 25.85 46.59 L 25.98 46.09 L 26.06 45.51 L 26.23 44.95 L 26.57 44.46 L 26.99 44.01 L 27.43 43.57 L 27.87 43.13 L 28.30 42.68 L 28.67 42.20 L 28.92 41.68 L 29.13 41.14 L 29.43 40.64 L 29.83 40.18 L 30.27 39.73 L 30.71 39.29 L 31.15 38.84 L 31.56 38.39 L 31.87 37.89 L 32.07 37.35 L 32.31 36.82 L 32.68 36.34 L 33.11 35.90 L 33.55 35.45 L 33.99 35.01 L 34.43 34.57 L 34.88 34.12 L 35.32 33.68 L 35.76 33.24 L 36.20 32.79 L 36.59 32.33 L 36.88 31.82 L 37.09 31.28 L 37.35 30.76 L 37.73 30.29 L 38.16 29.84 L 38.60 29.40 L 39.04 28.96 L 39.46 28.50 L 39.80 28.02 L 40.01 27.48 L 40.23 26.94 L 40.57 26.46 L 41.00 26.01 L 41.44 25.56 L 41.88 25.12 L 42.32 24.68 L 42.77 24.23 L 43.20 23.79 L 43.60 23.32 L 43.89 22.82 L 44.09 22.27 L 44.36 21.77 L 44.76 21.36 L 45.24 21.08 L 45.68 20.84 L 45.97 20.46 L 46.20 19.97 L 46.52 19.48 L 46.82 18.98 L 47.03 18.44 L 47.26 17.91 L 47.60 17.42 L 48.03 16.97 L 48.47 16.53 L 48.91 16.09 L 49.36 15.64 L 49.80 15.20 L 50.23 14.75 L 50.62 14.29 L 50.90 13.78 L 51.10 13.23 L 51.37 12.72 L 51.76 12.25 L 52.19 11.81 L 52.64 11.36 L 53.08 10.92 L 53.52 10.48 L 53.96 10.03 L 54.39 9.58 L 54.74 9.10 L 54.96 8.57 L 55.17 8.03 L 55.50 7.54 L 55.92 7.08 L 56.34 6.63 L 56.70 6.16 L 56.87 5.65 L 56.77 5.24 L 56.35 5.05 L 55.77 5.00 L 55.15 5.00 L 54.52 5.00 L 53.89 5.00 L 53.27 5.00 L 52.64 5.00 L 52.01 5.00 L 51.39 5.00 L 50.76 5.00 L 50.13 5.00 L 49.51 5.00 L 48.88 5.00 L 48.25 5.00 L 47.64 5.03 Z M 30.21 5.22 L 29.96 5.62 L 29.74 6.12 L 29.39 6.58 L 28.98 7.02 L 28.55 7.45 L 28.11 7.89 L 27.68 8.32 L 27.25 8.75 L 26.82 9.18 L 26.38 9.62 L 25.95 10.05 L 25.52 10.48 L 25.09 10.91 L 24.67 11.35 L 24.31 11.82 L 24.07 12.33 L 23.88 12.86 L 23.58 13.33 L 23.15 13.70 L 22.67 13.95 L 22.25 14.19 L 21.99 14.58 L 21.77 15.07 L 21.46 15.55 L 21.16 16.04 L 20.96 16.57 L 20.75 17.09 L 20.41 17.56 L 19.99 18.00 L 19.56 18.44 L 19.13 18.87 L 18.71 19.31 L 18.34 19.77 L 18.09 20.27 L 17.89 20.80 L 17.62 21.30 L 17.24 21.75 L 16.82 22.19 L 16.42 22.64 L 16.13 23.13 L 15.93 23.66 L 15.70 24.17 L 15.34 24.64 L 14.92 25.08 L 14.49 25.51 L 14.06 25.94 L 13.63 26.37 L 13.19 26.81 L 12.76 27.24 L 12.33 27.67 L 11.90 28.10 L 11.49 28.55 L 11.17 29.03 L 10.97 29.55 L 10.76 30.08 L 10.42 30.55 L 10.01 30.99 L 9.58 31.42 L 9.14 31.86 L 8.71 32.29 L 8.28 32.72 L 7.85 33.15 L 7.45 33.60 L 7.15 34.09 L 7.03 34.65 L 7.00 35.25 L 7.00 35.86 L 7.00 36.47 L 7.00 37.08 L 7.00 37.69 L 7.00 38.31 L 7.00 38.92 L 7.00 39.53 L 7.00 40.14 L 7.00 40.75 L 7.00 41.36 L 7.00 41.97 L 7.00 42.58 L 7.03 43.17 L 7.16 43.64 L 7.50 43.87 L 7.97 43.81 L 8.45 43.52 L 8.89 43.11 L 9.32 42.68 L 9.75 42.25 L 10.18 41.82 L 10.62 41.38 L 11.05 40.95 L 11.46 40.51 L 11.79 40.03 L 12.00 39.51 L 12.20 38.98 L 12.53 38.51 L 12.94 38.06 L 13.37 37.63 L 13.80 37.20 L 14.24 36.77 L 14.69 36.39 L 15.17 36.10 L 15.61 35.87 L 15.89 35.53 L 15.99 35.01 L 16.07 34.44 L 16.25 33.91 L 16.59 33.44 L 17.01 33.00 L 17.44 32.56 L 17.87 32.13 L 18.30 31.70 L 18.73 31.27 L 19.16 30.83 L 19.56 30.39 L 19.87 29.90 L 20.06 29.37 L 20.29 28.85 L 20.64 28.39 L 21.05 27.95 L 21.49 27.51 L 21.92 27.08 L 22.34 26.64 L 22.69 26.18 L 22.93 25.67 L 23.12 25.14 L 23.42 24.64 L 23.81 24.20 L 24.24 23.76 L 24.67 23.33 L 25.10 22.90 L 25.51 22.45 L 25.83 21.97 L 26.03 21.45 L 26.24 20.92 L 26.58 20.45 L 26.99 20.01 L 27.43 19.60 L 27.90 19.25 L 28.39 19.03 L 28.80 18.78 L 29.04 18.37 L 29.27 17.87 L 29.58 17.39 L 29.87 16.90 L 30.06 16.36 L 30.29 15.85 L 30.64 15.38 L 31.06 14.94 L 31.49 14.51 L 31.92 14.08 L 32.36 13.64 L 32.79 13.21 L 33.21 12.78 L 33.60 12.33 L 33.88 11.83 L 34.08 11.30 L 34.33 10.80 L 34.71 10.39 L 35.18 10.10 L 35.62 9.87 L 35.92 9.53 L 36.14 9.06 L 36.45 8.59 L 36.86 8.15 L 37.28 7.71 L 37.65 7.25 L 37.89 6.74 L 37.98 6.17 L 37.94 5.61 L 37.74 5.21 L 37.30 5.04 L 36.72 5.00 L 36.12 5.00 L 35.50 5.00 L 34.89 5.00 L 34.28 5.00 L 33.67 5.00 L 33.06 5.00 L 32.45 5.00 L 31.83 5.00 L 31.23 5.00 L 30.65 5.04 Z M 173.06 4.44 L 170.39 4.94 L 167.41 5.00 L 164.40 5.00 L 161.40 5.00 L 158.39 5.00 L 155.39 5.00 L 152.39 5.00 L 149.38 5.00 L 146.38 5.00 L 143.38 5.00 L 140.37 5.00 L 137.37 5.00 L 134.36 5.00 L 131.36 5.00 L 128.36 5.00 L 125.35 5.00 L 122.35 5.00 L 119.34 5.00 L 116.34 5.00 L 113.34 5.00 L 110.33 5.00 L 107.33 5.00 L 104.33 5.00 L 101.32 5.00 L 98.32 5.00 L 95.31 5.00 L 92.31 5.00 L 89.31 5.00 L 86.30 5.00 L 83.30 5.00 L 80.29 5.00 L 77.29 5.00 L 74.29 5.00 L 71.28 5.00 L 68.28 5.00 L 65.45 5.35 L 63.57 7.15 L 61.79 9.40 L 60.13 11.72 L 58.32 13.97 L 56.66 16.29 L 54.73 18.49 L 53.10 20.82 L 51.53 23.17 L 49.76 25.45 L 48.09 27.76 L 46.11 29.94 L 44.45 32.26 L 42.70 34.54 L 41.03 36.85 L 39.21 39.10 L 37.53 41.41 L 35.45 43.55 L 33.54 45.76 L 31.88 48.08 L 30.08 50.34 L 28.34 52.62 L 26.46 54.84 L 24.79 57.16 L 22.83 59.35 L 21.16 61.66 L 19.37 63.93 L 17.71 66.24 L 15.77 68.44 L 14.10 70.75 L 12.29 72.99 L 10.69 75.06 L 8.99 77.08 L 7.39 79.40 L 6.21 81.92 L 6.00 84.84 L 6.00 87.84 L 6.00 90.84 L 6.00 93.85 L 6.00 96.85 L 6.00 99.86 L 6.00 102.86 L 6.00 105.86 L 6.00 108.87 L 6.00 111.87 L 6.00 114.87 L 6.00 117.88 L 6.00 120.88 L 6.00 123.89 L 6.00 126.89 L 6.00 129.89 L 6.37 132.74 L 8.24 134.63 L 11.08 135.00 L 14.08 135.00 L 17.08 135.00 L 20.09 135.00 L 23.09 135.00 L 26.10 135.00 L 29.10 135.00 L 32.10 135.00 L 35.11 135.00 L 38.11 135.00 L 41.12 135.00 L 44.12 135.00 L 47.12 135.00 L 50.13 135.00 L 53.13 135.00 L 56.13 135.00 L 59.14 135.00 L 62.14 135.00 L 65.15 135.00 L 68.15 135.00 L 71.15 135.00 L 74.16 135.00 L 77.16 135.00 L 80.17 135.00 L 83.17 135.00 L 86.17 135.00 L 89.18 135.00 L 92.18 135.00 L 95.19 135.00 L 98.19 135.00 L 101.19 135.00 L 104.20 135.00 L 107.20 135.00 L 110.20 135.00 L 113.21 135.00 L 116.21 135.00 L 119.22 135.00 L 122.22 135.00 L 125.22 135.00 L 128.23 135.00 L 131.23 135.00 L 134.24 135.00 L 137.24 135.00 L 140.24 135.00 L 143.25 135.00 L 146.25 135.00 L 149.25 135.00 L 152.26 135.00 L 155.26 135.00 L 158.27 135.00 L 161.27 135.00 L 164.27 135.00 L 167.28 135.00 L 170.28 135.00 L 173.29 135.00 L 176.29 135.00 L 179.29 135.00 L 182.30 135.00 L 185.30 135.00 L 188.30 135.00 L 191.31 135.00 L 194.31 135.00 L 197.32 135.00 L 200.32 135.00 L 203.32 135.00 L 206.33 135.00 L 209.33 135.00 L 212.34 135.00 L 215.34 135.00 L 218.34 135.00 L 221.35 135.00 L 224.35 135.00 L 227.36 135.00 L 230.36 135.00 L 233.36 135.00 L 236.37 135.00 L 239.37 135.00 L 242.37 135.00 L 245.38 135.00 L 248.38 135.00 L 251.39 135.00 L 254.39 135.00 L 257.39 135.00 L 260.40 135.00 L 263.38 134.94 L 265.96 133.92 L 268.03 131.85 L 269.70 129.54 L 271.66 127.34 L 273.78 125.22 L 275.91 123.09 L 278.03 120.97 L 280.06 118.81 L 281.73 116.49 L 283.70 114.31 L 285.82 112.18 L 287.94 110.06 L 290.07 107.93 L 292.09 105.77 L 293.76 103.45 L 295.74 101.27 L 297.86 99.14 L 299.98 97.02 L 302.10 94.89 L 304.12 92.72 L 305.79 90.41 L 307.77 88.23 L 309.89 86.11 L 312.02 83.98 L 314.14 81.86 L 316.27 79.73 L 318.36 77.60 L 320.10 75.31 L 321.95 73.08 L 324.15 71.18 L 326.29 69.42 L 327.97 67.14 L 330.01 64.99 L 332.12 62.86 L 333.94 60.61 L 335.71 58.34 L 337.81 56.38 L 339.67 54.52 L 341.59 52.35 L 342.60 50.08 L 341.66 48.07 L 342.39 46.15 L 344.42 44.68 L 344.98 42.14 L 345.00 39.15 L 345.00 36.14 L 345.00 33.14 L 345.00 30.14 L 344.80 27.34 L 343.52 26.56 L 342.12 28.21 L 340.39 27.69 L 340.01 24.95 L 340.45 22.22 L 342.51 21.37 L 344.26 22.28 L 344.95 20.70 L 345.00 17.75 L 345.00 14.75 L 345.00 11.75 L 344.98 8.75 L 344.43 6.09 L 342.12 5.05 L 339.15 5.00 L 336.14 5.00 L 333.14 5.00 L 330.13 5.00 L 327.13 5.00 L 324.13 5.00 L 321.12 5.00 L 318.12 5.00 L 315.11 5.00 L 312.11 5.00 L 309.11 5.00 L 306.10 5.00 L 303.10 5.00 L 300.10 5.00 L 297.09 5.00 L 294.09 5.00 L 291.08 5.00 L 288.08 5.00 L 285.08 5.00 L 282.07 5.00 L 279.07 5.00 L 276.06 5.00 L 273.06 5.00 L 270.06 5.00 L 267.05 5.00 L 264.05 5.00 L 261.04 5.00 L 258.04 5.00 L 255.04 5.00 L 252.03 5.00 L 249.03 5.00 L 246.03 5.00 L 243.02 5.00 L 240.02 5.00 L 237.01 5.00 L 234.01 5.00 L 231.01 5.00 L 228.00 5.00 L 225.00 5.00 L 221.99 5.00 L 218.99 5.00 L 215.99 5.00 L 212.98 5.00 L 209.98 5.00 L 206.98 5.00 L 203.99 4.96 L 201.22 4.44 L 198.57 4.50 L 195.80 4.92 L 193.10 4.47 L 190.50 4.76 L 187.60 5.00 L 184.60 5.00 L 181.60 5.00 L 178.59 5.00 L 175.68 4.79 Z M 279.16 75.06 L 279.45 74.61 L 279.88 74.27 L 280.38 74.08 L 280.94 74.02 L 281.51 74.05 L 282.03 74.21 L 282.50 74.50 L 282.97 74.80 L 283.48 74.99 L 283.99 75.17 L 284.43 75.49 L 284.76 75.92 L 284.91 76.43 L 284.84 76.94 L 284.55 77.39 L 284.12 77.73 L 283.63 77.90 L 283.11 77.85 L 282.64 77.60 L 282.17 77.29 L 281.67 77.09 L 281.11 77.01 L 280.55 76.96 L 280.02 76.82 L 279.57 76.51 L 279.24 76.08 L 279.09 75.57 Z M 278.00 49.00 L 278.43 48.60 L 278.88 48.27 L 279.38 48.10 L 279.90 48.15 L 280.38 48.41 L 280.84 48.72 L 281.34 48.94 L 281.86 49.12 L 282.32 49.40 L 282.68 49.81 L 282.88 50.30 L 282.86 50.82 L 282.62 51.29 L 282.22 51.66 L 281.73 51.90 L 281.18 51.98 L 280.59 52.00 L 280.00 52.01 L 279.44 52.07 L 278.92 52.24 L 278.45 52.54 L 277.97 52.83 L 277.44 52.96 L 276.87 52.98 L 276.31 52.90 L 275.81 52.69 L 275.41 52.32 L 275.15 51.86 L 275.11 51.34 L 275.29 50.85 L 275.64 50.43 L 276.10 50.13 L 276.62 49.95 L 277.12 49.74 L 277.57 49.40 Z M 290.94 46.86 L 291.43 46.56 L 291.90 46.26 L 292.42 46.10 L 292.95 46.18 L 293.41 46.48 L 293.75 46.92 L 293.90 47.44 L 293.82 47.96 L 293.51 48.42 L 293.07 48.77 L 292.59 48.99 L 292.22 49.23 L 292.15 49.57 L 292.41 49.86 L 292.89 49.98 L 293.46 50.04 L 294.01 50.20 L 294.48 50.52 L 294.92 50.92 L 295.34 51.36 L 295.69 51.82 L 295.91 52.34 L 295.98 52.91 L 295.95 53.49 L 295.78 54.03 L 295.45 54.48 L 295.00 54.80 L 294.48 54.90 L 293.95 54.77 L 293.47 54.48 L 292.99 54.18 L 292.46 53.98 L 291.94 53.77 L 291.47 53.44 L 291.03 53.03 L 290.60 52.60 L 290.17 52.17 L 289.74 51.74 L 289.31 51.31 L 288.88 50.88 L 288.48 50.44 L 288.18 49.97 L 288.10 49.44 L 288.25 48.92 L 288.58 48.45 L 288.99 48.01 L 289.43 47.60 L 289.89 47.26 L 290.41 47.05 Z M 273.00 47.00 L 273.43 46.59 L 273.90 46.26 L 274.41 46.10 L 274.94 46.17 L 275.40 46.46 L 275.74 46.90 L 275.90 47.41 L 275.84 47.94 L 275.56 48.42 L 275.25 48.90 L 275.04 49.41 L 274.85 49.94 L 274.54 50.40 L 274.10 50.74 L 273.59 50.90 L 273.06 50.83 L 272.60 50.54 L 272.26 50.10 L 272.07 49.57 L 272.02 49.00 L 272.07 48.43 L 272.26 47.90 L 272.59 47.43 Z M 336.00 44.00 L 336.43 43.60 L 336.88 43.27 L 337.38 43.10 L 337.90 43.15 L 338.38 43.41 L 338.84 43.72 L 339.35 43.92 L 339.91 43.99 L 340.48 44.05 L 341.01 44.20 L 341.45 44.51 L 341.77 44.95 L 341.91 45.46 L 341.82 45.98 L 341.52 46.42 L 341.08 46.76 L 340.57 46.94 L 340.01 47.00 L 339.50 47.09 L 339.14 47.34 L 338.92 47.76 L 338.66 48.22 L 338.29 48.62 L 337.82 48.86 L 337.30 48.88 L 336.81 48.69 L 336.36 48.34 L 335.94 47.93 L 335.54 47.51 L 335.22 47.05 L 335.06 46.52 L 335.02 45.96 L 335.08 45.39 L 335.27 44.88 L 335.60 44.43 Z M 339.16 40.06 L 339.45 39.61 L 339.88 39.27 L 340.38 39.08 L 340.94 39.02 L 341.51 39.05 L 342.03 39.21 L 342.47 39.53 L 342.79 39.97 L 342.99 40.48 L 343.17 40.99 L 343.46 41.46 L 343.76 41.92 L 343.91 42.43 L 343.84 42.94 L 343.55 43.39 L 343.12 43.73 L 342.63 43.90 L 342.11 43.85 L 341.66 43.58 L 341.30 43.17 L 341.06 42.70 L 340.84 42.29 L 340.47 42.03 L 340.01 41.83 L 339.57 41.51 L 339.24 41.08 L 339.09 40.57 Z M 297.15 38.06 L 297.43 37.62 L 297.84 37.28 L 298.33 37.08 L 298.87 37.02 L 299.42 37.03 L 299.94 37.15 L 300.38 37.43 L 300.72 37.84 L 300.94 38.30 L 301.15 38.70 L 301.50 38.95 L 301.95 39.13 L 302.40 39.41 L 302.84 39.72 L 303.32 39.94 L 303.82 40.10 L 304.27 40.36 L 304.64 40.74 L 304.87 41.20 L 304.89 41.70 L 304.71 42.17 L 304.37 42.58 L 303.93 42.87 L 303.43 43.03 L 302.94 43.22 L 302.49 43.51 L 302.04 43.80 L 301.54 43.98 L 301.04 44.15 L 300.59 44.42 L 300.15 44.73 L 299.66 44.92 L 299.12 44.98 L 298.56 44.97 L 298.05 44.84 L 297.61 44.55 L 297.28 44.14 L 297.08 43.66 L 297.01 43.12 L 297.00 42.55 L 297.00 41.98 L 297.00 41.41 L 297.00 40.85 L 297.00 40.28 L 297.00 39.71 L 297.00 39.14 L 297.03 38.58 Z M 273.14 32.06 L 273.45 31.61 L 273.88 31.27 L 274.39 31.10 L 274.91 31.16 L 275.36 31.44 L 275.72 31.86 L 275.94 32.36 L 276.12 32.87 L 276.41 33.35 L 276.79 33.78 L 277.21 34.21 L 277.63 34.63 L 278.05 35.05 L 278.45 35.48 L 278.77 35.94 L 278.94 36.46 L 278.99 37.03 L 279.00 37.62 L 278.98 38.21 L 278.89 38.76 L 278.64 39.25 L 278.26 39.64 L 277.77 39.89 L 277.22 39.98 L 276.63 40.00 L 276.04 39.99 L 275.47 39.94 L 274.95 39.77 L 274.51 39.44 L 274.19 39.00 L 274.04 38.46 L 273.99 37.89 L 273.91 37.33 L 273.70 36.82 L 273.35 36.37 L 272.95 35.95 L 272.55 35.52 L 272.23 35.06 L 272.09 34.55 L 272.18 34.03 L 272.45 33.56 L 272.76 33.09 L 272.96 32.58 Z M 332.13 31.05 L 332.37 30.67 L 332.70 30.34 L 333.09 30.12 L 333.54 30.02 L 334.01 30.00 L 334.49 30.02 L 334.94 30.12 L 335.32 30.36 L 335.65 30.69 L 335.88 31.08 L 335.96 31.51 L 335.87 31.95 L 335.63 32.33 L 335.30 32.66 L 334.91 32.88 L 334.46 32.98 L 333.99 33.00 L 333.51 32.98 L 333.06 32.88 L 332.68 32.64 L 332.35 32.31 L 332.12 31.92 L 332.04 31.49 Z M 338.15 29.06 L 338.43 28.62 L 338.84 28.29 L 339.32 28.10 L 339.82 28.13 L 340.27 28.36 L 340.65 28.74 L 340.89 29.20 L 340.98 29.73 L 341.00 30.29 L 341.00 30.86 L 340.97 31.42 L 340.85 31.94 L 340.57 32.38 L 340.16 32.71 L 339.68 32.90 L 339.18 32.87 L 338.73 32.64 L 338.35 32.26 L 338.11 31.80 L 338.02 31.27 L 338.00 30.71 L 338.00 30.14 L 338.03 29.58 Z" fill="rgb(15,14,13)" fill-rule="evenodd"/>
  <path d="M 299.06 40.14 L 298.64 40.41 L 298.30 40.80 L 298.09 41.25 L 298.02 41.76 L 298.03 42.27 L 298.15 42.69 L 298.46 42.92 L 298.93 42.99 L 299.46 43.00 L 300.00 42.99 L 300.52 42.96 L 301.01 42.82 L 301.44 42.55 L 301.86 42.26 L 302.32 42.08 L 302.84 42.01 L 303.35 41.97 L 303.74 41.83 L 303.91 41.52 L 303.80 41.18 L 303.44 40.99 L 302.99 40.82 L 302.56 40.55 L 302.14 40.26 L 301.68 40.08 L 301.16 40.01 L 300.62 40.00 L 300.08 40.00 L 299.55 40.02 Z M 273.22 34.21 L 273.10 34.60 L 273.24 35.08 L 273.56 35.53 L 273.96 35.96 L 274.37 36.37 L 274.79 36.79 L 275.20 37.21 L 275.59 37.64 L 275.88 38.10 L 276.08 38.55 L 276.37 38.84 L 276.80 38.86 L 277.26 38.64 L 277.64 38.26 L 277.87 37.78 L 277.88 37.27 L 277.68 36.78 L 277.37 36.32 L 277.11 35.84 L 276.93 35.32 L 276.70 34.83 L 276.35 34.42 L 275.89 34.14 L 275.35 34.02 L 274.77 34.00 L 274.18 34.00 L 273.63 34.04 Z" fill="rgb(87,87,86)" fill-rule="evenodd"/>
  <path d="M 3.18 119.18 L 3.01 119.53 L 2.87 119.96 L 2.61 120.35 L 2.26 120.68 L 1.84 120.89 L 1.37 120.98 L 0.88 121.01 L 0.44 121.07 L 0.14 121.28 L 0.02 121.67 L 0.00 122.15 L 0.00 122.65 L 0.00 123.16 L 0.00 123.66 L 0.00 124.17 L 0.00 124.68 L 0.00 125.18 L 0.00 125.69 L 0.00 126.19 L 0.00 126.70 L 0.00 127.20 L 0.00 127.71 L 0.00 128.21 L 0.00 128.72 L 0.00 129.23 L 0.00 129.73 L 0.00 130.24 L 0.00 130.74 L 0.00 131.25 L 0.00 131.75 L 0.02 132.24 L 0.11 132.65 L 0.37 132.90 L 0.79 132.98 L 1.28 133.00 L 1.79 133.00 L 2.29 133.00 L 2.80 133.00 L 3.30 133.00 L 3.81 133.00 L 4.29 132.98 L 4.69 132.87 L 4.91 132.59 L 4.99 132.16 L 5.00 131.66 L 5.00 131.16 L 5.00 130.65 L 5.00 130.15 L 5.00 129.64 L 5.00 129.13 L 5.00 128.63 L 5.00 128.12 L 5.00 127.62 L 5.00 127.11 L 5.00 126.61 L 5.00 126.10 L 5.00 125.60 L 5.00 125.09 L 5.00 124.58 L 5.00 124.08 L 5.00 123.57 L 5.00 123.07 L 5.00 122.56 L 5.00 122.06 L 5.00 121.55 L 5.00 121.04 L 5.00 120.54 L 5.00 120.04 L 4.97 119.56 L 4.82 119.20 L 4.48 119.04 L 4.01 119.01 L 3.54 119.03 Z M 3.18 97.19 L 3.00 97.53 L 2.86 97.97 L 2.59 98.36 L 2.23 98.69 L 1.81 98.90 L 1.33 98.98 L 0.84 99.01 L 0.41 99.09 L 0.13 99.33 L 0.02 99.73 L 0.00 100.23 L 0.00 100.74 L 0.00 101.25 L 0.00 101.76 L 0.00 102.28 L 0.00 102.79 L 0.00 103.30 L 0.00 103.81 L 0.02 104.30 L 0.14 104.70 L 0.43 104.92 L 0.88 104.99 L 1.37 105.02 L 1.85 105.11 L 2.26 105.33 L 2.62 105.66 L 2.87 106.07 L 2.98 106.54 L 3.00 107.04 L 3.00 107.55 L 3.00 108.06 L 3.00 108.58 L 3.00 109.09 L 3.00 109.60 L 2.99 110.11 L 2.95 110.61 L 2.80 111.06 L 2.52 111.44 L 2.14 111.74 L 1.70 111.92 L 1.22 111.99 L 0.73 112.02 L 0.32 112.13 L 0.09 112.41 L 0.01 112.84 L 0.00 113.34 L 0.00 113.85 L 0.03 114.34 L 0.15 114.73 L 0.46 114.93 L 0.91 114.99 L 1.42 115.00 L 1.93 115.00 L 2.44 115.00 L 2.95 115.00 L 3.47 115.00 L 3.98 115.00 L 4.46 114.97 L 4.82 114.81 L 4.97 114.45 L 5.00 113.97 L 5.00 113.46 L 5.00 112.94 L 5.00 112.43 L 5.00 111.92 L 5.00 111.41 L 5.00 110.89 L 5.00 110.38 L 5.00 109.87 L 5.00 109.36 L 5.00 108.84 L 5.00 108.33 L 5.00 107.82 L 5.00 107.30 L 5.00 106.79 L 5.00 106.28 L 5.00 105.77 L 5.00 105.25 L 5.00 104.74 L 5.00 104.23 L 5.00 103.72 L 5.00 103.20 L 5.00 102.69 L 5.00 102.18 L 5.00 101.66 L 5.00 101.15 L 5.00 100.64 L 5.00 100.13 L 5.00 99.61 L 5.00 99.10 L 5.00 98.59 L 5.00 98.08 L 4.97 97.59 L 4.83 97.22 L 4.49 97.05 L 4.02 97.01 L 3.54 97.03 Z M 3.19 81.19 L 3.03 81.54 L 3.00 82.02 L 3.00 82.53 L 3.00 83.03 L 2.97 83.53 L 2.84 83.99 L 2.58 84.38 L 2.22 84.70 L 1.79 84.90 L 1.32 84.99 L 0.83 85.01 L 0.40 85.09 L 0.12 85.33 L 0.02 85.73 L 0.00 86.22 L 0.00 86.73 L 0.02 87.22 L 0.11 87.64 L 0.36 87.89 L 0.78 87.98 L 1.28 88.00 L 1.78 88.00 L 2.29 88.00 L 2.80 88.00 L 3.31 88.00 L 3.82 88.00 L 4.31 87.98 L 4.70 87.86 L 4.92 87.57 L 4.99 87.13 L 5.00 86.63 L 5.00 86.13 L 5.00 85.62 L 5.00 85.11 L 5.00 84.60 L 5.00 84.09 L 5.00 83.58 L 5.00 83.07 L 5.00 82.56 L 5.00 82.06 L 4.97 81.58 L 4.83 81.21 L 4.48 81.04 L 4.02 81.01 L 3.54 81.03 Z M 3.18 60.18 L 3.03 60.54 L 3.00 61.02 L 3.00 61.52 L 3.00 62.03 L 2.97 62.52 L 2.85 62.98 L 2.59 63.37 L 2.23 63.69 L 1.81 63.90 L 1.34 63.98 L 0.85 64.01 L 0.41 64.09 L 0.13 64.31 L 0.02 64.71 L 0.00 65.19 L 0.00 65.70 L 0.00 66.21 L 0.00 66.71 L 0.00 67.22 L 0.00 67.73 L 0.00 68.24 L 0.00 68.74 L 0.02 69.23 L 0.11 69.65 L 0.37 69.89 L 0.79 69.98 L 1.28 70.00 L 1.79 70.00 L 2.29 70.00 L 2.80 70.00 L 3.31 70.00 L 3.81 70.00 L 4.30 69.98 L 4.70 69.87 L 4.92 69.58 L 4.99 69.14 L 5.00 68.65 L 5.00 68.14 L 5.00 67.64 L 5.00 67.13 L 5.00 66.62 L 5.00 66.11 L 5.00 65.61 L 5.00 65.10 L 5.00 64.59 L 5.00 64.09 L 5.00 63.58 L 5.00 63.07 L 5.00 62.56 L 5.00 62.06 L 5.00 61.55 L 5.00 61.05 L 4.97 60.57 L 4.82 60.20 L 4.48 60.04 L 4.01 60.01 L 3.54 60.03 Z M 25.06 49.18 L 24.56 49.48 L 24.09 49.91 L 23.64 50.36 L 23.19 50.81 L 22.73 51.27 L 22.28 51.72 L 21.83 52.18 L 21.42 52.65 L 21.12 53.16 L 20.91 53.72 L 20.64 54.25 L 20.25 54.73 L 19.81 55.19 L 19.36 55.64 L 18.91 56.09 L 18.45 56.55 L 18.00 57.00 L 17.55 57.45 L 17.09 57.91 L 16.66 58.37 L 16.29 58.86 L 16.05 59.40 L 15.84 59.95 L 15.53 60.47 L 15.21 60.97 L 14.99 61.52 L 14.76 62.07 L 14.44 62.58 L 14.14 63.10 L 13.93 63.65 L 13.68 64.19 L 13.30 64.67 L 12.87 65.13 L 12.41 65.59 L 11.96 66.04 L 11.53 66.50 L 11.22 66.99 L 11.15 67.48 L 11.37 67.85 L 11.82 68.10 L 12.33 68.39 L 12.84 68.70 L 13.36 68.87 L 13.79 68.76 L 14.05 68.35 L 14.30 67.84 L 14.67 67.35 L 15.11 66.89 L 15.56 66.44 L 16.01 65.99 L 16.47 65.53 L 16.92 65.08 L 17.36 64.62 L 17.72 64.13 L 17.96 63.59 L 18.17 63.03 L 18.51 62.53 L 18.94 62.07 L 19.39 61.61 L 19.84 61.16 L 20.29 60.71 L 20.75 60.25 L 21.19 59.80 L 21.59 59.32 L 21.89 58.80 L 22.10 58.25 L 22.38 57.72 L 22.77 57.24 L 23.21 56.79 L 23.67 56.33 L 24.12 55.88 L 24.54 55.41 L 24.86 54.90 L 25.07 54.35 L 25.32 53.81 L 25.70 53.33 L 26.13 52.87 L 26.59 52.41 L 27.04 51.96 L 27.47 51.50 L 27.78 51.01 L 27.85 50.52 L 27.63 50.15 L 27.18 49.90 L 26.67 49.61 L 26.16 49.30 L 25.62 49.12 Z M 0.18 35.18 L 0.03 35.53 L 0.00 36.00 L 0.00 36.50 L 0.00 37.00 L 0.00 37.50 L 0.00 38.00 L 0.00 38.50 L 0.00 39.00 L 0.00 39.50 L 0.00 40.00 L 0.00 40.50 L 0.00 41.00 L 0.00 41.50 L 0.00 42.00 L 0.00 42.50 L 0.00 43.00 L 0.00 43.50 L 0.00 44.00 L 0.03 44.47 L 0.18 44.82 L 0.53 44.97 L 1.00 45.00 L 1.50 45.00 L 2.00 45.00 L 2.50 45.00 L 3.00 45.00 L 3.50 45.00 L 4.00 45.00 L 4.47 44.97 L 4.82 44.82 L 4.97 44.47 L 5.00 44.00 L 5.00 43.50 L 5.00 43.00 L 5.00 42.50 L 5.00 42.00 L 5.00 41.50 L 5.00 41.00 L 5.00 40.50 L 5.00 40.00 L 5.00 39.50 L 5.00 39.00 L 5.00 38.50 L 5.00 38.00 L 5.00 37.50 L 5.00 37.00 L 5.00 36.50 L 5.00 36.00 L 4.97 35.53 L 4.82 35.18 L 4.47 35.03 L 4.00 35.00 L 3.50 35.00 L 3.00 35.00 L 2.50 35.00 L 2.00 35.00 L 1.50 35.00 L 1.00 35.00 L 0.53 35.03 Z M 28.05 21.17 L 27.61 21.45 L 27.27 21.88 L 27.05 22.37 L 26.87 22.89 L 26.60 23.36 L 26.30 23.82 L 26.12 24.30 L 26.19 24.71 L 26.53 24.97 L 26.99 25.17 L 27.46 25.46 L 27.92 25.76 L 28.43 25.91 L 28.94 25.84 L 29.41 25.56 L 29.83 25.17 L 30.24 24.75 L 30.61 24.32 L 30.85 23.85 L 30.85 23.41 L 30.59 23.10 L 30.15 22.89 L 29.70 22.61 L 29.33 22.21 L 29.08 21.75 L 28.86 21.33 L 28.51 21.12 Z" fill="rgb(250,250,250)" fill-rule="evenodd"/>
</svg>