<svg xmlns="http://www.w3.org/2000/svg" width="302" height="135" viewBox="0 0 302 135" role="img" aria-label="20_plates_20">
  <title>20_plates_20</title>
  <path d="M 23.06 71.14 L 22.64 71.41 L 22.31 71.79 L 22.11 72.23 L 22.14 72.64 L 22.40 72.89 L 22.85 72.98 L 23.38 73.00 L 23.92 73.00 L 24.46 73.00 L 25.00 73.00 L 25.54 73.00 L 26.08 73.01 L 26.60 73.06 L 27.07 73.22 L 27.50 73.50 L 27.93 73.78 L 28.40 73.94 L 28.92 73.99 L 29.46 74.00 L 30.00 74.01 L 30.52 74.04 L 31.01 74.18 L 31.44 74.45 L 31.86 74.74 L 32.30 74.90 L 32.69 74.84 L 32.90 74.55 L 32.87 74.12 L 32.64 73.69 L 32.34 73.27 L 32.10 72.84 L 31.92 72.42 L 31.66 72.12 L 31.26 71.94 L 30.82 71.72 L 30.41 71.42 L 29.97 71.16 L 29.48 71.03 L 28.95 71.00 L 28.41 71.00 L 27.87 71.00 L 27.33 71.00 L 26.79 71.00 L 26.25 71.00 L 25.71 71.00 L 25.17 71.00 L 24.62 71.00 L 24.08 71.00 L 23.55 71.02 Z M 53.14 68.27 L 52.45 68.83 L 51.94 69.60 L 51.41 70.34 L 50.79 70.93 L 50.27 71.53 L 50.03 72.34 L 49.88 73.28 L 49.55 74.13 L 48.92 74.75 L 48.14 75.21 L 47.53 75.78 L 47.39 76.42 L 47.82 76.86 L 48.60 77.16 L 49.43 77.60 L 50.15 78.23 L 50.69 79.02 L 50.99 79.88 L 51.34 80.59 L 52.02 80.96 L 52.85 81.26 L 53.48 81.82 L 53.68 82.58 L 53.37 83.32 L 52.69 83.88 L 51.87 84.32 L 51.01 84.70 L 50.08 84.93 L 49.10 85.03 L 48.17 85.25 L 47.34 85.73 L 46.57 86.31 L 45.77 86.69 L 44.92 86.64 L 44.08 86.36 L 43.23 86.31 L 42.43 86.69 L 41.66 87.27 L 40.86 87.69 L 40.01 87.69 L 39.20 87.42 L 38.49 87.38 L 37.94 87.82 L 37.38 88.52 L 36.73 89.26 L 36.02 89.98 L 35.29 90.69 L 34.54 91.32 L 33.74 91.69 L 32.91 91.58 L 32.15 91.06 L 31.53 90.33 L 31.13 89.49 L 30.81 88.72 L 30.28 88.24 L 29.49 88.19 L 28.63 88.45 L 27.78 88.71 L 26.98 88.59 L 26.38 88.01 L 26.09 87.14 L 26.01 86.15 L 26.00 85.14 L 25.94 84.17 L 25.67 83.48 L 25.08 83.34 L 24.35 83.75 L 23.70 84.43 L 23.31 85.23 L 23.36 86.08 L 23.68 86.94 L 23.91 87.86 L 23.95 88.83 L 23.76 89.75 L 23.27 90.48 L 22.62 91.05 L 22.04 91.63 L 21.48 92.29 L 20.84 92.87 L 20.21 93.41 L 19.68 94.06 L 19.02 94.62 L 18.16 94.87 L 17.27 94.75 L 16.57 94.25 L 16.17 93.45 L 16.05 92.50 L 16.15 91.54 L 16.44 90.66 L 16.68 89.87 L 16.50 89.22 L 15.88 88.73 L 15.08 88.29 L 14.26 87.85 L 13.58 87.27 L 13.19 86.48 L 13.17 85.57 L 13.45 84.69 L 13.86 83.84 L 14.30 83.02 L 14.93 82.40 L 15.75 82.05 L 16.48 81.71 L 16.87 81.07 L 17.02 80.17 L 17.21 79.24 L 17.55 78.36 L 17.85 77.46 L 17.94 76.53 L 17.77 75.71 L 17.25 75.21 L 16.44 75.07 L 15.63 75.24 L 15.01 75.72 L 14.46 76.42 L 13.85 77.18 L 13.30 77.97 L 12.83 78.78 L 12.25 79.43 L 11.50 79.68 L 10.76 79.42 L 10.24 78.75 L 10.04 77.83 L 9.99 76.84 L 9.87 75.93 L 9.48 75.31 L 8.71 75.05 L 7.73 75.00 L 6.72 75.02 L 5.74 75.11 L 4.83 75.39 L 4.02 75.80 L 3.44 76.24 L 3.42 76.73 L 3.94 77.21 L 4.50 77.83 L 4.68 78.60 L 4.37 79.34 L 3.78 79.94 L 3.27 80.54 L 3.06 81.35 L 3.12 82.28 L 3.39 83.19 L 3.75 84.06 L 3.95 85.00 L 3.99 86.00 L 3.95 87.00 L 3.74 87.94 L 3.39 88.82 L 3.12 89.73 L 3.02 90.71 L 3.00 91.72 L 3.00 92.74 L 3.05 93.72 L 3.29 94.52 L 3.83 95.10 L 4.43 95.71 L 4.85 96.51 L 5.11 97.42 L 5.43 98.30 L 5.71 99.15 L 5.64 100.00 L 5.17 100.80 L 4.59 101.58 L 4.19 102.43 L 4.03 103.39 L 4.00 104.40 L 3.98 105.41 L 3.86 106.38 L 3.57 107.29 L 3.22 108.16 L 3.04 109.11 L 3.00 110.12 L 3.01 111.13 L 3.08 112.13 L 3.32 113.05 L 3.67 113.93 L 3.91 114.85 L 3.99 115.84 L 4.00 116.86 L 3.96 117.86 L 3.78 118.81 L 3.44 119.69 L 3.14 120.59 L 3.02 121.56 L 3.00 122.58 L 3.00 123.60 L 3.00 124.62 L 3.03 125.63 L 3.18 126.59 L 3.49 127.48 L 3.82 128.37 L 3.97 129.33 L 4.02 130.33 L 4.13 131.31 L 4.45 132.19 L 5.03 132.95 L 5.79 133.54 L 6.67 133.87 L 7.65 133.98 L 8.66 134.00 L 9.69 134.00 L 10.71 134.00 L 11.73 134.00 L 12.75 134.00 L 13.77 134.00 L 14.78 133.96 L 15.71 133.77 L 16.44 133.27 L 16.97 132.53 L 17.47 131.72 L 18.09 130.98 L 18.82 130.37 L 19.51 129.84 L 20.06 129.22 L 20.62 128.49 L 21.28 127.79 L 22.03 127.22 L 22.69 126.70 L 23.20 126.04 L 23.77 125.28 L 24.46 124.55 L 25.14 123.81 L 25.71 123.02 L 26.16 122.19 L 26.70 121.39 L 27.37 120.64 L 28.10 119.95 L 28.84 119.35 L 29.50 118.81 L 29.90 118.12 L 30.18 117.27 L 30.53 116.40 L 30.86 115.52 L 31.12 114.60 L 31.49 113.74 L 32.08 112.96 L 32.78 112.22 L 33.50 111.50 L 34.22 110.78 L 34.94 110.06 L 35.67 109.33 L 36.39 108.61 L 37.08 107.87 L 37.66 107.09 L 38.12 106.26 L 38.65 105.46 L 39.26 104.69 L 39.80 103.89 L 40.24 103.05 L 40.80 102.26 L 41.48 101.52 L 42.17 100.78 L 42.73 99.99 L 43.18 99.16 L 43.72 98.36 L 44.39 97.62 L 45.12 96.92 L 45.90 96.34 L 46.72 95.87 L 47.43 95.30 L 47.96 94.56 L 48.45 93.75 L 49.02 92.97 L 49.54 92.18 L 49.70 91.35 L 49.50 90.51 L 49.30 89.67 L 49.46 88.84 L 50.00 88.08 L 50.75 87.49 L 51.62 87.14 L 52.58 86.99 L 53.52 86.82 L 54.31 86.39 L 54.88 85.69 L 55.36 84.88 L 55.94 84.11 L 56.63 83.37 L 57.35 82.65 L 58.04 81.91 L 58.60 81.12 L 58.93 80.23 L 59.20 79.34 L 59.67 78.59 L 60.31 78.01 L 60.90 77.43 L 61.45 76.77 L 62.08 76.19 L 62.59 75.73 L 62.60 75.38 L 62.20 75.47 L 61.72 76.03 L 61.11 76.65 L 60.46 77.18 L 59.91 77.79 L 59.30 78.41 L 58.51 78.80 L 57.62 78.83 L 56.80 78.49 L 56.20 77.83 L 55.74 77.02 L 55.17 76.25 L 54.45 75.59 L 53.65 75.07 L 52.86 74.58 L 52.30 73.90 L 52.10 73.02 L 52.28 72.14 L 52.84 71.47 L 53.67 71.10 L 54.58 70.83 L 55.42 70.40 L 56.15 69.77 L 56.62 69.04 L 56.59 68.41 L 55.97 68.09 L 55.04 68.01 L 54.04 68.05 Z M 18.15 122.06 L 18.43 121.62 L 18.84 121.29 L 19.32 121.10 L 19.82 121.13 L 20.27 121.36 L 20.65 121.74 L 20.89 122.20 L 20.98 122.73 L 21.00 123.29 L 21.00 123.86 L 20.97 124.42 L 20.85 124.94 L 20.57 125.38 L 20.16 125.71 L 19.68 125.90 L 19.18 125.87 L 18.73 125.64 L 18.35 125.26 L 18.11 124.80 L 18.02 124.27 L 18.00 123.71 L 18.00 123.14 L 18.03 122.58 Z M 20.15 98.06 L 20.44 97.62 L 20.85 97.28 L 21.35 97.08 L 21.89 97.02 L 22.45 97.03 L 22.97 97.17 L 23.41 97.46 L 23.74 97.88 L 23.90 98.37 L 23.86 98.88 L 23.62 99.34 L 23.31 99.79 L 23.12 100.27 L 23.12 100.77 L 23.33 101.25 L 23.64 101.70 L 23.87 102.17 L 23.90 102.67 L 23.71 103.15 L 23.37 103.57 L 22.94 103.87 L 22.49 104.06 L 22.15 104.31 L 21.93 104.73 L 21.70 105.18 L 21.35 105.59 L 20.90 105.85 L 20.39 105.91 L 19.90 105.75 L 19.48 105.43 L 19.19 104.99 L 19.08 104.49 L 19.19 103.99 L 19.47 103.53 L 19.77 103.08 L 19.94 102.58 L 19.99 102.02 L 20.00 101.45 L 20.00 100.88 L 20.00 100.30 L 20.00 99.73 L 20.00 99.15 L 20.03 98.59 Z M 38.14 92.06 L 38.45 91.61 L 38.87 91.27 L 39.36 91.10 L 39.87 91.15 L 40.33 91.41 L 40.69 91.81 L 40.93 92.29 L 41.10 92.80 L 41.35 93.28 L 41.66 93.74 L 41.87 94.22 L 41.88 94.74 L 41.67 95.22 L 41.32 95.66 L 40.92 96.08 L 40.50 96.47 L 40.05 96.78 L 39.53 96.94 L 38.96 96.99 L 38.38 97.00 L 37.80 97.00 L 37.21 97.00 L 36.63 97.00 L 36.05 97.00 L 35.46 97.00 L 34.88 97.01 L 34.33 97.09 L 33.83 97.29 L 33.37 97.60 L 32.90 97.85 L 32.39 97.90 L 31.89 97.74 L 31.47 97.41 L 31.17 96.96 L 31.09 96.46 L 31.22 95.95 L 31.54 95.52 L 31.97 95.20 L 32.44 94.99 L 32.82 94.76 L 33.04 94.35 L 33.26 93.88 L 33.60 93.46 L 34.05 93.17 L 34.56 93.09 L 35.06 93.23 L 35.52 93.52 L 35.99 93.80 L 36.49 93.91 L 37.00 93.81 L 37.44 93.50 L 37.77 93.07 L 37.96 92.57 Z M 8.13 86.05 L 8.37 85.67 L 8.70 85.34 L 9.09 85.12 L 9.54 85.02 L 10.01 85.00 L 10.49 85.02 L 10.94 85.12 L 11.32 85.36 L 11.65 85.69 L 11.88 86.08 L 11.96 86.51 L 11.87 86.95 L 11.63 87.33 L 11.30 87.66 L 10.91 87.88 L 10.46 87.98 L 9.99 88.00 L 9.51 87.98 L 9.06 87.88 L 8.68 87.64 L 8.35 87.31 L 8.12 86.92 L 8.04 86.49 Z M 5.13 82.05 L 5.37 81.67 L 5.70 81.34 L 6.09 81.12 L 6.53 81.04 L 6.96 81.13 L 7.34 81.38 L 7.66 81.71 L 7.89 82.10 L 7.98 82.55 L 8.00 83.03 L 7.98 83.51 L 7.87 83.95 L 7.63 84.33 L 7.30 84.66 L 6.91 84.88 L 6.47 84.96 L 6.04 84.87 L 5.66 84.62 L 5.34 84.29 L 5.11 83.90 L 5.02 83.45 L 5.00 82.97 L 5.02 82.49 Z M 45.06 60.14 L 44.63 60.42 L 44.30 60.81 L 44.09 61.27 L 44.02 61.79 L 44.02 62.32 L 44.12 62.83 L 44.36 63.28 L 44.72 63.64 L 45.16 63.88 L 45.67 63.98 L 46.21 64.00 L 46.76 64.00 L 47.30 64.02 L 47.82 64.11 L 48.27 64.34 L 48.69 64.64 L 49.15 64.88 L 49.65 64.98 L 50.19 65.00 L 50.74 65.00 L 51.27 64.97 L 51.69 64.85 L 51.92 64.53 L 51.98 64.05 L 51.95 63.56 L 51.77 63.19 L 51.38 63.03 L 50.86 62.99 L 50.34 62.93 L 49.87 62.74 L 49.47 62.42 L 49.18 62.01 L 49.00 61.55 L 48.79 61.19 L 48.42 60.98 L 47.96 60.80 L 47.53 60.52 L 47.10 60.24 L 46.62 60.07 L 46.10 60.01 L 45.56 60.03 Z M 69.05 59.15 L 68.63 59.42 L 68.30 59.81 L 68.09 60.28 L 68.01 60.80 L 68.00 61.35 L 68.00 61.90 L 68.00 62.45 L 68.00 63.00 L 68.00 63.55 L 68.01 64.10 L 68.07 64.63 L 68.24 65.10 L 68.56 65.51 L 68.98 65.80 L 69.46 65.93 L 69.94 65.85 L 70.37 65.58 L 70.70 65.19 L 70.91 64.72 L 70.99 64.20 L 71.00 63.65 L 71.00 63.10 L 71.00 62.55 L 70.99 62.00 L 70.95 61.47 L 70.81 60.98 L 70.53 60.54 L 70.24 60.11 L 70.04 59.66 L 69.84 59.27 L 69.50 59.09 Z M 73.20 52.19 L 73.09 52.51 L 73.25 52.83 L 73.64 52.97 L 74.14 53.01 L 74.65 53.07 L 75.12 53.25 L 75.54 53.53 L 75.96 53.80 L 76.43 53.97 L 76.90 54.12 L 77.33 54.37 L 77.74 54.67 L 78.18 54.88 L 78.59 54.88 L 78.89 54.66 L 79.07 54.26 L 79.28 53.82 L 79.58 53.41 L 79.83 52.99 L 79.92 52.54 L 79.78 52.19 L 79.41 52.03 L 78.90 52.00 L 78.37 52.00 L 77.83 52.00 L 77.29 52.00 L 76.76 52.00 L 76.22 52.00 L 75.68 52.00 L 75.15 52.00 L 74.61 52.00 L 74.08 52.00 L 73.57 52.03 Z M 61.20 41.22 L 61.03 41.61 L 60.99 42.14 L 60.91 42.68 L 60.71 43.17 L 60.41 43.62 L 60.14 44.08 L 60.02 44.61 L 60.00 45.17 L 60.00 45.74 L 60.02 46.30 L 60.12 46.83 L 60.38 47.29 L 60.76 47.66 L 61.23 47.91 L 61.73 48.08 L 62.21 48.31 L 62.64 48.65 L 63.05 49.05 L 63.44 49.46 L 63.75 49.90 L 63.93 50.40 L 63.99 50.95 L 64.00 51.52 L 64.02 52.07 L 64.11 52.56 L 64.37 52.86 L 64.83 52.98 L 65.38 53.00 L 65.95 53.01 L 66.51 53.05 L 67.02 53.20 L 67.45 53.50 L 67.77 53.93 L 67.97 54.39 L 68.19 54.78 L 68.59 54.96 L 69.11 54.98 L 69.58 54.88 L 69.87 54.60 L 69.98 54.14 L 69.97 53.60 L 69.86 53.07 L 69.58 52.62 L 69.20 52.20 L 68.80 51.80 L 68.39 51.39 L 67.99 50.99 L 67.58 50.58 L 67.18 50.18 L 66.77 49.77 L 66.40 49.35 L 66.14 48.89 L 66.02 48.36 L 65.98 47.82 L 65.86 47.36 L 65.56 47.08 L 65.12 46.89 L 64.66 46.62 L 64.22 46.31 L 63.74 46.08 L 63.24 45.91 L 62.77 45.67 L 62.34 45.32 L 61.93 44.93 L 61.54 44.52 L 61.23 44.07 L 61.09 43.58 L 61.15 43.08 L 61.41 42.62 L 61.71 42.17 L 61.89 41.71 L 61.82 41.31 L 61.53 41.12 Z M 35.06 39.15 L 34.62 39.43 L 34.29 39.84 L 34.10 40.31 L 34.13 40.80 L 34.35 41.26 L 34.72 41.63 L 35.18 41.88 L 35.70 41.98 L 36.25 42.02 L 36.78 42.11 L 37.25 42.33 L 37.69 42.64 L 38.15 42.89 L 38.65 43.05 L 39.12 43.26 L 39.53 43.59 L 39.82 44.02 L 39.92 44.51 L 39.81 45.00 L 39.51 45.43 L 39.10 45.75 L 38.61 45.93 L 38.08 46.00 L 37.56 46.05 L 37.20 46.24 L 37.10 46.63 L 37.24 47.09 L 37.53 47.53 L 37.81 47.98 L 37.95 48.49 L 38.01 49.02 L 38.08 49.51 L 38.32 49.84 L 38.75 49.97 L 39.27 49.97 L 39.70 49.84 L 39.92 49.50 L 39.98 49.00 L 39.95 48.47 L 39.80 47.97 L 39.51 47.52 L 39.23 47.07 L 39.08 46.59 L 39.15 46.09 L 39.41 45.65 L 39.81 45.30 L 40.28 45.09 L 40.81 45.01 L 41.34 44.97 L 41.75 44.81 L 41.95 44.44 L 41.98 43.93 L 41.93 43.39 L 41.75 42.90 L 41.43 42.49 L 41.00 42.19 L 40.50 42.04 L 39.95 42.00 L 39.41 41.94 L 38.92 41.77 L 38.50 41.45 L 38.19 41.03 L 38.01 40.56 L 37.79 40.19 L 37.40 39.98 L 36.93 39.78 L 36.49 39.49 L 36.04 39.21 L 35.55 39.08 Z M 13.07 29.21 L 12.50 29.54 L 11.99 30.02 L 11.52 30.54 L 11.15 31.11 L 10.90 31.72 L 10.60 32.32 L 10.26 32.90 L 9.99 33.51 L 9.71 34.10 L 9.27 34.58 L 8.70 34.90 L 8.09 35.16 L 7.52 35.53 L 7.00 36.00 L 6.49 36.51 L 5.98 37.02 L 5.48 37.53 L 4.97 38.04 L 4.50 38.56 L 4.15 39.13 L 3.89 39.75 L 3.59 40.34 L 3.27 40.93 L 3.07 41.56 L 3.05 42.21 L 3.25 42.72 L 3.75 42.95 L 4.42 43.00 L 5.13 43.00 L 5.84 42.99 L 6.53 42.91 L 7.16 42.69 L 7.74 42.37 L 8.35 42.16 L 8.95 42.22 L 9.48 42.58 L 9.83 43.13 L 9.97 43.79 L 10.00 44.50 L 10.00 45.21 L 9.98 45.93 L 9.89 46.61 L 9.62 47.20 L 9.17 47.64 L 8.58 47.84 L 7.97 47.75 L 7.39 47.44 L 6.80 47.15 L 6.14 47.01 L 5.46 46.91 L 4.83 46.68 L 4.25 46.37 L 3.69 46.17 L 3.24 46.31 L 3.04 46.81 L 3.00 47.48 L 3.00 48.20 L 3.00 48.92 L 3.00 49.64 L 3.00 50.36 L 3.00 51.08 L 3.00 51.80 L 3.00 52.52 L 3.00 53.23 L 3.00 53.95 L 3.01 54.66 L 3.08 55.31 L 3.33 55.80 L 3.81 56.11 L 4.34 56.46 L 4.74 56.97 L 4.94 57.60 L 4.99 58.30 L 4.98 59.00 L 4.87 59.68 L 4.58 60.26 L 4.12 60.70 L 3.59 61.02 L 3.20 61.39 L 3.05 61.94 L 3.11 62.59 L 3.34 63.21 L 3.66 63.79 L 3.84 64.40 L 3.76 65.01 L 3.45 65.59 L 3.16 66.19 L 3.03 66.85 L 3.01 67.56 L 3.05 68.23 L 3.26 68.74 L 3.76 68.95 L 4.44 68.99 L 5.12 68.96 L 5.65 68.78 L 5.92 68.32 L 6.03 67.69 L 6.20 67.05 L 6.58 66.52 L 7.12 66.15 L 7.73 65.89 L 8.33 65.60 L 8.91 65.28 L 9.52 65.16 L 10.10 65.32 L 10.58 65.74 L 10.90 66.31 L 11.16 66.91 L 11.54 67.45 L 12.08 67.79 L 12.69 67.84 L 13.28 67.59 L 13.82 67.16 L 14.31 66.66 L 14.71 66.11 L 15.00 65.51 L 15.28 64.91 L 15.72 64.43 L 16.28 64.17 L 16.89 64.20 L 17.47 64.49 L 18.05 64.79 L 18.67 64.84 L 19.26 64.60 L 19.80 64.18 L 20.32 63.71 L 20.87 63.32 L 21.47 63.16 L 22.07 63.30 L 22.56 63.70 L 22.90 64.23 L 23.22 64.70 L 23.71 64.93 L 24.31 64.92 L 24.79 64.69 L 25.10 64.21 L 25.44 63.65 L 25.89 63.12 L 26.39 62.61 L 26.90 62.10 L 27.42 61.62 L 27.98 61.24 L 28.62 61.06 L 29.31 61.05 L 29.95 61.21 L 30.48 61.59 L 30.83 62.14 L 30.99 62.78 L 31.11 63.39 L 31.37 63.76 L 31.73 63.72 L 31.93 63.28 L 31.92 62.69 L 31.68 62.21 L 31.20 61.89 L 30.67 61.54 L 30.28 61.04 L 30.16 60.45 L 30.34 59.86 L 30.77 59.40 L 31.34 59.16 L 31.95 59.21 L 32.53 59.52 L 33.11 59.85 L 33.72 60.11 L 34.29 60.43 L 34.71 60.92 L 34.92 61.54 L 34.99 62.23 L 35.03 62.92 L 35.16 63.50 L 35.51 63.80 L 36.04 63.75 L 36.60 63.45 L 37.19 63.18 L 37.80 63.18 L 38.39 63.44 L 38.95 63.74 L 39.48 63.80 L 39.80 63.53 L 39.77 63.02 L 39.44 62.48 L 38.96 61.96 L 38.50 61.43 L 38.13 60.88 L 37.83 60.39 L 37.38 60.10 L 36.75 60.01 L 36.05 59.98 L 35.37 59.88 L 34.76 59.62 L 34.22 59.20 L 33.69 58.72 L 33.14 58.33 L 32.54 58.16 L 31.93 58.27 L 31.35 58.58 L 30.75 58.86 L 30.08 58.98 L 29.37 59.00 L 28.67 59.05 L 28.02 59.21 L 27.44 59.53 L 26.85 59.81 L 26.24 59.83 L 25.68 59.54 L 25.27 59.04 L 25.07 58.42 L 25.01 57.72 L 25.02 57.02 L 25.12 56.34 L 25.38 55.72 L 25.69 55.14 L 25.84 54.54 L 25.73 53.93 L 25.42 53.35 L 25.14 52.74 L 25.04 52.08 L 25.11 51.41 L 25.34 50.79 L 25.67 50.20 L 25.90 49.58 L 26.01 48.90 L 26.15 48.24 L 26.45 47.65 L 26.90 47.12 L 27.41 46.63 L 27.95 46.23 L 28.47 45.92 L 28.83 45.53 L 28.94 44.98 L 28.82 44.43 L 28.44 44.05 L 27.92 43.74 L 27.45 43.31 L 27.14 42.73 L 27.02 42.06 L 27.00 41.35 L 27.00 40.64 L 26.97 39.95 L 26.80 39.40 L 26.37 39.11 L 25.75 39.05 L 25.11 39.18 L 24.52 39.49 L 23.96 39.84 L 23.45 40.14 L 23.13 40.56 L 22.99 41.15 L 22.85 41.80 L 22.53 42.39 L 22.07 42.92 L 21.60 43.44 L 21.23 44.01 L 21.05 44.65 L 21.00 45.35 L 20.98 46.06 L 20.86 46.73 L 20.55 47.30 L 20.07 47.73 L 19.47 48.01 L 18.87 48.29 L 18.28 48.62 L 17.67 48.88 L 17.00 48.98 L 16.29 48.99 L 15.59 48.93 L 14.95 48.74 L 14.39 48.36 L 13.89 47.87 L 13.44 47.33 L 13.17 46.75 L 13.19 46.14 L 13.52 45.60 L 14.04 45.21 L 14.68 45.05 L 15.36 45.06 L 16.01 45.23 L 16.59 45.55 L 17.16 45.81 L 17.64 45.76 L 17.91 45.34 L 17.94 44.75 L 17.74 44.24 L 17.28 43.92 L 16.74 43.59 L 16.31 43.11 L 16.09 42.50 L 16.01 41.81 L 16.00 41.09 L 16.01 40.38 L 16.05 39.67 L 16.22 39.03 L 16.61 38.51 L 17.16 38.17 L 17.82 38.03 L 18.53 38.00 L 19.25 38.00 L 19.94 37.97 L 20.51 37.84 L 20.80 37.48 L 20.74 36.95 L 20.44 36.39 L 20.12 35.80 L 19.87 35.19 L 19.52 34.64 L 19.01 34.23 L 18.41 33.95 L 17.81 33.66 L 17.27 33.24 L 16.77 32.74 L 16.35 32.19 L 16.10 31.58 L 15.98 30.93 L 15.80 30.38 L 15.40 30.01 L 14.85 29.72 L 14.28 29.38 L 13.68 29.16 Z M 15.14 52.05 L 15.44 51.61 L 15.87 51.27 L 16.37 51.08 L 16.93 51.01 L 17.50 51.00 L 18.08 51.01 L 18.64 51.08 L 19.14 51.28 L 19.56 51.62 L 19.85 52.07 L 19.98 52.60 L 20.02 53.15 L 20.14 53.62 L 20.45 53.89 L 20.94 53.99 L 21.49 54.05 L 22.01 54.20 L 22.45 54.51 L 22.77 54.94 L 22.91 55.44 L 22.83 55.95 L 22.55 56.41 L 22.16 56.84 L 21.75 57.25 L 21.34 57.66 L 20.92 58.07 L 20.50 58.47 L 20.05 58.78 L 19.53 58.94 L 18.97 58.99 L 18.39 59.00 L 17.81 59.00 L 17.22 59.00 L 16.64 59.00 L 16.06 59.01 L 15.54 59.07 L 15.17 59.29 L 14.94 59.69 L 14.72 60.16 L 14.41 60.62 L 14.13 61.09 L 13.96 61.60 L 13.75 62.10 L 13.42 62.52 L 12.98 62.82 L 12.47 62.91 L 11.96 62.79 L 11.50 62.50 L 11.04 62.22 L 10.57 62.10 L 10.20 62.25 L 10.03 62.66 L 9.98 63.20 L 9.89 63.75 L 9.66 64.23 L 9.29 64.62 L 8.82 64.86 L 8.31 64.89 L 7.82 64.70 L 7.38 64.36 L 6.96 63.96 L 6.55 63.55 L 6.14 63.14 L 5.73 62.72 L 5.37 62.29 L 5.13 61.82 L 5.11 61.31 L 5.31 60.82 L 5.66 60.41 L 6.11 60.13 L 6.62 59.95 L 7.12 59.74 L 7.54 59.40 L 7.85 58.95 L 8.03 58.45 L 8.22 57.94 L 8.54 57.49 L 8.93 57.07 L 9.35 56.67 L 9.79 56.32 L 10.25 56.07 L 10.67 55.86 L 10.94 55.51 L 11.14 55.06 L 11.44 54.62 L 11.86 54.28 L 12.35 54.06 L 12.86 53.88 L 13.34 53.62 L 13.79 53.31 L 14.26 53.07 L 14.68 52.85 L 14.94 52.51 Z M 45.05 22.15 L 44.62 22.41 L 44.23 22.77 L 43.84 23.16 L 43.45 23.52 L 43.02 23.81 L 42.53 23.95 L 42.00 23.99 L 41.46 24.00 L 40.93 24.01 L 40.46 24.09 L 40.15 24.32 L 40.03 24.75 L 40.03 25.25 L 40.14 25.67 L 40.44 25.93 L 40.87 26.11 L 41.31 26.36 L 41.73 26.66 L 42.18 26.89 L 42.69 26.98 L 43.22 26.98 L 43.73 26.91 L 44.19 26.71 L 44.61 26.40 L 45.05 26.14 L 45.49 25.97 L 45.83 25.74 L 45.97 25.34 L 46.00 24.82 L 46.00 24.28 L 46.00 23.73 L 46.00 23.19 L 45.97 22.67 L 45.83 22.26 L 45.49 22.09 Z M 78.05 20.16 L 77.61 20.43 L 77.20 20.81 L 76.80 21.21 L 76.42 21.62 L 76.14 22.08 L 76.02 22.60 L 76.00 23.16 L 76.00 23.72 L 75.98 24.28 L 75.88 24.81 L 75.64 25.27 L 75.26 25.65 L 74.80 25.89 L 74.27 25.98 L 73.73 26.03 L 73.31 26.16 L 73.11 26.47 L 73.21 26.80 L 73.58 26.91 L 74.05 26.78 L 74.50 26.50 L 74.95 26.21 L 75.45 26.05 L 76.00 26.01 L 76.57 26.00 L 77.13 25.99 L 77.67 25.92 L 78.16 25.72 L 78.57 25.38 L 78.85 24.94 L 78.92 24.44 L 78.78 23.95 L 78.50 23.50 L 78.22 23.05 L 78.08 22.56 L 78.15 22.06 L 78.41 21.60 L 78.72 21.16 L 78.89 20.70 L 78.82 20.30 L 78.50 20.10 Z M 106.06 15.15 L 105.59 15.42 L 105.13 15.73 L 104.63 15.92 L 104.07 15.99 L 103.49 16.00 L 102.91 16.01 L 102.36 16.08 L 101.85 16.28 L 101.40 16.58 L 100.93 16.86 L 100.42 17.04 L 99.91 17.24 L 99.46 17.54 L 99.00 17.83 L 98.53 18.03 L 98.20 18.26 L 98.15 18.60 L 98.40 18.89 L 98.83 19.10 L 99.30 19.36 L 99.75 19.67 L 100.24 19.91 L 100.75 20.09 L 101.23 20.33 L 101.67 20.68 L 102.08 21.09 L 102.48 21.51 L 102.79 21.96 L 103.00 22.43 L 103.22 22.79 L 103.56 22.86 L 103.87 22.64 L 104.08 22.22 L 104.33 21.75 L 104.64 21.30 L 104.89 20.82 L 105.07 20.31 L 105.30 19.82 L 105.64 19.38 L 106.04 18.96 L 106.46 18.54 L 106.87 18.13 L 107.28 17.72 L 107.70 17.30 L 108.11 16.89 L 108.50 16.47 L 108.80 16.02 L 108.89 15.55 L 108.73 15.19 L 108.30 15.03 L 107.75 15.00 L 107.17 15.00 L 106.60 15.03 Z M 26.20 14.22 L 25.97 14.60 L 25.77 15.08 L 25.44 15.53 L 25.05 15.95 L 24.63 16.37 L 24.22 16.78 L 23.81 17.19 L 23.39 17.61 L 22.98 18.02 L 22.56 18.44 L 22.15 18.85 L 21.73 19.27 L 21.32 19.68 L 20.90 20.10 L 20.51 20.52 L 20.21 20.97 L 20.11 21.44 L 20.27 21.81 L 20.69 21.97 L 21.24 22.00 L 21.83 22.00 L 22.41 22.00 L 23.00 22.01 L 23.56 22.06 L 24.08 22.23 L 24.54 22.53 L 25.00 22.81 L 25.51 22.91 L 26.02 22.79 L 26.46 22.48 L 26.78 22.05 L 26.94 21.53 L 26.99 20.96 L 27.00 20.38 L 27.02 19.80 L 27.11 19.25 L 27.33 18.76 L 27.64 18.30 L 27.88 17.81 L 27.98 17.27 L 28.00 16.69 L 28.00 16.11 L 27.96 15.53 L 27.81 15.01 L 27.51 14.57 L 27.08 14.24 L 26.60 14.10 Z M 56.19 8.21 L 55.99 8.57 L 55.81 9.02 L 55.51 9.43 L 55.11 9.75 L 54.64 9.93 L 54.12 9.99 L 53.60 10.03 L 53.21 10.19 L 53.00 10.55 L 52.82 11.01 L 52.55 11.44 L 52.26 11.87 L 52.07 12.34 L 52.01 12.87 L 52.00 13.41 L 52.00 13.96 L 52.04 14.49 L 52.17 14.99 L 52.46 15.41 L 52.86 15.73 L 53.32 15.90 L 53.80 15.88 L 54.25 15.66 L 54.62 15.31 L 54.88 14.88 L 55.04 14.39 L 55.23 13.92 L 55.54 13.51 L 55.95 13.21 L 56.40 13.02 L 56.77 12.82 L 56.95 12.45 L 56.99 11.94 L 57.00 11.39 L 57.00 10.85 L 57.00 10.30 L 57.00 9.75 L 57.00 9.20 L 56.97 8.68 L 56.83 8.27 L 56.52 8.10 Z M 94.20 4.20 L 94.03 4.58 L 94.00 5.09 L 94.00 5.63 L 93.99 6.17 L 93.92 6.68 L 93.73 7.15 L 93.41 7.54 L 93.00 7.83 L 92.52 7.99 L 92.04 8.14 L 91.61 8.41 L 91.19 8.71 L 90.73 8.91 L 90.22 8.99 L 89.69 9.00 L 89.14 9.00 L 88.61 9.02 L 88.11 9.13 L 87.67 9.38 L 87.27 9.73 L 86.89 10.11 L 86.52 10.50 L 86.22 10.92 L 86.04 11.39 L 85.89 11.87 L 85.64 12.31 L 85.34 12.73 L 85.12 13.17 L 85.09 13.65 L 85.25 14.11 L 85.56 14.51 L 85.97 14.80 L 86.45 14.95 L 86.97 14.99 L 87.51 15.00 L 88.06 15.00 L 88.60 15.00 L 89.14 15.00 L 89.69 15.00 L 90.23 15.00 L 90.77 15.00 L 91.31 15.00 L 91.86 15.00 L 92.40 15.00 L 92.94 15.00 L 93.44 14.96 L 93.81 14.78 L 93.97 14.40 L 94.00 13.88 L 94.00 13.34 L 94.00 12.80 L 94.00 12.26 L 94.00 11.71 L 94.00 11.17 L 94.00 10.63 L 94.00 10.09 L 94.02 9.55 L 94.14 9.06 L 94.40 8.62 L 94.70 8.20 L 94.91 7.75 L 94.99 7.24 L 95.02 6.71 L 95.11 6.20 L 95.33 5.76 L 95.68 5.38 L 96.11 5.13 L 96.61 5.02 L 97.14 5.00 L 97.69 5.00 L 98.22 5.01 L 98.73 5.09 L 99.19 5.29 L 99.61 5.59 L 100.04 5.86 L 100.52 6.01 L 101.00 6.17 L 101.41 6.46 L 101.73 6.85 L 101.95 7.29 L 102.13 7.69 L 102.46 7.91 L 102.93 7.99 L 103.46 8.00 L 104.00 8.00 L 104.54 8.00 L 105.07 7.99 L 105.54 7.91 L 105.84 7.69 L 105.90 7.29 L 105.73 6.85 L 105.42 6.44 L 105.05 6.05 L 104.67 5.66 L 104.34 5.26 L 104.09 4.83 L 103.92 4.41 L 103.64 4.13 L 103.21 4.02 L 102.68 4.00 L 102.14 4.00 L 101.60 4.00 L 101.06 4.00 L 100.51 4.00 L 99.97 4.00 L 99.43 4.00 L 98.89 4.00 L 98.34 4.00 L 97.80 4.00 L 97.26 4.00 L 96.71 4.00 L 96.17 4.00 L 95.63 4.00 L 95.09 4.00 L 94.58 4.03 Z M 74.21 4.20 L 74.08 4.57 L 74.20 5.02 L 74.49 5.44 L 74.89 5.76 L 75.36 5.95 L 75.85 6.11 L 76.30 6.36 L 76.70 6.71 L 77.10 7.10 L 77.49 7.47 L 77.92 7.77 L 78.37 7.91 L 78.76 7.81 L 78.98 7.47 L 79.15 7.02 L 79.42 6.59 L 79.72 6.16 L 79.92 5.69 L 79.98 5.17 L 79.97 4.65 L 79.82 4.25 L 79.46 4.06 L 78.96 4.01 L 78.41 4.00 L 77.86 4.00 L 77.31 4.00 L 76.76 4.00 L 76.21 4.00 L 75.66 4.00 L 75.11 4.00 L 74.59 4.03 Z M 36.20 4.19 L 36.08 4.51 L 36.23 4.83 L 36.60 4.97 L 37.10 5.00 L 37.62 5.00 L 38.15 5.00 L 38.67 5.00 L 39.19 5.00 L 39.72 5.00 L 40.24 5.01 L 40.73 5.09 L 41.18 5.28 L 41.58 5.57 L 42.00 5.83 L 42.47 5.96 L 42.98 6.00 L 43.50 6.00 L 44.02 6.00 L 44.55 6.00 L 45.07 6.00 L 45.60 6.00 L 46.12 5.99 L 46.62 5.94 L 47.08 5.78 L 47.49 5.51 L 47.90 5.23 L 48.36 5.06 L 48.86 5.01 L 49.38 5.00 L 49.90 5.00 L 50.43 5.00 L 50.95 5.00 L 51.44 4.97 L 51.80 4.81 L 51.92 4.49 L 51.77 4.17 L 51.40 4.03 L 50.90 4.00 L 50.38 4.00 L 49.85 4.00 L 49.33 4.00 L 48.81 4.00 L 48.28 4.00 L 47.76 4.01 L 47.27 4.09 L 46.82 4.28 L 46.42 4.57 L 46.00 4.83 L 45.53 4.96 L 45.02 5.00 L 44.50 5.00 L 43.98 5.00 L 43.47 4.96 L 43.00 4.83 L 42.58 4.57 L 42.18 4.28 L 41.73 4.09 L 41.24 4.01 L 40.72 4.00 L 40.19 4.00 L 39.67 4.00 L 39.15 4.00 L 38.62 4.00 L 38.10 4.00 L 37.57 4.00 L 37.05 4.00 L 36.56 4.03 Z" fill="rgb(176,4,4)" fill-rule="evenodd"/>
  <path d="M 21.19 98.19 L 21.03 98.56 L 21.00 99.06 L 21.00 99.59 L 21.00 100.12 L 21.00 100.65 L 21.00 101.18 L 21.00 101.71 L 21.02 102.22 L 21.12 102.64 L 21.40 102.90 L 21.84 102.98 L 22.33 102.97 L 22.73 102.84 L 22.91 102.53 L 22.87 102.10 L 22.64 101.68 L 22.34 101.27 L 22.12 100.84 L 22.08 100.37 L 22.22 99.91 L 22.50 99.50 L 22.78 99.09 L 22.91 98.65 L 22.83 98.27 L 22.52 98.07 L 22.05 98.01 L 21.56 98.03 Z M 39.19 92.21 L 38.98 92.58 L 38.79 93.05 L 38.48 93.49 L 38.10 93.90 L 37.70 94.31 L 37.35 94.73 L 37.13 95.18 L 37.14 95.61 L 37.41 95.88 L 37.88 95.98 L 38.43 96.00 L 39.00 95.99 L 39.55 95.95 L 40.05 95.78 L 40.47 95.47 L 40.78 95.05 L 40.92 94.56 L 40.85 94.06 L 40.59 93.60 L 40.28 93.16 L 40.06 92.70 L 39.85 92.30 L 39.53 92.11 Z M 16.20 52.21 L 15.98 52.59 L 15.77 53.07 L 15.44 53.50 L 15.01 53.82 L 14.54 54.02 L 14.18 54.26 L 14.03 54.70 L 13.98 55.24 L 13.89 55.78 L 13.64 56.26 L 13.26 56.64 L 12.79 56.90 L 12.28 57.08 L 11.80 57.31 L 11.34 57.62 L 10.86 57.87 L 10.33 57.98 L 9.78 58.03 L 9.33 58.16 L 9.06 58.49 L 8.86 58.95 L 8.56 59.40 L 8.18 59.82 L 7.76 60.23 L 7.34 60.60 L 6.88 60.88 L 6.44 61.09 L 6.16 61.38 L 6.14 61.81 L 6.36 62.26 L 6.74 62.64 L 7.21 62.87 L 7.72 62.88 L 8.20 62.68 L 8.64 62.34 L 9.06 61.94 L 9.48 61.55 L 9.93 61.23 L 10.43 61.09 L 10.94 61.16 L 11.41 61.42 L 11.86 61.73 L 12.34 61.89 L 12.74 61.80 L 12.98 61.46 L 13.18 60.99 L 13.47 60.53 L 13.77 60.07 L 13.96 59.57 L 14.14 59.06 L 14.44 58.60 L 14.83 58.18 L 15.24 57.77 L 15.67 57.40 L 16.14 57.13 L 16.68 57.02 L 17.24 57.02 L 17.79 57.11 L 18.27 57.35 L 18.73 57.65 L 19.21 57.87 L 19.72 57.88 L 20.20 57.68 L 20.60 57.32 L 20.86 56.86 L 20.90 56.35 L 20.72 55.86 L 20.39 55.42 L 20.00 55.00 L 19.60 54.58 L 19.27 54.13 L 19.08 53.63 L 19.00 53.08 L 18.94 52.56 L 18.73 52.19 L 18.30 52.03 L 17.75 52.00 L 17.17 52.00 L 16.62 52.04 Z M 8.05 43.15 L 7.62 43.40 L 7.21 43.70 L 6.75 43.91 L 6.24 43.98 L 5.71 44.00 L 5.17 44.00 L 4.65 44.03 L 4.26 44.17 L 4.08 44.51 L 4.15 44.95 L 4.41 45.36 L 4.80 45.70 L 5.25 45.91 L 5.76 45.99 L 6.29 46.02 L 6.79 46.10 L 7.24 46.32 L 7.66 46.62 L 8.09 46.86 L 8.52 46.91 L 8.84 46.71 L 8.97 46.30 L 9.00 45.79 L 9.00 45.25 L 9.00 44.71 L 9.00 44.17 L 8.97 43.65 L 8.83 43.26 L 8.49 43.08 Z M 53.12 5.30 L 51.79 5.70 L 50.40 5.97 L 48.97 6.16 L 47.60 6.47 L 46.23 6.80 L 44.80 6.95 L 43.34 6.91 L 41.95 6.64 L 40.61 6.27 L 39.19 6.05 L 37.72 6.02 L 36.26 6.13 L 34.92 6.53 L 33.75 7.33 L 32.69 8.35 L 31.76 9.46 L 30.94 10.63 L 30.14 11.80 L 29.45 13.02 L 29.10 14.37 L 28.98 15.82 L 28.80 17.25 L 28.46 18.62 L 28.11 19.98 L 27.76 21.33 L 27.16 22.59 L 26.29 23.73 L 25.42 24.87 L 24.64 26.03 L 23.69 27.04 L 22.50 27.67 L 21.15 27.82 L 19.79 27.59 L 18.47 27.30 L 17.27 27.45 L 16.56 28.23 L 16.54 29.39 L 16.94 30.60 L 17.60 31.57 L 18.57 32.25 L 19.54 33.05 L 20.28 34.15 L 20.93 35.37 L 21.42 36.61 L 21.45 37.80 L 20.77 38.75 L 19.64 39.39 L 18.43 39.91 L 17.56 40.53 L 17.47 41.37 L 18.04 42.29 L 18.67 43.38 L 18.99 44.69 L 19.23 45.83 L 19.59 46.21 L 19.93 45.57 L 20.30 44.38 L 20.93 43.15 L 21.63 41.94 L 22.19 40.71 L 22.92 39.65 L 23.98 38.89 L 25.21 38.38 L 26.49 38.36 L 27.64 38.95 L 28.39 39.95 L 28.56 41.11 L 28.58 42.14 L 29.11 42.89 L 30.01 43.59 L 30.62 44.59 L 30.54 45.75 L 29.74 46.64 L 28.59 47.24 L 27.60 48.02 L 26.99 49.16 L 26.55 50.45 L 26.29 51.77 L 26.44 53.08 L 26.94 54.35 L 27.42 55.60 L 27.48 56.80 L 27.03 57.77 L 26.68 58.35 L 26.95 58.37 L 27.65 57.87 L 28.62 57.57 L 29.69 58.00 L 30.54 58.95 L 31.12 59.93 L 31.50 60.26 L 31.55 59.68 L 31.51 58.65 L 31.96 57.78 L 32.93 57.56 L 34.05 58.01 L 35.18 58.43 L 36.22 58.17 L 37.10 57.34 L 38.03 56.65 L 39.00 56.72 L 39.63 57.59 L 39.67 58.81 L 39.47 60.07 L 39.66 61.29 L 40.21 62.47 L 40.43 63.58 L 39.89 64.36 L 38.82 64.54 L 37.60 64.44 L 36.36 64.53 L 35.17 64.49 L 34.19 64.02 L 33.46 63.71 L 32.72 64.05 L 31.74 64.49 L 30.52 64.45 L 29.18 64.19 L 27.81 64.11 L 26.59 64.40 L 25.60 65.07 L 24.52 65.62 L 23.31 65.60 L 22.25 65.06 L 21.35 64.63 L 20.34 64.86 L 19.19 65.38 L 18.01 65.57 L 16.97 65.56 L 16.19 66.03 L 15.52 66.97 L 14.60 67.85 L 13.42 68.41 L 12.20 68.47 L 11.08 67.91 L 10.13 67.08 L 9.24 66.61 L 8.26 66.80 L 7.39 67.52 L 6.74 68.55 L 5.95 69.49 L 5.00 70.20 L 4.32 71.06 L 4.13 72.23 L 4.48 73.29 L 5.43 73.83 L 6.79 73.98 L 8.25 74.06 L 9.58 74.36 L 10.50 75.17 L 10.92 76.39 L 11.14 77.61 L 11.51 78.23 L 12.15 77.91 L 12.98 76.99 L 13.83 75.90 L 14.68 74.90 L 15.77 74.30 L 17.05 74.26 L 18.14 74.81 L 18.75 75.88 L 18.95 77.26 L 18.89 78.71 L 18.59 80.08 L 18.00 81.30 L 17.17 82.30 L 16.15 83.01 L 15.19 83.73 L 14.54 84.74 L 14.38 85.88 L 14.84 86.87 L 15.80 87.63 L 16.85 88.35 L 17.46 89.32 L 17.44 90.53 L 17.23 91.82 L 17.35 92.96 L 17.97 93.53 L 18.85 93.32 L 19.76 92.61 L 20.65 91.77 L 21.48 90.85 L 22.25 89.90 L 22.73 88.82 L 22.74 87.57 L 22.50 86.27 L 22.56 85.04 L 23.22 83.91 L 24.24 83.00 L 25.34 82.57 L 26.36 82.91 L 27.24 83.70 L 28.11 84.58 L 28.82 85.59 L 29.51 86.54 L 30.47 87.22 L 31.40 88.01 L 32.06 89.10 L 32.71 90.07 L 33.52 90.35 L 34.38 89.86 L 35.35 89.06 L 36.33 88.18 L 37.18 87.22 L 38.16 86.55 L 39.34 86.46 L 40.56 86.50 L 41.75 86.10 L 42.93 85.58 L 44.15 85.45 L 45.37 85.51 L 46.57 85.19 L 47.78 84.57 L 49.09 84.12 L 50.44 83.77 L 51.62 83.31 L 52.26 82.75 L 51.98 82.18 L 51.05 81.59 L 50.07 80.83 L 49.17 79.96 L 48.30 79.06 L 47.44 78.15 L 46.49 77.26 L 45.71 76.24 L 45.60 75.17 L 46.33 74.37 L 47.51 73.94 L 48.49 73.39 L 48.91 72.31 L 48.95 70.90 L 48.75 69.49 L 48.38 68.14 L 48.03 66.83 L 47.56 65.74 L 46.63 65.13 L 45.40 64.70 L 44.26 63.99 L 43.49 62.93 L 43.35 61.68 L 43.86 60.49 L 44.84 59.64 L 46.08 59.32 L 47.40 59.49 L 48.75 59.80 L 50.16 60.02 L 51.48 60.34 L 52.44 61.11 L 52.86 62.32 L 52.86 63.71 L 52.48 64.97 L 51.84 65.99 L 51.45 66.85 L 51.76 67.40 L 52.72 67.38 L 54.02 67.15 L 55.43 67.09 L 56.70 67.40 L 57.41 68.21 L 57.27 69.31 L 56.48 70.40 L 55.41 71.30 L 54.34 71.93 L 53.77 72.42 L 54.12 72.92 L 55.00 73.56 L 55.74 74.47 L 56.25 75.20 L 56.72 75.05 L 57.11 74.08 L 57.67 73.00 L 58.66 72.36 L 59.92 72.35 L 61.21 72.66 L 62.52 72.67 L 63.74 72.24 L 64.74 71.50 L 65.48 70.45 L 66.10 69.24 L 66.64 67.96 L 66.92 66.58 L 66.99 65.10 L 67.00 63.61 L 67.04 62.12 L 67.26 60.71 L 67.85 59.50 L 68.81 58.70 L 69.90 58.61 L 70.85 59.27 L 71.69 60.10 L 72.54 60.34 L 73.37 59.75 L 74.26 58.74 L 75.13 57.62 L 75.65 56.40 L 75.51 55.20 L 74.69 54.33 L 73.54 53.74 L 72.71 52.99 L 72.69 52.05 L 73.52 51.34 L 74.84 51.06 L 76.31 51.00 L 77.80 50.96 L 79.21 50.76 L 80.45 50.19 L 81.42 49.24 L 82.21 48.09 L 83.10 46.95 L 84.11 45.87 L 85.09 44.77 L 85.94 43.62 L 86.75 42.46 L 87.65 41.32 L 88.46 40.16 L 89.07 38.93 L 89.74 37.82 L 90.71 36.92 L 91.79 36.03 L 92.71 34.97 L 93.49 33.81 L 94.38 32.67 L 95.38 31.58 L 96.30 30.46 L 97.11 29.29 L 97.97 28.15 L 98.95 27.05 L 99.95 25.96 L 100.79 24.82 L 101.33 23.64 L 101.36 22.64 L 100.70 21.94 L 99.73 21.26 L 98.82 20.43 L 97.90 19.60 L 96.98 18.75 L 96.07 17.90 L 95.16 17.05 L 94.20 16.37 L 93.02 16.13 L 91.83 16.36 L 90.83 16.99 L 89.76 17.59 L 88.55 17.63 L 87.48 17.06 L 86.57 16.20 L 85.60 15.34 L 84.78 14.35 L 84.52 13.19 L 84.88 11.98 L 85.54 10.78 L 86.43 9.68 L 87.53 8.78 L 88.79 8.20 L 90.15 7.85 L 91.42 7.42 L 92.34 6.74 L 92.52 5.91 L 91.87 5.29 L 90.64 5.05 L 89.18 5.00 L 87.68 5.00 L 86.18 5.00 L 84.68 5.00 L 83.23 5.06 L 82.01 5.34 L 81.26 6.11 L 80.78 7.24 L 80.10 8.22 L 79.03 8.64 L 77.79 8.40 L 76.59 7.73 L 75.41 6.95 L 74.23 6.16 L 73.02 5.48 L 71.67 5.13 L 70.25 5.12 L 68.86 5.38 L 67.52 5.73 L 66.14 5.83 L 64.78 5.59 L 63.42 5.23 L 62.00 5.04 L 60.51 5.00 L 59.01 5.00 L 57.51 5.00 L 56.01 5.00 L 54.53 5.06 Z M 33.00 82.00 L 33.44 81.59 L 33.91 81.26 L 34.43 81.10 L 34.96 81.18 L 35.42 81.49 L 35.76 81.94 L 35.90 82.46 L 35.80 82.99 L 35.52 83.48 L 35.21 83.96 L 35.01 84.49 L 34.80 85.01 L 34.47 85.47 L 34.01 85.79 L 33.46 85.95 L 32.88 85.98 L 32.30 85.90 L 31.80 85.67 L 31.39 85.28 L 31.14 84.80 L 31.13 84.27 L 31.35 83.76 L 31.71 83.30 L 32.14 82.87 L 32.57 82.43 Z M 35.14 79.06 L 35.42 78.64 L 35.80 78.30 L 36.26 78.09 L 36.78 78.02 L 37.32 78.00 L 37.86 78.00 L 38.41 78.00 L 38.95 78.00 L 39.50 78.00 L 40.04 78.01 L 40.57 78.05 L 41.05 78.21 L 41.46 78.51 L 41.77 78.91 L 41.94 79.39 L 41.99 79.91 L 41.97 80.44 L 41.86 80.94 L 41.58 81.36 L 41.20 81.70 L 40.74 81.91 L 40.22 81.98 L 39.68 82.00 L 39.14 82.00 L 38.59 82.00 L 38.05 82.00 L 37.50 82.00 L 36.96 81.99 L 36.43 81.95 L 35.95 81.79 L 35.54 81.49 L 35.23 81.09 L 35.06 80.61 L 35.01 80.09 L 35.03 79.56 Z M 22.00 71.00 L 22.40 70.61 L 22.83 70.29 L 23.31 70.09 L 23.85 70.01 L 24.41 70.00 L 24.97 70.00 L 25.54 70.00 L 26.10 70.00 L 26.66 70.00 L 27.23 70.00 L 27.79 70.00 L 28.36 70.00 L 28.92 70.00 L 29.47 70.04 L 29.98 70.17 L 30.43 70.44 L 30.87 70.74 L 31.35 70.95 L 31.85 71.11 L 32.29 71.37 L 32.66 71.75 L 32.91 72.21 L 33.07 72.71 L 33.29 73.18 L 33.60 73.62 L 33.85 74.07 L 33.92 74.57 L 33.78 75.05 L 33.47 75.47 L 33.05 75.78 L 32.57 75.92 L 32.07 75.85 L 31.62 75.60 L 31.18 75.29 L 30.70 75.09 L 30.17 75.01 L 29.61 75.00 L 29.05 74.99 L 28.50 74.96 L 27.99 74.81 L 27.54 74.54 L 27.10 74.24 L 26.61 74.07 L 26.07 74.01 L 25.51 74.00 L 24.94 74.00 L 24.38 74.00 L 23.81 74.00 L 23.25 74.00 L 22.69 73.98 L 22.17 73.88 L 21.72 73.63 L 21.35 73.26 L 21.13 72.80 L 21.10 72.31 L 21.29 71.83 L 21.61 71.40 Z M 55.13 60.05 L 55.37 59.67 L 55.70 59.34 L 56.09 59.12 L 56.53 59.04 L 56.96 59.13 L 57.34 59.38 L 57.66 59.71 L 57.89 60.10 L 57.98 60.55 L 58.00 61.03 L 57.98 61.51 L 57.87 61.95 L 57.63 62.33 L 57.30 62.66 L 56.91 62.88 L 56.47 62.96 L 56.04 62.87 L 55.66 62.62 L 55.34 62.29 L 55.11 61.90 L 55.02 61.45 L 55.00 60.97 L 55.02 60.49 Z M 36.16 46.06 L 36.45 45.61 L 36.87 45.27 L 37.37 45.08 L 37.93 45.02 L 38.49 45.05 L 39.01 45.20 L 39.45 45.51 L 39.78 45.94 L 39.99 46.42 L 40.22 46.81 L 40.62 47.03 L 41.09 47.25 L 41.52 47.58 L 41.82 48.02 L 41.91 48.53 L 41.79 49.04 L 41.48 49.49 L 41.08 49.91 L 40.67 50.32 L 40.23 50.67 L 39.74 50.90 L 39.19 50.98 L 38.62 50.97 L 38.09 50.85 L 37.63 50.57 L 37.28 50.15 L 37.08 49.65 L 37.01 49.09 L 36.96 48.53 L 36.81 48.00 L 36.53 47.54 L 36.24 47.07 L 36.09 46.57 Z M 59.14 44.05 L 59.45 43.61 L 59.87 43.27 L 60.37 43.10 L 60.88 43.15 L 61.35 43.41 L 61.78 43.78 L 62.19 44.19 L 62.62 44.58 L 63.09 44.87 L 63.60 45.04 L 64.10 45.25 L 64.56 45.55 L 65.03 45.84 L 65.54 46.02 L 66.04 46.21 L 66.51 46.51 L 66.97 46.80 L 67.48 46.99 L 67.99 47.17 L 68.43 47.49 L 68.76 47.92 L 68.94 48.43 L 68.99 48.99 L 69.00 49.58 L 69.02 50.16 L 69.10 50.71 L 69.32 51.20 L 69.66 51.64 L 70.06 52.06 L 70.46 52.49 L 70.77 52.94 L 70.94 53.46 L 70.98 54.02 L 70.93 54.58 L 70.75 55.09 L 70.42 55.52 L 69.98 55.82 L 69.45 55.96 L 68.88 56.01 L 68.33 56.09 L 67.83 56.30 L 67.38 56.64 L 66.96 57.04 L 66.54 57.43 L 66.09 57.75 L 65.59 57.91 L 65.08 57.84 L 64.63 57.56 L 64.28 57.14 L 64.08 56.64 L 64.01 56.09 L 64.00 55.51 L 63.99 54.92 L 63.92 54.37 L 63.73 53.86 L 63.42 53.40 L 63.15 52.93 L 63.03 52.39 L 63.00 51.82 L 63.00 51.23 L 62.98 50.66 L 62.86 50.12 L 62.58 49.66 L 62.17 49.30 L 61.69 49.07 L 61.18 48.89 L 60.70 48.64 L 60.24 48.33 L 59.74 48.11 L 59.20 48.02 L 58.63 47.98 L 58.09 47.86 L 57.64 47.57 L 57.29 47.15 L 57.11 46.66 L 57.14 46.15 L 57.40 45.69 L 57.79 45.32 L 58.26 45.07 L 58.68 44.86 L 58.94 44.51 Z M 44.13 40.05 L 44.37 39.67 L 44.70 39.34 L 45.09 39.12 L 45.53 39.04 L 45.96 39.13 L 46.34 39.38 L 46.66 39.71 L 46.89 40.10 L 46.98 40.55 L 47.00 41.03 L 46.98 41.51 L 46.87 41.95 L 46.63 42.33 L 46.30 42.66 L 45.91 42.88 L 45.47 42.96 L 45.04 42.87 L 44.66 42.62 L 44.34 42.29 L 44.11 41.90 L 44.02 41.45 L 44.00 40.97 L 44.02 40.49 Z M 51.00 38.00 L 51.43 37.60 L 51.89 37.26 L 52.41 37.07 L 52.97 37.02 L 53.54 37.06 L 54.07 37.24 L 54.51 37.57 L 54.82 38.02 L 54.96 38.56 L 54.98 39.13 L 54.90 39.69 L 54.68 40.19 L 54.31 40.60 L 53.84 40.88 L 53.32 41.07 L 52.82 41.30 L 52.35 41.61 L 51.86 41.87 L 51.31 41.98 L 50.73 41.98 L 50.18 41.87 L 49.70 41.61 L 49.33 41.21 L 49.12 40.72 L 49.14 40.20 L 49.37 39.71 L 49.74 39.27 L 50.16 38.84 L 50.58 38.42 Z M 33.14 38.05 L 33.43 37.62 L 33.84 37.29 L 34.32 37.09 L 34.85 37.02 L 35.40 37.03 L 35.92 37.14 L 36.36 37.42 L 36.70 37.82 L 36.93 38.27 L 37.14 38.68 L 37.47 38.93 L 37.91 39.12 L 38.34 39.41 L 38.69 39.80 L 38.93 40.25 L 39.13 40.66 L 39.46 40.90 L 39.94 40.99 L 40.48 41.04 L 40.99 41.17 L 41.43 41.46 L 41.84 41.84 L 42.24 42.24 L 42.60 42.66 L 42.87 43.11 L 42.98 43.63 L 42.98 44.18 L 42.91 44.71 L 42.70 45.19 L 42.35 45.59 L 41.91 45.86 L 41.39 45.98 L 40.84 45.98 L 40.31 45.91 L 39.83 45.71 L 39.43 45.37 L 39.13 44.94 L 38.95 44.49 L 38.70 44.16 L 38.27 44.03 L 37.73 44.00 L 37.17 44.00 L 36.60 44.00 L 36.04 43.99 L 35.49 43.95 L 34.99 43.81 L 34.56 43.50 L 34.24 43.09 L 34.03 42.63 L 33.82 42.25 L 33.46 42.09 L 33.00 42.19 L 32.55 42.46 L 32.11 42.75 L 31.63 42.91 L 31.13 42.86 L 30.69 42.61 L 30.33 42.23 L 30.10 41.76 L 30.02 41.23 L 30.02 40.68 L 30.12 40.16 L 30.38 39.70 L 30.76 39.34 L 31.22 39.11 L 31.75 39.02 L 32.28 38.97 L 32.71 38.83 L 32.95 38.50 Z M 42.94 33.85 L 43.41 33.57 L 43.87 33.27 L 44.37 33.10 L 44.89 33.15 L 45.36 33.40 L 45.83 33.71 L 46.32 33.93 L 46.83 34.11 L 47.30 34.39 L 47.67 34.79 L 47.88 35.27 L 47.87 35.78 L 47.64 36.26 L 47.26 36.64 L 46.78 36.89 L 46.23 36.98 L 45.66 37.02 L 45.12 37.14 L 44.64 37.40 L 44.17 37.71 L 43.68 37.93 L 43.16 38.11 L 42.68 38.37 L 42.22 38.68 L 41.72 38.90 L 41.17 38.98 L 40.60 38.97 L 40.06 38.85 L 39.61 38.55 L 39.27 38.12 L 39.10 37.63 L 39.15 37.11 L 39.40 36.64 L 39.71 36.17 L 39.93 35.68 L 40.11 35.17 L 40.39 34.70 L 40.79 34.33 L 41.28 34.10 L 41.83 34.01 L 42.40 33.97 Z M 21.00 30.00 L 21.37 29.64 L 21.76 29.32 L 22.19 29.11 L 22.65 29.08 L 23.09 29.23 L 23.48 29.52 L 23.77 29.91 L 23.92 30.35 L 23.89 30.81 L 23.68 31.24 L 23.36 31.63 L 23.00 32.00 L 22.63 32.36 L 22.24 32.68 L 21.81 32.89 L 21.35 32.92 L 20.91 32.77 L 20.52 32.48 L 20.23 32.09 L 20.08 31.65 L 20.11 31.19 L 20.32 30.76 L 20.64 30.37 Z M 75.15 29.06 L 75.43 28.62 L 75.84 28.28 L 76.33 28.08 L 76.87 28.02 L 77.42 28.03 L 77.94 28.15 L 78.38 28.43 L 78.72 28.84 L 78.92 29.33 L 78.98 29.87 L 78.97 30.42 L 78.85 30.94 L 78.57 31.38 L 78.16 31.72 L 77.67 31.92 L 77.13 31.98 L 76.58 31.97 L 76.06 31.85 L 75.62 31.57 L 75.28 31.16 L 75.08 30.67 L 75.02 30.13 L 75.03 29.58 Z M 44.00 22.00 L 44.42 21.60 L 44.86 21.27 L 45.36 21.08 L 45.91 21.02 L 46.47 21.04 L 46.99 21.19 L 47.43 21.49 L 47.76 21.92 L 47.94 22.43 L 47.98 22.98 L 47.94 23.54 L 47.78 24.05 L 47.49 24.51 L 47.20 24.97 L 47.01 25.48 L 46.83 25.98 L 46.52 26.42 L 46.09 26.75 L 45.60 26.96 L 45.09 27.13 L 44.62 27.40 L 44.17 27.71 L 43.67 27.91 L 43.12 27.98 L 42.56 27.97 L 42.03 27.83 L 41.57 27.56 L 41.11 27.25 L 40.62 27.05 L 40.11 26.87 L 39.66 26.59 L 39.30 26.18 L 39.09 25.69 L 39.02 25.14 L 39.03 24.57 L 39.16 24.05 L 39.46 23.60 L 39.88 23.27 L 40.38 23.08 L 40.93 23.01 L 41.51 23.00 L 42.08 22.99 L 42.64 22.92 L 43.14 22.73 L 43.58 22.40 Z M 77.00 20.00 L 77.43 19.59 L 77.89 19.26 L 78.40 19.10 L 78.92 19.16 L 79.38 19.45 L 79.72 19.88 L 79.90 20.38 L 79.84 20.90 L 79.59 21.38 L 79.28 21.85 L 79.11 22.36 L 79.15 22.88 L 79.40 23.37 L 79.71 23.84 L 79.89 24.34 L 79.85 24.86 L 79.59 25.34 L 79.21 25.78 L 78.79 26.20 L 78.35 26.59 L 77.87 26.86 L 77.32 26.97 L 76.74 26.98 L 76.18 26.87 L 75.70 26.61 L 75.33 26.21 L 75.10 25.71 L 75.02 25.15 L 75.00 24.55 L 75.00 23.96 L 75.00 23.36 L 75.02 22.77 L 75.12 22.21 L 75.37 21.72 L 75.74 21.27 L 76.15 20.85 L 76.58 20.42 Z M 62.17 18.06 L 62.46 17.60 L 62.90 17.26 L 63.41 17.10 L 63.94 17.16 L 64.42 17.44 L 64.90 17.75 L 65.41 17.96 L 65.94 18.15 L 66.40 18.46 L 66.74 18.90 L 66.90 19.41 L 66.83 19.94 L 66.54 20.40 L 66.10 20.74 L 65.57 20.93 L 65.00 20.98 L 64.43 20.93 L 63.90 20.74 L 63.43 20.41 L 63.00 20.00 L 62.59 19.57 L 62.26 19.10 L 62.10 18.59 Z M 55.14 8.05 L 55.44 7.62 L 55.85 7.28 L 56.33 7.10 L 56.84 7.14 L 57.29 7.38 L 57.66 7.76 L 57.89 8.24 L 57.98 8.78 L 58.00 9.34 L 58.00 9.92 L 58.00 10.49 L 58.00 11.07 L 58.00 11.64 L 57.98 12.21 L 57.90 12.75 L 57.67 13.22 L 57.31 13.61 L 56.86 13.89 L 56.43 14.09 L 56.12 14.37 L 55.91 14.80 L 55.66 15.26 L 55.30 15.68 L 54.91 16.09 L 54.49 16.48 L 54.05 16.78 L 53.55 16.92 L 53.04 16.84 L 52.59 16.56 L 52.18 16.17 L 51.77 15.77 L 51.40 15.35 L 51.13 14.88 L 51.02 14.35 L 51.00 13.79 L 51.00 13.22 L 51.02 12.65 L 51.13 12.12 L 51.39 11.65 L 51.69 11.20 L 51.92 10.72 L 52.09 10.22 L 52.34 9.76 L 52.71 9.37 L 53.18 9.12 L 53.71 9.02 L 54.25 8.97 L 54.69 8.84 L 54.94 8.50 Z M 115.06 4.14 L 114.61 4.41 L 114.17 4.71 L 113.69 4.91 L 113.16 4.99 L 112.60 5.00 L 112.04 5.00 L 111.48 5.00 L 110.92 5.00 L 110.36 5.00 L 109.80 5.00 L 109.23 5.00 L 108.67 5.00 L 108.11 5.00 L 107.55 5.00 L 107.00 5.01 L 106.50 5.08 L 106.18 5.29 L 106.11 5.69 L 106.27 6.15 L 106.57 6.58 L 106.84 7.03 L 106.92 7.53 L 106.81 8.01 L 106.51 8.44 L 106.10 8.76 L 105.61 8.93 L 105.07 8.99 L 104.51 9.00 L 103.95 9.00 L 103.39 9.00 L 102.83 8.99 L 102.30 8.91 L 101.83 8.71 L 101.42 8.37 L 101.13 7.94 L 100.95 7.50 L 100.71 7.15 L 100.31 6.95 L 99.86 6.73 L 99.42 6.43 L 98.97 6.16 L 98.46 6.03 L 97.91 6.00 L 97.35 6.00 L 96.81 6.02 L 96.37 6.14 L 96.10 6.44 L 96.02 6.91 L 96.00 7.46 L 96.00 8.02 L 96.00 8.58 L 95.99 9.14 L 95.92 9.67 L 95.73 10.15 L 95.43 10.59 L 95.16 11.03 L 95.10 11.48 L 95.27 11.84 L 95.66 12.04 L 96.12 12.25 L 96.56 12.55 L 97.00 12.83 L 97.49 13.00 L 97.98 13.17 L 98.43 13.46 L 98.83 13.83 L 99.23 14.23 L 99.64 14.59 L 100.09 14.86 L 100.61 14.98 L 101.16 15.00 L 101.72 15.00 L 102.27 14.98 L 102.80 14.89 L 103.26 14.66 L 103.70 14.36 L 104.16 14.12 L 104.68 14.02 L 105.24 14.00 L 105.80 14.00 L 106.36 14.00 L 106.92 14.00 L 107.48 14.00 L 108.05 14.00 L 108.61 14.00 L 109.16 13.99 L 109.70 13.91 L 110.17 13.71 L 110.57 13.37 L 110.86 12.94 L 111.03 12.45 L 111.21 11.96 L 111.51 11.52 L 111.89 11.12 L 112.28 10.72 L 112.68 10.32 L 113.08 9.92 L 113.47 9.53 L 113.87 9.13 L 114.27 8.73 L 114.66 8.34 L 115.06 7.94 L 115.44 7.53 L 115.76 7.10 L 115.95 6.62 L 116.12 6.13 L 116.37 5.67 L 116.68 5.24 L 116.88 4.79 L 116.85 4.37 L 116.57 4.11 L 116.11 4.02 L 115.57 4.03 Z" fill="rgb(202,15,13)" fill-rule="evenodd"/>
  <path d="M 186.05 130.13 L 185.66 130.39 L 185.33 130.74 L 185.10 131.16 L 184.97 131.61 L 184.80 132.05 L 184.53 132.45 L 184.18 132.82 L 183.82 133.18 L 183.45 133.52 L 183.06 133.80 L 182.61 133.95 L 182.12 133.99 L 181.61 134.00 L 181.10 134.00 L 180.59 134.00 L 180.08 134.00 L 179.57 134.00 L 179.06 134.00 L 178.55 134.00 L 178.04 134.00 L 177.53 134.00 L 177.02 134.00 L 176.51 134.00 L 176.00 134.00 L 175.49 134.00 L 174.98 134.00 L 174.47 134.00 L 173.96 134.00 L 173.45 134.00 L 172.94 134.00 L 172.43 134.00 L 171.92 134.00 L 171.41 134.00 L 170.90 134.00 L 170.39 134.00 L 169.88 134.00 L 169.37 134.00 L 168.86 134.00 L 168.35 134.00 L 167.84 134.00 L 167.33 134.00 L 166.82 134.00 L 166.31 134.00 L 165.80 134.00 L 165.29 134.00 L 164.78 134.00 L 164.27 134.00 L 163.76 134.00 L 163.25 134.00 L 162.74 134.00 L 162.23 134.00 L 161.72 134.00 L 161.21 134.00 L 160.70 134.00 L 160.19 134.00 L 159.67 134.00 L 159.16 134.00 L 158.65 134.00 L 158.14 134.00 L 157.63 134.00 L 157.12 134.00 L 156.61 134.00 L 156.10 134.00 L 155.59 134.00 L 155.08 134.00 L 154.57 134.00 L 154.06 134.00 L 153.55 134.00 L 153.04 134.00 L 152.53 134.00 L 152.02 134.00 L 151.51 134.00 L 151.00 134.00 L 150.49 134.00 L 149.98 134.00 L 149.47 134.00 L 148.96 134.00 L 148.45 134.00 L 147.94 134.00 L 147.43 134.00 L 146.92 134.00 L 146.41 134.00 L 145.90 134.00 L 145.39 134.00 L 144.88 134.00 L 144.37 134.00 L 143.86 134.00 L 143.35 134.00 L 142.84 134.00 L 142.33 134.00 L 141.82 134.00 L 141.31 134.00 L 140.83 134.00 L 140.49 134.00 L 140.46 134.00 L 140.77 134.00 L 141.24 134.00 L 141.75 134.00 L 142.26 134.00 L 142.77 134.00 L 143.28 134.00 L 143.79 134.00 L 144.30 134.00 L 144.81 134.00 L 145.32 134.00 L 145.83 134.00 L 146.34 134.00 L 146.85 134.00 L 147.36 134.00 L 147.87 134.00 L 148.38 134.00 L 148.89 134.00 L 149.40 134.00 L 149.91 134.00 L 150.42 134.00 L 150.93 134.00 L 151.44 134.00 L 151.95 134.00 L 152.46 134.00 L 152.97 134.00 L 153.48 134.00 L 153.99 134.00 L 154.50 134.00 L 155.01 134.00 L 155.52 134.00 L 156.03 134.00 L 156.54 134.00 L 157.06 134.00 L 157.57 134.00 L 158.08 134.00 L 158.59 134.00 L 159.10 134.00 L 159.61 134.00 L 160.12 134.00 L 160.63 134.00 L 161.14 134.00 L 161.65 134.00 L 162.16 134.00 L 162.67 134.00 L 163.18 134.00 L 163.69 134.00 L 164.20 134.00 L 164.71 134.00 L 165.22 134.00 L 165.73 134.00 L 166.24 134.00 L 166.75 134.00 L 167.26 134.00 L 167.77 134.00 L 168.28 134.00 L 168.79 134.00 L 169.30 134.00 L 169.81 134.00 L 170.32 134.00 L 170.83 134.00 L 171.34 134.00 L 171.85 134.00 L 172.36 134.00 L 172.87 134.00 L 173.38 134.00 L 173.89 134.00 L 174.40 134.00 L 174.91 134.00 L 175.42 134.00 L 175.93 134.00 L 176.44 134.00 L 176.95 134.00 L 177.46 134.00 L 177.97 134.00 L 178.48 134.00 L 178.99 134.00 L 179.50 134.00 L 180.01 134.00 L 180.52 134.00 L 181.03 134.00 L 181.54 134.00 L 182.05 134.00 L 182.56 134.00 L 183.07 134.00 L 183.58 134.00 L 184.09 134.00 L 184.60 134.00 L 185.11 134.00 L 185.62 134.00 L 186.13 134.00 L 186.64 134.00 L 187.15 134.00 L 187.66 134.00 L 188.17 134.00 L 188.68 134.00 L 189.19 134.00 L 189.70 134.00 L 190.21 134.00 L 190.72 134.00 L 191.23 134.00 L 191.74 134.00 L 192.25 134.00 L 192.76 134.00 L 193.27 134.00 L 193.78 134.00 L 194.30 134.00 L 194.81 134.00 L 195.32 134.00 L 195.83 134.00 L 196.34 134.00 L 196.85 134.00 L 197.36 134.00 L 197.87 134.00 L 198.38 134.00 L 198.89 134.00 L 199.40 134.00 L 199.91 134.00 L 200.42 134.00 L 200.93 134.00 L 201.44 134.00 L 201.95 134.00 L 202.46 134.00 L 202.97 134.00 L 203.48 134.00 L 203.99 134.00 L 204.50 134.00 L 205.01 134.00 L 205.52 134.00 L 206.03 134.00 L 206.54 134.00 L 207.05 134.00 L 207.56 134.00 L 208.07 134.00 L 208.58 134.00 L 209.09 134.00 L 209.60 134.00 L 210.09 134.00 L 210.48 134.00 L 210.58 134.00 L 210.31 134.00 L 209.85 134.00 L 209.34 134.00 L 208.83 134.00 L 208.32 134.00 L 207.81 134.00 L 207.30 134.00 L 206.79 134.00 L 206.28 134.00 L 205.77 134.00 L 205.26 134.00 L 204.75 134.00 L 204.24 134.00 L 203.73 134.00 L 203.22 134.00 L 202.71 134.00 L 202.20 134.00 L 201.69 134.00 L 201.18 134.00 L 200.67 134.00 L 200.16 134.00 L 199.65 134.00 L 199.14 134.00 L 198.63 134.00 L 198.12 134.00 L 197.61 134.00 L 197.10 134.00 L 196.59 134.00 L 196.08 134.00 L 195.57 134.00 L 195.06 134.00 L 194.55 134.00 L 194.04 134.00 L 193.53 134.00 L 193.02 134.00 L 192.51 134.00 L 192.00 134.00 L 191.50 133.97 L 191.03 133.86 L 190.63 133.60 L 190.26 133.26 L 189.90 132.90 L 189.54 132.54 L 189.18 132.18 L 188.82 131.82 L 188.46 131.46 L 188.10 131.10 L 187.74 130.74 L 187.37 130.40 L 186.96 130.14 L 186.51 130.05 Z M 82.20 128.20 L 82.03 128.58 L 82.01 129.08 L 82.06 129.60 L 82.22 130.07 L 82.50 130.50 L 82.78 130.93 L 82.94 131.40 L 82.99 131.92 L 82.98 132.45 L 82.86 132.94 L 82.59 133.36 L 82.20 133.70 L 81.75 133.91 L 81.24 133.98 L 80.71 134.00 L 80.17 134.00 L 79.68 134.00 L 79.43 134.00 L 79.58 134.00 L 80.01 134.00 L 80.54 134.00 L 81.08 133.99 L 81.60 133.94 L 82.07 133.78 L 82.50 133.50 L 82.93 133.22 L 83.40 133.06 L 83.92 133.01 L 84.46 133.00 L 85.00 133.01 L 85.52 133.04 L 86.01 133.18 L 86.44 133.45 L 86.86 133.74 L 87.32 133.92 L 87.84 133.99 L 88.37 133.98 L 88.87 133.88 L 89.31 133.64 L 89.73 133.34 L 90.17 133.11 L 90.68 133.02 L 91.21 133.00 L 91.75 133.00 L 92.27 132.98 L 92.68 132.85 L 92.89 132.57 L 92.82 132.24 L 92.49 132.03 L 92.05 131.87 L 91.64 131.59 L 91.30 131.21 L 91.08 130.77 L 90.90 130.37 L 90.62 130.13 L 90.29 130.16 L 90.06 130.45 L 89.89 130.88 L 89.63 131.30 L 89.27 131.65 L 88.83 131.89 L 88.32 131.98 L 87.80 131.98 L 87.28 131.91 L 86.83 131.72 L 86.44 131.39 L 86.16 130.97 L 86.03 130.48 L 86.00 129.95 L 86.00 129.42 L 85.99 128.89 L 85.90 128.43 L 85.66 128.13 L 85.23 128.02 L 84.71 128.00 L 84.17 128.00 L 83.62 128.00 L 83.09 128.00 L 82.58 128.03 Z" fill="rgb(171,168,164)" fill-rule="evenodd"/>
  <path d="M 0.18 45.18 L 0.03 45.53 L 0.00 46.00 L 0.00 46.50 L 0.00 47.00 L 0.00 47.50 L 0.00 48.00 L 0.03 48.47 L 0.18 48.82 L 0.53 48.97 L 1.00 49.00 L 1.47 48.97 L 1.82 48.82 L 1.97 48.47 L 2.00 48.00 L 2.00 47.50 L 2.00 47.00 L 2.00 46.50 L 2.00 46.00 L 1.97 45.53 L 1.82 45.18 L 1.47 45.03 L 1.00 45.00 L 0.53 45.03 Z" fill="rgb(203,174,171)" fill-rule="evenodd"/>
  <path d="M 0.20 52.20 L 0.03 52.57 L 0.00 53.08 L 0.00 53.62 L 0.00 54.15 L 0.00 54.69 L 0.00 55.23 L 0.00 55.77 L 0.00 56.31 L 0.00 56.85 L 0.00 57.39 L 0.00 57.93 L 0.00 58.46 L 0.00 59.00 L 0.00 59.54 L 0.00 60.08 L 0.00 60.62 L 0.00 61.16 L 0.00 61.70 L 0.00 62.24 L 0.00 62.77 L 0.00 63.31 L 0.00 63.85 L 0.00 64.39 L 0.00 64.93 L 0.00 65.47 L 0.00 66.01 L 0.00 66.54 L 0.00 67.08 L 0.00 67.62 L 0.00 68.16 L 0.00 68.70 L 0.00 69.24 L 0.00 69.78 L 0.00 70.32 L 0.00 70.85 L 0.00 71.39 L 0.00 71.93 L 0.00 72.47 L 0.00 73.01 L 0.00 73.55 L 0.00 74.09 L 0.00 74.63 L 0.00 75.16 L 0.00 75.70 L 0.00 76.24 L 0.00 76.78 L 0.00 77.32 L 0.00 77.86 L 0.00 78.40 L 0.00 78.94 L 0.00 79.47 L 0.00 80.01 L 0.00 80.55 L 0.00 81.09 L 0.00 81.63 L 0.00 82.17 L 0.00 82.71 L 0.00 83.24 L 0.00 83.78 L 0.00 84.32 L 0.00 84.86 L 0.00 85.40 L 0.00 85.94 L 0.00 86.48 L 0.00 87.02 L 0.00 87.55 L 0.00 88.09 L 0.00 88.63 L 0.00 89.17 L 0.00 89.71 L 0.00 90.25 L 0.00 90.79 L 0.00 91.33 L 0.00 91.86 L 0.00 92.40 L 0.00 92.94 L 0.00 93.48 L 0.00 94.02 L 0.00 94.56 L 0.00 95.10 L 0.00 95.63 L 0.00 96.17 L 0.00 96.71 L 0.00 97.25 L 0.00 97.79 L 0.00 98.33 L 0.00 98.87 L 0.00 99.41 L 0.00 99.94 L 0.00 100.48 L 0.00 101.02 L 0.00 101.56 L 0.00 102.10 L 0.00 102.64 L 0.00 103.18 L 0.00 103.72 L 0.00 104.25 L 0.00 104.79 L 0.00 105.33 L 0.00 105.87 L 0.00 106.41 L 0.00 106.95 L 0.00 107.49 L 0.00 108.03 L 0.00 108.56 L 0.00 109.10 L 0.00 109.64 L 0.00 110.18 L 0.00 110.72 L 0.00 111.26 L 0.00 111.80 L 0.00 112.33 L 0.00 112.87 L 0.00 113.41 L 0.00 113.95 L 0.00 114.49 L 0.00 115.03 L 0.00 115.57 L 0.00 116.11 L 0.00 116.64 L 0.00 117.18 L 0.00 117.72 L 0.00 118.26 L 0.00 118.80 L 0.00 119.34 L 0.00 119.88 L 0.00 120.42 L 0.00 120.95 L 0.00 121.49 L 0.00 122.03 L 0.00 122.57 L 0.00 123.11 L 0.00 123.65 L 0.00 124.19 L 0.00 124.72 L 0.00 125.26 L 0.00 125.80 L 0.00 126.34 L 0.00 126.88 L 0.00 127.42 L 0.00 127.96 L 0.00 128.50 L 0.00 129.03 L 0.00 129.57 L 0.00 130.11 L 0.00 130.65 L 0.00 131.19 L 0.00 131.73 L 0.02 132.24 L 0.14 132.67 L 0.44 132.91 L 0.90 132.98 L 1.41 132.98 L 1.91 132.87 L 2.33 132.61 L 2.67 132.24 L 2.90 131.79 L 2.98 131.29 L 2.98 130.77 L 2.91 130.26 L 2.71 129.80 L 2.41 129.39 L 2.15 128.96 L 2.03 128.47 L 2.00 127.94 L 2.00 127.40 L 2.00 126.87 L 2.00 126.33 L 2.00 125.79 L 2.00 125.25 L 2.00 124.71 L 2.00 124.17 L 2.00 123.63 L 2.00 123.09 L 2.00 122.56 L 2.00 122.02 L 2.00 121.48 L 2.01 120.94 L 2.05 120.42 L 2.21 119.95 L 2.48 119.52 L 2.76 119.10 L 2.93 118.63 L 2.99 118.12 L 3.00 117.58 L 3.00 117.04 L 3.00 116.51 L 3.00 115.97 L 3.00 115.43 L 2.99 114.89 L 2.94 114.38 L 2.77 113.91 L 2.49 113.49 L 2.21 113.06 L 2.06 112.59 L 2.01 112.07 L 2.00 111.53 L 2.00 110.99 L 2.00 110.46 L 2.00 109.92 L 2.00 109.38 L 2.01 108.84 L 2.07 108.33 L 2.26 107.87 L 2.54 107.45 L 2.81 107.02 L 2.96 106.54 L 2.99 106.02 L 3.00 105.48 L 3.00 104.94 L 3.00 104.40 L 3.00 103.87 L 3.00 103.33 L 3.01 102.79 L 3.09 102.29 L 3.28 101.83 L 3.60 101.42 L 3.97 101.03 L 4.34 100.65 L 4.67 100.25 L 4.88 99.81 L 4.91 99.33 L 4.75 98.87 L 4.46 98.45 L 4.19 98.03 L 4.05 97.55 L 4.00 97.03 L 3.95 96.54 L 3.77 96.17 L 3.40 95.98 L 2.96 95.80 L 2.55 95.50 L 2.24 95.11 L 2.07 94.64 L 2.01 94.13 L 2.00 93.59 L 2.00 93.06 L 2.00 92.52 L 2.00 91.98 L 2.00 91.44 L 2.00 90.90 L 2.00 90.36 L 2.01 89.83 L 2.08 89.32 L 2.26 88.85 L 2.55 88.44 L 2.82 88.01 L 2.96 87.53 L 2.99 87.00 L 3.00 86.47 L 3.00 85.93 L 3.00 85.39 L 2.99 84.86 L 2.93 84.34 L 2.75 83.88 L 2.46 83.46 L 2.19 83.03 L 2.05 82.55 L 2.01 82.03 L 2.00 81.49 L 2.00 80.96 L 2.00 80.42 L 2.00 79.88 L 2.00 79.34 L 2.00 78.80 L 2.00 78.26 L 2.00 77.72 L 2.00 77.18 L 2.00 76.65 L 2.00 76.11 L 2.00 75.57 L 2.00 75.03 L 2.00 74.49 L 2.00 73.95 L 2.00 73.41 L 2.00 72.87 L 2.00 72.34 L 2.00 71.80 L 2.00 71.26 L 2.00 70.72 L 2.00 70.18 L 2.00 69.64 L 2.00 69.10 L 2.00 68.56 L 2.00 68.03 L 2.00 67.49 L 2.01 66.95 L 2.05 66.43 L 2.20 65.95 L 2.48 65.53 L 2.76 65.11 L 2.91 64.65 L 2.88 64.17 L 2.66 63.73 L 2.36 63.32 L 2.12 62.88 L 2.02 62.38 L 2.00 61.85 L 2.00 61.31 L 2.00 60.77 L 2.00 60.24 L 2.00 59.70 L 2.00 59.16 L 2.00 58.62 L 2.00 58.08 L 2.00 57.54 L 2.00 57.00 L 2.00 56.46 L 2.00 55.93 L 2.00 55.39 L 2.00 54.85 L 2.00 54.31 L 2.00 53.77 L 2.00 53.23 L 1.97 52.72 L 1.85 52.30 L 1.54 52.08 L 1.07 52.01 L 0.57 52.03 Z M 120.37 3.47 L 118.52 5.26 L 116.79 7.17 L 115.27 9.43 L 113.20 11.22 L 111.78 13.45 L 110.40 15.87 L 108.71 18.09 L 106.69 19.88 L 105.54 22.29 L 104.13 24.70 L 102.06 26.67 L 100.25 28.55 L 98.90 30.91 L 96.86 32.70 L 95.58 35.01 L 94.04 37.34 L 92.12 39.18 L 90.31 41.25 L 89.05 43.69 L 87.02 45.48 L 85.69 47.75 L 83.88 49.82 L 82.16 51.74 L 80.87 53.95 L 79.54 56.06 L 77.81 58.06 L 76.45 60.21 L 74.52 62.26 L 72.50 64.05 L 71.17 66.27 L 69.39 68.16 L 68.14 70.56 L 66.28 72.42 L 65.09 74.75 L 63.72 77.17 L 61.77 79.09 L 60.40 81.23 L 58.37 83.07 L 56.44 85.02 L 55.13 87.31 L 53.10 89.09 L 51.75 91.46 L 50.06 93.39 L 48.69 95.60 L 46.73 97.17 L 45.03 98.97 L 43.63 101.08 L 42.05 102.86 L 42.28 104.06 L 43.63 105.79 L 42.49 107.66 L 39.71 108.06 L 37.31 109.10 L 35.46 110.98 L 33.30 112.81 L 31.93 115.23 L 31.13 117.90 L 30.46 120.63 L 29.97 123.42 L 29.53 125.95 L 30.33 127.91 L 29.57 129.63 L 26.94 129.63 L 24.31 128.79 L 21.94 128.70 L 20.10 130.43 L 18.25 132.22 L 18.22 133.66 L 20.44 133.26 L 23.33 133.00 L 26.33 133.00 L 28.99 132.65 L 30.22 130.76 L 31.95 129.37 L 33.48 130.58 L 33.75 132.54 L 36.12 132.99 L 39.12 133.00 L 42.12 133.01 L 44.97 133.30 L 47.52 133.46 L 50.14 133.38 L 52.68 133.40 L 55.46 133.08 L 58.19 133.70 L 61.07 134.00 L 64.06 133.95 L 66.83 133.40 L 69.66 133.05 L 72.40 133.42 L 74.37 132.78 L 76.45 131.56 L 78.83 132.45 L 81.11 132.58 L 81.25 130.65 L 81.06 127.82 L 82.11 125.58 L 84.48 125.79 L 86.71 127.64 L 89.18 128.91 L 91.58 129.96 L 93.59 131.44 L 96.26 132.17 L 98.98 132.84 L 101.92 133.00 L 104.92 133.00 L 107.93 133.00 L 110.93 133.00 L 113.93 133.00 L 116.94 133.00 L 119.94 133.00 L 122.94 133.00 L 125.95 133.00 L 128.95 133.00 L 131.95 133.00 L 134.95 133.00 L 137.96 133.00 L 140.96 133.00 L 143.96 133.00 L 146.97 133.00 L 149.97 133.00 L 152.97 133.00 L 155.98 133.00 L 158.98 133.00 L 161.98 133.00 L 164.99 133.00 L 167.99 133.00 L 170.99 133.00 L 174.00 133.00 L 177.00 133.00 L 180.00 132.99 L 182.76 132.58 L 184.26 130.55 L 186.18 129.35 L 188.61 130.40 L 190.97 131.95 L 193.56 132.93 L 196.54 133.00 L 199.54 133.00 L 202.55 133.00 L 205.55 133.00 L 208.55 133.00 L 211.46 133.24 L 214.20 133.88 L 217.15 133.99 L 220.01 133.66 L 222.76 133.06 L 225.63 133.27 L 228.37 133.91 L 231.34 134.00 L 234.25 133.80 L 236.86 133.43 L 239.36 133.50 L 242.12 133.04 L 245.11 133.00 L 248.11 133.00 L 251.11 132.99 L 253.94 132.62 L 255.97 131.13 L 257.49 129.02 L 259.20 127.79 L 258.28 127.54 L 256.19 127.02 L 254.81 127.20 L 253.26 129.15 L 251.09 129.40 L 250.41 127.28 L 252.02 125.01 L 254.33 123.35 L 257.19 123.00 L 260.19 123.00 L 263.12 122.82 L 265.81 122.05 L 268.24 120.69 L 270.45 118.76 L 272.47 116.97 L 273.69 114.56 L 275.16 112.20 L 276.41 110.28 L 276.33 107.98 L 277.65 106.58 L 279.51 107.37 L 281.59 106.36 L 283.51 104.20 L 285.29 102.15 L 287.35 100.33 L 289.03 98.05 L 291.08 95.90 L 292.92 93.66 L 294.66 91.38 L 296.70 89.22 L 298.12 86.83 L 299.76 85.03 L 300.93 83.09 L 301.00 80.16 L 301.00 77.15 L 301.00 74.15 L 301.00 71.15 L 301.00 68.14 L 301.00 65.14 L 301.00 62.14 L 301.00 59.13 L 301.00 56.13 L 301.00 53.13 L 301.00 50.12 L 301.00 47.12 L 301.00 44.12 L 301.00 41.11 L 301.00 38.11 L 301.00 35.11 L 301.00 32.11 L 300.85 29.16 L 299.74 26.62 L 298.12 24.29 L 296.03 22.33 L 293.89 20.59 L 292.65 18.14 L 290.75 16.13 L 288.69 14.32 L 287.46 11.85 L 285.61 9.62 L 283.65 7.47 L 281.68 5.90 L 279.56 4.31 L 277.44 3.09 L 274.51 3.00 L 271.51 3.00 L 268.51 3.00 L 265.50 3.00 L 262.50 3.00 L 259.50 3.00 L 256.49 3.00 L 253.50 3.02 L 250.67 3.44 L 248.02 3.63 L 245.29 3.05 L 242.30 3.00 L 239.30 3.00 L 236.31 3.03 L 233.52 3.45 L 230.97 3.30 L 228.11 3.01 L 225.11 3.00 L 222.11 3.00 L 219.11 3.00 L 216.10 3.00 L 213.10 3.00 L 210.10 3.00 L 207.09 3.00 L 204.09 3.00 L 201.09 3.00 L 198.08 3.00 L 195.08 3.00 L 192.08 3.00 L 189.07 3.00 L 186.07 3.00 L 183.07 3.00 L 180.06 3.00 L 177.06 3.00 L 174.06 3.00 L 171.06 3.00 L 168.05 3.00 L 165.05 3.00 L 162.05 3.00 L 159.04 3.00 L 156.04 3.00 L 153.04 3.00 L 150.03 3.00 L 147.03 3.00 L 144.03 3.00 L 141.02 3.00 L 138.02 3.00 L 135.02 3.00 L 132.01 3.00 L 129.01 3.00 L 126.01 3.00 L 123.01 3.01 Z M 162.17 113.06 L 162.46 112.60 L 162.90 112.26 L 163.41 112.10 L 163.94 112.16 L 164.42 112.44 L 164.90 112.75 L 165.41 112.96 L 165.94 113.15 L 166.40 113.46 L 166.74 113.90 L 166.90 114.41 L 166.83 114.94 L 166.54 115.40 L 166.10 115.74 L 165.59 115.90 L 165.06 115.84 L 164.58 115.56 L 164.10 115.25 L 163.59 115.04 L 163.06 114.85 L 162.60 114.54 L 162.26 114.10 L 162.10 113.59 Z M 102.19 0.19 L 102.03 0.55 L 102.01 1.04 L 102.04 1.54 L 102.17 2.01 L 102.45 2.41 L 102.82 2.72 L 103.26 2.90 L 103.72 2.91 L 104.16 2.73 L 104.56 2.45 L 104.97 2.19 L 105.43 2.05 L 105.93 2.01 L 106.44 2.02 L 106.92 2.13 L 107.34 2.37 L 107.73 2.67 L 108.16 2.89 L 108.65 2.98 L 109.16 3.00 L 109.68 3.00 L 110.20 3.00 L 110.72 3.00 L 111.24 3.00 L 111.76 3.00 L 112.28 3.00 L 112.80 3.00 L 113.32 3.00 L 113.84 3.00 L 114.33 2.97 L 114.73 2.85 L 114.93 2.53 L 114.99 2.07 L 115.00 1.56 L 115.00 1.04 L 114.97 0.55 L 114.81 0.19 L 114.45 0.03 L 113.96 0.00 L 113.44 0.00 L 112.92 0.00 L 112.40 0.00 L 111.88 0.00 L 111.36 0.00 L 110.84 0.00 L 110.32 0.00 L 109.80 0.00 L 109.28 0.00 L 108.76 0.00 L 108.24 0.00 L 107.72 0.00 L 107.20 0.00 L 106.68 0.00 L 106.16 0.00 L 105.64 0.00 L 105.12 0.00 L 104.60 0.00 L 104.08 0.00 L 103.56 0.00 L 103.04 0.00 L 102.55 0.03 Z M 70.18 0.18 L 70.03 0.54 L 70.01 1.01 L 70.04 1.48 L 70.21 1.83 L 70.57 1.97 L 71.05 2.00 L 71.56 2.00 L 72.07 2.00 L 72.57 2.00 L 73.08 2.01 L 73.57 2.04 L 74.03 2.18 L 74.43 2.44 L 74.82 2.72 L 75.25 2.91 L 75.72 2.99 L 76.23 3.00 L 76.73 3.00 L 77.24 3.00 L 77.75 3.00 L 78.26 3.00 L 78.77 3.00 L 79.26 2.98 L 79.66 2.88 L 79.90 2.61 L 79.98 2.18 L 80.00 1.69 L 80.00 1.18 L 79.98 0.70 L 79.86 0.30 L 79.58 0.08 L 79.14 0.01 L 78.64 0.00 L 78.13 0.00 L 77.62 0.00 L 77.12 0.00 L 76.61 0.00 L 76.10 0.00 L 75.59 0.00 L 75.08 0.00 L 74.57 0.00 L 74.07 0.00 L 73.56 0.00 L 73.05 0.00 L 72.54 0.00 L 72.03 0.00 L 71.52 0.00 L 71.02 0.00 L 70.54 0.03 Z" fill="rgb(228,225,221)" fill-rule="evenodd"/>
</svg>