<svg xmlns="http://www.w3.org/2000/svg" width="275" height="134" viewBox="0 0 275 134" role="img" aria-label="21_plates_21">
  <title>21_plates_21</title>
  <path d="M 34.14 3.33 L 31.64 4.48 L 29.70 6.14 L 27.75 8.25 L 25.63 10.37 L 23.50 12.50 L 21.42 14.64 L 19.75 16.95 L 17.84 19.16 L 15.72 21.28 L 13.60 23.40 L 11.47 25.53 L 9.35 27.65 L 7.23 29.77 L 5.11 31.90 L 3.38 34.19 L 3.00 37.03 L 3.00 40.03 L 3.00 43.04 L 3.00 46.04 L 3.00 49.04 L 3.00 52.05 L 3.00 55.05 L 3.15 57.99 L 3.54 60.62 L 3.10 63.27 L 3.00 66.23 L 3.00 69.23 L 3.00 72.24 L 3.00 75.24 L 3.00 78.24 L 3.23 81.15 L 4.71 83.38 L 6.98 85.06 L 9.13 87.13 L 11.25 89.25 L 13.25 91.39 L 15.14 93.17 L 17.44 94.36 L 18.87 93.52 L 19.43 90.88 L 20.86 88.78 L 22.61 89.32 L 23.06 92.00 L 24.18 93.97 L 25.43 95.67 L 24.50 97.96 L 24.79 99.29 L 26.55 98.36 L 28.59 99.25 L 29.45 101.65 L 30.73 103.75 L 31.30 106.48 L 33.01 108.50 L 35.74 109.09 L 38.37 109.50 L 40.76 108.65 L 43.15 108.95 L 45.08 110.72 L 46.87 112.95 L 47.93 115.51 L 48.23 118.39 L 48.92 121.11 L 49.92 123.70 L 51.89 125.88 L 54.10 127.79 L 56.41 129.47 L 58.57 131.51 L 61.03 132.82 L 63.95 133.00 L 66.96 133.00 L 69.96 133.00 L 72.96 133.00 L 75.97 133.00 L 78.97 133.00 L 81.97 133.00 L 84.97 133.00 L 87.98 133.00 L 90.98 133.00 L 93.98 133.00 L 96.98 133.00 L 99.99 133.00 L 102.99 133.00 L 105.99 133.00 L 109.00 133.00 L 112.00 133.00 L 115.00 133.00 L 118.00 133.00 L 121.01 133.00 L 124.01 133.00 L 127.01 133.00 L 130.02 133.00 L 133.02 133.00 L 136.02 133.00 L 139.02 133.00 L 142.03 133.00 L 145.03 133.00 L 148.03 133.00 L 151.03 133.00 L 154.04 133.00 L 157.04 133.00 L 160.04 133.00 L 163.05 133.00 L 166.05 133.00 L 169.05 133.00 L 172.05 133.00 L 175.06 133.00 L 178.06 133.00 L 181.06 133.00 L 184.06 133.00 L 187.07 133.00 L 190.07 133.00 L 193.07 133.00 L 196.08 133.00 L 199.08 133.00 L 202.08 133.00 L 205.08 133.00 L 208.09 133.00 L 211.09 133.00 L 214.09 133.00 L 217.10 133.00 L 220.10 133.00 L 223.10 133.00 L 226.10 133.00 L 229.11 133.00 L 232.11 133.00 L 235.11 133.00 L 238.11 133.00 L 241.12 133.00 L 244.12 133.00 L 247.12 133.00 L 250.13 133.00 L 253.13 133.00 L 256.13 133.00 L 259.13 133.00 L 262.14 133.00 L 265.14 133.00 L 268.14 133.00 L 271.12 132.95 L 273.42 131.91 L 273.98 129.26 L 274.00 126.26 L 274.00 123.26 L 274.00 120.25 L 274.00 117.25 L 274.00 114.25 L 274.00 111.25 L 274.00 108.24 L 274.00 105.24 L 274.00 102.24 L 274.00 99.24 L 274.00 96.23 L 274.00 93.23 L 274.00 90.23 L 274.00 87.22 L 274.00 84.22 L 274.00 81.22 L 274.00 78.22 L 274.00 75.21 L 274.00 72.21 L 274.00 69.21 L 274.00 66.20 L 274.00 63.20 L 274.00 60.20 L 274.00 57.20 L 274.00 54.19 L 274.00 51.19 L 274.00 48.19 L 274.00 45.19 L 274.00 42.18 L 274.00 39.18 L 274.00 36.18 L 273.65 33.32 L 271.99 31.01 L 269.84 28.96 L 267.72 27.22 L 265.98 25.07 L 263.92 22.92 L 261.90 20.75 L 260.23 18.44 L 258.26 16.26 L 256.14 14.14 L 254.01 12.01 L 251.89 9.89 L 249.88 7.72 L 248.39 5.39 L 246.42 4.08 L 243.49 4.00 L 240.49 4.00 L 237.48 4.00 L 234.48 4.00 L 231.48 4.00 L 228.47 4.00 L 225.47 4.00 L 222.47 4.00 L 219.56 3.76 L 216.83 3.12 L 213.87 3.00 L 210.87 3.00 L 207.87 3.00 L 204.87 3.00 L 201.93 3.17 L 199.20 3.81 L 196.28 3.96 L 193.48 3.49 L 190.69 3.09 L 187.96 3.67 L 185.09 3.99 L 182.22 3.72 L 179.66 3.50 L 176.89 3.96 L 173.91 4.00 L 170.90 4.00 L 167.90 4.00 L 164.90 4.00 L 161.90 4.00 L 158.96 3.84 L 156.33 3.46 L 153.68 3.91 L 150.73 3.95 L 148.04 3.39 L 146.12 4.08 L 144.37 5.69 L 141.56 5.93 L 138.95 4.98 L 136.33 4.06 L 133.35 4.00 L 130.35 4.00 L 127.34 4.00 L 124.34 4.00 L 121.34 4.00 L 118.34 4.00 L 115.33 4.00 L 112.37 3.91 L 109.63 3.27 L 106.74 3.00 L 103.74 3.00 L 100.74 3.00 L 97.81 3.19 L 95.07 3.83 L 92.14 3.99 L 89.26 3.71 L 86.52 3.07 L 83.55 3.00 L 80.54 3.00 L 77.54 3.00 L 74.54 3.00 L 71.53 3.00 L 68.53 3.00 L 65.53 3.00 L 62.53 3.00 L 59.52 3.00 L 56.52 3.00 L 53.52 3.00 L 50.52 3.00 L 47.51 3.00 L 44.51 3.00 L 41.51 3.00 L 38.50 3.00 L 35.53 3.06 Z M 259.13 102.05 L 259.37 101.67 L 259.70 101.34 L 260.09 101.12 L 260.54 101.02 L 261.01 101.00 L 261.49 101.02 L 261.94 101.12 L 262.32 101.36 L 262.65 101.69 L 262.88 102.08 L 262.96 102.51 L 262.87 102.95 L 262.63 103.33 L 262.30 103.66 L 261.91 103.88 L 261.46 103.98 L 260.99 104.00 L 260.51 103.98 L 260.06 103.88 L 259.68 103.64 L 259.35 103.31 L 259.12 102.92 L 259.04 102.49 Z M 186.15 101.06 L 186.44 100.62 L 186.86 100.27 L 187.36 100.08 L 187.91 100.02 L 188.48 100.04 L 189.00 100.19 L 189.43 100.49 L 189.76 100.92 L 189.94 101.43 L 189.99 101.99 L 190.00 102.57 L 190.01 103.14 L 190.09 103.69 L 190.30 104.19 L 190.60 104.64 L 190.86 105.11 L 190.98 105.65 L 191.02 106.20 L 191.15 106.65 L 191.48 106.90 L 191.98 106.99 L 192.55 107.00 L 193.13 107.00 L 193.71 107.00 L 194.29 107.00 L 194.87 107.00 L 195.45 107.00 L 196.03 107.00 L 196.61 107.00 L 197.20 107.00 L 197.78 107.00 L 198.35 107.02 L 198.88 107.14 L 199.34 107.41 L 199.69 107.82 L 199.89 108.30 L 199.87 108.81 L 199.64 109.28 L 199.28 109.71 L 198.87 110.13 L 198.46 110.54 L 198.05 110.95 L 197.64 111.36 L 197.23 111.77 L 196.82 112.18 L 196.40 112.57 L 195.94 112.86 L 195.43 113.04 L 194.93 113.23 L 194.50 113.56 L 194.19 114.00 L 194.04 114.52 L 194.02 115.08 L 194.08 115.63 L 194.27 116.13 L 194.57 116.59 L 194.85 117.05 L 194.97 117.58 L 195.01 118.15 L 195.09 118.70 L 195.30 119.19 L 195.61 119.64 L 195.86 120.12 L 195.98 120.65 L 195.98 121.22 L 195.89 121.76 L 195.66 122.24 L 195.28 122.63 L 194.82 122.86 L 194.31 122.89 L 193.82 122.70 L 193.37 122.40 L 192.90 122.13 L 192.39 121.95 L 191.89 121.75 L 191.45 121.42 L 191.03 121.03 L 190.61 120.63 L 190.17 120.29 L 189.68 120.07 L 189.17 119.89 L 188.70 119.64 L 188.25 119.33 L 187.76 119.12 L 187.25 119.12 L 186.77 119.33 L 186.34 119.68 L 185.92 120.08 L 185.50 120.47 L 185.05 120.78 L 184.55 120.97 L 184.04 121.15 L 183.58 121.45 L 183.16 121.84 L 182.75 122.24 L 182.32 122.61 L 181.85 122.86 L 181.34 122.90 L 180.86 122.72 L 180.44 122.38 L 180.15 121.93 L 180.03 121.40 L 180.02 120.83 L 180.10 120.29 L 180.31 119.79 L 180.62 119.34 L 180.87 118.86 L 180.98 118.33 L 181.02 117.76 L 181.11 117.22 L 181.34 116.73 L 181.65 116.28 L 181.88 115.80 L 181.98 115.25 L 181.98 114.69 L 181.87 114.15 L 181.61 113.69 L 181.21 113.32 L 180.74 113.08 L 180.23 112.91 L 179.75 112.66 L 179.32 112.30 L 178.90 111.90 L 178.49 111.49 L 178.08 111.08 L 177.67 110.67 L 177.26 110.26 L 176.85 109.84 L 176.46 109.42 L 176.17 108.97 L 176.09 108.46 L 176.22 107.96 L 176.53 107.53 L 176.97 107.21 L 177.48 107.05 L 178.04 107.01 L 178.62 107.00 L 179.20 107.00 L 179.78 107.00 L 180.37 107.00 L 180.95 107.00 L 181.53 107.00 L 182.11 107.00 L 182.69 107.00 L 183.26 106.98 L 183.80 106.88 L 184.27 106.63 L 184.65 106.25 L 184.91 105.78 L 185.08 105.27 L 185.31 104.78 L 185.62 104.33 L 185.87 103.85 L 185.98 103.32 L 186.00 102.74 L 186.00 102.16 L 186.03 101.59 Z M 245.15 100.06 L 245.44 99.61 L 245.86 99.28 L 246.36 99.10 L 246.87 99.14 L 247.33 99.40 L 247.76 99.77 L 248.17 100.18 L 248.56 100.60 L 248.85 101.06 L 248.97 101.59 L 249.01 102.16 L 249.10 102.71 L 249.31 103.20 L 249.61 103.66 L 249.87 104.13 L 249.98 104.67 L 250.02 105.24 L 250.11 105.78 L 250.35 106.25 L 250.73 106.64 L 251.21 106.88 L 251.75 106.98 L 252.32 107.00 L 252.91 107.00 L 253.49 107.00 L 254.07 107.00 L 254.65 107.00 L 255.23 107.00 L 255.82 107.00 L 256.40 107.00 L 256.98 107.00 L 257.56 107.00 L 258.14 107.01 L 258.69 107.09 L 259.18 107.31 L 259.59 107.66 L 259.85 108.11 L 259.90 108.62 L 259.74 109.12 L 259.41 109.56 L 259.01 109.98 L 258.60 110.38 L 258.16 110.72 L 257.66 110.94 L 257.16 111.11 L 256.68 111.38 L 256.26 111.75 L 255.84 112.16 L 255.42 112.55 L 254.96 112.85 L 254.45 113.02 L 253.95 113.22 L 253.52 113.54 L 253.21 113.97 L 253.09 114.48 L 253.18 114.98 L 253.46 115.45 L 253.76 115.91 L 253.93 116.42 L 253.99 116.97 L 254.00 117.55 L 254.00 118.13 L 254.00 118.72 L 254.02 119.29 L 254.12 119.83 L 254.37 120.31 L 254.67 120.77 L 254.88 121.25 L 254.88 121.76 L 254.66 122.23 L 254.29 122.62 L 253.82 122.86 L 253.32 122.89 L 252.83 122.71 L 252.37 122.40 L 251.90 122.13 L 251.39 121.95 L 250.89 121.75 L 250.45 121.42 L 250.03 121.03 L 249.61 120.63 L 249.17 120.29 L 248.68 120.07 L 248.17 119.89 L 247.69 119.64 L 247.24 119.33 L 246.76 119.12 L 246.25 119.12 L 245.77 119.34 L 245.33 119.69 L 244.91 120.09 L 244.49 120.48 L 244.04 120.79 L 243.54 120.98 L 243.03 121.16 L 242.57 121.46 L 242.15 121.85 L 241.73 122.26 L 241.30 122.62 L 240.83 122.86 L 240.32 122.89 L 239.84 122.71 L 239.43 122.36 L 239.15 121.91 L 239.09 121.40 L 239.25 120.90 L 239.55 120.44 L 239.83 119.98 L 239.96 119.45 L 240.00 118.88 L 240.00 118.30 L 240.00 117.72 L 240.00 117.14 L 240.03 116.57 L 240.16 116.04 L 240.44 115.57 L 240.74 115.12 L 240.89 114.64 L 240.80 114.24 L 240.44 114.00 L 239.97 113.80 L 239.52 113.49 L 239.10 113.10 L 238.69 112.69 L 238.28 112.28 L 237.86 111.86 L 237.45 111.45 L 237.04 111.04 L 236.62 110.64 L 236.18 110.30 L 235.70 110.07 L 235.19 109.89 L 234.72 109.63 L 234.35 109.24 L 234.13 108.77 L 234.12 108.26 L 234.33 107.79 L 234.69 107.39 L 235.16 107.13 L 235.70 107.02 L 236.27 107.00 L 236.85 107.00 L 237.43 107.00 L 238.02 107.00 L 238.60 107.00 L 239.18 107.00 L 239.76 107.00 L 240.35 107.00 L 240.93 107.00 L 241.51 107.00 L 242.09 106.99 L 242.64 106.92 L 243.14 106.72 L 243.56 106.38 L 243.85 105.93 L 243.98 105.40 L 244.01 104.83 L 244.10 104.28 L 244.31 103.79 L 244.62 103.34 L 244.87 102.86 L 244.98 102.32 L 245.00 101.75 L 245.00 101.17 L 245.03 100.59 Z M 216.15 100.06 L 216.44 99.62 L 216.85 99.28 L 217.34 99.10 L 217.84 99.14 L 218.30 99.38 L 218.67 99.77 L 218.90 100.25 L 218.98 100.79 L 219.02 101.35 L 219.13 101.88 L 219.39 102.35 L 219.69 102.80 L 219.92 103.28 L 220.09 103.78 L 220.34 104.26 L 220.64 104.71 L 220.88 105.18 L 220.98 105.72 L 221.03 106.26 L 221.17 106.70 L 221.52 106.92 L 222.03 106.99 L 222.59 107.00 L 223.17 107.00 L 223.74 107.00 L 224.32 107.00 L 224.90 107.00 L 225.47 107.00 L 226.05 107.00 L 226.62 107.00 L 227.19 107.02 L 227.73 107.10 L 228.21 107.32 L 228.61 107.69 L 228.87 108.14 L 228.98 108.67 L 228.98 109.24 L 228.89 109.77 L 228.66 110.25 L 228.30 110.68 L 227.91 111.09 L 227.49 111.48 L 227.04 111.79 L 226.54 111.98 L 226.04 112.15 L 225.59 112.45 L 225.17 112.83 L 224.77 113.24 L 224.40 113.66 L 224.13 114.13 L 224.02 114.66 L 224.02 115.22 L 224.11 115.76 L 224.33 116.24 L 224.63 116.69 L 224.88 117.17 L 224.98 117.70 L 225.00 118.27 L 225.00 118.84 L 225.00 119.42 L 224.99 119.99 L 224.94 120.55 L 224.78 121.05 L 224.46 121.48 L 224.03 121.79 L 223.52 121.95 L 222.96 121.98 L 222.41 121.93 L 221.91 121.76 L 221.46 121.46 L 221.00 121.18 L 220.50 121.00 L 220.00 120.82 L 219.55 120.51 L 219.13 120.13 L 218.72 119.73 L 218.29 119.37 L 217.82 119.13 L 217.32 119.11 L 216.83 119.29 L 216.39 119.59 L 215.92 119.87 L 215.42 120.04 L 214.92 120.23 L 214.47 120.53 L 214.01 120.81 L 213.51 120.99 L 213.01 121.17 L 212.56 121.47 L 212.14 121.86 L 211.73 122.26 L 211.31 122.62 L 210.84 122.86 L 210.33 122.90 L 209.85 122.72 L 209.44 122.38 L 209.16 121.94 L 209.08 121.43 L 209.23 120.94 L 209.52 120.48 L 209.80 120.02 L 209.95 119.51 L 210.00 118.96 L 210.07 118.41 L 210.24 117.90 L 210.54 117.45 L 210.82 116.99 L 210.96 116.47 L 211.00 115.91 L 211.00 115.34 L 210.98 114.77 L 210.89 114.23 L 210.65 113.76 L 210.28 113.37 L 209.82 113.11 L 209.32 112.93 L 208.84 112.71 L 208.40 112.38 L 207.99 111.98 L 207.58 111.58 L 207.17 111.17 L 206.76 110.76 L 206.36 110.36 L 205.95 109.95 L 205.56 109.53 L 205.24 109.09 L 205.09 108.60 L 205.15 108.09 L 205.42 107.65 L 205.83 107.30 L 206.31 107.09 L 206.86 107.01 L 207.43 107.00 L 208.00 107.00 L 208.58 107.00 L 209.16 107.00 L 209.73 107.00 L 210.31 107.00 L 210.88 107.00 L 211.46 107.00 L 212.04 107.00 L 212.61 107.00 L 213.17 106.98 L 213.63 106.86 L 213.91 106.56 L 214.11 106.12 L 214.38 105.66 L 214.69 105.22 L 214.90 104.73 L 214.99 104.19 L 215.02 103.63 L 215.14 103.10 L 215.40 102.63 L 215.71 102.18 L 215.91 101.69 L 215.99 101.15 L 216.02 100.59 Z M 18.00 85.00 L 18.42 84.61 L 18.86 84.28 L 19.36 84.08 L 19.91 84.02 L 20.47 84.04 L 20.99 84.18 L 21.43 84.49 L 21.76 84.91 L 21.93 85.42 L 21.98 85.97 L 21.95 86.53 L 21.79 87.04 L 21.47 87.47 L 21.04 87.79 L 20.53 87.95 L 19.97 87.99 L 19.39 88.00 L 18.82 87.98 L 18.27 87.90 L 17.79 87.68 L 17.39 87.31 L 17.14 86.86 L 17.10 86.35 L 17.28 85.86 L 17.61 85.42 Z M 266.94 71.85 L 267.40 71.59 L 267.84 71.28 L 268.33 71.08 L 268.87 71.02 L 269.42 71.03 L 269.94 71.15 L 270.38 71.43 L 270.72 71.84 L 270.92 72.33 L 270.98 72.87 L 270.97 73.42 L 270.85 73.94 L 270.57 74.38 L 270.16 74.72 L 269.67 74.92 L 269.13 74.99 L 268.57 75.00 L 268.00 75.00 L 267.43 75.00 L 266.86 75.00 L 266.29 75.00 L 265.73 75.02 L 265.20 75.11 L 264.73 75.34 L 264.29 75.65 L 263.82 75.87 L 263.32 75.90 L 262.84 75.71 L 262.43 75.38 L 262.15 74.94 L 262.08 74.44 L 262.22 73.95 L 262.53 73.53 L 262.95 73.21 L 263.44 73.03 L 263.94 72.86 L 264.40 72.59 L 264.84 72.28 L 265.33 72.08 L 265.87 72.01 L 266.42 71.98 Z M 262.15 57.06 L 262.45 56.61 L 262.88 56.27 L 263.38 56.08 L 263.94 56.02 L 264.51 56.05 L 265.03 56.21 L 265.47 56.53 L 265.79 56.97 L 265.95 57.49 L 266.00 58.06 L 266.08 58.62 L 266.27 59.13 L 266.57 59.59 L 266.84 60.06 L 266.91 60.57 L 266.76 61.08 L 266.44 61.53 L 266.04 61.96 L 265.63 62.37 L 265.21 62.79 L 264.79 63.21 L 264.38 63.62 L 263.96 64.04 L 263.54 64.44 L 263.08 64.76 L 262.58 64.91 L 262.06 64.84 L 261.61 64.55 L 261.27 64.13 L 261.08 63.62 L 261.01 63.06 L 261.00 62.47 L 261.01 61.89 L 261.09 61.33 L 261.29 60.83 L 261.60 60.37 L 261.86 59.89 L 261.98 59.35 L 262.00 58.77 L 262.00 58.18 L 262.03 57.60 Z M 256.16 51.06 L 256.45 50.61 L 256.88 50.27 L 257.38 50.08 L 257.95 50.01 L 258.53 50.00 L 259.12 50.00 L 259.71 50.00 L 260.29 50.02 L 260.83 50.13 L 261.30 50.39 L 261.67 50.79 L 261.88 51.27 L 261.87 51.78 L 261.64 52.27 L 261.28 52.71 L 260.87 53.12 L 260.45 53.52 L 259.99 53.81 L 259.48 53.91 L 258.97 53.79 L 258.50 53.50 L 258.03 53.20 L 257.52 53.01 L 257.01 52.83 L 256.57 52.51 L 256.24 52.08 L 256.09 51.57 Z M 143.00 10.00 L 143.39 9.63 L 143.80 9.30 L 144.25 9.11 L 144.73 9.11 L 145.19 9.29 L 145.58 9.62 L 145.85 10.05 L 145.97 10.54 L 145.99 11.07 L 145.94 11.59 L 145.78 12.07 L 145.48 12.48 L 145.07 12.78 L 144.59 12.94 L 144.07 12.99 L 143.54 12.97 L 143.05 12.85 L 142.62 12.58 L 142.29 12.19 L 142.11 11.73 L 142.11 11.25 L 142.30 10.80 L 142.63 10.39 Z M 133.14 6.06 L 133.41 5.64 L 133.80 5.30 L 134.25 5.11 L 134.73 5.11 L 135.19 5.29 L 135.60 5.62 L 135.99 5.99 L 136.36 6.38 L 136.69 6.79 L 136.89 7.24 L 136.90 7.72 L 136.71 8.17 L 136.39 8.56 L 135.97 8.84 L 135.47 8.97 L 134.94 8.99 L 134.42 8.94 L 133.94 8.79 L 133.54 8.49 L 133.23 8.08 L 133.06 7.61 L 133.01 7.09 L 133.02 6.55 Z" fill="rgb(27,26,24)" fill-rule="evenodd"/>
  <path d="M 38.21 112.20 L 38.09 112.58 L 38.22 113.05 L 38.52 113.49 L 38.90 113.90 L 39.31 114.30 L 39.73 114.65 L 40.20 114.89 L 40.73 114.98 L 41.29 115.02 L 41.81 115.12 L 42.28 115.36 L 42.70 115.71 L 43.11 116.11 L 43.51 116.51 L 43.91 116.91 L 44.32 117.32 L 44.72 117.72 L 45.12 118.12 L 45.50 118.53 L 45.81 118.97 L 46.00 119.44 L 46.21 119.79 L 46.55 119.88 L 46.83 119.68 L 46.88 119.27 L 46.70 118.81 L 46.40 118.37 L 46.14 117.91 L 46.03 117.39 L 46.02 116.83 L 46.09 116.30 L 46.30 115.81 L 46.60 115.37 L 46.85 114.92 L 46.89 114.48 L 46.67 114.15 L 46.23 114.02 L 45.70 113.98 L 45.17 113.88 L 44.71 113.63 L 44.34 113.25 L 44.09 112.80 L 43.89 112.38 L 43.58 112.11 L 43.10 112.02 L 42.55 112.00 L 41.98 112.00 L 41.41 112.00 L 40.85 112.00 L 40.28 112.00 L 39.71 112.00 L 39.14 112.00 L 38.61 112.04 Z M 21.19 91.21 L 21.03 91.59 L 21.00 92.11 L 21.00 92.66 L 20.98 93.21 L 20.91 93.73 L 20.70 94.20 L 20.39 94.63 L 20.14 95.08 L 20.02 95.59 L 20.01 96.13 L 20.08 96.65 L 20.26 97.13 L 20.59 97.53 L 21.01 97.82 L 21.50 97.96 L 22.04 97.99 L 22.57 97.94 L 23.06 97.78 L 23.49 97.48 L 23.89 97.11 L 24.28 96.71 L 24.63 96.31 L 24.86 95.87 L 24.88 95.44 L 24.65 95.14 L 24.22 95.02 L 23.69 94.98 L 23.18 94.89 L 22.73 94.65 L 22.36 94.28 L 22.12 93.83 L 22.02 93.32 L 22.00 92.77 L 22.00 92.22 L 21.97 91.69 L 21.83 91.28 L 21.52 91.10 Z M 263.19 58.20 L 263.03 58.56 L 263.00 59.06 L 262.95 59.57 L 262.81 60.04 L 262.54 60.46 L 262.25 60.87 L 262.07 61.32 L 262.01 61.83 L 262.00 62.35 L 262.00 62.88 L 262.03 63.38 L 262.17 63.76 L 262.51 63.93 L 262.95 63.86 L 263.36 63.60 L 263.69 63.22 L 263.90 62.78 L 263.98 62.29 L 264.00 61.77 L 264.00 61.24 L 264.00 60.71 L 264.00 60.18 L 264.00 59.65 L 264.00 59.12 L 263.97 58.62 L 263.83 58.24 L 263.51 58.08 Z" fill="rgb(90,89,88)" fill-rule="evenodd"/>
  <path d="M 0.18 69.18 L 0.03 69.53 L 0.00 70.00 L 0.00 70.50 L 0.00 71.00 L 0.00 71.50 L 0.00 72.00 L 0.00 72.50 L 0.00 73.00 L 0.00 73.50 L 0.00 74.00 L 0.00 74.50 L 0.00 75.00 L 0.00 75.50 L 0.00 76.00 L 0.00 76.50 L 0.00 77.00 L 0.00 77.50 L 0.00 78.00 L 0.03 78.47 L 0.18 78.82 L 0.53 78.97 L 1.00 79.00 L 1.47 78.97 L 1.82 78.82 L 1.97 78.47 L 2.00 78.00 L 2.00 77.50 L 2.00 77.00 L 2.00 76.50 L 2.00 76.00 L 2.00 75.50 L 2.00 75.00 L 2.00 74.50 L 2.00 74.00 L 2.00 73.50 L 2.00 73.00 L 2.00 72.50 L 2.00 72.00 L 2.00 71.50 L 2.00 71.00 L 2.00 70.50 L 2.00 70.00 L 1.97 69.53 L 1.82 69.18 L 1.47 69.03 L 1.00 69.00 L 0.53 69.03 Z M 0.18 38.18 L 0.03 38.53 L 0.00 39.00 L 0.00 39.50 L 0.00 40.00 L 0.00 40.50 L 0.00 41.00 L 0.03 41.47 L 0.18 41.82 L 0.53 41.97 L 1.00 42.00 L 1.47 41.97 L 1.82 41.82 L 1.97 41.47 L 2.00 41.00 L 2.00 40.50 L 2.00 40.00 L 2.00 39.50 L 2.00 39.00 L 1.97 38.53 L 1.82 38.18 L 1.47 38.03 L 1.00 38.00 L 0.53 38.03 Z" fill="rgb(160,160,160)" fill-rule="evenodd"/>
  <path d="M 246.21 104.21 L 246.04 104.60 L 245.99 105.14 L 245.92 105.67 L 245.72 106.16 L 245.41 106.60 L 245.14 107.06 L 244.97 107.56 L 244.79 108.05 L 244.47 108.47 L 244.05 108.78 L 243.55 108.95 L 243.00 108.99 L 242.43 109.00 L 241.86 109.00 L 241.29 109.00 L 240.72 109.00 L 240.15 109.00 L 239.59 109.00 L 239.03 109.01 L 238.52 109.07 L 238.18 109.29 L 238.11 109.69 L 238.28 110.15 L 238.60 110.58 L 238.99 110.99 L 239.39 111.39 L 239.79 111.79 L 240.20 112.20 L 240.60 112.60 L 241.00 113.00 L 241.39 113.41 L 241.72 113.84 L 241.92 114.33 L 241.99 114.87 L 242.00 115.43 L 241.99 116.00 L 241.95 116.55 L 241.79 117.05 L 241.50 117.50 L 241.21 117.95 L 241.06 118.45 L 241.02 118.99 L 241.08 119.49 L 241.30 119.83 L 241.73 119.97 L 242.27 119.98 L 242.80 119.89 L 243.27 119.65 L 243.69 119.30 L 244.10 118.90 L 244.51 118.52 L 244.95 118.21 L 245.45 118.05 L 246.00 118.01 L 246.57 118.00 L 247.13 118.01 L 247.67 118.08 L 248.16 118.28 L 248.60 118.59 L 249.06 118.86 L 249.56 119.03 L 250.05 119.21 L 250.50 119.50 L 250.95 119.79 L 251.45 119.94 L 251.99 119.98 L 252.49 119.92 L 252.83 119.70 L 252.97 119.27 L 252.98 118.73 L 252.89 118.20 L 252.66 117.73 L 252.35 117.29 L 252.10 116.82 L 251.94 116.32 L 251.72 115.84 L 251.41 115.40 L 251.15 114.94 L 251.08 114.44 L 251.22 113.95 L 251.52 113.51 L 251.90 113.10 L 252.31 112.70 L 252.73 112.35 L 253.20 112.10 L 253.70 111.93 L 254.17 111.71 L 254.60 111.38 L 255.01 110.99 L 255.42 110.60 L 255.85 110.27 L 256.31 110.05 L 256.71 109.85 L 256.89 109.52 L 256.77 109.19 L 256.38 109.03 L 255.84 109.00 L 255.28 109.00 L 254.71 109.00 L 254.14 109.00 L 253.57 109.00 L 253.00 109.00 L 252.43 109.00 L 251.87 108.99 L 251.33 108.92 L 250.84 108.72 L 250.41 108.39 L 250.00 108.00 L 249.60 107.60 L 249.20 107.20 L 248.80 106.79 L 248.42 106.38 L 248.14 105.92 L 248.02 105.41 L 247.98 104.86 L 247.88 104.40 L 247.59 104.12 L 247.12 104.02 L 246.60 104.04 Z M 187.20 104.20 L 186.98 104.58 L 186.79 105.05 L 186.50 105.49 L 186.22 105.94 L 186.06 106.44 L 186.00 106.99 L 185.95 107.53 L 185.79 108.03 L 185.49 108.46 L 185.07 108.77 L 184.57 108.94 L 184.02 108.99 L 183.46 109.00 L 182.89 109.00 L 182.33 109.00 L 181.76 109.00 L 181.19 109.00 L 180.63 109.00 L 180.07 109.01 L 179.55 109.06 L 179.19 109.25 L 179.10 109.64 L 179.25 110.11 L 179.56 110.54 L 179.95 110.95 L 180.35 111.35 L 180.75 111.75 L 181.15 112.15 L 181.55 112.55 L 181.95 112.95 L 182.34 113.36 L 182.68 113.78 L 182.90 114.26 L 182.98 114.79 L 183.00 115.35 L 183.00 115.92 L 183.00 116.48 L 182.99 117.05 L 182.94 117.59 L 182.77 118.09 L 182.47 118.53 L 182.20 118.98 L 182.09 119.44 L 182.24 119.81 L 182.64 119.97 L 183.17 119.98 L 183.70 119.91 L 184.18 119.70 L 184.61 119.37 L 185.01 118.99 L 185.42 118.60 L 185.85 118.27 L 186.34 118.08 L 186.88 118.01 L 187.44 118.00 L 188.00 118.01 L 188.55 118.06 L 189.05 118.21 L 189.50 118.50 L 189.95 118.79 L 190.44 118.97 L 190.94 119.14 L 191.39 119.41 L 191.83 119.71 L 192.31 119.91 L 192.85 119.98 L 193.38 119.96 L 193.77 119.80 L 193.91 119.43 L 193.80 118.97 L 193.52 118.52 L 193.23 118.07 L 193.06 117.58 L 193.00 117.03 L 192.95 116.49 L 192.81 115.98 L 192.53 115.53 L 192.24 115.09 L 192.09 114.60 L 192.14 114.10 L 192.40 113.65 L 192.77 113.23 L 193.17 112.83 L 193.58 112.46 L 194.02 112.16 L 194.52 111.99 L 195.01 111.81 L 195.45 111.51 L 195.86 111.13 L 196.26 110.73 L 196.62 110.32 L 196.86 109.87 L 196.87 109.43 L 196.63 109.14 L 196.18 109.02 L 195.64 109.00 L 195.07 109.00 L 194.51 109.00 L 193.94 109.00 L 193.37 109.00 L 192.81 109.00 L 192.24 109.00 L 191.68 108.98 L 191.16 108.88 L 190.70 108.62 L 190.34 108.24 L 190.09 107.78 L 189.93 107.28 L 189.70 106.81 L 189.40 106.37 L 189.14 105.91 L 189.02 105.39 L 188.98 104.85 L 188.87 104.39 L 188.58 104.12 L 188.12 104.02 L 187.60 104.04 Z M 217.20 102.22 L 217.03 102.61 L 216.99 103.14 L 216.91 103.68 L 216.71 104.17 L 216.41 104.61 L 216.14 105.07 L 216.02 105.59 L 215.99 106.15 L 215.91 106.69 L 215.71 107.18 L 215.37 107.61 L 214.98 108.02 L 214.57 108.41 L 214.13 108.73 L 213.64 108.92 L 213.10 108.99 L 212.53 109.00 L 211.96 109.00 L 211.39 109.00 L 210.82 109.00 L 210.25 109.00 L 209.68 109.00 L 209.11 109.00 L 208.58 109.05 L 208.21 109.23 L 208.10 109.62 L 208.24 110.08 L 208.55 110.52 L 208.94 110.93 L 209.34 111.33 L 209.77 111.67 L 210.24 111.91 L 210.74 112.08 L 211.22 112.32 L 211.65 112.66 L 212.05 113.06 L 212.44 113.47 L 212.76 113.91 L 212.93 114.40 L 212.98 114.95 L 212.95 115.50 L 212.81 116.01 L 212.53 116.47 L 212.23 116.92 L 212.06 117.42 L 212.01 117.97 L 212.00 118.53 L 212.02 119.09 L 212.11 119.56 L 212.37 119.85 L 212.79 119.87 L 213.25 119.67 L 213.70 119.36 L 214.16 119.11 L 214.66 118.94 L 215.15 118.73 L 215.59 118.42 L 216.05 118.15 L 216.57 118.03 L 217.13 118.00 L 217.70 118.00 L 218.26 118.02 L 218.80 118.11 L 219.27 118.35 L 219.69 118.71 L 220.10 119.10 L 220.51 119.48 L 220.96 119.79 L 221.45 119.98 L 221.95 120.15 L 222.41 120.42 L 222.85 120.72 L 223.32 120.89 L 223.71 120.82 L 223.90 120.49 L 223.83 120.03 L 223.57 119.58 L 223.27 119.14 L 223.08 118.64 L 223.01 118.10 L 222.97 117.55 L 222.84 117.03 L 222.56 116.57 L 222.26 116.13 L 222.08 115.63 L 222.02 115.09 L 222.04 114.53 L 222.17 114.02 L 222.46 113.57 L 222.85 113.16 L 223.25 112.75 L 223.65 112.35 L 224.06 111.95 L 224.47 111.56 L 224.91 111.24 L 225.40 111.04 L 225.90 110.87 L 226.34 110.59 L 226.69 110.19 L 226.88 109.74 L 226.83 109.33 L 226.52 109.09 L 226.02 109.01 L 225.47 109.00 L 224.89 109.00 L 224.32 109.00 L 223.75 109.00 L 223.18 109.00 L 222.61 109.00 L 222.04 108.99 L 221.49 108.95 L 220.98 108.80 L 220.53 108.50 L 220.12 108.12 L 219.72 107.71 L 219.36 107.29 L 219.12 106.82 L 219.02 106.29 L 218.98 105.73 L 218.89 105.20 L 218.66 104.73 L 218.35 104.28 L 218.12 103.81 L 218.02 103.28 L 217.97 102.74 L 217.84 102.31 L 217.53 102.12 Z M 0.18 47.18 L 0.03 47.53 L 0.00 48.00 L 0.00 48.50 L 0.00 49.00 L 0.00 49.50 L 0.00 50.00 L 0.00 50.50 L 0.00 51.00 L 0.00 51.50 L 0.00 52.00 L 0.00 52.50 L 0.00 53.00 L 0.00 53.50 L 0.00 54.00 L 0.00 54.50 L 0.00 55.00 L 0.00 55.50 L 0.00 56.00 L 0.00 56.50 L 0.00 57.00 L 0.00 57.50 L 0.00 58.00 L 0.00 58.50 L 0.00 59.00 L 0.00 59.50 L 0.00 60.00 L 0.00 60.50 L 0.00 61.00 L 0.00 61.50 L 0.00 62.00 L 0.00 62.50 L 0.00 63.00 L 0.00 63.50 L 0.00 64.00 L 0.00 64.50 L 0.00 65.00 L 0.00 65.50 L 0.00 66.00 L 0.00 66.50 L 0.00 67.00 L 0.03 67.47 L 0.18 67.82 L 0.53 67.97 L 1.00 68.00 L 1.47 67.97 L 1.82 67.82 L 1.97 67.47 L 2.00 67.00 L 2.00 66.50 L 2.00 66.00 L 2.00 65.50 L 2.00 65.00 L 2.00 64.50 L 2.00 64.00 L 2.00 63.50 L 2.00 63.00 L 2.00 62.50 L 2.00 62.00 L 2.00 61.50 L 2.00 61.00 L 2.00 60.50 L 2.00 60.00 L 2.00 59.50 L 2.00 59.00 L 2.00 58.50 L 2.00 58.00 L 2.00 57.50 L 2.00 57.00 L 2.00 56.50 L 2.00 56.00 L 2.00 55.50 L 2.00 55.00 L 2.00 54.50 L 2.00 54.00 L 2.00 53.50 L 2.00 53.00 L 2.00 52.50 L 2.00 52.00 L 2.00 51.50 L 2.00 51.00 L 2.00 50.50 L 2.00 50.00 L 2.00 49.50 L 2.00 49.00 L 2.00 48.50 L 2.00 48.00 L 1.97 47.53 L 1.82 47.18 L 1.47 47.03 L 1.00 47.00 L 0.53 47.03 Z M 234.18 0.18 L 234.03 0.53 L 234.00 1.00 L 234.03 1.47 L 234.18 1.82 L 234.53 1.97 L 235.00 2.00 L 235.50 2.00 L 236.00 2.00 L 236.50 2.00 L 237.00 2.00 L 237.50 2.00 L 238.00 2.00 L 238.50 2.00 L 239.00 2.00 L 239.50 2.00 L 240.00 2.00 L 240.50 2.00 L 241.00 2.00 L 241.50 2.00 L 242.00 2.00 L 242.50 2.00 L 243.00 2.00 L 243.50 2.00 L 244.00 2.00 L 244.50 2.00 L 245.00 2.00 L 245.47 1.97 L 245.82 1.82 L 245.97 1.47 L 246.00 1.00 L 245.97 0.53 L 245.82 0.18 L 245.47 0.03 L 245.00 0.00 L 244.50 0.00 L 244.00 0.00 L 243.50 0.00 L 243.00 0.00 L 242.50 0.00 L 242.00 0.00 L 241.50 0.00 L 241.00 0.00 L 240.50 0.00 L 240.00 0.00 L 239.50 0.00 L 239.00 0.00 L 238.50 0.00 L 238.00 0.00 L 237.50 0.00 L 237.00 0.00 L 236.50 0.00 L 236.00 0.00 L 235.50 0.00 L 235.00 0.00 L 234.53 0.03 Z M 136.20 0.20 L 136.04 0.59 L 136.02 1.10 L 136.10 1.57 L 136.36 1.87 L 136.80 1.98 L 137.34 2.00 L 137.89 2.00 L 138.45 2.00 L 139.01 2.00 L 139.56 2.00 L 140.12 2.00 L 140.68 2.00 L 141.23 2.00 L 141.79 2.00 L 142.34 2.00 L 142.90 2.00 L 143.46 2.00 L 144.01 2.00 L 144.57 2.00 L 145.12 2.00 L 145.68 2.00 L 146.24 2.00 L 146.79 2.00 L 147.35 2.00 L 147.91 2.00 L 148.46 2.00 L 149.02 2.00 L 149.57 2.00 L 150.13 2.00 L 150.69 2.00 L 151.24 2.00 L 151.80 2.00 L 152.36 2.00 L 152.91 2.00 L 153.47 2.00 L 154.03 2.00 L 154.58 2.00 L 155.14 2.00 L 155.69 2.00 L 156.25 2.00 L 156.81 2.00 L 157.36 2.00 L 157.92 2.00 L 158.48 2.00 L 159.03 2.00 L 159.59 2.00 L 160.14 2.00 L 160.70 2.00 L 161.26 2.00 L 161.81 2.00 L 162.37 2.00 L 162.93 2.00 L 163.48 2.00 L 164.04 2.00 L 164.59 2.00 L 165.15 2.00 L 165.71 2.00 L 166.26 2.00 L 166.82 2.00 L 167.38 2.00 L 167.93 2.00 L 168.49 2.00 L 169.04 2.00 L 169.60 2.00 L 170.16 2.00 L 170.71 2.00 L 171.27 2.00 L 171.82 2.00 L 172.38 2.00 L 172.94 2.00 L 173.49 2.00 L 174.05 2.00 L 174.61 2.00 L 175.16 2.00 L 175.72 2.00 L 176.28 2.00 L 176.83 2.00 L 177.39 2.00 L 177.94 2.00 L 178.50 2.00 L 179.06 2.00 L 179.61 2.00 L 180.17 2.00 L 180.72 2.00 L 181.28 2.00 L 181.84 2.00 L 182.39 2.00 L 182.95 2.00 L 183.51 2.00 L 184.06 2.00 L 184.62 2.00 L 185.18 2.00 L 185.73 2.00 L 186.29 2.00 L 186.84 2.00 L 187.40 2.00 L 187.96 2.00 L 188.51 2.00 L 189.07 2.00 L 189.62 2.00 L 190.18 2.00 L 190.74 2.00 L 191.29 2.00 L 191.85 2.00 L 192.41 2.00 L 192.96 2.00 L 193.52 2.00 L 194.07 2.00 L 194.63 2.00 L 195.19 2.00 L 195.74 2.00 L 196.30 2.00 L 196.86 2.00 L 197.41 2.00 L 197.97 2.00 L 198.53 2.00 L 199.08 2.00 L 199.64 2.00 L 200.19 2.00 L 200.75 2.00 L 201.31 2.00 L 201.86 2.00 L 202.42 2.00 L 202.98 2.00 L 203.53 2.00 L 204.09 2.00 L 204.64 2.00 L 205.20 2.00 L 205.76 2.00 L 206.31 2.00 L 206.87 2.00 L 207.43 2.00 L 207.98 2.00 L 208.54 2.00 L 209.09 2.00 L 209.65 2.00 L 210.21 2.00 L 210.76 2.00 L 211.32 2.00 L 211.88 2.00 L 212.43 2.00 L 212.99 2.00 L 213.54 2.00 L 214.10 2.00 L 214.66 2.00 L 215.21 2.00 L 215.77 2.00 L 216.32 2.00 L 216.88 2.00 L 217.44 2.00 L 217.99 2.00 L 218.55 2.00 L 219.11 2.00 L 219.66 2.00 L 220.22 2.00 L 220.78 2.00 L 221.33 2.00 L 221.88 2.00 L 222.41 1.96 L 222.80 1.80 L 222.96 1.41 L 222.98 0.90 L 222.90 0.43 L 222.64 0.13 L 222.20 0.02 L 221.66 0.00 L 221.11 0.00 L 220.55 0.00 L 219.99 0.00 L 219.44 0.00 L 218.88 0.00 L 218.32 0.00 L 217.77 0.00 L 217.21 0.00 L 216.66 0.00 L 216.10 0.00 L 215.54 0.00 L 214.99 0.00 L 214.43 0.00 L 213.88 0.00 L 213.32 0.00 L 212.76 0.00 L 212.21 0.00 L 211.65 0.00 L 211.09 0.00 L 210.54 0.00 L 209.98 0.00 L 209.43 0.00 L 208.87 0.00 L 208.31 0.00 L 207.76 0.00 L 207.20 0.00 L 206.64 0.00 L 206.09 0.00 L 205.53 0.00 L 204.97 0.00 L 204.42 0.00 L 203.86 0.00 L 203.31 0.00 L 202.75 0.00 L 202.19 0.00 L 201.64 0.00 L 201.08 0.00 L 200.53 0.00 L 199.97 0.00 L 199.41 0.00 L 198.86 0.00 L 198.30 0.00 L 197.74 0.00 L 197.19 0.00 L 196.63 0.00 L 196.07 0.00 L 195.52 0.00 L 194.96 0.00 L 194.41 0.00 L 193.85 0.00 L 193.29 0.00 L 192.74 0.00 L 192.18 0.00 L 191.62 0.00 L 191.07 0.00 L 190.51 0.00 L 189.96 0.00 L 189.40 0.00 L 188.84 0.00 L 188.29 0.00 L 187.73 0.00 L 187.18 0.00 L 186.62 0.00 L 186.06 0.00 L 185.51 0.00 L 184.95 0.00 L 184.39 0.00 L 183.84 0.00 L 183.28 0.00 L 182.72 0.00 L 182.17 0.00 L 181.61 0.00 L 181.06 0.00 L 180.50 0.00 L 179.94 0.00 L 179.39 0.00 L 178.83 0.00 L 178.27 0.00 L 177.72 0.00 L 177.16 0.00 L 176.61 0.00 L 176.05 0.00 L 175.49 0.00 L 174.94 0.00 L 174.38 0.00 L 173.82 0.00 L 173.27 0.00 L 172.71 0.00 L 172.16 0.00 L 171.60 0.00 L 171.04 0.00 L 170.49 0.00 L 169.93 0.00 L 169.38 0.00 L 168.82 0.00 L 168.26 0.00 L 167.71 0.00 L 167.15 0.00 L 166.59 0.00 L 166.04 0.00 L 165.48 0.00 L 164.93 0.00 L 164.37 0.00 L 163.81 0.00 L 163.26 0.00 L 162.70 0.00 L 162.14 0.00 L 161.59 0.00 L 161.03 0.00 L 160.47 0.00 L 159.92 0.00 L 159.36 0.00 L 158.81 0.00 L 158.25 0.00 L 157.69 0.00 L 157.14 0.00 L 156.58 0.00 L 156.03 0.00 L 155.47 0.00 L 154.91 0.00 L 154.36 0.00 L 153.80 0.00 L 153.24 0.00 L 152.69 0.00 L 152.13 0.00 L 151.57 0.00 L 151.02 0.00 L 150.46 0.00 L 149.91 0.00 L 149.35 0.00 L 148.79 0.00 L 148.24 0.00 L 147.68 0.00 L 147.12 0.00 L 146.57 0.00 L 146.01 0.00 L 145.46 0.00 L 144.90 0.00 L 144.34 0.00 L 143.79 0.00 L 143.23 0.00 L 142.68 0.00 L 142.12 0.00 L 141.56 0.00 L 141.01 0.00 L 140.45 0.00 L 139.89 0.00 L 139.34 0.00 L 138.78 0.00 L 138.23 0.00 L 137.67 0.00 L 137.12 0.00 L 136.59 0.04 Z M 72.18 0.18 L 72.03 0.53 L 72.00 1.00 L 72.03 1.47 L 72.18 1.82 L 72.53 1.97 L 73.00 2.00 L 73.50 2.00 L 74.00 2.00 L 74.50 2.00 L 75.00 2.00 L 75.50 2.00 L 76.00 2.00 L 76.50 2.00 L 77.00 2.00 L 77.50 2.00 L 78.00 2.00 L 78.50 2.00 L 79.00 2.00 L 79.50 2.00 L 80.00 2.00 L 80.50 2.00 L 81.00 2.00 L 81.50 2.00 L 82.00 2.00 L 82.50 2.00 L 83.00 2.00 L 83.50 2.00 L 84.00 2.00 L 84.50 2.00 L 85.00 2.00 L 85.50 2.00 L 86.00 2.00 L 86.50 2.00 L 87.00 2.00 L 87.50 2.00 L 88.00 2.00 L 88.50 2.00 L 89.00 2.00 L 89.50 2.00 L 90.00 2.00 L 90.50 2.00 L 91.00 2.00 L 91.50 2.00 L 92.00 2.00 L 92.50 2.00 L 93.00 2.00 L 93.50 2.00 L 94.00 2.00 L 94.50 2.00 L 95.00 2.00 L 95.50 2.00 L 96.00 2.00 L 96.50 2.00 L 97.00 2.00 L 97.50 2.00 L 98.00 2.00 L 98.50 2.00 L 99.00 2.00 L 99.50 2.00 L 100.00 2.00 L 100.50 2.00 L 101.00 2.00 L 101.50 2.00 L 102.00 2.00 L 102.50 2.00 L 103.00 2.00 L 103.50 2.00 L 104.00 2.00 L 104.50 2.00 L 105.00 2.00 L 105.50 2.00 L 106.00 2.00 L 106.50 2.00 L 107.00 2.00 L 107.50 2.00 L 108.00 2.00 L 108.50 2.00 L 109.00 2.00 L 109.50 2.00 L 110.00 2.00 L 110.50 2.00 L 111.00 2.00 L 111.50 2.00 L 112.00 2.00 L 112.50 2.00 L 113.00 2.00 L 113.50 2.00 L 114.00 2.00 L 114.50 2.00 L 115.00 2.00 L 115.50 2.00 L 116.00 2.00 L 116.50 2.00 L 117.00 2.00 L 117.50 2.00 L 118.00 2.00 L 118.50 2.00 L 119.00 2.00 L 119.50 2.00 L 120.00 2.00 L 120.50 2.00 L 121.00 2.00 L 121.50 2.00 L 122.00 2.00 L 122.50 2.00 L 123.00 2.00 L 123.50 2.00 L 124.00 2.00 L 124.50 2.00 L 125.00 2.00 L 125.50 2.00 L 126.00 2.00 L 126.50 2.00 L 127.00 2.00 L 127.50 2.00 L 128.00 2.00 L 128.47 1.97 L 128.82 1.82 L 128.97 1.47 L 129.00 1.00 L 128.97 0.53 L 128.82 0.18 L 128.47 0.03 L 128.00 0.00 L 127.50 0.00 L 127.00 0.00 L 126.50 0.00 L 126.00 0.00 L 125.50 0.00 L 125.00 0.00 L 124.50 0.00 L 124.00 0.00 L 123.50 0.00 L 123.00 0.00 L 122.50 0.00 L 122.00 0.00 L 121.50 0.00 L 121.00 0.00 L 120.50 0.00 L 120.00 0.00 L 119.50 0.00 L 119.00 0.00 L 118.50 0.00 L 118.00 0.00 L 117.50 0.00 L 117.00 0.00 L 116.50 0.00 L 116.00 0.00 L 115.50 0.00 L 115.00 0.00 L 114.50 0.00 L 114.00 0.00 L 113.50 0.00 L 113.00 0.00 L 112.50 0.00 L 112.00 0.00 L 111.50 0.00 L 111.00 0.00 L 110.50 0.00 L 110.00 0.00 L 109.50 0.00 L 109.00 0.00 L 108.50 0.00 L 108.00 0.00 L 107.50 0.00 L 107.00 0.00 L 106.50 0.00 L 106.00 0.00 L 105.50 0.00 L 105.00 0.00 L 104.50 0.00 L 104.00 0.00 L 103.50 0.00 L 103.00 0.00 L 102.50 0.00 L 102.00 0.00 L 101.50 0.00 L 101.00 0.00 L 100.50 0.00 L 100.00 0.00 L 99.50 0.00 L 99.00 0.00 L 98.50 0.00 L 98.00 0.00 L 97.50 0.00 L 97.00 0.00 L 96.50 0.00 L 96.00 0.00 L 95.50 0.00 L 95.00 0.00 L 94.50 0.00 L 94.00 0.00 L 93.50 0.00 L 93.00 0.00 L 92.50 0.00 L 92.00 0.00 L 91.50 0.00 L 91.00 0.00 L 90.50 0.00 L 90.00 0.00 L 89.50 0.00 L 89.00 0.00 L 88.50 0.00 L 88.00 0.00 L 87.50 0.00 L 87.00 0.00 L 86.50 0.00 L 86.00 0.00 L 85.50 0.00 L 85.00 0.00 L 84.50 0.00 L 84.00 0.00 L 83.50 0.00 L 83.00 0.00 L 82.50 0.00 L 82.00 0.00 L 81.50 0.00 L 81.00 0.00 L 80.50 0.00 L 80.00 0.00 L 79.50 0.00 L 79.00 0.00 L 78.50 0.00 L 78.00 0.00 L 77.50 0.00 L 77.00 0.00 L 76.50 0.00 L 76.00 0.00 L 75.50 0.00 L 75.00 0.00 L 74.50 0.00 L 74.00 0.00 L 73.50 0.00 L 73.00 0.00 L 72.53 0.03 Z M 33.18 0.18 L 33.03 0.53 L 33.00 1.00 L 33.03 1.47 L 33.18 1.82 L 33.53 1.97 L 34.00 2.00 L 34.50 2.00 L 35.00 2.00 L 35.50 2.00 L 36.00 2.00 L 36.50 2.00 L 37.00 2.00 L 37.50 2.00 L 38.00 2.00 L 38.50 2.00 L 39.00 2.00 L 39.50 2.00 L 40.00 2.00 L 40.50 2.00 L 41.00 2.00 L 41.50 2.00 L 42.00 2.00 L 42.50 2.00 L 43.00 2.00 L 43.50 2.00 L 44.00 2.00 L 44.50 2.00 L 45.00 2.00 L 45.50 2.00 L 46.00 2.00 L 46.50 2.00 L 47.00 2.00 L 47.50 2.00 L 48.00 2.00 L 48.50 2.00 L 49.00 2.00 L 49.50 2.00 L 50.00 2.00 L 50.50 2.00 L 51.00 2.00 L 51.50 2.00 L 52.00 2.00 L 52.50 2.00 L 53.00 2.00 L 53.50 2.00 L 54.00 2.00 L 54.50 2.00 L 55.00 2.00 L 55.50 2.00 L 56.00 2.00 L 56.50 2.00 L 57.00 2.00 L 57.50 2.00 L 58.00 2.00 L 58.50 2.00 L 59.00 2.00 L 59.50 2.00 L 60.00 2.00 L 60.50 2.00 L 61.00 2.00 L 61.50 2.00 L 62.00 2.00 L 62.50 2.00 L 63.00 2.00 L 63.50 2.00 L 64.00 2.00 L 64.50 2.00 L 65.00 2.00 L 65.50 2.00 L 66.00 2.00 L 66.50 2.00 L 67.00 2.00 L 67.47 1.97 L 67.82 1.82 L 67.97 1.47 L 68.00 1.00 L 67.97 0.53 L 67.82 0.18 L 67.47 0.03 L 67.00 0.00 L 66.50 0.00 L 66.00 0.00 L 65.50 0.00 L 65.00 0.00 L 64.50 0.00 L 64.00 0.00 L 63.50 0.00 L 63.00 0.00 L 62.50 0.00 L 62.00 0.00 L 61.50 0.00 L 61.00 0.00 L 60.50 0.00 L 60.00 0.00 L 59.50 0.00 L 59.00 0.00 L 58.50 0.00 L 58.00 0.00 L 57.50 0.00 L 57.00 0.00 L 56.50 0.00 L 56.00 0.00 L 55.50 0.00 L 55.00 0.00 L 54.50 0.00 L 54.00 0.00 L 53.50 0.00 L 53.00 0.00 L 52.50 0.00 L 52.00 0.00 L 51.50 0.00 L 51.00 0.00 L 50.50 0.00 L 50.00 0.00 L 49.50 0.00 L 49.00 0.00 L 48.50 0.00 L 48.00 0.00 L 47.50 0.00 L 47.00 0.00 L 46.50 0.00 L 46.00 0.00 L 45.50 0.00 L 45.00 0.00 L 44.50 0.00 L 44.00 0.00 L 43.50 0.00 L 43.00 0.00 L 42.50 0.00 L 42.00 0.00 L 41.50 0.00 L 41.00 0.00 L 40.50 0.00 L 40.00 0.00 L 39.50 0.00 L 39.00 0.00 L 38.50 0.00 L 38.00 0.00 L 37.50 0.00 L 37.00 0.00 L 36.50 0.00 L 36.00 0.00 L 35.50 0.00 L 35.00 0.00 L 34.50 0.00 L 34.00 0.00 L 33.53 0.03 Z" fill="rgb(250,250,250)" fill-rule="evenodd"/>
</svg>