<svg xmlns="http://www.w3.org/2000/svg" width="333" height="134" viewBox="0 0 333 134" role="img" aria-label="22_plates_22">
  <title>22_plates_22</title>
  <path d="M 221.06 127.14 L 220.63 127.42 L 220.30 127.81 L 220.09 128.27 L 220.02 128.78 L 220.02 129.32 L 220.11 129.83 L 220.35 130.27 L 220.71 130.63 L 221.14 130.87 L 221.56 130.89 L 221.87 130.67 L 222.06 130.27 L 222.28 129.83 L 222.62 129.43 L 223.03 129.15 L 223.48 128.97 L 223.82 128.75 L 223.97 128.35 L 223.98 127.85 L 223.89 127.40 L 223.62 127.12 L 223.17 127.02 L 222.64 127.00 L 222.10 127.00 L 221.56 127.02 Z M 293.19 123.21 L 293.03 123.60 L 293.00 124.13 L 293.00 124.68 L 293.00 125.25 L 293.00 125.81 L 293.00 126.37 L 293.00 126.93 L 292.96 127.48 L 292.83 127.98 L 292.56 128.43 L 292.26 128.87 L 292.06 129.35 L 291.89 129.84 L 291.63 130.29 L 291.26 130.65 L 290.80 130.89 L 290.27 130.98 L 289.72 131.00 L 289.16 131.00 L 288.63 131.03 L 288.23 131.19 L 288.05 131.57 L 288.02 132.08 L 288.10 132.55 L 288.35 132.86 L 288.80 132.98 L 289.34 133.00 L 289.90 133.00 L 290.46 133.00 L 291.02 133.00 L 291.58 133.00 L 292.14 132.99 L 292.67 132.92 L 293.15 132.73 L 293.59 132.43 L 294.04 132.16 L 294.55 132.03 L 295.10 132.00 L 295.66 132.00 L 296.21 131.98 L 296.74 131.90 L 297.21 131.69 L 297.64 131.35 L 298.04 130.96 L 298.43 130.57 L 298.83 130.17 L 299.23 129.77 L 299.63 129.37 L 300.02 128.98 L 300.41 128.57 L 300.73 128.15 L 300.89 127.69 L 300.82 127.29 L 300.51 127.05 L 300.06 126.87 L 299.64 126.58 L 299.29 126.18 L 299.07 125.71 L 298.91 125.22 L 298.67 124.76 L 298.31 124.38 L 297.86 124.14 L 297.37 124.09 L 296.89 124.25 L 296.45 124.54 L 296.00 124.81 L 295.51 124.92 L 295.02 124.83 L 294.60 124.54 L 294.26 124.14 L 294.05 123.68 L 293.85 123.29 L 293.53 123.11 Z M 253.07 116.16 L 252.57 116.47 L 252.11 116.89 L 251.68 117.34 L 251.31 117.82 L 251.07 118.34 L 250.87 118.89 L 250.56 119.39 L 250.15 119.85 L 249.71 120.29 L 249.26 120.74 L 248.82 121.18 L 248.37 121.63 L 247.93 122.07 L 247.48 122.52 L 247.04 122.96 L 246.61 123.41 L 246.26 123.90 L 246.03 124.43 L 245.83 124.97 L 245.50 125.47 L 245.08 125.92 L 244.65 126.37 L 244.29 126.85 L 244.06 127.39 L 243.85 127.93 L 243.53 128.43 L 243.12 128.88 L 242.69 129.33 L 242.32 129.81 L 242.12 130.34 L 242.16 130.88 L 242.42 131.39 L 242.74 131.88 L 242.97 132.39 L 243.22 132.77 L 243.58 132.84 L 243.89 132.57 L 244.12 132.12 L 244.43 131.63 L 244.84 131.17 L 245.28 130.72 L 245.72 130.28 L 246.17 129.83 L 246.61 129.39 L 247.06 128.94 L 247.50 128.50 L 247.95 128.05 L 248.39 127.61 L 248.84 127.16 L 249.28 126.72 L 249.72 126.28 L 250.16 125.83 L 250.57 125.37 L 250.86 124.86 L 250.98 124.28 L 251.02 123.67 L 251.15 123.10 L 251.44 122.58 L 251.75 122.09 L 251.97 121.55 L 252.19 121.01 L 252.52 120.52 L 252.94 120.06 L 253.36 119.61 L 253.72 119.13 L 253.95 118.60 L 254.15 118.05 L 254.46 117.55 L 254.76 117.06 L 254.87 116.56 L 254.68 116.19 L 254.22 116.03 L 253.64 116.03 Z M 290.19 114.21 L 290.03 114.60 L 290.00 115.12 L 290.00 115.68 L 290.00 116.24 L 290.00 116.80 L 290.02 117.35 L 290.12 117.86 L 290.37 118.32 L 290.67 118.75 L 290.91 119.20 L 291.11 119.62 L 291.40 119.87 L 291.83 119.87 L 292.26 119.65 L 292.63 119.28 L 292.88 118.83 L 292.98 118.31 L 292.98 117.77 L 292.90 117.25 L 292.68 116.78 L 292.34 116.36 L 291.96 115.96 L 291.58 115.56 L 291.26 115.13 L 291.05 114.67 L 290.85 114.28 L 290.52 114.11 Z M 264.05 103.16 L 263.60 103.43 L 263.19 103.81 L 262.78 104.22 L 262.37 104.63 L 261.97 105.03 L 261.56 105.44 L 261.16 105.84 L 260.76 106.25 L 260.39 106.67 L 260.12 107.14 L 259.95 107.64 L 259.74 108.13 L 259.41 108.57 L 259.02 108.98 L 258.61 109.39 L 258.21 109.79 L 257.80 110.20 L 257.42 110.62 L 257.16 111.06 L 257.11 111.52 L 257.33 111.84 L 257.77 111.97 L 258.29 111.97 L 258.72 111.83 L 258.96 111.48 L 259.16 111.02 L 259.46 110.59 L 259.88 110.26 L 260.37 110.05 L 260.87 109.88 L 261.34 109.62 L 261.79 109.31 L 262.27 109.10 L 262.81 109.02 L 263.38 109.00 L 263.95 108.99 L 264.46 108.93 L 264.82 108.72 L 264.97 108.29 L 265.00 107.74 L 265.00 107.17 L 265.00 106.60 L 265.00 106.02 L 265.00 105.45 L 265.00 104.87 L 265.00 104.30 L 264.97 103.75 L 264.84 103.32 L 264.50 103.11 Z M 312.20 100.20 L 312.03 100.59 L 312.00 101.11 L 312.00 101.66 L 312.00 102.21 L 312.00 102.76 L 312.00 103.31 L 312.00 103.86 L 312.02 104.40 L 312.13 104.91 L 312.39 105.36 L 312.69 105.78 L 312.89 106.24 L 312.89 106.73 L 312.70 107.19 L 312.37 107.58 L 311.94 107.86 L 311.44 107.98 L 310.91 108.01 L 310.44 108.10 L 310.14 108.35 L 310.02 108.78 L 310.03 109.29 L 310.16 109.70 L 310.49 109.92 L 310.98 109.99 L 311.52 110.00 L 312.07 110.01 L 312.60 110.06 L 313.08 110.23 L 313.51 110.51 L 313.95 110.79 L 314.44 110.95 L 314.97 110.99 L 315.52 111.00 L 316.07 110.99 L 316.60 110.94 L 317.08 110.77 L 317.51 110.47 L 317.90 110.10 L 318.29 109.71 L 318.68 109.32 L 319.07 108.93 L 319.45 108.53 L 319.76 108.11 L 319.95 107.64 L 320.11 107.15 L 320.36 106.70 L 320.66 106.27 L 320.90 105.82 L 321.06 105.33 L 321.26 104.87 L 321.58 104.47 L 322.00 104.17 L 322.45 103.99 L 322.81 103.78 L 322.97 103.38 L 322.98 102.88 L 322.89 102.42 L 322.63 102.13 L 322.19 102.02 L 321.65 102.00 L 321.10 102.00 L 320.55 102.00 L 320.00 102.00 L 319.45 102.00 L 318.90 101.99 L 318.37 101.93 L 317.89 101.76 L 317.46 101.47 L 317.02 101.19 L 316.53 101.05 L 316.00 101.00 L 315.47 100.95 L 314.98 100.81 L 314.54 100.53 L 314.11 100.24 L 313.63 100.07 L 313.10 100.01 L 312.59 100.04 Z M 315.14 105.06 L 315.41 104.64 L 315.80 104.30 L 316.25 104.11 L 316.73 104.11 L 317.19 104.29 L 317.60 104.62 L 317.99 104.99 L 318.36 105.38 L 318.69 105.79 L 318.89 106.24 L 318.90 106.72 L 318.71 107.17 L 318.39 107.56 L 317.97 107.84 L 317.47 107.97 L 316.94 107.99 L 316.42 107.94 L 315.94 107.79 L 315.54 107.49 L 315.23 107.08 L 315.06 106.61 L 315.01 106.09 L 315.02 105.55 Z M 326.19 94.20 L 326.03 94.57 L 326.00 95.08 L 326.00 95.61 L 326.00 96.15 L 326.00 96.68 L 326.00 97.22 L 326.00 97.75 L 326.02 98.27 L 326.14 98.68 L 326.42 98.89 L 326.75 98.82 L 326.96 98.51 L 327.12 98.07 L 327.39 97.65 L 327.74 97.26 L 328.12 96.88 L 328.51 96.52 L 328.92 96.22 L 329.39 96.06 L 329.90 96.01 L 330.41 95.97 L 330.78 95.82 L 330.91 95.50 L 330.77 95.18 L 330.38 95.03 L 329.88 95.00 L 329.34 95.00 L 328.81 94.99 L 328.30 94.92 L 327.84 94.73 L 327.43 94.44 L 327.00 94.18 L 326.55 94.07 Z M 332.00 42.38 L 332.00 42.59 L 332.00 43.05 L 332.00 43.56 L 332.00 44.08 L 332.00 44.60 L 331.99 45.12 L 331.94 45.62 L 331.78 46.08 L 331.49 46.46 L 331.11 46.76 L 330.68 46.96 L 330.30 47.13 L 330.08 47.44 L 330.01 47.89 L 330.00 48.40 L 330.00 48.92 L 330.02 49.43 L 330.13 49.91 L 330.37 50.32 L 330.73 50.66 L 331.14 50.88 L 331.56 50.90 L 331.86 50.71 L 331.98 50.31 L 332.00 49.81 L 332.00 49.29 L 332.00 48.77 L 332.00 48.25 L 332.00 47.73 L 332.00 47.21 L 332.00 46.69 L 332.00 46.17 L 332.00 45.64 L 332.00 45.12 L 332.00 44.60 L 332.00 44.08 L 332.00 43.56 L 332.00 43.05 L 332.00 42.59 Z M 325.06 27.15 L 324.62 27.43 L 324.29 27.84 L 324.07 28.31 L 323.90 28.80 L 323.65 29.26 L 323.28 29.63 L 322.83 29.87 L 322.34 29.90 L 321.86 29.73 L 321.42 29.43 L 320.97 29.17 L 320.47 29.08 L 319.98 29.20 L 319.53 29.47 L 319.09 29.76 L 318.59 29.94 L 318.05 29.99 L 317.49 30.00 L 316.94 30.01 L 316.46 30.09 L 316.17 30.32 L 316.16 30.66 L 316.43 30.92 L 316.86 31.11 L 317.30 31.38 L 317.66 31.76 L 317.89 32.22 L 317.98 32.75 L 318.03 33.28 L 318.17 33.70 L 318.51 33.92 L 319.00 33.98 L 319.49 33.92 L 319.83 33.70 L 319.97 33.28 L 320.02 32.75 L 320.11 32.22 L 320.34 31.76 L 320.70 31.38 L 321.16 31.12 L 321.68 31.02 L 322.23 31.02 L 322.76 31.10 L 323.23 31.32 L 323.67 31.62 L 324.13 31.86 L 324.62 31.91 L 325.11 31.75 L 325.55 31.46 L 326.00 31.18 L 326.50 31.04 L 327.04 30.99 L 327.53 30.91 L 327.83 30.67 L 327.88 30.27 L 327.70 29.81 L 327.40 29.37 L 327.13 28.92 L 326.97 28.42 L 326.78 27.94 L 326.46 27.52 L 326.04 27.21 L 325.55 27.08 Z M 308.20 9.22 L 308.04 9.61 L 308.02 10.14 L 308.09 10.68 L 308.29 11.17 L 308.64 11.58 L 309.08 11.87 L 309.58 12.04 L 310.07 12.23 L 310.49 12.55 L 310.81 12.98 L 310.99 13.48 L 311.16 13.98 L 311.44 14.43 L 311.74 14.88 L 311.90 15.37 L 311.86 15.87 L 311.62 16.34 L 311.31 16.78 L 311.10 17.27 L 311.02 17.81 L 311.00 18.37 L 311.00 18.94 L 311.00 19.52 L 311.00 20.09 L 311.00 20.66 L 311.00 21.24 L 311.00 21.81 L 311.03 22.35 L 311.19 22.75 L 311.56 22.90 L 312.02 22.80 L 312.47 22.50 L 312.88 22.12 L 313.29 21.72 L 313.71 21.36 L 314.18 21.12 L 314.71 21.02 L 315.25 20.97 L 315.69 20.84 L 315.95 20.50 L 316.14 20.05 L 316.43 19.62 L 316.85 19.28 L 317.31 19.05 L 317.71 18.84 L 317.90 18.49 L 317.83 18.03 L 317.56 17.59 L 317.17 17.18 L 316.77 16.77 L 316.40 16.35 L 316.12 15.90 L 315.93 15.46 L 315.66 15.13 L 315.24 14.92 L 314.79 14.68 L 314.40 14.32 L 314.12 13.87 L 313.95 13.37 L 313.74 12.88 L 313.41 12.47 L 312.97 12.17 L 312.46 12.03 L 311.90 11.99 L 311.36 11.92 L 310.87 11.73 L 310.43 11.41 L 310.02 11.01 L 309.62 10.61 L 309.29 10.17 L 309.06 9.71 L 308.85 9.31 L 308.53 9.12 Z M 298.20 3.20 L 297.99 3.57 L 297.80 4.03 L 297.50 4.45 L 297.09 4.76 L 296.61 4.93 L 296.08 4.99 L 295.52 5.00 L 294.97 5.00 L 294.41 5.00 L 293.86 5.00 L 293.30 5.00 L 292.75 5.00 L 292.19 5.00 L 291.63 5.00 L 291.08 5.00 L 290.52 5.00 L 289.98 5.01 L 289.49 5.08 L 289.15 5.30 L 288.95 5.69 L 288.73 6.15 L 288.40 6.55 L 287.98 6.83 L 287.48 6.96 L 286.94 6.99 L 286.40 6.94 L 285.92 6.77 L 285.51 6.46 L 285.21 6.04 L 285.05 5.55 L 285.00 5.02 L 284.94 4.52 L 284.73 4.17 L 284.32 4.03 L 283.79 4.00 L 283.24 4.00 L 282.68 4.00 L 282.12 4.00 L 281.57 4.00 L 281.01 4.00 L 280.46 4.00 L 279.92 4.01 L 279.44 4.10 L 279.14 4.35 L 279.02 4.79 L 279.00 5.32 L 279.00 5.88 L 279.00 6.43 L 279.00 6.99 L 279.00 7.55 L 279.00 8.10 L 279.00 8.66 L 279.00 9.21 L 279.00 9.77 L 279.00 10.32 L 279.00 10.88 L 279.00 11.44 L 279.00 11.99 L 279.00 12.55 L 279.02 13.09 L 279.10 13.56 L 279.35 13.86 L 279.79 13.98 L 280.33 14.00 L 280.88 14.00 L 281.43 13.98 L 281.93 13.86 L 282.38 13.60 L 282.81 13.29 L 283.28 13.09 L 283.81 13.01 L 284.36 13.00 L 284.91 13.00 L 285.43 12.96 L 285.80 12.78 L 285.91 12.41 L 285.79 11.95 L 285.51 11.51 L 285.23 11.07 L 285.08 10.59 L 285.14 10.11 L 285.39 9.66 L 285.75 9.25 L 286.14 8.86 L 286.53 8.47 L 286.93 8.07 L 287.32 7.69 L 287.74 7.35 L 288.19 7.12 L 288.68 7.10 L 289.15 7.27 L 289.55 7.60 L 289.83 8.02 L 289.93 8.51 L 289.82 9.00 L 289.55 9.44 L 289.26 9.87 L 289.09 10.34 L 289.13 10.83 L 289.36 11.29 L 289.71 11.70 L 290.09 12.09 L 290.49 12.49 L 290.88 12.88 L 291.27 13.27 L 291.62 13.68 L 291.88 14.13 L 292.04 14.62 L 292.24 15.10 L 292.53 15.53 L 292.81 15.97 L 292.99 16.43 L 293.20 16.80 L 293.59 16.97 L 294.11 17.01 L 294.64 17.07 L 295.12 17.25 L 295.52 17.58 L 295.82 18.00 L 295.96 18.49 L 296.00 19.03 L 296.06 19.57 L 296.21 20.06 L 296.51 20.49 L 296.89 20.89 L 297.28 21.28 L 297.69 21.63 L 298.13 21.86 L 298.56 21.88 L 298.85 21.66 L 298.88 21.25 L 298.70 20.80 L 298.40 20.37 L 298.14 19.93 L 298.02 19.42 L 297.99 18.89 L 297.89 18.42 L 297.63 18.13 L 297.18 18.02 L 296.66 17.98 L 296.15 17.88 L 295.70 17.63 L 295.34 17.25 L 295.12 16.80 L 295.10 16.31 L 295.28 15.84 L 295.60 15.42 L 295.98 15.02 L 296.36 14.63 L 296.69 14.21 L 296.88 13.76 L 296.85 13.35 L 296.57 13.08 L 296.15 12.90 L 295.71 12.64 L 295.35 12.26 L 295.11 11.81 L 295.02 11.30 L 295.02 10.75 L 295.10 10.23 L 295.33 9.77 L 295.68 9.39 L 296.12 9.13 L 296.63 9.02 L 297.17 9.00 L 297.73 9.00 L 298.28 8.98 L 298.80 8.89 L 299.26 8.67 L 299.69 8.36 L 300.14 8.13 L 300.63 8.09 L 301.11 8.24 L 301.54 8.53 L 301.98 8.81 L 302.44 8.92 L 302.81 8.79 L 303.02 8.42 L 303.20 7.96 L 303.51 7.54 L 303.92 7.23 L 304.40 7.06 L 304.94 7.01 L 305.49 7.00 L 306.03 6.99 L 306.52 6.92 L 306.85 6.69 L 306.97 6.26 L 306.98 5.74 L 306.89 5.22 L 306.67 4.76 L 306.31 4.38 L 305.87 4.12 L 305.38 3.96 L 304.91 3.77 L 304.47 3.48 L 304.03 3.20 L 303.54 3.05 L 303.00 3.01 L 302.45 3.00 L 301.89 3.00 L 301.33 3.00 L 300.78 3.00 L 300.22 3.00 L 299.67 3.00 L 299.11 3.00 L 298.59 3.03 Z" fill="rgb(171,10,10)" fill-rule="evenodd"/>
  <path d="M 212.07 114.16 L 211.57 114.47 L 211.11 114.89 L 210.66 115.34 L 210.22 115.78 L 209.78 116.23 L 209.39 116.70 L 209.11 117.21 L 208.90 117.76 L 208.63 118.27 L 208.24 118.74 L 207.81 119.19 L 207.36 119.64 L 206.92 120.08 L 206.47 120.53 L 206.02 120.98 L 205.58 121.42 L 205.13 121.87 L 204.70 122.32 L 204.33 122.79 L 204.08 123.32 L 203.87 123.86 L 203.57 124.37 L 203.16 124.83 L 202.72 125.28 L 202.28 125.72 L 201.84 126.17 L 201.43 126.63 L 201.13 127.14 L 200.92 127.68 L 200.68 128.21 L 200.36 128.71 L 200.10 129.23 L 199.90 129.78 L 199.63 130.30 L 199.32 130.80 L 199.13 131.30 L 199.22 131.73 L 199.62 131.94 L 200.17 131.96 L 200.65 131.83 L 200.95 131.48 L 201.19 130.99 L 201.53 130.53 L 202.00 130.19 L 202.54 129.98 L 203.08 129.75 L 203.57 129.40 L 204.02 128.98 L 204.47 128.53 L 204.91 128.09 L 205.36 127.64 L 205.80 127.20 L 206.25 126.75 L 206.69 126.31 L 207.14 125.86 L 207.58 125.42 L 208.03 124.97 L 208.48 124.52 L 208.92 124.08 L 209.35 123.63 L 209.71 123.15 L 209.94 122.61 L 210.15 122.07 L 210.47 121.57 L 210.89 121.11 L 211.33 120.67 L 211.78 120.22 L 212.22 119.78 L 212.67 119.33 L 213.11 118.88 L 213.53 118.43 L 213.85 117.93 L 214.06 117.39 L 214.29 116.85 L 214.65 116.37 L 215.08 115.92 L 215.50 115.46 L 215.80 114.98 L 215.86 114.50 L 215.61 114.16 L 215.12 114.03 L 214.52 114.00 L 213.89 114.00 L 213.26 114.00 L 212.64 114.03 Z M 221.06 103.15 L 220.59 103.44 L 220.17 103.83 L 219.76 104.25 L 219.38 104.69 L 219.11 105.16 L 218.93 105.68 L 218.71 106.17 L 218.36 106.62 L 217.96 107.04 L 217.56 107.46 L 217.24 107.92 L 217.06 108.44 L 217.01 109.00 L 217.00 109.58 L 217.02 110.15 L 217.14 110.62 L 217.45 110.87 L 217.90 110.84 L 218.36 110.59 L 218.79 110.21 L 219.21 109.80 L 219.64 109.41 L 220.11 109.13 L 220.62 108.95 L 221.12 108.73 L 221.57 108.40 L 222.00 108.00 L 222.41 107.59 L 222.83 107.17 L 223.24 106.75 L 223.61 106.32 L 223.87 105.83 L 223.98 105.29 L 224.00 104.71 L 223.99 104.13 L 223.95 103.59 L 223.75 103.20 L 223.32 103.03 L 222.76 103.00 L 222.18 103.00 L 221.60 103.03 Z M 240.07 81.16 L 239.56 81.48 L 239.11 81.90 L 238.66 82.34 L 238.21 82.79 L 237.76 83.24 L 237.31 83.69 L 236.86 84.14 L 236.42 84.58 L 235.97 85.03 L 235.52 85.48 L 235.07 85.93 L 234.64 86.38 L 234.28 86.87 L 234.05 87.40 L 233.84 87.95 L 233.51 88.45 L 233.09 88.91 L 232.64 89.36 L 232.20 89.80 L 231.76 90.26 L 231.37 90.73 L 231.10 91.25 L 230.89 91.80 L 230.60 92.31 L 230.21 92.78 L 229.78 93.24 L 229.39 93.71 L 229.10 94.22 L 228.90 94.77 L 228.63 95.30 L 228.32 95.80 L 228.07 96.33 L 227.87 96.88 L 227.56 97.38 L 227.15 97.85 L 226.70 98.30 L 226.26 98.75 L 225.81 99.20 L 225.42 99.66 L 225.16 100.16 L 225.18 100.61 L 225.49 100.85 L 225.97 100.81 L 226.46 100.51 L 226.91 100.08 L 227.37 99.65 L 227.85 99.29 L 228.39 99.06 L 228.93 98.85 L 229.41 98.52 L 229.77 98.05 L 229.99 97.51 L 230.21 96.97 L 230.55 96.48 L 230.98 96.02 L 231.43 95.57 L 231.88 95.12 L 232.32 94.68 L 232.77 94.23 L 233.22 93.78 L 233.67 93.33 L 234.11 92.89 L 234.56 92.44 L 235.01 91.99 L 235.44 91.53 L 235.78 91.04 L 236.00 90.50 L 236.22 89.96 L 236.57 89.47 L 236.99 89.01 L 237.44 88.56 L 237.89 88.11 L 238.34 87.68 L 238.82 87.31 L 239.33 87.06 L 239.76 86.80 L 240.02 86.39 L 240.27 85.88 L 240.63 85.40 L 241.06 84.94 L 241.48 84.49 L 241.80 83.99 L 241.96 83.42 L 241.99 82.80 L 241.99 82.18 L 241.93 81.60 L 241.70 81.20 L 241.23 81.04 L 240.64 81.03 Z M 253.07 65.16 L 252.58 65.46 L 252.13 65.87 L 251.70 66.31 L 251.34 66.78 L 251.08 67.29 L 250.89 67.82 L 250.60 68.32 L 250.21 68.78 L 249.78 69.22 L 249.35 69.65 L 248.91 70.09 L 248.48 70.52 L 248.04 70.96 L 247.60 71.40 L 247.17 71.83 L 246.74 72.27 L 246.36 72.73 L 246.10 73.24 L 245.90 73.77 L 245.63 74.28 L 245.25 74.74 L 244.83 75.18 L 244.43 75.63 L 244.14 76.13 L 244.03 76.69 L 244.04 77.27 L 244.20 77.72 L 244.60 77.94 L 245.16 77.99 L 245.77 78.00 L 246.37 77.97 L 246.93 77.84 L 247.42 77.54 L 247.87 77.13 L 248.30 76.69 L 248.66 76.22 L 248.92 75.71 L 249.11 75.18 L 249.40 74.68 L 249.79 74.22 L 250.22 73.78 L 250.65 73.35 L 251.09 72.91 L 251.52 72.48 L 251.96 72.04 L 252.40 71.60 L 252.83 71.17 L 253.26 70.73 L 253.64 70.27 L 253.90 69.76 L 254.10 69.23 L 254.37 68.72 L 254.75 68.26 L 255.17 67.82 L 255.57 67.37 L 255.86 66.87 L 255.97 66.31 L 255.96 65.73 L 255.80 65.28 L 255.40 65.06 L 254.84 65.01 L 254.23 65.00 L 253.63 65.03 Z M 276.05 61.19 L 275.58 61.49 L 275.22 61.97 L 274.99 62.51 L 274.76 63.06 L 274.41 63.56 L 273.97 64.02 L 273.52 64.48 L 273.07 64.93 L 272.61 65.39 L 272.16 65.84 L 271.70 66.30 L 271.25 66.75 L 270.79 67.21 L 270.34 67.66 L 269.88 68.12 L 269.46 68.59 L 269.14 69.10 L 268.93 69.66 L 268.67 70.19 L 268.30 70.68 L 267.86 71.14 L 267.40 71.60 L 266.95 72.05 L 266.49 72.51 L 266.04 72.96 L 265.60 73.43 L 265.25 73.92 L 265.02 74.47 L 264.79 75.02 L 264.44 75.52 L 264.01 75.99 L 263.56 76.44 L 263.10 76.90 L 262.65 77.35 L 262.19 77.81 L 261.74 78.26 L 261.28 78.72 L 260.83 79.17 L 260.42 79.65 L 260.12 80.17 L 259.91 80.72 L 259.64 81.25 L 259.25 81.74 L 258.80 82.20 L 258.35 82.65 L 257.89 83.11 L 257.44 83.56 L 256.98 84.02 L 256.53 84.47 L 256.07 84.93 L 255.62 85.38 L 255.16 85.84 L 254.72 86.30 L 254.34 86.78 L 254.08 87.32 L 253.87 87.87 L 253.55 88.39 L 253.14 88.86 L 252.68 89.31 L 252.23 89.77 L 251.78 90.22 L 251.32 90.68 L 250.86 91.14 L 250.41 91.59 L 249.96 92.05 L 249.53 92.51 L 249.19 93.01 L 248.97 93.57 L 248.73 94.11 L 248.37 94.61 L 247.93 95.07 L 247.48 95.52 L 247.02 95.98 L 246.57 96.43 L 246.11 96.89 L 245.67 97.35 L 245.30 97.84 L 245.06 98.38 L 244.85 98.94 L 244.51 99.45 L 244.09 99.91 L 243.63 100.37 L 243.18 100.82 L 242.72 101.28 L 242.27 101.73 L 241.82 102.19 L 241.41 102.67 L 241.12 103.19 L 240.90 103.74 L 240.63 104.27 L 240.23 104.75 L 239.79 105.21 L 239.33 105.67 L 238.88 106.12 L 238.46 106.59 L 238.14 107.10 L 237.93 107.66 L 237.67 108.20 L 237.30 108.68 L 236.85 109.14 L 236.40 109.60 L 235.95 110.06 L 235.52 110.52 L 235.18 111.02 L 234.96 111.58 L 234.72 112.12 L 234.36 112.62 L 233.92 113.08 L 233.47 113.53 L 233.01 113.99 L 232.56 114.44 L 232.10 114.90 L 231.65 115.35 L 231.19 115.81 L 230.74 116.26 L 230.28 116.72 L 229.83 117.17 L 229.37 117.63 L 228.92 118.08 L 228.46 118.54 L 228.01 118.99 L 227.55 119.45 L 227.10 119.90 L 226.64 120.36 L 226.18 120.82 L 225.73 121.27 L 225.28 121.73 L 224.83 122.18 L 224.42 122.66 L 224.12 123.18 L 223.91 123.73 L 223.64 124.27 L 223.33 124.78 L 223.14 125.30 L 223.23 125.74 L 223.61 126.01 L 224.11 126.27 L 224.55 126.65 L 224.85 127.15 L 224.97 127.74 L 224.96 128.37 L 224.82 128.95 L 224.49 129.44 L 224.03 129.80 L 223.54 130.04 L 223.18 130.36 L 223.04 130.85 L 223.08 131.40 L 223.31 131.80 L 223.79 131.96 L 224.35 131.94 L 224.80 131.74 L 225.06 131.31 L 225.33 130.80 L 225.70 130.32 L 226.15 129.86 L 226.60 129.40 L 227.05 128.94 L 227.48 128.48 L 227.82 127.98 L 228.04 127.42 L 228.28 126.88 L 228.64 126.38 L 229.08 125.92 L 229.53 125.47 L 229.99 125.01 L 230.44 124.56 L 230.90 124.10 L 231.34 123.64 L 231.70 123.15 L 231.95 122.60 L 232.16 122.05 L 232.49 121.54 L 232.92 121.08 L 233.38 120.62 L 233.83 120.17 L 234.29 119.71 L 234.74 119.26 L 235.19 118.80 L 235.59 118.32 L 235.89 117.80 L 236.10 117.24 L 236.37 116.71 L 236.68 116.20 L 236.90 115.65 L 236.98 115.04 L 237.00 114.40 L 237.02 113.77 L 237.14 113.17 L 237.44 112.67 L 237.88 112.29 L 238.44 112.08 L 239.05 112.01 L 239.69 112.00 L 240.32 111.97 L 240.91 111.84 L 241.40 111.52 L 241.77 111.05 L 242.00 110.50 L 242.23 109.96 L 242.58 109.46 L 243.01 108.99 L 243.46 108.54 L 243.92 108.08 L 244.37 107.63 L 244.83 107.17 L 245.27 106.71 L 245.65 106.23 L 245.92 105.69 L 246.13 105.14 L 246.44 104.62 L 246.86 104.15 L 247.31 103.69 L 247.76 103.24 L 248.22 102.78 L 248.67 102.33 L 249.12 101.87 L 249.54 101.40 L 249.86 100.89 L 250.07 100.33 L 250.33 99.80 L 250.71 99.31 L 251.15 98.85 L 251.61 98.39 L 252.06 97.94 L 252.52 97.48 L 252.97 97.03 L 253.43 96.57 L 253.88 96.12 L 254.32 95.66 L 254.69 95.17 L 254.94 94.63 L 255.15 94.07 L 255.48 93.56 L 255.91 93.10 L 256.36 92.64 L 256.81 92.19 L 257.27 91.73 L 257.72 91.27 L 258.17 90.82 L 258.58 90.34 L 258.88 89.82 L 259.09 89.27 L 259.37 88.74 L 259.76 88.26 L 260.20 87.80 L 260.66 87.34 L 261.11 86.89 L 261.57 86.43 L 262.02 85.98 L 262.45 85.51 L 262.80 85.01 L 263.02 84.46 L 263.26 83.91 L 263.61 83.42 L 264.05 82.95 L 264.50 82.50 L 264.96 82.04 L 265.41 81.59 L 265.87 81.13 L 266.32 80.68 L 266.78 80.22 L 267.23 79.77 L 267.69 79.31 L 268.14 78.86 L 268.60 78.40 L 269.05 77.95 L 269.48 77.48 L 269.82 76.98 L 270.04 76.42 L 270.28 75.88 L 270.64 75.39 L 271.08 74.92 L 271.53 74.47 L 271.99 74.01 L 272.44 73.56 L 272.90 73.10 L 273.35 72.65 L 273.81 72.19 L 274.26 71.74 L 274.72 71.28 L 275.17 70.83 L 275.63 70.37 L 276.08 69.92 L 276.51 69.45 L 276.83 68.94 L 276.97 68.35 L 277.00 67.72 L 277.00 67.08 L 277.00 66.44 L 277.00 65.79 L 277.00 65.15 L 277.00 64.51 L 277.00 63.86 L 277.00 63.22 L 277.00 62.58 L 276.98 61.95 L 276.85 61.44 L 276.53 61.16 Z M 276.06 38.18 L 275.55 38.50 L 275.07 38.93 L 274.60 39.40 L 274.14 39.87 L 273.69 40.34 L 273.31 40.84 L 273.05 41.39 L 272.83 41.96 L 272.48 42.48 L 272.04 42.95 L 271.58 43.42 L 271.11 43.89 L 270.65 44.35 L 270.18 44.82 L 269.71 45.29 L 269.25 45.75 L 268.79 46.22 L 268.39 46.71 L 268.10 47.25 L 267.88 47.82 L 267.57 48.35 L 267.15 48.84 L 266.69 49.31 L 266.23 49.77 L 265.76 50.24 L 265.29 50.71 L 264.83 51.17 L 264.36 51.64 L 263.89 52.11 L 263.43 52.57 L 262.96 53.04 L 262.50 53.50 L 262.03 53.97 L 261.59 54.45 L 261.23 54.96 L 260.99 55.52 L 260.75 56.08 L 260.38 56.59 L 259.94 57.06 L 259.47 57.53 L 259.01 57.99 L 258.54 58.46 L 258.08 58.93 L 257.63 59.40 L 257.27 59.91 L 257.07 60.49 L 257.03 61.11 L 257.12 61.73 L 257.39 62.26 L 257.83 62.67 L 258.37 62.87 L 258.94 62.82 L 259.45 62.50 L 259.93 62.07 L 260.40 61.60 L 260.86 61.14 L 261.33 60.67 L 261.80 60.20 L 262.26 59.74 L 262.73 59.27 L 263.19 58.80 L 263.60 58.31 L 263.89 57.77 L 264.11 57.21 L 264.42 56.67 L 264.83 56.18 L 265.29 55.71 L 265.75 55.25 L 266.22 54.78 L 266.68 54.32 L 267.15 53.85 L 267.62 53.38 L 268.08 52.92 L 268.52 52.44 L 268.85 51.92 L 269.07 51.35 L 269.34 50.80 L 269.72 50.30 L 270.17 49.83 L 270.64 49.36 L 271.11 48.89 L 271.57 48.43 L 272.04 47.96 L 272.50 47.50 L 272.97 47.03 L 273.44 46.56 L 273.90 46.10 L 274.37 45.63 L 274.83 45.16 L 275.29 44.69 L 275.67 44.19 L 275.93 43.64 L 276.15 43.07 L 276.49 42.55 L 276.93 42.07 L 277.37 41.60 L 277.73 41.09 L 277.93 40.51 L 277.97 39.89 L 277.88 39.27 L 277.61 38.74 L 277.17 38.33 L 276.63 38.13 Z M 305.16 8.67 L 304.35 9.17 L 303.29 9.66 L 302.03 9.66 L 300.77 9.46 L 299.50 9.55 L 298.20 9.87 L 297.06 10.28 L 296.47 10.95 L 296.65 11.84 L 297.23 12.78 L 297.44 13.84 L 296.95 14.97 L 296.17 16.09 L 295.32 17.09 L 294.27 17.63 L 293.11 17.46 L 292.17 16.64 L 291.49 15.47 L 290.80 14.31 L 289.86 13.42 L 288.69 12.81 L 287.67 12.09 L 287.01 11.20 L 286.58 10.75 L 286.45 11.18 L 286.52 12.15 L 286.17 13.14 L 285.17 13.78 L 283.86 14.14 L 282.51 14.51 L 281.21 14.96 L 280.06 15.56 L 279.33 16.56 L 279.05 17.91 L 279.00 19.39 L 279.00 20.89 L 279.03 22.36 L 279.21 23.68 L 279.79 24.64 L 280.75 25.32 L 281.58 26.23 L 281.93 27.53 L 281.99 29.00 L 282.00 30.50 L 282.00 32.00 L 282.00 33.50 L 282.00 35.00 L 282.00 36.51 L 282.00 38.01 L 282.00 39.51 L 282.00 41.02 L 282.00 42.52 L 282.00 44.02 L 282.00 45.52 L 282.00 47.03 L 282.00 48.53 L 282.00 50.03 L 282.00 51.54 L 282.00 53.04 L 282.00 54.54 L 282.00 56.04 L 282.00 57.55 L 282.00 59.05 L 282.00 60.55 L 282.00 62.06 L 282.00 63.56 L 282.00 65.06 L 282.00 66.56 L 282.00 68.07 L 282.00 69.57 L 282.05 71.05 L 282.24 72.47 L 282.60 73.83 L 282.88 75.21 L 282.98 76.68 L 283.00 78.17 L 283.00 79.68 L 283.00 81.18 L 283.00 82.68 L 282.95 84.16 L 282.72 85.57 L 282.25 86.88 L 281.68 88.14 L 281.01 89.37 L 280.22 90.50 L 279.22 91.30 L 278.18 91.40 L 277.54 90.70 L 277.52 89.55 L 277.67 88.39 L 277.39 87.70 L 276.68 87.91 L 275.91 88.82 L 275.21 90.00 L 274.51 91.21 L 273.75 92.40 L 272.96 93.57 L 272.12 94.73 L 271.15 95.83 L 270.17 96.92 L 269.41 98.11 L 269.01 99.45 L 268.61 100.73 L 267.80 101.66 L 266.83 102.34 L 266.23 103.27 L 266.03 104.58 L 265.99 106.05 L 265.92 107.51 L 265.55 108.79 L 264.65 109.63 L 263.36 110.02 L 262.04 110.39 L 260.91 111.01 L 259.95 111.82 L 258.92 112.57 L 257.76 113.16 L 256.75 113.89 L 256.16 115.02 L 255.81 116.35 L 255.37 117.67 L 254.76 118.92 L 253.96 120.09 L 253.16 121.26 L 252.54 122.51 L 252.06 123.81 L 251.50 125.08 L 250.68 126.25 L 249.67 127.33 L 248.61 128.39 L 247.59 129.46 L 246.81 130.53 L 246.70 131.42 L 247.51 131.86 L 248.85 131.98 L 250.33 132.00 L 251.83 132.00 L 253.33 132.00 L 254.84 132.00 L 256.34 132.00 L 257.84 132.00 L 259.35 132.00 L 260.85 132.00 L 262.35 132.00 L 263.85 132.00 L 265.36 132.00 L 266.86 132.00 L 268.36 132.00 L 269.87 132.00 L 271.37 132.00 L 272.87 132.00 L 274.35 131.97 L 275.71 131.81 L 276.84 131.34 L 277.83 130.73 L 278.87 130.56 L 279.87 131.05 L 280.87 131.66 L 282.12 131.94 L 283.57 131.99 L 285.01 131.93 L 286.24 131.63 L 287.24 130.98 L 288.33 130.33 L 289.58 129.93 L 290.68 129.41 L 291.41 128.44 L 291.81 127.16 L 291.98 125.73 L 292.13 124.31 L 292.56 123.13 L 293.40 122.59 L 294.37 122.86 L 295.28 123.40 L 296.34 123.52 L 297.52 123.50 L 298.70 123.87 L 299.87 124.38 L 300.98 124.34 L 301.92 123.62 L 302.83 122.72 L 303.93 122.04 L 305.05 121.39 L 305.98 120.46 L 306.83 119.35 L 307.79 118.28 L 308.83 117.35 L 309.81 116.48 L 310.69 115.49 L 311.58 114.39 L 312.34 113.25 L 312.58 112.15 L 312.07 111.35 L 311.00 110.87 L 309.94 110.27 L 309.37 109.28 L 309.53 108.14 L 310.33 107.29 L 311.19 106.64 L 311.46 105.75 L 311.24 104.55 L 311.05 103.16 L 311.02 101.69 L 311.15 100.26 L 311.61 99.06 L 312.57 98.38 L 313.81 98.38 L 315.06 98.88 L 316.28 99.55 L 317.49 100.25 L 318.78 100.76 L 320.20 100.96 L 321.65 100.95 L 322.94 100.72 L 323.93 100.08 L 324.58 99.01 L 324.90 97.67 L 325.03 96.22 L 325.25 94.85 L 325.86 93.84 L 326.88 93.51 L 328.11 93.72 L 329.47 93.87 L 330.72 93.59 L 331.44 92.77 L 331.47 91.59 L 331.20 90.25 L 331.04 88.82 L 331.00 87.33 L 331.00 85.83 L 331.00 84.33 L 331.01 82.83 L 331.09 81.36 L 331.35 79.97 L 331.73 78.62 L 331.91 77.22 L 331.80 75.80 L 331.48 74.44 L 331.17 73.07 L 331.03 71.62 L 331.00 70.13 L 331.00 68.63 L 331.00 67.12 L 331.00 65.62 L 331.00 64.12 L 331.00 62.62 L 331.04 61.13 L 331.21 59.70 L 331.49 58.36 L 331.48 57.11 L 330.99 55.94 L 330.51 54.77 L 330.49 53.54 L 330.49 52.31 L 330.03 51.12 L 329.41 49.91 L 329.15 48.57 L 329.37 47.25 L 330.01 46.16 L 330.65 45.16 L 330.94 43.91 L 331.00 42.47 L 331.00 40.97 L 331.03 39.48 L 331.15 38.03 L 331.38 36.72 L 331.36 35.72 L 330.65 35.14 L 329.50 34.70 L 328.46 33.99 L 327.59 33.08 L 326.60 32.54 L 325.40 32.62 L 324.20 33.04 L 323.13 33.65 L 322.12 34.35 L 320.91 34.81 L 319.52 34.90 L 318.24 34.58 L 317.33 33.75 L 316.69 32.70 L 316.01 31.75 L 315.57 30.76 L 315.88 29.81 L 316.90 29.20 L 318.22 28.85 L 319.54 28.54 L 320.79 28.43 L 321.86 28.48 L 322.56 28.09 L 322.59 27.12 L 322.04 26.07 L 321.16 25.27 L 320.15 24.60 L 319.36 23.66 L 318.93 22.49 L 318.42 21.67 L 317.46 21.58 L 316.22 21.87 L 315.04 22.28 L 314.19 23.00 L 313.48 23.95 L 312.50 24.60 L 311.34 24.56 L 310.46 23.79 L 310.09 22.52 L 310.01 21.05 L 310.02 19.56 L 310.13 18.11 L 310.36 16.79 L 310.41 15.70 L 309.90 14.82 L 309.08 14.02 L 308.18 13.57 L 307.14 13.56 L 306.11 13.36 L 305.59 12.62 L 305.84 11.66 L 306.37 10.75 L 306.42 9.74 L 305.89 8.87 Z M 280.00 124.00 L 280.39 123.63 L 280.80 123.30 L 281.25 123.11 L 281.73 123.11 L 282.19 123.29 L 282.58 123.62 L 282.85 124.05 L 282.97 124.54 L 282.99 125.07 L 282.94 125.59 L 282.78 126.07 L 282.48 126.48 L 282.07 126.78 L 281.59 126.94 L 281.07 126.99 L 280.54 126.97 L 280.05 126.85 L 279.62 126.58 L 279.29 126.19 L 279.11 125.73 L 279.11 125.25 L 279.30 124.80 L 279.63 124.39 Z M 289.15 114.06 L 289.45 113.61 L 289.88 113.27 L 290.38 113.10 L 290.90 113.15 L 291.36 113.43 L 291.71 113.85 L 291.94 114.34 L 292.12 114.86 L 292.40 115.33 L 292.78 115.77 L 293.19 116.19 L 293.57 116.62 L 293.86 117.10 L 293.97 117.64 L 293.98 118.22 L 293.89 118.77 L 293.65 119.26 L 293.28 119.70 L 292.87 120.12 L 292.45 120.52 L 291.98 120.81 L 291.47 120.91 L 290.96 120.78 L 290.52 120.46 L 290.20 120.02 L 290.00 119.51 L 289.81 118.99 L 289.52 118.52 L 289.22 118.05 L 289.06 117.53 L 289.01 116.96 L 289.00 116.37 L 289.00 115.78 L 289.00 115.18 L 289.03 114.60 Z M 312.13 93.05 L 312.37 92.67 L 312.70 92.34 L 313.09 92.12 L 313.53 92.04 L 313.96 92.13 L 314.34 92.38 L 314.66 92.71 L 314.89 93.10 L 314.98 93.55 L 315.00 94.03 L 314.98 94.51 L 314.87 94.95 L 314.63 95.33 L 314.30 95.66 L 313.91 95.88 L 313.47 95.96 L 313.04 95.87 L 312.66 95.62 L 312.34 95.29 L 312.11 94.90 L 312.02 94.45 L 312.00 93.97 L 312.02 93.49 Z M 275.13 92.05 L 275.37 91.67 L 275.70 91.34 L 276.09 91.12 L 276.53 91.04 L 276.96 91.13 L 277.34 91.38 L 277.66 91.71 L 277.89 92.10 L 277.98 92.55 L 278.00 93.03 L 277.98 93.51 L 277.87 93.95 L 277.63 94.33 L 277.30 94.66 L 276.91 94.88 L 276.47 94.96 L 276.04 94.87 L 275.66 94.62 L 275.34 94.29 L 275.11 93.90 L 275.02 93.45 L 275.00 92.97 L 275.02 92.49 Z M 295.15 18.06 L 295.46 17.61 L 295.89 17.26 L 296.41 17.07 L 296.97 17.02 L 297.54 17.06 L 298.07 17.24 L 298.51 17.57 L 298.82 18.02 L 298.96 18.56 L 299.01 19.13 L 299.10 19.69 L 299.31 20.20 L 299.62 20.67 L 299.86 21.16 L 299.89 21.68 L 299.69 22.17 L 299.33 22.59 L 298.87 22.85 L 298.35 22.89 L 297.84 22.71 L 297.39 22.37 L 296.96 21.96 L 296.54 21.54 L 296.12 21.12 L 295.71 20.69 L 295.34 20.24 L 295.11 19.74 L 295.02 19.19 L 295.03 18.61 Z" fill="rgb(212,13,12)" fill-rule="evenodd"/>
  <path d="M 69.19 108.21 L 69.03 108.58 L 68.99 109.09 L 68.93 109.62 L 68.77 110.09 L 68.48 110.52 L 68.20 110.96 L 68.07 111.43 L 68.14 111.91 L 68.40 112.34 L 68.78 112.68 L 69.24 112.90 L 69.75 112.98 L 70.27 112.97 L 70.69 112.85 L 70.90 112.54 L 70.86 112.10 L 70.63 111.67 L 70.33 111.25 L 70.11 110.79 L 70.02 110.28 L 70.00 109.74 L 70.00 109.19 L 69.97 108.67 L 69.83 108.27 L 69.52 108.10 Z M 82.19 104.21 L 82.03 104.58 L 82.00 105.09 L 82.00 105.63 L 82.00 106.18 L 82.00 106.72 L 82.00 107.27 L 82.00 107.81 L 82.00 108.36 L 82.00 108.90 L 81.98 109.43 L 81.86 109.93 L 81.60 110.37 L 81.24 110.76 L 80.85 111.15 L 80.47 111.53 L 80.08 111.92 L 79.70 112.30 L 79.36 112.70 L 79.13 113.14 L 79.11 113.56 L 79.33 113.86 L 79.76 113.98 L 80.27 114.02 L 80.78 114.10 L 81.23 114.32 L 81.61 114.67 L 81.88 115.09 L 82.05 115.52 L 82.27 115.83 L 82.60 115.87 L 82.87 115.65 L 82.98 115.22 L 83.00 114.69 L 83.00 114.15 L 83.02 113.61 L 83.13 113.11 L 83.37 112.67 L 83.67 112.25 L 83.89 111.80 L 83.98 111.29 L 84.00 110.75 L 84.00 110.21 L 84.00 109.66 L 84.00 109.12 L 83.98 108.58 L 83.87 108.08 L 83.61 107.64 L 83.31 107.23 L 83.10 106.77 L 83.02 106.26 L 83.00 105.72 L 83.00 105.18 L 82.97 104.66 L 82.83 104.26 L 82.52 104.10 Z M 241.21 28.19 L 241.11 28.53 L 241.30 28.84 L 241.72 28.97 L 242.25 29.00 L 242.81 29.00 L 243.37 29.02 L 243.89 29.13 L 244.33 29.40 L 244.68 29.79 L 244.92 30.23 L 245.12 30.65 L 245.44 30.90 L 245.92 30.99 L 246.46 31.03 L 246.97 31.16 L 247.42 31.43 L 247.85 31.73 L 248.33 31.94 L 248.83 32.10 L 249.29 32.35 L 249.72 32.65 L 250.17 32.87 L 250.60 32.86 L 250.86 32.61 L 250.87 32.19 L 250.66 31.74 L 250.31 31.33 L 249.92 30.93 L 249.52 30.54 L 249.08 30.23 L 248.59 30.06 L 248.05 30.00 L 247.51 29.96 L 247.00 29.82 L 246.55 29.54 L 246.11 29.25 L 245.62 29.07 L 245.09 29.01 L 244.54 28.97 L 244.03 28.84 L 243.58 28.57 L 243.14 28.27 L 242.66 28.08 L 242.12 28.01 L 241.60 28.04 Z M 243.18 3.18 L 243.06 3.50 L 243.18 3.82 L 243.53 3.97 L 244.00 4.00 L 244.50 4.00 L 245.00 4.00 L 245.50 4.00 L 246.00 4.00 L 246.50 4.00 L 247.00 4.00 L 247.50 4.00 L 248.00 4.00 L 248.50 4.00 L 249.00 4.00 L 249.50 4.00 L 250.00 4.00 L 250.50 4.00 L 251.00 4.00 L 251.50 4.00 L 252.00 4.00 L 252.50 4.00 L 253.00 4.00 L 253.47 3.97 L 253.82 3.82 L 253.94 3.50 L 253.82 3.18 L 253.47 3.03 L 253.00 3.00 L 252.50 3.00 L 252.00 3.00 L 251.50 3.00 L 251.00 3.00 L 250.50 3.00 L 250.00 3.00 L 249.50 3.00 L 249.00 3.00 L 248.50 3.00 L 248.00 3.00 L 247.50 3.00 L 247.00 3.00 L 246.50 3.00 L 246.00 3.00 L 245.50 3.00 L 245.00 3.00 L 244.50 3.00 L 244.00 3.00 L 243.53 3.03 Z M 226.21 3.20 L 226.10 3.52 L 226.28 3.83 L 226.68 3.97 L 227.20 4.01 L 227.72 4.09 L 228.19 4.29 L 228.62 4.60 L 229.06 4.86 L 229.56 4.97 L 230.10 4.99 L 230.63 4.93 L 231.11 4.76 L 231.54 4.47 L 231.97 4.19 L 232.43 4.01 L 232.79 3.81 L 232.90 3.48 L 232.72 3.17 L 232.32 3.03 L 231.79 3.00 L 231.24 3.00 L 230.70 3.02 L 230.18 3.11 L 229.73 3.34 L 229.30 3.64 L 228.85 3.87 L 228.36 3.91 L 227.89 3.76 L 227.46 3.47 L 227.03 3.19 L 226.57 3.08 Z M 209.19 3.18 L 209.08 3.51 L 209.22 3.83 L 209.57 4.01 L 210.01 4.17 L 210.42 4.43 L 210.82 4.72 L 211.25 4.91 L 211.74 4.98 L 212.25 4.99 L 212.74 4.91 L 213.18 4.72 L 213.58 4.43 L 213.99 4.17 L 214.45 4.04 L 214.96 4.01 L 215.47 4.00 L 215.99 4.00 L 216.51 4.00 L 217.03 4.00 L 217.55 4.00 L 218.06 3.99 L 218.52 3.94 L 218.83 3.75 L 218.90 3.43 L 218.71 3.14 L 218.31 3.02 L 217.82 3.00 L 217.30 3.00 L 216.78 3.00 L 216.26 3.00 L 215.74 3.00 L 215.23 3.00 L 214.71 3.00 L 214.19 3.00 L 213.67 3.00 L 213.15 3.00 L 212.63 3.00 L 212.11 3.00 L 211.59 3.00 L 211.08 3.00 L 210.56 3.00 L 210.04 3.00 L 209.55 3.03 Z M 149.18 3.18 L 149.06 3.50 L 149.18 3.82 L 149.53 3.97 L 150.00 4.00 L 150.50 4.00 L 151.00 4.00 L 151.50 4.00 L 152.00 4.00 L 152.50 4.00 L 153.00 4.00 L 153.50 4.00 L 154.00 4.00 L 154.50 4.00 L 155.00 4.00 L 155.50 4.00 L 156.00 4.00 L 156.50 4.00 L 157.00 4.00 L 157.50 4.00 L 158.00 4.00 L 158.50 4.00 L 159.00 4.00 L 159.50 4.00 L 160.00 4.00 L 160.47 3.97 L 160.82 3.82 L 160.94 3.50 L 160.82 3.18 L 160.47 3.03 L 160.00 3.00 L 159.50 3.00 L 159.00 3.00 L 158.50 3.00 L 158.00 3.00 L 157.50 3.00 L 157.00 3.00 L 156.50 3.00 L 156.00 3.00 L 155.50 3.00 L 155.00 3.00 L 154.50 3.00 L 154.00 3.00 L 153.50 3.00 L 153.00 3.00 L 152.50 3.00 L 152.00 3.00 L 151.50 3.00 L 151.00 3.00 L 150.50 3.00 L 150.00 3.00 L 149.53 3.03 Z M 66.18 3.18 L 66.06 3.50 L 66.18 3.82 L 66.53 3.97 L 67.00 4.00 L 67.50 4.00 L 68.00 4.00 L 68.50 4.00 L 69.00 4.00 L 69.50 4.00 L 70.00 4.00 L 70.50 4.00 L 71.00 4.00 L 71.50 4.00 L 72.00 4.00 L 72.50 4.00 L 73.00 4.00 L 73.50 4.00 L 74.00 4.00 L 74.50 4.00 L 75.00 4.00 L 75.50 4.00 L 76.00 4.00 L 76.50 4.00 L 77.00 4.00 L 77.47 3.97 L 77.82 3.82 L 77.94 3.50 L 77.82 3.18 L 77.47 3.03 L 77.00 3.00 L 76.50 3.00 L 76.00 3.00 L 75.50 3.00 L 75.00 3.00 L 74.50 3.00 L 74.00 3.00 L 73.50 3.00 L 73.00 3.00 L 72.50 3.00 L 72.00 3.00 L 71.50 3.00 L 71.00 3.00 L 70.50 3.00 L 70.00 3.00 L 69.50 3.00 L 69.00 3.00 L 68.50 3.00 L 68.00 3.00 L 67.50 3.00 L 67.00 3.00 L 66.53 3.03 Z M 46.18 3.18 L 46.06 3.50 L 46.18 3.82 L 46.53 3.97 L 47.00 4.00 L 47.50 4.00 L 48.00 4.00 L 48.50 4.00 L 49.00 4.00 L 49.50 4.00 L 50.00 4.00 L 50.50 4.00 L 51.00 4.00 L 51.50 4.00 L 52.00 4.00 L 52.50 4.00 L 53.00 4.00 L 53.50 4.00 L 54.00 4.00 L 54.50 4.00 L 55.00 4.00 L 55.50 4.00 L 56.00 4.00 L 56.50 4.00 L 57.00 4.00 L 57.47 3.97 L 57.82 3.82 L 57.94 3.50 L 57.82 3.18 L 57.47 3.03 L 57.00 3.00 L 56.50 3.00 L 56.00 3.00 L 55.50 3.00 L 55.00 3.00 L 54.50 3.00 L 54.00 3.00 L 53.50 3.00 L 53.00 3.00 L 52.50 3.00 L 52.00 3.00 L 51.50 3.00 L 51.00 3.00 L 50.50 3.00 L 50.00 3.00 L 49.50 3.00 L 49.00 3.00 L 48.50 3.00 L 48.00 3.00 L 47.50 3.00 L 47.00 3.00 L 46.53 3.03 Z M 22.18 3.18 L 22.06 3.50 L 22.18 3.82 L 22.53 3.97 L 23.00 4.00 L 23.50 4.00 L 24.00 4.00 L 24.50 4.00 L 25.00 4.00 L 25.50 4.00 L 26.00 4.00 L 26.50 4.00 L 27.00 4.00 L 27.50 4.00 L 28.00 4.00 L 28.50 4.00 L 29.00 4.00 L 29.50 4.00 L 30.00 4.00 L 30.50 4.00 L 31.00 4.00 L 31.50 4.00 L 32.00 4.00 L 32.50 4.00 L 33.00 4.00 L 33.50 4.00 L 34.00 4.00 L 34.50 4.00 L 35.00 4.00 L 35.50 4.00 L 36.00 4.00 L 36.50 4.00 L 37.00 4.00 L 37.47 3.97 L 37.82 3.82 L 37.94 3.50 L 37.82 3.18 L 37.47 3.03 L 37.00 3.00 L 36.50 3.00 L 36.00 3.00 L 35.50 3.00 L 35.00 3.00 L 34.50 3.00 L 34.00 3.00 L 33.50 3.00 L 33.00 3.00 L 32.50 3.00 L 32.00 3.00 L 31.50 3.00 L 31.00 3.00 L 30.50 3.00 L 30.00 3.00 L 29.50 3.00 L 29.00 3.00 L 28.50 3.00 L 28.00 3.00 L 27.50 3.00 L 27.00 3.00 L 26.50 3.00 L 26.00 3.00 L 25.50 3.00 L 25.00 3.00 L 24.50 3.00 L 24.00 3.00 L 23.50 3.00 L 23.00 3.00 L 22.53 3.03 Z" fill="rgb(173,170,166)" fill-rule="evenodd"/>
  <path d="M 277.19 0.19 L 277.03 0.54 L 277.01 1.02 L 277.04 1.49 L 277.21 1.83 L 277.57 2.01 L 278.00 2.16 L 278.40 2.42 L 278.79 2.71 L 279.22 2.91 L 279.70 2.98 L 280.20 3.00 L 280.71 3.00 L 281.22 3.00 L 281.73 3.00 L 282.24 3.00 L 282.75 3.00 L 283.26 3.00 L 283.78 3.00 L 284.29 3.00 L 284.80 3.00 L 285.31 3.00 L 285.82 3.00 L 286.32 3.02 L 286.80 3.10 L 287.22 3.30 L 287.61 3.60 L 288.02 3.85 L 288.48 3.97 L 288.98 4.00 L 289.49 4.00 L 290.00 4.00 L 290.51 4.00 L 291.02 4.00 L 291.53 4.00 L 292.04 4.00 L 292.55 4.00 L 293.06 4.00 L 293.57 4.00 L 294.08 4.00 L 294.59 4.00 L 295.10 4.00 L 295.61 4.00 L 296.11 3.99 L 296.56 3.92 L 296.87 3.72 L 297.03 3.34 L 297.21 2.92 L 297.50 2.54 L 297.88 2.24 L 298.31 2.07 L 298.80 2.01 L 299.31 2.00 L 299.82 2.00 L 300.33 2.00 L 300.84 2.00 L 301.35 2.00 L 301.86 2.00 L 302.37 2.00 L 302.88 2.00 L 303.36 1.97 L 303.74 1.84 L 303.94 1.53 L 303.99 1.07 L 303.97 0.60 L 303.83 0.23 L 303.50 0.05 L 303.03 0.01 L 302.53 0.00 L 302.02 0.00 L 301.51 0.00 L 300.99 0.00 L 300.48 0.00 L 299.97 0.00 L 299.46 0.00 L 298.95 0.00 L 298.44 0.00 L 297.93 0.00 L 297.42 0.00 L 296.91 0.00 L 296.40 0.00 L 295.89 0.00 L 295.38 0.00 L 294.87 0.00 L 294.36 0.00 L 293.85 0.00 L 293.34 0.00 L 292.83 0.00 L 292.32 0.00 L 291.81 0.00 L 291.29 0.00 L 290.78 0.00 L 290.27 0.00 L 289.76 0.00 L 289.25 0.00 L 288.74 0.00 L 288.23 0.00 L 287.72 0.00 L 287.21 0.00 L 286.70 0.00 L 286.19 0.00 L 285.68 0.00 L 285.17 0.00 L 284.66 0.00 L 284.15 0.00 L 283.64 0.00 L 283.13 0.00 L 282.62 0.00 L 282.11 0.00 L 281.59 0.00 L 281.08 0.00 L 280.57 0.00 L 280.06 0.00 L 279.55 0.00 L 279.04 0.00 L 278.53 0.00 L 278.02 0.00 L 277.54 0.03 Z M 54.18 0.18 L 54.03 0.53 L 54.00 1.00 L 54.03 1.47 L 54.18 1.82 L 54.53 1.97 L 55.00 2.00 L 55.50 2.00 L 56.00 2.00 L 56.50 2.00 L 57.00 2.00 L 57.47 1.97 L 57.82 1.82 L 57.97 1.47 L 58.00 1.00 L 57.97 0.53 L 57.82 0.18 L 57.47 0.03 L 57.00 0.00 L 56.50 0.00 L 56.00 0.00 L 55.50 0.00 L 55.00 0.00 L 54.53 0.03 Z M 45.49 0.53 L 41.70 3.70 L 36.21 4.95 L 30.23 5.00 L 24.22 5.00 L 19.04 6.98 L 15.32 11.44 L 11.29 15.77 L 7.67 19.83 L 3.75 23.48 L 0.08 24.85 L 0.00 30.78 L 0.00 36.78 L 0.00 42.79 L 0.00 48.79 L 0.00 54.80 L 0.00 60.81 L 0.00 66.81 L 0.00 72.82 L 0.00 78.82 L 0.00 84.83 L 0.00 90.83 L 1.79 94.66 L 6.42 96.43 L 10.67 100.67 L 14.47 105.02 L 18.71 108.77 L 22.05 113.23 L 26.11 117.13 L 29.69 121.65 L 33.74 125.89 L 37.76 129.70 L 42.83 131.95 L 48.69 132.26 L 54.01 132.04 L 60.00 132.00 L 66.01 132.00 L 72.01 132.00 L 78.02 132.00 L 84.02 132.00 L 90.03 132.00 L 96.03 132.00 L 100.93 130.66 L 105.88 131.82 L 111.81 132.00 L 117.81 132.00 L 123.82 132.00 L 129.83 132.00 L 135.83 132.00 L 141.84 132.00 L 147.84 132.00 L 153.85 132.00 L 159.85 132.00 L 165.86 132.00 L 171.64 132.54 L 177.46 133.00 L 183.17 132.30 L 189.05 132.00 L 194.70 132.47 L 198.54 129.40 L 201.56 124.96 L 204.65 120.66 L 208.22 116.57 L 211.42 111.89 L 215.64 108.12 L 218.69 103.64 L 219.63 100.08 L 221.74 95.95 L 226.90 93.98 L 230.14 90.01 L 233.26 85.82 L 237.69 82.14 L 241.20 77.68 L 244.77 73.57 L 248.60 69.33 L 251.54 64.58 L 256.19 64.55 L 256.04 68.41 L 252.99 72.93 L 249.58 76.98 L 246.09 81.05 L 242.73 84.94 L 239.58 89.10 L 235.32 92.85 L 231.84 97.31 L 228.32 101.31 L 225.34 105.64 L 221.84 109.82 L 218.48 113.96 L 214.99 118.02 L 211.42 122.04 L 208.27 126.63 L 205.22 130.59 L 209.73 132.00 L 215.50 131.43 L 218.88 127.50 L 219.66 123.57 L 222.93 123.08 L 226.45 118.70 L 229.67 114.64 L 232.86 110.38 L 237.14 106.56 L 240.41 102.14 L 243.49 97.95 L 247.00 93.95 L 250.68 89.85 L 253.80 85.54 L 257.51 81.48 L 261.26 77.44 L 264.52 73.04 L 268.01 68.98 L 271.63 64.64 L 274.87 60.46 L 278.66 61.44 L 278.54 66.66 L 276.54 71.14 L 272.52 74.77 L 269.52 79.37 L 265.37 83.11 L 262.01 87.31 L 258.98 91.85 L 255.88 96.01 L 252.09 99.89 L 248.47 104.06 L 245.41 108.49 L 242.14 112.56 L 237.94 116.27 L 234.77 120.56 L 231.74 125.05 L 228.39 129.06 L 227.70 131.92 L 233.60 132.00 L 239.14 130.89 L 242.98 127.06 L 245.62 122.70 L 249.57 118.87 L 252.94 114.87 L 255.41 109.94 L 259.16 106.61 L 263.01 102.82 L 265.98 98.05 L 269.87 94.22 L 273.37 90.24 L 276.55 85.78 L 281.35 85.46 L 282.00 80.17 L 281.59 74.51 L 280.86 69.92 L 280.29 64.48 L 280.05 59.19 L 280.54 53.61 L 280.00 48.03 L 279.48 42.61 L 276.36 45.30 L 272.10 49.01 L 269.06 53.67 L 265.23 57.53 L 261.58 61.47 L 257.13 62.87 L 257.20 58.01 L 260.51 53.89 L 264.49 49.67 L 267.72 45.62 L 271.24 41.49 L 275.30 37.90 L 279.54 38.23 L 277.40 36.47 L 276.96 32.08 L 277.71 26.57 L 277.00 20.91 L 277.00 14.91 L 277.00 8.90 L 274.84 5.06 L 269.23 4.20 L 263.82 4.66 L 264.09 1.73 L 262.81 1.42 L 258.66 3.22 L 255.10 0.08 L 249.17 0.00 L 243.62 0.48 L 239.71 2.69 L 235.92 0.06 L 231.49 1.02 L 233.18 4.19 L 228.42 5.46 L 223.75 3.28 L 220.35 0.09 L 214.43 0.00 L 208.43 0.01 L 205.79 1.97 L 204.27 4.99 L 200.61 7.41 L 196.41 5.16 L 193.04 1.37 L 188.29 0.00 L 182.29 0.01 L 180.07 1.69 L 185.65 2.12 L 185.98 4.79 L 180.12 4.96 L 175.53 3.32 L 170.30 4.94 L 165.05 3.89 L 161.03 4.79 L 155.14 5.00 L 149.37 4.63 L 151.07 2.05 L 157.05 2.00 L 160.35 0.47 L 154.94 0.00 L 149.19 0.26 L 145.42 3.06 L 140.74 4.95 L 135.45 3.29 L 129.80 3.57 L 126.49 2.88 L 124.64 0.48 L 120.71 3.22 L 115.44 4.95 L 109.98 3.70 L 104.65 3.94 L 99.27 4.64 L 94.50 2.98 L 90.43 0.50 L 84.90 0.00 L 78.89 0.00 L 72.88 0.00 L 66.88 0.00 L 62.37 1.26 L 60.63 4.89 L 54.69 5.00 L 48.69 4.98 L 45.97 2.66 L 46.49 0.18 Z M 55.16 122.06 L 55.44 121.62 L 55.86 121.28 L 56.36 121.08 L 56.91 121.02 L 57.47 121.04 L 57.99 121.18 L 58.43 121.49 L 58.76 121.91 L 58.93 122.42 L 58.99 122.97 L 59.00 123.55 L 58.99 124.12 L 58.91 124.67 L 58.71 125.16 L 58.36 125.57 L 57.91 125.85 L 57.41 125.91 L 56.91 125.75 L 56.49 125.43 L 56.18 124.99 L 55.99 124.49 L 55.81 123.98 L 55.52 123.52 L 55.23 123.07 L 55.09 122.57 Z M 32.13 117.05 L 32.37 116.67 L 32.70 116.34 L 33.09 116.12 L 33.54 116.02 L 34.01 116.00 L 34.49 116.02 L 34.94 116.12 L 35.32 116.36 L 35.65 116.69 L 35.88 117.08 L 35.96 117.51 L 35.87 117.95 L 35.63 118.33 L 35.30 118.66 L 34.91 118.88 L 34.46 118.98 L 33.99 119.00 L 33.51 118.98 L 33.06 118.88 L 32.68 118.64 L 32.35 118.31 L 32.12 117.92 L 32.04 117.49 Z M 73.15 113.06 L 73.43 112.62 L 73.84 112.29 L 74.32 112.10 L 74.82 112.13 L 75.27 112.36 L 75.65 112.74 L 75.89 113.20 L 75.98 113.73 L 76.00 114.29 L 76.00 114.86 L 75.97 115.42 L 75.85 115.94 L 75.57 116.38 L 75.16 116.71 L 74.68 116.90 L 74.18 116.87 L 73.73 116.64 L 73.35 116.26 L 73.11 115.80 L 73.02 115.27 L 73.00 114.71 L 73.00 114.14 L 73.03 113.58 Z M 69.00 107.00 L 69.43 106.59 L 69.89 106.26 L 70.40 106.10 L 70.92 106.16 L 71.38 106.45 L 71.73 106.88 L 71.92 107.39 L 72.00 107.96 L 72.06 108.53 L 72.23 109.06 L 72.53 109.53 L 72.82 110.01 L 72.96 110.55 L 72.98 111.13 L 72.90 111.69 L 72.68 112.20 L 72.33 112.65 L 71.92 113.08 L 71.49 113.48 L 71.02 113.79 L 70.49 113.95 L 69.92 113.98 L 69.35 113.91 L 68.84 113.71 L 68.38 113.36 L 67.96 112.95 L 67.55 112.52 L 67.23 112.06 L 67.10 111.54 L 67.18 111.03 L 67.46 110.55 L 67.76 110.08 L 67.94 109.55 L 68.00 108.98 L 68.07 108.41 L 68.26 107.89 L 68.59 107.43 Z M 80.00 103.00 L 80.41 102.61 L 80.84 102.28 L 81.33 102.10 L 81.83 102.13 L 82.29 102.37 L 82.72 102.73 L 83.12 103.12 L 83.51 103.54 L 83.80 103.98 L 83.95 104.49 L 83.99 105.05 L 84.00 105.62 L 84.02 106.18 L 84.10 106.72 L 84.31 107.21 L 84.61 107.65 L 84.87 108.12 L 84.98 108.64 L 85.00 109.21 L 85.00 109.78 L 85.00 110.35 L 85.00 110.92 L 84.96 111.48 L 84.82 111.99 L 84.54 112.45 L 84.25 112.90 L 84.07 113.39 L 84.01 113.94 L 84.00 114.51 L 83.99 115.08 L 83.93 115.62 L 83.74 116.12 L 83.45 116.56 L 83.17 117.02 L 83.04 117.54 L 83.00 118.10 L 83.00 118.67 L 82.98 119.23 L 82.89 119.77 L 82.66 120.24 L 82.30 120.62 L 81.84 120.86 L 81.34 120.90 L 80.86 120.72 L 80.45 120.39 L 80.16 119.95 L 80.03 119.43 L 79.98 118.89 L 79.88 118.42 L 79.61 118.11 L 79.18 117.91 L 78.73 117.65 L 78.31 117.29 L 77.90 116.90 L 77.51 116.49 L 77.21 116.04 L 77.05 115.53 L 77.02 114.98 L 77.06 114.44 L 77.22 113.93 L 77.52 113.48 L 77.80 113.03 L 77.98 112.53 L 78.16 112.03 L 78.46 111.60 L 78.87 111.26 L 79.33 111.05 L 79.73 110.83 L 79.94 110.46 L 80.00 109.95 L 80.07 109.41 L 80.24 108.91 L 80.53 108.46 L 80.81 108.01 L 80.90 107.55 L 80.74 107.19 L 80.33 107.03 L 79.81 107.03 L 79.36 107.14 L 79.08 107.44 L 78.88 107.88 L 78.61 108.32 L 78.21 108.68 L 77.74 108.90 L 77.20 108.98 L 76.64 108.98 L 76.12 108.87 L 75.67 108.60 L 75.31 108.20 L 75.10 107.72 L 75.02 107.18 L 75.02 106.63 L 75.14 106.10 L 75.41 105.66 L 75.81 105.30 L 76.29 105.07 L 76.79 104.91 L 77.26 104.66 L 77.70 104.36 L 78.17 104.11 L 78.67 103.94 L 79.16 103.72 L 79.59 103.39 Z M 54.16 98.06 L 54.44 97.62 L 54.86 97.28 L 55.36 97.08 L 55.91 97.01 L 56.48 97.00 L 57.06 97.01 L 57.61 97.07 L 58.11 97.26 L 58.54 97.59 L 58.83 98.04 L 58.97 98.56 L 58.98 99.12 L 58.91 99.67 L 58.71 100.16 L 58.36 100.57 L 57.91 100.86 L 57.38 100.97 L 56.81 100.98 L 56.27 100.90 L 55.78 100.68 L 55.35 100.33 L 54.93 99.93 L 54.54 99.51 L 54.23 99.07 L 54.09 98.57 Z M 79.16 81.06 L 79.44 80.62 L 79.86 80.28 L 80.36 80.08 L 80.91 80.01 L 81.48 80.00 L 82.06 80.01 L 82.61 80.07 L 83.11 80.26 L 83.54 80.59 L 83.83 81.04 L 83.97 81.56 L 83.98 82.12 L 83.91 82.67 L 83.71 83.16 L 83.36 83.57 L 82.91 83.85 L 82.41 83.91 L 81.91 83.76 L 81.45 83.46 L 80.99 83.17 L 80.49 82.99 L 79.99 82.81 L 79.55 82.49 L 79.23 82.06 L 79.09 81.57 Z M 258.14 68.06 L 258.45 67.61 L 258.88 67.27 L 259.38 67.10 L 259.90 67.15 L 260.37 67.42 L 260.80 67.81 L 261.22 68.23 L 261.60 68.66 L 261.87 69.14 L 261.98 69.69 L 262.00 70.27 L 262.00 70.86 L 262.00 71.45 L 261.99 72.04 L 261.92 72.61 L 261.73 73.12 L 261.40 73.57 L 261.00 74.00 L 260.57 74.40 L 260.12 74.73 L 259.62 74.90 L 259.10 74.85 L 258.63 74.58 L 258.20 74.19 L 257.78 73.77 L 257.40 73.34 L 257.13 72.86 L 257.02 72.31 L 257.00 71.73 L 257.00 71.14 L 257.04 70.56 L 257.17 70.03 L 257.46 69.55 L 257.76 69.08 L 257.96 68.58 Z M 181.00 63.00 L 181.43 62.59 L 181.90 62.26 L 182.41 62.10 L 182.94 62.17 L 183.42 62.45 L 183.85 62.86 L 184.27 63.28 L 184.64 63.73 L 184.87 64.23 L 184.87 64.75 L 184.64 65.24 L 184.25 65.64 L 183.76 65.88 L 183.20 65.98 L 182.60 66.00 L 182.00 65.99 L 181.43 65.93 L 180.90 65.74 L 180.46 65.40 L 180.17 64.94 L 180.10 64.41 L 180.26 63.90 L 180.59 63.43 Z M 243.14 25.05 L 243.43 24.62 L 243.84 24.29 L 244.32 24.10 L 244.82 24.13 L 245.27 24.36 L 245.65 24.74 L 245.89 25.20 L 245.98 25.73 L 246.02 26.29 L 246.12 26.81 L 246.35 27.29 L 246.66 27.73 L 246.91 28.18 L 247.10 28.61 L 247.41 28.88 L 247.88 28.98 L 248.42 29.02 L 248.94 29.15 L 249.40 29.41 L 249.84 29.72 L 250.32 29.94 L 250.82 30.10 L 251.27 30.36 L 251.65 30.74 L 251.89 31.20 L 251.98 31.73 L 251.98 32.29 L 251.88 32.81 L 251.64 33.27 L 251.26 33.64 L 250.80 33.87 L 250.30 33.89 L 249.83 33.71 L 249.38 33.41 L 248.92 33.14 L 248.40 33.02 L 247.84 33.00 L 247.28 33.00 L 246.72 32.98 L 246.19 32.88 L 245.72 32.64 L 245.30 32.29 L 244.89 31.89 L 244.51 31.48 L 244.20 31.04 L 244.01 30.57 L 243.79 30.20 L 243.38 30.03 L 242.84 30.00 L 242.28 30.00 L 241.72 29.98 L 241.19 29.88 L 240.71 29.65 L 240.27 29.34 L 239.80 29.10 L 239.30 28.93 L 238.83 28.71 L 238.43 28.37 L 238.15 27.93 L 238.08 27.43 L 238.23 26.94 L 238.54 26.52 L 238.97 26.21 L 239.47 26.05 L 240.02 26.01 L 240.59 26.00 L 241.15 26.00 L 241.72 26.00 L 242.27 25.97 L 242.70 25.84 L 242.95 25.50 Z M 186.15 20.06 L 186.41 19.64 L 186.80 19.30 L 187.26 19.09 L 187.77 19.02 L 188.30 19.02 L 188.81 19.11 L 189.25 19.34 L 189.62 19.69 L 189.88 20.13 L 189.98 20.63 L 189.99 21.16 L 189.92 21.67 L 189.73 22.14 L 189.41 22.54 L 189.00 22.82 L 188.52 22.93 L 188.04 22.85 L 187.61 22.58 L 187.22 22.22 L 186.83 21.83 L 186.47 21.44 L 186.19 21.01 L 186.07 20.54 Z M 242.14 3.06 L 242.40 2.64 L 242.78 2.31 L 243.22 2.10 L 243.71 2.02 L 244.23 2.00 L 244.76 2.00 L 245.29 2.00 L 245.82 2.00 L 246.35 2.00 L 246.88 2.00 L 247.41 2.00 L 247.94 2.00 L 248.47 2.00 L 249.00 2.00 L 249.53 2.00 L 250.06 2.00 L 250.59 2.00 L 251.12 2.00 L 251.65 2.00 L 252.18 2.00 L 252.71 2.00 L 253.23 2.01 L 253.73 2.09 L 254.18 2.28 L 254.56 2.60 L 254.83 3.01 L 254.94 3.48 L 254.86 3.94 L 254.60 4.36 L 254.22 4.69 L 253.78 4.90 L 253.29 4.98 L 252.77 5.00 L 252.24 5.00 L 251.71 5.00 L 251.18 5.00 L 250.65 5.00 L 250.12 5.00 L 249.59 5.00 L 249.06 5.00 L 248.53 5.00 L 248.00 5.00 L 247.47 5.00 L 246.94 5.00 L 246.41 5.00 L 245.88 5.00 L 245.35 5.00 L 244.82 5.00 L 244.29 5.00 L 243.77 4.99 L 243.27 4.91 L 242.82 4.72 L 242.44 4.40 L 242.17 3.99 L 242.06 3.52 Z M 235.13 3.05 L 235.37 2.67 L 235.70 2.34 L 236.09 2.12 L 236.54 2.02 L 237.01 2.00 L 237.49 2.02 L 237.94 2.12 L 238.32 2.36 L 238.65 2.69 L 238.88 3.08 L 238.96 3.51 L 238.87 3.95 L 238.63 4.33 L 238.30 4.66 L 237.91 4.88 L 237.46 4.98 L 236.99 5.00 L 236.51 4.98 L 236.06 4.88 L 235.68 4.64 L 235.35 4.31 L 235.12 3.92 L 235.04 3.49 Z M 208.15 3.06 L 208.43 2.62 L 208.83 2.29 L 209.31 2.09 L 209.85 2.01 L 210.40 2.00 L 210.97 2.00 L 211.53 2.00 L 212.10 2.00 L 212.66 2.00 L 213.22 2.00 L 213.79 2.00 L 214.35 2.00 L 214.91 2.00 L 215.48 2.00 L 216.04 2.00 L 216.61 2.00 L 217.17 2.00 L 217.73 2.00 L 218.29 2.02 L 218.81 2.12 L 219.27 2.36 L 219.64 2.73 L 219.87 3.18 L 219.90 3.68 L 219.72 4.15 L 219.40 4.58 L 219.01 4.98 L 218.61 5.37 L 218.19 5.70 L 217.71 5.89 L 217.22 5.88 L 216.75 5.67 L 216.32 5.37 L 215.85 5.12 L 215.33 5.02 L 214.78 5.02 L 214.25 5.10 L 213.78 5.31 L 213.34 5.62 L 212.88 5.87 L 212.36 5.98 L 211.81 5.98 L 211.28 5.91 L 210.81 5.70 L 210.37 5.40 L 209.91 5.13 L 209.42 4.96 L 208.93 4.78 L 208.52 4.46 L 208.21 4.04 L 208.08 3.55 Z M 82.14 3.06 L 82.41 2.64 L 82.79 2.31 L 83.24 2.10 L 83.74 2.02 L 84.27 2.00 L 84.81 2.00 L 85.35 2.00 L 85.89 2.00 L 86.42 2.00 L 86.96 2.00 L 87.50 2.00 L 88.04 2.00 L 88.58 2.00 L 89.11 2.00 L 89.65 2.00 L 90.18 2.01 L 90.69 2.08 L 91.15 2.27 L 91.54 2.59 L 91.82 3.00 L 91.94 3.47 L 91.86 3.94 L 91.59 4.36 L 91.21 4.69 L 90.76 4.90 L 90.26 4.98 L 89.73 5.00 L 89.19 5.00 L 88.65 5.00 L 88.11 5.00 L 87.58 5.00 L 87.04 5.00 L 86.50 5.00 L 85.96 5.00 L 85.42 5.00 L 84.89 5.00 L 84.35 5.00 L 83.82 4.99 L 83.31 4.92 L 82.85 4.73 L 82.46 4.41 L 82.18 4.00 L 82.06 3.53 Z M 65.14 3.06 L 65.40 2.65 L 65.77 2.31 L 66.21 2.10 L 66.70 2.02 L 67.22 2.00 L 67.75 2.00 L 68.28 2.00 L 68.81 2.00 L 69.33 2.00 L 69.86 2.00 L 70.39 2.00 L 70.92 2.00 L 71.44 2.00 L 71.97 2.00 L 72.50 2.00 L 73.03 2.00 L 73.56 2.00 L 74.08 2.00 L 74.61 2.00 L 75.14 2.00 L 75.67 2.00 L 76.19 2.00 L 76.72 2.00 L 77.24 2.01 L 77.74 2.09 L 78.18 2.29 L 78.56 2.61 L 78.83 3.01 L 78.94 3.48 L 78.86 3.94 L 78.60 4.35 L 78.23 4.69 L 77.79 4.90 L 77.30 4.98 L 76.78 5.00 L 76.25 5.00 L 75.72 5.00 L 75.19 5.00 L 74.67 5.00 L 74.14 5.00 L 73.61 5.00 L 73.08 5.00 L 72.56 5.00 L 72.03 5.00 L 71.50 5.00 L 70.97 5.00 L 70.44 5.00 L 69.92 5.00 L 69.39 5.00 L 68.86 5.00 L 68.33 5.00 L 67.81 5.00 L 67.28 5.00 L 66.76 4.99 L 66.26 4.91 L 65.82 4.71 L 65.44 4.39 L 65.17 3.99 L 65.06 3.52 Z" fill="rgb(228,225,221)" fill-rule="evenodd"/>
</svg>