<svg xmlns="http://www.w3.org/2000/svg" viewBox="0 0 1274 622" width="1274" height="622" role="img" aria-label="00_full_logo_trace">
  <title>00_full_logo_trace</title>
  <path d="M 711.64 379.54 L 711.12 379.65 L 710.60 379.75 L 710.08 379.86 L 709.56 379.97 L 709.04 380.07 L 708.52 380.17 L 708.00 380.27 L 707.48 380.38 L 706.96 380.49 L 706.44 380.59 L 705.91 380.69 L 705.39 380.79 L 704.87 380.90 L 704.35 381.01 L 703.83 381.11 L 703.31 381.22 L 702.79 381.32 L 702.28 381.45 L 701.78 381.61 L 701.34 381.91 L 700.91 382.23 L 700.47 382.52 L 700.02 382.82 L 699.59 383.14 L 699.15 383.44 L 698.71 383.74 L 698.27 384.03 L 697.84 384.36 L 697.40 384.65 L 696.96 384.95 L 696.52 385.25 L 696.09 385.57 L 695.65 385.87 L 695.28 386.27 L 695.02 386.73 L 694.75 387.18 L 694.47 387.63 L 694.20 388.08 L 693.93 388.54 L 693.66 388.99 L 693.38 389.44 L 693.11 389.89 L 692.85 390.34 L 692.58 390.80 L 692.50 391.33 L 692.50 391.89 L 692.50 392.46 L 692.50 393.02 L 692.50 393.58 L 692.50 394.15 L 692.50 394.71 L 692.50 395.28 L 692.50 395.84 L 692.50 396.41 L 692.50 396.97 L 692.50 397.53 L 692.50 398.10 L 692.52 398.66 L 692.75 399.12 L 693.15 399.52 L 693.55 399.92 L 693.95 400.32 L 694.34 400.72 L 694.74 401.11 L 695.18 401.30 L 695.69 401.19 L 696.20 401.06 L 696.71 400.93 L 697.22 400.81 L 697.73 400.68 L 698.24 400.55 L 698.75 400.42 L 699.26 400.29 L 699.78 400.16 L 700.29 400.03 L 700.80 399.91 L 701.31 399.78 L 701.82 399.65 L 702.33 399.53 L 702.84 399.40 L 703.36 399.27 L 703.87 399.14 L 704.38 399.01 L 704.89 398.88 L 705.40 398.76 L 705.91 398.63 L 706.42 398.50 L 706.93 398.38 L 707.45 398.25 L 707.96 398.12 L 708.47 397.99 L 708.98 397.87 L 709.49 397.74 L 710.00 397.61 L 710.51 397.48 L 711.04 397.38 L 711.60 397.38 L 712.16 397.38 L 712.73 397.38 L 713.29 397.38 L 713.85 397.38 L 714.42 397.38 L 714.98 397.38 L 715.55 397.38 L 716.11 397.38 L 716.68 397.38 L 717.24 397.38 L 717.80 397.38 L 718.37 397.38 L 718.93 397.38 L 719.50 397.38 L 720.06 397.38 L 720.62 397.38 L 721.19 397.38 L 721.75 397.38 L 722.26 397.51 L 722.76 397.67 L 723.25 397.85 L 723.74 398.03 L 724.23 398.20 L 724.72 398.39 L 725.21 398.57 L 725.70 398.73 L 726.19 398.93 L 726.68 399.10 L 727.17 399.27 L 727.66 399.47 L 728.15 399.64 L 728.64 399.81 L 729.13 400.00 L 729.62 400.17 L 730.11 400.34 L 730.60 400.53 L 731.10 400.70 L 731.58 400.88 L 732.07 401.06 L 732.57 401.23 L 733.03 401.25 L 733.48 401.00 L 733.91 400.68 L 734.35 400.38 L 734.78 400.06 L 735.22 399.76 L 735.65 399.44 L 736.09 399.13 L 736.35 398.69 L 736.28 398.17 L 736.25 397.63 L 736.16 397.09 L 736.12 396.55 L 736.05 396.01 L 736.00 395.47 L 735.94 394.93 L 735.88 394.39 L 735.82 393.85 L 735.75 393.32 L 735.71 392.77 L 735.63 392.24 L 735.59 391.69 L 735.50 391.16 L 735.47 390.61 L 735.35 390.10 L 735.11 389.63 L 734.74 389.22 L 734.41 388.79 L 734.02 388.39 L 733.68 387.97 L 733.31 387.56 L 732.96 387.14 L 732.60 386.72 L 732.22 386.32 L 731.89 385.89 L 731.51 385.48 L 731.17 385.06 L 730.78 384.66 L 730.44 384.23 L 730.07 383.82 L 729.73 383.40 L 729.36 382.99 L 728.96 382.59 L 728.51 382.33 L 728.02 382.14 L 727.54 381.94 L 727.06 381.75 L 726.57 381.56 L 726.09 381.36 L 725.61 381.16 L 725.12 380.97 L 724.63 380.78 L 724.15 380.60 L 723.62 380.50 L 723.09 380.41 L 722.55 380.38 L 721.99 380.36 L 721.46 380.27 L 720.91 380.25 L 720.35 380.22 L 719.83 380.13 L 719.26 380.12 L 718.72 380.07 L 718.19 380.00 L 717.63 380.00 L 717.09 379.91 L 716.55 379.88 L 715.99 379.86 L 715.46 379.77 L 714.91 379.75 L 714.35 379.72 L 713.83 379.63 L 713.27 379.62 L 712.72 379.57 L 712.19 379.50 Z M 719.98 384.46 L 720.36 384.39 L 720.77 384.39 L 721.14 384.47 L 721.50 384.60 L 721.86 384.74 L 722.21 384.88 L 722.56 385.02 L 722.91 385.17 L 723.27 385.31 L 723.62 385.45 L 723.98 385.58 L 724.33 385.73 L 724.68 385.87 L 725.03 386.01 L 725.39 386.16 L 725.74 386.30 L 726.07 386.50 L 726.37 386.75 L 726.67 387.04 L 726.96 387.33 L 727.25 387.62 L 727.54 387.91 L 727.83 388.21 L 728.12 388.50 L 728.41 388.79 L 728.70 389.08 L 729.00 389.37 L 729.29 389.66 L 729.58 389.95 L 729.87 390.24 L 730.16 390.54 L 730.38 390.85 L 730.49 391.22 L 730.50 391.63 L 730.50 392.04 L 730.50 392.45 L 730.50 392.86 L 730.50 393.28 L 730.50 393.69 L 730.50 394.10 L 730.50 394.51 L 730.41 394.87 L 730.12 395.08 L 729.76 395.20 L 729.40 395.32 L 729.05 395.42 L 728.70 395.37 L 728.36 395.21 L 728.02 395.04 L 727.68 394.87 L 727.34 394.70 L 727.00 394.53 L 726.65 394.36 L 726.31 394.19 L 725.97 394.02 L 725.63 393.85 L 725.29 393.68 L 724.94 393.54 L 724.54 393.50 L 724.13 393.50 L 723.72 393.50 L 723.31 393.50 L 722.89 393.50 L 722.48 393.50 L 722.07 393.50 L 721.66 393.50 L 721.25 393.50 L 720.84 393.50 L 720.42 393.50 L 720.01 393.50 L 719.60 393.50 L 719.19 393.50 L 718.78 393.50 L 718.37 393.50 L 717.95 393.50 L 717.54 393.50 L 717.13 393.50 L 716.72 393.50 L 716.31 393.50 L 715.90 393.50 L 715.48 393.50 L 715.07 393.50 L 714.66 393.50 L 714.25 393.50 L 713.84 393.50 L 713.42 393.50 L 713.01 393.50 L 712.60 393.50 L 712.19 393.50 L 711.78 393.50 L 711.37 393.50 L 710.95 393.50 L 710.54 393.50 L 710.13 393.50 L 709.72 393.50 L 709.31 393.50 L 708.90 393.50 L 708.48 393.50 L 708.07 393.50 L 707.66 393.50 L 707.25 393.50 L 706.84 393.50 L 706.43 393.50 L 706.01 393.50 L 705.60 393.50 L 705.19 393.50 L 704.81 393.56 L 704.43 393.66 L 704.07 393.77 L 703.71 393.89 L 703.34 394.01 L 702.98 394.13 L 702.62 394.25 L 702.26 394.37 L 701.90 394.49 L 701.53 394.61 L 701.17 394.73 L 700.81 394.85 L 700.45 394.98 L 700.09 395.10 L 699.73 395.22 L 699.36 395.33 L 699.02 395.29 L 698.86 394.99 L 698.77 394.62 L 698.75 394.21 L 698.72 393.81 L 698.64 393.43 L 698.62 393.03 L 698.58 392.63 L 698.51 392.25 L 698.50 391.85 L 698.44 391.46 L 698.41 391.09 L 698.54 390.73 L 698.74 390.40 L 698.98 390.09 L 699.20 389.77 L 699.43 389.45 L 699.66 389.13 L 699.88 388.81 L 700.11 388.50 L 700.34 388.18 L 700.56 387.86 L 700.82 387.56 L 701.13 387.31 L 701.48 387.16 L 701.83 387.02 L 702.18 386.88 L 702.54 386.73 L 702.89 386.59 L 703.24 386.46 L 703.60 386.31 L 703.95 386.17 L 704.30 386.03 L 704.66 385.89 L 705.01 385.75 L 705.36 385.61 L 705.72 385.47 L 706.09 385.39 L 706.50 385.37 L 706.89 385.32 L 707.28 385.26 L 707.69 385.25 L 708.10 385.25 L 708.50 385.24 L 708.89 385.17 L 709.28 385.13 L 709.69 385.13 L 710.10 385.12 L 710.51 385.10 L 710.88 385.02 L 711.29 385.00 L 711.70 385.00 L 712.11 385.00 L 712.50 384.95 L 712.89 384.88 L 713.29 384.88 L 713.71 384.87 L 714.11 384.87 L 714.50 384.80 L 714.89 384.75 L 715.30 384.75 L 715.71 384.75 L 716.12 384.73 L 716.49 384.65 L 716.90 384.63 L 717.31 384.62 L 717.72 384.62 L 718.11 384.58 L 718.49 384.51 L 718.90 384.50 L 719.31 384.50 L 719.72 384.49 Z M 427.89 322.55 L 420.62 325.80 L 416.15 332.54 L 414.50 340.48 L 414.50 349.10 L 414.50 357.72 L 414.50 366.33 L 414.50 374.95 L 414.50 383.57 L 414.50 392.19 L 414.50 400.81 L 414.50 409.43 L 414.50 418.05 L 414.50 426.67 L 414.50 435.29 L 410.08 441.79 L 402.84 445.11 L 394.69 446.25 L 386.75 445.12 L 379.34 442.20 L 373.42 436.41 L 369.08 429.58 L 366.22 422.15 L 364.43 414.27 L 363.09 406.20 L 362.38 397.88 L 362.38 389.26 L 361.25 381.11 L 361.12 372.54 L 360.88 364.02 L 360.75 355.46 L 360.51 346.93 L 360.37 338.37 L 357.37 331.00 L 350.90 325.98 L 342.48 325.50 L 333.86 325.50 L 325.46 324.97 L 317.04 324.50 L 308.42 324.50 L 299.80 324.50 L 291.18 324.50 L 282.56 324.50 L 273.94 324.50 L 265.32 324.50 L 258.22 328.16 L 253.66 334.89 L 252.50 343.03 L 252.50 351.65 L 252.50 360.27 L 252.50 368.89 L 252.50 377.51 L 252.50 386.13 L 252.50 394.75 L 253.03 403.15 L 254.38 411.21 L 254.50 419.78 L 255.68 427.91 L 257.27 435.87 L 259.89 443.41 L 262.63 450.89 L 265.90 458.16 L 270.22 464.99 L 274.54 471.82 L 279.86 478.23 L 285.95 484.33 L 292.34 489.72 L 299.04 494.36 L 305.99 498.40 L 313.13 501.97 L 320.64 504.64 L 328.19 507.21 L 335.85 509.54 L 343.81 511.13 L 352.20 511.69 L 360.68 512.03 L 368.82 513.18 L 377.20 513.00 L 385.68 512.66 L 394.10 512.18 L 402.17 510.84 L 410.59 510.38 L 414.50 515.97 L 410.38 522.88 L 403.48 526.87 L 395.67 528.82 L 387.38 529.62 L 378.81 529.75 L 370.23 529.84 L 361.63 529.88 L 353.06 530.00 L 344.49 530.12 L 335.92 530.25 L 327.35 530.38 L 319.13 529.68 L 310.58 529.50 L 301.96 529.50 L 293.34 529.50 L 284.72 529.50 L 276.10 529.50 L 268.64 532.29 L 264.30 538.86 L 262.50 546.74 L 262.50 555.36 L 262.50 563.98 L 262.50 572.60 L 262.50 581.22 L 262.50 589.84 L 262.50 598.45 L 263.51 606.65 L 267.43 613.43 L 274.61 616.91 L 283.04 617.38 L 291.66 617.38 L 300.28 617.38 L 308.90 617.38 L 317.52 617.38 L 326.14 617.38 L 334.76 617.38 L 343.38 617.38 L 352.00 617.38 L 360.61 617.38 L 369.23 617.38 L 377.85 617.38 L 386.47 617.38 L 395.09 617.38 L 403.71 617.38 L 412.33 617.38 L 420.95 617.38 L 429.57 617.38 L 438.19 617.38 L 446.81 617.38 L 454.82 615.90 L 462.63 613.95 L 470.34 611.74 L 477.63 608.53 L 484.34 603.94 L 491.02 599.23 L 496.76 592.99 L 502.20 586.63 L 506.46 579.77 L 510.03 572.63 L 512.42 565.00 L 514.68 557.32 L 515.86 549.19 L 516.50 540.83 L 517.15 532.48 L 518.25 524.42 L 518.12 515.85 L 517.88 507.34 L 517.75 498.77 L 517.50 490.25 L 517.38 481.69 L 517.18 473.15 L 517.00 464.60 L 516.87 456.03 L 516.62 447.52 L 516.50 438.95 L 517.38 430.80 L 517.38 422.18 L 518.62 414.07 L 518.91 405.57 L 519.25 397.09 L 520.38 388.94 L 520.38 380.32 L 520.38 371.70 L 520.38 363.08 L 520.38 354.46 L 520.38 345.84 L 520.38 337.22 L 518.16 329.52 L 512.29 323.93 L 504.26 322.50 L 495.64 322.50 L 487.02 322.50 L 478.40 322.50 L 469.78 322.50 L 461.16 322.50 L 452.54 322.50 L 443.92 322.50 L 435.30 322.50 Z M 835.77 321.54 L 829.57 324.24 L 824.26 328.59 L 821.88 334.92 L 821.50 342.07 L 821.50 349.39 L 821.50 356.70 L 821.50 364.02 L 821.50 371.33 L 821.50 378.65 L 821.50 385.96 L 821.50 393.28 L 821.50 400.59 L 822.64 407.44 L 823.00 414.60 L 823.25 421.81 L 824.29 428.70 L 824.50 435.92 L 824.50 443.24 L 824.50 450.55 L 824.50 457.87 L 824.50 465.18 L 824.50 472.50 L 823.50 479.40 L 823.50 486.71 L 823.50 494.03 L 823.50 501.34 L 823.62 507.88 L 824.00 515.04 L 824.38 522.20 L 825.81 528.92 L 827.52 535.53 L 829.24 542.13 L 831.32 548.58 L 834.35 554.64 L 837.65 560.59 L 841.63 566.26 L 846.27 571.65 L 851.45 576.82 L 856.62 581.99 L 862.19 586.21 L 867.92 590.03 L 873.86 593.34 L 879.92 596.37 L 886.24 598.79 L 892.66 600.93 L 899.20 602.81 L 905.96 604.16 L 912.71 605.51 L 919.67 606.38 L 926.88 606.62 L 934.14 606.75 L 941.41 606.88 L 948.67 607.00 L 955.93 607.12 L 963.19 607.25 L 970.04 606.38 L 977.36 606.38 L 984.49 605.93 L 991.31 604.74 L 998.12 603.52 L 1004.63 601.58 L 1011.11 599.55 L 1017.56 597.48 L 1023.59 594.36 L 1029.58 591.18 L 1035.39 587.53 L 1040.97 583.35 L 1046.41 578.84 L 1051.59 573.66 L 1056.23 568.27 L 1060.48 562.72 L 1063.67 556.72 L 1066.86 550.73 L 1069.75 544.62 L 1071.62 538.07 L 1073.49 531.53 L 1075.36 524.99 L 1075.75 517.84 L 1076.13 510.68 L 1077.10 504.00 L 1076.38 496.98 L 1076.38 489.67 L 1076.38 482.35 L 1076.38 475.04 L 1076.38 467.72 L 1076.38 460.41 L 1076.38 453.09 L 1076.38 445.78 L 1076.38 438.46 L 1076.38 431.15 L 1076.38 423.83 L 1076.38 416.52 L 1076.38 409.20 L 1076.38 401.89 L 1076.38 394.57 L 1077.38 387.67 L 1077.38 380.36 L 1077.38 373.04 L 1077.38 365.73 L 1077.38 358.41 L 1077.38 351.10 L 1077.38 343.78 L 1076.50 336.83 L 1075.50 329.93 L 1070.99 324.49 L 1064.90 321.53 L 1057.59 321.50 L 1050.28 321.50 L 1042.96 321.50 L 1035.65 321.50 L 1028.33 321.50 L 1021.02 321.50 L 1013.70 321.50 L 1006.39 321.50 L 999.08 321.50 L 991.76 321.50 L 984.49 321.61 L 978.43 324.63 L 973.88 329.74 L 971.74 336.16 L 971.50 343.38 L 971.50 350.69 L 971.50 358.01 L 971.50 365.32 L 971.50 372.64 L 971.50 379.95 L 971.50 387.27 L 971.50 394.58 L 971.50 401.90 L 971.50 409.21 L 971.50 416.53 L 971.50 423.84 L 971.50 431.16 L 971.50 438.47 L 971.50 445.79 L 971.50 453.10 L 971.50 460.42 L 970.50 467.32 L 969.69 474.30 L 967.55 480.73 L 963.86 486.51 L 958.67 491.63 L 952.13 493.50 L 944.81 493.50 L 938.35 491.45 L 933.09 487.13 L 929.71 481.22 L 927.19 474.95 L 925.84 468.19 L 925.38 461.07 L 925.38 453.75 L 925.38 446.44 L 925.38 439.12 L 925.38 431.81 L 925.38 424.49 L 925.38 417.18 L 925.38 409.86 L 925.38 402.55 L 925.38 395.23 L 925.38 387.92 L 925.38 380.60 L 925.38 373.29 L 925.38 365.97 L 925.38 358.66 L 925.38 351.35 L 925.38 344.03 L 925.38 336.72 L 923.77 330.06 L 919.16 324.66 L 913.01 321.84 L 905.84 321.50 L 898.52 321.50 L 891.21 321.50 L 883.89 321.50 L 876.58 321.50 L 869.27 321.50 L 861.95 321.50 L 854.64 321.50 L 847.32 321.50 L 840.01 321.50 Z M 641.02 321.56 L 636.24 322.73 L 631.08 323.00 L 625.91 323.25 L 620.76 323.54 L 615.95 324.65 L 611.14 325.76 L 606.43 327.13 L 601.93 329.00 L 597.44 330.87 L 592.94 332.75 L 588.45 334.62 L 583.96 336.50 L 579.86 339.35 L 575.78 342.21 L 571.69 345.08 L 567.60 347.93 L 563.57 350.93 L 560.02 354.73 L 556.47 358.53 L 552.91 362.33 L 549.38 366.14 L 546.70 370.30 L 544.03 374.46 L 541.34 378.62 L 539.11 382.97 L 537.09 387.40 L 535.24 391.91 L 533.95 396.65 L 532.69 401.40 L 531.41 406.14 L 530.14 410.88 L 528.86 415.62 L 528.37 420.69 L 528.12 425.86 L 527.88 431.03 L 527.63 436.20 L 526.50 441.00 L 526.62 446.22 L 526.75 451.44 L 526.88 456.66 L 527.04 461.86 L 527.23 467.06 L 527.37 472.27 L 527.50 477.49 L 528.15 482.49 L 529.05 487.39 L 529.98 492.28 L 530.87 497.18 L 531.79 502.07 L 532.85 506.91 L 534.50 511.49 L 536.11 516.10 L 537.88 520.64 L 540.25 524.93 L 542.60 529.22 L 544.98 533.51 L 547.32 537.81 L 550.25 541.87 L 553.65 545.73 L 557.08 549.58 L 560.54 553.42 L 563.97 557.27 L 567.85 560.53 L 571.89 563.50 L 575.94 566.46 L 579.97 569.46 L 584.02 572.41 L 588.38 574.60 L 592.75 576.78 L 597.12 578.96 L 601.48 581.15 L 606.11 582.70 L 610.77 584.18 L 615.43 585.65 L 620.08 587.15 L 624.85 588.38 L 630.01 588.64 L 634.78 589.84 L 639.56 591.03 L 644.69 591.38 L 649.96 591.38 L 654.82 592.38 L 660.09 592.38 L 665.36 592.38 L 670.64 592.38 L 675.91 592.38 L 681.18 592.37 L 686.04 591.38 L 691.31 591.38 L 696.30 590.69 L 701.24 589.90 L 706.19 589.12 L 711.13 588.32 L 715.80 586.88 L 720.48 585.43 L 725.15 583.99 L 729.83 582.56 L 734.51 581.12 L 739.01 579.27 L 743.36 577.04 L 747.68 574.75 L 752.03 572.51 L 756.35 570.23 L 760.64 567.85 L 764.66 564.83 L 768.68 561.82 L 772.63 558.62 L 776.27 554.86 L 779.82 551.06 L 783.46 547.29 L 787.01 543.49 L 790.65 539.73 L 793.56 535.66 L 796.31 531.53 L 798.67 527.23 L 800.75 522.82 L 802.82 518.41 L 804.91 514.00 L 806.73 509.49 L 807.87 504.69 L 809.04 499.90 L 810.21 495.11 L 811.35 490.31 L 812.51 485.52 L 813.38 480.61 L 813.50 475.39 L 813.63 470.17 L 813.75 464.95 L 813.87 459.73 L 813.88 454.46 L 814.00 449.24 L 814.13 444.02 L 814.25 438.80 L 814.38 433.58 L 813.78 428.55 L 812.95 423.63 L 812.09 418.71 L 811.25 413.79 L 810.39 408.87 L 809.54 403.95 L 807.89 399.36 L 806.02 394.87 L 804.15 390.37 L 802.28 385.87 L 800.40 381.38 L 798.05 377.08 L 795.17 373.00 L 792.30 368.92 L 789.43 364.84 L 786.26 360.88 L 782.45 357.33 L 778.65 353.78 L 774.86 350.22 L 771.07 346.63 L 766.85 344.10 L 762.60 341.64 L 758.35 339.16 L 754.10 336.69 L 749.86 334.21 L 745.49 332.03 L 740.83 330.56 L 736.18 329.06 L 731.51 327.59 L 726.85 326.11 L 722.03 325.03 L 717.09 324.24 L 712.14 323.46 L 707.21 322.64 L 702.25 321.87 L 697.14 321.50 L 691.86 321.50 L 686.59 321.50 L 681.32 321.50 L 676.05 321.50 L 670.78 321.50 L 665.51 321.50 L 660.23 321.50 L 654.96 321.50 L 649.69 321.50 L 644.42 321.50 Z M 679.74 525.47 L 679.99 525.40 L 680.25 525.40 L 680.51 525.46 L 680.78 525.49 L 681.05 525.50 L 681.32 525.54 L 681.58 525.59 L 681.85 525.62 L 682.12 525.63 L 682.39 525.68 L 682.65 525.73 L 682.92 525.75 L 683.20 525.77 L 683.46 525.82 L 683.72 525.86 L 683.99 525.88 L 684.27 525.90 L 684.52 525.96 L 684.79 525.99 L 685.07 526.00 L 685.33 526.04 L 685.59 526.09 L 685.86 526.12 L 686.14 526.14 L 686.40 526.18 L 686.66 526.23 L 686.94 526.25 L 687.21 526.27 L 687.47 526.32 L 687.72 526.39 L 687.96 526.50 L 688.15 526.68 L 688.31 526.89 L 688.47 527.11 L 688.63 527.32 L 688.78 527.54 L 688.93 527.76 L 689.09 527.98 L 689.25 528.19 L 689.40 528.41 L 689.55 528.63 L 689.71 528.85 L 689.87 529.06 L 690.02 529.28 L 690.17 529.50 L 690.31 529.72 L 690.43 529.96 L 690.49 530.21 L 690.50 530.49 L 690.50 530.77 L 690.50 531.05 L 690.50 531.33 L 690.50 531.62 L 690.50 531.90 L 690.50 532.18 L 690.50 532.46 L 690.50 532.74 L 690.50 533.02 L 690.50 533.30 L 690.50 533.59 L 690.50 533.87 L 690.50 534.15 L 690.50 534.43 L 690.50 534.71 L 690.50 534.99 L 690.50 535.28 L 690.50 535.56 L 690.50 535.84 L 690.50 536.12 L 690.50 536.40 L 690.50 536.68 L 690.50 536.96 L 690.50 537.25 L 690.50 537.53 L 690.46 537.79 L 690.33 538.02 L 690.15 538.23 L 689.95 538.43 L 689.75 538.62 L 689.55 538.82 L 689.35 539.02 L 689.15 539.22 L 688.94 539.39 L 688.70 539.48 L 688.42 539.50 L 688.14 539.50 L 687.86 539.50 L 687.58 539.50 L 687.30 539.50 L 687.02 539.50 L 686.74 539.50 L 686.45 539.50 L 686.17 539.50 L 685.89 539.50 L 685.61 539.50 L 685.33 539.50 L 685.05 539.50 L 684.76 539.50 L 684.48 539.50 L 684.20 539.50 L 683.93 539.54 L 683.68 539.60 L 683.42 539.66 L 683.17 539.73 L 682.93 539.82 L 682.68 539.90 L 682.43 539.98 L 682.18 540.06 L 681.94 540.15 L 681.69 540.23 L 681.44 540.31 L 681.19 540.39 L 680.95 540.48 L 680.70 540.56 L 680.45 540.64 L 680.21 540.72 L 679.96 540.81 L 679.71 540.89 L 679.46 540.97 L 679.22 541.06 L 678.97 541.14 L 678.72 541.22 L 678.47 541.30 L 678.23 541.39 L 677.98 541.47 L 677.73 541.55 L 677.48 541.63 L 677.24 541.72 L 676.99 541.80 L 676.74 541.88 L 676.49 541.96 L 676.24 542.02 L 675.98 542.08 L 675.72 542.12 L 675.44 542.14 L 675.18 542.19 L 674.92 542.24 L 674.65 542.26 L 674.38 542.30 L 674.12 542.35 L 673.85 542.37 L 673.58 542.39 L 673.32 542.43 L 673.07 542.44 L 672.85 542.33 L 672.64 542.14 L 672.44 541.94 L 672.25 541.75 L 672.05 541.55 L 671.85 541.35 L 671.65 541.15 L 671.48 540.94 L 671.36 540.70 L 671.29 540.45 L 671.25 540.19 L 671.21 539.92 L 671.16 539.66 L 671.12 539.40 L 671.08 539.13 L 671.02 538.87 L 670.99 538.61 L 670.94 538.34 L 670.89 538.08 L 670.86 537.81 L 670.81 537.55 L 670.76 537.29 L 670.73 537.02 L 670.68 536.76 L 670.63 536.50 L 670.60 536.23 L 670.54 535.98 L 670.50 535.71 L 670.47 535.44 L 670.41 535.19 L 670.40 534.92 L 670.44 534.67 L 670.50 534.41 L 670.57 534.16 L 670.63 533.90 L 670.70 533.65 L 670.76 533.39 L 670.82 533.14 L 670.89 532.88 L 670.95 532.63 L 671.02 532.37 L 671.08 532.12 L 671.15 531.86 L 671.21 531.61 L 671.28 531.35 L 671.37 531.11 L 671.50 530.88 L 671.65 530.66 L 671.81 530.45 L 672.00 530.25 L 672.20 530.05 L 672.40 529.85 L 672.60 529.65 L 672.80 529.45 L 673.00 529.25 L 673.20 529.05 L 673.40 528.85 L 673.60 528.65 L 673.80 528.45 L 673.99 528.26 L 674.19 528.06 L 674.39 527.86 L 674.60 527.69 L 674.82 527.53 L 675.03 527.37 L 675.27 527.25 L 675.51 527.15 L 675.75 527.05 L 675.99 526.96 L 676.23 526.86 L 676.47 526.76 L 676.72 526.67 L 676.95 526.57 L 677.20 526.47 L 677.44 526.37 L 677.68 526.28 L 677.92 526.18 L 678.16 526.08 L 678.40 525.99 L 678.65 525.89 L 678.89 525.79 L 679.13 525.70 L 679.37 525.60 L 679.61 525.51 Z M 745.74 420.65 L 746.77 422.57 L 747.61 424.85 L 748.45 427.13 L 749.29 429.40 L 750.11 431.69 L 750.95 433.97 L 751.79 436.24 L 752.61 438.52 L 753.45 440.80 L 754.63 442.93 L 755.86 445.05 L 757.06 447.18 L 758.28 449.30 L 759.49 451.42 L 760.70 453.54 L 761.92 455.66 L 763.12 457.79 L 764.35 459.90 L 765.55 462.03 L 766.77 464.15 L 767.98 466.27 L 769.19 468.39 L 769.85 470.74 L 770.34 473.17 L 770.82 475.59 L 771.30 478.01 L 771.10 480.39 L 770.46 482.75 L 769.81 485.10 L 769.18 487.47 L 768.52 489.81 L 767.23 491.91 L 765.89 493.98 L 764.55 496.04 L 763.21 498.11 L 761.84 500.17 L 760.51 502.24 L 759.17 504.31 L 757.83 506.38 L 756.49 508.45 L 755.15 510.52 L 753.82 512.59 L 752.47 514.66 L 751.14 516.73 L 749.77 518.79 L 748.43 520.86 L 747.09 522.92 L 745.75 524.99 L 744.41 527.06 L 742.66 528.96 L 740.95 530.88 L 739.22 532.78 L 737.47 534.68 L 735.77 536.60 L 733.78 538.13 L 731.63 539.27 L 729.48 540.42 L 727.33 541.55 L 724.90 542.04 L 722.32 542.13 L 719.74 542.25 L 717.17 542.37 L 714.57 542.44 L 712.10 542.19 L 709.84 541.33 L 707.56 540.48 L 705.29 539.64 L 702.83 539.25 L 700.31 538.99 L 697.80 538.71 L 695.78 537.78 L 695.50 535.28 L 695.21 532.77 L 694.88 530.28 L 694.60 527.77 L 693.83 525.48 L 691.87 523.89 L 689.91 522.29 L 687.70 521.29 L 685.24 520.88 L 682.79 520.54 L 680.39 521.07 L 677.99 521.61 L 675.58 522.13 L 673.33 523.04 L 671.38 524.66 L 669.44 526.31 L 667.53 528.00 L 666.59 530.23 L 665.68 532.48 L 665.75 534.92 L 666.06 537.42 L 666.37 539.91 L 664.98 541.28 L 662.84 540.56 L 660.91 538.89 L 658.98 537.21 L 657.05 535.54 L 655.78 533.45 L 654.88 531.20 L 654.38 528.78 L 654.38 526.16 L 654.88 523.74 L 655.80 521.50 L 656.74 519.27 L 657.66 517.02 L 658.61 514.79 L 659.68 512.61 L 661.51 510.74 L 663.36 508.89 L 665.39 507.46 L 667.48 506.17 L 669.57 504.86 L 671.65 503.56 L 673.93 502.73 L 676.24 501.97 L 678.62 501.37 L 681.19 501.24 L 683.75 501.10 L 686.31 500.94 L 688.86 500.78 L 691.43 500.63 L 694.00 500.50 L 696.57 500.37 L 698.78 499.38 L 701.35 499.50 L 703.92 499.63 L 706.50 499.75 L 709.07 499.88 L 711.64 500.00 L 714.21 500.12 L 716.78 500.25 L 719.36 500.37 L 721.36 498.89 L 721.89 496.78 L 720.89 494.60 L 718.58 493.90 L 718.63 491.49 L 719.89 489.39 L 721.15 487.29 L 722.41 485.19 L 723.68 483.09 L 725.17 481.08 L 727.02 479.23 L 728.88 477.37 L 729.28 475.01 L 727.09 474.06 L 724.84 473.16 L 724.38 470.84 L 723.76 468.47 L 722.79 466.24 L 721.85 464.01 L 720.46 461.96 L 718.61 460.11 L 716.75 458.25 L 714.67 456.93 L 712.45 455.95 L 710.23 454.99 L 708.01 454.01 L 705.79 453.04 L 703.59 452.04 L 702.73 449.79 L 702.03 447.46 L 701.33 445.12 L 700.64 442.79 L 700.22 440.34 L 699.91 437.84 L 699.63 435.33 L 699.65 433.03 L 702.05 433.50 L 704.44 434.06 L 706.83 434.63 L 709.22 435.20 L 711.77 435.38 L 714.40 435.38 L 717.02 435.38 L 719.64 435.38 L 722.14 435.07 L 724.52 434.48 L 726.90 433.88 L 729.25 433.22 L 731.42 432.13 L 733.60 431.05 L 735.77 429.96 L 737.78 428.47 L 739.63 426.62 L 741.49 424.76 L 743.34 422.91 L 745.20 421.05 Z M 660.61 373.47 L 664.36 374.35 L 668.11 375.42 L 671.86 376.49 L 675.53 377.74 L 677.41 380.66 L 677.25 384.79 L 677.12 388.93 L 677.00 393.07 L 676.76 397.16 L 676.62 401.29 L 676.61 405.39 L 677.62 409.16 L 679.18 412.70 L 680.75 416.25 L 682.94 419.53 L 685.72 422.57 L 688.50 425.61 L 691.29 428.65 L 692.50 432.33 L 692.87 436.37 L 693.87 440.15 L 694.87 443.93 L 695.85 447.71 L 696.86 451.49 L 697.63 455.36 L 698.11 459.35 L 698.86 463.23 L 702.16 465.38 L 705.27 463.56 L 704.76 459.86 L 708.43 460.12 L 711.78 462.16 L 714.74 465.12 L 716.79 468.46 L 717.57 472.33 L 718.34 476.20 L 717.49 479.91 L 716.19 483.56 L 714.37 487.00 L 711.30 489.70 L 708.22 492.39 L 704.54 493.62 L 700.40 493.75 L 696.26 493.87 L 692.12 494.00 L 687.98 494.12 L 683.85 494.25 L 679.71 494.37 L 675.57 494.49 L 671.69 493.73 L 668.47 491.40 L 665.37 488.76 L 662.87 485.67 L 660.68 482.39 L 658.49 479.10 L 657.37 475.37 L 656.32 471.62 L 655.26 467.87 L 654.20 464.11 L 653.16 460.36 L 652.10 456.60 L 651.04 452.85 L 649.98 449.10 L 649.06 445.29 L 648.33 441.40 L 647.61 437.51 L 646.87 433.62 L 645.74 429.90 L 642.44 428.50 L 639.50 430.56 L 639.50 434.75 L 640.47 438.54 L 641.47 442.31 L 642.47 446.09 L 643.48 449.86 L 644.49 453.64 L 645.50 457.41 L 646.50 461.19 L 647.50 464.96 L 648.51 468.74 L 649.52 472.51 L 650.52 476.28 L 651.57 480.04 L 653.45 483.46 L 655.34 486.86 L 657.73 490.00 L 660.78 492.76 L 663.85 495.47 L 665.42 498.87 L 662.26 501.24 L 659.01 503.53 L 655.77 505.82 L 652.52 508.09 L 648.60 508.25 L 644.55 507.91 L 640.48 507.62 L 636.93 506.08 L 633.67 503.82 L 630.43 501.54 L 627.49 498.79 L 624.85 495.69 L 622.56 492.45 L 620.67 489.04 L 618.78 485.63 L 617.68 481.90 L 616.79 478.08 L 615.92 474.24 L 614.81 470.51 L 613.37 466.92 L 611.93 463.32 L 610.93 459.54 L 610.23 455.64 L 609.52 451.75 L 606.83 448.96 L 603.65 448.72 L 602.50 452.44 L 602.94 456.44 L 604.09 460.16 L 605.21 463.89 L 606.33 467.61 L 607.47 471.33 L 608.60 475.06 L 609.72 478.78 L 610.86 482.50 L 611.99 486.23 L 613.54 489.77 L 615.43 493.18 L 617.33 496.59 L 619.94 499.70 L 622.63 502.78 L 623.40 505.65 L 620.09 507.78 L 616.35 508.88 L 612.27 509.13 L 608.18 509.38 L 604.28 508.93 L 600.60 507.70 L 597.51 505.01 L 594.55 502.05 L 591.59 499.09 L 589.51 495.76 L 588.06 492.16 L 586.63 488.57 L 585.19 484.97 L 583.90 481.32 L 582.79 477.59 L 581.69 473.85 L 580.58 470.12 L 579.47 466.39 L 578.37 462.65 L 577.26 458.92 L 576.35 455.11 L 576.08 451.02 L 575.81 446.94 L 575.54 442.86 L 575.71 438.88 L 577.31 435.35 L 579.37 432.01 L 582.47 429.40 L 585.78 427.27 L 589.81 426.88 L 593.84 426.50 L 597.22 424.53 L 600.30 421.91 L 601.58 418.25 L 602.81 414.57 L 604.04 410.88 L 605.30 407.22 L 608.08 404.17 L 611.04 401.21 L 614.21 398.74 L 617.68 397.00 L 621.55 396.53 L 625.61 396.85 L 629.68 397.12 L 633.76 397.34 L 636.76 394.49 L 639.61 391.47 L 641.34 388.00 L 643.08 384.53 L 645.23 381.35 L 648.49 379.09 L 651.76 376.87 L 655.18 375.02 L 658.93 373.94 Z M 708.74 359.47 L 710.08 359.50 L 711.47 359.61 L 712.86 359.72 L 714.25 359.83 L 715.64 359.93 L 717.03 360.03 L 718.42 360.14 L 719.80 360.26 L 721.14 360.49 L 722.31 361.12 L 723.48 361.77 L 724.64 362.42 L 725.81 363.06 L 726.98 363.71 L 728.14 364.36 L 729.31 365.01 L 730.31 365.91 L 731.06 367.03 L 731.68 368.16 L 730.54 368.12 L 729.26 367.77 L 727.97 367.41 L 726.68 367.06 L 725.39 366.71 L 724.11 366.35 L 722.82 366.00 L 721.53 365.65 L 720.16 365.50 L 718.73 365.50 L 717.29 365.50 L 715.86 365.50 L 714.43 365.50 L 712.99 365.50 L 711.81 365.86 L 711.29 367.08 L 710.76 368.30 L 711.10 369.48 L 712.17 370.35 L 713.55 370.50 L 714.93 370.62 L 716.32 370.73 L 717.71 370.82 L 719.12 370.90 L 720.51 371.00 L 721.89 371.13 L 723.27 371.25 L 724.65 371.38 L 725.91 371.80 L 727.12 372.34 L 728.33 372.88 L 729.54 373.43 L 730.75 373.97 L 731.96 374.50 L 733.17 375.05 L 734.33 375.70 L 735.39 376.62 L 736.46 377.48 L 737.52 378.39 L 738.57 379.31 L 739.64 380.18 L 740.62 381.19 L 741.17 382.40 L 741.71 383.61 L 742.25 384.81 L 742.81 386.02 L 743.36 387.22 L 743.92 388.42 L 744.47 389.63 L 745.01 390.84 L 745.48 392.08 L 745.50 393.51 L 745.50 394.94 L 745.50 396.37 L 745.50 397.81 L 745.50 399.24 L 745.50 400.67 L 745.50 402.11 L 745.50 403.54 L 745.50 404.98 L 745.34 406.34 L 744.85 407.57 L 744.35 408.80 L 743.86 410.03 L 743.37 411.26 L 742.88 412.49 L 742.39 413.72 L 741.89 414.95 L 741.25 416.12 L 740.24 417.13 L 739.23 418.15 L 738.21 419.16 L 737.20 420.18 L 736.18 421.19 L 735.17 422.20 L 734.16 423.22 L 733.14 424.23 L 731.99 424.91 L 730.78 425.45 L 729.57 426.00 L 728.36 426.54 L 727.15 427.08 L 725.94 427.62 L 724.73 428.16 L 723.46 428.56 L 722.10 428.73 L 720.73 428.87 L 719.35 429.00 L 717.93 428.96 L 716.53 428.88 L 715.10 428.87 L 713.72 428.75 L 712.28 428.75 L 710.89 428.64 L 709.47 428.62 L 708.04 428.61 L 706.65 428.50 L 705.34 428.21 L 704.13 427.66 L 702.92 427.12 L 701.71 426.57 L 700.50 426.03 L 699.29 425.49 L 698.09 424.94 L 696.89 424.38 L 695.68 423.82 L 694.56 423.06 L 693.55 422.05 L 692.54 421.04 L 691.52 420.02 L 690.51 419.01 L 689.49 417.99 L 688.49 416.98 L 687.92 415.78 L 687.42 414.55 L 686.93 413.32 L 686.44 412.09 L 685.94 410.86 L 685.46 409.63 L 684.97 408.40 L 684.47 407.17 L 683.98 405.94 L 683.48 404.71 L 682.99 403.48 L 682.50 402.25 L 682.38 400.87 L 682.38 399.44 L 682.38 398.00 L 682.38 396.57 L 682.38 395.14 L 682.38 393.70 L 682.38 392.27 L 682.38 390.83 L 682.38 389.40 L 682.38 387.97 L 682.48 386.58 L 682.88 385.31 L 683.28 384.04 L 683.66 382.76 L 684.05 381.49 L 684.43 380.22 L 684.84 378.95 L 685.23 377.68 L 685.61 376.40 L 686.00 375.13 L 686.46 373.89 L 687.39 372.84 L 688.32 371.79 L 689.26 370.74 L 690.18 369.69 L 691.11 368.64 L 692.03 367.59 L 692.96 366.54 L 693.92 365.51 L 694.90 364.49 L 696.12 363.96 L 697.36 363.51 L 698.61 363.06 L 699.87 362.63 L 701.11 362.17 L 702.36 361.72 L 703.61 361.29 L 704.86 360.84 L 706.11 360.38 L 707.35 359.93 L 708.61 359.51 Z M 1125.64 84.54 L 1118.09 84.88 L 1110.52 85.19 L 1102.97 85.53 L 1096.19 87.73 L 1089.42 89.98 L 1083.17 93.47 L 1077.36 98.01 L 1073.18 103.98 L 1073.27 110.34 L 1077.61 116.24 L 1081.93 122.14 L 1085.57 128.33 L 1089.13 134.55 L 1092.02 141.05 L 1094.49 147.72 L 1096.93 154.40 L 1098.84 161.30 L 1100.50 168.31 L 1101.00 175.80 L 1101.38 183.34 L 1102.26 190.47 L 1102.00 198.05 L 1101.62 205.59 L 1100.64 212.88 L 1099.11 219.94 L 1097.58 227.00 L 1095.65 233.89 L 1092.85 240.43 L 1090.05 246.96 L 1087.15 253.46 L 1083.13 259.49 L 1079.11 265.52 L 1075.00 271.50 L 1069.73 277.02 L 1064.47 282.53 L 1059.21 288.05 L 1056.50 294.62 L 1057.07 302.08 L 1061.70 307.54 L 1068.28 310.24 L 1075.19 310.38 L 1082.88 310.38 L 1090.58 310.38 L 1098.27 310.38 L 1105.97 310.38 L 1113.66 310.38 L 1121.35 310.38 L 1129.04 310.35 L 1135.46 307.27 L 1140.21 301.85 L 1141.38 294.64 L 1141.38 286.95 L 1141.38 279.25 L 1141.38 271.56 L 1141.38 263.86 L 1141.38 256.17 L 1141.38 248.47 L 1141.38 240.78 L 1141.38 233.09 L 1141.38 225.39 L 1141.38 217.70 L 1141.38 210.00 L 1141.38 202.31 L 1141.38 194.62 L 1141.38 186.92 L 1141.38 179.23 L 1144.50 172.94 L 1150.18 175.51 L 1151.46 182.67 L 1150.54 189.92 L 1151.50 197.21 L 1151.50 204.91 L 1151.50 212.60 L 1150.67 219.92 L 1151.50 227.27 L 1151.50 234.96 L 1151.50 242.65 L 1150.58 249.97 L 1151.03 257.41 L 1151.50 264.91 L 1151.41 271.91 L 1151.50 279.57 L 1151.50 287.27 L 1151.40 294.92 L 1151.96 301.64 L 1156.42 307.05 L 1162.92 309.93 L 1169.63 310.29 L 1176.88 309.38 L 1184.57 309.38 L 1191.20 306.95 L 1195.12 300.88 L 1196.38 293.70 L 1196.38 286.01 L 1196.38 278.31 L 1196.38 270.62 L 1196.38 262.92 L 1196.38 255.23 L 1196.38 247.54 L 1196.38 239.84 L 1196.38 232.15 L 1196.38 224.45 L 1196.38 216.76 L 1196.38 209.06 L 1196.38 201.37 L 1196.38 193.68 L 1196.38 185.98 L 1196.78 178.46 L 1200.21 172.39 L 1205.23 176.42 L 1205.50 184.01 L 1205.99 191.07 L 1205.50 198.57 L 1205.50 206.26 L 1205.50 213.96 L 1205.50 221.65 L 1205.50 229.34 L 1205.50 237.04 L 1205.50 244.73 L 1205.50 252.43 L 1205.50 260.12 L 1205.50 267.82 L 1205.50 275.51 L 1205.50 283.20 L 1205.50 290.90 L 1205.87 298.44 L 1209.16 304.77 L 1214.57 309.19 L 1222.12 309.55 L 1229.73 309.75 L 1237.32 310.00 L 1244.97 310.12 L 1252.56 310.37 L 1259.69 309.03 L 1265.87 305.38 L 1269.38 299.13 L 1269.38 291.44 L 1269.38 283.74 L 1269.38 276.05 L 1269.38 268.36 L 1269.38 260.66 L 1269.38 252.97 L 1269.38 245.27 L 1269.38 237.58 L 1269.38 229.88 L 1269.38 222.19 L 1269.38 214.50 L 1269.38 206.80 L 1269.38 199.11 L 1269.38 191.41 L 1269.38 183.72 L 1269.38 176.03 L 1269.38 168.33 L 1269.38 160.64 L 1268.38 153.36 L 1268.31 145.69 L 1266.57 138.72 L 1264.83 131.74 L 1262.89 124.85 L 1259.91 118.39 L 1256.72 112.02 L 1252.55 106.05 L 1247.66 100.53 L 1242.05 95.49 L 1236.03 91.44 L 1229.56 88.50 L 1222.70 86.48 L 1215.82 84.50 L 1208.13 84.50 L 1200.59 84.87 L 1193.65 86.70 L 1186.76 88.62 L 1180.62 92.38 L 1174.49 96.16 L 1169.44 101.67 L 1163.94 102.16 L 1158.13 97.59 L 1152.27 93.17 L 1145.90 89.98 L 1139.20 87.57 L 1132.23 85.82 Z M 857.89 84.55 L 854.57 86.06 L 851.24 87.60 L 847.92 89.13 L 844.65 90.78 L 841.84 93.54 L 839.04 96.34 L 836.24 99.13 L 833.86 102.10 L 832.11 105.34 L 830.34 108.56 L 828.56 111.78 L 825.75 112.76 L 825.02 109.11 L 824.29 105.46 L 823.56 101.80 L 821.29 98.79 L 818.49 95.99 L 815.28 94.18 L 811.61 93.50 L 807.65 93.50 L 803.69 93.50 L 799.74 93.50 L 795.78 93.50 L 791.82 93.50 L 787.87 93.50 L 783.91 93.50 L 779.95 93.50 L 776.00 93.50 L 772.04 93.50 L 768.08 93.50 L 764.44 94.25 L 761.26 96.12 L 758.46 98.92 L 756.22 101.95 L 755.21 105.48 L 754.50 109.15 L 754.50 113.10 L 754.50 117.06 L 754.50 121.02 L 754.50 124.97 L 754.50 128.93 L 754.50 132.89 L 754.50 136.84 L 754.50 140.80 L 754.50 144.76 L 754.50 148.71 L 754.50 152.67 L 754.50 156.63 L 754.50 160.58 L 754.50 164.54 L 754.50 168.49 L 754.50 172.45 L 754.50 176.41 L 754.50 180.36 L 753.71 183.95 L 754.50 187.55 L 754.50 191.51 L 754.50 195.47 L 754.50 199.42 L 754.50 203.38 L 754.50 207.34 L 754.50 211.29 L 754.50 215.25 L 754.50 219.21 L 754.50 223.16 L 754.50 227.12 L 754.50 231.08 L 754.50 235.03 L 754.50 238.99 L 754.50 242.94 L 754.50 246.90 L 754.50 250.86 L 754.50 254.81 L 754.50 258.77 L 754.50 262.73 L 754.50 266.68 L 754.50 270.64 L 754.50 274.60 L 754.50 278.55 L 754.50 282.51 L 753.54 286.07 L 753.50 290.01 L 753.50 293.97 L 753.51 297.92 L 754.39 301.51 L 756.47 304.60 L 758.68 307.64 L 761.43 309.98 L 764.84 311.31 L 768.77 311.38 L 772.72 311.38 L 776.68 311.38 L 780.64 311.38 L 784.59 311.38 L 788.55 311.38 L 792.51 311.38 L 796.46 311.38 L 800.42 311.38 L 804.38 311.38 L 808.33 311.38 L 812.29 311.38 L 816.24 311.38 L 820.20 311.38 L 824.16 311.38 L 828.11 311.38 L 832.07 311.38 L 836.03 311.38 L 839.98 311.38 L 843.94 311.38 L 847.90 311.38 L 851.85 311.38 L 855.81 311.38 L 859.77 311.38 L 863.72 311.37 L 867.15 310.09 L 870.24 308.01 L 872.79 305.11 L 874.36 301.80 L 874.38 297.85 L 872.45 294.69 L 869.99 291.75 L 867.47 288.84 L 865.01 285.90 L 862.50 282.98 L 860.04 280.05 L 857.55 277.13 L 855.89 273.85 L 854.31 270.55 L 852.72 267.25 L 851.13 263.96 L 849.55 260.65 L 847.96 257.36 L 846.37 254.06 L 845.12 250.62 L 844.39 246.97 L 843.66 243.31 L 842.93 239.66 L 842.20 236.00 L 841.47 232.35 L 841.38 228.43 L 841.38 224.47 L 841.38 220.52 L 841.38 216.56 L 841.38 212.61 L 841.38 208.65 L 841.38 204.69 L 841.38 200.74 L 841.38 196.78 L 842.08 193.12 L 842.98 189.53 L 843.38 185.74 L 843.38 181.78 L 843.65 177.94 L 844.66 174.40 L 845.68 170.86 L 846.69 167.33 L 847.91 163.88 L 849.55 160.60 L 851.19 157.32 L 853.80 154.45 L 856.60 151.65 L 859.40 148.85 L 861.99 145.97 L 864.02 142.85 L 866.02 139.72 L 868.02 136.60 L 870.02 133.47 L 872.37 130.49 L 874.77 127.53 L 877.18 124.57 L 879.59 121.61 L 881.98 118.64 L 883.38 115.26 L 883.38 111.31 L 883.38 107.35 L 883.38 103.39 L 883.17 99.52 L 881.37 96.31 L 879.58 93.10 L 877.36 90.16 L 874.37 87.83 L 871.06 86.25 L 867.70 84.82 L 863.88 84.50 L 859.92 84.50 Z M 969.77 80.54 L 965.93 81.50 L 962.10 82.46 L 958.26 83.42 L 954.42 84.38 L 950.59 85.34 L 946.75 86.29 L 942.92 87.25 L 939.33 88.81 L 935.82 90.56 L 932.31 92.31 L 928.81 94.06 L 925.30 95.82 L 921.81 97.60 L 918.58 100.02 L 915.35 102.44 L 912.12 104.87 L 908.89 107.28 L 905.66 109.71 L 902.43 112.13 L 899.51 115.12 L 896.60 118.15 L 893.70 121.18 L 890.88 124.24 L 887.98 127.27 L 885.07 130.30 L 882.78 133.59 L 880.60 136.92 L 878.42 140.25 L 876.24 143.58 L 874.06 146.91 L 871.88 150.24 L 869.70 153.57 L 867.53 156.90 L 865.96 160.48 L 864.40 164.07 L 862.83 167.65 L 861.29 171.25 L 859.72 174.83 L 858.16 178.41 L 856.98 182.16 L 856.10 186.03 L 855.20 189.89 L 854.30 193.75 L 853.42 197.62 L 852.52 201.48 L 851.63 205.34 L 851.50 209.52 L 851.50 213.75 L 851.50 217.99 L 851.50 222.22 L 851.50 226.45 L 851.77 230.57 L 852.43 234.53 L 853.10 238.49 L 853.95 242.37 L 855.09 246.13 L 856.25 249.88 L 857.42 253.63 L 859.26 257.10 L 861.18 260.54 L 863.08 263.98 L 864.99 267.42 L 866.90 270.87 L 869.48 274.03 L 872.33 277.08 L 875.20 280.13 L 878.05 283.18 L 880.95 286.21 L 883.94 289.06 L 887.22 291.34 L 890.51 293.62 L 893.80 295.90 L 897.19 297.94 L 900.76 299.54 L 904.33 301.14 L 907.89 302.76 L 911.46 304.36 L 915.02 305.98 L 918.82 307.03 L 922.69 307.91 L 926.56 308.78 L 930.43 309.66 L 934.30 310.53 L 938.19 311.37 L 942.37 311.50 L 946.55 311.62 L 950.73 311.75 L 954.91 311.88 L 959.09 312.00 L 963.27 312.12 L 967.46 312.22 L 971.66 312.31 L 975.76 312.11 L 979.74 311.51 L 983.72 310.90 L 987.71 310.31 L 991.70 309.73 L 995.57 308.85 L 999.32 307.68 L 1003.05 306.48 L 1006.79 305.28 L 1010.54 304.11 L 1014.27 302.91 L 1017.88 301.40 L 1021.39 299.65 L 1024.89 297.89 L 1028.40 296.14 L 1031.91 294.39 L 1035.31 292.38 L 1038.57 290.03 L 1041.83 287.68 L 1045.08 285.33 L 1048.35 282.98 L 1051.60 280.62 L 1054.60 277.65 L 1057.60 274.65 L 1060.59 271.66 L 1063.58 268.67 L 1066.10 265.48 L 1068.42 262.21 L 1070.72 258.93 L 1073.05 255.66 L 1075.36 252.38 L 1077.31 248.96 L 1078.96 245.41 L 1080.65 241.88 L 1082.31 238.33 L 1083.96 234.78 L 1085.13 231.03 L 1086.12 227.21 L 1087.11 223.39 L 1088.09 219.56 L 1089.08 215.74 L 1090.07 211.92 L 1091.09 208.10 L 1091.38 203.99 L 1091.38 199.76 L 1091.38 195.52 L 1091.38 191.29 L 1091.38 187.06 L 1091.38 182.83 L 1091.18 178.67 L 1090.56 174.70 L 1089.97 170.71 L 1089.32 166.74 L 1088.19 162.98 L 1087.06 159.21 L 1085.94 155.45 L 1084.81 151.68 L 1083.68 147.92 L 1082.03 144.37 L 1080.23 140.88 L 1078.37 137.42 L 1076.56 133.93 L 1074.76 130.45 L 1072.91 126.98 L 1070.68 123.67 L 1068.25 120.44 L 1065.75 117.25 L 1062.76 114.26 L 1059.76 111.26 L 1056.77 108.27 L 1053.78 105.28 L 1050.65 102.60 L 1047.36 100.32 L 1044.07 98.05 L 1040.78 95.77 L 1037.36 93.82 L 1033.77 92.26 L 1030.19 90.69 L 1026.60 89.14 L 1023.01 87.58 L 1019.43 86.02 L 1015.83 84.49 L 1011.94 83.66 L 1008.04 82.84 L 1004.16 82.01 L 1000.26 81.20 L 996.31 80.50 L 992.08 80.50 L 987.85 80.50 L 983.62 80.50 L 979.38 80.50 L 975.15 80.50 L 970.92 80.50 Z M 973.73 108.49 L 976.28 110.28 L 978.81 112.34 L 980.17 115.13 L 981.09 118.13 L 982.00 121.12 L 982.91 124.12 L 983.82 127.12 L 984.73 130.12 L 985.64 133.12 L 986.55 136.12 L 987.46 139.12 L 988.37 142.11 L 989.28 145.11 L 990.20 148.11 L 991.11 151.10 L 992.03 154.10 L 992.94 157.10 L 994.21 159.95 L 996.17 162.46 L 999.07 163.63 L 1002.08 164.25 L 1005.30 163.88 L 1008.53 163.52 L 1011.43 164.37 L 1014.80 164.38 L 1018.18 164.38 L 1021.56 164.38 L 1024.93 164.38 L 1028.31 164.38 L 1031.68 164.38 L 1035.06 164.38 L 1038.43 164.38 L 1041.81 164.38 L 1045.01 164.80 L 1047.90 165.97 L 1050.17 168.07 L 1051.50 170.90 L 1050.89 174.02 L 1049.37 176.76 L 1047.01 178.88 L 1044.42 180.76 L 1041.82 182.65 L 1039.22 184.52 L 1036.62 186.39 L 1034.02 188.27 L 1031.42 190.14 L 1028.83 192.02 L 1026.23 193.90 L 1023.63 195.78 L 1021.03 197.65 L 1018.44 199.53 L 1015.83 201.40 L 1013.24 203.28 L 1011.44 205.90 L 1009.74 208.57 L 1009.51 211.85 L 1010.44 214.84 L 1011.38 217.82 L 1012.34 220.80 L 1013.28 223.79 L 1014.24 226.76 L 1015.17 229.75 L 1016.13 232.73 L 1017.07 235.72 L 1018.03 238.69 L 1018.98 241.68 L 1019.93 244.66 L 1020.88 247.64 L 1021.83 250.62 L 1022.78 253.61 L 1023.74 256.59 L 1024.36 259.59 L 1023.74 262.70 L 1022.01 265.36 L 1019.00 266.25 L 1015.77 266.41 L 1013.06 264.80 L 1010.53 262.76 L 1007.99 260.73 L 1005.47 258.68 L 1002.94 256.63 L 1000.40 254.60 L 997.88 252.55 L 995.34 250.52 L 992.82 248.47 L 990.28 246.44 L 987.75 244.40 L 985.22 242.36 L 982.69 240.32 L 980.16 238.28 L 977.58 236.36 L 974.62 235.37 L 971.69 234.72 L 969.12 236.67 L 966.58 238.67 L 964.01 240.63 L 961.47 242.64 L 958.90 244.60 L 956.36 246.60 L 953.80 248.57 L 951.24 250.55 L 948.69 252.53 L 946.13 254.51 L 943.58 256.49 L 941.02 258.47 L 938.47 260.45 L 935.91 262.43 L 933.35 264.41 L 930.52 265.72 L 927.33 266.16 L 924.36 265.86 L 921.97 263.47 L 921.38 260.35 L 921.40 256.98 L 922.41 254.02 L 923.47 251.09 L 924.49 248.14 L 925.55 245.20 L 926.58 242.25 L 927.64 239.31 L 928.67 236.36 L 929.73 233.43 L 930.76 230.48 L 931.82 227.54 L 932.77 224.56 L 933.63 221.54 L 934.49 218.52 L 935.36 215.50 L 936.22 212.48 L 936.38 209.17 L 934.91 206.41 L 932.52 204.02 L 929.95 202.07 L 927.35 200.19 L 924.75 198.33 L 922.14 196.47 L 919.55 194.58 L 916.95 192.72 L 914.35 190.85 L 911.74 188.98 L 909.14 187.12 L 906.54 185.24 L 903.94 183.37 L 901.34 181.51 L 898.85 179.35 L 896.47 176.97 L 894.43 174.48 L 894.88 171.29 L 895.38 168.13 L 898.01 166.50 L 900.77 165.02 L 903.88 164.38 L 907.25 164.38 L 910.63 164.38 L 914.00 164.38 L 917.38 164.38 L 920.76 164.38 L 924.13 164.38 L 927.51 164.38 L 930.88 164.38 L 934.26 164.38 L 937.63 164.38 L 941.01 164.38 L 944.38 164.38 L 947.62 164.04 L 950.41 162.63 L 952.45 160.22 L 953.86 157.43 L 954.85 154.46 L 955.84 151.50 L 956.78 148.51 L 957.64 145.49 L 958.51 142.48 L 959.37 139.46 L 960.23 136.44 L 961.10 133.42 L 961.95 130.40 L 962.82 127.38 L 963.68 124.36 L 964.55 121.35 L 965.40 118.33 L 966.27 115.31 L 968.19 112.73 L 970.26 110.21 L 972.96 108.72 Z M 131.27 79.54 L 127.02 79.88 L 122.79 80.25 L 118.56 80.62 L 114.33 80.99 L 110.08 81.34 L 105.98 82.02 L 102.02 83.04 L 98.07 84.09 L 94.11 85.12 L 90.14 86.13 L 86.19 87.19 L 82.40 88.61 L 78.69 90.25 L 74.97 91.86 L 71.25 93.47 L 67.64 95.34 L 64.19 97.58 L 60.74 99.84 L 57.27 102.07 L 53.82 104.33 L 50.37 106.58 L 47.10 109.27 L 43.93 112.20 L 40.78 115.18 L 37.62 118.13 L 34.46 121.11 L 31.55 124.25 L 29.13 127.63 L 26.72 131.02 L 24.31 134.40 L 21.89 137.79 L 19.47 141.17 L 17.21 144.62 L 15.53 148.31 L 13.87 152.01 L 12.19 155.70 L 10.54 159.40 L 8.87 163.09 L 7.79 167.03 L 6.88 171.04 L 5.97 175.05 L 5.06 179.06 L 4.15 183.07 L 3.50 187.18 L 3.50 191.57 L 3.50 195.95 L 3.50 200.34 L 3.50 204.72 L 3.50 209.11 L 3.77 213.38 L 4.54 217.45 L 5.33 221.51 L 6.09 225.58 L 6.88 229.64 L 7.81 233.64 L 9.45 237.34 L 11.07 241.06 L 12.71 244.76 L 14.33 248.48 L 15.97 252.18 L 17.61 255.89 L 19.58 259.46 L 21.99 262.85 L 24.41 266.23 L 26.83 269.61 L 29.51 272.89 L 32.65 275.90 L 35.82 278.82 L 38.96 281.84 L 42.10 284.84 L 45.27 287.77 L 48.60 290.33 L 52.13 292.40 L 55.65 294.47 L 59.20 296.51 L 62.72 298.58 L 66.25 300.65 L 69.79 302.70 L 73.57 304.15 L 77.48 305.32 L 81.39 306.47 L 85.29 307.62 L 89.20 308.77 L 93.10 309.94 L 97.01 311.09 L 101.18 311.61 L 105.46 311.87 L 109.74 312.12 L 113.98 312.47 L 117.99 313.38 L 122.38 313.38 L 126.76 313.38 L 130.73 312.35 L 135.00 312.08 L 139.26 311.77 L 143.53 311.50 L 147.66 310.88 L 151.58 309.77 L 155.50 308.64 L 159.42 307.52 L 163.34 306.40 L 167.24 305.22 L 170.88 303.41 L 174.51 301.59 L 178.14 299.77 L 181.77 297.95 L 185.41 296.14 L 189.04 294.32 L 192.53 292.15 L 195.86 289.62 L 199.19 287.06 L 202.52 284.53 L 205.85 281.97 L 209.08 279.17 L 212.04 276.01 L 215.01 272.86 L 218.02 269.72 L 220.95 266.55 L 223.96 263.41 L 226.33 260.00 L 228.62 256.57 L 230.91 253.13 L 233.03 249.62 L 234.85 245.99 L 236.67 242.36 L 238.48 238.73 L 240.08 235.00 L 241.44 231.18 L 242.80 227.36 L 244.15 223.53 L 245.00 219.50 L 245.74 215.42 L 246.49 211.34 L 247.23 207.26 L 247.97 203.18 L 248.38 198.97 L 248.38 194.58 L 248.38 190.20 L 248.38 185.81 L 248.29 181.46 L 247.62 177.36 L 246.93 173.26 L 246.25 169.15 L 245.56 165.05 L 244.88 160.95 L 243.94 156.95 L 242.33 153.23 L 240.73 149.51 L 239.10 145.80 L 237.48 142.08 L 235.87 138.37 L 234.18 134.68 L 231.72 131.31 L 229.26 127.95 L 226.80 124.58 L 224.32 121.22 L 221.38 118.13 L 218.17 115.29 L 214.98 112.40 L 211.78 109.53 L 208.58 106.69 L 205.39 103.78 L 201.99 101.40 L 198.44 99.39 L 194.89 97.38 L 191.33 95.38 L 187.78 93.36 L 184.23 91.36 L 180.64 89.43 L 176.77 88.18 L 172.89 86.97 L 169.02 85.72 L 165.14 84.51 L 161.22 83.38 L 157.12 82.70 L 153.02 82.01 L 148.91 81.34 L 144.81 80.64 L 140.48 80.50 L 136.10 80.50 L 132.07 79.64 Z M 125.63 108.64 L 128.55 109.42 L 131.27 110.85 L 133.13 113.44 L 133.50 116.64 L 134.42 119.62 L 135.40 122.57 L 136.39 125.52 L 137.36 128.48 L 138.35 131.43 L 139.34 134.38 L 140.32 137.33 L 141.30 140.28 L 142.28 143.23 L 143.27 146.18 L 144.26 149.13 L 145.24 152.09 L 146.22 155.04 L 147.20 157.99 L 148.76 160.70 L 151.11 162.52 L 154.28 162.99 L 157.45 163.44 L 160.62 163.88 L 163.78 164.37 L 167.14 164.38 L 170.50 164.38 L 173.86 164.38 L 177.22 164.38 L 180.57 164.38 L 183.93 164.38 L 187.29 164.38 L 190.65 164.38 L 194.01 164.38 L 197.37 164.38 L 200.64 164.59 L 203.47 165.85 L 205.85 168.22 L 206.50 171.31 L 206.08 174.50 L 204.09 177.03 L 201.82 179.31 L 199.24 181.18 L 196.65 183.03 L 194.06 184.91 L 191.48 186.78 L 188.90 188.65 L 186.31 190.51 L 183.73 192.38 L 181.14 194.24 L 178.55 196.10 L 175.97 197.98 L 173.39 199.85 L 170.80 201.72 L 168.21 203.58 L 166.17 205.92 L 164.65 208.65 L 165.29 211.62 L 166.16 214.62 L 167.03 217.61 L 167.91 220.61 L 168.78 223.61 L 169.66 226.61 L 170.53 229.60 L 171.40 232.60 L 172.28 235.60 L 173.15 238.59 L 174.03 241.59 L 174.90 244.58 L 175.77 247.58 L 176.65 250.58 L 177.52 253.57 L 178.40 256.57 L 178.50 259.89 L 178.23 263.14 L 175.86 265.51 L 172.81 266.25 L 169.65 266.26 L 167.12 264.27 L 164.59 262.27 L 162.06 260.28 L 159.53 258.27 L 157.00 256.27 L 154.47 254.27 L 151.93 252.28 L 149.40 250.28 L 146.87 248.29 L 144.33 246.30 L 141.80 244.30 L 139.28 242.29 L 136.75 240.29 L 134.21 238.30 L 131.62 236.46 L 128.45 236.00 L 125.29 235.54 L 122.68 237.29 L 120.14 239.26 L 117.60 241.25 L 115.07 243.24 L 112.53 245.22 L 109.99 247.21 L 107.46 249.20 L 104.93 251.19 L 102.38 253.16 L 99.85 255.16 L 97.32 257.15 L 94.79 259.14 L 92.25 261.13 L 89.71 263.11 L 87.15 265.03 L 84.40 266.50 L 81.04 266.50 L 78.07 265.57 L 76.14 263.01 L 75.41 259.96 L 76.30 256.99 L 77.23 254.02 L 78.15 251.04 L 79.09 248.07 L 80.01 245.09 L 80.95 242.12 L 81.87 239.14 L 82.81 236.18 L 83.73 233.20 L 84.67 230.23 L 85.58 227.25 L 86.53 224.28 L 87.44 221.30 L 88.39 218.33 L 89.30 215.35 L 90.24 212.38 L 90.38 209.08 L 88.64 206.68 L 86.06 204.81 L 83.48 202.94 L 80.90 201.06 L 78.32 199.17 L 75.74 197.29 L 73.16 195.41 L 70.57 193.54 L 67.99 191.66 L 65.42 189.77 L 62.84 187.89 L 60.26 186.02 L 57.67 184.15 L 55.10 182.24 L 52.52 180.37 L 49.96 178.45 L 48.41 175.73 L 46.95 172.98 L 47.48 170.22 L 49.17 167.56 L 51.61 165.84 L 54.56 164.85 L 57.72 164.38 L 61.08 164.38 L 64.44 164.38 L 67.80 164.38 L 71.16 164.38 L 74.52 164.38 L 77.88 164.38 L 81.23 164.38 L 84.59 164.38 L 87.95 164.38 L 91.31 164.38 L 94.67 164.38 L 98.03 164.38 L 101.18 163.88 L 104.06 162.73 L 105.68 160.31 L 106.74 157.39 L 107.84 154.48 L 108.92 151.58 L 109.99 148.66 L 111.08 145.75 L 111.98 142.76 L 112.80 139.75 L 113.64 136.74 L 114.47 133.72 L 115.30 130.71 L 116.13 127.69 L 116.97 124.68 L 117.79 121.66 L 118.63 118.65 L 119.51 115.66 L 120.91 112.88 L 123.09 110.61 Z M 358.89 5.54 L 354.19 7.41 L 350.25 11.13 L 347.62 15.52 L 346.50 20.53 L 346.50 26.01 L 346.50 31.49 L 346.50 36.97 L 346.50 42.45 L 346.50 47.93 L 346.50 53.41 L 346.50 58.89 L 346.50 64.36 L 346.50 69.84 L 346.50 75.32 L 346.50 80.80 L 346.50 86.28 L 345.65 91.14 L 340.94 90.00 L 336.01 88.68 L 330.98 87.60 L 325.94 86.53 L 320.89 85.51 L 315.41 85.50 L 309.93 85.50 L 304.58 85.81 L 299.58 86.96 L 294.57 88.09 L 289.56 89.22 L 284.56 90.37 L 279.96 92.49 L 275.42 94.76 L 271.10 97.56 L 266.89 100.63 L 262.72 103.78 L 259.22 107.81 L 255.76 111.86 L 252.26 115.89 L 249.38 120.17 L 247.11 124.71 L 245.02 129.32 L 246.01 133.96 L 248.28 138.50 L 250.55 143.04 L 252.28 147.80 L 253.62 152.73 L 254.96 157.65 L 256.31 162.57 L 257.50 167.56 L 257.63 172.98 L 257.85 178.37 L 258.00 183.79 L 258.12 189.21 L 258.25 194.64 L 258.38 200.07 L 258.14 205.34 L 257.37 210.51 L 256.23 215.51 L 255.10 220.52 L 253.95 225.52 L 252.82 230.54 L 251.12 235.31 L 249.18 239.99 L 247.26 244.67 L 245.25 249.32 L 242.52 253.66 L 239.77 258.01 L 237.02 262.35 L 234.29 266.69 L 230.87 270.76 L 227.13 274.68 L 223.39 278.61 L 219.69 282.56 L 216.38 286.67 L 215.64 291.84 L 217.08 296.61 L 219.65 301.02 L 223.52 304.90 L 227.66 308.14 L 232.29 310.19 L 237.28 311.38 L 242.21 312.69 L 247.41 313.38 L 252.89 313.38 L 258.31 313.50 L 263.79 313.50 L 269.27 313.50 L 274.75 313.50 L 280.18 313.62 L 285.66 313.62 L 291.13 313.62 L 296.61 313.62 L 302.04 313.75 L 307.52 313.75 L 313.00 313.75 L 318.48 313.75 L 323.92 313.84 L 329.38 313.88 L 334.86 313.88 L 340.34 313.88 L 345.82 313.88 L 351.25 314.00 L 356.73 314.00 L 362.21 314.00 L 367.68 314.00 L 373.11 314.12 L 378.59 314.12 L 384.07 314.12 L 389.55 314.12 L 394.98 314.25 L 400.45 314.25 L 405.93 314.25 L 411.41 314.25 L 416.84 314.38 L 422.32 314.38 L 427.37 313.35 L 431.99 311.26 L 435.48 307.23 L 436.12 302.02 L 434.36 297.48 L 431.01 293.39 L 427.67 289.29 L 425.30 284.79 L 423.19 280.19 L 421.95 275.23 L 421.38 269.98 L 421.38 264.50 L 421.38 259.03 L 421.38 253.55 L 421.38 248.07 L 421.38 242.59 L 421.38 237.11 L 421.38 231.63 L 421.38 226.15 L 421.38 220.67 L 421.38 215.19 L 421.38 209.71 L 421.38 204.24 L 421.38 198.76 L 421.38 193.28 L 421.38 187.80 L 421.38 182.32 L 421.38 176.84 L 421.38 171.36 L 421.38 165.88 L 421.38 160.40 L 421.38 154.93 L 421.38 149.45 L 421.38 143.97 L 421.38 138.49 L 421.38 133.01 L 421.38 127.53 L 421.38 122.05 L 421.38 116.57 L 421.38 111.09 L 421.38 105.61 L 421.38 100.14 L 421.38 94.66 L 421.38 89.18 L 421.38 83.70 L 421.38 78.22 L 421.38 72.74 L 421.38 67.26 L 421.38 61.78 L 421.38 56.30 L 421.38 50.83 L 421.38 45.35 L 421.38 39.87 L 421.38 34.39 L 421.38 28.91 L 421.38 23.43 L 421.38 17.95 L 420.05 13.02 L 417.09 8.77 L 412.54 6.61 L 407.52 5.50 L 402.04 5.50 L 396.56 5.50 L 391.08 5.50 L 385.60 5.50 L 380.12 5.50 L 374.64 5.50 L 369.16 5.50 L 363.69 5.50 Z M 330.74 169.47 L 331.86 169.42 L 333.00 169.50 L 334.14 169.60 L 335.30 169.63 L 336.43 169.75 L 337.60 169.76 L 338.73 169.87 L 339.89 169.93 L 341.04 170.00 L 342.17 170.11 L 343.34 170.13 L 344.47 170.25 L 345.64 170.26 L 346.76 170.39 L 347.75 170.85 L 348.70 171.39 L 349.64 171.97 L 350.60 172.51 L 351.55 173.06 L 352.49 173.62 L 353.44 174.17 L 354.39 174.73 L 355.34 175.27 L 356.29 175.82 L 357.23 176.39 L 358.18 176.94 L 359.09 177.59 L 359.88 178.44 L 360.62 179.31 L 361.39 180.17 L 362.14 181.04 L 362.90 181.90 L 363.64 182.77 L 364.39 183.64 L 365.13 184.51 L 365.75 185.43 L 366.24 186.41 L 366.72 187.38 L 367.21 188.36 L 367.70 189.33 L 368.19 190.31 L 368.68 191.28 L 369.16 192.26 L 369.58 193.26 L 369.82 194.34 L 370.06 195.42 L 370.30 196.50 L 370.53 197.58 L 370.77 198.66 L 371.01 199.74 L 371.25 200.82 L 371.48 201.90 L 371.35 203.00 L 371.15 204.10 L 371.00 205.21 L 370.84 206.33 L 370.64 207.42 L 370.49 208.54 L 370.32 209.64 L 370.14 210.75 L 369.98 211.86 L 369.81 212.96 L 369.63 214.07 L 369.39 215.15 L 368.86 216.10 L 368.33 217.07 L 367.82 218.03 L 367.29 218.99 L 366.76 219.94 L 366.25 220.91 L 365.72 221.87 L 365.18 222.83 L 364.68 223.79 L 364.15 224.75 L 363.60 225.70 L 362.82 226.56 L 361.95 227.30 L 361.08 228.05 L 360.23 228.84 L 359.37 229.61 L 358.51 230.37 L 357.64 231.11 L 356.77 231.86 L 355.92 232.64 L 355.05 233.38 L 354.06 233.85 L 353.05 234.23 L 352.03 234.64 L 351.02 235.04 L 350.00 235.42 L 349.00 235.83 L 347.99 236.23 L 346.97 236.62 L 345.96 237.02 L 344.95 237.42 L 343.93 237.81 L 342.83 238.00 L 341.70 238.12 L 340.53 238.13 L 339.36 238.15 L 338.22 238.25 L 337.04 238.25 L 335.92 238.37 L 334.74 238.38 L 333.57 238.39 L 332.44 238.50 L 331.36 238.27 L 330.34 237.88 L 329.33 237.48 L 328.31 237.10 L 327.29 236.72 L 326.28 236.31 L 325.26 235.93 L 324.24 235.54 L 323.23 235.14 L 322.21 234.76 L 321.20 234.36 L 320.18 233.97 L 319.17 233.58 L 318.31 232.81 L 317.52 231.96 L 316.73 231.11 L 315.95 230.25 L 315.15 229.40 L 314.41 228.54 L 313.58 227.70 L 312.83 226.83 L 312.00 226.00 L 311.26 225.13 L 310.43 224.30 L 309.68 223.43 L 308.89 222.58 L 308.10 221.73 L 307.39 220.84 L 307.02 219.82 L 306.68 218.78 L 306.33 217.75 L 305.99 216.72 L 305.64 215.68 L 305.30 214.64 L 304.95 213.61 L 304.61 212.58 L 304.27 211.54 L 303.92 210.51 L 303.57 209.47 L 303.38 208.38 L 303.50 207.25 L 303.56 206.10 L 303.63 204.95 L 303.74 203.82 L 303.76 202.65 L 303.87 201.52 L 303.95 200.37 L 304.00 199.22 L 304.12 198.09 L 304.14 196.92 L 304.25 195.79 L 304.35 194.65 L 304.56 193.56 L 305.05 192.59 L 305.54 191.61 L 306.02 190.63 L 306.51 189.66 L 307.00 188.68 L 307.49 187.71 L 307.98 186.73 L 308.46 185.76 L 308.95 184.78 L 309.52 183.84 L 310.28 182.97 L 311.11 182.14 L 311.94 181.31 L 312.77 180.48 L 313.61 179.64 L 314.44 178.81 L 315.27 177.98 L 316.11 177.14 L 316.94 176.31 L 317.77 175.48 L 318.62 174.68 L 319.56 174.12 L 320.57 173.70 L 321.57 173.27 L 322.58 172.87 L 323.58 172.44 L 324.58 172.02 L 325.59 171.61 L 326.59 171.19 L 327.59 170.76 L 328.60 170.36 L 329.60 169.93 L 330.61 169.51 Z M 631.89 3.54 L 627.12 5.09 L 622.56 7.03 L 619.40 11.14 L 616.40 15.32 L 615.50 20.36 L 615.50 25.78 L 615.50 31.19 L 615.50 36.61 L 615.50 42.03 L 615.50 47.44 L 615.50 52.86 L 615.50 58.28 L 615.50 63.69 L 615.50 69.11 L 615.50 74.53 L 615.50 79.94 L 615.50 85.36 L 615.50 90.78 L 615.50 96.19 L 615.50 101.61 L 615.50 107.02 L 615.50 112.44 L 615.50 117.86 L 615.50 123.27 L 615.50 128.69 L 615.50 134.11 L 615.50 139.52 L 615.50 144.94 L 615.50 150.36 L 615.50 155.77 L 615.50 161.19 L 615.50 166.61 L 615.50 172.02 L 615.50 177.44 L 615.50 182.86 L 615.50 188.27 L 615.50 193.69 L 615.50 199.11 L 615.50 204.52 L 615.50 209.94 L 615.50 215.36 L 615.50 220.77 L 615.50 226.19 L 615.50 231.61 L 615.50 237.02 L 615.50 242.44 L 615.50 247.86 L 615.50 253.27 L 615.50 258.69 L 615.50 264.11 L 615.50 269.52 L 615.50 274.94 L 615.50 280.36 L 615.50 285.77 L 615.50 291.19 L 615.50 296.61 L 616.72 301.52 L 619.44 305.81 L 623.43 309.24 L 628.06 311.15 L 633.38 311.38 L 638.80 311.38 L 644.21 311.38 L 649.63 311.38 L 655.05 311.38 L 660.46 311.38 L 665.88 311.38 L 671.30 311.38 L 676.71 311.38 L 682.13 311.38 L 686.99 310.03 L 691.56 308.00 L 694.59 304.24 L 696.94 299.80 L 697.38 294.56 L 697.38 289.14 L 697.38 283.72 L 697.38 278.31 L 697.38 272.89 L 697.38 267.47 L 697.38 262.06 L 697.38 256.64 L 697.38 251.22 L 697.38 245.81 L 697.38 240.39 L 697.38 234.97 L 697.38 229.56 L 697.38 224.14 L 697.38 218.73 L 697.38 213.31 L 697.38 207.89 L 697.38 202.48 L 697.38 197.06 L 697.38 191.64 L 697.38 186.23 L 700.66 182.82 L 705.48 181.38 L 710.90 181.38 L 716.31 181.38 L 721.73 181.38 L 727.15 181.38 L 732.56 181.38 L 737.41 179.99 L 741.45 176.75 L 743.71 172.27 L 744.38 167.13 L 744.38 161.71 L 744.38 156.29 L 744.38 150.88 L 744.38 145.46 L 744.38 140.04 L 744.38 134.63 L 744.38 129.21 L 744.38 123.79 L 744.38 118.38 L 744.03 113.10 L 742.02 108.52 L 738.18 104.71 L 733.26 103.50 L 727.85 103.50 L 722.43 103.50 L 717.01 103.50 L 711.60 103.50 L 706.18 103.50 L 700.99 102.96 L 697.38 99.93 L 697.38 94.52 L 698.63 89.62 L 702.46 85.80 L 707.29 84.38 L 712.71 84.38 L 718.12 84.38 L 723.54 84.38 L 728.96 84.38 L 734.37 84.38 L 739.79 84.38 L 745.21 84.38 L 750.62 84.38 L 756.04 84.38 L 761.46 84.38 L 766.87 84.38 L 771.95 83.57 L 776.29 80.96 L 779.76 76.98 L 781.37 72.23 L 781.38 66.82 L 781.38 61.40 L 781.38 55.98 L 781.38 50.57 L 781.38 45.15 L 781.38 39.73 L 781.38 34.32 L 781.38 28.90 L 781.38 23.48 L 781.38 18.07 L 780.01 13.21 L 777.22 9.10 L 773.06 6.06 L 768.54 3.90 L 763.29 3.50 L 757.88 3.50 L 752.46 3.50 L 747.04 3.50 L 741.63 3.50 L 736.21 3.50 L 730.79 3.50 L 725.38 3.50 L 719.96 3.50 L 714.54 3.50 L 709.13 3.50 L 703.71 3.50 L 698.29 3.50 L 692.88 3.50 L 687.46 3.50 L 682.04 3.50 L 676.63 3.50 L 671.21 3.50 L 665.79 3.50 L 660.38 3.50 L 654.96 3.50 L 649.54 3.50 L 644.13 3.50 L 638.71 3.50 L 633.29 3.50 Z M 541.89 3.54 L 537.53 5.39 L 533.45 7.93 L 530.64 11.90 L 528.78 16.26 L 528.50 21.27 L 528.50 26.40 L 528.50 31.53 L 528.50 36.66 L 528.50 41.79 L 528.50 46.92 L 528.50 52.05 L 528.50 57.19 L 528.50 62.32 L 528.50 67.45 L 528.50 72.58 L 528.50 77.71 L 528.50 82.84 L 528.50 87.97 L 525.43 89.31 L 520.74 88.26 L 516.04 87.22 L 511.35 86.16 L 506.65 85.11 L 501.77 84.50 L 496.64 84.50 L 491.51 84.50 L 486.38 84.50 L 481.55 85.22 L 476.84 86.24 L 472.13 87.25 L 467.72 88.99 L 463.40 90.96 L 459.11 92.98 L 455.10 95.69 L 451.21 98.67 L 447.32 101.68 L 443.89 105.10 L 441.18 109.10 L 438.47 113.11 L 435.75 117.11 L 433.90 121.48 L 432.82 126.16 L 431.74 130.85 L 431.50 135.88 L 431.50 141.01 L 431.50 146.14 L 431.50 151.27 L 431.50 156.40 L 431.50 161.53 L 431.50 166.66 L 431.50 171.79 L 431.50 176.93 L 431.50 182.06 L 431.50 187.19 L 431.50 192.32 L 431.50 197.45 L 431.50 202.58 L 431.50 207.71 L 431.50 212.84 L 431.50 217.97 L 431.50 223.10 L 431.50 228.23 L 431.50 233.36 L 431.50 238.49 L 431.50 243.62 L 431.50 248.76 L 431.50 253.89 L 431.50 259.02 L 431.50 264.15 L 431.94 269.09 L 432.88 273.84 L 434.70 278.21 L 436.52 282.59 L 438.98 286.70 L 442.18 290.51 L 445.38 294.32 L 448.75 297.95 L 452.72 300.73 L 456.70 303.51 L 460.98 305.58 L 465.38 307.35 L 469.78 309.11 L 474.29 310.61 L 479.10 311.37 L 484.23 311.38 L 489.36 311.38 L 494.49 311.38 L 499.62 311.38 L 504.75 311.38 L 509.88 311.38 L 515.02 311.38 L 520.15 311.38 L 525.28 311.38 L 530.41 311.38 L 535.54 311.38 L 540.67 311.38 L 545.80 311.38 L 550.93 311.38 L 556.06 311.38 L 561.19 311.38 L 566.32 311.38 L 571.45 311.38 L 576.58 311.38 L 581.72 311.38 L 586.85 311.38 L 591.98 311.38 L 596.94 310.98 L 601.25 309.00 L 604.17 305.08 L 606.04 300.72 L 605.42 296.12 L 605.38 291.01 L 606.07 286.17 L 605.38 281.47 L 605.38 276.34 L 605.38 271.21 L 605.38 266.08 L 605.38 260.95 L 605.38 255.82 L 605.38 250.69 L 605.38 245.56 L 605.38 240.43 L 605.38 235.30 L 605.38 230.17 L 605.38 225.03 L 605.38 219.90 L 605.38 214.77 L 605.38 209.64 L 605.38 204.51 L 605.38 199.38 L 605.38 194.25 L 605.38 189.12 L 605.38 183.99 L 605.49 178.90 L 605.87 174.35 L 606.32 169.82 L 605.56 165.05 L 606.38 160.41 L 606.38 155.28 L 605.38 150.56 L 605.38 145.43 L 606.36 140.70 L 606.38 135.58 L 606.38 130.45 L 605.72 125.59 L 606.22 120.98 L 605.38 116.20 L 605.38 111.07 L 605.38 105.94 L 605.51 100.86 L 606.12 96.71 L 605.38 91.89 L 605.38 86.76 L 605.38 81.63 L 605.38 76.50 L 605.38 71.37 L 605.38 66.24 L 605.38 61.11 L 605.38 55.97 L 605.38 50.84 L 605.38 45.71 L 605.38 40.58 L 605.38 35.45 L 605.38 30.32 L 605.38 25.19 L 605.39 20.07 L 605.53 15.69 L 603.87 11.25 L 600.67 7.66 L 596.84 4.51 L 592.13 3.50 L 587.00 3.50 L 581.87 3.50 L 576.74 3.50 L 571.61 3.50 L 566.48 3.50 L 561.35 3.50 L 556.21 3.50 L 551.08 3.50 L 545.95 3.50 Z M 514.74 168.47 L 515.88 168.38 L 517.05 168.38 L 518.23 168.38 L 519.41 168.38 L 520.59 168.38 L 521.76 168.38 L 522.94 168.38 L 524.12 168.38 L 525.25 168.50 L 526.27 168.88 L 527.29 169.26 L 528.31 169.64 L 529.33 170.02 L 530.35 170.40 L 531.36 170.79 L 532.38 171.17 L 533.36 171.64 L 534.30 172.23 L 535.23 172.82 L 536.17 173.40 L 537.11 173.98 L 538.04 174.57 L 538.98 175.15 L 539.91 175.74 L 540.84 176.35 L 541.60 177.20 L 542.33 178.08 L 543.05 178.96 L 543.74 179.85 L 544.48 180.72 L 545.19 181.61 L 545.89 182.49 L 546.62 183.37 L 547.33 184.25 L 548.03 185.14 L 548.76 186.01 L 549.45 186.91 L 549.81 187.93 L 550.12 188.99 L 550.46 190.02 L 550.77 191.07 L 551.08 192.12 L 551.43 193.15 L 551.73 194.20 L 552.05 195.25 L 552.39 196.29 L 552.69 197.34 L 553.02 198.38 L 553.35 199.42 L 553.45 200.52 L 553.36 201.66 L 553.25 202.79 L 553.13 203.92 L 553.01 205.05 L 552.91 206.18 L 552.84 207.33 L 552.74 208.47 L 552.62 209.60 L 552.49 210.72 L 552.13 211.75 L 551.67 212.73 L 551.23 213.73 L 550.75 214.71 L 550.31 215.70 L 549.85 216.69 L 549.38 217.68 L 548.94 218.67 L 548.46 219.65 L 548.02 220.64 L 547.57 221.64 L 547.10 222.62 L 546.66 223.61 L 545.90 224.48 L 545.05 225.26 L 544.20 226.05 L 543.33 226.80 L 542.48 227.60 L 541.62 228.37 L 540.76 229.12 L 539.91 229.93 L 539.05 230.70 L 538.18 231.44 L 537.34 232.26 L 536.48 233.02 L 535.55 233.60 L 534.50 233.92 L 533.44 234.19 L 532.38 234.50 L 531.33 234.80 L 530.27 235.08 L 529.22 235.39 L 528.17 235.69 L 527.11 235.97 L 526.05 236.27 L 525.00 236.58 L 523.94 236.85 L 522.82 237.00 L 521.69 236.89 L 520.52 236.88 L 519.34 236.87 L 518.21 236.75 L 517.04 236.75 L 515.87 236.72 L 514.73 236.62 L 513.56 236.62 L 512.42 236.53 L 511.25 236.50 L 510.21 236.18 L 509.21 235.73 L 508.22 235.28 L 507.23 234.84 L 506.23 234.40 L 505.24 233.96 L 504.24 233.52 L 503.24 233.09 L 502.25 232.64 L 501.39 231.89 L 500.55 231.05 L 499.72 230.22 L 498.89 229.39 L 498.06 228.56 L 497.22 227.72 L 496.39 226.89 L 495.56 226.06 L 494.72 225.22 L 493.89 224.39 L 493.06 223.56 L 492.23 222.73 L 491.41 221.89 L 490.94 220.90 L 490.54 219.89 L 490.11 218.89 L 489.68 217.89 L 489.28 216.88 L 488.85 215.88 L 488.43 214.88 L 488.02 213.87 L 487.59 212.87 L 487.17 211.87 L 486.76 210.86 L 486.39 209.83 L 486.38 208.66 L 486.38 207.48 L 486.38 206.31 L 486.38 205.13 L 486.38 203.95 L 486.38 202.77 L 486.38 201.60 L 486.38 200.42 L 486.38 199.24 L 486.38 198.06 L 486.38 196.89 L 486.48 195.75 L 486.91 194.75 L 487.39 193.77 L 487.83 192.78 L 488.28 191.79 L 488.75 190.80 L 489.19 189.81 L 489.67 188.83 L 490.12 187.84 L 490.56 186.84 L 491.04 185.86 L 491.48 184.87 L 491.95 183.88 L 492.46 182.92 L 493.29 182.08 L 494.16 181.34 L 494.99 180.51 L 495.86 179.76 L 496.72 178.98 L 497.56 178.19 L 498.43 177.43 L 499.27 176.61 L 500.14 175.86 L 500.98 175.06 L 501.84 174.29 L 502.70 173.54 L 503.54 172.72 L 504.50 172.18 L 505.51 171.79 L 506.54 171.43 L 507.57 171.06 L 508.59 170.68 L 509.61 170.31 L 510.64 169.94 L 511.66 169.57 L 512.68 169.19 L 513.70 168.82 Z" fill="#000000" fill-rule="evenodd"/>
</svg>
