<svg xmlns="http://www.w3.org/2000/svg" viewBox="0 0 221 234" width="221" height="234" role="img" aria-label="07_m_from">
  <title>07_m_from</title>
  <path d="M 72.64 3.54 L 65.09 3.88 L 57.52 4.19 L 49.97 4.53 L 43.19 6.73 L 36.42 8.98 L 30.17 12.47 L 24.36 17.01 L 20.18 22.98 L 20.27 29.34 L 24.61 35.24 L 28.93 41.14 L 32.57 47.33 L 36.13 53.55 L 39.02 60.05 L 41.49 66.72 L 43.93 73.40 L 45.84 80.30 L 47.50 87.31 L 48.00 94.80 L 48.38 102.34 L 49.26 109.47 L 49.00 117.05 L 48.62 124.59 L 47.64 131.88 L 46.11 138.94 L 44.58 146.00 L 42.65 152.89 L 39.85 159.43 L 37.05 165.96 L 34.15 172.46 L 30.13 178.49 L 26.11 184.52 L 22.00 190.50 L 16.73 196.02 L 11.47 201.53 L 6.21 207.05 L 3.50 213.62 L 4.07 221.08 L 8.70 226.54 L 15.28 229.24 L 22.19 229.38 L 29.88 229.38 L 37.58 229.38 L 45.27 229.38 L 52.97 229.38 L 60.66 229.38 L 68.35 229.38 L 76.04 229.35 L 82.46 226.27 L 87.21 220.85 L 88.38 213.64 L 88.38 205.95 L 88.38 198.25 L 88.38 190.56 L 88.38 182.86 L 88.38 175.17 L 88.38 167.47 L 88.38 159.78 L 88.38 152.09 L 88.38 144.39 L 88.38 136.70 L 88.38 129.00 L 88.38 121.31 L 88.38 113.62 L 88.38 105.92 L 88.38 98.23 L 91.45 91.81 L 97.18 94.51 L 98.46 101.67 L 97.62 108.99 L 98.50 116.21 L 98.50 123.91 L 98.50 131.60 L 97.67 138.92 L 98.50 146.27 L 98.50 153.96 L 98.50 161.65 L 97.58 168.97 L 98.03 176.41 L 98.50 183.91 L 98.41 190.91 L 98.50 198.57 L 98.50 206.27 L 98.40 213.92 L 98.96 220.64 L 103.42 226.05 L 109.92 228.93 L 116.63 229.29 L 123.88 228.38 L 131.57 228.38 L 138.20 225.95 L 142.12 219.88 L 143.38 212.70 L 143.38 205.01 L 143.38 197.31 L 143.38 189.62 L 143.38 181.92 L 143.38 174.23 L 143.38 166.54 L 143.38 158.84 L 143.38 151.15 L 143.38 143.45 L 143.38 135.76 L 143.38 128.06 L 143.38 120.37 L 143.38 112.68 L 143.38 104.98 L 143.78 97.46 L 147.21 91.39 L 152.23 95.42 L 152.50 103.01 L 152.99 110.07 L 152.50 117.57 L 152.50 125.26 L 152.50 132.96 L 152.50 140.65 L 152.50 148.34 L 152.50 156.04 L 152.50 163.73 L 152.50 171.43 L 152.50 179.12 L 152.50 186.82 L 152.50 194.51 L 152.50 202.20 L 152.50 209.90 L 152.87 217.44 L 156.16 223.77 L 161.57 228.19 L 169.12 228.55 L 176.73 228.75 L 184.32 229.00 L 191.97 229.13 L 199.56 229.37 L 206.69 228.03 L 212.87 224.38 L 216.38 218.13 L 216.38 210.44 L 216.38 202.74 L 216.38 195.05 L 216.38 187.36 L 216.38 179.66 L 216.38 171.97 L 216.38 164.27 L 216.38 156.58 L 216.38 148.88 L 216.38 141.19 L 216.38 133.50 L 216.38 125.80 L 216.38 118.11 L 216.38 110.41 L 216.38 102.72 L 216.38 95.03 L 216.38 87.33 L 216.38 79.64 L 215.38 72.36 L 215.31 64.69 L 213.57 57.72 L 211.83 50.74 L 209.89 43.85 L 206.91 37.39 L 203.72 31.02 L 199.55 25.05 L 194.66 19.53 L 189.05 14.49 L 183.03 10.44 L 176.56 7.50 L 169.70 5.48 L 162.82 3.50 L 155.13 3.50 L 147.59 3.87 L 140.65 5.70 L 133.76 7.62 L 127.62 11.38 L 121.49 15.16 L 116.44 20.67 L 110.94 21.16 L 105.13 16.59 L 99.27 12.17 L 92.90 8.98 L 86.20 6.57 L 79.23 4.82 Z" fill="#000000" fill-rule="evenodd"/>
</svg>
