<?xml version="1.0" standalone="no"?>
<!DOCTYPE svg PUBLIC "-//W3C//DTD SVG 20010904//EN"
 "http://www.w3.org/TR/2001/REC-SVG-20010904/DTD/svg10.dtd">
<svg aria-labelledby="icon-connected-user-network-title" role="img" id="icon-connected-user-network" data-icon-id="connected-user-network" data-icon-label="Connected User Network" version="1.0" xmlns="http://www.w3.org/2000/svg"
 width="512.000000pt" height="512.000000pt" viewBox="0 0 512.000000 512.000000"
 preserveAspectRatio="xMidYMid meet">
<title id="icon-connected-user-network-title">Connected User Network</title>
<metadata>
Created by potrace 1.16, written by Peter Selinger 2001-2019
</metadata>
<g transform="translate(0.000000,512.000000) scale(0.020000,-0.020000)"
fill="#000000" stroke="none">
<path d="M12539 21076 c-1085 -299 -1542 -1510 -914 -2425 138 -201 289 -423
337 -495 62 -94 88 -232 88 -483 0 -406 -323 -822 -700 -899 -1195 -247 -2578
-1804 -2780 -3131 -118 -768 -839 -1079 -1545 -667 -905 529 -1337 608 -1938
357 -637 -266 -1124 -1164 -992 -1829 315 -1587 1971 -2016 3025 -783 633 741
1372 627 2077 -321 790 -1063 854 -1811 207 -2416 -257 -241 -380 -288 -1037
-403 -837 -146 -1297 -587 -1467 -1406 -235 -1132 939 -2127 2073 -1758 948
309 1395 1189 1092 2150 -326 1035 599 2072 1752 1966 1060 -98 1064 -98 1592
16 284 61 673 156 866 211 1262 363 1975 -318 1669 -1594 -330 -1379 813
-2625 2176 -2372 1621 302 2250 2222 1093 3339 -436 421 -769 531 -1688 554
-899 22 -961 43 -1166 380 -346 571 -183 1282 449 1958 632 677 1906 718 2434
79 378 -458 595 -642 865 -734 1599 -545 2828 1495 1596 2648 -704 658 -1409
627 -2153 -95 -798 -773 -1234 -831 -1810 -239 -321 328 -413 668 -414 1516
-2 1114 210 1350 1209 1350 875 0 1018 45 1420 446 676 675 696 1562 49 2207
-1032 1031 -2654 131 -2654 -1473 0 -772 -607 -1027 -1447 -608 -125 62 -509
209 -853 327 -344 117 -704 253 -800 303 -605 308 -731 1040 -269 1559 1161
1302 167 3208 -1442 2765z m1016 -5640 c453 -185 963 -603 1259 -1031 83 -121
187 -257 231 -301 44 -45 129 -204 189 -355 459 -1149 228 -2279 -651 -3186
-341 -352 -364 -343 -395 159 -48 772 -414 1135 -1293 1282 -1153 192 -1945
-374 -1945 -1391 0 -411 -44 -405 -506 75 -667 693 -915 1645 -694 2662 170
780 1099 1810 1925 2134 294 115 1558 82 1880 -48z"/>
<path d="M12275 14654 c-999 -250 -1238 -1529 -390 -2092 965 -641 2241 379
1771 1415 -206 455 -904 797 -1381 677z"/>
<path d="M6773 18570 c-1185 -420 -937 -2077 311 -2077 775 0 1243 571 1090
1330 -120 595 -803 960 -1401 747z"/>
</g>
</svg>
