<?xml version="1.0" standalone="no"?>
<!DOCTYPE svg PUBLIC "-//W3C//DTD SVG 20010904//EN"
 "http://www.w3.org/TR/2001/REC-SVG-20010904/DTD/svg10.dtd">
<svg aria-labelledby="icon-secure-database-lock-title" role="img" id="icon-secure-database-lock" data-icon-id="secure-database-lock" data-icon-label="Secure Database Lock" version="1.0" xmlns="http://www.w3.org/2000/svg"
 width="512.000000pt" height="512.000000pt" viewBox="0 0 512.000000 512.000000"
 preserveAspectRatio="xMidYMid meet">
<title id="icon-secure-database-lock-title">Secure Database Lock</title>
<metadata>
Created by potrace 1.16, written by Peter Selinger 2001-2019
</metadata>
<g transform="translate(0.000000,512.000000) scale(0.020000,-0.020000)"
fill="#000000" stroke="none">
<path d="M8750 21265 c-1017 -177 -3547 -1516 -3776 -1999 -154 -325 -53 -413
727 -637 622 -178 1182 -415 2078 -880 2505 -1298 2629 -1357 3108 -1478 884
-224 1422 -141 2467 382 373 186 747 397 831 467 256 216 1062 572 1490 658
818 166 1344 27 1944 -513 418 -376 409 -375 449 -83 104 756 -15 1788 -257
2234 -456 841 -1197 1119 -2822 1061 -503 -18 -1071 -36 -1264 -40 -794 -16
-1570 131 -2698 512 -944 318 -1678 420 -2277 316z"/>
<path d="M4530 18052 c-581 -110 -662 -1945 -123 -2784 228 -355 410 -467
1368 -842 1019 -400 1833 -781 2550 -1194 886 -511 2154 -1118 2500 -1197 791
-181 822 -183 1309 -83 612 126 1305 429 2068 904 125 77 326 176 448 219 297
105 381 191 480 493 301 919 1078 1751 1897 2033 485 167 547 355 274 832
-344 600 -934 728 -1897 411 -405 -133 -1038 -445 -1234 -608 -80 -67 -269
-161 -420 -211 -151 -49 -365 -134 -474 -189 -745 -374 -1898 -465 -2708 -214
-1150 357 -1475 483 -1867 722 -921 561 -3032 1530 -3601 1652 -395 85 -410
87 -570 56z m1405 -1614 c359 -394 247 -838 -210 -838 -411 0 -685 548 -416
834 150 160 482 162 626 4z m1985 -997 c544 -270 667 -495 404 -742 -222 -208
-1224 340 -1224 670 0 346 227 366 820 72z"/>
<path d="M17670 14908 c-451 -114 -725 -275 -1089 -641 -589 -592 -729 -1024
-730 -2249 -1 -807 -1 -807 -121 -837 -66 -17 -217 -112 -337 -212 -572 -478
-642 -787 -642 -2844 0 -2302 111 -2622 1099 -3155 260 -141 4182 -146 4575
-6 997 354 1193 934 1163 3444 -24 2014 -122 2339 -814 2679 -274 134 -274
134 -274 867 0 838 -144 1567 -375 1893 -673 949 -1494 1304 -2455 1061z
m1005 -963 c267 -74 791 -594 877 -870 35 -110 73 -554 85 -987 l22 -788
-1430 0 -1429 0 0 798 c0 1098 141 1446 700 1729 423 215 720 245 1175 118z
m13 -4495 c395 -241 518 -982 211 -1276 -217 -208 -273 -466 -197 -909 94
-550 -40 -765 -477 -765 -441 0 -554 194 -509 879 31 473 31 473 -135 660
-404 452 -365 1087 86 1396 219 151 785 159 1021 15z"/>
<path d="M4259 13938 c-313 -608 -255 -2035 108 -2654 205 -350 498 -520 1733
-1009 399 -158 894 -371 1100 -475 206 -103 454 -204 550 -225 194 -41 605
-247 1250 -625 2043 -1197 2852 -1301 4339 -556 774 388 726 308 768 1299 48
1143 100 1308 575 1822 257 279 268 302 268 568 0 331 -56 335 -575 40 -1422
-810 -1750 -922 -2704 -922 -887 -1 -1347 140 -2596 798 -844 444 -1669 861
-1902 961 -109 47 -277 130 -373 185 -236 135 -1070 505 -1637 725 -549 214
-818 234 -904 68z m1614 -1400 c433 -284 362 -1038 -97 -1038 -269 0 -576 390
-576 731 0 380 331 531 673 307z"/>
<path d="M4336 9988 c-369 -279 -377 -1938 -11 -2488 278 -419 804 -741 1675
-1024 725 -236 1906 -719 2325 -951 2621 -1452 3506 -1577 5048 -714 249 139
561 307 695 374 206 102 238 137 211 230 -128 452 -179 867 -179 1457 0 1045
-79 1163 -551 827 -410 -291 -1193 -499 -1884 -499 -793 0 -1242 142 -2440
774 -1923 1014 -2883 1477 -3315 1598 -246 69 -613 205 -815 302 -384 184
-619 219 -759 114z m1600 -1448 c195 -192 214 -233 214 -460 0 -471 -374 -645
-684 -317 -319 336 -349 571 -106 822 210 217 317 208 576 -45z"/>
</g>
</svg>
