<?xml version="1.0" standalone="no"?>
<!DOCTYPE svg PUBLIC "-//W3C//DTD SVG 20010904//EN"
 "http://www.w3.org/TR/2001/REC-SVG-20010904/DTD/svg10.dtd">
<svg version="1.0" xmlns="http://www.w3.org/2000/svg"
 width="512.000000pt" height="512.000000pt" viewBox="0 0 512.000000 512.000000"
 preserveAspectRatio="xMidYMid meet">
<metadata>
Created by potrace 1.16, written by Peter Selinger 2001-2019
</metadata>
<g transform="translate(0.000000,512.000000) scale(0.020000,-0.020000)"
fill="#000000" stroke="none">
<path d="M7750 20949 c-1421 -294 -2048 -1513 -1647 -3202 157 -664 163 -719
103 -1009 -109 -528 -584 -1257 -881 -1354 -827 -269 -1937 -1355 -2180 -2134
-308 -983 -28 -1888 866 -2800 683 -696 766 -1093 465 -2216 -295 -1098 136
-1992 1228 -2548 806 -410 1542 -321 2746 335 340 184 1357 355 1707 285 148
-29 455 -87 683 -130 567 -105 660 -149 1565 -747 741 -490 877 -555 1570
-757 1120 -327 2598 115 3172 949 214 311 580 1111 653 1429 182 793 408 1354
663 1646 82 95 180 245 217 334 38 90 162 238 276 329 114 91 311 257 438 368
127 111 321 268 431 348 741 544 1318 1313 1527 2037 240 834 260 1011 171
1492 -249 1330 -818 1921 -2123 2204 -587 127 -656 163 -1007 526 -358 370
-366 387 -469 1016 -93 568 -262 961 -612 1423 -563 743 -1910 924 -3637 490
-275 -69 -657 -143 -850 -164 -192 -21 -420 -54 -506 -74 -589 -133 -1523 303
-2263 1055 -763 775 -1470 1042 -2306 869z m5917 -3901 c999 -250 2036 -724
2458 -1123 58 -55 285 -228 503 -384 694 -498 1814 -1717 2710 -2951 123 -170
144 -386 54 -556 -87 -164 -352 -494 -480 -600 -63 -51 -150 -164 -195 -251
-45 -87 -212 -304 -372 -483 -308 -345 -343 -381 -695 -721 -124 -120 -306
-304 -405 -411 -225 -242 -694 -627 -1017 -835 -677 -434 -835 -528 -939 -561
-63 -19 -310 -133 -548 -253 -770 -384 -973 -419 -2472 -419 -1556 0 -1763 42
-2860 576 -1238 602 -2377 1557 -3496 2928 -144 177 -361 441 -482 587 -509
614 -529 795 -132 1233 135 149 284 346 329 436 46 91 356 447 690 791 334
344 670 710 746 812 77 103 302 298 500 434 199 136 452 333 563 437 215 203
607 456 1098 709 165 85 356 187 425 227 69 39 271 107 450 150 179 44 505
134 725 202 561 172 2198 187 2842 26z"/>
<path d="M11525 15917 c-192 -41 -496 -154 -675 -250 -179 -97 -453 -244 -610
-326 -681 -358 -693 -473 -158 -1519 571 -1117 638 -1157 914 -543 198 442
1029 1836 1386 2328 212 292 210 323 -19 361 -269 44 -441 34 -838 -51z"/>
<path d="M12897 15492 c-521 -609 -1029 -1528 -884 -1598 6 -3 428 -25 937
-48 1064 -49 1380 -88 1899 -238 390 -113 801 -143 801 -59 0 380 -918 1578
-1400 1825 -124 64 -323 166 -443 229 -431 224 -647 197 -910 -111z"/>
<path d="M9109 14088 c-493 -722 -727 -2185 -405 -2531 51 -55 211 -121 357
-149 145 -27 515 -97 821 -155 1144 -217 1207 -93 524 1038 -407 673 -528 917
-815 1634 -179 449 -266 478 -482 163z"/>
<path d="M13545 13269 c-73 -88 -25 -212 265 -685 139 -225 304 -521 369 -659
65 -137 209 -395 320 -573 112 -178 225 -414 252 -525 231 -946 597 -801 1004
398 165 485 176 1416 19 1573 -212 212 -2111 613 -2229 471z"/>
<path d="M13549 11463 c-28 -49 -149 -292 -269 -542 -120 -249 -290 -553 -377
-675 -537 -748 -948 -1467 -879 -1537 186 -185 1566 74 2105 395 701 417 738
553 352 1300 -149 287 -296 603 -328 704 -116 367 -473 577 -604 355z"/>
<path d="M8900 10817 c0 -133 257 -586 372 -655 34 -20 139 -152 233 -293 414
-621 1591 -1244 1898 -1005 84 65 420 532 681 944 88 139 192 289 232 335 417
477 286 555 -973 582 -1014 21 -1830 86 -2168 172 -275 70 -275 70 -275 -80z"/>
<path d="M19288 18853 c-755 -151 -807 -1342 -79 -1809 755 -484 1563 467
1093 1287 -159 278 -411 519 -543 520 -46 0 -129 9 -184 20 -55 11 -184 3
-287 -18z"/>
<path d="M20066 8744 c-306 -55 -472 -157 -753 -465 -913 -998 -127 -2238
1054 -1660 1215 594 967 2350 -301 2125z"/>
</g>
</svg>
