<?xml version="1.0" standalone="no"?>
<!DOCTYPE svg PUBLIC "-//W3C//DTD SVG 20010904//EN"
 "http://www.w3.org/TR/2001/REC-SVG-20010904/DTD/svg10.dtd">
<svg aria-labelledby="icon-voice-message-waveform-title" role="img" id="icon-voice-message-waveform" data-icon-id="voice-message-waveform" data-icon-label="Voice Message Waveform" version="1.0" xmlns="http://www.w3.org/2000/svg"
 width="512.000000pt" height="512.000000pt" viewBox="0 0 512.000000 512.000000"
 preserveAspectRatio="xMidYMid meet">
<title id="icon-voice-message-waveform-title">Voice Message Waveform</title>
<metadata>
Created by potrace 1.16, written by Peter Selinger 2001-2019
</metadata>
<g transform="translate(0.000000,512.000000) scale(0.020000,-0.020000)"
fill="#000000" stroke="none">
<path d="M8748 19382 c-13 -12 -227 -47 -477 -77 -2354 -285 -4228 -2492
-4219 -4972 3 -792 125 -1320 554 -2398 108 -270 232 -672 277 -894 85 -421
88 -364 -86 -1416 -55 -337 -173 -807 -434 -1725 -323 -1139 -316 -1103 -261
-1308 79 -292 466 -400 749 -209 265 179 846 622 873 666 42 67 595 482 760
570 78 41 361 241 629 443 1136 858 2329 784 3882 -239 418 -275 1656 -695
2223 -753 396 -40 981 72 1605 309 807 306 786 292 1902 1289 425 380 1115
701 1750 812 1798 316 3090 1673 3211 3373 61 855 -433 2149 -928 2431 -128
73 -278 172 -333 221 -55 49 -211 136 -347 194 -137 58 -351 202 -476 319
-125 118 -262 235 -303 260 -177 112 -453 558 -579 940 -394 1188 -935 1785
-1845 2037 -737 205 -1669 80 -2367 -316 -1405 -798 -2280 -927 -3092 -458
-951 548 -1284 685 -1932 794 -253 43 -516 89 -586 103 -70 14 -138 16 -150 4z
m640 -3031 c162 -100 162 -100 162 -2860 0 -3098 13 -2991 -368 -2991 -395 0
-382 -101 -382 2906 0 2810 5 2882 218 2986 153 73 188 69 370 -41z m4300
-500 c162 -100 162 -100 162 -2419 0 -2508 16 -2370 -282 -2470 -128 -43 -185
-36 -312 42 -251 152 -245 4693 7 4847 89 54 185 99 212 99 28 0 123 -45 213
-99z m-2693 -535 c37 -81 55 -715 55 -1903 0 -2043 6 -2013 -424 -2013 -339 0
-326 -79 -326 2036 0 1915 0 1915 154 2009 193 117 457 54 541 -129z m5539
-275 c177 -166 183 -3038 7 -3225 -169 -180 -416 -159 -542 47 -152 249 -152
2875 0 3125 122 199 355 223 535 53z m-8444 -251 c44 -44 60 -408 60 -1326 0
-1265 0 -1265 -154 -1359 -193 -117 -457 -54 -541 129 -117 256 -71 2367 54
2500 121 129 474 163 581 56z m7044 -249 c167 -156 180 -1910 17 -2178 -108
-176 -457 -237 -591 -103 -85 85 -85 2245 0 2330 102 102 445 73 574 -49z
m-2783 -253 c86 -142 99 -253 99 -863 0 -872 -62 -1025 -414 -1025 -333 0
-336 10 -336 1025 0 1015 3 1025 336 1025 189 0 227 -20 315 -162z m5641 35
c117 -258 77 -1872 -51 -2007 -139 -149 -372 -152 -525 -7 -175 164 -181 1841
-7 2025 161 172 503 165 583 -11z m-11358 -482 c103 -96 116 -155 116 -515 0
-482 -32 -526 -375 -526 -342 0 -375 45 -375 519 0 581 305 832 634 522z
m12817 -53 c143 -236 138 -715 -10 -872 -121 -129 -474 -163 -581 -56 -121
121 -78 966 53 1029 231 112 430 74 538 -101z"/>
<path d="M18055 8222 c-616 -168 -1024 -504 -1082 -891 -210 -1402 2073 -1751
2682 -409 348 764 -636 1563 -1600 1300z"/>
</g>
</svg>
