<?xml version="1.0" standalone="no"?>
<!DOCTYPE svg PUBLIC "-//W3C//DTD SVG 20010904//EN"
 "http://www.w3.org/TR/2001/REC-SVG-20010904/DTD/svg10.dtd">
<svg aria-labelledby="icon-ai-chip-processor-title" role="img" id="icon-ai-chip-processor" data-icon-id="ai-chip-processor" data-icon-label="Ai Chip Processor" version="1.0" xmlns="http://www.w3.org/2000/svg"
 width="512.000000pt" height="512.000000pt" viewBox="0 0 512.000000 512.000000"
 preserveAspectRatio="xMidYMid meet">
<title id="icon-ai-chip-processor-title">Ai Chip Processor</title>
<metadata>
Created by potrace 1.16, written by Peter Selinger 2001-2019
</metadata>
<g transform="translate(0.000000,512.000000) scale(0.020000,-0.020000)"
fill="#000000" stroke="none">
<path d="M9325 21177 c-27 -10 -110 -31 -183 -48 -317 -69 -407 -444 -218
-904 99 -239 124 -388 125 -735 2 -655 -33 -695 -699 -818 -994 -184 -1600
-1128 -1600 -2490 0 -290 -25 -581 -54 -647 -149 -326 -900 -440 -1402 -214
-652 294 -1094 134 -1094 -396 0 -458 332 -648 863 -492 611 178 1324 135
1575 -96 199 -185 166 -865 -53 -1077 -191 -185 -1009 -243 -1249 -89 -521
333 -1113 -125 -921 -712 99 -301 679 -406 1017 -184 243 159 972 103 1158
-90 201 -207 237 -833 65 -1114 -180 -296 -884 -355 -1465 -123 -665 266
-1234 -266 -887 -828 181 -292 655 -322 1087 -67 204 119 840 136 1050 27 320
-166 451 -547 355 -1036 -440 -2236 1504 -3675 3564 -2639 943 473 1091 415
1091 -434 0 -353 -21 -465 -125 -671 -285 -562 -92 -1000 441 -1000 523 0 733
458 459 1000 -143 282 -177 991 -65 1363 152 509 881 543 1134 53 115 -224 70
-1141 -69 -1416 -283 -559 -74 -1000 475 -1000 552 0 819 575 478 1027 -123
162 -107 1150 21 1361 132 214 410 223 776 23 250 -136 250 -136 264 -699 9
-365 -7 -601 -45 -674 -271 -505 -54 -1038 422 -1038 533 0 778 546 461 1029
-43 65 -77 226 -77 359 0 388 134 448 539 243 774 -391 1629 -305 2231 225
558 491 682 1412 315 2330 -196 490 -253 1060 -133 1324 163 357 901 467 1409
210 640 -325 1279 90 1010 657 -185 389 -475 461 -996 247 -328 -135 -844
-169 -1041 -68 -576 295 -636 1161 -100 1438 166 85 969 69 1089 -22 435 -328
1027 -74 1027 441 0 478 -517 712 -1010 457 -297 -154 -1096 -95 -1280 95
-174 180 -230 677 -106 950 137 299 1017 456 1411 252 608 -315 1272 149 1008
705 -159 335 -613 407 -1027 163 -415 -244 -944 -190 -1283 131 -256 241 -246
1028 21 1698 626 1573 -324 2876 -1920 2634 -399 -60 -999 -320 -1294 -560
-728 -592 -1541 -786 -1714 -407 -112 247 -71 1044 69 1319 283 559 88 954
-492 990 -594 38 -817 -410 -508 -1019 142 -281 176 -965 65 -1334 -146 -487
-1076 -549 -1314 -89 -133 258 -104 1126 52 1538 147 389 134 582 -52 783
-178 193 -651 192 -844 -1 -176 -176 -201 -589 -54 -874 88 -170 100 -1227 17
-1411 -149 -327 -1031 -199 -1225 177 -110 213 -73 859 73 1263 187 521 59
975 -277 978 -50 0 -136 10 -191 22 -55 12 -122 13 -150 4z m6009 -4795 c782
-361 816 -516 816 -3718 0 -3023 12 -2937 -462 -3397 -403 -392 -174 -367
-3370 -367 -3239 0 -3199 -6 -3532 521 -290 457 -286 416 -286 3251 0 4113
-244 3873 3925 3861 2600 -8 2600 -8 2909 -151z m2500 -2241 c195 -183 168
-611 -46 -742 -354 -215 -688 -41 -688 360 0 452 424 673 734 382z m0 -2100
c195 -183 168 -611 -46 -742 -378 -230 -688 -43 -688 415 0 179 26 342 60 376
106 106 543 74 674 -49z"/>
<path d="M10236 15647 c-484 -117 -850 -453 -933 -855 -117 -568 -50 -4331 81
-4542 338 -543 685 -609 3116 -590 3005 22 2900 -89 2900 3056 0 3050 94 2955
-2946 2968 -1116 5 -2114 -12 -2218 -37z"/>
</g>
</svg>
