<?xml version="1.0" standalone="no"?>
<!DOCTYPE svg PUBLIC "-//W3C//DTD SVG 20010904//EN"
 "http://www.w3.org/TR/2001/REC-SVG-20010904/DTD/svg10.dtd">
<svg version="1.0" xmlns="http://www.w3.org/2000/svg"
 width="512.000000pt" height="512.000000pt" viewBox="0 0 512.000000 512.000000"
 preserveAspectRatio="xMidYMid meet">
<metadata>
Created by potrace 1.16, written by Peter Selinger 2001-2019
</metadata>
<g transform="translate(0.000000,512.000000) scale(0.020000,-0.020000)"
fill="#000000" stroke="none">
<path d="M12375 21192 c-247 -20 -596 -79 -775 -132 -179 -53 -520 -154 -758
-225 -2442 -727 -4476 -4003 -4021 -6477 298 -1621 769 -2587 1719 -3526 299
-294 597 -573 664 -618 67 -46 221 -170 343 -276 688 -597 2586 -1172 3536
-1072 1801 191 2646 581 3992 1843 2276 2133 2558 5624 657 8116 -282 369
-1004 1082 -1307 1289 -165 114 -395 279 -511 367 -585 446 -2365 804 -3539
711z m-987 -1441 c373 -228 103 -602 -744 -1029 -742 -374 -1035 -764 -1100
-1462 -109 -1173 -269 -1459 -817 -1460 -628 0 -720 1070 -157 1828 85 114
256 351 380 527 552 784 1241 1344 1999 1623 237 87 252 86 439 -27z m1982
-2681 c290 -1047 575 -1389 1570 -1890 200 -101 377 -217 393 -259 57 -148
-311 -411 -794 -567 -461 -150 -974 -865 -1196 -1668 -187 -674 -462 -702
-586 -61 -146 755 -763 1600 -1279 1752 -843 248 -890 550 -141 905 746 354
1220 976 1396 1831 90 437 90 437 297 437 207 0 207 0 340 -480z m-4018 -3796
c472 -244 355 -1374 -142 -1374 -795 0 -1109 947 -448 1350 195 119 391 127
590 24z"/>
<path d="M5029 14088 c-188 -544 -603 -1038 -872 -1038 -174 0 -42 -231 190
-332 307 -135 563 -472 687 -905 129 -449 239 -417 389 112 93 330 317 605
640 787 239 136 248 282 25 409 -351 200 -613 553 -710 954 -86 355 -229 360
-349 13z"/>
<path d="M20232 14048 c-110 -397 -282 -648 -585 -854 -296 -203 -320 -331
-84 -465 358 -205 577 -498 708 -951 81 -280 227 -280 308 0 143 492 430 847
793 978 267 96 240 241 -69 376 -307 135 -563 472 -687 906 -126 438 -264 442
-384 10z"/>
<path d="M8200 9750 c-119 -119 -131 -414 -25 -600 230 -402 40 -850 -498
-1176 -843 -512 -1220 -1177 -1105 -1948 79 -524 966 -1126 1878 -1274 179
-29 471 -86 650 -126 330 -74 1215 -225 1904 -325 466 -67 3492 -69 3771 -2
110 27 284 49 386 50 103 0 541 81 975 179 434 97 969 209 1189 248 799 141
1594 653 1752 1130 224 674 -293 1732 -1002 2049 -547 244 -700 708 -472 1431
63 200 60 218 -52 338 -223 237 -453 160 -1201 -404 -288 -217 -648 -449 -800
-514 -2206 -958 -4532 -756 -6257 542 -694 522 -898 597 -1093 402z m2075
-1897 c1879 -440 4200 -428 5494 29 348 122 568 92 682 -94 272 -448 -123
-826 -1051 -1006 -206 -40 -443 -87 -525 -104 -853 -178 -3143 -153 -4175 45
-1343 258 -2165 814 -1791 1211 155 165 370 152 1366 -81z"/>
</g>
</svg>
