<?xml version="1.0" standalone="no"?>
<!DOCTYPE svg PUBLIC "-//W3C//DTD SVG 20010904//EN"
 "http://www.w3.org/TR/2001/REC-SVG-20010904/DTD/svg10.dtd">
<svg aria-labelledby="icon-monitoring-eye-title" role="img" id="icon-monitoring-eye" data-icon-id="monitoring-eye" data-icon-label="Monitoring Eye" version="1.0" xmlns="http://www.w3.org/2000/svg"
 width="512.000000pt" height="512.000000pt" viewBox="0 0 512.000000 512.000000"
 preserveAspectRatio="xMidYMid meet">
<title id="icon-monitoring-eye-title">Monitoring Eye</title>
<metadata>
Created by potrace 1.16, written by Peter Selinger 2001-2019
</metadata>
<g transform="translate(0.000000,512.000000) scale(0.020000,-0.020000)"
fill="#000000" stroke="none">
<path d="M12660 21387 c-29 -34 -68 -130 -88 -212 -123 -508 -601 -1111 -999
-1263 -471 -179 -547 -229 -563 -369 -14 -121 206 -293 375 -293 268 0 875
-638 1119 -1175 243 -537 404 -558 576 -75 186 520 539 906 1118 1224 491 269
475 483 -48 629 -434 122 -890 662 -1127 1335 -96 271 -238 349 -363 199z"/>
<path d="M9566 18051 c-538 -115 -1239 -737 -1520 -1351 -57 -124 -129 -270
-160 -325 -31 -55 -125 -224 -209 -375 -402 -726 -1104 -1256 -2030 -1531
-567 -168 -1097 -1060 -1097 -1844 0 -917 472 -1544 1459 -1937 1236 -493
1837 -1305 1841 -2488 4 -1065 535 -1887 1063 -1646 219 99 346 404 372 888
39 750 266 1008 885 1008 942 0 1338 -651 1385 -2275 47 -1608 279 -2089 1059
-2198 1022 -143 1592 633 1500 2040 -53 809 157 1625 550 2138 200 262 952
394 1276 224 356 -186 442 -370 510 -1088 52 -562 107 -675 358 -743 538 -145
922 475 991 1602 77 1262 493 1888 1601 2409 1072 504 1056 493 1311 869 732
1077 297 2732 -812 3096 -321 106 -1055 469 -1283 635 -273 199 -448 462
-1072 1612 -489 900 -1063 1283 -1944 1297 -508 8 -722 -59 -1040 -324 -129
-108 -330 -275 -446 -372 -380 -318 -726 -444 -1269 -464 -631 -22 -935 118
-1735 801 -355 303 -1026 452 -1544 342z m4509 -1974 c787 -165 2140 -755
2461 -1074 76 -76 285 -235 464 -354 267 -177 556 -428 1311 -1140 390 -368
639 -713 639 -885 0 -230 -754 -1034 -1420 -1514 -217 -157 -584 -426 -816
-598 -231 -173 -560 -384 -730 -469 -170 -86 -365 -193 -434 -239 -145 -97
-1082 -472 -1375 -550 -307 -82 -2198 -69 -2612 18 -702 148 -2041 785 -2483
1182 -140 126 -435 348 -655 494 -465 307 -1725 1527 -1725 1670 0 176 1393
1638 1805 1894 121 75 378 262 570 416 1244 996 3383 1487 5000 1149z"/>
<path d="M12225 15022 c-2503 -551 -2468 -4242 45 -4798 2393 -530 4026 2220
2439 4106 -475 565 -1616 883 -2484 692z m884 -1235 c751 -198 1159 -1005 836
-1651 -538 -1074 -2030 -917 -2273 238 -180 854 610 1630 1437 1413z"/>
</g>
</svg>
