<?xml version="1.0" standalone="no"?>
<!DOCTYPE svg PUBLIC "-//W3C//DTD SVG 20010904//EN"
 "http://www.w3.org/TR/2001/REC-SVG-20010904/DTD/svg10.dtd">
<svg aria-labelledby="icon-alert-bell-ring-title" role="img" id="icon-alert-bell-ring" data-icon-id="alert-bell-ring" data-icon-label="Alert Bell Ring" version="1.0" xmlns="http://www.w3.org/2000/svg"
 width="512.000000pt" height="512.000000pt" viewBox="0 0 512.000000 512.000000"
 preserveAspectRatio="xMidYMid meet">
<title id="icon-alert-bell-ring-title">Alert Bell Ring</title>
<metadata>
Created by potrace 1.16, written by Peter Selinger 2001-2019
</metadata>
<g transform="translate(0.000000,512.000000) scale(0.020000,-0.020000)"
fill="#000000" stroke="none">
<path d="M12557 20748 c-342 -70 -609 -222 -959 -547 -177 -165 -341 -300
-363 -300 -22 -1 -83 -97 -135 -213 -212 -475 -1174 -1275 -1761 -1464 -647
-210 -1050 -630 -1187 -1239 -70 -313 143 -1073 404 -1443 225 -318 43 -1240
-288 -1454 -403 -260 -494 -948 -201 -1524 276 -544 271 -1124 -14 -1715 -441
-911 -394 -1453 176 -2016 333 -329 1025 -582 1598 -583 231 0 374 -47 1161
-384 34 -15 62 -45 62 -67 0 -23 109 -161 242 -307 340 -374 358 -423 358
-980 0 -1098 444 -1705 1250 -1709 661 -3 1206 706 1134 1476 -94 1002 761
1910 1866 1982 1763 116 2435 1218 1655 2714 -210 403 -215 978 -11 1420 335
726 276 1310 -170 1681 -387 321 -495 1022 -230 1493 489 869 422 1775 -159
2173 -304 209 -785 458 -884 458 -136 0 -675 373 -832 575 -79 102 -239 299
-354 437 -116 139 -259 355 -317 482 -325 699 -1302 1204 -2041 1054z m618
-3251 c1175 -311 1875 -1251 1875 -2515 0 -682 148 -1486 384 -2082 130 -329
592 -1050 672 -1050 67 0 53 -421 -16 -490 -87 -87 -6443 -87 -6530 0 -86 86
-74 366 18 442 580 482 1021 1681 1022 2780 0 955 307 1861 788 2328 479 465
1268 724 1787 587z m575 -7009 c-1 -980 -1553 -1120 -1785 -162 -100 413 -76
424 918 424 867 0 867 0 867 -262z"/>
<path d="M5536 16943 c-102 -53 -186 -113 -186 -135 0 -21 -103 -160 -229
-307 -518 -607 -949 -1725 -1123 -2911 -88 -601 213 -1901 587 -2535 74 -126
192 -342 261 -480 170 -341 694 -875 859 -875 317 0 321 264 12 812 -812 1439
-917 1762 -917 2813 0 689 49 995 235 1475 153 396 668 1400 811 1581 279 355
60 752 -310 562z"/>
<path d="M19813 16987 c-159 -74 -169 -369 -21 -583 45 -66 141 -224 212 -350
71 -126 211 -361 311 -523 795 -1287 727 -3310 -158 -4676 -114 -176 -207
-342 -207 -368 0 -26 -56 -114 -125 -196 -392 -465 86 -823 505 -378 918 975
1506 2759 1299 3941 -283 1619 -1300 3373 -1816 3133z"/>
<path d="M6580 15433 c-568 -569 -929 -1810 -762 -2622 161 -788 671 -1785
929 -1819 481 -63 551 260 185 852 -303 492 -332 627 -328 1500 4 858 14 900
334 1440 260 440 289 715 85 808 -187 85 -205 78 -443 -159z"/>
<path d="M18609 15534 c-136 -144 -138 -315 -6 -509 401 -588 447 -762 447
-1692 0 -982 -29 -1116 -352 -1611 -306 -470 -262 -723 124 -721 186 1 217 21
364 237 796 1169 916 2447 334 3562 -387 741 -682 979 -911 734z"/>
</g>
</svg>
