<?xml version="1.0" standalone="no"?>
<!DOCTYPE svg PUBLIC "-//W3C//DTD SVG 20010904//EN"
 "http://www.w3.org/TR/2001/REC-SVG-20010904/DTD/svg10.dtd">
<svg aria-labelledby="icon-performance-check-gauge-title" role="img" id="icon-performance-check-gauge" data-icon-id="performance-check-gauge" data-icon-label="Performance Check Gauge" version="1.0" xmlns="http://www.w3.org/2000/svg"
 width="512.000000pt" height="512.000000pt" viewBox="0 0 512.000000 512.000000"
 preserveAspectRatio="xMidYMid meet">
<title id="icon-performance-check-gauge-title">Performance Check Gauge</title>
<metadata>
Created by potrace 1.16, written by Peter Selinger 2001-2019
</metadata>
<g transform="translate(0.000000,512.000000) scale(0.020000,-0.020000)"
fill="#000000" stroke="none">
<path d="M12350 21468 c-933 -178 -1897 -845 -2589 -1793 -183 -251 -302 -353
-461 -399 -69 -20 -226 -100 -350 -177 -201 -126 -921 -427 -1250 -524 -1378
-404 -2695 -2521 -2406 -3867 125 -587 59 -1229 -221 -2133 -346 -1118 -388
-1490 -243 -2140 313 -1398 1658 -2379 3545 -2584 1505 -164 2665 -1131 2779
-2316 73 -760 401 -1295 877 -1433 1029 -296 1747 204 1949 1358 167 959 1163
2019 2220 2364 151 50 450 177 664 284 213 107 506 238 650 292 358 134 1161
617 1444 868 128 114 349 306 491 426 1355 1155 1723 3447 797 4963 -459 751
-588 1062 -672 1622 -41 273 -97 642 -124 821 -189 1262 -963 2014 -2319 2253
-1093 192 -1558 437 -2456 1293 -609 581 -1654 951 -2325 822z m40 -2978 c42
-42 60 -328 60 -968 0 -908 0 -908 -312 -970 -516 -102 -834 -199 -1418 -431
-512 -204 -920 -283 -920 -177 0 24 -118 180 -262 346 -532 614 -638 754 -638
846 0 127 269 375 575 531 138 70 318 174 400 231 228 156 1330 499 1790 557
224 28 418 61 430 73 44 45 237 20 295 -38z m1335 -39 c692 -87 1504 -407
2263 -893 520 -333 518 -402 -26 -1023 -91 -104 -202 -265 -246 -358 -157
-329 -342 -371 -798 -181 -748 312 -1037 409 -1526 513 l-492 105 0 908 c0
1015 12 1056 300 1004 96 -18 332 -51 525 -75z m-5015 -1838 c45 -76 275 -329
511 -562 468 -463 507 -561 298 -755 -613 -570 -1268 -1943 -1269 -2660 0
-787 -58 -836 -986 -836 l-864 0 2 638 c2 655 32 843 286 1788 234 872 535
1396 1183 2062 511 524 682 590 839 325z m8524 -92 c105 -126 296 -349 423
-495 567 -648 601 -857 184 -1121 -156 -99 -453 -298 -660 -442 -512 -357
-603 -352 -831 46 -96 168 -256 398 -354 511 -356 408 -348 521 74 986 140
155 341 386 446 513 267 323 450 324 718 2z m1185 -1927 c425 -194 284 -472
-843 -1651 -358 -375 -842 -899 -1076 -1163 -234 -265 -489 -543 -568 -618
-78 -75 -175 -200 -215 -277 -40 -77 -290 -366 -557 -642 -267 -276 -517 -554
-555 -616 -39 -63 -130 -150 -203 -193 -130 -77 -205 -154 -927 -960 -712
-794 -947 -791 -1750 27 -247 251 -619 583 -825 736 -1232 918 -1315 1292
-466 2119 670 654 824 640 1630 -143 679 -659 542 -682 1855 323 223 171 631
466 906 656 275 190 543 393 595 452 53 58 126 106 163 106 37 0 107 39 155
88 143 141 1808 1381 2157 1606 357 230 352 228 524 150z"/>
</g>
</svg>
