<?xml version="1.0" standalone="no"?>
<!DOCTYPE svg PUBLIC "-//W3C//DTD SVG 20010904//EN"
 "http://www.w3.org/TR/2001/REC-SVG-20010904/DTD/svg10.dtd">
<svg aria-labelledby="icon-time-cycle-clock-title" role="img" id="icon-time-cycle-clock" data-icon-id="time-cycle-clock" data-icon-label="Time Cycle Clock" version="1.0" xmlns="http://www.w3.org/2000/svg"
 width="512.000000pt" height="512.000000pt" viewBox="0 0 512.000000 512.000000"
 preserveAspectRatio="xMidYMid meet">
<title id="icon-time-cycle-clock-title">Time Cycle Clock</title>
<metadata>
Created by potrace 1.16, written by Peter Selinger 2001-2019
</metadata>
<g transform="translate(0.000000,512.000000) scale(0.020000,-0.020000)"
fill="#000000" stroke="none">
<path d="M11075 21451 c-546 -122 -1424 -519 -1425 -644 0 -17 -104 -144 -230
-282 -126 -137 -289 -329 -362 -425 -73 -96 -166 -196 -208 -222 -41 -26 -233
-197 -427 -380 -379 -358 -596 -455 -1564 -698 -1299 -325 -1811 -995 -1590
-2084 187 -925 48 -1767 -344 -2075 -364 -287 -701 -1260 -662 -1916 38 -633
229 -1014 816 -1625 644 -670 698 -807 657 -1647 -58 -1167 58 -1565 628
-2147 564 -577 1610 -941 2343 -815 1532 263 2098 -58 2411 -1366 208 -871
982 -1299 1889 -1044 567 159 812 490 996 1344 59 275 130 545 158 600 76 150
595 672 749 754 163 86 1535 99 1886 18 286 -66 1155 64 1388 209 187 115 530
529 678 818 115 225 129 575 66 1626 -60 981 144 1307 1496 2400 509 412 593
509 691 804 298 897 211 1776 -233 2359 -275 360 -572 497 -1544 709 -150 32
-457 281 -552 447 -39 67 -73 464 -92 1081 -72 2241 -614 2784 -2844 2849
-1362 40 -1851 202 -2548 841 -96 88 -253 184 -350 215 -97 30 -320 110 -494
178 -353 138 -1035 196 -1383 118z m2650 -2347 c303 -79 663 -189 800 -245
521 -208 806 -338 975 -443 328 -203 420 -199 521 25 216 478 681 363 832
-206 69 -257 273 -955 340 -1160 111 -337 151 -715 95 -896 -95 -309 -297
-268 -1463 294 -302 145 -606 281 -675 302 -478 141 -484 621 -9 699 365 60
282 299 -166 482 -82 34 -206 100 -275 147 -849 578 -2912 686 -4100 214 -568
-226 -911 -420 -1425 -804 -588 -439 -596 -451 -558 -778 67 -563 -190 -967
-710 -1116 -376 -108 -431 -166 -579 -612 -488 -1481 -347 -3082 379 -4289
289 -480 361 -535 641 -498 622 82 1263 -498 1196 -1082 -27 -242 53 -327 548
-581 950 -488 2125 -624 3560 -412 1511 223 3309 1834 3708 3324 226 840 232
872 249 1356 16 450 16 450 -140 525 -406 195 -532 1002 -209 1335 293 302
1034 215 1219 -143 121 -233 77 -742 -94 -1097 -115 -238 -135 -345 -135 -716
0 -619 -267 -1649 -550 -2123 -76 -127 -244 -415 -374 -639 -230 -400 -606
-800 -1333 -1421 -277 -236 -1454 -845 -1818 -939 -1598 -416 -2872 -297
-4338 404 -737 353 -737 353 -951 271 -751 -287 -1372 256 -1343 1175 9 311
-1 346 -171 569 -320 418 -762 1588 -893 2362 -159 936 -93 1569 287 2747 221
683 252 823 198 897 -107 146 -81 730 44 987 120 248 247 302 815 351 282 24
310 38 525 277 1119 1243 3620 1920 5377 1457z m-613 -2348 c626 -80 1668
-686 2073 -1206 187 -241 325 -466 658 -1075 67 -123 85 -344 97 -1237 19
-1333 -126 -1715 -988 -2606 -1164 -1202 -3122 -1503 -4240 -650 -121 92 -241
168 -267 168 -26 0 -189 131 -361 292 -173 161 -350 312 -394 337 -108 62
-539 779 -674 1121 -575 1457 -62 3227 1209 4177 901 674 1614 841 2887 679z"/>
<path d="M12246 15787 c-247 -195 -270 -305 -288 -1363 -20 -1185 8 -1331 305
-1616 238 -228 878 -708 944 -708 23 0 127 -75 230 -167 542 -481 928 -575
1114 -270 140 230 143 224 -330 637 -237 206 -570 499 -742 650 -172 151 -394
337 -492 412 -180 136 -180 136 -196 1186 -15 972 -23 1057 -116 1148 -130
127 -329 170 -429 91z"/>
</g>
</svg>
