<?xml version="1.0" standalone="no"?>
<!DOCTYPE svg PUBLIC "-//W3C//DTD SVG 20010904//EN"
 "http://www.w3.org/TR/2001/REC-SVG-20010904/DTD/svg10.dtd">
<svg aria-labelledby="icon-deep-tech-core-title" role="img" id="icon-deep-tech-core" data-icon-id="deep-tech-core" data-icon-label="Deep Tech Core" version="1.0" xmlns="http://www.w3.org/2000/svg"
 width="512.000000pt" height="512.000000pt" viewBox="0 0 512.000000 512.000000"
 preserveAspectRatio="xMidYMid meet">
<title id="icon-deep-tech-core-title">Deep Tech Core</title>
<metadata>
Created by potrace 1.16, written by Peter Selinger 2001-2019
</metadata>
<g transform="translate(0.000000,512.000000) scale(0.020000,-0.020000)"
fill="#000000" stroke="none">
<path d="M9300 20871 c-179 -208 -471 -542 -650 -744 -179 -202 -445 -510
-591 -684 -147 -175 -398 -465 -559 -645 -729 -816 -789 -960 -729 -1738 153
-1981 201 -2810 165 -2810 -57 0 -537 290 -804 485 -529 388 -606 328 -992
-763 -401 -1134 -406 -1189 -139 -1599 117 -179 281 -383 364 -453 402 -338
2543 -1270 2919 -1270 132 0 -113 969 -458 1811 -20 48 -354 241 -743 430
-390 189 -747 387 -794 441 -93 106 -439 929 -439 1046 0 82 178 99 225 21 18
-28 194 -160 392 -294 199 -134 394 -283 434 -331 40 -48 277 -240 526 -425
668 -498 725 -578 999 -1407 521 -1573 389 -1467 1826 -1467 1206 0 1303 36
1735 636 512 713 518 718 1231 1147 997 600 1004 610 809 1030 -417 895 -573
996 -1166 754 -1167 -477 -1229 -531 -1732 -1517 -705 -1379 -840 -1598 -998
-1616 -189 -22 -168 66 200 866 152 330 354 769 450 975 108 235 172 450 171
575 -26 3412 -65 3756 -460 4005 -252 159 -319 133 -714 -281 -321 -336 -349
-456 -306 -1274 78 -1470 85 -3975 12 -3975 -94 0 -130 183 -186 950 -26 344
-69 901 -97 1238 -28 336 -71 876 -95 1200 -94 1254 -59 1192 -1041 1838 -418
274 -762 527 -763 562 -3 90 174 76 387 -32 244 -123 898 -382 1078 -426 217
-53 266 26 407 661 71 321 196 878 278 1238 81 359 148 763 148 896 0 366 131
676 223 528 37 -59 471 -1695 532 -2003 53 -268 141 -451 216 -447 53 2 129
52 896 585 683 473 704 412 196 -567 -387 -746 -387 -746 -403 -2246 -18
-1590 2 -1925 115 -1925 37 0 359 146 715 324 633 317 647 327 678 512 49 301
37 2620 -16 2918 -26 149 -86 519 -132 821 -124 822 -121 818 -1262 1682 -339
258 -714 547 -833 643 -119 96 -295 238 -391 315 -333 267 -462 237 -834 -194z"/>
<path d="M17522 20026 c-499 -249 -955 -764 -1373 -1551 -589 -1111 -821
-1275 -1810 -1276 -872 0 -1039 -28 -1039 -173 0 -170 216 -205 1068 -170
1055 43 1430 250 1810 1000 926 1828 1821 2365 2822 1693 442 -297 566 -344
997 -380 375 -31 421 -47 575 -201 360 -360 978 -148 978 335 0 421 -197 574
-712 553 -81 -4 -217 -78 -331 -181 -311 -280 -666 -258 -1172 72 -667 435
-1304 533 -1813 279z"/>
<path d="M17873 17956 c-443 -113 -1552 -1012 -1803 -1462 -131 -235 -413
-294 -1431 -300 -530 -3 -1029 -20 -1109 -37 -154 -34 -278 -176 -212 -242 89
-89 1775 -79 2250 13 516 100 452 56 1355 928 658 636 682 653 1063 742 342
80 503 26 1114 -378 446 -295 498 -317 850 -349 332 -31 397 -54 565 -205 478
-428 976 -278 1024 308 34 405 -206 623 -639 581 -213 -21 -303 -69 -383 -205
-168 -284 -786 -198 -1242 173 -433 352 -1014 532 -1402 433z"/>
<path d="M17543 15834 c-182 -62 -468 -197 -634 -299 -528 -326 -581 -335
-2009 -335 -1477 0 -1600 -13 -1600 -175 0 -227 97 -249 1193 -267 1510 -25
1849 49 2832 617 531 307 1181 217 1597 -221 325 -342 722 -546 1135 -583 338
-30 391 -48 449 -156 260 -486 1052 -216 1052 359 0 634 -697 761 -1152 209
-153 -186 -668 -74 -981 214 -764 703 -1229 860 -1882 637z"/>
<path d="M17650 13960 c-69 -10 -327 -68 -575 -129 -411 -102 -476 -106 -750
-46 -721 159 -1781 133 -1894 -46 -86 -137 -19 -153 806 -195 433 -23 943 -73
1133 -113 304 -63 378 -63 625 4 943 257 1346 207 1598 -197 337 -541 867
-903 1407 -962 265 -29 354 -63 481 -185 424 -403 1068 -192 1069 350 0 349
-257 552 -650 514 -213 -21 -303 -69 -383 -205 -180 -304 -956 -136 -1304 283
-437 524 -540 629 -742 747 -217 127 -597 210 -821 180z"/>
<path d="M14241 12513 c-139 -131 -378 -407 -531 -613 -1303 -1765 -3011
-2198 -6122 -1552 -902 188 -1123 291 -1941 911 -871 659 -1095 637 -1096
-109 -2 -539 -136 -1099 -340 -1410 -134 -205 -136 -412 -9 -853 59 -202 59
-264 1 -400 -108 -256 -124 -652 -32 -829 97 -189 99 -491 4 -658 -323 -565
178 -1135 1143 -1299 650 -112 930 -151 1068 -151 138 0 342 -117 928 -532
264 -187 755 -186 1282 0 569 202 804 183 1392 -112 1382 -692 1734 -731 2685
-294 364 167 528 212 875 241 500 42 907 142 1422 348 442 177 974 203 1336
66 614 -233 1323 -91 1794 359 379 361 560 424 1225 424 1014 0 1321 312 924
940 -164 260 -166 272 -116 572 29 180 33 400 9 528 -22 122 -32 236 -21 253
68 110 175 838 148 1006 -36 228 -333 399 -1161 674 -459 152 -662 302 -962
707 -223 302 -423 411 -1096 596 -1297 358 -1168 280 -1979 1194 -287 324
-476 323 -830 -7z m3921 -2390 c220 -186 456 -295 963 -447 633 -190 725 -229
725 -306 0 -216 -696 -367 -1700 -369 -1063 -3 -1505 -146 -2111 -683 -103
-91 -238 -176 -300 -189 -63 -13 -232 -49 -377 -81 -197 -44 -344 -44 -588 -2
-410 72 -997 -27 -1634 -275 -1124 -438 -1881 -487 -2690 -173 -396 154 -474
167 -1150 186 -725 21 -725 21 -1250 268 -289 136 -693 281 -900 324 -214 43
-622 192 -950 346 -316 148 -699 307 -850 354 -440 136 -850 332 -850 406 0
188 1032 23 2075 -332 769 -262 1354 -319 2302 -227 441 44 573 2 1067 -337
616 -422 1159 -369 2011 196 655 435 966 506 2373 542 547 14 1212 219 1645
506 615 408 1855 574 2189 293z m-12942 -2099 c591 -121 878 -246 1469 -637
746 -493 912 -537 2013 -537 893 0 893 0 1593 -346 1095 -541 1478 -570 2296
-177 785 376 998 426 1833 421 791 -3 908 18 1501 272 267 115 344 126 700
101 462 -34 662 22 1175 325 227 135 408 202 600 223 308 33 817 104 1138 158
236 40 275 -34 156 -296 -73 -160 -199 -205 -869 -308 -680 -105 -849 -190
-1644 -819 -261 -207 -728 -347 -941 -282 -63 20 -475 56 -915 81 -440 25
-929 60 -1087 77 -342 38 -1019 -148 -1388 -381 -750 -475 -1471 -483 -2327
-26 -246 131 -527 281 -623 332 -280 149 -655 195 -1583 195 -979 0 -1126 43
-1729 501 -371 281 -856 526 -1267 640 -413 114 -764 283 -804 387 -42 108 84
233 204 203 57 -14 282 -62 499 -107z"/>
</g>
</svg>
