<?xml version="1.0" standalone="no"?>
<!DOCTYPE svg PUBLIC "-//W3C//DTD SVG 20010904//EN"
 "http://www.w3.org/TR/2001/REC-SVG-20010904/DTD/svg10.dtd">
<svg aria-labelledby="icon-speech-input-terminal-title" role="img" id="icon-speech-input-terminal" data-icon-id="speech-input-terminal" data-icon-label="Speech Input Terminal" version="1.0" xmlns="http://www.w3.org/2000/svg"
 width="512.000000pt" height="512.000000pt" viewBox="0 0 512.000000 512.000000"
 preserveAspectRatio="xMidYMid meet">
<title id="icon-speech-input-terminal-title">Speech Input Terminal</title>
<metadata>
Created by potrace 1.16, written by Peter Selinger 2001-2019
</metadata>
<g transform="translate(0.000000,512.000000) scale(0.020000,-0.020000)"
fill="#000000" stroke="none">
<path d="M6693 19131 c-842 -249 -1422 -906 -1677 -1900 -162 -633 -41 -835
523 -870 511 -31 599 -114 456 -428 -50 -110 -92 -123 -447 -143 -470 -28
-548 -80 -548 -365 0 -242 69 -275 573 -275 686 0 663 -621 -25 -660 -470 -28
-548 -80 -548 -365 0 -285 78 -337 548 -365 355 -20 397 -33 447 -143 147
-323 56 -399 -507 -427 -526 -27 -515 -17 -506 -432 16 -809 568 -1675 1309
-2053 1468 -750 3248 339 3277 2004 8 466 23 450 -455 480 -448 27 -513 63
-513 286 0 223 65 259 513 286 466 29 451 17 451 364 0 345 23 326 -447 360
-453 33 -517 68 -517 287 0 248 160 359 570 395 411 36 388 18 388 308 0 288
23 269 -362 304 -481 44 -596 100 -596 292 0 216 79 279 348 280 535 1 593 31
629 326 196 1568 -1372 2902 -2884 2454z"/>
<path d="M15925 18155 c-224 -56 -539 -282 -651 -467 -190 -313 -146 -3502 51
-3786 291 -417 324 -478 325 -582 0 -58 -56 -182 -125 -275 -358 -488 -350
-430 -350 -2429 0 -1756 3 -1813 104 -1950 183 -247 311 -279 737 -185 773
170 1134 -191 1134 -1137 1 -841 276 -1173 777 -938 285 134 329 237 375 889
64 898 92 955 470 955 340 0 478 -131 478 -453 1 -396 83 -586 299 -697 317
-161 551 140 551 710 0 497 353 773 659 515 323 -272 793 -131 876 262 105
496 46 8877 -65 9088 -250 479 -371 499 -3091 509 -1322 4 -2472 -9 -2554 -29z
m2125 -1778 c0 -720 63 -677 -977 -677 -1012 0 -973 -28 -973 692 0 572 -22
557 798 563 372 3 733 21 802 41 298 87 350 -5 350 -619z m2900 8 c0 -735 78
-685 -1086 -685 -1109 0 -1163 28 -1164 594 0 664 -14 656 1183 656 l1067 0 0
-565z m-2900 -2000 c0 -729 63 -685 -975 -685 -1020 0 -975 -26 -975 558 0
724 -48 692 1033 692 l917 0 0 -565z m2840 505 c82 -82 82 -1048 0 -1130 -43
-43 -350 -60 -1067 -60 -1123 0 -1123 0 -1123 625 0 625 0 625 1123 625 717 0
1024 -17 1067 -60z m-2900 -2000 c40 -40 60 -252 60 -625 l0 -565 -917 0
c-1071 0 -1033 -23 -1033 625 0 644 -30 625 973 625 600 0 875 -18 917 -60z
m2900 0 c82 -82 82 -1048 0 -1130 -43 -43 -350 -60 -1067 -60 -1168 0 -1123
-23 -1123 590 1 642 32 660 1164 660 685 0 983 -17 1026 -60z m-2900 -2000
c83 -83 83 -1147 0 -1230 -138 -138 -1766 -78 -1832 67 -108 238 -75 974 51
1107 127 135 1654 183 1781 56z m2833 2 c125 -57 127 -67 127 -615 0 -725 77
-677 -1086 -677 -1150 0 -1163 8 -1164 722 0 626 3 628 1106 628 568 0 935
-21 1017 -58z"/>
<path d="M12750 15675 c-113 -136 -34 -576 189 -1055 314 -674 345 -840 192
-1022 -220 -262 -214 -413 28 -679 128 -141 57 -439 -241 -1011 -342 -656
-305 -1008 106 -1008 178 0 217 21 299 163 51 89 147 227 213 307 66 79 177
259 247 400 70 140 212 345 316 455 650 689 790 1154 464 1543 -466 555 -553
670 -800 1052 -144 223 -323 499 -397 614 -192 296 -478 407 -616 241z"/>
<path d="M11807 14832 c-122 -129 -144 -423 -46 -598 95 -169 183 -628 183
-959 0 -331 -88 -790 -183 -959 -235 -420 144 -827 480 -514 225 210 596 1265
544 1547 -106 569 -167 770 -322 1066 -231 442 -483 601 -656 417z"/>
<path d="M10739 14163 c-128 -146 -148 -295 -66 -490 99 -237 98 -560 -1 -798
-95 -226 -34 -431 153 -516 280 -127 630 361 639 891 11 643 -452 1224 -725
913z"/>
<path d="M4118 13291 c-285 -137 -220 -1009 141 -1886 128 -312 162 -478 190
-930 46 -750 70 -783 551 -765 500 20 622 -177 629 -1010 6 -693 2 -670 150
-846 273 -323 515 -143 648 484 87 412 87 412 297 412 265 0 326 -205 326
-1091 1 -895 139 -1159 609 -1159 404 0 538 336 540 1350 2 809 72 1000 369
1000 192 0 254 -103 298 -489 32 -273 106 -361 306 -361 257 0 382 277 425
943 36 556 81 675 488 1306 190 293 342 1373 215 1526 -141 170 -383 95 -442
-137 -180 -709 -1338 -1637 -2043 -1638 -104 0 -276 -24 -380 -53 -251 -70
-829 47 -1309 265 -341 155 -1125 822 -1126 959 -1 30 -59 178 -131 329 -155
329 -269 829 -269 1181 0 568 -158 767 -482 610z"/>
</g>
</svg>
