<?xml version="1.0" standalone="no"?>
<!DOCTYPE svg PUBLIC "-//W3C//DTD SVG 20010904//EN"
 "http://www.w3.org/TR/2001/REC-SVG-20010904/DTD/svg10.dtd">
<svg aria-labelledby="icon-verified-target-title" role="img" id="icon-verified-target" data-icon-id="verified-target" data-icon-label="Verified Target" version="1.0" xmlns="http://www.w3.org/2000/svg"
 width="512.000000pt" height="512.000000pt" viewBox="0 0 512.000000 512.000000"
 preserveAspectRatio="xMidYMid meet">
<title id="icon-verified-target-title">Verified Target</title>
<metadata>
Created by potrace 1.16, written by Peter Selinger 2001-2019
</metadata>
<g transform="translate(0.000000,512.000000) scale(0.020000,-0.020000)"
fill="#000000" stroke="none">
<path d="M12604 21354 c-144 -144 -162 -391 -145 -1959 18 -1609 15 -1595 363
-1595 445 0 453 32 453 1742 0 1599 -20 1744 -256 1852 -179 81 -306 69 -415
-40z"/>
<path d="M11000 20074 c-316 -94 -687 -206 -825 -250 -409 -131 -1059 -460
-1261 -639 -104 -92 -245 -205 -314 -252 -251 -170 -1168 -1116 -1365 -1408
-111 -165 -256 -366 -322 -446 -175 -212 -599 -1079 -640 -1308 -19 -108 -99
-462 -177 -787 -220 -913 -204 -934 679 -934 724 0 750 10 849 343 217 725
305 962 502 1357 671 1342 1825 2299 3268 2709 292 82 564 182 604 220 85 82
133 862 79 1295 -43 346 -197 360 -1077 100z"/>
<path d="M13681 20094 c-40 -201 -40 -1135 -1 -1334 29 -141 56 -158 388 -239
1580 -384 2808 -1381 3570 -2896 205 -409 247 -533 389 -1158 96 -423 82 -415
804 -416 890 -2 947 41 837 623 -105 558 -406 1520 -595 1901 -154 312 -300
520 -1015 1450 -202 261 -402 449 -882 825 -157 124 -385 308 -505 409 -120
101 -270 199 -332 219 -63 19 -170 74 -239 121 -224 154 -1933 651 -2240 651
-125 0 -152 -24 -179 -156z"/>
<path d="M12130 16818 c-566 -122 -1405 -592 -1783 -1001 -1418 -1533 -1437
-3396 -51 -4935 130 -144 850 -651 1131 -796 84 -43 424 -135 756 -205 2565
-542 4908 2057 4052 4494 -604 1719 -2426 2803 -4105 2443z m2704 -2177 c323
-303 268 -384 -1532 -2243 -1023 -1056 -930 -1049 -1833 -135 -361 364 -681
711 -712 771 -141 272 -29 579 241 660 288 86 285 87 811 -422 493 -479 493
-479 692 -321 109 86 199 173 199 193 0 57 1041 1106 1098 1106 29 0 133 113
232 250 214 298 571 361 804 141z"/>
<path d="M5325 13775 c-27 -9 -112 -30 -187 -46 -319 -71 -390 -631 -100 -786
263 -141 3126 -94 3283 53 288 270 149 653 -272 750 -199 46 -2597 72 -2724
29z"/>
<path d="M17591 13766 c-379 -63 -522 -565 -225 -786 237 -176 3166 -162 3355
16 210 198 150 576 -114 710 -129 66 -2676 117 -3016 60z"/>
<path d="M6157 12480 c-199 -56 -206 -198 -38 -787 66 -230 134 -502 152 -604
18 -103 105 -339 194 -525 156 -331 161 -360 185 -1189 28 -957 86 -1136 421
-1295 226 -107 222 -108 495 117 373 309 533 303 840 -30 215 -234 244 -410
244 -1473 0 -1510 143 -1889 715 -1892 487 -3 684 297 720 1098 43 933 147
1007 1080 770 979 -249 934 -281 934 655 0 881 48 823 -899 1099 -1693 493
-2933 1759 -3452 3526 -162 553 -179 564 -863 570 -314 3 -642 -15 -728 -40z"/>
<path d="M18220 12466 c-133 -26 -207 -166 -271 -514 -28 -151 -94 -353 -148
-450 -54 -98 -201 -373 -329 -613 -212 -401 -336 -565 -1006 -1331 -499 -570
-1583 -1132 -2473 -1280 -282 -47 -316 -123 -336 -762 -33 -1057 -23 -1075
573 -950 692 145 920 -135 920 -1129 0 -1071 313 -1564 922 -1453 538 99 600
281 620 1840 19 1424 35 1510 314 1654 272 141 410 37 538 -405 115 -394 189
-473 448 -473 376 0 508 428 508 1645 0 968 3 979 425 1682 173 287 329 607
348 710 19 103 88 323 153 488 144 366 267 1003 236 1217 -23 158 -23 158
-680 151 -361 -4 -704 -16 -762 -27z"/>
<path d="M12550 8838 c-105 -159 -140 -2961 -41 -3262 108 -327 494 -362 692
-62 79 119 141 2583 76 3016 -60 397 -535 598 -727 308z"/>
</g>
</svg>
