<?xml version="1.0" standalone="no"?>
<!DOCTYPE svg PUBLIC "-//W3C//DTD SVG 20010904//EN"
 "http://www.w3.org/TR/2001/REC-SVG-20010904/DTD/svg10.dtd">
<svg aria-labelledby="icon-warning-alert-title" role="img" id="icon-warning-alert" data-icon-id="warning-alert" data-icon-label="Warning Alert" version="1.0" xmlns="http://www.w3.org/2000/svg"
 width="512.000000pt" height="512.000000pt" viewBox="0 0 512.000000 512.000000"
 preserveAspectRatio="xMidYMid meet">
<title id="icon-warning-alert-title">Warning Alert</title>
<metadata>
Created by potrace 1.16, written by Peter Selinger 2001-2019
</metadata>
<g transform="translate(0.000000,512.000000) scale(0.020000,-0.020000)"
fill="#000000" stroke="none">
<path d="M12050 21069 c-319 -62 -607 -188 -711 -311 -63 -74 -218 -196 -346
-270 -328 -192 -648 -814 -766 -1488 -120 -688 -209 -964 -379 -1177 -83 -104
-163 -240 -178 -302 -16 -62 -80 -125 -145 -142 -65 -16 -181 -82 -259 -147
-236 -198 -529 -321 -970 -410 -640 -129 -1359 -534 -1603 -905 -559 -846
-744 -1319 -743 -1902 1 -363 173 -1023 293 -1120 56 -45 117 -141 135 -214
47 -187 481 -760 707 -935 105 -81 296 -226 425 -324 129 -98 248 -220 265
-271 16 -51 116 -182 221 -291 521 -537 477 -1851 -80 -2444 -687 -730 -858
-1981 -382 -2796 394 -675 1673 -1185 2168 -866 68 44 191 103 274 131 82 28
322 163 531 300 560 365 955 432 1558 262 174 -48 460 -269 935 -720 412 -391
876 -451 1420 -183 385 189 553 464 638 1039 140 957 448 1377 1150 1566 467
126 611 107 1358 -182 1975 -764 3677 682 3284 2789 -138 736 -692 1388 -1550
1820 -1262 636 -1684 1954 -1019 3177 141 259 266 392 1031 1103 729 678 877
1483 438 2377 -380 772 -1667 1085 -2385 578 -941 -662 -2156 -473 -2598 405
-750 1489 -1600 2069 -2717 1853z m1702 -3995 c384 -199 443 -556 299 -1824
-30 -261 -75 -689 -101 -950 -26 -261 -71 -689 -99 -950 -29 -261 -74 -666
-99 -900 -50 -451 -123 -995 -180 -1325 -78 -449 -553 -667 -977 -448 -238
124 -291 363 -496 2248 -103 943 -152 1374 -199 1750 -28 220 -72 641 -97 936
-25 295 -59 559 -76 585 -107 174 156 679 448 860 201 125 1345 138 1577 18z
m-336 -7569 c421 -293 699 -754 611 -1014 -12 -36 -47 -162 -77 -279 -225
-882 -1487 -1001 -1892 -180 -279 565 -140 1128 346 1408 108 62 196 135 196
161 0 123 603 52 816 -96z"/>
<path d="M5544 19372 c-918 -283 -817 -1952 127 -2094 1060 -159 1654 833
1046 1749 -259 390 -651 506 -1173 345z"/>
<path d="M20225 14465 c-283 -65 -639 -620 -639 -996 0 -815 1037 -1285 1562
-707 718 789 95 1938 -923 1703z"/>
<path d="M5125 11266 c-55 -13 -122 -52 -150 -86 -27 -34 -165 -124 -306 -200
-720 -390 -677 -1524 75 -1946 1004 -564 2208 514 1709 1532 -186 381 -962
790 -1328 700z"/>
</g>
</svg>
