<?xml version="1.0" standalone="no"?>
<!DOCTYPE svg PUBLIC "-//W3C//DTD SVG 20010904//EN"
 "http://www.w3.org/TR/2001/REC-SVG-20010904/DTD/svg10.dtd">
<svg version="1.0" xmlns="http://www.w3.org/2000/svg"
 width="512.000000pt" height="512.000000pt" viewBox="0 0 512.000000 512.000000"
 preserveAspectRatio="xMidYMid meet">
<metadata>
Created by potrace 1.16, written by Peter Selinger 2001-2019
</metadata>
<g transform="translate(0.000000,512.000000) scale(0.020000,-0.020000)"
fill="#000000" stroke="none">
<path d="M12454 21149 c-489 -103 -1074 -580 -1219 -993 -89 -256 -89 -256
-1467 -256 -1149 0 -1430 14 -1686 86 -1077 300 -2244 -20 -2742 -752 -566
-830 -590 -1735 -78 -2934 91 -212 143 -598 171 -1256 27 -630 27 -630 -141
-747 -833 -584 -1017 -901 -1017 -1751 0 -682 242 -1078 861 -1407 294 -156
330 -274 297 -975 -36 -775 -124 -1203 -358 -1746 -685 -1585 389 -3241 2102
-3243 466 0 630 18 725 79 252 163 576 196 1914 196 1430 0 1394 7 1456 -283
45 -210 608 -685 951 -802 851 -290 1769 45 2214 810 145 250 145 250 1441
265 1351 17 1789 -26 1904 -184 87 -119 1297 -120 1385 -2 32 44 126 96 208
116 224 54 647 350 808 565 78 105 192 231 253 280 433 351 432 1590 -2 2480
-319 656 -352 2304 -47 2395 610 183 1100 1130 963 1862 -115 617 -527 1177
-960 1307 -190 57 -190 57 -190 941 0 853 43 1177 169 1259 77 51 227 507 327
991 137 669 -34 1411 -418 1818 -98 104 -178 207 -178 230 0 62 -600 433 -825
509 -295 100 -1384 85 -1669 -24 -185 -70 -431 -83 -1606 -83 -1521 0 -1441
-17 -1551 324 -210 651 -1173 1097 -1995 925z m-1179 -2647 c33 -150 497 -641
769 -813 291 -185 1179 -183 1660 2 172 67 567 483 708 747 177 332 1608 320
2488 -22 446 -173 777 -392 905 -599 59 -95 194 -231 300 -301 226 -150 436
-465 611 -916 208 -536 233 -693 234 -1454 0 -805 -6 -822 -375 -1011 -608
-313 -922 -1091 -751 -1866 79 -362 237 -719 318 -719 18 0 118 -76 222 -168
103 -92 278 -208 387 -258 199 -89 199 -89 199 -972 0 -1792 -818 -2932 -2425
-3381 -170 -47 -531 -70 -1129 -70 -879 -1 -879 -1 -992 241 -345 736 -1265
1111 -2118 864 -257 -75 -784 -550 -1018 -918 -119 -188 -119 -188 -1006 -187
-580 0 -974 23 -1138 67 -414 110 -1270 583 -1417 782 -70 96 -225 281 -343
410 -118 130 -214 256 -214 281 0 24 -51 100 -114 168 -211 227 -436 1172
-436 1826 0 692 35 777 380 917 1180 479 1186 2374 9 3024 -364 202 -364 202
-380 725 -17 544 56 1132 168 1351 35 69 80 210 99 312 19 102 52 186 72 186
21 0 129 129 240 288 112 158 285 366 386 462 100 96 229 249 285 340 75 121
236 232 609 420 711 358 819 380 1866 386 908 4 908 4 941 -144z"/>
<path d="M12330 16018 c-675 -145 -946 -338 -1698 -1211 -134 -155 -338 -386
-453 -513 -731 -806 -850 -2048 -279 -2918 319 -486 1419 -1557 1775 -1728
746 -359 1560 -377 2302 -51 199 87 1523 1357 1523 1461 0 47 226 349 431 576
328 361 320 1735 -12 2093 -64 69 -143 176 -175 237 -274 525 -1345 1652
-1770 1862 -509 252 -1063 317 -1644 192z"/>
</g>
</svg>
