<?xml version="1.0" standalone="no"?>
<!DOCTYPE svg PUBLIC "-//W3C//DTD SVG 20010904//EN"
 "http://www.w3.org/TR/2001/REC-SVG-20010904/DTD/svg10.dtd">
<svg aria-labelledby="icon-modular-block-stack-title" role="img" id="icon-modular-block-stack" data-icon-id="modular-block-stack" data-icon-label="Modular Block Stack" version="1.0" xmlns="http://www.w3.org/2000/svg"
 width="512.000000pt" height="512.000000pt" viewBox="0 0 512.000000 512.000000"
 preserveAspectRatio="xMidYMid meet">
<title id="icon-modular-block-stack-title">Modular Block Stack</title>
<metadata>
Created by potrace 1.16, written by Peter Selinger 2001-2019
</metadata>
<g transform="translate(0.000000,512.000000) scale(0.020000,-0.020000)"
fill="#000000" stroke="none">
<path d="M12450 21081 c-280 -81 -625 -256 -746 -377 -51 -51 -170 -118 -266
-150 -95 -31 -278 -124 -407 -205 -129 -82 -253 -149 -275 -149 -22 0 -180
-90 -350 -200 -170 -110 -417 -255 -548 -321 -362 -184 -511 -559 -316 -794
79 -96 805 -522 1009 -593 90 -31 205 -98 256 -149 94 -94 1268 -698 1493
-769 68 -21 151 -75 183 -119 149 -203 738 -105 1317 219 289 162 691 379 895
482 203 103 383 208 400 234 16 26 233 149 480 274 931 468 1012 914 233 1277
-99 46 -220 123 -268 171 -49 47 -331 212 -627 365 -296 153 -645 354 -776
447 -494 351 -1198 500 -1687 357z"/>
<path d="M8964 17951 c-97 -59 -161 -147 -182 -252 -53 -264 -36 -2807 20
-3008 54 -196 556 -570 931 -694 95 -31 225 -105 289 -165 64 -59 271 -190
460 -290 706 -375 943 -512 961 -554 35 -89 576 -288 780 -288 326 0 352 129
352 1750 0 1504 3 1490 -414 1935 -156 166 -321 282 -486 343 -137 51 -349
155 -470 231 -121 76 -297 164 -390 194 -94 31 -223 105 -287 164 -65 59 -249
176 -410 258 -161 83 -357 192 -434 243 -278 185 -553 235 -720 133z"/>
<path d="M16150 17828 c-588 -272 -938 -467 -987 -549 -21 -35 -117 -90 -213
-123 -96 -32 -321 -144 -500 -247 -179 -103 -415 -231 -525 -286 -531 -262
-587 -552 -566 -2957 19 -2192 4 -2140 576 -1932 181 66 388 159 460 208 71
48 192 114 268 147 75 32 137 79 137 103 0 61 407 171 553 150 331 -48 353
-541 32 -710 -451 -236 -599 -323 -628 -369 -18 -28 -261 -165 -542 -306 -633
-317 -715 -399 -715 -716 0 -254 225 -495 534 -573 64 -16 116 -48 116 -72 0
-55 469 -327 693 -401 93 -31 352 -169 575 -306 920 -565 1188 -630 1790 -437
198 64 396 152 439 195 112 112 395 277 1028 601 303 154 595 318 650 363 55
45 201 158 325 250 500 373 320 769 -526 1161 -194 89 -415 221 -492 292 -77
71 -203 144 -280 160 -76 17 -312 140 -523 274 -288 182 -499 270 -844 354
-516 126 -667 190 -806 343 -149 165 51 566 338 681 528 211 558 350 558 2599
0 2045 -13 2158 -256 2269 -165 75 -131 83 -669 -166z"/>
<path d="M19825 15877 c-27 -10 -113 -32 -191 -49 -425 -94 -453 -1086 -38
-1320 706 -397 1344 291 980 1057 -112 237 -509 402 -751 312z"/>
<path d="M4886 15738 c-368 -213 -457 -903 -155 -1206 228 -228 783 -224 1031
8 663 618 -92 1652 -876 1198z"/>
<path d="M8100 13568 c-164 -32 -1047 -458 -1175 -568 -112 -95 -523 -329
-1051 -597 -193 -98 -385 -207 -425 -241 -41 -35 -153 -115 -249 -177 -157
-102 -177 -139 -190 -367 -18 -314 52 -391 644 -703 231 -123 489 -264 571
-313 83 -50 203 -107 267 -126 65 -20 162 -80 216 -134 193 -193 1325 -707
1605 -730 289 -23 883 173 1241 410 103 68 245 138 315 156 70 17 186 87 259
154 72 67 371 245 664 396 1047 538 1054 543 1056 807 3 242 -94 406 -273 465
-88 29 -231 116 -317 193 -86 77 -286 207 -445 288 -408 212 -785 434 -803
475 -108 248 -1494 692 -1910 612z"/>
<path d="M20449 13166 c-589 -94 -780 -1098 -256 -1346 566 -269 1089 -7 1145
571 50 519 -344 862 -889 775z"/>
<path d="M4428 10454 c-153 -169 -176 -444 -177 -2114 -2 -2365 38 -2457 1245
-2924 121 -47 270 -132 331 -188 61 -57 425 -256 808 -444 1370 -670 1340
-708 1340 1683 0 2193 -59 2407 -719 2608 -66 20 -255 124 -421 231 -165 107
-321 194 -345 194 -25 0 -174 87 -330 193 -157 107 -476 289 -710 406 -234
117 -442 243 -464 280 -32 55 -328 170 -441 171 -16 0 -69 -43 -117 -96z"/>
<path d="M11983 10466 c-73 -38 -133 -89 -133 -113 0 -25 -107 -84 -237 -132
-131 -48 -373 -166 -538 -262 -165 -96 -424 -247 -575 -335 -151 -88 -484
-267 -740 -398 -309 -159 -509 -298 -600 -417 -74 -98 -184 -232 -244 -298
-157 -171 -176 -427 -157 -2211 17 -1688 24 -1730 278 -1846 208 -95 722 82
1174 403 81 58 249 144 373 192 124 47 285 134 358 195 73 60 313 217 533 349
559 336 537 256 528 1931 -8 1592 71 2175 327 2411 311 286 23 725 -347 531z"/>
<path d="M12904 9054 c-141 -141 -165 -409 -145 -1633 23 -1475 -37 -1364
1055 -1940 186 -98 411 -233 500 -299 390 -294 1274 -682 1551 -682 497 0 510
37 510 1421 0 1296 -95 1601 -564 1818 -102 47 -194 103 -203 124 -9 20 -189
124 -400 231 -576 291 -977 518 -1033 584 -75 88 -942 472 -1067 472 -59 0
-151 -43 -204 -96z"/>
<path d="M19999 9078 c-280 -103 -690 -321 -734 -390 -22 -35 -306 -198 -630
-363 -325 -165 -646 -350 -713 -410 -67 -61 -224 -180 -348 -265 -405 -280
-399 -253 -399 -1703 0 -1013 14 -1299 69 -1364 85 -103 524 -113 706 -15 69
36 350 185 625 330 275 145 579 324 675 397 207 160 602 395 859 513 429 196
466 342 466 1843 0 1601 -13 1634 -576 1427z"/>
</g>
</svg>
