<?xml version="1.0" standalone="no"?>
<!DOCTYPE svg PUBLIC "-//W3C//DTD SVG 20010904//EN"
 "http://www.w3.org/TR/2001/REC-SVG-20010904/DTD/svg10.dtd">
<svg aria-labelledby="icon-rocket-launch-title" role="img" id="icon-rocket-launch" data-icon-id="rocket-launch" data-icon-label="Rocket Launch" version="1.0" xmlns="http://www.w3.org/2000/svg"
 width="512.000000pt" height="512.000000pt" viewBox="0 0 512.000000 512.000000"
 preserveAspectRatio="xMidYMid meet">
<title id="icon-rocket-launch-title">Rocket Launch</title>
<metadata>
Created by potrace 1.16, written by Peter Selinger 2001-2019
</metadata>
<g transform="translate(0.000000,512.000000) scale(0.020000,-0.020000)"
fill="#000000" stroke="none">
<path d="M17925 21326 c-980 -186 -1980 -513 -2217 -723 -64 -56 -134 -103
-154 -103 -21 0 -178 -90 -348 -200 -170 -110 -420 -256 -554 -324 -543 -275
-1862 -1573 -2389 -2351 -754 -1114 -1895 -1442 -2827 -814 -958 646 -2205
474 -2798 -385 -461 -667 -570 -1205 -393 -1942 238 -1000 21 -2078 -485
-2400 -36 -23 -202 -164 -369 -313 -167 -149 -320 -271 -340 -271 -80 0 -419
-585 -533 -920 -459 -1343 201 -2646 1422 -2808 556 -74 1132 286 1403 878
661 1445 2407 2431 2407 1360 0 -187 101 -770 203 -1177 77 -307 181 -343 622
-221 193 54 395 125 450 160 325 202 969 333 1062 216 400 -504 132 -1671
-657 -2861 -475 -717 -542 -902 -454 -1247 216 -846 2056 -893 2568 -65 374
606 1338 802 2220 451 1875 -745 3051 667 2111 2535 -484 961 -97 1950 950
2425 674 306 718 332 979 595 1079 1085 874 2609 -440 3272 -608 306 -927 267
-1157 -142 -138 -244 -558 -813 -639 -864 -33 -21 -111 -122 -174 -225 -62
-103 -356 -438 -654 -744 -642 -661 -548 -438 -585 -1393 -35 -922 -124 -1196
-526 -1626 -120 -128 -258 -310 -306 -404 -112 -215 -337 -488 -872 -1052
-423 -446 -425 -447 -650 -433 -291 19 -306 52 -527 1145 -240 1188 -250 1114
206 1526 209 189 501 468 648 619 147 151 330 336 407 411 1591 1553 2433
2438 2700 2838 100 150 261 375 356 500 96 124 225 340 287 479 62 140 182
363 266 496 84 133 180 322 212 421 33 99 111 259 174 355 134 207 471 1373
594 2058 123 686 90 2436 -53 2838 -159 447 -462 561 -1146 430z m-1786 -3196
c1101 -562 1405 -1999 577 -2728 -1606 -1413 -3866 413 -2694 2178 403 607
1464 883 2117 550z m-5388 -3006 c113 -120 115 -133 39 -263 -44 -75 -103
-215 -132 -311 -28 -96 -133 -389 -233 -650 -100 -261 -256 -689 -349 -950
-167 -474 -357 -956 -476 -1209 -71 -150 -112 -156 -1652 -220 -728 -30 -728
-30 -788 102 -95 209 -75 282 190 702 138 218 250 419 250 448 0 29 88 167
195 308 107 141 337 465 512 719 480 698 492 712 738 896 393 293 880 467
1534 547 29 4 107 -50 172 -119z m653 -3472 c259 -164 561 -363 671 -443 110
-81 282 -199 382 -264 569 -365 173 -882 -907 -1184 -921 -258 -915 -260
-1043 341 -182 854 -132 1427 155 1786 95 117 271 62 742 -236z"/>
<path d="M15151 17451 c-258 -64 -630 -489 -672 -767 -57 -377 47 -574 443
-846 400 -275 508 -288 870 -108 1064 531 514 2008 -641 1721z"/>
<path d="M9860 19002 c-555 -403 -273 -1302 409 -1302 280 0 649 252 723 492
205 668 -566 1219 -1132 810z"/>
<path d="M20225 16767 c-328 -80 -520 -644 -354 -1040 235 -562 1180 -367
1264 262 71 531 -371 909 -910 778z"/>
<path d="M19525 8471 c-27 -7 -112 -26 -188 -43 -497 -109 -573 -1041 -99
-1217 281 -105 327 -111 514 -61 737 199 513 1505 -227 1321z"/>
<path d="M8094 8084 c-206 -251 -844 -1237 -844 -1305 0 -34 -55 -113 -122
-176 -534 -501 -1045 -1571 -864 -1807 294 -383 599 -195 1246 770 169 252
369 538 444 634 76 96 231 353 346 571 115 218 286 511 380 650 303 450 189
833 -244 825 -174 -3 -234 -31 -342 -162z"/>
<path d="M10018 7191 c-60 -28 -170 -168 -247 -309 -176 -328 -724 -1152 -781
-1174 -64 -26 -407 -548 -557 -850 -193 -387 -167 -557 110 -704 280 -150 619
77 936 627 77 134 312 503 521 819 517 782 650 1021 650 1169 0 365 -315 576
-632 422z"/>
</g>
</svg>
