<?xml version="1.0" standalone="no"?>
<!DOCTYPE svg PUBLIC "-//W3C//DTD SVG 20010904//EN"
 "http://www.w3.org/TR/2001/REC-SVG-20010904/DTD/svg10.dtd">
<svg aria-labelledby="icon-sync-refresh-cycle-title" role="img" id="icon-sync-refresh-cycle" data-icon-id="sync-refresh-cycle" data-icon-label="Sync Refresh Cycle" version="1.0" xmlns="http://www.w3.org/2000/svg"
 width="512.000000pt" height="512.000000pt" viewBox="0 0 512.000000 512.000000"
 preserveAspectRatio="xMidYMid meet">
<title id="icon-sync-refresh-cycle-title">Sync Refresh Cycle</title>
<metadata>
Created by potrace 1.16, written by Peter Selinger 2001-2019
</metadata>
<g transform="translate(0.000000,512.000000) scale(0.020000,-0.020000)"
fill="#000000" stroke="none">
<path d="M12450 20916 c-462 -78 -1500 -575 -1500 -719 0 -88 -661 -744 -879
-871 -121 -72 -221 -148 -221 -170 0 -194 -1155 -211 -1636 -24 -642 249
-1320 107 -2054 -429 -652 -477 -928 -1558 -641 -2516 174 -582 184 -1236 24
-1551 -173 -342 -373 -608 -512 -683 -376 -201 -823 -1349 -760 -1953 88 -855
429 -1449 1117 -1947 329 -238 506 -577 635 -1214 204 -1001 448 -1678 718
-1994 505 -590 1614 -1055 2323 -975 1689 193 2350 56 3061 -635 772 -750
2690 -922 3805 -343 519 269 1281 1293 1440 1933 21 83 128 341 239 575 179
377 281 524 644 931 157 176 777 471 1263 601 567 152 594 168 1197 720 435
398 741 1147 744 1823 4 644 -491 1747 -932 2077 -296 222 -548 485 -776 811
-91 130 -181 237 -200 237 -66 0 -149 392 -150 706 -3 1667 -770 2808 -2024
3013 -247 40 -630 100 -850 132 -770 115 -1289 506 -1624 1224 -398 853 -1483
1402 -2451 1241z m612 -2819 c199 -28 487 -73 638 -99 551 -95 1507 -566 1925
-948 575 -527 696 -570 897 -325 222 270 506 307 898 117 222 -108 222 -108
251 -688 15 -318 42 -845 58 -1171 51 -1019 -197 -1267 -1109 -1109 -745 130
-1289 228 -1409 254 -579 125 -642 766 -122 1244 226 208 185 327 -221 641
-1369 1058 -3606 1087 -4974 64 -454 -339 -892 -742 -926 -851 -17 -55 -86
-166 -153 -246 -299 -358 -765 -1523 -765 -1914 0 -421 -219 -769 -533 -848
-170 -42 -590 158 -662 315 -179 393 51 1657 401 2210 78 122 168 303 200 402
87 267 440 778 844 1221 111 122 695 636 927 816 388 300 1353 733 1823 818
151 27 388 70 525 94 357 63 1062 65 1487 3z m-225 -4339 c1088 -419 1120
-1897 51 -2353 -131 -56 -238 -125 -238 -153 0 -30 -119 -52 -275 -52 -151 0
-275 22 -275 50 0 27 -98 95 -217 151 -219 103 -641 477 -733 649 -101 190
-13 1200 105 1200 20 0 157 109 303 242 407 370 799 451 1279 266z m4779
-1064 c291 -150 334 -236 334 -669 0 -638 -285 -1783 -485 -1950 -33 -27 -143
-196 -245 -375 -102 -179 -238 -417 -303 -530 -264 -460 -1041 -1124 -1717
-1467 -344 -174 -681 -356 -750 -404 -410 -287 -1785 -447 -2825 -329 -429 48
-1125 225 -1125 285 0 24 -152 113 -337 197 -481 217 -998 534 -1281 783 -301
266 -328 266 -546 0 -446 -544 -1005 -350 -1046 364 -15 249 -53 439 -106 520
-70 106 -84 264 -84 919 0 791 0 791 274 957 308 187 218 190 1424 -51 260
-52 548 -94 641 -94 620 0 863 -727 380 -1135 -367 -309 -183 -568 731 -1034
1462 -745 3522 -516 4649 518 150 138 290 251 310 251 78 0 593 752 808 1183
181 360 257 598 364 1125 144 712 202 823 483 926 210 76 318 79 452 10z"/>
<path d="M20081 19102 c-394 -231 -580 -454 -613 -736 -88 -744 494 -1241
1255 -1071 752 168 965 1164 351 1636 -103 79 -223 183 -267 232 -122 134
-438 108 -726 -61z"/>
<path d="M19275 7847 c-338 -100 -589 -474 -589 -878 0 -1032 1484 -1219 1709
-216 164 730 -420 1300 -1120 1094z"/>
<path d="M4570 7555 c-376 -171 -489 -725 -223 -1093 401 -553 1311 -270 1311
407 0 622 -514 947 -1088 686z"/>
</g>
</svg>
