<?xml version="1.0" standalone="no"?>
<!DOCTYPE svg PUBLIC "-//W3C//DTD SVG 20010904//EN"
 "http://www.w3.org/TR/2001/REC-SVG-20010904/DTD/svg10.dtd">
<svg aria-labelledby="icon-global-web-title" role="img" id="icon-global-web" data-icon-id="global-web" data-icon-label="Global Web" version="1.0" xmlns="http://www.w3.org/2000/svg"
 width="512.000000pt" height="512.000000pt" viewBox="0 0 512.000000 512.000000"
 preserveAspectRatio="xMidYMid meet">
<title id="icon-global-web-title">Global Web</title>
<metadata>
Created by potrace 1.16, written by Peter Selinger 2001-2019
</metadata>
<g transform="translate(0.000000,512.000000) scale(0.020000,-0.020000)"
fill="#000000" stroke="none">
<path d="M9650 20545 c-1281 -250 -2271 -1387 -2651 -3045 -160 -699 -693
-1362 -1449 -1801 -1242 -723 -1800 -1552 -1800 -2674 0 -819 228 -1298 997
-2098 807 -838 984 -1188 1153 -2277 244 -1578 692 -2312 1886 -3090 1229
-801 2494 -901 4214 -334 1512 499 1936 521 3077 160 851 -270 1298 -286 1897
-65 765 280 1387 1069 1500 1904 145 1068 507 1635 1451 2274 2257 1528 2085
4162 -354 5446 -628 330 -1048 851 -1295 1605 -482 1469 -1729 2350 -3325
2350 -673 0 -1429 304 -2387 959 -879 600 -2000 864 -2914 686z m3475 -2388
c2281 -271 4150 -1834 4847 -4056 228 -726 329 -1734 233 -2321 -32 -195 -82
-501 -111 -680 -310 -1925 -2026 -3812 -3969 -4362 -5128 -1453 -9420 3572
-7068 8275 134 268 351 623 481 790 130 166 300 385 378 487 672 884 2536
1841 3634 1866 151 3 343 24 425 47 162 43 516 29 1150 -46z"/>
<path d="M11879 16935 c-412 -435 -1097 -1884 -957 -2024 47 -46 2758 -48
2805 -1 52 53 -164 716 -363 1113 -569 1129 -1018 1405 -1485 912z"/>
<path d="M14000 16896 c0 -29 110 -293 245 -587 134 -294 283 -658 331 -809
204 -650 264 -690 922 -601 208 27 484 63 615 79 194 23 237 46 237 128 0 100
-390 694 -456 694 -20 0 -156 108 -302 241 -556 503 -1592 1059 -1592 855z"/>
<path d="M10350 16853 c-411 -125 -1453 -836 -1646 -1122 -39 -58 -144 -188
-233 -288 -345 -390 -318 -434 311 -506 1042 -119 1080 -105 1265 484 62 195
223 594 358 888 303 659 303 654 -55 544z"/>
<path d="M7816 14068 c-500 -109 -626 -2369 -184 -3302 90 -189 531 -200 1512
-36 231 39 433 70 450 70 17 0 31 685 31 1523 0 1780 80 1605 -772 1680 -291
26 -618 56 -728 67 -110 12 -249 11 -309 -2z"/>
<path d="M16489 14072 c-20 -20 -352 -51 -737 -70 -808 -40 -777 -24 -753
-366 24 -343 21 -2075 -4 -2470 -24 -384 -46 -366 513 -418 257 -23 602 -66
767 -95 715 -125 755 -90 928 800 186 961 -22 2597 -331 2597 -33 0 -124 13
-204 29 -79 16 -160 13 -179 -7z"/>
<path d="M10800 13857 c-216 -63 -244 -210 -257 -1334 -22 -1907 -180 -1748
1733 -1748 1877 0 1758 -55 1833 856 27 327 48 617 47 644 -20 728 -103 1443
-175 1516 -90 90 -2897 148 -3181 66z"/>
<path d="M11038 9864 c-510 -77 736 -2364 1288 -2364 314 0 895 754 1225 1589
257 652 258 738 12 779 -203 33 -2300 30 -2525 -4z"/>
<path d="M8625 9766 c-513 -113 -486 -243 184 -897 473 -461 733 -647 1250
-895 572 -274 618 -250 412 212 -70 159 -206 492 -301 739 -315 819 -310 810
-513 844 -202 33 -876 32 -1032 -3z"/>
<path d="M14920 9769 c-119 -27 -167 -107 -338 -569 -67 -179 -214 -544 -327
-813 -232 -552 -239 -587 -116 -587 499 0 2261 1386 2261 1778 0 146 -1071
284 -1480 191z"/>
<path d="M18046 19104 c-205 -206 -197 -413 24 -634 226 -226 433 -231 635
-15 434 465 -210 1098 -659 649z"/>
<path d="M19685 17434 c-942 -570 -213 -1935 780 -1461 625 299 634 1200 15
1482 -281 127 -563 120 -795 -21z"/>
<path d="M4016 9760 c-730 -72 -582 -1277 157 -1277 646 0 948 957 377 1197
-145 61 -376 96 -534 80z"/>
</g>
</svg>
