<?xml version="1.0" standalone="no"?>
<!DOCTYPE svg PUBLIC "-//W3C//DTD SVG 20010904//EN"
 "http://www.w3.org/TR/2001/REC-SVG-20010904/DTD/svg10.dtd">
<svg aria-labelledby="icon-access-lock-title" role="img" id="icon-access-lock" data-icon-id="access-lock" data-icon-label="Access Lock" version="1.0" xmlns="http://www.w3.org/2000/svg"
 width="512.000000pt" height="512.000000pt" viewBox="0 0 512.000000 512.000000"
 preserveAspectRatio="xMidYMid meet">
<title id="icon-access-lock-title">Access Lock</title>
<metadata>
Created by potrace 1.16, written by Peter Selinger 2001-2019
</metadata>
<g transform="translate(0.000000,512.000000) scale(0.020000,-0.020000)"
fill="#000000" stroke="none">
<path d="M10175 21149 c-327 -66 -473 -139 -846 -420 -937 -706 -1161 -1159
-1201 -2429 -55 -1761 -428 -2287 -2078 -2924 -892 -345 -1581 -1242 -1803
-2351 -56 -275 -89 -547 -75 -605 15 -58 49 -267 77 -465 73 -516 607 -1462
1075 -1905 102 -96 240 -283 307 -414 67 -132 163 -280 213 -330 89 -89 174
-491 166 -781 -3 -82 -19 -431 -37 -775 -34 -678 -14 -808 218 -1411 526
-1369 2152 -2027 3759 -1523 1072 337 1116 345 1843 324 681 -18 683 -19 1507
-307 1575 -550 2182 -649 3000 -488 1914 378 3096 1958 2796 3739 -53 315 -99
678 -102 807 -3 129 -20 302 -38 384 -67 313 132 1201 381 1700 171 342 470
829 574 935 325 330 660 1355 658 2015 -4 1112 -595 2035 -1722 2690 -849 494
-1099 801 -1397 1717 -110 337 -200 638 -200 668 0 30 -113 243 -252 474 -663
1101 -1514 1464 -2889 1231 -1037 -176 -1446 -143 -2084 170 -559 274 -1302
384 -1850 274z m3689 -2079 c945 -369 1274 -673 1748 -1610 313 -620 313 -620
338 -1707 27 -1184 36 -1221 316 -1281 403 -87 791 -393 989 -782 90 -176 95
-334 95 -3045 0 -3261 16 -3119 -400 -3516 -445 -424 -233 -404 -4275 -404
-4197 0 -4218 4 -4516 870 -82 236 -84 5816 -2 6060 119 359 623 742 1075 817
257 43 266 84 269 1203 3 1126 47 1300 538 2140 728 1246 2424 1802 3825 1255z"/>
<path d="M12250 17970 c-778 -251 -1359 -896 -1526 -1694 -89 -421 -94 -1673
-7 -1759 93 -94 3872 -50 3968 46 110 110 157 1290 70 1759 -202 1087 -1532
1963 -2505 1648z"/>
<path d="M12457 12746 c-1150 -226 -1531 -1524 -688 -2344 281 -274 281 -274
281 -900 1 -947 132 -1202 620 -1202 577 0 926 601 794 1366 -56 324 -6 496
216 744 741 829 393 2100 -641 2338 -245 57 -285 57 -582 -2z"/>
<path d="M5508 18750 c-626 -148 -1007 -1095 -682 -1694 527 -967 2097 -717
2247 358 129 924 -616 1561 -1565 1336z"/>
<path d="M20508 10046 c-485 -102 -694 -742 -401 -1228 164 -273 601 -370 921
-204 829 428 394 1625 -520 1432z"/>
</g>
</svg>
