<?xml version="1.0" standalone="no"?>
<!DOCTYPE svg PUBLIC "-//W3C//DTD SVG 20010904//EN"
 "http://www.w3.org/TR/2001/REC-SVG-20010904/DTD/svg10.dtd">
<svg version="1.0" xmlns="http://www.w3.org/2000/svg"
 width="512.000000pt" height="512.000000pt" viewBox="0 0 512.000000 512.000000"
 preserveAspectRatio="xMidYMid meet">
<metadata>
Created by potrace 1.16, written by Peter Selinger 2001-2019
</metadata>
<g transform="translate(0.000000,512.000000) scale(0.020000,-0.020000)"
fill="#000000" stroke="none">
<path d="M13375 21351 c-748 -167 -1223 -466 -2150 -1354 -796 -762 -1404
-997 -2581 -997 -2636 0 -3992 -2229 -2859 -4700 94 -206 297 -634 449 -950
548 -1134 583 -2063 116 -3150 -954 -2222 -57 -3999 2219 -4398 850 -149 1423
-386 1711 -709 546 -611 1379 -1010 2120 -1014 871 -6 1241 136 2200 843 747
552 1483 782 2225 697 1609 -185 2692 247 3429 1369 562 855 638 1864 222
2937 -479 1236 -486 1945 -27 2720 83 140 220 371 303 512 215 363 475 1050
568 1503 291 1406 -569 2791 -1995 3216 -1592 474 -1838 636 -2676 1752 -1043
1391 -2150 1974 -3274 1723z m139 -2707 c116 -58 256 -146 311 -196 302 -275
1769 -1017 2315 -1170 248 -70 514 -152 593 -182 78 -31 396 -108 707 -172
1054 -216 1018 -133 990 -2324 -27 -2189 -78 -2663 -389 -3650 -327 -1039
-967 -2247 -1391 -2625 -61 -55 -178 -196 -259 -314 -82 -118 -242 -273 -357
-345 -115 -73 -254 -171 -309 -220 -713 -626 -1174 -940 -2044 -1389 -346
-179 -727 -195 -1081 -46 -1391 585 -3549 2531 -3828 3452 -18 62 -81 190
-140 286 -192 312 -524 1223 -686 1876 -170 691 -219 1377 -220 3075 -1 2076
-25 2021 956 2224 1671 346 2444 681 4014 1738 180 122 557 114 818 -18z"/>
<path d="M13144 17167 c-56 -67 -72 -552 -83 -2575 l-15 -2492 -1767 0 c-2132
0 -2079 7 -2079 -272 0 -242 200 -866 341 -1067 53 -75 158 -260 234 -411 496
-990 1051 -1695 1750 -2223 815 -616 1395 -924 1515 -804 19 19 42 1090 50
2379 l15 2344 1896 14 c2288 18 2133 -38 2208 797 69 779 106 2015 69 2308
-51 396 -91 425 -812 596 -353 84 -658 181 -679 216 -21 36 -156 104 -300 151
-321 106 -1628 759 -1937 969 -258 175 -312 185 -406 70z"/>
<path d="M19183 20251 c-713 -137 -662 -1254 62 -1369 492 -79 872 219 871
683 0 516 -377 793 -933 686z"/>
<path d="M4632 12255 c-491 -323 -434 -997 107 -1261 625 -305 1253 380 920
1003 -177 329 -715 464 -1027 258z"/>
</g>
</svg>
