<?xml version="1.0" standalone="no"?>
<!DOCTYPE svg PUBLIC "-//W3C//DTD SVG 20010904//EN"
 "http://www.w3.org/TR/2001/REC-SVG-20010904/DTD/svg10.dtd">
<svg aria-labelledby="icon-latency-clock-speed-title" role="img" id="icon-latency-clock-speed" data-icon-id="latency-clock-speed" data-icon-label="Latency Clock Speed" version="1.0" xmlns="http://www.w3.org/2000/svg"
 width="512.000000pt" height="512.000000pt" viewBox="0 0 512.000000 512.000000"
 preserveAspectRatio="xMidYMid meet">
<title id="icon-latency-clock-speed-title">Latency Clock Speed</title>
<metadata>
Created by potrace 1.16, written by Peter Selinger 2001-2019
</metadata>
<g transform="translate(0.000000,512.000000) scale(0.020000,-0.020000)"
fill="#000000" stroke="none">
<path d="M9825 20517 c-999 -214 -1686 -898 -2026 -2017 -200 -659 -226 -712
-494 -1011 -358 -399 -565 -471 -1763 -616 -617 -74 -1005 -710 -729 -1193
223 -389 266 -402 1428 -430 1121 -27 1203 -46 1337 -307 92 -177 42 -359
-145 -535 -103 -97 -179 -102 -1735 -117 -1810 -18 -1779 -12 -1998 -366 -149
-241 -158 -624 -19 -810 255 -341 236 -337 1785 -366 1683 -30 1719 -43 1675
-580 -27 -333 -67 -340 -2045 -369 -2193 -32 -2227 -48 -2131 -982 56 -546
149 -567 2476 -568 1283 0 1900 -18 1975 -56 369 -191 445 -491 180 -715 -200
-168 -230 -173 -1171 -190 -930 -16 -1099 -76 -1245 -441 -304 -760 279 -1298
1405 -1298 727 0 1125 -277 1519 -1058 800 -1585 2464 -2079 3946 -1172 927
568 1569 632 2775 276 916 -269 1222 -277 1706 -43 373 180 754 676 844 1097
141 662 947 1544 1575 1726 2033 587 2933 2050 2324 3777 -69 194 -256 561
-613 1197 -339 604 -443 1393 -285 2157 195 947 210 1150 119 1627 -395 2074
-2160 3037 -4260 2324 -1654 -562 -2444 -468 -3800 453 -883 599 -1727 795
-2610 606z m4802 -2540 c1300 -230 2446 -944 3434 -2140 259 -314 808 -1448
902 -1865 493 -2177 -1 -3961 -1506 -5434 -2771 -2714 -7559 -1744 -8963 1816
-530 1343 -553 2897 -60 4146 973 2468 3591 3937 6193 3477z"/>
<path d="M12908 16922 c-2188 -399 -3764 -2221 -3765 -4350 0 -691 4 -715 186
-1357 806 -2840 4275 -4074 6791 -2416 283 186 591 434 685 549 93 116 256
313 360 437 807 963 1141 2654 767 3890 -685 2261 -2830 3648 -5024 3247z
m944 -948 c280 -145 298 -243 298 -1634 0 -696 23 -1345 50 -1442 49 -178 923
-1083 1368 -1416 559 -420 510 -1082 -81 -1082 -331 0 -395 49 -1474 1119
l-913 905 0 1520 c0 1758 14 1843 318 1996 254 127 253 127 434 34z m-3565
-3086 c323 -406 -66 -955 -498 -703 -221 128 -275 609 -79 703 158 76 517 76
577 0z m7236 4 c331 -151 88 -791 -302 -792 -215 0 -433 347 -358 571 96 288
337 368 660 221z m-3706 -3698 c233 -106 290 -375 134 -631 -227 -372 -898
-40 -699 345 162 313 325 396 565 286z"/>
<path d="M19199 7350 c-786 -136 -1274 -1310 -758 -1828 801 -805 1919 -543
2113 495 137 732 -605 1462 -1355 1333z"/>
</g>
</svg>
