<?xml version="1.0" standalone="no"?>
<!DOCTYPE svg PUBLIC "-//W3C//DTD SVG 20010904//EN"
 "http://www.w3.org/TR/2001/REC-SVG-20010904/DTD/svg10.dtd">
<svg aria-labelledby="icon-connected-identity-title" role="img" id="icon-connected-identity" data-icon-id="connected-identity" data-icon-label="Connected Identity" version="1.0" xmlns="http://www.w3.org/2000/svg"
 width="512.000000pt" height="512.000000pt" viewBox="0 0 512.000000 512.000000"
 preserveAspectRatio="xMidYMid meet">
<title id="icon-connected-identity-title">Connected Identity</title>
<metadata>
Created by potrace 1.16, written by Peter Selinger 2001-2019
</metadata>
<g transform="translate(0.000000,512.000000) scale(0.020000,-0.020000)"
fill="#000000" stroke="none">
<path d="M11355 21449 c-1088 -230 -1760 -909 -2472 -2499 -248 -555 -1154
-1195 -2058 -1454 -1113 -318 -1488 -591 -2159 -1571 -677 -987 -550 -2770
283 -3975 315 -457 407 -1696 201 -2717 -287 -1417 330 -2702 1686 -3515 576
-345 833 -418 1592 -453 872 -40 2021 238 2393 579 151 139 1212 659 1504 738
754 202 1862 50 2975 -407 712 -293 1636 -577 2044 -627 233 -29 440 -63 461
-76 20 -12 269 14 553 58 2411 378 3577 2271 2928 4755 -255 973 -249 1416 31
2615 287 1228 158 2050 -493 3133 -532 886 -1506 1514 -2549 1643 -1495 185
-2135 597 -3268 2104 -488 650 -623 775 -1251 1160 -712 436 -1727 652 -2401
509z m1957 -2422 c384 -80 638 -478 638 -1002 0 -464 -55 -580 -441 -932 -294
-268 -294 -268 -261 -907 41 -789 45 -794 613 -835 277 -20 480 -65 614 -135
372 -196 1029 -722 1200 -960 268 -373 355 -399 734 -219 556 264 729 422 767
698 51 376 71 418 342 705 323 341 459 410 807 410 998 0 1458 -991 850 -1833
-301 -416 -764 -514 -1361 -290 -397 150 -515 124 -1072 -236 -426 -275 -447
-310 -362 -589 197 -648 42 -1799 -343 -2544 -112 -217 -112 -217 88 -387 110
-93 329 -279 487 -413 286 -243 286 -243 575 -145 899 307 1563 -139 1563
-1049 0 -746 -321 -1064 -1074 -1064 -663 0 -1076 368 -1076 961 -1 496 -152
692 -901 1165 -269 170 -337 144 -1103 -418 -169 -124 -1003 -306 -1405 -307
-767 -2 -1767 347 -2220 775 -229 215 -135 239 -805 -202 -626 -411 -716 -530
-716 -940 0 -920 -1227 -1394 -1917 -741 -382 362 -458 901 -194 1380 294 537
1070 733 1590 402 121 -77 180 -47 892 450 489 342 485 328 275 859 -291 736
-341 1214 -212 2011 98 604 72 646 -624 992 -365 181 -365 181 -625 63 -579
-263 -1231 -136 -1521 295 -202 301 -171 1232 49 1440 533 506 1305 482 1778
-58 165 -187 185 -244 230 -652 21 -183 62 -280 154 -361 199 -174 807 -514
920 -514 95 0 655 606 655 708 0 166 1047 707 1482 765 280 38 317 107 317
577 -1 555 -126 846 -516 1205 -534 493 -620 985 -265 1527 172 262 754 484
1082 412 96 -21 236 -51 312 -67z"/>
<path d="M12462 14722 c-1114 -299 -1827 -1222 -1942 -2512 -59 -670 271
-1661 670 -2013 349 -307 408 -235 409 488 1 422 252 775 702 990 298 143 345
191 248 251 -296 183 -446 1064 -235 1379 545 812 1736 447 1736 -531 0 -352
-32 -444 -257 -731 -175 -223 -175 -224 -10 -265 545 -137 914 -672 994 -1440
17 -159 49 -288 72 -288 213 0 766 895 872 1410 411 2001 -1361 3774 -3259
3262z"/>
<path d="M17826 20594 c-710 -168 -1090 -1045 -696 -1606 712 -1013 2173 -380
1921 832 -119 572 -653 909 -1225 774z"/>
<path d="M15878 5123 c-164 -177 -196 -346 -102 -543 265 -558 1006 -742 1386
-343 318 335 188 571 -462 837 -513 210 -665 219 -822 49z"/>
</g>
</svg>
