<?xml version="1.0" standalone="no"?>
<!DOCTYPE svg PUBLIC "-//W3C//DTD SVG 20010904//EN"
 "http://www.w3.org/TR/2001/REC-SVG-20010904/DTD/svg10.dtd">
<svg aria-labelledby="icon-vision-scan-eye-title" role="img" id="icon-vision-scan-eye" data-icon-id="vision-scan-eye" data-icon-label="Vision Scan Eye" version="1.0" xmlns="http://www.w3.org/2000/svg"
 width="512.000000pt" height="512.000000pt" viewBox="0 0 512.000000 512.000000"
 preserveAspectRatio="xMidYMid meet">
<title id="icon-vision-scan-eye-title">Vision Scan Eye</title>
<metadata>
Created by potrace 1.16, written by Peter Selinger 2001-2019
</metadata>
<g transform="translate(0.000000,512.000000) scale(0.020000,-0.020000)"
fill="#000000" stroke="none">
<path d="M12828 20418 c-340 -73 -705 -264 -1379 -720 -1064 -719 -1617 -898
-2776 -898 -1784 0 -2411 -314 -3151 -1575 -147 -250 -147 -250 -172 -1800
-28 -1713 -34 -1741 -611 -2591 -1251 -1843 -696 -4004 1265 -4932 177 -84
344 -152 371 -152 235 -3 1168 -909 1319 -1282 100 -247 934 -1031 1284 -1208
925 -465 2242 -352 3046 261 1017 777 2114 896 4201 456 1110 -234 2415 -27
2945 466 943 880 1327 1693 1329 2816 1 568 121 1047 423 1691 572 1223 643
1575 571 2825 -80 1383 -1069 2484 -2718 3025 -1086 356 -1575 685 -1987 1335
-1194 1888 -2443 2608 -3960 2283z m-3953 -3768 c114 -58 154 -116 166 -241
25 -266 -35 -296 -639 -317 -666 -22 -623 23 -644 -683 -10 -321 -41 -612 -69
-646 -65 -80 -350 -82 -429 -3 -87 87 -84 1759 3 1827 205 162 1327 206 1612
63z m9715 -760 c84 -84 84 -1746 0 -1830 -79 -79 -364 -77 -428 3 -28 34 -60
303 -70 598 -25 683 -38 697 -663 678 -524 -16 -714 136 -578 462 61 149 61
149 870 149 563 0 827 -18 869 -60z m-5306 -87 c132 -27 376 -74 541 -106 380
-73 1132 -362 1425 -548 124 -78 282 -156 351 -173 372 -92 2546 -2123 2630
-2457 136 -542 -2254 -2724 -3390 -3096 -146 -48 -355 -132 -465 -187 -678
-341 -2405 -324 -3263 32 -159 65 -405 157 -548 204 -142 46 -321 133 -396
194 -132 104 -244 184 -1076 767 -799 560 -1693 1615 -1693 1997 0 225 290
600 961 1245 839 806 1221 1090 1976 1468 1108 554 2220 803 2947 660z m-5593
-5590 c29 -76 61 -368 70 -648 21 -618 -15 -581 578 -606 610 -25 902 -248
651 -499 -84 -84 -1646 -84 -1730 0 -42 42 -60 317 -60 915 0 934 12 975 279
975 127 0 169 -27 212 -137z m10899 77 c38 -38 62 -250 65 -587 3 -291 20
-582 38 -647 19 -66 12 -240 -15 -388 -50 -268 -50 -268 -906 -268 -966 0
-1017 22 -907 381 49 158 49 158 588 177 659 22 612 -28 638 689 19 545 30
597 127 645 147 70 300 70 372 -2z"/>
<path d="M12453 14747 c-955 -194 -1709 -962 -1930 -1967 -324 -1474 1117
-2960 2602 -2685 588 109 1475 627 1475 862 0 29 46 117 103 197 652 916 360
2511 -580 3160 -518 358 -1186 531 -1670 433z m703 -1300 c492 -129 873 -832
713 -1315 -255 -767 -1104 -1089 -1694 -642 -616 466 -613 1337 5 1775 400
282 513 303 976 182z"/>
<path d="M19166 19353 c-793 -360 -617 -1834 237 -1978 610 -104 1079 157
1265 703 317 930 -581 1693 -1502 1275z"/>
<path d="M4866 7356 c-891 -416 -504 -1799 585 -2094 528 -143 1111 353 1107
942 -6 784 -1013 1469 -1692 1152z"/>
</g>
</svg>
