<?xml version="1.0" standalone="no"?>
<!DOCTYPE svg PUBLIC "-//W3C//DTD SVG 20010904//EN"
 "http://www.w3.org/TR/2001/REC-SVG-20010904/DTD/svg10.dtd">
<svg version="1.0" xmlns="http://www.w3.org/2000/svg"
 width="512.000000pt" height="512.000000pt" viewBox="0 0 512.000000 512.000000"
 preserveAspectRatio="xMidYMid meet">
<metadata>
Created by potrace 1.16, written by Peter Selinger 2001-2019
</metadata>
<g transform="translate(0.000000,512.000000) scale(0.020000,-0.020000)"
fill="#000000" stroke="none">
<path d="M12250 20865 c-903 -152 -2081 -771 -2725 -1434 -423 -435 -849 -745
-1251 -909 -413 -168 -1159 -407 -1395 -447 -198 -33 -1029 -498 -1029 -575 0
-23 -110 -162 -244 -309 -1083 -1185 -1463 -2972 -882 -4141 62 -124 141 -315
175 -425 35 -110 126 -313 204 -451 345 -613 400 -1133 224 -2099 -146 -800
-8 -1232 499 -1561 901 -585 1562 -1312 1752 -1927 505 -1628 2479 -2397 4120
-1606 1482 714 2229 753 3568 187 2099 -888 4673 605 5140 2982 107 542 93
931 -59 1715 -143 731 126 1774 637 2473 437 598 678 1581 544 2221 -284 1357
-1008 2061 -2538 2469 -1057 281 -1742 767 -2208 1566 -418 715 -893 1197
-1587 1609 -967 574 -2038 815 -2945 662z m-310 -2886 c192 -100 387 -326 453
-524 117 -350 77 -9249 -44 -9570 -206 -552 -914 -886 -1557 -734 -566 133
-1142 581 -1218 947 -53 251 -126 345 -298 382 -560 120 -1004 586 -1098 1151
-34 201 -309 501 -664 722 -440 274 -551 1543 -178 2032 126 165 126 165 -5
518 -305 821 44 1951 706 2291 311 159 415 308 448 637 55 540 450 970 1078
1172 358 114 423 154 497 297 103 200 410 527 615 656 191 119 1050 136 1265
23z m3035 -21 c82 -51 237 -241 343 -424 232 -398 268 -430 515 -469 743 -115
1166 -596 1288 -1465 34 -245 246 -450 464 -450 194 0 698 -793 809 -1275 60
-260 -10 -774 -138 -1014 -94 -176 -67 -440 62 -595 510 -612 147 -1765 -721
-2291 -164 -99 -182 -135 -289 -586 -114 -476 -508 -831 -1018 -918 -157 -26
-189 -54 -217 -189 -184 -898 -1347 -1419 -2257 -1010 -663 297 -616 -120
-616 5464 0 5105 -13 4857 266 5152 192 203 1214 250 1509 70z"/>
<path d="M10825 15971 c-27 -7 -113 -26 -191 -43 -170 -38 -284 -274 -284
-590 0 -201 -24 -240 -369 -582 -370 -367 -370 -367 -771 -332 -470 42 -610
-37 -610 -343 0 -275 253 -373 788 -307 282 36 297 46 812 552 425 417 562
523 717 551 356 66 479 267 440 723 -19 229 -304 428 -532 371z"/>
<path d="M9049 12868 c-371 -247 -355 -645 39 -914 162 -111 162 -111 162
-545 1 -644 35 -721 549 -1233 386 -385 451 -473 451 -614 0 -551 517 -789
912 -422 376 350 158 869 -397 944 -148 20 -265 68 -305 124 -36 51 -200 183
-363 294 -297 202 -297 202 -297 925 0 723 0 723 267 723 204 0 289 -24 358
-100 282 -312 896 -180 926 200 51 633 -348 887 -823 525 -185 -142 -273 -175
-460 -175 -194 0 -262 28 -425 175 -216 195 -398 224 -594 93z"/>
<path d="M15708 16224 c-55 -70 -115 -216 -133 -325 -40 -235 -279 -287 -450
-99 -346 382 -925 157 -925 -359 0 -490 475 -693 905 -388 152 109 492 130
585 37 116 -116 59 -269 -192 -517 -179 -176 -273 -319 -325 -494 -115 -388
-183 -461 -464 -498 -519 -69 -696 -571 -341 -968 118 -133 176 -255 198 -418
27 -207 72 -270 457 -646 426 -416 427 -417 427 -672 0 -351 -380 -746 -765
-795 -335 -43 -424 -104 -486 -337 -99 -367 16 -667 282 -740 420 -116 663 71
705 543 28 306 30 308 391 642 565 521 586 1014 57 1385 -159 111 -343 295
-413 413 -70 117 -148 212 -174 212 -77 0 -54 293 34 427 44 68 92 275 107
461 22 284 50 365 182 518 176 205 547 672 648 814 49 71 100 86 199 61 196
-49 202 -735 8 -1020 -261 -384 -91 -837 325 -867 541 -40 751 361 475 906
-86 170 -125 329 -125 511 -1 462 -77 627 -456 988 -346 329 -346 329 -299
577 104 551 -182 973 -437 648z"/>
<path d="M19213 19864 c-562 -70 -942 -1046 -602 -1547 377 -556 798 -665
1413 -368 949 460 457 2082 -589 1943 -33 -4 -133 -17 -222 -28z"/>
<path d="M4568 8048 c-519 -158 -686 -1004 -299 -1512 692 -907 1985 -698
1980 322 -4 723 -969 1407 -1681 1190z"/>
</g>
</svg>
