<?xml version="1.0" standalone="no"?>
<!DOCTYPE svg PUBLIC "-//W3C//DTD SVG 20010904//EN"
 "http://www.w3.org/TR/2001/REC-SVG-20010904/DTD/svg10.dtd">
<svg version="1.0" xmlns="http://www.w3.org/2000/svg"
 width="512.000000pt" height="512.000000pt" viewBox="0 0 512.000000 512.000000"
 preserveAspectRatio="xMidYMid meet">
<metadata>
Created by potrace 1.16, written by Peter Selinger 2001-2019
</metadata>
<g transform="translate(0.000000,512.000000) scale(0.020000,-0.020000)"
fill="#000000" stroke="none">
<path d="M11825 21144 c-705 -127 -1101 -256 -1750 -574 -283 -138 -1000 -707
-1293 -1026 -459 -499 -506 -555 -669 -794 -84 -124 -212 -281 -286 -349 -73
-68 -177 -194 -230 -280 -102 -166 -736 -566 -1059 -669 -427 -136 -1259 -781
-1595 -1237 -371 -502 -418 -594 -617 -1214 -371 -1156 -276 -1797 516 -3476
351 -744 405 -1299 207 -2137 -206 -874 55 -1479 806 -1865 325 -168 871 -565
1095 -796 124 -128 299 -279 389 -335 90 -56 212 -195 269 -309 252 -493 1036
-1143 1809 -1500 951 -439 1859 -441 2909 -7 1568 648 2167 722 3541 438 1668
-344 2929 66 3671 1194 515 784 622 1439 491 3017 -66 788 130 1371 787 2349
871 1295 992 2569 362 3819 -428 851 -1302 1568 -2203 1807 -1292 344 -1908
757 -2401 1609 -52 90 -279 360 -674 802 -482 539 -1233 1026 -1944 1260 -909
299 -1538 380 -2131 273z m898 -2752 c201 -92 190 -554 -15 -639 -393 -162
-673 453 -290 638 141 69 156 69 305 1z m-1400 -200 c269 -123 151 -592 -149
-592 -359 0 -476 437 -158 591 143 69 157 69 307 1z m2867 -102 c193 -193 32
-490 -267 -490 -258 0 -369 168 -270 408 65 156 410 209 537 82z m-4041 -601
c94 -154 95 -166 9 -312 -169 -291 -558 -152 -558 199 0 295 390 375 549 113z
m5274 103 c268 -122 151 -592 -148 -592 -285 0 -381 306 -166 534 125 133 141
136 314 58z m-6433 -902 c84 -84 76 -465 -12 -537 -131 -109 -389 -43 -486
124 -174 298 256 655 498 413z m7600 0 c78 -78 78 -452 0 -530 -143 -143 -490
40 -490 258 0 231 342 420 490 272z m-2705 -152 c33 -73 35 -158 5 -238 -118
-317 -298 -1005 -341 -1304 -25 -181 -127 -586 -226 -900 -100 -314 -193 -686
-208 -826 -34 -319 -31 -320 1106 -320 563 0 827 -18 869 -60 109 -109 65
-355 -104 -574 -88 -115 -321 -419 -517 -675 -195 -257 -395 -500 -444 -541
-48 -40 -224 -275 -390 -522 -394 -586 -603 -858 -849 -1103 -110 -110 -354
-402 -542 -650 -759 -1000 -758 -999 -959 -1016 -270 -22 -266 11 240 1741
496 1697 507 1771 269 1819 -86 17 -521 31 -967 31 -1130 0 -1245 112 -730
712 98 114 279 348 403 521 417 581 1237 1644 1324 1716 48 40 178 208 290
374 297 440 473 662 810 1027 166 179 391 453 501 610 219 312 372 371 460
178z m-5743 -1157 c43 -223 -92 -381 -323 -381 -219 0 -219 0 -219 267 0 229
16 275 113 320 135 63 402 -65 429 -206z m9448 109 c193 -193 32 -490 -265
-490 -245 0 -325 67 -325 275 0 208 80 275 325 275 113 0 232 -27 265 -60z
m-10100 -1300 c185 -185 38 -590 -215 -590 -208 0 -275 80 -275 325 0 245 67
325 275 325 85 0 182 -27 215 -60z m10684 -150 c99 -184 99 -184 -21 -312
-223 -237 -553 -152 -553 141 0 378 399 497 574 171z m-10877 -1362 c109 -131
43 -389 -124 -486 -298 -174 -655 256 -413 498 84 84 465 76 537 -12z m11093
12 c104 -104 71 -362 -63 -488 -240 -226 -606 87 -474 406 65 156 410 209 537
82z m-11000 -1500 c33 -33 60 -157 60 -275 0 -215 0 -215 -267 -215 -321 0
-438 146 -330 408 65 156 410 209 537 82z m10859 -101 c180 -296 -213 -655
-477 -436 -88 72 -96 453 -12 537 125 125 384 72 489 -101z m-10415 -1348
c147 -137 148 -313 5 -413 -286 -201 -535 57 -381 395 72 157 221 165 376 18z
m9789 -49 c198 -90 180 -361 -34 -491 -154 -94 -166 -95 -312 -9 -377 219 -57
683 346 500z m-8689 -1351 c196 -184 62 -541 -202 -541 -133 0 -332 191 -332
318 0 272 334 412 534 223z m7715 -52 c192 -316 -163 -634 -429 -384 -145 136
-147 174 -21 383 135 220 317 221 450 1z m-6559 -799 c260 -260 -100 -739
-367 -488 -234 220 -143 548 152 548 85 0 182 -27 215 -60z m5400 0 c78 -78
78 -452 0 -530 -193 -193 -490 -32 -490 265 0 245 67 325 275 325 85 0 182
-27 215 -60z m-4049 -783 c22 -224 -63 -307 -312 -307 -252 0 -329 67 -329
286 0 407 601 427 641 21z m2749 183 c193 -193 32 -490 -265 -490 -245 0 -325
67 -325 275 0 208 80 275 325 275 113 0 232 -27 265 -60z m-1456 -149 c301
-282 12 -664 -345 -456 -201 117 -218 194 -90 403 118 192 268 211 435 53z"/>
<path d="M19198 20074 c-696 -217 -987 -932 -628 -1545 608 -1037 2142 -375
1877 811 -125 557 -710 901 -1249 734z"/>
<path d="M4781 6949 c-687 -211 -788 -1126 -198 -1791 641 -723 1968 -14 1711
915 -145 526 -1015 1029 -1513 876z"/>
</g>
</svg>
