<?xml version="1.0" standalone="no"?>
<!DOCTYPE svg PUBLIC "-//W3C//DTD SVG 20010904//EN"
 "http://www.w3.org/TR/2001/REC-SVG-20010904/DTD/svg10.dtd">
<svg version="1.0" xmlns="http://www.w3.org/2000/svg"
 width="512.000000pt" height="512.000000pt" viewBox="0 0 512.000000 512.000000"
 preserveAspectRatio="xMidYMid meet">
<metadata>
Created by potrace 1.16, written by Peter Selinger 2001-2019
</metadata>
<g transform="translate(0.000000,512.000000) scale(0.020000,-0.020000)"
fill="#000000" stroke="none">
<path d="M11250 19657 c-608 -197 -757 -441 -798 -1310 -21 -441 -48 -607
-115 -700 -273 -378 -338 -494 -394 -705 -120 -456 113 -859 632 -1092 215
-96 371 -214 528 -397 122 -143 291 -341 376 -439 421 -488 1288 -338 1946
338 284 291 648 498 876 498 509 0 877 263 956 683 47 252 40 320 -90 881 -73
314 -72 374 9 789 96 499 81 698 -81 1032 -205 424 -512 482 -2060 391 -428
-26 -741 -19 -950 20 -170 32 -366 67 -435 79 -69 11 -249 -19 -400 -68z
m1850 -1119 c0 -35 -38 -248 -85 -474 -99 -478 -101 -474 264 -504 431 -36
406 -137 -202 -817 -139 -156 -349 -397 -469 -538 -368 -434 -419 -351 -251
406 75 341 78 337 -277 374 -378 39 -390 191 -46 564 129 140 268 302 309 361
288 412 757 800 757 628z"/>
<path d="M3250 19363 c-231 -42 -331 -247 -269 -555 54 -270 1158 -507 1360
-292 186 197 119 426 -187 645 -264 188 -587 261 -904 202z"/>
<path d="M21875 18271 c-196 -148 -172 -1974 29 -2175 488 -488 841 440 674
1772 -54 436 -398 633 -703 403z"/>
<path d="M3000 17788 c0 -137 36 -187 222 -313 360 -244 515 -560 539 -1100
31 -697 282 -899 627 -506 586 667 -204 2081 -1161 2081 -223 0 -227 -3 -227
-162z"/>
<path d="M20825 17590 c-443 -254 -184 -1030 279 -838 285 118 298 713 18 840
-154 70 -170 70 -297 -2z"/>
<path d="M14065 15338 c-293 -209 -277 -673 28 -819 422 -202 817 73 734 512
-72 383 -444 532 -762 307z"/>
<path d="M14351 10459 c-463 -71 -519 -830 -71 -954 477 -132 884 265 690 673
-111 234 -316 327 -619 281z"/>
<path d="M11999 10268 c-521 -93 -847 -402 -1181 -1121 -186 -402 -442 -807
-587 -930 -92 -78 -209 -178 -261 -222 -312 -265 -770 -942 -770 -1138 0 -347
336 -482 1088 -435 882 55 875 56 1117 -129 1183 -903 2397 -485 2849 982 227
738 261 796 581 1023 502 355 749 570 930 808 478 631 360 1144 -264 1144
-235 0 -281 -119 -67 -173 203 -51 416 -221 416 -333 0 -139 -300 -592 -504
-760 -390 -321 -984 -751 -1166 -844 -107 -54 -299 -173 -427 -263 -129 -90
-289 -181 -356 -201 -67 -21 -156 -66 -197 -101 -41 -35 -131 -80 -200 -100
-69 -21 -155 -61 -191 -90 -112 -90 -1127 -484 -1248 -484 -63 -1 -248 -57
-411 -126 -163 -69 -378 -125 -476 -125 -99 0 -279 -25 -400 -55 -379 -96
-774 60 -774 304 0 229 180 490 561 817 339 289 368 290 406 9 71 -513 280
-752 615 -702 214 33 1744 612 1918 727 41 27 246 138 456 247 484 251 825
481 864 582 99 259 -8 490 -378 816 -127 112 -244 255 -260 317 -67 262 -1212
641 -1683 556z"/>
</g>
</svg>
