<?xml version="1.0" standalone="no"?>
<!DOCTYPE svg PUBLIC "-//W3C//DTD SVG 20010904//EN"
 "http://www.w3.org/TR/2001/REC-SVG-20010904/DTD/svg10.dtd">
<svg aria-labelledby="icon-54-iconpack9-06-title" role="img" id="icon-54-iconpack9-06" data-icon-id="54-iconpack9-06" data-icon-label="54 Iconpack9 06" version="1.0" xmlns="http://www.w3.org/2000/svg"
 width="512.000000pt" height="512.000000pt" viewBox="0 0 512.000000 512.000000"
 preserveAspectRatio="xMidYMid meet">
<title id="icon-54-iconpack9-06-title">54 Iconpack9 06</title>
<metadata>
Created by potrace 1.16, written by Peter Selinger 2001-2019
</metadata>
<g transform="translate(0.000000,512.000000) scale(0.020000,-0.020000)"
fill="#000000" stroke="none">
<path d="M5200 21673 c-371 -68 -940 -143 -1264 -166 -705 -52 -661 -17 -661
-532 0 -510 -32 -480 561 -525 375 -28 579 -73 873 -194 378 -154 395 -156
958 -124 458 26 661 14 1006 -58 521 -109 854 -66 1370 180 680 323 1184 371
2040 194 1020 -210 980 -207 1399 -120 448 93 697 187 842 318 100 91 318 152
901 253 298 52 339 48 1100 -103 165 -33 518 -57 785 -54 302 3 560 -21 684
-65 777 -274 1681 -265 1921 20 231 274 858 386 1285 229 689 -253 908 -273
1224 -113 206 103 323 235 150 169 -115 -45 -374 22 -374 96 0 36 47 80 104
98 104 33 104 34 -9 113 -101 71 -168 72 -641 11 -604 -78 -821 -81 -1554 -27
-444 34 -608 23 -1057 -67 -751 -150 -977 -139 -1596 74 -609 210 -1038 237
-1647 103 -804 -178 -1344 -114 -2300 270 -322 130 -2086 162 -2309 42 -414
-221 -960 -243 -1717 -68 -798 184 -1260 194 -2074 46z m5416 -279 c610 -315
356 -593 -541 -594 -842 0 -1227 254 -812 534 186 126 1143 168 1353 60z
m-2786 -468 c339 -222 -106 -601 -705 -601 -602 0 -1044 379 -703 603 330 216
1077 215 1408 -2z"/>
<path d="M8250 17150 c-570 -38 -800 -93 -1600 -384 -362 -132 -422 -138
-1700 -169 -1801 -43 -1700 18 -1700 -1022 0 -729 29 -875 173 -875 155 0 216
169 190 525 -63 873 1721 1024 3262 278 1297 -629 2137 -684 3484 -229 1260
425 1978 346 1997 -220 23 -705 320 -662 338 49 16 608 866 820 1667 416 267
-135 843 -181 668 -53 -362 265 262 368 980 162 650 -187 1541 -155 1541 55 0
82 -84 84 -369 8 -250 -67 -681 53 -681 189 0 292 604 370 1391 178 869 -213
958 -225 1388 -184 321 30 365 45 291 98 -192 141 -49 227 391 236 228 5 324
17 214 27 -110 10 -250 43 -311 74 -77 39 -130 40 -175 4 -131 -106 -1502
-172 -1745 -83 -573 208 -1565 240 -2272 72 -558 -132 -720 -129 -1254 29
-542 160 -900 166 -1268 20 -1332 -526 -2130 -497 -2666 96 -102 112 -277 241
-389 286 -172 68 -200 100 -181 199 46 243 -408 302 -1664 218z m950 -427
c475 -133 950 -483 950 -699 0 -453 -1254 -701 -2103 -416 -1680 565 -603
1606 1153 1115z"/>
<path d="M3300 12092 c0 -171 0 -171 576 -277 979 -181 1587 -533 1371 -794
-190 -229 -1029 -311 -1497 -146 -474 167 -533 67 -491 -826 27 -552 4 -533
494 -410 406 102 406 102 912 1 645 -129 916 -83 1251 213 272 239 1461 287
2550 102 1876 -318 2415 -247 3074 403 522 515 1622 669 2190 307 415 -264
1178 -227 1409 68 215 275 340 317 944 317 529 0 1067 -183 1067 -363 0 -73
338 -187 555 -187 188 0 234 28 489 293 436 453 905 520 1568 223 334 -150
674 -175 929 -70 352 146 87 311 -541 338 -234 10 -647 32 -918 49 -367 22
-565 10 -775 -48 -731 -201 -943 -193 -1857 70 -413 119 -1010 143 -1758 72
-410 -38 -447 -33 -697 91 -342 171 -666 172 -1070 6 -365 -151 -1248 -177
-1629 -50 -682 229 -2168 243 -3078 28 -760 -179 -1617 -130 -2368 135 -737
261 -1567 460 -2487 595 -213 32 -213 32 -213 -140z m7217 -798 c265 -120 304
-452 71 -595 -248 -150 -1143 -144 -1462 11 -298 145 -326 381 -63 541 187
114 1230 146 1454 43z"/>
<path d="M3625 6184 c-367 -144 -350 -100 -345 -918 9 -1357 10 -1366 149
-1366 99 0 121 25 122 138 2 404 346 557 1031 457 223 -33 516 -44 650 -25
134 19 547 55 918 80 970 64 1422 185 1269 338 -211 211 162 360 906 360 467
1 709 -50 1300 -274 870 -330 1613 -359 2225 -87 106 47 400 90 746 108 604
32 749 99 435 203 -133 44 -245 43 -472 -4 -498 -103 -912 102 -739 366 229
350 786 296 2430 -236 1102 -356 1476 -396 2166 -230 298 71 624 108 1000 113
308 4 503 17 434 29 -69 12 -146 43 -172 68 -27 25 -265 46 -531 46 -739 0
-947 39 -947 177 0 120 156 207 500 279 97 21 -105 30 -450 20 -383 -10 -827
-58 -1146 -124 -587 -122 -842 -102 -1642 129 -562 162 -1338 172 -1387 19
-36 -113 -115 -125 -293 -44 -94 43 -246 35 -653 -32 -771 -126 -1798 -59
-2997 195 -791 168 -1184 100 -1614 -279 -582 -513 -2618 -444 -2618 89 0 174
119 220 448 172 187 -27 702 61 702 120 0 170 -1063 254 -1425 113z"/>
<path d="M18625 5201 c-55 -24 -179 -48 -275 -53 -103 -6 -134 -19 -75 -31 55
-12 145 -44 200 -71 204 -101 1200 -35 1200 79 0 111 -833 171 -1050 76z"/>
</g>
</svg>
