<?xml version="1.0" standalone="no"?>
<!DOCTYPE svg PUBLIC "-//W3C//DTD SVG 20010904//EN"
 "http://www.w3.org/TR/2001/REC-SVG-20010904/DTD/svg10.dtd">
<svg version="1.0" xmlns="http://www.w3.org/2000/svg"
 width="512.000000pt" height="512.000000pt" viewBox="0 0 512.000000 512.000000"
 preserveAspectRatio="xMidYMid meet">
<metadata>
Created by potrace 1.16, written by Peter Selinger 2001-2019
</metadata>
<g transform="translate(0.000000,512.000000) scale(0.020000,-0.020000)"
fill="#000000" stroke="none">
<path d="M16846 22280 c-12 -11 -224 -45 -471 -75 -293 -35 -731 -147 -1250
-321 -440 -147 -946 -295 -1125 -329 -179 -34 -419 -83 -535 -108 -115 -26
-610 -47 -1100 -47 -888 0 -1274 39 -3015 306 -583 89 -845 100 -1925 83
-1279 -20 -1334 -27 -2571 -297 -465 -102 -1138 -109 -1511 -15 -124 30 -135
19 -167 -172 -69 -406 -6 -548 410 -929 641 -587 1319 -638 2664 -202 699 226
963 270 1675 279 605 8 690 -2 1601 -194 638 -135 1230 -43 1735 269 761 470
1714 358 1991 -233 102 -217 104 -239 28 -385 -172 -332 -83 -610 195 -610
283 0 350 210 193 604 -83 205 -83 205 137 424 564 560 2458 587 4520 65 1454
-368 2125 -388 2125 -65 0 132 -218 172 -930 172 -572 0 -720 56 -720 273 0
467 1791 538 2600 103 614 -330 928 -349 971 -59 25 167 -3 620 -40 636 -3 1
-242 23 -531 48 -1693 149 -2075 211 -2925 473 -676 209 -1934 398 -2029 306z
m-7256 -1087 c410 -99 610 -409 343 -530 -593 -270 -1833 -59 -1833 313 0 253
839 375 1490 217z m4700 -3 c132 -132 65 -190 -215 -190 -192 0 -275 20 -275
65 0 110 112 185 275 185 85 0 182 -27 215 -60z"/>
<path d="M8900 17106 c-261 -49 -689 -152 -950 -228 -1154 -338 -2095 -379
-2264 -97 -118 197 -627 176 -1046 -42 -172 -90 -330 -118 -802 -142 -323 -16
-603 -46 -623 -66 -59 -58 -41 -564 22 -641 32 -38 46 -118 31 -176 -84 -321
1044 -361 2182 -78 911 227 1076 217 1130 -68 25 -137 54 -168 155 -168 110 0
120 15 91 146 -38 172 130 468 314 552 393 179 1224 -3 1175 -257 -26 -137
227 -308 543 -367 229 -42 315 -214 267 -534 -26 -173 -16 -236 50 -290 148
-123 253 -1 233 273 -30 418 52 527 400 527 187 0 340 -29 418 -80 324 -212
1308 -168 2124 95 986 319 1539 345 2021 99 225 -116 605 -62 901 128 235 150
273 158 736 158 821 0 1168 -284 1131 -925 -22 -386 171 -372 219 16 64 526
217 558 2692 578 766 6 1122 70 858 153 -338 108 12 278 571 278 642 0 819
-104 828 -489 6 -222 17 -174 50 214 74 872 34 1025 -263 1025 -305 0 -564
120 -531 246 87 331 -999 301 -1985 -56 -1063 -384 -1086 -390 -1495 -390
-313 0 -470 28 -723 129 -418 168 -708 170 -1385 10 -1084 -255 -1545 -296
-2015 -182 -387 94 -593 349 -335 414 139 34 163 135 54 225 -198 165 -1333
84 -1735 -124 -256 -133 -1126 -98 -1468 59 -376 172 -922 198 -1576 75z
m11590 -413 c662 -162 352 -593 -426 -593 -492 0 -793 348 -426 492 398 157
550 175 852 101z m-10101 -243 c230 -141 249 -230 83 -403 -289 -302 -1372
-167 -1372 171 0 305 903 467 1289 232z"/>
<path d="M20775 12847 c-110 -23 -335 -43 -500 -44 -165 -2 -487 -49 -716
-103 -283 -68 -588 -100 -957 -100 -761 0 -2645 -335 -2952 -525 -318 -196
-938 -278 -1995 -264 -1115 16 -1252 35 -2030 288 -2233 727 -3060 795 -4350
359 -575 -195 -1112 -156 -1908 136 -475 175 -900 232 -1217 163 -1035 -224
-1069 -254 -981 -894 38 -281 16 -260 318 -296 1017 -120 983 -746 -49 -894
-224 -32 -238 -43 -238 -186 0 -151 0 -151 383 -116 210 19 441 63 512 98 267
132 919 197 1294 129 639 -114 1302 -46 1904 195 1332 533 2080 469 2832 -243
552 -522 1254 -589 1800 -172 649 495 1469 255 1398 -409 -45 -420 169 -645
376 -396 62 75 82 537 27 626 -78 126 95 461 316 613 855 588 1958 396 1958
-340 0 -252 130 -226 164 33 44 325 175 424 626 472 1037 111 1533 35 1537
-238 4 -190 149 -326 390 -365 114 -19 253 -60 308 -93 135 -80 575 -244 1000
-372 805 -244 2320 -104 2327 215 34 1410 40 1367 -220 1592 -303 263 -304
403 -7 556 208 107 336 478 166 478 -37 0 -289 34 -562 75 -540 82 -653 84
-954 22z m-15400 -699 c395 -194 17 -648 -539 -648 -629 0 -981 519 -470 691
216 73 825 47 1009 -43z m15650 -716 c768 -198 1336 -594 1219 -850 -158 -346
-1144 -687 -1693 -585 -601 111 -966 211 -1096 300 -72 49 -193 127 -269 173
-369 224 -332 628 78 837 518 266 1063 305 1761 125z"/>
<path d="M15759 7450 c-119 -26 -344 -105 -500 -178 -748 -348 -1637 -365
-2784 -52 -165 45 -497 103 -737 128 -241 25 -462 61 -491 79 -90 56 -1001
-128 -1893 -383 -772 -220 -2156 -199 -2785 43 -800 307 -2961 429 -3290 185
-172 -127 -170 -2272 1 -2272 80 0 95 129 20 175 -139 86 -47 275 191 395 296
151 341 203 386 455 64 361 170 425 703 425 463 0 463 0 652 -230 250 -305
350 -338 750 -245 434 101 1530 102 1814 1 114 -40 432 -210 706 -377 614
-375 956 -434 1484 -255 589 200 1364 99 1364 -177 0 -47 48 -184 106 -304
103 -213 104 -226 21 -520 -79 -280 -79 -308 -2 -393 282 -312 755 43 502 378
-263 347 34 922 477 922 123 0 500 68 838 150 839 205 1655 189 2270 -45 692
-263 1292 -64 1664 552 377 625 1455 672 2626 116 616 -293 1092 -421 1570
-422 163 -1 428 -38 589 -83 364 -102 334 -155 350 618 16 769 51 709 -443
761 -222 23 -577 109 -817 198 -748 276 -1671 425 -2350 378 -737 -50 -1975
-57 -2426 -12 -193 19 -447 14 -566 -11z m-4134 -361 c277 -78 425 -221 425
-414 0 -702 -2181 -823 -2240 -124 -17 204 208 479 434 530 72 16 199 49 281
73 179 51 819 14 1100 -65z m10425 -964 c293 -148 289 -247 -13 -329 -346 -93
-737 31 -737 233 0 232 385 281 750 96z"/>
</g>
</svg>
