<?xml version="1.0" standalone="no"?>
<!DOCTYPE svg PUBLIC "-//W3C//DTD SVG 20010904//EN"
 "http://www.w3.org/TR/2001/REC-SVG-20010904/DTD/svg10.dtd">
<svg aria-labelledby="icon-58-iconpack10-04-title" role="img" id="icon-58-iconpack10-04" data-icon-id="58-iconpack10-04" data-icon-label="58 Iconpack10 04" version="1.0" xmlns="http://www.w3.org/2000/svg"
 width="512.000000pt" height="512.000000pt" viewBox="0 0 512.000000 512.000000"
 preserveAspectRatio="xMidYMid meet">
<title id="icon-58-iconpack10-04-title">58 Iconpack10 04</title>
<metadata>
Created by potrace 1.16, written by Peter Selinger 2001-2019
</metadata>
<g transform="translate(0.000000,512.000000) scale(0.020000,-0.020000)"
fill="#000000" stroke="none">
<path d="M20875 21373 c-1098 -279 -1568 -2437 -670 -3077 229 -163 243 -136
211 395 -49 808 128 1278 607 1607 785 540 682 1285 -148 1075z"/>
<path d="M7315 20807 c-107 -134 -279 -389 -383 -567 -104 -178 -344 -524
-533 -769 -1082 -1401 -1361 -2082 -1243 -3037 272 -2205 3984 -2585 4801
-491 300 768 108 1755 -525 2694 -196 292 -436 649 -532 793 -1237 1850 -1220
1835 -1585 1377z m1875 -3817 c237 -237 -105 -1260 -480 -1436 -554 -260 -848
214 -362 583 235 177 552 664 552 846 0 83 209 88 290 7z"/>
<path d="M18486 19949 c-195 -152 -311 -512 -309 -949 6 -918 749 -1762 1617
-1834 655 -55 928 168 413 336 -262 86 -768 509 -923 773 -35 59 -69 412 -84
855 -18 535 -45 779 -94 837 -99 120 -459 109 -620 -18z"/>
<path d="M21018 16882 c-636 -532 -1343 -610 -1957 -217 -685 439 -1261 14
-815 -601 727 -1004 3101 -374 3104 824 0 262 -14 261 -332 -6z"/>
<path d="M6566 9856 c-442 -207 -648 -923 -401 -1391 103 -195 108 -375 15
-555 -127 -247 -229 -295 -675 -324 -1195 -78 -1730 -1365 -909 -2187 578
-578 1482 -493 1919 179 165 254 321 300 698 206 171 -43 492 -115 712 -160
466 -95 694 -267 750 -565 137 -734 1028 -1232 1764 -987 1504 499 1146 2712
-436 2699 -491 -4 -923 -211 -1100 -527 -192 -341 -295 -356 -1203 -167 -771
159 -850 207 -1002 614 -56 151 -147 337 -200 412 -266 374 -8 789 558 898
558 107 902 478 902 974 0 704 -752 1180 -1392 881z"/>
</g>
</svg>
