<?xml version="1.0" standalone="no"?>
<!DOCTYPE svg PUBLIC "-//W3C//DTD SVG 20010904//EN"
 "http://www.w3.org/TR/2001/REC-SVG-20010904/DTD/svg10.dtd">
<svg aria-labelledby="icon-56-iconpack10-02-title" role="img" id="icon-56-iconpack10-02" data-icon-id="56-iconpack10-02" data-icon-label="56 Iconpack10 02" version="1.0" xmlns="http://www.w3.org/2000/svg"
 width="512.000000pt" height="512.000000pt" viewBox="0 0 512.000000 512.000000"
 preserveAspectRatio="xMidYMid meet">
<title id="icon-56-iconpack10-02-title">56 Iconpack10 02</title>
<metadata>
Created by potrace 1.16, written by Peter Selinger 2001-2019
</metadata>
<g transform="translate(0.000000,512.000000) scale(0.020000,-0.020000)"
fill="#000000" stroke="none">
<path d="M13125 19344 c-1501 -269 -2666 -1069 -3059 -2101 -594 -1562 1056
-3011 2986 -2621 920 186 1914 665 2160 1040 46 71 144 193 218 271 612 652
577 2273 -58 2689 -71 47 -174 130 -230 186 -156 156 -678 381 -1067 460 -559
113 -685 123 -950 76z m-3 -1281 c99 -428 213 -652 388 -759 131 -80 759 -252
928 -253 86 -1 112 -30 112 -126 0 -96 -26 -125 -112 -126 -168 -1 -795 -172
-932 -253 -141 -85 -399 -629 -440 -931 -51 -373 -233 -259 -282 176 -59 523
-312 765 -976 932 -518 130 -606 270 -213 337 816 139 1106 383 1184 995 67
529 221 532 343 8z"/>
<path d="M22273 19107 c-250 -152 -518 -757 -522 -1176 -1 -52 -156 -257 -345
-456 -810 -853 -697 -1739 264 -2055 325 -107 448 -178 621 -357 268 -276 259
-287 294 372 44 839 -2 1100 -201 1143 -398 85 -400 409 -3 494 197 42 218
147 218 1078 0 1059 -27 1139 -326 957z"/>
<path d="M2981 18994 c-42 -210 -30 -4236 13 -4394 85 -314 647 -382 919 -110
144 144 209 553 113 709 -121 196 171 587 540 723 587 217 690 727 226 1118
-319 268 -368 581 -163 1030 338 738 172 955 -728 955 -449 0 -664 19 -708 63
-105 103 -179 71 -212 -94z"/>
<path d="M11493 10381 c-1117 -240 -1473 -1703 -643 -2648 526 -600 1720 -637
1963 -61 58 138 157 335 402 798 545 1033 -486 2177 -1722 1911z"/>
<path d="M13675 7947 c-349 -113 -594 -510 -592 -962 4 -910 1234 -1074 1594
-212 304 726 -279 1408 -1002 1174z"/>
</g>
</svg>
