<?xml version="1.0" standalone="no"?>
<!DOCTYPE svg PUBLIC "-//W3C//DTD SVG 20010904//EN"
 "http://www.w3.org/TR/2001/REC-SVG-20010904/DTD/svg10.dtd">
<svg aria-labelledby="icon-40-iconpack7-04-title" role="img" id="icon-40-iconpack7-04" data-icon-id="40-iconpack7-04" data-icon-label="40 Iconpack7 04" version="1.0" xmlns="http://www.w3.org/2000/svg"
 width="512.000000pt" height="512.000000pt" viewBox="0 0 512.000000 512.000000"
 preserveAspectRatio="xMidYMid meet">
<title id="icon-40-iconpack7-04-title">40 Iconpack7 04</title>
<metadata>
Created by potrace 1.16, written by Peter Selinger 2001-2019
</metadata>
<g transform="translate(0.000000,512.000000) scale(0.020000,-0.020000)"
fill="#000000" stroke="none">
<path d="M22244 19681 c-183 -66 -321 -154 -769 -493 -461 -348 -636 -386
-1786 -382 -1104 4 -1129 -1 -2464 -405 -504 -153 -759 -215 -1625 -393 -1298
-268 -1634 -261 -3175 64 -933 197 -1404 165 -2435 -164 -1048 -335 -1337
-346 -2680 -102 -1147 209 -2910 -80 -2910 -476 0 -257 -150 -250 6425 -292
3355 -21 6370 -40 6700 -43 774 -7 2898 88 3350 150 193 27 541 70 775 98 998
115 949 47 949 1332 0 1205 -8 1230 -355 1106z"/>
<path d="M21571 9632 c-532 -198 -842 -524 -1140 -1198 -67 -151 -173 -303
-236 -337 -62 -33 -216 -155 -342 -271 -566 -524 -1729 -582 -2778 -140 -846
356 -1386 309 -2450 -211 -1337 -655 -1394 -674 -2457 -831 -310 -46 -494 -47
-775 -3 -202 32 -537 83 -743 113 -206 31 -566 114 -800 183 -805 240 -1833
123 -2690 -305 -581 -291 -870 -348 -1579 -309 -1139 63 -1438 6 -1471 -276
-29 -253 104 -274 1660 -257 1865 19 5254 22 6530 5 564 -7 1441 16 1950 53
1181 84 2112 84 3150 1 1078 -87 2387 -89 3075 -6 303 36 882 83 1287 103 405
20 754 53 775 74 75 75 45 3556 -31 3647 -100 121 -561 104 -935 -35z m-5596
-2082 c75 -32 42 -44 -135 -46 -129 -2 -248 -26 -265 -54 -17 -28 -89 -50
-159 -50 -106 0 -118 12 -68 72 51 62 137 83 477 116 28 3 95 -14 150 -38z"/>
</g>
</svg>
