<?xml version="1.0" standalone="no"?>
<!DOCTYPE svg PUBLIC "-//W3C//DTD SVG 20010904//EN"
 "http://www.w3.org/TR/2001/REC-SVG-20010904/DTD/svg10.dtd">
<svg aria-labelledby="icon-39-iconpack7-03-title" role="img" id="icon-39-iconpack7-03" data-icon-id="39-iconpack7-03" data-icon-label="39 Iconpack7 03" version="1.0" xmlns="http://www.w3.org/2000/svg"
 width="512.000000pt" height="512.000000pt" viewBox="0 0 512.000000 512.000000"
 preserveAspectRatio="xMidYMid meet">
<title id="icon-39-iconpack7-03-title">39 Iconpack7 03</title>
<metadata>
Created by potrace 1.16, written by Peter Selinger 2001-2019
</metadata>
<g transform="translate(0.000000,512.000000) scale(0.020000,-0.020000)"
fill="#000000" stroke="none">
<path d="M16079 21526 c-805 -331 -1208 -1126 -1026 -2024 176 -870 114 -1330
-223 -1667 -251 -252 -866 -275 -1216 -47 -82 53 -229 67 -555 55 -521 -21
-826 -225 -1217 -811 -738 -1106 -1277 -1362 -2773 -1319 -1214 35 -1549 -36
-2527 -537 -991 -507 -1899 -738 -2496 -636 -605 104 -634 97 -674 -170 -32
-213 -2 -707 46 -754 139 -140 2739 -187 3682 -67 369 47 938 69 1588 63 1141
-11 3435 -12 5025 -3 584 3 1478 -23 1987 -58 1739 -120 2882 -52 3163 189
106 92 114 355 14 488 -258 341 167 791 617 653 226 -69 355 -288 359 -606 6
-555 280 -845 681 -723 561 172 511 839 -134 1798 -362 538 -360 714 18 1275
509 755 152 1394 -639 1145 -525 -166 -925 41 -1100 567 -148 447 85 864 730
1310 615 424 499 1103 -190 1103 -251 0 -819 -392 -819 -565 0 -190 -614 -985
-860 -1114 -237 -125 -899 -96 -1031 45 -242 257 -81 741 343 1031 983 671
332 1833 -773 1379z m-2783 -3946 c47 -57 20 -74 -157 -95 -118 -15 -276 -42
-351 -61 -88 -23 -138 -16 -138 19 0 158 534 272 646 137z m4420 -786 c548
-282 439 -765 -222 -988 -953 -322 -1759 172 -1184 726 311 299 1062 439 1406
262z m-3852 -1174 c646 -215 872 -532 574 -806 -605 -554 -2238 -374 -2238
247 0 552 838 834 1664 559z m6876 -1512 c-8 -124 -43 -234 -77 -246 -80 -26
-81 110 -2 237 49 78 49 111 0 160 -96 96 -82 220 16 139 54 -45 73 -133 63
-290z"/>
<path d="M20000 11050 c-70 -70 -100 -167 -100 -325 0 -406 467 -601 741 -309
186 197 109 732 -88 611 -31 -19 -40 -1 -22 45 48 126 -402 107 -531 -22z"/>
<path d="M15450 10058 c-550 -147 -767 -554 -801 -1506 -31 -866 -110 -1100
-457 -1354 -333 -243 -926 -411 -1221 -345 -80 18 -323 61 -539 94 -216 34
-486 96 -600 138 -801 295 -1907 -258 -2150 -1075 -151 -511 -546 -1018 -842
-1081 -63 -14 -295 -61 -515 -106 -522 -106 -969 -281 -1318 -518 -817 -554
-1480 -657 -2437 -380 -466 135 -840 159 -1043 67 -142 -65 -168 -180 -51
-224 67 -26 65 -38 -10 -94 -92 -67 -129 -578 -48 -659 68 -68 3448 -47 4057
25 303 36 764 91 1025 123 916 112 2550 59 3625 -116 683 -112 1763 -112 2416
-2 856 146 2262 148 2998 5 1971 -383 2851 268 2195 1624 -357 740 -319 1239
131 1713 237 249 685 162 685 -133 0 -35 36 -141 81 -234 44 -94 68 -221 52
-283 -190 -731 -196 -876 -47 -1046 273 -311 432 296 210 803 -113 258 -122
446 -27 582 95 137 317 706 371 953 163 737 -677 1136 -1182 562 -649 -737
-929 -855 -1248 -526 -297 306 -49 1400 361 1594 159 75 329 375 329 579 0
380 -213 549 -649 517 -319 -23 -596 -410 -651 -909 -88 -794 -485 -1246
-1095 -1246 -626 0 -824 350 -681 1207 162 973 -189 1448 -924 1251z m-99
-3911 c1455 -402 793 -1738 -908 -1834 -1731 -98 -2108 1450 -435 1785 174 35
385 81 467 103 254 68 487 53 876 -54z m2846 -1369 c339 -350 -15 -678 -731
-678 -645 0 -859 248 -503 584 365 344 949 388 1234 94z"/>
</g>
</svg>
