<?xml version="1.0" standalone="no"?>
<!DOCTYPE svg PUBLIC "-//W3C//DTD SVG 20010904//EN"
 "http://www.w3.org/TR/2001/REC-SVG-20010904/DTD/svg10.dtd">
<svg aria-labelledby="icon-52-iconpack9-04-title" role="img" id="icon-52-iconpack9-04" data-icon-id="52-iconpack9-04" data-icon-label="52 Iconpack9 04" version="1.0" xmlns="http://www.w3.org/2000/svg"
 width="512.000000pt" height="512.000000pt" viewBox="0 0 512.000000 512.000000"
 preserveAspectRatio="xMidYMid meet">
<title id="icon-52-iconpack9-04-title">52 Iconpack9 04</title>
<metadata>
Created by potrace 1.16, written by Peter Selinger 2001-2019
</metadata>
<g transform="translate(0.000000,512.000000) scale(0.020000,-0.020000)"
fill="#000000" stroke="none">
<path d="M19950 21897 c-179 -22 -520 -62 -757 -90 -238 -27 -581 -96 -762
-152 -181 -56 -561 -137 -843 -180 -282 -44 -635 -101 -784 -127 -735 -130
-1725 -39 -4166 383 -490 84 -878 37 -1731 -210 -568 -164 -1154 -142 -2003
76 -1138 292 -2086 208 -2239 -198 -55 -145 -65 -149 -398 -151 -412 -2 -590
-92 -391 -198 127 -68 465 -8 608 108 39 32 142 20 300 -34 374 -128 704 -144
1136 -55 782 162 1908 52 2205 -216 727 -655 2527 -850 3982 -433 1789 514
2142 545 3143 273 1210 -328 3340 -521 3421 -310 53 137 574 267 1075 267 553
0 604 56 526 576 -83 558 -1018 827 -2322 671z m-6725 -549 c454 -114 689
-286 596 -434 -374 -592 -2421 -542 -2421 59 0 209 23 225 525 360 509 137
801 140 1300 15z m7163 3 c596 -364 -480 -772 -1162 -441 -301 146 -305 280
-13 427 296 149 940 156 1175 14z"/>
<path d="M20209 17053 c-91 -23 -215 -86 -275 -140 -301 -273 -824 -250 -1984
86 -246 72 -1235 66 -1280 -7 -67 -108 139 -202 355 -162 379 70 1025 -90
1025 -253 0 -224 -1809 -263 -2641 -57 -916 227 -1239 226 -1196 -1 55 -285
-336 -363 -1094 -220 -817 155 -1748 131 -2369 -61 -990 -306 -1820 -310
-2875 -15 -406 114 -1340 162 -1498 78 -115 -61 -492 -53 -1327 28 -288 28
-653 -62 -689 -171 -31 -94 1611 -97 1711 -3 70 66 315 54 628 -30 151 -41
378 -74 503 -74 287 -1 449 -103 351 -221 -55 -66 -183 -80 -754 -80 -550 0
-700 -15 -750 -75 -54 -65 -20 -75 266 -75 180 0 342 23 359 50 39 62 759 67
797 5 77 -125 711 -171 1161 -84 578 111 1701 84 1898 -46 110 -72 124 -108
96 -254 -29 -156 -21 -171 89 -171 104 0 125 29 148 205 54 403 533 670 1136
635 549 -33 935 -334 441 -345 -323 -7 -466 -60 -466 -171 0 -283 948 -218
2225 152 1939 562 2862 633 3577 274 348 -175 348 -175 386 -450 23 -162 73
-301 122 -337 78 -59 78 -74 -1 -240 -159 -333 -89 -523 193 -523 218 0 276
143 198 486 -119 517 202 787 875 737 358 -27 520 -10 1025 104 528 119 664
131 1132 104 531 -32 531 -32 550 106 50 380 32 397 -497 487 -517 88 -960
252 -960 357 0 92 202 219 347 219 108 0 115 9 51 71 -89 86 -753 141 -989 82z"/>
<path d="M20362 12147 c-118 -23 -241 -60 -275 -82 -34 -22 -489 -54 -1012
-71 -888 -30 -971 -41 -1274 -169 -312 -133 -344 -137 -850 -99 -644 48 -1114
48 -1808 -1 -511 -36 -548 -32 -975 116 -929 321 -1632 323 -2568 9 -604 -203
-882 -250 -1490 -251 -576 -1 -999 -79 -1494 -276 -377 -151 -1023 -171 -1372
-43 -328 120 -1054 104 -1279 -29 -154 -91 -245 -100 -885 -89 -723 13 -880
-20 -880 -185 0 -238 1043 -183 1375 72 299 229 1521 -25 1598 -333 50 -199
207 -316 425 -316 240 0 453 89 420 176 -89 230 832 494 1602 460 653 -29
1237 70 1555 263 540 329 1324 458 1677 275 262 -136 138 -336 -244 -394 -246
-37 -526 -168 -739 -345 -182 -152 -402 -218 -844 -255 -862 -71 -776 -555
100 -555 357 0 583 85 1300 486 292 164 745 176 1347 37 812 -187 1333 -108
2616 398 958 378 2146 -124 1622 -686 -146 -155 -146 -155 -3 -187 79 -17 143
-63 143 -102 0 -100 -330 -96 -368 4 -58 151 -182 83 -182 -100 0 -175 0 -175
267 -175 202 0 289 24 356 98 348 384 1211 426 2186 107 1027 -337 1841 -352
1841 -34 0 145 -24 174 -212 256 -545 235 -539 484 17 764 208 105 346 975
180 1141 -131 130 -1400 208 -1873 115z m1413 -500 c413 -200 68 -647 -500
-647 -466 0 -866 330 -655 542 206 206 829 263 1155 105z"/>
<path d="M21375 6356 c-302 -76 -617 -173 -700 -217 -82 -43 -364 -162 -625
-264 -261 -102 -553 -224 -650 -272 -463 -230 -1476 -254 -2050 -49 -415 148
-805 149 -1145 3 -782 -336 -2166 -316 -3580 53 -220 57 -614 136 -875 175
-261 39 -576 92 -700 118 -636 133 -1900 32 -1900 -152 0 -169 405 -192 912
-51 553 153 1104 82 1257 -162 111 -176 -49 -236 -696 -258 -329 -12 -787 -38
-1018 -58 -437 -37 -1036 22 -1567 156 -337 85 -1813 102 -1863 22 -40 -65
-660 -65 -700 0 -45 72 -435 59 -536 -19 -138 -104 89 -202 368 -159 120 19
376 46 568 60 193 14 371 47 397 72 65 62 764 59 803 -4 17 -27 130 -50 252
-50 257 0 623 -132 623 -225 0 -91 -167 -124 -637 -124 -341 -1 -413 -15 -413
-79 0 -68 71 -75 513 -55 856 39 1095 36 1515 -24 347 -48 458 -44 800 33 576
131 1655 157 1962 48 394 -140 1063 -152 1576 -30 600 144 1157 142 1458 -4
378 -184 255 -306 -369 -368 -550 -54 -428 -235 195 -288 237 -20 1342 124
1447 189 20 12 192 47 382 76 190 30 515 107 721 172 2036 642 4117 519 3550
-209 -59 -75 -201 -182 -315 -237 -229 -111 -312 -275 -139 -275 56 0 242 73
412 163 392 205 991 253 1366 110 125 -48 245 -71 265 -51 49 49 80 1772 37
2109 -41 329 -71 333 -901 125z"/>
</g>
</svg>
