<?xml version="1.0" standalone="no"?>
<!DOCTYPE svg PUBLIC "-//W3C//DTD SVG 20010904//EN"
 "http://www.w3.org/TR/2001/REC-SVG-20010904/DTD/svg10.dtd">
<svg aria-labelledby="icon-43-iconpack8-01-title" role="img" id="icon-43-iconpack8-01" data-icon-id="43-iconpack8-01" data-icon-label="43 Iconpack8 01" version="1.0" xmlns="http://www.w3.org/2000/svg"
 width="512.000000pt" height="512.000000pt" viewBox="0 0 512.000000 512.000000"
 preserveAspectRatio="xMidYMid meet">
<title id="icon-43-iconpack8-01-title">43 Iconpack8 01</title>
<metadata>
Created by potrace 1.16, written by Peter Selinger 2001-2019
</metadata>
<g transform="translate(0.000000,512.000000) scale(0.020000,-0.020000)"
fill="#000000" stroke="none">
<path d="M9375 16601 c-843 -121 -1621 -392 -2147 -746 -112 -75 -315 -201
-452 -279 -310 -179 -1231 -1105 -1410 -1418 -73 -128 -171 -278 -218 -333
-462 -541 -936 -2334 -879 -3325 97 -1688 97 -1661 -14 -2021 -200 -646 -228
-629 1064 -628 1247 0 1389 46 1164 375 -197 288 -283 731 -283 1458 0 757 -7
724 317 1488 592 1398 2444 2363 3840 2001 2316 -600 3464 -2710 2630 -4836
-83 -214 -135 -405 -115 -425 47 -47 3816 -80 4172 -36 270 33 270 33 240 341
-42 432 -355 1501 -520 1777 -76 127 -164 289 -195 360 -198 449 -926 1171
-1446 1433 -1334 673 -1740 1189 -2061 2619 -371 1650 -1753 2473 -3687 2195z"/>
<path d="M22150 15745 c-492 -360 -1038 -997 -1159 -1353 -31 -92 -97 -226
-147 -298 -342 -490 -455 -1273 -493 -3394 -19 -1093 -59 -2011 -100 -2288
-37 -254 -50 -479 -30 -500 52 -51 2261 -47 2312 5 23 23 42 788 42 1700 0
1658 0 1658 -175 2033 -256 548 -257 1131 -3 1604 172 321 172 321 192 1240
34 1521 13 1581 -439 1251z"/>
<path d="M14780 15474 c-1344 -510 -516 -2784 947 -2601 997 125 1010 1965 17
2469 -383 195 -688 237 -964 132z"/>
<path d="M9075 12153 c-1649 -406 -2415 -2438 -1477 -3917 236 -373 168 -361
2135 -361 2024 0 1859 -42 2198 565 812 1452 -78 3406 -1691 3712 -290 55
-943 56 -1165 1z m313 -802 c112 -69 162 -137 162 -223 0 -124 -36 -159 -547
-539 -140 -103 -279 -273 -376 -457 -201 -380 -348 -464 -575 -326 -403 245
144 1282 813 1539 326 125 326 125 523 6z"/>
</g>
</svg>
