<?xml version="1.0" standalone="no"?>
<!DOCTYPE svg PUBLIC "-//W3C//DTD SVG 20010904//EN"
 "http://www.w3.org/TR/2001/REC-SVG-20010904/DTD/svg10.dtd">
<svg aria-labelledby="icon-50-iconpack9-02-title" role="img" id="icon-50-iconpack9-02" data-icon-id="50-iconpack9-02" data-icon-label="50 Iconpack9 02" version="1.0" xmlns="http://www.w3.org/2000/svg"
 width="512.000000pt" height="512.000000pt" viewBox="0 0 512.000000 512.000000"
 preserveAspectRatio="xMidYMid meet">
<title id="icon-50-iconpack9-02-title">50 Iconpack9 02</title>
<metadata>
Created by potrace 1.16, written by Peter Selinger 2001-2019
</metadata>
<g transform="translate(0.000000,512.000000) scale(0.020000,-0.020000)"
fill="#000000" stroke="none">
<path d="M12350 21490 c-365 -185 -763 -203 -2548 -115 -744 37 -947 24 -1927
-124 -165 -25 -480 -71 -700 -102 -220 -31 -679 -102 -1021 -158 -617 -101
-1624 -106 -2566 -11 -314 32 -324 20 -292 -329 18 -191 79 -234 469 -329 627
-152 911 -416 660 -613 -329 -259 -27 -413 386 -197 415 217 876 109 955 -224
45 -192 284 -290 284 -117 0 288 239 385 894 365 623 -18 798 -55 1329 -278
413 -173 1358 -118 1684 98 642 427 1064 497 1643 273 318 -123 1120 -127
1550 -7 581 162 582 162 621 -42 27 -146 56 -180 150 -180 155 0 248 119 209
271 -196 783 2448 1119 3560 453 148 -88 165 -120 154 -299 -6 -110 14 -248
46 -307 37 -68 46 -225 27 -436 -35 -365 16 -482 208 -482 195 0 239 111 200
501 -62 614 217 836 723 575 404 -209 1053 -122 1471 197 398 304 590 377 992
378 748 1 843 77 756 612 -40 247 -181 248 -1132 7 -622 -158 -750 -175 -1035
-142 -388 46 -645 45 -1162 -4 -426 -41 -538 1 -538 202 0 112 12 114 642 131
637 18 808 63 808 214 0 273 -2002 416 -2975 213 -776 -162 -1206 -202 -1560
-144 -223 37 -409 40 -540 9 -391 -91 -691 -60 -1057 112 -515 243 -931 251
-1368 29z m-3547 -747 c384 -128 447 -172 446 -312 -2 -429 -1590 -588 -1959
-195 -360 383 757 758 1513 507z"/>
<path d="M15647 16681 c-13 -14 -238 -47 -498 -74 -261 -27 -767 -130 -1124
-230 -1444 -403 -1273 -377 -2511 -378 -924 -1 -1257 19 -1764 103 -2608 435
-2853 458 -4737 462 -915 2 -1680 -14 -1700 -35 -51 -50 -82 -1380 -39 -1664
32 -214 40 -224 167 -191 513 129 1130 90 1477 -94 422 -223 713 -237 1157
-54 618 254 2183 159 3275 -200 868 -286 1498 -329 2444 -170 545 92 748 102
1488 75 942 -34 1286 25 1668 286 513 351 1367 383 1962 75 1073 -555 2748
-495 3015 108 129 291 151 321 323 438 328 223 1083 148 1658 -166 333 -182
391 -71 391 753 0 984 54 963 -1499 578 -1672 -414 -2475 -395 -3708 90 -210
83 -570 176 -800 207 -229 31 -463 67 -519 81 -55 13 -112 13 -126 0z m-10272
-231 c17 -27 114 -50 215 -51 373 -2 745 -251 692 -463 -100 -401 -1856 -494
-2269 -120 -244 220 19 501 533 570 113 15 218 47 233 71 37 60 558 54 596 -7z
m5713 -1399 c470 -287 -157 -743 -817 -596 -467 105 -611 464 -255 636 201 97
889 71 1072 -40z"/>
<path d="M12500 11854 c-281 -67 -791 -198 -1275 -328 -1165 -312 -1081 -301
-2300 -301 -927 0 -1254 19 -1684 98 -472 87 -577 91 -907 35 -417 -70 -1032
5 -1580 194 -313 108 -857 196 -1220 197 -324 1 -331 -210 -13 -375 309 -160
290 -333 -42 -395 -141 -26 -173 -58 -199 -196 -77 -411 39 -533 508 -533 381
0 567 -97 533 -279 -31 -163 -31 -163 254 -198 417 -52 1236 123 1767 377 531
254 1202 295 1399 84 205 -218 92 -338 -472 -500 -320 -92 -394 -131 -394
-211 0 -140 385 -130 667 17 253 132 645 145 964 33 411 -145 729 -146 1165
-2 557 183 712 199 1062 108 502 -130 759 -102 1401 150 513 202 843 145 1263
-217 342 -294 753 -320 753 -47 0 156 -72 285 -160 285 -22 0 -40 -77 -40
-172 0 -230 -73 -262 -225 -99 -158 172 -158 252 0 292 122 30 123 35 45 155
-246 375 383 700 1076 557 463 -96 799 -287 1259 -716 697 -650 1151 -754
1642 -375 307 238 361 256 513 178 228 -118 288 -289 203 -579 -81 -278 -35
-391 162 -391 183 0 237 112 199 415 -111 889 1500 1502 3084 1175 346 -71
354 -65 354 260 0 278 -69 368 -324 427 -321 73 -156 420 200 422 66 1 112 32
112 76 0 122 -527 95 -1049 -55 -500 -144 -796 -146 -1776 -14 -790 106 -2032
53 -2447 -105 -781 -297 -1526 -256 -2278 124 -782 395 -1638 562 -2200 429z
m-514 -714 c402 -192 -51 -596 -939 -837 -723 -196 -2047 -88 -2047 167 0 157
223 267 600 297 225 17 555 92 825 187 803 282 1250 335 1561 186z m7548 -299
c265 -248 -2 -441 -611 -441 -449 0 -523 39 -523 277 0 285 872 411 1134 164z"/>
<path d="M6650 6971 c-344 -66 -704 -151 -800 -188 -528 -207 -1396 -358
-2061 -358 -487 0 -487 0 -518 -208 -41 -275 -7 -1548 43 -1598 21 -21 325
-53 675 -71 350 -17 704 -60 786 -94 510 -210 1330 -119 2549 284 785 260 884
281 1272 274 299 -6 436 11 475 58 201 249 1300 226 2004 -40 110 -42 228 -77
263 -78 301 -10 521 -350 480 -741 -38 -364 40 -461 288 -358 156 64 156 64
125 365 -35 334 74 532 294 532 59 0 554 90 1100 200 1677 338 3486 234 4825
-276 432 -164 916 -140 892 45 -27 210 33 231 663 231 425 0 641 -21 739 -72
210 -109 1033 -238 1280 -201 248 38 275 112 275 748 0 713 -30 757 -574 855
-110 20 -273 66 -361 103 -616 257 -2448 377 -3414 225 -234 -37 -605 -84
-825 -104 -220 -21 -569 -74 -775 -119 -1703 -367 -2583 -348 -3423 77 -1036
523 -2224 651 -2883 310 -193 -100 -1012 -96 -1300 5 -188 66 -1396 332 -1450
318 -11 -2 -300 -58 -644 -124z m1225 -460 c290 -158 378 -465 191 -671 -346
-382 -1444 -304 -1618 114 -210 508 796 901 1427 557z m12407 -142 c992 -281
854 -657 -244 -665 -675 -5 -1085 148 -1087 407 -1 113 467 327 847 385 13 2
231 -55 484 -127z m-14517 -720 c412 -154 495 -406 225 -684 -242 -250 -969
-253 -1225 -5 -460 446 283 958 1000 689z m3344 18 c129 -117 113 -211 -46
-274 -381 -150 -898 128 -550 296 173 84 492 72 596 -22z"/>
</g>
</svg>
