<?xml version="1.0" standalone="no"?>
<!DOCTYPE svg PUBLIC "-//W3C//DTD SVG 20010904//EN"
 "http://www.w3.org/TR/2001/REC-SVG-20010904/DTD/svg10.dtd">
<svg aria-labelledby="icon-46-iconpack8-04-title" role="img" id="icon-46-iconpack8-04" data-icon-id="46-iconpack8-04" data-icon-label="46 Iconpack8 04" version="1.0" xmlns="http://www.w3.org/2000/svg"
 width="512.000000pt" height="512.000000pt" viewBox="0 0 512.000000 512.000000"
 preserveAspectRatio="xMidYMid meet">
<title id="icon-46-iconpack8-04-title">46 Iconpack8 04</title>
<metadata>
Created by potrace 1.16, written by Peter Selinger 2001-2019
</metadata>
<g transform="translate(0.000000,512.000000) scale(0.020000,-0.020000)"
fill="#000000" stroke="none">
<path d="M5126 16256 c-152 -32 -177 -63 -509 -631 -879 -1503 -861 -3142 45
-4355 180 -240 418 -423 988 -759 794 -468 2458 -237 3386 469 894 681 2020
802 3189 343 2296 -901 4436 106 5101 2400 244 841 366 2352 203 2515 -47 47
-3612 80 -3966 37 -469 -57 -340 -614 179 -778 198 -62 1502 -1304 1636 -1557
323 -608 -377 -1380 -968 -1069 -328 172 -1549 1493 -1612 1743 -117 463 -417
543 -1048 279 -1021 -427 -2173 -356 -3095 191 -320 190 -1105 956 -1105 1078
0 128 -1919 202 -2424 94z"/>
<path d="M9013 16266 c-193 -26 -202 -63 -50 -201 637 -580 1872 -668 2583
-185 98 66 204 120 237 120 70 0 143 191 92 241 -37 38 -2606 60 -2862 25z"/>
<path d="M20450 16263 c-168 -31 -234 -91 -273 -253 -17 -74 -120 -352 -227
-618 -613 -1515 -555 -2580 201 -3692 389 -572 717 -820 1485 -1120 704 -274
897 -257 940 86 42 334 11 2314 -37 2361 -19 20 -255 51 -525 70 -545 38 -781
123 -805 289 -20 141 537 1200 940 1788 442 645 520 1043 214 1094 -211 35
-1719 31 -1913 -5z"/>
</g>
</svg>
