<?xml version="1.0" standalone="no"?>
<!DOCTYPE svg PUBLIC "-//W3C//DTD SVG 20010904//EN"
 "http://www.w3.org/TR/2001/REC-SVG-20010904/DTD/svg10.dtd">
<svg aria-labelledby="icon-44-iconpack8-02-title" role="img" id="icon-44-iconpack8-02" data-icon-id="44-iconpack8-02" data-icon-label="44 Iconpack8 02" version="1.0" xmlns="http://www.w3.org/2000/svg"
 width="512.000000pt" height="512.000000pt" viewBox="0 0 512.000000 512.000000"
 preserveAspectRatio="xMidYMid meet">
<title id="icon-44-iconpack8-02-title">44 Iconpack8 02</title>
<metadata>
Created by potrace 1.16, written by Peter Selinger 2001-2019
</metadata>
<g transform="translate(0.000000,512.000000) scale(0.020000,-0.020000)"
fill="#000000" stroke="none">
<path d="M18947 16247 c-1873 -336 -3097 -1866 -3097 -3871 0 -754 -433 -1932
-1047 -2849 -328 -490 -683 -1164 -637 -1210 53 -53 1268 -87 1603 -45 267 33
272 37 422 318 364 680 559 760 1859 760 1600 0 1599 0 1637 615 48 765 -4
972 -253 1008 -823 121 -834 139 -834 1442 0 1461 -25 1435 1375 1435 1400 0
1375 26 1375 -1435 0 -1282 -14 -1308 -760 -1442 -226 -41 -264 -198 -231
-950 30 -678 -24 -648 1164 -648 533 0 987 19 1010 42 76 76 52 5700 -25 5838
-412 738 -2199 1236 -3561 992z"/>
<path d="M4138 16219 c-486 -104 -1101 -410 -1144 -569 -19 -69 -36 -451 -38
-850 -7 -1080 50 -1274 285 -974 296 375 1470 553 1984 301 1188 -584 1377
-2361 326 -3057 -320 -212 -385 -499 -214 -947 355 -931 1604 -1733 2017
-1294 120 128 121 137 146 1437 35 1808 -89 1684 1676 1684 1804 0 1674 137
1673 -1771 0 -1845 133 -1698 -1557 -1719 -891 -11 -1197 -31 -1237 -80 -57
-68 3537 -158 3912 -97 585 95 581 3299 -7 4433 -434 838 -1191 1340 -2210
1462 -598 71 -1326 345 -1723 648 -111 85 -382 276 -602 424 -220 148 -490
338 -600 422 -689 524 -1770 744 -2687 547z"/>
<path d="M17327 8722 c-291 -73 -527 -229 -527 -349 0 -96 306 -122 1425 -122
1353 0 1425 11 1425 224 0 280 -66 299 -1095 311 -686 7 -1008 -9 -1228 -64z"/>
<path d="M20538 8764 c-126 -19 -138 -39 -138 -236 0 -266 44 -277 1075 -277
1029 0 1075 12 1075 274 0 206 -5 213 -187 243 -203 33 -1599 30 -1825 -4z"/>
</g>
</svg>
