<?xml version="1.0" standalone="no"?>
<!DOCTYPE svg PUBLIC "-//W3C//DTD SVG 20010904//EN"
 "http://www.w3.org/TR/2001/REC-SVG-20010904/DTD/svg10.dtd">
<svg aria-labelledby="icon-42-iconpack7-06-title" role="img" id="icon-42-iconpack7-06" data-icon-id="42-iconpack7-06" data-icon-label="42 Iconpack7 06" version="1.0" xmlns="http://www.w3.org/2000/svg"
 width="512.000000pt" height="512.000000pt" viewBox="0 0 512.000000 512.000000"
 preserveAspectRatio="xMidYMid meet">
<title id="icon-42-iconpack7-06-title">42 Iconpack7 06</title>
<metadata>
Created by potrace 1.16, written by Peter Selinger 2001-2019
</metadata>
<g transform="translate(0.000000,512.000000) scale(0.020000,-0.020000)"
fill="#000000" stroke="none">
<path d="M17942 21371 c-607 -186 -892 -806 -892 -1936 0 -1261 -336 -1571
-1637 -1510 -1815 84 -1842 76 -2622 -834 -300 -350 -439 -391 -1324 -391
-745 0 -1050 -54 -1589 -282 -631 -266 -707 -285 -1238 -307 -469 -19 -591 -6
-994 110 -733 210 -1095 258 -1468 194 -334 -57 -367 -70 -953 -388 -494 -268
-1131 -425 -1734 -426 -485 -1 -485 -1 -519 -231 -34 -223 -1 -707 51 -759
125 -125 1402 -59 2702 140 814 125 2198 135 2800 21 329 -62 1617 -179 2000
-181 55 0 426 28 825 63 980 86 2493 84 3200 -4 710 -89 1371 -90 2250 -2 743
75 1069 79 2002 26 724 -41 1127 19 1288 191 237 251 215 769 -48 1170 -320
486 -319 1183 2 1532 366 397 718 348 933 -130 144 -320 144 -391 5 -945 -66
-262 -64 -295 23 -438 275 -453 620 110 372 607 -150 301 -146 527 20 1011
503 1467 -694 2215 -1723 1077 -743 -822 -1722 79 -1024 943 483 598 519 666
519 990 0 627 -506 911 -1227 689z m-903 -4293 c529 -140 911 -481 911 -811 0
-643 -1607 -661 -2036 -22 -340 506 372 1034 1125 833z"/>
<path d="M16864 11167 c-384 -136 -704 -714 -643 -1163 56 -418 -135 -861
-454 -1055 -354 -214 -599 -194 -1157 93 -864 444 -1475 193 -1701 -700 -271
-1073 -491 -1341 -1099 -1342 -737 0 -1271 -206 -1761 -679 -450 -435 -854
-554 -1674 -493 -1533 113 -1585 105 -3150 -501 -489 -190 -973 -318 -1425
-377 -866 -114 -789 -86 -825 -298 -94 -558 59 -642 1057 -583 1800 108 2932
144 4268 135 5175 -33 4662 -46 5950 152 151 23 474 57 717 75 440 33 538 22
1658 -182 1523 -278 3007 -137 3313 316 227 337 162 547 -394 1266 -658 852
-230 1819 806 1819 402 0 402 0 605 -312 219 -338 218 -338 71 -884 -151 -562
-50 -854 297 -854 365 0 421 309 180 992 -147 416 -147 416 -54 724 310 1021
159 1530 -537 1809 -566 227 -1196 169 -1796 -164 -124 -69 -544 -604 -630
-803 -318 -731 -1033 -995 -1476 -544 -317 324 -200 1093 219 1439 48 40 162
189 254 331 91 143 188 273 215 290 27 17 131 153 231 303 533 804 -113 1527
-1065 1190z m3236 -2192 c-34 -41 -114 -75 -178 -75 -64 0 -130 -22 -147 -50
-17 -27 -84 -50 -150 -50 -66 0 -133 -22 -150 -50 -17 -27 -91 -50 -165 -50
-117 0 -102 17 111 125 135 69 286 125 335 125 48 0 102 23 119 50 17 28 89
50 159 50 108 0 119 -12 66 -75z m-5033 -2175 c217 -258 168 -625 -112 -835
-930 -698 -2108 -436 -1684 375 293 561 1460 860 1796 460z"/>
<path d="M20692 11184 c-256 -195 -61 -684 274 -684 374 0 562 427 303 688
-80 80 -469 78 -577 -4z"/>
</g>
</svg>
