<?xml version="1.0" standalone="no"?>
<!DOCTYPE svg PUBLIC "-//W3C//DTD SVG 20010904//EN"
 "http://www.w3.org/TR/2001/REC-SVG-20010904/DTD/svg10.dtd">
<svg version="1.0" xmlns="http://www.w3.org/2000/svg"
 width="512.000000pt" height="512.000000pt" viewBox="0 0 512.000000 512.000000"
 preserveAspectRatio="xMidYMid meet">
<metadata>
Created by potrace 1.16, written by Peter Selinger 2001-2019
</metadata>
<g transform="translate(0.000000,512.000000) scale(0.020000,-0.020000)"
fill="#000000" stroke="none">
<path d="M17775 16201 c-642 -114 -1463 -449 -2250 -917 -1011 -602 -1487
-778 -2821 -1042 -2069 -410 -3099 -1207 -3607 -2792 -294 -918 -47 -2220 560
-2950 123 -147 3859 -204 4003 -60 262 261 81 807 -301 906 -312 81 -768 154
-962 154 -486 0 -358 309 503 1216 419 441 652 578 1200 709 307 74 402 121
525 262 1469 1685 2656 2502 4059 2792 1256 259 1628 -880 906 -2779 -240
-631 -1028 -1791 -1752 -2578 -459 -498 -479 -697 -75 -748 352 -44 2719 -9
2768 40 22 22 49 326 60 675 14 433 45 683 96 783 82 160 497 1156 698 1678
386 998 395 2258 24 3224 -452 1176 -1882 1738 -3634 1427z"/>
<path d="M2982 15118 c-41 -298 -42 -5156 -1 -5360 27 -138 65 -165 362 -263
433 -142 821 -507 908 -853 72 -286 93 -291 1274 -291 1060 0 1225 23 1225
173 0 243 -408 1188 -572 1324 -43 35 -78 93 -78 128 0 85 -174 291 -778 923
-976 1022 -1270 1572 -1524 2851 -98 490 -256 918 -467 1260 -245 399 -307
418 -349 108z"/>
<path d="M16863 12452 c-408 -99 -771 -547 -781 -964 -23 -898 959 -1433 1657
-904 920 695 242 2141 -876 1868z"/>
</g>
</svg>
