<?xml version="1.0" standalone="no"?>
<!DOCTYPE svg PUBLIC "-//W3C//DTD SVG 20010904//EN"
 "http://www.w3.org/TR/2001/REC-SVG-20010904/DTD/svg10.dtd">
<svg aria-labelledby="icon-41-iconpack7-05-title" role="img" id="icon-41-iconpack7-05" data-icon-id="41-iconpack7-05" data-icon-label="41 Iconpack7 05" version="1.0" xmlns="http://www.w3.org/2000/svg"
 width="512.000000pt" height="512.000000pt" viewBox="0 0 512.000000 512.000000"
 preserveAspectRatio="xMidYMid meet">
<title id="icon-41-iconpack7-05-title">41 Iconpack7 05</title>
<metadata>
Created by potrace 1.16, written by Peter Selinger 2001-2019
</metadata>
<g transform="translate(0.000000,512.000000) scale(0.020000,-0.020000)"
fill="#000000" stroke="none">
<path d="M6945 20462 c-582 -391 -717 -1032 -316 -1507 96 -115 121 -201 121
-422 0 -730 -647 -947 -1276 -427 -377 312 -621 308 -811 -12 -99 -166 38
-393 298 -495 304 -120 389 -237 389 -533 0 -569 -656 -651 -1536 -191 -878
459 -885 451 -856 -988 20 -974 -32 -885 550 -937 257 -23 625 -75 817 -115
695 -143 1339 -198 1950 -165 330 17 1028 50 1550 72 523 22 995 59 1050 82
212 87 278 184 245 360 -60 322 51 466 361 466 269 0 269 0 269 -237 1 -505
129 -713 438 -713 341 0 430 449 255 1287 -66 314 287 985 571 1084 329 116
550 -350 417 -880 -86 -342 -58 -572 80 -659 222 -140 328 240 208 748 -81
345 -81 367 24 754 142 528 138 721 -18 907 -225 268 -413 246 -1000 -116
-984 -607 -1119 810 -139 1450 609 398 764 922 331 1119 -489 223 -982 -164
-1143 -898 -147 -668 -889 -1172 -1364 -926 -264 136 -295 215 -331 850 -38
671 -87 802 -366 996 -232 160 -567 181 -768 46z m1178 -3570 c225 -103 186
-527 -70 -758 -285 -258 -777 -382 -1125 -285 -490 137 -526 390 -113 787 310
298 944 422 1308 256z"/>
<path d="M20225 15872 c-399 -106 -805 -257 -953 -354 -211 -138 -681 -318
-832 -318 -74 0 -250 -25 -391 -55 -190 -41 -337 -40 -568 4 -418 79 -1318 83
-1502 7 -294 -121 -371 -390 -147 -510 185 -99 3257 -102 3843 -4 571 96 1435
128 1767 67 877 -163 1095 -138 1132 131 46 337 -11 694 -116 725 -774 230
-993 285 -1324 331 -473 65 -586 62 -909 -24z"/>
<path d="M9899 11888 c-189 -310 -12 -585 376 -585 320 0 398 103 381 501 -13
288 -593 352 -757 84z"/>
<path d="M5073 10856 c-411 -187 -610 -620 -519 -1131 135 -762 106 -969 -168
-1231 -183 -175 -223 -185 -847 -206 -267 -10 -503 -35 -525 -57 -45 -45 -54
-3057 -9 -3102 35 -36 573 -112 1345 -191 745 -76 1510 -73 2350 8 371 36 889
68 1150 73 717 11 977 228 728 608 -109 166 -98 287 38 414 250 235 533 11
534 -422 0 -364 48 -489 232 -610 471 -308 719 204 461 955 -290 847 -101
1551 466 1733 493 158 782 -346 609 -1060 -142 -585 29 -998 305 -739 155 145
158 253 22 785 -105 412 -105 412 50 877 174 522 192 771 75 1019 -222 468
-830 467 -1220 -3 -245 -296 -769 -362 -971 -122 -253 301 -196 626 178 1007
566 577 261 1344 -479 1204 -323 -61 -559 -399 -612 -876 -91 -823 -1315
-1017 -1701 -269 -42 80 -88 325 -103 545 -51 740 -694 1107 -1389 791z m2117
-3163 c460 -111 573 -347 300 -628 -323 -334 -1190 -188 -1190 201 0 347 410
544 890 427z m-2435 -402 c793 -273 1046 -1140 390 -1336 -1233 -370 -2535
775 -1520 1337 133 73 916 73 1130 -1z"/>
</g>
</svg>
