<?xml version="1.0" standalone="no"?>
<!DOCTYPE svg PUBLIC "-//W3C//DTD SVG 20010904//EN"
 "http://www.w3.org/TR/2001/REC-SVG-20010904/DTD/svg10.dtd">
<svg version="1.0" xmlns="http://www.w3.org/2000/svg"
 width="512.000000pt" height="512.000000pt" viewBox="0 0 512.000000 512.000000"
 preserveAspectRatio="xMidYMid meet">
<metadata>
Created by potrace 1.16, written by Peter Selinger 2001-2019
</metadata>
<g transform="translate(0.000000,512.000000) scale(0.020000,-0.020000)"
fill="#000000" stroke="none">
<path d="M4535 16466 c-140 -23 -140 -23 -106 -382 41 -435 -1 -390 396 -422
551 -44 625 -201 625 -1332 0 -1417 -13 -1430 -1515 -1430 -929 0 -929 0 -961
-213 -41 -273 -10 -2218 36 -2264 57 -57 1233 325 1480 481 126 80 256 146
289 146 119 0 952 590 1210 857 438 454 582 701 966 1658 227 565 277 2669 69
2878 -37 37 -2279 57 -2489 23z"/>
<path d="M10243 16465 c-159 -25 -193 -151 -193 -716 0 -377 -9 -406 -322
-1031 -975 -1949 -803 -3509 468 -4257 654 -386 2540 -406 3539 -38 934 343
2000 996 2767 1695 1146 1043 1870 1283 3110 1033 1237 -250 1946 337 2070
1713 27 297 -168 1488 -257 1578 -45 45 -2634 74 -2960 34 -260 -33 -260 -33
-290 -267 -56 -430 -422 -1055 -862 -1470 -885 -835 -975 -833 -1030 22 -45
691 -522 1273 -908 1108 -447 -192 -821 -39 -980 401 -50 139 -93 175 -241
199 -196 33 -3697 29 -3911 -4z m2991 -524 c85 -80 116 -164 116 -316 0 -344
-1764 -2025 -2125 -2025 -271 0 -302 322 -61 634 572 744 722 925 1115 1346
490 527 696 605 955 361z m1400 -1400 c224 -210 161 -351 -441 -976 -244 -253
-443 -480 -443 -504 0 -24 -58 -75 -128 -113 -71 -37 -164 -128 -207 -201 -43
-74 -137 -169 -209 -212 -72 -43 -255 -199 -406 -346 -496 -484 -679 -565
-973 -431 -78 36 -127 98 -126 163 1 95 72 200 487 729 75 96 441 486 812 867
371 380 705 741 742 801 191 311 671 431 892 223z"/>
<path d="M18600 12211 c-1251 -337 -1548 -1644 -440 -1939 742 -198 1220 -4
1676 678 588 880 -89 1570 -1236 1261z"/>
</g>
</svg>
