<?xml version="1.0" standalone="no"?>
<!DOCTYPE svg PUBLIC "-//W3C//DTD SVG 20010904//EN"
 "http://www.w3.org/TR/2001/REC-SVG-20010904/DTD/svg10.dtd">
<svg version="1.0" xmlns="http://www.w3.org/2000/svg"
 width="512.000000pt" height="512.000000pt" viewBox="0 0 512.000000 512.000000"
 preserveAspectRatio="xMidYMid meet">
<metadata>
Created by potrace 1.16, written by Peter Selinger 2001-2019
</metadata>
<g transform="translate(0.000000,512.000000) scale(0.020000,-0.020000)"
fill="#000000" stroke="none">
<path d="M17050 21169 c-647 -125 -1827 -770 -2026 -1108 -48 -81 -153 -186
-233 -234 -236 -139 -686 -860 -738 -1181 -123 -757 150 -1132 1227 -1690 223
-115 526 -313 675 -441 948 -812 2362 -794 3174 40 416 426 722 620 1264 801
881 293 1243 860 1060 1658 -269 1182 -2864 2451 -4403 2155z m1012 -1218
c1558 -584 1171 -2851 -487 -2851 -910 0 -1475 546 -1475 1425 0 1104 959
1801 1962 1426z"/>
<path d="M17248 19356 c-1029 -337 -533 -1894 527 -1656 404 91 764 664 626
997 -68 164 -172 201 -219 78 -35 -90 -238 -99 -322 -15 -84 84 -75 225 25
393 47 79 71 157 55 174 -51 51 -559 72 -692 29z"/>
<path d="M16554 11279 c-33 -39 -75 -213 -94 -387 -39 -352 13 -304 -663 -613
-329 -150 -485 -382 -531 -790 -37 -331 -83 -389 -310 -390 -636 -1 -829 -258
-243 -325 339 -38 408 -76 541 -292 70 -116 77 -173 34 -300 -79 -236 -133
-282 -332 -283 -617 -1 -830 -256 -268 -321 416 -48 539 -108 596 -294 95
-309 -59 -584 -328 -585 -636 -1 -829 -259 -243 -324 290 -33 537 -162 537
-282 0 -372 418 -853 796 -917 277 -47 387 -192 429 -563 50 -444 248 -472
302 -43 56 448 167 580 491 580 325 0 360 -37 397 -416 68 -691 432 -590 434
120 1 144 27 192 128 238 336 153 722 -5 724 -295 2 -592 266 -734 325 -176
42 393 132 488 539 575 358 77 605 298 656 587 79 456 119 495 604 586 449 85
433 236 -33 306 -765 115 -779 811 -18 895 516 58 526 248 17 305 -408 46
-541 158 -541 458 0 266 117 357 565 437 467 84 449 235 -36 305 -397 57 -493
155 -554 568 -63 431 -250 618 -750 751 -344 92 -407 165 -438 506 -48 521
-260 632 -312 163 -95 -849 -811 -964 -891 -143 -60 619 -434 542 -434 -90 0
-298 -156 -442 -457 -421 -263 19 -372 188 -420 654 -31 293 -100 361 -219
216z"/>
<path d="M3925 10421 c-192 -42 -429 -129 -526 -192 -96 -63 -223 -130 -281
-148 -160 -51 -168 -166 -168 -2425 1 -2407 -1 -2396 353 -2598 735 -420 1640
-266 2458 419 137 115 692 315 1177 424 1275 287 1586 1883 488 2503 -329 185
-785 673 -1070 1142 -451 744 -1430 1096 -2431 875z m880 -2184 c514 -340 550
-1200 66 -1581 -872 -686 -2041 368 -1416 1276 297 432 939 578 1350 305z
m1929 -596 c149 -139 152 -372 7 -525 -157 -167 -322 -150 -442 47 -227 372
130 765 435 478z"/>
</g>
</svg>
