<?xml version="1.0" standalone="no"?>
<!DOCTYPE svg PUBLIC "-//W3C//DTD SVG 20010904//EN"
 "http://www.w3.org/TR/2001/REC-SVG-20010904/DTD/svg10.dtd">
<svg aria-labelledby="icon-37-iconpack7-01-title" role="img" id="icon-37-iconpack7-01" data-icon-id="37-iconpack7-01" data-icon-label="37 Iconpack7 01" version="1.0" xmlns="http://www.w3.org/2000/svg"
 width="512.000000pt" height="512.000000pt" viewBox="0 0 512.000000 512.000000"
 preserveAspectRatio="xMidYMid meet">
<title id="icon-37-iconpack7-01-title">37 Iconpack7 01</title>
<metadata>
Created by potrace 1.16, written by Peter Selinger 2001-2019
</metadata>
<g transform="translate(0.000000,512.000000) scale(0.020000,-0.020000)"
fill="#000000" stroke="none">
<path d="M22242 20375 c-96 -96 -259 -319 -363 -496 -526 -900 -1462 -1425
-3039 -1704 -681 -120 -1601 -62 -2066 130 -435 180 -1407 49 -1916 -258 -660
-398 -1134 -435 -2323 -180 -762 163 -874 151 -1960 -203 -1436 -468 -1660
-473 -3638 -88 -901 175 -1603 135 -2319 -133 -1039 -389 -359 -687 1482 -651
481 10 1601 16 2488 14 2526 -5 4908 -4 6825 4 1131 5 2040 -16 2537 -60 982
-85 1812 -88 2575 -8 330 35 814 82 1075 105 1063 93 999 -11 999 1634 1 1337
-22 1567 -155 1532 -120 -32 -119 15 6 173 246 312 72 470 -208 189z"/>
<path d="M21823 8104 c-349 -200 -603 -499 -806 -948 -492 -1090 -608 -1246
-1101 -1488 -527 -259 -1510 -233 -2247 59 -604 239 -1495 191 -2011 -109
-1778 -1033 -3005 -1179 -4512 -537 -744 317 -864 358 -1256 423 -731 123
-1128 7 -2415 -705 -720 -398 -961 -458 -1980 -496 -911 -33 -1101 -79 -1180
-285 -96 -252 -312 -244 5824 -233 6978 12 7765 12 10319 0 1119 -6 2052 9
2075 32 83 83 51 3931 -33 3984 -50 32 -54 48 -12 48 39 1 62 75 62 201 0 266
-318 289 -727 54z m-5198 -2591 c-110 -11 -221 -41 -247 -66 -27 -26 -115 -47
-198 -47 -142 0 -144 4 -52 73 63 48 201 71 397 67 227 -5 252 -12 100 -27z
m-7293 -338 c-79 -41 -230 -75 -335 -75 -105 0 -205 -22 -222 -50 -17 -27 -66
-50 -109 -50 -64 0 -67 14 -16 75 34 41 137 75 228 75 91 0 180 23 197 50 17
28 114 50 215 50 185 -1 185 -1 42 -75z"/>
</g>
</svg>
