<?xml version="1.0" standalone="no"?>
<!DOCTYPE svg PUBLIC "-//W3C//DTD SVG 20010904//EN"
 "http://www.w3.org/TR/2001/REC-SVG-20010904/DTD/svg10.dtd">
<svg version="1.0" xmlns="http://www.w3.org/2000/svg"
 width="512.000000pt" height="512.000000pt" viewBox="0 0 512.000000 512.000000"
 preserveAspectRatio="xMidYMid meet">
<metadata>
Created by potrace 1.16, written by Peter Selinger 2001-2019
</metadata>
<g transform="translate(0.000000,512.000000) scale(0.020000,-0.020000)"
fill="#000000" stroke="none">
<path d="M15473 21356 c-535 -243 -694 -1022 -349 -1705 294 -580 175 -1072
-444 -1836 -392 -484 -263 -1319 262 -1688 440 -309 1086 -223 1883 249 344
204 938 235 1250 66 83 -44 296 -160 475 -257 1559 -845 2669 673 1473 2013
-396 443 -433 831 -140 1456 643 1374 -321 2239 -1621 1453 -499 -301 -970
-304 -1459 -9 -597 360 -953 429 -1330 258z m2282 -1863 c413 -139 711 -724
539 -1059 -269 -524 -831 -689 -1263 -371 -736 541 -139 1720 724 1430z"/>
<path d="M5235 19921 c-353 -353 -235 -2545 145 -2691 175 -67 417 -27 555 91
234 201 243 2372 11 2622 -151 162 -539 151 -711 -22z"/>
<path d="M6707 19057 c-197 -197 -170 -793 41 -906 426 -228 752 72 711 652
-22 315 -523 483 -752 254z"/>
<path d="M19245 11391 c-440 -364 -245 -1091 293 -1091 509 0 784 688 411
1026 -129 116 -591 160 -704 65z"/>
<path d="M18206 9821 c-56 -71 -115 -167 -131 -213 -28 -82 -358 -340 -550
-429 -55 -26 -505 -62 -1000 -80 -861 -32 -914 -40 -1225 -183 -974 -451
-1339 -1741 -753 -2664 214 -336 381 -733 474 -1127 193 -818 812 -1235 1554
-1047 506 129 767 493 899 1252 94 540 191 660 689 850 762 291 1185 1099 914
1747 -121 290 -190 270 -614 -169 -431 -447 -560 -506 -908 -413 -327 87 -355
125 -355 477 0 372 90 481 470 574 619 150 983 577 988 1157 3 397 -238 540
-452 268z"/>
</g>
</svg>
