<?xml version="1.0" standalone="no"?>
<!DOCTYPE svg PUBLIC "-//W3C//DTD SVG 20010904//EN"
 "http://www.w3.org/TR/2001/REC-SVG-20010904/DTD/svg10.dtd">
<svg aria-labelledby="icon-55-iconpack10-01-title" role="img" id="icon-55-iconpack10-01" data-icon-id="55-iconpack10-01" data-icon-label="55 Iconpack10 01" version="1.0" xmlns="http://www.w3.org/2000/svg"
 width="512.000000pt" height="512.000000pt" viewBox="0 0 512.000000 512.000000"
 preserveAspectRatio="xMidYMid meet">
<title id="icon-55-iconpack10-01-title">55 Iconpack10 01</title>
<metadata>
Created by potrace 1.16, written by Peter Selinger 2001-2019
</metadata>
<g transform="translate(0.000000,512.000000) scale(0.020000,-0.020000)"
fill="#000000" stroke="none">
<path d="M6296 20856 c-219 -46 -413 -180 -679 -468 -1319 -1431 -386 -3701
1396 -3396 726 124 904 78 1312 -341 1106 -1136 2538 -189 2230 1474 -148 803
-746 1275 -1614 1275 -554 0 -754 143 -1181 843 -310 508 -863 740 -1464 613z"/>
<path d="M11346 19604 c-344 -344 -86 -1004 392 -1004 467 0 778 529 530 901
-205 308 -665 359 -922 103z"/>
<path d="M20908 10922 c-1153 -210 -2343 -905 -2479 -1448 -79 -314 300 -381
608 -107 855 759 1546 1008 2694 970 900 -29 880 -38 826 371 -31 238 -901
351 -1649 214z"/>
<path d="M7675 10549 c-684 -137 -724 -172 -1318 -1129 -212 -342 -235 -360
-982 -745 -881 -455 -962 -508 -1130 -740 -524 -724 339 -1284 1981 -1285 502
0 502 0 825 -327 607 -613 877 -748 1497 -748 825 1 1249 339 1453 1160 121
489 394 622 702 343 601 -543 1564 -83 1430 682 -26 151 -10 179 198 332 1094
806 263 1608 -1666 1608 -611 0 -926 119 -1112 421 -217 351 -1175 569 -1878
428z m4229 -1229 c650 -182 788 -473 398 -838 -280 -262 -344 -276 -589 -125
-519 321 -1159 -2 -1245 -628 -30 -216 -41 -229 -187 -231 -86 -1 -291 -35
-456 -76 -1315 -324 -1902 -392 -3400 -395 -1534 -2 -2025 118 -2025 496 0
238 764 836 1223 959 370 98 372 97 366 -169 -6 -294 126 -746 267 -913 124
-147 610 -167 1419 -57 247 33 641 80 875 103 1113 112 1493 253 1605 598 33
99 112 245 177 322 138 166 159 531 43 734 -135 236 -115 246 538 263 336 8
633 20 659 26 25 6 175 -25 332 -69z"/>
<path d="M21025 9568 c-653 -180 -957 -284 -1074 -367 -191 -136 -651 -645
-651 -720 0 -223 341 -237 650 -28 776 526 1371 672 2067 505 252 -60 476
-109 498 -109 22 1 33 119 25 264 -14 248 -25 267 -205 355 -193 94 -1084 162
-1310 100z"/>
<path d="M19856 6568 c-284 -198 -331 -661 -107 -1051 167 -292 272 -376 801
-645 543 -276 1543 -273 1921 6 167 123 178 1722 13 1722 -32 0 -202 -68 -376
-150 -445 -211 -736 -205 -1215 25 -419 201 -831 238 -1037 93z"/>
</g>
</svg>
