<?xml version="1.0" standalone="no"?>
<!DOCTYPE svg PUBLIC "-//W3C//DTD SVG 20010904//EN"
 "http://www.w3.org/TR/2001/REC-SVG-20010904/DTD/svg10.dtd">
<svg version="1.0" xmlns="http://www.w3.org/2000/svg"
 width="512.000000pt" height="512.000000pt" viewBox="0 0 512.000000 512.000000"
 preserveAspectRatio="xMidYMid meet">
<metadata>
Created by potrace 1.16, written by Peter Selinger 2001-2019
</metadata>
<g transform="translate(0.000000,512.000000) scale(0.020000,-0.020000)"
fill="#000000" stroke="none">
<path d="M4363 16167 c-62 -13 -113 -54 -113 -90 0 -117 635 -1294 934 -1729
84 -123 168 -274 188 -336 19 -62 91 -179 160 -261 89 -106 120 -195 109 -312
-27 -280 -158 -311 -1449 -339 -624 -14 -1153 -44 -1175 -67 -51 -50 -87
-2022 -44 -2315 40 -261 260 -314 777 -187 617 151 1926 151 2387 1 2272 -744
4268 -102 4985 1602 166 393 378 1494 378 1961 0 260 31 457 99 629 552 1394
553 1406 189 1451 -355 43 -3920 10 -3967 -38 -66 -66 -40 -454 49 -721 189
-568 634 -1126 1215 -1521 527 -358 665 -583 665 -1079 -1 -987 -1055 -1449
-1878 -822 -330 251 -392 443 -342 1056 123 1515 -74 2000 -1225 3019 -118
104 -1569 178 -1942 98z"/>
<path d="M14243 16165 c-320 -49 -578 -732 -675 -1790 -48 -517 216 -1628 455
-1914 62 -75 153 -213 201 -308 420 -819 1966 -1649 3369 -1810 238 -27 601
-71 807 -98 682 -90 1496 -110 1968 -49 251 33 637 81 857 108 697 84 1190
190 1271 271 124 124 117 2247 -8 2438 -131 198 -132 2024 -2 2222 91 139 126
820 46 900 -51 51 -2060 53 -2111 3 -60 -60 -86 -795 -36 -988 31 -116 105
-213 218 -286 1003 -651 1034 -1892 64 -2556 -234 -160 -1150 -160 -1384 0
-927 635 -953 1892 -50 2420 173 101 343 218 378 261 73 87 92 1075 22 1144
-51 52 -2208 88 -2565 43 -424 -53 -457 -617 -42 -721 500 -126 524 -187 523
-1322 0 -1293 60 -1233 -1238 -1233 -1229 0 -1211 -18 -1211 1217 0 1162 55
1271 682 1356 240 33 258 45 281 193 52 331 -5 469 -205 503 -197 32 -1397 29
-1615 -4z"/>
</g>
</svg>
