<?xml version="1.0" standalone="no"?>
<!DOCTYPE svg PUBLIC "-//W3C//DTD SVG 20010904//EN"
 "http://www.w3.org/TR/2001/REC-SVG-20010904/DTD/svg10.dtd">
<svg version="1.0" xmlns="http://www.w3.org/2000/svg"
 width="512.000000pt" height="512.000000pt" viewBox="0 0 512.000000 512.000000"
 preserveAspectRatio="xMidYMid meet">
<metadata>
Created by potrace 1.16, written by Peter Selinger 2001-2019
</metadata>
<g transform="translate(0.000000,512.000000) scale(0.020000,-0.020000)"
fill="#000000" stroke="none">
<path d="M10069 21455 c-463 -283 -133 -927 403 -787 399 105 391 847 -9 765
-76 -16 -110 -17 -75 -2 34 15 62 48 62 73 0 78 -217 50 -381 -49z"/>
<path d="M6250 20259 c-628 -172 -1000 -871 -1000 -1881 0 -982 -486 -1391
-1466 -1233 -528 86 -784 11 -784 -229 0 -100 19 -117 100 -91 130 41 126 4
-12 -126 -113 -105 -186 -2568 -79 -2675 19 -18 244 -54 500 -79 1889 -185
1545 -177 4541 -110 1633 36 1845 50 2013 134 392 194 479 504 262 931 -320
632 -26 1350 554 1350 274 0 274 0 389 -359 14 -47 2 -301 -28 -565 -62 -547
-14 -726 194 -726 293 0 340 334 136 959 -73 227 -72 245 62 575 551 1363
-369 1928 -1407 865 -449 -461 -865 -544 -1165 -234 -324 334 -116 937 578
1671 298 315 360 582 209 895 -343 709 -1255 384 -1374 -489 -54 -396 -75
-446 -287 -678 -441 -480 -994 -519 -1273 -88 -176 270 -149 471 117 871 539
811 98 1553 -780 1312z m-795 -3966 c971 -324 435 -1293 -714 -1293 -1242 0
-1730 967 -631 1250 118 30 238 64 265 74 120 44 925 21 1080 -31z"/>
<path d="M20117 15321 c-373 -97 -698 -265 -1072 -556 -566 -439 -645 -465
-1406 -465 -773 -1 -994 -47 -1092 -230 -226 -423 522 -496 3253 -317 1121 73
1395 77 1831 26 684 -81 905 -15 945 278 85 620 18 755 -466 932 -239 87 -539
181 -666 209 -127 27 -291 72 -364 100 -220 84 -689 95 -963 23z"/>
<path d="M10000 10760 c-265 -25 -656 -432 -924 -960 -469 -928 -1041 -1322
-2029 -1399 -796 -61 -1259 -297 -1551 -790 -610 -1030 -816 -1211 -1377
-1211 -348 0 -396 13 -573 153 -349 277 -734 235 -451 -48 92 -92 92 -97 4
-120 -137 -36 -158 -301 -140 -1793 18 -1512 -11 -1413 403 -1393 349 18 449
17 2738 -26 1971 -38 2116 -25 2204 187 61 147 56 162 -120 323 -517 473 179
1047 979 807 305 -91 399 -277 358 -708 -44 -462 20 -582 306 -582 355 0 403
275 178 1024 -189 628 -129 1487 132 1885 268 406 774 570 1004 325 121 -129
157 -944 60 -1359 -98 -419 113 -744 404 -623 174 72 210 583 66 943 -100 251
-73 887 51 1205 374 954 -240 1602 -953 1005 -85 -71 -229 -186 -320 -255 -90
-69 -248 -198 -350 -287 -172 -151 -212 -163 -540 -163 -633 0 -816 508 -533
1482 199 688 348 879 874 1128 700 330 746 374 747 715 0 443 -164 579 -647
535z m-3098 -4923 c614 -413 317 -948 -772 -1392 -1053 -429 -1905 91 -1399
854 371 562 1662 882 2171 538z"/>
<path d="M6800 10203 c0 -26 62 -56 138 -68 75 -12 33 -13 -94 -3 -383 32
-534 -449 -225 -715 472 -406 1168 299 715 724 -119 112 -534 160 -534 62z"/>
<path d="M3852 8010 c-117 -258 67 -510 375 -510 287 0 346 90 329 503 -9 193
-616 198 -704 7z"/>
</g>
</svg>
