<?xml version="1.0" standalone="no"?>
<!DOCTYPE svg PUBLIC "-//W3C//DTD SVG 20010904//EN"
 "http://www.w3.org/TR/2001/REC-SVG-20010904/DTD/svg10.dtd">
<svg aria-labelledby="icon-51-iconpack9-03-title" role="img" id="icon-51-iconpack9-03" data-icon-id="51-iconpack9-03" data-icon-label="51 Iconpack9 03" version="1.0" xmlns="http://www.w3.org/2000/svg"
 width="512.000000pt" height="512.000000pt" viewBox="0 0 512.000000 512.000000"
 preserveAspectRatio="xMidYMid meet">
<title id="icon-51-iconpack9-03-title">51 Iconpack9 03</title>
<metadata>
Created by potrace 1.16, written by Peter Selinger 2001-2019
</metadata>
<g transform="translate(0.000000,512.000000) scale(0.020000,-0.020000)"
fill="#000000" stroke="none">
<path d="M9757 19352 c-175 -50 -378 -138 -450 -196 -420 -336 -769 -419
-1163 -277 -365 131 -1057 149 -1546 41 -522 -116 -1001 -119 -1523 -11 -831
173 -1943 240 -2058 124 -46 -45 -75 -503 -46 -701 34 -226 35 -227 269 -255
496 -59 1671 -341 2610 -626 2171 -659 3241 -581 4175 304 287 272 729 462
1125 484 337 18 333 19 1427 -382 755 -276 1307 -254 1760 70 722 517 1314
543 1826 80 200 -180 200 -180 169 -584 -34 -436 0 -523 200 -523 143 0 186
135 172 536 -18 512 322 637 1050 386 610 -211 1146 -94 1231 269 89 377 642
545 1265 384 856 -222 1656 -150 1331 120 -38 31 -268 77 -512 100 -244 24
-511 70 -594 103 -213 85 -997 69 -1281 -25 -626 -208 -2088 -23 -2594 328
-645 447 -1793 454 -3293 20 -550 -159 -1209 -167 -1637 -19 -959 331 -1419
391 -1913 250z m6088 -325 c200 -68 437 -169 527 -225 91 -56 275 -123 409
-148 319 -61 519 -139 519 -203 0 -81 -929 -65 -1092 20 -363 188 -845 231
-1396 124 -898 -173 -1411 -74 -1124 217 313 315 1510 435 2157 215z m-6522
-1135 c171 -78 160 -173 -35 -293 -278 -169 -688 -94 -688 126 0 196 437 297
723 167z"/>
<path d="M3140 14164 c-176 -26 -206 -217 -183 -1139 25 -960 53 -975 1744
-975 1270 0 1446 -57 1454 -472 10 -507 146 -688 364 -484 121 114 122 120 48
367 -128 430 80 759 645 1019 401 186 1678 218 2088 53 653 -263 1764 -250
2475 29 756 297 1553 359 2475 193 1335 -240 1877 -210 2127 119 253 331 1153
391 1723 116 479 -231 1104 -285 1513 -130 230 88 164 174 -162 211 -372 42
-595 115 -731 238 -357 322 -1590 462 -2420 275 -260 -58 -602 -84 -1116 -84
-693 0 -1364 -80 -2109 -252 -470 -108 -1807 -59 -2074 76 -856 434 -1617 428
-2921 -22 -244 -84 -421 -102 -1007 -102 -791 0 -688 -29 -1848 524 -546 261
-1694 540 -1926 469 -13 -5 -85 -17 -159 -29z m1762 -690 c450 -159 648 -326
647 -549 -1 -482 -1153 -544 -1833 -99 -194 127 -167 495 47 625 203 124 819
136 1139 23z"/>
<path d="M5675 8317 c-225 -40 -477 -121 -575 -185 -272 -176 -801 -253 -1493
-215 -596 32 -596 32 -627 -134 -73 -390 4 -493 495 -657 1618 -541 2260 -612
2919 -322 278 122 414 121 780 -8 422 -148 730 -4 378 178 -165 85 -729 104
-777 26 -91 -147 -575 121 -575 319 0 257 819 321 1567 123 610 -163 1156
-153 1633 29 428 162 1067 226 1301 128 354 -146 591 -692 461 -1060 -99 -277
-55 -405 147 -429 206 -25 269 103 204 415 -200 955 1042 1244 2791 650 881
-299 1846 -404 1846 -200 0 58 -66 75 -287 76 -311 1 -528 81 -552 204 -46
239 1039 279 1643 61 451 -163 1342 -194 1543 -54 107 75 103 79 -143 112
-148 21 -254 61 -254 97 0 79 472 227 754 236 136 4 173 15 96 29 -69 12 -146
43 -172 68 -73 70 -712 53 -1103 -30 -529 -112 -767 -96 -1134 76 -602 282
-1292 317 -1579 79 -485 -401 -1818 -289 -2342 196 -74 69 -193 127 -265 129
-1011 32 -2570 -55 -2756 -154 -498 -267 -1354 -257 -1894 22 -431 223 -1372
314 -2030 195z m6475 -432 c0 -97 -107 -185 -225 -185 -118 0 -225 88 -225
185 0 44 74 65 225 65 151 0 225 -21 225 -65z"/>
<path d="M19500 7614 c69 -12 146 -43 173 -68 26 -25 300 -46 609 -46 321 0
575 -21 593 -50 50 -80 275 -60 275 25 0 63 -108 75 -672 75 -394 0 -685 21
-703 50 -17 28 -114 47 -215 43 -137 -5 -153 -12 -60 -29z"/>
</g>
</svg>
