<?xml version="1.0" standalone="no"?>
<!DOCTYPE svg PUBLIC "-//W3C//DTD SVG 20010904//EN"
 "http://www.w3.org/TR/2001/REC-SVG-20010904/DTD/svg10.dtd">
<svg aria-labelledby="icon-49-iconpack9-01-title" role="img" id="icon-49-iconpack9-01" data-icon-id="49-iconpack9-01" data-icon-label="49 Iconpack9 01" version="1.0" xmlns="http://www.w3.org/2000/svg"
 width="512.000000pt" height="512.000000pt" viewBox="0 0 512.000000 512.000000"
 preserveAspectRatio="xMidYMid meet">
<title id="icon-49-iconpack9-01-title">49 Iconpack9 01</title>
<metadata>
Created by potrace 1.16, written by Peter Selinger 2001-2019
</metadata>
<g transform="translate(0.000000,512.000000) scale(0.020000,-0.020000)"
fill="#000000" stroke="none">
<path d="M21675 19303 c-192 -50 -564 -149 -825 -221 -1111 -305 -2077 -362
-3075 -181 -522 94 -768 133 -1572 249 -895 129 -2434 -3 -2679 -230 -179
-166 -456 -235 -802 -200 -1310 132 -2435 88 -3296 -128 -580 -145 -1408 -118
-1726 57 -373 205 -1221 185 -1604 -37 -186 -108 -352 -165 -500 -170 -192 -7
-199 -11 -53 -29 92 -11 273 -85 402 -164 276 -170 732 -299 1058 -299 305 0
422 -123 422 -443 0 -364 187 -339 232 31 55 454 270 529 788 275 569 -279
1904 -70 1586 249 -271 270 1288 423 1796 176 190 -92 226 -131 209 -224 -31
-161 34 -196 533 -289 355 -67 503 -73 749 -30 497 86 2657 73 2950 -18 574
-178 1362 -119 2296 174 738 232 1689 85 2070 -318 174 -185 476 -283 871
-283 432 0 620 -194 620 -640 0 -399 95 -502 294 -316 117 110 120 127 59 329
-54 181 -52 233 14 357 88 163 147 1650 85 2146 -40 318 -217 353 -902 177z
m-4148 -754 c1120 -227 1125 -338 23 -495 -1476 -209 -2838 100 -2187 497 235
143 1453 142 2164 -2z"/>
<path d="M13825 13719 c-193 -41 -397 -106 -454 -143 -818 -528 -1630 -650
-2193 -328 -642 367 -1623 380 -2140 28 -232 -159 126 -194 489 -48 384 153
518 162 777 53 438 -184 383 -337 -162 -453 -229 -48 -466 -119 -527 -157
-538 -341 -1084 -310 -1920 107 -640 320 -1308 441 -1836 332 -159 -33 -345
-60 -412 -60 -67 0 -196 -45 -286 -100 -90 -55 -205 -100 -256 -100 -51 0
-121 -34 -155 -75 -73 -88 86 -109 238 -30 415 213 1812 142 1812 -92 0 -144
-72 -203 -250 -203 -104 0 -287 -45 -407 -99 -141 -64 -328 -99 -530 -100
-244 -1 -313 -17 -313 -76 0 -154 665 -100 1005 82 375 199 732 177 1241 -80
683 -344 1537 -327 2104 41 515 334 916 386 1956 253 150 -20 344 1 550 57
662 180 1014 136 984 -123 -28 -239 -1045 -600 -1161 -411 -20 33 -153 52
-319 47 -256 -8 -263 -10 -69 -28 119 -10 295 -63 389 -116 364 -204 970 -142
1605 164 745 359 1165 387 1842 123 432 -168 585 -201 891 -189 99 3 135 26
116 74 -34 90 169 181 406 181 390 -1 636 -311 554 -700 -55 -265 -3 -450 127
-450 180 0 221 86 192 406 -52 570 485 869 1612 898 259 7 951 -110 1150 -195
395 -166 1043 -269 1463 -230 386 35 455 95 212 186 -255 97 -157 216 257 312
151 35 213 262 160 586 -44 272 -223 272 -1142 3 -600 -176 -600 -176 -1300
-140 -385 21 -869 32 -1075 26 -982 -30 -961 -31 -1019 60 -103 163 138 324
540 359 352 31 479 87 479 210 0 252 -1407 17 -1974 -330 -869 -531 -2498
-646 -2899 -203 -223 246 194 445 739 351 526 -91 504 43 -40 246 -374 140
-657 160 -1051 74z"/>
<path d="M19575 8821 c-178 -46 -696 -95 -1275 -120 -536 -23 -1065 -66 -1175
-95 -110 -29 -335 -54 -500 -55 -362 -1 -1219 -165 -1700 -324 -686 -228
-1818 -427 -2428 -427 -421 0 -664 25 -2018 211 -609 83 -863 95 -1375 64
-650 -40 -1151 -43 -2116 -16 -563 16 -563 16 -884 -184 -321 -200 -321 -200
-956 -208 -667 -9 -1148 -134 -1148 -298 0 -108 549 -87 1009 39 396 109 396
109 1100 -55 788 -183 837 -181 1755 82 498 142 1036 140 1534 -5 181 -53 470
-80 854 -80 542 0 588 -8 689 -116 147 -156 138 -195 -66 -306 -435 -234 -77
-372 720 -278 319 37 1233 84 2030 105 2022 51 3045 179 3945 492 163 57 381
103 485 103 105 0 305 25 446 55 575 123 1195 -138 1465 -617 322 -572 1007
-816 2052 -731 576 47 557 7 557 1162 0 1058 -10 1098 -291 1159 -87 19 -220
78 -295 131 -464 328 -1721 490 -2414 312z m-2352 -629 c221 -101 178 -352
-92 -538 -658 -453 -2431 -506 -2431 -73 0 120 438 366 879 494 242 70 451
138 464 151 50 50 1058 21 1180 -34z"/>
</g>
</svg>
