<svg id="icon-ofy-short-logo" data-icon-id="ofy-short-logo" data-icon-label="OFY Short Logo" xmlns="http://www.w3.org/2000/svg" viewBox="0 0 700 280" role="img" aria-labelledby="title">
  <title id="title">OddFromYou short two-O logo</title>
  <path d="M197.28 0.129317C257.639 -2.37486 357.111 31.3609 329.151 112.634C296.323 208.043 124.134 246.196 44.0571 201.171C-22.5053 163.741 -6.58047 96.6609 44.9872 54.198C88.1356 18.6569 142.372 2.40055 197.28 0.129317ZM80.5492 94.5894C87.3106 101.644 104.125 108 112.65 114.648C118.319 119.065 118.732 121.669 117.284 128.566C114.477 141.894 103.446 161.861 109.722 175.131C111.881 179.698 115.003 179.74 119.484 179.507C143.432 178.267 154.852 150.372 172.329 137.26C183.442 145.064 191.861 156.645 202.95 164.623C215.34 173.542 223.242 175.838 224.585 156.72C225.587 142.369 218.244 131.462 220.007 117.684C222.174 100.696 250.967 87.2099 262.249 75.729C275.295 62.4593 253.11 63.2414 244.351 63.7072C231.217 64.3978 218.414 69.689 206.274 70.8205C198.752 71.5193 197.887 70.313 194.474 63.9901C191.473 58.441 179.511 30.8367 175.702 29.0231C172.402 27.459 169.264 29.8134 166.805 31.8268C161.427 36.2361 155.143 49.3727 151.52 56.0117C149.352 59.9884 145.68 70.0384 142.615 72.3928C138.862 75.2797 123.495 74.3563 117.907 74.9137C103.882 76.303 88.3135 79.4645 75.6318 85.7291C75.3811 86.8772 79.4493 93.433 80.5411 94.5727L80.5492 94.5894Z" fill="#000000" transform="translate(12 28)"/>
  <path d="M151.889 0.27362C205.937 -2.68069 286.752 17.8973 296.15 81.0904C307.19 155.284 208.178 200.299 147.472 203.712C93.665 206.74 9.76065 186.278 0.816018 122.794C-10.0125 46.018 89.4081 3.68749 151.889 0.27362ZM86.3924 175.512C88.0134 177.379 93.2561 177.999 95.6657 177.853C104.895 177.313 123.639 162.615 131.028 156.48C133.744 154.226 139.483 147.646 141.835 146.289C144.938 144.488 146.858 146.173 149.239 148.069C158.891 155.765 168.946 169.508 178.701 176.022C182.571 178.604 184.462 178.524 188.091 175.694C201.329 165.365 189.756 143.204 184.842 131.401C174.875 107.482 188.61 104.542 204.206 91.7186C209.208 87.6117 224.403 75.2693 213.37 70.7029C200.818 71.7168 187.266 75.0505 174.831 75.6705C164.726 76.1738 158.658 74.2991 154.007 64.9256C148.596 54.0129 147.953 39.2851 142.397 28.2338C141.689 26.8332 139.556 25.3087 138.038 26.2715C136.344 27.3438 126.837 42.9251 125.296 45.7773C118.71 57.9738 114.132 71.6366 107.254 83.7456C103.793 86.9042 84.1581 88.0421 78.3313 89.1436C71.088 90.5223 57.0175 94.6656 51.5266 99.4582C49.7085 101.041 48.584 101.946 49.0513 104.652C49.7742 108.846 67.6416 117.439 72.0226 118.833C81.1571 121.743 95.5561 119.671 94.5047 132.597C93.4751 145.21 87.5242 160.105 85.7937 172.907C85.5747 173.878 85.728 174.746 86.3924 175.512Z" fill="#000000" transform="translate(362 36)"/>
</svg>
