<?xml version="1.0" standalone="no"?>
<!DOCTYPE svg PUBLIC "-//W3C//DTD SVG 20010904//EN"
 "http://www.w3.org/TR/2001/REC-SVG-20010904/DTD/svg10.dtd">
<svg version="1.0" xmlns="http://www.w3.org/2000/svg"
 width="512.000000pt" height="512.000000pt" viewBox="0 0 512.000000 512.000000"
 preserveAspectRatio="xMidYMid meet">
<metadata>
Created by potrace 1.16, written by Peter Selinger 2001-2019
</metadata>
<g transform="translate(0.000000,512.000000) scale(0.020000,-0.020000)"
fill="#000000" stroke="none">
<path d="M12451 20972 c-178 -39 -426 -127 -550 -196 -124 -69 -372 -194 -551
-278 -179 -84 -404 -198 -500 -252 -96 -55 -293 -155 -437 -222 -145 -68 -263
-142 -263 -165 0 -23 -118 -94 -262 -158 -1085 -479 -1227 -577 -1460 -1005
-357 -655 -44 -1334 812 -1766 184 -93 526 -286 760 -430 2144 -1318 2973
-1439 4350 -632 69 40 361 182 649 315 287 133 616 313 730 399 114 86 261
173 327 193 65 20 198 84 294 143 96 59 253 144 350 190 1093 517 903 1796
-363 2446 -282 144 -534 291 -562 326 -62 80 -600 393 -1235 719 -833 428
-1382 526 -2089 373z"/>
<path d="M6975 16738 c-82 -35 -274 -123 -425 -197 -151 -73 -447 -212 -656
-307 -1261 -573 -1472 -1855 -400 -2427 170 -90 365 -217 434 -281 69 -64 187
-131 261 -149 75 -18 260 -107 411 -198 151 -92 329 -183 394 -203 66 -21 217
-111 336 -202 119 -91 345 -214 503 -273 308 -115 815 -409 1002 -582 387
-356 1696 -354 2082 3 64 59 219 147 344 195 1734 662 1693 2122 -81 2845
-190 77 -371 174 -401 216 -52 71 -793 471 -2329 1257 -684 351 -1139 444
-1475 303z"/>
<path d="M17352 16521 c-151 -41 -376 -138 -500 -216 -125 -78 -621 -337
-1102 -576 -481 -239 -912 -478 -956 -530 -45 -52 -203 -149 -350 -216 -989
-444 -1107 -806 -1084 -3318 15 -1740 15 -1740 141 -1965 270 -482 676 -464
1699 77 399 211 809 427 913 480 103 52 187 116 187 141 0 24 127 92 283 151
156 58 341 147 412 197 72 50 186 108 255 128 650 195 1328 726 1452 1139 86
286 128 3336 51 3694 -141 657 -728 998 -1401 814z"/>
<path d="M20484 15650 c-405 -124 -593 -640 -384 -1050 213 -418 883 -463
1176 -78 435 570 -105 1340 -792 1128z"/>
<path d="M20462 13245 c-235 -69 -462 -399 -462 -670 0 -688 897 -974 1302
-415 420 581 -132 1294 -840 1085z"/>
<path d="M4436 13188 c-243 -184 -260 -336 -276 -2461 -19 -2528 39 -2876 537
-3206 102 -68 235 -189 295 -270 70 -95 362 -279 821 -518 1567 -813 1891
-992 2017 -1108 289 -268 863 -392 1186 -257 169 71 434 345 434 449 0 33 51
149 113 259 110 196 112 226 112 1974 0 1775 0 1775 -209 2200 -282 572 -784
1018 -1354 1203 -103 34 -243 100 -312 147 -69 48 -226 138 -350 200 -124 62
-239 136 -257 163 -36 57 -334 224 -743 417 -445 210 -798 393 -1238 639 -421
235 -628 280 -776 169z"/>
<path d="M11925 11547 c-82 -19 -319 -129 -525 -244 -904 -504 -950 -662 -950
-3238 1 -2662 50 -2793 1240 -3342 683 -316 1731 -219 2347 217 76 54 318 193
538 308 220 116 481 274 579 352 99 78 774 437 1500 798 2002 997 2188 1256
2132 2977 -28 852 -86 1072 -284 1081 -251 11 -378 -15 -434 -86 -31 -40 -188
-125 -350 -189 -161 -64 -597 -264 -968 -444 -371 -180 -799 -386 -950 -457
-406 -191 -706 -360 -743 -417 -198 -308 -1429 -556 -1806 -363 -553 282 -621
459 -651 1709 -31 1280 -123 1463 -675 1338z"/>
<path d="M20392 10849 c-265 -140 -392 -324 -392 -568 0 -756 915 -1041 1338
-416 408 603 -291 1330 -946 984z"/>
</g>
</svg>
