<?xml version="1.0" standalone="no"?>
<!DOCTYPE svg PUBLIC "-//W3C//DTD SVG 20010904//EN"
 "http://www.w3.org/TR/2001/REC-SVG-20010904/DTD/svg10.dtd">
<svg version="1.0" xmlns="http://www.w3.org/2000/svg"
 width="512.000000pt" height="512.000000pt" viewBox="0 0 512.000000 512.000000"
 preserveAspectRatio="xMidYMid meet">
<metadata>
Created by potrace 1.16, written by Peter Selinger 2001-2019
</metadata>
<g transform="translate(0.000000,512.000000) scale(0.020000,-0.020000)"
fill="#000000" stroke="none">
<path d="M12744 21467 c-54 -64 -72 -384 -85 -1461 -16 -1474 -17 -1478 -285
-1528 -95 -18 -273 -119 -396 -225 -122 -106 -342 -232 -488 -280 -881 -287
-1588 -946 -1998 -1864 -82 -184 -166 -366 -186 -405 -20 -39 -124 -101 -231
-138 -476 -165 -491 -543 -26 -691 62 -19 101 -100 124 -255 38 -255 140 -269
527 -73 395 200 490 244 819 383 189 80 747 342 1240 583 1135 554 1099 553
2030 100 916 -446 929 -452 1344 -612 196 -75 423 -184 503 -241 134 -96 771
-360 867 -360 22 0 56 101 74 223 23 153 63 233 124 252 456 145 432 611 -36
705 -138 27 -179 81 -367 488 -486 1048 -1095 1608 -2102 1935 -311 101 -388
148 -448 272 -59 122 -118 159 -310 196 -238 46 -238 46 -238 406 0 253 21
379 72 421 101 83 823 44 1217 -66 358 -101 763 -52 972 117 117 94 181 1176
76 1281 -21 21 -302 53 -625 71 -323 19 -651 60 -730 92 -179 73 -551 94 -788
44 -180 -39 -180 -39 -213 239 -51 437 -251 616 -437 391z"/>
<path d="M12300 15156 c-261 -105 -812 -360 -1225 -567 -412 -207 -829 -393
-925 -414 -96 -21 -417 -159 -712 -306 -536 -269 -536 -269 -1350 -269 -1117
-1 -1288 -60 -1288 -449 0 -142 193 -401 299 -401 110 0 151 -473 151 -1746 0
-1446 -10 -1513 -252 -1729 -154 -138 -248 -380 -248 -642 0 -250 -37 -290
-341 -377 -261 -75 -359 -259 -359 -671 0 -220 -22 -288 -124 -385 -418 -392
-655 -1060 -462 -1301 289 -362 536 -376 1308 -74 1126 440 1517 283 1450
-582 -34 -436 -34 -439 110 -582 468 -469 1543 -51 1643 640 77 527 964 643
1751 228 285 -151 511 -232 709 -256 466 -57 815 -311 815 -595 2 -1023 1311
-1066 1424 -47 18 162 37 327 42 367 40 299 895 652 1580 652 617 0 725 -46
1013 -438 462 -630 1009 -572 1075 113 16 165 52 328 79 363 68 86 630 77 787
-13 265 -152 817 -12 938 238 171 354 106 668 -223 1093 -227 293 -252 350
-276 648 -32 406 -109 533 -364 606 -261 75 -325 128 -325 269 0 331 -112 628
-305 806 -195 181 -195 181 -195 1676 0 1612 -1 1603 280 1850 127 112 170
189 168 307 -3 366 -196 429 -1307 431 -784 1 -784 1 -1400 294 -1948 927
-3170 1458 -3349 1455 -65 -1 -331 -87 -592 -192z m-2297 -2663 c62 -149 57
-165 -81 -284 -147 -126 -147 -126 -162 -1630 -18 -1764 -2 -1864 315 -1971
310 -104 812 -44 973 117 186 186 203 3299 18 3470 -142 133 -189 292 -114
382 79 96 1344 107 1438 13 102 -102 67 -277 -77 -391 -188 -148 -223 -3382
-38 -3518 271 -200 1017 -154 1232 77 184 196 205 411 185 1892 -18 1301 -31
1373 -275 1565 -126 100 -154 278 -57 375 41 41 286 60 775 60 715 0 715 0
715 -167 0 -104 -38 -202 -100 -258 -171 -154 -199 -409 -199 -1750 2 -1854
19 -1900 725 -1899 722 1 699 -62 699 1896 0 1619 0 1619 -137 1727 -145 114
-180 289 -78 391 41 41 286 60 775 60 715 0 715 0 715 -171 0 -128 -35 -199
-137 -280 -138 -108 -138 -108 -153 -1601 -20 -1936 -12 -1967 541 -2032 262
-31 357 -238 189 -406 -87 -87 -9543 -87 -9630 0 -172 172 -73 375 200 407
523 62 515 33 515 1905 0 1619 0 1619 -137 1727 -145 114 -180 289 -78 391 41
41 273 60 719 60 659 0 659 0 724 -157z m8400 -5122 c48 -58 52 -102 14 -163
-61 -96 -11038 -157 -11133 -62 -26 26 -32 105 -14 175 40 163 10999 212
11133 50z"/>
</g>
</svg>
