<?xml version="1.0" standalone="no"?>
<!DOCTYPE svg PUBLIC "-//W3C//DTD SVG 20010904//EN"
 "http://www.w3.org/TR/2001/REC-SVG-20010904/DTD/svg10.dtd">
<svg version="1.0" xmlns="http://www.w3.org/2000/svg"
 width="512.000000pt" height="512.000000pt" viewBox="0 0 512.000000 512.000000"
 preserveAspectRatio="xMidYMid meet">
<metadata>
Created by potrace 1.16, written by Peter Selinger 2001-2019
</metadata>
<g transform="translate(0.000000,512.000000) scale(0.020000,-0.020000)"
fill="#000000" stroke="none">
<path d="M19208 20649 c-972 -327 -1798 -620 -1837 -653 -156 -129 -87 -369
142 -494 184 -101 774 -446 833 -487 109 -76 -521 -866 -1524 -1910 -359 -374
-716 -766 -792 -871 -77 -104 -197 -212 -267 -238 -70 -27 -174 -91 -232 -142
-58 -52 -255 -226 -436 -386 -182 -161 -460 -394 -619 -518 -158 -124 -361
-286 -450 -361 -174 -148 -977 -745 -1595 -1189 -211 -151 -523 -358 -695
-459 -171 -101 -502 -299 -736 -442 -234 -142 -639 -382 -900 -533 -261 -152
-520 -316 -575 -366 -55 -49 -471 -274 -925 -500 -915 -456 -1000 -513 -1000
-683 0 -105 23 -117 214 -117 221 0 1641 449 2011 636 110 55 290 128 400 162
191 59 670 267 1650 716 248 114 675 329 950 478 275 149 736 394 1025 543
289 150 705 387 925 527 1011 643 1323 853 1408 948 51 57 392 330 759 609
367 278 772 591 900 694 128 103 346 275 485 381 139 107 577 523 974 925 798
809 771 793 977 577 164 -172 740 -596 810 -596 177 0 278 254 320 811 183
2392 204 3126 98 3377 -113 268 -298 233 -2298 -439z"/>
<path d="M19275 15556 c-633 -164 -598 85 -614 -4378 -15 -4134 -4 -3978 -287
-3978 -249 0 -247 -16 -274 2834 -28 2999 -2 2814 -428 3038 -301 157 -1466
154 -1722 -6 -389 -242 -373 -119 -390 -3088 -15 -2845 -8 -2778 -285 -2778
-267 0 -267 5 -284 1751 -21 2121 -41 2163 -1054 2232 -1054 72 -1523 -209
-1583 -951 -27 -325 -142 -632 -237 -632 -17 0 -472 -88 -1011 -195 -1236
-245 -1876 -359 -3131 -554 -1948 -303 -1970 -310 -1973 -607 -4 -278 255
-319 1273 -201 303 35 764 84 1025 108 261 25 621 69 800 97 1034 162 1362
108 1282 -212 -51 -206 -487 -318 -3540 -915 -2652 -518 -2642 -515 -2642
-846 0 -437 266 -441 2200 -27 2722 582 3250 626 3250 271 0 -197 -266 -349
-1086 -621 -881 -292 -1017 -351 -1163 -508 -255 -274 -12 -622 401 -574 272
32 1290 354 1573 497 110 56 414 176 675 267 813 284 1462 519 1789 649 1259
502 2031 530 2001 74 -18 -266 -241 -412 -1240 -807 -943 -372 -1100 -486
-1100 -802 0 -219 178 -394 401 -394 258 0 913 224 2399 822 2339 940 3441
1087 3576 475 137 -623 825 -534 1506 196 454 486 691 613 939 500 71 -33 129
-76 129 -97 0 -22 76 -119 168 -217 312 -331 714 -179 818 310 21 102 39 2125
39 4495 0 4821 30 4408 -344 4688 -149 111 -1513 173 -1856 84z"/>
</g>
</svg>
