<?xml version="1.0" standalone="no"?>
<!DOCTYPE svg PUBLIC "-//W3C//DTD SVG 20010904//EN"
 "http://www.w3.org/TR/2001/REC-SVG-20010904/DTD/svg10.dtd">
<svg version="1.0" xmlns="http://www.w3.org/2000/svg"
 width="512.000000pt" height="512.000000pt" viewBox="0 0 512.000000 512.000000"
 preserveAspectRatio="xMidYMid meet">
<metadata>
Created by potrace 1.16, written by Peter Selinger 2001-2019
</metadata>
<g transform="translate(0.000000,512.000000) scale(0.020000,-0.020000)"
fill="#000000" stroke="none">
<path d="M4807 20950 c-228 -54 -645 -471 -709 -708 -123 -457 -34 -12199 94
-12405 303 -488 763 -447 986 87 102 245 321 350 563 272 353 -113 355 -121
403 -1296 49 -1221 190 -1508 744 -1514 577 -7 678 147 712 1089 29 786 118
1054 398 1199 457 236 818 -62 869 -719 88 -1130 1132 -948 1133 198 0 564
407 757 745 352 249 -296 420 -356 583 -202 129 121 63 267 -386 863 -119 158
-236 396 -298 609 -57 193 -154 519 -217 725 -63 206 -152 547 -199 756 -84
381 -84 382 -268 412 -249 41 -3595 29 -3785 -14 -183 -41 -517 32 -643 141
-203 176 -232 319 -232 1150 0 1174 -167 1105 2659 1106 2760 0 2540 -33 2684
409 62 193 99 365 81 383 -18 17 -1105 38 -2416 45 -2681 14 -2541 2 -2809
244 -311 281 -310 1706 1 1987 110 100 206 186 213 192 6 6 1733 23 3837 38
3825 26 3825 26 4050 159 357 211 1246 441 2213 571 130 18 239 35 241 39 5
11 103 1698 104 1807 15 1367 -189 1878 -809 2021 -267 62 -10282 65 -10542 4z
m9775 -1396 c500 -305 516 -1908 23 -2240 -170 -114 -170 -114 -4461 -114
-5355 0 -4844 -131 -4844 1243 0 847 32 932 425 1149 205 113 8669 76 8857
-38z"/>
<path d="M8002 18751 c-320 -79 -429 -466 -169 -605 269 -144 2629 -100 2791
53 149 140 139 305 -28 476 -108 110 -2208 171 -2594 76z"/>
<path d="M15193 16603 c-1536 -330 -2493 -888 -3293 -1918 -124 -160 -284
-353 -356 -431 -866 -926 -1261 -3127 -813 -4517 205 -636 595 -1449 813
-1698 81 -92 233 -281 339 -422 302 -401 913 -923 1297 -1109 298 -145 379
-215 595 -518 383 -535 685 -644 1016 -365 326 275 713 117 779 -317 66 -441
254 -693 531 -713 458 -34 608 112 677 656 51 398 190 525 711 648 263 61 561
8 561 -102 0 -22 76 -120 168 -218 394 -417 893 -92 963 627 32 319 32 319
638 948 923 958 1130 1234 1258 1682 37 132 136 424 218 650 433 1179 395
2232 -137 3766 -251 725 -498 1080 -1333 1923 -1112 1122 -3144 1749 -4632
1428z m1901 -1030 c728 -152 1691 -723 2373 -1406 299 -301 797 -1230 961
-1796 167 -578 178 -1796 21 -2363 -150 -542 -681 -1558 -814 -1558 -42 0
-1043 928 -1452 1346 -78 79 -1360 1370 -1548 1558 -33 33 -366 366 -741 740
-374 375 -703 704 -731 731 -28 28 -352 354 -721 725 -368 371 -726 723 -794
782 -374 320 -254 560 443 885 912 425 2035 558 3003 356z m-4293 -1750 c37
-69 137 -171 221 -225 84 -54 254 -215 378 -358 124 -142 461 -493 750 -779
289 -287 548 -545 575 -572 28 -28 244 -245 482 -482 237 -238 453 -454 480
-482 27 -27 750 -760 1606 -1627 856 -867 1557 -1597 1557 -1622 0 -67 -209
-276 -276 -276 -32 0 -196 -89 -363 -197 -730 -472 -2485 -687 -3324 -407
-826 276 -1202 495 -1814 1058 -167 154 -337 300 -377 325 -146 90 -589 742
-621 914 -18 96 -107 323 -198 504 -332 660 -392 2089 -119 2828 475 1287 840
1777 1043 1398z"/>
<path d="M16070 14251 c-284 -60 -509 -162 -757 -345 -323 -237 -299 -346 175
-797 213 -204 513 -497 667 -652 265 -267 1314 -1315 1660 -1661 88 -87 365
-370 615 -627 527 -542 546 -548 864 -230 513 513 538 1731 44 2173 -210 188
-744 488 -868 488 -96 0 -206 182 -322 532 -257 772 -1232 1297 -2078 1119z"/>
<path d="M13520 12156 c-55 -93 -156 -166 -284 -204 -901 -270 -1222 -1606
-562 -2340 461 -513 765 -581 2801 -623 251 -5 1274 93 1306 125 52 53 -243
396 -982 1143 -426 430 -808 818 -849 862 -226 243 -1257 1181 -1297 1181 -26
0 -86 -65 -133 -144z"/>
<path d="M8002 15451 c-401 -99 -411 -538 -14 -649 205 -57 2260 -63 2462 -8
244 67 351 378 186 543 -138 138 -138 138 -1300 147 -638 6 -1239 -9 -1334
-33z"/>
<path d="M8050 12168 c-253 -45 -350 -126 -350 -295 0 -274 73 -296 1044 -315
1320 -25 1386 -11 1454 302 30 140 41 268 24 285 -35 35 -1986 56 -2172 23z"/>
</g>
</svg>
