<?xml version="1.0" standalone="no"?>
<!DOCTYPE svg PUBLIC "-//W3C//DTD SVG 20010904//EN"
 "http://www.w3.org/TR/2001/REC-SVG-20010904/DTD/svg10.dtd">
<svg version="1.0" xmlns="http://www.w3.org/2000/svg"
 width="512.000000pt" height="512.000000pt" viewBox="0 0 512.000000 512.000000"
 preserveAspectRatio="xMidYMid meet">
<metadata>
Created by potrace 1.16, written by Peter Selinger 2001-2019
</metadata>
<g transform="translate(0.000000,512.000000) scale(0.020000,-0.020000)"
fill="#000000" stroke="none">
<path d="M10795 19855 c-827 -168 -1045 -665 -1045 -2380 0 -2025 234 -2385
1569 -2417 933 -22 931 -20 931 -748 0 -645 -62 -864 -305 -1083 -323 -292
-387 -301 -2407 -308 -2479 -8 -2553 -23 -3115 -630 -370 -399 -473 -736 -473
-1542 0 -839 7 -829 -628 -857 -592 -27 -814 -129 -1028 -474 -188 -302 -186
-2951 2 -3225 335 -489 451 -516 2198 -516 2483 0 2463 -16 2495 1958 34 2039
-111 2267 -1433 2267 -536 0 -556 25 -556 709 0 1196 95 1241 2625 1241 2530
0 2625 -45 2625 -1241 0 -685 -6 -692 -618 -720 -687 -31 -931 -154 -1163
-589 -138 -257 -142 -2601 -6 -2954 234 -605 427 -665 2223 -687 1756 -20
1929 4 2239 313 330 330 350 434 350 1803 0 1819 -204 2125 -1417 2125 -454 0
-458 7 -458 712 0 1205 71 1238 2634 1238 2526 0 2516 5 2516 -1191 0 -780 35
-741 -684 -769 -639 -25 -852 -120 -1072 -474 -209 -335 -182 -2968 33 -3274
320 -456 373 -467 2198 -467 2429 0 2438 7 2466 1958 30 2023 -120 2267 -1388
2267 -444 0 -389 -136 -495 1230 -63 812 -212 1099 -761 1472 -442 300 -704
332 -2597 316 -2708 -24 -2850 42 -2850 1325 0 845 -52 793 800 815 1389 35
1568 285 1592 2219 22 1843 -79 2211 -683 2490 -244 113 -3831 186 -4314 88z"/>
<path d="M7007 15399 c-517 -322 -546 -996 -53 -1201 805 -333 1289 748 530
1184 -263 150 -263 150 -477 17z"/>
<path d="M18061 15363 c-321 -174 -461 -351 -461 -586 0 -531 801 -817 1179
-422 481 501 -112 1334 -718 1008z"/>
</g>
</svg>
