<?xml version="1.0" standalone="no"?>
<!DOCTYPE svg PUBLIC "-//W3C//DTD SVG 20010904//EN"
 "http://www.w3.org/TR/2001/REC-SVG-20010904/DTD/svg10.dtd">
<svg version="1.0" xmlns="http://www.w3.org/2000/svg"
 width="512.000000pt" height="512.000000pt" viewBox="0 0 512.000000 512.000000"
 preserveAspectRatio="xMidYMid meet">
<metadata>
Created by potrace 1.16, written by Peter Selinger 2001-2019
</metadata>
<g transform="translate(0.000000,512.000000) scale(0.020000,-0.020000)"
fill="#000000" stroke="none">
<path d="M11025 19917 c-624 -133 -921 -334 -1809 -1218 -937 -933 -1118
-1043 -1814 -1103 -1041 -88 -1619 -391 -2003 -1047 -352 -603 -401 -1022
-243 -2074 33 -220 58 -445 57 -500 -7 -237 -112 -1013 -155 -1150 -71 -220
-396 -1012 -535 -1300 -358 -744 -511 -2347 -294 -3075 494 -1653 2184 -2779
4036 -2688 511 25 1102 154 2284 499 1626 473 2434 396 4601 -438 1934 -744
3735 -241 4795 1339 248 369 517 1482 437 1806 -15 59 -51 298 -80 532 -39
317 -122 596 -327 1100 -548 1346 -348 2405 645 3425 1346 1382 1283 2991
-145 3699 -473 234 -1024 217 -1892 -58 -1607 -509 -2667 -303 -3889 759
-1605 1394 -2474 1748 -3669 1492z m6102 -3629 c464 -88 743 -372 905 -923
113 -386 114 -418 116 -3265 2 -3433 -17 -3615 -431 -4007 -538 -510 -436
-501 -5467 -483 -4840 17 -4614 -4 -5117 480 -455 439 -433 239 -433 3935 0
3278 0 3278 121 3516 162 321 515 639 787 709 119 30 239 64 267 74 150 55
8952 21 9252 -36z"/>
<path d="M8275 15475 c-27 -9 -108 -29 -179 -44 -211 -47 -396 -253 -396 -442
0 -155 34 -190 483 -490 265 -178 516 -358 556 -399 40 -41 270 -199 509 -350
509 -321 1685 -1130 1983 -1363 1072 -841 1257 -881 1863 -405 170 133 382
292 470 353 309 211 851 592 1161 815 483 348 794 561 1525 1046 371 247 726
493 788 547 257 224 48 603 -388 703 -204 47 -8238 75 -8375 29z"/>
<path d="M7575 13438 c-17 -117 -24 -1139 -16 -2271 18 -2293 37 -2394 493
-2552 248 -85 8498 -85 8746 0 454 157 475 264 493 2502 23 2827 38 2771 -620
2269 -190 -145 -458 -329 -594 -408 -137 -80 -301 -198 -366 -263 -149 -149
-1210 -875 -1667 -1140 -189 -110 -439 -287 -556 -392 -267 -242 -737 -483
-939 -483 -390 0 -1139 362 -1400 677 -41 49 -209 153 -374 232 -165 78 -469
267 -675 418 -206 151 -577 414 -825 583 -247 170 -585 412 -750 540 -759 585
-900 628 -950 288z"/>
<path d="M17075 19856 c-489 -225 -544 -944 -96 -1252 485 -332 1172 1 1170
566 -2 583 -545 929 -1074 686z"/>
</g>
</svg>
