<?xml version="1.0" standalone="no"?>
<!DOCTYPE svg PUBLIC "-//W3C//DTD SVG 20010904//EN"
 "http://www.w3.org/TR/2001/REC-SVG-20010904/DTD/svg10.dtd">
<svg id="ornament-molten-03" data-ornament-id="molten-03" data-ornament-label="Metafloor molten 03 ornament" role="img" aria-labelledby="ornament-molten-03-title" version="1.0" xmlns="http://www.w3.org/2000/svg"
 width="1672.000000pt" height="941.000000pt" viewBox="0 0 1672.000000 941.000000"
 preserveAspectRatio="xMidYMid meet">
<title id="ornament-molten-03-title">Metafloor molten 03 ornament</title>
<metadata>
Created by potrace 1.16, written by Peter Selinger 2001-2019
</metadata>
<g transform="translate(0.000000,941.000000) scale(0.100000,-0.100000)"
fill="currentColor" stroke="none">
<path d="M15583 7015 c-178 -55 -282 -218 -254 -395 26 -162 131 -287 341
-409 162 -94 249 -185 321 -336 68 -142 95 -296 86 -495 -9 -198 -44 -343
-118 -492 -63 -125 -132 -178 -185 -143 -43 28 -55 68 -70 243 -15 187 -38
284 -90 382 -177 337 -641 448 -862 206 -118 -130 -131 -272 -43 -451 68 -138
170 -226 384 -336 198 -101 298 -192 367 -334 115 -237 116 -518 3 -870 -39
-122 -131 -323 -194 -424 -209 -332 -478 -522 -744 -524 -103 -1 -170 15 -271
64 -159 78 -276 213 -451 522 -157 278 -246 401 -381 529 -222 209 -519 317
-789 287 -351 -38 -591 -260 -595 -549 -4 -293 209 -549 585 -702 129 -52 257
-89 498 -142 294 -65 441 -129 555 -242 196 -195 195 -465 -5 -685 -150 -166
-443 -291 -750 -319 -305 -28 -605 52 -891 238 -113 73 -169 116 -400 307
-236 195 -284 231 -425 325 -211 139 -450 243 -670 292 -134 29 -409 36 -546
13 -397 -66 -676 -272 -779 -575 -19 -55 -23 -98 -30 -290 -9 -247 -20 -312
-71 -413 -83 -165 -192 -269 -376 -361 -190 -94 -383 -135 -633 -136 -229 0
-441 37 -888 155 -390 103 -584 135 -868 142 -234 6 -353 -4 -533 -43 -295
-66 -526 -186 -689 -359 -139 -148 -201 -286 -208 -465 -3 -64 0 -128 8 -165
l13 -60 5893 -3 5892 -2 0 2639 0 2638 -58 12 c-176 35 -316 181 -383 401 -23
72 -23 89 -24 470 -1 373 -2 399 -22 462 -64 202 -205 345 -388 393 -71 18
-204 19 -262 0z M13266 5016 c-49 -19 -102 -70 -117 -114 -6 -19 -9 -59 -7
-88 11 -128 155 -210 273 -155 77 36 115 95 115 179 -1 128 -141 223 -264 178z
M13716 4425 c-88 -31 -140 -130 -116 -223 55 -221 299 -339 421 -206 58 63 63
172 13 265 -39 71 -123 145 -186 164 -62 18 -81 18 -132 0z M4397 559 c-89
-47 -119 -170 -60 -252 41 -59 85 -79 159 -75 49 3 69 10 99 32 41 32 74 95
75 142 0 66 -51 140 -113 163 -44 17 -118 12 -160 -10z"/>
</g>
</svg>
