<?xml version="1.0" standalone="no"?>
<!DOCTYPE svg PUBLIC "-//W3C//DTD SVG 20010904//EN"
 "http://www.w3.org/TR/2001/REC-SVG-20010904/DTD/svg10.dtd">
<svg id="ornament-molten-05" data-ornament-id="molten-05" data-ornament-label="Metafloor molten 05 ornament" role="img" aria-labelledby="ornament-molten-05-title" version="1.0" xmlns="http://www.w3.org/2000/svg"
 width="941.000000pt" height="1672.000000pt" viewBox="0 0 941.000000 1672.000000"
 preserveAspectRatio="xMidYMid meet">
<title id="ornament-molten-05-title">Metafloor molten 05 ornament</title>
<metadata>
Created by potrace 1.16, written by Peter Selinger 2001-2019
</metadata>
<g transform="translate(0.000000,1672.000000) scale(0.100000,-0.100000)"
fill="currentColor" stroke="none">
<path d="M8479 16621 c-136 -142 -211 -275 -261 -459 -16 -60 -21 -107 -22
-217 -1 -215 34 -319 219 -660 82 -152 122 -262 141 -390 53 -350 -138 -663
-478 -783 -103 -37 -192 -55 -422 -87 -98 -13 -226 -36 -284 -50 -411 -99
-736 -362 -878 -708 -67 -166 -77 -222 -78 -427 0 -169 2 -193 26 -282 73
-267 228 -508 463 -721 55 -49 223 -182 373 -294 442 -331 590 -464 755 -683
243 -322 372 -717 354 -1090 -19 -385 -163 -708 -435 -971 -170 -166 -299
-252 -672 -450 -330 -175 -490 -282 -633 -423 -194 -193 -324 -410 -399 -670
-43 -151 -58 -262 -58 -436 0 -441 143 -803 430 -1090 123 -124 199 -182 427
-328 207 -131 285 -186 387 -271 237 -198 386 -495 386 -768 0 -172 -60 -351
-162 -485 -101 -133 -202 -203 -506 -350 -124 -60 -264 -132 -310 -160 -299
-180 -525 -422 -661 -708 -62 -130 -106 -261 -170 -506 -136 -523 -266 -721
-723 -1103 -278 -233 -387 -358 -483 -555 -67 -137 -94 -237 -102 -383 l-6
-113 2357 0 2356 0 0 8360 0 8360 -419 0 -419 0 -93 -99z M7610 16277 c-58
-19 -126 -95 -146 -163 -60 -206 119 -454 341 -471 76 -7 113 6 154 52 37 43
46 95 26 165 -8 30 -27 103 -41 163 -31 127 -66 187 -137 231 -55 34 -137 43
-197 23z M7759 9826 c-108 -29 -230 -130 -280 -233 -63 -126 -49 -253 36 -338
108 -109 275 -98 395 25 91 94 161 274 145 374 -25 146 -141 214 -296 172z
M5353 2414 c-122 -44 -239 -240 -218 -367 23 -135 117 -220 245 -221 118 -1
207 62 271 193 44 88 53 205 21 267 -58 113 -199 170 -319 128z M5097 1654
c-90 -28 -167 -134 -167 -230 0 -167 213 -207 355 -66 46 45 65 88 65 145 0
112 -131 190 -253 151z"/>
</g>
</svg>
