<?xml version="1.0" standalone="no"?>
<!DOCTYPE svg PUBLIC "-//W3C//DTD SVG 20010904//EN"
 "http://www.w3.org/TR/2001/REC-SVG-20010904/DTD/svg10.dtd">
<svg id="ornament-molten-06" data-ornament-id="molten-06" data-ornament-label="Metafloor molten 06 ornament" role="img" aria-labelledby="ornament-molten-06-title" version="1.0" xmlns="http://www.w3.org/2000/svg"
 width="941.000000pt" height="1672.000000pt" viewBox="0 0 941.000000 1672.000000"
 preserveAspectRatio="xMidYMid meet">
<title id="ornament-molten-06-title">Metafloor molten 06 ornament</title>
<metadata>
Created by potrace 1.16, written by Peter Selinger 2001-2019
</metadata>
<g transform="translate(0.000000,1672.000000) scale(0.100000,-0.100000)"
fill="currentColor" stroke="none">
<path d="M4070 8420 c-91 -25 -136 -46 -206 -95 -176 -125 -274 -337 -274
-592 0 -149 23 -265 104 -509 89 -274 103 -323 120 -445 20 -131 20 -195 1
-324 -25 -177 -95 -359 -188 -484 -228 -309 -619 -372 -893 -143 -76 63 -137
153 -215 319 -83 175 -156 297 -238 395 -375 449 -1036 559 -1541 256 -178
-107 -303 -221 -492 -450 -73 -89 -159 -193 -191 -231 l-57 -69 0 -3024 0
-3024 4705 0 4705 0 0 2425 0 2425 -72 76 c-85 89 -228 188 -345 238 -46 19
-158 56 -250 81 -203 55 -292 96 -366 170 -151 148 -182 323 -111 620 82 344
51 519 -120 690 -97 96 -198 152 -350 190 -109 28 -281 34 -392 14 -277 -49
-556 -240 -751 -514 -70 -99 -187 -294 -244 -407 -54 -106 -169 -290 -235
-374 -108 -139 -235 -235 -364 -275 -82 -26 -229 -28 -314 -4 -228 61 -376
251 -376 483 0 137 36 262 163 568 146 351 181 495 182 734 0 219 -39 389
-132 575 -177 353 -533 630 -915 710 -95 20 -266 18 -348 -5z M903 7799 c-45
-14 -77 -33 -117 -70 -142 -130 -166 -333 -53 -456 175 -191 486 -71 537 207
20 108 -27 236 -105 290 -77 53 -158 62 -262 29z M8479 7766 c-94 -36 -170
-108 -215 -204 -22 -47 -52 -162 -99 -378 -28 -133 28 -232 149 -265 66 -18
141 -5 231 40 181 91 305 241 341 413 23 111 3 203 -65 292 -56 75 -124 109
-226 113 -51 2 -93 -2 -116 -11z M8785 5946 c-37 -16 -90 -68 -111 -108 -55
-107 -7 -250 101 -299 207 -95 401 182 247 353 -20 23 -51 47 -69 55 -41 17
-129 16 -168 -1z"/>
</g>
</svg>
