<?xml version="1.0" standalone="no"?>
<!DOCTYPE svg PUBLIC "-//W3C//DTD SVG 20010904//EN"
 "http://www.w3.org/TR/2001/REC-SVG-20010904/DTD/svg10.dtd">
<svg id="ornament-molten-04" data-ornament-id="molten-04" data-ornament-label="Metafloor molten 04 ornament" role="img" aria-labelledby="ornament-molten-04-title" version="1.0" xmlns="http://www.w3.org/2000/svg"
 width="1672.000000pt" height="941.000000pt" viewBox="0 0 1672.000000 941.000000"
 preserveAspectRatio="xMidYMid meet">
<title id="ornament-molten-04-title">Metafloor molten 04 ornament</title>
<metadata>
Created by potrace 1.16, written by Peter Selinger 2001-2019
</metadata>
<g transform="translate(0.000000,941.000000) scale(0.100000,-0.100000)"
fill="currentColor" stroke="none">
<path d="M14579 9406 c-5 -6 -235 -33 -384 -46 -66 -6 -277 -15 -470 -20 -752
-20 -992 -74 -1600 -360 -537 -252 -899 -316 -1303 -229 -227 49 -391 135
-569 300 -45 41 -110 91 -145 110 -56 30 -71 34 -138 34 -58 0 -84 -5 -118
-23 -187 -99 -251 -368 -156 -658 56 -173 146 -317 283 -455 250 -249 591
-403 1061 -478 69 -11 250 -34 404 -51 449 -50 593 -82 782 -175 169 -84 291
-200 366 -350 64 -126 90 -235 113 -480 24 -258 72 -407 169 -530 186 -234
487 -355 881 -355 161 0 273 14 540 65 430 82 690 50 966 -121 160 -99 288
-244 370 -418 73 -156 81 -205 89 -541 7 -276 9 -308 33 -397 75 -284 284
-525 562 -646 104 -45 239 -82 328 -89 l77 -6 0 2962 0 2961 -1068 0 c-588 0
-1071 -2 -1073 -4z M9160 8498 c-61 -32 -83 -66 -88 -136 -7 -101 43 -170 143
-192 81 -18 161 8 222 72 42 44 103 148 103 175 0 28 -36 53 -76 53 -18 0 -71
11 -118 25 -106 31 -130 31 -186 3z M14854 5241 c-59 -36 -69 -122 -29 -248
28 -91 68 -159 133 -227 155 -161 381 -111 382 84 0 211 -337 482 -486 391z
M3026 3164 c-66 -21 -143 -98 -186 -189 -58 -120 -43 -182 37 -158 21 6 84 24
140 40 149 43 203 95 203 192 0 51 -45 106 -98 121 -44 12 -35 12 -96 -6z
M2311 2619 c-115 -24 -245 -74 -370 -140 -127 -68 -202 -118 -421 -279 -245
-181 -316 -228 -435 -288 -319 -160 -648 -186 -973 -77 -57 19 -106 35 -108
35 -2 0 -4 -421 -4 -935 l0 -935 306 0 306 0 76 66 c137 120 270 191 442 237
112 30 120 31 345 31 263 1 265 0 830 -104 631 -117 785 -135 1135 -134 220 0
289 4 408 23 379 58 640 165 818 333 92 87 136 153 170 254 23 68 26 90 21
162 -15 243 -206 379 -502 357 -49 -3 -173 -18 -275 -32 -258 -37 -532 -39
-633 -5 -166 55 -249 150 -249 283 0 41 13 94 51 203 27 81 55 183 61 228 48
348 -185 642 -573 722 -108 23 -306 20 -426 -5z M5106 530 c-16 -5 -42 -21
-57 -36 -54 -52 -46 -117 20 -161 47 -32 135 -32 182 0 132 89 17 245 -145
197z"/>
</g>
</svg>
