<?xml version="1.0" standalone="no"?>
<!DOCTYPE svg PUBLIC "-//W3C//DTD SVG 20010904//EN"
 "http://www.w3.org/TR/2001/REC-SVG-20010904/DTD/svg10.dtd">
<svg id="ornament-molten-08" data-ornament-id="molten-08" data-ornament-label="Metafloor molten 08 ornament" role="img" aria-labelledby="ornament-molten-08-title" version="1.0" xmlns="http://www.w3.org/2000/svg"
 width="941.000000pt" height="1672.000000pt" viewBox="0 0 941.000000 1672.000000"
 preserveAspectRatio="xMidYMid meet">
<title id="ornament-molten-08-title">Metafloor molten 08 ornament</title>
<metadata>
Created by potrace 1.16, written by Peter Selinger 2001-2019
</metadata>
<g transform="translate(0.000000,1672.000000) scale(0.100000,-0.100000)"
fill="currentColor" stroke="none">
<path d="M9085 16331 c-558 -256 -846 -410 -1155 -616 -622 -416 -986 -849
-1098 -1308 -24 -101 -24 -344 1 -445 52 -214 144 -376 367 -642 210 -252 297
-399 347 -589 36 -133 38 -359 5 -500 -153 -647 -712 -1211 -1646 -1661 -282
-136 -420 -193 -1106 -450 -689 -259 -1012 -400 -1315 -575 -402 -232 -692
-509 -838 -800 -247 -495 -97 -968 443 -1392 101 -79 305 -208 540 -342 476
-272 679 -434 841 -675 80 -118 123 -207 166 -335 124 -380 68 -830 -162
-1291 -263 -529 -696 -957 -1345 -1327 -302 -173 -639 -331 -1250 -588 -809
-340 -1038 -465 -1365 -744 -175 -149 -330 -354 -449 -591 l-66 -131 0 -665 0
-664 1110 0 1110 0 6 27 c43 194 96 341 180 499 200 376 512 725 1029 1150
152 125 211 171 525 409 368 279 469 358 640 499 191 158 520 487 650 651 359
455 571 930 646 1450 24 162 24 499 0 639 -76 455 -261 808 -628 1199 -111
119 -215 214 -546 501 -504 437 -682 731 -682 1126 0 533 383 1110 1090 1644
314 237 503 355 1340 836 740 425 1085 667 1405 985 358 356 629 808 722 1205
34 145 42 362 19 481 -42 204 -117 326 -355 573 -235 242 -289 340 -298 536
-4 79 0 112 21 192 92 358 388 718 840 1020 129 87 393 236 512 290 l74 33 0
268 c0 147 -1 267 -2 266 -2 0 -147 -67 -323 -148z M6815 15219 c-151 -69
-195 -116 -195 -209 0 -34 6 -48 34 -76 29 -29 41 -34 81 -34 54 0 103 25 130
67 22 34 106 283 99 294 -10 16 -39 8 -149 -42z M8782 12466 c-56 -19 -115
-60 -153 -107 -16 -21 -62 -104 -101 -186 -86 -177 -147 -282 -226 -389 -56
-75 -66 -104 -38 -104 7 0 67 25 132 56 65 31 188 83 273 115 180 69 227 94
298 162 88 83 127 195 103 295 -29 123 -165 198 -288 158z M850 3290 c-161
-33 -303 -181 -356 -370 -22 -78 -29 -287 -14 -392 17 -121 41 -135 96 -57 53
77 193 197 352 302 165 110 221 161 253 231 49 107 -2 220 -122 270 -45 19
-153 27 -209 16z M274 2360 c-33 -13 -64 -59 -64 -94 0 -81 74 -104 136 -42
42 42 46 85 9 121 -25 26 -45 30 -81 15z"/>
</g>
</svg>
