<?xml version="1.0" standalone="no"?>
<!DOCTYPE svg PUBLIC "-//W3C//DTD SVG 20010904//EN"
 "http://www.w3.org/TR/2001/REC-SVG-20010904/DTD/svg10.dtd">
<svg id="ornament-molten-01" data-ornament-id="molten-01" data-ornament-label="Metafloor molten 01 ornament" role="img" aria-labelledby="ornament-molten-01-title" version="1.0" xmlns="http://www.w3.org/2000/svg"
 width="1672.000000pt" height="941.000000pt" viewBox="0 0 1672.000000 941.000000"
 preserveAspectRatio="xMidYMid meet">
<title id="ornament-molten-01-title">Metafloor molten 01 ornament</title>
<metadata>
Created by potrace 1.16, written by Peter Selinger 2001-2019
</metadata>
<g transform="translate(0.000000,941.000000) scale(0.100000,-0.100000)"
fill="currentColor" stroke="none">
<path d="M16544 8426 c-557 -116 -1094 -477 -1482 -996 -132 -178 -252 -382
-415 -710 -201 -406 -261 -518 -350 -650 -98 -145 -290 -337 -412 -412 -278
-171 -547 -222 -965 -184 -216 20 -440 23 -559 6 -436 -60 -812 -302 -1100
-708 -28 -40 -99 -150 -157 -243 -122 -196 -193 -289 -289 -377 -215 -197
-470 -292 -782 -292 -177 0 -285 17 -513 81 -102 28 -223 62 -270 75 -202 57
-412 80 -585 65 -312 -27 -532 -123 -874 -381 -247 -186 -334 -238 -476 -283
-177 -56 -339 -55 -584 3 -183 43 -265 53 -366 47 -288 -17 -448 -216 -338
-418 53 -99 175 -178 349 -226 95 -27 108 -28 319 -27 201 0 231 3 349 28 165
35 362 99 591 191 462 185 629 223 934 212 354 -13 584 -103 1085 -425 199
-127 360 -215 481 -262 617 -237 1360 -89 1932 387 118 98 252 234 474 484
231 258 378 378 598 489 324 162 692 210 1189 154 179 -20 334 -49 722 -133
593 -128 724 -149 990 -158 231 -8 447 15 643 68 l37 10 0 2304 0 2305 -32 -1
c-18 0 -83 -11 -144 -23z M11085 5602 c-97 -32 -169 -132 -169 -234 -1 -164
189 -212 332 -84 111 100 105 264 -12 317 -50 23 -86 23 -151 1z M10734 4936
c-117 -37 -256 -155 -305 -260 -73 -155 -8 -297 144 -313 109 -11 216 54 299
181 45 70 88 198 88 264 0 114 -97 168 -226 128z M11900 2450 c-82 -10 -181
-46 -247 -89 -183 -118 -197 -293 -29 -378 181 -93 513 22 581 202 47 121 -25
237 -160 260 -74 12 -90 13 -145 5z"/>
</g>
</svg>
