<?xml version="1.0" standalone="no"?>
<!DOCTYPE svg PUBLIC "-//W3C//DTD SVG 20010904//EN"
 "http://www.w3.org/TR/2001/REC-SVG-20010904/DTD/svg10.dtd">
<svg id="ornament-molten-02" data-ornament-id="molten-02" data-ornament-label="Metafloor molten 02 ornament" role="img" aria-labelledby="ornament-molten-02-title" version="1.0" xmlns="http://www.w3.org/2000/svg"
 width="1672.000000pt" height="941.000000pt" viewBox="0 0 1672.000000 941.000000"
 preserveAspectRatio="xMidYMid meet">
<title id="ornament-molten-02-title">Metafloor molten 02 ornament</title>
<metadata>
Created by potrace 1.16, written by Peter Selinger 2001-2019
</metadata>
<g transform="translate(0.000000,941.000000) scale(0.100000,-0.100000)"
fill="currentColor" stroke="none">
<path d="M15018 9386 c-96 -39 -150 -76 -224 -151 -124 -128 -182 -269 -210
-515 -8 -74 -22 -160 -30 -190 -41 -147 -149 -225 -278 -201 -31 6 -72 19 -93
29 -21 11 -87 44 -146 75 -147 75 -242 100 -382 100 -84 1 -129 -5 -188 -21
-387 -109 -624 -497 -537 -879 55 -242 194 -427 408 -541 120 -64 211 -85 367
-85 110 -1 145 3 226 25 119 33 229 84 381 175 279 168 495 193 677 79 161
-102 273 -334 259 -537 -7 -91 -53 -188 -110 -229 -100 -73 -214 -60 -431 47
-379 187 -630 257 -967 270 -339 13 -662 -50 -933 -181 -302 -146 -523 -383
-616 -661 -131 -392 16 -796 393 -1074 76 -56 256 -148 356 -181 293 -98 645
-114 1025 -45 296 53 334 57 459 53 186 -8 309 -55 419 -163 201 -197 188
-545 -28 -762 -162 -162 -363 -208 -675 -153 -194 35 -440 35 -555 1 -268 -78
-465 -238 -576 -467 -158 -326 -95 -678 169 -947 89 -90 176 -149 358 -240
234 -119 325 -197 405 -350 116 -222 85 -500 -79 -703 -104 -128 -245 -213
-448 -269 -321 -89 -455 -157 -617 -314 -105 -102 -195 -241 -231 -358 l-7
-23 2080 0 2081 0 0 700 c0 779 6 707 -71 821 -120 178 -320 330 -538 409
-125 46 -262 69 -463 80 -149 7 -200 14 -273 35 -150 44 -245 114 -306 228
-32 58 -34 68 -34 157 0 82 4 103 27 153 53 113 187 208 340 241 40 9 145 20
233 26 194 11 319 40 450 104 243 118 450 343 542 587 63 167 68 198 68 389 0
208 -16 282 -96 450 -99 207 -247 359 -449 460 -159 79 -275 107 -510 121
-360 21 -575 112 -690 291 -145 223 -55 483 212 615 127 63 220 82 453 94 110
5 236 16 281 24 218 40 399 136 551 293 88 90 149 181 217 322 l51 105 3 1353
2 1352 -822 0 -823 0 -57 -24z M12815 8848 c-110 -38 -164 -160 -116 -263 48
-103 154 -143 257 -96 80 37 127 136 104 222 -15 56 -81 123 -135 138 -48 13
-70 13 -110 -1z M12145 7553 c-72 -25 -156 -110 -185 -188 -69 -186 67 -388
270 -402 166 -12 304 110 317 280 11 127 -50 238 -161 294 -66 34 -169 41
-241 16z M14156 4200 c-66 -21 -111 -89 -104 -160 14 -146 182 -188 270 -69
80 107 -37 269 -166 229z M12929 1666 c-76 -29 -118 -57 -167 -110 -107 -118
-128 -276 -55 -419 81 -161 278 -237 457 -177 85 28 169 102 211 187 42 81 48
206 14 294 -29 78 -99 156 -181 199 -56 30 -73 34 -153 37 -58 2 -102 -2 -126
-11z M12328 694 c-63 -34 -77 -122 -27 -178 76 -88 199 -35 199 85 0 33 -6 47
-34 75 -27 27 -42 34 -72 34 -22 -1 -51 -7 -66 -16z"/>
</g>
</svg>
