<?xml version="1.0" standalone="no"?>
<!DOCTYPE svg PUBLIC "-//W3C//DTD SVG 20010904//EN"
 "http://www.w3.org/TR/2001/REC-SVG-20010904/DTD/svg10.dtd">
<svg id="ornament-molten-07" data-ornament-id="molten-07" data-ornament-label="Metafloor molten 07 ornament" role="img" aria-labelledby="ornament-molten-07-title" version="1.0" xmlns="http://www.w3.org/2000/svg"
 width="941.000000pt" height="1672.000000pt" viewBox="0 0 941.000000 1672.000000"
 preserveAspectRatio="xMidYMid meet">
<title id="ornament-molten-07-title">Metafloor molten 07 ornament</title>
<metadata>
Created by potrace 1.16, written by Peter Selinger 2001-2019
</metadata>
<g transform="translate(0.000000,1672.000000) scale(0.100000,-0.100000)"
fill="currentColor" stroke="none">
<path d="M3670 16658 c1 -137 33 -273 93 -393 118 -237 360 -467 634 -604 113
-57 189 -75 313 -75 120 0 171 13 390 99 145 57 257 85 343 85 220 0 387 -124
428 -318 21 -103 -21 -244 -107 -358 -22 -28 -65 -85 -96 -127 -120 -158 -168
-286 -168 -446 0 -417 439 -792 867 -742 148 18 254 57 442 165 92 53 205 110
251 127 459 167 766 -255 575 -791 -15 -41 -84 -190 -154 -330 -70 -140 -141
-298 -158 -350 -181 -549 48 -1094 503 -1196 200 -44 404 25 574 195 125 125
188 229 359 587 75 159 162 249 286 296 95 36 227 29 350 -18 13 -6 15 212 15
2125 l0 2131 -2870 0 -2870 0 0 -62z M3875 15685 c-5 -2 -22 -6 -38 -9 -41 -9
-103 -71 -123 -121 -21 -57 -15 -145 13 -183 72 -97 193 -105 279 -18 89 88
82 238 -14 300 -35 23 -95 39 -117 31z M8808 11655 c-81 -42 -138 -138 -138
-230 0 -135 108 -244 241 -245 122 0 213 75 239 198 43 200 -165 369 -342 277z"/>
</g>
</svg>
