<svg xmlns="http://www.w3.org/2000/svg" viewBox="0 0 529.724 349.328" role="img" aria-labelledby="title">
  <title id="title">Metafloor letter F</title>
  <path d="M386.388 268.365C366.748 287.485 341.138 283.085 316.918 275.665C277.288 263.515 293.628 219.755 244.258 222.665C216.098 224.325 208.058 234.935 190.508 254.305C184.498 260.935 178.428 268.015 172.798 274.965C151.628 301.105 138.668 333.425 104.438 344.755C80.7477 352.605 27.2377 351.755 10.2377 330.985C-15.1223 299.995 11.5177 271.145 37.1977 253.535C57.9077 239.335 80.1977 236.115 97.4777 215.955C133.378 174.045 108.808 118.765 135.148 76.1354C155.818 42.6854 193.758 14.7254 232.258 6.30542C286.858 -5.63458 330.388 -2.29458 376.478 30.9554C397.638 46.2154 407.858 66.3054 434.928 74.1954C469.498 84.2754 530.868 71.8354 529.708 125.215C528.978 158.715 478.878 174.055 451.498 171.785C377.348 165.635 366.538 66.8354 285.788 84.7854C274.538 87.2854 248.608 95.3154 241.848 104.165C224.058 127.475 231.708 163.715 265.388 163.225C292.628 162.825 313.228 152.525 342.938 156.585C401.478 164.575 432.098 223.875 386.388 268.365Z" fill="#070707"/>
</svg>
