<svg xmlns="http://www.w3.org/2000/svg" viewBox="0 0 536.852 426.266" role="img" aria-labelledby="title">
  <title id="title">OFY letter M</title>
  <path d="M327 218.967C298.12 222.097 294.99 281.707 265.29 279.297C249.59 278.027 246.38 267.667 243.09 254.437C238.11 234.397 237.48 213.477 234.9 193.067C214.35 195.357 203.87 213.827 199.89 232.327C196.37 248.667 195.67 262.567 189.87 278.907C169.41 336.557 103.59 395.147 38.7301 374.367C23.9601 369.637 0.0400627 350.387 6.26874e-05 333.687C-0.0199373 325.027 4.75006 298.937 8.07006 290.907C16.1201 271.427 39.4401 262.117 55.8401 250.417C75.8101 236.167 105.38 213.987 99.2401 186.267C94.8101 166.267 86.4601 158.157 88.1701 134.037C92.9701 66.5265 152.12 35.5465 214.3 42.4165C247.25 46.0565 276.49 74.6665 279.11 108.087C279.94 118.677 274.92 130.497 282.92 138.817C295.58 151.977 328.93 157.147 343.02 144.717C372.39 118.797 359.4 75.8465 387 44.3065C418.42 8.40654 442.38 -6.17346 492.26 2.38654C540.31 10.6365 550.8 63.3565 517.51 95.1865C499.5 112.407 476.65 114.347 460.96 135.537C430.31 176.907 415.78 253.067 430.16 302.407C437.08 326.147 468.79 316.807 478.12 344.627C493.27 389.807 428.38 428.807 389.89 426.137C349.76 423.357 317.9 389.177 317.41 348.867C317.13 326.007 315.14 303.057 318.86 280.297C322.17 260.057 331.2 239.317 326.99 218.947L327 218.967Z" fill="#080808"/>
</svg>
