<svg xmlns="http://www.w3.org/2000/svg" viewBox="0 0 500.662 489.395" role="img" aria-labelledby="title">
  <title id="title">Metafloor letter L</title>
  <path d="M300.314 0.687103C347.414 -6.1029 370.394 38.6871 367.694 79.5771C361.884 167.387 271.324 211.837 219.984 271.497C203.124 291.097 196.224 300.497 215.134 322.337C245.674 357.627 299.344 344.017 339.124 333.077C366.874 325.447 395.864 310.517 423.334 305.037C460.014 297.717 473.444 315.377 489.704 344.217C500.354 363.097 503.434 366.127 498.094 388.437C490.594 419.797 473.594 444.397 449.254 465.277C411.854 497.347 355.234 493.197 311.554 477.277C262.014 459.217 238.654 423.777 180.174 421.577C141.804 420.137 106.594 438.077 69.7842 440.787C10.5142 445.157 -16.0758 359.267 10.0242 314.827C28.1942 283.897 69.8242 265.837 99.7042 249.087C151.714 219.927 181.604 177.007 201.734 121.817C213.404 89.8271 216.314 62.4971 241.534 36.8971C252.374 25.8971 285.464 2.8271 300.304 0.687103H300.314Z" fill="#080808"/>
</svg>
