<svg xmlns="http://www.w3.org/2000/svg" viewBox="0 0 405.409 378.991" role="img" aria-labelledby="title">
  <title id="title">Metafloor letter A</title>
  <path d="M252.533 82.0474C253.483 80.9174 253.753 79.7074 253.593 78.2574C252.263 66.2074 233.643 41.3374 251.513 32.5674C265.323 25.7874 285.273 34.8874 295.063 45.3774C327.223 79.8274 315.013 174.377 319.043 219.027C319.943 228.957 324.143 234.217 334.773 232.867C356.423 230.117 354.143 185.637 379.973 186.857C398.263 187.717 402.293 208.277 404.273 223.017C412.353 283.087 377.133 356.007 305.903 327.147C283.973 318.267 269.993 288.957 243.963 292.687C233.793 294.147 212.913 309.647 204.413 316.447C162.743 349.787 114.763 395.787 56.8627 372.797C4.69266 352.087 50.7927 290.657 52.3527 254.577C53.6327 225.007 30.3927 201.087 14.5027 179.137C-4.45734 152.957 -0.387344 135.747 2.42266 105.817C4.66266 81.9274 3.02266 81.0174 14.7427 59.6074C31.0927 29.7274 41.2627 17.2974 75.1427 7.76743C119.083 -4.59257 163.393 -4.43257 200.523 24.7874C221.093 40.9774 231.563 61.2874 244.603 83.3474C246.673 85.2674 250.993 83.8874 252.533 82.0374V82.0474ZM146.153 120.987C130.813 122.247 113.313 126.067 104.903 140.177C92.1127 161.657 106.043 177.247 106.133 198.887C106.223 221.687 89.1627 250.577 108.403 269.447C124.173 284.917 154.033 277.727 171.303 267.977C211.513 245.287 224.533 193.237 205.683 152.007C193.683 125.767 173.973 118.687 146.143 120.977L146.153 120.987Z" fill="#090909"/>
</svg>
