<svg xmlns="http://www.w3.org/2000/svg" viewBox="0 0 600 503" role="img" aria-labelledby="title">
  <title id="title">Metafloor letter R</title>
  <path d="M321.94 230.652C309.413 243.996 323.639 278.153 339.057 284.509C370.19 297.351 427.043 268.852 450.616 246.356C480.812 217.55 462.495 177.994 481.478 144.477C495.31 120.057 524.192 103.657 551.269 107.541C575.675 111.044 596.804 164.195 598.871 187.202C604.075 245.064 591.863 291.776 550.244 329.743C487.575 386.918 413.447 422.274 333.38 377.886C298.156 358.354 284.131 319.048 264.912 284.704C252.981 273.182 239.911 266.659 236.152 288.988C228.19 336.359 263.274 369.922 266.156 415.324C268.538 452.864 257.869 481.233 224.44 496.76C205.571 505.522 172.852 506.981 158.608 488.397C142.341 467.174 161.035 443.85 168.823 424.393C194.682 359.766 150.935 287.929 110.7 241.459C99.338 228.329 88.3616 220.133 77.0612 205.824C60.0579 184.303 33.7077 187.481 15.697 169.287C-18.9665 134.256 9.42481 71.9801 46.2345 52.7825C62.6859 44.1966 96.0354 37.0417 114.423 35.9638C155.253 33.5758 199.115 62.8552 238.378 73.0394C279.339 76.5889 295.388 31.2527 321.23 9.28617C346.879 -12.5224 382.305 8.5521 404.74 26.7368C461.733 72.9278 457.493 163.043 395.839 200.75C377.68 211.864 333.205 218.647 321.922 230.661L321.94 230.652ZM298.743 116.452C289.343 117.734 280.899 123.533 272.279 126.711C249.222 135.213 221.427 122.984 198.362 132.109C185.966 137.016 185.16 160.515 191.844 170.551C202.312 186.264 254.189 196.959 271.666 195.602C293.294 193.92 315.396 179.1 324.322 157.848C334.037 134.72 324.471 112.949 298.743 116.452Z" fill="#080808"/>
</svg>
