<svg xmlns="http://www.w3.org/2000/svg" viewBox="0 0 394.068 501.039" role="img" aria-labelledby="title">
  <title id="title">Metafloor letter T</title>
  <path d="M152.927 0.183769C210.947 5.49377 208.897 58.8838 216.377 101.264C218.987 116.064 225.857 121.614 238.007 129.514C258.527 142.864 265.627 132.044 279.587 117.724C300.997 95.7538 313.647 70.2738 349.157 73.0538C392.467 76.4438 387.427 136.944 369.167 163.164C344.237 198.954 291.737 203.184 253.887 216.734C195.327 237.704 130.087 321.484 207.927 363.944C242.297 382.694 262.177 373.964 277.137 338.804C291.717 304.534 279.957 256.484 320.567 241.204C373.347 221.354 401.657 302.814 392.297 342.674C384.567 375.614 350.497 384.724 330.877 407.894C322.387 417.914 315.997 431.024 308.167 441.784C282.917 476.484 237.537 502.734 193.707 500.954C150.627 499.204 110.807 492.204 90.0375 450.164C77.8475 425.474 76.1875 375.854 84.7675 349.834C96.6975 313.664 136.667 287.224 136.507 247.114C136.457 234.244 120.347 231.214 110.467 235.464C74.7675 250.864 79.7375 330.274 25.3175 314.364C14.4775 311.194 3.31748 293.784 0.807482 283.234C-4.62252 260.474 18.4775 221.394 35.8575 206.904C47.9075 196.854 57.1375 196.934 70.6775 191.834C95.2075 182.594 132.657 169.204 124.647 136.374C120.687 120.154 114.867 123.654 102.017 120.624C71.9075 113.524 58.0475 87.4138 68.4575 58.1938C79.8275 26.3438 109.487 3.23377 143.327 0.183769C146.017 -0.0562309 150.237 -0.0662309 152.917 0.183769H152.927Z" fill="#080808"/>
</svg>
