<svg xmlns="http://www.w3.org/2000/svg" viewBox="0 0 297 204" role="img" aria-labelledby="title">
  <title id="title">OFY letter O star 2</title>
  <path d="M151.889 0.27362C205.937 -2.68069 286.752 17.8973 296.15 81.0904C307.19 155.284 208.178 200.299 147.472 203.712C93.665 206.74 9.76065 186.278 0.816018 122.794C-10.0125 46.018 89.4081 3.68749 151.889 0.27362ZM86.3924 175.512C88.0134 177.379 93.2561 177.999 95.6657 177.853C104.895 177.313 123.639 162.615 131.028 156.48C133.744 154.226 139.483 147.646 141.835 146.289C144.938 144.488 146.858 146.173 149.239 148.069C158.891 155.765 168.946 169.508 178.701 176.022C182.571 178.604 184.462 178.524 188.091 175.694C201.329 165.365 189.756 143.204 184.842 131.401C174.875 107.482 188.61 104.542 204.206 91.7186C209.208 87.6117 224.403 75.2693 213.37 70.7029C200.818 71.7168 187.266 75.0505 174.831 75.6705C164.726 76.1738 158.658 74.2991 154.007 64.9256C148.596 54.0129 147.953 39.2851 142.397 28.2338C141.689 26.8332 139.556 25.3087 138.038 26.2715C136.344 27.3438 126.837 42.9251 125.296 45.7773C118.71 57.9738 114.132 71.6366 107.254 83.7456C103.793 86.9042 84.1581 88.0421 78.3313 89.1436C71.088 90.5223 57.0175 94.6656 51.5266 99.4582C49.7085 101.041 48.584 101.946 49.0513 104.652C49.7742 108.846 67.6416 117.439 72.0226 118.833C81.1571 121.743 95.5561 119.671 94.5047 132.597C93.4751 145.21 87.5242 160.105 85.7937 172.907C85.5747 173.878 85.728 174.746 86.3924 175.512Z" fill="#080808"/>
</svg>
