<svg xmlns="http://www.w3.org/2000/svg" viewBox="0 0 388.119 390.808" role="img" aria-labelledby="title">
  <title id="title">OFY letter E</title>
  <path d="M220.551 0.224593C276.091 -3.62541 360.351 42.5346 375.141 99.3046C385.081 137.485 367.791 192.715 332.921 213.325C271.661 249.535 227.071 219.045 167.271 199.725C144.931 196.145 122.161 209.605 114.081 230.505C99.7914 267.425 123.891 275.435 153.591 283.445C176.611 289.655 202.951 289.385 225.951 282.895C235.761 280.125 243.601 275.165 253.981 273.505C271.611 270.685 291.281 278.155 307.461 270.375C325.321 261.785 334.181 234.765 358.351 237.965C369.801 239.485 380.221 256.155 383.871 266.155C397.311 302.925 377.121 335.125 347.701 355.705C311.241 381.195 254.691 350.705 213.251 360.365C185.571 366.825 161.081 388.365 133.011 390.455C50.3414 396.585 -0.308585 321.965 0.00141488 246.025C0.161415 207.165 54.5914 176.215 75.1314 145.505C90.3514 122.755 94.5814 95.3846 107.991 71.8746C128.981 35.1046 178.181 3.16459 220.551 0.224593ZM224.421 89.3946C203.351 89.8446 175.541 99.4246 162.961 117.245C154.731 128.915 156.431 141.585 169.041 149.015C190.041 161.395 219.211 165.505 242.821 160.645C258.151 157.495 271.531 155.585 281.591 142.805C285.491 137.845 291.461 128.705 290.561 122.495C286.671 95.8346 246.241 88.9246 224.421 89.3946Z" fill="#0A0A0A"/>
</svg>
