<svg xmlns="http://www.w3.org/2000/svg" viewBox="0 0 334 220" role="img" aria-labelledby="title">
  <title id="title">Metafloor letter O star 1</title>
  <path d="M197.28 0.129317C257.639 -2.37486 357.111 31.3609 329.151 112.634C296.323 208.043 124.134 246.196 44.0571 201.171C-22.5053 163.741 -6.58047 96.6609 44.9872 54.198C88.1356 18.6569 142.372 2.40055 197.28 0.129317ZM80.5492 94.5894C87.3106 101.644 104.125 108 112.65 114.648C118.319 119.065 118.732 121.669 117.284 128.566C114.477 141.894 103.446 161.861 109.722 175.131C111.881 179.698 115.003 179.74 119.484 179.507C143.432 178.267 154.852 150.372 172.329 137.26C183.442 145.064 191.861 156.645 202.95 164.623C215.34 173.542 223.242 175.838 224.585 156.72C225.587 142.369 218.244 131.462 220.007 117.684C222.174 100.696 250.967 87.2099 262.249 75.729C275.295 62.4593 253.11 63.2414 244.351 63.7072C231.217 64.3978 218.414 69.689 206.274 70.8205C198.752 71.5193 197.887 70.313 194.474 63.9901C191.473 58.441 179.511 30.8367 175.702 29.0231C172.402 27.459 169.264 29.8134 166.805 31.8268C161.427 36.2361 155.143 49.3727 151.52 56.0117C149.352 59.9884 145.68 70.0384 142.615 72.3928C138.862 75.2797 123.495 74.3563 117.907 74.9137C103.882 76.303 88.3135 79.4645 75.6318 85.7291C75.3811 86.8772 79.4493 93.433 80.5411 94.5727L80.5492 94.5894Z" fill="#080808"/>
</svg>
