<svg xmlns="http://www.w3.org/2000/svg" viewBox="0 0 253 242" width="253" height="242" role="img" aria-label="01_O_odd_star">
  <title>01_O_odd_star</title>
  <path d="M 131.27 3.54 L 127.02 3.88 L 122.79 4.25 L 118.56 4.62 L 114.33 4.99 L 110.08 5.34 L 105.98 6.02 L 102.02 7.04 L 98.07 8.09 L 94.11 9.12 L 90.14 10.13 L 86.19 11.19 L 82.40 12.61 L 78.69 14.25 L 74.97 15.86 L 71.25 17.47 L 67.64 19.34 L 64.19 21.58 L 60.74 23.84 L 57.27 26.07 L 53.82 28.33 L 50.37 30.58 L 47.10 33.27 L 43.93 36.20 L 40.78 39.18 L 37.62 42.13 L 34.46 45.11 L 31.55 48.25 L 29.13 51.63 L 26.72 55.02 L 24.31 58.40 L 21.89 61.79 L 19.47 65.17 L 17.21 68.62 L 15.53 72.31 L 13.87 76.01 L 12.19 79.70 L 10.54 83.40 L 8.87 87.09 L 7.79 91.03 L 6.88 95.04 L 5.97 99.05 L 5.06 103.06 L 4.15 107.07 L 3.50 111.18 L 3.50 115.57 L 3.50 119.95 L 3.50 124.34 L 3.50 128.72 L 3.50 133.11 L 3.77 137.38 L 4.54 141.45 L 5.33 145.51 L 6.09 149.58 L 6.88 153.64 L 7.81 157.64 L 9.45 161.34 L 11.07 165.06 L 12.71 168.76 L 14.33 172.48 L 15.97 176.18 L 17.61 179.89 L 19.58 183.46 L 21.99 186.85 L 24.41 190.23 L 26.83 193.61 L 29.51 196.89 L 32.65 199.90 L 35.82 202.82 L 38.96 205.84 L 42.10 208.84 L 45.27 211.77 L 48.60 214.33 L 52.13 216.40 L 55.65 218.47 L 59.20 220.51 L 62.72 222.58 L 66.25 224.65 L 69.79 226.70 L 73.57 228.15 L 77.48 229.32 L 81.39 230.47 L 85.29 231.62 L 89.20 232.77 L 93.10 233.94 L 97.01 235.09 L 101.18 235.61 L 105.46 235.87 L 109.74 236.12 L 113.98 236.47 L 117.99 237.38 L 122.38 237.38 L 126.76 237.38 L 130.73 236.37 L 135.00 236.08 L 139.26 235.77 L 143.53 235.50 L 147.66 234.88 L 151.58 233.77 L 155.50 232.64 L 159.42 231.52 L 163.34 230.40 L 167.24 229.22 L 170.88 227.41 L 174.51 225.59 L 178.14 223.77 L 181.77 221.95 L 185.41 220.14 L 189.04 218.32 L 192.53 216.15 L 195.86 213.62 L 199.19 211.06 L 202.52 208.53 L 205.85 205.97 L 209.08 203.17 L 212.04 200.01 L 215.01 196.86 L 218.02 193.72 L 220.95 190.55 L 223.96 187.41 L 226.33 184.00 L 228.62 180.57 L 230.91 177.13 L 233.03 173.62 L 234.85 169.99 L 236.67 166.36 L 238.48 162.73 L 240.08 159.00 L 241.44 155.18 L 242.80 151.36 L 244.15 147.53 L 245.00 143.50 L 245.74 139.42 L 246.49 135.34 L 247.23 131.26 L 247.97 127.18 L 248.38 122.97 L 248.38 118.58 L 248.38 114.20 L 248.38 109.81 L 248.29 105.46 L 247.62 101.36 L 246.93 97.26 L 246.25 93.15 L 245.56 89.05 L 244.88 84.95 L 243.94 80.95 L 242.33 77.23 L 240.73 73.51 L 239.10 69.80 L 237.48 66.08 L 235.87 62.37 L 234.18 58.68 L 231.72 55.31 L 229.26 51.95 L 226.80 48.58 L 224.32 45.22 L 221.38 42.13 L 218.17 39.29 L 214.98 36.40 L 211.78 33.53 L 208.58 30.69 L 205.39 27.78 L 201.99 25.40 L 198.44 23.39 L 194.89 21.38 L 191.33 19.38 L 187.78 17.36 L 184.23 15.36 L 180.64 13.43 L 176.77 12.18 L 172.89 10.97 L 169.02 9.72 L 165.14 8.51 L 161.22 7.38 L 157.12 6.70 L 153.02 6.01 L 148.91 5.34 L 144.81 4.64 L 140.48 4.50 L 136.10 4.50 L 132.07 3.64 Z M 125.63 32.64 L 128.55 33.42 L 131.27 34.85 L 133.13 37.44 L 133.50 40.64 L 134.42 43.62 L 135.40 46.57 L 136.39 49.52 L 137.36 52.48 L 138.35 55.43 L 139.34 58.38 L 140.32 61.33 L 141.30 64.28 L 142.28 67.23 L 143.27 70.18 L 144.26 73.13 L 145.24 76.09 L 146.22 79.04 L 147.20 81.99 L 148.76 84.70 L 151.11 86.52 L 154.28 86.99 L 157.45 87.44 L 160.62 87.88 L 163.79 88.36 L 167.14 88.38 L 170.50 88.38 L 173.86 88.38 L 177.22 88.38 L 180.57 88.38 L 183.93 88.38 L 187.29 88.38 L 190.65 88.38 L 194.01 88.38 L 197.37 88.38 L 200.64 88.59 L 203.47 89.85 L 205.85 92.22 L 206.50 95.31 L 206.08 98.50 L 204.09 101.03 L 201.82 103.31 L 199.24 105.18 L 196.65 107.03 L 194.06 108.91 L 191.48 110.78 L 188.90 112.65 L 186.31 114.51 L 183.73 116.38 L 181.14 118.24 L 178.55 120.10 L 175.97 121.98 L 173.39 123.85 L 170.80 125.72 L 168.21 127.58 L 166.17 129.92 L 164.65 132.65 L 165.29 135.62 L 166.16 138.62 L 167.03 141.61 L 167.91 144.61 L 168.78 147.61 L 169.66 150.61 L 170.53 153.60 L 171.40 156.60 L 172.28 159.60 L 173.15 162.59 L 174.03 165.59 L 174.90 168.58 L 175.77 171.58 L 176.65 174.58 L 177.52 177.57 L 178.40 180.57 L 178.50 183.89 L 178.23 187.14 L 175.86 189.51 L 172.81 190.25 L 169.65 190.26 L 167.12 188.27 L 164.59 186.27 L 162.06 184.28 L 159.53 182.27 L 157.00 180.27 L 154.47 178.27 L 151.93 176.28 L 149.40 174.28 L 146.87 172.29 L 144.33 170.30 L 141.80 168.30 L 139.28 166.29 L 136.75 164.29 L 134.21 162.30 L 131.62 160.46 L 128.45 160.00 L 125.29 159.54 L 122.68 161.29 L 120.14 163.26 L 117.60 165.25 L 115.07 167.24 L 112.53 169.22 L 109.99 171.21 L 107.46 173.20 L 104.93 175.19 L 102.38 177.16 L 99.85 179.16 L 97.32 181.15 L 94.79 183.14 L 92.25 185.13 L 89.71 187.11 L 87.15 189.03 L 84.40 190.50 L 81.04 190.50 L 78.07 189.57 L 76.14 187.01 L 75.41 183.96 L 76.30 180.99 L 77.23 178.02 L 78.15 175.04 L 79.09 172.07 L 80.01 169.09 L 80.95 166.12 L 81.87 163.14 L 82.81 160.18 L 83.73 157.20 L 84.67 154.23 L 85.58 151.25 L 86.53 148.28 L 87.44 145.30 L 88.39 142.33 L 89.30 139.35 L 90.24 136.38 L 90.38 133.08 L 88.64 130.68 L 86.06 128.81 L 83.48 126.94 L 80.90 125.06 L 78.32 123.17 L 75.74 121.29 L 73.16 119.41 L 70.57 117.54 L 67.99 115.66 L 65.42 113.77 L 62.84 111.89 L 60.26 110.02 L 57.67 108.15 L 55.10 106.24 L 52.52 104.37 L 49.96 102.45 L 48.41 99.73 L 46.95 96.98 L 47.48 94.22 L 49.17 91.56 L 51.61 89.84 L 54.56 88.85 L 57.72 88.38 L 61.08 88.38 L 64.44 88.38 L 67.80 88.38 L 71.16 88.38 L 74.52 88.38 L 77.88 88.38 L 81.23 88.38 L 84.59 88.38 L 87.95 88.38 L 91.31 88.38 L 94.67 88.38 L 98.03 88.38 L 101.18 87.88 L 104.06 86.73 L 105.68 84.31 L 106.74 81.39 L 107.84 78.48 L 108.92 75.58 L 109.99 72.66 L 111.08 69.75 L 111.98 66.76 L 112.80 63.75 L 113.64 60.74 L 114.47 57.72 L 115.30 54.71 L 116.13 51.69 L 116.97 48.68 L 117.79 45.66 L 118.63 42.65 L 119.51 39.66 L 120.91 36.88 L 123.09 34.61 Z" fill="#000000" fill-rule="evenodd"/>
</svg>
