<svg xmlns="http://www.w3.org/2000/svg" viewBox="0 0 229 317" width="229" height="317" role="img" aria-label="02_d_odd_first">
  <title>02_d_odd_first</title>
  <path d="M 146.89 3.54 L 142.19 5.41 L 138.25 9.13 L 135.62 13.52 L 134.50 18.53 L 134.50 24.01 L 134.50 29.49 L 134.50 34.97 L 134.50 40.45 L 134.50 45.93 L 134.50 51.41 L 134.50 56.89 L 134.50 62.36 L 134.50 67.84 L 134.50 73.32 L 134.50 78.80 L 134.50 84.28 L 133.65 89.14 L 128.94 88.00 L 124.01 86.68 L 118.98 85.60 L 113.94 84.53 L 108.89 83.51 L 103.41 83.50 L 97.93 83.50 L 92.58 83.81 L 87.58 84.96 L 82.57 86.09 L 77.56 87.22 L 72.56 88.37 L 67.96 90.49 L 63.42 92.76 L 59.10 95.56 L 54.89 98.63 L 50.72 101.78 L 47.22 105.81 L 43.76 109.86 L 40.26 113.89 L 37.38 118.17 L 35.11 122.71 L 33.02 127.32 L 34.01 131.96 L 36.28 136.50 L 38.55 141.04 L 40.28 145.80 L 41.62 150.73 L 42.96 155.65 L 44.31 160.57 L 45.50 165.56 L 45.63 170.98 L 45.85 176.37 L 46.00 181.79 L 46.12 187.21 L 46.25 192.64 L 46.38 198.07 L 46.14 203.34 L 45.37 208.51 L 44.23 213.51 L 43.10 218.52 L 41.95 223.52 L 40.82 228.54 L 39.12 233.31 L 37.18 237.99 L 35.26 242.67 L 33.25 247.32 L 30.52 251.66 L 27.77 256.01 L 25.02 260.35 L 22.29 264.69 L 18.87 268.76 L 15.13 272.68 L 11.39 276.61 L 7.69 280.56 L 4.38 284.67 L 3.64 289.84 L 5.08 294.61 L 7.65 299.02 L 11.52 302.90 L 15.63 306.22 L 20.19 308.43 L 25.15 309.68 L 30.12 310.92 L 35.41 311.38 L 40.89 311.38 L 46.31 311.50 L 51.79 311.50 L 57.27 311.50 L 62.75 311.50 L 68.18 311.62 L 73.66 311.62 L 79.13 311.62 L 84.61 311.62 L 90.04 311.75 L 95.52 311.75 L 101.00 311.75 L 106.48 311.75 L 111.92 311.84 L 117.38 311.88 L 122.86 311.88 L 128.34 311.88 L 133.82 311.88 L 139.25 312.00 L 144.73 312.00 L 150.21 312.00 L 155.68 312.00 L 161.11 312.13 L 166.59 312.13 L 172.07 312.13 L 177.55 312.13 L 182.98 312.25 L 188.45 312.25 L 193.93 312.25 L 199.41 312.25 L 204.84 312.38 L 210.32 312.38 L 215.37 311.35 L 219.99 309.26 L 223.48 305.23 L 224.12 300.02 L 222.36 295.48 L 219.01 291.39 L 215.67 287.29 L 213.30 282.79 L 211.19 278.19 L 209.95 273.23 L 209.38 267.98 L 209.38 262.50 L 209.38 257.03 L 209.38 251.55 L 209.38 246.07 L 209.38 240.59 L 209.38 235.11 L 209.38 229.63 L 209.38 224.15 L 209.38 218.67 L 209.38 213.19 L 209.38 207.71 L 209.38 202.24 L 209.38 196.76 L 209.38 191.28 L 209.38 185.80 L 209.38 180.32 L 209.38 174.84 L 209.38 169.36 L 209.38 163.88 L 209.38 158.40 L 209.38 152.93 L 209.38 147.45 L 209.38 141.97 L 209.38 136.49 L 209.38 131.01 L 209.38 125.53 L 209.38 120.05 L 209.38 114.57 L 209.38 109.09 L 209.38 103.61 L 209.38 98.14 L 209.38 92.66 L 209.38 87.18 L 209.38 81.70 L 209.38 76.22 L 209.38 70.74 L 209.38 65.26 L 209.38 59.78 L 209.38 54.30 L 209.38 48.83 L 209.38 43.35 L 209.38 37.87 L 209.38 32.39 L 209.38 26.91 L 209.38 21.43 L 209.38 15.95 L 208.05 11.02 L 205.09 6.77 L 200.54 4.61 L 195.52 3.50 L 190.04 3.50 L 184.56 3.50 L 179.08 3.50 L 173.60 3.50 L 168.12 3.50 L 162.64 3.50 L 157.16 3.50 L 151.69 3.50 Z M 118.74 167.47 L 119.86 167.42 L 121.00 167.50 L 122.14 167.60 L 123.30 167.63 L 124.43 167.75 L 125.60 167.76 L 126.73 167.87 L 127.89 167.93 L 129.04 168.00 L 130.17 168.11 L 131.34 168.13 L 132.47 168.25 L 133.64 168.26 L 134.76 168.39 L 135.75 168.85 L 136.70 169.39 L 137.64 169.97 L 138.60 170.51 L 139.55 171.06 L 140.49 171.62 L 141.44 172.17 L 142.39 172.73 L 143.34 173.27 L 144.29 173.82 L 145.23 174.39 L 146.18 174.94 L 147.09 175.59 L 147.88 176.44 L 148.62 177.31 L 149.39 178.17 L 150.14 179.04 L 150.90 179.90 L 151.64 180.77 L 152.39 181.64 L 153.13 182.51 L 153.75 183.43 L 154.24 184.41 L 154.72 185.38 L 155.21 186.36 L 155.70 187.33 L 156.19 188.31 L 156.68 189.28 L 157.16 190.26 L 157.58 191.26 L 157.82 192.34 L 158.06 193.42 L 158.30 194.50 L 158.53 195.58 L 158.77 196.66 L 159.01 197.74 L 159.25 198.82 L 159.48 199.90 L 159.35 201.00 L 159.15 202.10 L 159.00 203.21 L 158.84 204.33 L 158.64 205.42 L 158.49 206.54 L 158.32 207.64 L 158.14 208.75 L 157.98 209.86 L 157.81 210.96 L 157.63 212.07 L 157.39 213.15 L 156.86 214.10 L 156.33 215.07 L 155.82 216.03 L 155.29 216.99 L 154.76 217.94 L 154.25 218.91 L 153.72 219.87 L 153.18 220.83 L 152.68 221.79 L 152.15 222.75 L 151.60 223.70 L 150.82 224.56 L 149.95 225.30 L 149.08 226.05 L 148.23 226.84 L 147.37 227.61 L 146.51 228.37 L 145.64 229.11 L 144.77 229.86 L 143.92 230.64 L 143.05 231.38 L 142.06 231.85 L 141.05 232.23 L 140.03 232.64 L 139.02 233.04 L 138.00 233.42 L 137.00 233.83 L 135.99 234.23 L 134.97 234.62 L 133.96 235.02 L 132.95 235.42 L 131.93 235.81 L 130.83 236.00 L 129.70 236.12 L 128.53 236.13 L 127.36 236.15 L 126.22 236.25 L 125.04 236.25 L 123.92 236.37 L 122.74 236.38 L 121.57 236.39 L 120.44 236.50 L 119.36 236.27 L 118.34 235.88 L 117.33 235.48 L 116.31 235.10 L 115.29 234.72 L 114.28 234.31 L 113.26 233.93 L 112.24 233.54 L 111.23 233.14 L 110.21 232.76 L 109.20 232.36 L 108.18 231.97 L 107.17 231.58 L 106.31 230.81 L 105.52 229.96 L 104.73 229.11 L 103.95 228.25 L 103.15 227.40 L 102.41 226.54 L 101.58 225.70 L 100.83 224.83 L 100.00 224.00 L 99.26 223.13 L 98.43 222.30 L 97.68 221.43 L 96.89 220.58 L 96.10 219.73 L 95.39 218.84 L 95.02 217.82 L 94.68 216.78 L 94.33 215.75 L 93.99 214.72 L 93.64 213.68 L 93.30 212.64 L 92.95 211.61 L 92.61 210.58 L 92.27 209.54 L 91.92 208.51 L 91.57 207.47 L 91.38 206.38 L 91.50 205.25 L 91.56 204.10 L 91.63 202.95 L 91.74 201.82 L 91.76 200.65 L 91.87 199.52 L 91.95 198.37 L 92.00 197.22 L 92.12 196.09 L 92.14 194.92 L 92.25 193.79 L 92.35 192.65 L 92.56 191.56 L 93.05 190.59 L 93.54 189.61 L 94.02 188.63 L 94.51 187.66 L 95.00 186.68 L 95.49 185.71 L 95.98 184.73 L 96.46 183.76 L 96.95 182.78 L 97.52 181.84 L 98.28 180.97 L 99.11 180.14 L 99.94 179.31 L 100.77 178.48 L 101.61 177.64 L 102.44 176.81 L 103.27 175.98 L 104.11 175.14 L 104.94 174.31 L 105.77 173.48 L 106.62 172.68 L 107.56 172.12 L 108.57 171.70 L 109.57 171.27 L 110.58 170.87 L 111.58 170.44 L 112.58 170.02 L 113.59 169.61 L 114.59 169.19 L 115.59 168.76 L 116.60 168.36 L 117.60 167.93 L 118.61 167.51 Z" fill="#000000" fill-rule="evenodd"/>
</svg>
