<svg xmlns="http://www.w3.org/2000/svg" viewBox="0 0 248 240" width="248" height="240" role="img" aria-label="06_O_from_star">
  <title>06_O_from_star</title>
  <path d="M 121.77 3.54 L 117.93 4.50 L 114.10 5.46 L 110.26 6.42 L 106.42 7.38 L 102.59 8.34 L 98.75 9.29 L 94.92 10.25 L 91.33 11.81 L 87.82 13.56 L 84.31 15.31 L 80.81 17.06 L 77.30 18.82 L 73.81 20.60 L 70.58 23.02 L 67.35 25.44 L 64.12 27.87 L 60.89 30.28 L 57.66 32.71 L 54.43 35.13 L 51.51 38.12 L 48.60 41.15 L 45.70 44.18 L 42.88 47.24 L 39.98 50.27 L 37.07 53.30 L 34.78 56.59 L 32.60 59.92 L 30.42 63.25 L 28.24 66.58 L 26.06 69.91 L 23.88 73.24 L 21.70 76.57 L 19.53 79.90 L 17.96 83.48 L 16.40 87.07 L 14.83 90.65 L 13.29 94.25 L 11.72 97.83 L 10.16 101.41 L 8.98 105.16 L 8.10 109.03 L 7.20 112.89 L 6.30 116.75 L 5.42 120.62 L 4.52 124.48 L 3.63 128.34 L 3.50 132.52 L 3.50 136.75 L 3.50 140.99 L 3.50 145.22 L 3.50 149.45 L 3.77 153.57 L 4.43 157.53 L 5.10 161.49 L 5.95 165.37 L 7.09 169.13 L 8.25 172.88 L 9.42 176.63 L 11.26 180.10 L 13.18 183.54 L 15.08 186.98 L 16.99 190.42 L 18.90 193.87 L 21.48 197.03 L 24.33 200.08 L 27.20 203.13 L 30.05 206.18 L 32.95 209.21 L 35.94 212.06 L 39.22 214.34 L 42.51 216.62 L 45.80 218.90 L 49.19 220.94 L 52.76 222.54 L 56.33 224.14 L 59.89 225.76 L 63.46 227.36 L 67.02 228.98 L 70.82 230.03 L 74.69 230.91 L 78.56 231.78 L 82.43 232.66 L 86.30 233.53 L 90.19 234.37 L 94.37 234.50 L 98.55 234.62 L 102.73 234.75 L 106.91 234.88 L 111.09 235.00 L 115.27 235.12 L 119.46 235.22 L 123.66 235.31 L 127.76 235.11 L 131.74 234.51 L 135.72 233.90 L 139.71 233.31 L 143.70 232.73 L 147.57 231.85 L 151.32 230.68 L 155.05 229.48 L 158.79 228.28 L 162.54 227.11 L 166.27 225.91 L 169.88 224.40 L 173.39 222.65 L 176.89 220.89 L 180.40 219.14 L 183.91 217.39 L 187.31 215.38 L 190.57 213.03 L 193.83 210.68 L 197.08 208.33 L 200.35 205.98 L 203.60 203.62 L 206.60 200.65 L 209.60 197.65 L 212.59 194.66 L 215.58 191.67 L 218.10 188.48 L 220.42 185.21 L 222.72 181.93 L 225.05 178.66 L 227.36 175.38 L 229.31 171.96 L 230.96 168.41 L 232.65 164.88 L 234.31 161.33 L 235.96 157.78 L 237.13 154.03 L 238.12 150.21 L 239.11 146.39 L 240.09 142.56 L 241.08 138.74 L 242.07 134.92 L 243.09 131.10 L 243.38 126.99 L 243.38 122.76 L 243.38 118.52 L 243.38 114.29 L 243.38 110.06 L 243.38 105.83 L 243.18 101.67 L 242.56 97.70 L 241.97 93.71 L 241.32 89.74 L 240.19 85.98 L 239.06 82.21 L 237.94 78.45 L 236.81 74.68 L 235.68 70.92 L 234.03 67.37 L 232.23 63.88 L 230.37 60.42 L 228.56 56.93 L 226.76 53.45 L 224.91 49.98 L 222.68 46.67 L 220.25 43.44 L 217.75 40.25 L 214.76 37.26 L 211.76 34.26 L 208.77 31.27 L 205.78 28.28 L 202.65 25.60 L 199.36 23.32 L 196.07 21.05 L 192.78 18.77 L 189.36 16.82 L 185.77 15.26 L 182.19 13.69 L 178.60 12.14 L 175.01 10.58 L 171.43 9.02 L 167.83 7.49 L 163.94 6.66 L 160.04 5.84 L 156.16 5.01 L 152.26 4.20 L 148.31 3.50 L 144.08 3.50 L 139.85 3.50 L 135.62 3.50 L 131.38 3.50 L 127.15 3.50 L 122.92 3.50 Z M 125.73 31.49 L 128.28 33.28 L 130.81 35.34 L 132.17 38.13 L 133.09 41.13 L 134.00 44.12 L 134.91 47.12 L 135.82 50.12 L 136.73 53.12 L 137.64 56.12 L 138.55 59.12 L 139.46 62.12 L 140.37 65.11 L 141.28 68.11 L 142.20 71.11 L 143.11 74.10 L 144.03 77.10 L 144.94 80.10 L 146.21 82.95 L 148.17 85.46 L 151.07 86.63 L 154.08 87.25 L 157.30 86.88 L 160.53 86.52 L 163.43 87.37 L 166.80 87.38 L 170.18 87.38 L 173.56 87.38 L 176.93 87.38 L 180.31 87.38 L 183.68 87.38 L 187.06 87.38 L 190.43 87.38 L 193.81 87.38 L 197.01 87.80 L 199.90 88.97 L 202.17 91.07 L 203.50 93.90 L 202.89 97.02 L 201.37 99.76 L 199.01 101.88 L 196.42 103.76 L 193.82 105.65 L 191.22 107.52 L 188.62 109.39 L 186.02 111.27 L 183.42 113.14 L 180.83 115.02 L 178.23 116.90 L 175.63 118.78 L 173.03 120.65 L 170.44 122.53 L 167.83 124.40 L 165.24 126.28 L 163.44 128.90 L 161.74 131.57 L 161.51 134.85 L 162.44 137.84 L 163.38 140.82 L 164.34 143.80 L 165.28 146.79 L 166.24 149.76 L 167.17 152.75 L 168.13 155.73 L 169.07 158.72 L 170.03 161.69 L 170.98 164.68 L 171.93 167.66 L 172.88 170.64 L 173.83 173.62 L 174.78 176.61 L 175.74 179.59 L 176.36 182.59 L 175.74 185.70 L 174.01 188.36 L 171.00 189.25 L 167.77 189.41 L 165.06 187.80 L 162.53 185.76 L 159.99 183.73 L 157.47 181.68 L 154.94 179.63 L 152.40 177.60 L 149.88 175.55 L 147.34 173.52 L 144.82 171.47 L 142.28 169.44 L 139.75 167.40 L 137.22 165.36 L 134.69 163.32 L 132.16 161.28 L 129.58 159.36 L 126.62 158.37 L 123.69 157.72 L 121.12 159.67 L 118.58 161.67 L 116.01 163.63 L 113.47 165.64 L 110.90 167.60 L 108.36 169.60 L 105.80 171.57 L 103.24 173.55 L 100.69 175.53 L 98.13 177.51 L 95.58 179.49 L 93.02 181.47 L 90.47 183.45 L 87.91 185.43 L 85.35 187.41 L 82.52 188.72 L 79.33 189.16 L 76.36 188.86 L 73.97 186.47 L 73.38 183.35 L 73.40 179.98 L 74.41 177.02 L 75.47 174.09 L 76.49 171.14 L 77.55 168.20 L 78.58 165.25 L 79.64 162.31 L 80.67 159.36 L 81.73 156.43 L 82.76 153.48 L 83.82 150.54 L 84.77 147.56 L 85.63 144.54 L 86.49 141.52 L 87.36 138.50 L 88.22 135.48 L 88.38 132.17 L 86.91 129.41 L 84.52 127.02 L 81.95 125.07 L 79.35 123.19 L 76.75 121.33 L 74.14 119.47 L 71.55 117.58 L 68.95 115.72 L 66.35 113.85 L 63.74 111.98 L 61.14 110.12 L 58.54 108.24 L 55.94 106.37 L 53.34 104.51 L 50.85 102.35 L 48.47 99.97 L 46.43 97.48 L 46.88 94.29 L 47.38 91.13 L 50.01 89.50 L 52.77 88.02 L 55.88 87.38 L 59.25 87.38 L 62.63 87.38 L 66.00 87.38 L 69.38 87.38 L 72.76 87.38 L 76.13 87.38 L 79.51 87.38 L 82.88 87.38 L 86.26 87.38 L 89.63 87.38 L 93.01 87.38 L 96.38 87.38 L 99.62 87.04 L 102.41 85.63 L 104.45 83.22 L 105.86 80.43 L 106.85 77.46 L 107.84 74.50 L 108.78 71.51 L 109.64 68.49 L 110.51 65.48 L 111.37 62.46 L 112.23 59.44 L 113.10 56.42 L 113.95 53.40 L 114.82 50.38 L 115.68 47.36 L 116.55 44.35 L 117.40 41.33 L 118.27 38.31 L 120.19 35.73 L 122.26 33.21 L 124.96 31.72 Z" fill="#000000" fill-rule="evenodd"/>
</svg>
