<svg xmlns="http://www.w3.org/2000/svg" viewBox="0 0 276 303" width="276" height="303" role="img" aria-label="08_y_you">
  <title>08_y_you</title>
  <path d="M 178.89 3.55 L 171.62 6.80 L 167.15 13.54 L 165.50 21.48 L 165.50 30.10 L 165.50 38.72 L 165.50 47.33 L 165.50 55.95 L 165.50 64.57 L 165.50 73.19 L 165.50 81.81 L 165.50 90.43 L 165.50 99.05 L 165.50 107.67 L 165.50 116.29 L 161.08 122.79 L 153.84 126.11 L 145.69 127.25 L 137.75 126.12 L 130.34 123.20 L 124.42 117.41 L 120.08 110.58 L 117.22 103.15 L 115.43 95.27 L 114.09 87.20 L 113.38 78.88 L 113.38 70.26 L 112.25 62.11 L 112.12 53.54 L 111.88 45.02 L 111.75 36.46 L 111.51 27.93 L 111.37 19.37 L 108.37 12.00 L 101.90 6.98 L 93.48 6.50 L 84.86 6.50 L 76.46 5.97 L 68.04 5.50 L 59.42 5.50 L 50.80 5.50 L 42.18 5.50 L 33.56 5.50 L 24.94 5.50 L 16.32 5.50 L 9.22 9.16 L 4.66 15.89 L 3.50 24.03 L 3.50 32.65 L 3.50 41.27 L 3.50 49.89 L 3.50 58.51 L 3.50 67.13 L 3.50 75.75 L 4.03 84.15 L 5.38 92.21 L 5.50 100.78 L 6.68 108.91 L 8.27 116.87 L 10.89 124.41 L 13.63 131.89 L 16.90 139.16 L 21.22 145.99 L 25.54 152.82 L 30.86 159.23 L 36.95 165.33 L 43.34 170.72 L 50.04 175.36 L 56.99 179.40 L 64.13 182.97 L 71.64 185.64 L 79.19 188.21 L 86.85 190.54 L 94.81 192.13 L 103.20 192.69 L 111.68 193.03 L 119.82 194.18 L 128.20 194.00 L 136.68 193.66 L 145.10 193.18 L 153.17 191.84 L 161.59 191.38 L 165.50 196.97 L 161.38 203.88 L 154.48 207.87 L 146.67 209.82 L 138.38 210.62 L 129.81 210.75 L 121.23 210.84 L 112.63 210.88 L 104.06 211.00 L 95.49 211.13 L 86.92 211.25 L 78.35 211.38 L 70.13 210.68 L 61.58 210.50 L 52.96 210.50 L 44.34 210.50 L 35.72 210.50 L 27.10 210.50 L 19.64 213.29 L 15.30 219.86 L 13.50 227.74 L 13.50 236.36 L 13.50 244.98 L 13.50 253.60 L 13.50 262.22 L 13.50 270.84 L 13.50 279.45 L 14.51 287.65 L 18.43 294.43 L 25.61 297.91 L 34.04 298.38 L 42.66 298.38 L 51.28 298.38 L 59.90 298.38 L 68.52 298.38 L 77.14 298.38 L 85.76 298.38 L 94.38 298.38 L 103.00 298.38 L 111.61 298.38 L 120.23 298.38 L 128.85 298.38 L 137.47 298.38 L 146.09 298.38 L 154.71 298.38 L 163.33 298.38 L 171.95 298.38 L 180.57 298.38 L 189.19 298.38 L 197.81 298.38 L 205.82 296.90 L 213.63 294.95 L 221.34 292.74 L 228.63 289.53 L 235.34 284.94 L 242.02 280.23 L 247.76 273.99 L 253.20 267.63 L 257.46 260.77 L 261.03 253.63 L 263.42 246.00 L 265.68 238.32 L 266.86 230.19 L 267.50 221.83 L 268.15 213.48 L 269.25 205.42 L 269.12 196.85 L 268.88 188.34 L 268.75 179.77 L 268.50 171.25 L 268.38 162.69 L 268.18 154.15 L 268.00 145.60 L 267.87 137.03 L 267.62 128.52 L 267.50 119.95 L 268.50 111.85 L 269.00 103.43 L 269.38 94.97 L 269.87 86.56 L 270.25 78.09 L 271.38 69.94 L 271.38 61.32 L 271.38 52.70 L 271.38 44.08 L 271.38 35.46 L 271.38 26.84 L 271.38 18.22 L 269.16 10.52 L 263.29 4.93 L 255.26 3.50 L 246.64 3.50 L 238.02 3.50 L 229.40 3.50 L 220.78 3.50 L 212.16 3.50 L 203.54 3.50 L 194.92 3.50 L 186.30 3.50 Z" fill="#000000" fill-rule="evenodd"/>
</svg>
